<?xml version="1.0" encoding="UTF-8" standalone="no"?>
<!DOCTYPE svg PUBLIC "-//W3C//DTD SVG 1.1//EN"
 "http://www.w3.org/Graphics/SVG/1.1/DTD/svg11.dtd">
<!-- Generated by graphviz version 2.43.0 (0)
 -->
<!-- Title: print_object Pages: 1 -->
<svg width="675pt" height="104pt"
 viewBox="0.00 0.00 675.00 104.00" xmlns="http://www.w3.org/2000/svg" xmlns:xlink="http://www.w3.org/1999/xlink">
<g id="graph0" class="graph" transform="scale(1 1) rotate(0) translate(4 100)">
<title>print_object</title>
<polygon fill="white" stroke="transparent" points="-4,4 -4,-100 671,-100 671,4 -4,4"/>
<!-- Node1 -->
<g id="node1" class="node">
<title>Node1</title>
<g id="a_node1"><a xlink:title=" ">
<polygon fill="#bfbfbf" stroke="black" points="593,-19.5 593,-38.5 667,-38.5 667,-19.5 593,-19.5"/>
<text text-anchor="middle" x="630" y="-26.5" font-family="Helvetica,sans-Serif" font-size="10.00">print_object</text>
</a>
</g>
</g>
<!-- Node2 -->
<g id="node2" class="node">
<title>Node2</title>
<g id="a_node2"><a xlink:href="cJSON_8c.html#a5ba141f183b9abb4b49e38a211299c7e" target="_top" xlink:title=" ">
<polygon fill="white" stroke="black" points="486,-19.5 486,-38.5 557,-38.5 557,-19.5 486,-19.5"/>
<text text-anchor="middle" x="521.5" y="-26.5" font-family="Helvetica,sans-Serif" font-size="10.00">print_value</text>
</a>
</g>
</g>
<!-- Node1&#45;&gt;Node2 -->
<g id="edge1" class="edge">
<title>Node1&#45;&gt;Node2</title>
<path fill="none" stroke="midnightblue" d="M582.94,-22.3C574.26,-22.17 565.33,-22.28 557.08,-22.63"/>
<polygon fill="midnightblue" stroke="midnightblue" points="582.85,-25.8 592.94,-22.57 583.04,-18.81 582.85,-25.8"/>
</g>
<!-- Node2&#45;&gt;Node1 -->
<g id="edge9" class="edge">
<title>Node2&#45;&gt;Node1</title>
<path fill="none" stroke="midnightblue" d="M567.3,-35.67C575.85,-35.83 584.71,-35.75 592.94,-35.43"/>
<polygon fill="midnightblue" stroke="midnightblue" points="567.18,-32.17 557.08,-35.37 566.97,-39.17 567.18,-32.17"/>
</g>
<!-- Node3 -->
<g id="node3" class="node">
<title>Node3</title>
<g id="a_node3"><a xlink:href="cJSON_8c.html#a5ae150f0e5009534979d4532a411d077" target="_top" xlink:title=" ">
<polygon fill="white" stroke="black" points="316,-76.5 316,-95.5 450,-95.5 450,-76.5 316,-76.5"/>
<text text-anchor="middle" x="383" y="-83.5" font-family="Helvetica,sans-Serif" font-size="10.00">cJSON_PrintPreallocated</text>
</a>
</g>
</g>
<!-- Node2&#45;&gt;Node3 -->
<g id="edge2" class="edge">
<title>Node2&#45;&gt;Node3</title>
<path fill="none" stroke="midnightblue" d="M496.05,-43.86C482.76,-51.5 465.85,-60.53 450,-67 441.28,-70.56 431.65,-73.73 422.52,-76.41"/>
<polygon fill="midnightblue" stroke="midnightblue" points="498.16,-46.68 505.01,-38.6 494.62,-40.64 498.16,-46.68"/>
</g>
<!-- Node4 -->
<g id="node4" class="node">
<title>Node4</title>
<g id="a_node4"><a xlink:href="cJSON_8c.html#ae71e2aec89bf140e6430cb7d5ca417c5" target="_top" xlink:title=" ">
<polygon fill="white" stroke="black" points="363.5,-38.5 363.5,-57.5 402.5,-57.5 402.5,-38.5 363.5,-38.5"/>
<text text-anchor="middle" x="383" y="-45.5" font-family="Helvetica,sans-Serif" font-size="10.00">print</text>
</a>
</g>
</g>
<!-- Node2&#45;&gt;Node4 -->
<g id="edge3" class="edge">
<title>Node2&#45;&gt;Node4</title>
<path fill="none" stroke="midnightblue" d="M475.77,-35.23C450.99,-38.68 421.5,-42.78 402.76,-45.39"/>
<polygon fill="midnightblue" stroke="midnightblue" points="476.28,-38.69 485.7,-33.84 475.32,-31.76 476.28,-38.69"/>
</g>
<!-- Node7 -->
<g id="node7" class="node">
<title>Node7</title>
<g id="a_node7"><a xlink:href="cJSON_8c.html#ae84642817f3965a85c7c617663250c16" target="_top" xlink:title=" ">
<polygon fill="white" stroke="black" points="348,-0.5 348,-19.5 418,-19.5 418,-0.5 348,-0.5"/>
<text text-anchor="middle" x="383" y="-7.5" font-family="Helvetica,sans-Serif" font-size="10.00">print_array</text>
</a>
</g>
</g>
<!-- Node2&#45;&gt;Node7 -->
<g id="edge7" class="edge">
<title>Node2&#45;&gt;Node7</title>
<path fill="none" stroke="midnightblue" d="M482.13,-17.52C461.98,-13.84 437.51,-10.5 418.04,-8.81"/>
<polygon fill="midnightblue" stroke="midnightblue" points="481.73,-21.01 492.22,-19.47 483.06,-14.14 481.73,-21.01"/>
</g>
<!-- Node5 -->
<g id="node5" class="node">
<title>Node5</title>
<g id="a_node5"><a xlink:href="namespaceTimings.html#aadf2661fed15eeec1d5ca92e8125726e" target="_top" xlink:title=" ">
<polygon fill="white" stroke="black" points="119,-57.5 119,-76.5 280,-76.5 280,-57.5 119,-57.5"/>
<text text-anchor="middle" x="199.5" y="-64.5" font-family="Helvetica,sans-Serif" font-size="10.00">Timings.analyze_timing_data</text>
</a>
</g>
</g>
<!-- Node4&#45;&gt;Node5 -->
<g id="edge4" class="edge">
<title>Node4&#45;&gt;Node5</title>
<path fill="none" stroke="midnightblue" d="M353.13,-51.02C333.42,-53.09 306.27,-55.93 280.34,-58.64"/>
<polygon fill="midnightblue" stroke="midnightblue" points="353.68,-54.48 363.26,-49.96 352.95,-47.52 353.68,-54.48"/>
</g>
<!-- Node6 -->
<g id="node6" class="node">
<title>Node6</title>
<g id="a_node6"><a xlink:href="namespaceTimings.html#a4dc59d29cbbbc539305dfa472f2e0f52" target="_top" xlink:title=" ">
<polygon fill="white" stroke="black" points="0,-38.5 0,-57.5 83,-57.5 83,-38.5 0,-38.5"/>
<text text-anchor="middle" x="41.5" y="-45.5" font-family="Helvetica,sans-Serif" font-size="10.00">Timings.main</text>
</a>
</g>
</g>
<!-- Node4&#45;&gt;Node6 -->
<g id="edge6" class="edge">
<title>Node4&#45;&gt;Node6</title>
<path fill="none" stroke="midnightblue" d="M352.91,-48C292.36,-48 152.62,-48 83.19,-48"/>
<polygon fill="midnightblue" stroke="midnightblue" points="353.26,-51.5 363.26,-48 353.26,-44.5 353.26,-51.5"/>
</g>
<!-- Node5&#45;&gt;Node6 -->
<g id="edge5" class="edge">
<title>Node5&#45;&gt;Node6</title>
<path fill="none" stroke="midnightblue" d="M109.91,-56.21C100.63,-55.08 91.55,-53.97 83.21,-52.96"/>
<polygon fill="midnightblue" stroke="midnightblue" points="109.69,-59.71 120.04,-57.44 110.54,-52.76 109.69,-59.71"/>
</g>
<!-- Node7&#45;&gt;Node2 -->
<g id="edge8" class="edge">
<title>Node7&#45;&gt;Node2</title>
<path fill="none" stroke="midnightblue" d="M422.28,-21.46C442.18,-25.11 466.33,-28.41 485.7,-30.13"/>
<polygon fill="midnightblue" stroke="midnightblue" points="422.79,-18 412.3,-19.53 421.46,-24.87 422.79,-18"/>
</g>
</g>
</svg>
