<?xml version="1.0" encoding="UTF-8" standalone="no"?>
<!DOCTYPE svg PUBLIC "-//W3C//DTD SVG 1.1//EN"
 "http://www.w3.org/Graphics/SVG/1.1/DTD/svg11.dtd">
<!-- Generated by graphviz version 2.43.0 (0)
 -->
<!-- Title: buffer_skip_whitespace Pages: 1 -->
<svg width="834pt" height="81pt"
 viewBox="0.00 0.00 834.00 80.58" xmlns="http://www.w3.org/2000/svg" xmlns:xlink="http://www.w3.org/1999/xlink">
<g id="graph0" class="graph" transform="scale(1 1) rotate(0) translate(4 76.58)">
<title>buffer_skip_whitespace</title>
<polygon fill="white" stroke="transparent" points="-4,4 -4,-76.58 830,-76.58 830,4 -4,4"/>
<!-- Node1 -->
<g id="node1" class="node">
<title>Node1</title>
<g id="a_node1"><a xlink:title=" ">
<polygon fill="#bfbfbf" stroke="black" points="695,-15.08 695,-34.08 826,-34.08 826,-15.08 695,-15.08"/>
<text text-anchor="middle" x="760.5" y="-22.08" font-family="Helvetica,sans-Serif" font-size="10.00">buffer_skip_whitespace</text>
</a>
</g>
</g>
<!-- Node2 -->
<g id="node2" class="node">
<title>Node2</title>
<g id="a_node2"><a xlink:href="cJSON_8c.html#a3a24e49a04490273160cdc1f30f10d22" target="_top" xlink:title=" ">
<polygon fill="white" stroke="black" points="282,-53.08 282,-72.08 437,-72.08 437,-53.08 282,-53.08"/>
<text text-anchor="middle" x="359.5" y="-60.08" font-family="Helvetica,sans-Serif" font-size="10.00">cJSON_ParseWithLengthOpts</text>
</a>
</g>
</g>
<!-- Node1&#45;&gt;Node2 -->
<g id="edge1" class="edge">
<title>Node1&#45;&gt;Node2</title>
<path fill="none" stroke="midnightblue" d="M705.51,-36.06C690.51,-38.9 674.17,-41.67 659,-43.58 583.91,-53.03 497.56,-57.88 437.12,-60.31"/>
<polygon fill="midnightblue" stroke="midnightblue" points="706.51,-39.43 715.66,-34.09 705.17,-32.56 706.51,-39.43"/>
</g>
<!-- Node5 -->
<g id="node5" class="node">
<title>Node5</title>
<g id="a_node5"><a xlink:href="cJSON_8c.html#a367cc7ac5a592211d9f18dc02dd23069" target="_top" xlink:title=" ">
<polygon fill="white" stroke="black" points="585,-15.08 585,-34.08 659,-34.08 659,-15.08 585,-15.08"/>
<text text-anchor="middle" x="622" y="-22.08" font-family="Helvetica,sans-Serif" font-size="10.00">parse_array</text>
</a>
</g>
</g>
<!-- Node1&#45;&gt;Node5 -->
<g id="edge4" class="edge">
<title>Node1&#45;&gt;Node5</title>
<path fill="none" stroke="midnightblue" d="M684.78,-24.58C675.9,-24.58 667.16,-24.58 659.18,-24.58"/>
<polygon fill="midnightblue" stroke="midnightblue" points="684.85,-28.08 694.85,-24.58 684.85,-21.08 684.85,-28.08"/>
</g>
<!-- Node7 -->
<g id="node7" class="node">
<title>Node7</title>
<g id="a_node7"><a xlink:href="cJSON_8c.html#a1472ac5d1becd7d9a5e558b4c053b06a" target="_top" xlink:title=" ">
<polygon fill="white" stroke="black" points="320,-15.08 320,-34.08 399,-34.08 399,-15.08 320,-15.08"/>
<text text-anchor="middle" x="359.5" y="-22.08" font-family="Helvetica,sans-Serif" font-size="10.00">parse_object</text>
</a>
</g>
</g>
<!-- Node1&#45;&gt;Node7 -->
<g id="edge10" class="edge">
<title>Node1&#45;&gt;Node7</title>
<path fill="none" stroke="midnightblue" d="M708.57,-13.04C692.77,-9.98 675.24,-7.1 659,-5.58 576.69,2.13 555.38,1.32 473,-5.58 448.23,-7.66 420.71,-12.27 399.09,-16.42"/>
<polygon fill="midnightblue" stroke="midnightblue" points="708.18,-16.54 718.67,-15.07 709.56,-9.67 708.18,-16.54"/>
</g>
<!-- Node3 -->
<g id="node3" class="node">
<title>Node3</title>
<g id="a_node3"><a xlink:href="cJSON_8c.html#adfabd5d09c2cf0a2f051c47650db6e80" target="_top" xlink:title=" ">
<polygon fill="white" stroke="black" points="124,-53.08 124,-72.08 246,-72.08 246,-53.08 124,-53.08"/>
<text text-anchor="middle" x="185" y="-60.08" font-family="Helvetica,sans-Serif" font-size="10.00">cJSON_ParseWithOpts</text>
</a>
</g>
</g>
<!-- Node2&#45;&gt;Node3 -->
<g id="edge2" class="edge">
<title>Node2&#45;&gt;Node3</title>
<path fill="none" stroke="midnightblue" d="M271.7,-62.58C263.05,-62.58 254.41,-62.58 246.12,-62.58"/>
<polygon fill="midnightblue" stroke="midnightblue" points="271.83,-66.08 281.83,-62.58 271.83,-59.08 271.83,-66.08"/>
</g>
<!-- Node4 -->
<g id="node4" class="node">
<title>Node4</title>
<g id="a_node4"><a xlink:href="cJSON_8c.html#aa2ca313f61c789be20f8a69b651043c3" target="_top" xlink:title=" ">
<polygon fill="white" stroke="black" points="0,-53.08 0,-72.08 88,-72.08 88,-53.08 0,-53.08"/>
<text text-anchor="middle" x="44" y="-60.08" font-family="Helvetica,sans-Serif" font-size="10.00">CJSON_PUBLIC</text>
</a>
</g>
</g>
<!-- Node3&#45;&gt;Node4 -->
<g id="edge3" class="edge">
<title>Node3&#45;&gt;Node4</title>
<path fill="none" stroke="midnightblue" d="M113.63,-62.58C104.91,-62.58 96.21,-62.58 88.08,-62.58"/>
<polygon fill="midnightblue" stroke="midnightblue" points="113.84,-66.08 123.84,-62.58 113.84,-59.08 113.84,-66.08"/>
</g>
<!-- Node6 -->
<g id="node6" class="node">
<title>Node6</title>
<g id="a_node6"><a xlink:href="cJSON_8c.html#afd5c0b7089e4de2fc9b2af599d4b596f" target="_top" xlink:title=" ">
<polygon fill="white" stroke="black" points="473,-15.08 473,-34.08 549,-34.08 549,-15.08 473,-15.08"/>
<text text-anchor="middle" x="511" y="-22.08" font-family="Helvetica,sans-Serif" font-size="10.00">parse_value</text>
</a>
</g>
</g>
<!-- Node5&#45;&gt;Node6 -->
<g id="edge5" class="edge">
<title>Node5&#45;&gt;Node6</title>
<path fill="none" stroke="midnightblue" d="M574.58,-17.9C566.12,-17.76 557.4,-17.84 549.25,-18.14"/>
<polygon fill="midnightblue" stroke="midnightblue" points="574.61,-21.4 584.7,-18.18 574.81,-14.4 574.61,-21.4"/>
</g>
<!-- Node6&#45;&gt;Node2 -->
<g id="edge6" class="edge">
<title>Node6&#45;&gt;Node2</title>
<path fill="none" stroke="midnightblue" d="M463.79,-36.69C454.91,-39 445.67,-41.38 437,-43.58 424.8,-46.69 411.49,-50.01 399.44,-53"/>
<polygon fill="midnightblue" stroke="midnightblue" points="464.83,-40.04 473.63,-34.13 463.07,-33.26 464.83,-40.04"/>
</g>
<!-- Node6&#45;&gt;Node5 -->
<g id="edge7" class="edge">
<title>Node6&#45;&gt;Node5</title>
<path fill="none" stroke="midnightblue" d="M559.42,-31.28C567.9,-31.4 576.6,-31.31 584.7,-30.99"/>
<polygon fill="midnightblue" stroke="midnightblue" points="559.34,-27.78 549.25,-31.02 559.16,-34.78 559.34,-27.78"/>
</g>
<!-- Node6&#45;&gt;Node7 -->
<g id="edge8" class="edge">
<title>Node6&#45;&gt;Node7</title>
<path fill="none" stroke="midnightblue" d="M462.61,-18.25C442.16,-17.6 418.55,-17.71 399.19,-18.59"/>
<polygon fill="midnightblue" stroke="midnightblue" points="462.53,-21.75 472.66,-18.65 462.81,-14.76 462.53,-21.75"/>
</g>
<!-- Node7&#45;&gt;Node6 -->
<g id="edge9" class="edge">
<title>Node7&#45;&gt;Node6</title>
<path fill="none" stroke="midnightblue" d="M409.33,-30.96C429.92,-31.58 453.5,-31.43 472.66,-30.52"/>
<polygon fill="midnightblue" stroke="midnightblue" points="409.31,-27.46 399.19,-30.58 409.05,-34.45 409.31,-27.46"/>
</g>
</g>
</svg>
