<?xml version="1.0" encoding="UTF-8" standalone="no"?>
<!DOCTYPE svg PUBLIC "-//W3C//DTD SVG 1.1//EN"
 "http://www.w3.org/Graphics/SVG/1.1/DTD/svg11.dtd">
<!-- Generated by graphviz version 2.43.0 (0)
 -->
<!-- Title: print Pages: 1 -->
<svg width="363pt" height="47pt"
 viewBox="0.00 0.00 363.00 47.00" xmlns="http://www.w3.org/2000/svg" xmlns:xlink="http://www.w3.org/1999/xlink">
<g id="graph0" class="graph" transform="scale(1 1) rotate(0) translate(4 43)">
<title>print</title>
<polygon fill="white" stroke="transparent" points="-4,4 -4,-43 359,-43 359,4 -4,4"/>
<!-- Node1 -->
<g id="node1" class="node">
<title>Node1</title>
<g id="a_node1"><a xlink:title=" ">
<polygon fill="#bfbfbf" stroke="black" points="316,-0.5 316,-19.5 355,-19.5 355,-0.5 316,-0.5"/>
<text text-anchor="middle" x="335.5" y="-7.5" font-family="Helvetica,sans-Serif" font-size="10.00">print</text>
</a>
</g>
</g>
<!-- Node2 -->
<g id="node2" class="node">
<title>Node2</title>
<g id="a_node2"><a xlink:href="namespaceTimings.html#aadf2661fed15eeec1d5ca92e8125726e" target="_top" xlink:title=" ">
<polygon fill="white" stroke="black" points="119,-19.5 119,-38.5 280,-38.5 280,-19.5 119,-19.5"/>
<text text-anchor="middle" x="199.5" y="-26.5" font-family="Helvetica,sans-Serif" font-size="10.00">Timings.analyze_timing_data</text>
</a>
</g>
</g>
<!-- Node1&#45;&gt;Node2 -->
<g id="edge1" class="edge">
<title>Node1&#45;&gt;Node2</title>
<path fill="none" stroke="midnightblue" d="M305.81,-14.07C294.56,-15.66 281.13,-17.57 267.69,-19.47"/>
<polygon fill="midnightblue" stroke="midnightblue" points="306.46,-17.51 315.87,-12.64 305.48,-10.58 306.46,-17.51"/>
</g>
<!-- Node3 -->
<g id="node3" class="node">
<title>Node3</title>
<g id="a_node3"><a xlink:href="namespaceTimings.html#a4dc59d29cbbbc539305dfa472f2e0f52" target="_top" xlink:title=" ">
<polygon fill="white" stroke="black" points="0,-0.5 0,-19.5 83,-19.5 83,-0.5 0,-0.5"/>
<text text-anchor="middle" x="41.5" y="-7.5" font-family="Helvetica,sans-Serif" font-size="10.00">Timings.main</text>
</a>
</g>
</g>
<!-- Node1&#45;&gt;Node3 -->
<g id="edge3" class="edge">
<title>Node1&#45;&gt;Node3</title>
<path fill="none" stroke="midnightblue" d="M305.55,-10C253.27,-10 142.98,-10 83.16,-10"/>
<polygon fill="midnightblue" stroke="midnightblue" points="305.79,-13.5 315.79,-10 305.79,-6.5 305.79,-13.5"/>
</g>
<!-- Node2&#45;&gt;Node3 -->
<g id="edge2" class="edge">
<title>Node2&#45;&gt;Node3</title>
<path fill="none" stroke="midnightblue" d="M109.91,-18.21C100.63,-17.08 91.55,-15.97 83.21,-14.96"/>
<polygon fill="midnightblue" stroke="midnightblue" points="109.69,-21.71 120.04,-19.44 110.54,-14.76 109.69,-21.71"/>
</g>
</g>
</svg>
