<?xml version="1.0" encoding="UTF-8" standalone="no"?>
<!DOCTYPE svg PUBLIC "-//W3C//DTD SVG 1.1//EN"
 "http://www.w3.org/Graphics/SVG/1.1/DTD/svg11.dtd">
<!-- Generated by graphviz version 2.43.0 (0)
 -->
<!-- Title: src/Libs/cJSON/cJSON.h Pages: 1 -->
<!--zoomable 162 -->
<svg id="main" version="1.1" xmlns="http://www.w3.org/2000/svg" xmlns:xlink="http://www.w3.org/1999/xlink" xml:space="preserve" onload="init(evt)">
<style type="text/css"><![CDATA[
.edge:hover path { stroke: red; }
.edge:hover polygon { stroke: red; fill: red; }
]]></style>
<script type="text/javascript"><![CDATA[
var edges = document.getElementsByTagName('g');
if (edges && edges.length) {
  for (var i=0;i<edges.length;i++) {
    if (edges[i].id.substr(0,4)=='edge') {
      edges[i].setAttribute('class','edge');
    }
  }
}
]]></script>
        <defs>
                <circle id="rim" cx="0" cy="0" r="7"/>
                <circle id="rim2" cx="0" cy="0" r="3.5"/>
                <g id="zoomPlus">
                        <use xlink:href="#rim" fill="#404040">
                                <set attributeName="fill" to="#808080" begin="zoomplus.mouseover" end="zoomplus.mouseout"/>
                        </use>
                        <path d="M-4,0h8M0,-4v8" fill="none" stroke="white" stroke-width="1.5" pointer-events="none"/>
                </g>
                <g id="zoomMin">
                        <use xlink:href="#rim" fill="#404040">
                                <set attributeName="fill" to="#808080" begin="zoomminus.mouseover" end="zoomminus.mouseout"/>
                        </use>
                        <path d="M-4,0h8" fill="none" stroke="white" stroke-width="1.5" pointer-events="none"/>
                </g>
                <g id="dirArrow">
                        <path fill="none" stroke="white" stroke-width="1.5" d="M0,-3.0v7 M-2.5,-0.5L0,-3.0L2.5,-0.5"/>
                </g>
               <g id="resetDef">
                       <use xlink:href="#rim2" fill="#404040">
                               <set attributeName="fill" to="#808080" begin="reset.mouseover" end="reset.mouseout"/>
                       </use>
               </g>
        </defs>

<script type="text/javascript">
var viewWidth = 1428;
var viewHeight = 162;
var sectionId = 'dynsection-1';
</script>
<script xlink:href="svgpan.js"/>
<svg id="graph" class="graph">
<g id="viewport">
<title>src/Libs/cJSON/cJSON.h</title>
<polygon fill="white" stroke="transparent" points="-4,4 -4,-158 1424,-158 1424,4 -4,4"/>
<!-- Node1 -->
<g id="node1" class="node">
<title>Node1</title>
<g id="a_node1"><a xlink:title=" ">
<polygon fill="#bfbfbf" stroke="black" points="543.5,-134.5 543.5,-153.5 670.5,-153.5 670.5,-134.5 543.5,-134.5"/>
<text text-anchor="middle" x="607" y="-141.5" font-family="Helvetica,sans-Serif" font-size="10.00">src/Libs/cJSON/cJSON.h</text>
</a>
</g>
</g>
<!-- Node2 -->
<g id="node2" class="node">
<title>Node2</title>
<g id="a_node2"><a xlink:href="DatabaseInitializer_8c.html" target="_top" xlink:title="Implementation of database configuration initialization.">
<polygon fill="white" stroke="black" points="24,-67.5 24,-97.5 146,-97.5 146,-67.5 24,-67.5"/>
<text text-anchor="start" x="32" y="-85.5" font-family="Helvetica,sans-Serif" font-size="10.00">src/DatabaseSystems</text>
<text text-anchor="middle" x="85" y="-74.5" font-family="Helvetica,sans-Serif" font-size="10.00">/DatabaseInitializer.c</text>
</a>
</g>
</g>
<!-- Node1&#45;&gt;Node2 -->
<g id="edge1" class="edge">
<title>Node1&#45;&gt;Node2</title>
<path fill="none" stroke="midnightblue" d="M533.52,-137.66C444.73,-130.73 290.97,-117.21 160,-98 155.54,-97.35 150.94,-96.61 146.32,-95.82"/>
<polygon fill="midnightblue" stroke="midnightblue" points="533.25,-141.15 543.49,-138.43 533.79,-134.17 533.25,-141.15"/>
</g>
<!-- Node3 -->
<g id="node3" class="node">
<title>Node3</title>
<g id="a_node3"><a xlink:href="DatabaseInitializer_8h.html" target="_top" xlink:title="Database configuration initialization interface.">
<polygon fill="white" stroke="black" points="380,-67.5 380,-97.5 502,-97.5 502,-67.5 380,-67.5"/>
<text text-anchor="start" x="388" y="-85.5" font-family="Helvetica,sans-Serif" font-size="10.00">src/DatabaseSystems</text>
<text text-anchor="middle" x="441" y="-74.5" font-family="Helvetica,sans-Serif" font-size="10.00">/DatabaseInitializer.h</text>
</a>
</g>
</g>
<!-- Node1&#45;&gt;Node3 -->
<g id="edge2" class="edge">
<title>Node1&#45;&gt;Node3</title>
<path fill="none" stroke="midnightblue" d="M573.45,-130.98C546.46,-121.3 508.49,-107.69 480.12,-97.52"/>
<polygon fill="midnightblue" stroke="midnightblue" points="572.62,-134.4 583.22,-134.48 574.98,-127.81 572.62,-134.4"/>
</g>
<!-- Node4 -->
<g id="node4" class="node">
<title>Node4</title>
<g id="a_node4"><a xlink:href="DatabaseSystems_2Postgres_8c.html" target="_top" xlink:title="Implementation of PostgreSQL database operations.">
<polygon fill="white" stroke="black" points="0,-0.5 0,-30.5 122,-30.5 122,-0.5 0,-0.5"/>
<text text-anchor="start" x="8" y="-18.5" font-family="Helvetica,sans-Serif" font-size="10.00">src/DatabaseSystems</text>
<text text-anchor="middle" x="61" y="-7.5" font-family="Helvetica,sans-Serif" font-size="10.00">/Postgres.c</text>
</a>
</g>
</g>
<!-- Node1&#45;&gt;Node4 -->
<g id="edge5" class="edge">
<title>Node1&#45;&gt;Node4</title>
<path fill="none" stroke="midnightblue" d="M532.99,-142.45C453.3,-140.03 323.62,-130.77 217,-98 210.17,-95.9 130.08,-53.38 87.4,-30.61"/>
<polygon fill="midnightblue" stroke="midnightblue" points="533.32,-145.96 543.41,-142.73 533.51,-138.96 533.32,-145.96"/>
</g>
<!-- Node6 -->
<g id="node6" class="node">
<title>Node6</title>
<g id="a_node6"><a xlink:href="DatabaseSystems_2Postgres_8h.html" target="_top" xlink:title="PostgreSQL interface for sensor data storage.">
<polygon fill="white" stroke="black" points="240,-67.5 240,-97.5 362,-97.5 362,-67.5 240,-67.5"/>
<text text-anchor="start" x="248" y="-85.5" font-family="Helvetica,sans-Serif" font-size="10.00">src/DatabaseSystems</text>
<text text-anchor="middle" x="301" y="-74.5" font-family="Helvetica,sans-Serif" font-size="10.00">/Postgres.h</text>
</a>
</g>
</g>
<!-- Node1&#45;&gt;Node6 -->
<g id="edge6" class="edge">
<title>Node1&#45;&gt;Node6</title>
<path fill="none" stroke="midnightblue" d="M550.98,-132.58C503.13,-123.61 432.49,-110.23 371,-98 368.08,-97.42 365.09,-96.82 362.07,-96.21"/>
<polygon fill="midnightblue" stroke="midnightblue" points="550.36,-136.02 560.83,-134.42 551.65,-129.14 550.36,-136.02"/>
</g>
<!-- Node7 -->
<g id="node7" class="node">
<title>Node7</title>
<g id="a_node7"><a xlink:href="DataHandlers_8c.html" target="_top" xlink:title="Implementation of Data Handler Thread Group Management.">
<polygon fill="white" stroke="black" points="140.5,-6 140.5,-25 319.5,-25 319.5,-6 140.5,-6"/>
<text text-anchor="middle" x="230" y="-13" font-family="Helvetica,sans-Serif" font-size="10.00">src/DataHandlers/DataHandlers.c</text>
</a>
</g>
</g>
<!-- Node1&#45;&gt;Node7 -->
<g id="edge7" class="edge">
<title>Node1&#45;&gt;Node7</title>
<path fill="none" stroke="midnightblue" d="M533.33,-139.32C429.6,-133.39 250.83,-120.07 231,-98 212.84,-77.79 221.36,-42.05 226.75,-25.45"/>
<polygon fill="midnightblue" stroke="midnightblue" points="533.26,-142.82 543.44,-139.89 533.65,-135.84 533.26,-142.82"/>
</g>
<!-- Node8 -->
<g id="node8" class="node">
<title>Node8</title>
<g id="a_node8"><a xlink:href="DataHandlers_8h.html" target="_top" xlink:title="Data Handler Management for Thread Group Creation.">
<polygon fill="white" stroke="black" points="846.5,-73 846.5,-92 1025.5,-92 1025.5,-73 846.5,-73"/>
<text text-anchor="middle" x="936" y="-80" font-family="Helvetica,sans-Serif" font-size="10.00">src/DataHandlers/DataHandlers.h</text>
</a>
</g>
</g>
<!-- Node1&#45;&gt;Node8 -->
<g id="edge8" class="edge">
<title>Node1&#45;&gt;Node8</title>
<path fill="none" stroke="midnightblue" d="M664.02,-132.69C727.71,-121.17 829.62,-102.74 888.95,-92.01"/>
<polygon fill="midnightblue" stroke="midnightblue" points="663.36,-129.25 654.14,-134.48 664.6,-136.14 663.36,-129.25"/>
</g>
<!-- Node9 -->
<g id="node9" class="node">
<title>Node9</title>
<g id="a_node9"><a xlink:href="ModbusWithPostgres_8c.html" target="_top" xlink:title="Implementation of Modbus&#45;PostgreSQL integration.">
<polygon fill="white" stroke="black" points="702.5,-0.5 702.5,-30.5 875.5,-30.5 875.5,-0.5 702.5,-0.5"/>
<text text-anchor="start" x="710.5" y="-18.5" font-family="Helvetica,sans-Serif" font-size="10.00">src/DataHandlers/ModbusWith</text>
<text text-anchor="middle" x="789" y="-7.5" font-family="Helvetica,sans-Serif" font-size="10.00">Postgres/ModbusWithPostgres.c</text>
</a>
</g>
</g>
<!-- Node1&#45;&gt;Node9 -->
<g id="edge11" class="edge">
<title>Node1&#45;&gt;Node9</title>
<path fill="none" stroke="midnightblue" d="M639.38,-130.62C658.4,-122.65 682.47,-111.29 702,-98 731.43,-77.97 760.59,-48.07 776.55,-30.6"/>
<polygon fill="midnightblue" stroke="midnightblue" points="637.88,-127.46 629.94,-134.48 640.52,-133.94 637.88,-127.46"/>
</g>
<!-- Node10 -->
<g id="node10" class="node">
<title>Node10</title>
<g id="a_node10"><a xlink:href="Main_8c.html" target="_top" xlink:title="Main implementation file for the Sensor Data Handler System.">
<polygon fill="white" stroke="black" points="1354,-6 1354,-25 1420,-25 1420,-6 1354,-6"/>
<text text-anchor="middle" x="1387" y="-13" font-family="Helvetica,sans-Serif" font-size="10.00">src/Main.c</text>
</a>
</g>
</g>
<!-- Node1&#45;&gt;Node10 -->
<g id="edge18" class="edge">
<title>Node1&#45;&gt;Node10</title>
<path fill="none" stroke="midnightblue" d="M680.92,-139.89C813.45,-133.88 1086.28,-119.32 1179,-98 1253.08,-80.97 1335.65,-42.24 1370.29,-25.03"/>
<polygon fill="midnightblue" stroke="midnightblue" points="680.69,-136.4 670.86,-140.35 681,-143.39 680.69,-136.4"/>
</g>
<!-- Node11 -->
<g id="node11" class="node">
<title>Node11</title>
<g id="a_node11"><a xlink:href="ModbusWithPostgres_8h.html" target="_top" xlink:title="Integration of Modbus and PostgreSQL data handling.">
<polygon fill="white" stroke="black" points="520.5,-67.5 520.5,-97.5 693.5,-97.5 693.5,-67.5 520.5,-67.5"/>
<text text-anchor="start" x="528.5" y="-85.5" font-family="Helvetica,sans-Serif" font-size="10.00">src/DataHandlers/ModbusWith</text>
<text text-anchor="middle" x="607" y="-74.5" font-family="Helvetica,sans-Serif" font-size="10.00">Postgres/ModbusWithPostgres.h</text>
</a>
</g>
</g>
<!-- Node1&#45;&gt;Node11 -->
<g id="edge12" class="edge">
<title>Node1&#45;&gt;Node11</title>
<path fill="none" stroke="midnightblue" d="M607,-124.23C607,-115.59 607,-105.5 607,-97.52"/>
<polygon fill="midnightblue" stroke="midnightblue" points="603.5,-124.48 607,-134.48 610.5,-124.48 603.5,-124.48"/>
</g>
<!-- Node13 -->
<g id="node13" class="node">
<title>Node13</title>
<g id="a_node13"><a xlink:href="cJSON_8c.html" target="_top" xlink:title=" ">
<polygon fill="white" stroke="black" points="1044,-73 1044,-92 1170,-92 1170,-73 1044,-73"/>
<text text-anchor="middle" x="1107" y="-80" font-family="Helvetica,sans-Serif" font-size="10.00">src/Libs/cJSON/cJSON.c</text>
</a>
</g>
</g>
<!-- Node1&#45;&gt;Node13 -->
<g id="edge17" class="edge">
<title>Node1&#45;&gt;Node13</title>
<path fill="none" stroke="midnightblue" d="M680.82,-137.36C766.34,-130.34 911.33,-116.91 1035,-98 1045.71,-96.36 1057.25,-94.21 1067.88,-92.07"/>
<polygon fill="midnightblue" stroke="midnightblue" points="680.37,-133.88 670.69,-138.18 680.94,-140.86 680.37,-133.88"/>
</g>
<!-- Node14 -->
<g id="node14" class="node">
<title>Node14</title>
<g id="a_node14"><a xlink:href="Signals_8h.html" target="_top" xlink:title="Signal handling interface for the Sensor Data Handler System.">
<polygon fill="white" stroke="black" points="750,-73 750,-92 828,-92 828,-73 750,-73"/>
<text text-anchor="middle" x="789" y="-80" font-family="Helvetica,sans-Serif" font-size="10.00">src/Signals.h</text>
</a>
</g>
</g>
<!-- Node1&#45;&gt;Node14 -->
<g id="edge19" class="edge">
<title>Node1&#45;&gt;Node14</title>
<path fill="none" stroke="midnightblue" d="M643,-131.23C678.37,-119.67 731.5,-102.3 762.97,-92.01"/>
<polygon fill="midnightblue" stroke="midnightblue" points="641.49,-128.04 633.08,-134.48 643.67,-134.69 641.49,-128.04"/>
</g>
<!-- Node3&#45;&gt;Node4 -->
<g id="edge3" class="edge">
<title>Node3&#45;&gt;Node4</title>
<path fill="none" stroke="midnightblue" d="M370.06,-66.89C263.13,-48.15 234.07,-49.39 131,-31 128.07,-30.48 125.07,-29.92 122.04,-29.35"/>
<polygon fill="midnightblue" stroke="midnightblue" points="369.5,-70.35 379.96,-68.65 370.72,-63.46 369.5,-70.35"/>
</g>
<!-- Node5 -->
<g id="node5" class="node">
<title>Node5</title>
<g id="a_node5"><a xlink:href="DataHandlers_2ModbusWithPostgres_2Postgres_8c.html" target="_top" xlink:title=" ">
<polygon fill="white" stroke="black" points="338,-0.5 338,-30.5 502,-30.5 502,-0.5 338,-0.5"/>
<text text-anchor="start" x="346" y="-18.5" font-family="Helvetica,sans-Serif" font-size="10.00">src/DataHandlers/ModbusWith</text>
<text text-anchor="middle" x="420" y="-7.5" font-family="Helvetica,sans-Serif" font-size="10.00">Postgres/Postgres.c</text>
</a>
</g>
</g>
<!-- Node3&#45;&gt;Node5 -->
<g id="edge4" class="edge">
<title>Node3&#45;&gt;Node5</title>
<path fill="none" stroke="midnightblue" d="M433.31,-57.7C430.37,-48.59 427.11,-38.49 424.55,-30.58"/>
<polygon fill="midnightblue" stroke="midnightblue" points="430.04,-58.96 436.44,-67.4 436.7,-56.8 430.04,-58.96"/>
</g>
<!-- Node8&#45;&gt;Node9 -->
<g id="edge9" class="edge">
<title>Node8&#45;&gt;Node9</title>
<path fill="none" stroke="midnightblue" d="M907.2,-68.77C882.32,-57.77 846.42,-41.89 820.73,-30.53"/>
<polygon fill="midnightblue" stroke="midnightblue" points="905.92,-72.03 916.48,-72.87 908.75,-65.62 905.92,-72.03"/>
</g>
<!-- Node8&#45;&gt;Node10 -->
<g id="edge10" class="edge">
<title>Node8&#45;&gt;Node10</title>
<path fill="none" stroke="midnightblue" d="M1002.19,-71.53C1013.14,-69.96 1024.38,-68.39 1035,-67 1172.52,-48.95 1209.76,-61.81 1345,-31 1351.62,-29.49 1358.65,-27.31 1365.03,-25.09"/>
<polygon fill="midnightblue" stroke="midnightblue" points="1001.64,-68.07 992.24,-72.97 1002.64,-75 1001.64,-68.07"/>
</g>
<!-- Node11&#45;&gt;Node5 -->
<g id="edge16" class="edge">
<title>Node11&#45;&gt;Node5</title>
<path fill="none" stroke="midnightblue" d="M556.92,-64.09C526.73,-53.6 488.78,-40.41 460.5,-30.58"/>
<polygon fill="midnightblue" stroke="midnightblue" points="555.83,-67.42 566.42,-67.4 558.13,-60.81 555.83,-67.42"/>
</g>
<!-- Node11&#45;&gt;Node7 -->
<g id="edge13" class="edge">
<title>Node11&#45;&gt;Node7</title>
<path fill="none" stroke="midnightblue" d="M515.37,-65.7C441.09,-52.9 339.26,-35.34 279.47,-25.03"/>
<polygon fill="midnightblue" stroke="midnightblue" points="515.21,-69.23 525.66,-67.48 516.4,-62.33 515.21,-69.23"/>
</g>
<!-- Node11&#45;&gt;Node9 -->
<g id="edge15" class="edge">
<title>Node11&#45;&gt;Node9</title>
<path fill="none" stroke="midnightblue" d="M656.13,-63.96C685.44,-53.48 722.18,-40.37 749.59,-30.58"/>
<polygon fill="midnightblue" stroke="midnightblue" points="654.73,-60.74 646.49,-67.4 657.09,-67.33 654.73,-60.74"/>
</g>
<!-- Node12 -->
<g id="node12" class="node">
<title>Node12</title>
<g id="a_node12"><a xlink:href="DataHandlers_2ModbusWithPostgres_2Modbus_8c.html" target="_top" xlink:title=" ">
<polygon fill="white" stroke="black" points="520,-0.5 520,-30.5 684,-30.5 684,-0.5 520,-0.5"/>
<text text-anchor="start" x="528" y="-18.5" font-family="Helvetica,sans-Serif" font-size="10.00">src/DataHandlers/ModbusWith</text>
<text text-anchor="middle" x="602" y="-7.5" font-family="Helvetica,sans-Serif" font-size="10.00">Postgres/Modbus.c</text>
</a>
</g>
</g>
<!-- Node11&#45;&gt;Node12 -->
<g id="edge14" class="edge">
<title>Node11&#45;&gt;Node12</title>
<path fill="none" stroke="midnightblue" d="M605.15,-57.4C604.45,-48.37 603.69,-38.41 603.08,-30.58"/>
<polygon fill="midnightblue" stroke="midnightblue" points="601.66,-57.69 605.92,-67.4 608.64,-57.16 601.66,-57.69"/>
</g>
<!-- Node14&#45;&gt;Node5 -->
<g id="edge23" class="edge">
<title>Node14&#45;&gt;Node5</title>
<path fill="none" stroke="midnightblue" d="M739.66,-72.81C678.27,-61.99 572.63,-43.39 499.69,-30.54"/>
<polygon fill="midnightblue" stroke="midnightblue" points="739.4,-76.32 749.86,-74.61 740.62,-69.42 739.4,-76.32"/>
</g>
<!-- Node14&#45;&gt;Node9 -->
<g id="edge22" class="edge">
<title>Node14&#45;&gt;Node9</title>
<path fill="none" stroke="midnightblue" d="M789,-62.41C789,-52.22 789,-39.9 789,-30.59"/>
<polygon fill="midnightblue" stroke="midnightblue" points="785.5,-62.73 789,-72.73 792.5,-62.73 785.5,-62.73"/>
</g>
<!-- Node14&#45;&gt;Node10 -->
<g id="edge25" class="edge">
<title>Node14&#45;&gt;Node10</title>
<path fill="none" stroke="midnightblue" d="M823.57,-70.26C828.38,-68.99 833.28,-67.85 838,-67 1060.28,-26.71 1123.68,-76.25 1345,-31 1351.8,-29.61 1359.01,-27.4 1365.5,-25.13"/>
<polygon fill="midnightblue" stroke="midnightblue" points="822.6,-66.9 813.93,-72.99 824.5,-73.63 822.6,-66.9"/>
</g>
<!-- Node14&#45;&gt;Node12 -->
<g id="edge21" class="edge">
<title>Node14&#45;&gt;Node12</title>
<path fill="none" stroke="midnightblue" d="M754.45,-69.49C722.75,-58.47 675.77,-42.14 642.36,-30.53"/>
<polygon fill="midnightblue" stroke="midnightblue" points="753.57,-72.89 764.17,-72.87 755.87,-66.28 753.57,-72.89"/>
</g>
<!-- Node15 -->
<g id="node15" class="node">
<title>Node15</title>
<g id="a_node15"><a xlink:href="ThreadGroup_8c.html" target="_top" xlink:title=" ">
<polygon fill="white" stroke="black" points="894,-6 894,-25 1046,-25 1046,-6 894,-6"/>
<text text-anchor="middle" x="970" y="-13" font-family="Helvetica,sans-Serif" font-size="10.00">src/Common/ThreadGroup.c</text>
</a>
</g>
</g>
<!-- Node14&#45;&gt;Node15 -->
<g id="edge20" class="edge">
<title>Node14&#45;&gt;Node15</title>
<path fill="none" stroke="midnightblue" d="M822.59,-69.44C858.5,-56.54 914.52,-36.42 946.15,-25.06"/>
<polygon fill="midnightblue" stroke="midnightblue" points="821.26,-66.19 813.04,-72.87 823.63,-72.78 821.26,-66.19"/>
</g>
<!-- Node16 -->
<g id="node16" class="node">
<title>Node16</title>
<g id="a_node16"><a xlink:href="ModbusTestServer_8c.html" target="_top" xlink:title="Implementation of Modbus Test Server.">
<polygon fill="white" stroke="black" points="1064,-6 1064,-25 1240,-25 1240,-6 1064,-6"/>
<text text-anchor="middle" x="1152" y="-13" font-family="Helvetica,sans-Serif" font-size="10.00">src/DevUtils/ModbusTestServer.c</text>
</a>
</g>
</g>
<!-- Node14&#45;&gt;Node16 -->
<g id="edge24" class="edge">
<title>Node14&#45;&gt;Node16</title>
<path fill="none" stroke="midnightblue" d="M825.3,-70.19C829.56,-69.04 833.86,-67.94 838,-67 862.7,-61.38 1013.32,-37.87 1096.66,-25.01"/>
<polygon fill="midnightblue" stroke="midnightblue" points="824.2,-66.87 815.54,-72.97 826.11,-73.6 824.2,-66.87"/>
</g>
<!-- Node17 -->
<g id="node17" class="node">
<title>Node17</title>
<g id="a_node17"><a xlink:href="Signals_8c.html" target="_top" xlink:title="Signal handling implementation for the Sensor Data Handler System.">
<polygon fill="white" stroke="black" points="1258.5,-6 1258.5,-25 1335.5,-25 1335.5,-6 1258.5,-6"/>
<text text-anchor="middle" x="1297" y="-13" font-family="Helvetica,sans-Serif" font-size="10.00">src/Signals.c</text>
</a>
</g>
</g>
<!-- Node14&#45;&gt;Node17 -->
<g id="edge26" class="edge">
<title>Node14&#45;&gt;Node17</title>
<path fill="none" stroke="midnightblue" d="M824.11,-70.19C828.75,-68.97 833.46,-67.86 838,-67 1018.15,-32.81 1068.95,-65.7 1249,-31 1256.69,-29.52 1264.91,-27.29 1272.33,-25.01"/>
<polygon fill="midnightblue" stroke="midnightblue" points="822.87,-66.91 814.19,-72.99 824.77,-73.64 822.87,-66.91"/>
</g>
</g>
</svg>
        <g id="navigator" transform="translate(0 0)" fill="#404254">
                <rect fill="#f2f5e9" fill-opacity="0.5" stroke="#606060" stroke-width=".5" x="0" y="0" width="60" height="60"/>
                <use id="zoomplus" xlink:href="#zoomPlus" x="17" y="9" onmousedown="handleZoom(evt,'in')"/>
                <use id="zoomminus" xlink:href="#zoomMin" x="42" y="9" onmousedown="handleZoom(evt,'out')"/>
                <use id="reset" xlink:href="#resetDef" x="30" y="36" onmousedown="handleReset()"/>
                <g id="arrowUp" xlink:href="#dirArrow" transform="translate(30 24)" onmousedown="handlePan(0,-1)">
                  <use xlink:href="#rim" fill="#404040">
                        <set attributeName="fill" to="#808080" begin="arrowUp.mouseover" end="arrowUp.mouseout"/>
                  </use>
                  <path fill="none" stroke="white" stroke-width="1.5" d="M0,-3.0v7 M-2.5,-0.5L0,-3.0L2.5,-0.5"/>
                </g>
                <g id="arrowRight" xlink:href="#dirArrow" transform="rotate(90) translate(36 -43)" onmousedown="handlePan(1,0)">
                  <use xlink:href="#rim" fill="#404040">
                        <set attributeName="fill" to="#808080" begin="arrowRight.mouseover" end="arrowRight.mouseout"/>
                  </use>
                  <path fill="none" stroke="white" stroke-width="1.5" d="M0,-3.0v7 M-2.5,-0.5L0,-3.0L2.5,-0.5"/>
                </g>
                <g id="arrowDown" xlink:href="#dirArrow" transform="rotate(180) translate(-30 -48)" onmousedown="handlePan(0,1)">
                  <use xlink:href="#rim" fill="#404040">
                        <set attributeName="fill" to="#808080" begin="arrowDown.mouseover" end="arrowDown.mouseout"/>
                  </use>
                  <path fill="none" stroke="white" stroke-width="1.5" d="M0,-3.0v7 M-2.5,-0.5L0,-3.0L2.5,-0.5"/>
                </g>
                <g id="arrowLeft" xlink:href="#dirArrow" transform="rotate(270) translate(-36 17)" onmousedown="handlePan(-1,0)">
                  <use xlink:href="#rim" fill="#404040">
                        <set attributeName="fill" to="#808080" begin="arrowLeft.mouseover" end="arrowLeft.mouseout"/>
                  </use>
                  <path fill="none" stroke="white" stroke-width="1.5" d="M0,-3.0v7 M-2.5,-0.5L0,-3.0L2.5,-0.5"/>
                </g>
        </g>
        <svg viewBox="0 0 15 15" width="100%" height="30px" preserveAspectRatio="xMaxYMin meet">
         <g id="arrow_out" transform="scale(0.3 0.3)">
          <a xlink:href="cJSON_8h__dep__incl_org.svg" target="_base">
           <rect id="button" ry="5" rx="5" y="6" x="6" height="38" width="38"
                fill="#f2f5e9" fill-opacity="0.5" stroke="#606060" stroke-width="1.0"/>
           <path id="arrow"
             d="M 11.500037,31.436501 C 11.940474,20.09759 22.043105,11.32322 32.158766,21.979434 L 37.068811,17.246167 C 37.068811,17.246167 37.088388,32 37.088388,32 L 22.160133,31.978069 C 22.160133,31.978069 26.997745,27.140456 26.997745,27.140456 C 18.528582,18.264221 13.291696,25.230495 11.500037,31.436501 z"
             style="fill:#404040;"/>
          </a>
         </g>
        </svg>
</svg>
