<?xml version="1.0" encoding="UTF-8" standalone="no"?>
<!DOCTYPE svg PUBLIC "-//W3C//DTD SVG 1.1//EN"
 "http://www.w3.org/Graphics/SVG/1.1/DTD/svg11.dtd">
<!-- Generated by graphviz version 2.43.0 (0)
 -->
<!-- Title: CJSON_PUBLIC Pages: 1 -->
<svg width="1138pt" height="237pt"
 viewBox="0.00 0.00 1138.00 237.46" xmlns="http://www.w3.org/2000/svg" xmlns:xlink="http://www.w3.org/1999/xlink">
<g id="graph0" class="graph" transform="scale(1 1) rotate(0) translate(4 233.46)">
<title>CJSON_PUBLIC</title>
<!-- Node1 -->
<g id="Node000001" class="node">
<title>Node1</title>
<g id="a_Node000001"><a xlink:title=" ">
<polygon fill="#999999" stroke="#666666" points="88,-94 0,-94 0,-75 88,-75 88,-94"/>
<text text-anchor="middle" x="44" y="-82" font-family="Helvetica,sans-Serif" font-size="10.00">CJSON_PUBLIC</text>
</a>
</g>
</g>
<!-- Node2 -->
<g id="Node000002" class="node">
<title>Node2</title>
<g id="a_Node000002"><a xlink:href="cJSON_8c.html#adfabd5d09c2cf0a2f051c47650db6e80" target="_top" xlink:title=" ">
<polygon fill="white" stroke="#666666" points="246,-94 124,-94 124,-75 246,-75 246,-94"/>
<text text-anchor="middle" x="185" y="-82" font-family="Helvetica,sans-Serif" font-size="10.00">cJSON_ParseWithOpts</text>
</a>
</g>
</g>
<!-- Node1&#45;&gt;Node2 -->
<g id="edge1_Node000001_Node000002" class="edge">
<title>Node1&#45;&gt;Node2</title>
<g id="a_edge1_Node000001_Node000002"><a xlink:title=" ">
<path fill="none" stroke="#63b8ff" d="M88.22,-84.5C96.35,-84.5 105.05,-84.5 113.76,-84.5"/>
<polygon fill="#63b8ff" stroke="#63b8ff" points="113.96,-88 123.96,-84.5 113.96,-81 113.96,-88"/>
</a>
</g>
</g>
<!-- Node3 -->
<g id="Node000003" class="node">
<title>Node3</title>
<g id="a_Node000003"><a xlink:href="cJSON_8c.html#a3a24e49a04490273160cdc1f30f10d22" target="_top" xlink:title=" ">
<polygon fill="white" stroke="#666666" points="437,-94 282,-94 282,-75 437,-75 437,-94"/>
<text text-anchor="middle" x="359.5" y="-82" font-family="Helvetica,sans-Serif" font-size="10.00">cJSON_ParseWithLengthOpts</text>
</a>
</g>
</g>
<!-- Node2&#45;&gt;Node3 -->
<g id="edge2_Node000002_Node000003" class="edge">
<title>Node2&#45;&gt;Node3</title>
<g id="a_edge2_Node000002_Node000003"><a xlink:title=" ">
<path fill="none" stroke="#63b8ff" d="M246.33,-84.5C254.57,-84.5 263.16,-84.5 271.75,-84.5"/>
<polygon fill="#63b8ff" stroke="#63b8ff" points="271.83,-88 281.83,-84.5 271.83,-81 271.83,-88"/>
</a>
</g>
</g>
<!-- Node4 -->
<g id="Node000004" class="node">
<title>Node4</title>
<g id="a_Node000004"><a xlink:href="cJSON_8c.html#a0a9c3a7f6f01d4a8d9c552fa82274b4b" target="_top" xlink:title=" ">
<polygon fill="white" stroke="#666666" points="851,-132 720,-132 720,-113 851,-113 851,-132"/>
<text text-anchor="middle" x="785.5" y="-120" font-family="Helvetica,sans-Serif" font-size="10.00">buffer_skip_whitespace</text>
</a>
</g>
</g>
<!-- Node3&#45;&gt;Node4 -->
<g id="edge3_Node000003_Node000004" class="edge">
<title>Node3&#45;&gt;Node4</title>
<g id="a_edge3_Node000003_Node000004"><a xlink:title=" ">
<path fill="none" stroke="#63b8ff" d="M372.39,-94.16C405.55,-120.39 502.89,-192.68 598,-217.5 634.98,-227.15 651.7,-237.94 684,-217.5 715.58,-197.51 691.59,-165.79 720,-141.5 721.98,-139.81 724.1,-138.27 726.33,-136.86"/>
<polygon fill="#63b8ff" stroke="#63b8ff" points="728.15,-139.86 735.36,-132.09 724.89,-133.67 728.15,-139.86"/>
</a>
</g>
</g>
<!-- Node5 -->
<g id="Node000005" class="node">
<title>Node5</title>
<g id="a_Node000005"><a xlink:href="cJSON_8c.html#aa05c1f56de8779ae1584c525cc81aeb5" target="_top" xlink:title=" ">
<polygon fill="white" stroke="#666666" points="836,-95 735,-95 735,-76 836,-76 836,-95"/>
<text text-anchor="middle" x="785.5" y="-83" font-family="Helvetica,sans-Serif" font-size="10.00">cJSON_New_Item</text>
</a>
</g>
</g>
<!-- Node3&#45;&gt;Node5 -->
<g id="edge4_Node000003_Node000005" class="edge">
<title>Node3&#45;&gt;Node5</title>
<g id="a_edge4_Node000003_Node000005"><a xlink:title=" ">
<path fill="none" stroke="#63b8ff" d="M427.21,-75C492.7,-67.04 595.37,-58.2 684,-66.5 700.24,-68.02 717.77,-70.9 733.57,-73.96"/>
<polygon fill="#63b8ff" stroke="#63b8ff" points="733.18,-77.45 743.67,-75.99 734.56,-70.59 733.18,-77.45"/>
</a>
</g>
</g>
<!-- Node7 -->
<g id="Node000007" class="node">
<title>Node7</title>
<g id="a_Node000007"><a xlink:href="cJSON_8c.html#afd5c0b7089e4de2fc9b2af599d4b596f" target="_top" xlink:title=" ">
<polygon fill="white" stroke="#666666" points="555.5,-132 479.5,-132 479.5,-113 555.5,-113 555.5,-132"/>
<text text-anchor="middle" x="517.5" y="-120" font-family="Helvetica,sans-Serif" font-size="10.00">parse_value</text>
</a>
</g>
</g>
<!-- Node3&#45;&gt;Node7 -->
<g id="edge6_Node000003_Node000007" class="edge">
<title>Node3&#45;&gt;Node7</title>
<g id="a_edge6_Node000003_Node000007"><a xlink:title=" ">
<path fill="none" stroke="#63b8ff" d="M399.87,-94.09C421,-99.24 447.2,-105.62 469.4,-111.03"/>
<polygon fill="#63b8ff" stroke="#63b8ff" points="468.75,-114.47 479.3,-113.44 470.41,-107.67 468.75,-114.47"/>
</a>
</g>
</g>
<!-- Node15 -->
<g id="Node000015" class="node">
<title>Node15</title>
<g id="a_Node000015"><a xlink:href="cJSON_8c.html#a3bb0de8275d39e5a31ea006a7dae65b7" target="_top" xlink:title=" ">
<polygon fill="white" stroke="#666666" points="562,-19 473,-19 473,0 562,0 562,-19"/>
<text text-anchor="middle" x="517.5" y="-7" font-family="Helvetica,sans-Serif" font-size="10.00">skip_utf8_bom</text>
</a>
</g>
</g>
<!-- Node3&#45;&gt;Node15 -->
<g id="edge22_Node000003_Node000015" class="edge">
<title>Node3&#45;&gt;Node15</title>
<g id="a_edge22_Node000003_Node000015"><a xlink:title=" ">
<path fill="none" stroke="#63b8ff" d="M380.57,-74.85C407.72,-61.8 456.31,-38.44 487.44,-23.47"/>
<polygon fill="#63b8ff" stroke="#63b8ff" points="489.01,-26.6 496.5,-19.11 485.97,-20.29 489.01,-26.6"/>
</a>
</g>
</g>
<!-- Node6 -->
<g id="Node000006" class="node">
<title>Node6</title>
<g id="a_Node000006"><a xlink:href="structinternal__hooks.html#a8b8f7ff45faa5da18dd3ccd2a2c8e416" target="_top" xlink:title=" ">
<polygon fill="white" stroke="#666666" points="1021,-114 887,-114 887,-95 1021,-95 1021,-114"/>
<text text-anchor="middle" x="954" y="-102" font-family="Helvetica,sans-Serif" font-size="10.00">internal_hooks::allocate</text>
</a>
</g>
</g>
<!-- Node5&#45;&gt;Node6 -->
<g id="edge5_Node000005_Node000006" class="edge">
<title>Node5&#45;&gt;Node6</title>
<g id="a_edge5_Node000005_Node000006"><a xlink:title=" ">
<path fill="none" stroke="#63b8ff" d="M836,-91.15C848.81,-92.61 862.9,-94.22 876.72,-95.8"/>
<polygon fill="#63b8ff" stroke="#63b8ff" points="876.39,-99.28 886.73,-96.94 877.19,-92.33 876.39,-99.28"/>
</a>
</g>
</g>
<!-- Node8 -->
<g id="Node000008" class="node">
<title>Node8</title>
<g id="a_Node000008"><a xlink:href="cJSON_8c.html#a367cc7ac5a592211d9f18dc02dd23069" target="_top" xlink:title=" ">
<polygon fill="white" stroke="#666666" points="678,-95 604,-95 604,-76 678,-76 678,-95"/>
<text text-anchor="middle" x="641" y="-83" font-family="Helvetica,sans-Serif" font-size="10.00">parse_array</text>
</a>
</g>
</g>
<!-- Node7&#45;&gt;Node8 -->
<g id="edge7_Node000007_Node000008" class="edge">
<title>Node7&#45;&gt;Node8</title>
<g id="a_edge7_Node000007_Node000008"><a xlink:title=" ">
<path fill="none" stroke="#63b8ff" d="M534.38,-112.93C549.54,-106.56 573.13,-98.77 594.16,-92.89"/>
<polygon fill="#63b8ff" stroke="#63b8ff" points="595.18,-96.24 603.92,-90.26 593.36,-89.49 595.18,-96.24"/>
</a>
</g>
</g>
<!-- Node9 -->
<g id="Node000009" class="node">
<title>Node9</title>
<g id="a_Node000009"><a xlink:href="cJSON_8c.html#a699e1cebda71c2846a9a10b29b4dc407" target="_top" xlink:title=" ">
<polygon fill="white" stroke="#666666" points="684,-208 598,-208 598,-189 684,-189 684,-208"/>
<text text-anchor="middle" x="641" y="-196" font-family="Helvetica,sans-Serif" font-size="10.00">parse_number</text>
</a>
</g>
</g>
<!-- Node7&#45;&gt;Node9 -->
<g id="edge11_Node000007_Node000009" class="edge">
<title>Node7&#45;&gt;Node9</title>
<g id="a_edge11_Node000007_Node000009"><a xlink:title=" ">
<path fill="none" stroke="#63b8ff" d="M532.7,-132.16C548.47,-142.8 574.79,-160.3 598,-174.5 603.01,-177.57 608.43,-180.75 613.64,-183.76"/>
<polygon fill="#63b8ff" stroke="#63b8ff" points="612.28,-187.01 622.7,-188.92 615.74,-180.93 612.28,-187.01"/>
</a>
</g>
</g>
<!-- Node11 -->
<g id="Node000011" class="node">
<title>Node11</title>
<g id="a_Node000011"><a xlink:href="cJSON_8c.html#a1472ac5d1becd7d9a5e558b4c053b06a" target="_top" xlink:title=" ">
<polygon fill="white" stroke="#666666" points="680.5,-132 601.5,-132 601.5,-113 680.5,-113 680.5,-132"/>
<text text-anchor="middle" x="641" y="-120" font-family="Helvetica,sans-Serif" font-size="10.00">parse_object</text>
</a>
</g>
</g>
<!-- Node7&#45;&gt;Node11 -->
<g id="edge13_Node000007_Node000011" class="edge">
<title>Node7&#45;&gt;Node11</title>
<g id="a_edge13_Node000007_Node000011"><a xlink:title=" ">
<path fill="none" stroke="#63b8ff" d="M555.61,-116.23C566.84,-115.75 579.34,-115.63 591.21,-115.87"/>
<polygon fill="#63b8ff" stroke="#63b8ff" points="591.33,-119.37 601.43,-116.17 591.54,-112.38 591.33,-119.37"/>
</a>
</g>
</g>
<!-- Node12 -->
<g id="Node000012" class="node">
<title>Node12</title>
<g id="a_Node000012"><a xlink:href="cJSON_8c.html#adf47b520af96d1bbefa2390016fbdb51" target="_top" xlink:title=" ">
<polygon fill="white" stroke="#666666" points="824,-169 747,-169 747,-150 824,-150 824,-169"/>
<text text-anchor="middle" x="785.5" y="-157" font-family="Helvetica,sans-Serif" font-size="10.00">parse_string</text>
</a>
</g>
</g>
<!-- Node7&#45;&gt;Node12 -->
<g id="edge21_Node000007_Node000012" class="edge">
<title>Node7&#45;&gt;Node12</title>
<g id="a_edge21_Node000007_Node000012"><a xlink:title=" ">
<path fill="none" stroke="#63b8ff" d="M553.9,-132.07C567.59,-135.48 583.44,-139.07 598,-141.5 644.78,-149.31 698.76,-154.06 736.58,-156.71"/>
<polygon fill="#63b8ff" stroke="#63b8ff" points="736.58,-160.21 746.79,-157.4 737.05,-153.23 736.58,-160.21"/>
</a>
</g>
</g>
<!-- Node8&#45;&gt;Node4 -->
<g id="edge8_Node000008_Node000004" class="edge">
<title>Node8&#45;&gt;Node4</title>
<g id="a_edge8_Node000008_Node000004"><a xlink:title=" ">
<path fill="none" stroke="#63b8ff" d="M678.33,-94.93C696.44,-99.64 718.56,-105.38 737.91,-110.4"/>
<polygon fill="#63b8ff" stroke="#63b8ff" points="737.18,-113.83 747.74,-112.96 738.94,-107.06 737.18,-113.83"/>
</a>
</g>
</g>
<!-- Node8&#45;&gt;Node5 -->
<g id="edge9_Node000008_Node000005" class="edge">
<title>Node8&#45;&gt;Node5</title>
<g id="a_edge9_Node000008_Node000005"><a xlink:title=" ">
<path fill="none" stroke="#63b8ff" d="M678.33,-85.5C692.4,-85.5 708.88,-85.5 724.61,-85.5"/>
<polygon fill="#63b8ff" stroke="#63b8ff" points="724.8,-89 734.8,-85.5 724.8,-82 724.8,-89"/>
</a>
</g>
</g>
<!-- Node8&#45;&gt;Node7 -->
<g id="edge10_Node000008_Node000007" class="edge">
<title>Node8&#45;&gt;Node7</title>
<g id="a_edge10_Node000008_Node000007"><a xlink:title=" ">
<path fill="none" stroke="#63b8ff" d="M624.01,-95.11C609.13,-101.35 586.22,-108.95 565.54,-114.77"/>
<polygon fill="#63b8ff" stroke="#63b8ff" points="564.34,-111.47 555.61,-117.47 566.18,-118.22 564.34,-111.47"/>
</a>
</g>
</g>
<!-- Node10 -->
<g id="Node000010" class="node">
<title>Node10</title>
<g id="a_Node000010"><a xlink:href="cJSON_8c.html#ab25412ae56c8c594831918169bea100d" target="_top" xlink:title=" ">
<polygon fill="white" stroke="#666666" points="839,-208 732,-208 732,-189 839,-189 839,-208"/>
<text text-anchor="middle" x="785.5" y="-196" font-family="Helvetica,sans-Serif" font-size="10.00">get_decimal_point</text>
</a>
</g>
</g>
<!-- Node9&#45;&gt;Node10 -->
<g id="edge12_Node000009_Node000010" class="edge">
<title>Node9&#45;&gt;Node10</title>
<g id="a_edge12_Node000009_Node000010"><a xlink:title=" ">
<path fill="none" stroke="#63b8ff" d="M684.37,-198.5C696.15,-198.5 709.2,-198.5 721.88,-198.5"/>
<polygon fill="#63b8ff" stroke="#63b8ff" points="721.94,-202 731.94,-198.5 721.94,-195 721.94,-202"/>
</a>
</g>
</g>
<!-- Node11&#45;&gt;Node4 -->
<g id="edge14_Node000011_Node000004" class="edge">
<title>Node11&#45;&gt;Node4</title>
<g id="a_edge14_Node000011_Node000004"><a xlink:title=" ">
<path fill="none" stroke="#63b8ff" d="M680.56,-122.5C689.65,-122.5 699.64,-122.5 709.73,-122.5"/>
<polygon fill="#63b8ff" stroke="#63b8ff" points="709.82,-126 719.82,-122.5 709.82,-119 709.82,-126"/>
</a>
</g>
</g>
<!-- Node11&#45;&gt;Node5 -->
<g id="edge15_Node000011_Node000005" class="edge">
<title>Node11&#45;&gt;Node5</title>
<g id="a_edge15_Node000011_Node000005"><a xlink:title=" ">
<path fill="none" stroke="#63b8ff" d="M678.7,-112.97C696.67,-108.3 718.52,-102.63 737.69,-97.65"/>
<polygon fill="#63b8ff" stroke="#63b8ff" points="738.63,-101.03 747.43,-95.12 736.87,-94.25 738.63,-101.03"/>
</a>
</g>
</g>
<!-- Node11&#45;&gt;Node7 -->
<g id="edge20_Node000011_Node000007" class="edge">
<title>Node11&#45;&gt;Node7</title>
<g id="a_edge20_Node000011_Node000007"><a xlink:title=" ">
<path fill="none" stroke="#63b8ff" d="M601.43,-128.83C590.1,-129.28 577.57,-129.37 565.76,-129.1"/>
<polygon fill="#63b8ff" stroke="#63b8ff" points="565.72,-125.6 555.61,-128.77 565.5,-132.59 565.72,-125.6"/>
</a>
</g>
</g>
<!-- Node11&#45;&gt;Node12 -->
<g id="edge16_Node000011_Node000012" class="edge">
<title>Node11&#45;&gt;Node12</title>
<g id="a_edge16_Node000011_Node000012"><a xlink:title=" ">
<path fill="none" stroke="#63b8ff" d="M678.7,-132.03C696.67,-136.7 718.52,-142.37 737.69,-147.35"/>
<polygon fill="#63b8ff" stroke="#63b8ff" points="736.87,-150.75 747.43,-149.88 738.63,-143.97 736.87,-150.75"/>
</a>
</g>
</g>
<!-- Node12&#45;&gt;Node6 -->
<g id="edge17_Node000012_Node000006" class="edge">
<title>Node12&#45;&gt;Node6</title>
<g id="a_edge17_Node000012_Node000006"><a xlink:title=" ">
<path fill="none" stroke="#63b8ff" d="M822.47,-149.98C831.8,-147.37 841.81,-144.44 851,-141.5 873.71,-134.22 898.91,-125.09 918.58,-117.72"/>
<polygon fill="#63b8ff" stroke="#63b8ff" points="919.91,-120.96 928.03,-114.16 917.44,-114.41 919.91,-120.96"/>
</a>
</g>
</g>
<!-- Node13 -->
<g id="Node000013" class="node">
<title>Node13</title>
<g id="a_Node000013"><a xlink:href="cJSON_8c.html#a0e2851b1b595b3b430fd186e7deaf987" target="_top" xlink:title=" ">
<polygon fill="white" stroke="#666666" points="1012,-169 896,-169 896,-150 1012,-150 1012,-169"/>
<text text-anchor="middle" x="954" y="-157" font-family="Helvetica,sans-Serif" font-size="10.00">utf16_literal_to_utf8</text>
</a>
</g>
</g>
<!-- Node12&#45;&gt;Node13 -->
<g id="edge18_Node000012_Node000013" class="edge">
<title>Node12&#45;&gt;Node13</title>
<g id="a_edge18_Node000012_Node000013"><a xlink:title=" ">
<path fill="none" stroke="#63b8ff" d="M824.28,-159.5C842.42,-159.5 864.72,-159.5 885.62,-159.5"/>
<polygon fill="#63b8ff" stroke="#63b8ff" points="885.75,-163 895.75,-159.5 885.75,-156 885.75,-163"/>
</a>
</g>
</g>
<!-- Node14 -->
<g id="Node000014" class="node">
<title>Node14</title>
<g id="a_Node000014"><a xlink:href="cJSON_8c.html#a1aa736fdc6ba20c7d46622d20766e916" target="_top" xlink:title=" ">
<polygon fill="white" stroke="#666666" points="1130,-169 1057,-169 1057,-150 1130,-150 1130,-169"/>
<text text-anchor="middle" x="1093.5" y="-157" font-family="Helvetica,sans-Serif" font-size="10.00">parse_hex4</text>
</a>
</g>
</g>
<!-- Node13&#45;&gt;Node14 -->
<g id="edge19_Node000013_Node000014" class="edge">
<title>Node13&#45;&gt;Node14</title>
<g id="a_edge19_Node000013_Node000014"><a xlink:title=" ">
<path fill="none" stroke="#63b8ff" d="M1012.12,-159.5C1023.64,-159.5 1035.6,-159.5 1046.68,-159.5"/>
<polygon fill="#63b8ff" stroke="#63b8ff" points="1046.97,-163 1056.97,-159.5 1046.97,-156 1046.97,-163"/>
</a>
</g>
</g>
</g>
</svg>
