<?xml version="1.0" encoding="UTF-8" standalone="no"?>
<!DOCTYPE svg PUBLIC "-//W3C//DTD SVG 1.1//EN"
 "http://www.w3.org/Graphics/SVG/1.1/DTD/svg11.dtd">
<!-- Generated by graphviz version 2.43.0 (0)
 -->
<!-- Title: update_offset Pages: 1 -->
<svg width="790pt" height="120pt"
 viewBox="0.00 0.00 790.00 120.00" xmlns="http://www.w3.org/2000/svg" xmlns:xlink="http://www.w3.org/1999/xlink">
<g id="graph0" class="graph" transform="scale(1 1) rotate(0) translate(4 116)">
<title>update_offset</title>
<!-- Node1 -->
<g id="Node000001" class="node">
<title>Node1</title>
<g id="a_Node000001"><a xlink:title=" ">
<polygon fill="#999999" stroke="#666666" points="782,-56 699,-56 699,-37 782,-37 782,-56"/>
<text text-anchor="middle" x="740.5" y="-44" font-family="Helvetica,sans-Serif" font-size="10.00">update_offset</text>
</a>
</g>
</g>
<!-- Node2 -->
<g id="Node000002" class="node">
<title>Node2</title>
<g id="a_Node000002"><a xlink:href="cJSON_8c.html#a36b0c212c0d382a4714afa8b70c1a2ee" target="_top" xlink:title=" ">
<polygon fill="white" stroke="#666666" points="402.5,-93 363.5,-93 363.5,-74 402.5,-74 402.5,-93"/>
<text text-anchor="middle" x="383" y="-81" font-family="Helvetica,sans-Serif" font-size="10.00">print</text>
</a>
</g>
</g>
<!-- Node1&#45;&gt;Node2 -->
<g id="edge1_Node000001_Node000002" class="edge">
<title>Node1&#45;&gt;Node2</title>
<g id="a_edge1_Node000001_Node000002"><a xlink:title=" ">
<path fill="none" stroke="#63b8ff" d="M696.86,-58.52C685.9,-61.22 674.08,-63.78 663,-65.5 565.87,-80.57 447.83,-83.06 402.74,-83.44"/>
<polygon fill="#63b8ff" stroke="#63b8ff" points="697.8,-61.9 706.63,-56.04 696.07,-55.11 697.8,-61.9"/>
</a>
</g>
</g>
<!-- Node5 -->
<g id="Node000005" class="node">
<title>Node5</title>
<g id="a_Node000005"><a xlink:href="cJSON_8c.html#ae84642817f3965a85c7c617663250c16" target="_top" xlink:title=" ">
<polygon fill="white" stroke="#666666" points="663,-56 593,-56 593,-37 663,-37 663,-56"/>
<text text-anchor="middle" x="628" y="-44" font-family="Helvetica,sans-Serif" font-size="10.00">print_array</text>
</a>
</g>
</g>
<!-- Node1&#45;&gt;Node5 -->
<g id="edge6_Node000001_Node000005" class="edge">
<title>Node1&#45;&gt;Node5</title>
<g id="a_edge6_Node000001_Node000005"><a xlink:title=" ">
<path fill="none" stroke="#63b8ff" d="M688.93,-46.5C680.27,-46.5 671.45,-46.5 663.34,-46.5"/>
<polygon fill="#63b8ff" stroke="#63b8ff" points="688.98,-50 698.98,-46.5 688.98,-43 688.98,-50"/>
</a>
</g>
</g>
<!-- Node8 -->
<g id="Node000008" class="node">
<title>Node8</title>
<g id="a_Node000008"><a xlink:href="cJSON_8c.html#a3d742f5c68799bca291432a9cd72f8dd" target="_top" xlink:title=" ">
<polygon fill="white" stroke="#666666" points="420,-19 346,-19 346,0 420,0 420,-19"/>
<text text-anchor="middle" x="383" y="-7" font-family="Helvetica,sans-Serif" font-size="10.00">print_object</text>
</a>
</g>
</g>
<!-- Node1&#45;&gt;Node8 -->
<g id="edge13_Node000001_Node000008" class="edge">
<title>Node1&#45;&gt;Node8</title>
<g id="a_edge13_Node000001_Node000008"><a xlink:title=" ">
<path fill="none" stroke="#63b8ff" d="M694.33,-34.59C684.09,-32.24 673.22,-30.04 663,-28.5 576.59,-15.48 473.76,-11.38 420.32,-10.09"/>
<polygon fill="#63b8ff" stroke="#63b8ff" points="693.78,-38.05 704.31,-36.95 695.39,-31.24 693.78,-38.05"/>
</a>
</g>
</g>
<!-- Node3 -->
<g id="Node000003" class="node">
<title>Node3</title>
<g id="a_Node000003"><a xlink:href="namespaceTimings.html#aadf2661fed15eeec1d5ca92e8125726e" target="_top" xlink:title=" ">
<polygon fill="white" stroke="#666666" points="280,-112 119,-112 119,-93 280,-93 280,-112"/>
<text text-anchor="middle" x="199.5" y="-100" font-family="Helvetica,sans-Serif" font-size="10.00">Timings.analyze_timing_data</text>
</a>
</g>
</g>
<!-- Node2&#45;&gt;Node3 -->
<g id="edge2_Node000002_Node000003" class="edge">
<title>Node2&#45;&gt;Node3</title>
<g id="a_edge2_Node000002_Node000003"><a xlink:title=" ">
<path fill="none" stroke="#63b8ff" d="M353.13,-86.52C333.42,-88.59 306.27,-91.43 280.34,-94.14"/>
<polygon fill="#63b8ff" stroke="#63b8ff" points="353.68,-89.98 363.26,-85.46 352.95,-83.02 353.68,-89.98"/>
</a>
</g>
</g>
<!-- Node4 -->
<g id="Node000004" class="node">
<title>Node4</title>
<g id="a_Node000004"><a xlink:href="namespaceTimings.html#ae796959351e16850ac73fbc1380617c9" target="_top" xlink:title=" ">
<polygon fill="white" stroke="#666666" points="83,-93 0,-93 0,-74 83,-74 83,-93"/>
<text text-anchor="middle" x="41.5" y="-81" font-family="Helvetica,sans-Serif" font-size="10.00">Timings.main</text>
</a>
</g>
</g>
<!-- Node2&#45;&gt;Node4 -->
<g id="edge5_Node000002_Node000004" class="edge">
<title>Node2&#45;&gt;Node4</title>
<g id="a_edge5_Node000002_Node000004"><a xlink:title=" ">
<path fill="none" stroke="#63b8ff" d="M352.91,-83.5C292.36,-83.5 152.62,-83.5 83.19,-83.5"/>
<polygon fill="#63b8ff" stroke="#63b8ff" points="353.26,-87 363.26,-83.5 353.26,-80 353.26,-87"/>
</a>
</g>
</g>
<!-- Node3&#45;&gt;Node4 -->
<g id="edge3_Node000003_Node000004" class="edge">
<title>Node3&#45;&gt;Node4</title>
<g id="a_edge3_Node000003_Node000004"><a xlink:title=" ">
<path fill="none" stroke="#63b8ff" d="M109.91,-91.71C100.63,-90.58 91.55,-89.47 83.21,-88.46"/>
<polygon fill="#63b8ff" stroke="#63b8ff" points="109.69,-95.21 120.04,-92.94 110.54,-88.26 109.69,-95.21"/>
</a>
</g>
</g>
<!-- Node4&#45;&gt;Node4 -->
<g id="edge4_Node000004_Node000004" class="edge">
<title>Node4&#45;&gt;Node4</title>
<g id="a_edge4_Node000004_Node000004"><a xlink:title=" ">
<path fill="none" stroke="#63b8ff" d="M70.99,-101.82C69.76,-107.01 59.93,-111 41.5,-111 13.42,-111 5.3,-101.73 17.15,-93.08"/>
<polygon fill="#63b8ff" stroke="#63b8ff" points="73.94,-99.93 65.85,-93.08 67.91,-103.48 73.94,-99.93"/>
</a>
</g>
</g>
<!-- Node6 -->
<g id="Node000006" class="node">
<title>Node6</title>
<g id="a_Node000006"><a xlink:href="cJSON_8c.html#a5ba141f183b9abb4b49e38a211299c7e" target="_top" xlink:title=" ">
<polygon fill="white" stroke="#666666" points="557,-56 486,-56 486,-37 557,-37 557,-56"/>
<text text-anchor="middle" x="521.5" y="-44" font-family="Helvetica,sans-Serif" font-size="10.00">print_value</text>
</a>
</g>
</g>
<!-- Node5&#45;&gt;Node6 -->
<g id="edge7_Node000005_Node000006" class="edge">
<title>Node5&#45;&gt;Node6</title>
<g id="a_edge7_Node000005_Node000006"><a xlink:title=" ">
<path fill="none" stroke="#63b8ff" d="M582.61,-39.82C574.1,-39.67 565.3,-39.76 557.15,-40.1"/>
<polygon fill="#63b8ff" stroke="#63b8ff" points="582.68,-43.32 592.78,-40.12 582.89,-36.33 582.68,-43.32"/>
</a>
</g>
</g>
<!-- Node6&#45;&gt;Node2 -->
<g id="edge9_Node000006_Node000002" class="edge">
<title>Node6&#45;&gt;Node2</title>
<g id="a_edge9_Node000006_Node000002"><a xlink:title=" ">
<path fill="none" stroke="#63b8ff" d="M475.77,-58.62C450.99,-65.34 421.5,-73.34 402.76,-78.41"/>
<polygon fill="#63b8ff" stroke="#63b8ff" points="476.97,-61.93 485.7,-55.93 475.13,-55.17 476.97,-61.93"/>
</a>
</g>
</g>
<!-- Node6&#45;&gt;Node5 -->
<g id="edge10_Node000006_Node000005" class="edge">
<title>Node6&#45;&gt;Node5</title>
<g id="a_edge10_Node000006_Node000005"><a xlink:title=" ">
<path fill="none" stroke="#63b8ff" d="M567.35,-53.19C575.87,-53.33 584.66,-53.23 592.78,-52.88"/>
<polygon fill="#63b8ff" stroke="#63b8ff" points="567.25,-49.69 557.15,-52.9 567.05,-56.68 567.25,-49.69"/>
</a>
</g>
</g>
<!-- Node7 -->
<g id="Node000007" class="node">
<title>Node7</title>
<g id="a_Node000007"><a xlink:href="cJSON_8c.html#a5ae150f0e5009534979d4532a411d077" target="_top" xlink:title=" ">
<polygon fill="white" stroke="#666666" points="450,-56 316,-56 316,-37 450,-37 450,-56"/>
<text text-anchor="middle" x="383" y="-44" font-family="Helvetica,sans-Serif" font-size="10.00">cJSON_PrintPreallocated</text>
</a>
</g>
</g>
<!-- Node6&#45;&gt;Node7 -->
<g id="edge8_Node000006_Node000007" class="edge">
<title>Node6&#45;&gt;Node7</title>
<g id="a_edge8_Node000006_Node000007"><a xlink:title=" ">
<path fill="none" stroke="#63b8ff" d="M475.64,-46.5C467.44,-46.5 458.73,-46.5 450.07,-46.5"/>
<polygon fill="#63b8ff" stroke="#63b8ff" points="475.7,-50 485.7,-46.5 475.7,-43 475.7,-50"/>
</a>
</g>
</g>
<!-- Node6&#45;&gt;Node8 -->
<g id="edge11_Node000006_Node000008" class="edge">
<title>Node6&#45;&gt;Node8</title>
<g id="a_edge11_Node000006_Node000008"><a xlink:title=" ">
<path fill="none" stroke="#63b8ff" d="M493.06,-33.53C472.06,-26.4 442.91,-18.34 420.03,-13.24"/>
<polygon fill="#63b8ff" stroke="#63b8ff" points="492.06,-36.88 502.66,-36.93 494.4,-30.29 492.06,-36.88"/>
</a>
</g>
</g>
<!-- Node8&#45;&gt;Node6 -->
<g id="edge12_Node000008_Node000006" class="edge">
<title>Node8&#45;&gt;Node6</title>
<g id="a_edge12_Node000008_Node000006"><a xlink:title=" ">
<path fill="none" stroke="#63b8ff" d="M411.47,-22.48C432.85,-29.73 462.65,-37.96 485.7,-43.04"/>
<polygon fill="#63b8ff" stroke="#63b8ff" points="412.6,-19.17 402,-19.13 410.26,-25.77 412.6,-19.17"/>
</a>
</g>
</g>
</g>
</svg>
