<?xml version="1.0" encoding="UTF-8" standalone="no"?>
<!DOCTYPE svg PUBLIC "-//W3C//DTD SVG 1.1//EN"
 "http://www.w3.org/Graphics/SVG/1.1/DTD/svg11.dtd">
<!-- Generated by graphviz version 2.43.0 (0)
 -->
<!-- Title: print_number Pages: 1 -->
<svg width="412pt" height="104pt"
 viewBox="0.00 0.00 412.00 104.00" xmlns="http://www.w3.org/2000/svg" xmlns:xlink="http://www.w3.org/1999/xlink">
<g id="graph0" class="graph" transform="scale(1 1) rotate(0) translate(4 100)">
<title>print_number</title>
<polygon fill="white" stroke="transparent" points="-4,4 -4,-100 408,-100 408,4 -4,4"/>
<!-- Node1 -->
<g id="node1" class="node">
<title>Node1</title>
<g id="a_node1"><a xlink:title=" ">
<polygon fill="#bfbfbf" stroke="black" points="0,-38.5 0,-57.5 82,-57.5 82,-38.5 0,-38.5"/>
<text text-anchor="middle" x="41" y="-45.5" font-family="Helvetica,sans-Serif" font-size="10.00">print_number</text>
</a>
</g>
</g>
<!-- Node2 -->
<g id="node2" class="node">
<title>Node2</title>
<g id="a_node2"><a xlink:href="cJSON_8c.html#aa7a85b63f1830e7e666e1f56872d5d3e" target="_top" xlink:title=" ">
<polygon fill="white" stroke="black" points="122.5,-76.5 122.5,-95.5 220.5,-95.5 220.5,-76.5 122.5,-76.5"/>
<text text-anchor="middle" x="171.5" y="-83.5" font-family="Helvetica,sans-Serif" font-size="10.00">compare_double</text>
</a>
</g>
</g>
<!-- Node1&#45;&gt;Node2 -->
<g id="edge1" class="edge">
<title>Node1&#45;&gt;Node2</title>
<path fill="none" stroke="midnightblue" d="M74.43,-57.59C90.71,-62.4 110.64,-68.3 128.12,-73.47"/>
<polygon fill="midnightblue" stroke="midnightblue" points="127.5,-76.93 138.08,-76.41 129.49,-70.22 127.5,-76.93"/>
</g>
<!-- Node3 -->
<g id="node3" class="node">
<title>Node3</title>
<g id="a_node3"><a xlink:href="cJSON_8c.html#a3faa1600bc8001eaed05f16060668ce6" target="_top" xlink:title=" ">
<polygon fill="white" stroke="black" points="146.5,-38.5 146.5,-57.5 196.5,-57.5 196.5,-38.5 146.5,-38.5"/>
<text text-anchor="middle" x="171.5" y="-45.5" font-family="Helvetica,sans-Serif" font-size="10.00">ensure</text>
</a>
</g>
</g>
<!-- Node1&#45;&gt;Node3 -->
<g id="edge2" class="edge">
<title>Node1&#45;&gt;Node3</title>
<path fill="none" stroke="midnightblue" d="M82.31,-48C99.57,-48 119.53,-48 136.09,-48"/>
<polygon fill="midnightblue" stroke="midnightblue" points="136.42,-51.5 146.42,-48 136.42,-44.5 136.42,-51.5"/>
</g>
<!-- Node6 -->
<g id="node6" class="node">
<title>Node6</title>
<g id="a_node6"><a xlink:href="cJSON_8c.html#ab25412ae56c8c594831918169bea100d" target="_top" xlink:title=" ">
<polygon fill="white" stroke="black" points="118,-0.5 118,-19.5 225,-19.5 225,-0.5 118,-0.5"/>
<text text-anchor="middle" x="171.5" y="-7.5" font-family="Helvetica,sans-Serif" font-size="10.00">get_decimal_point</text>
</a>
</g>
</g>
<!-- Node1&#45;&gt;Node6 -->
<g id="edge5" class="edge">
<title>Node1&#45;&gt;Node6</title>
<path fill="none" stroke="midnightblue" d="M74.43,-38.41C90.71,-33.6 110.64,-27.7 128.12,-22.53"/>
<polygon fill="midnightblue" stroke="midnightblue" points="129.49,-25.78 138.08,-19.59 127.5,-19.07 129.49,-25.78"/>
</g>
<!-- Node4 -->
<g id="node4" class="node">
<title>Node4</title>
<g id="a_node4"><a xlink:href="structinternal__hooks.html#a872a0c28217b451331d24b8e0484b293" target="_top" xlink:title=" ">
<polygon fill="white" stroke="black" points="265.5,-57.5 265.5,-76.5 399.5,-76.5 399.5,-57.5 265.5,-57.5"/>
<text text-anchor="middle" x="332.5" y="-64.5" font-family="Helvetica,sans-Serif" font-size="10.00">internal_hooks::allocate</text>
</a>
</g>
</g>
<!-- Node3&#45;&gt;Node4 -->
<g id="edge3" class="edge">
<title>Node3&#45;&gt;Node4</title>
<path fill="none" stroke="midnightblue" d="M196.65,-50.89C212.47,-52.78 234.11,-55.36 255.41,-57.91"/>
<polygon fill="midnightblue" stroke="midnightblue" points="255.14,-61.4 265.49,-59.11 255.97,-54.45 255.14,-61.4"/>
</g>
<!-- Node5 -->
<g id="node5" class="node">
<title>Node5</title>
<g id="a_node5"><a xlink:href="structinternal__hooks.html#a5dd48d5c2f2b1cf4f6eec5df6205e15c" target="_top" xlink:title=" ">
<polygon fill="white" stroke="black" points="261,-19.5 261,-38.5 404,-38.5 404,-19.5 261,-19.5"/>
<text text-anchor="middle" x="332.5" y="-26.5" font-family="Helvetica,sans-Serif" font-size="10.00">internal_hooks::reallocate</text>
</a>
</g>
</g>
<!-- Node3&#45;&gt;Node5 -->
<g id="edge4" class="edge">
<title>Node3&#45;&gt;Node5</title>
<path fill="none" stroke="midnightblue" d="M196.65,-45.11C211.36,-43.36 231.1,-41 250.93,-38.63"/>
<polygon fill="midnightblue" stroke="midnightblue" points="251.45,-42.09 260.96,-37.43 250.62,-35.14 251.45,-42.09"/>
</g>
</g>
</svg>
