<?xml version="1.0" encoding="UTF-8" standalone="no"?>
<!DOCTYPE svg PUBLIC "-//W3C//DTD SVG 1.1//EN"
 "http://www.w3.org/Graphics/SVG/1.1/DTD/svg11.dtd">
<!-- Generated by graphviz version 2.43.0 (0)
 -->
<!-- Title: cJSON_AddNumberToObject Pages: 1 -->
<svg width="622pt" height="104pt"
 viewBox="0.00 0.00 622.00 104.00" xmlns="http://www.w3.org/2000/svg" xmlns:xlink="http://www.w3.org/1999/xlink">
<g id="graph0" class="graph" transform="scale(1 1) rotate(0) translate(4 100)">
<title>cJSON_AddNumberToObject</title>
<polygon fill="white" stroke="transparent" points="-4,4 -4,-100 618,-100 618,4 -4,4"/>
<!-- Node1 -->
<g id="node1" class="node">
<title>Node1</title>
<g id="a_node1"><a xlink:title=" ">
<polygon fill="#bfbfbf" stroke="black" points="0,-38.5 0,-57.5 151,-57.5 151,-38.5 0,-38.5"/>
<text text-anchor="middle" x="75.5" y="-45.5" font-family="Helvetica,sans-Serif" font-size="10.00">cJSON_AddNumberToObject</text>
</a>
</g>
</g>
<!-- Node2 -->
<g id="node2" class="node">
<title>Node2</title>
<g id="a_node2"><a xlink:href="cJSON_8c.html#acc48bef0e1b495898d9489e577b91d5c" target="_top" xlink:title=" ">
<polygon fill="white" stroke="black" points="187,-38.5 187,-57.5 300,-57.5 300,-38.5 187,-38.5"/>
<text text-anchor="middle" x="243.5" y="-45.5" font-family="Helvetica,sans-Serif" font-size="10.00">add_item_to_object</text>
</a>
</g>
</g>
<!-- Node1&#45;&gt;Node2 -->
<g id="edge1" class="edge">
<title>Node1&#45;&gt;Node2</title>
<path fill="none" stroke="midnightblue" d="M151.24,-48C159.69,-48 168.25,-48 176.56,-48"/>
<polygon fill="midnightblue" stroke="midnightblue" points="176.57,-51.5 186.57,-48 176.57,-44.5 176.57,-51.5"/>
</g>
<!-- Node3 -->
<g id="node3" class="node">
<title>Node3</title>
<g id="a_node3"><a xlink:href="cJSON_8c.html#a816d10c908af6be844a1f8277363e2f1" target="_top" xlink:title=" ">
<polygon fill="white" stroke="black" points="336,-76.5 336,-95.5 444,-95.5 444,-76.5 336,-76.5"/>
<text text-anchor="middle" x="390" y="-83.5" font-family="Helvetica,sans-Serif" font-size="10.00">add_item_to_array</text>
</a>
</g>
</g>
<!-- Node2&#45;&gt;Node3 -->
<g id="edge2" class="edge">
<title>Node2&#45;&gt;Node3</title>
<path fill="none" stroke="midnightblue" d="M280.96,-57.59C299.77,-62.54 322.91,-68.62 342.95,-73.89"/>
<polygon fill="midnightblue" stroke="midnightblue" points="342.24,-77.32 352.8,-76.48 344.02,-70.55 342.24,-77.32"/>
</g>
<!-- Node5 -->
<g id="node5" class="node">
<title>Node5</title>
<g id="a_node5"><a xlink:href="cJSON_8c.html#a48223c36735c39cfc4711b0659f966c8" target="_top" xlink:title=" ">
<polygon fill="white" stroke="black" points="340,-38.5 340,-57.5 440,-57.5 440,-38.5 340,-38.5"/>
<text text-anchor="middle" x="390" y="-45.5" font-family="Helvetica,sans-Serif" font-size="10.00">cast_away_const</text>
</a>
</g>
</g>
<!-- Node2&#45;&gt;Node5 -->
<g id="edge4" class="edge">
<title>Node2&#45;&gt;Node5</title>
<path fill="none" stroke="midnightblue" d="M300.37,-48C310.03,-48 320.11,-48 329.86,-48"/>
<polygon fill="midnightblue" stroke="midnightblue" points="329.87,-51.5 339.87,-48 329.87,-44.5 329.87,-51.5"/>
</g>
<!-- Node6 -->
<g id="node6" class="node">
<title>Node6</title>
<g id="a_node6"><a xlink:href="cJSON_8c.html#a5da7bd9b4622e97e7e19c36017410252" target="_top" xlink:title=" ">
<polygon fill="white" stroke="black" points="349,-0.5 349,-19.5 431,-19.5 431,-0.5 349,-0.5"/>
<text text-anchor="middle" x="390" y="-7.5" font-family="Helvetica,sans-Serif" font-size="10.00">cJSON_strdup</text>
</a>
</g>
</g>
<!-- Node2&#45;&gt;Node6 -->
<g id="edge5" class="edge">
<title>Node2&#45;&gt;Node6</title>
<path fill="none" stroke="midnightblue" d="M280.96,-38.41C299.77,-33.46 322.91,-27.38 342.95,-22.11"/>
<polygon fill="midnightblue" stroke="midnightblue" points="344.02,-25.45 352.8,-19.52 342.24,-18.68 344.02,-25.45"/>
</g>
<!-- Node4 -->
<g id="node4" class="node">
<title>Node4</title>
<g id="a_node4"><a xlink:href="cJSON_8c.html#a5d61bcc0045ace88c2ae04f0928eeace" target="_top" xlink:title=" ">
<polygon fill="white" stroke="black" points="507.5,-76.5 507.5,-95.5 586.5,-95.5 586.5,-76.5 507.5,-76.5"/>
<text text-anchor="middle" x="547" y="-83.5" font-family="Helvetica,sans-Serif" font-size="10.00">suffix_object</text>
</a>
</g>
</g>
<!-- Node3&#45;&gt;Node4 -->
<g id="edge3" class="edge">
<title>Node3&#45;&gt;Node4</title>
<path fill="none" stroke="midnightblue" d="M444.34,-86C461.46,-86 480.32,-86 497.1,-86"/>
<polygon fill="midnightblue" stroke="midnightblue" points="497.24,-89.5 507.24,-86 497.24,-82.5 497.24,-89.5"/>
</g>
<!-- Node7 -->
<g id="node7" class="node">
<title>Node7</title>
<g id="a_node7"><a xlink:href="structinternal__hooks.html#a872a0c28217b451331d24b8e0484b293" target="_top" xlink:title=" ">
<polygon fill="white" stroke="black" points="480,-0.5 480,-19.5 614,-19.5 614,-0.5 480,-0.5"/>
<text text-anchor="middle" x="547" y="-7.5" font-family="Helvetica,sans-Serif" font-size="10.00">internal_hooks::allocate</text>
</a>
</g>
</g>
<!-- Node6&#45;&gt;Node7 -->
<g id="edge6" class="edge">
<title>Node6&#45;&gt;Node7</title>
<path fill="none" stroke="midnightblue" d="M431.32,-10C443.11,-10 456.41,-10 469.67,-10"/>
<polygon fill="midnightblue" stroke="midnightblue" points="469.77,-13.5 479.77,-10 469.77,-6.5 469.77,-13.5"/>
</g>
</g>
</svg>
