<?xml version="1.0" encoding="UTF-8" standalone="no"?>
<!DOCTYPE svg PUBLIC "-//W3C//DTD SVG 1.1//EN"
 "http://www.w3.org/Graphics/SVG/1.1/DTD/svg11.dtd">
<!-- Generated by graphviz version 2.43.0 (0)
 -->
<!-- Title: ensure Pages: 1 -->
<!--zoomable 184 -->
<svg id="main" version="1.1" xmlns="http://www.w3.org/2000/svg" xmlns:xlink="http://www.w3.org/1999/xlink" xml:space="preserve" onload="init(evt)">
<style type="text/css"><![CDATA[
.edge:hover path { stroke: red; }
.edge:hover polygon { stroke: red; fill: red; }
]]></style>
<script type="text/javascript"><![CDATA[
var edges = document.getElementsByTagName('g');
if (edges && edges.length) {
  for (var i=0;i<edges.length;i++) {
    if (edges[i].id.substr(0,4)=='edge') {
      edges[i].setAttribute('class','edge');
    }
  }
}
]]></script>
        <defs>
                <circle id="rim" cx="0" cy="0" r="7"/>
                <circle id="rim2" cx="0" cy="0" r="3.5"/>
                <g id="zoomPlus">
                        <use xlink:href="#rim" fill="#404040">
                                <set attributeName="fill" to="#808080" begin="zoomplus.mouseover" end="zoomplus.mouseout"/>
                        </use>
                        <path d="M-4,0h8M0,-4v8" fill="none" stroke="white" stroke-width="1.5" pointer-events="none"/>
                </g>
                <g id="zoomMin">
                        <use xlink:href="#rim" fill="#404040">
                                <set attributeName="fill" to="#808080" begin="zoomminus.mouseover" end="zoomminus.mouseout"/>
                        </use>
                        <path d="M-4,0h8" fill="none" stroke="white" stroke-width="1.5" pointer-events="none"/>
                </g>
                <g id="dirArrow">
                        <path fill="none" stroke="white" stroke-width="1.5" d="M0,-3.0v7 M-2.5,-0.5L0,-3.0L2.5,-0.5"/>
                </g>
               <g id="resetDef">
                       <use xlink:href="#rim2" fill="#404040">
                               <set attributeName="fill" to="#808080" begin="reset.mouseover" end="reset.mouseout"/>
                       </use>
               </g>
        </defs>

<script type="text/javascript">
var viewWidth = 886;
var viewHeight = 184;
var sectionId = 'dynsection-35';
</script>
<script xlink:href="svgpan.js"/>
<svg id="graph" class="graph">
<g id="viewport">
<title>ensure</title>
<polygon fill="white" stroke="transparent" points="-4,4 -4,-180 882,-180 882,4 -4,4"/>
<!-- Node1 -->
<g id="node1" class="node">
<title>Node1</title>
<g id="a_node1"><a xlink:title=" ">
<polygon fill="#bfbfbf" stroke="black" points="828,-80.5 828,-99.5 878,-99.5 878,-80.5 828,-80.5"/>
<text text-anchor="middle" x="853" y="-87.5" font-family="Helvetica,sans-Serif" font-size="10.00">ensure</text>
</a>
</g>
</g>
<!-- Node2 -->
<g id="node2" class="node">
<title>Node2</title>
<g id="a_node2"><a xlink:href="cJSON_8c.html#ae84642817f3965a85c7c617663250c16" target="_top" xlink:title=" ">
<polygon fill="white" stroke="black" points="594,-118.5 594,-137.5 664,-137.5 664,-118.5 594,-118.5"/>
<text text-anchor="middle" x="629" y="-125.5" font-family="Helvetica,sans-Serif" font-size="10.00">print_array</text>
</a>
</g>
</g>
<!-- Node1&#45;&gt;Node2 -->
<g id="edge1" class="edge">
<title>Node1&#45;&gt;Node2</title>
<path fill="none" stroke="midnightblue" d="M817.94,-98.46C809.49,-100.42 800.44,-102.39 792,-104 748.15,-112.35 697.15,-119.49 664.27,-123.76"/>
<polygon fill="midnightblue" stroke="midnightblue" points="818.94,-101.82 827.87,-96.11 817.33,-95.01 818.94,-101.82"/>
</g>
<!-- Node3 -->
<g id="node3" class="node">
<title>Node3</title>
<g id="a_node3"><a xlink:href="cJSON_8c.html#a5ba141f183b9abb4b49e38a211299c7e" target="_top" xlink:title=" ">
<polygon fill="white" stroke="black" points="486,-80.5 486,-99.5 557,-99.5 557,-80.5 486,-80.5"/>
<text text-anchor="middle" x="521.5" y="-87.5" font-family="Helvetica,sans-Serif" font-size="10.00">print_value</text>
</a>
</g>
</g>
<!-- Node1&#45;&gt;Node3 -->
<g id="edge18" class="edge">
<title>Node1&#45;&gt;Node3</title>
<path fill="none" stroke="midnightblue" d="M817.53,-90C754.31,-90 620.49,-90 557.14,-90"/>
<polygon fill="midnightblue" stroke="midnightblue" points="817.77,-93.5 827.77,-90 817.77,-86.5 817.77,-93.5"/>
</g>
<!-- Node8 -->
<g id="node8" class="node">
<title>Node8</title>
<g id="a_node8"><a xlink:href="cJSON_8c.html#a3d742f5c68799bca291432a9cd72f8dd" target="_top" xlink:title=" ">
<polygon fill="white" stroke="black" points="346,-23.5 346,-42.5 420,-42.5 420,-23.5 346,-23.5"/>
<text text-anchor="middle" x="383" y="-30.5" font-family="Helvetica,sans-Serif" font-size="10.00">print_object</text>
</a>
</g>
</g>
<!-- Node1&#45;&gt;Node8 -->
<g id="edge13" class="edge">
<title>Node1&#45;&gt;Node8</title>
<path fill="none" stroke="midnightblue" d="M838.9,-72.21C827.99,-58.88 811.16,-41.54 792,-33 665.35,23.43 493.83,-6.44 420.11,-23.62"/>
<polygon fill="midnightblue" stroke="midnightblue" points="836.27,-74.53 845.19,-80.25 841.79,-70.22 836.27,-74.53"/>
</g>
<!-- Node9 -->
<g id="node9" class="node">
<title>Node9</title>
<g id="a_node9"><a xlink:href="cJSON_8c.html#ad93d84de08872da0eaa6624be0e74a68" target="_top" xlink:title=" ">
<polygon fill="white" stroke="black" points="705.5,-156.5 705.5,-175.5 787.5,-175.5 787.5,-156.5 705.5,-156.5"/>
<text text-anchor="middle" x="746.5" y="-163.5" font-family="Helvetica,sans-Serif" font-size="10.00">print_number</text>
</a>
</g>
</g>
<!-- Node1&#45;&gt;Node9 -->
<g id="edge11" class="edge">
<title>Node1&#45;&gt;Node9</title>
<path fill="none" stroke="midnightblue" d="M834.77,-106.74C823.2,-117.51 807.33,-131.41 792,-142 784.34,-147.29 775.4,-152.31 767.54,-156.38"/>
<polygon fill="midnightblue" stroke="midnightblue" points="837.51,-108.97 842.36,-99.55 832.69,-103.88 837.51,-108.97"/>
</g>
<!-- Node10 -->
<g id="node10" class="node">
<title>Node10</title>
<g id="a_node10"><a xlink:href="cJSON_8c.html#af5b4e769356f10d99a7f66697c42c1bb" target="_top" xlink:title=" ">
<polygon fill="white" stroke="black" points="701,-42.5 701,-61.5 792,-61.5 792,-42.5 701,-42.5"/>
<text text-anchor="middle" x="746.5" y="-49.5" font-family="Helvetica,sans-Serif" font-size="10.00">print_string_ptr</text>
</a>
</g>
</g>
<!-- Node1&#45;&gt;Node10 -->
<g id="edge14" class="edge">
<title>Node1&#45;&gt;Node10</title>
<path fill="none" stroke="midnightblue" d="M818.2,-77.71C803.81,-72.48 787.26,-66.46 773.8,-61.57"/>
<polygon fill="midnightblue" stroke="midnightblue" points="817.17,-81.06 827.76,-81.19 819.56,-74.48 817.17,-81.06"/>
</g>
<!-- Node2&#45;&gt;Node3 -->
<g id="edge2" class="edge">
<title>Node2&#45;&gt;Node3</title>
<path fill="none" stroke="midnightblue" d="M604.85,-113.97C590.89,-107.82 572.83,-101.09 557.18,-96.11"/>
<polygon fill="midnightblue" stroke="midnightblue" points="603.66,-117.27 614.21,-118.3 606.61,-110.92 603.66,-117.27"/>
</g>
<!-- Node3&#45;&gt;Node2 -->
<g id="edge8" class="edge">
<title>Node3&#45;&gt;Node2</title>
<path fill="none" stroke="midnightblue" d="M545.54,-103.99C559.65,-110.2 577.96,-117.03 593.75,-122.03"/>
<polygon fill="midnightblue" stroke="midnightblue" points="546.65,-100.65 536.11,-99.61 543.71,-107 546.65,-100.65"/>
</g>
<!-- Node4 -->
<g id="node4" class="node">
<title>Node4</title>
<g id="a_node4"><a xlink:href="cJSON_8c.html#a5ae150f0e5009534979d4532a411d077" target="_top" xlink:title=" ">
<polygon fill="white" stroke="black" points="316,-99.5 316,-118.5 450,-118.5 450,-99.5 316,-99.5"/>
<text text-anchor="middle" x="383" y="-106.5" font-family="Helvetica,sans-Serif" font-size="10.00">cJSON_PrintPreallocated</text>
</a>
</g>
</g>
<!-- Node3&#45;&gt;Node4 -->
<g id="edge3" class="edge">
<title>Node3&#45;&gt;Node4</title>
<path fill="none" stroke="midnightblue" d="M475.64,-96.25C467.44,-97.39 458.73,-98.6 450.07,-99.8"/>
<polygon fill="midnightblue" stroke="midnightblue" points="476.28,-99.69 485.7,-94.85 475.32,-92.76 476.28,-99.69"/>
</g>
<!-- Node5 -->
<g id="node5" class="node">
<title>Node5</title>
<g id="a_node5"><a xlink:href="cJSON_8c.html#ae71e2aec89bf140e6430cb7d5ca417c5" target="_top" xlink:title=" ">
<polygon fill="white" stroke="black" points="363.5,-61.5 363.5,-80.5 402.5,-80.5 402.5,-61.5 363.5,-61.5"/>
<text text-anchor="middle" x="383" y="-68.5" font-family="Helvetica,sans-Serif" font-size="10.00">print</text>
</a>
</g>
</g>
<!-- Node3&#45;&gt;Node5 -->
<g id="edge4" class="edge">
<title>Node3&#45;&gt;Node5</title>
<path fill="none" stroke="midnightblue" d="M475.77,-83.78C450.99,-80.33 421.5,-76.22 402.76,-73.61"/>
<polygon fill="midnightblue" stroke="midnightblue" points="475.32,-87.25 485.7,-85.16 476.28,-80.31 475.32,-87.25"/>
</g>
<!-- Node3&#45;&gt;Node8 -->
<g id="edge9" class="edge">
<title>Node3&#45;&gt;Node8</title>
<path fill="none" stroke="midnightblue" d="M505.79,-73.9C491.83,-63.49 470.07,-51.19 450,-43 440.51,-39.13 429.94,-35.71 420.1,-33.23"/>
<polygon fill="midnightblue" stroke="midnightblue" points="503.78,-76.77 513.74,-80.4 508.21,-71.36 503.78,-76.77"/>
</g>
<!-- Node6 -->
<g id="node6" class="node">
<title>Node6</title>
<g id="a_node6"><a xlink:href="namespaceTimings.html#aadf2661fed15eeec1d5ca92e8125726e" target="_top" xlink:title=" ">
<polygon fill="white" stroke="black" points="119,-80.5 119,-99.5 280,-99.5 280,-80.5 119,-80.5"/>
<text text-anchor="middle" x="199.5" y="-87.5" font-family="Helvetica,sans-Serif" font-size="10.00">Timings.analyze_timing_data</text>
</a>
</g>
</g>
<!-- Node5&#45;&gt;Node6 -->
<g id="edge5" class="edge">
<title>Node5&#45;&gt;Node6</title>
<path fill="none" stroke="midnightblue" d="M353.13,-74.02C333.42,-76.09 306.27,-78.93 280.34,-81.64"/>
<polygon fill="midnightblue" stroke="midnightblue" points="353.68,-77.49 363.26,-72.96 352.95,-70.52 353.68,-77.49"/>
</g>
<!-- Node7 -->
<g id="node7" class="node">
<title>Node7</title>
<g id="a_node7"><a xlink:href="namespaceTimings.html#a4dc59d29cbbbc539305dfa472f2e0f52" target="_top" xlink:title=" ">
<polygon fill="white" stroke="black" points="0,-61.5 0,-80.5 83,-80.5 83,-61.5 0,-61.5"/>
<text text-anchor="middle" x="41.5" y="-68.5" font-family="Helvetica,sans-Serif" font-size="10.00">Timings.main</text>
</a>
</g>
</g>
<!-- Node5&#45;&gt;Node7 -->
<g id="edge7" class="edge">
<title>Node5&#45;&gt;Node7</title>
<path fill="none" stroke="midnightblue" d="M352.91,-71C292.36,-71 152.62,-71 83.19,-71"/>
<polygon fill="midnightblue" stroke="midnightblue" points="353.26,-74.5 363.26,-71 353.26,-67.5 353.26,-74.5"/>
</g>
<!-- Node6&#45;&gt;Node7 -->
<g id="edge6" class="edge">
<title>Node6&#45;&gt;Node7</title>
<path fill="none" stroke="midnightblue" d="M109.91,-79.21C100.63,-78.08 91.55,-76.98 83.21,-75.96"/>
<polygon fill="midnightblue" stroke="midnightblue" points="109.69,-82.71 120.04,-80.45 110.54,-75.76 109.69,-82.71"/>
</g>
<!-- Node8&#45;&gt;Node3 -->
<g id="edge10" class="edge">
<title>Node8&#45;&gt;Node3</title>
<path fill="none" stroke="midnightblue" d="M406.45,-46.07C419.41,-50.5 435.89,-55.24 450,-61 463.78,-66.62 478.35,-74.18 490.65,-80.42"/>
<polygon fill="midnightblue" stroke="midnightblue" points="407.52,-42.73 396.93,-42.57 405.11,-49.31 407.52,-42.73"/>
</g>
<!-- Node9&#45;&gt;Node3 -->
<g id="edge12" class="edge">
<title>Node9&#45;&gt;Node3</title>
<path fill="none" stroke="midnightblue" d="M695.37,-166.63C664.72,-165.37 625.32,-160.74 593,-147 567.22,-136.04 543.2,-112.77 530.97,-99.6"/>
<polygon fill="midnightblue" stroke="midnightblue" points="695.31,-170.13 705.41,-166.94 695.52,-163.14 695.31,-170.13"/>
</g>
<!-- Node10&#45;&gt;Node8 -->
<g id="edge15" class="edge">
<title>Node10&#45;&gt;Node8</title>
<path fill="none" stroke="midnightblue" d="M703.01,-40.03C690.83,-37.13 677.48,-34.45 665,-33 577.53,-22.82 473.71,-27 420.08,-30.34"/>
<polygon fill="midnightblue" stroke="midnightblue" points="702.36,-43.48 712.91,-42.49 704.05,-36.68 702.36,-43.48"/>
</g>
<!-- Node11 -->
<g id="node11" class="node">
<title>Node11</title>
<g id="a_node11"><a xlink:href="cJSON_8c.html#ad087dd738e49b4258f0a3d378a121df6" target="_top" xlink:title=" ">
<polygon fill="white" stroke="black" points="593,-42.5 593,-61.5 665,-61.5 665,-42.5 593,-42.5"/>
<text text-anchor="middle" x="629" y="-49.5" font-family="Helvetica,sans-Serif" font-size="10.00">print_string</text>
</a>
</g>
</g>
<!-- Node10&#45;&gt;Node11 -->
<g id="edge16" class="edge">
<title>Node10&#45;&gt;Node11</title>
<path fill="none" stroke="midnightblue" d="M690.75,-52C682.07,-52 673.3,-52 665.23,-52"/>
<polygon fill="midnightblue" stroke="midnightblue" points="690.84,-55.5 700.84,-52 690.84,-48.5 690.84,-55.5"/>
</g>
<!-- Node11&#45;&gt;Node3 -->
<g id="edge17" class="edge">
<title>Node11&#45;&gt;Node3</title>
<path fill="none" stroke="midnightblue" d="M591.58,-65.12C577.63,-70.15 561.98,-75.78 549.11,-80.42"/>
<polygon fill="midnightblue" stroke="midnightblue" points="593.16,-68.27 601.38,-61.59 590.78,-61.69 593.16,-68.27"/>
</g>
</g>
</svg>
        <g id="navigator" transform="translate(0 0)" fill="#404254">
                <rect fill="#f2f5e9" fill-opacity="0.5" stroke="#606060" stroke-width=".5" x="0" y="0" width="60" height="60"/>
                <use id="zoomplus" xlink:href="#zoomPlus" x="17" y="9" onmousedown="handleZoom(evt,'in')"/>
                <use id="zoomminus" xlink:href="#zoomMin" x="42" y="9" onmousedown="handleZoom(evt,'out')"/>
                <use id="reset" xlink:href="#resetDef" x="30" y="36" onmousedown="handleReset()"/>
                <g id="arrowUp" xlink:href="#dirArrow" transform="translate(30 24)" onmousedown="handlePan(0,-1)">
                  <use xlink:href="#rim" fill="#404040">
                        <set attributeName="fill" to="#808080" begin="arrowUp.mouseover" end="arrowUp.mouseout"/>
                  </use>
                  <path fill="none" stroke="white" stroke-width="1.5" d="M0,-3.0v7 M-2.5,-0.5L0,-3.0L2.5,-0.5"/>
                </g>
                <g id="arrowRight" xlink:href="#dirArrow" transform="rotate(90) translate(36 -43)" onmousedown="handlePan(1,0)">
                  <use xlink:href="#rim" fill="#404040">
                        <set attributeName="fill" to="#808080" begin="arrowRight.mouseover" end="arrowRight.mouseout"/>
                  </use>
                  <path fill="none" stroke="white" stroke-width="1.5" d="M0,-3.0v7 M-2.5,-0.5L0,-3.0L2.5,-0.5"/>
                </g>
                <g id="arrowDown" xlink:href="#dirArrow" transform="rotate(180) translate(-30 -48)" onmousedown="handlePan(0,1)">
                  <use xlink:href="#rim" fill="#404040">
                        <set attributeName="fill" to="#808080" begin="arrowDown.mouseover" end="arrowDown.mouseout"/>
                  </use>
                  <path fill="none" stroke="white" stroke-width="1.5" d="M0,-3.0v7 M-2.5,-0.5L0,-3.0L2.5,-0.5"/>
                </g>
                <g id="arrowLeft" xlink:href="#dirArrow" transform="rotate(270) translate(-36 17)" onmousedown="handlePan(-1,0)">
                  <use xlink:href="#rim" fill="#404040">
                        <set attributeName="fill" to="#808080" begin="arrowLeft.mouseover" end="arrowLeft.mouseout"/>
                  </use>
                  <path fill="none" stroke="white" stroke-width="1.5" d="M0,-3.0v7 M-2.5,-0.5L0,-3.0L2.5,-0.5"/>
                </g>
        </g>
        <svg viewBox="0 0 15 15" width="100%" height="30px" preserveAspectRatio="xMaxYMin meet">
         <g id="arrow_out" transform="scale(0.3 0.3)">
          <a xlink:href="cJSON_8c_a3faa1600bc8001eaed05f16060668ce6_icgraph_org.svg" target="_base">
           <rect id="button" ry="5" rx="5" y="6" x="6" height="38" width="38"
                fill="#f2f5e9" fill-opacity="0.5" stroke="#606060" stroke-width="1.0"/>
           <path id="arrow"
             d="M 11.500037,31.436501 C 11.940474,20.09759 22.043105,11.32322 32.158766,21.979434 L 37.068811,17.246167 C 37.068811,17.246167 37.088388,32 37.088388,32 L 22.160133,31.978069 C 22.160133,31.978069 26.997745,27.140456 26.997745,27.140456 C 18.528582,18.264221 13.291696,25.230495 11.500037,31.436501 z"
             style="fill:#404040;"/>
          </a>
         </g>
        </svg>
</svg>
