<?xml version="1.0" encoding="UTF-8" standalone="no"?>
<!DOCTYPE svg PUBLIC "-//W3C//DTD SVG 1.1//EN"
 "http://www.w3.org/Graphics/SVG/1.1/DTD/svg11.dtd">
<!-- Generated by graphviz version 2.43.0 (0)
 -->
<!-- Title: print_string_ptr Pages: 1 -->
<svg width="802pt" height="120pt"
 viewBox="0.00 0.00 802.00 120.00" xmlns="http://www.w3.org/2000/svg" xmlns:xlink="http://www.w3.org/1999/xlink">
<g id="graph0" class="graph" transform="scale(1 1) rotate(0) translate(4 116)">
<title>print_string_ptr</title>
<!-- Node1 -->
<g id="Node000001" class="node">
<title>Node1</title>
<g id="a_Node000001"><a xlink:title=" ">
<polygon fill="#999999" stroke="#666666" points="794,-37 703,-37 703,-18 794,-18 794,-37"/>
<text text-anchor="middle" x="748.5" y="-25" font-family="Helvetica,sans-Serif" font-size="10.00">print_string_ptr</text>
</a>
</g>
</g>
<!-- Node2 -->
<g id="Node000002" class="node">
<title>Node2</title>
<g id="a_Node000002"><a xlink:href="cJSON_8c.html#a3d742f5c68799bca291432a9cd72f8dd" target="_top" xlink:title=" ">
<polygon fill="white" stroke="#666666" points="667,-56 593,-56 593,-37 667,-37 667,-56"/>
<text text-anchor="middle" x="630" y="-44" font-family="Helvetica,sans-Serif" font-size="10.00">print_object</text>
</a>
</g>
</g>
<!-- Node1&#45;&gt;Node2 -->
<g id="edge1_Node000001_Node000002" class="edge">
<title>Node1&#45;&gt;Node2</title>
<g id="a_edge1_Node000001_Node000002"><a xlink:title=" ">
<path fill="none" stroke="#63b8ff" d="M692.69,-36.44C684,-37.86 675.22,-39.29 667.1,-40.61"/>
<polygon fill="#63b8ff" stroke="#63b8ff" points="693.49,-39.86 702.79,-34.79 692.36,-32.95 693.49,-39.86"/>
</a>
</g>
</g>
<!-- Node9 -->
<g id="Node000009" class="node">
<title>Node9</title>
<g id="a_Node000009"><a xlink:href="cJSON_8c.html#ad087dd738e49b4258f0a3d378a121df6" target="_top" xlink:title=" ">
<polygon fill="white" stroke="#666666" points="666,-19 594,-19 594,0 666,0 666,-19"/>
<text text-anchor="middle" x="630" y="-7" font-family="Helvetica,sans-Serif" font-size="10.00">print_string</text>
</a>
</g>
</g>
<!-- Node1&#45;&gt;Node9 -->
<g id="edge12_Node000001_Node000009" class="edge">
<title>Node1&#45;&gt;Node9</title>
<g id="a_edge12_Node000001_Node000009"><a xlink:title=" ">
<path fill="none" stroke="#63b8ff" d="M692.65,-19.03C683.58,-17.62 674.41,-16.21 666,-14.91"/>
<polygon fill="#63b8ff" stroke="#63b8ff" points="692.37,-22.52 702.79,-20.59 693.44,-15.61 692.37,-22.52"/>
</a>
</g>
</g>
<!-- Node3 -->
<g id="Node000003" class="node">
<title>Node3</title>
<g id="a_Node000003"><a xlink:href="cJSON_8c.html#a5ba141f183b9abb4b49e38a211299c7e" target="_top" xlink:title=" ">
<polygon fill="white" stroke="#666666" points="557,-56 486,-56 486,-37 557,-37 557,-56"/>
<text text-anchor="middle" x="521.5" y="-44" font-family="Helvetica,sans-Serif" font-size="10.00">print_value</text>
</a>
</g>
</g>
<!-- Node2&#45;&gt;Node3 -->
<g id="edge2_Node000002_Node000003" class="edge">
<title>Node2&#45;&gt;Node3</title>
<g id="a_edge2_Node000002_Node000003"><a xlink:title=" ">
<path fill="none" stroke="#63b8ff" d="M582.94,-39.8C574.26,-39.67 565.33,-39.78 557.08,-40.13"/>
<polygon fill="#63b8ff" stroke="#63b8ff" points="582.85,-43.3 592.94,-40.07 583.04,-36.31 582.85,-43.3"/>
</a>
</g>
</g>
<!-- Node3&#45;&gt;Node2 -->
<g id="edge11_Node000003_Node000002" class="edge">
<title>Node3&#45;&gt;Node2</title>
<g id="a_edge11_Node000003_Node000002"><a xlink:title=" ">
<path fill="none" stroke="#63b8ff" d="M567.3,-53.17C575.85,-53.33 584.71,-53.25 592.94,-52.93"/>
<polygon fill="#63b8ff" stroke="#63b8ff" points="567.18,-49.67 557.08,-52.87 566.97,-56.67 567.18,-49.67"/>
</a>
</g>
</g>
<!-- Node4 -->
<g id="Node000004" class="node">
<title>Node4</title>
<g id="a_Node000004"><a xlink:href="cJSON_8c.html#a5ae150f0e5009534979d4532a411d077" target="_top" xlink:title=" ">
<polygon fill="white" stroke="#666666" points="450,-112 316,-112 316,-93 450,-93 450,-112"/>
<text text-anchor="middle" x="383" y="-100" font-family="Helvetica,sans-Serif" font-size="10.00">cJSON_PrintPreallocated</text>
</a>
</g>
</g>
<!-- Node3&#45;&gt;Node4 -->
<g id="edge3_Node000003_Node000004" class="edge">
<title>Node3&#45;&gt;Node4</title>
<g id="a_edge3_Node000003_Node000004"><a xlink:title=" ">
<path fill="none" stroke="#63b8ff" d="M496.34,-61.3C483.03,-69 466,-78.1 450,-84.5 441.95,-87.72 433.12,-90.56 424.62,-92.99"/>
<polygon fill="#63b8ff" stroke="#63b8ff" points="498.48,-64.1 505.31,-56.01 494.92,-58.07 498.48,-64.1"/>
</a>
</g>
</g>
<!-- Node5 -->
<g id="Node000005" class="node">
<title>Node5</title>
<g id="a_Node000005"><a xlink:href="cJSON_8c.html#a36b0c212c0d382a4714afa8b70c1a2ee" target="_top" xlink:title=" ">
<polygon fill="white" stroke="#666666" points="402.5,-75 363.5,-75 363.5,-56 402.5,-56 402.5,-75"/>
<text text-anchor="middle" x="383" y="-63" font-family="Helvetica,sans-Serif" font-size="10.00">print</text>
</a>
</g>
</g>
<!-- Node3&#45;&gt;Node5 -->
<g id="edge4_Node000003_Node000005" class="edge">
<title>Node3&#45;&gt;Node5</title>
<g id="a_edge4_Node000003_Node000005"><a xlink:title=" ">
<path fill="none" stroke="#63b8ff" d="M475.77,-52.73C450.99,-56.18 421.5,-60.28 402.76,-62.89"/>
<polygon fill="#63b8ff" stroke="#63b8ff" points="476.28,-56.19 485.7,-51.34 475.32,-49.26 476.28,-56.19"/>
</a>
</g>
</g>
<!-- Node8 -->
<g id="Node000008" class="node">
<title>Node8</title>
<g id="a_Node000008"><a xlink:href="cJSON_8c.html#ae84642817f3965a85c7c617663250c16" target="_top" xlink:title=" ">
<polygon fill="white" stroke="#666666" points="418,-38 348,-38 348,-19 418,-19 418,-38"/>
<text text-anchor="middle" x="383" y="-26" font-family="Helvetica,sans-Serif" font-size="10.00">print_array</text>
</a>
</g>
</g>
<!-- Node3&#45;&gt;Node8 -->
<g id="edge9_Node000003_Node000008" class="edge">
<title>Node3&#45;&gt;Node8</title>
<g id="a_edge9_Node000003_Node000008"><a xlink:title=" ">
<path fill="none" stroke="#63b8ff" d="M481.2,-35.14C461.23,-31.67 437.22,-28.58 418.05,-27.06"/>
<polygon fill="#63b8ff" stroke="#63b8ff" points="480.75,-38.61 491.22,-36.98 482.02,-31.73 480.75,-38.61"/>
</a>
</g>
</g>
<!-- Node6 -->
<g id="Node000006" class="node">
<title>Node6</title>
<g id="a_Node000006"><a xlink:href="namespaceTimings.html#aadf2661fed15eeec1d5ca92e8125726e" target="_top" xlink:title=" ">
<polygon fill="white" stroke="#666666" points="280,-94 119,-94 119,-75 280,-75 280,-94"/>
<text text-anchor="middle" x="199.5" y="-82" font-family="Helvetica,sans-Serif" font-size="10.00">Timings.analyze_timing_data</text>
</a>
</g>
</g>
<!-- Node5&#45;&gt;Node6 -->
<g id="edge5_Node000005_Node000006" class="edge">
<title>Node5&#45;&gt;Node6</title>
<g id="a_edge5_Node000005_Node000006"><a xlink:title=" ">
<path fill="none" stroke="#63b8ff" d="M353.13,-68.52C333.42,-70.59 306.27,-73.43 280.34,-76.14"/>
<polygon fill="#63b8ff" stroke="#63b8ff" points="353.68,-71.98 363.26,-67.46 352.95,-65.02 353.68,-71.98"/>
</a>
</g>
</g>
<!-- Node7 -->
<g id="Node000007" class="node">
<title>Node7</title>
<g id="a_Node000007"><a xlink:href="namespaceTimings.html#ae796959351e16850ac73fbc1380617c9" target="_top" xlink:title=" ">
<polygon fill="white" stroke="#666666" points="83,-75 0,-75 0,-56 83,-56 83,-75"/>
<text text-anchor="middle" x="41.5" y="-63" font-family="Helvetica,sans-Serif" font-size="10.00">Timings.main</text>
</a>
</g>
</g>
<!-- Node5&#45;&gt;Node7 -->
<g id="edge8_Node000005_Node000007" class="edge">
<title>Node5&#45;&gt;Node7</title>
<g id="a_edge8_Node000005_Node000007"><a xlink:title=" ">
<path fill="none" stroke="#63b8ff" d="M352.91,-65.5C292.36,-65.5 152.62,-65.5 83.19,-65.5"/>
<polygon fill="#63b8ff" stroke="#63b8ff" points="353.26,-69 363.26,-65.5 353.26,-62 353.26,-69"/>
</a>
</g>
</g>
<!-- Node6&#45;&gt;Node7 -->
<g id="edge6_Node000006_Node000007" class="edge">
<title>Node6&#45;&gt;Node7</title>
<g id="a_edge6_Node000006_Node000007"><a xlink:title=" ">
<path fill="none" stroke="#63b8ff" d="M109.91,-73.71C100.63,-72.58 91.55,-71.47 83.21,-70.46"/>
<polygon fill="#63b8ff" stroke="#63b8ff" points="109.69,-77.21 120.04,-74.94 110.54,-70.26 109.69,-77.21"/>
</a>
</g>
</g>
<!-- Node7&#45;&gt;Node7 -->
<g id="edge7_Node000007_Node000007" class="edge">
<title>Node7&#45;&gt;Node7</title>
<g id="a_edge7_Node000007_Node000007"><a xlink:title=" ">
<path fill="none" stroke="#63b8ff" d="M70.99,-83.82C69.76,-89.01 59.93,-93 41.5,-93 13.42,-93 5.3,-83.73 17.15,-75.08"/>
<polygon fill="#63b8ff" stroke="#63b8ff" points="73.94,-81.93 65.85,-75.08 67.91,-85.48 73.94,-81.93"/>
</a>
</g>
</g>
<!-- Node8&#45;&gt;Node3 -->
<g id="edge10_Node000008_Node000003" class="edge">
<title>Node8&#45;&gt;Node3</title>
<g id="a_edge10_Node000008_Node000003"><a xlink:title=" ">
<path fill="none" stroke="#63b8ff" d="M423.11,-39.83C442.85,-43.27 466.6,-46.33 485.7,-47.88"/>
<polygon fill="#63b8ff" stroke="#63b8ff" points="423.66,-36.37 413.2,-38 422.4,-43.26 423.66,-36.37"/>
</a>
</g>
</g>
<!-- Node9&#45;&gt;Node3 -->
<g id="edge13_Node000009_Node000003" class="edge">
<title>Node9&#45;&gt;Node3</title>
<g id="a_edge13_Node000009_Node000003"><a xlink:title=" ">
<path fill="none" stroke="#63b8ff" d="M591.93,-22.38C578.22,-27.14 562.94,-32.45 550.2,-36.88"/>
<polygon fill="#63b8ff" stroke="#63b8ff" points="593.28,-25.62 601.57,-19.03 590.98,-19 593.28,-25.62"/>
</a>
</g>
</g>
</g>
</svg>
