<?xml version="1.0" encoding="UTF-8" standalone="no"?>
<!DOCTYPE svg PUBLIC "-//W3C//DTD SVG 1.1//EN"
 "http://www.w3.org/Graphics/SVG/1.1/DTD/svg11.dtd">
<!-- Generated by graphviz version 2.43.0 (0)
 -->
<!-- Title: print_object Pages: 1 -->
<!--zoomable 295 -->
<svg id="main" version="1.1" xmlns="http://www.w3.org/2000/svg" xmlns:xlink="http://www.w3.org/1999/xlink" xml:space="preserve" onload="init(evt)">
<style type="text/css"><![CDATA[
.edge:hover path { stroke: red; }
.edge:hover polygon { stroke: red; fill: red; }
]]></style>
<script type="text/javascript"><![CDATA[
var edges = document.getElementsByTagName('g');
if (edges && edges.length) {
  for (var i=0;i<edges.length;i++) {
    if (edges[i].id.substr(0,4)=='edge') {
      edges[i].setAttribute('class','edge');
    }
  }
}
]]></script>
        <defs>
                <circle id="rim" cx="0" cy="0" r="7"/>
                <circle id="rim2" cx="0" cy="0" r="3.5"/>
                <g id="zoomPlus">
                        <use xlink:href="#rim" fill="#404040">
                                <set attributeName="fill" to="#808080" begin="zoomplus.mouseover" end="zoomplus.mouseout"/>
                        </use>
                        <path d="M-4,0h8M0,-4v8" fill="none" stroke="white" stroke-width="1.5" pointer-events="none"/>
                </g>
                <g id="zoomMin">
                        <use xlink:href="#rim" fill="#404040">
                                <set attributeName="fill" to="#808080" begin="zoomminus.mouseover" end="zoomminus.mouseout"/>
                        </use>
                        <path d="M-4,0h8" fill="none" stroke="white" stroke-width="1.5" pointer-events="none"/>
                </g>
                <g id="dirArrow">
                        <path fill="none" stroke="white" stroke-width="1.5" d="M0,-3.0v7 M-2.5,-0.5L0,-3.0L2.5,-0.5"/>
                </g>
               <g id="resetDef">
                       <use xlink:href="#rim2" fill="#404040">
                               <set attributeName="fill" to="#808080" begin="reset.mouseover" end="reset.mouseout"/>
                       </use>
               </g>
        </defs>

<script type="text/javascript">
var viewWidth = 715;
var viewHeight = 295;
var sectionId = 'dynsection-56';
</script>
<script xlink:href="svgpan.js"/>
<svg id="graph" class="graph">
<g id="viewport">
<title>print_object</title>
<polygon fill="white" stroke="transparent" points="-4,4 -4,-291.24 711,-291.24 711,4 -4,4"/>
<!-- Node1 -->
<g id="node1" class="node">
<title>Node1</title>
<g id="a_node1"><a xlink:title=" ">
<polygon fill="#bfbfbf" stroke="black" points="0,-106.68 0,-125.68 74,-125.68 74,-106.68 0,-106.68"/>
<text text-anchor="middle" x="37" y="-113.68" font-family="Helvetica,sans-Serif" font-size="10.00">print_object</text>
</a>
</g>
</g>
<!-- Node2 -->
<g id="node2" class="node">
<title>Node2</title>
<g id="a_node2"><a xlink:href="cJSON_8c.html#a3faa1600bc8001eaed05f16060668ce6" target="_top" xlink:title=" ">
<polygon fill="white" stroke="black" points="478,-97.68 478,-116.68 528,-116.68 528,-97.68 478,-97.68"/>
<text text-anchor="middle" x="503" y="-104.68" font-family="Helvetica,sans-Serif" font-size="10.00">ensure</text>
</a>
</g>
</g>
<!-- Node1&#45;&gt;Node2 -->
<g id="edge1" class="edge">
<title>Node1&#45;&gt;Node2</title>
<path fill="none" stroke="midnightblue" d="M52.35,-106.6C66.51,-97.49 89.03,-83.93 110,-75.18 205.84,-35.18 232.12,-26.31 335,-12.18 382.11,-5.7 400.35,10.78 442,-12.18 471.2,-28.27 488.16,-65.23 496.2,-88.01"/>
<polygon fill="midnightblue" stroke="midnightblue" points="492.92,-89.22 499.37,-97.63 499.56,-87.03 492.92,-89.22"/>
</g>
<!-- Node5 -->
<g id="node5" class="node">
<title>Node5</title>
<g id="a_node5"><a xlink:href="cJSON_8c.html#af5b4e769356f10d99a7f66697c42c1bb" target="_top" xlink:title=" ">
<polygon fill="white" stroke="black" points="343,-249.68 343,-268.68 434,-268.68 434,-249.68 343,-249.68"/>
<text text-anchor="middle" x="388.5" y="-256.68" font-family="Helvetica,sans-Serif" font-size="10.00">print_string_ptr</text>
</a>
</g>
</g>
<!-- Node1&#45;&gt;Node5 -->
<g id="edge4" class="edge">
<title>Node1&#45;&gt;Node5</title>
<path fill="none" stroke="midnightblue" d="M44.7,-126.06C65.74,-156.1 134.09,-246.23 217,-278.18 262.03,-295.53 318.35,-283.31 353.63,-272"/>
<polygon fill="midnightblue" stroke="midnightblue" points="355.07,-275.2 363.44,-268.7 352.84,-268.57 355.07,-275.2"/>
</g>
<!-- Node6 -->
<g id="node6" class="node">
<title>Node6</title>
<g id="a_node6"><a xlink:href="cJSON_8c.html#a5ba141f183b9abb4b49e38a211299c7e" target="_top" xlink:title=" ">
<polygon fill="white" stroke="black" points="110,-106.68 110,-125.68 181,-125.68 181,-106.68 110,-106.68"/>
<text text-anchor="middle" x="145.5" y="-113.68" font-family="Helvetica,sans-Serif" font-size="10.00">print_value</text>
</a>
</g>
</g>
<!-- Node1&#45;&gt;Node6 -->
<g id="edge6" class="edge">
<title>Node1&#45;&gt;Node6</title>
<path fill="none" stroke="midnightblue" d="M74.06,-109.75C82.29,-109.43 91.15,-109.35 99.7,-109.5"/>
<polygon fill="midnightblue" stroke="midnightblue" points="99.82,-113.01 109.92,-109.81 100.03,-106.01 99.82,-113.01"/>
</g>
<!-- Node8 -->
<g id="node8" class="node">
<title>Node8</title>
<g id="a_node8"><a xlink:href="cJSON_8c.html#af5fb173126786c1e3f90b6df6e2500c5" target="_top" xlink:title=" ">
<polygon fill="white" stroke="black" points="347,-21.68 347,-40.68 430,-40.68 430,-21.68 347,-21.68"/>
<text text-anchor="middle" x="388.5" y="-28.68" font-family="Helvetica,sans-Serif" font-size="10.00">update_offset</text>
</a>
</g>
</g>
<!-- Node1&#45;&gt;Node8 -->
<g id="edge19" class="edge">
<title>Node1&#45;&gt;Node8</title>
<path fill="none" stroke="midnightblue" d="M74.26,-106.59C85.69,-103.57 98.37,-100.23 110,-97.18 157.54,-84.68 169.22,-80.75 217,-69.18 257.07,-59.47 302.66,-49.36 336.61,-42.01"/>
<polygon fill="midnightblue" stroke="midnightblue" points="337.72,-45.35 346.75,-39.82 336.24,-38.51 337.72,-45.35"/>
</g>
<!-- Node3 -->
<g id="node3" class="node">
<title>Node3</title>
<g id="a_node3"><a xlink:href="structinternal__hooks.html#a872a0c28217b451331d24b8e0484b293" target="_top" xlink:title=" ">
<polygon fill="white" stroke="black" points="568.5,-116.68 568.5,-135.68 702.5,-135.68 702.5,-116.68 568.5,-116.68"/>
<text text-anchor="middle" x="635.5" y="-123.68" font-family="Helvetica,sans-Serif" font-size="10.00">internal_hooks::allocate</text>
</a>
</g>
</g>
<!-- Node2&#45;&gt;Node3 -->
<g id="edge2" class="edge">
<title>Node2&#45;&gt;Node3</title>
<path fill="none" stroke="midnightblue" d="M528.24,-110.71C537.16,-112 547.79,-113.55 558.84,-115.16"/>
<polygon fill="midnightblue" stroke="midnightblue" points="558.65,-118.67 569.05,-116.65 559.66,-111.74 558.65,-118.67"/>
</g>
<!-- Node4 -->
<g id="node4" class="node">
<title>Node4</title>
<g id="a_node4"><a xlink:href="structinternal__hooks.html#a5dd48d5c2f2b1cf4f6eec5df6205e15c" target="_top" xlink:title=" ">
<polygon fill="white" stroke="black" points="564,-78.68 564,-97.68 707,-97.68 707,-78.68 564,-78.68"/>
<text text-anchor="middle" x="635.5" y="-85.68" font-family="Helvetica,sans-Serif" font-size="10.00">internal_hooks::reallocate</text>
</a>
</g>
</g>
<!-- Node2&#45;&gt;Node4 -->
<g id="edge3" class="edge">
<title>Node2&#45;&gt;Node4</title>
<path fill="none" stroke="midnightblue" d="M528.24,-103.65C537.16,-102.35 547.79,-100.8 558.84,-99.19"/>
<polygon fill="midnightblue" stroke="midnightblue" points="559.66,-102.61 569.05,-97.7 558.65,-95.68 559.66,-102.61"/>
</g>
<!-- Node5&#45;&gt;Node2 -->
<g id="edge5" class="edge">
<title>Node5&#45;&gt;Node2</title>
<path fill="none" stroke="midnightblue" d="M419.83,-249.63C427.76,-246.05 435.81,-241.31 442,-235.18 473.11,-204.36 490,-154.33 497.38,-126.83"/>
<polygon fill="midnightblue" stroke="midnightblue" points="500.84,-127.41 499.9,-116.85 494.06,-125.69 500.84,-127.41"/>
</g>
<!-- Node6&#45;&gt;Node1 -->
<g id="edge16" class="edge">
<title>Node6&#45;&gt;Node1</title>
<path fill="none" stroke="midnightblue" d="M109.92,-122.54C101.67,-122.89 92.74,-123 84.06,-122.87"/>
<polygon fill="midnightblue" stroke="midnightblue" points="84.15,-119.37 74.06,-122.6 83.96,-126.37 84.15,-119.37"/>
</g>
<!-- Node6&#45;&gt;Node2 -->
<g id="edge7" class="edge">
<title>Node6&#45;&gt;Node2</title>
<path fill="none" stroke="midnightblue" d="M158.49,-125.9C200.04,-158.36 340.93,-257.88 442,-202.18 471.2,-186.08 488.16,-149.13 496.2,-126.34"/>
<polygon fill="midnightblue" stroke="midnightblue" points="499.56,-127.32 499.37,-116.72 492.92,-125.13 499.56,-127.32"/>
</g>
<!-- Node7 -->
<g id="node7" class="node">
<title>Node7</title>
<g id="a_node7"><a xlink:href="cJSON_8c.html#ae84642817f3965a85c7c617663250c16" target="_top" xlink:title=" ">
<polygon fill="white" stroke="black" points="223,-78.68 223,-97.68 293,-97.68 293,-78.68 223,-78.68"/>
<text text-anchor="middle" x="258" y="-85.68" font-family="Helvetica,sans-Serif" font-size="10.00">print_array</text>
</a>
</g>
</g>
<!-- Node6&#45;&gt;Node7 -->
<g id="edge8" class="edge">
<title>Node6&#45;&gt;Node7</title>
<path fill="none" stroke="midnightblue" d="M164.25,-106.56C177.41,-101.84 195.94,-96.64 212.98,-92.71"/>
<polygon fill="midnightblue" stroke="midnightblue" points="213.78,-96.11 222.79,-90.55 212.27,-89.28 213.78,-96.11"/>
</g>
<!-- Node9 -->
<g id="node9" class="node">
<title>Node9</title>
<g id="a_node9"><a xlink:href="cJSON_8c.html#ad93d84de08872da0eaa6624be0e74a68" target="_top" xlink:title=" ">
<polygon fill="white" stroke="black" points="217,-126.68 217,-145.68 299,-145.68 299,-126.68 217,-126.68"/>
<text text-anchor="middle" x="258" y="-133.68" font-family="Helvetica,sans-Serif" font-size="10.00">print_number</text>
</a>
</g>
</g>
<!-- Node6&#45;&gt;Node9 -->
<g id="edge12" class="edge">
<title>Node6&#45;&gt;Node9</title>
<path fill="none" stroke="midnightblue" d="M181.16,-122.45C189.26,-123.91 198.04,-125.51 206.67,-127.07"/>
<polygon fill="midnightblue" stroke="midnightblue" points="206.2,-130.54 216.67,-128.88 207.45,-123.65 206.2,-130.54"/>
</g>
<!-- Node12 -->
<g id="node12" class="node">
<title>Node12</title>
<g id="a_node12"><a xlink:href="cJSON_8c.html#ad087dd738e49b4258f0a3d378a121df6" target="_top" xlink:title=" ">
<polygon fill="white" stroke="black" points="222,-249.68 222,-268.68 294,-268.68 294,-249.68 222,-249.68"/>
<text text-anchor="middle" x="258" y="-256.68" font-family="Helvetica,sans-Serif" font-size="10.00">print_string</text>
</a>
</g>
</g>
<!-- Node6&#45;&gt;Node12 -->
<g id="edge17" class="edge">
<title>Node6&#45;&gt;Node12</title>
<path fill="none" stroke="midnightblue" d="M150.28,-125.88C159.15,-147.65 183.14,-201.12 217,-235.18 220.24,-238.43 224,-241.42 227.9,-244.1"/>
<polygon fill="midnightblue" stroke="midnightblue" points="226.16,-247.14 236.49,-249.47 229.86,-241.2 226.16,-247.14"/>
</g>
<!-- Node7&#45;&gt;Node2 -->
<g id="edge9" class="edge">
<title>Node7&#45;&gt;Node2</title>
<path fill="none" stroke="midnightblue" d="M293.22,-87.06C330.11,-86.33 390.46,-86.53 442,-93.18 450.52,-94.28 459.6,-96.06 468.06,-98"/>
<polygon fill="midnightblue" stroke="midnightblue" points="467.43,-101.45 477.97,-100.4 469.08,-94.65 467.43,-101.45"/>
</g>
<!-- Node7&#45;&gt;Node6 -->
<g id="edge10" class="edge">
<title>Node7&#45;&gt;Node6</title>
<path fill="none" stroke="midnightblue" d="M239.45,-97.71C226.4,-102.42 207.97,-107.6 190.96,-111.54"/>
<polygon fill="midnightblue" stroke="midnightblue" points="190.17,-108.13 181.16,-113.71 191.68,-114.97 190.17,-108.13"/>
</g>
<!-- Node7&#45;&gt;Node8 -->
<g id="edge11" class="edge">
<title>Node7&#45;&gt;Node8</title>
<path fill="none" stroke="midnightblue" d="M280.51,-78.64C301.36,-69.39 333.19,-55.27 356.72,-44.83"/>
<polygon fill="midnightblue" stroke="midnightblue" points="358.2,-48 365.92,-40.75 355.36,-41.6 358.2,-48"/>
</g>
<!-- Node9&#45;&gt;Node2 -->
<g id="edge14" class="edge">
<title>Node9&#45;&gt;Node2</title>
<path fill="none" stroke="midnightblue" d="M299.21,-130.75C310.76,-129.23 323.38,-127.6 335,-126.18 380.87,-120.55 433.89,-114.61 467.67,-110.9"/>
<polygon fill="midnightblue" stroke="midnightblue" points="468.36,-114.35 477.92,-109.78 467.6,-107.39 468.36,-114.35"/>
</g>
<!-- Node10 -->
<g id="node10" class="node">
<title>Node10</title>
<g id="a_node10"><a xlink:href="cJSON_8c.html#aa7a85b63f1830e7e666e1f56872d5d3e" target="_top" xlink:title=" ">
<polygon fill="white" stroke="black" points="339.5,-173.68 339.5,-192.68 437.5,-192.68 437.5,-173.68 339.5,-173.68"/>
<text text-anchor="middle" x="388.5" y="-180.68" font-family="Helvetica,sans-Serif" font-size="10.00">compare_double</text>
</a>
</g>
</g>
<!-- Node9&#45;&gt;Node10 -->
<g id="edge13" class="edge">
<title>Node9&#45;&gt;Node10</title>
<path fill="none" stroke="midnightblue" d="M285.02,-145.8C299.69,-151.22 318.36,-158.1 335,-164.18 340.29,-166.11 345.89,-168.14 351.38,-170.13"/>
<polygon fill="midnightblue" stroke="midnightblue" points="350.46,-173.52 361.05,-173.64 352.84,-166.94 350.46,-173.52"/>
</g>
<!-- Node11 -->
<g id="node11" class="node">
<title>Node11</title>
<g id="a_node11"><a xlink:href="cJSON_8c.html#ab25412ae56c8c594831918169bea100d" target="_top" xlink:title=" ">
<polygon fill="white" stroke="black" points="335,-135.68 335,-154.68 442,-154.68 442,-135.68 335,-135.68"/>
<text text-anchor="middle" x="388.5" y="-142.68" font-family="Helvetica,sans-Serif" font-size="10.00">get_decimal_point</text>
</a>
</g>
</g>
<!-- Node9&#45;&gt;Node11 -->
<g id="edge15" class="edge">
<title>Node9&#45;&gt;Node11</title>
<path fill="none" stroke="midnightblue" d="M299.31,-139C307.35,-139.56 315.97,-140.17 324.57,-140.77"/>
<polygon fill="midnightblue" stroke="midnightblue" points="324.38,-144.26 334.6,-141.47 324.87,-137.28 324.38,-144.26"/>
</g>
<!-- Node12&#45;&gt;Node5 -->
<g id="edge18" class="edge">
<title>Node12&#45;&gt;Node5</title>
<path fill="none" stroke="midnightblue" d="M294.11,-259.18C305.96,-259.18 319.48,-259.18 332.48,-259.18"/>
<polygon fill="midnightblue" stroke="midnightblue" points="332.76,-262.68 342.76,-259.18 332.76,-255.68 332.76,-262.68"/>
</g>
</g>
</svg>
        <g id="navigator" transform="translate(0 0)" fill="#404254">
                <rect fill="#f2f5e9" fill-opacity="0.5" stroke="#606060" stroke-width=".5" x="0" y="0" width="60" height="60"/>
                <use id="zoomplus" xlink:href="#zoomPlus" x="17" y="9" onmousedown="handleZoom(evt,'in')"/>
                <use id="zoomminus" xlink:href="#zoomMin" x="42" y="9" onmousedown="handleZoom(evt,'out')"/>
                <use id="reset" xlink:href="#resetDef" x="30" y="36" onmousedown="handleReset()"/>
                <g id="arrowUp" xlink:href="#dirArrow" transform="translate(30 24)" onmousedown="handlePan(0,-1)">
                  <use xlink:href="#rim" fill="#404040">
                        <set attributeName="fill" to="#808080" begin="arrowUp.mouseover" end="arrowUp.mouseout"/>
                  </use>
                  <path fill="none" stroke="white" stroke-width="1.5" d="M0,-3.0v7 M-2.5,-0.5L0,-3.0L2.5,-0.5"/>
                </g>
                <g id="arrowRight" xlink:href="#dirArrow" transform="rotate(90) translate(36 -43)" onmousedown="handlePan(1,0)">
                  <use xlink:href="#rim" fill="#404040">
                        <set attributeName="fill" to="#808080" begin="arrowRight.mouseover" end="arrowRight.mouseout"/>
                  </use>
                  <path fill="none" stroke="white" stroke-width="1.5" d="M0,-3.0v7 M-2.5,-0.5L0,-3.0L2.5,-0.5"/>
                </g>
                <g id="arrowDown" xlink:href="#dirArrow" transform="rotate(180) translate(-30 -48)" onmousedown="handlePan(0,1)">
                  <use xlink:href="#rim" fill="#404040">
                        <set attributeName="fill" to="#808080" begin="arrowDown.mouseover" end="arrowDown.mouseout"/>
                  </use>
                  <path fill="none" stroke="white" stroke-width="1.5" d="M0,-3.0v7 M-2.5,-0.5L0,-3.0L2.5,-0.5"/>
                </g>
                <g id="arrowLeft" xlink:href="#dirArrow" transform="rotate(270) translate(-36 17)" onmousedown="handlePan(-1,0)">
                  <use xlink:href="#rim" fill="#404040">
                        <set attributeName="fill" to="#808080" begin="arrowLeft.mouseover" end="arrowLeft.mouseout"/>
                  </use>
                  <path fill="none" stroke="white" stroke-width="1.5" d="M0,-3.0v7 M-2.5,-0.5L0,-3.0L2.5,-0.5"/>
                </g>
        </g>
        <svg viewBox="0 0 15 15" width="100%" height="30px" preserveAspectRatio="xMaxYMin meet">
         <g id="arrow_out" transform="scale(0.3 0.3)">
          <a xlink:href="cJSON_8c_a3d742f5c68799bca291432a9cd72f8dd_cgraph_org.svg" target="_base">
           <rect id="button" ry="5" rx="5" y="6" x="6" height="38" width="38"
                fill="#f2f5e9" fill-opacity="0.5" stroke="#606060" stroke-width="1.0"/>
           <path id="arrow"
             d="M 11.500037,31.436501 C 11.940474,20.09759 22.043105,11.32322 32.158766,21.979434 L 37.068811,17.246167 C 37.068811,17.246167 37.088388,32 37.088388,32 L 22.160133,31.978069 C 22.160133,31.978069 26.997745,27.140456 26.997745,27.140456 C 18.528582,18.264221 13.291696,25.230495 11.500037,31.436501 z"
             style="fill:#404040;"/>
          </a>
         </g>
        </svg>
</svg>
