<?xml version="1.0" encoding="UTF-8" standalone="no"?>
<!DOCTYPE svg PUBLIC "-//W3C//DTD SVG 1.1//EN"
 "http://www.w3.org/Graphics/SVG/1.1/DTD/svg11.dtd">
<!-- Generated by graphviz version 2.43.0 (0)
 -->
<!-- Title: parse_string Pages: 1 -->
<svg width="785pt" height="85pt"
 viewBox="0.00 0.00 785.00 85.00" xmlns="http://www.w3.org/2000/svg" xmlns:xlink="http://www.w3.org/1999/xlink">
<g id="graph0" class="graph" transform="scale(1 1) rotate(0) translate(4 81)">
<title>parse_string</title>
<polygon fill="white" stroke="transparent" points="-4,4 -4,-81 781,-81 781,4 -4,4"/>
<!-- Node1 -->
<g id="node1" class="node">
<title>Node1</title>
<g id="a_node1"><a xlink:title=" ">
<polygon fill="#bfbfbf" stroke="black" points="700,-0.5 700,-19.5 777,-19.5 777,-0.5 700,-0.5"/>
<text text-anchor="middle" x="738.5" y="-7.5" font-family="Helvetica,sans-Serif" font-size="10.00">parse_string</text>
</a>
</g>
</g>
<!-- Node2 -->
<g id="node2" class="node">
<title>Node2</title>
<g id="a_node2"><a xlink:href="cJSON_8c.html#a1472ac5d1becd7d9a5e558b4c053b06a" target="_top" xlink:title=" ">
<polygon fill="white" stroke="black" points="585,-19.5 585,-38.5 664,-38.5 664,-19.5 585,-19.5"/>
<text text-anchor="middle" x="624.5" y="-26.5" font-family="Helvetica,sans-Serif" font-size="10.00">parse_object</text>
</a>
</g>
</g>
<!-- Node1&#45;&gt;Node2 -->
<g id="edge1" class="edge">
<title>Node1&#45;&gt;Node2</title>
<path fill="none" stroke="midnightblue" d="M690.02,-18.05C681.46,-19.51 672.62,-21.01 664.35,-22.41"/>
<polygon fill="midnightblue" stroke="midnightblue" points="690.62,-21.5 699.89,-16.38 689.45,-14.6 690.62,-21.5"/>
</g>
<!-- Node3 -->
<g id="node3" class="node">
<title>Node3</title>
<g id="a_node3"><a xlink:href="cJSON_8c.html#afd5c0b7089e4de2fc9b2af599d4b596f" target="_top" xlink:title=" ">
<polygon fill="white" stroke="black" points="473,-19.5 473,-38.5 549,-38.5 549,-19.5 473,-19.5"/>
<text text-anchor="middle" x="511" y="-26.5" font-family="Helvetica,sans-Serif" font-size="10.00">parse_value</text>
</a>
</g>
</g>
<!-- Node1&#45;&gt;Node3 -->
<g id="edge9" class="edge">
<title>Node1&#45;&gt;Node3</title>
<path fill="none" stroke="midnightblue" d="M689.49,-6.89C659.36,-5.7 619.77,-5.55 585,-10 570.45,-11.86 554.66,-15.73 541.5,-19.5"/>
<polygon fill="midnightblue" stroke="midnightblue" points="689.58,-10.39 699.73,-7.34 689.89,-3.4 689.58,-10.39"/>
</g>
<!-- Node2&#45;&gt;Node3 -->
<g id="edge2" class="edge">
<title>Node2&#45;&gt;Node3</title>
<path fill="none" stroke="midnightblue" d="M574.56,-22.29C566.02,-22.18 557.27,-22.28 549.11,-22.6"/>
<polygon fill="midnightblue" stroke="midnightblue" points="574.74,-25.8 584.82,-22.54 574.9,-18.8 574.74,-25.8"/>
</g>
<!-- Node3&#45;&gt;Node2 -->
<g id="edge8" class="edge">
<title>Node3&#45;&gt;Node2</title>
<path fill="none" stroke="midnightblue" d="M559.3,-35.68C567.81,-35.82 576.59,-35.75 584.82,-35.46"/>
<polygon fill="midnightblue" stroke="midnightblue" points="559.21,-32.18 549.11,-35.4 559.01,-39.17 559.21,-32.18"/>
</g>
<!-- Node4 -->
<g id="node4" class="node">
<title>Node4</title>
<g id="a_node4"><a xlink:href="cJSON_8c.html#a3a24e49a04490273160cdc1f30f10d22" target="_top" xlink:title=" ">
<polygon fill="white" stroke="black" points="282,-57.5 282,-76.5 437,-76.5 437,-57.5 282,-57.5"/>
<text text-anchor="middle" x="359.5" y="-64.5" font-family="Helvetica,sans-Serif" font-size="10.00">cJSON_ParseWithLengthOpts</text>
</a>
</g>
</g>
<!-- Node3&#45;&gt;Node4 -->
<g id="edge3" class="edge">
<title>Node3&#45;&gt;Node4</title>
<path fill="none" stroke="midnightblue" d="M463.79,-41.11C454.91,-43.42 445.67,-45.8 437,-48 424.8,-51.1 411.49,-54.43 399.44,-57.42"/>
<polygon fill="midnightblue" stroke="midnightblue" points="464.83,-44.46 473.63,-38.55 463.07,-37.68 464.83,-44.46"/>
</g>
<!-- Node7 -->
<g id="node7" class="node">
<title>Node7</title>
<g id="a_node7"><a xlink:href="cJSON_8c.html#a367cc7ac5a592211d9f18dc02dd23069" target="_top" xlink:title=" ">
<polygon fill="white" stroke="black" points="322.5,-19.5 322.5,-38.5 396.5,-38.5 396.5,-19.5 322.5,-19.5"/>
<text text-anchor="middle" x="359.5" y="-26.5" font-family="Helvetica,sans-Serif" font-size="10.00">parse_array</text>
</a>
</g>
</g>
<!-- Node3&#45;&gt;Node7 -->
<g id="edge6" class="edge">
<title>Node3&#45;&gt;Node7</title>
<path fill="none" stroke="midnightblue" d="M462.5,-22.67C441.15,-21.99 416.38,-22.14 396.59,-23.13"/>
<polygon fill="midnightblue" stroke="midnightblue" points="462.53,-26.17 472.66,-23.07 462.81,-19.17 462.53,-26.17"/>
</g>
<!-- Node5 -->
<g id="node5" class="node">
<title>Node5</title>
<g id="a_node5"><a xlink:href="cJSON_8c.html#adfabd5d09c2cf0a2f051c47650db6e80" target="_top" xlink:title=" ">
<polygon fill="white" stroke="black" points="124,-57.5 124,-76.5 246,-76.5 246,-57.5 124,-57.5"/>
<text text-anchor="middle" x="185" y="-64.5" font-family="Helvetica,sans-Serif" font-size="10.00">cJSON_ParseWithOpts</text>
</a>
</g>
</g>
<!-- Node4&#45;&gt;Node5 -->
<g id="edge4" class="edge">
<title>Node4&#45;&gt;Node5</title>
<path fill="none" stroke="midnightblue" d="M271.7,-67C263.05,-67 254.41,-67 246.12,-67"/>
<polygon fill="midnightblue" stroke="midnightblue" points="271.83,-70.5 281.83,-67 271.83,-63.5 271.83,-70.5"/>
</g>
<!-- Node6 -->
<g id="node6" class="node">
<title>Node6</title>
<g id="a_node6"><a xlink:href="cJSON_8c.html#aa2ca313f61c789be20f8a69b651043c3" target="_top" xlink:title=" ">
<polygon fill="white" stroke="black" points="0,-57.5 0,-76.5 88,-76.5 88,-57.5 0,-57.5"/>
<text text-anchor="middle" x="44" y="-64.5" font-family="Helvetica,sans-Serif" font-size="10.00">CJSON_PUBLIC</text>
</a>
</g>
</g>
<!-- Node5&#45;&gt;Node6 -->
<g id="edge5" class="edge">
<title>Node5&#45;&gt;Node6</title>
<path fill="none" stroke="midnightblue" d="M113.63,-67C104.91,-67 96.21,-67 88.08,-67"/>
<polygon fill="midnightblue" stroke="midnightblue" points="113.84,-70.5 123.84,-67 113.84,-63.5 113.84,-70.5"/>
</g>
<!-- Node7&#45;&gt;Node3 -->
<g id="edge7" class="edge">
<title>Node7&#45;&gt;Node3</title>
<path fill="none" stroke="midnightblue" d="M406.67,-35.29C427.86,-36 452.67,-35.89 472.66,-34.93"/>
<polygon fill="midnightblue" stroke="midnightblue" points="406.73,-31.79 396.59,-34.87 406.44,-38.78 406.73,-31.79"/>
</g>
</g>
</svg>
