<?xml version="1.0" encoding="UTF-8" standalone="no"?>
<!DOCTYPE svg PUBLIC "-//W3C//DTD SVG 1.1//EN"
 "http://www.w3.org/Graphics/SVG/1.1/DTD/svg11.dtd">
<!-- Generated by graphviz version 2.43.0 (0)
 -->
<!-- Title: cJSON_ParseWithOpts Pages: 1 -->
<svg width="1014pt" height="239pt"
 viewBox="0.00 0.00 1014.00 238.96" xmlns="http://www.w3.org/2000/svg" xmlns:xlink="http://www.w3.org/1999/xlink">
<g id="graph0" class="graph" transform="scale(1 1) rotate(0) translate(4 234.96)">
<title>cJSON_ParseWithOpts</title>
<polygon fill="white" stroke="transparent" points="-4,4 -4,-234.96 1010,-234.96 1010,4 -4,4"/>
<!-- Node1 -->
<g id="node1" class="node">
<title>Node1</title>
<g id="a_node1"><a xlink:title=" ">
<polygon fill="#bfbfbf" stroke="black" points="0,-76.5 0,-95.5 122,-95.5 122,-76.5 0,-76.5"/>
<text text-anchor="middle" x="61" y="-83.5" font-family="Helvetica,sans-Serif" font-size="10.00">cJSON_ParseWithOpts</text>
</a>
</g>
</g>
<!-- Node2 -->
<g id="node2" class="node">
<title>Node2</title>
<g id="a_node2"><a xlink:href="cJSON_8c.html#a3a24e49a04490273160cdc1f30f10d22" target="_top" xlink:title=" ">
<polygon fill="white" stroke="black" points="158,-76.5 158,-95.5 313,-95.5 313,-76.5 158,-76.5"/>
<text text-anchor="middle" x="235.5" y="-83.5" font-family="Helvetica,sans-Serif" font-size="10.00">cJSON_ParseWithLengthOpts</text>
</a>
</g>
</g>
<!-- Node1&#45;&gt;Node2 -->
<g id="edge1" class="edge">
<title>Node1&#45;&gt;Node2</title>
<path fill="none" stroke="midnightblue" d="M122.33,-86C130.57,-86 139.16,-86 147.75,-86"/>
<polygon fill="midnightblue" stroke="midnightblue" points="147.83,-89.5 157.83,-86 147.83,-82.5 147.83,-89.5"/>
</g>
<!-- Node3 -->
<g id="node3" class="node">
<title>Node3</title>
<g id="a_node3"><a xlink:href="cJSON_8c.html#a029a2c33fa2744a7cc5cf061f28d2cfc" target="_top" xlink:title=" ">
<polygon fill="white" stroke="black" points="596,-114.5 596,-133.5 727,-133.5 727,-114.5 596,-114.5"/>
<text text-anchor="middle" x="661.5" y="-121.5" font-family="Helvetica,sans-Serif" font-size="10.00">buffer_skip_whitespace</text>
</a>
</g>
</g>
<!-- Node2&#45;&gt;Node3 -->
<g id="edge2" class="edge">
<title>Node2&#45;&gt;Node3</title>
<path fill="none" stroke="midnightblue" d="M248.39,-95.66C281.55,-121.89 378.89,-194.18 474,-219 510.98,-228.65 527.7,-239.44 560,-219 591.58,-199.01 567.59,-167.29 596,-143 597.98,-141.31 600.1,-139.77 602.33,-138.36"/>
<polygon fill="midnightblue" stroke="midnightblue" points="604.15,-141.36 611.36,-133.59 600.89,-135.17 604.15,-141.36"/>
</g>
<!-- Node4 -->
<g id="node4" class="node">
<title>Node4</title>
<g id="a_node4"><a xlink:href="cJSON_8c.html#a8f447c625af025c35d0ec59032ad6473" target="_top" xlink:title=" ">
<polygon fill="white" stroke="black" points="611,-76.5 611,-95.5 712,-95.5 712,-76.5 611,-76.5"/>
<text text-anchor="middle" x="661.5" y="-83.5" font-family="Helvetica,sans-Serif" font-size="10.00">cJSON_New_Item</text>
</a>
</g>
</g>
<!-- Node2&#45;&gt;Node4 -->
<g id="edge3" class="edge">
<title>Node2&#45;&gt;Node4</title>
<path fill="none" stroke="midnightblue" d="M300.74,-76.48C366.09,-68.15 470.24,-58.59 560,-67 576.24,-68.52 593.77,-71.4 609.57,-74.46"/>
<polygon fill="midnightblue" stroke="midnightblue" points="609.18,-77.95 619.67,-76.49 610.56,-71.09 609.18,-77.95"/>
</g>
<!-- Node6 -->
<g id="node6" class="node">
<title>Node6</title>
<g id="a_node6"><a xlink:href="cJSON_8c.html#afd5c0b7089e4de2fc9b2af599d4b596f" target="_top" xlink:title=" ">
<polygon fill="white" stroke="black" points="355.5,-114.5 355.5,-133.5 431.5,-133.5 431.5,-114.5 355.5,-114.5"/>
<text text-anchor="middle" x="393.5" y="-121.5" font-family="Helvetica,sans-Serif" font-size="10.00">parse_value</text>
</a>
</g>
</g>
<!-- Node2&#45;&gt;Node6 -->
<g id="edge5" class="edge">
<title>Node2&#45;&gt;Node6</title>
<path fill="none" stroke="midnightblue" d="M275.87,-95.59C297,-100.74 323.2,-107.12 345.4,-112.53"/>
<polygon fill="midnightblue" stroke="midnightblue" points="344.75,-115.97 355.3,-114.94 346.41,-109.17 344.75,-115.97"/>
</g>
<!-- Node14 -->
<g id="node14" class="node">
<title>Node14</title>
<g id="a_node14"><a xlink:href="cJSON_8c.html#a13b2d9f17c3b80a8878405f2782cd916" target="_top" xlink:title=" ">
<polygon fill="white" stroke="black" points="349,-0.5 349,-19.5 438,-19.5 438,-0.5 349,-0.5"/>
<text text-anchor="middle" x="393.5" y="-7.5" font-family="Helvetica,sans-Serif" font-size="10.00">skip_utf8_bom</text>
</a>
</g>
</g>
<!-- Node2&#45;&gt;Node14 -->
<g id="edge21" class="edge">
<title>Node2&#45;&gt;Node14</title>
<path fill="none" stroke="midnightblue" d="M256.26,-76.37C283.45,-63.13 332.59,-39.19 363.83,-23.97"/>
<polygon fill="midnightblue" stroke="midnightblue" points="365.45,-27.07 372.9,-19.55 362.38,-20.78 365.45,-27.07"/>
</g>
<!-- Node5 -->
<g id="node5" class="node">
<title>Node5</title>
<g id="a_node5"><a xlink:href="structinternal__hooks.html#a872a0c28217b451331d24b8e0484b293" target="_top" xlink:title=" ">
<polygon fill="white" stroke="black" points="763,-95.5 763,-114.5 897,-114.5 897,-95.5 763,-95.5"/>
<text text-anchor="middle" x="830" y="-102.5" font-family="Helvetica,sans-Serif" font-size="10.00">internal_hooks::allocate</text>
</a>
</g>
</g>
<!-- Node4&#45;&gt;Node5 -->
<g id="edge4" class="edge">
<title>Node4&#45;&gt;Node5</title>
<path fill="none" stroke="midnightblue" d="M712,-91.65C724.81,-93.11 738.9,-94.72 752.72,-96.3"/>
<polygon fill="midnightblue" stroke="midnightblue" points="752.39,-99.78 762.73,-97.44 753.19,-92.83 752.39,-99.78"/>
</g>
<!-- Node7 -->
<g id="node7" class="node">
<title>Node7</title>
<g id="a_node7"><a xlink:href="cJSON_8c.html#a367cc7ac5a592211d9f18dc02dd23069" target="_top" xlink:title=" ">
<polygon fill="white" stroke="black" points="480,-76.5 480,-95.5 554,-95.5 554,-76.5 480,-76.5"/>
<text text-anchor="middle" x="517" y="-83.5" font-family="Helvetica,sans-Serif" font-size="10.00">parse_array</text>
</a>
</g>
</g>
<!-- Node6&#45;&gt;Node7 -->
<g id="edge6" class="edge">
<title>Node6&#45;&gt;Node7</title>
<path fill="none" stroke="midnightblue" d="M410.38,-114.3C425.54,-107.81 449.13,-99.82 470.16,-93.77"/>
<polygon fill="midnightblue" stroke="midnightblue" points="471.23,-97.11 479.92,-91.05 469.35,-90.36 471.23,-97.11"/>
</g>
<!-- Node8 -->
<g id="node8" class="node">
<title>Node8</title>
<g id="a_node8"><a xlink:href="cJSON_8c.html#a699e1cebda71c2846a9a10b29b4dc407" target="_top" xlink:title=" ">
<polygon fill="white" stroke="black" points="474,-190.5 474,-209.5 560,-209.5 560,-190.5 474,-190.5"/>
<text text-anchor="middle" x="517" y="-197.5" font-family="Helvetica,sans-Serif" font-size="10.00">parse_number</text>
</a>
</g>
</g>
<!-- Node6&#45;&gt;Node8 -->
<g id="edge10" class="edge">
<title>Node6&#45;&gt;Node8</title>
<path fill="none" stroke="midnightblue" d="M408.7,-133.66C424.47,-144.3 450.79,-161.8 474,-176 479.01,-179.07 484.43,-182.25 489.64,-185.26"/>
<polygon fill="midnightblue" stroke="midnightblue" points="488.28,-188.51 498.7,-190.42 491.74,-182.43 488.28,-188.51"/>
</g>
<!-- Node10 -->
<g id="node10" class="node">
<title>Node10</title>
<g id="a_node10"><a xlink:href="cJSON_8c.html#a1472ac5d1becd7d9a5e558b4c053b06a" target="_top" xlink:title=" ">
<polygon fill="white" stroke="black" points="477.5,-114.5 477.5,-133.5 556.5,-133.5 556.5,-114.5 477.5,-114.5"/>
<text text-anchor="middle" x="517" y="-121.5" font-family="Helvetica,sans-Serif" font-size="10.00">parse_object</text>
</a>
</g>
</g>
<!-- Node6&#45;&gt;Node10 -->
<g id="edge12" class="edge">
<title>Node6&#45;&gt;Node10</title>
<path fill="none" stroke="midnightblue" d="M431.61,-117.73C442.84,-117.25 455.34,-117.13 467.21,-117.37"/>
<polygon fill="midnightblue" stroke="midnightblue" points="467.33,-120.87 477.43,-117.67 467.54,-113.88 467.33,-120.87"/>
</g>
<!-- Node11 -->
<g id="node11" class="node">
<title>Node11</title>
<g id="a_node11"><a xlink:href="cJSON_8c.html#adf47b520af96d1bbefa2390016fbdb51" target="_top" xlink:title=" ">
<polygon fill="white" stroke="black" points="623,-152.5 623,-171.5 700,-171.5 700,-152.5 623,-152.5"/>
<text text-anchor="middle" x="661.5" y="-159.5" font-family="Helvetica,sans-Serif" font-size="10.00">parse_string</text>
</a>
</g>
</g>
<!-- Node6&#45;&gt;Node11 -->
<g id="edge20" class="edge">
<title>Node6&#45;&gt;Node11</title>
<path fill="none" stroke="midnightblue" d="M429.91,-133.53C443.6,-136.93 459.45,-140.53 474,-143 520.78,-150.94 574.77,-156 612.58,-158.88"/>
<polygon fill="midnightblue" stroke="midnightblue" points="612.56,-162.39 622.79,-159.64 613.08,-155.41 612.56,-162.39"/>
</g>
<!-- Node7&#45;&gt;Node3 -->
<g id="edge7" class="edge">
<title>Node7&#45;&gt;Node3</title>
<path fill="none" stroke="midnightblue" d="M553.96,-95.59C572.44,-100.52 595.16,-106.57 614.86,-111.83"/>
<polygon fill="midnightblue" stroke="midnightblue" points="613.99,-115.22 624.55,-114.41 615.79,-108.46 613.99,-115.22"/>
</g>
<!-- Node7&#45;&gt;Node4 -->
<g id="edge8" class="edge">
<title>Node7&#45;&gt;Node4</title>
<path fill="none" stroke="midnightblue" d="M554.33,-86C568.4,-86 584.88,-86 600.61,-86"/>
<polygon fill="midnightblue" stroke="midnightblue" points="600.8,-89.5 610.8,-86 600.8,-82.5 600.8,-89.5"/>
</g>
<!-- Node7&#45;&gt;Node6 -->
<g id="edge9" class="edge">
<title>Node7&#45;&gt;Node6</title>
<path fill="none" stroke="midnightblue" d="M500.32,-95.61C485.4,-102.02 462.2,-109.9 441.32,-115.95"/>
<polygon fill="midnightblue" stroke="midnightblue" points="440.3,-112.6 431.61,-118.67 442.19,-119.34 440.3,-112.6"/>
</g>
<!-- Node9 -->
<g id="node9" class="node">
<title>Node9</title>
<g id="a_node9"><a xlink:href="cJSON_8c.html#ab25412ae56c8c594831918169bea100d" target="_top" xlink:title=" ">
<polygon fill="white" stroke="black" points="608,-190.5 608,-209.5 715,-209.5 715,-190.5 608,-190.5"/>
<text text-anchor="middle" x="661.5" y="-197.5" font-family="Helvetica,sans-Serif" font-size="10.00">get_decimal_point</text>
</a>
</g>
</g>
<!-- Node8&#45;&gt;Node9 -->
<g id="edge11" class="edge">
<title>Node8&#45;&gt;Node9</title>
<path fill="none" stroke="midnightblue" d="M560.37,-200C572.15,-200 585.2,-200 597.88,-200"/>
<polygon fill="midnightblue" stroke="midnightblue" points="597.94,-203.5 607.94,-200 597.94,-196.5 597.94,-203.5"/>
</g>
<!-- Node10&#45;&gt;Node3 -->
<g id="edge13" class="edge">
<title>Node10&#45;&gt;Node3</title>
<path fill="none" stroke="midnightblue" d="M556.56,-124C565.65,-124 575.64,-124 585.73,-124"/>
<polygon fill="midnightblue" stroke="midnightblue" points="585.82,-127.5 595.82,-124 585.82,-120.5 585.82,-127.5"/>
</g>
<!-- Node10&#45;&gt;Node4 -->
<g id="edge14" class="edge">
<title>Node10&#45;&gt;Node4</title>
<path fill="none" stroke="midnightblue" d="M553.96,-114.41C572.44,-109.48 595.16,-103.43 614.86,-98.17"/>
<polygon fill="midnightblue" stroke="midnightblue" points="615.79,-101.54 624.55,-95.59 613.99,-94.78 615.79,-101.54"/>
</g>
<!-- Node10&#45;&gt;Node6 -->
<g id="edge19" class="edge">
<title>Node10&#45;&gt;Node6</title>
<path fill="none" stroke="midnightblue" d="M477.43,-130.33C466.1,-130.78 453.57,-130.87 441.76,-130.6"/>
<polygon fill="midnightblue" stroke="midnightblue" points="441.72,-127.1 431.61,-130.27 441.5,-134.09 441.72,-127.1"/>
</g>
<!-- Node10&#45;&gt;Node11 -->
<g id="edge15" class="edge">
<title>Node10&#45;&gt;Node11</title>
<path fill="none" stroke="midnightblue" d="M553.96,-133.59C572.44,-138.52 595.16,-144.57 614.86,-149.83"/>
<polygon fill="midnightblue" stroke="midnightblue" points="613.99,-153.22 624.55,-152.41 615.79,-146.46 613.99,-153.22"/>
</g>
<!-- Node11&#45;&gt;Node5 -->
<g id="edge16" class="edge">
<title>Node11&#45;&gt;Node5</title>
<path fill="none" stroke="midnightblue" d="M696.45,-152.48C706.34,-149.58 717.14,-146.28 727,-143 750.01,-135.34 775.58,-125.81 795.36,-118.21"/>
<polygon fill="midnightblue" stroke="midnightblue" points="796.79,-121.41 804.85,-114.54 794.26,-114.88 796.79,-121.41"/>
</g>
<!-- Node12 -->
<g id="node12" class="node">
<title>Node12</title>
<g id="a_node12"><a xlink:href="cJSON_8c.html#a0e2851b1b595b3b430fd186e7deaf987" target="_top" xlink:title=" ">
<polygon fill="white" stroke="black" points="772,-152.5 772,-171.5 888,-171.5 888,-152.5 772,-152.5"/>
<text text-anchor="middle" x="830" y="-159.5" font-family="Helvetica,sans-Serif" font-size="10.00">utf16_literal_to_utf8</text>
</a>
</g>
</g>
<!-- Node11&#45;&gt;Node12 -->
<g id="edge17" class="edge">
<title>Node11&#45;&gt;Node12</title>
<path fill="none" stroke="midnightblue" d="M700.28,-162C718.42,-162 740.72,-162 761.62,-162"/>
<polygon fill="midnightblue" stroke="midnightblue" points="761.75,-165.5 771.75,-162 761.75,-158.5 761.75,-165.5"/>
</g>
<!-- Node13 -->
<g id="node13" class="node">
<title>Node13</title>
<g id="a_node13"><a xlink:href="cJSON_8c.html#a1aa736fdc6ba20c7d46622d20766e916" target="_top" xlink:title=" ">
<polygon fill="white" stroke="black" points="933,-152.5 933,-171.5 1006,-171.5 1006,-152.5 933,-152.5"/>
<text text-anchor="middle" x="969.5" y="-159.5" font-family="Helvetica,sans-Serif" font-size="10.00">parse_hex4</text>
</a>
</g>
</g>
<!-- Node12&#45;&gt;Node13 -->
<g id="edge18" class="edge">
<title>Node12&#45;&gt;Node13</title>
<path fill="none" stroke="midnightblue" d="M888.12,-162C899.64,-162 911.6,-162 922.68,-162"/>
<polygon fill="midnightblue" stroke="midnightblue" points="922.97,-165.5 932.97,-162 922.97,-158.5 922.97,-165.5"/>
</g>
</g>
</svg>
