<?xml version="1.0" encoding="UTF-8" standalone="no"?>
<!DOCTYPE svg PUBLIC "-//W3C//DTD SVG 1.1//EN"
 "http://www.w3.org/Graphics/SVG/1.1/DTD/svg11.dtd">
<!-- Generated by graphviz version 2.43.0 (0)
 -->
<!-- Title: cJSON_AddItemReferenceToObject Pages: 1 -->
<svg width="623pt" height="142pt"
 viewBox="0.00 0.00 623.00 142.00" xmlns="http://www.w3.org/2000/svg" xmlns:xlink="http://www.w3.org/1999/xlink">
<g id="graph0" class="graph" transform="scale(1 1) rotate(0) translate(4 138)">
<title>cJSON_AddItemReferenceToObject</title>
<polygon fill="white" stroke="transparent" points="-4,4 -4,-138 619,-138 619,4 -4,4"/>
<!-- Node1 -->
<g id="node1" class="node">
<title>Node1</title>
<g id="a_node1"><a xlink:title=" ">
<polygon fill="#bfbfbf" stroke="black" points="0,-33 0,-63 152,-63 152,-33 0,-33"/>
<text text-anchor="start" x="8" y="-51" font-family="Helvetica,sans-Serif" font-size="10.00">cJSON_AddItemReferenceTo</text>
<text text-anchor="middle" x="76" y="-40" font-family="Helvetica,sans-Serif" font-size="10.00">Object</text>
</a>
</g>
</g>
<!-- Node2 -->
<g id="node2" class="node">
<title>Node2</title>
<g id="a_node2"><a xlink:href="cJSON_8c.html#acc48bef0e1b495898d9489e577b91d5c" target="_top" xlink:title=" ">
<polygon fill="white" stroke="black" points="188,-66.5 188,-85.5 301,-85.5 301,-66.5 188,-66.5"/>
<text text-anchor="middle" x="244.5" y="-73.5" font-family="Helvetica,sans-Serif" font-size="10.00">add_item_to_object</text>
</a>
</g>
</g>
<!-- Node1&#45;&gt;Node2 -->
<g id="edge1" class="edge">
<title>Node1&#45;&gt;Node2</title>
<path fill="none" stroke="midnightblue" d="M152.46,-60.69C160.9,-62.11 169.45,-63.55 177.75,-64.94"/>
<polygon fill="midnightblue" stroke="midnightblue" points="177.3,-68.42 187.74,-66.62 178.46,-61.51 177.3,-68.42"/>
</g>
<!-- Node8 -->
<g id="node8" class="node">
<title>Node8</title>
<g id="a_node8"><a xlink:href="cJSON_8c.html#ac06bbc307a6f39fe58aafbcb82fbf4b3" target="_top" xlink:title=" ">
<polygon fill="white" stroke="black" points="195,-19.5 195,-38.5 294,-38.5 294,-19.5 195,-19.5"/>
<text text-anchor="middle" x="244.5" y="-26.5" font-family="Helvetica,sans-Serif" font-size="10.00">create_reference</text>
</a>
</g>
</g>
<!-- Node1&#45;&gt;Node8 -->
<g id="edge7" class="edge">
<title>Node1&#45;&gt;Node8</title>
<path fill="none" stroke="midnightblue" d="M152.46,-39.39C163.17,-38.17 174.05,-36.92 184.4,-35.74"/>
<polygon fill="midnightblue" stroke="midnightblue" points="184.99,-39.2 194.53,-34.59 184.2,-32.24 184.99,-39.2"/>
</g>
<!-- Node3 -->
<g id="node3" class="node">
<title>Node3</title>
<g id="a_node3"><a xlink:href="cJSON_8c.html#a816d10c908af6be844a1f8277363e2f1" target="_top" xlink:title=" ">
<polygon fill="white" stroke="black" points="337,-114.5 337,-133.5 445,-133.5 445,-114.5 337,-114.5"/>
<text text-anchor="middle" x="391" y="-121.5" font-family="Helvetica,sans-Serif" font-size="10.00">add_item_to_array</text>
</a>
</g>
</g>
<!-- Node2&#45;&gt;Node3 -->
<g id="edge2" class="edge">
<title>Node2&#45;&gt;Node3</title>
<path fill="none" stroke="midnightblue" d="M274.39,-85.6C296.55,-92.96 327.32,-103.18 351.55,-111.23"/>
<polygon fill="midnightblue" stroke="midnightblue" points="350.56,-114.59 361.16,-114.42 352.77,-107.94 350.56,-114.59"/>
</g>
<!-- Node5 -->
<g id="node5" class="node">
<title>Node5</title>
<g id="a_node5"><a xlink:href="cJSON_8c.html#a48223c36735c39cfc4711b0659f966c8" target="_top" xlink:title=" ">
<polygon fill="white" stroke="black" points="341,-76.5 341,-95.5 441,-95.5 441,-76.5 341,-76.5"/>
<text text-anchor="middle" x="391" y="-83.5" font-family="Helvetica,sans-Serif" font-size="10.00">cast_away_const</text>
</a>
</g>
</g>
<!-- Node2&#45;&gt;Node5 -->
<g id="edge4" class="edge">
<title>Node2&#45;&gt;Node5</title>
<path fill="none" stroke="midnightblue" d="M301.37,-79.87C311.03,-80.54 321.11,-81.23 330.86,-81.91"/>
<polygon fill="midnightblue" stroke="midnightblue" points="330.66,-85.4 340.87,-82.6 331.14,-78.42 330.66,-85.4"/>
</g>
<!-- Node6 -->
<g id="node6" class="node">
<title>Node6</title>
<g id="a_node6"><a xlink:href="cJSON_8c.html#a5da7bd9b4622e97e7e19c36017410252" target="_top" xlink:title=" ">
<polygon fill="white" stroke="black" points="350,-38.5 350,-57.5 432,-57.5 432,-38.5 350,-38.5"/>
<text text-anchor="middle" x="391" y="-45.5" font-family="Helvetica,sans-Serif" font-size="10.00">cJSON_strdup</text>
</a>
</g>
</g>
<!-- Node2&#45;&gt;Node6 -->
<g id="edge5" class="edge">
<title>Node2&#45;&gt;Node6</title>
<path fill="none" stroke="midnightblue" d="M294.82,-66.44C309.44,-63.61 325.45,-60.51 340.1,-57.67"/>
<polygon fill="midnightblue" stroke="midnightblue" points="340.84,-61.09 349.99,-55.75 339.51,-54.22 340.84,-61.09"/>
</g>
<!-- Node4 -->
<g id="node4" class="node">
<title>Node4</title>
<g id="a_node4"><a xlink:href="cJSON_8c.html#a5d61bcc0045ace88c2ae04f0928eeace" target="_top" xlink:title=" ">
<polygon fill="white" stroke="black" points="508.5,-114.5 508.5,-133.5 587.5,-133.5 587.5,-114.5 508.5,-114.5"/>
<text text-anchor="middle" x="548" y="-121.5" font-family="Helvetica,sans-Serif" font-size="10.00">suffix_object</text>
</a>
</g>
</g>
<!-- Node3&#45;&gt;Node4 -->
<g id="edge3" class="edge">
<title>Node3&#45;&gt;Node4</title>
<path fill="none" stroke="midnightblue" d="M445.34,-124C462.46,-124 481.32,-124 498.1,-124"/>
<polygon fill="midnightblue" stroke="midnightblue" points="498.24,-127.5 508.24,-124 498.24,-120.5 498.24,-127.5"/>
</g>
<!-- Node7 -->
<g id="node7" class="node">
<title>Node7</title>
<g id="a_node7"><a xlink:href="structinternal__hooks.html#a872a0c28217b451331d24b8e0484b293" target="_top" xlink:title=" ">
<polygon fill="white" stroke="black" points="481,-19.5 481,-38.5 615,-38.5 615,-19.5 481,-19.5"/>
<text text-anchor="middle" x="548" y="-26.5" font-family="Helvetica,sans-Serif" font-size="10.00">internal_hooks::allocate</text>
</a>
</g>
</g>
<!-- Node6&#45;&gt;Node7 -->
<g id="edge6" class="edge">
<title>Node6&#45;&gt;Node7</title>
<path fill="none" stroke="midnightblue" d="M432.32,-43.06C444.11,-41.61 457.41,-39.98 470.67,-38.36"/>
<polygon fill="midnightblue" stroke="midnightblue" points="471.27,-41.81 480.77,-37.12 470.42,-34.86 471.27,-41.81"/>
</g>
<!-- Node9 -->
<g id="node9" class="node">
<title>Node9</title>
<g id="a_node9"><a xlink:href="cJSON_8c.html#a8f447c625af025c35d0ec59032ad6473" target="_top" xlink:title=" ">
<polygon fill="white" stroke="black" points="340.5,-0.5 340.5,-19.5 441.5,-19.5 441.5,-0.5 340.5,-0.5"/>
<text text-anchor="middle" x="391" y="-7.5" font-family="Helvetica,sans-Serif" font-size="10.00">cJSON_New_Item</text>
</a>
</g>
</g>
<!-- Node8&#45;&gt;Node9 -->
<g id="edge8" class="edge">
<title>Node8&#45;&gt;Node9</title>
<path fill="none" stroke="midnightblue" d="M294.02,-22.62C305.68,-21.09 318.26,-19.43 330.36,-17.84"/>
<polygon fill="midnightblue" stroke="midnightblue" points="330.92,-21.3 340.38,-16.52 330.01,-14.36 330.92,-21.3"/>
</g>
<!-- Node9&#45;&gt;Node7 -->
<g id="edge9" class="edge">
<title>Node9&#45;&gt;Node7</title>
<path fill="none" stroke="midnightblue" d="M441.9,-16.12C451.09,-17.24 460.88,-18.44 470.65,-19.64"/>
<polygon fill="midnightblue" stroke="midnightblue" points="470.44,-23.14 480.8,-20.88 471.3,-16.19 470.44,-23.14"/>
</g>
</g>
</svg>
