<?xml version="1.0" encoding="UTF-8" standalone="no"?>
<!DOCTYPE svg PUBLIC "-//W3C//DTD SVG 1.1//EN"
 "http://www.w3.org/Graphics/SVG/1.1/DTD/svg11.dtd">
<!-- Generated by graphviz version 2.43.0 (0)
 -->
<!-- Title: cJSON_Compare Pages: 1 -->
<svg width="410pt" height="64pt"
 viewBox="0.00 0.00 410.00 64.00" xmlns="http://www.w3.org/2000/svg" xmlns:xlink="http://www.w3.org/1999/xlink">

<svg id="main" version="1.1" xmlns="http://www.w3.org/2000/svg" xmlns:xlink="http://www.w3.org/1999/xlink" xml:space="preserve" onload="init(evt)">
<style type="text/css"><![CDATA[
.node, .edge {opacity: 0.7;}
.node.selected, .edge.selected {opacity: 1;}
.edge:hover path { stroke: red; }
.edge:hover polygon { stroke: red; fill: red; }
]]></style>
<script type="application/ecmascript" xlink:href="svg.min.js"/>
<svg id="graph" class="graph">
<g id="graph0" class="graph" transform="scale(1 1) rotate(0) translate(4 60)">
<title>cJSON_Compare</title>
<!-- Node1 -->
<g id="Node000001" class="node">
<title>Node1</title>
<g id="a_Node000001"><a xlink:title=" ">
<polygon fill="#999999" stroke="#666666" points="95,-37 0,-37 0,-18 95,-18 95,-37"/>
<text text-anchor="middle" x="47.5" y="-25" font-family="Helvetica,sans-Serif" font-size="10.00">cJSON_Compare</text>
</a>
</g>
</g>
<!-- Node1&#45;&gt;Node1 -->
<g id="edge1_Node000001_Node000001" class="edge">
<title>Node1&#45;&gt;Node1</title>
<g id="a_edge1_Node000001_Node000001"><a xlink:title=" ">
<path fill="none" stroke="#63b8ff" d="M27.15,-37.08C17.26,-45.73 24.04,-55 47.5,-55 62.53,-55 70.71,-51.2 72.05,-46.19"/>
<polygon fill="#63b8ff" stroke="#63b8ff" points="75.22,-44.69 67.85,-37.08 68.86,-47.63 75.22,-44.69"/>
</a>
</g>
</g>
<!-- Node2 -->
<g id="Node000002" class="node">
<title>Node2</title>
<g id="a_Node000002"><a xlink:href="cJSON_8c.html#aa7a85b63f1830e7e666e1f56872d5d3e" target="_top" xlink:title=" ">
<polygon fill="white" stroke="#666666" points="229,-56 131,-56 131,-37 229,-37 229,-56"/>
<text text-anchor="middle" x="180" y="-44" font-family="Helvetica,sans-Serif" font-size="10.00">compare_double</text>
</a>
</g>
</g>
<!-- Node1&#45;&gt;Node2 -->
<g id="edge2_Node000001_Node000002" class="edge">
<title>Node1&#45;&gt;Node2</title>
<g id="a_edge2_Node000001_Node000002"><a xlink:title=" ">
<path fill="none" stroke="#63b8ff" d="M95.24,-34.31C103.55,-35.51 112.29,-36.79 120.87,-38.04"/>
<polygon fill="#63b8ff" stroke="#63b8ff" points="120.42,-41.51 130.82,-39.49 121.43,-34.58 120.42,-41.51"/>
</a>
</g>
</g>
<!-- Node3 -->
<g id="Node000003" class="node">
<title>Node3</title>
<g id="a_Node000003"><a xlink:href="cJSON_8c.html#aa2509ddde1c1a0be7417e4f40520338f" target="_top" xlink:title=" ">
<polygon fill="white" stroke="#666666" points="227.5,-19 132.5,-19 132.5,0 227.5,0 227.5,-19"/>
<text text-anchor="middle" x="180" y="-7" font-family="Helvetica,sans-Serif" font-size="10.00">get_object_item</text>
</a>
</g>
</g>
<!-- Node1&#45;&gt;Node3 -->
<g id="edge3_Node000001_Node000003" class="edge">
<title>Node1&#45;&gt;Node3</title>
<g id="a_edge3_Node000001_Node000003"><a xlink:title=" ">
<path fill="none" stroke="#63b8ff" d="M95.24,-21.05C103.96,-19.85 113.15,-18.58 122.13,-17.34"/>
<polygon fill="#63b8ff" stroke="#63b8ff" points="122.71,-20.8 132.14,-15.96 121.76,-13.86 122.71,-20.8"/>
</a>
</g>
</g>
<!-- Node4 -->
<g id="Node000004" class="node">
<title>Node4</title>
<g id="a_Node000004"><a xlink:href="cJSON_8c.html#a9b295e9edc859c11ad8c1e3d2cef0467" target="_top" xlink:title=" ">
<polygon fill="white" stroke="#666666" points="402,-19 265,-19 265,0 402,0 402,-19"/>
<text text-anchor="middle" x="333.5" y="-7" font-family="Helvetica,sans-Serif" font-size="10.00">case_insensitive_strcmp</text>
</a>
</g>
</g>
<!-- Node3&#45;&gt;Node4 -->
<g id="edge4_Node000003_Node000004" class="edge">
<title>Node3&#45;&gt;Node4</title>
<g id="a_edge4_Node000003_Node000004"><a xlink:title=" ">
<path fill="none" stroke="#63b8ff" d="M227.69,-9.5C236.31,-9.5 245.52,-9.5 254.77,-9.5"/>
<polygon fill="#63b8ff" stroke="#63b8ff" points="254.8,-13 264.8,-9.5 254.8,-6 254.8,-13"/>
</a>
</g>
</g>
</g>
</svg>
</svg>

<style type='text/css'>
<![CDATA[
[data-mouse-over-selected='false'] { opacity: 0.7; }
[data-mouse-over-selected='true']  { opacity: 1.0; }
]]>
</style>
<script type="application/ecmascript"><![CDATA[
document.addEventListener('DOMContentLoaded', (event) => {
  highlightEdges();
  highlightAdjacentNodes();
});
]]></script>
</svg>
