<?xml version="1.0" encoding="UTF-8" standalone="no"?>
<!DOCTYPE svg PUBLIC "-//W3C//DTD SVG 1.1//EN"
 "http://www.w3.org/Graphics/SVG/1.1/DTD/svg11.dtd">
<!-- Generated by graphviz version 2.43.0 (0)
 -->
<!-- Title: parse_value Pages: 1 -->
<svg width="652pt" height="142pt"
 viewBox="0.00 0.00 652.00 142.00" xmlns="http://www.w3.org/2000/svg" xmlns:xlink="http://www.w3.org/1999/xlink">
<g id="graph0" class="graph" transform="scale(1 1) rotate(0) translate(4 138)">
<title>parse_value</title>
<polygon fill="white" stroke="transparent" points="-4,4 -4,-138 648,-138 648,4 -4,4"/>
<!-- Node1 -->
<g id="node1" class="node">
<title>Node1</title>
<g id="a_node1"><a xlink:title=" ">
<polygon fill="#bfbfbf" stroke="black" points="0,-76.5 0,-95.5 76,-95.5 76,-76.5 0,-76.5"/>
<text text-anchor="middle" x="38" y="-83.5" font-family="Helvetica,sans-Serif" font-size="10.00">parse_value</text>
</a>
</g>
</g>
<!-- Node2 -->
<g id="node2" class="node">
<title>Node2</title>
<g id="a_node2"><a xlink:href="cJSON_8c.html#a367cc7ac5a592211d9f18dc02dd23069" target="_top" xlink:title=" ">
<polygon fill="white" stroke="black" points="118,-114.5 118,-133.5 192,-133.5 192,-114.5 118,-114.5"/>
<text text-anchor="middle" x="155" y="-121.5" font-family="Helvetica,sans-Serif" font-size="10.00">parse_array</text>
</a>
</g>
</g>
<!-- Node1&#45;&gt;Node2 -->
<g id="edge1" class="edge">
<title>Node1&#45;&gt;Node2</title>
<path fill="none" stroke="midnightblue" d="M76.02,-91.88C93.69,-97 114.32,-104.07 129.92,-110.43"/>
<polygon fill="midnightblue" stroke="midnightblue" points="128.8,-113.76 139.37,-114.48 131.56,-107.33 128.8,-113.76"/>
</g>
<!-- Node6 -->
<g id="node6" class="node">
<title>Node6</title>
<g id="a_node6"><a xlink:href="cJSON_8c.html#a699e1cebda71c2846a9a10b29b4dc407" target="_top" xlink:title=" ">
<polygon fill="white" stroke="black" points="112,-0.5 112,-19.5 198,-19.5 198,-0.5 112,-0.5"/>
<text text-anchor="middle" x="155" y="-7.5" font-family="Helvetica,sans-Serif" font-size="10.00">parse_number</text>
</a>
</g>
</g>
<!-- Node1&#45;&gt;Node6 -->
<g id="edge6" class="edge">
<title>Node1&#45;&gt;Node6</title>
<path fill="none" stroke="midnightblue" d="M51.66,-76.4C66.01,-65.65 90.24,-47.92 112,-34 116.86,-30.89 122.14,-27.72 127.27,-24.74"/>
<polygon fill="midnightblue" stroke="midnightblue" points="129.24,-27.65 136.19,-19.66 125.77,-21.57 129.24,-27.65"/>
</g>
<!-- Node8 -->
<g id="node8" class="node">
<title>Node8</title>
<g id="a_node8"><a xlink:href="cJSON_8c.html#a1472ac5d1becd7d9a5e558b4c053b06a" target="_top" xlink:title=" ">
<polygon fill="white" stroke="black" points="115.5,-76.5 115.5,-95.5 194.5,-95.5 194.5,-76.5 115.5,-76.5"/>
<text text-anchor="middle" x="155" y="-83.5" font-family="Helvetica,sans-Serif" font-size="10.00">parse_object</text>
</a>
</g>
</g>
<!-- Node1&#45;&gt;Node8 -->
<g id="edge8" class="edge">
<title>Node1&#45;&gt;Node8</title>
<path fill="none" stroke="midnightblue" d="M76.02,-79.65C85.38,-79.27 95.57,-79.16 105.4,-79.32"/>
<polygon fill="midnightblue" stroke="midnightblue" points="105.38,-82.82 115.47,-79.59 105.56,-75.83 105.38,-82.82"/>
</g>
<!-- Node9 -->
<g id="node9" class="node">
<title>Node9</title>
<g id="a_node9"><a xlink:href="cJSON_8c.html#adf47b520af96d1bbefa2390016fbdb51" target="_top" xlink:title=" ">
<polygon fill="white" stroke="black" points="261,-38.5 261,-57.5 338,-57.5 338,-38.5 261,-38.5"/>
<text text-anchor="middle" x="299.5" y="-45.5" font-family="Helvetica,sans-Serif" font-size="10.00">parse_string</text>
</a>
</g>
</g>
<!-- Node1&#45;&gt;Node9 -->
<g id="edge16" class="edge">
<title>Node1&#45;&gt;Node9</title>
<path fill="none" stroke="midnightblue" d="M71.47,-76.41C84.03,-73 98.6,-69.41 112,-67 158.7,-58.59 212.7,-53.6 250.53,-50.86"/>
<polygon fill="midnightblue" stroke="midnightblue" points="251.02,-54.33 260.76,-50.14 250.54,-47.35 251.02,-54.33"/>
</g>
<!-- Node2&#45;&gt;Node1 -->
<g id="edge5" class="edge">
<title>Node2&#45;&gt;Node1</title>
<path fill="none" stroke="midnightblue" d="M117.67,-118.32C100.04,-113.24 79.33,-106.17 63.58,-99.77"/>
<polygon fill="midnightblue" stroke="midnightblue" points="64.61,-96.4 54.03,-95.7 61.86,-102.84 64.61,-96.4"/>
</g>
<!-- Node3 -->
<g id="node3" class="node">
<title>Node3</title>
<g id="a_node3"><a xlink:href="cJSON_8c.html#a029a2c33fa2744a7cc5cf061f28d2cfc" target="_top" xlink:title=" ">
<polygon fill="white" stroke="black" points="234,-114.5 234,-133.5 365,-133.5 365,-114.5 234,-114.5"/>
<text text-anchor="middle" x="299.5" y="-121.5" font-family="Helvetica,sans-Serif" font-size="10.00">buffer_skip_whitespace</text>
</a>
</g>
</g>
<!-- Node2&#45;&gt;Node3 -->
<g id="edge2" class="edge">
<title>Node2&#45;&gt;Node3</title>
<path fill="none" stroke="midnightblue" d="M192.33,-124C202.05,-124 212.93,-124 223.91,-124"/>
<polygon fill="midnightblue" stroke="midnightblue" points="223.99,-127.5 233.99,-124 223.99,-120.5 223.99,-127.5"/>
</g>
<!-- Node4 -->
<g id="node4" class="node">
<title>Node4</title>
<g id="a_node4"><a xlink:href="cJSON_8c.html#a8f447c625af025c35d0ec59032ad6473" target="_top" xlink:title=" ">
<polygon fill="white" stroke="black" points="249,-76.5 249,-95.5 350,-95.5 350,-76.5 249,-76.5"/>
<text text-anchor="middle" x="299.5" y="-83.5" font-family="Helvetica,sans-Serif" font-size="10.00">cJSON_New_Item</text>
</a>
</g>
</g>
<!-- Node2&#45;&gt;Node4 -->
<g id="edge3" class="edge">
<title>Node2&#45;&gt;Node4</title>
<path fill="none" stroke="midnightblue" d="M191.96,-114.41C210.44,-109.48 233.16,-103.43 252.86,-98.17"/>
<polygon fill="midnightblue" stroke="midnightblue" points="253.79,-101.54 262.55,-95.59 251.99,-94.78 253.79,-101.54"/>
</g>
<!-- Node5 -->
<g id="node5" class="node">
<title>Node5</title>
<g id="a_node5"><a xlink:href="structinternal__hooks.html#a872a0c28217b451331d24b8e0484b293" target="_top" xlink:title=" ">
<polygon fill="white" stroke="black" points="401,-76.5 401,-95.5 535,-95.5 535,-76.5 401,-76.5"/>
<text text-anchor="middle" x="468" y="-83.5" font-family="Helvetica,sans-Serif" font-size="10.00">internal_hooks::allocate</text>
</a>
</g>
</g>
<!-- Node4&#45;&gt;Node5 -->
<g id="edge4" class="edge">
<title>Node4&#45;&gt;Node5</title>
<path fill="none" stroke="midnightblue" d="M350,-86C362.81,-86 376.9,-86 390.72,-86"/>
<polygon fill="midnightblue" stroke="midnightblue" points="390.73,-89.5 400.73,-86 390.73,-82.5 390.73,-89.5"/>
</g>
<!-- Node7 -->
<g id="node7" class="node">
<title>Node7</title>
<g id="a_node7"><a xlink:href="cJSON_8c.html#ab25412ae56c8c594831918169bea100d" target="_top" xlink:title=" ">
<polygon fill="white" stroke="black" points="246,-0.5 246,-19.5 353,-19.5 353,-0.5 246,-0.5"/>
<text text-anchor="middle" x="299.5" y="-7.5" font-family="Helvetica,sans-Serif" font-size="10.00">get_decimal_point</text>
</a>
</g>
</g>
<!-- Node6&#45;&gt;Node7 -->
<g id="edge7" class="edge">
<title>Node6&#45;&gt;Node7</title>
<path fill="none" stroke="midnightblue" d="M198.37,-10C210.15,-10 223.2,-10 235.88,-10"/>
<polygon fill="midnightblue" stroke="midnightblue" points="235.94,-13.5 245.94,-10 235.94,-6.5 235.94,-13.5"/>
</g>
<!-- Node8&#45;&gt;Node1 -->
<g id="edge15" class="edge">
<title>Node8&#45;&gt;Node1</title>
<path fill="none" stroke="midnightblue" d="M115.47,-92.41C106.02,-92.76 95.81,-92.84 86.02,-92.65"/>
<polygon fill="midnightblue" stroke="midnightblue" points="86.12,-89.15 76.02,-92.35 85.91,-96.15 86.12,-89.15"/>
</g>
<!-- Node8&#45;&gt;Node3 -->
<g id="edge9" class="edge">
<title>Node8&#45;&gt;Node3</title>
<path fill="none" stroke="midnightblue" d="M191.96,-95.59C210.44,-100.52 233.16,-106.57 252.86,-111.83"/>
<polygon fill="midnightblue" stroke="midnightblue" points="251.99,-115.22 262.55,-114.41 253.79,-108.46 251.99,-115.22"/>
</g>
<!-- Node8&#45;&gt;Node4 -->
<g id="edge10" class="edge">
<title>Node8&#45;&gt;Node4</title>
<path fill="none" stroke="midnightblue" d="M194.56,-86C208.16,-86 223.78,-86 238.71,-86"/>
<polygon fill="midnightblue" stroke="midnightblue" points="238.91,-89.5 248.91,-86 238.91,-82.5 238.91,-89.5"/>
</g>
<!-- Node8&#45;&gt;Node9 -->
<g id="edge11" class="edge">
<title>Node8&#45;&gt;Node9</title>
<path fill="none" stroke="midnightblue" d="M191.96,-76.41C210.44,-71.48 233.16,-65.43 252.86,-60.17"/>
<polygon fill="midnightblue" stroke="midnightblue" points="253.79,-63.54 262.55,-57.59 251.99,-56.78 253.79,-63.54"/>
</g>
<!-- Node9&#45;&gt;Node5 -->
<g id="edge12" class="edge">
<title>Node9&#45;&gt;Node5</title>
<path fill="none" stroke="midnightblue" d="M338.28,-56.62C361.05,-61.82 390.36,-68.51 415.26,-74.19"/>
<polygon fill="midnightblue" stroke="midnightblue" points="414.75,-77.66 425.28,-76.48 416.31,-70.84 414.75,-77.66"/>
</g>
<!-- Node10 -->
<g id="node10" class="node">
<title>Node10</title>
<g id="a_node10"><a xlink:href="cJSON_8c.html#a0e2851b1b595b3b430fd186e7deaf987" target="_top" xlink:title=" ">
<polygon fill="white" stroke="black" points="410,-38.5 410,-57.5 526,-57.5 526,-38.5 410,-38.5"/>
<text text-anchor="middle" x="468" y="-45.5" font-family="Helvetica,sans-Serif" font-size="10.00">utf16_literal_to_utf8</text>
</a>
</g>
</g>
<!-- Node9&#45;&gt;Node10 -->
<g id="edge13" class="edge">
<title>Node9&#45;&gt;Node10</title>
<path fill="none" stroke="midnightblue" d="M338.28,-48C356.42,-48 378.72,-48 399.62,-48"/>
<polygon fill="midnightblue" stroke="midnightblue" points="399.75,-51.5 409.75,-48 399.75,-44.5 399.75,-51.5"/>
</g>
<!-- Node11 -->
<g id="node11" class="node">
<title>Node11</title>
<g id="a_node11"><a xlink:href="cJSON_8c.html#a1aa736fdc6ba20c7d46622d20766e916" target="_top" xlink:title=" ">
<polygon fill="white" stroke="black" points="571,-38.5 571,-57.5 644,-57.5 644,-38.5 571,-38.5"/>
<text text-anchor="middle" x="607.5" y="-45.5" font-family="Helvetica,sans-Serif" font-size="10.00">parse_hex4</text>
</a>
</g>
</g>
<!-- Node10&#45;&gt;Node11 -->
<g id="edge14" class="edge">
<title>Node10&#45;&gt;Node11</title>
<path fill="none" stroke="midnightblue" d="M526.12,-48C537.64,-48 549.6,-48 560.68,-48"/>
<polygon fill="midnightblue" stroke="midnightblue" points="560.97,-51.5 570.97,-48 560.97,-44.5 560.97,-51.5"/>
</g>
</g>
</svg>
