<?xml version="1.0" encoding="UTF-8" standalone="no"?>
<!DOCTYPE svg PUBLIC "-//W3C//DTD SVG 1.1//EN"
 "http://www.w3.org/Graphics/SVG/1.1/DTD/svg11.dtd">
<!-- Generated by graphviz version 2.43.0 (0)
 -->
<!-- Title: cJSON_ReplaceItemInObject Pages: 1 -->
<svg width="699pt" height="104pt"
 viewBox="0.00 0.00 699.00 104.00" xmlns="http://www.w3.org/2000/svg" xmlns:xlink="http://www.w3.org/1999/xlink">
<g id="graph0" class="graph" transform="scale(1 1) rotate(0) translate(4 100)">
<title>cJSON_ReplaceItemInObject</title>
<polygon fill="white" stroke="transparent" points="-4,4 -4,-100 695,-100 695,4 -4,4"/>
<!-- Node1 -->
<g id="node1" class="node">
<title>Node1</title>
<g id="a_node1"><a xlink:title=" ">
<polygon fill="#bfbfbf" stroke="black" points="0,-38.5 0,-57.5 153,-57.5 153,-38.5 0,-38.5"/>
<text text-anchor="middle" x="76.5" y="-45.5" font-family="Helvetica,sans-Serif" font-size="10.00">cJSON_ReplaceItemInObject</text>
</a>
</g>
</g>
<!-- Node2 -->
<g id="node2" class="node">
<title>Node2</title>
<g id="a_node2"><a xlink:href="cJSON_8c.html#afdae75197cf2c440ef858a2e93b104f2" target="_top" xlink:title=" ">
<polygon fill="white" stroke="black" points="189,-38.5 189,-57.5 319,-57.5 319,-38.5 189,-38.5"/>
<text text-anchor="middle" x="254" y="-45.5" font-family="Helvetica,sans-Serif" font-size="10.00">replace_item_in_object</text>
</a>
</g>
</g>
<!-- Node1&#45;&gt;Node2 -->
<g id="edge1" class="edge">
<title>Node1&#45;&gt;Node2</title>
<path fill="none" stroke="midnightblue" d="M153.2,-48C161.64,-48 170.24,-48 178.66,-48"/>
<polygon fill="midnightblue" stroke="midnightblue" points="178.83,-51.5 188.83,-48 178.83,-44.5 178.83,-51.5"/>
</g>
<!-- Node3 -->
<g id="node3" class="node">
<title>Node3</title>
<g id="a_node3"><a xlink:href="cJSON_8c.html#aef23a5c2b35e0c54fef7b6de54918289" target="_top" xlink:title=" ">
<polygon fill="white" stroke="black" points="355,-76.5 355,-95.5 518,-95.5 518,-76.5 355,-76.5"/>
<text text-anchor="middle" x="436.5" y="-83.5" font-family="Helvetica,sans-Serif" font-size="10.00">cJSON_ReplaceItemViaPointer</text>
</a>
</g>
</g>
<!-- Node2&#45;&gt;Node3 -->
<g id="edge2" class="edge">
<title>Node2&#45;&gt;Node3</title>
<path fill="none" stroke="midnightblue" d="M300.55,-57.59C324.8,-62.69 354.8,-69.01 380.36,-74.39"/>
<polygon fill="midnightblue" stroke="midnightblue" points="379.77,-77.84 390.28,-76.48 381.22,-70.99 379.77,-77.84"/>
</g>
<!-- Node4 -->
<g id="node4" class="node">
<title>Node4</title>
<g id="a_node4"><a xlink:href="cJSON_8c.html#a5da7bd9b4622e97e7e19c36017410252" target="_top" xlink:title=" ">
<polygon fill="white" stroke="black" points="395.5,-38.5 395.5,-57.5 477.5,-57.5 477.5,-38.5 395.5,-38.5"/>
<text text-anchor="middle" x="436.5" y="-45.5" font-family="Helvetica,sans-Serif" font-size="10.00">cJSON_strdup</text>
</a>
</g>
</g>
<!-- Node2&#45;&gt;Node4 -->
<g id="edge3" class="edge">
<title>Node2&#45;&gt;Node4</title>
<path fill="none" stroke="midnightblue" d="M319.15,-48C340.9,-48 364.88,-48 385.38,-48"/>
<polygon fill="midnightblue" stroke="midnightblue" points="385.45,-51.5 395.45,-48 385.45,-44.5 385.45,-51.5"/>
</g>
<!-- Node6 -->
<g id="node6" class="node">
<title>Node6</title>
<g id="a_node6"><a xlink:href="cJSON_8c.html#a768303890e9be802d51b0e0a110302f4" target="_top" xlink:title=" ">
<polygon fill="white" stroke="black" points="389,-0.5 389,-19.5 484,-19.5 484,-0.5 389,-0.5"/>
<text text-anchor="middle" x="436.5" y="-7.5" font-family="Helvetica,sans-Serif" font-size="10.00">get_object_item</text>
</a>
</g>
</g>
<!-- Node2&#45;&gt;Node6 -->
<g id="edge5" class="edge">
<title>Node2&#45;&gt;Node6</title>
<path fill="none" stroke="midnightblue" d="M300.55,-38.41C324.8,-33.31 354.8,-26.99 380.36,-21.61"/>
<polygon fill="midnightblue" stroke="midnightblue" points="381.22,-25.01 390.28,-19.52 379.77,-18.16 381.22,-25.01"/>
</g>
<!-- Node5 -->
<g id="node5" class="node">
<title>Node5</title>
<g id="a_node5"><a xlink:href="structinternal__hooks.html#a872a0c28217b451331d24b8e0484b293" target="_top" xlink:title=" ">
<polygon fill="white" stroke="black" points="555.5,-38.5 555.5,-57.5 689.5,-57.5 689.5,-38.5 555.5,-38.5"/>
<text text-anchor="middle" x="622.5" y="-45.5" font-family="Helvetica,sans-Serif" font-size="10.00">internal_hooks::allocate</text>
</a>
</g>
</g>
<!-- Node4&#45;&gt;Node5 -->
<g id="edge4" class="edge">
<title>Node4&#45;&gt;Node5</title>
<path fill="none" stroke="midnightblue" d="M477.88,-48C497.6,-48 522,-48 545.06,-48"/>
<polygon fill="midnightblue" stroke="midnightblue" points="545.18,-51.5 555.18,-48 545.18,-44.5 545.18,-51.5"/>
</g>
<!-- Node7 -->
<g id="node7" class="node">
<title>Node7</title>
<g id="a_node7"><a xlink:href="cJSON_8c.html#a9b295e9edc859c11ad8c1e3d2cef0467" target="_top" xlink:title=" ">
<polygon fill="white" stroke="black" points="554,-0.5 554,-19.5 691,-19.5 691,-0.5 554,-0.5"/>
<text text-anchor="middle" x="622.5" y="-7.5" font-family="Helvetica,sans-Serif" font-size="10.00">case_insensitive_strcmp</text>
</a>
</g>
</g>
<!-- Node6&#45;&gt;Node7 -->
<g id="edge6" class="edge">
<title>Node6&#45;&gt;Node7</title>
<path fill="none" stroke="midnightblue" d="M484.41,-10C502.44,-10 523.55,-10 543.72,-10"/>
<polygon fill="midnightblue" stroke="midnightblue" points="543.84,-13.5 553.84,-10 543.84,-6.5 543.84,-13.5"/>
</g>
</g>
</svg>
