<?xml version="1.0" encoding="UTF-8" standalone="no"?>
<!DOCTYPE svg PUBLIC "-//W3C//DTD SVG 1.1//EN"
 "http://www.w3.org/Graphics/SVG/1.1/DTD/svg11.dtd">
<!-- Generated by graphviz version 2.43.0 (0)
 -->
<!-- Title: buffer_skip_whitespace Pages: 1 -->
<svg width="834pt" height="79pt"
 viewBox="0.00 0.00 834.00 79.08" xmlns="http://www.w3.org/2000/svg" xmlns:xlink="http://www.w3.org/1999/xlink">
<g id="graph0" class="graph" transform="scale(1 1) rotate(0) translate(4 75.08)">
<title>buffer_skip_whitespace</title>
<!-- Node1 -->
<g id="Node000001" class="node">
<title>Node1</title>
<g id="a_Node000001"><a xlink:title=" ">
<polygon fill="#999999" stroke="#666666" points="826,-34.08 695,-34.08 695,-15.08 826,-15.08 826,-34.08"/>
<text text-anchor="middle" x="760.5" y="-22.08" font-family="Helvetica,sans-Serif" font-size="10.00">buffer_skip_whitespace</text>
</a>
</g>
</g>
<!-- Node2 -->
<g id="Node000002" class="node">
<title>Node2</title>
<g id="a_Node000002"><a xlink:href="cJSON_8c.html#a3a24e49a04490273160cdc1f30f10d22" target="_top" xlink:title=" ">
<polygon fill="white" stroke="#666666" points="437,-71.08 282,-71.08 282,-52.08 437,-52.08 437,-71.08"/>
<text text-anchor="middle" x="359.5" y="-59.08" font-family="Helvetica,sans-Serif" font-size="10.00">cJSON_ParseWithLengthOpts</text>
</a>
</g>
</g>
<!-- Node1&#45;&gt;Node2 -->
<g id="edge1_Node000001_Node000002" class="edge">
<title>Node1&#45;&gt;Node2</title>
<g id="a_edge1_Node000001_Node000002"><a xlink:title=" ">
<path fill="none" stroke="#63b8ff" d="M705.52,-36.09C690.52,-38.93 674.18,-41.7 659,-43.58 583.91,-52.91 497.56,-57.45 437.12,-59.63"/>
<polygon fill="#63b8ff" stroke="#63b8ff" points="706.51,-39.46 715.66,-34.12 705.18,-32.59 706.51,-39.46"/>
</a>
</g>
</g>
<!-- Node5 -->
<g id="Node000005" class="node">
<title>Node5</title>
<g id="a_Node000005"><a xlink:href="cJSON_8c.html#a367cc7ac5a592211d9f18dc02dd23069" target="_top" xlink:title=" ">
<polygon fill="white" stroke="#666666" points="659,-34.08 585,-34.08 585,-15.08 659,-15.08 659,-34.08"/>
<text text-anchor="middle" x="622" y="-22.08" font-family="Helvetica,sans-Serif" font-size="10.00">parse_array</text>
</a>
</g>
</g>
<!-- Node1&#45;&gt;Node5 -->
<g id="edge4_Node000001_Node000005" class="edge">
<title>Node1&#45;&gt;Node5</title>
<g id="a_edge4_Node000001_Node000005"><a xlink:title=" ">
<path fill="none" stroke="#63b8ff" d="M684.78,-24.58C675.9,-24.58 667.16,-24.58 659.18,-24.58"/>
<polygon fill="#63b8ff" stroke="#63b8ff" points="684.85,-28.08 694.85,-24.58 684.85,-21.08 684.85,-28.08"/>
</a>
</g>
</g>
<!-- Node7 -->
<g id="Node000007" class="node">
<title>Node7</title>
<g id="a_Node000007"><a xlink:href="cJSON_8c.html#a1472ac5d1becd7d9a5e558b4c053b06a" target="_top" xlink:title=" ">
<polygon fill="white" stroke="#666666" points="399,-34.08 320,-34.08 320,-15.08 399,-15.08 399,-34.08"/>
<text text-anchor="middle" x="359.5" y="-22.08" font-family="Helvetica,sans-Serif" font-size="10.00">parse_object</text>
</a>
</g>
</g>
<!-- Node1&#45;&gt;Node7 -->
<g id="edge10_Node000001_Node000007" class="edge">
<title>Node1&#45;&gt;Node7</title>
<g id="a_edge10_Node000001_Node000007"><a xlink:title=" ">
<path fill="none" stroke="#63b8ff" d="M708.57,-13.04C692.77,-9.98 675.24,-7.1 659,-5.58 576.69,2.13 555.38,1.32 473,-5.58 448.23,-7.66 420.71,-12.27 399.09,-16.42"/>
<polygon fill="#63b8ff" stroke="#63b8ff" points="708.18,-16.54 718.67,-15.07 709.56,-9.67 708.18,-16.54"/>
</a>
</g>
</g>
<!-- Node3 -->
<g id="Node000003" class="node">
<title>Node3</title>
<g id="a_Node000003"><a xlink:href="cJSON_8c.html#adfabd5d09c2cf0a2f051c47650db6e80" target="_top" xlink:title=" ">
<polygon fill="white" stroke="#666666" points="246,-71.08 124,-71.08 124,-52.08 246,-52.08 246,-71.08"/>
<text text-anchor="middle" x="185" y="-59.08" font-family="Helvetica,sans-Serif" font-size="10.00">cJSON_ParseWithOpts</text>
</a>
</g>
</g>
<!-- Node2&#45;&gt;Node3 -->
<g id="edge2_Node000002_Node000003" class="edge">
<title>Node2&#45;&gt;Node3</title>
<g id="a_edge2_Node000002_Node000003"><a xlink:title=" ">
<path fill="none" stroke="#63b8ff" d="M271.7,-61.58C263.05,-61.58 254.41,-61.58 246.12,-61.58"/>
<polygon fill="#63b8ff" stroke="#63b8ff" points="271.83,-65.08 281.83,-61.58 271.83,-58.08 271.83,-65.08"/>
</a>
</g>
</g>
<!-- Node4 -->
<g id="Node000004" class="node">
<title>Node4</title>
<g id="a_Node000004"><a xlink:href="cJSON_8c.html#aa2ca313f61c789be20f8a69b651043c3" target="_top" xlink:title=" ">
<polygon fill="white" stroke="#666666" points="88,-71.08 0,-71.08 0,-52.08 88,-52.08 88,-71.08"/>
<text text-anchor="middle" x="44" y="-59.08" font-family="Helvetica,sans-Serif" font-size="10.00">CJSON_PUBLIC</text>
</a>
</g>
</g>
<!-- Node3&#45;&gt;Node4 -->
<g id="edge3_Node000003_Node000004" class="edge">
<title>Node3&#45;&gt;Node4</title>
<g id="a_edge3_Node000003_Node000004"><a xlink:title=" ">
<path fill="none" stroke="#63b8ff" d="M113.63,-61.58C104.91,-61.58 96.21,-61.58 88.08,-61.58"/>
<polygon fill="#63b8ff" stroke="#63b8ff" points="113.84,-65.08 123.84,-61.58 113.84,-58.08 113.84,-65.08"/>
</a>
</g>
</g>
<!-- Node6 -->
<g id="Node000006" class="node">
<title>Node6</title>
<g id="a_Node000006"><a xlink:href="cJSON_8c.html#afd5c0b7089e4de2fc9b2af599d4b596f" target="_top" xlink:title=" ">
<polygon fill="white" stroke="#666666" points="549,-34.08 473,-34.08 473,-15.08 549,-15.08 549,-34.08"/>
<text text-anchor="middle" x="511" y="-22.08" font-family="Helvetica,sans-Serif" font-size="10.00">parse_value</text>
</a>
</g>
</g>
<!-- Node5&#45;&gt;Node6 -->
<g id="edge5_Node000005_Node000006" class="edge">
<title>Node5&#45;&gt;Node6</title>
<g id="a_edge5_Node000005_Node000006"><a xlink:title=" ">
<path fill="none" stroke="#63b8ff" d="M574.58,-17.9C566.12,-17.76 557.4,-17.84 549.25,-18.14"/>
<polygon fill="#63b8ff" stroke="#63b8ff" points="574.61,-21.4 584.7,-18.18 574.81,-14.4 574.61,-21.4"/>
</a>
</g>
</g>
<!-- Node6&#45;&gt;Node2 -->
<g id="edge6_Node000006_Node000002" class="edge">
<title>Node6&#45;&gt;Node2</title>
<g id="a_edge6_Node000006_Node000002"><a xlink:title=" ">
<path fill="none" stroke="#63b8ff" d="M464.1,-36.71C455.12,-39.03 445.77,-41.41 437,-43.58 425.61,-46.4 413.24,-49.36 401.83,-52.05"/>
<polygon fill="#63b8ff" stroke="#63b8ff" points="465.23,-40.03 474.03,-34.13 463.47,-33.25 465.23,-40.03"/>
</a>
</g>
</g>
<!-- Node6&#45;&gt;Node5 -->
<g id="edge7_Node000006_Node000005" class="edge">
<title>Node6&#45;&gt;Node5</title>
<g id="a_edge7_Node000006_Node000005"><a xlink:title=" ">
<path fill="none" stroke="#63b8ff" d="M559.42,-31.28C567.9,-31.4 576.6,-31.31 584.7,-30.99"/>
<polygon fill="#63b8ff" stroke="#63b8ff" points="559.34,-27.78 549.25,-31.02 559.16,-34.78 559.34,-27.78"/>
</a>
</g>
</g>
<!-- Node6&#45;&gt;Node7 -->
<g id="edge8_Node000006_Node000007" class="edge">
<title>Node6&#45;&gt;Node7</title>
<g id="a_edge8_Node000006_Node000007"><a xlink:title=" ">
<path fill="none" stroke="#63b8ff" d="M462.61,-18.25C442.16,-17.6 418.55,-17.71 399.19,-18.59"/>
<polygon fill="#63b8ff" stroke="#63b8ff" points="462.53,-21.75 472.66,-18.65 462.81,-14.76 462.53,-21.75"/>
</a>
</g>
</g>
<!-- Node7&#45;&gt;Node6 -->
<g id="edge9_Node000007_Node000006" class="edge">
<title>Node7&#45;&gt;Node6</title>
<g id="a_edge9_Node000007_Node000006"><a xlink:title=" ">
<path fill="none" stroke="#63b8ff" d="M409.33,-30.96C429.92,-31.58 453.5,-31.43 472.66,-30.52"/>
<polygon fill="#63b8ff" stroke="#63b8ff" points="409.31,-27.46 399.19,-30.58 409.05,-34.45 409.31,-27.46"/>
</a>
</g>
</g>
</g>
</svg>
