<?xml version="1.0" encoding="UTF-8" standalone="no"?>
<!DOCTYPE svg PUBLIC "-//W3C//DTD SVG 1.1//EN"
 "http://www.w3.org/Graphics/SVG/1.1/DTD/svg11.dtd">
<!-- Generated by graphviz version 2.43.0 (0)
 -->
<!-- Title: cJSON_AddBoolToObject Pages: 1 -->
<svg width="605pt" height="104pt"
 viewBox="0.00 0.00 605.00 104.00" xmlns="http://www.w3.org/2000/svg" xmlns:xlink="http://www.w3.org/1999/xlink">
<g id="graph0" class="graph" transform="scale(1 1) rotate(0) translate(4 100)">
<title>cJSON_AddBoolToObject</title>
<polygon fill="white" stroke="transparent" points="-4,4 -4,-100 601,-100 601,4 -4,4"/>
<!-- Node1 -->
<g id="node1" class="node">
<title>Node1</title>
<g id="a_node1"><a xlink:title=" ">
<polygon fill="#bfbfbf" stroke="black" points="0,-38.5 0,-57.5 134,-57.5 134,-38.5 0,-38.5"/>
<text text-anchor="middle" x="67" y="-45.5" font-family="Helvetica,sans-Serif" font-size="10.00">cJSON_AddBoolToObject</text>
</a>
</g>
</g>
<!-- Node2 -->
<g id="node2" class="node">
<title>Node2</title>
<g id="a_node2"><a xlink:href="cJSON_8c.html#acc48bef0e1b495898d9489e577b91d5c" target="_top" xlink:title=" ">
<polygon fill="white" stroke="black" points="170,-38.5 170,-57.5 283,-57.5 283,-38.5 170,-38.5"/>
<text text-anchor="middle" x="226.5" y="-45.5" font-family="Helvetica,sans-Serif" font-size="10.00">add_item_to_object</text>
</a>
</g>
</g>
<!-- Node1&#45;&gt;Node2 -->
<g id="edge1" class="edge">
<title>Node1&#45;&gt;Node2</title>
<path fill="none" stroke="midnightblue" d="M134.34,-48C142.71,-48 151.26,-48 159.62,-48"/>
<polygon fill="midnightblue" stroke="midnightblue" points="159.7,-51.5 169.7,-48 159.7,-44.5 159.7,-51.5"/>
</g>
<!-- Node3 -->
<g id="node3" class="node">
<title>Node3</title>
<g id="a_node3"><a xlink:href="cJSON_8c.html#a816d10c908af6be844a1f8277363e2f1" target="_top" xlink:title=" ">
<polygon fill="white" stroke="black" points="319,-76.5 319,-95.5 427,-95.5 427,-76.5 319,-76.5"/>
<text text-anchor="middle" x="373" y="-83.5" font-family="Helvetica,sans-Serif" font-size="10.00">add_item_to_array</text>
</a>
</g>
</g>
<!-- Node2&#45;&gt;Node3 -->
<g id="edge2" class="edge">
<title>Node2&#45;&gt;Node3</title>
<path fill="none" stroke="midnightblue" d="M263.96,-57.59C282.77,-62.54 305.91,-68.62 325.95,-73.89"/>
<polygon fill="midnightblue" stroke="midnightblue" points="325.24,-77.32 335.8,-76.48 327.02,-70.55 325.24,-77.32"/>
</g>
<!-- Node5 -->
<g id="node5" class="node">
<title>Node5</title>
<g id="a_node5"><a xlink:href="cJSON_8c.html#a48223c36735c39cfc4711b0659f966c8" target="_top" xlink:title=" ">
<polygon fill="white" stroke="black" points="323,-38.5 323,-57.5 423,-57.5 423,-38.5 323,-38.5"/>
<text text-anchor="middle" x="373" y="-45.5" font-family="Helvetica,sans-Serif" font-size="10.00">cast_away_const</text>
</a>
</g>
</g>
<!-- Node2&#45;&gt;Node5 -->
<g id="edge4" class="edge">
<title>Node2&#45;&gt;Node5</title>
<path fill="none" stroke="midnightblue" d="M283.37,-48C293.03,-48 303.11,-48 312.86,-48"/>
<polygon fill="midnightblue" stroke="midnightblue" points="312.87,-51.5 322.87,-48 312.87,-44.5 312.87,-51.5"/>
</g>
<!-- Node6 -->
<g id="node6" class="node">
<title>Node6</title>
<g id="a_node6"><a xlink:href="cJSON_8c.html#a5da7bd9b4622e97e7e19c36017410252" target="_top" xlink:title=" ">
<polygon fill="white" stroke="black" points="332,-0.5 332,-19.5 414,-19.5 414,-0.5 332,-0.5"/>
<text text-anchor="middle" x="373" y="-7.5" font-family="Helvetica,sans-Serif" font-size="10.00">cJSON_strdup</text>
</a>
</g>
</g>
<!-- Node2&#45;&gt;Node6 -->
<g id="edge5" class="edge">
<title>Node2&#45;&gt;Node6</title>
<path fill="none" stroke="midnightblue" d="M263.96,-38.41C282.77,-33.46 305.91,-27.38 325.95,-22.11"/>
<polygon fill="midnightblue" stroke="midnightblue" points="327.02,-25.45 335.8,-19.52 325.24,-18.68 327.02,-25.45"/>
</g>
<!-- Node4 -->
<g id="node4" class="node">
<title>Node4</title>
<g id="a_node4"><a xlink:href="cJSON_8c.html#a5d61bcc0045ace88c2ae04f0928eeace" target="_top" xlink:title=" ">
<polygon fill="white" stroke="black" points="490.5,-76.5 490.5,-95.5 569.5,-95.5 569.5,-76.5 490.5,-76.5"/>
<text text-anchor="middle" x="530" y="-83.5" font-family="Helvetica,sans-Serif" font-size="10.00">suffix_object</text>
</a>
</g>
</g>
<!-- Node3&#45;&gt;Node4 -->
<g id="edge3" class="edge">
<title>Node3&#45;&gt;Node4</title>
<path fill="none" stroke="midnightblue" d="M427.34,-86C444.46,-86 463.32,-86 480.1,-86"/>
<polygon fill="midnightblue" stroke="midnightblue" points="480.24,-89.5 490.24,-86 480.24,-82.5 480.24,-89.5"/>
</g>
<!-- Node7 -->
<g id="node7" class="node">
<title>Node7</title>
<g id="a_node7"><a xlink:href="structinternal__hooks.html#a872a0c28217b451331d24b8e0484b293" target="_top" xlink:title=" ">
<polygon fill="white" stroke="black" points="463,-0.5 463,-19.5 597,-19.5 597,-0.5 463,-0.5"/>
<text text-anchor="middle" x="530" y="-7.5" font-family="Helvetica,sans-Serif" font-size="10.00">internal_hooks::allocate</text>
</a>
</g>
</g>
<!-- Node6&#45;&gt;Node7 -->
<g id="edge6" class="edge">
<title>Node6&#45;&gt;Node7</title>
<path fill="none" stroke="midnightblue" d="M414.32,-10C426.11,-10 439.41,-10 452.67,-10"/>
<polygon fill="midnightblue" stroke="midnightblue" points="452.77,-13.5 462.77,-10 452.77,-6.5 452.77,-13.5"/>
</g>
</g>
</svg>
