<?xml version="1.0" encoding="UTF-8" standalone="no"?>
<!DOCTYPE svg PUBLIC "-//W3C//DTD SVG 1.1//EN"
 "http://www.w3.org/Graphics/SVG/1.1/DTD/svg11.dtd">
<!-- Generated by graphviz version 2.43.0 (0)
 -->
<!-- Title: get_object_item Pages: 1 -->
<svg width="519pt" height="146pt"
 viewBox="0.00 0.00 519.00 145.50" xmlns="http://www.w3.org/2000/svg" xmlns:xlink="http://www.w3.org/1999/xlink">
<g id="graph0" class="graph" transform="scale(1 1) rotate(0) translate(4 141.5)">
<title>get_object_item</title>
<!-- Node1 -->
<g id="Node000001" class="node">
<title>Node1</title>
<g id="a_Node000001"><a xlink:title=" ">
<polygon fill="#999999" stroke="#666666" points="511,-82.5 416,-82.5 416,-63.5 511,-63.5 511,-82.5"/>
<text text-anchor="middle" x="463.5" y="-70.5" font-family="Helvetica,sans-Serif" font-size="10.00">get_object_item</text>
</a>
</g>
</g>
<!-- Node2 -->
<g id="Node000002" class="node">
<title>Node2</title>
<g id="a_Node000002"><a xlink:href="cJSON_8c.html#abcf300812688daed48537a559e8838ec" target="_top" xlink:title=" ">
<polygon fill="white" stroke="#666666" points="332,-119.5 237,-119.5 237,-100.5 332,-100.5 332,-119.5"/>
<text text-anchor="middle" x="284.5" y="-107.5" font-family="Helvetica,sans-Serif" font-size="10.00">cJSON_Compare</text>
</a>
</g>
</g>
<!-- Node1&#45;&gt;Node2 -->
<g id="edge1_Node000001_Node000002" class="edge">
<title>Node1&#45;&gt;Node2</title>
<g id="a_edge1_Node000001_Node000002"><a xlink:title=" ">
<path fill="none" stroke="#63b8ff" d="M412.29,-84.89C401.64,-87.32 390.46,-89.8 380,-92 364.47,-95.27 347.46,-98.59 332.19,-101.47"/>
<polygon fill="#63b8ff" stroke="#63b8ff" points="413.32,-88.24 422.28,-82.59 411.75,-81.42 413.32,-88.24"/>
</a>
</g>
</g>
<!-- Node3 -->
<g id="Node000003" class="node">
<title>Node3</title>
<g id="a_Node000003"><a xlink:href="cJSON_8c.html#a02267703c3d44400abbb80ea8c91edb0" target="_top" xlink:title=" ">
<polygon fill="white" stroke="#666666" points="380,-82.5 189,-82.5 189,-63.5 380,-63.5 380,-82.5"/>
<text text-anchor="middle" x="284.5" y="-70.5" font-family="Helvetica,sans-Serif" font-size="10.00">cJSON_GetObjectItemCaseSensitive</text>
</a>
</g>
</g>
<!-- Node1&#45;&gt;Node3 -->
<g id="edge3_Node000001_Node000003" class="edge">
<title>Node1&#45;&gt;Node3</title>
<g id="a_edge3_Node000001_Node000003"><a xlink:title=" ">
<path fill="none" stroke="#63b8ff" d="M405.77,-73C397.5,-73 388.8,-73 380.02,-73"/>
<polygon fill="#63b8ff" stroke="#63b8ff" points="406,-76.5 416,-73 406,-69.5 406,-76.5"/>
</a>
</g>
</g>
<!-- Node4 -->
<g id="Node000004" class="node">
<title>Node4</title>
<g id="a_Node000004"><a xlink:href="cJSON_8c.html#afdae75197cf2c440ef858a2e93b104f2" target="_top" xlink:title=" ">
<polygon fill="white" stroke="#666666" points="349.5,-45.5 219.5,-45.5 219.5,-26.5 349.5,-26.5 349.5,-45.5"/>
<text text-anchor="middle" x="284.5" y="-33.5" font-family="Helvetica,sans-Serif" font-size="10.00">replace_item_in_object</text>
</a>
</g>
</g>
<!-- Node1&#45;&gt;Node4 -->
<g id="edge4_Node000001_Node000004" class="edge">
<title>Node1&#45;&gt;Node4</title>
<g id="a_edge4_Node000001_Node000004"><a xlink:title=" ">
<path fill="none" stroke="#63b8ff" d="M409.3,-61.26C399.56,-59.15 389.48,-56.99 380,-55 364.93,-51.84 348.49,-48.5 333.61,-45.51"/>
<polygon fill="#63b8ff" stroke="#63b8ff" points="408.77,-64.72 419.28,-63.43 410.26,-57.88 408.77,-64.72"/>
</a>
</g>
</g>
<!-- Node2&#45;&gt;Node2 -->
<g id="edge2_Node000002_Node000002" class="edge">
<title>Node2&#45;&gt;Node2</title>
<g id="a_edge2_Node000002_Node000002"><a xlink:title=" ">
<path fill="none" stroke="#63b8ff" d="M317.81,-127.95C316.86,-133.32 305.76,-137.5 284.5,-137.5 252.86,-137.5 243.72,-128.23 257.07,-119.58"/>
<polygon fill="#63b8ff" stroke="#63b8ff" points="320.55,-125.76 311.93,-119.58 314.82,-129.78 320.55,-125.76"/>
</a>
</g>
</g>
<!-- Node5 -->
<g id="Node000005" class="node">
<title>Node5</title>
<g id="a_Node000005"><a xlink:href="cJSON_8c.html#ae8335f21a2f78d63c854c002f09f96dc" target="_top" xlink:title=" ">
<polygon fill="white" stroke="#666666" points="153,-67.5 0,-67.5 0,-48.5 153,-48.5 153,-67.5"/>
<text text-anchor="middle" x="76.5" y="-55.5" font-family="Helvetica,sans-Serif" font-size="10.00">cJSON_ReplaceItemInObject</text>
</a>
</g>
</g>
<!-- Node4&#45;&gt;Node5 -->
<g id="edge5_Node000004_Node000005" class="edge">
<title>Node4&#45;&gt;Node5</title>
<g id="a_edge5_Node000004_Node000005"><a xlink:title=" ">
<path fill="none" stroke="#63b8ff" d="M209.43,-43.91C191.11,-45.87 171.46,-47.97 153.07,-49.93"/>
<polygon fill="#63b8ff" stroke="#63b8ff" points="209.88,-47.38 219.45,-42.84 209.13,-40.42 209.88,-47.38"/>
</a>
</g>
</g>
<!-- Node6 -->
<g id="Node000006" class="node">
<title>Node6</title>
<g id="a_Node000006"><a xlink:href="cJSON_8c.html#acbcada89e12f21f1d0f2e296d93130dc" target="_top" xlink:title=" ">
<polygon fill="white" stroke="#666666" points="153,-30 0,-30 0,0 153,0 153,-30"/>
<text text-anchor="start" x="8" y="-18" font-family="Helvetica,sans-Serif" font-size="10.00">cJSON_ReplaceItemInObject</text>
<text text-anchor="middle" x="76.5" y="-7" font-family="Helvetica,sans-Serif" font-size="10.00">CaseSensitive</text>
</a>
</g>
</g>
<!-- Node4&#45;&gt;Node6 -->
<g id="edge6_Node000004_Node000006" class="edge">
<title>Node4&#45;&gt;Node6</title>
<g id="a_edge6_Node000004_Node000006"><a xlink:title=" ">
<path fill="none" stroke="#63b8ff" d="M209.43,-28.45C191.11,-26.58 171.46,-24.58 153.07,-22.7"/>
<polygon fill="#63b8ff" stroke="#63b8ff" points="209.15,-31.94 219.45,-29.47 209.86,-24.97 209.15,-31.94"/>
</a>
</g>
</g>
</g>
</svg>
