<?xml version="1.0" encoding="UTF-8" standalone="no"?>
<!DOCTYPE svg PUBLIC "-//W3C//DTD SVG 1.1//EN"
 "http://www.w3.org/Graphics/SVG/1.1/DTD/svg11.dtd">
<!-- Generated by graphviz version 2.43.0 (0)
 -->
<!-- Title: CJSON_PUBLIC Pages: 1 -->
<svg width="1138pt" height="239pt"
 viewBox="0.00 0.00 1138.00 238.96" xmlns="http://www.w3.org/2000/svg" xmlns:xlink="http://www.w3.org/1999/xlink">
<g id="graph0" class="graph" transform="scale(1 1) rotate(0) translate(4 234.96)">
<title>CJSON_PUBLIC</title>
<polygon fill="white" stroke="transparent" points="-4,4 -4,-234.96 1134,-234.96 1134,4 -4,4"/>
<!-- Node1 -->
<g id="node1" class="node">
<title>Node1</title>
<g id="a_node1"><a xlink:title=" ">
<polygon fill="#bfbfbf" stroke="black" points="0,-76.5 0,-95.5 88,-95.5 88,-76.5 0,-76.5"/>
<text text-anchor="middle" x="44" y="-83.5" font-family="Helvetica,sans-Serif" font-size="10.00">CJSON_PUBLIC</text>
</a>
</g>
</g>
<!-- Node2 -->
<g id="node2" class="node">
<title>Node2</title>
<g id="a_node2"><a xlink:href="cJSON_8c.html#adfabd5d09c2cf0a2f051c47650db6e80" target="_top" xlink:title=" ">
<polygon fill="white" stroke="black" points="124,-76.5 124,-95.5 246,-95.5 246,-76.5 124,-76.5"/>
<text text-anchor="middle" x="185" y="-83.5" font-family="Helvetica,sans-Serif" font-size="10.00">cJSON_ParseWithOpts</text>
</a>
</g>
</g>
<!-- Node1&#45;&gt;Node2 -->
<g id="edge1" class="edge">
<title>Node1&#45;&gt;Node2</title>
<path fill="none" stroke="midnightblue" d="M88.22,-86C96.35,-86 105.05,-86 113.76,-86"/>
<polygon fill="midnightblue" stroke="midnightblue" points="113.96,-89.5 123.96,-86 113.96,-82.5 113.96,-89.5"/>
</g>
<!-- Node3 -->
<g id="node3" class="node">
<title>Node3</title>
<g id="a_node3"><a xlink:href="cJSON_8c.html#a3a24e49a04490273160cdc1f30f10d22" target="_top" xlink:title=" ">
<polygon fill="white" stroke="black" points="282,-76.5 282,-95.5 437,-95.5 437,-76.5 282,-76.5"/>
<text text-anchor="middle" x="359.5" y="-83.5" font-family="Helvetica,sans-Serif" font-size="10.00">cJSON_ParseWithLengthOpts</text>
</a>
</g>
</g>
<!-- Node2&#45;&gt;Node3 -->
<g id="edge2" class="edge">
<title>Node2&#45;&gt;Node3</title>
<path fill="none" stroke="midnightblue" d="M246.33,-86C254.57,-86 263.16,-86 271.75,-86"/>
<polygon fill="midnightblue" stroke="midnightblue" points="271.83,-89.5 281.83,-86 271.83,-82.5 271.83,-89.5"/>
</g>
<!-- Node4 -->
<g id="node4" class="node">
<title>Node4</title>
<g id="a_node4"><a xlink:href="cJSON_8c.html#a029a2c33fa2744a7cc5cf061f28d2cfc" target="_top" xlink:title=" ">
<polygon fill="white" stroke="black" points="720,-114.5 720,-133.5 851,-133.5 851,-114.5 720,-114.5"/>
<text text-anchor="middle" x="785.5" y="-121.5" font-family="Helvetica,sans-Serif" font-size="10.00">buffer_skip_whitespace</text>
</a>
</g>
</g>
<!-- Node3&#45;&gt;Node4 -->
<g id="edge3" class="edge">
<title>Node3&#45;&gt;Node4</title>
<path fill="none" stroke="midnightblue" d="M372.39,-95.66C405.55,-121.89 502.89,-194.18 598,-219 634.98,-228.65 651.7,-239.44 684,-219 715.58,-199.01 691.59,-167.29 720,-143 721.98,-141.31 724.1,-139.77 726.33,-138.36"/>
<polygon fill="midnightblue" stroke="midnightblue" points="728.15,-141.36 735.36,-133.59 724.89,-135.17 728.15,-141.36"/>
</g>
<!-- Node5 -->
<g id="node5" class="node">
<title>Node5</title>
<g id="a_node5"><a xlink:href="cJSON_8c.html#a8f447c625af025c35d0ec59032ad6473" target="_top" xlink:title=" ">
<polygon fill="white" stroke="black" points="735,-76.5 735,-95.5 836,-95.5 836,-76.5 735,-76.5"/>
<text text-anchor="middle" x="785.5" y="-83.5" font-family="Helvetica,sans-Serif" font-size="10.00">cJSON_New_Item</text>
</a>
</g>
</g>
<!-- Node3&#45;&gt;Node5 -->
<g id="edge4" class="edge">
<title>Node3&#45;&gt;Node5</title>
<path fill="none" stroke="midnightblue" d="M424.74,-76.48C490.09,-68.15 594.24,-58.59 684,-67 700.24,-68.52 717.77,-71.4 733.57,-74.46"/>
<polygon fill="midnightblue" stroke="midnightblue" points="733.18,-77.95 743.67,-76.49 734.56,-71.09 733.18,-77.95"/>
</g>
<!-- Node7 -->
<g id="node7" class="node">
<title>Node7</title>
<g id="a_node7"><a xlink:href="cJSON_8c.html#afd5c0b7089e4de2fc9b2af599d4b596f" target="_top" xlink:title=" ">
<polygon fill="white" stroke="black" points="479.5,-114.5 479.5,-133.5 555.5,-133.5 555.5,-114.5 479.5,-114.5"/>
<text text-anchor="middle" x="517.5" y="-121.5" font-family="Helvetica,sans-Serif" font-size="10.00">parse_value</text>
</a>
</g>
</g>
<!-- Node3&#45;&gt;Node7 -->
<g id="edge6" class="edge">
<title>Node3&#45;&gt;Node7</title>
<path fill="none" stroke="midnightblue" d="M399.87,-95.59C421,-100.74 447.2,-107.12 469.4,-112.53"/>
<polygon fill="midnightblue" stroke="midnightblue" points="468.75,-115.97 479.3,-114.94 470.41,-109.17 468.75,-115.97"/>
</g>
<!-- Node15 -->
<g id="node15" class="node">
<title>Node15</title>
<g id="a_node15"><a xlink:href="cJSON_8c.html#a13b2d9f17c3b80a8878405f2782cd916" target="_top" xlink:title=" ">
<polygon fill="white" stroke="black" points="473,-0.5 473,-19.5 562,-19.5 562,-0.5 473,-0.5"/>
<text text-anchor="middle" x="517.5" y="-7.5" font-family="Helvetica,sans-Serif" font-size="10.00">skip_utf8_bom</text>
</a>
</g>
</g>
<!-- Node3&#45;&gt;Node15 -->
<g id="edge22" class="edge">
<title>Node3&#45;&gt;Node15</title>
<path fill="none" stroke="midnightblue" d="M380.26,-76.37C407.45,-63.13 456.59,-39.19 487.83,-23.97"/>
<polygon fill="midnightblue" stroke="midnightblue" points="489.45,-27.07 496.9,-19.55 486.38,-20.78 489.45,-27.07"/>
</g>
<!-- Node6 -->
<g id="node6" class="node">
<title>Node6</title>
<g id="a_node6"><a xlink:href="structinternal__hooks.html#a872a0c28217b451331d24b8e0484b293" target="_top" xlink:title=" ">
<polygon fill="white" stroke="black" points="887,-95.5 887,-114.5 1021,-114.5 1021,-95.5 887,-95.5"/>
<text text-anchor="middle" x="954" y="-102.5" font-family="Helvetica,sans-Serif" font-size="10.00">internal_hooks::allocate</text>
</a>
</g>
</g>
<!-- Node5&#45;&gt;Node6 -->
<g id="edge5" class="edge">
<title>Node5&#45;&gt;Node6</title>
<path fill="none" stroke="midnightblue" d="M836,-91.65C848.81,-93.11 862.9,-94.72 876.72,-96.3"/>
<polygon fill="midnightblue" stroke="midnightblue" points="876.39,-99.78 886.73,-97.44 877.19,-92.83 876.39,-99.78"/>
</g>
<!-- Node8 -->
<g id="node8" class="node">
<title>Node8</title>
<g id="a_node8"><a xlink:href="cJSON_8c.html#a367cc7ac5a592211d9f18dc02dd23069" target="_top" xlink:title=" ">
<polygon fill="white" stroke="black" points="604,-76.5 604,-95.5 678,-95.5 678,-76.5 604,-76.5"/>
<text text-anchor="middle" x="641" y="-83.5" font-family="Helvetica,sans-Serif" font-size="10.00">parse_array</text>
</a>
</g>
</g>
<!-- Node7&#45;&gt;Node8 -->
<g id="edge7" class="edge">
<title>Node7&#45;&gt;Node8</title>
<path fill="none" stroke="midnightblue" d="M534.38,-114.3C549.54,-107.81 573.13,-99.82 594.16,-93.77"/>
<polygon fill="midnightblue" stroke="midnightblue" points="595.23,-97.11 603.92,-91.05 593.35,-90.36 595.23,-97.11"/>
</g>
<!-- Node9 -->
<g id="node9" class="node">
<title>Node9</title>
<g id="a_node9"><a xlink:href="cJSON_8c.html#a699e1cebda71c2846a9a10b29b4dc407" target="_top" xlink:title=" ">
<polygon fill="white" stroke="black" points="598,-190.5 598,-209.5 684,-209.5 684,-190.5 598,-190.5"/>
<text text-anchor="middle" x="641" y="-197.5" font-family="Helvetica,sans-Serif" font-size="10.00">parse_number</text>
</a>
</g>
</g>
<!-- Node7&#45;&gt;Node9 -->
<g id="edge11" class="edge">
<title>Node7&#45;&gt;Node9</title>
<path fill="none" stroke="midnightblue" d="M532.7,-133.66C548.47,-144.3 574.79,-161.8 598,-176 603.01,-179.07 608.43,-182.25 613.64,-185.26"/>
<polygon fill="midnightblue" stroke="midnightblue" points="612.28,-188.51 622.7,-190.42 615.74,-182.43 612.28,-188.51"/>
</g>
<!-- Node11 -->
<g id="node11" class="node">
<title>Node11</title>
<g id="a_node11"><a xlink:href="cJSON_8c.html#a1472ac5d1becd7d9a5e558b4c053b06a" target="_top" xlink:title=" ">
<polygon fill="white" stroke="black" points="601.5,-114.5 601.5,-133.5 680.5,-133.5 680.5,-114.5 601.5,-114.5"/>
<text text-anchor="middle" x="641" y="-121.5" font-family="Helvetica,sans-Serif" font-size="10.00">parse_object</text>
</a>
</g>
</g>
<!-- Node7&#45;&gt;Node11 -->
<g id="edge13" class="edge">
<title>Node7&#45;&gt;Node11</title>
<path fill="none" stroke="midnightblue" d="M555.61,-117.73C566.84,-117.25 579.34,-117.13 591.21,-117.37"/>
<polygon fill="midnightblue" stroke="midnightblue" points="591.33,-120.87 601.43,-117.67 591.54,-113.88 591.33,-120.87"/>
</g>
<!-- Node12 -->
<g id="node12" class="node">
<title>Node12</title>
<g id="a_node12"><a xlink:href="cJSON_8c.html#adf47b520af96d1bbefa2390016fbdb51" target="_top" xlink:title=" ">
<polygon fill="white" stroke="black" points="747,-152.5 747,-171.5 824,-171.5 824,-152.5 747,-152.5"/>
<text text-anchor="middle" x="785.5" y="-159.5" font-family="Helvetica,sans-Serif" font-size="10.00">parse_string</text>
</a>
</g>
</g>
<!-- Node7&#45;&gt;Node12 -->
<g id="edge21" class="edge">
<title>Node7&#45;&gt;Node12</title>
<path fill="none" stroke="midnightblue" d="M553.91,-133.53C567.6,-136.93 583.45,-140.53 598,-143 644.78,-150.94 698.77,-156 736.58,-158.88"/>
<polygon fill="midnightblue" stroke="midnightblue" points="736.56,-162.39 746.79,-159.64 737.08,-155.41 736.56,-162.39"/>
</g>
<!-- Node8&#45;&gt;Node4 -->
<g id="edge8" class="edge">
<title>Node8&#45;&gt;Node4</title>
<path fill="none" stroke="midnightblue" d="M677.96,-95.59C696.44,-100.52 719.16,-106.57 738.86,-111.83"/>
<polygon fill="midnightblue" stroke="midnightblue" points="737.99,-115.22 748.55,-114.41 739.79,-108.46 737.99,-115.22"/>
</g>
<!-- Node8&#45;&gt;Node5 -->
<g id="edge9" class="edge">
<title>Node8&#45;&gt;Node5</title>
<path fill="none" stroke="midnightblue" d="M678.33,-86C692.4,-86 708.88,-86 724.61,-86"/>
<polygon fill="midnightblue" stroke="midnightblue" points="724.8,-89.5 734.8,-86 724.8,-82.5 724.8,-89.5"/>
</g>
<!-- Node8&#45;&gt;Node7 -->
<g id="edge10" class="edge">
<title>Node8&#45;&gt;Node7</title>
<path fill="none" stroke="midnightblue" d="M624.32,-95.61C609.4,-102.02 586.2,-109.9 565.32,-115.95"/>
<polygon fill="midnightblue" stroke="midnightblue" points="564.3,-112.6 555.61,-118.67 566.19,-119.34 564.3,-112.6"/>
</g>
<!-- Node10 -->
<g id="node10" class="node">
<title>Node10</title>
<g id="a_node10"><a xlink:href="cJSON_8c.html#ab25412ae56c8c594831918169bea100d" target="_top" xlink:title=" ">
<polygon fill="white" stroke="black" points="732,-190.5 732,-209.5 839,-209.5 839,-190.5 732,-190.5"/>
<text text-anchor="middle" x="785.5" y="-197.5" font-family="Helvetica,sans-Serif" font-size="10.00">get_decimal_point</text>
</a>
</g>
</g>
<!-- Node9&#45;&gt;Node10 -->
<g id="edge12" class="edge">
<title>Node9&#45;&gt;Node10</title>
<path fill="none" stroke="midnightblue" d="M684.37,-200C696.15,-200 709.2,-200 721.88,-200"/>
<polygon fill="midnightblue" stroke="midnightblue" points="721.94,-203.5 731.94,-200 721.94,-196.5 721.94,-203.5"/>
</g>
<!-- Node11&#45;&gt;Node4 -->
<g id="edge14" class="edge">
<title>Node11&#45;&gt;Node4</title>
<path fill="none" stroke="midnightblue" d="M680.56,-124C689.65,-124 699.64,-124 709.73,-124"/>
<polygon fill="midnightblue" stroke="midnightblue" points="709.82,-127.5 719.82,-124 709.82,-120.5 709.82,-127.5"/>
</g>
<!-- Node11&#45;&gt;Node5 -->
<g id="edge15" class="edge">
<title>Node11&#45;&gt;Node5</title>
<path fill="none" stroke="midnightblue" d="M677.96,-114.41C696.44,-109.48 719.16,-103.43 738.86,-98.17"/>
<polygon fill="midnightblue" stroke="midnightblue" points="739.79,-101.54 748.55,-95.59 737.99,-94.78 739.79,-101.54"/>
</g>
<!-- Node11&#45;&gt;Node7 -->
<g id="edge20" class="edge">
<title>Node11&#45;&gt;Node7</title>
<path fill="none" stroke="midnightblue" d="M601.43,-130.33C590.1,-130.78 577.57,-130.87 565.76,-130.6"/>
<polygon fill="midnightblue" stroke="midnightblue" points="565.72,-127.1 555.61,-130.27 565.5,-134.09 565.72,-127.1"/>
</g>
<!-- Node11&#45;&gt;Node12 -->
<g id="edge16" class="edge">
<title>Node11&#45;&gt;Node12</title>
<path fill="none" stroke="midnightblue" d="M677.96,-133.59C696.44,-138.52 719.16,-144.57 738.86,-149.83"/>
<polygon fill="midnightblue" stroke="midnightblue" points="737.99,-153.22 748.55,-152.41 739.79,-146.46 737.99,-153.22"/>
</g>
<!-- Node12&#45;&gt;Node6 -->
<g id="edge17" class="edge">
<title>Node12&#45;&gt;Node6</title>
<path fill="none" stroke="midnightblue" d="M820.45,-152.48C830.34,-149.58 841.14,-146.28 851,-143 874.01,-135.34 899.58,-125.81 919.36,-118.21"/>
<polygon fill="midnightblue" stroke="midnightblue" points="920.79,-121.41 928.85,-114.54 918.26,-114.88 920.79,-121.41"/>
</g>
<!-- Node13 -->
<g id="node13" class="node">
<title>Node13</title>
<g id="a_node13"><a xlink:href="cJSON_8c.html#a0e2851b1b595b3b430fd186e7deaf987" target="_top" xlink:title=" ">
<polygon fill="white" stroke="black" points="896,-152.5 896,-171.5 1012,-171.5 1012,-152.5 896,-152.5"/>
<text text-anchor="middle" x="954" y="-159.5" font-family="Helvetica,sans-Serif" font-size="10.00">utf16_literal_to_utf8</text>
</a>
</g>
</g>
<!-- Node12&#45;&gt;Node13 -->
<g id="edge18" class="edge">
<title>Node12&#45;&gt;Node13</title>
<path fill="none" stroke="midnightblue" d="M824.28,-162C842.42,-162 864.72,-162 885.62,-162"/>
<polygon fill="midnightblue" stroke="midnightblue" points="885.75,-165.5 895.75,-162 885.75,-158.5 885.75,-165.5"/>
</g>
<!-- Node14 -->
<g id="node14" class="node">
<title>Node14</title>
<g id="a_node14"><a xlink:href="cJSON_8c.html#a1aa736fdc6ba20c7d46622d20766e916" target="_top" xlink:title=" ">
<polygon fill="white" stroke="black" points="1057,-152.5 1057,-171.5 1130,-171.5 1130,-152.5 1057,-152.5"/>
<text text-anchor="middle" x="1093.5" y="-159.5" font-family="Helvetica,sans-Serif" font-size="10.00">parse_hex4</text>
</a>
</g>
</g>
<!-- Node13&#45;&gt;Node14 -->
<g id="edge19" class="edge">
<title>Node13&#45;&gt;Node14</title>
<path fill="none" stroke="midnightblue" d="M1012.12,-162C1023.64,-162 1035.6,-162 1046.68,-162"/>
<polygon fill="midnightblue" stroke="midnightblue" points="1046.97,-165.5 1056.97,-162 1046.97,-158.5 1046.97,-165.5"/>
</g>
</g>
</svg>
