<?xml version="1.0" encoding="UTF-8" standalone="no"?>
<!DOCTYPE svg PUBLIC "-//W3C//DTD SVG 1.1//EN"
 "http://www.w3.org/Graphics/SVG/1.1/DTD/svg11.dtd">
<!-- Generated by graphviz version 2.43.0 (0)
 -->
<!-- Title: parse_value Pages: 1 -->
<svg width="652pt" height="140pt"
 viewBox="0.00 0.00 652.00 140.00" xmlns="http://www.w3.org/2000/svg" xmlns:xlink="http://www.w3.org/1999/xlink">
<g id="graph0" class="graph" transform="scale(1 1) rotate(0) translate(4 136)">
<title>parse_value</title>
<!-- Node1 -->
<g id="Node000001" class="node">
<title>Node1</title>
<g id="a_Node000001"><a xlink:title=" ">
<polygon fill="#999999" stroke="#666666" points="76,-95 0,-95 0,-76 76,-76 76,-95"/>
<text text-anchor="middle" x="38" y="-83" font-family="Helvetica,sans-Serif" font-size="10.00">parse_value</text>
</a>
</g>
</g>
<!-- Node2 -->
<g id="Node000002" class="node">
<title>Node2</title>
<g id="a_Node000002"><a xlink:href="cJSON_8c.html#a367cc7ac5a592211d9f18dc02dd23069" target="_top" xlink:title=" ">
<polygon fill="white" stroke="#666666" points="192,-132 118,-132 118,-113 192,-113 192,-132"/>
<text text-anchor="middle" x="155" y="-120" font-family="Helvetica,sans-Serif" font-size="10.00">parse_array</text>
</a>
</g>
</g>
<!-- Node1&#45;&gt;Node2 -->
<g id="edge1_Node000001_Node000002" class="edge">
<title>Node1&#45;&gt;Node2</title>
<g id="a_edge1_Node000001_Node000002"><a xlink:title=" ">
<path fill="none" stroke="#63b8ff" d="M76.02,-91.06C93.58,-96 114.07,-102.83 129.64,-109.03"/>
<polygon fill="#63b8ff" stroke="#63b8ff" points="128.5,-112.35 139.08,-112.98 131.21,-105.89 128.5,-112.35"/>
</a>
</g>
</g>
<!-- Node6 -->
<g id="Node000006" class="node">
<title>Node6</title>
<g id="a_Node000006"><a xlink:href="cJSON_8c.html#a699e1cebda71c2846a9a10b29b4dc407" target="_top" xlink:title=" ">
<polygon fill="white" stroke="#666666" points="198,-19 112,-19 112,0 198,0 198,-19"/>
<text text-anchor="middle" x="155" y="-7" font-family="Helvetica,sans-Serif" font-size="10.00">parse_number</text>
</a>
</g>
</g>
<!-- Node1&#45;&gt;Node6 -->
<g id="edge6_Node000001_Node000006" class="edge">
<title>Node1&#45;&gt;Node6</title>
<g id="a_edge6_Node000001_Node000006"><a xlink:title=" ">
<path fill="none" stroke="#63b8ff" d="M51.66,-75.9C66.01,-65.15 90.24,-47.42 112,-33.5 116.86,-30.39 122.14,-27.22 127.27,-24.24"/>
<polygon fill="#63b8ff" stroke="#63b8ff" points="129.24,-27.15 136.19,-19.16 125.77,-21.07 129.24,-27.15"/>
</a>
</g>
</g>
<!-- Node8 -->
<g id="Node000008" class="node">
<title>Node8</title>
<g id="a_Node000008"><a xlink:href="cJSON_8c.html#a1472ac5d1becd7d9a5e558b4c053b06a" target="_top" xlink:title=" ">
<polygon fill="white" stroke="#666666" points="194.5,-95 115.5,-95 115.5,-76 194.5,-76 194.5,-95"/>
<text text-anchor="middle" x="155" y="-83" font-family="Helvetica,sans-Serif" font-size="10.00">parse_object</text>
</a>
</g>
</g>
<!-- Node1&#45;&gt;Node8 -->
<g id="edge8_Node000001_Node000008" class="edge">
<title>Node1&#45;&gt;Node8</title>
<g id="a_edge8_Node000001_Node000008"><a xlink:title=" ">
<path fill="none" stroke="#63b8ff" d="M76.02,-79.15C85.38,-78.77 95.57,-78.66 105.4,-78.82"/>
<polygon fill="#63b8ff" stroke="#63b8ff" points="105.38,-82.32 115.47,-79.09 105.56,-75.33 105.38,-82.32"/>
</a>
</g>
</g>
<!-- Node9 -->
<g id="Node000009" class="node">
<title>Node9</title>
<g id="a_Node000009"><a xlink:href="cJSON_8c.html#adf47b520af96d1bbefa2390016fbdb51" target="_top" xlink:title=" ">
<polygon fill="white" stroke="#666666" points="338,-58 261,-58 261,-39 338,-39 338,-58"/>
<text text-anchor="middle" x="299.5" y="-46" font-family="Helvetica,sans-Serif" font-size="10.00">parse_string</text>
</a>
</g>
</g>
<!-- Node1&#45;&gt;Node9 -->
<g id="edge16_Node000001_Node000009" class="edge">
<title>Node1&#45;&gt;Node9</title>
<g id="a_edge16_Node000001_Node000009"><a xlink:title=" ">
<path fill="none" stroke="#63b8ff" d="M73.33,-75.98C85.47,-72.9 99.27,-69.71 112,-67.5 158.75,-59.4 212.74,-54.36 250.56,-51.53"/>
<polygon fill="#63b8ff" stroke="#63b8ff" points="251.06,-55 260.78,-50.78 250.55,-48.02 251.06,-55"/>
</a>
</g>
</g>
<!-- Node2&#45;&gt;Node1 -->
<g id="edge5_Node000002_Node000001" class="edge">
<title>Node2&#45;&gt;Node1</title>
<g id="a_edge5_Node000002_Node000001"><a xlink:title=" ">
<path fill="none" stroke="#63b8ff" d="M117.67,-117.14C100.04,-112.2 79.33,-105.31 63.58,-99.06"/>
<polygon fill="#63b8ff" stroke="#63b8ff" points="64.61,-95.7 54.03,-95.07 61.91,-102.15 64.61,-95.7"/>
</a>
</g>
</g>
<!-- Node3 -->
<g id="Node000003" class="node">
<title>Node3</title>
<g id="a_Node000003"><a xlink:href="cJSON_8c.html#a0a9c3a7f6f01d4a8d9c552fa82274b4b" target="_top" xlink:title=" ">
<polygon fill="white" stroke="#666666" points="365,-132 234,-132 234,-113 365,-113 365,-132"/>
<text text-anchor="middle" x="299.5" y="-120" font-family="Helvetica,sans-Serif" font-size="10.00">buffer_skip_whitespace</text>
</a>
</g>
</g>
<!-- Node2&#45;&gt;Node3 -->
<g id="edge2_Node000002_Node000003" class="edge">
<title>Node2&#45;&gt;Node3</title>
<g id="a_edge2_Node000002_Node000003"><a xlink:title=" ">
<path fill="none" stroke="#63b8ff" d="M192.33,-122.5C202.05,-122.5 212.93,-122.5 223.91,-122.5"/>
<polygon fill="#63b8ff" stroke="#63b8ff" points="223.99,-126 233.99,-122.5 223.99,-119 223.99,-126"/>
</a>
</g>
</g>
<!-- Node4 -->
<g id="Node000004" class="node">
<title>Node4</title>
<g id="a_Node000004"><a xlink:href="cJSON_8c.html#aa05c1f56de8779ae1584c525cc81aeb5" target="_top" xlink:title=" ">
<polygon fill="white" stroke="#666666" points="350,-95 249,-95 249,-76 350,-76 350,-95"/>
<text text-anchor="middle" x="299.5" y="-83" font-family="Helvetica,sans-Serif" font-size="10.00">cJSON_New_Item</text>
</a>
</g>
</g>
<!-- Node2&#45;&gt;Node4 -->
<g id="edge3_Node000002_Node000004" class="edge">
<title>Node2&#45;&gt;Node4</title>
<g id="a_edge3_Node000002_Node000004"><a xlink:title=" ">
<path fill="none" stroke="#63b8ff" d="M192.33,-113.07C210.44,-108.36 232.56,-102.62 251.91,-97.6"/>
<polygon fill="#63b8ff" stroke="#63b8ff" points="252.94,-100.94 261.74,-95.04 251.18,-94.17 252.94,-100.94"/>
</a>
</g>
</g>
<!-- Node5 -->
<g id="Node000005" class="node">
<title>Node5</title>
<g id="a_Node000005"><a xlink:href="structinternal__hooks.html#a8b8f7ff45faa5da18dd3ccd2a2c8e416" target="_top" xlink:title=" ">
<polygon fill="white" stroke="#666666" points="535,-95 401,-95 401,-76 535,-76 535,-95"/>
<text text-anchor="middle" x="468" y="-83" font-family="Helvetica,sans-Serif" font-size="10.00">internal_hooks::allocate</text>
</a>
</g>
</g>
<!-- Node4&#45;&gt;Node5 -->
<g id="edge4_Node000004_Node000005" class="edge">
<title>Node4&#45;&gt;Node5</title>
<g id="a_edge4_Node000004_Node000005"><a xlink:title=" ">
<path fill="none" stroke="#63b8ff" d="M350,-85.5C362.81,-85.5 376.9,-85.5 390.72,-85.5"/>
<polygon fill="#63b8ff" stroke="#63b8ff" points="390.73,-89 400.73,-85.5 390.73,-82 390.73,-89"/>
</a>
</g>
</g>
<!-- Node7 -->
<g id="Node000007" class="node">
<title>Node7</title>
<g id="a_Node000007"><a xlink:href="cJSON_8c.html#ab25412ae56c8c594831918169bea100d" target="_top" xlink:title=" ">
<polygon fill="white" stroke="#666666" points="353,-19 246,-19 246,0 353,0 353,-19"/>
<text text-anchor="middle" x="299.5" y="-7" font-family="Helvetica,sans-Serif" font-size="10.00">get_decimal_point</text>
</a>
</g>
</g>
<!-- Node6&#45;&gt;Node7 -->
<g id="edge7_Node000006_Node000007" class="edge">
<title>Node6&#45;&gt;Node7</title>
<g id="a_edge7_Node000006_Node000007"><a xlink:title=" ">
<path fill="none" stroke="#63b8ff" d="M198.37,-9.5C210.15,-9.5 223.2,-9.5 235.88,-9.5"/>
<polygon fill="#63b8ff" stroke="#63b8ff" points="235.94,-13 245.94,-9.5 235.94,-6 235.94,-13"/>
</a>
</g>
</g>
<!-- Node8&#45;&gt;Node1 -->
<g id="edge15_Node000008_Node000001" class="edge">
<title>Node8&#45;&gt;Node1</title>
<g id="a_edge15_Node000008_Node000001"><a xlink:title=" ">
<path fill="none" stroke="#63b8ff" d="M115.47,-91.91C106.02,-92.26 95.81,-92.34 86.02,-92.15"/>
<polygon fill="#63b8ff" stroke="#63b8ff" points="86.12,-88.65 76.02,-91.85 85.91,-95.65 86.12,-88.65"/>
</a>
</g>
</g>
<!-- Node8&#45;&gt;Node3 -->
<g id="edge9_Node000008_Node000003" class="edge">
<title>Node8&#45;&gt;Node3</title>
<g id="a_edge9_Node000008_Node000003"><a xlink:title=" ">
<path fill="none" stroke="#63b8ff" d="M192.7,-95.03C210.67,-99.7 232.52,-105.37 251.69,-110.35"/>
<polygon fill="#63b8ff" stroke="#63b8ff" points="250.87,-113.75 261.43,-112.88 252.63,-106.97 250.87,-113.75"/>
</a>
</g>
</g>
<!-- Node8&#45;&gt;Node4 -->
<g id="edge10_Node000008_Node000004" class="edge">
<title>Node8&#45;&gt;Node4</title>
<g id="a_edge10_Node000008_Node000004"><a xlink:title=" ">
<path fill="none" stroke="#63b8ff" d="M194.56,-85.5C208.16,-85.5 223.78,-85.5 238.71,-85.5"/>
<polygon fill="#63b8ff" stroke="#63b8ff" points="238.91,-89 248.91,-85.5 238.91,-82 238.91,-89"/>
</a>
</g>
</g>
<!-- Node8&#45;&gt;Node9 -->
<g id="edge11_Node000008_Node000009" class="edge">
<title>Node8&#45;&gt;Node9</title>
<g id="a_edge11_Node000008_Node000009"><a xlink:title=" ">
<path fill="none" stroke="#63b8ff" d="M192.7,-75.97C210.67,-71.3 232.52,-65.63 251.69,-60.65"/>
<polygon fill="#63b8ff" stroke="#63b8ff" points="252.63,-64.03 261.43,-58.12 250.87,-57.25 252.63,-64.03"/>
</a>
</g>
</g>
<!-- Node9&#45;&gt;Node5 -->
<g id="edge12_Node000009_Node000005" class="edge">
<title>Node9&#45;&gt;Node5</title>
<g id="a_edge12_Node000009_Node000005"><a xlink:title=" ">
<path fill="none" stroke="#63b8ff" d="M338.28,-56.9C360.71,-61.88 389.5,-68.28 414.16,-73.76"/>
<polygon fill="#63b8ff" stroke="#63b8ff" points="413.56,-77.21 424.08,-75.96 415.08,-70.38 413.56,-77.21"/>
</a>
</g>
</g>
<!-- Node10 -->
<g id="Node000010" class="node">
<title>Node10</title>
<g id="a_Node000010"><a xlink:href="cJSON_8c.html#a0e2851b1b595b3b430fd186e7deaf987" target="_top" xlink:title=" ">
<polygon fill="white" stroke="#666666" points="526,-58 410,-58 410,-39 526,-39 526,-58"/>
<text text-anchor="middle" x="468" y="-46" font-family="Helvetica,sans-Serif" font-size="10.00">utf16_literal_to_utf8</text>
</a>
</g>
</g>
<!-- Node9&#45;&gt;Node10 -->
<g id="edge13_Node000009_Node000010" class="edge">
<title>Node9&#45;&gt;Node10</title>
<g id="a_edge13_Node000009_Node000010"><a xlink:title=" ">
<path fill="none" stroke="#63b8ff" d="M338.28,-48.5C356.42,-48.5 378.72,-48.5 399.62,-48.5"/>
<polygon fill="#63b8ff" stroke="#63b8ff" points="399.75,-52 409.75,-48.5 399.75,-45 399.75,-52"/>
</a>
</g>
</g>
<!-- Node11 -->
<g id="Node000011" class="node">
<title>Node11</title>
<g id="a_Node000011"><a xlink:href="cJSON_8c.html#a1aa736fdc6ba20c7d46622d20766e916" target="_top" xlink:title=" ">
<polygon fill="white" stroke="#666666" points="644,-58 571,-58 571,-39 644,-39 644,-58"/>
<text text-anchor="middle" x="607.5" y="-46" font-family="Helvetica,sans-Serif" font-size="10.00">parse_hex4</text>
</a>
</g>
</g>
<!-- Node10&#45;&gt;Node11 -->
<g id="edge14_Node000010_Node000011" class="edge">
<title>Node10&#45;&gt;Node11</title>
<g id="a_edge14_Node000010_Node000011"><a xlink:title=" ">
<path fill="none" stroke="#63b8ff" d="M526.12,-48.5C537.64,-48.5 549.6,-48.5 560.68,-48.5"/>
<polygon fill="#63b8ff" stroke="#63b8ff" points="560.97,-52 570.97,-48.5 560.97,-45 560.97,-52"/>
</a>
</g>
</g>
</g>
</svg>
