<?xml version="1.0" encoding="UTF-8" standalone="no"?>
<!DOCTYPE svg PUBLIC "-//W3C//DTD SVG 1.1//EN"
 "http://www.w3.org/Graphics/SVG/1.1/DTD/svg11.dtd">
<!-- Generated by graphviz version 2.43.0 (0)
 -->
<!-- Title: update_offset Pages: 1 -->
<svg width="790pt" height="123pt"
 viewBox="0.00 0.00 790.00 123.00" xmlns="http://www.w3.org/2000/svg" xmlns:xlink="http://www.w3.org/1999/xlink">
<g id="graph0" class="graph" transform="scale(1 1) rotate(0) translate(4 119)">
<title>update_offset</title>
<polygon fill="white" stroke="transparent" points="-4,4 -4,-119 786,-119 786,4 -4,4"/>
<!-- Node1 -->
<g id="node1" class="node">
<title>Node1</title>
<g id="a_node1"><a xlink:title=" ">
<polygon fill="#bfbfbf" stroke="black" points="699,-38.5 699,-57.5 782,-57.5 782,-38.5 699,-38.5"/>
<text text-anchor="middle" x="740.5" y="-45.5" font-family="Helvetica,sans-Serif" font-size="10.00">update_offset</text>
</a>
</g>
</g>
<!-- Node2 -->
<g id="node2" class="node">
<title>Node2</title>
<g id="a_node2"><a xlink:href="cJSON_8c.html#ae71e2aec89bf140e6430cb7d5ca417c5" target="_top" xlink:title=" ">
<polygon fill="white" stroke="black" points="363.5,-76.5 363.5,-95.5 402.5,-95.5 402.5,-76.5 363.5,-76.5"/>
<text text-anchor="middle" x="383" y="-83.5" font-family="Helvetica,sans-Serif" font-size="10.00">print</text>
</a>
</g>
</g>
<!-- Node1&#45;&gt;Node2 -->
<g id="edge1" class="edge">
<title>Node1&#45;&gt;Node2</title>
<path fill="none" stroke="midnightblue" d="M696.85,-60C685.9,-62.69 674.08,-65.26 663,-67 565.88,-82.25 447.83,-85.26 402.74,-85.86"/>
<polygon fill="midnightblue" stroke="midnightblue" points="697.79,-63.37 706.62,-57.51 696.07,-56.58 697.79,-63.37"/>
</g>
<!-- Node5 -->
<g id="node5" class="node">
<title>Node5</title>
<g id="a_node5"><a xlink:href="cJSON_8c.html#ae84642817f3965a85c7c617663250c16" target="_top" xlink:title=" ">
<polygon fill="white" stroke="black" points="593,-38.5 593,-57.5 663,-57.5 663,-38.5 593,-38.5"/>
<text text-anchor="middle" x="628" y="-45.5" font-family="Helvetica,sans-Serif" font-size="10.00">print_array</text>
</a>
</g>
</g>
<!-- Node1&#45;&gt;Node5 -->
<g id="edge5" class="edge">
<title>Node1&#45;&gt;Node5</title>
<path fill="none" stroke="midnightblue" d="M688.93,-48C680.27,-48 671.45,-48 663.34,-48"/>
<polygon fill="midnightblue" stroke="midnightblue" points="688.98,-51.5 698.98,-48 688.98,-44.5 688.98,-51.5"/>
</g>
<!-- Node8 -->
<g id="node8" class="node">
<title>Node8</title>
<g id="a_node8"><a xlink:href="cJSON_8c.html#a3d742f5c68799bca291432a9cd72f8dd" target="_top" xlink:title=" ">
<polygon fill="white" stroke="black" points="346,-0.5 346,-19.5 420,-19.5 420,-0.5 346,-0.5"/>
<text text-anchor="middle" x="383" y="-7.5" font-family="Helvetica,sans-Serif" font-size="10.00">print_object</text>
</a>
</g>
</g>
<!-- Node1&#45;&gt;Node8 -->
<g id="edge12" class="edge">
<title>Node1&#45;&gt;Node8</title>
<path fill="none" stroke="midnightblue" d="M696.85,-36C685.9,-33.31 674.08,-30.74 663,-29 576.67,-15.45 473.81,-11.56 420.34,-10.45"/>
<polygon fill="midnightblue" stroke="midnightblue" points="696.07,-39.42 706.62,-38.49 697.79,-32.63 696.07,-39.42"/>
</g>
<!-- Node3 -->
<g id="node3" class="node">
<title>Node3</title>
<g id="a_node3"><a xlink:href="namespaceTimings.html#aadf2661fed15eeec1d5ca92e8125726e" target="_top" xlink:title=" ">
<polygon fill="white" stroke="black" points="119,-95.5 119,-114.5 280,-114.5 280,-95.5 119,-95.5"/>
<text text-anchor="middle" x="199.5" y="-102.5" font-family="Helvetica,sans-Serif" font-size="10.00">Timings.analyze_timing_data</text>
</a>
</g>
</g>
<!-- Node2&#45;&gt;Node3 -->
<g id="edge2" class="edge">
<title>Node2&#45;&gt;Node3</title>
<path fill="none" stroke="midnightblue" d="M353.13,-89.02C333.42,-91.09 306.27,-93.93 280.34,-96.64"/>
<polygon fill="midnightblue" stroke="midnightblue" points="353.68,-92.48 363.26,-87.96 352.95,-85.52 353.68,-92.48"/>
</g>
<!-- Node4 -->
<g id="node4" class="node">
<title>Node4</title>
<g id="a_node4"><a xlink:href="namespaceTimings.html#a4dc59d29cbbbc539305dfa472f2e0f52" target="_top" xlink:title=" ">
<polygon fill="white" stroke="black" points="0,-76.5 0,-95.5 83,-95.5 83,-76.5 0,-76.5"/>
<text text-anchor="middle" x="41.5" y="-83.5" font-family="Helvetica,sans-Serif" font-size="10.00">Timings.main</text>
</a>
</g>
</g>
<!-- Node2&#45;&gt;Node4 -->
<g id="edge4" class="edge">
<title>Node2&#45;&gt;Node4</title>
<path fill="none" stroke="midnightblue" d="M352.91,-86C292.36,-86 152.62,-86 83.19,-86"/>
<polygon fill="midnightblue" stroke="midnightblue" points="353.26,-89.5 363.26,-86 353.26,-82.5 353.26,-89.5"/>
</g>
<!-- Node3&#45;&gt;Node4 -->
<g id="edge3" class="edge">
<title>Node3&#45;&gt;Node4</title>
<path fill="none" stroke="midnightblue" d="M109.91,-94.21C100.63,-93.08 91.55,-91.97 83.21,-90.96"/>
<polygon fill="midnightblue" stroke="midnightblue" points="109.69,-97.71 120.04,-95.44 110.54,-90.76 109.69,-97.71"/>
</g>
<!-- Node6 -->
<g id="node6" class="node">
<title>Node6</title>
<g id="a_node6"><a xlink:href="cJSON_8c.html#a5ba141f183b9abb4b49e38a211299c7e" target="_top" xlink:title=" ">
<polygon fill="white" stroke="black" points="486,-38.5 486,-57.5 557,-57.5 557,-38.5 486,-38.5"/>
<text text-anchor="middle" x="521.5" y="-45.5" font-family="Helvetica,sans-Serif" font-size="10.00">print_value</text>
</a>
</g>
</g>
<!-- Node5&#45;&gt;Node6 -->
<g id="edge6" class="edge">
<title>Node5&#45;&gt;Node6</title>
<path fill="none" stroke="midnightblue" d="M582.61,-41.32C574.1,-41.17 565.3,-41.26 557.15,-41.6"/>
<polygon fill="midnightblue" stroke="midnightblue" points="582.68,-44.82 592.78,-41.62 582.89,-37.83 582.68,-44.82"/>
</g>
<!-- Node6&#45;&gt;Node2 -->
<g id="edge8" class="edge">
<title>Node6&#45;&gt;Node2</title>
<path fill="none" stroke="midnightblue" d="M476.12,-60.36C451.31,-67.26 421.69,-75.51 402.86,-80.75"/>
<polygon fill="midnightblue" stroke="midnightblue" points="477.36,-63.64 486.06,-57.59 475.48,-56.9 477.36,-63.64"/>
</g>
<!-- Node6&#45;&gt;Node5 -->
<g id="edge9" class="edge">
<title>Node6&#45;&gt;Node5</title>
<path fill="none" stroke="midnightblue" d="M567.35,-54.69C575.87,-54.83 584.66,-54.73 592.78,-54.38"/>
<polygon fill="midnightblue" stroke="midnightblue" points="567.25,-51.19 557.15,-54.4 567.05,-58.18 567.25,-51.19"/>
</g>
<!-- Node7 -->
<g id="node7" class="node">
<title>Node7</title>
<g id="a_node7"><a xlink:href="cJSON_8c.html#a5ae150f0e5009534979d4532a411d077" target="_top" xlink:title=" ">
<polygon fill="white" stroke="black" points="316,-38.5 316,-57.5 450,-57.5 450,-38.5 316,-38.5"/>
<text text-anchor="middle" x="383" y="-45.5" font-family="Helvetica,sans-Serif" font-size="10.00">cJSON_PrintPreallocated</text>
</a>
</g>
</g>
<!-- Node6&#45;&gt;Node7 -->
<g id="edge7" class="edge">
<title>Node6&#45;&gt;Node7</title>
<path fill="none" stroke="midnightblue" d="M475.64,-48C467.44,-48 458.73,-48 450.07,-48"/>
<polygon fill="midnightblue" stroke="midnightblue" points="475.7,-51.5 485.7,-48 475.7,-44.5 475.7,-51.5"/>
</g>
<!-- Node6&#45;&gt;Node8 -->
<g id="edge10" class="edge">
<title>Node6&#45;&gt;Node8</title>
<path fill="none" stroke="midnightblue" d="M493.36,-34.93C472.39,-27.64 443.16,-19.33 420.19,-14.04"/>
<polygon fill="midnightblue" stroke="midnightblue" points="492.34,-38.28 502.93,-38.41 494.73,-31.7 492.34,-38.28"/>
</g>
<!-- Node8&#45;&gt;Node6 -->
<g id="edge11" class="edge">
<title>Node8&#45;&gt;Node6</title>
<path fill="none" stroke="midnightblue" d="M411.09,-23.05C432.49,-30.49 462.52,-39 485.7,-44.28"/>
<polygon fill="midnightblue" stroke="midnightblue" points="412.22,-19.74 401.63,-19.62 409.83,-26.32 412.22,-19.74"/>
</g>
</g>
</svg>
