<?xml version="1.0" encoding="UTF-8" standalone="no"?>
<!DOCTYPE svg PUBLIC "-//W3C//DTD SVG 1.1//EN"
 "http://www.w3.org/Graphics/SVG/1.1/DTD/svg11.dtd">
<!-- Generated by graphviz version 2.43.0 (0)
 -->
<!-- Title: print_string_ptr Pages: 1 -->
<svg width="802pt" height="123pt"
 viewBox="0.00 0.00 802.00 123.00" xmlns="http://www.w3.org/2000/svg" xmlns:xlink="http://www.w3.org/1999/xlink">
<g id="graph0" class="graph" transform="scale(1 1) rotate(0) translate(4 119)">
<title>print_string_ptr</title>
<polygon fill="white" stroke="transparent" points="-4,4 -4,-119 798,-119 798,4 -4,4"/>
<!-- Node1 -->
<g id="node1" class="node">
<title>Node1</title>
<g id="a_node1"><a xlink:title=" ">
<polygon fill="#bfbfbf" stroke="black" points="703,-19.5 703,-38.5 794,-38.5 794,-19.5 703,-19.5"/>
<text text-anchor="middle" x="748.5" y="-26.5" font-family="Helvetica,sans-Serif" font-size="10.00">print_string_ptr</text>
</a>
</g>
</g>
<!-- Node2 -->
<g id="node2" class="node">
<title>Node2</title>
<g id="a_node2"><a xlink:href="cJSON_8c.html#a3d742f5c68799bca291432a9cd72f8dd" target="_top" xlink:title=" ">
<polygon fill="white" stroke="black" points="593,-38.5 593,-57.5 667,-57.5 667,-38.5 593,-38.5"/>
<text text-anchor="middle" x="630" y="-45.5" font-family="Helvetica,sans-Serif" font-size="10.00">print_object</text>
</a>
</g>
</g>
<!-- Node1&#45;&gt;Node2 -->
<g id="edge1" class="edge">
<title>Node1&#45;&gt;Node2</title>
<path fill="none" stroke="midnightblue" d="M692.69,-37.94C684,-39.36 675.22,-40.79 667.1,-42.11"/>
<polygon fill="midnightblue" stroke="midnightblue" points="693.49,-41.36 702.79,-36.29 692.36,-34.45 693.49,-41.36"/>
</g>
<!-- Node9 -->
<g id="node9" class="node">
<title>Node9</title>
<g id="a_node9"><a xlink:href="cJSON_8c.html#ad087dd738e49b4258f0a3d378a121df6" target="_top" xlink:title=" ">
<polygon fill="white" stroke="black" points="594,-0.5 594,-19.5 666,-19.5 666,-0.5 594,-0.5"/>
<text text-anchor="middle" x="630" y="-7.5" font-family="Helvetica,sans-Serif" font-size="10.00">print_string</text>
</a>
</g>
</g>
<!-- Node1&#45;&gt;Node9 -->
<g id="edge11" class="edge">
<title>Node1&#45;&gt;Node9</title>
<path fill="none" stroke="midnightblue" d="M692.65,-20.05C683.58,-18.58 674.41,-17.08 666,-15.71"/>
<polygon fill="midnightblue" stroke="midnightblue" points="692.36,-23.55 702.79,-21.71 693.49,-16.64 692.36,-23.55"/>
</g>
<!-- Node3 -->
<g id="node3" class="node">
<title>Node3</title>
<g id="a_node3"><a xlink:href="cJSON_8c.html#a5ba141f183b9abb4b49e38a211299c7e" target="_top" xlink:title=" ">
<polygon fill="white" stroke="black" points="486,-38.5 486,-57.5 557,-57.5 557,-38.5 486,-38.5"/>
<text text-anchor="middle" x="521.5" y="-45.5" font-family="Helvetica,sans-Serif" font-size="10.00">print_value</text>
</a>
</g>
</g>
<!-- Node2&#45;&gt;Node3 -->
<g id="edge2" class="edge">
<title>Node2&#45;&gt;Node3</title>
<path fill="none" stroke="midnightblue" d="M582.94,-41.3C574.26,-41.17 565.33,-41.28 557.08,-41.63"/>
<polygon fill="midnightblue" stroke="midnightblue" points="582.85,-44.8 592.94,-41.57 583.04,-37.81 582.85,-44.8"/>
</g>
<!-- Node3&#45;&gt;Node2 -->
<g id="edge10" class="edge">
<title>Node3&#45;&gt;Node2</title>
<path fill="none" stroke="midnightblue" d="M567.3,-54.67C575.85,-54.83 584.71,-54.75 592.94,-54.43"/>
<polygon fill="midnightblue" stroke="midnightblue" points="567.18,-51.17 557.08,-54.37 566.97,-58.17 567.18,-51.17"/>
</g>
<!-- Node4 -->
<g id="node4" class="node">
<title>Node4</title>
<g id="a_node4"><a xlink:href="cJSON_8c.html#a5ae150f0e5009534979d4532a411d077" target="_top" xlink:title=" ">
<polygon fill="white" stroke="black" points="316,-95.5 316,-114.5 450,-114.5 450,-95.5 316,-95.5"/>
<text text-anchor="middle" x="383" y="-102.5" font-family="Helvetica,sans-Serif" font-size="10.00">cJSON_PrintPreallocated</text>
</a>
</g>
</g>
<!-- Node3&#45;&gt;Node4 -->
<g id="edge3" class="edge">
<title>Node3&#45;&gt;Node4</title>
<path fill="none" stroke="midnightblue" d="M496.05,-62.86C482.76,-70.5 465.85,-79.53 450,-86 441.28,-89.56 431.65,-92.73 422.52,-95.41"/>
<polygon fill="midnightblue" stroke="midnightblue" points="498.16,-65.68 505.01,-57.6 494.62,-59.64 498.16,-65.68"/>
</g>
<!-- Node5 -->
<g id="node5" class="node">
<title>Node5</title>
<g id="a_node5"><a xlink:href="cJSON_8c.html#ae71e2aec89bf140e6430cb7d5ca417c5" target="_top" xlink:title=" ">
<polygon fill="white" stroke="black" points="363.5,-57.5 363.5,-76.5 402.5,-76.5 402.5,-57.5 363.5,-57.5"/>
<text text-anchor="middle" x="383" y="-64.5" font-family="Helvetica,sans-Serif" font-size="10.00">print</text>
</a>
</g>
</g>
<!-- Node3&#45;&gt;Node5 -->
<g id="edge4" class="edge">
<title>Node3&#45;&gt;Node5</title>
<path fill="none" stroke="midnightblue" d="M475.77,-54.23C450.99,-57.68 421.5,-61.78 402.76,-64.39"/>
<polygon fill="midnightblue" stroke="midnightblue" points="476.28,-57.69 485.7,-52.84 475.32,-50.76 476.28,-57.69"/>
</g>
<!-- Node8 -->
<g id="node8" class="node">
<title>Node8</title>
<g id="a_node8"><a xlink:href="cJSON_8c.html#ae84642817f3965a85c7c617663250c16" target="_top" xlink:title=" ">
<polygon fill="white" stroke="black" points="348,-19.5 348,-38.5 418,-38.5 418,-19.5 348,-19.5"/>
<text text-anchor="middle" x="383" y="-26.5" font-family="Helvetica,sans-Serif" font-size="10.00">print_array</text>
</a>
</g>
</g>
<!-- Node3&#45;&gt;Node8 -->
<g id="edge8" class="edge">
<title>Node3&#45;&gt;Node8</title>
<path fill="none" stroke="midnightblue" d="M482.13,-36.52C461.98,-32.84 437.51,-29.5 418.04,-27.81"/>
<polygon fill="midnightblue" stroke="midnightblue" points="481.73,-40.01 492.22,-38.47 483.06,-33.14 481.73,-40.01"/>
</g>
<!-- Node6 -->
<g id="node6" class="node">
<title>Node6</title>
<g id="a_node6"><a xlink:href="namespaceTimings.html#aadf2661fed15eeec1d5ca92e8125726e" target="_top" xlink:title=" ">
<polygon fill="white" stroke="black" points="119,-76.5 119,-95.5 280,-95.5 280,-76.5 119,-76.5"/>
<text text-anchor="middle" x="199.5" y="-83.5" font-family="Helvetica,sans-Serif" font-size="10.00">Timings.analyze_timing_data</text>
</a>
</g>
</g>
<!-- Node5&#45;&gt;Node6 -->
<g id="edge5" class="edge">
<title>Node5&#45;&gt;Node6</title>
<path fill="none" stroke="midnightblue" d="M353.13,-70.02C333.42,-72.09 306.27,-74.93 280.34,-77.64"/>
<polygon fill="midnightblue" stroke="midnightblue" points="353.68,-73.48 363.26,-68.96 352.95,-66.52 353.68,-73.48"/>
</g>
<!-- Node7 -->
<g id="node7" class="node">
<title>Node7</title>
<g id="a_node7"><a xlink:href="namespaceTimings.html#a4dc59d29cbbbc539305dfa472f2e0f52" target="_top" xlink:title=" ">
<polygon fill="white" stroke="black" points="0,-57.5 0,-76.5 83,-76.5 83,-57.5 0,-57.5"/>
<text text-anchor="middle" x="41.5" y="-64.5" font-family="Helvetica,sans-Serif" font-size="10.00">Timings.main</text>
</a>
</g>
</g>
<!-- Node5&#45;&gt;Node7 -->
<g id="edge7" class="edge">
<title>Node5&#45;&gt;Node7</title>
<path fill="none" stroke="midnightblue" d="M352.91,-67C292.36,-67 152.62,-67 83.19,-67"/>
<polygon fill="midnightblue" stroke="midnightblue" points="353.26,-70.5 363.26,-67 353.26,-63.5 353.26,-70.5"/>
</g>
<!-- Node6&#45;&gt;Node7 -->
<g id="edge6" class="edge">
<title>Node6&#45;&gt;Node7</title>
<path fill="none" stroke="midnightblue" d="M109.91,-75.21C100.63,-74.08 91.55,-72.97 83.21,-71.96"/>
<polygon fill="midnightblue" stroke="midnightblue" points="109.69,-78.71 120.04,-76.44 110.54,-71.76 109.69,-78.71"/>
</g>
<!-- Node8&#45;&gt;Node3 -->
<g id="edge9" class="edge">
<title>Node8&#45;&gt;Node3</title>
<path fill="none" stroke="midnightblue" d="M422.28,-40.46C442.18,-44.11 466.33,-47.41 485.7,-49.13"/>
<polygon fill="midnightblue" stroke="midnightblue" points="422.79,-37 412.3,-38.53 421.46,-43.87 422.79,-37"/>
</g>
<!-- Node9&#45;&gt;Node3 -->
<g id="edge12" class="edge">
<title>Node9&#45;&gt;Node3</title>
<path fill="none" stroke="midnightblue" d="M592.64,-22.97C578.46,-28.03 562.48,-33.73 549.37,-38.41"/>
<polygon fill="midnightblue" stroke="midnightblue" points="593.88,-26.25 602.13,-19.59 591.53,-19.65 593.88,-26.25"/>
</g>
</g>
</svg>
