<?xml version="1.0" encoding="UTF-8" standalone="no"?>
<!DOCTYPE svg PUBLIC "-//W3C//DTD SVG 1.1//EN"
 "http://www.w3.org/Graphics/SVG/1.1/DTD/svg11.dtd">
<!-- Generated by graphviz version 2.43.0 (0)
 -->
<!-- Title: parse_hex4 Pages: 1 -->
<svg width="1046pt" height="83pt"
 viewBox="0.00 0.00 1046.00 83.00" xmlns="http://www.w3.org/2000/svg" xmlns:xlink="http://www.w3.org/1999/xlink">
<g id="graph0" class="graph" transform="scale(1 1) rotate(0) translate(4 79)">
<title>parse_hex4</title>
<!-- Node1 -->
<g id="Node000001" class="node">
<title>Node1</title>
<g id="a_Node000001"><a xlink:title=" ">
<polygon fill="#999999" stroke="#666666" points="1038,-19 965,-19 965,0 1038,0 1038,-19"/>
<text text-anchor="middle" x="1001.5" y="-7" font-family="Helvetica,sans-Serif" font-size="10.00">parse_hex4</text>
</a>
</g>
</g>
<!-- Node2 -->
<g id="Node000002" class="node">
<title>Node2</title>
<g id="a_Node000002"><a xlink:href="cJSON_8c.html#a0e2851b1b595b3b430fd186e7deaf987" target="_top" xlink:title=" ">
<polygon fill="white" stroke="#666666" points="929,-19 813,-19 813,0 929,0 929,-19"/>
<text text-anchor="middle" x="871" y="-7" font-family="Helvetica,sans-Serif" font-size="10.00">utf16_literal_to_utf8</text>
</a>
</g>
</g>
<!-- Node1&#45;&gt;Node2 -->
<g id="edge1_Node000001_Node000002" class="edge">
<title>Node1&#45;&gt;Node2</title>
<g id="a_edge1_Node000001_Node000002"><a xlink:title=" ">
<path fill="none" stroke="#63b8ff" d="M954.59,-9.5C946.39,-9.5 937.75,-9.5 929.28,-9.5"/>
<polygon fill="#63b8ff" stroke="#63b8ff" points="954.71,-13 964.71,-9.5 954.71,-6 954.71,-13"/>
</a>
</g>
</g>
<!-- Node3 -->
<g id="Node000003" class="node">
<title>Node3</title>
<g id="a_Node000003"><a xlink:href="cJSON_8c.html#adf47b520af96d1bbefa2390016fbdb51" target="_top" xlink:title=" ">
<polygon fill="white" stroke="#666666" points="777,-19 700,-19 700,0 777,0 777,-19"/>
<text text-anchor="middle" x="738.5" y="-7" font-family="Helvetica,sans-Serif" font-size="10.00">parse_string</text>
</a>
</g>
</g>
<!-- Node2&#45;&gt;Node3 -->
<g id="edge2_Node000002_Node000003" class="edge">
<title>Node2&#45;&gt;Node3</title>
<g id="a_edge2_Node000002_Node000003"><a xlink:title=" ">
<path fill="none" stroke="#63b8ff" d="M802.54,-9.5C793.82,-9.5 785.16,-9.5 777.17,-9.5"/>
<polygon fill="#63b8ff" stroke="#63b8ff" points="802.76,-13 812.76,-9.5 802.76,-6 802.76,-13"/>
</a>
</g>
</g>
<!-- Node4 -->
<g id="Node000004" class="node">
<title>Node4</title>
<g id="a_Node000004"><a xlink:href="cJSON_8c.html#a1472ac5d1becd7d9a5e558b4c053b06a" target="_top" xlink:title=" ">
<polygon fill="white" stroke="#666666" points="664,-38 585,-38 585,-19 664,-19 664,-38"/>
<text text-anchor="middle" x="624.5" y="-26" font-family="Helvetica,sans-Serif" font-size="10.00">parse_object</text>
</a>
</g>
</g>
<!-- Node3&#45;&gt;Node4 -->
<g id="edge3_Node000003_Node000004" class="edge">
<title>Node3&#45;&gt;Node4</title>
<g id="a_edge3_Node000003_Node000004"><a xlink:title=" ">
<path fill="none" stroke="#63b8ff" d="M690.02,-17.55C681.46,-19.01 672.62,-20.51 664.35,-21.91"/>
<polygon fill="#63b8ff" stroke="#63b8ff" points="690.62,-21 699.89,-15.88 689.45,-14.1 690.62,-21"/>
</a>
</g>
</g>
<!-- Node5 -->
<g id="Node000005" class="node">
<title>Node5</title>
<g id="a_Node000005"><a xlink:href="cJSON_8c.html#afd5c0b7089e4de2fc9b2af599d4b596f" target="_top" xlink:title=" ">
<polygon fill="white" stroke="#666666" points="549,-38 473,-38 473,-19 549,-19 549,-38"/>
<text text-anchor="middle" x="511" y="-26" font-family="Helvetica,sans-Serif" font-size="10.00">parse_value</text>
</a>
</g>
</g>
<!-- Node3&#45;&gt;Node5 -->
<g id="edge11_Node000003_Node000005" class="edge">
<title>Node3&#45;&gt;Node5</title>
<g id="a_edge11_Node000003_Node000005"><a xlink:title=" ">
<path fill="none" stroke="#63b8ff" d="M689.49,-6.39C659.36,-5.2 619.77,-5.05 585,-9.5 570.45,-11.36 554.66,-15.23 541.5,-19"/>
<polygon fill="#63b8ff" stroke="#63b8ff" points="689.58,-9.89 699.73,-6.84 689.89,-2.9 689.58,-9.89"/>
</a>
</g>
</g>
<!-- Node4&#45;&gt;Node5 -->
<g id="edge4_Node000004_Node000005" class="edge">
<title>Node4&#45;&gt;Node5</title>
<g id="a_edge4_Node000004_Node000005"><a xlink:title=" ">
<path fill="none" stroke="#63b8ff" d="M574.56,-21.79C566.02,-21.68 557.27,-21.78 549.11,-22.1"/>
<polygon fill="#63b8ff" stroke="#63b8ff" points="574.74,-25.3 584.82,-22.04 574.9,-18.3 574.74,-25.3"/>
</a>
</g>
</g>
<!-- Node5&#45;&gt;Node4 -->
<g id="edge10_Node000005_Node000004" class="edge">
<title>Node5&#45;&gt;Node4</title>
<g id="a_edge10_Node000005_Node000004"><a xlink:title=" ">
<path fill="none" stroke="#63b8ff" d="M559.3,-35.18C567.81,-35.32 576.59,-35.25 584.82,-34.96"/>
<polygon fill="#63b8ff" stroke="#63b8ff" points="559.21,-31.68 549.11,-34.9 559.01,-38.67 559.21,-31.68"/>
</a>
</g>
</g>
<!-- Node6 -->
<g id="Node000006" class="node">
<title>Node6</title>
<g id="a_Node000006"><a xlink:href="cJSON_8c.html#a3a24e49a04490273160cdc1f30f10d22" target="_top" xlink:title=" ">
<polygon fill="white" stroke="#666666" points="437,-75 282,-75 282,-56 437,-56 437,-75"/>
<text text-anchor="middle" x="359.5" y="-63" font-family="Helvetica,sans-Serif" font-size="10.00">cJSON_ParseWithLengthOpts</text>
</a>
</g>
</g>
<!-- Node5&#45;&gt;Node6 -->
<g id="edge5_Node000005_Node000006" class="edge">
<title>Node5&#45;&gt;Node6</title>
<g id="a_edge5_Node000005_Node000006"><a xlink:title=" ">
<path fill="none" stroke="#63b8ff" d="M464.1,-40.62C455.12,-42.94 445.77,-45.33 437,-47.5 425.61,-50.32 413.24,-53.28 401.83,-55.96"/>
<polygon fill="#63b8ff" stroke="#63b8ff" points="465.23,-43.95 474.03,-38.04 463.47,-37.17 465.23,-43.95"/>
</a>
</g>
</g>
<!-- Node9 -->
<g id="Node000009" class="node">
<title>Node9</title>
<g id="a_Node000009"><a xlink:href="cJSON_8c.html#a367cc7ac5a592211d9f18dc02dd23069" target="_top" xlink:title=" ">
<polygon fill="white" stroke="#666666" points="396.5,-38 322.5,-38 322.5,-19 396.5,-19 396.5,-38"/>
<text text-anchor="middle" x="359.5" y="-26" font-family="Helvetica,sans-Serif" font-size="10.00">parse_array</text>
</a>
</g>
</g>
<!-- Node5&#45;&gt;Node9 -->
<g id="edge8_Node000005_Node000009" class="edge">
<title>Node5&#45;&gt;Node9</title>
<g id="a_edge8_Node000005_Node000009"><a xlink:title=" ">
<path fill="none" stroke="#63b8ff" d="M462.5,-22.17C441.15,-21.49 416.38,-21.64 396.59,-22.63"/>
<polygon fill="#63b8ff" stroke="#63b8ff" points="462.53,-25.67 472.66,-22.57 462.81,-18.67 462.53,-25.67"/>
</a>
</g>
</g>
<!-- Node7 -->
<g id="Node000007" class="node">
<title>Node7</title>
<g id="a_Node000007"><a xlink:href="cJSON_8c.html#adfabd5d09c2cf0a2f051c47650db6e80" target="_top" xlink:title=" ">
<polygon fill="white" stroke="#666666" points="246,-75 124,-75 124,-56 246,-56 246,-75"/>
<text text-anchor="middle" x="185" y="-63" font-family="Helvetica,sans-Serif" font-size="10.00">cJSON_ParseWithOpts</text>
</a>
</g>
</g>
<!-- Node6&#45;&gt;Node7 -->
<g id="edge6_Node000006_Node000007" class="edge">
<title>Node6&#45;&gt;Node7</title>
<g id="a_edge6_Node000006_Node000007"><a xlink:title=" ">
<path fill="none" stroke="#63b8ff" d="M271.7,-65.5C263.05,-65.5 254.41,-65.5 246.12,-65.5"/>
<polygon fill="#63b8ff" stroke="#63b8ff" points="271.83,-69 281.83,-65.5 271.83,-62 271.83,-69"/>
</a>
</g>
</g>
<!-- Node8 -->
<g id="Node000008" class="node">
<title>Node8</title>
<g id="a_Node000008"><a xlink:href="cJSON_8c.html#aa2ca313f61c789be20f8a69b651043c3" target="_top" xlink:title=" ">
<polygon fill="white" stroke="#666666" points="88,-75 0,-75 0,-56 88,-56 88,-75"/>
<text text-anchor="middle" x="44" y="-63" font-family="Helvetica,sans-Serif" font-size="10.00">CJSON_PUBLIC</text>
</a>
</g>
</g>
<!-- Node7&#45;&gt;Node8 -->
<g id="edge7_Node000007_Node000008" class="edge">
<title>Node7&#45;&gt;Node8</title>
<g id="a_edge7_Node000007_Node000008"><a xlink:title=" ">
<path fill="none" stroke="#63b8ff" d="M113.63,-65.5C104.91,-65.5 96.21,-65.5 88.08,-65.5"/>
<polygon fill="#63b8ff" stroke="#63b8ff" points="113.84,-69 123.84,-65.5 113.84,-62 113.84,-69"/>
</a>
</g>
</g>
<!-- Node9&#45;&gt;Node5 -->
<g id="edge9_Node000009_Node000005" class="edge">
<title>Node9&#45;&gt;Node5</title>
<g id="a_edge9_Node000009_Node000005"><a xlink:title=" ">
<path fill="none" stroke="#63b8ff" d="M406.67,-34.79C427.86,-35.5 452.67,-35.39 472.66,-34.43"/>
<polygon fill="#63b8ff" stroke="#63b8ff" points="406.73,-31.29 396.59,-34.37 406.44,-38.28 406.73,-31.29"/>
</a>
</g>
</g>
</g>
</svg>
