<?xml version="1.0" encoding="UTF-8" standalone="no"?>
<!DOCTYPE svg PUBLIC "-//W3C//DTD SVG 1.1//EN"
 "http://www.w3.org/Graphics/SVG/1.1/DTD/svg11.dtd">
<!-- Generated by graphviz version 2.43.0 (0)
 -->
<!-- Title: parse_array Pages: 1 -->
<svg width="762pt" height="161pt"
 viewBox="0.00 0.00 762.00 161.00" xmlns="http://www.w3.org/2000/svg" xmlns:xlink="http://www.w3.org/1999/xlink">
<g id="graph0" class="graph" transform="scale(1 1) rotate(0) translate(4 157)">
<title>parse_array</title>
<polygon fill="white" stroke="transparent" points="-4,4 -4,-157 758,-157 758,4 -4,4"/>
<!-- Node1 -->
<g id="node1" class="node">
<title>Node1</title>
<g id="a_node1"><a xlink:title=" ">
<polygon fill="#bfbfbf" stroke="black" points="0,-95.5 0,-114.5 74,-114.5 74,-95.5 0,-95.5"/>
<text text-anchor="middle" x="37" y="-102.5" font-family="Helvetica,sans-Serif" font-size="10.00">parse_array</text>
</a>
</g>
</g>
<!-- Node2 -->
<g id="node2" class="node">
<title>Node2</title>
<g id="a_node2"><a xlink:href="cJSON_8c.html#a029a2c33fa2744a7cc5cf061f28d2cfc" target="_top" xlink:title=" ">
<polygon fill="white" stroke="black" points="344,-133.5 344,-152.5 475,-152.5 475,-133.5 344,-133.5"/>
<text text-anchor="middle" x="409.5" y="-140.5" font-family="Helvetica,sans-Serif" font-size="10.00">buffer_skip_whitespace</text>
</a>
</g>
</g>
<!-- Node1&#45;&gt;Node2 -->
<g id="edge1" class="edge">
<title>Node1&#45;&gt;Node2</title>
<path fill="none" stroke="midnightblue" d="M71.55,-114.52C83.61,-117.77 97.36,-121.27 110,-124 159.35,-134.67 171.69,-138.76 222,-143 258.55,-146.08 299.27,-146.43 333.32,-145.87"/>
<polygon fill="midnightblue" stroke="midnightblue" points="333.72,-149.36 343.65,-145.67 333.59,-142.36 333.72,-149.36"/>
</g>
<!-- Node3 -->
<g id="node3" class="node">
<title>Node3</title>
<g id="a_node3"><a xlink:href="cJSON_8c.html#a8f447c625af025c35d0ec59032ad6473" target="_top" xlink:title=" ">
<polygon fill="white" stroke="black" points="359,-0.5 359,-19.5 460,-19.5 460,-0.5 359,-0.5"/>
<text text-anchor="middle" x="409.5" y="-7.5" font-family="Helvetica,sans-Serif" font-size="10.00">cJSON_New_Item</text>
</a>
</g>
</g>
<!-- Node1&#45;&gt;Node3 -->
<g id="edge2" class="edge">
<title>Node1&#45;&gt;Node3</title>
<path fill="none" stroke="midnightblue" d="M56.2,-95.38C88.55,-78.77 158.65,-44.95 222,-29 263.54,-18.54 311.67,-13.82 348.63,-11.69"/>
<polygon fill="midnightblue" stroke="midnightblue" points="348.94,-15.18 358.74,-11.16 348.57,-8.19 348.94,-15.18"/>
</g>
<!-- Node5 -->
<g id="node5" class="node">
<title>Node5</title>
<g id="a_node5"><a xlink:href="cJSON_8c.html#afd5c0b7089e4de2fc9b2af599d4b596f" target="_top" xlink:title=" ">
<polygon fill="white" stroke="black" points="110,-95.5 110,-114.5 186,-114.5 186,-95.5 110,-95.5"/>
<text text-anchor="middle" x="148" y="-102.5" font-family="Helvetica,sans-Serif" font-size="10.00">parse_value</text>
</a>
</g>
</g>
<!-- Node1&#45;&gt;Node5 -->
<g id="edge4" class="edge">
<title>Node1&#45;&gt;Node5</title>
<path fill="none" stroke="midnightblue" d="M74.3,-98.6C82.4,-98.28 91.1,-98.18 99.58,-98.3"/>
<polygon fill="midnightblue" stroke="midnightblue" points="99.66,-101.8 109.75,-98.56 99.84,-94.81 99.66,-101.8"/>
</g>
<!-- Node4 -->
<g id="node4" class="node">
<title>Node4</title>
<g id="a_node4"><a xlink:href="structinternal__hooks.html#a872a0c28217b451331d24b8e0484b293" target="_top" xlink:title=" ">
<polygon fill="white" stroke="black" points="511,-19.5 511,-38.5 645,-38.5 645,-19.5 511,-19.5"/>
<text text-anchor="middle" x="578" y="-26.5" font-family="Helvetica,sans-Serif" font-size="10.00">internal_hooks::allocate</text>
</a>
</g>
</g>
<!-- Node3&#45;&gt;Node4 -->
<g id="edge3" class="edge">
<title>Node3&#45;&gt;Node4</title>
<path fill="none" stroke="midnightblue" d="M460,-15.65C472.81,-17.11 486.9,-18.72 500.72,-20.3"/>
<polygon fill="midnightblue" stroke="midnightblue" points="500.39,-23.78 510.73,-21.44 501.19,-16.83 500.39,-23.78"/>
</g>
<!-- Node5&#45;&gt;Node1 -->
<g id="edge5" class="edge">
<title>Node5&#45;&gt;Node1</title>
<path fill="none" stroke="midnightblue" d="M109.75,-111.44C101.6,-111.74 92.88,-111.82 84.42,-111.68"/>
<polygon fill="midnightblue" stroke="midnightblue" points="84.39,-108.18 74.3,-111.4 84.19,-115.18 84.39,-108.18"/>
</g>
<!-- Node6 -->
<g id="node6" class="node">
<title>Node6</title>
<g id="a_node6"><a xlink:href="cJSON_8c.html#a699e1cebda71c2846a9a10b29b4dc407" target="_top" xlink:title=" ">
<polygon fill="white" stroke="black" points="222,-38.5 222,-57.5 308,-57.5 308,-38.5 222,-38.5"/>
<text text-anchor="middle" x="265" y="-45.5" font-family="Helvetica,sans-Serif" font-size="10.00">parse_number</text>
</a>
</g>
</g>
<!-- Node5&#45;&gt;Node6 -->
<g id="edge6" class="edge">
<title>Node5&#45;&gt;Node6</title>
<path fill="none" stroke="midnightblue" d="M168.25,-95.46C186.66,-86.34 214.64,-72.47 235.61,-62.07"/>
<polygon fill="midnightblue" stroke="midnightblue" points="237.28,-65.15 244.69,-57.57 234.17,-58.88 237.28,-65.15"/>
</g>
<!-- Node8 -->
<g id="node8" class="node">
<title>Node8</title>
<g id="a_node8"><a xlink:href="cJSON_8c.html#a1472ac5d1becd7d9a5e558b4c053b06a" target="_top" xlink:title=" ">
<polygon fill="white" stroke="black" points="225.5,-114.5 225.5,-133.5 304.5,-133.5 304.5,-114.5 225.5,-114.5"/>
<text text-anchor="middle" x="265" y="-121.5" font-family="Helvetica,sans-Serif" font-size="10.00">parse_object</text>
</a>
</g>
</g>
<!-- Node5&#45;&gt;Node8 -->
<g id="edge8" class="edge">
<title>Node5&#45;&gt;Node8</title>
<path fill="none" stroke="midnightblue" d="M186.02,-104.76C200.15,-106.53 216.17,-109.22 230,-112.16"/>
<polygon fill="midnightblue" stroke="midnightblue" points="229.56,-115.65 240.09,-114.45 231.11,-108.82 229.56,-115.65"/>
</g>
<!-- Node9 -->
<g id="node9" class="node">
<title>Node9</title>
<g id="a_node9"><a xlink:href="cJSON_8c.html#adf47b520af96d1bbefa2390016fbdb51" target="_top" xlink:title=" ">
<polygon fill="white" stroke="black" points="371,-76.5 371,-95.5 448,-95.5 448,-76.5 371,-76.5"/>
<text text-anchor="middle" x="409.5" y="-83.5" font-family="Helvetica,sans-Serif" font-size="10.00">parse_string</text>
</a>
</g>
</g>
<!-- Node5&#45;&gt;Node9 -->
<g id="edge16" class="edge">
<title>Node5&#45;&gt;Node9</title>
<path fill="none" stroke="midnightblue" d="M186.18,-102.28C232.2,-98.91 310.64,-93.17 360.98,-89.48"/>
<polygon fill="midnightblue" stroke="midnightblue" points="361.25,-92.97 370.97,-88.75 360.74,-85.99 361.25,-92.97"/>
</g>
<!-- Node7 -->
<g id="node7" class="node">
<title>Node7</title>
<g id="a_node7"><a xlink:href="cJSON_8c.html#ab25412ae56c8c594831918169bea100d" target="_top" xlink:title=" ">
<polygon fill="white" stroke="black" points="356,-38.5 356,-57.5 463,-57.5 463,-38.5 356,-38.5"/>
<text text-anchor="middle" x="409.5" y="-45.5" font-family="Helvetica,sans-Serif" font-size="10.00">get_decimal_point</text>
</a>
</g>
</g>
<!-- Node6&#45;&gt;Node7 -->
<g id="edge7" class="edge">
<title>Node6&#45;&gt;Node7</title>
<path fill="none" stroke="midnightblue" d="M308.37,-48C320.15,-48 333.2,-48 345.88,-48"/>
<polygon fill="midnightblue" stroke="midnightblue" points="345.94,-51.5 355.94,-48 345.94,-44.5 345.94,-51.5"/>
</g>
<!-- Node8&#45;&gt;Node2 -->
<g id="edge9" class="edge">
<title>Node8&#45;&gt;Node2</title>
<path fill="none" stroke="midnightblue" d="M304.56,-129.14C313.65,-130.35 323.64,-131.69 333.73,-133.03"/>
<polygon fill="midnightblue" stroke="midnightblue" points="333.44,-136.52 343.82,-134.38 334.37,-129.58 333.44,-136.52"/>
</g>
<!-- Node8&#45;&gt;Node3 -->
<g id="edge10" class="edge">
<title>Node8&#45;&gt;Node3</title>
<path fill="none" stroke="midnightblue" d="M272.78,-114.37C288.23,-92.65 326.12,-40.84 344,-29 347.1,-26.95 350.43,-25.11 353.88,-23.47"/>
<polygon fill="midnightblue" stroke="midnightblue" points="355.36,-26.64 363.24,-19.56 352.66,-20.18 355.36,-26.64"/>
</g>
<!-- Node8&#45;&gt;Node5 -->
<g id="edge15" class="edge">
<title>Node8&#45;&gt;Node5</title>
<path fill="none" stroke="midnightblue" d="M225.26,-124.02C211.42,-122.24 195.95,-119.61 182.58,-116.75"/>
<polygon fill="midnightblue" stroke="midnightblue" points="183.36,-113.34 172.83,-114.53 181.8,-120.16 183.36,-113.34"/>
</g>
<!-- Node8&#45;&gt;Node9 -->
<g id="edge11" class="edge">
<title>Node8&#45;&gt;Node9</title>
<path fill="none" stroke="midnightblue" d="M301.96,-114.41C320.44,-109.48 343.16,-103.43 362.86,-98.17"/>
<polygon fill="midnightblue" stroke="midnightblue" points="363.79,-101.54 372.55,-95.59 361.99,-94.78 363.79,-101.54"/>
</g>
<!-- Node9&#45;&gt;Node4 -->
<g id="edge12" class="edge">
<title>Node9&#45;&gt;Node4</title>
<path fill="none" stroke="midnightblue" d="M444.45,-76.48C454.34,-73.58 465.14,-70.28 475,-67 498.01,-59.34 523.58,-49.81 543.36,-42.21"/>
<polygon fill="midnightblue" stroke="midnightblue" points="544.79,-45.41 552.85,-38.54 542.26,-38.88 544.79,-45.41"/>
</g>
<!-- Node10 -->
<g id="node10" class="node">
<title>Node10</title>
<g id="a_node10"><a xlink:href="cJSON_8c.html#a0e2851b1b595b3b430fd186e7deaf987" target="_top" xlink:title=" ">
<polygon fill="white" stroke="black" points="520,-76.5 520,-95.5 636,-95.5 636,-76.5 520,-76.5"/>
<text text-anchor="middle" x="578" y="-83.5" font-family="Helvetica,sans-Serif" font-size="10.00">utf16_literal_to_utf8</text>
</a>
</g>
</g>
<!-- Node9&#45;&gt;Node10 -->
<g id="edge13" class="edge">
<title>Node9&#45;&gt;Node10</title>
<path fill="none" stroke="midnightblue" d="M448.28,-86C466.42,-86 488.72,-86 509.62,-86"/>
<polygon fill="midnightblue" stroke="midnightblue" points="509.75,-89.5 519.75,-86 509.75,-82.5 509.75,-89.5"/>
</g>
<!-- Node11 -->
<g id="node11" class="node">
<title>Node11</title>
<g id="a_node11"><a xlink:href="cJSON_8c.html#a1aa736fdc6ba20c7d46622d20766e916" target="_top" xlink:title=" ">
<polygon fill="white" stroke="black" points="681,-76.5 681,-95.5 754,-95.5 754,-76.5 681,-76.5"/>
<text text-anchor="middle" x="717.5" y="-83.5" font-family="Helvetica,sans-Serif" font-size="10.00">parse_hex4</text>
</a>
</g>
</g>
<!-- Node10&#45;&gt;Node11 -->
<g id="edge14" class="edge">
<title>Node10&#45;&gt;Node11</title>
<path fill="none" stroke="midnightblue" d="M636.12,-86C647.64,-86 659.6,-86 670.68,-86"/>
<polygon fill="midnightblue" stroke="midnightblue" points="670.97,-89.5 680.97,-86 670.97,-82.5 670.97,-89.5"/>
</g>
</g>
</svg>
