<?xml version="1.0" encoding="UTF-8" standalone="no"?>
<!DOCTYPE svg PUBLIC "-//W3C//DTD SVG 1.1//EN"
 "http://www.w3.org/Graphics/SVG/1.1/DTD/svg11.dtd">
<!-- Generated by graphviz version 2.43.0 (0)
 -->
<!-- Title: print Pages: 1 -->
<svg width="680pt" height="350pt"
 viewBox="0.00 0.00 680.00 350.00" xmlns="http://www.w3.org/2000/svg" xmlns:xlink="http://www.w3.org/1999/xlink">
<g id="graph0" class="graph" transform="scale(1 1) rotate(0) translate(4 346)">
<title>print</title>
<polygon fill="white" stroke="transparent" points="-4,4 -4,-346 676,-346 676,4 -4,4"/>
<!-- Node1 -->
<g id="node1" class="node">
<title>Node1</title>
<g id="a_node1"><a xlink:title=" ">
<polygon fill="#bfbfbf" stroke="black" points="0,-256.5 0,-275.5 39,-275.5 39,-256.5 0,-256.5"/>
<text text-anchor="middle" x="19.5" y="-263.5" font-family="Helvetica,sans-Serif" font-size="10.00">print</text>
</a>
</g>
</g>
<!-- Node2 -->
<g id="node2" class="node">
<title>Node2</title>
<g id="a_node2"><a xlink:href="structinternal__hooks.html#a872a0c28217b451331d24b8e0484b293" target="_top" xlink:title=" ">
<polygon fill="white" stroke="black" points="533.5,-237.5 533.5,-256.5 667.5,-256.5 667.5,-237.5 533.5,-237.5"/>
<text text-anchor="middle" x="600.5" y="-244.5" font-family="Helvetica,sans-Serif" font-size="10.00">internal_hooks::allocate</text>
</a>
</g>
</g>
<!-- Node1&#45;&gt;Node2 -->
<g id="edge1" class="edge">
<title>Node1&#45;&gt;Node2</title>
<path fill="none" stroke="midnightblue" d="M34.95,-275.63C67.11,-296.08 147.6,-342 222,-342 222,-342 222,-342 354.5,-342 441.66,-342 535.18,-289.09 577.02,-262.24"/>
<polygon fill="midnightblue" stroke="midnightblue" points="579.15,-265.03 585.6,-256.63 575.32,-259.17 579.15,-265.03"/>
</g>
<!-- Node3 -->
<g id="node3" class="node">
<title>Node3</title>
<g id="a_node3"><a xlink:href="cJSON_8c.html#a5ba141f183b9abb4b49e38a211299c7e" target="_top" xlink:title=" ">
<polygon fill="white" stroke="black" points="75,-218.5 75,-237.5 146,-237.5 146,-218.5 75,-218.5"/>
<text text-anchor="middle" x="110.5" y="-225.5" font-family="Helvetica,sans-Serif" font-size="10.00">print_value</text>
</a>
</g>
</g>
<!-- Node1&#45;&gt;Node3 -->
<g id="edge2" class="edge">
<title>Node1&#45;&gt;Node3</title>
<path fill="none" stroke="midnightblue" d="M39.37,-257.94C50.52,-253.18 64.91,-247.04 77.75,-241.56"/>
<polygon fill="midnightblue" stroke="midnightblue" points="79.37,-244.67 87.19,-237.52 76.62,-238.23 79.37,-244.67"/>
</g>
<!-- Node5 -->
<g id="node5" class="node">
<title>Node5</title>
<g id="a_node5"><a xlink:href="structinternal__hooks.html#a5dd48d5c2f2b1cf4f6eec5df6205e15c" target="_top" xlink:title=" ">
<polygon fill="white" stroke="black" points="529,-123.5 529,-142.5 672,-142.5 672,-123.5 529,-123.5"/>
<text text-anchor="middle" x="600.5" y="-130.5" font-family="Helvetica,sans-Serif" font-size="10.00">internal_hooks::reallocate</text>
</a>
</g>
</g>
<!-- Node1&#45;&gt;Node5 -->
<g id="edge22" class="edge">
<title>Node1&#45;&gt;Node5</title>
<path fill="none" stroke="midnightblue" d="M22.68,-256.22C34.02,-208.23 90.78,0 222,0 222,0 222,0 354.5,0 450.79,0 545.39,-80.33 582.77,-116.13"/>
<polygon fill="midnightblue" stroke="midnightblue" points="580.65,-118.95 590.24,-123.43 585.54,-113.94 580.65,-118.95"/>
</g>
<!-- Node7 -->
<g id="node7" class="node">
<title>Node7</title>
<g id="a_node7"><a xlink:href="cJSON_8c.html#af5fb173126786c1e3f90b6df6e2500c5" target="_top" xlink:title=" ">
<polygon fill="white" stroke="black" points="312,-256.5 312,-275.5 395,-275.5 395,-256.5 312,-256.5"/>
<text text-anchor="middle" x="353.5" y="-263.5" font-family="Helvetica,sans-Serif" font-size="10.00">update_offset</text>
</a>
</g>
</g>
<!-- Node1&#45;&gt;Node7 -->
<g id="edge23" class="edge">
<title>Node1&#45;&gt;Node7</title>
<path fill="none" stroke="midnightblue" d="M39.17,-269.79C80,-277.57 180.3,-293.88 264,-285 277.95,-283.52 292.93,-280.76 306.52,-277.8"/>
<polygon fill="midnightblue" stroke="midnightblue" points="307.63,-281.14 316.61,-275.51 306.08,-274.31 307.63,-281.14"/>
</g>
<!-- Node4 -->
<g id="node4" class="node">
<title>Node4</title>
<g id="a_node4"><a xlink:href="cJSON_8c.html#a3faa1600bc8001eaed05f16060668ce6" target="_top" xlink:title=" ">
<polygon fill="white" stroke="black" points="443,-180.5 443,-199.5 493,-199.5 493,-180.5 443,-180.5"/>
<text text-anchor="middle" x="468" y="-187.5" font-family="Helvetica,sans-Serif" font-size="10.00">ensure</text>
</a>
</g>
</g>
<!-- Node3&#45;&gt;Node4 -->
<g id="edge3" class="edge">
<title>Node3&#45;&gt;Node4</title>
<path fill="none" stroke="midnightblue" d="M114.72,-218.41C122.57,-196.48 144.84,-142.41 182,-114 225.46,-80.78 245.86,-86.86 300,-79 347.06,-72.17 366.15,-54.65 407,-79 440.26,-98.83 456.19,-144.19 462.87,-170.37"/>
<polygon fill="midnightblue" stroke="midnightblue" points="459.51,-171.35 465.19,-180.29 466.32,-169.76 459.51,-171.35"/>
</g>
<!-- Node6 -->
<g id="node6" class="node">
<title>Node6</title>
<g id="a_node6"><a xlink:href="cJSON_8c.html#ae84642817f3965a85c7c617663250c16" target="_top" xlink:title=" ">
<polygon fill="white" stroke="black" points="188,-256.5 188,-275.5 258,-275.5 258,-256.5 188,-256.5"/>
<text text-anchor="middle" x="223" y="-263.5" font-family="Helvetica,sans-Serif" font-size="10.00">print_array</text>
</a>
</g>
</g>
<!-- Node3&#45;&gt;Node6 -->
<g id="edge6" class="edge">
<title>Node3&#45;&gt;Node6</title>
<path fill="none" stroke="midnightblue" d="M146.16,-233.6C163.19,-238.71 183.26,-245.84 198.48,-252.27"/>
<polygon fill="midnightblue" stroke="midnightblue" points="197.14,-255.5 207.7,-256.37 199.98,-249.11 197.14,-255.5"/>
</g>
<!-- Node8 -->
<g id="node8" class="node">
<title>Node8</title>
<g id="a_node8"><a xlink:href="cJSON_8c.html#ad93d84de08872da0eaa6624be0e74a68" target="_top" xlink:title=" ">
<polygon fill="white" stroke="black" points="182,-123.5 182,-142.5 264,-142.5 264,-123.5 182,-123.5"/>
<text text-anchor="middle" x="223" y="-130.5" font-family="Helvetica,sans-Serif" font-size="10.00">print_number</text>
</a>
</g>
</g>
<!-- Node3&#45;&gt;Node8 -->
<g id="edge10" class="edge">
<title>Node3&#45;&gt;Node8</title>
<path fill="none" stroke="midnightblue" d="M122.91,-218.19C141.87,-201.89 180.04,-169.07 203.08,-149.27"/>
<polygon fill="midnightblue" stroke="midnightblue" points="205.52,-151.79 210.82,-142.61 200.95,-146.48 205.52,-151.79"/>
</g>
<!-- Node11 -->
<g id="node11" class="node">
<title>Node11</title>
<g id="a_node11"><a xlink:href="cJSON_8c.html#a3d742f5c68799bca291432a9cd72f8dd" target="_top" xlink:title=" ">
<polygon fill="white" stroke="black" points="186,-218.5 186,-237.5 260,-237.5 260,-218.5 186,-218.5"/>
<text text-anchor="middle" x="223" y="-225.5" font-family="Helvetica,sans-Serif" font-size="10.00">print_object</text>
</a>
</g>
</g>
<!-- Node3&#45;&gt;Node11 -->
<g id="edge14" class="edge">
<title>Node3&#45;&gt;Node11</title>
<path fill="none" stroke="midnightblue" d="M146.16,-221.69C155.55,-221.27 165.88,-221.15 175.8,-221.33"/>
<polygon fill="midnightblue" stroke="midnightblue" points="175.84,-224.83 185.94,-221.63 176.04,-217.84 175.84,-224.83"/>
</g>
<!-- Node13 -->
<g id="node13" class="node">
<title>Node13</title>
<g id="a_node13"><a xlink:href="cJSON_8c.html#ad087dd738e49b4258f0a3d378a121df6" target="_top" xlink:title=" ">
<polygon fill="white" stroke="black" points="187,-180.5 187,-199.5 259,-199.5 259,-180.5 187,-180.5"/>
<text text-anchor="middle" x="223" y="-187.5" font-family="Helvetica,sans-Serif" font-size="10.00">print_string</text>
</a>
</g>
</g>
<!-- Node3&#45;&gt;Node13 -->
<g id="edge20" class="edge">
<title>Node3&#45;&gt;Node13</title>
<path fill="none" stroke="midnightblue" d="M139.38,-218.41C152.99,-213.73 169.57,-208.03 184.29,-202.97"/>
<polygon fill="midnightblue" stroke="midnightblue" points="185.81,-206.15 194.13,-199.59 183.53,-199.53 185.81,-206.15"/>
</g>
<!-- Node4&#45;&gt;Node2 -->
<g id="edge4" class="edge">
<title>Node4&#45;&gt;Node2</title>
<path fill="none" stroke="midnightblue" d="M490.84,-199.54C512.02,-208.79 544.35,-222.91 568.24,-233.35"/>
<polygon fill="midnightblue" stroke="midnightblue" points="567.02,-236.63 577.59,-237.43 569.82,-230.22 567.02,-236.63"/>
</g>
<!-- Node4&#45;&gt;Node5 -->
<g id="edge5" class="edge">
<title>Node4&#45;&gt;Node5</title>
<path fill="none" stroke="midnightblue" d="M490.84,-180.46C512.02,-171.21 544.35,-157.09 568.24,-146.65"/>
<polygon fill="midnightblue" stroke="midnightblue" points="569.82,-149.78 577.59,-142.57 567.02,-143.37 569.82,-149.78"/>
</g>
<!-- Node6&#45;&gt;Node3 -->
<g id="edge8" class="edge">
<title>Node6&#45;&gt;Node3</title>
<path fill="none" stroke="midnightblue" d="M187.56,-260.46C170.55,-255.37 150.46,-248.25 135.2,-241.81"/>
<polygon fill="midnightblue" stroke="midnightblue" points="136.51,-238.56 125.95,-237.7 133.67,-244.96 136.51,-238.56"/>
</g>
<!-- Node6&#45;&gt;Node4 -->
<g id="edge7" class="edge">
<title>Node6&#45;&gt;Node4</title>
<path fill="none" stroke="midnightblue" d="M245.03,-275.56C280.76,-290.28 354.55,-313.91 407,-285 436.2,-268.9 453.16,-231.95 461.2,-209.17"/>
<polygon fill="midnightblue" stroke="midnightblue" points="464.56,-210.14 464.37,-199.55 457.92,-207.95 464.56,-210.14"/>
</g>
<!-- Node6&#45;&gt;Node7 -->
<g id="edge9" class="edge">
<title>Node6&#45;&gt;Node7</title>
<path fill="none" stroke="midnightblue" d="M258.1,-266C271.38,-266 286.89,-266 301.45,-266"/>
<polygon fill="midnightblue" stroke="midnightblue" points="301.84,-269.5 311.84,-266 301.84,-262.5 301.84,-269.5"/>
</g>
<!-- Node8&#45;&gt;Node4 -->
<g id="edge12" class="edge">
<title>Node8&#45;&gt;Node4</title>
<path fill="none" stroke="midnightblue" d="M239.26,-123.26C272.03,-103.68 350.73,-63.99 407,-95 436.2,-111.1 453.16,-148.05 461.2,-170.83"/>
<polygon fill="midnightblue" stroke="midnightblue" points="457.92,-172.05 464.37,-180.45 464.56,-169.86 457.92,-172.05"/>
</g>
<!-- Node9 -->
<g id="node9" class="node">
<title>Node9</title>
<g id="a_node9"><a xlink:href="cJSON_8c.html#aa7a85b63f1830e7e666e1f56872d5d3e" target="_top" xlink:title=" ">
<polygon fill="white" stroke="black" points="304.5,-142.5 304.5,-161.5 402.5,-161.5 402.5,-142.5 304.5,-142.5"/>
<text text-anchor="middle" x="353.5" y="-149.5" font-family="Helvetica,sans-Serif" font-size="10.00">compare_double</text>
</a>
</g>
</g>
<!-- Node8&#45;&gt;Node9 -->
<g id="edge11" class="edge">
<title>Node8&#45;&gt;Node9</title>
<path fill="none" stroke="midnightblue" d="M264.31,-138.96C273.8,-140.36 284.11,-141.89 294.22,-143.38"/>
<polygon fill="midnightblue" stroke="midnightblue" points="293.82,-146.86 304.23,-144.86 294.85,-139.94 293.82,-146.86"/>
</g>
<!-- Node10 -->
<g id="node10" class="node">
<title>Node10</title>
<g id="a_node10"><a xlink:href="cJSON_8c.html#ab25412ae56c8c594831918169bea100d" target="_top" xlink:title=" ">
<polygon fill="white" stroke="black" points="300,-104.5 300,-123.5 407,-123.5 407,-104.5 300,-104.5"/>
<text text-anchor="middle" x="353.5" y="-111.5" font-family="Helvetica,sans-Serif" font-size="10.00">get_decimal_point</text>
</a>
</g>
</g>
<!-- Node8&#45;&gt;Node10 -->
<g id="edge13" class="edge">
<title>Node8&#45;&gt;Node10</title>
<path fill="none" stroke="midnightblue" d="M264.31,-127.04C272.35,-125.85 280.97,-124.58 289.57,-123.31"/>
<polygon fill="midnightblue" stroke="midnightblue" points="290.22,-126.75 299.6,-121.82 289.2,-119.82 290.22,-126.75"/>
</g>
<!-- Node11&#45;&gt;Node3 -->
<g id="edge18" class="edge">
<title>Node11&#45;&gt;Node3</title>
<path fill="none" stroke="midnightblue" d="M185.94,-234.37C176.45,-234.76 166.11,-234.85 156.23,-234.64"/>
<polygon fill="midnightblue" stroke="midnightblue" points="156.27,-231.14 146.16,-234.31 156.04,-238.14 156.27,-231.14"/>
</g>
<!-- Node11&#45;&gt;Node4 -->
<g id="edge15" class="edge">
<title>Node11&#45;&gt;Node4</title>
<path fill="none" stroke="midnightblue" d="M260.1,-226.42C297.25,-224.29 356.65,-219.47 407,-209 415.61,-207.21 424.74,-204.67 433.21,-202.02"/>
<polygon fill="midnightblue" stroke="midnightblue" points="434.35,-205.33 442.78,-198.91 432.18,-198.67 434.35,-205.33"/>
</g>
<!-- Node11&#45;&gt;Node7 -->
<g id="edge19" class="edge">
<title>Node11&#45;&gt;Node7</title>
<path fill="none" stroke="midnightblue" d="M256.43,-237.59C272.71,-242.4 292.64,-248.3 310.12,-253.47"/>
<polygon fill="midnightblue" stroke="midnightblue" points="309.5,-256.93 320.08,-256.41 311.49,-250.22 309.5,-256.93"/>
</g>
<!-- Node12 -->
<g id="node12" class="node">
<title>Node12</title>
<g id="a_node12"><a xlink:href="cJSON_8c.html#af5b4e769356f10d99a7f66697c42c1bb" target="_top" xlink:title=" ">
<polygon fill="white" stroke="black" points="308,-180.5 308,-199.5 399,-199.5 399,-180.5 308,-180.5"/>
<text text-anchor="middle" x="353.5" y="-187.5" font-family="Helvetica,sans-Serif" font-size="10.00">print_string_ptr</text>
</a>
</g>
</g>
<!-- Node11&#45;&gt;Node12 -->
<g id="edge16" class="edge">
<title>Node11&#45;&gt;Node12</title>
<path fill="none" stroke="midnightblue" d="M256.43,-218.41C272.71,-213.6 292.64,-207.7 310.12,-202.53"/>
<polygon fill="midnightblue" stroke="midnightblue" points="311.49,-205.78 320.08,-199.59 309.5,-199.07 311.49,-205.78"/>
</g>
<!-- Node12&#45;&gt;Node4 -->
<g id="edge17" class="edge">
<title>Node12&#45;&gt;Node4</title>
<path fill="none" stroke="midnightblue" d="M399.29,-190C410.41,-190 422.15,-190 432.68,-190"/>
<polygon fill="midnightblue" stroke="midnightblue" points="432.74,-193.5 442.74,-190 432.74,-186.5 432.74,-193.5"/>
</g>
<!-- Node13&#45;&gt;Node12 -->
<g id="edge21" class="edge">
<title>Node13&#45;&gt;Node12</title>
<path fill="none" stroke="midnightblue" d="M259.11,-190C270.96,-190 284.48,-190 297.48,-190"/>
<polygon fill="midnightblue" stroke="midnightblue" points="297.76,-193.5 307.76,-190 297.76,-186.5 297.76,-193.5"/>
</g>
</g>
</svg>
