<?xml version="1.0" encoding="UTF-8" standalone="no"?>
<!DOCTYPE svg PUBLIC "-//W3C//DTD SVG 1.1//EN"
 "http://www.w3.org/Graphics/SVG/1.1/DTD/svg11.dtd">
<!-- Generated by graphviz version 2.43.0 (0)
 -->
<!-- Title: print_array Pages: 1 -->
<svg width="711pt" height="272pt"
 viewBox="0.00 0.00 711.00 272.38" xmlns="http://www.w3.org/2000/svg" xmlns:xlink="http://www.w3.org/1999/xlink">
<g id="graph0" class="graph" transform="scale(1 1) rotate(0) translate(4 268.38)">
<title>print_array</title>
<polygon fill="white" stroke="transparent" points="-4,4 -4,-268.38 707,-268.38 707,4 -4,4"/>
<!-- Node1 -->
<g id="node1" class="node">
<title>Node1</title>
<g id="a_node1"><a xlink:title=" ">
<polygon fill="#bfbfbf" stroke="black" points="0,-54.88 0,-73.88 70,-73.88 70,-54.88 0,-54.88"/>
<text text-anchor="middle" x="35" y="-61.88" font-family="Helvetica,sans-Serif" font-size="10.00">print_array</text>
</a>
</g>
</g>
<!-- Node2 -->
<g id="node2" class="node">
<title>Node2</title>
<g id="a_node2"><a xlink:href="cJSON_8c.html#a3faa1600bc8001eaed05f16060668ce6" target="_top" xlink:title=" ">
<polygon fill="white" stroke="black" points="474,-92.88 474,-111.88 524,-111.88 524,-92.88 474,-92.88"/>
<text text-anchor="middle" x="499" y="-99.88" font-family="Helvetica,sans-Serif" font-size="10.00">ensure</text>
</a>
</g>
</g>
<!-- Node1&#45;&gt;Node2 -->
<g id="edge1" class="edge">
<title>Node1&#45;&gt;Node2</title>
<path fill="none" stroke="midnightblue" d="M57.87,-54.87C120.7,-29.05 305.66,36.23 438,-27.38 462.09,-38.96 479.54,-65.45 489.22,-83.63"/>
<polygon fill="midnightblue" stroke="midnightblue" points="486.17,-85.37 493.79,-92.73 492.43,-82.22 486.17,-85.37"/>
</g>
<!-- Node5 -->
<g id="node5" class="node">
<title>Node5</title>
<g id="a_node5"><a xlink:href="cJSON_8c.html#a5ba141f183b9abb4b49e38a211299c7e" target="_top" xlink:title=" ">
<polygon fill="white" stroke="black" points="106,-92.88 106,-111.88 177,-111.88 177,-92.88 106,-92.88"/>
<text text-anchor="middle" x="141.5" y="-99.88" font-family="Helvetica,sans-Serif" font-size="10.00">print_value</text>
</a>
</g>
</g>
<!-- Node1&#45;&gt;Node5 -->
<g id="edge4" class="edge">
<title>Node1&#45;&gt;Node5</title>
<path fill="none" stroke="midnightblue" d="M70.22,-70.44C85.83,-75.45 103.9,-82.26 117.8,-88.45"/>
<polygon fill="midnightblue" stroke="midnightblue" points="116.56,-91.73 127.1,-92.81 119.53,-85.39 116.56,-91.73"/>
</g>
<!-- Node11 -->
<g id="node11" class="node">
<title>Node11</title>
<g id="a_node11"><a xlink:href="cJSON_8c.html#af5fb173126786c1e3f90b6df6e2500c5" target="_top" xlink:title=" ">
<polygon fill="white" stroke="black" points="343,-54.88 343,-73.88 426,-73.88 426,-54.88 343,-54.88"/>
<text text-anchor="middle" x="384.5" y="-61.88" font-family="Helvetica,sans-Serif" font-size="10.00">update_offset</text>
</a>
</g>
</g>
<!-- Node1&#45;&gt;Node11 -->
<g id="edge19" class="edge">
<title>Node1&#45;&gt;Node11</title>
<path fill="none" stroke="midnightblue" d="M70.27,-64.38C131.72,-64.38 260.9,-64.38 332.68,-64.38"/>
<polygon fill="midnightblue" stroke="midnightblue" points="332.84,-67.88 342.84,-64.38 332.84,-60.88 332.84,-67.88"/>
</g>
<!-- Node3 -->
<g id="node3" class="node">
<title>Node3</title>
<g id="a_node3"><a xlink:href="structinternal__hooks.html#a872a0c28217b451331d24b8e0484b293" target="_top" xlink:title=" ">
<polygon fill="white" stroke="black" points="564.5,-111.88 564.5,-130.88 698.5,-130.88 698.5,-111.88 564.5,-111.88"/>
<text text-anchor="middle" x="631.5" y="-118.88" font-family="Helvetica,sans-Serif" font-size="10.00">internal_hooks::allocate</text>
</a>
</g>
</g>
<!-- Node2&#45;&gt;Node3 -->
<g id="edge2" class="edge">
<title>Node2&#45;&gt;Node3</title>
<path fill="none" stroke="midnightblue" d="M524.24,-105.91C533.16,-107.21 543.79,-108.76 554.84,-110.36"/>
<polygon fill="midnightblue" stroke="midnightblue" points="554.65,-113.87 565.05,-111.85 555.66,-106.95 554.65,-113.87"/>
</g>
<!-- Node4 -->
<g id="node4" class="node">
<title>Node4</title>
<g id="a_node4"><a xlink:href="structinternal__hooks.html#a5dd48d5c2f2b1cf4f6eec5df6205e15c" target="_top" xlink:title=" ">
<polygon fill="white" stroke="black" points="560,-73.88 560,-92.88 703,-92.88 703,-73.88 560,-73.88"/>
<text text-anchor="middle" x="631.5" y="-80.88" font-family="Helvetica,sans-Serif" font-size="10.00">internal_hooks::reallocate</text>
</a>
</g>
</g>
<!-- Node2&#45;&gt;Node4 -->
<g id="edge3" class="edge">
<title>Node2&#45;&gt;Node4</title>
<path fill="none" stroke="midnightblue" d="M524.24,-98.85C533.16,-97.55 543.79,-96 554.84,-94.4"/>
<polygon fill="midnightblue" stroke="midnightblue" points="555.66,-97.81 565.05,-92.91 554.65,-90.89 555.66,-97.81"/>
</g>
<!-- Node5&#45;&gt;Node1 -->
<g id="edge6" class="edge">
<title>Node5&#45;&gt;Node1</title>
<path fill="none" stroke="midnightblue" d="M105.7,-96.13C90.28,-91.16 72.56,-84.48 58.85,-78.38"/>
<polygon fill="midnightblue" stroke="midnightblue" points="60.2,-75.15 49.66,-74.08 57.23,-81.49 60.2,-75.15"/>
</g>
<!-- Node5&#45;&gt;Node2 -->
<g id="edge5" class="edge">
<title>Node5&#45;&gt;Node2</title>
<path fill="none" stroke="midnightblue" d="M159.13,-92.87C205.08,-67.9 337.07,-5.08 438,-45.38 457.7,-53.25 474.64,-71 485.44,-84.62"/>
<polygon fill="midnightblue" stroke="midnightblue" points="482.81,-86.95 491.63,-92.83 488.4,-82.73 482.81,-86.95"/>
</g>
<!-- Node6 -->
<g id="node6" class="node">
<title>Node6</title>
<g id="a_node6"><a xlink:href="cJSON_8c.html#ad93d84de08872da0eaa6624be0e74a68" target="_top" xlink:title=" ">
<polygon fill="white" stroke="black" points="213,-187.88 213,-206.88 295,-206.88 295,-187.88 213,-187.88"/>
<text text-anchor="middle" x="254" y="-194.88" font-family="Helvetica,sans-Serif" font-size="10.00">print_number</text>
</a>
</g>
</g>
<!-- Node5&#45;&gt;Node6 -->
<g id="edge7" class="edge">
<title>Node5&#45;&gt;Node6</title>
<path fill="none" stroke="midnightblue" d="M153.91,-112.19C172.87,-128.49 211.04,-161.31 234.08,-181.11"/>
<polygon fill="midnightblue" stroke="midnightblue" points="231.95,-183.9 241.82,-187.77 236.52,-178.59 231.95,-183.9"/>
</g>
<!-- Node9 -->
<g id="node9" class="node">
<title>Node9</title>
<g id="a_node9"><a xlink:href="cJSON_8c.html#a3d742f5c68799bca291432a9cd72f8dd" target="_top" xlink:title=" ">
<polygon fill="white" stroke="black" points="217,-92.88 217,-111.88 291,-111.88 291,-92.88 217,-92.88"/>
<text text-anchor="middle" x="254" y="-99.88" font-family="Helvetica,sans-Serif" font-size="10.00">print_object</text>
</a>
</g>
</g>
<!-- Node5&#45;&gt;Node9 -->
<g id="edge11" class="edge">
<title>Node5&#45;&gt;Node9</title>
<path fill="none" stroke="midnightblue" d="M177.16,-96.06C186.55,-95.65 196.88,-95.53 206.8,-95.71"/>
<polygon fill="midnightblue" stroke="midnightblue" points="206.84,-99.21 216.94,-96.01 207.04,-92.22 206.84,-99.21"/>
</g>
<!-- Node12 -->
<g id="node12" class="node">
<title>Node12</title>
<g id="a_node12"><a xlink:href="cJSON_8c.html#ad087dd738e49b4258f0a3d378a121df6" target="_top" xlink:title=" ">
<polygon fill="white" stroke="black" points="218,-130.88 218,-149.88 290,-149.88 290,-130.88 218,-130.88"/>
<text text-anchor="middle" x="254" y="-137.88" font-family="Helvetica,sans-Serif" font-size="10.00">print_string</text>
</a>
</g>
</g>
<!-- Node5&#45;&gt;Node12 -->
<g id="edge17" class="edge">
<title>Node5&#45;&gt;Node12</title>
<path fill="none" stroke="midnightblue" d="M170.38,-111.97C183.99,-116.65 200.57,-122.35 215.29,-127.41"/>
<polygon fill="midnightblue" stroke="midnightblue" points="214.53,-130.85 225.13,-130.79 216.81,-124.23 214.53,-130.85"/>
</g>
<!-- Node6&#45;&gt;Node2 -->
<g id="edge9" class="edge">
<title>Node6&#45;&gt;Node2</title>
<path fill="none" stroke="midnightblue" d="M295.32,-195.36C333.89,-192 392.72,-183.08 438,-159.38 456.38,-149.76 473.11,-132.86 484.21,-119.95"/>
<polygon fill="midnightblue" stroke="midnightblue" points="486.97,-122.1 490.65,-112.16 481.58,-117.64 486.97,-122.1"/>
</g>
<!-- Node7 -->
<g id="node7" class="node">
<title>Node7</title>
<g id="a_node7"><a xlink:href="cJSON_8c.html#aa7a85b63f1830e7e666e1f56872d5d3e" target="_top" xlink:title=" ">
<polygon fill="white" stroke="black" points="335.5,-244.88 335.5,-263.88 433.5,-263.88 433.5,-244.88 335.5,-244.88"/>
<text text-anchor="middle" x="384.5" y="-251.88" font-family="Helvetica,sans-Serif" font-size="10.00">compare_double</text>
</a>
</g>
</g>
<!-- Node6&#45;&gt;Node7 -->
<g id="edge8" class="edge">
<title>Node6&#45;&gt;Node7</title>
<path fill="none" stroke="midnightblue" d="M272.84,-207.04C288.07,-215.11 310.67,-226.65 331,-235.38 335.72,-237.41 340.74,-239.41 345.73,-241.31"/>
<polygon fill="midnightblue" stroke="midnightblue" points="344.61,-244.63 355.2,-244.82 347.04,-238.06 344.61,-244.63"/>
</g>
<!-- Node8 -->
<g id="node8" class="node">
<title>Node8</title>
<g id="a_node8"><a xlink:href="cJSON_8c.html#ab25412ae56c8c594831918169bea100d" target="_top" xlink:title=" ">
<polygon fill="white" stroke="black" points="331,-206.88 331,-225.88 438,-225.88 438,-206.88 331,-206.88"/>
<text text-anchor="middle" x="384.5" y="-213.88" font-family="Helvetica,sans-Serif" font-size="10.00">get_decimal_point</text>
</a>
</g>
</g>
<!-- Node6&#45;&gt;Node8 -->
<g id="edge10" class="edge">
<title>Node6&#45;&gt;Node8</title>
<path fill="none" stroke="midnightblue" d="M295.31,-203.34C303.35,-204.53 311.97,-205.8 320.57,-207.07"/>
<polygon fill="midnightblue" stroke="midnightblue" points="320.2,-210.56 330.6,-208.56 321.22,-203.63 320.2,-210.56"/>
</g>
<!-- Node9&#45;&gt;Node2 -->
<g id="edge12" class="edge">
<title>Node9&#45;&gt;Node2</title>
<path fill="none" stroke="midnightblue" d="M291.12,-102.38C337.63,-102.38 417.9,-102.38 463.57,-102.38"/>
<polygon fill="midnightblue" stroke="midnightblue" points="463.86,-105.88 473.86,-102.38 463.86,-98.88 463.86,-105.88"/>
</g>
<!-- Node9&#45;&gt;Node5 -->
<g id="edge15" class="edge">
<title>Node9&#45;&gt;Node5</title>
<path fill="none" stroke="midnightblue" d="M216.94,-108.75C207.45,-109.14 197.11,-109.23 187.23,-109.02"/>
<polygon fill="midnightblue" stroke="midnightblue" points="187.27,-105.52 177.16,-108.69 187.04,-112.52 187.27,-105.52"/>
</g>
<!-- Node10 -->
<g id="node10" class="node">
<title>Node10</title>
<g id="a_node10"><a xlink:href="cJSON_8c.html#af5b4e769356f10d99a7f66697c42c1bb" target="_top" xlink:title=" ">
<polygon fill="white" stroke="black" points="339,-130.88 339,-149.88 430,-149.88 430,-130.88 339,-130.88"/>
<text text-anchor="middle" x="384.5" y="-137.88" font-family="Helvetica,sans-Serif" font-size="10.00">print_string_ptr</text>
</a>
</g>
</g>
<!-- Node9&#45;&gt;Node10 -->
<g id="edge13" class="edge">
<title>Node9&#45;&gt;Node10</title>
<path fill="none" stroke="midnightblue" d="M287.43,-111.97C303.71,-116.78 323.64,-122.68 341.12,-127.85"/>
<polygon fill="midnightblue" stroke="midnightblue" points="340.5,-131.31 351.08,-130.79 342.49,-124.6 340.5,-131.31"/>
</g>
<!-- Node9&#45;&gt;Node11 -->
<g id="edge16" class="edge">
<title>Node9&#45;&gt;Node11</title>
<path fill="none" stroke="midnightblue" d="M287.43,-92.79C303.71,-87.98 323.64,-82.08 341.12,-76.91"/>
<polygon fill="midnightblue" stroke="midnightblue" points="342.49,-80.16 351.08,-73.97 340.5,-73.45 342.49,-80.16"/>
</g>
<!-- Node10&#45;&gt;Node2 -->
<g id="edge14" class="edge">
<title>Node10&#45;&gt;Node2</title>
<path fill="none" stroke="midnightblue" d="M413.89,-130.79C429.2,-125.62 448.19,-119.2 464.25,-113.78"/>
<polygon fill="midnightblue" stroke="midnightblue" points="465.46,-117.07 473.81,-110.55 463.22,-110.43 465.46,-117.07"/>
</g>
<!-- Node12&#45;&gt;Node10 -->
<g id="edge18" class="edge">
<title>Node12&#45;&gt;Node10</title>
<path fill="none" stroke="midnightblue" d="M290.11,-140.38C301.96,-140.38 315.48,-140.38 328.48,-140.38"/>
<polygon fill="midnightblue" stroke="midnightblue" points="328.76,-143.88 338.76,-140.38 328.76,-136.88 328.76,-143.88"/>
</g>
</g>
</svg>
