<?xml version="1.0" encoding="UTF-8" standalone="no"?>
<!DOCTYPE svg PUBLIC "-//W3C//DTD SVG 1.1//EN"
 "http://www.w3.org/Graphics/SVG/1.1/DTD/svg11.dtd">
<!-- Generated by graphviz version 2.43.0 (0)
 -->
<!-- Title: print_array Pages: 1 -->
<svg width="711pt" height="270pt"
 viewBox="0.00 0.00 711.00 269.78" xmlns="http://www.w3.org/2000/svg" xmlns:xlink="http://www.w3.org/1999/xlink">
<g id="graph0" class="graph" transform="scale(1 1) rotate(0) translate(4 265.78)">
<title>print_array</title>
<!-- Node1 -->
<g id="Node000001" class="node">
<title>Node1</title>
<g id="a_Node000001"><a xlink:title=" ">
<polygon fill="#999999" stroke="#666666" points="70,-72.78 0,-72.78 0,-53.78 70,-53.78 70,-72.78"/>
<text text-anchor="middle" x="35" y="-60.78" font-family="Helvetica,sans-Serif" font-size="10.00">print_array</text>
</a>
</g>
</g>
<!-- Node2 -->
<g id="Node000002" class="node">
<title>Node2</title>
<g id="a_Node000002"><a xlink:href="cJSON_8c.html#ad9f9a9b2ad3154fc8033756f23c023a6" target="_top" xlink:title=" ">
<polygon fill="white" stroke="#666666" points="524,-110.78 474,-110.78 474,-91.78 524,-91.78 524,-110.78"/>
<text text-anchor="middle" x="499" y="-98.78" font-family="Helvetica,sans-Serif" font-size="10.00">ensure</text>
</a>
</g>
</g>
<!-- Node1&#45;&gt;Node2 -->
<g id="edge1_Node000001_Node000002" class="edge">
<title>Node1&#45;&gt;Node2</title>
<g id="a_edge1_Node000001_Node000002"><a xlink:title=" ">
<path fill="none" stroke="#63b8ff" d="M58.31,-53.72C121.52,-28.14 305.8,35.72 438,-27.28 461.94,-38.69 479.42,-64.83 489.15,-82.78"/>
<polygon fill="#63b8ff" stroke="#63b8ff" points="486.08,-84.45 493.75,-91.76 492.31,-81.26 486.08,-84.45"/>
</a>
</g>
</g>
<!-- Node5 -->
<g id="Node000005" class="node">
<title>Node5</title>
<g id="a_Node000005"><a xlink:href="cJSON_8c.html#a5ba141f183b9abb4b49e38a211299c7e" target="_top" xlink:title=" ">
<polygon fill="white" stroke="#666666" points="177,-110.78 106,-110.78 106,-91.78 177,-91.78 177,-110.78"/>
<text text-anchor="middle" x="141.5" y="-98.78" font-family="Helvetica,sans-Serif" font-size="10.00">print_value</text>
</a>
</g>
</g>
<!-- Node1&#45;&gt;Node5 -->
<g id="edge4_Node000001_Node000005" class="edge">
<title>Node1&#45;&gt;Node5</title>
<g id="a_edge4_Node000001_Node000005"><a xlink:title=" ">
<path fill="none" stroke="#63b8ff" d="M70.22,-69.35C85.83,-74.36 103.9,-81.16 117.8,-87.35"/>
<polygon fill="#63b8ff" stroke="#63b8ff" points="116.56,-90.63 127.1,-91.71 119.53,-84.29 116.56,-90.63"/>
</a>
</g>
</g>
<!-- Node11 -->
<g id="Node000011" class="node">
<title>Node11</title>
<g id="a_Node000011"><a xlink:href="cJSON_8c.html#af5fb173126786c1e3f90b6df6e2500c5" target="_top" xlink:title=" ">
<polygon fill="white" stroke="#666666" points="426,-72.78 343,-72.78 343,-53.78 426,-53.78 426,-72.78"/>
<text text-anchor="middle" x="384.5" y="-60.78" font-family="Helvetica,sans-Serif" font-size="10.00">update_offset</text>
</a>
</g>
</g>
<!-- Node1&#45;&gt;Node11 -->
<g id="edge19_Node000001_Node000011" class="edge">
<title>Node1&#45;&gt;Node11</title>
<g id="a_edge19_Node000001_Node000011"><a xlink:title=" ">
<path fill="none" stroke="#63b8ff" d="M70.27,-63.28C131.72,-63.28 260.9,-63.28 332.68,-63.28"/>
<polygon fill="#63b8ff" stroke="#63b8ff" points="332.84,-66.78 342.84,-63.28 332.84,-59.78 332.84,-66.78"/>
</a>
</g>
</g>
<!-- Node3 -->
<g id="Node000003" class="node">
<title>Node3</title>
<g id="a_Node000003"><a xlink:href="structinternal__hooks.html#a8b8f7ff45faa5da18dd3ccd2a2c8e416" target="_top" xlink:title=" ">
<polygon fill="white" stroke="#666666" points="698.5,-129.78 564.5,-129.78 564.5,-110.78 698.5,-110.78 698.5,-129.78"/>
<text text-anchor="middle" x="631.5" y="-117.78" font-family="Helvetica,sans-Serif" font-size="10.00">internal_hooks::allocate</text>
</a>
</g>
</g>
<!-- Node2&#45;&gt;Node3 -->
<g id="edge2_Node000002_Node000003" class="edge">
<title>Node2&#45;&gt;Node3</title>
<g id="a_edge2_Node000002_Node000003"><a xlink:title=" ">
<path fill="none" stroke="#63b8ff" d="M524.24,-104.81C533.16,-106.11 543.79,-107.66 554.84,-109.27"/>
<polygon fill="#63b8ff" stroke="#63b8ff" points="554.65,-112.78 565.05,-110.76 555.66,-105.85 554.65,-112.78"/>
</a>
</g>
</g>
<!-- Node4 -->
<g id="Node000004" class="node">
<title>Node4</title>
<g id="a_Node000004"><a xlink:href="structinternal__hooks.html#a7c3921493fab83f33cd509145d8a5393" target="_top" xlink:title=" ">
<polygon fill="white" stroke="#666666" points="703,-92.78 560,-92.78 560,-73.78 703,-73.78 703,-92.78"/>
<text text-anchor="middle" x="631.5" y="-80.78" font-family="Helvetica,sans-Serif" font-size="10.00">internal_hooks::reallocate</text>
</a>
</g>
</g>
<!-- Node2&#45;&gt;Node4 -->
<g id="edge3_Node000002_Node000004" class="edge">
<title>Node2&#45;&gt;Node4</title>
<g id="a_edge3_Node000002_Node000004"><a xlink:title=" ">
<path fill="none" stroke="#63b8ff" d="M524.24,-97.94C532.26,-96.83 541.66,-95.54 551.5,-94.18"/>
<polygon fill="#63b8ff" stroke="#63b8ff" points="552.03,-97.64 561.45,-92.81 551.07,-90.71 552.03,-97.64"/>
</a>
</g>
</g>
<!-- Node5&#45;&gt;Node1 -->
<g id="edge6_Node000005_Node000001" class="edge">
<title>Node5&#45;&gt;Node1</title>
<g id="a_edge6_Node000005_Node000001"><a xlink:title=" ">
<path fill="none" stroke="#63b8ff" d="M105.7,-95.03C90.28,-90.06 72.56,-83.38 58.85,-77.28"/>
<polygon fill="#63b8ff" stroke="#63b8ff" points="60.2,-74.05 49.66,-72.98 57.23,-80.39 60.2,-74.05"/>
</a>
</g>
</g>
<!-- Node5&#45;&gt;Node2 -->
<g id="edge5_Node000005_Node000002" class="edge">
<title>Node5&#45;&gt;Node2</title>
<g id="a_edge5_Node000005_Node000002"><a xlink:title=" ">
<path fill="none" stroke="#63b8ff" d="M159.45,-91.74C205.67,-67.02 337.2,-5.55 438,-45.28 457.36,-52.91 474.15,-70.06 485.01,-83.38"/>
<polygon fill="#63b8ff" stroke="#63b8ff" points="482.37,-85.68 491.26,-91.45 487.9,-81.4 482.37,-85.68"/>
</a>
</g>
</g>
<!-- Node6 -->
<g id="Node000006" class="node">
<title>Node6</title>
<g id="a_Node000006"><a xlink:href="cJSON_8c.html#ad93d84de08872da0eaa6624be0e74a68" target="_top" xlink:title=" ">
<polygon fill="white" stroke="#666666" points="295,-205.78 213,-205.78 213,-186.78 295,-186.78 295,-205.78"/>
<text text-anchor="middle" x="254" y="-193.78" font-family="Helvetica,sans-Serif" font-size="10.00">print_number</text>
</a>
</g>
</g>
<!-- Node5&#45;&gt;Node6 -->
<g id="edge7_Node000005_Node000006" class="edge">
<title>Node5&#45;&gt;Node6</title>
<g id="a_edge7_Node000005_Node000006"><a xlink:title=" ">
<path fill="none" stroke="#63b8ff" d="M153.91,-111.09C172.87,-127.39 211.04,-160.21 234.08,-180.02"/>
<polygon fill="#63b8ff" stroke="#63b8ff" points="231.95,-182.8 241.82,-186.67 236.52,-177.5 231.95,-182.8"/>
</a>
</g>
</g>
<!-- Node9 -->
<g id="Node000009" class="node">
<title>Node9</title>
<g id="a_Node000009"><a xlink:href="cJSON_8c.html#a3d742f5c68799bca291432a9cd72f8dd" target="_top" xlink:title=" ">
<polygon fill="white" stroke="#666666" points="291,-110.78 217,-110.78 217,-91.78 291,-91.78 291,-110.78"/>
<text text-anchor="middle" x="254" y="-98.78" font-family="Helvetica,sans-Serif" font-size="10.00">print_object</text>
</a>
</g>
</g>
<!-- Node5&#45;&gt;Node9 -->
<g id="edge11_Node000005_Node000009" class="edge">
<title>Node5&#45;&gt;Node9</title>
<g id="a_edge11_Node000005_Node000009"><a xlink:title=" ">
<path fill="none" stroke="#63b8ff" d="M177.16,-94.97C186.55,-94.55 196.88,-94.44 206.8,-94.61"/>
<polygon fill="#63b8ff" stroke="#63b8ff" points="206.84,-98.12 216.94,-94.91 207.04,-91.12 206.84,-98.12"/>
</a>
</g>
</g>
<!-- Node12 -->
<g id="Node000012" class="node">
<title>Node12</title>
<g id="a_Node000012"><a xlink:href="cJSON_8c.html#ad087dd738e49b4258f0a3d378a121df6" target="_top" xlink:title=" ">
<polygon fill="white" stroke="#666666" points="290,-148.78 218,-148.78 218,-129.78 290,-129.78 290,-148.78"/>
<text text-anchor="middle" x="254" y="-136.78" font-family="Helvetica,sans-Serif" font-size="10.00">print_string</text>
</a>
</g>
</g>
<!-- Node5&#45;&gt;Node12 -->
<g id="edge17_Node000005_Node000012" class="edge">
<title>Node5&#45;&gt;Node12</title>
<g id="a_edge17_Node000005_Node000012"><a xlink:title=" ">
<path fill="none" stroke="#63b8ff" d="M170.38,-110.87C183.99,-115.55 200.57,-121.25 215.29,-126.32"/>
<polygon fill="#63b8ff" stroke="#63b8ff" points="214.53,-129.76 225.13,-129.7 216.81,-123.14 214.53,-129.76"/>
</a>
</g>
</g>
<!-- Node6&#45;&gt;Node2 -->
<g id="edge9_Node000006_Node000002" class="edge">
<title>Node6&#45;&gt;Node2</title>
<g id="a_edge9_Node000006_Node000002"><a xlink:title=" ">
<path fill="none" stroke="#63b8ff" d="M295.32,-194.26C333.89,-190.91 392.72,-181.99 438,-158.28 456.38,-148.66 473.11,-131.76 484.21,-118.86"/>
<polygon fill="#63b8ff" stroke="#63b8ff" points="486.97,-121.01 490.65,-111.07 481.58,-116.55 486.97,-121.01"/>
</a>
</g>
</g>
<!-- Node7 -->
<g id="Node000007" class="node">
<title>Node7</title>
<g id="a_Node000007"><a xlink:href="cJSON_8c.html#aa7a85b63f1830e7e666e1f56872d5d3e" target="_top" xlink:title=" ">
<polygon fill="white" stroke="#666666" points="433.5,-261.78 335.5,-261.78 335.5,-242.78 433.5,-242.78 433.5,-261.78"/>
<text text-anchor="middle" x="384.5" y="-249.78" font-family="Helvetica,sans-Serif" font-size="10.00">compare_double</text>
</a>
</g>
</g>
<!-- Node6&#45;&gt;Node7 -->
<g id="edge8_Node000006_Node000007" class="edge">
<title>Node6&#45;&gt;Node7</title>
<g id="a_edge8_Node000006_Node000007"><a xlink:title=" ">
<path fill="none" stroke="#63b8ff" d="M272.5,-205.87C287.71,-214 310.46,-225.67 331,-234.28 335.16,-236.03 339.56,-237.74 343.96,-239.36"/>
<polygon fill="#63b8ff" stroke="#63b8ff" points="342.94,-242.71 353.53,-242.78 345.29,-236.12 342.94,-242.71"/>
</a>
</g>
</g>
<!-- Node8 -->
<g id="Node000008" class="node">
<title>Node8</title>
<g id="a_Node000008"><a xlink:href="cJSON_8c.html#ab25412ae56c8c594831918169bea100d" target="_top" xlink:title=" ">
<polygon fill="white" stroke="#666666" points="438,-224.78 331,-224.78 331,-205.78 438,-205.78 438,-224.78"/>
<text text-anchor="middle" x="384.5" y="-212.78" font-family="Helvetica,sans-Serif" font-size="10.00">get_decimal_point</text>
</a>
</g>
</g>
<!-- Node6&#45;&gt;Node8 -->
<g id="edge10_Node000006_Node000008" class="edge">
<title>Node6&#45;&gt;Node8</title>
<g id="a_edge10_Node000006_Node000008"><a xlink:title=" ">
<path fill="none" stroke="#63b8ff" d="M295.31,-202.24C303.35,-203.43 311.97,-204.71 320.57,-205.98"/>
<polygon fill="#63b8ff" stroke="#63b8ff" points="320.2,-209.46 330.6,-207.46 321.22,-202.54 320.2,-209.46"/>
</a>
</g>
</g>
<!-- Node9&#45;&gt;Node2 -->
<g id="edge12_Node000009_Node000002" class="edge">
<title>Node9&#45;&gt;Node2</title>
<g id="a_edge12_Node000009_Node000002"><a xlink:title=" ">
<path fill="none" stroke="#63b8ff" d="M291.12,-101.28C337.63,-101.28 417.9,-101.28 463.57,-101.28"/>
<polygon fill="#63b8ff" stroke="#63b8ff" points="463.86,-104.78 473.86,-101.28 463.86,-97.78 463.86,-104.78"/>
</a>
</g>
</g>
<!-- Node9&#45;&gt;Node5 -->
<g id="edge15_Node000009_Node000005" class="edge">
<title>Node9&#45;&gt;Node5</title>
<g id="a_edge15_Node000009_Node000005"><a xlink:title=" ">
<path fill="none" stroke="#63b8ff" d="M216.94,-107.66C207.45,-108.04 197.11,-108.13 187.23,-107.92"/>
<polygon fill="#63b8ff" stroke="#63b8ff" points="187.27,-104.42 177.16,-107.6 187.04,-111.42 187.27,-104.42"/>
</a>
</g>
</g>
<!-- Node10 -->
<g id="Node000010" class="node">
<title>Node10</title>
<g id="a_Node000010"><a xlink:href="cJSON_8c.html#af5b4e769356f10d99a7f66697c42c1bb" target="_top" xlink:title=" ">
<polygon fill="white" stroke="#666666" points="430,-148.78 339,-148.78 339,-129.78 430,-129.78 430,-148.78"/>
<text text-anchor="middle" x="384.5" y="-136.78" font-family="Helvetica,sans-Serif" font-size="10.00">print_string_ptr</text>
</a>
</g>
</g>
<!-- Node9&#45;&gt;Node10 -->
<g id="edge13_Node000009_Node000010" class="edge">
<title>Node9&#45;&gt;Node10</title>
<g id="a_edge13_Node000009_Node000010"><a xlink:title=" ">
<path fill="none" stroke="#63b8ff" d="M287.43,-110.87C303.71,-115.69 323.64,-121.58 341.12,-126.75"/>
<polygon fill="#63b8ff" stroke="#63b8ff" points="340.5,-130.22 351.08,-129.7 342.49,-123.51 340.5,-130.22"/>
</a>
</g>
</g>
<!-- Node9&#45;&gt;Node11 -->
<g id="edge16_Node000009_Node000011" class="edge">
<title>Node9&#45;&gt;Node11</title>
<g id="a_edge16_Node000009_Node000011"><a xlink:title=" ">
<path fill="none" stroke="#63b8ff" d="M287.43,-91.69C303.71,-86.88 323.64,-80.98 341.12,-75.82"/>
<polygon fill="#63b8ff" stroke="#63b8ff" points="342.49,-79.06 351.08,-72.87 340.5,-72.35 342.49,-79.06"/>
</a>
</g>
</g>
<!-- Node10&#45;&gt;Node2 -->
<g id="edge14_Node000010_Node000002" class="edge">
<title>Node10&#45;&gt;Node2</title>
<g id="a_edge14_Node000010_Node000002"><a xlink:title=" ">
<path fill="none" stroke="#63b8ff" d="M413.89,-129.69C429.2,-124.52 448.19,-118.11 464.25,-112.68"/>
<polygon fill="#63b8ff" stroke="#63b8ff" points="465.46,-115.97 473.81,-109.45 463.22,-109.34 465.46,-115.97"/>
</a>
</g>
</g>
<!-- Node12&#45;&gt;Node10 -->
<g id="edge18_Node000012_Node000010" class="edge">
<title>Node12&#45;&gt;Node10</title>
<g id="a_edge18_Node000012_Node000010"><a xlink:title=" ">
<path fill="none" stroke="#63b8ff" d="M290.11,-139.28C301.96,-139.28 315.48,-139.28 328.48,-139.28"/>
<polygon fill="#63b8ff" stroke="#63b8ff" points="328.76,-142.78 338.76,-139.28 328.76,-135.78 328.76,-142.78"/>
</a>
</g>
</g>
</g>
</svg>
