<?xml version="1.0" encoding="UTF-8" standalone="no"?>
<!DOCTYPE svg PUBLIC "-//W3C//DTD SVG 1.1//EN"
 "http://www.w3.org/Graphics/SVG/1.1/DTD/svg11.dtd">
<!-- Generated by graphviz version 2.43.0 (0)
 -->
<!-- Title: src/Libs/cJSON/cJSON.h Pages: 1 -->
<svg width="1427pt" height="159pt"
 viewBox="0.00 0.00 1426.50 159.00" xmlns="http://www.w3.org/2000/svg" xmlns:xlink="http://www.w3.org/1999/xlink">
<g id="graph0" class="graph" transform="scale(1 1) rotate(0) translate(4 155)">
<title>src/Libs/cJSON/cJSON.h</title>
<!-- Node1 -->
<g id="Node000001" class="node">
<title>Node1</title>
<g id="a_Node000001"><a xlink:title=" ">
<polygon fill="#999999" stroke="#666666" points="841,-151 714,-151 714,-132 841,-132 841,-151"/>
<text text-anchor="middle" x="777.5" y="-139" font-family="Helvetica,sans-Serif" font-size="10.00">src/Libs/cJSON/cJSON.h</text>
</a>
</g>
</g>
<!-- Node2 -->
<g id="Node000002" class="node">
<title>Node2</title>
<g id="a_Node000002"><a xlink:href="DataHandlers_8c.html" target="_top" xlink:title="Implementation of Data Handler Thread Group Management.">
<polygon fill="white" stroke="#666666" points="179,-24.5 0,-24.5 0,-5.5 179,-5.5 179,-24.5"/>
<text text-anchor="middle" x="89.5" y="-12.5" font-family="Helvetica,sans-Serif" font-size="10.00">src/DataHandlers/DataHandlers.c</text>
</a>
</g>
</g>
<!-- Node1&#45;&gt;Node2 -->
<g id="edge1_Node000001_Node000002" class="edge">
<title>Node1&#45;&gt;Node2</title>
<g id="a_edge1_Node000001_Node000002"><a xlink:title=" ">
<path fill="none" stroke="#63b8ff" d="M703.92,-140.79C606.22,-139.61 428.97,-132.05 282.5,-96 213.82,-79.1 137.79,-41.53 105.45,-24.58"/>
<polygon fill="#63b8ff" stroke="#63b8ff" points="703.95,-144.29 713.98,-140.89 704.02,-137.29 703.95,-144.29"/>
</a>
</g>
</g>
<!-- Node3 -->
<g id="Node000003" class="node">
<title>Node3</title>
<g id="a_Node000003"><a xlink:href="DataHandlers_8h.html" target="_top" xlink:title="Data Handler Management for Thread Group Creation.">
<polygon fill="white" stroke="#666666" points="682,-90.5 503,-90.5 503,-71.5 682,-71.5 682,-90.5"/>
<text text-anchor="middle" x="592.5" y="-78.5" font-family="Helvetica,sans-Serif" font-size="10.00">src/DataHandlers/DataHandlers.h</text>
</a>
</g>
</g>
<!-- Node1&#45;&gt;Node3 -->
<g id="edge2_Node000001_Node000003" class="edge">
<title>Node1&#45;&gt;Node3</title>
<g id="a_edge2_Node000001_Node000003"><a xlink:title=" ">
<path fill="none" stroke="#63b8ff" d="M741.02,-128.96C705.23,-117.65 651.51,-100.66 619.43,-90.52"/>
<polygon fill="#63b8ff" stroke="#63b8ff" points="740.01,-132.32 750.6,-131.99 742.12,-125.64 740.01,-132.32"/>
</a>
</g>
</g>
<!-- Node4 -->
<g id="Node000004" class="node">
<title>Node4</title>
<g id="a_Node000004"><a xlink:href="ModbusWithPostgres_8c.html" target="_top" xlink:title="Implementation of Modbus&#45;PostgreSQL integration.">
<polygon fill="white" stroke="#666666" points="370,-30 197,-30 197,0 370,0 370,-30"/>
<text text-anchor="start" x="205" y="-18" font-family="Helvetica,sans-Serif" font-size="10.00">src/DataHandlers/ModbusWith</text>
<text text-anchor="middle" x="283.5" y="-7" font-family="Helvetica,sans-Serif" font-size="10.00">Postgres/ModbusWithPostgres.c</text>
</a>
</g>
</g>
<!-- Node1&#45;&gt;Node4 -->
<g id="edge5_Node000001_Node000004" class="edge">
<title>Node1&#45;&gt;Node4</title>
<g id="a_edge5_Node000001_Node000004"><a xlink:title=" ">
<path fill="none" stroke="#63b8ff" d="M703.36,-138.24C577.34,-133.72 332.07,-121.7 302.5,-96 283.64,-79.61 281.69,-48.25 282.34,-30.04"/>
<polygon fill="#63b8ff" stroke="#63b8ff" points="703.58,-141.75 713.69,-138.6 703.82,-134.75 703.58,-141.75"/>
</a>
</g>
</g>
<!-- Node5 -->
<g id="Node000005" class="node">
<title>Node5</title>
<g id="a_Node000005"><a xlink:href="Main_8c.html" target="_top" xlink:title="Main implementation file for the Sensor Data Handler System.">
<polygon fill="white" stroke="#666666" points="636.5,-24.5 570.5,-24.5 570.5,-5.5 636.5,-5.5 636.5,-24.5"/>
<text text-anchor="middle" x="603.5" y="-12.5" font-family="Helvetica,sans-Serif" font-size="10.00">src/Main.c</text>
</a>
</g>
</g>
<!-- Node1&#45;&gt;Node5 -->
<g id="edge18_Node000001_Node000005" class="edge">
<title>Node1&#45;&gt;Node5</title>
<g id="a_edge18_Node000001_Node000005"><a xlink:title=" ">
<path fill="none" stroke="#63b8ff" d="M760.89,-124.62C743.92,-108.82 716.46,-84.34 690.5,-66 667.3,-49.62 638.38,-33.83 620.42,-24.52"/>
<polygon fill="#63b8ff" stroke="#63b8ff" points="758.64,-127.32 768.32,-131.62 763.44,-122.22 758.64,-127.32"/>
</a>
</g>
</g>
<!-- Node6 -->
<g id="Node000006" class="node">
<title>Node6</title>
<g id="a_Node000006"><a xlink:href="ModbusWithPostgres_8h.html" target="_top" xlink:title="Integration of Modbus and PostgreSQL data handling.">
<polygon fill="white" stroke="#666666" points="485,-96 312,-96 312,-66 485,-66 485,-96"/>
<text text-anchor="start" x="320" y="-84" font-family="Helvetica,sans-Serif" font-size="10.00">src/DataHandlers/ModbusWith</text>
<text text-anchor="middle" x="398.5" y="-73" font-family="Helvetica,sans-Serif" font-size="10.00">Postgres/ModbusWithPostgres.h</text>
</a>
</g>
</g>
<!-- Node1&#45;&gt;Node6 -->
<g id="edge6_Node000001_Node000006" class="edge">
<title>Node1&#45;&gt;Node6</title>
<g id="a_edge6_Node000001_Node000006"><a xlink:title=" ">
<path fill="none" stroke="#63b8ff" d="M712.23,-130.42C649.51,-120.74 554.33,-106.05 485.25,-95.39"/>
<polygon fill="#63b8ff" stroke="#63b8ff" points="711.97,-133.93 722.39,-131.99 713.04,-127.01 711.97,-133.93"/>
</a>
</g>
</g>
<!-- Node9 -->
<g id="Node000009" class="node">
<title>Node9</title>
<g id="a_Node000009"><a xlink:href="DatabaseInitializer_8c.html" target="_top" xlink:title="Implementation of database configuration initialization.">
<polygon fill="white" stroke="#666666" points="1134.5,-96 1012.5,-96 1012.5,-66 1134.5,-66 1134.5,-96"/>
<text text-anchor="start" x="1020.5" y="-84" font-family="Helvetica,sans-Serif" font-size="10.00">src/DatabaseSystems</text>
<text text-anchor="middle" x="1073.5" y="-73" font-family="Helvetica,sans-Serif" font-size="10.00">/DatabaseInitializer.c</text>
</a>
</g>
</g>
<!-- Node1&#45;&gt;Node9 -->
<g id="edge11_Node000001_Node000009" class="edge">
<title>Node1&#45;&gt;Node9</title>
<g id="a_edge11_Node000001_Node000009"><a xlink:title=" ">
<path fill="none" stroke="#63b8ff" d="M830.39,-130.05C881.46,-119.95 958.73,-104.68 1012.4,-94.07"/>
<polygon fill="#63b8ff" stroke="#63b8ff" points="829.67,-126.62 820.54,-131.99 831.03,-133.49 829.67,-126.62"/>
</a>
</g>
</g>
<!-- Node10 -->
<g id="Node000010" class="node">
<title>Node10</title>
<g id="a_Node000010"><a xlink:href="DatabaseInitializer_8h.html" target="_top" xlink:title="Database configuration initialization interface.">
<polygon fill="white" stroke="#666666" points="956.5,-96 834.5,-96 834.5,-66 956.5,-66 956.5,-96"/>
<text text-anchor="start" x="842.5" y="-84" font-family="Helvetica,sans-Serif" font-size="10.00">src/DatabaseSystems</text>
<text text-anchor="middle" x="895.5" y="-73" font-family="Helvetica,sans-Serif" font-size="10.00">/DatabaseInitializer.h</text>
</a>
</g>
</g>
<!-- Node1&#45;&gt;Node10 -->
<g id="edge12_Node000001_Node000010" class="edge">
<title>Node1&#45;&gt;Node10</title>
<g id="a_edge12_Node000001_Node000010"><a xlink:title=" ">
<path fill="none" stroke="#63b8ff" d="M803.8,-127.46C822.53,-118.18 847.68,-105.71 866.9,-96.18"/>
<polygon fill="#63b8ff" stroke="#63b8ff" points="802.06,-124.42 794.66,-131.99 805.17,-130.69 802.06,-124.42"/>
</a>
</g>
</g>
<!-- Node11 -->
<g id="Node000011" class="node">
<title>Node11</title>
<g id="a_Node000011"><a xlink:href="DatabaseSystems_2Postgres_8c.html" target="_top" xlink:title="Implementation of PostgreSQL database operations.">
<polygon fill="white" stroke="#666666" points="1418.5,-30 1296.5,-30 1296.5,0 1418.5,0 1418.5,-30"/>
<text text-anchor="start" x="1304.5" y="-18" font-family="Helvetica,sans-Serif" font-size="10.00">src/DatabaseSystems</text>
<text text-anchor="middle" x="1357.5" y="-7" font-family="Helvetica,sans-Serif" font-size="10.00">/Postgres.c</text>
</a>
</g>
</g>
<!-- Node1&#45;&gt;Node11 -->
<g id="edge15_Node000001_Node000011" class="edge">
<title>Node1&#45;&gt;Node11</title>
<g id="a_edge15_Node000001_Node000011"><a xlink:title=" ">
<path fill="none" stroke="#63b8ff" d="M851.09,-130.73C886.87,-124.1 929.76,-113.28 965.5,-96 984.87,-86.63 983.66,-74.32 1003.5,-66 1120.83,-16.78 1161.93,-50.49 1287.5,-30 1290.44,-29.52 1293.44,-29.01 1296.46,-28.47"/>
<polygon fill="#63b8ff" stroke="#63b8ff" points="850.43,-127.29 841.2,-132.49 851.66,-134.18 850.43,-127.29"/>
</a>
</g>
</g>
<!-- Node12 -->
<g id="Node000012" class="node">
<title>Node12</title>
<g id="a_Node000012"><a xlink:href="DatabaseSystems_2Postgres_8h.html" target="_top" xlink:title="PostgreSQL interface for sensor data storage.">
<polygon fill="white" stroke="#666666" points="1274.5,-96 1152.5,-96 1152.5,-66 1274.5,-66 1274.5,-96"/>
<text text-anchor="start" x="1160.5" y="-84" font-family="Helvetica,sans-Serif" font-size="10.00">src/DatabaseSystems</text>
<text text-anchor="middle" x="1213.5" y="-73" font-family="Helvetica,sans-Serif" font-size="10.00">/Postgres.h</text>
</a>
</g>
</g>
<!-- Node1&#45;&gt;Node12 -->
<g id="edge16_Node000001_Node000012" class="edge">
<title>Node1&#45;&gt;Node12</title>
<g id="a_edge16_Node000001_Node000012"><a xlink:title=" ">
<path fill="none" stroke="#63b8ff" d="M851.34,-133.2C925.43,-125.48 1042.7,-112.18 1143.5,-96 1146.44,-95.53 1149.44,-95.02 1152.47,-94.49"/>
<polygon fill="#63b8ff" stroke="#63b8ff" points="850.77,-129.74 841.18,-134.25 851.49,-136.7 850.77,-129.74"/>
</a>
</g>
</g>
<!-- Node13 -->
<g id="Node000013" class="node">
<title>Node13</title>
<g id="a_Node000013"><a xlink:href="cJSON_8c.html" target="_top" xlink:title=" ">
<polygon fill="white" stroke="#666666" points="1418.5,-90.5 1292.5,-90.5 1292.5,-71.5 1418.5,-71.5 1418.5,-90.5"/>
<text text-anchor="middle" x="1355.5" y="-78.5" font-family="Helvetica,sans-Serif" font-size="10.00">src/Libs/cJSON/cJSON.c</text>
</a>
</g>
</g>
<!-- Node1&#45;&gt;Node13 -->
<g id="edge17_Node000001_Node000013" class="edge">
<title>Node1&#45;&gt;Node13</title>
<g id="a_edge17_Node000001_Node000013"><a xlink:title=" ">
<path fill="none" stroke="#63b8ff" d="M851.42,-136.42C950.23,-130.42 1130.63,-117.52 1283.5,-96 1293.97,-94.53 1305.21,-92.54 1315.64,-90.52"/>
<polygon fill="#63b8ff" stroke="#63b8ff" points="851.02,-132.94 841.25,-137.03 851.44,-139.93 851.02,-132.94"/>
</a>
</g>
</g>
<!-- Node14 -->
<g id="Node000014" class="node">
<title>Node14</title>
<g id="a_Node000014"><a xlink:href="Signals_8h.html" target="_top" xlink:title="Signal handling interface for the Sensor Data Handler System.">
<polygon fill="white" stroke="#666666" points="816.5,-90.5 738.5,-90.5 738.5,-71.5 816.5,-71.5 816.5,-90.5"/>
<text text-anchor="middle" x="777.5" y="-78.5" font-family="Helvetica,sans-Serif" font-size="10.00">src/Signals.h</text>
</a>
</g>
</g>
<!-- Node1&#45;&gt;Node14 -->
<g id="edge19_Node000001_Node000014" class="edge">
<title>Node1&#45;&gt;Node14</title>
<g id="a_edge19_Node000001_Node000014"><a xlink:title=" ">
<path fill="none" stroke="#63b8ff" d="M777.5,-121.66C777.5,-111.24 777.5,-98.8 777.5,-90.67"/>
<polygon fill="#63b8ff" stroke="#63b8ff" points="774,-121.87 777.5,-131.87 781,-121.87 774,-121.87"/>
</a>
</g>
</g>
<!-- Node3&#45;&gt;Node4 -->
<g id="edge3_Node000003_Node000004" class="edge">
<title>Node3&#45;&gt;Node4</title>
<g id="a_edge3_Node000003_Node000004"><a xlink:title=" ">
<path fill="none" stroke="#63b8ff" d="M541.14,-69.36C489.14,-58.59 408.43,-41.87 351.21,-30.02"/>
<polygon fill="#63b8ff" stroke="#63b8ff" points="540.65,-72.83 551.15,-71.44 542.07,-65.98 540.65,-72.83"/>
</a>
</g>
</g>
<!-- Node3&#45;&gt;Node5 -->
<g id="edge4_Node000003_Node000005" class="edge">
<title>Node3&#45;&gt;Node5</title>
<g id="a_edge4_Node000003_Node000005"><a xlink:title=" ">
<path fill="none" stroke="#63b8ff" d="M595.69,-61.45C597.75,-49.43 600.35,-34.32 601.97,-24.91"/>
<polygon fill="#63b8ff" stroke="#63b8ff" points="592.23,-60.92 593.98,-71.37 599.13,-62.11 592.23,-60.92"/>
</a>
</g>
</g>
<!-- Node6&#45;&gt;Node2 -->
<g id="edge7_Node000006_Node000002" class="edge">
<title>Node6&#45;&gt;Node2</title>
<g id="a_edge7_Node000006_Node000002"><a xlink:title=" ">
<path fill="none" stroke="#63b8ff" d="M320.81,-63.91C260.41,-51.4 179.01,-34.54 130.62,-24.52"/>
<polygon fill="#63b8ff" stroke="#63b8ff" points="320.19,-67.35 330.69,-65.95 321.61,-60.5 320.19,-67.35"/>
</a>
</g>
</g>
<!-- Node6&#45;&gt;Node4 -->
<g id="edge9_Node000006_Node000004" class="edge">
<title>Node6&#45;&gt;Node4</title>
<g id="a_edge9_Node000006_Node000004"><a xlink:title=" ">
<path fill="none" stroke="#63b8ff" d="M364.3,-60.97C346.45,-51.03 324.99,-39.09 308.68,-30.01"/>
<polygon fill="#63b8ff" stroke="#63b8ff" points="362.82,-64.15 373.26,-65.95 366.23,-58.03 362.82,-64.15"/>
</a>
</g>
</g>
<!-- Node7 -->
<g id="Node000007" class="node">
<title>Node7</title>
<g id="a_Node000007"><a xlink:href="DataHandlers_2ModbusWithPostgres_2Modbus_8c.html" target="_top" xlink:title=" ">
<polygon fill="white" stroke="#666666" points="552.5,-30 388.5,-30 388.5,0 552.5,0 552.5,-30"/>
<text text-anchor="start" x="396.5" y="-18" font-family="Helvetica,sans-Serif" font-size="10.00">src/DataHandlers/ModbusWith</text>
<text text-anchor="middle" x="470.5" y="-7" font-family="Helvetica,sans-Serif" font-size="10.00">Postgres/Modbus.c</text>
</a>
</g>
</g>
<!-- Node6&#45;&gt;Node7 -->
<g id="edge8_Node000006_Node000007" class="edge">
<title>Node6&#45;&gt;Node7</title>
<g id="a_edge8_Node000006_Node000007"><a xlink:title=" ">
<path fill="none" stroke="#63b8ff" d="M422.21,-58.92C432.83,-49.49 445.07,-38.61 454.57,-30.16"/>
<polygon fill="#63b8ff" stroke="#63b8ff" points="419.63,-56.54 414.48,-65.8 424.28,-61.77 419.63,-56.54"/>
</a>
</g>
</g>
<!-- Node8 -->
<g id="Node000008" class="node">
<title>Node8</title>
<g id="a_Node000008"><a xlink:href="DataHandlers_2ModbusWithPostgres_2Postgres_8c.html" target="_top" xlink:title=" ">
<polygon fill="white" stroke="#666666" points="1278.5,-30 1114.5,-30 1114.5,0 1278.5,0 1278.5,-30"/>
<text text-anchor="start" x="1122.5" y="-18" font-family="Helvetica,sans-Serif" font-size="10.00">src/DataHandlers/ModbusWith</text>
<text text-anchor="middle" x="1196.5" y="-7" font-family="Helvetica,sans-Serif" font-size="10.00">Postgres/Postgres.c</text>
</a>
</g>
</g>
<!-- Node6&#45;&gt;Node8 -->
<g id="edge10_Node000006_Node000008" class="edge">
<title>Node6&#45;&gt;Node8</title>
<g id="a_edge10_Node000006_Node000008"><a xlink:title=" ">
<path fill="none" stroke="#63b8ff" d="M495.32,-65.87C766.28,-38.61 837.86,-58.4 1105.5,-30 1108.36,-29.7 1111.27,-29.37 1114.21,-29.01"/>
<polygon fill="#63b8ff" stroke="#63b8ff" points="494.78,-62.41 485.18,-66.91 495.49,-69.37 494.78,-62.41"/>
</a>
</g>
</g>
<!-- Node10&#45;&gt;Node8 -->
<g id="edge13_Node000010_Node000008" class="edge">
<title>Node10&#45;&gt;Node8</title>
<g id="a_edge13_Node000010_Node000008"><a xlink:title=" ">
<path fill="none" stroke="#63b8ff" d="M966.8,-64.84C1016.45,-54.28 1082.19,-40.31 1130.61,-30.01"/>
<polygon fill="#63b8ff" stroke="#63b8ff" points="965.83,-61.47 956.77,-66.97 967.28,-68.32 965.83,-61.47"/>
</a>
</g>
</g>
<!-- Node10&#45;&gt;Node11 -->
<g id="edge14_Node000010_Node000011" class="edge">
<title>Node10&#45;&gt;Node11</title>
<g id="a_edge14_Node000010_Node000011"><a xlink:title=" ">
<path fill="none" stroke="#63b8ff" d="M966.71,-66.58C967.98,-66.38 969.25,-66.19 970.5,-66 1110.73,-44.98 1147.41,-51.92 1287.5,-30 1290.44,-29.54 1293.44,-29.04 1296.47,-28.52"/>
<polygon fill="#63b8ff" stroke="#63b8ff" points="966.15,-63.13 956.83,-68.18 967.27,-70.03 966.15,-63.13"/>
</a>
</g>
</g>
<!-- Node14&#45;&gt;Node4 -->
<g id="edge22_Node000014_Node000004" class="edge">
<title>Node14&#45;&gt;Node4</title>
<g id="a_edge22_Node000014_Node000004"><a xlink:title=" ">
<path fill="none" stroke="#63b8ff" d="M728.08,-71.66C715.82,-69.7 702.69,-67.69 690.5,-66 552.67,-46.94 517.47,-48.04 379.5,-30 376.41,-29.6 373.27,-29.18 370.09,-28.75"/>
<polygon fill="#63b8ff" stroke="#63b8ff" points="727.71,-75.14 738.14,-73.29 728.83,-68.23 727.71,-75.14"/>
</a>
</g>
</g>
<!-- Node14&#45;&gt;Node5 -->
<g id="edge25_Node000014_Node000005" class="edge">
<title>Node14&#45;&gt;Node5</title>
<g id="a_edge25_Node000014_Node000005"><a xlink:title=" ">
<path fill="none" stroke="#63b8ff" d="M744.44,-67.84C710.06,-55.2 657.13,-35.73 626.87,-24.6"/>
<polygon fill="#63b8ff" stroke="#63b8ff" points="743.44,-71.2 754.03,-71.37 745.86,-64.63 743.44,-71.2"/>
</a>
</g>
</g>
<!-- Node14&#45;&gt;Node7 -->
<g id="edge21_Node000014_Node000007" class="edge">
<title>Node14&#45;&gt;Node7</title>
<g id="a_edge21_Node000014_Node000007"><a xlink:title=" ">
<path fill="none" stroke="#63b8ff" d="M728.4,-69.77C676.82,-59.01 595.34,-42.02 537.79,-30.03"/>
<polygon fill="#63b8ff" stroke="#63b8ff" points="727.8,-73.21 738.31,-71.83 729.23,-66.36 727.8,-73.21"/>
</a>
</g>
</g>
<!-- Node14&#45;&gt;Node8 -->
<g id="edge23_Node000014_Node000008" class="edge">
<title>Node14&#45;&gt;Node8</title>
<g id="a_edge23_Node000014_Node000008"><a xlink:title=" ">
<path fill="none" stroke="#63b8ff" d="M813.68,-68.8C817.64,-67.77 821.64,-66.81 825.5,-66 948.32,-40.36 981.26,-47.54 1105.5,-30 1108.35,-29.6 1111.25,-29.18 1114.17,-28.76"/>
<polygon fill="#63b8ff" stroke="#63b8ff" points="812.68,-65.44 803.97,-71.48 814.54,-72.19 812.68,-65.44"/>
</a>
</g>
</g>
<!-- Node15 -->
<g id="Node000015" class="node">
<title>Node15</title>
<g id="a_Node000015"><a xlink:href="ThreadGroup_8c.html" target="_top" xlink:title=" ">
<polygon fill="white" stroke="#666666" points="902.5,-24.5 750.5,-24.5 750.5,-5.5 902.5,-5.5 902.5,-24.5"/>
<text text-anchor="middle" x="826.5" y="-12.5" font-family="Helvetica,sans-Serif" font-size="10.00">src/Common/ThreadGroup.c</text>
</a>
</g>
</g>
<!-- Node14&#45;&gt;Node15 -->
<g id="edge20_Node000014_Node000015" class="edge">
<title>Node14&#45;&gt;Node15</title>
<g id="a_edge20_Node000014_Node000015"><a xlink:title=" ">
<path fill="none" stroke="#63b8ff" d="M790.31,-63.27C799.71,-50.99 812.11,-34.8 819.68,-24.91"/>
<polygon fill="#63b8ff" stroke="#63b8ff" points="787.41,-61.3 784.11,-71.37 792.97,-65.56 787.41,-61.3"/>
</a>
</g>
</g>
<!-- Node16 -->
<g id="Node000016" class="node">
<title>Node16</title>
<g id="a_Node000016"><a xlink:href="ModbusTestServer_8c.html" target="_top" xlink:title="Implementation of Modbus Test Server.">
<polygon fill="white" stroke="#666666" points="1096.5,-24.5 920.5,-24.5 920.5,-5.5 1096.5,-5.5 1096.5,-24.5"/>
<text text-anchor="middle" x="1008.5" y="-12.5" font-family="Helvetica,sans-Serif" font-size="10.00">src/DevUtils/ModbusTestServer.c</text>
</a>
</g>
</g>
<!-- Node14&#45;&gt;Node16 -->
<g id="edge24_Node000014_Node000016" class="edge">
<title>Node14&#45;&gt;Node16</title>
<g id="a_edge24_Node000014_Node000016"><a xlink:title=" ">
<path fill="none" stroke="#63b8ff" d="M816.3,-68.62C819.41,-67.73 822.51,-66.85 825.5,-66 878.43,-51.05 940.18,-34.33 976.72,-24.51"/>
<polygon fill="#63b8ff" stroke="#63b8ff" points="815.05,-65.34 806.41,-71.48 816.99,-72.07 815.05,-65.34"/>
</a>
</g>
</g>
<!-- Node17 -->
<g id="Node000017" class="node">
<title>Node17</title>
<g id="a_Node000017"><a xlink:href="Signals_8c.html" target="_top" xlink:title="Signal handling implementation for the Sensor Data Handler System.">
<polygon fill="white" stroke="#666666" points="732,-24.5 655,-24.5 655,-5.5 732,-5.5 732,-24.5"/>
<text text-anchor="middle" x="693.5" y="-12.5" font-family="Helvetica,sans-Serif" font-size="10.00">src/Signals.c</text>
</a>
</g>
</g>
<!-- Node14&#45;&gt;Node17 -->
<g id="edge26_Node000014_Node000017" class="edge">
<title>Node14&#45;&gt;Node17</title>
<g id="a_edge26_Node000014_Node000017"><a xlink:title=" ">
<path fill="none" stroke="#63b8ff" d="M757.8,-64.99C741.35,-52.46 718.49,-35.04 704.92,-24.7"/>
<polygon fill="#63b8ff" stroke="#63b8ff" points="756.1,-68.09 766.17,-71.37 760.34,-62.52 756.1,-68.09"/>
</a>
</g>
</g>
</g>
</svg>
