<?xml version="1.0" encoding="UTF-8" standalone="no"?>
<!DOCTYPE svg PUBLIC "-//W3C//DTD SVG 1.1//EN"
 "http://www.w3.org/Graphics/SVG/1.1/DTD/svg11.dtd">
<!-- Generated by graphviz version 2.43.0 (0)
 -->
<!-- Title: print_array Pages: 1 -->
<svg width="671pt" height="101pt"
 viewBox="0.00 0.00 671.00 101.00" xmlns="http://www.w3.org/2000/svg" xmlns:xlink="http://www.w3.org/1999/xlink">
<g id="graph0" class="graph" transform="scale(1 1) rotate(0) translate(4 97)">
<title>print_array</title>
<!-- Node1 -->
<g id="Node000001" class="node">
<title>Node1</title>
<g id="a_Node000001"><a xlink:title=" ">
<polygon fill="#999999" stroke="#666666" points="663,-37 593,-37 593,-18 663,-18 663,-37"/>
<text text-anchor="middle" x="628" y="-25" font-family="Helvetica,sans-Serif" font-size="10.00">print_array</text>
</a>
</g>
</g>
<!-- Node2 -->
<g id="Node000002" class="node">
<title>Node2</title>
<g id="a_Node000002"><a xlink:href="cJSON_8c.html#a5ba141f183b9abb4b49e38a211299c7e" target="_top" xlink:title=" ">
<polygon fill="white" stroke="#666666" points="557,-37 486,-37 486,-18 557,-18 557,-37"/>
<text text-anchor="middle" x="521.5" y="-25" font-family="Helvetica,sans-Serif" font-size="10.00">print_value</text>
</a>
</g>
</g>
<!-- Node1&#45;&gt;Node2 -->
<g id="edge1_Node000001_Node000002" class="edge">
<title>Node1&#45;&gt;Node2</title>
<g id="a_edge1_Node000001_Node000002"><a xlink:title=" ">
<path fill="none" stroke="#63b8ff" d="M582.61,-20.82C574.1,-20.67 565.3,-20.76 557.15,-21.1"/>
<polygon fill="#63b8ff" stroke="#63b8ff" points="582.68,-24.32 592.78,-21.12 582.89,-17.33 582.68,-24.32"/>
</a>
</g>
</g>
<!-- Node2&#45;&gt;Node1 -->
<g id="edge8_Node000002_Node000001" class="edge">
<title>Node2&#45;&gt;Node1</title>
<g id="a_edge8_Node000002_Node000001"><a xlink:title=" ">
<path fill="none" stroke="#63b8ff" d="M567.35,-34.19C575.87,-34.33 584.66,-34.23 592.78,-33.88"/>
<polygon fill="#63b8ff" stroke="#63b8ff" points="567.25,-30.69 557.15,-33.9 567.05,-37.68 567.25,-30.69"/>
</a>
</g>
</g>
<!-- Node3 -->
<g id="Node000003" class="node">
<title>Node3</title>
<g id="a_Node000003"><a xlink:href="cJSON_8c.html#a5ae150f0e5009534979d4532a411d077" target="_top" xlink:title=" ">
<polygon fill="white" stroke="#666666" points="450,-93 316,-93 316,-74 450,-74 450,-93"/>
<text text-anchor="middle" x="383" y="-81" font-family="Helvetica,sans-Serif" font-size="10.00">cJSON_PrintPreallocated</text>
</a>
</g>
</g>
<!-- Node2&#45;&gt;Node3 -->
<g id="edge2_Node000002_Node000003" class="edge">
<title>Node2&#45;&gt;Node3</title>
<g id="a_edge2_Node000002_Node000003"><a xlink:title=" ">
<path fill="none" stroke="#63b8ff" d="M496.34,-42.3C483.03,-50 466,-59.1 450,-65.5 441.95,-68.72 433.12,-71.56 424.62,-73.99"/>
<polygon fill="#63b8ff" stroke="#63b8ff" points="498.48,-45.1 505.31,-37.01 494.92,-39.07 498.48,-45.1"/>
</a>
</g>
</g>
<!-- Node4 -->
<g id="Node000004" class="node">
<title>Node4</title>
<g id="a_Node000004"><a xlink:href="cJSON_8c.html#a36b0c212c0d382a4714afa8b70c1a2ee" target="_top" xlink:title=" ">
<polygon fill="white" stroke="#666666" points="402.5,-56 363.5,-56 363.5,-37 402.5,-37 402.5,-56"/>
<text text-anchor="middle" x="383" y="-44" font-family="Helvetica,sans-Serif" font-size="10.00">print</text>
</a>
</g>
</g>
<!-- Node2&#45;&gt;Node4 -->
<g id="edge3_Node000002_Node000004" class="edge">
<title>Node2&#45;&gt;Node4</title>
<g id="a_edge3_Node000002_Node000004"><a xlink:title=" ">
<path fill="none" stroke="#63b8ff" d="M475.77,-33.73C450.99,-37.18 421.5,-41.28 402.76,-43.89"/>
<polygon fill="#63b8ff" stroke="#63b8ff" points="476.28,-37.19 485.7,-32.34 475.32,-30.26 476.28,-37.19"/>
</a>
</g>
</g>
<!-- Node7 -->
<g id="Node000007" class="node">
<title>Node7</title>
<g id="a_Node000007"><a xlink:href="cJSON_8c.html#a3d742f5c68799bca291432a9cd72f8dd" target="_top" xlink:title=" ">
<polygon fill="white" stroke="#666666" points="420,-19 346,-19 346,0 420,0 420,-19"/>
<text text-anchor="middle" x="383" y="-7" font-family="Helvetica,sans-Serif" font-size="10.00">print_object</text>
</a>
</g>
</g>
<!-- Node2&#45;&gt;Node7 -->
<g id="edge9_Node000002_Node000007" class="edge">
<title>Node2&#45;&gt;Node7</title>
<g id="a_edge9_Node000002_Node000007"><a xlink:title=" ">
<path fill="none" stroke="#63b8ff" d="M481.23,-16.14C461.95,-12.79 438.87,-9.8 420.04,-8.22"/>
<polygon fill="#63b8ff" stroke="#63b8ff" points="480.75,-19.61 491.22,-17.98 482.02,-12.73 480.75,-19.61"/>
</a>
</g>
</g>
<!-- Node5 -->
<g id="Node000005" class="node">
<title>Node5</title>
<g id="a_Node000005"><a xlink:href="namespaceTimings.html#aadf2661fed15eeec1d5ca92e8125726e" target="_top" xlink:title=" ">
<polygon fill="white" stroke="#666666" points="280,-75 119,-75 119,-56 280,-56 280,-75"/>
<text text-anchor="middle" x="199.5" y="-63" font-family="Helvetica,sans-Serif" font-size="10.00">Timings.analyze_timing_data</text>
</a>
</g>
</g>
<!-- Node4&#45;&gt;Node5 -->
<g id="edge4_Node000004_Node000005" class="edge">
<title>Node4&#45;&gt;Node5</title>
<g id="a_edge4_Node000004_Node000005"><a xlink:title=" ">
<path fill="none" stroke="#63b8ff" d="M353.13,-49.52C333.42,-51.59 306.27,-54.43 280.34,-57.14"/>
<polygon fill="#63b8ff" stroke="#63b8ff" points="353.68,-52.98 363.26,-48.46 352.95,-46.02 353.68,-52.98"/>
</a>
</g>
</g>
<!-- Node6 -->
<g id="Node000006" class="node">
<title>Node6</title>
<g id="a_Node000006"><a xlink:href="namespaceTimings.html#ae796959351e16850ac73fbc1380617c9" target="_top" xlink:title=" ">
<polygon fill="white" stroke="#666666" points="83,-56 0,-56 0,-37 83,-37 83,-56"/>
<text text-anchor="middle" x="41.5" y="-44" font-family="Helvetica,sans-Serif" font-size="10.00">Timings.main</text>
</a>
</g>
</g>
<!-- Node4&#45;&gt;Node6 -->
<g id="edge7_Node000004_Node000006" class="edge">
<title>Node4&#45;&gt;Node6</title>
<g id="a_edge7_Node000004_Node000006"><a xlink:title=" ">
<path fill="none" stroke="#63b8ff" d="M352.91,-46.5C292.36,-46.5 152.62,-46.5 83.19,-46.5"/>
<polygon fill="#63b8ff" stroke="#63b8ff" points="353.26,-50 363.26,-46.5 353.26,-43 353.26,-50"/>
</a>
</g>
</g>
<!-- Node5&#45;&gt;Node6 -->
<g id="edge5_Node000005_Node000006" class="edge">
<title>Node5&#45;&gt;Node6</title>
<g id="a_edge5_Node000005_Node000006"><a xlink:title=" ">
<path fill="none" stroke="#63b8ff" d="M109.91,-54.71C100.63,-53.58 91.55,-52.47 83.21,-51.46"/>
<polygon fill="#63b8ff" stroke="#63b8ff" points="109.69,-58.21 120.04,-55.94 110.54,-51.26 109.69,-58.21"/>
</a>
</g>
</g>
<!-- Node6&#45;&gt;Node6 -->
<g id="edge6_Node000006_Node000006" class="edge">
<title>Node6&#45;&gt;Node6</title>
<g id="a_edge6_Node000006_Node000006"><a xlink:title=" ">
<path fill="none" stroke="#63b8ff" d="M70.99,-64.82C69.76,-70.01 59.93,-74 41.5,-74 13.42,-74 5.3,-64.73 17.15,-56.08"/>
<polygon fill="#63b8ff" stroke="#63b8ff" points="73.94,-62.93 65.85,-56.08 67.91,-66.48 73.94,-62.93"/>
</a>
</g>
</g>
<!-- Node7&#45;&gt;Node2 -->
<g id="edge10_Node000007_Node000002" class="edge">
<title>Node7&#45;&gt;Node2</title>
<g id="a_edge10_Node000007_Node000002"><a xlink:title=" ">
<path fill="none" stroke="#63b8ff" d="M423.11,-20.83C442.85,-24.27 466.6,-27.33 485.7,-28.88"/>
<polygon fill="#63b8ff" stroke="#63b8ff" points="423.66,-17.37 413.2,-19 422.4,-24.26 423.66,-17.37"/>
</a>
</g>
</g>
</g>
</svg>
