<?xml version="1.0" encoding="UTF-8" standalone="no"?>
<!DOCTYPE svg PUBLIC "-//W3C//DTD SVG 1.1//EN"
 "http://www.w3.org/Graphics/SVG/1.1/DTD/svg11.dtd">
<!-- Generated by graphviz version 2.43.0 (0)
 -->
<!-- Title: cJSON_ReplaceItemInObjectCaseSensitive Pages: 1 -->
<svg width="699pt" height="101pt"
 viewBox="0.00 0.00 699.00 101.00" xmlns="http://www.w3.org/2000/svg" xmlns:xlink="http://www.w3.org/1999/xlink">
<g id="graph0" class="graph" transform="scale(1 1) rotate(0) translate(4 97)">
<title>cJSON_ReplaceItemInObjectCaseSensitive</title>
<!-- Node1 -->
<g id="Node000001" class="node">
<title>Node1</title>
<g id="a_Node000001"><a xlink:title=" ">
<polygon fill="#999999" stroke="#666666" points="153,-61.5 0,-61.5 0,-31.5 153,-31.5 153,-61.5"/>
<text text-anchor="start" x="8" y="-49.5" font-family="Helvetica,sans-Serif" font-size="10.00">cJSON_ReplaceItemInObject</text>
<text text-anchor="middle" x="76.5" y="-38.5" font-family="Helvetica,sans-Serif" font-size="10.00">CaseSensitive</text>
</a>
</g>
</g>
<!-- Node2 -->
<g id="Node000002" class="node">
<title>Node2</title>
<g id="a_Node000002"><a xlink:href="cJSON_8c.html#afdae75197cf2c440ef858a2e93b104f2" target="_top" xlink:title=" ">
<polygon fill="white" stroke="#666666" points="319,-56 189,-56 189,-37 319,-37 319,-56"/>
<text text-anchor="middle" x="254" y="-44" font-family="Helvetica,sans-Serif" font-size="10.00">replace_item_in_object</text>
</a>
</g>
</g>
<!-- Node1&#45;&gt;Node2 -->
<g id="edge1_Node000001_Node000002" class="edge">
<title>Node1&#45;&gt;Node2</title>
<g id="a_edge1_Node000001_Node000002"><a xlink:title=" ">
<path fill="none" stroke="#63b8ff" d="M153.2,-46.5C161.64,-46.5 170.24,-46.5 178.66,-46.5"/>
<polygon fill="#63b8ff" stroke="#63b8ff" points="178.83,-50 188.83,-46.5 178.83,-43 178.83,-50"/>
</a>
</g>
</g>
<!-- Node3 -->
<g id="Node000003" class="node">
<title>Node3</title>
<g id="a_Node000003"><a xlink:href="cJSON_8c.html#aef23a5c2b35e0c54fef7b6de54918289" target="_top" xlink:title=" ">
<polygon fill="white" stroke="#666666" points="518,-93 355,-93 355,-74 518,-74 518,-93"/>
<text text-anchor="middle" x="436.5" y="-81" font-family="Helvetica,sans-Serif" font-size="10.00">cJSON_ReplaceItemViaPointer</text>
</a>
</g>
</g>
<!-- Node2&#45;&gt;Node3 -->
<g id="edge2_Node000002_Node000003" class="edge">
<title>Node2&#45;&gt;Node3</title>
<g id="a_edge2_Node000002_Node000003"><a xlink:title=" ">
<path fill="none" stroke="#63b8ff" d="M301.48,-56.03C325.08,-60.86 353.94,-66.78 378.82,-71.88"/>
<polygon fill="#63b8ff" stroke="#63b8ff" points="378.36,-75.36 388.86,-73.94 379.77,-68.5 378.36,-75.36"/>
</a>
</g>
</g>
<!-- Node4 -->
<g id="Node000004" class="node">
<title>Node4</title>
<g id="a_Node000004"><a xlink:href="cJSON_8c.html#a15067642a12599c13a0e6c0da9009be7" target="_top" xlink:title=" ">
<polygon fill="white" stroke="#666666" points="477.5,-56 395.5,-56 395.5,-37 477.5,-37 477.5,-56"/>
<text text-anchor="middle" x="436.5" y="-44" font-family="Helvetica,sans-Serif" font-size="10.00">cJSON_strdup</text>
</a>
</g>
</g>
<!-- Node2&#45;&gt;Node4 -->
<g id="edge3_Node000002_Node000004" class="edge">
<title>Node2&#45;&gt;Node4</title>
<g id="a_edge3_Node000002_Node000004"><a xlink:title=" ">
<path fill="none" stroke="#63b8ff" d="M319.15,-46.5C340.9,-46.5 364.88,-46.5 385.38,-46.5"/>
<polygon fill="#63b8ff" stroke="#63b8ff" points="385.45,-50 395.45,-46.5 385.45,-43 385.45,-50"/>
</a>
</g>
</g>
<!-- Node6 -->
<g id="Node000006" class="node">
<title>Node6</title>
<g id="a_Node000006"><a xlink:href="cJSON_8c.html#aa2509ddde1c1a0be7417e4f40520338f" target="_top" xlink:title=" ">
<polygon fill="white" stroke="#666666" points="484,-19 389,-19 389,0 484,0 484,-19"/>
<text text-anchor="middle" x="436.5" y="-7" font-family="Helvetica,sans-Serif" font-size="10.00">get_object_item</text>
</a>
</g>
</g>
<!-- Node2&#45;&gt;Node6 -->
<g id="edge5_Node000002_Node000006" class="edge">
<title>Node2&#45;&gt;Node6</title>
<g id="a_edge5_Node000002_Node000006"><a xlink:title=" ">
<path fill="none" stroke="#63b8ff" d="M301.48,-36.97C325.08,-32.14 353.94,-26.22 378.82,-21.12"/>
<polygon fill="#63b8ff" stroke="#63b8ff" points="379.77,-24.5 388.86,-19.06 378.36,-17.64 379.77,-24.5"/>
</a>
</g>
</g>
<!-- Node5 -->
<g id="Node000005" class="node">
<title>Node5</title>
<g id="a_Node000005"><a xlink:href="structinternal__hooks.html#a8b8f7ff45faa5da18dd3ccd2a2c8e416" target="_top" xlink:title=" ">
<polygon fill="white" stroke="#666666" points="689.5,-56 555.5,-56 555.5,-37 689.5,-37 689.5,-56"/>
<text text-anchor="middle" x="622.5" y="-44" font-family="Helvetica,sans-Serif" font-size="10.00">internal_hooks::allocate</text>
</a>
</g>
</g>
<!-- Node4&#45;&gt;Node5 -->
<g id="edge4_Node000004_Node000005" class="edge">
<title>Node4&#45;&gt;Node5</title>
<g id="a_edge4_Node000004_Node000005"><a xlink:title=" ">
<path fill="none" stroke="#63b8ff" d="M477.88,-46.5C497.6,-46.5 522,-46.5 545.06,-46.5"/>
<polygon fill="#63b8ff" stroke="#63b8ff" points="545.18,-50 555.18,-46.5 545.18,-43 545.18,-50"/>
</a>
</g>
</g>
<!-- Node7 -->
<g id="Node000007" class="node">
<title>Node7</title>
<g id="a_Node000007"><a xlink:href="cJSON_8c.html#a9b295e9edc859c11ad8c1e3d2cef0467" target="_top" xlink:title=" ">
<polygon fill="white" stroke="#666666" points="691,-19 554,-19 554,0 691,0 691,-19"/>
<text text-anchor="middle" x="622.5" y="-7" font-family="Helvetica,sans-Serif" font-size="10.00">case_insensitive_strcmp</text>
</a>
</g>
</g>
<!-- Node6&#45;&gt;Node7 -->
<g id="edge6_Node000006_Node000007" class="edge">
<title>Node6&#45;&gt;Node7</title>
<g id="a_edge6_Node000006_Node000007"><a xlink:title=" ">
<path fill="none" stroke="#63b8ff" d="M484.41,-9.5C502.44,-9.5 523.55,-9.5 543.72,-9.5"/>
<polygon fill="#63b8ff" stroke="#63b8ff" points="543.84,-13 553.84,-9.5 543.84,-6 543.84,-13"/>
</a>
</g>
</g>
</g>
</svg>
