<?xml version="1.0" encoding="UTF-8" standalone="no"?>
<!DOCTYPE svg PUBLIC "-//W3C//DTD SVG 1.1//EN"
 "http://www.w3.org/Graphics/SVG/1.1/DTD/svg11.dtd">
<!-- Generated by graphviz version 2.43.0 (0)
 -->
<!-- Title: add_item_to_array Pages: 1 -->
<svg width="453pt" height="187pt"
 viewBox="0.00 0.00 453.00 187.00" xmlns="http://www.w3.org/2000/svg" xmlns:xlink="http://www.w3.org/1999/xlink">
<g id="graph0" class="graph" transform="scale(1 1) rotate(0) translate(4 183)">
<title>add_item_to_array</title>
<!-- Node1 -->
<g id="Node000001" class="node">
<title>Node1</title>
<g id="a_Node000001"><a xlink:title=" ">
<polygon fill="#999999" stroke="#666666" points="445,-93 337,-93 337,-74 445,-74 445,-93"/>
<text text-anchor="middle" x="391" y="-81" font-family="Helvetica,sans-Serif" font-size="10.00">add_item_to_array</text>
</a>
</g>
</g>
<!-- Node2 -->
<g id="Node000002" class="node">
<title>Node2</title>
<g id="a_Node000002"><a xlink:href="cJSON_8c.html#acc48bef0e1b495898d9489e577b91d5c" target="_top" xlink:title=" ">
<polygon fill="white" stroke="#666666" points="301,-93 188,-93 188,-74 301,-74 301,-93"/>
<text text-anchor="middle" x="244.5" y="-81" font-family="Helvetica,sans-Serif" font-size="10.00">add_item_to_object</text>
</a>
</g>
</g>
<!-- Node1&#45;&gt;Node2 -->
<g id="edge1_Node000001_Node000002" class="edge">
<title>Node1&#45;&gt;Node2</title>
<g id="a_edge1_Node000001_Node000002"><a xlink:title=" ">
<path fill="none" stroke="#63b8ff" d="M326.42,-83.5C317.98,-83.5 309.39,-83.5 301.1,-83.5"/>
<polygon fill="#63b8ff" stroke="#63b8ff" points="326.6,-87 336.6,-83.5 326.6,-80 326.6,-87"/>
</a>
</g>
</g>
<!-- Node3 -->
<g id="Node000003" class="node">
<title>Node3</title>
<g id="a_Node000003"><a xlink:href="cJSON_8c.html#ac44e19cf2c9b85d693021327cd13c380" target="_top" xlink:title=" ">
<polygon fill="white" stroke="#666666" points="143,-179 9,-179 9,-160 143,-160 143,-179"/>
<text text-anchor="middle" x="76" y="-167" font-family="Helvetica,sans-Serif" font-size="10.00">cJSON_AddBoolToObject</text>
</a>
</g>
</g>
<!-- Node2&#45;&gt;Node3 -->
<g id="edge2_Node000002_Node000003" class="edge">
<title>Node2&#45;&gt;Node3</title>
<g id="a_edge2_Node000002_Node000003"><a xlink:title=" ">
<path fill="none" stroke="#63b8ff" d="M225.38,-100.07C207.83,-115.28 179.86,-137.38 152,-150.5 143.86,-154.33 134.84,-157.46 125.96,-159.99"/>
<polygon fill="#63b8ff" stroke="#63b8ff" points="227.94,-102.48 233.11,-93.23 223.3,-97.24 227.94,-102.48"/>
</a>
</g>
</g>
<!-- Node4 -->
<g id="Node000004" class="node">
<title>Node4</title>
<g id="a_Node000004"><a xlink:href="cJSON_8c.html#ae40faf8fce455884d99bbb2f60cd5860" target="_top" xlink:title=" ">
<polygon fill="white" stroke="#666666" points="152,-141.5 0,-141.5 0,-111.5 152,-111.5 152,-141.5"/>
<text text-anchor="start" x="8" y="-129.5" font-family="Helvetica,sans-Serif" font-size="10.00">cJSON_AddItemReferenceTo</text>
<text text-anchor="middle" x="76" y="-118.5" font-family="Helvetica,sans-Serif" font-size="10.00">Object</text>
</a>
</g>
</g>
<!-- Node2&#45;&gt;Node4 -->
<g id="edge3_Node000002_Node000004" class="edge">
<title>Node2&#45;&gt;Node4</title>
<g id="a_edge3_Node000002_Node000004"><a xlink:title=" ">
<path fill="none" stroke="#63b8ff" d="M196.85,-95.55C177.7,-100.49 155.31,-106.28 135.11,-111.49"/>
<polygon fill="#63b8ff" stroke="#63b8ff" points="197.74,-98.93 206.55,-93.04 195.99,-92.15 197.74,-98.93"/>
</a>
</g>
</g>
<!-- Node5 -->
<g id="Node000005" class="node">
<title>Node5</title>
<g id="a_Node000005"><a xlink:href="cJSON_8c.html#aa53dc5895c82cc121dec73b81930ee42" target="_top" xlink:title=" ">
<polygon fill="white" stroke="#666666" points="151.5,-93 0.5,-93 0.5,-74 151.5,-74 151.5,-93"/>
<text text-anchor="middle" x="76" y="-81" font-family="Helvetica,sans-Serif" font-size="10.00">cJSON_AddNumberToObject</text>
</a>
</g>
</g>
<!-- Node2&#45;&gt;Node5 -->
<g id="edge4_Node000002_Node000005" class="edge">
<title>Node2&#45;&gt;Node5</title>
<g id="a_edge4_Node000002_Node000005"><a xlink:title=" ">
<path fill="none" stroke="#63b8ff" d="M177.43,-83.5C168.97,-83.5 160.27,-83.5 151.69,-83.5"/>
<polygon fill="#63b8ff" stroke="#63b8ff" points="177.59,-87 187.59,-83.5 177.59,-80 177.59,-87"/>
</a>
</g>
</g>
<!-- Node6 -->
<g id="Node000006" class="node">
<title>Node6</title>
<g id="a_Node000006"><a xlink:href="cJSON_8c.html#a60358335b6645747178c8050d5e51653" target="_top" xlink:title=" ">
<polygon fill="white" stroke="#666666" points="142.5,-56 9.5,-56 9.5,-37 142.5,-37 142.5,-56"/>
<text text-anchor="middle" x="76" y="-44" font-family="Helvetica,sans-Serif" font-size="10.00">cJSON_AddRawToObject</text>
</a>
</g>
</g>
<!-- Node2&#45;&gt;Node6 -->
<g id="edge5_Node000002_Node000006" class="edge">
<title>Node2&#45;&gt;Node6</title>
<g id="a_edge5_Node000002_Node000006"><a xlink:title=" ">
<path fill="none" stroke="#63b8ff" d="M190.76,-71.78C167.96,-66.71 141.61,-60.86 120.02,-56.06"/>
<polygon fill="#63b8ff" stroke="#63b8ff" points="190.1,-75.22 200.62,-73.97 191.62,-68.39 190.1,-75.22"/>
</a>
</g>
</g>
<!-- Node7 -->
<g id="Node000007" class="node">
<title>Node7</title>
<g id="a_Node000007"><a xlink:href="cJSON_8c.html#a49e0e6b028e5a814c642307254816208" target="_top" xlink:title=" ">
<polygon fill="white" stroke="#666666" points="146,-19 6,-19 6,0 146,0 146,-19"/>
<text text-anchor="middle" x="76" y="-7" font-family="Helvetica,sans-Serif" font-size="10.00">cJSON_AddStringToObject</text>
</a>
</g>
</g>
<!-- Node2&#45;&gt;Node7 -->
<g id="edge6_Node000002_Node000007" class="edge">
<title>Node2&#45;&gt;Node7</title>
<g id="a_edge6_Node000002_Node000007"><a xlink:title=" ">
<path fill="none" stroke="#63b8ff" d="M221.66,-67.86C203.7,-55.63 177.21,-39 152,-28.5 143.07,-24.78 133.23,-21.65 123.7,-19.07"/>
<polygon fill="#63b8ff" stroke="#63b8ff" points="220,-70.97 230.22,-73.79 223.99,-65.22 220,-70.97"/>
</a>
</g>
</g>
</g>
</svg>
