<?xml version="1.0" encoding="UTF-8" standalone="no"?>
<!DOCTYPE svg PUBLIC "-//W3C//DTD SVG 1.1//EN"
 "http://www.w3.org/Graphics/SVG/1.1/DTD/svg11.dtd">
<!-- Generated by graphviz version 2.43.0 (0)
 -->
<!-- Title: cJSON_New_Item Pages: 1 -->
<!--zoomable 200 -->

<svg id="main" version="1.1" xmlns="http://www.w3.org/2000/svg" xmlns:xlink="http://www.w3.org/1999/xlink" xml:space="preserve" onload="init(evt)">
<style type="text/css"><![CDATA[
.node, .edge {opacity: 0.7;}
.node.selected, .edge.selected {opacity: 1;}
.edge:hover path { stroke: red; }
.edge:hover polygon { stroke: red; fill: red; }
]]></style>

<defs>
  <circle id="rim" cx="0" cy="0" r="7"/>
  <circle id="rim2" cx="0" cy="0" r="3.5"/>
  <g id="zoomPlus">
    <use xlink:href="#rim" fill="#404040"><set attributeName="fill" to="#808080" begin="zoomplus.mouseover" end="zoomplus.mouseout"/></use>
    <path d="M-4,0h8M0,-4v8" fill="none" stroke="white" stroke-width="1.5" pointer-events="none"/>
  </g>
  <g id="zoomMin">
    <use xlink:href="#rim" fill="#404040"><set attributeName="fill" to="#808080" begin="zoomminus.mouseover" end="zoomminus.mouseout"/></use>
    <path d="M-4,0h8" fill="none" stroke="white" stroke-width="1.5" pointer-events="none"/>
  </g>
  <g id="arrowUp" transform="translate(30 24)">
    <use xlink:href="#rim"/>
    <path pointer-events="none" fill="none" stroke="white" stroke-width="1.5" d="M0,-3.0v7 M-2.5,-0.5L0,-3.0L2.5,-0.5"/>
  </g>
  <g id="arrowRight" transform="rotate(90) translate(36 -43)">
    <use xlink:href="#rim"/>
    <path pointer-events="none" fill="none" stroke="white" stroke-width="1.5" d="M0,-3.0v7 M-2.5,-0.5L0,-3.0L2.5,-0.5"/>
  </g>
  <g id="arrowDown" transform="rotate(180) translate(-30 -48)">
    <use xlink:href="#rim"/>
    <path pointer-events="none" fill="none" stroke="white" stroke-width="1.5" d="M0,-3.0v7 M-2.5,-0.5L0,-3.0L2.5,-0.5"/>
  </g>
  <g id="arrowLeft" transform="rotate(270) translate(-36 17)">
    <use xlink:href="#rim"/>
    <path pointer-events="none" fill="none" stroke="white" stroke-width="1.5" d="M0,-3.0v7 M-2.5,-0.5L0,-3.0L2.5,-0.5"/>
  </g>
  <g id="resetDef">
    <use xlink:href="#rim2" fill="#404040"><set attributeName="fill" to="#808080" begin="reset.mouseover" end="reset.mouseout"/></use>
  </g>
</defs>
<script type="application/ecmascript">
var viewWidth = 924;
var viewHeight = 200;
var sectionId = 'dynsection-19';
</script>
<script type="application/ecmascript" xlink:href="svg.min.js"/>
<svg id="graph" class="graph">
<g id="viewport">
<title>cJSON_New_Item</title>
<!-- Node1 -->
<g id="Node000001" class="node">
<title>Node1</title>
<g id="a_Node000001"><a xlink:title=" ">
<polygon fill="#999999" stroke="#666666" points="916,-93.07 815,-93.07 815,-74.07 916,-74.07 916,-93.07"/>
<text text-anchor="middle" x="865.5" y="-81.07" font-family="Helvetica,sans-Serif" font-size="10.00">cJSON_New_Item</text>
</a>
</g>
</g>
<!-- Node2 -->
<g id="Node000002" class="node">
<title>Node2</title>
<g id="a_Node000002"><a xlink:href="cJSON_8c.html#a7916f8c63594d49f98777b2f2153e245" target="_top" xlink:title=" ">
<polygon fill="white" stroke="#666666" points="779,-174.07 661,-174.07 661,-155.07 779,-155.07 779,-174.07"/>
<text text-anchor="middle" x="720" y="-162.07" font-family="Helvetica,sans-Serif" font-size="10.00">cJSON_Duplicate_rec</text>
</a>
</g>
</g>
<!-- Node1&#45;&gt;Node2 -->
<g id="edge1_Node000001_Node000002" class="edge">
<title>Node1&#45;&gt;Node2</title>
<g id="a_edge1_Node000001_Node000002"><a xlink:title=" ">
<path fill="none" stroke="#63b8ff" d="M843.43,-99.31C826.55,-111.5 801.97,-128.31 779,-140.57 768.9,-145.95 757.33,-150.96 747.2,-154.99"/>
<polygon fill="#63b8ff" stroke="#63b8ff" points="845.95,-101.8 851.95,-93.07 841.81,-96.15 845.95,-101.8"/>
</a>
</g>
</g>
<!-- Node3 -->
<g id="Node000003" class="node">
<title>Node3</title>
<g id="a_Node000003"><a xlink:href="cJSON_8c.html#a3a24e49a04490273160cdc1f30f10d22" target="_top" xlink:title=" ">
<polygon fill="white" stroke="#666666" points="437,-111.07 282,-111.07 282,-92.07 437,-92.07 437,-111.07"/>
<text text-anchor="middle" x="359.5" y="-99.07" font-family="Helvetica,sans-Serif" font-size="10.00">cJSON_ParseWithLengthOpts</text>
</a>
</g>
</g>
<!-- Node1&#45;&gt;Node3 -->
<g id="edge3_Node000001_Node000003" class="edge">
<title>Node1&#45;&gt;Node3</title>
<g id="a_edge3_Node000001_Node000003"><a xlink:title=" ">
<path fill="none" stroke="#63b8ff" d="M818.63,-95.41C805.88,-98.25 791.98,-100.93 779,-102.57 644.05,-119.6 608.97,-111.19 473,-107.57 461.37,-107.26 449.06,-106.77 437.03,-106.2"/>
<polygon fill="#63b8ff" stroke="#63b8ff" points="819.61,-98.77 828.57,-93.11 818.04,-91.95 819.61,-98.77"/>
</a>
</g>
</g>
<!-- Node6 -->
<g id="Node000006" class="node">
<title>Node6</title>
<g id="a_Node000006"><a xlink:href="cJSON_8c.html#a34155b75b0e70b292b338f6f41d090d6" target="_top" xlink:title=" ">
<polygon fill="white" stroke="#666666" points="769.5,-93.07 670.5,-93.07 670.5,-74.07 769.5,-74.07 769.5,-93.07"/>
<text text-anchor="middle" x="720" y="-81.07" font-family="Helvetica,sans-Serif" font-size="10.00">create_reference</text>
</a>
</g>
</g>
<!-- Node1&#45;&gt;Node6 -->
<g id="edge6_Node000001_Node000006" class="edge">
<title>Node1&#45;&gt;Node6</title>
<g id="a_edge6_Node000001_Node000006"><a xlink:title=" ">
<path fill="none" stroke="#63b8ff" d="M804.64,-83.57C793.01,-83.57 780.95,-83.57 769.73,-83.57"/>
<polygon fill="#63b8ff" stroke="#63b8ff" points="804.71,-87.07 814.71,-83.57 804.71,-80.07 804.71,-87.07"/>
</a>
</g>
</g>
<!-- Node8 -->
<g id="Node000008" class="node">
<title>Node8</title>
<g id="a_Node000008"><a xlink:href="cJSON_8c.html#a367cc7ac5a592211d9f18dc02dd23069" target="_top" xlink:title=" ">
<polygon fill="white" stroke="#666666" points="757,-50.07 683,-50.07 683,-31.07 757,-31.07 757,-50.07"/>
<text text-anchor="middle" x="720" y="-38.07" font-family="Helvetica,sans-Serif" font-size="10.00">parse_array</text>
</a>
</g>
</g>
<!-- Node1&#45;&gt;Node8 -->
<g id="edge8_Node000001_Node000008" class="edge">
<title>Node1&#45;&gt;Node8</title>
<g id="a_edge8_Node000001_Node000008"><a xlink:title=" ">
<path fill="none" stroke="#63b8ff" d="M823.07,-71.15C800.67,-64.44 773.45,-56.28 752.76,-50.08"/>
<polygon fill="#63b8ff" stroke="#63b8ff" points="822.07,-74.51 832.65,-74.02 824.08,-67.8 822.07,-74.51"/>
</a>
</g>
</g>
<!-- Node10 -->
<g id="Node000010" class="node">
<title>Node10</title>
<g id="a_Node000010"><a xlink:href="cJSON_8c.html#a1472ac5d1becd7d9a5e558b4c053b06a" target="_top" xlink:title=" ">
<polygon fill="white" stroke="#666666" points="399,-50.07 320,-50.07 320,-31.07 399,-31.07 399,-50.07"/>
<text text-anchor="middle" x="359.5" y="-38.07" font-family="Helvetica,sans-Serif" font-size="10.00">parse_object</text>
</a>
</g>
</g>
<!-- Node1&#45;&gt;Node10 -->
<g id="edge14_Node000001_Node000010" class="edge">
<title>Node1&#45;&gt;Node10</title>
<g id="a_edge14_Node000001_Node000010"><a xlink:title=" ">
<path fill="none" stroke="#63b8ff" d="M847.69,-66.32C831.67,-51.21 806.03,-30.34 779,-21.57 642.54,22.7 467.91,-12.53 394.95,-31.03"/>
<polygon fill="#63b8ff" stroke="#63b8ff" points="845.55,-69.12 855.15,-73.6 850.44,-64.11 845.55,-69.12"/>
</a>
</g>
</g>
<!-- Node2&#45;&gt;Node2 -->
<g id="edge2_Node000002_Node000002" class="edge">
<title>Node2&#45;&gt;Node2</title>
<g id="a_edge2_Node000002_Node000002"><a xlink:title=" ">
<path fill="none" stroke="#63b8ff" d="M746.79,-183.26C745.32,-188.26 736.4,-192.07 720,-192.07 694.41,-192.07 687.01,-182.8 697.81,-174.15"/>
<polygon fill="#63b8ff" stroke="#63b8ff" points="749.82,-181.5 742.19,-174.15 743.57,-184.65 749.82,-181.5"/>
</a>
</g>
</g>
<!-- Node4 -->
<g id="Node000004" class="node">
<title>Node4</title>
<g id="a_Node000004"><a xlink:href="cJSON_8c.html#adfabd5d09c2cf0a2f051c47650db6e80" target="_top" xlink:title=" ">
<polygon fill="white" stroke="#666666" points="246,-111.07 124,-111.07 124,-92.07 246,-92.07 246,-111.07"/>
<text text-anchor="middle" x="185" y="-99.07" font-family="Helvetica,sans-Serif" font-size="10.00">cJSON_ParseWithOpts</text>
</a>
</g>
</g>
<!-- Node3&#45;&gt;Node4 -->
<g id="edge4_Node000003_Node000004" class="edge">
<title>Node3&#45;&gt;Node4</title>
<g id="a_edge4_Node000003_Node000004"><a xlink:title=" ">
<path fill="none" stroke="#63b8ff" d="M271.7,-101.57C263.05,-101.57 254.41,-101.57 246.12,-101.57"/>
<polygon fill="#63b8ff" stroke="#63b8ff" points="271.83,-105.07 281.83,-101.57 271.83,-98.07 271.83,-105.07"/>
</a>
</g>
</g>
<!-- Node5 -->
<g id="Node000005" class="node">
<title>Node5</title>
<g id="a_Node000005"><a xlink:href="cJSON_8c.html#aa2ca313f61c789be20f8a69b651043c3" target="_top" xlink:title=" ">
<polygon fill="white" stroke="#666666" points="88,-111.07 0,-111.07 0,-92.07 88,-92.07 88,-111.07"/>
<text text-anchor="middle" x="44" y="-99.07" font-family="Helvetica,sans-Serif" font-size="10.00">CJSON_PUBLIC</text>
</a>
</g>
</g>
<!-- Node4&#45;&gt;Node5 -->
<g id="edge5_Node000004_Node000005" class="edge">
<title>Node4&#45;&gt;Node5</title>
<g id="a_edge5_Node000004_Node000005"><a xlink:title=" ">
<path fill="none" stroke="#63b8ff" d="M113.63,-101.57C104.91,-101.57 96.21,-101.57 88.08,-101.57"/>
<polygon fill="#63b8ff" stroke="#63b8ff" points="113.84,-105.07 123.84,-101.57 113.84,-98.07 113.84,-105.07"/>
</a>
</g>
</g>
<!-- Node7 -->
<g id="Node000007" class="node">
<title>Node7</title>
<g id="a_Node000007"><a xlink:href="cJSON_8c.html#ae40faf8fce455884d99bbb2f60cd5860" target="_top" xlink:title=" ">
<polygon fill="white" stroke="#666666" points="625,-98.57 473,-98.57 473,-68.57 625,-68.57 625,-98.57"/>
<text text-anchor="start" x="481" y="-86.57" font-family="Helvetica,sans-Serif" font-size="10.00">cJSON_AddItemReferenceTo</text>
<text text-anchor="middle" x="549" y="-75.57" font-family="Helvetica,sans-Serif" font-size="10.00">Object</text>
</a>
</g>
</g>
<!-- Node6&#45;&gt;Node7 -->
<g id="edge7_Node000006_Node000007" class="edge">
<title>Node6&#45;&gt;Node7</title>
<g id="a_edge7_Node000006_Node000007"><a xlink:title=" ">
<path fill="none" stroke="#63b8ff" d="M660.01,-83.57C648.77,-83.57 636.87,-83.57 625.2,-83.57"/>
<polygon fill="#63b8ff" stroke="#63b8ff" points="660.12,-87.07 670.12,-83.57 660.12,-80.07 660.12,-87.07"/>
</a>
</g>
</g>
<!-- Node9 -->
<g id="Node000009" class="node">
<title>Node9</title>
<g id="a_Node000009"><a xlink:href="cJSON_8c.html#afd5c0b7089e4de2fc9b2af599d4b596f" target="_top" xlink:title=" ">
<polygon fill="white" stroke="#666666" points="587,-50.07 511,-50.07 511,-31.07 587,-31.07 587,-50.07"/>
<text text-anchor="middle" x="549" y="-38.07" font-family="Helvetica,sans-Serif" font-size="10.00">parse_value</text>
</a>
</g>
</g>
<!-- Node8&#45;&gt;Node9 -->
<g id="edge9_Node000008_Node000009" class="edge">
<title>Node8&#45;&gt;Node9</title>
<g id="a_edge9_Node000008_Node000009"><a xlink:title=" ">
<path fill="none" stroke="#63b8ff" d="M672.41,-34.46C645.52,-33.48 612.17,-33.62 587.07,-34.87"/>
<polygon fill="#63b8ff" stroke="#63b8ff" points="672.6,-37.97 682.75,-34.91 672.91,-30.98 672.6,-37.97"/>
</a>
</g>
</g>
<!-- Node9&#45;&gt;Node3 -->
<g id="edge10_Node000009_Node000003" class="edge">
<title>Node9&#45;&gt;Node3</title>
<g id="a_edge10_Node000009_Node000003"><a xlink:title=" ">
<path fill="none" stroke="#63b8ff" d="M500.88,-51.67C491.58,-54.09 481.94,-56.77 473,-59.57 441.76,-69.32 406.52,-82.91 383.94,-91.96"/>
<polygon fill="#63b8ff" stroke="#63b8ff" points="501.95,-55.01 510.77,-49.15 500.22,-48.22 501.95,-55.01"/>
</a>
</g>
</g>
<!-- Node9&#45;&gt;Node8 -->
<g id="edge11_Node000009_Node000008" class="edge">
<title>Node9&#45;&gt;Node8</title>
<g id="a_edge11_Node000009_Node000008"><a xlink:title=" ">
<path fill="none" stroke="#63b8ff" d="M597.11,-46.69C624.2,-47.66 657.72,-47.5 682.75,-46.22"/>
<polygon fill="#63b8ff" stroke="#63b8ff" points="597.21,-43.19 587.07,-46.27 596.91,-50.19 597.21,-43.19"/>
</a>
</g>
</g>
<!-- Node9&#45;&gt;Node10 -->
<g id="edge12_Node000009_Node000010" class="edge">
<title>Node9&#45;&gt;Node10</title>
<g id="a_edge12_Node000009_Node000010"><a xlink:title=" ">
<path fill="none" stroke="#63b8ff" d="M500.69,-34.61C469.27,-33.44 428.53,-33.56 399.08,-34.99"/>
<polygon fill="#63b8ff" stroke="#63b8ff" points="500.81,-38.12 510.96,-35.06 501.12,-31.13 500.81,-38.12"/>
</a>
</g>
</g>
<!-- Node10&#45;&gt;Node9 -->
<g id="edge13_Node000010_Node000009" class="edge">
<title>Node10&#45;&gt;Node9</title>
<g id="a_edge13_Node000010_Node000009"><a xlink:title=" ">
<path fill="none" stroke="#63b8ff" d="M409.47,-46.58C441.21,-47.71 481.9,-47.54 510.96,-46.07"/>
<polygon fill="#63b8ff" stroke="#63b8ff" points="409.22,-43.07 399.08,-46.15 408.92,-50.06 409.22,-43.07"/>
</a>
</g>
</g>
</g>
</svg>

<g id="navigator" transform="translate(0 0)" fill="#404254">
  <rect fill="#f2f5e9" fill-opacity="0.5" stroke="#606060" stroke-width=".5" x="0" y="0" width="60" height="60"/>
  <use id="zoomplus" xlink:href="#zoomPlus" x="17" y="9" onmousedown="handleZoom(evt,'in')"/>
  <use id="zoomminus" xlink:href="#zoomMin" x="42" y="9" onmousedown="handleZoom(evt,'out')"/>
  <use id="reset" xlink:href="#resetDef" x="30" y="36" onmousedown="handleReset()"/>
   <use id="arrowup" xlink:href="#arrowUp" x="0" y="0" onmousedown="handlePan(0,-1)"/>
  <use id="arrowright" xlink:href="#arrowRight" x="0" y="0" onmousedown="handlePan(1,0)"/>
  <use id="arrowdown" xlink:href="#arrowDown" x="0" y="0" onmousedown="handlePan(0,1)"/>
  <use id="arrowleft" xlink:href="#arrowLeft" x="0" y="0" onmousedown="handlePan(-1,0)"/>
</g>
<svg viewBox="0 0 15 15" width="100%" height="30px" preserveAspectRatio="xMaxYMin meet">
 <g id="arrow_out" transform="scale(0.3 0.3)">
  <a xlink:href="cJSON_8c_aa05c1f56de8779ae1584c525cc81aeb5_icgraph_org.svg" target="_base">
   <rect id="button" ry="5" rx="5" y="6" x="6" height="38" width="38"
        fill="#f2f5e9" fill-opacity="0.5" stroke="#606060" stroke-width="1.0"/>
   <path id="arrow"
     d="M 11.500037,31.436501 C 11.940474,20.09759 22.043105,11.32322 32.158766,21.979434 L 37.068811,17.246167 C 37.068811,17.246167 37.088388,32 37.088388,32 L 22.160133,31.978069 C 22.160133,31.978069 26.997745,27.140456 26.997745,27.140456 C 18.528582,18.264221 13.291696,25.230495 11.500037,31.436501 z"
     style="fill:#404040;"/>
  </a>
 </g>
</svg>

<style type='text/css'>
<![CDATA[
[data-mouse-over-selected='false'] { opacity: 0.7; }
[data-mouse-over-selected='true']  { opacity: 1.0; }
]]>
</style>
<script type="application/ecmascript"><![CDATA[
document.addEventListener('DOMContentLoaded', (event) => {
  highlightEdges();
  highlightAdjacentNodes();
});
]]></script>
</svg>
