<?xml version="1.0" encoding="UTF-8" standalone="no"?>
<!DOCTYPE svg PUBLIC "-//W3C//DTD SVG 1.1//EN"
 "http://www.w3.org/Graphics/SVG/1.1/DTD/svg11.dtd">
<!-- Generated by graphviz version 2.43.0 (0)
 -->
<!-- Title: print_string Pages: 1 -->
<svg width="472pt" height="66pt"
 viewBox="0.00 0.00 472.00 66.00" xmlns="http://www.w3.org/2000/svg" xmlns:xlink="http://www.w3.org/1999/xlink">
<g id="graph0" class="graph" transform="scale(1 1) rotate(0) translate(4 62)">
<title>print_string</title>
<polygon fill="white" stroke="transparent" points="-4,4 -4,-62 468,-62 468,4 -4,4"/>
<!-- Node1 -->
<g id="node1" class="node">
<title>Node1</title>
<g id="a_node1"><a xlink:title=" ">
<polygon fill="#bfbfbf" stroke="black" points="0,-19.5 0,-38.5 72,-38.5 72,-19.5 0,-19.5"/>
<text text-anchor="middle" x="36" y="-26.5" font-family="Helvetica,sans-Serif" font-size="10.00">print_string</text>
</a>
</g>
</g>
<!-- Node2 -->
<g id="node2" class="node">
<title>Node2</title>
<g id="a_node2"><a xlink:href="cJSON_8c.html#af5b4e769356f10d99a7f66697c42c1bb" target="_top" xlink:title=" ">
<polygon fill="white" stroke="black" points="108,-19.5 108,-38.5 199,-38.5 199,-19.5 108,-19.5"/>
<text text-anchor="middle" x="153.5" y="-26.5" font-family="Helvetica,sans-Serif" font-size="10.00">print_string_ptr</text>
</a>
</g>
</g>
<!-- Node1&#45;&gt;Node2 -->
<g id="edge1" class="edge">
<title>Node1&#45;&gt;Node2</title>
<path fill="none" stroke="midnightblue" d="M72.28,-29C80.29,-29 88.99,-29 97.6,-29"/>
<polygon fill="midnightblue" stroke="midnightblue" points="97.62,-32.5 107.62,-29 97.62,-25.5 97.62,-32.5"/>
</g>
<!-- Node3 -->
<g id="node3" class="node">
<title>Node3</title>
<g id="a_node3"><a xlink:href="cJSON_8c.html#a3faa1600bc8001eaed05f16060668ce6" target="_top" xlink:title=" ">
<polygon fill="white" stroke="black" points="235,-19.5 235,-38.5 285,-38.5 285,-19.5 235,-19.5"/>
<text text-anchor="middle" x="260" y="-26.5" font-family="Helvetica,sans-Serif" font-size="10.00">ensure</text>
</a>
</g>
</g>
<!-- Node2&#45;&gt;Node3 -->
<g id="edge2" class="edge">
<title>Node2&#45;&gt;Node3</title>
<path fill="none" stroke="midnightblue" d="M199.12,-29C207.78,-29 216.72,-29 224.98,-29"/>
<polygon fill="midnightblue" stroke="midnightblue" points="224.98,-32.5 234.98,-29 224.98,-25.5 224.98,-32.5"/>
</g>
<!-- Node4 -->
<g id="node4" class="node">
<title>Node4</title>
<g id="a_node4"><a xlink:href="structinternal__hooks.html#a872a0c28217b451331d24b8e0484b293" target="_top" xlink:title=" ">
<polygon fill="white" stroke="black" points="325.5,-38.5 325.5,-57.5 459.5,-57.5 459.5,-38.5 325.5,-38.5"/>
<text text-anchor="middle" x="392.5" y="-45.5" font-family="Helvetica,sans-Serif" font-size="10.00">internal_hooks::allocate</text>
</a>
</g>
</g>
<!-- Node3&#45;&gt;Node4 -->
<g id="edge3" class="edge">
<title>Node3&#45;&gt;Node4</title>
<path fill="none" stroke="midnightblue" d="M285.24,-32.53C294.16,-33.83 304.79,-35.38 315.84,-36.98"/>
<polygon fill="midnightblue" stroke="midnightblue" points="315.65,-40.49 326.05,-38.47 316.66,-33.57 315.65,-40.49"/>
</g>
<!-- Node5 -->
<g id="node5" class="node">
<title>Node5</title>
<g id="a_node5"><a xlink:href="structinternal__hooks.html#a5dd48d5c2f2b1cf4f6eec5df6205e15c" target="_top" xlink:title=" ">
<polygon fill="white" stroke="black" points="321,-0.5 321,-19.5 464,-19.5 464,-0.5 321,-0.5"/>
<text text-anchor="middle" x="392.5" y="-7.5" font-family="Helvetica,sans-Serif" font-size="10.00">internal_hooks::reallocate</text>
</a>
</g>
</g>
<!-- Node3&#45;&gt;Node5 -->
<g id="edge4" class="edge">
<title>Node3&#45;&gt;Node5</title>
<path fill="none" stroke="midnightblue" d="M285.24,-25.47C294.16,-24.17 304.79,-22.62 315.84,-21.02"/>
<polygon fill="midnightblue" stroke="midnightblue" points="316.66,-24.43 326.05,-19.53 315.65,-17.51 316.66,-24.43"/>
</g>
</g>
</svg>
