<?xml version="1.0" encoding="UTF-8" standalone="no"?>
<!DOCTYPE svg PUBLIC "-//W3C//DTD SVG 1.1//EN"
 "http://www.w3.org/Graphics/SVG/1.1/DTD/svg11.dtd">
<!-- Generated by graphviz version 2.43.0 (0)
 -->
<!-- Title: cJSON_ReplaceItemViaPointer Pages: 1 -->
<svg width="526pt" height="78pt"
 viewBox="0.00 0.00 526.00 77.50" xmlns="http://www.w3.org/2000/svg" xmlns:xlink="http://www.w3.org/1999/xlink">
<g id="graph0" class="graph" transform="scale(1 1) rotate(0) translate(4 73.5)">
<title>cJSON_ReplaceItemViaPointer</title>
<polygon fill="white" stroke="transparent" points="-4,4 -4,-73.5 522,-73.5 522,4 -4,4"/>
<!-- Node1 -->
<g id="node1" class="node">
<title>Node1</title>
<g id="a_node1"><a xlink:title=" ">
<polygon fill="#bfbfbf" stroke="black" points="355,-28 355,-47 518,-47 518,-28 355,-28"/>
<text text-anchor="middle" x="436.5" y="-35" font-family="Helvetica,sans-Serif" font-size="10.00">cJSON_ReplaceItemViaPointer</text>
</a>
</g>
</g>
<!-- Node2 -->
<g id="node2" class="node">
<title>Node2</title>
<g id="a_node2"><a xlink:href="cJSON_8c.html#afdae75197cf2c440ef858a2e93b104f2" target="_top" xlink:title=" ">
<polygon fill="white" stroke="black" points="189,-28 189,-47 319,-47 319,-28 189,-28"/>
<text text-anchor="middle" x="254" y="-35" font-family="Helvetica,sans-Serif" font-size="10.00">replace_item_in_object</text>
</a>
</g>
</g>
<!-- Node1&#45;&gt;Node2 -->
<g id="edge1" class="edge">
<title>Node1&#45;&gt;Node2</title>
<path fill="none" stroke="midnightblue" d="M344.66,-37.5C336.05,-37.5 327.45,-37.5 319.16,-37.5"/>
<polygon fill="midnightblue" stroke="midnightblue" points="344.75,-41 354.75,-37.5 344.75,-34 344.75,-41"/>
</g>
<!-- Node3 -->
<g id="node3" class="node">
<title>Node3</title>
<g id="a_node3"><a xlink:href="cJSON_8c.html#ae8335f21a2f78d63c854c002f09f96dc" target="_top" xlink:title=" ">
<polygon fill="white" stroke="black" points="0,-50 0,-69 153,-69 153,-50 0,-50"/>
<text text-anchor="middle" x="76.5" y="-57" font-family="Helvetica,sans-Serif" font-size="10.00">cJSON_ReplaceItemInObject</text>
</a>
</g>
</g>
<!-- Node2&#45;&gt;Node3 -->
<g id="edge2" class="edge">
<title>Node2&#45;&gt;Node3</title>
<path fill="none" stroke="midnightblue" d="M178.51,-46.84C170.12,-47.89 161.56,-48.96 153.15,-50.02"/>
<polygon fill="midnightblue" stroke="midnightblue" points="179.16,-50.28 188.65,-45.57 178.29,-43.34 179.16,-50.28"/>
</g>
<!-- Node4 -->
<g id="node4" class="node">
<title>Node4</title>
<g id="a_node4"><a xlink:href="cJSON_8c.html#acbcada89e12f21f1d0f2e296d93130dc" target="_top" xlink:title=" ">
<polygon fill="white" stroke="black" points="0,-0.5 0,-30.5 153,-30.5 153,-0.5 0,-0.5"/>
<text text-anchor="start" x="8" y="-18.5" font-family="Helvetica,sans-Serif" font-size="10.00">cJSON_ReplaceItemInObject</text>
<text text-anchor="middle" x="76.5" y="-7.5" font-family="Helvetica,sans-Serif" font-size="10.00">CaseSensitive</text>
</a>
</g>
</g>
<!-- Node2&#45;&gt;Node4 -->
<g id="edge3" class="edge">
<title>Node2&#45;&gt;Node4</title>
<path fill="none" stroke="midnightblue" d="M178.51,-28.16C170.12,-27.11 161.56,-26.04 153.15,-24.98"/>
<polygon fill="midnightblue" stroke="midnightblue" points="178.29,-31.66 188.65,-29.43 179.16,-24.72 178.29,-31.66"/>
</g>
</g>
</svg>
