<?xml version="1.0" encoding="UTF-8" standalone="no"?>
<!DOCTYPE svg PUBLIC "-//W3C//DTD SVG 1.1//EN"
 "http://www.w3.org/Graphics/SVG/1.1/DTD/svg11.dtd">
<!-- Generated by graphviz version 2.43.0 (0)
 -->
<!-- Title: parse_value Pages: 1 -->
<svg width="557pt" height="101pt"
 viewBox="0.00 0.00 557.00 101.00" xmlns="http://www.w3.org/2000/svg" xmlns:xlink="http://www.w3.org/1999/xlink">
<g id="graph0" class="graph" transform="scale(1 1) rotate(0) translate(4 97)">
<title>parse_value</title>
<!-- Node1 -->
<g id="Node000001" class="node">
<title>Node1</title>
<g id="a_Node000001"><a xlink:title=" ">
<polygon fill="#999999" stroke="#666666" points="549,-56 473,-56 473,-37 549,-37 549,-56"/>
<text text-anchor="middle" x="511" y="-44" font-family="Helvetica,sans-Serif" font-size="10.00">parse_value</text>
</a>
</g>
</g>
<!-- Node2 -->
<g id="Node000002" class="node">
<title>Node2</title>
<g id="a_Node000002"><a xlink:href="cJSON_8c.html#a3a24e49a04490273160cdc1f30f10d22" target="_top" xlink:title=" ">
<polygon fill="white" stroke="#666666" points="437,-93 282,-93 282,-74 437,-74 437,-93"/>
<text text-anchor="middle" x="359.5" y="-81" font-family="Helvetica,sans-Serif" font-size="10.00">cJSON_ParseWithLengthOpts</text>
</a>
</g>
</g>
<!-- Node1&#45;&gt;Node2 -->
<g id="edge1_Node000001_Node000002" class="edge">
<title>Node1&#45;&gt;Node2</title>
<g id="a_edge1_Node000001_Node000002"><a xlink:title=" ">
<path fill="none" stroke="#63b8ff" d="M464.1,-58.62C455.12,-60.94 445.77,-63.33 437,-65.5 425.61,-68.32 413.24,-71.28 401.83,-73.96"/>
<polygon fill="#63b8ff" stroke="#63b8ff" points="465.23,-61.95 474.03,-56.04 463.47,-55.17 465.23,-61.95"/>
</a>
</g>
</g>
<!-- Node5 -->
<g id="Node000005" class="node">
<title>Node5</title>
<g id="a_Node000005"><a xlink:href="cJSON_8c.html#a367cc7ac5a592211d9f18dc02dd23069" target="_top" xlink:title=" ">
<polygon fill="white" stroke="#666666" points="396.5,-56 322.5,-56 322.5,-37 396.5,-37 396.5,-56"/>
<text text-anchor="middle" x="359.5" y="-44" font-family="Helvetica,sans-Serif" font-size="10.00">parse_array</text>
</a>
</g>
</g>
<!-- Node1&#45;&gt;Node5 -->
<g id="edge4_Node000001_Node000005" class="edge">
<title>Node1&#45;&gt;Node5</title>
<g id="a_edge4_Node000001_Node000005"><a xlink:title=" ">
<path fill="none" stroke="#63b8ff" d="M462.5,-40.17C441.15,-39.49 416.38,-39.64 396.59,-40.63"/>
<polygon fill="#63b8ff" stroke="#63b8ff" points="462.53,-43.67 472.66,-40.57 462.81,-36.67 462.53,-43.67"/>
</a>
</g>
</g>
<!-- Node6 -->
<g id="Node000006" class="node">
<title>Node6</title>
<g id="a_Node000006"><a xlink:href="cJSON_8c.html#a1472ac5d1becd7d9a5e558b4c053b06a" target="_top" xlink:title=" ">
<polygon fill="white" stroke="#666666" points="399,-19 320,-19 320,0 399,0 399,-19"/>
<text text-anchor="middle" x="359.5" y="-7" font-family="Helvetica,sans-Serif" font-size="10.00">parse_object</text>
</a>
</g>
</g>
<!-- Node1&#45;&gt;Node6 -->
<g id="edge6_Node000001_Node000006" class="edge">
<title>Node1&#45;&gt;Node6</title>
<g id="a_edge6_Node000001_Node000006"><a xlink:title=" ">
<path fill="none" stroke="#63b8ff" d="M480.78,-33.78C457.45,-26.51 424.55,-18.2 399.06,-13.05"/>
<polygon fill="#63b8ff" stroke="#63b8ff" points="479.86,-37.17 490.46,-36.93 482.03,-30.51 479.86,-37.17"/>
</a>
</g>
</g>
<!-- Node3 -->
<g id="Node000003" class="node">
<title>Node3</title>
<g id="a_Node000003"><a xlink:href="cJSON_8c.html#adfabd5d09c2cf0a2f051c47650db6e80" target="_top" xlink:title=" ">
<polygon fill="white" stroke="#666666" points="246,-93 124,-93 124,-74 246,-74 246,-93"/>
<text text-anchor="middle" x="185" y="-81" font-family="Helvetica,sans-Serif" font-size="10.00">cJSON_ParseWithOpts</text>
</a>
</g>
</g>
<!-- Node2&#45;&gt;Node3 -->
<g id="edge2_Node000002_Node000003" class="edge">
<title>Node2&#45;&gt;Node3</title>
<g id="a_edge2_Node000002_Node000003"><a xlink:title=" ">
<path fill="none" stroke="#63b8ff" d="M271.7,-83.5C263.05,-83.5 254.41,-83.5 246.12,-83.5"/>
<polygon fill="#63b8ff" stroke="#63b8ff" points="271.83,-87 281.83,-83.5 271.83,-80 271.83,-87"/>
</a>
</g>
</g>
<!-- Node4 -->
<g id="Node000004" class="node">
<title>Node4</title>
<g id="a_Node000004"><a xlink:href="cJSON_8c.html#aa2ca313f61c789be20f8a69b651043c3" target="_top" xlink:title=" ">
<polygon fill="white" stroke="#666666" points="88,-93 0,-93 0,-74 88,-74 88,-93"/>
<text text-anchor="middle" x="44" y="-81" font-family="Helvetica,sans-Serif" font-size="10.00">CJSON_PUBLIC</text>
</a>
</g>
</g>
<!-- Node3&#45;&gt;Node4 -->
<g id="edge3_Node000003_Node000004" class="edge">
<title>Node3&#45;&gt;Node4</title>
<g id="a_edge3_Node000003_Node000004"><a xlink:title=" ">
<path fill="none" stroke="#63b8ff" d="M113.63,-83.5C104.91,-83.5 96.21,-83.5 88.08,-83.5"/>
<polygon fill="#63b8ff" stroke="#63b8ff" points="113.84,-87 123.84,-83.5 113.84,-80 113.84,-87"/>
</a>
</g>
</g>
<!-- Node5&#45;&gt;Node1 -->
<g id="edge5_Node000005_Node000001" class="edge">
<title>Node5&#45;&gt;Node1</title>
<g id="a_edge5_Node000005_Node000001"><a xlink:title=" ">
<path fill="none" stroke="#63b8ff" d="M406.67,-52.79C427.86,-53.5 452.67,-53.39 472.66,-52.43"/>
<polygon fill="#63b8ff" stroke="#63b8ff" points="406.73,-49.29 396.59,-52.37 406.44,-56.28 406.73,-49.29"/>
</a>
</g>
</g>
<!-- Node6&#45;&gt;Node1 -->
<g id="edge7_Node000006_Node000001" class="edge">
<title>Node6&#45;&gt;Node1</title>
<g id="a_edge7_Node000006_Node000001"><a xlink:title=" ">
<path fill="none" stroke="#63b8ff" d="M389.83,-22.25C413.53,-29.63 447.05,-38.07 472.66,-43.19"/>
<polygon fill="#63b8ff" stroke="#63b8ff" points="390.61,-18.82 380.01,-19.06 388.44,-25.48 390.61,-18.82"/>
</a>
</g>
</g>
</g>
</svg>
