<?xml version="1.0" encoding="UTF-8" standalone="no"?>
<!DOCTYPE svg PUBLIC "-//W3C//DTD SVG 1.1//EN"
 "http://www.w3.org/Graphics/SVG/1.1/DTD/svg11.dtd">
<!-- Generated by graphviz version 2.43.0 (0)
 -->
<!-- Title: cJSON_strdup Pages: 1 -->
<svg width="445pt" height="273pt"
 viewBox="0.00 0.00 445.00 272.50" xmlns="http://www.w3.org/2000/svg" xmlns:xlink="http://www.w3.org/1999/xlink">

<svg id="main" version="1.1" xmlns="http://www.w3.org/2000/svg" xmlns:xlink="http://www.w3.org/1999/xlink" xml:space="preserve" onload="init(evt)">
<style type="text/css"><![CDATA[
.node, .edge {opacity: 0.7;}
.node.selected, .edge.selected {opacity: 1;}
.edge:hover path { stroke: red; }
.edge:hover polygon { stroke: red; fill: red; }
]]></style>
<script type="application/ecmascript" xlink:href="svg.min.js"/>
<svg id="graph" class="graph">
<g id="graph0" class="graph" transform="scale(1 1) rotate(0) translate(4 268.5)">
<title>cJSON_strdup</title>
<!-- Node1 -->
<g id="Node000001" class="node">
<title>Node1</title>
<g id="a_Node000001"><a xlink:title=" ">
<polygon fill="#999999" stroke="#666666" points="437,-113.5 355,-113.5 355,-94.5 437,-94.5 437,-113.5"/>
<text text-anchor="middle" x="396" y="-101.5" font-family="Helvetica,sans-Serif" font-size="10.00">cJSON_strdup</text>
</a>
</g>
</g>
<!-- Node2 -->
<g id="Node000002" class="node">
<title>Node2</title>
<g id="a_Node000002"><a xlink:href="cJSON_8c.html#acc48bef0e1b495898d9489e577b91d5c" target="_top" xlink:title=" ">
<polygon fill="white" stroke="#666666" points="310.5,-173.5 197.5,-173.5 197.5,-154.5 310.5,-154.5 310.5,-173.5"/>
<text text-anchor="middle" x="254" y="-161.5" font-family="Helvetica,sans-Serif" font-size="10.00">add_item_to_object</text>
</a>
</g>
</g>
<!-- Node1&#45;&gt;Node2 -->
<g id="edge1_Node000001_Node000002" class="edge">
<title>Node1&#45;&gt;Node2</title>
<g id="a_edge1_Node000001_Node000002"><a xlink:title=" ">
<path fill="none" stroke="#63b8ff" d="M367.56,-118.25C353.25,-125.45 335.37,-134.1 319,-141 307.58,-145.82 294.76,-150.55 283.61,-154.46"/>
<polygon fill="#63b8ff" stroke="#63b8ff" points="369.5,-121.19 376.83,-113.54 366.33,-114.95 369.5,-121.19"/>
</a>
</g>
</g>
<!-- Node8 -->
<g id="Node000008" class="node">
<title>Node8</title>
<g id="a_Node000008"><a xlink:href="cJSON_8c.html#a7916f8c63594d49f98777b2f2153e245" target="_top" xlink:title=" ">
<polygon fill="white" stroke="#666666" points="313,-113.5 195,-113.5 195,-94.5 313,-94.5 313,-113.5"/>
<text text-anchor="middle" x="254" y="-101.5" font-family="Helvetica,sans-Serif" font-size="10.00">cJSON_Duplicate_rec</text>
</a>
</g>
</g>
<!-- Node1&#45;&gt;Node8 -->
<g id="edge7_Node000001_Node000008" class="edge">
<title>Node1&#45;&gt;Node8</title>
<g id="a_edge7_Node000001_Node000008"><a xlink:title=" ">
<path fill="none" stroke="#63b8ff" d="M344.84,-104C334.56,-104 323.66,-104 313.12,-104"/>
<polygon fill="#63b8ff" stroke="#63b8ff" points="344.88,-107.5 354.88,-104 344.88,-100.5 344.88,-107.5"/>
</a>
</g>
</g>
<!-- Node9 -->
<g id="Node000009" class="node">
<title>Node9</title>
<g id="a_Node000009"><a xlink:href="cJSON_8c.html#afdae75197cf2c440ef858a2e93b104f2" target="_top" xlink:title=" ">
<polygon fill="white" stroke="#666666" points="319,-67.5 189,-67.5 189,-48.5 319,-48.5 319,-67.5"/>
<text text-anchor="middle" x="254" y="-55.5" font-family="Helvetica,sans-Serif" font-size="10.00">replace_item_in_object</text>
</a>
</g>
</g>
<!-- Node1&#45;&gt;Node9 -->
<g id="edge9_Node000001_Node000009" class="edge">
<title>Node1&#45;&gt;Node9</title>
<g id="a_edge9_Node000001_Node000009"><a xlink:title=" ">
<path fill="none" stroke="#63b8ff" d="M356.25,-91.27C333.37,-83.75 304.89,-74.39 283.97,-67.52"/>
<polygon fill="#63b8ff" stroke="#63b8ff" points="355.4,-94.67 365.99,-94.47 357.58,-88.02 355.4,-94.67"/>
</a>
</g>
</g>
<!-- Node3 -->
<g id="Node000003" class="node">
<title>Node3</title>
<g id="a_Node000003"><a xlink:href="cJSON_8c.html#ac44e19cf2c9b85d693021327cd13c380" target="_top" xlink:title=" ">
<polygon fill="white" stroke="#666666" points="143.5,-264.5 9.5,-264.5 9.5,-245.5 143.5,-245.5 143.5,-264.5"/>
<text text-anchor="middle" x="76.5" y="-252.5" font-family="Helvetica,sans-Serif" font-size="10.00">cJSON_AddBoolToObject</text>
</a>
</g>
</g>
<!-- Node2&#45;&gt;Node3 -->
<g id="edge2_Node000002_Node000003" class="edge">
<title>Node2&#45;&gt;Node3</title>
<g id="a_edge2_Node000002_Node000003"><a xlink:title=" ">
<path fill="none" stroke="#63b8ff" d="M234.86,-180.34C215.79,-196.7 184.26,-221.46 153,-236 144.79,-239.82 135.7,-242.94 126.77,-245.47"/>
<polygon fill="#63b8ff" stroke="#63b8ff" points="237.25,-182.91 242.47,-173.69 232.64,-177.64 237.25,-182.91"/>
</a>
</g>
</g>
<!-- Node4 -->
<g id="Node000004" class="node">
<title>Node4</title>
<g id="a_Node000004"><a xlink:href="cJSON_8c.html#ae40faf8fce455884d99bbb2f60cd5860" target="_top" xlink:title=" ">
<polygon fill="white" stroke="#666666" points="152.5,-227 0.5,-227 0.5,-197 152.5,-197 152.5,-227"/>
<text text-anchor="start" x="8.5" y="-215" font-family="Helvetica,sans-Serif" font-size="10.00">cJSON_AddItemReferenceTo</text>
<text text-anchor="middle" x="76.5" y="-204" font-family="Helvetica,sans-Serif" font-size="10.00">Object</text>
</a>
</g>
</g>
<!-- Node2&#45;&gt;Node4 -->
<g id="edge3_Node000002_Node000004" class="edge">
<title>Node2&#45;&gt;Node4</title>
<g id="a_edge3_Node000002_Node000004"><a xlink:title=" ">
<path fill="none" stroke="#63b8ff" d="M208.07,-176.29C185.07,-182.58 156.87,-190.29 132.57,-196.94"/>
<polygon fill="#63b8ff" stroke="#63b8ff" points="209.18,-179.61 217.91,-173.6 207.34,-172.86 209.18,-179.61"/>
</a>
</g>
</g>
<!-- Node5 -->
<g id="Node000005" class="node">
<title>Node5</title>
<g id="a_Node000005"><a xlink:href="cJSON_8c.html#aa53dc5895c82cc121dec73b81930ee42" target="_top" xlink:title=" ">
<polygon fill="white" stroke="#666666" points="152,-178.5 1,-178.5 1,-159.5 152,-159.5 152,-178.5"/>
<text text-anchor="middle" x="76.5" y="-166.5" font-family="Helvetica,sans-Serif" font-size="10.00">cJSON_AddNumberToObject</text>
</a>
</g>
</g>
<!-- Node2&#45;&gt;Node5 -->
<g id="edge4_Node000002_Node000005" class="edge">
<title>Node2&#45;&gt;Node5</title>
<g id="a_edge4_Node000002_Node000005"><a xlink:title=" ">
<path fill="none" stroke="#63b8ff" d="M187.18,-165.88C175.78,-166.2 163.86,-166.54 152.25,-166.87"/>
<polygon fill="#63b8ff" stroke="#63b8ff" points="187.57,-169.37 197.47,-165.58 187.38,-162.37 187.57,-169.37"/>
</a>
</g>
</g>
<!-- Node6 -->
<g id="Node000006" class="node">
<title>Node6</title>
<g id="a_Node000006"><a xlink:href="cJSON_8c.html#a60358335b6645747178c8050d5e51653" target="_top" xlink:title=" ">
<polygon fill="white" stroke="#666666" points="143,-141.5 10,-141.5 10,-122.5 143,-122.5 143,-141.5"/>
<text text-anchor="middle" x="76.5" y="-129.5" font-family="Helvetica,sans-Serif" font-size="10.00">cJSON_AddRawToObject</text>
</a>
</g>
</g>
<!-- Node2&#45;&gt;Node6 -->
<g id="edge5_Node000002_Node000006" class="edge">
<title>Node2&#45;&gt;Node6</title>
<g id="a_edge5_Node000002_Node000006"><a xlink:title=" ">
<path fill="none" stroke="#63b8ff" d="M190.88,-152.67C170.9,-149.03 148.98,-145.03 129.78,-141.53"/>
<polygon fill="#63b8ff" stroke="#63b8ff" points="190.35,-156.13 200.82,-154.49 191.61,-149.25 190.35,-156.13"/>
</a>
</g>
</g>
<!-- Node7 -->
<g id="Node000007" class="node">
<title>Node7</title>
<g id="a_Node000007"><a xlink:href="cJSON_8c.html#a49e0e6b028e5a814c642307254816208" target="_top" xlink:title=" ">
<polygon fill="white" stroke="#666666" points="146.5,-104.5 6.5,-104.5 6.5,-85.5 146.5,-85.5 146.5,-104.5"/>
<text text-anchor="middle" x="76.5" y="-92.5" font-family="Helvetica,sans-Serif" font-size="10.00">cJSON_AddStringToObject</text>
</a>
</g>
</g>
<!-- Node2&#45;&gt;Node7 -->
<g id="edge6_Node000002_Node000007" class="edge">
<title>Node2&#45;&gt;Node7</title>
<g id="a_edge6_Node000002_Node000007"><a xlink:title=" ">
<path fill="none" stroke="#63b8ff" d="M211.17,-151.01C203.62,-148.1 195.94,-144.74 189,-141 171.39,-131.51 171.05,-122.61 153,-114 144.95,-110.16 136.03,-107.04 127.23,-104.52"/>
<polygon fill="#63b8ff" stroke="#63b8ff" points="210.02,-154.32 220.62,-154.46 212.43,-147.74 210.02,-154.32"/>
</a>
</g>
</g>
<!-- Node8&#45;&gt;Node8 -->
<g id="edge8_Node000008_Node000008" class="edge">
<title>Node8&#45;&gt;Node8</title>
<g id="a_edge8_Node000008_Node000008"><a xlink:title=" ">
<path fill="none" stroke="#63b8ff" d="M280.41,-122.69C278.97,-127.7 270.17,-131.5 254,-131.5 228.76,-131.5 221.47,-122.23 232.11,-113.58"/>
<polygon fill="#63b8ff" stroke="#63b8ff" points="283.47,-120.98 275.89,-113.58 277.2,-124.1 283.47,-120.98"/>
</a>
</g>
</g>
<!-- Node10 -->
<g id="Node000010" class="node">
<title>Node10</title>
<g id="a_Node000010"><a xlink:href="cJSON_8c.html#ae8335f21a2f78d63c854c002f09f96dc" target="_top" xlink:title=" ">
<polygon fill="white" stroke="#666666" points="153,-67.5 0,-67.5 0,-48.5 153,-48.5 153,-67.5"/>
<text text-anchor="middle" x="76.5" y="-55.5" font-family="Helvetica,sans-Serif" font-size="10.00">cJSON_ReplaceItemInObject</text>
</a>
</g>
</g>
<!-- Node9&#45;&gt;Node10 -->
<g id="edge10_Node000009_Node000010" class="edge">
<title>Node9&#45;&gt;Node10</title>
<g id="a_edge10_Node000009_Node000010"><a xlink:title=" ">
<path fill="none" stroke="#63b8ff" d="M178.51,-58C170.12,-58 161.56,-58 153.15,-58"/>
<polygon fill="#63b8ff" stroke="#63b8ff" points="178.65,-61.5 188.65,-58 178.65,-54.5 178.65,-61.5"/>
</a>
</g>
</g>
<!-- Node11 -->
<g id="Node000011" class="node">
<title>Node11</title>
<g id="a_Node000011"><a xlink:href="cJSON_8c.html#acbcada89e12f21f1d0f2e296d93130dc" target="_top" xlink:title=" ">
<polygon fill="white" stroke="#666666" points="153,-30 0,-30 0,0 153,0 153,-30"/>
<text text-anchor="start" x="8" y="-18" font-family="Helvetica,sans-Serif" font-size="10.00">cJSON_ReplaceItemInObject</text>
<text text-anchor="middle" x="76.5" y="-7" font-family="Helvetica,sans-Serif" font-size="10.00">CaseSensitive</text>
</a>
</g>
</g>
<!-- Node9&#45;&gt;Node11 -->
<g id="edge11_Node000009_Node000011" class="edge">
<title>Node9&#45;&gt;Node11</title>
<g id="a_edge11_Node000009_Node000011"><a xlink:title=" ">
<path fill="none" stroke="#63b8ff" d="M204.11,-46.02C183.86,-41.06 160.14,-35.25 138.75,-30.01"/>
<polygon fill="#63b8ff" stroke="#63b8ff" points="203.51,-49.48 214.05,-48.46 205.17,-42.68 203.51,-49.48"/>
</a>
</g>
</g>
</g>
</svg>
</svg>

<style type='text/css'>
<![CDATA[
[data-mouse-over-selected='false'] { opacity: 0.7; }
[data-mouse-over-selected='true']  { opacity: 1.0; }
]]>
</style>
<script type="application/ecmascript"><![CDATA[
document.addEventListener('DOMContentLoaded', (event) => {
  highlightEdges();
  highlightAdjacentNodes();
});
]]></script>
</svg>
