<?xml version="1.0" encoding="UTF-8" standalone="no"?>
<!DOCTYPE svg PUBLIC "-//W3C//DTD SVG 1.1//EN"
 "http://www.w3.org/Graphics/SVG/1.1/DTD/svg11.dtd">
<!-- Generated by graphviz version 2.43.0 (0)
 -->
<!-- Title: print_value Pages: 1 -->
<svg width="605pt" height="278pt"
 viewBox="0.00 0.00 605.00 278.08" xmlns="http://www.w3.org/2000/svg" xmlns:xlink="http://www.w3.org/1999/xlink">
<g id="graph0" class="graph" transform="scale(1 1) rotate(0) translate(4 274.08)">
<title>print_value</title>
<!-- Node1 -->
<g id="Node000001" class="node">
<title>Node1</title>
<g id="a_Node000001"><a xlink:title=" ">
<polygon fill="#999999" stroke="#666666" points="71,-167.08 0,-167.08 0,-148.08 71,-148.08 71,-167.08"/>
<text text-anchor="middle" x="35.5" y="-155.08" font-family="Helvetica,sans-Serif" font-size="10.00">print_value</text>
</a>
</g>
</g>
<!-- Node2 -->
<g id="Node000002" class="node">
<title>Node2</title>
<g id="a_Node000002"><a xlink:href="cJSON_8c.html#ad9f9a9b2ad3154fc8033756f23c023a6" target="_top" xlink:title=" ">
<polygon fill="white" stroke="#666666" points="418,-156.08 368,-156.08 368,-137.08 418,-137.08 418,-156.08"/>
<text text-anchor="middle" x="393" y="-144.08" font-family="Helvetica,sans-Serif" font-size="10.00">ensure</text>
</a>
</g>
</g>
<!-- Node1&#45;&gt;Node2 -->
<g id="edge1_Node000001_Node000002" class="edge">
<title>Node1&#45;&gt;Node2</title>
<g id="a_edge1_Node000001_Node000002"><a xlink:title=" ">
<path fill="none" stroke="#63b8ff" d="M42.4,-147.9C53.31,-130.65 78.18,-94.27 107,-71.58 152.76,-35.55 168.23,-27.57 225,-14.58 271.36,-3.97 292.02,11.17 332,-14.58 370.85,-39.59 384.83,-96.6 389.64,-126.86"/>
<polygon fill="#63b8ff" stroke="#63b8ff" points="386.21,-127.61 391.06,-137.02 393.14,-126.63 386.21,-127.61"/>
</a>
</g>
</g>
<!-- Node5 -->
<g id="Node000005" class="node">
<title>Node5</title>
<g id="a_Node000005"><a xlink:href="cJSON_8c.html#ae84642817f3965a85c7c617663250c16" target="_top" xlink:title=" ">
<polygon fill="white" stroke="#666666" points="183,-167.08 113,-167.08 113,-148.08 183,-148.08 183,-167.08"/>
<text text-anchor="middle" x="148" y="-155.08" font-family="Helvetica,sans-Serif" font-size="10.00">print_array</text>
</a>
</g>
</g>
<!-- Node1&#45;&gt;Node5 -->
<g id="edge4_Node000001_Node000005" class="edge">
<title>Node1&#45;&gt;Node5</title>
<g id="a_edge4_Node000001_Node000005"><a xlink:title=" ">
<path fill="none" stroke="#63b8ff" d="M71.16,-151.26C81.13,-150.82 92.14,-150.72 102.61,-150.95"/>
<polygon fill="#63b8ff" stroke="#63b8ff" points="102.73,-154.45 112.84,-151.29 102.96,-147.46 102.73,-154.45"/>
</a>
</g>
</g>
<!-- Node7 -->
<g id="Node000007" class="node">
<title>Node7</title>
<g id="a_Node000007"><a xlink:href="cJSON_8c.html#ad93d84de08872da0eaa6624be0e74a68" target="_top" xlink:title=" ">
<polygon fill="white" stroke="#666666" points="189,-99.08 107,-99.08 107,-80.08 189,-80.08 189,-99.08"/>
<text text-anchor="middle" x="148" y="-87.08" font-family="Helvetica,sans-Serif" font-size="10.00">print_number</text>
</a>
</g>
</g>
<!-- Node1&#45;&gt;Node7 -->
<g id="edge8_Node000001_Node000007" class="edge">
<title>Node1&#45;&gt;Node7</title>
<g id="a_edge8_Node000001_Node000007"><a xlink:title=" ">
<path fill="none" stroke="#63b8ff" d="M52.33,-147.84C70.82,-136.46 101.58,-117.53 123.01,-104.34"/>
<polygon fill="#63b8ff" stroke="#63b8ff" points="124.87,-107.31 131.55,-99.08 121.2,-101.35 124.87,-107.31"/>
</a>
</g>
</g>
<!-- Node10 -->
<g id="Node000010" class="node">
<title>Node10</title>
<g id="a_Node000010"><a xlink:href="cJSON_8c.html#a3d742f5c68799bca291432a9cd72f8dd" target="_top" xlink:title=" ">
<polygon fill="white" stroke="#666666" points="185,-204.08 111,-204.08 111,-185.08 185,-185.08 185,-204.08"/>
<text text-anchor="middle" x="148" y="-192.08" font-family="Helvetica,sans-Serif" font-size="10.00">print_object</text>
</a>
</g>
</g>
<!-- Node1&#45;&gt;Node10 -->
<g id="edge12_Node000001_Node000010" class="edge">
<title>Node1&#45;&gt;Node10</title>
<g id="a_edge12_Node000001_Node000010"><a xlink:title=" ">
<path fill="none" stroke="#63b8ff" d="M71.16,-162.87C88.19,-167.82 108.26,-174.77 123.48,-181.06"/>
<polygon fill="#63b8ff" stroke="#63b8ff" points="122.13,-184.29 132.7,-185.08 124.93,-177.87 122.13,-184.29"/>
</a>
</g>
</g>
<!-- Node12 -->
<g id="Node000012" class="node">
<title>Node12</title>
<g id="a_Node000012"><a xlink:href="cJSON_8c.html#ad087dd738e49b4258f0a3d378a121df6" target="_top" xlink:title=" ">
<polygon fill="white" stroke="#666666" points="184,-260.08 112,-260.08 112,-241.08 184,-241.08 184,-260.08"/>
<text text-anchor="middle" x="148" y="-248.08" font-family="Helvetica,sans-Serif" font-size="10.00">print_string</text>
</a>
</g>
</g>
<!-- Node1&#45;&gt;Node12 -->
<g id="edge18_Node000001_Node000012" class="edge">
<title>Node1&#45;&gt;Node12</title>
<g id="a_edge18_Node000001_Node000012"><a xlink:title=" ">
<path fill="none" stroke="#63b8ff" d="M47.91,-167.18C66.77,-183.05 104.64,-214.93 127.72,-234.35"/>
<polygon fill="#63b8ff" stroke="#63b8ff" points="125.58,-237.13 135.49,-240.89 130.09,-231.77 125.58,-237.13"/>
</a>
</g>
</g>
<!-- Node3 -->
<g id="Node000003" class="node">
<title>Node3</title>
<g id="a_Node000003"><a xlink:href="structinternal__hooks.html#a8b8f7ff45faa5da18dd3ccd2a2c8e416" target="_top" xlink:title=" ">
<polygon fill="white" stroke="#666666" points="592.5,-175.08 458.5,-175.08 458.5,-156.08 592.5,-156.08 592.5,-175.08"/>
<text text-anchor="middle" x="525.5" y="-163.08" font-family="Helvetica,sans-Serif" font-size="10.00">internal_hooks::allocate</text>
</a>
</g>
</g>
<!-- Node2&#45;&gt;Node3 -->
<g id="edge2_Node000002_Node000003" class="edge">
<title>Node2&#45;&gt;Node3</title>
<g id="a_edge2_Node000002_Node000003"><a xlink:title=" ">
<path fill="none" stroke="#63b8ff" d="M418.24,-150.11C427.16,-151.41 437.79,-152.96 448.84,-154.56"/>
<polygon fill="#63b8ff" stroke="#63b8ff" points="448.65,-158.07 459.05,-156.05 449.66,-151.15 448.65,-158.07"/>
</a>
</g>
</g>
<!-- Node4 -->
<g id="Node000004" class="node">
<title>Node4</title>
<g id="a_Node000004"><a xlink:href="structinternal__hooks.html#a7c3921493fab83f33cd509145d8a5393" target="_top" xlink:title=" ">
<polygon fill="white" stroke="#666666" points="597,-138.08 454,-138.08 454,-119.08 597,-119.08 597,-138.08"/>
<text text-anchor="middle" x="525.5" y="-126.08" font-family="Helvetica,sans-Serif" font-size="10.00">internal_hooks::reallocate</text>
</a>
</g>
</g>
<!-- Node2&#45;&gt;Node4 -->
<g id="edge3_Node000002_Node000004" class="edge">
<title>Node2&#45;&gt;Node4</title>
<g id="a_edge3_Node000002_Node000004"><a xlink:title=" ">
<path fill="none" stroke="#63b8ff" d="M418.24,-143.24C426.26,-142.13 435.66,-140.83 445.5,-139.48"/>
<polygon fill="#63b8ff" stroke="#63b8ff" points="446.03,-142.94 455.45,-138.1 445.07,-136 446.03,-142.94"/>
</a>
</g>
</g>
<!-- Node5&#45;&gt;Node1 -->
<g id="edge6_Node000005_Node000001" class="edge">
<title>Node5&#45;&gt;Node1</title>
<g id="a_edge6_Node000005_Node000001"><a xlink:title=" ">
<path fill="none" stroke="#63b8ff" d="M112.84,-163.87C102.91,-164.32 91.91,-164.44 81.42,-164.22"/>
<polygon fill="#63b8ff" stroke="#63b8ff" points="81.27,-160.72 71.16,-163.89 81.04,-167.71 81.27,-160.72"/>
</a>
</g>
</g>
<!-- Node5&#45;&gt;Node2 -->
<g id="edge5_Node000005_Node000002" class="edge">
<title>Node5&#45;&gt;Node2</title>
<g id="a_edge5_Node000005_Node000002"><a xlink:title=" ">
<path fill="none" stroke="#63b8ff" d="M183.04,-156.04C229.21,-153.95 311.22,-150.24 357.59,-148.14"/>
<polygon fill="#63b8ff" stroke="#63b8ff" points="357.9,-151.63 367.74,-147.68 357.59,-144.63 357.9,-151.63"/>
</a>
</g>
</g>
<!-- Node6 -->
<g id="Node000006" class="node">
<title>Node6</title>
<g id="a_Node000006"><a xlink:href="cJSON_8c.html#af5fb173126786c1e3f90b6df6e2500c5" target="_top" xlink:title=" ">
<polygon fill="white" stroke="#666666" points="320,-194.08 237,-194.08 237,-175.08 320,-175.08 320,-194.08"/>
<text text-anchor="middle" x="278.5" y="-182.08" font-family="Helvetica,sans-Serif" font-size="10.00">update_offset</text>
</a>
</g>
</g>
<!-- Node5&#45;&gt;Node6 -->
<g id="edge7_Node000005_Node000006" class="edge">
<title>Node5&#45;&gt;Node6</title>
<g id="a_edge7_Node000005_Node000006"><a xlink:title=" ">
<path fill="none" stroke="#63b8ff" d="M183.1,-164.74C196.51,-167.56 212.19,-170.86 226.87,-173.94"/>
<polygon fill="#63b8ff" stroke="#63b8ff" points="226.33,-177.4 236.84,-176.04 227.77,-170.55 226.33,-177.4"/>
</a>
</g>
</g>
<!-- Node7&#45;&gt;Node2 -->
<g id="edge10_Node000007_Node000002" class="edge">
<title>Node7&#45;&gt;Node2</title>
<g id="a_edge10_Node000007_Node000002"><a xlink:title=" ">
<path fill="none" stroke="#63b8ff" d="M189.13,-98.99C236.18,-110.03 313.35,-128.13 357.72,-138.54"/>
<polygon fill="#63b8ff" stroke="#63b8ff" points="357.19,-142.01 367.72,-140.89 358.79,-135.19 357.19,-142.01"/>
</a>
</g>
</g>
<!-- Node8 -->
<g id="Node000008" class="node">
<title>Node8</title>
<g id="a_Node000008"><a xlink:href="cJSON_8c.html#aa7a85b63f1830e7e666e1f56872d5d3e" target="_top" xlink:title=" ">
<polygon fill="white" stroke="#666666" points="327.5,-80.08 229.5,-80.08 229.5,-61.08 327.5,-61.08 327.5,-80.08"/>
<text text-anchor="middle" x="278.5" y="-68.08" font-family="Helvetica,sans-Serif" font-size="10.00">compare_double</text>
</a>
</g>
</g>
<!-- Node7&#45;&gt;Node8 -->
<g id="edge9_Node000007_Node000008" class="edge">
<title>Node7&#45;&gt;Node8</title>
<g id="a_edge9_Node000007_Node000008"><a xlink:title=" ">
<path fill="none" stroke="#63b8ff" d="M189.31,-83.62C198.8,-82.22 209.11,-80.69 219.22,-79.2"/>
<polygon fill="#63b8ff" stroke="#63b8ff" points="219.85,-82.64 229.23,-77.72 218.82,-75.72 219.85,-82.64"/>
</a>
</g>
</g>
<!-- Node9 -->
<g id="Node000009" class="node">
<title>Node9</title>
<g id="a_Node000009"><a xlink:href="cJSON_8c.html#ab25412ae56c8c594831918169bea100d" target="_top" xlink:title=" ">
<polygon fill="white" stroke="#666666" points="332,-43.08 225,-43.08 225,-24.08 332,-24.08 332,-43.08"/>
<text text-anchor="middle" x="278.5" y="-31.08" font-family="Helvetica,sans-Serif" font-size="10.00">get_decimal_point</text>
</a>
</g>
</g>
<!-- Node7&#45;&gt;Node9 -->
<g id="edge11_Node000007_Node000009" class="edge">
<title>Node7&#45;&gt;Node9</title>
<g id="a_edge11_Node000007_Node000009"><a xlink:title=" ">
<path fill="none" stroke="#63b8ff" d="M167.18,-80.06C182.42,-72.23 204.86,-61.1 225,-52.58 229.79,-50.55 234.87,-48.54 239.92,-46.63"/>
<polygon fill="#63b8ff" stroke="#63b8ff" points="241.33,-49.84 249.5,-43.09 238.9,-43.28 241.33,-49.84"/>
</a>
</g>
</g>
<!-- Node10&#45;&gt;Node1 -->
<g id="edge16_Node000010_Node000001" class="edge">
<title>Node10&#45;&gt;Node1</title>
<g id="a_edge16_Node000010_Node000001"><a xlink:title=" ">
<path fill="none" stroke="#63b8ff" d="M110.68,-188.8C94.13,-183.92 75,-177.28 60.32,-171.22"/>
<polygon fill="#63b8ff" stroke="#63b8ff" points="61.51,-167.92 50.95,-167.15 58.72,-174.34 61.51,-167.92"/>
</a>
</g>
</g>
<!-- Node10&#45;&gt;Node2 -->
<g id="edge13_Node000010_Node000002" class="edge">
<title>Node10&#45;&gt;Node2</title>
<g id="a_edge13_Node000010_Node000002"><a xlink:title=" ">
<path fill="none" stroke="#63b8ff" d="M181.75,-204.15C219.44,-213.39 282.52,-223.34 332,-203.58 351.7,-195.71 368.64,-177.96 379.44,-164.34"/>
<polygon fill="#63b8ff" stroke="#63b8ff" points="382.4,-166.23 385.63,-156.13 376.81,-162.01 382.4,-166.23"/>
</a>
</g>
</g>
<!-- Node10&#45;&gt;Node6 -->
<g id="edge17_Node000010_Node000006" class="edge">
<title>Node10&#45;&gt;Node6</title>
<g id="a_edge17_Node000010_Node000006"><a xlink:title=" ">
<path fill="none" stroke="#63b8ff" d="M185.14,-191.77C197.91,-190.77 212.54,-189.63 226.33,-188.56"/>
<polygon fill="#63b8ff" stroke="#63b8ff" points="226.96,-192.02 236.66,-187.76 226.42,-185.04 226.96,-192.02"/>
</a>
</g>
</g>
<!-- Node11 -->
<g id="Node000011" class="node">
<title>Node11</title>
<g id="a_Node000011"><a xlink:href="cJSON_8c.html#af5b4e769356f10d99a7f66697c42c1bb" target="_top" xlink:title=" ">
<polygon fill="white" stroke="#666666" points="324,-270.08 233,-270.08 233,-251.08 324,-251.08 324,-270.08"/>
<text text-anchor="middle" x="278.5" y="-258.08" font-family="Helvetica,sans-Serif" font-size="10.00">print_string_ptr</text>
</a>
</g>
</g>
<!-- Node10&#45;&gt;Node11 -->
<g id="edge14_Node000010_Node000011" class="edge">
<title>Node10&#45;&gt;Node11</title>
<g id="a_edge14_Node000010_Node000011"><a xlink:title=" ">
<path fill="none" stroke="#63b8ff" d="M165.41,-204.12C180.67,-212.88 204.13,-226.06 225,-236.58 231.83,-240.02 239.25,-243.54 246.31,-246.79"/>
<polygon fill="#63b8ff" stroke="#63b8ff" points="245.06,-250.07 255.61,-251.02 247.96,-243.7 245.06,-250.07"/>
</a>
</g>
</g>
<!-- Node11&#45;&gt;Node2 -->
<g id="edge15_Node000011_Node000002" class="edge">
<title>Node11&#45;&gt;Node2</title>
<g id="a_edge15_Node000011_Node000002"><a xlink:title=" ">
<path fill="none" stroke="#63b8ff" d="M307.89,-251.01C316.23,-247.34 324.98,-242.56 332,-236.58 355.37,-216.66 373.36,-185.48 383.31,-165.54"/>
<polygon fill="#63b8ff" stroke="#63b8ff" points="386.6,-166.79 387.77,-156.26 380.29,-163.76 386.6,-166.79"/>
</a>
</g>
</g>
<!-- Node12&#45;&gt;Node11 -->
<g id="edge19_Node000012_Node000011" class="edge">
<title>Node12&#45;&gt;Node11</title>
<g id="a_edge19_Node000012_Node000011"><a xlink:title=" ">
<path fill="none" stroke="#63b8ff" d="M184.11,-253.31C195.96,-254.23 209.48,-255.29 222.48,-256.3"/>
<polygon fill="#63b8ff" stroke="#63b8ff" points="222.52,-259.81 232.76,-257.1 223.06,-252.83 222.52,-259.81"/>
</a>
</g>
</g>
</g>
</svg>
