<?xml version="1.0" encoding="UTF-8" standalone="no"?>
<!DOCTYPE svg PUBLIC "-//W3C//DTD SVG 1.1//EN"
 "http://www.w3.org/Graphics/SVG/1.1/DTD/svg11.dtd">
<!-- Generated by graphviz version 2.43.0 (0)
 -->
<!-- Title: cJSON_New_Item Pages: 1 -->
<!--zoomable 185 -->
<svg id="main" version="1.1" xmlns="http://www.w3.org/2000/svg" xmlns:xlink="http://www.w3.org/1999/xlink" xml:space="preserve" onload="init(evt)">
<style type="text/css"><![CDATA[
.edge:hover path { stroke: red; }
.edge:hover polygon { stroke: red; fill: red; }
]]></style>
<script type="text/javascript"><![CDATA[
var edges = document.getElementsByTagName('g');
if (edges && edges.length) {
  for (var i=0;i<edges.length;i++) {
    if (edges[i].id.substr(0,4)=='edge') {
      edges[i].setAttribute('class','edge');
    }
  }
}
]]></script>
        <defs>
                <circle id="rim" cx="0" cy="0" r="7"/>
                <circle id="rim2" cx="0" cy="0" r="3.5"/>
                <g id="zoomPlus">
                        <use xlink:href="#rim" fill="#404040">
                                <set attributeName="fill" to="#808080" begin="zoomplus.mouseover" end="zoomplus.mouseout"/>
                        </use>
                        <path d="M-4,0h8M0,-4v8" fill="none" stroke="white" stroke-width="1.5" pointer-events="none"/>
                </g>
                <g id="zoomMin">
                        <use xlink:href="#rim" fill="#404040">
                                <set attributeName="fill" to="#808080" begin="zoomminus.mouseover" end="zoomminus.mouseout"/>
                        </use>
                        <path d="M-4,0h8" fill="none" stroke="white" stroke-width="1.5" pointer-events="none"/>
                </g>
                <g id="dirArrow">
                        <path fill="none" stroke="white" stroke-width="1.5" d="M0,-3.0v7 M-2.5,-0.5L0,-3.0L2.5,-0.5"/>
                </g>
               <g id="resetDef">
                       <use xlink:href="#rim2" fill="#404040">
                               <set attributeName="fill" to="#808080" begin="reset.mouseover" end="reset.mouseout"/>
                       </use>
               </g>
        </defs>

<script type="text/javascript">
var viewWidth = 924;
var viewHeight = 185;
var sectionId = 'dynsection-17';
</script>
<script xlink:href="svgpan.js"/>
<svg id="graph" class="graph">
<g id="viewport">
<title>cJSON_New_Item</title>
<polygon fill="white" stroke="transparent" points="-4,4 -4,-180.86 920,-180.86 920,4 -4,4"/>
<!-- Node1 -->
<g id="node1" class="node">
<title>Node1</title>
<g id="a_node1"><a xlink:title=" ">
<polygon fill="#bfbfbf" stroke="black" points="815,-75.36 815,-94.36 916,-94.36 916,-75.36 815,-75.36"/>
<text text-anchor="middle" x="865.5" y="-82.36" font-family="Helvetica,sans-Serif" font-size="10.00">cJSON_New_Item</text>
</a>
</g>
</g>
<!-- Node2 -->
<g id="node2" class="node">
<title>Node2</title>
<g id="a_node2"><a xlink:href="cJSON_8c.html#a7916f8c63594d49f98777b2f2153e245" target="_top" xlink:title=" ">
<polygon fill="white" stroke="black" points="661,-157.36 661,-176.36 779,-176.36 779,-157.36 661,-157.36"/>
<text text-anchor="middle" x="720" y="-164.36" font-family="Helvetica,sans-Serif" font-size="10.00">cJSON_Duplicate_rec</text>
</a>
</g>
</g>
<!-- Node1&#45;&gt;Node2 -->
<g id="edge1" class="edge">
<title>Node1&#45;&gt;Node2</title>
<path fill="none" stroke="midnightblue" d="M843.93,-100.57C827.07,-113.01 802.26,-130.33 779,-142.86 768.93,-148.29 757.36,-153.3 747.22,-157.32"/>
<polygon fill="midnightblue" stroke="midnightblue" points="846.06,-103.34 851.98,-94.55 841.87,-97.74 846.06,-103.34"/>
</g>
<!-- Node3 -->
<g id="node3" class="node">
<title>Node3</title>
<g id="a_node3"><a xlink:href="cJSON_8c.html#a3a24e49a04490273160cdc1f30f10d22" target="_top" xlink:title=" ">
<polygon fill="white" stroke="black" points="282,-94.36 282,-113.36 437,-113.36 437,-94.36 282,-94.36"/>
<text text-anchor="middle" x="359.5" y="-101.36" font-family="Helvetica,sans-Serif" font-size="10.00">cJSON_ParseWithLengthOpts</text>
</a>
</g>
</g>
<!-- Node1&#45;&gt;Node3 -->
<g id="edge2" class="edge">
<title>Node1&#45;&gt;Node3</title>
<path fill="none" stroke="midnightblue" d="M818.27,-96.72C805.62,-99.53 791.85,-102.19 779,-103.86 644.1,-121.33 608.98,-113.48 473,-109.86 461.37,-109.55 449.06,-109.06 437.03,-108.49"/>
<polygon fill="midnightblue" stroke="midnightblue" points="819.18,-100.11 828.14,-94.45 817.61,-93.28 819.18,-100.11"/>
</g>
<!-- Node6 -->
<g id="node6" class="node">
<title>Node6</title>
<g id="a_node6"><a xlink:href="cJSON_8c.html#ac06bbc307a6f39fe58aafbcb82fbf4b3" target="_top" xlink:title=" ">
<polygon fill="white" stroke="black" points="670.5,-75.36 670.5,-94.36 769.5,-94.36 769.5,-75.36 670.5,-75.36"/>
<text text-anchor="middle" x="720" y="-82.36" font-family="Helvetica,sans-Serif" font-size="10.00">create_reference</text>
</a>
</g>
</g>
<!-- Node1&#45;&gt;Node6 -->
<g id="edge5" class="edge">
<title>Node1&#45;&gt;Node6</title>
<path fill="none" stroke="midnightblue" d="M804.64,-84.86C793.01,-84.86 780.95,-84.86 769.73,-84.86"/>
<polygon fill="midnightblue" stroke="midnightblue" points="804.71,-88.36 814.71,-84.86 804.71,-81.36 804.71,-88.36"/>
</g>
<!-- Node8 -->
<g id="node8" class="node">
<title>Node8</title>
<g id="a_node8"><a xlink:href="cJSON_8c.html#a367cc7ac5a592211d9f18dc02dd23069" target="_top" xlink:title=" ">
<polygon fill="white" stroke="black" points="683,-31.36 683,-50.36 757,-50.36 757,-31.36 683,-31.36"/>
<text text-anchor="middle" x="720" y="-38.36" font-family="Helvetica,sans-Serif" font-size="10.00">parse_array</text>
</a>
</g>
</g>
<!-- Node1&#45;&gt;Node8 -->
<g id="edge7" class="edge">
<title>Node1&#45;&gt;Node8</title>
<path fill="none" stroke="midnightblue" d="M823.64,-72.33C800.89,-65.36 773.03,-56.81 752.08,-50.39"/>
<polygon fill="midnightblue" stroke="midnightblue" points="822.78,-75.73 833.36,-75.31 824.83,-69.03 822.78,-75.73"/>
</g>
<!-- Node10 -->
<g id="node10" class="node">
<title>Node10</title>
<g id="a_node10"><a xlink:href="cJSON_8c.html#a1472ac5d1becd7d9a5e558b4c053b06a" target="_top" xlink:title=" ">
<polygon fill="white" stroke="black" points="320,-31.36 320,-50.36 399,-50.36 399,-31.36 320,-31.36"/>
<text text-anchor="middle" x="359.5" y="-38.36" font-family="Helvetica,sans-Serif" font-size="10.00">parse_object</text>
</a>
</g>
</g>
<!-- Node1&#45;&gt;Node10 -->
<g id="edge13" class="edge">
<title>Node1&#45;&gt;Node10</title>
<path fill="none" stroke="midnightblue" d="M848.27,-67.84C832.32,-52.46 806.45,-30.88 779,-21.86 642.54,22.99 467.55,-12.67 394.7,-31.31"/>
<polygon fill="midnightblue" stroke="midnightblue" points="846.11,-70.64 855.66,-75.23 851.06,-65.68 846.11,-70.64"/>
</g>
<!-- Node4 -->
<g id="node4" class="node">
<title>Node4</title>
<g id="a_node4"><a xlink:href="cJSON_8c.html#adfabd5d09c2cf0a2f051c47650db6e80" target="_top" xlink:title=" ">
<polygon fill="white" stroke="black" points="124,-94.36 124,-113.36 246,-113.36 246,-94.36 124,-94.36"/>
<text text-anchor="middle" x="185" y="-101.36" font-family="Helvetica,sans-Serif" font-size="10.00">cJSON_ParseWithOpts</text>
</a>
</g>
</g>
<!-- Node3&#45;&gt;Node4 -->
<g id="edge3" class="edge">
<title>Node3&#45;&gt;Node4</title>
<path fill="none" stroke="midnightblue" d="M271.7,-103.86C263.05,-103.86 254.41,-103.86 246.12,-103.86"/>
<polygon fill="midnightblue" stroke="midnightblue" points="271.83,-107.36 281.83,-103.86 271.83,-100.36 271.83,-107.36"/>
</g>
<!-- Node5 -->
<g id="node5" class="node">
<title>Node5</title>
<g id="a_node5"><a xlink:href="cJSON_8c.html#aa2ca313f61c789be20f8a69b651043c3" target="_top" xlink:title=" ">
<polygon fill="white" stroke="black" points="0,-94.36 0,-113.36 88,-113.36 88,-94.36 0,-94.36"/>
<text text-anchor="middle" x="44" y="-101.36" font-family="Helvetica,sans-Serif" font-size="10.00">CJSON_PUBLIC</text>
</a>
</g>
</g>
<!-- Node4&#45;&gt;Node5 -->
<g id="edge4" class="edge">
<title>Node4&#45;&gt;Node5</title>
<path fill="none" stroke="midnightblue" d="M113.63,-103.86C104.91,-103.86 96.21,-103.86 88.08,-103.86"/>
<polygon fill="midnightblue" stroke="midnightblue" points="113.84,-107.36 123.84,-103.86 113.84,-100.36 113.84,-107.36"/>
</g>
<!-- Node7 -->
<g id="node7" class="node">
<title>Node7</title>
<g id="a_node7"><a xlink:href="cJSON_8c.html#ae40faf8fce455884d99bbb2f60cd5860" target="_top" xlink:title=" ">
<polygon fill="white" stroke="black" points="473,-69.86 473,-99.86 625,-99.86 625,-69.86 473,-69.86"/>
<text text-anchor="start" x="481" y="-87.86" font-family="Helvetica,sans-Serif" font-size="10.00">cJSON_AddItemReferenceTo</text>
<text text-anchor="middle" x="549" y="-76.86" font-family="Helvetica,sans-Serif" font-size="10.00">Object</text>
</a>
</g>
</g>
<!-- Node6&#45;&gt;Node7 -->
<g id="edge6" class="edge">
<title>Node6&#45;&gt;Node7</title>
<path fill="none" stroke="midnightblue" d="M660.01,-84.86C648.77,-84.86 636.87,-84.86 625.2,-84.86"/>
<polygon fill="midnightblue" stroke="midnightblue" points="660.12,-88.36 670.12,-84.86 660.12,-81.36 660.12,-88.36"/>
</g>
<!-- Node9 -->
<g id="node9" class="node">
<title>Node9</title>
<g id="a_node9"><a xlink:href="cJSON_8c.html#afd5c0b7089e4de2fc9b2af599d4b596f" target="_top" xlink:title=" ">
<polygon fill="white" stroke="black" points="511,-31.36 511,-50.36 587,-50.36 587,-31.36 511,-31.36"/>
<text text-anchor="middle" x="549" y="-38.36" font-family="Helvetica,sans-Serif" font-size="10.00">parse_value</text>
</a>
</g>
</g>
<!-- Node8&#45;&gt;Node9 -->
<g id="edge8" class="edge">
<title>Node8&#45;&gt;Node9</title>
<path fill="none" stroke="midnightblue" d="M672.41,-34.75C645.52,-33.78 612.17,-33.91 587.07,-35.16"/>
<polygon fill="midnightblue" stroke="midnightblue" points="672.6,-38.26 682.75,-35.2 672.91,-31.27 672.6,-38.26"/>
</g>
<!-- Node9&#45;&gt;Node3 -->
<g id="edge9" class="edge">
<title>Node9&#45;&gt;Node3</title>
<path fill="none" stroke="midnightblue" d="M500.88,-52.62C491.58,-55.16 481.95,-57.97 473,-60.86 441.57,-71.03 406.08,-85.02 383.52,-94.25"/>
<polygon fill="midnightblue" stroke="midnightblue" points="502.02,-55.94 510.77,-49.97 500.21,-49.17 502.02,-55.94"/>
</g>
<!-- Node9&#45;&gt;Node8 -->
<g id="edge10" class="edge">
<title>Node9&#45;&gt;Node8</title>
<path fill="none" stroke="midnightblue" d="M597.11,-46.98C624.2,-47.95 657.72,-47.8 682.75,-46.52"/>
<polygon fill="midnightblue" stroke="midnightblue" points="597.21,-43.49 587.07,-46.56 596.91,-50.48 597.21,-43.49"/>
</g>
<!-- Node9&#45;&gt;Node10 -->
<g id="edge11" class="edge">
<title>Node9&#45;&gt;Node10</title>
<path fill="none" stroke="midnightblue" d="M500.69,-34.91C469.27,-33.73 428.53,-33.86 399.08,-35.28"/>
<polygon fill="midnightblue" stroke="midnightblue" points="500.81,-38.42 510.96,-35.36 501.12,-31.42 500.81,-38.42"/>
</g>
<!-- Node10&#45;&gt;Node9 -->
<g id="edge12" class="edge">
<title>Node10&#45;&gt;Node9</title>
<path fill="none" stroke="midnightblue" d="M409.47,-46.87C441.21,-48 481.9,-47.83 510.96,-46.36"/>
<polygon fill="midnightblue" stroke="midnightblue" points="409.22,-43.36 399.08,-46.44 408.92,-50.35 409.22,-43.36"/>
</g>
</g>
</svg>
        <g id="navigator" transform="translate(0 0)" fill="#404254">
                <rect fill="#f2f5e9" fill-opacity="0.5" stroke="#606060" stroke-width=".5" x="0" y="0" width="60" height="60"/>
                <use id="zoomplus" xlink:href="#zoomPlus" x="17" y="9" onmousedown="handleZoom(evt,'in')"/>
                <use id="zoomminus" xlink:href="#zoomMin" x="42" y="9" onmousedown="handleZoom(evt,'out')"/>
                <use id="reset" xlink:href="#resetDef" x="30" y="36" onmousedown="handleReset()"/>
                <g id="arrowUp" xlink:href="#dirArrow" transform="translate(30 24)" onmousedown="handlePan(0,-1)">
                  <use xlink:href="#rim" fill="#404040">
                        <set attributeName="fill" to="#808080" begin="arrowUp.mouseover" end="arrowUp.mouseout"/>
                  </use>
                  <path fill="none" stroke="white" stroke-width="1.5" d="M0,-3.0v7 M-2.5,-0.5L0,-3.0L2.5,-0.5"/>
                </g>
                <g id="arrowRight" xlink:href="#dirArrow" transform="rotate(90) translate(36 -43)" onmousedown="handlePan(1,0)">
                  <use xlink:href="#rim" fill="#404040">
                        <set attributeName="fill" to="#808080" begin="arrowRight.mouseover" end="arrowRight.mouseout"/>
                  </use>
                  <path fill="none" stroke="white" stroke-width="1.5" d="M0,-3.0v7 M-2.5,-0.5L0,-3.0L2.5,-0.5"/>
                </g>
                <g id="arrowDown" xlink:href="#dirArrow" transform="rotate(180) translate(-30 -48)" onmousedown="handlePan(0,1)">
                  <use xlink:href="#rim" fill="#404040">
                        <set attributeName="fill" to="#808080" begin="arrowDown.mouseover" end="arrowDown.mouseout"/>
                  </use>
                  <path fill="none" stroke="white" stroke-width="1.5" d="M0,-3.0v7 M-2.5,-0.5L0,-3.0L2.5,-0.5"/>
                </g>
                <g id="arrowLeft" xlink:href="#dirArrow" transform="rotate(270) translate(-36 17)" onmousedown="handlePan(-1,0)">
                  <use xlink:href="#rim" fill="#404040">
                        <set attributeName="fill" to="#808080" begin="arrowLeft.mouseover" end="arrowLeft.mouseout"/>
                  </use>
                  <path fill="none" stroke="white" stroke-width="1.5" d="M0,-3.0v7 M-2.5,-0.5L0,-3.0L2.5,-0.5"/>
                </g>
        </g>
        <svg viewBox="0 0 15 15" width="100%" height="30px" preserveAspectRatio="xMaxYMin meet">
         <g id="arrow_out" transform="scale(0.3 0.3)">
          <a xlink:href="cJSON_8c_a8f447c625af025c35d0ec59032ad6473_icgraph_org.svg" target="_base">
           <rect id="button" ry="5" rx="5" y="6" x="6" height="38" width="38"
                fill="#f2f5e9" fill-opacity="0.5" stroke="#606060" stroke-width="1.0"/>
           <path id="arrow"
             d="M 11.500037,31.436501 C 11.940474,20.09759 22.043105,11.32322 32.158766,21.979434 L 37.068811,17.246167 C 37.068811,17.246167 37.088388,32 37.088388,32 L 22.160133,31.978069 C 22.160133,31.978069 26.997745,27.140456 26.997745,27.140456 C 18.528582,18.264221 13.291696,25.230495 11.500037,31.436501 z"
             style="fill:#404040;"/>
          </a>
         </g>
        </svg>
</svg>
