<?xml version="1.0" encoding="UTF-8" standalone="no"?>
<!DOCTYPE svg PUBLIC "-//W3C//DTD SVG 1.1//EN"
 "http://www.w3.org/Graphics/SVG/1.1/DTD/svg11.dtd">
<!-- Generated by graphviz version 2.43.0 (0)
 -->
<!-- Title: print_value Pages: 1 -->
<!--zoomable 280 -->
<svg id="main" version="1.1" xmlns="http://www.w3.org/2000/svg" xmlns:xlink="http://www.w3.org/1999/xlink" xml:space="preserve" onload="init(evt)">
<style type="text/css"><![CDATA[
.edge:hover path { stroke: red; }
.edge:hover polygon { stroke: red; fill: red; }
]]></style>
<script type="text/javascript"><![CDATA[
var edges = document.getElementsByTagName('g');
if (edges && edges.length) {
  for (var i=0;i<edges.length;i++) {
    if (edges[i].id.substr(0,4)=='edge') {
      edges[i].setAttribute('class','edge');
    }
  }
}
]]></script>
        <defs>
                <circle id="rim" cx="0" cy="0" r="7"/>
                <circle id="rim2" cx="0" cy="0" r="3.5"/>
                <g id="zoomPlus">
                        <use xlink:href="#rim" fill="#404040">
                                <set attributeName="fill" to="#808080" begin="zoomplus.mouseover" end="zoomplus.mouseout"/>
                        </use>
                        <path d="M-4,0h8M0,-4v8" fill="none" stroke="white" stroke-width="1.5" pointer-events="none"/>
                </g>
                <g id="zoomMin">
                        <use xlink:href="#rim" fill="#404040">
                                <set attributeName="fill" to="#808080" begin="zoomminus.mouseover" end="zoomminus.mouseout"/>
                        </use>
                        <path d="M-4,0h8" fill="none" stroke="white" stroke-width="1.5" pointer-events="none"/>
                </g>
                <g id="dirArrow">
                        <path fill="none" stroke="white" stroke-width="1.5" d="M0,-3.0v7 M-2.5,-0.5L0,-3.0L2.5,-0.5"/>
                </g>
               <g id="resetDef">
                       <use xlink:href="#rim2" fill="#404040">
                               <set attributeName="fill" to="#808080" begin="reset.mouseover" end="reset.mouseout"/>
                       </use>
               </g>
        </defs>

<script type="text/javascript">
var viewWidth = 605;
var viewHeight = 280;
var sectionId = 'dynsection-62';
</script>
<script xlink:href="svgpan.js"/>
<svg id="graph" class="graph">
<g id="viewport">
<title>print_value</title>
<polygon fill="white" stroke="transparent" points="-4,4 -4,-275.6 601,-275.6 601,4 -4,4"/>
<!-- Node1 -->
<g id="node1" class="node">
<title>Node1</title>
<g id="a_node1"><a xlink:title=" ">
<polygon fill="#bfbfbf" stroke="black" points="0,-157.1 0,-176.1 71,-176.1 71,-157.1 0,-157.1"/>
<text text-anchor="middle" x="35.5" y="-164.1" font-family="Helvetica,sans-Serif" font-size="10.00">print_value</text>
</a>
</g>
</g>
<!-- Node2 -->
<g id="node2" class="node">
<title>Node2</title>
<g id="a_node2"><a xlink:href="cJSON_8c.html#a3faa1600bc8001eaed05f16060668ce6" target="_top" xlink:title=" ">
<polygon fill="white" stroke="black" points="368,-138.1 368,-157.1 418,-157.1 418,-138.1 368,-138.1"/>
<text text-anchor="middle" x="393" y="-145.1" font-family="Helvetica,sans-Serif" font-size="10.00">ensure</text>
</a>
</g>
</g>
<!-- Node1&#45;&gt;Node2 -->
<g id="edge1" class="edge">
<title>Node1&#45;&gt;Node2</title>
<path fill="none" stroke="midnightblue" d="M41.5,-157.06C51.64,-138.46 76.3,-97 107,-71.6 151.88,-34.48 168.23,-27.6 225,-14.6 271.36,-3.99 292.05,11.2 332,-14.6 371.06,-39.83 384.95,-97.26 389.69,-127.74"/>
<polygon fill="midnightblue" stroke="midnightblue" points="386.27,-128.54 391.09,-137.98 393.2,-127.6 386.27,-128.54"/>
</g>
<!-- Node5 -->
<g id="node5" class="node">
<title>Node5</title>
<g id="a_node5"><a xlink:href="cJSON_8c.html#ae84642817f3965a85c7c617663250c16" target="_top" xlink:title=" ">
<polygon fill="white" stroke="black" points="113,-157.1 113,-176.1 183,-176.1 183,-157.1 113,-157.1"/>
<text text-anchor="middle" x="148" y="-164.1" font-family="Helvetica,sans-Serif" font-size="10.00">print_array</text>
</a>
</g>
</g>
<!-- Node1&#45;&gt;Node5 -->
<g id="edge4" class="edge">
<title>Node1&#45;&gt;Node5</title>
<path fill="none" stroke="midnightblue" d="M71.16,-160.29C81.13,-159.85 92.14,-159.74 102.61,-159.97"/>
<polygon fill="midnightblue" stroke="midnightblue" points="102.73,-163.48 112.84,-160.31 102.96,-156.48 102.73,-163.48"/>
</g>
<!-- Node7 -->
<g id="node7" class="node">
<title>Node7</title>
<g id="a_node7"><a xlink:href="cJSON_8c.html#ad93d84de08872da0eaa6624be0e74a68" target="_top" xlink:title=" ">
<polygon fill="white" stroke="black" points="107,-81.1 107,-100.1 189,-100.1 189,-81.1 107,-81.1"/>
<text text-anchor="middle" x="148" y="-88.1" font-family="Helvetica,sans-Serif" font-size="10.00">print_number</text>
</a>
</g>
</g>
<!-- Node1&#45;&gt;Node7 -->
<g id="edge8" class="edge">
<title>Node1&#45;&gt;Node7</title>
<path fill="none" stroke="midnightblue" d="M50.49,-156.98C69.18,-144.13 102.48,-121.23 124.65,-105.97"/>
<polygon fill="midnightblue" stroke="midnightblue" points="126.86,-108.7 133.12,-100.15 122.9,-102.93 126.86,-108.7"/>
</g>
<!-- Node10 -->
<g id="node10" class="node">
<title>Node10</title>
<g id="a_node10"><a xlink:href="cJSON_8c.html#a3d742f5c68799bca291432a9cd72f8dd" target="_top" xlink:title=" ">
<polygon fill="white" stroke="black" points="111,-195.1 111,-214.1 185,-214.1 185,-195.1 111,-195.1"/>
<text text-anchor="middle" x="148" y="-202.1" font-family="Helvetica,sans-Serif" font-size="10.00">print_object</text>
</a>
</g>
</g>
<!-- Node1&#45;&gt;Node10 -->
<g id="edge12" class="edge">
<title>Node1&#45;&gt;Node10</title>
<path fill="none" stroke="midnightblue" d="M71.16,-172.21C88.19,-177.31 108.26,-184.44 123.48,-190.87"/>
<polygon fill="midnightblue" stroke="midnightblue" points="122.14,-194.11 132.7,-194.97 124.98,-187.71 122.14,-194.11"/>
</g>
<!-- Node12 -->
<g id="node12" class="node">
<title>Node12</title>
<g id="a_node12"><a xlink:href="cJSON_8c.html#ad087dd738e49b4258f0a3d378a121df6" target="_top" xlink:title=" ">
<polygon fill="white" stroke="black" points="112,-242.1 112,-261.1 184,-261.1 184,-242.1 112,-242.1"/>
<text text-anchor="middle" x="148" y="-249.1" font-family="Helvetica,sans-Serif" font-size="10.00">print_string</text>
</a>
</g>
</g>
<!-- Node1&#45;&gt;Node12 -->
<g id="edge18" class="edge">
<title>Node1&#45;&gt;Node12</title>
<path fill="none" stroke="midnightblue" d="M47.79,-176.13C61.55,-187.66 85.62,-207.51 107,-223.6 112.51,-227.75 118.56,-232.09 124.25,-236.08"/>
<polygon fill="midnightblue" stroke="midnightblue" points="122.55,-239.17 132.76,-241.99 126.54,-233.41 122.55,-239.17"/>
</g>
<!-- Node3 -->
<g id="node3" class="node">
<title>Node3</title>
<g id="a_node3"><a xlink:href="structinternal__hooks.html#a872a0c28217b451331d24b8e0484b293" target="_top" xlink:title=" ">
<polygon fill="white" stroke="black" points="458.5,-157.1 458.5,-176.1 592.5,-176.1 592.5,-157.1 458.5,-157.1"/>
<text text-anchor="middle" x="525.5" y="-164.1" font-family="Helvetica,sans-Serif" font-size="10.00">internal_hooks::allocate</text>
</a>
</g>
</g>
<!-- Node2&#45;&gt;Node3 -->
<g id="edge2" class="edge">
<title>Node2&#45;&gt;Node3</title>
<path fill="none" stroke="midnightblue" d="M418.24,-151.13C427.16,-152.43 437.79,-153.98 448.84,-155.59"/>
<polygon fill="midnightblue" stroke="midnightblue" points="448.65,-159.1 459.05,-157.08 449.66,-152.17 448.65,-159.1"/>
</g>
<!-- Node4 -->
<g id="node4" class="node">
<title>Node4</title>
<g id="a_node4"><a xlink:href="structinternal__hooks.html#a5dd48d5c2f2b1cf4f6eec5df6205e15c" target="_top" xlink:title=" ">
<polygon fill="white" stroke="black" points="454,-119.1 454,-138.1 597,-138.1 597,-119.1 454,-119.1"/>
<text text-anchor="middle" x="525.5" y="-126.1" font-family="Helvetica,sans-Serif" font-size="10.00">internal_hooks::reallocate</text>
</a>
</g>
</g>
<!-- Node2&#45;&gt;Node4 -->
<g id="edge3" class="edge">
<title>Node2&#45;&gt;Node4</title>
<path fill="none" stroke="midnightblue" d="M418.24,-144.07C427.16,-142.78 437.79,-141.23 448.84,-139.62"/>
<polygon fill="midnightblue" stroke="midnightblue" points="449.66,-143.04 459.05,-138.13 448.65,-136.11 449.66,-143.04"/>
</g>
<!-- Node5&#45;&gt;Node1 -->
<g id="edge6" class="edge">
<title>Node5&#45;&gt;Node1</title>
<path fill="none" stroke="midnightblue" d="M112.84,-172.9C102.91,-173.35 91.91,-173.47 81.42,-173.25"/>
<polygon fill="midnightblue" stroke="midnightblue" points="81.27,-169.74 71.16,-172.92 81.04,-176.74 81.27,-169.74"/>
</g>
<!-- Node5&#45;&gt;Node2 -->
<g id="edge5" class="edge">
<title>Node5&#45;&gt;Node2</title>
<path fill="none" stroke="midnightblue" d="M183.04,-163.94C229.21,-160.33 311.22,-153.92 357.59,-150.3"/>
<polygon fill="midnightblue" stroke="midnightblue" points="358.04,-153.77 367.74,-149.5 357.49,-146.79 358.04,-153.77"/>
</g>
<!-- Node6 -->
<g id="node6" class="node">
<title>Node6</title>
<g id="a_node6"><a xlink:href="cJSON_8c.html#af5fb173126786c1e3f90b6df6e2500c5" target="_top" xlink:title=" ">
<polygon fill="white" stroke="black" points="237,-176.1 237,-195.1 320,-195.1 320,-176.1 237,-176.1"/>
<text text-anchor="middle" x="278.5" y="-183.1" font-family="Helvetica,sans-Serif" font-size="10.00">update_offset</text>
</a>
</g>
</g>
<!-- Node5&#45;&gt;Node6 -->
<g id="edge7" class="edge">
<title>Node5&#45;&gt;Node6</title>
<path fill="none" stroke="midnightblue" d="M183.1,-171.65C196.51,-173.63 212.19,-175.95 226.87,-178.12"/>
<polygon fill="midnightblue" stroke="midnightblue" points="226.43,-181.59 236.84,-179.59 227.46,-174.67 226.43,-181.59"/>
</g>
<!-- Node7&#45;&gt;Node2 -->
<g id="edge10" class="edge">
<title>Node7&#45;&gt;Node2</title>
<path fill="none" stroke="midnightblue" d="M189.13,-100.02C236.18,-111.05 313.35,-129.16 357.72,-139.56"/>
<polygon fill="midnightblue" stroke="midnightblue" points="357.19,-143.03 367.72,-141.91 358.79,-136.22 357.19,-143.03"/>
</g>
<!-- Node8 -->
<g id="node8" class="node">
<title>Node8</title>
<g id="a_node8"><a xlink:href="cJSON_8c.html#aa7a85b63f1830e7e666e1f56872d5d3e" target="_top" xlink:title=" ">
<polygon fill="white" stroke="black" points="229.5,-62.1 229.5,-81.1 327.5,-81.1 327.5,-62.1 229.5,-62.1"/>
<text text-anchor="middle" x="278.5" y="-69.1" font-family="Helvetica,sans-Serif" font-size="10.00">compare_double</text>
</a>
</g>
</g>
<!-- Node7&#45;&gt;Node8 -->
<g id="edge9" class="edge">
<title>Node7&#45;&gt;Node8</title>
<path fill="none" stroke="midnightblue" d="M189.31,-84.64C198.8,-83.24 209.11,-81.72 219.22,-80.22"/>
<polygon fill="midnightblue" stroke="midnightblue" points="219.85,-83.67 229.23,-78.74 218.82,-76.74 219.85,-83.67"/>
</g>
<!-- Node9 -->
<g id="node9" class="node">
<title>Node9</title>
<g id="a_node9"><a xlink:href="cJSON_8c.html#ab25412ae56c8c594831918169bea100d" target="_top" xlink:title=" ">
<polygon fill="white" stroke="black" points="225,-24.1 225,-43.1 332,-43.1 332,-24.1 225,-24.1"/>
<text text-anchor="middle" x="278.5" y="-31.1" font-family="Helvetica,sans-Serif" font-size="10.00">get_decimal_point</text>
</a>
</g>
</g>
<!-- Node7&#45;&gt;Node9 -->
<g id="edge11" class="edge">
<title>Node7&#45;&gt;Node9</title>
<path fill="none" stroke="midnightblue" d="M166.84,-80.94C182.07,-72.88 204.67,-61.33 225,-52.6 229.72,-50.58 234.74,-48.58 239.73,-46.67"/>
<polygon fill="midnightblue" stroke="midnightblue" points="241.04,-49.92 249.2,-43.16 238.61,-43.36 241.04,-49.92"/>
</g>
<!-- Node10&#45;&gt;Node1 -->
<g id="edge16" class="edge">
<title>Node10&#45;&gt;Node1</title>
<path fill="none" stroke="midnightblue" d="M110.68,-198.5C94.13,-193.47 75,-186.65 60.32,-180.46"/>
<polygon fill="midnightblue" stroke="midnightblue" points="61.51,-177.16 50.95,-176.3 58.67,-183.56 61.51,-177.16"/>
</g>
<!-- Node10&#45;&gt;Node2 -->
<g id="edge13" class="edge">
<title>Node10&#45;&gt;Node2</title>
<path fill="none" stroke="midnightblue" d="M185.21,-212.27C223.24,-218.59 284.05,-223.75 332,-204.6 351.7,-196.74 368.64,-178.98 379.44,-165.36"/>
<polygon fill="midnightblue" stroke="midnightblue" points="382.4,-167.25 385.63,-157.16 376.81,-163.04 382.4,-167.25"/>
</g>
<!-- Node10&#45;&gt;Node6 -->
<g id="edge17" class="edge">
<title>Node10&#45;&gt;Node6</title>
<path fill="none" stroke="midnightblue" d="M185.14,-199.26C198.04,-197.35 212.83,-195.17 226.73,-193.11"/>
<polygon fill="midnightblue" stroke="midnightblue" points="227.28,-196.57 236.66,-191.64 226.26,-189.64 227.28,-196.57"/>
</g>
<!-- Node11 -->
<g id="node11" class="node">
<title>Node11</title>
<g id="a_node11"><a xlink:href="cJSON_8c.html#af5b4e769356f10d99a7f66697c42c1bb" target="_top" xlink:title=" ">
<polygon fill="white" stroke="black" points="233,-252.1 233,-271.1 324,-271.1 324,-252.1 233,-252.1"/>
<text text-anchor="middle" x="278.5" y="-259.1" font-family="Helvetica,sans-Serif" font-size="10.00">print_string_ptr</text>
</a>
</g>
</g>
<!-- Node10&#45;&gt;Node11 -->
<g id="edge14" class="edge">
<title>Node10&#45;&gt;Node11</title>
<path fill="none" stroke="midnightblue" d="M170.51,-214.14C191.36,-223.39 223.19,-237.51 246.72,-247.95"/>
<polygon fill="midnightblue" stroke="midnightblue" points="245.36,-251.18 255.92,-252.03 248.2,-244.78 245.36,-251.18"/>
</g>
<!-- Node11&#45;&gt;Node2 -->
<g id="edge15" class="edge">
<title>Node11&#45;&gt;Node2</title>
<path fill="none" stroke="midnightblue" d="M307.89,-252.04C316.23,-248.37 324.98,-243.58 332,-237.6 355.37,-217.69 373.36,-186.5 383.31,-166.56"/>
<polygon fill="midnightblue" stroke="midnightblue" points="386.6,-167.81 387.77,-157.28 380.29,-164.78 386.6,-167.81"/>
</g>
<!-- Node12&#45;&gt;Node11 -->
<g id="edge19" class="edge">
<title>Node12&#45;&gt;Node11</title>
<path fill="none" stroke="midnightblue" d="M184.11,-254.34C195.96,-255.26 209.48,-256.31 222.48,-257.32"/>
<polygon fill="midnightblue" stroke="midnightblue" points="222.52,-260.84 232.76,-258.12 223.06,-253.86 222.52,-260.84"/>
</g>
</g>
</svg>
        <g id="navigator" transform="translate(0 0)" fill="#404254">
                <rect fill="#f2f5e9" fill-opacity="0.5" stroke="#606060" stroke-width=".5" x="0" y="0" width="60" height="60"/>
                <use id="zoomplus" xlink:href="#zoomPlus" x="17" y="9" onmousedown="handleZoom(evt,'in')"/>
                <use id="zoomminus" xlink:href="#zoomMin" x="42" y="9" onmousedown="handleZoom(evt,'out')"/>
                <use id="reset" xlink:href="#resetDef" x="30" y="36" onmousedown="handleReset()"/>
                <g id="arrowUp" xlink:href="#dirArrow" transform="translate(30 24)" onmousedown="handlePan(0,-1)">
                  <use xlink:href="#rim" fill="#404040">
                        <set attributeName="fill" to="#808080" begin="arrowUp.mouseover" end="arrowUp.mouseout"/>
                  </use>
                  <path fill="none" stroke="white" stroke-width="1.5" d="M0,-3.0v7 M-2.5,-0.5L0,-3.0L2.5,-0.5"/>
                </g>
                <g id="arrowRight" xlink:href="#dirArrow" transform="rotate(90) translate(36 -43)" onmousedown="handlePan(1,0)">
                  <use xlink:href="#rim" fill="#404040">
                        <set attributeName="fill" to="#808080" begin="arrowRight.mouseover" end="arrowRight.mouseout"/>
                  </use>
                  <path fill="none" stroke="white" stroke-width="1.5" d="M0,-3.0v7 M-2.5,-0.5L0,-3.0L2.5,-0.5"/>
                </g>
                <g id="arrowDown" xlink:href="#dirArrow" transform="rotate(180) translate(-30 -48)" onmousedown="handlePan(0,1)">
                  <use xlink:href="#rim" fill="#404040">
                        <set attributeName="fill" to="#808080" begin="arrowDown.mouseover" end="arrowDown.mouseout"/>
                  </use>
                  <path fill="none" stroke="white" stroke-width="1.5" d="M0,-3.0v7 M-2.5,-0.5L0,-3.0L2.5,-0.5"/>
                </g>
                <g id="arrowLeft" xlink:href="#dirArrow" transform="rotate(270) translate(-36 17)" onmousedown="handlePan(-1,0)">
                  <use xlink:href="#rim" fill="#404040">
                        <set attributeName="fill" to="#808080" begin="arrowLeft.mouseover" end="arrowLeft.mouseout"/>
                  </use>
                  <path fill="none" stroke="white" stroke-width="1.5" d="M0,-3.0v7 M-2.5,-0.5L0,-3.0L2.5,-0.5"/>
                </g>
        </g>
        <svg viewBox="0 0 15 15" width="100%" height="30px" preserveAspectRatio="xMaxYMin meet">
         <g id="arrow_out" transform="scale(0.3 0.3)">
          <a xlink:href="cJSON_8c_a5ba141f183b9abb4b49e38a211299c7e_cgraph_org.svg" target="_base">
           <rect id="button" ry="5" rx="5" y="6" x="6" height="38" width="38"
                fill="#f2f5e9" fill-opacity="0.5" stroke="#606060" stroke-width="1.0"/>
           <path id="arrow"
             d="M 11.500037,31.436501 C 11.940474,20.09759 22.043105,11.32322 32.158766,21.979434 L 37.068811,17.246167 C 37.068811,17.246167 37.088388,32 37.088388,32 L 22.160133,31.978069 C 22.160133,31.978069 26.997745,27.140456 26.997745,27.140456 C 18.528582,18.264221 13.291696,25.230495 11.500037,31.436501 z"
             style="fill:#404040;"/>
          </a>
         </g>
        </svg>
</svg>
