<?xml version="1.0" encoding="UTF-8" standalone="no"?>
<!DOCTYPE svg PUBLIC "-//W3C//DTD SVG 1.1//EN"
 "http://www.w3.org/Graphics/SVG/1.1/DTD/svg11.dtd">
<!-- Generated by graphviz version 2.43.0 (0)
 -->
<!-- Title: src/Libs/cJSON/cJSON.c Pages: 1 -->
<svg width="551pt" height="140pt"
 viewBox="0.00 0.00 550.50 140.00" xmlns="http://www.w3.org/2000/svg" xmlns:xlink="http://www.w3.org/1999/xlink">
<g id="graph0" class="graph" transform="scale(1 1) rotate(0) translate(4 136)">
<title>src/Libs/cJSON/cJSON.c</title>
<polygon fill="white" stroke="transparent" points="-4,4 -4,-136 546.5,-136 546.5,4 -4,4"/>
<!-- Node1 -->
<g id="node1" class="node">
<title>Node1</title>
<g id="a_node1"><a xlink:title=" ">
<polygon fill="#bfbfbf" stroke="black" points="203.5,-112.5 203.5,-131.5 329.5,-131.5 329.5,-112.5 203.5,-112.5"/>
<text text-anchor="middle" x="266.5" y="-119.5" font-family="Helvetica,sans-Serif" font-size="10.00">src/Libs/cJSON/cJSON.c</text>
</a>
</g>
</g>
<!-- Node2 -->
<g id="node2" class="node">
<title>Node2</title>
<g id="a_node2"><a xlink:title=" ">
<polygon fill="white" stroke="#bfbfbf" points="0,-56.5 0,-75.5 53,-75.5 53,-56.5 0,-56.5"/>
<text text-anchor="middle" x="26.5" y="-63.5" font-family="Helvetica,sans-Serif" font-size="10.00">ctype.h</text>
</a>
</g>
</g>
<!-- Node1&#45;&gt;Node2 -->
<g id="edge1" class="edge">
<title>Node1&#45;&gt;Node2</title>
<path fill="none" stroke="midnightblue" d="M226.17,-112.45C187.06,-104.08 125.78,-90.77 63.26,-76.13"/>
<polygon fill="midnightblue" stroke="midnightblue" points="63.75,-72.65 53.22,-73.77 62.15,-79.46 63.75,-72.65"/>
</g>
<!-- Node3 -->
<g id="node3" class="node">
<title>Node3</title>
<g id="a_node3"><a xlink:title=" ">
<polygon fill="white" stroke="#bfbfbf" points="71,-56.5 71,-75.5 118,-75.5 118,-56.5 71,-56.5"/>
<text text-anchor="middle" x="94.5" y="-63.5" font-family="Helvetica,sans-Serif" font-size="10.00">float.h</text>
</a>
</g>
</g>
<!-- Node1&#45;&gt;Node3 -->
<g id="edge2" class="edge">
<title>Node1&#45;&gt;Node3</title>
<path fill="none" stroke="midnightblue" d="M239.25,-112.44C209.07,-102.97 160.42,-87.7 127.96,-77.5"/>
<polygon fill="midnightblue" stroke="midnightblue" points="128.62,-74.04 118.03,-74.39 126.53,-80.72 128.62,-74.04"/>
</g>
<!-- Node4 -->
<g id="node4" class="node">
<title>Node4</title>
<g id="a_node4"><a xlink:title=" ">
<polygon fill="white" stroke="#bfbfbf" points="136,-56.5 136,-75.5 189,-75.5 189,-56.5 136,-56.5"/>
<text text-anchor="middle" x="162.5" y="-63.5" font-family="Helvetica,sans-Serif" font-size="10.00">limits.h</text>
</a>
</g>
</g>
<!-- Node1&#45;&gt;Node4 -->
<g id="edge3" class="edge">
<title>Node1&#45;&gt;Node4</title>
<path fill="none" stroke="midnightblue" d="M249.79,-112.32C233.19,-103.7 207.5,-90.36 188.28,-80.39"/>
<polygon fill="midnightblue" stroke="midnightblue" points="189.66,-77.16 179.17,-75.65 186.43,-83.37 189.66,-77.16"/>
</g>
<!-- Node5 -->
<g id="node5" class="node">
<title>Node5</title>
<g id="a_node5"><a xlink:title=" ">
<polygon fill="white" stroke="#bfbfbf" points="207,-56.5 207,-75.5 258,-75.5 258,-56.5 207,-56.5"/>
<text text-anchor="middle" x="232.5" y="-63.5" font-family="Helvetica,sans-Serif" font-size="10.00">math.h</text>
</a>
</g>
</g>
<!-- Node1&#45;&gt;Node5 -->
<g id="edge4" class="edge">
<title>Node1&#45;&gt;Node5</title>
<path fill="none" stroke="midnightblue" d="M260.89,-112.08C256.13,-104.53 249.18,-93.49 243.35,-84.23"/>
<polygon fill="midnightblue" stroke="midnightblue" points="246.3,-82.35 238.01,-75.75 240.38,-86.08 246.3,-82.35"/>
</g>
<!-- Node6 -->
<g id="node6" class="node">
<title>Node6</title>
<g id="a_node6"><a xlink:title=" ">
<polygon fill="white" stroke="#bfbfbf" points="276.5,-56.5 276.5,-75.5 326.5,-75.5 326.5,-56.5 276.5,-56.5"/>
<text text-anchor="middle" x="301.5" y="-63.5" font-family="Helvetica,sans-Serif" font-size="10.00">stdio.h</text>
</a>
</g>
</g>
<!-- Node1&#45;&gt;Node6 -->
<g id="edge5" class="edge">
<title>Node1&#45;&gt;Node6</title>
<path fill="none" stroke="midnightblue" d="M272.28,-112.08C277.17,-104.53 284.33,-93.49 290.33,-84.23"/>
<polygon fill="midnightblue" stroke="midnightblue" points="293.33,-86.05 295.83,-75.75 287.45,-82.24 293.33,-86.05"/>
</g>
<!-- Node7 -->
<g id="node7" class="node">
<title>Node7</title>
<g id="a_node7"><a xlink:title=" ">
<polygon fill="white" stroke="#bfbfbf" points="345,-56.5 345,-75.5 398,-75.5 398,-56.5 345,-56.5"/>
<text text-anchor="middle" x="371.5" y="-63.5" font-family="Helvetica,sans-Serif" font-size="10.00">stdlib.h</text>
</a>
</g>
</g>
<!-- Node1&#45;&gt;Node7 -->
<g id="edge6" class="edge">
<title>Node1&#45;&gt;Node7</title>
<path fill="none" stroke="midnightblue" d="M283.37,-112.32C300.21,-103.66 326.31,-90.24 345.74,-80.25"/>
<polygon fill="midnightblue" stroke="midnightblue" points="347.38,-83.34 354.67,-75.65 344.18,-77.12 347.38,-83.34"/>
</g>
<!-- Node8 -->
<g id="node8" class="node">
<title>Node8</title>
<g id="a_node8"><a xlink:title=" ">
<polygon fill="white" stroke="#bfbfbf" points="416,-56.5 416,-75.5 469,-75.5 469,-56.5 416,-56.5"/>
<text text-anchor="middle" x="442.5" y="-63.5" font-family="Helvetica,sans-Serif" font-size="10.00">string.h</text>
</a>
</g>
</g>
<!-- Node1&#45;&gt;Node8 -->
<g id="edge7" class="edge">
<title>Node1&#45;&gt;Node8</title>
<path fill="none" stroke="midnightblue" d="M294.39,-112.44C324.61,-103.17 372.94,-88.34 406.12,-78.16"/>
<polygon fill="midnightblue" stroke="midnightblue" points="407.36,-81.44 415.89,-75.16 405.31,-74.75 407.36,-81.44"/>
</g>
<!-- Node9 -->
<g id="node9" class="node">
<title>Node9</title>
<g id="a_node9"><a xlink:href="cJSON_8h.html" target="_top" xlink:title=" ">
<polygon fill="white" stroke="black" points="487,-56.5 487,-75.5 542,-75.5 542,-56.5 487,-56.5"/>
<text text-anchor="middle" x="514.5" y="-63.5" font-family="Helvetica,sans-Serif" font-size="10.00">cJSON.h</text>
</a>
</g>
</g>
<!-- Node1&#45;&gt;Node9 -->
<g id="edge8" class="edge">
<title>Node1&#45;&gt;Node9</title>
<path fill="none" stroke="midnightblue" d="M308.83,-112.48C349.6,-104.17 413.25,-90.93 476.83,-76.33"/>
<polygon fill="midnightblue" stroke="midnightblue" points="477.66,-79.73 486.62,-74.08 476.08,-72.91 477.66,-79.73"/>
</g>
<!-- Node10 -->
<g id="node10" class="node">
<title>Node10</title>
<g id="a_node10"><a xlink:title=" ">
<polygon fill="white" stroke="#bfbfbf" points="486.5,-0.5 486.5,-19.5 542.5,-19.5 542.5,-0.5 486.5,-0.5"/>
<text text-anchor="middle" x="514.5" y="-7.5" font-family="Helvetica,sans-Serif" font-size="10.00">stddef.h</text>
</a>
</g>
</g>
<!-- Node9&#45;&gt;Node10 -->
<g id="edge9" class="edge">
<title>Node9&#45;&gt;Node10</title>
<path fill="none" stroke="midnightblue" d="M514.5,-56.08C514.5,-49.01 514.5,-38.86 514.5,-29.99"/>
<polygon fill="midnightblue" stroke="midnightblue" points="518,-29.75 514.5,-19.75 511,-29.75 518,-29.75"/>
</g>
</g>
</svg>
