<?xml version="1.0" encoding="UTF-8" standalone="no"?>
<!DOCTYPE svg PUBLIC "-//W3C//DTD SVG 1.1//EN"
 "http://www.w3.org/Graphics/SVG/1.1/DTD/svg11.dtd">
<!-- Generated by graphviz version 2.43.0 (0)
 -->
<!-- Title: parse_object Pages: 1 -->
<svg width="672pt" height="66pt"
 viewBox="0.00 0.00 672.00 66.00" xmlns="http://www.w3.org/2000/svg" xmlns:xlink="http://www.w3.org/1999/xlink">
<g id="graph0" class="graph" transform="scale(1 1) rotate(0) translate(4 62)">
<title>parse_object</title>
<polygon fill="white" stroke="transparent" points="-4,4 -4,-62 668,-62 668,4 -4,4"/>
<!-- Node1 -->
<g id="node1" class="node">
<title>Node1</title>
<g id="a_node1"><a xlink:title=" ">
<polygon fill="#bfbfbf" stroke="black" points="585,-0.5 585,-19.5 664,-19.5 664,-0.5 585,-0.5"/>
<text text-anchor="middle" x="624.5" y="-7.5" font-family="Helvetica,sans-Serif" font-size="10.00">parse_object</text>
</a>
</g>
</g>
<!-- Node2 -->
<g id="node2" class="node">
<title>Node2</title>
<g id="a_node2"><a xlink:href="cJSON_8c.html#afd5c0b7089e4de2fc9b2af599d4b596f" target="_top" xlink:title=" ">
<polygon fill="white" stroke="black" points="473,-0.5 473,-19.5 549,-19.5 549,-0.5 473,-0.5"/>
<text text-anchor="middle" x="511" y="-7.5" font-family="Helvetica,sans-Serif" font-size="10.00">parse_value</text>
</a>
</g>
</g>
<!-- Node1&#45;&gt;Node2 -->
<g id="edge1" class="edge">
<title>Node1&#45;&gt;Node2</title>
<path fill="none" stroke="midnightblue" d="M574.56,-3.29C566.02,-3.18 557.27,-3.28 549.11,-3.6"/>
<polygon fill="midnightblue" stroke="midnightblue" points="574.74,-6.8 584.82,-3.54 574.9,0.2 574.74,-6.8"/>
</g>
<!-- Node2&#45;&gt;Node1 -->
<g id="edge7" class="edge">
<title>Node2&#45;&gt;Node1</title>
<path fill="none" stroke="midnightblue" d="M559.3,-16.68C567.81,-16.82 576.59,-16.75 584.82,-16.46"/>
<polygon fill="midnightblue" stroke="midnightblue" points="559.21,-13.18 549.11,-16.4 559.01,-20.17 559.21,-13.18"/>
</g>
<!-- Node3 -->
<g id="node3" class="node">
<title>Node3</title>
<g id="a_node3"><a xlink:href="cJSON_8c.html#a3a24e49a04490273160cdc1f30f10d22" target="_top" xlink:title=" ">
<polygon fill="white" stroke="black" points="282,-38.5 282,-57.5 437,-57.5 437,-38.5 282,-38.5"/>
<text text-anchor="middle" x="359.5" y="-45.5" font-family="Helvetica,sans-Serif" font-size="10.00">cJSON_ParseWithLengthOpts</text>
</a>
</g>
</g>
<!-- Node2&#45;&gt;Node3 -->
<g id="edge2" class="edge">
<title>Node2&#45;&gt;Node3</title>
<path fill="none" stroke="midnightblue" d="M463.79,-22.11C454.91,-24.42 445.67,-26.8 437,-29 424.8,-32.1 411.49,-35.43 399.44,-38.42"/>
<polygon fill="midnightblue" stroke="midnightblue" points="464.83,-25.46 473.63,-19.55 463.07,-18.68 464.83,-25.46"/>
</g>
<!-- Node6 -->
<g id="node6" class="node">
<title>Node6</title>
<g id="a_node6"><a xlink:href="cJSON_8c.html#a367cc7ac5a592211d9f18dc02dd23069" target="_top" xlink:title=" ">
<polygon fill="white" stroke="black" points="322.5,-0.5 322.5,-19.5 396.5,-19.5 396.5,-0.5 322.5,-0.5"/>
<text text-anchor="middle" x="359.5" y="-7.5" font-family="Helvetica,sans-Serif" font-size="10.00">parse_array</text>
</a>
</g>
</g>
<!-- Node2&#45;&gt;Node6 -->
<g id="edge5" class="edge">
<title>Node2&#45;&gt;Node6</title>
<path fill="none" stroke="midnightblue" d="M462.5,-3.67C441.15,-2.99 416.38,-3.14 396.59,-4.13"/>
<polygon fill="midnightblue" stroke="midnightblue" points="462.53,-7.17 472.66,-4.07 462.81,-0.17 462.53,-7.17"/>
</g>
<!-- Node4 -->
<g id="node4" class="node">
<title>Node4</title>
<g id="a_node4"><a xlink:href="cJSON_8c.html#adfabd5d09c2cf0a2f051c47650db6e80" target="_top" xlink:title=" ">
<polygon fill="white" stroke="black" points="124,-38.5 124,-57.5 246,-57.5 246,-38.5 124,-38.5"/>
<text text-anchor="middle" x="185" y="-45.5" font-family="Helvetica,sans-Serif" font-size="10.00">cJSON_ParseWithOpts</text>
</a>
</g>
</g>
<!-- Node3&#45;&gt;Node4 -->
<g id="edge3" class="edge">
<title>Node3&#45;&gt;Node4</title>
<path fill="none" stroke="midnightblue" d="M271.7,-48C263.05,-48 254.41,-48 246.12,-48"/>
<polygon fill="midnightblue" stroke="midnightblue" points="271.83,-51.5 281.83,-48 271.83,-44.5 271.83,-51.5"/>
</g>
<!-- Node5 -->
<g id="node5" class="node">
<title>Node5</title>
<g id="a_node5"><a xlink:href="cJSON_8c.html#aa2ca313f61c789be20f8a69b651043c3" target="_top" xlink:title=" ">
<polygon fill="white" stroke="black" points="0,-38.5 0,-57.5 88,-57.5 88,-38.5 0,-38.5"/>
<text text-anchor="middle" x="44" y="-45.5" font-family="Helvetica,sans-Serif" font-size="10.00">CJSON_PUBLIC</text>
</a>
</g>
</g>
<!-- Node4&#45;&gt;Node5 -->
<g id="edge4" class="edge">
<title>Node4&#45;&gt;Node5</title>
<path fill="none" stroke="midnightblue" d="M113.63,-48C104.91,-48 96.21,-48 88.08,-48"/>
<polygon fill="midnightblue" stroke="midnightblue" points="113.84,-51.5 123.84,-48 113.84,-44.5 113.84,-51.5"/>
</g>
<!-- Node6&#45;&gt;Node2 -->
<g id="edge6" class="edge">
<title>Node6&#45;&gt;Node2</title>
<path fill="none" stroke="midnightblue" d="M406.67,-16.29C427.86,-17 452.67,-16.89 472.66,-15.93"/>
<polygon fill="midnightblue" stroke="midnightblue" points="406.73,-12.79 396.59,-15.87 406.44,-19.78 406.73,-12.79"/>
</g>
</g>
</svg>
