<?xml version="1.0" encoding="UTF-8" standalone="no"?>
<!DOCTYPE svg PUBLIC "-//W3C//DTD SVG 1.1//EN"
 "http://www.w3.org/Graphics/SVG/1.1/DTD/svg11.dtd">
<!-- Generated by graphviz version 2.43.0 (0)
 -->
<!-- Title: cJSON_AddItemReferenceToObject Pages: 1 -->
<svg width="623pt" height="138pt"
 viewBox="0.00 0.00 623.00 138.00" xmlns="http://www.w3.org/2000/svg" xmlns:xlink="http://www.w3.org/1999/xlink">
<g id="graph0" class="graph" transform="scale(1 1) rotate(0) translate(4 134)">
<title>cJSON_AddItemReferenceToObject</title>
<!-- Node1 -->
<g id="Node000001" class="node">
<title>Node1</title>
<g id="a_Node000001"><a xlink:title=" ">
<polygon fill="#999999" stroke="#666666" points="152,-60.5 0,-60.5 0,-30.5 152,-30.5 152,-60.5"/>
<text text-anchor="start" x="8" y="-48.5" font-family="Helvetica,sans-Serif" font-size="10.00">cJSON_AddItemReferenceTo</text>
<text text-anchor="middle" x="76" y="-37.5" font-family="Helvetica,sans-Serif" font-size="10.00">Object</text>
</a>
</g>
</g>
<!-- Node2 -->
<g id="Node000002" class="node">
<title>Node2</title>
<g id="a_Node000002"><a xlink:href="cJSON_8c.html#acc48bef0e1b495898d9489e577b91d5c" target="_top" xlink:title=" ">
<polygon fill="white" stroke="#666666" points="301,-83 188,-83 188,-64 301,-64 301,-83"/>
<text text-anchor="middle" x="244.5" y="-71" font-family="Helvetica,sans-Serif" font-size="10.00">add_item_to_object</text>
</a>
</g>
</g>
<!-- Node1&#45;&gt;Node2 -->
<g id="edge1_Node000001_Node000002" class="edge">
<title>Node1&#45;&gt;Node2</title>
<g id="a_edge1_Node000001_Node000002"><a xlink:title=" ">
<path fill="none" stroke="#63b8ff" d="M152.46,-58.19C160.9,-59.61 169.45,-61.05 177.75,-62.44"/>
<polygon fill="#63b8ff" stroke="#63b8ff" points="177.3,-65.92 187.74,-64.12 178.46,-59.01 177.3,-65.92"/>
</a>
</g>
</g>
<!-- Node8 -->
<g id="Node000008" class="node">
<title>Node8</title>
<g id="a_Node000008"><a xlink:href="cJSON_8c.html#a34155b75b0e70b292b338f6f41d090d6" target="_top" xlink:title=" ">
<polygon fill="white" stroke="#666666" points="294,-37 195,-37 195,-18 294,-18 294,-37"/>
<text text-anchor="middle" x="244.5" y="-25" font-family="Helvetica,sans-Serif" font-size="10.00">create_reference</text>
</a>
</g>
</g>
<!-- Node1&#45;&gt;Node8 -->
<g id="edge7_Node000001_Node000008" class="edge">
<title>Node1&#45;&gt;Node8</title>
<g id="a_edge7_Node000001_Node000008"><a xlink:title=" ">
<path fill="none" stroke="#63b8ff" d="M152.46,-37.34C163.17,-36.18 174.05,-35.01 184.4,-33.89"/>
<polygon fill="#63b8ff" stroke="#63b8ff" points="184.96,-37.35 194.53,-32.79 184.21,-30.39 184.96,-37.35"/>
</a>
</g>
</g>
<!-- Node3 -->
<g id="Node000003" class="node">
<title>Node3</title>
<g id="a_Node000003"><a xlink:href="cJSON_8c.html#a816d10c908af6be844a1f8277363e2f1" target="_top" xlink:title=" ">
<polygon fill="white" stroke="#666666" points="445,-130 337,-130 337,-111 445,-111 445,-130"/>
<text text-anchor="middle" x="391" y="-118" font-family="Helvetica,sans-Serif" font-size="10.00">add_item_to_array</text>
</a>
</g>
</g>
<!-- Node2&#45;&gt;Node3 -->
<g id="edge2_Node000002_Node000003" class="edge">
<title>Node2&#45;&gt;Node3</title>
<g id="a_edge2_Node000002_Node000003"><a xlink:title=" ">
<path fill="none" stroke="#63b8ff" d="M274.74,-83.01C296.63,-90.13 326.8,-99.94 350.78,-107.74"/>
<polygon fill="#63b8ff" stroke="#63b8ff" points="349.71,-111.08 360.31,-110.84 351.88,-104.42 349.71,-111.08"/>
</a>
</g>
</g>
<!-- Node5 -->
<g id="Node000005" class="node">
<title>Node5</title>
<g id="a_Node000005"><a xlink:href="cJSON_8c.html#afed51aa9c43b82e72456fd04730643ce" target="_top" xlink:title=" ">
<polygon fill="white" stroke="#666666" points="441,-93 341,-93 341,-74 441,-74 441,-93"/>
<text text-anchor="middle" x="391" y="-81" font-family="Helvetica,sans-Serif" font-size="10.00">cast_away_const</text>
</a>
</g>
</g>
<!-- Node2&#45;&gt;Node5 -->
<g id="edge4_Node000002_Node000005" class="edge">
<title>Node2&#45;&gt;Node5</title>
<g id="a_edge4_Node000002_Node000005"><a xlink:title=" ">
<path fill="none" stroke="#63b8ff" d="M301.37,-77.37C311.03,-78.04 321.11,-78.73 330.86,-79.41"/>
<polygon fill="#63b8ff" stroke="#63b8ff" points="330.66,-82.9 340.87,-80.1 331.14,-75.92 330.66,-82.9"/>
</a>
</g>
</g>
<!-- Node6 -->
<g id="Node000006" class="node">
<title>Node6</title>
<g id="a_Node000006"><a xlink:href="cJSON_8c.html#a15067642a12599c13a0e6c0da9009be7" target="_top" xlink:title=" ">
<polygon fill="white" stroke="#666666" points="432,-56 350,-56 350,-37 432,-37 432,-56"/>
<text text-anchor="middle" x="391" y="-44" font-family="Helvetica,sans-Serif" font-size="10.00">cJSON_strdup</text>
</a>
</g>
</g>
<!-- Node2&#45;&gt;Node6 -->
<g id="edge5_Node000002_Node000006" class="edge">
<title>Node2&#45;&gt;Node6</title>
<g id="a_edge5_Node000002_Node000006"><a xlink:title=" ">
<path fill="none" stroke="#63b8ff" d="M296.45,-63.98C310.57,-61.34 325.88,-58.48 339.96,-55.85"/>
<polygon fill="#63b8ff" stroke="#63b8ff" points="340.76,-59.26 349.95,-53.98 339.47,-52.38 340.76,-59.26"/>
</a>
</g>
</g>
<!-- Node4 -->
<g id="Node000004" class="node">
<title>Node4</title>
<g id="a_Node000004"><a xlink:href="cJSON_8c.html#a5d61bcc0045ace88c2ae04f0928eeace" target="_top" xlink:title=" ">
<polygon fill="white" stroke="#666666" points="587.5,-130 508.5,-130 508.5,-111 587.5,-111 587.5,-130"/>
<text text-anchor="middle" x="548" y="-118" font-family="Helvetica,sans-Serif" font-size="10.00">suffix_object</text>
</a>
</g>
</g>
<!-- Node3&#45;&gt;Node4 -->
<g id="edge3_Node000003_Node000004" class="edge">
<title>Node3&#45;&gt;Node4</title>
<g id="a_edge3_Node000003_Node000004"><a xlink:title=" ">
<path fill="none" stroke="#63b8ff" d="M445.34,-120.5C462.46,-120.5 481.32,-120.5 498.1,-120.5"/>
<polygon fill="#63b8ff" stroke="#63b8ff" points="498.24,-124 508.24,-120.5 498.24,-117 498.24,-124"/>
</a>
</g>
</g>
<!-- Node7 -->
<g id="Node000007" class="node">
<title>Node7</title>
<g id="a_Node000007"><a xlink:href="structinternal__hooks.html#a8b8f7ff45faa5da18dd3ccd2a2c8e416" target="_top" xlink:title=" ">
<polygon fill="white" stroke="#666666" points="615,-38 481,-38 481,-19 615,-19 615,-38"/>
<text text-anchor="middle" x="548" y="-26" font-family="Helvetica,sans-Serif" font-size="10.00">internal_hooks::allocate</text>
</a>
</g>
</g>
<!-- Node6&#45;&gt;Node7 -->
<g id="edge6_Node000006_Node000007" class="edge">
<title>Node6&#45;&gt;Node7</title>
<g id="a_edge6_Node000006_Node000007"><a xlink:title=" ">
<path fill="none" stroke="#63b8ff" d="M432.32,-41.82C444.11,-40.45 457.41,-38.9 470.67,-37.36"/>
<polygon fill="#63b8ff" stroke="#63b8ff" points="471.24,-40.82 480.77,-36.19 470.43,-33.87 471.24,-40.82"/>
</a>
</g>
</g>
<!-- Node9 -->
<g id="Node000009" class="node">
<title>Node9</title>
<g id="a_Node000009"><a xlink:href="cJSON_8c.html#aa05c1f56de8779ae1584c525cc81aeb5" target="_top" xlink:title=" ">
<polygon fill="white" stroke="#666666" points="441.5,-19 340.5,-19 340.5,0 441.5,0 441.5,-19"/>
<text text-anchor="middle" x="391" y="-7" font-family="Helvetica,sans-Serif" font-size="10.00">cJSON_New_Item</text>
</a>
</g>
</g>
<!-- Node8&#45;&gt;Node9 -->
<g id="edge8_Node000008_Node000009" class="edge">
<title>Node8&#45;&gt;Node9</title>
<g id="a_edge8_Node000008_Node000009"><a xlink:title=" ">
<path fill="none" stroke="#63b8ff" d="M294.02,-21.46C305.68,-20 318.26,-18.44 330.36,-16.93"/>
<polygon fill="#63b8ff" stroke="#63b8ff" points="330.89,-20.39 340.38,-15.68 330.02,-13.44 330.89,-20.39"/>
</a>
</g>
</g>
<!-- Node9&#45;&gt;Node7 -->
<g id="edge9_Node000009_Node000007" class="edge">
<title>Node9&#45;&gt;Node7</title>
<g id="a_edge9_Node000009_Node000007"><a xlink:title=" ">
<path fill="none" stroke="#63b8ff" d="M441.9,-15.62C451.09,-16.74 460.88,-17.94 470.65,-19.14"/>
<polygon fill="#63b8ff" stroke="#63b8ff" points="470.44,-22.64 480.8,-20.38 471.3,-15.69 470.44,-22.64"/>
</a>
</g>
</g>
</g>
</svg>
