<?xml version="1.0" encoding="UTF-8" standalone="no"?>
<!DOCTYPE svg PUBLIC "-//W3C//DTD SVG 1.1//EN"
 "http://www.w3.org/Graphics/SVG/1.1/DTD/svg11.dtd">
<!-- Generated by graphviz version 2.43.0 (0)
 -->
<!-- Title: cJSON_PrintPreallocated Pages: 1 -->
<!--zoomable 280 -->
<svg id="main" version="1.1" xmlns="http://www.w3.org/2000/svg" xmlns:xlink="http://www.w3.org/1999/xlink" xml:space="preserve" onload="init(evt)">
<style type="text/css"><![CDATA[
.edge:hover path { stroke: red; }
.edge:hover polygon { stroke: red; fill: red; }
]]></style>
<script type="text/javascript"><![CDATA[
var edges = document.getElementsByTagName('g');
if (edges && edges.length) {
  for (var i=0;i<edges.length;i++) {
    if (edges[i].id.substr(0,4)=='edge') {
      edges[i].setAttribute('class','edge');
    }
  }
}
]]></script>
        <defs>
                <circle id="rim" cx="0" cy="0" r="7"/>
                <circle id="rim2" cx="0" cy="0" r="3.5"/>
                <g id="zoomPlus">
                        <use xlink:href="#rim" fill="#404040">
                                <set attributeName="fill" to="#808080" begin="zoomplus.mouseover" end="zoomplus.mouseout"/>
                        </use>
                        <path d="M-4,0h8M0,-4v8" fill="none" stroke="white" stroke-width="1.5" pointer-events="none"/>
                </g>
                <g id="zoomMin">
                        <use xlink:href="#rim" fill="#404040">
                                <set attributeName="fill" to="#808080" begin="zoomminus.mouseover" end="zoomminus.mouseout"/>
                        </use>
                        <path d="M-4,0h8" fill="none" stroke="white" stroke-width="1.5" pointer-events="none"/>
                </g>
                <g id="dirArrow">
                        <path fill="none" stroke="white" stroke-width="1.5" d="M0,-3.0v7 M-2.5,-0.5L0,-3.0L2.5,-0.5"/>
                </g>
               <g id="resetDef">
                       <use xlink:href="#rim2" fill="#404040">
                               <set attributeName="fill" to="#808080" begin="reset.mouseover" end="reset.mouseout"/>
                       </use>
               </g>
        </defs>

<script type="text/javascript">
var viewWidth = 775;
var viewHeight = 280;
var sectionId = 'dynsection-13';
</script>
<script xlink:href="svgpan.js"/>
<svg id="graph" class="graph">
<g id="viewport">
<title>cJSON_PrintPreallocated</title>
<polygon fill="white" stroke="transparent" points="-4,4 -4,-275.6 771,-275.6 771,4 -4,4"/>
<!-- Node1 -->
<g id="node1" class="node">
<title>Node1</title>
<g id="a_node1"><a xlink:title=" ">
<polygon fill="#bfbfbf" stroke="black" points="0,-157.1 0,-176.1 134,-176.1 134,-157.1 0,-157.1"/>
<text text-anchor="middle" x="67" y="-164.1" font-family="Helvetica,sans-Serif" font-size="10.00">cJSON_PrintPreallocated</text>
</a>
</g>
</g>
<!-- Node2 -->
<g id="node2" class="node">
<title>Node2</title>
<g id="a_node2"><a xlink:href="cJSON_8c.html#a5ba141f183b9abb4b49e38a211299c7e" target="_top" xlink:title=" ">
<polygon fill="white" stroke="black" points="170,-157.1 170,-176.1 241,-176.1 241,-157.1 170,-157.1"/>
<text text-anchor="middle" x="205.5" y="-164.1" font-family="Helvetica,sans-Serif" font-size="10.00">print_value</text>
</a>
</g>
</g>
<!-- Node1&#45;&gt;Node2 -->
<g id="edge1" class="edge">
<title>Node1&#45;&gt;Node2</title>
<path fill="none" stroke="midnightblue" d="M134.25,-166.6C142.94,-166.6 151.68,-166.6 159.89,-166.6"/>
<polygon fill="midnightblue" stroke="midnightblue" points="159.98,-170.1 169.98,-166.6 159.98,-163.1 159.98,-170.1"/>
</g>
<!-- Node3 -->
<g id="node3" class="node">
<title>Node3</title>
<g id="a_node3"><a xlink:href="cJSON_8c.html#a3faa1600bc8001eaed05f16060668ce6" target="_top" xlink:title=" ">
<polygon fill="white" stroke="black" points="538,-138.1 538,-157.1 588,-157.1 588,-138.1 538,-138.1"/>
<text text-anchor="middle" x="563" y="-145.1" font-family="Helvetica,sans-Serif" font-size="10.00">ensure</text>
</a>
</g>
</g>
<!-- Node2&#45;&gt;Node3 -->
<g id="edge2" class="edge">
<title>Node2&#45;&gt;Node3</title>
<path fill="none" stroke="midnightblue" d="M211.5,-157.06C221.64,-138.46 246.3,-97 277,-71.6 321.88,-34.48 338.23,-27.6 395,-14.6 441.36,-3.99 462.05,11.2 502,-14.6 541.06,-39.83 554.95,-97.26 559.69,-127.74"/>
<polygon fill="midnightblue" stroke="midnightblue" points="556.27,-128.54 561.09,-137.98 563.2,-127.6 556.27,-128.54"/>
</g>
<!-- Node6 -->
<g id="node6" class="node">
<title>Node6</title>
<g id="a_node6"><a xlink:href="cJSON_8c.html#ae84642817f3965a85c7c617663250c16" target="_top" xlink:title=" ">
<polygon fill="white" stroke="black" points="283,-157.1 283,-176.1 353,-176.1 353,-157.1 283,-157.1"/>
<text text-anchor="middle" x="318" y="-164.1" font-family="Helvetica,sans-Serif" font-size="10.00">print_array</text>
</a>
</g>
</g>
<!-- Node2&#45;&gt;Node6 -->
<g id="edge5" class="edge">
<title>Node2&#45;&gt;Node6</title>
<path fill="none" stroke="midnightblue" d="M241.16,-160.29C251.13,-159.85 262.14,-159.74 272.61,-159.97"/>
<polygon fill="midnightblue" stroke="midnightblue" points="272.73,-163.48 282.84,-160.31 272.96,-156.48 272.73,-163.48"/>
</g>
<!-- Node8 -->
<g id="node8" class="node">
<title>Node8</title>
<g id="a_node8"><a xlink:href="cJSON_8c.html#ad93d84de08872da0eaa6624be0e74a68" target="_top" xlink:title=" ">
<polygon fill="white" stroke="black" points="277,-81.1 277,-100.1 359,-100.1 359,-81.1 277,-81.1"/>
<text text-anchor="middle" x="318" y="-88.1" font-family="Helvetica,sans-Serif" font-size="10.00">print_number</text>
</a>
</g>
</g>
<!-- Node2&#45;&gt;Node8 -->
<g id="edge9" class="edge">
<title>Node2&#45;&gt;Node8</title>
<path fill="none" stroke="midnightblue" d="M220.49,-156.98C239.18,-144.13 272.48,-121.23 294.65,-105.97"/>
<polygon fill="midnightblue" stroke="midnightblue" points="296.86,-108.7 303.12,-100.15 292.9,-102.93 296.86,-108.7"/>
</g>
<!-- Node11 -->
<g id="node11" class="node">
<title>Node11</title>
<g id="a_node11"><a xlink:href="cJSON_8c.html#a3d742f5c68799bca291432a9cd72f8dd" target="_top" xlink:title=" ">
<polygon fill="white" stroke="black" points="281,-195.1 281,-214.1 355,-214.1 355,-195.1 281,-195.1"/>
<text text-anchor="middle" x="318" y="-202.1" font-family="Helvetica,sans-Serif" font-size="10.00">print_object</text>
</a>
</g>
</g>
<!-- Node2&#45;&gt;Node11 -->
<g id="edge13" class="edge">
<title>Node2&#45;&gt;Node11</title>
<path fill="none" stroke="midnightblue" d="M241.16,-172.21C258.19,-177.31 278.26,-184.44 293.48,-190.87"/>
<polygon fill="midnightblue" stroke="midnightblue" points="292.14,-194.11 302.7,-194.97 294.98,-187.71 292.14,-194.11"/>
</g>
<!-- Node13 -->
<g id="node13" class="node">
<title>Node13</title>
<g id="a_node13"><a xlink:href="cJSON_8c.html#ad087dd738e49b4258f0a3d378a121df6" target="_top" xlink:title=" ">
<polygon fill="white" stroke="black" points="282,-242.1 282,-261.1 354,-261.1 354,-242.1 282,-242.1"/>
<text text-anchor="middle" x="318" y="-249.1" font-family="Helvetica,sans-Serif" font-size="10.00">print_string</text>
</a>
</g>
</g>
<!-- Node2&#45;&gt;Node13 -->
<g id="edge19" class="edge">
<title>Node2&#45;&gt;Node13</title>
<path fill="none" stroke="midnightblue" d="M217.79,-176.13C231.55,-187.66 255.62,-207.51 277,-223.6 282.51,-227.75 288.56,-232.09 294.25,-236.08"/>
<polygon fill="midnightblue" stroke="midnightblue" points="292.55,-239.17 302.76,-241.99 296.54,-233.41 292.55,-239.17"/>
</g>
<!-- Node4 -->
<g id="node4" class="node">
<title>Node4</title>
<g id="a_node4"><a xlink:href="structinternal__hooks.html#a872a0c28217b451331d24b8e0484b293" target="_top" xlink:title=" ">
<polygon fill="white" stroke="black" points="628.5,-157.1 628.5,-176.1 762.5,-176.1 762.5,-157.1 628.5,-157.1"/>
<text text-anchor="middle" x="695.5" y="-164.1" font-family="Helvetica,sans-Serif" font-size="10.00">internal_hooks::allocate</text>
</a>
</g>
</g>
<!-- Node3&#45;&gt;Node4 -->
<g id="edge3" class="edge">
<title>Node3&#45;&gt;Node4</title>
<path fill="none" stroke="midnightblue" d="M588.24,-151.13C597.16,-152.43 607.79,-153.98 618.84,-155.59"/>
<polygon fill="midnightblue" stroke="midnightblue" points="618.65,-159.1 629.05,-157.08 619.66,-152.17 618.65,-159.1"/>
</g>
<!-- Node5 -->
<g id="node5" class="node">
<title>Node5</title>
<g id="a_node5"><a xlink:href="structinternal__hooks.html#a5dd48d5c2f2b1cf4f6eec5df6205e15c" target="_top" xlink:title=" ">
<polygon fill="white" stroke="black" points="624,-119.1 624,-138.1 767,-138.1 767,-119.1 624,-119.1"/>
<text text-anchor="middle" x="695.5" y="-126.1" font-family="Helvetica,sans-Serif" font-size="10.00">internal_hooks::reallocate</text>
</a>
</g>
</g>
<!-- Node3&#45;&gt;Node5 -->
<g id="edge4" class="edge">
<title>Node3&#45;&gt;Node5</title>
<path fill="none" stroke="midnightblue" d="M588.24,-144.07C597.16,-142.78 607.79,-141.23 618.84,-139.62"/>
<polygon fill="midnightblue" stroke="midnightblue" points="619.66,-143.04 629.05,-138.13 618.65,-136.11 619.66,-143.04"/>
</g>
<!-- Node6&#45;&gt;Node2 -->
<g id="edge7" class="edge">
<title>Node6&#45;&gt;Node2</title>
<path fill="none" stroke="midnightblue" d="M282.84,-172.9C272.91,-173.35 261.91,-173.47 251.42,-173.25"/>
<polygon fill="midnightblue" stroke="midnightblue" points="251.27,-169.74 241.16,-172.92 251.04,-176.74 251.27,-169.74"/>
</g>
<!-- Node6&#45;&gt;Node3 -->
<g id="edge6" class="edge">
<title>Node6&#45;&gt;Node3</title>
<path fill="none" stroke="midnightblue" d="M353.04,-163.94C399.21,-160.33 481.22,-153.92 527.59,-150.3"/>
<polygon fill="midnightblue" stroke="midnightblue" points="528.04,-153.77 537.74,-149.5 527.49,-146.79 528.04,-153.77"/>
</g>
<!-- Node7 -->
<g id="node7" class="node">
<title>Node7</title>
<g id="a_node7"><a xlink:href="cJSON_8c.html#af5fb173126786c1e3f90b6df6e2500c5" target="_top" xlink:title=" ">
<polygon fill="white" stroke="black" points="407,-176.1 407,-195.1 490,-195.1 490,-176.1 407,-176.1"/>
<text text-anchor="middle" x="448.5" y="-183.1" font-family="Helvetica,sans-Serif" font-size="10.00">update_offset</text>
</a>
</g>
</g>
<!-- Node6&#45;&gt;Node7 -->
<g id="edge8" class="edge">
<title>Node6&#45;&gt;Node7</title>
<path fill="none" stroke="midnightblue" d="M353.1,-171.65C366.51,-173.63 382.19,-175.95 396.87,-178.12"/>
<polygon fill="midnightblue" stroke="midnightblue" points="396.43,-181.59 406.84,-179.59 397.46,-174.67 396.43,-181.59"/>
</g>
<!-- Node8&#45;&gt;Node3 -->
<g id="edge11" class="edge">
<title>Node8&#45;&gt;Node3</title>
<path fill="none" stroke="midnightblue" d="M359.13,-100.02C406.18,-111.05 483.35,-129.16 527.72,-139.56"/>
<polygon fill="midnightblue" stroke="midnightblue" points="527.19,-143.03 537.72,-141.91 528.79,-136.22 527.19,-143.03"/>
</g>
<!-- Node9 -->
<g id="node9" class="node">
<title>Node9</title>
<g id="a_node9"><a xlink:href="cJSON_8c.html#aa7a85b63f1830e7e666e1f56872d5d3e" target="_top" xlink:title=" ">
<polygon fill="white" stroke="black" points="399.5,-62.1 399.5,-81.1 497.5,-81.1 497.5,-62.1 399.5,-62.1"/>
<text text-anchor="middle" x="448.5" y="-69.1" font-family="Helvetica,sans-Serif" font-size="10.00">compare_double</text>
</a>
</g>
</g>
<!-- Node8&#45;&gt;Node9 -->
<g id="edge10" class="edge">
<title>Node8&#45;&gt;Node9</title>
<path fill="none" stroke="midnightblue" d="M359.31,-84.64C368.8,-83.24 379.11,-81.72 389.22,-80.22"/>
<polygon fill="midnightblue" stroke="midnightblue" points="389.85,-83.67 399.23,-78.74 388.82,-76.74 389.85,-83.67"/>
</g>
<!-- Node10 -->
<g id="node10" class="node">
<title>Node10</title>
<g id="a_node10"><a xlink:href="cJSON_8c.html#ab25412ae56c8c594831918169bea100d" target="_top" xlink:title=" ">
<polygon fill="white" stroke="black" points="395,-24.1 395,-43.1 502,-43.1 502,-24.1 395,-24.1"/>
<text text-anchor="middle" x="448.5" y="-31.1" font-family="Helvetica,sans-Serif" font-size="10.00">get_decimal_point</text>
</a>
</g>
</g>
<!-- Node8&#45;&gt;Node10 -->
<g id="edge12" class="edge">
<title>Node8&#45;&gt;Node10</title>
<path fill="none" stroke="midnightblue" d="M336.84,-80.94C352.07,-72.88 374.67,-61.33 395,-52.6 399.72,-50.58 404.74,-48.58 409.73,-46.67"/>
<polygon fill="midnightblue" stroke="midnightblue" points="411.04,-49.92 419.2,-43.16 408.61,-43.36 411.04,-49.92"/>
</g>
<!-- Node11&#45;&gt;Node2 -->
<g id="edge17" class="edge">
<title>Node11&#45;&gt;Node2</title>
<path fill="none" stroke="midnightblue" d="M280.68,-198.5C264.13,-193.47 245,-186.65 230.32,-180.46"/>
<polygon fill="midnightblue" stroke="midnightblue" points="231.51,-177.16 220.95,-176.3 228.67,-183.56 231.51,-177.16"/>
</g>
<!-- Node11&#45;&gt;Node3 -->
<g id="edge14" class="edge">
<title>Node11&#45;&gt;Node3</title>
<path fill="none" stroke="midnightblue" d="M355.21,-212.27C393.24,-218.59 454.05,-223.75 502,-204.6 521.7,-196.74 538.64,-178.98 549.44,-165.36"/>
<polygon fill="midnightblue" stroke="midnightblue" points="552.4,-167.25 555.63,-157.16 546.81,-163.04 552.4,-167.25"/>
</g>
<!-- Node11&#45;&gt;Node7 -->
<g id="edge18" class="edge">
<title>Node11&#45;&gt;Node7</title>
<path fill="none" stroke="midnightblue" d="M355.14,-199.26C368.04,-197.35 382.83,-195.17 396.73,-193.11"/>
<polygon fill="midnightblue" stroke="midnightblue" points="397.28,-196.57 406.66,-191.64 396.26,-189.64 397.28,-196.57"/>
</g>
<!-- Node12 -->
<g id="node12" class="node">
<title>Node12</title>
<g id="a_node12"><a xlink:href="cJSON_8c.html#af5b4e769356f10d99a7f66697c42c1bb" target="_top" xlink:title=" ">
<polygon fill="white" stroke="black" points="403,-252.1 403,-271.1 494,-271.1 494,-252.1 403,-252.1"/>
<text text-anchor="middle" x="448.5" y="-259.1" font-family="Helvetica,sans-Serif" font-size="10.00">print_string_ptr</text>
</a>
</g>
</g>
<!-- Node11&#45;&gt;Node12 -->
<g id="edge15" class="edge">
<title>Node11&#45;&gt;Node12</title>
<path fill="none" stroke="midnightblue" d="M340.51,-214.14C361.36,-223.39 393.19,-237.51 416.72,-247.95"/>
<polygon fill="midnightblue" stroke="midnightblue" points="415.36,-251.18 425.92,-252.03 418.2,-244.78 415.36,-251.18"/>
</g>
<!-- Node12&#45;&gt;Node3 -->
<g id="edge16" class="edge">
<title>Node12&#45;&gt;Node3</title>
<path fill="none" stroke="midnightblue" d="M477.89,-252.04C486.23,-248.37 494.98,-243.58 502,-237.6 525.37,-217.69 543.36,-186.5 553.31,-166.56"/>
<polygon fill="midnightblue" stroke="midnightblue" points="556.6,-167.81 557.77,-157.28 550.29,-164.78 556.6,-167.81"/>
</g>
<!-- Node13&#45;&gt;Node12 -->
<g id="edge20" class="edge">
<title>Node13&#45;&gt;Node12</title>
<path fill="none" stroke="midnightblue" d="M354.11,-254.34C365.96,-255.26 379.48,-256.31 392.48,-257.32"/>
<polygon fill="midnightblue" stroke="midnightblue" points="392.52,-260.84 402.76,-258.12 393.06,-253.86 392.52,-260.84"/>
</g>
</g>
</svg>
        <g id="navigator" transform="translate(0 0)" fill="#404254">
                <rect fill="#f2f5e9" fill-opacity="0.5" stroke="#606060" stroke-width=".5" x="0" y="0" width="60" height="60"/>
                <use id="zoomplus" xlink:href="#zoomPlus" x="17" y="9" onmousedown="handleZoom(evt,'in')"/>
                <use id="zoomminus" xlink:href="#zoomMin" x="42" y="9" onmousedown="handleZoom(evt,'out')"/>
                <use id="reset" xlink:href="#resetDef" x="30" y="36" onmousedown="handleReset()"/>
                <g id="arrowUp" xlink:href="#dirArrow" transform="translate(30 24)" onmousedown="handlePan(0,-1)">
                  <use xlink:href="#rim" fill="#404040">
                        <set attributeName="fill" to="#808080" begin="arrowUp.mouseover" end="arrowUp.mouseout"/>
                  </use>
                  <path fill="none" stroke="white" stroke-width="1.5" d="M0,-3.0v7 M-2.5,-0.5L0,-3.0L2.5,-0.5"/>
                </g>
                <g id="arrowRight" xlink:href="#dirArrow" transform="rotate(90) translate(36 -43)" onmousedown="handlePan(1,0)">
                  <use xlink:href="#rim" fill="#404040">
                        <set attributeName="fill" to="#808080" begin="arrowRight.mouseover" end="arrowRight.mouseout"/>
                  </use>
                  <path fill="none" stroke="white" stroke-width="1.5" d="M0,-3.0v7 M-2.5,-0.5L0,-3.0L2.5,-0.5"/>
                </g>
                <g id="arrowDown" xlink:href="#dirArrow" transform="rotate(180) translate(-30 -48)" onmousedown="handlePan(0,1)">
                  <use xlink:href="#rim" fill="#404040">
                        <set attributeName="fill" to="#808080" begin="arrowDown.mouseover" end="arrowDown.mouseout"/>
                  </use>
                  <path fill="none" stroke="white" stroke-width="1.5" d="M0,-3.0v7 M-2.5,-0.5L0,-3.0L2.5,-0.5"/>
                </g>
                <g id="arrowLeft" xlink:href="#dirArrow" transform="rotate(270) translate(-36 17)" onmousedown="handlePan(-1,0)">
                  <use xlink:href="#rim" fill="#404040">
                        <set attributeName="fill" to="#808080" begin="arrowLeft.mouseover" end="arrowLeft.mouseout"/>
                  </use>
                  <path fill="none" stroke="white" stroke-width="1.5" d="M0,-3.0v7 M-2.5,-0.5L0,-3.0L2.5,-0.5"/>
                </g>
        </g>
        <svg viewBox="0 0 15 15" width="100%" height="30px" preserveAspectRatio="xMaxYMin meet">
         <g id="arrow_out" transform="scale(0.3 0.3)">
          <a xlink:href="cJSON_8h_a5ae150f0e5009534979d4532a411d077_cgraph_org.svg" target="_base">
           <rect id="button" ry="5" rx="5" y="6" x="6" height="38" width="38"
                fill="#f2f5e9" fill-opacity="0.5" stroke="#606060" stroke-width="1.0"/>
           <path id="arrow"
             d="M 11.500037,31.436501 C 11.940474,20.09759 22.043105,11.32322 32.158766,21.979434 L 37.068811,17.246167 C 37.068811,17.246167 37.088388,32 37.088388,32 L 22.160133,31.978069 C 22.160133,31.978069 26.997745,27.140456 26.997745,27.140456 C 18.528582,18.264221 13.291696,25.230495 11.500037,31.436501 z"
             style="fill:#404040;"/>
          </a>
         </g>
        </svg>
</svg>
