<?xml version="1.0" encoding="UTF-8" standalone="no"?>
<!DOCTYPE svg PUBLIC "-//W3C//DTD SVG 1.1//EN"
 "http://www.w3.org/Graphics/SVG/1.1/DTD/svg11.dtd">
<!-- Generated by graphviz version 2.43.0 (0)
 -->
<!-- Title: cJSON_ParseWithLengthOpts Pages: 1 -->
<!--zoomable 239 -->
<svg id="main" version="1.1" xmlns="http://www.w3.org/2000/svg" xmlns:xlink="http://www.w3.org/1999/xlink" xml:space="preserve" onload="init(evt)">
<style type="text/css"><![CDATA[
.edge:hover path { stroke: red; }
.edge:hover polygon { stroke: red; fill: red; }
]]></style>
<script type="text/javascript"><![CDATA[
var edges = document.getElementsByTagName('g');
if (edges && edges.length) {
  for (var i=0;i<edges.length;i++) {
    if (edges[i].id.substr(0,4)=='edge') {
      edges[i].setAttribute('class','edge');
    }
  }
}
]]></script>
        <defs>
                <circle id="rim" cx="0" cy="0" r="7"/>
                <circle id="rim2" cx="0" cy="0" r="3.5"/>
                <g id="zoomPlus">
                        <use xlink:href="#rim" fill="#404040">
                                <set attributeName="fill" to="#808080" begin="zoomplus.mouseover" end="zoomplus.mouseout"/>
                        </use>
                        <path d="M-4,0h8M0,-4v8" fill="none" stroke="white" stroke-width="1.5" pointer-events="none"/>
                </g>
                <g id="zoomMin">
                        <use xlink:href="#rim" fill="#404040">
                                <set attributeName="fill" to="#808080" begin="zoomminus.mouseover" end="zoomminus.mouseout"/>
                        </use>
                        <path d="M-4,0h8" fill="none" stroke="white" stroke-width="1.5" pointer-events="none"/>
                </g>
                <g id="dirArrow">
                        <path fill="none" stroke="white" stroke-width="1.5" d="M0,-3.0v7 M-2.5,-0.5L0,-3.0L2.5,-0.5"/>
                </g>
               <g id="resetDef">
                       <use xlink:href="#rim2" fill="#404040">
                               <set attributeName="fill" to="#808080" begin="reset.mouseover" end="reset.mouseout"/>
                       </use>
               </g>
        </defs>

<script type="text/javascript">
var viewWidth = 856;
var viewHeight = 239;
var sectionId = 'dynsection-18';
</script>
<script xlink:href="svgpan.js"/>
<svg id="graph" class="graph">
<g id="viewport">
<title>cJSON_ParseWithLengthOpts</title>
<polygon fill="white" stroke="transparent" points="-4,4 -4,-234.96 852,-234.96 852,4 -4,4"/>
<!-- Node1 -->
<g id="node1" class="node">
<title>Node1</title>
<g id="a_node1"><a xlink:title=" ">
<polygon fill="#bfbfbf" stroke="black" points="0,-76.5 0,-95.5 155,-95.5 155,-76.5 0,-76.5"/>
<text text-anchor="middle" x="77.5" y="-83.5" font-family="Helvetica,sans-Serif" font-size="10.00">cJSON_ParseWithLengthOpts</text>
</a>
</g>
</g>
<!-- Node2 -->
<g id="node2" class="node">
<title>Node2</title>
<g id="a_node2"><a xlink:href="cJSON_8c.html#a029a2c33fa2744a7cc5cf061f28d2cfc" target="_top" xlink:title=" ">
<polygon fill="white" stroke="black" points="438,-114.5 438,-133.5 569,-133.5 569,-114.5 438,-114.5"/>
<text text-anchor="middle" x="503.5" y="-121.5" font-family="Helvetica,sans-Serif" font-size="10.00">buffer_skip_whitespace</text>
</a>
</g>
</g>
<!-- Node1&#45;&gt;Node2 -->
<g id="edge1" class="edge">
<title>Node1&#45;&gt;Node2</title>
<path fill="none" stroke="midnightblue" d="M90.39,-95.66C123.55,-121.89 220.89,-194.18 316,-219 352.98,-228.65 369.7,-239.44 402,-219 433.58,-199.01 409.59,-167.29 438,-143 439.98,-141.31 442.1,-139.77 444.33,-138.36"/>
<polygon fill="midnightblue" stroke="midnightblue" points="446.15,-141.36 453.36,-133.59 442.89,-135.17 446.15,-141.36"/>
</g>
<!-- Node3 -->
<g id="node3" class="node">
<title>Node3</title>
<g id="a_node3"><a xlink:href="cJSON_8c.html#a8f447c625af025c35d0ec59032ad6473" target="_top" xlink:title=" ">
<polygon fill="white" stroke="black" points="453,-76.5 453,-95.5 554,-95.5 554,-76.5 453,-76.5"/>
<text text-anchor="middle" x="503.5" y="-83.5" font-family="Helvetica,sans-Serif" font-size="10.00">cJSON_New_Item</text>
</a>
</g>
</g>
<!-- Node1&#45;&gt;Node3 -->
<g id="edge2" class="edge">
<title>Node1&#45;&gt;Node3</title>
<path fill="none" stroke="midnightblue" d="M142.74,-76.48C208.09,-68.15 312.24,-58.59 402,-67 418.24,-68.52 435.77,-71.4 451.57,-74.46"/>
<polygon fill="midnightblue" stroke="midnightblue" points="451.18,-77.95 461.67,-76.49 452.56,-71.09 451.18,-77.95"/>
</g>
<!-- Node5 -->
<g id="node5" class="node">
<title>Node5</title>
<g id="a_node5"><a xlink:href="cJSON_8c.html#afd5c0b7089e4de2fc9b2af599d4b596f" target="_top" xlink:title=" ">
<polygon fill="white" stroke="black" points="197.5,-114.5 197.5,-133.5 273.5,-133.5 273.5,-114.5 197.5,-114.5"/>
<text text-anchor="middle" x="235.5" y="-121.5" font-family="Helvetica,sans-Serif" font-size="10.00">parse_value</text>
</a>
</g>
</g>
<!-- Node1&#45;&gt;Node5 -->
<g id="edge4" class="edge">
<title>Node1&#45;&gt;Node5</title>
<path fill="none" stroke="midnightblue" d="M117.87,-95.59C139,-100.74 165.2,-107.12 187.4,-112.53"/>
<polygon fill="midnightblue" stroke="midnightblue" points="186.75,-115.97 197.3,-114.94 188.41,-109.17 186.75,-115.97"/>
</g>
<!-- Node13 -->
<g id="node13" class="node">
<title>Node13</title>
<g id="a_node13"><a xlink:href="cJSON_8c.html#a13b2d9f17c3b80a8878405f2782cd916" target="_top" xlink:title=" ">
<polygon fill="white" stroke="black" points="191,-0.5 191,-19.5 280,-19.5 280,-0.5 191,-0.5"/>
<text text-anchor="middle" x="235.5" y="-7.5" font-family="Helvetica,sans-Serif" font-size="10.00">skip_utf8_bom</text>
</a>
</g>
</g>
<!-- Node1&#45;&gt;Node13 -->
<g id="edge20" class="edge">
<title>Node1&#45;&gt;Node13</title>
<path fill="none" stroke="midnightblue" d="M98.26,-76.37C125.45,-63.13 174.59,-39.19 205.83,-23.97"/>
<polygon fill="midnightblue" stroke="midnightblue" points="207.45,-27.07 214.9,-19.55 204.38,-20.78 207.45,-27.07"/>
</g>
<!-- Node4 -->
<g id="node4" class="node">
<title>Node4</title>
<g id="a_node4"><a xlink:href="structinternal__hooks.html#a872a0c28217b451331d24b8e0484b293" target="_top" xlink:title=" ">
<polygon fill="white" stroke="black" points="605,-95.5 605,-114.5 739,-114.5 739,-95.5 605,-95.5"/>
<text text-anchor="middle" x="672" y="-102.5" font-family="Helvetica,sans-Serif" font-size="10.00">internal_hooks::allocate</text>
</a>
</g>
</g>
<!-- Node3&#45;&gt;Node4 -->
<g id="edge3" class="edge">
<title>Node3&#45;&gt;Node4</title>
<path fill="none" stroke="midnightblue" d="M554,-91.65C566.81,-93.11 580.9,-94.72 594.72,-96.3"/>
<polygon fill="midnightblue" stroke="midnightblue" points="594.39,-99.78 604.73,-97.44 595.19,-92.83 594.39,-99.78"/>
</g>
<!-- Node6 -->
<g id="node6" class="node">
<title>Node6</title>
<g id="a_node6"><a xlink:href="cJSON_8c.html#a367cc7ac5a592211d9f18dc02dd23069" target="_top" xlink:title=" ">
<polygon fill="white" stroke="black" points="322,-76.5 322,-95.5 396,-95.5 396,-76.5 322,-76.5"/>
<text text-anchor="middle" x="359" y="-83.5" font-family="Helvetica,sans-Serif" font-size="10.00">parse_array</text>
</a>
</g>
</g>
<!-- Node5&#45;&gt;Node6 -->
<g id="edge5" class="edge">
<title>Node5&#45;&gt;Node6</title>
<path fill="none" stroke="midnightblue" d="M252.38,-114.3C267.54,-107.81 291.13,-99.82 312.16,-93.77"/>
<polygon fill="midnightblue" stroke="midnightblue" points="313.23,-97.11 321.92,-91.05 311.35,-90.36 313.23,-97.11"/>
</g>
<!-- Node7 -->
<g id="node7" class="node">
<title>Node7</title>
<g id="a_node7"><a xlink:href="cJSON_8c.html#a699e1cebda71c2846a9a10b29b4dc407" target="_top" xlink:title=" ">
<polygon fill="white" stroke="black" points="316,-190.5 316,-209.5 402,-209.5 402,-190.5 316,-190.5"/>
<text text-anchor="middle" x="359" y="-197.5" font-family="Helvetica,sans-Serif" font-size="10.00">parse_number</text>
</a>
</g>
</g>
<!-- Node5&#45;&gt;Node7 -->
<g id="edge9" class="edge">
<title>Node5&#45;&gt;Node7</title>
<path fill="none" stroke="midnightblue" d="M250.7,-133.66C266.47,-144.3 292.79,-161.8 316,-176 321.01,-179.07 326.43,-182.25 331.64,-185.26"/>
<polygon fill="midnightblue" stroke="midnightblue" points="330.28,-188.51 340.7,-190.42 333.74,-182.43 330.28,-188.51"/>
</g>
<!-- Node9 -->
<g id="node9" class="node">
<title>Node9</title>
<g id="a_node9"><a xlink:href="cJSON_8c.html#a1472ac5d1becd7d9a5e558b4c053b06a" target="_top" xlink:title=" ">
<polygon fill="white" stroke="black" points="319.5,-114.5 319.5,-133.5 398.5,-133.5 398.5,-114.5 319.5,-114.5"/>
<text text-anchor="middle" x="359" y="-121.5" font-family="Helvetica,sans-Serif" font-size="10.00">parse_object</text>
</a>
</g>
</g>
<!-- Node5&#45;&gt;Node9 -->
<g id="edge11" class="edge">
<title>Node5&#45;&gt;Node9</title>
<path fill="none" stroke="midnightblue" d="M273.61,-117.73C284.84,-117.25 297.34,-117.13 309.21,-117.37"/>
<polygon fill="midnightblue" stroke="midnightblue" points="309.33,-120.87 319.43,-117.67 309.54,-113.88 309.33,-120.87"/>
</g>
<!-- Node10 -->
<g id="node10" class="node">
<title>Node10</title>
<g id="a_node10"><a xlink:href="cJSON_8c.html#adf47b520af96d1bbefa2390016fbdb51" target="_top" xlink:title=" ">
<polygon fill="white" stroke="black" points="465,-152.5 465,-171.5 542,-171.5 542,-152.5 465,-152.5"/>
<text text-anchor="middle" x="503.5" y="-159.5" font-family="Helvetica,sans-Serif" font-size="10.00">parse_string</text>
</a>
</g>
</g>
<!-- Node5&#45;&gt;Node10 -->
<g id="edge19" class="edge">
<title>Node5&#45;&gt;Node10</title>
<path fill="none" stroke="midnightblue" d="M271.91,-133.53C285.6,-136.93 301.45,-140.53 316,-143 362.78,-150.94 416.77,-156 454.58,-158.88"/>
<polygon fill="midnightblue" stroke="midnightblue" points="454.56,-162.39 464.79,-159.64 455.08,-155.41 454.56,-162.39"/>
</g>
<!-- Node6&#45;&gt;Node2 -->
<g id="edge6" class="edge">
<title>Node6&#45;&gt;Node2</title>
<path fill="none" stroke="midnightblue" d="M395.96,-95.59C414.44,-100.52 437.16,-106.57 456.86,-111.83"/>
<polygon fill="midnightblue" stroke="midnightblue" points="455.99,-115.22 466.55,-114.41 457.79,-108.46 455.99,-115.22"/>
</g>
<!-- Node6&#45;&gt;Node3 -->
<g id="edge7" class="edge">
<title>Node6&#45;&gt;Node3</title>
<path fill="none" stroke="midnightblue" d="M396.33,-86C410.4,-86 426.88,-86 442.61,-86"/>
<polygon fill="midnightblue" stroke="midnightblue" points="442.8,-89.5 452.8,-86 442.8,-82.5 442.8,-89.5"/>
</g>
<!-- Node6&#45;&gt;Node5 -->
<g id="edge8" class="edge">
<title>Node6&#45;&gt;Node5</title>
<path fill="none" stroke="midnightblue" d="M342.32,-95.61C327.4,-102.02 304.2,-109.9 283.32,-115.95"/>
<polygon fill="midnightblue" stroke="midnightblue" points="282.3,-112.6 273.61,-118.67 284.19,-119.34 282.3,-112.6"/>
</g>
<!-- Node8 -->
<g id="node8" class="node">
<title>Node8</title>
<g id="a_node8"><a xlink:href="cJSON_8c.html#ab25412ae56c8c594831918169bea100d" target="_top" xlink:title=" ">
<polygon fill="white" stroke="black" points="450,-190.5 450,-209.5 557,-209.5 557,-190.5 450,-190.5"/>
<text text-anchor="middle" x="503.5" y="-197.5" font-family="Helvetica,sans-Serif" font-size="10.00">get_decimal_point</text>
</a>
</g>
</g>
<!-- Node7&#45;&gt;Node8 -->
<g id="edge10" class="edge">
<title>Node7&#45;&gt;Node8</title>
<path fill="none" stroke="midnightblue" d="M402.37,-200C414.15,-200 427.2,-200 439.88,-200"/>
<polygon fill="midnightblue" stroke="midnightblue" points="439.94,-203.5 449.94,-200 439.94,-196.5 439.94,-203.5"/>
</g>
<!-- Node9&#45;&gt;Node2 -->
<g id="edge12" class="edge">
<title>Node9&#45;&gt;Node2</title>
<path fill="none" stroke="midnightblue" d="M398.56,-124C407.65,-124 417.64,-124 427.73,-124"/>
<polygon fill="midnightblue" stroke="midnightblue" points="427.82,-127.5 437.82,-124 427.82,-120.5 427.82,-127.5"/>
</g>
<!-- Node9&#45;&gt;Node3 -->
<g id="edge13" class="edge">
<title>Node9&#45;&gt;Node3</title>
<path fill="none" stroke="midnightblue" d="M395.96,-114.41C414.44,-109.48 437.16,-103.43 456.86,-98.17"/>
<polygon fill="midnightblue" stroke="midnightblue" points="457.79,-101.54 466.55,-95.59 455.99,-94.78 457.79,-101.54"/>
</g>
<!-- Node9&#45;&gt;Node5 -->
<g id="edge18" class="edge">
<title>Node9&#45;&gt;Node5</title>
<path fill="none" stroke="midnightblue" d="M319.43,-130.33C308.1,-130.78 295.57,-130.87 283.76,-130.6"/>
<polygon fill="midnightblue" stroke="midnightblue" points="283.72,-127.1 273.61,-130.27 283.5,-134.09 283.72,-127.1"/>
</g>
<!-- Node9&#45;&gt;Node10 -->
<g id="edge14" class="edge">
<title>Node9&#45;&gt;Node10</title>
<path fill="none" stroke="midnightblue" d="M395.96,-133.59C414.44,-138.52 437.16,-144.57 456.86,-149.83"/>
<polygon fill="midnightblue" stroke="midnightblue" points="455.99,-153.22 466.55,-152.41 457.79,-146.46 455.99,-153.22"/>
</g>
<!-- Node10&#45;&gt;Node4 -->
<g id="edge15" class="edge">
<title>Node10&#45;&gt;Node4</title>
<path fill="none" stroke="midnightblue" d="M538.45,-152.48C548.34,-149.58 559.14,-146.28 569,-143 592.01,-135.34 617.58,-125.81 637.36,-118.21"/>
<polygon fill="midnightblue" stroke="midnightblue" points="638.79,-121.41 646.85,-114.54 636.26,-114.88 638.79,-121.41"/>
</g>
<!-- Node11 -->
<g id="node11" class="node">
<title>Node11</title>
<g id="a_node11"><a xlink:href="cJSON_8c.html#a0e2851b1b595b3b430fd186e7deaf987" target="_top" xlink:title=" ">
<polygon fill="white" stroke="black" points="614,-152.5 614,-171.5 730,-171.5 730,-152.5 614,-152.5"/>
<text text-anchor="middle" x="672" y="-159.5" font-family="Helvetica,sans-Serif" font-size="10.00">utf16_literal_to_utf8</text>
</a>
</g>
</g>
<!-- Node10&#45;&gt;Node11 -->
<g id="edge16" class="edge">
<title>Node10&#45;&gt;Node11</title>
<path fill="none" stroke="midnightblue" d="M542.28,-162C560.42,-162 582.72,-162 603.62,-162"/>
<polygon fill="midnightblue" stroke="midnightblue" points="603.75,-165.5 613.75,-162 603.75,-158.5 603.75,-165.5"/>
</g>
<!-- Node12 -->
<g id="node12" class="node">
<title>Node12</title>
<g id="a_node12"><a xlink:href="cJSON_8c.html#a1aa736fdc6ba20c7d46622d20766e916" target="_top" xlink:title=" ">
<polygon fill="white" stroke="black" points="775,-152.5 775,-171.5 848,-171.5 848,-152.5 775,-152.5"/>
<text text-anchor="middle" x="811.5" y="-159.5" font-family="Helvetica,sans-Serif" font-size="10.00">parse_hex4</text>
</a>
</g>
</g>
<!-- Node11&#45;&gt;Node12 -->
<g id="edge17" class="edge">
<title>Node11&#45;&gt;Node12</title>
<path fill="none" stroke="midnightblue" d="M730.12,-162C741.64,-162 753.6,-162 764.68,-162"/>
<polygon fill="midnightblue" stroke="midnightblue" points="764.97,-165.5 774.97,-162 764.97,-158.5 764.97,-165.5"/>
</g>
</g>
</svg>
        <g id="navigator" transform="translate(0 0)" fill="#404254">
                <rect fill="#f2f5e9" fill-opacity="0.5" stroke="#606060" stroke-width=".5" x="0" y="0" width="60" height="60"/>
                <use id="zoomplus" xlink:href="#zoomPlus" x="17" y="9" onmousedown="handleZoom(evt,'in')"/>
                <use id="zoomminus" xlink:href="#zoomMin" x="42" y="9" onmousedown="handleZoom(evt,'out')"/>
                <use id="reset" xlink:href="#resetDef" x="30" y="36" onmousedown="handleReset()"/>
                <g id="arrowUp" xlink:href="#dirArrow" transform="translate(30 24)" onmousedown="handlePan(0,-1)">
                  <use xlink:href="#rim" fill="#404040">
                        <set attributeName="fill" to="#808080" begin="arrowUp.mouseover" end="arrowUp.mouseout"/>
                  </use>
                  <path fill="none" stroke="white" stroke-width="1.5" d="M0,-3.0v7 M-2.5,-0.5L0,-3.0L2.5,-0.5"/>
                </g>
                <g id="arrowRight" xlink:href="#dirArrow" transform="rotate(90) translate(36 -43)" onmousedown="handlePan(1,0)">
                  <use xlink:href="#rim" fill="#404040">
                        <set attributeName="fill" to="#808080" begin="arrowRight.mouseover" end="arrowRight.mouseout"/>
                  </use>
                  <path fill="none" stroke="white" stroke-width="1.5" d="M0,-3.0v7 M-2.5,-0.5L0,-3.0L2.5,-0.5"/>
                </g>
                <g id="arrowDown" xlink:href="#dirArrow" transform="rotate(180) translate(-30 -48)" onmousedown="handlePan(0,1)">
                  <use xlink:href="#rim" fill="#404040">
                        <set attributeName="fill" to="#808080" begin="arrowDown.mouseover" end="arrowDown.mouseout"/>
                  </use>
                  <path fill="none" stroke="white" stroke-width="1.5" d="M0,-3.0v7 M-2.5,-0.5L0,-3.0L2.5,-0.5"/>
                </g>
                <g id="arrowLeft" xlink:href="#dirArrow" transform="rotate(270) translate(-36 17)" onmousedown="handlePan(-1,0)">
                  <use xlink:href="#rim" fill="#404040">
                        <set attributeName="fill" to="#808080" begin="arrowLeft.mouseover" end="arrowLeft.mouseout"/>
                  </use>
                  <path fill="none" stroke="white" stroke-width="1.5" d="M0,-3.0v7 M-2.5,-0.5L0,-3.0L2.5,-0.5"/>
                </g>
        </g>
        <svg viewBox="0 0 15 15" width="100%" height="30px" preserveAspectRatio="xMaxYMin meet">
         <g id="arrow_out" transform="scale(0.3 0.3)">
          <a xlink:href="cJSON_8c_a3a24e49a04490273160cdc1f30f10d22_cgraph_org.svg" target="_base">
           <rect id="button" ry="5" rx="5" y="6" x="6" height="38" width="38"
                fill="#f2f5e9" fill-opacity="0.5" stroke="#606060" stroke-width="1.0"/>
           <path id="arrow"
             d="M 11.500037,31.436501 C 11.940474,20.09759 22.043105,11.32322 32.158766,21.979434 L 37.068811,17.246167 C 37.068811,17.246167 37.088388,32 37.088388,32 L 22.160133,31.978069 C 22.160133,31.978069 26.997745,27.140456 26.997745,27.140456 C 18.528582,18.264221 13.291696,25.230495 11.500037,31.436501 z"
             style="fill:#404040;"/>
          </a>
         </g>
        </svg>
</svg>
