<?xml version="1.0" encoding="UTF-8" standalone="no"?>
<!DOCTYPE svg PUBLIC "-//W3C//DTD SVG 1.1//EN"
 "http://www.w3.org/Graphics/SVG/1.1/DTD/svg11.dtd">
<!-- Generated by graphviz version 2.43.0 (0)
 -->
<!-- Title: replace_item_in_object Pages: 1 -->
<svg width="510pt" height="101pt"
 viewBox="0.00 0.00 510.00 101.00" xmlns="http://www.w3.org/2000/svg" xmlns:xlink="http://www.w3.org/1999/xlink">
<g id="graph0" class="graph" transform="scale(1 1) rotate(0) translate(4 97)">
<title>replace_item_in_object</title>
<!-- Node1 -->
<g id="Node000001" class="node">
<title>Node1</title>
<g id="a_Node000001"><a xlink:title=" ">
<polygon fill="#999999" stroke="#666666" points="130,-56 0,-56 0,-37 130,-37 130,-56"/>
<text text-anchor="middle" x="65" y="-44" font-family="Helvetica,sans-Serif" font-size="10.00">replace_item_in_object</text>
</a>
</g>
</g>
<!-- Node2 -->
<g id="Node000002" class="node">
<title>Node2</title>
<g id="a_Node000002"><a xlink:href="cJSON_8c.html#aef23a5c2b35e0c54fef7b6de54918289" target="_top" xlink:title=" ">
<polygon fill="white" stroke="#666666" points="329,-93 166,-93 166,-74 329,-74 329,-93"/>
<text text-anchor="middle" x="247.5" y="-81" font-family="Helvetica,sans-Serif" font-size="10.00">cJSON_ReplaceItemViaPointer</text>
</a>
</g>
</g>
<!-- Node1&#45;&gt;Node2 -->
<g id="edge1_Node000001_Node000002" class="edge">
<title>Node1&#45;&gt;Node2</title>
<g id="a_edge1_Node000001_Node000002"><a xlink:title=" ">
<path fill="none" stroke="#63b8ff" d="M112.48,-56.03C136.08,-60.86 164.94,-66.78 189.82,-71.88"/>
<polygon fill="#63b8ff" stroke="#63b8ff" points="189.36,-75.36 199.86,-73.94 190.77,-68.5 189.36,-75.36"/>
</a>
</g>
</g>
<!-- Node3 -->
<g id="Node000003" class="node">
<title>Node3</title>
<g id="a_Node000003"><a xlink:href="cJSON_8c.html#a15067642a12599c13a0e6c0da9009be7" target="_top" xlink:title=" ">
<polygon fill="white" stroke="#666666" points="288.5,-56 206.5,-56 206.5,-37 288.5,-37 288.5,-56"/>
<text text-anchor="middle" x="247.5" y="-44" font-family="Helvetica,sans-Serif" font-size="10.00">cJSON_strdup</text>
</a>
</g>
</g>
<!-- Node1&#45;&gt;Node3 -->
<g id="edge2_Node000001_Node000003" class="edge">
<title>Node1&#45;&gt;Node3</title>
<g id="a_edge2_Node000001_Node000003"><a xlink:title=" ">
<path fill="none" stroke="#63b8ff" d="M130.15,-46.5C151.9,-46.5 175.88,-46.5 196.38,-46.5"/>
<polygon fill="#63b8ff" stroke="#63b8ff" points="196.45,-50 206.45,-46.5 196.45,-43 196.45,-50"/>
</a>
</g>
</g>
<!-- Node5 -->
<g id="Node000005" class="node">
<title>Node5</title>
<g id="a_Node000005"><a xlink:href="cJSON_8c.html#aa2509ddde1c1a0be7417e4f40520338f" target="_top" xlink:title=" ">
<polygon fill="white" stroke="#666666" points="295,-19 200,-19 200,0 295,0 295,-19"/>
<text text-anchor="middle" x="247.5" y="-7" font-family="Helvetica,sans-Serif" font-size="10.00">get_object_item</text>
</a>
</g>
</g>
<!-- Node1&#45;&gt;Node5 -->
<g id="edge4_Node000001_Node000005" class="edge">
<title>Node1&#45;&gt;Node5</title>
<g id="a_edge4_Node000001_Node000005"><a xlink:title=" ">
<path fill="none" stroke="#63b8ff" d="M112.48,-36.97C136.08,-32.14 164.94,-26.22 189.82,-21.12"/>
<polygon fill="#63b8ff" stroke="#63b8ff" points="190.77,-24.5 199.86,-19.06 189.36,-17.64 190.77,-24.5"/>
</a>
</g>
</g>
<!-- Node4 -->
<g id="Node000004" class="node">
<title>Node4</title>
<g id="a_Node000004"><a xlink:href="structinternal__hooks.html#a8b8f7ff45faa5da18dd3ccd2a2c8e416" target="_top" xlink:title=" ">
<polygon fill="white" stroke="#666666" points="500.5,-56 366.5,-56 366.5,-37 500.5,-37 500.5,-56"/>
<text text-anchor="middle" x="433.5" y="-44" font-family="Helvetica,sans-Serif" font-size="10.00">internal_hooks::allocate</text>
</a>
</g>
</g>
<!-- Node3&#45;&gt;Node4 -->
<g id="edge3_Node000003_Node000004" class="edge">
<title>Node3&#45;&gt;Node4</title>
<g id="a_edge3_Node000003_Node000004"><a xlink:title=" ">
<path fill="none" stroke="#63b8ff" d="M288.88,-46.5C308.6,-46.5 333,-46.5 356.06,-46.5"/>
<polygon fill="#63b8ff" stroke="#63b8ff" points="356.18,-50 366.18,-46.5 356.18,-43 356.18,-50"/>
</a>
</g>
</g>
<!-- Node6 -->
<g id="Node000006" class="node">
<title>Node6</title>
<g id="a_Node000006"><a xlink:href="cJSON_8c.html#a9b295e9edc859c11ad8c1e3d2cef0467" target="_top" xlink:title=" ">
<polygon fill="white" stroke="#666666" points="502,-19 365,-19 365,0 502,0 502,-19"/>
<text text-anchor="middle" x="433.5" y="-7" font-family="Helvetica,sans-Serif" font-size="10.00">case_insensitive_strcmp</text>
</a>
</g>
</g>
<!-- Node5&#45;&gt;Node6 -->
<g id="edge5_Node000005_Node000006" class="edge">
<title>Node5&#45;&gt;Node6</title>
<g id="a_edge5_Node000005_Node000006"><a xlink:title=" ">
<path fill="none" stroke="#63b8ff" d="M295.41,-9.5C313.44,-9.5 334.55,-9.5 354.72,-9.5"/>
<polygon fill="#63b8ff" stroke="#63b8ff" points="354.84,-13 364.84,-9.5 354.84,-6 354.84,-13"/>
</a>
</g>
</g>
</g>
</svg>
