<?xml version="1.0" encoding="UTF-8" standalone="no"?>
<!DOCTYPE svg PUBLIC "-//W3C//DTD SVG 1.1//EN"
 "http://www.w3.org/Graphics/SVG/1.1/DTD/svg11.dtd">
<!-- Generated by graphviz version 2.43.0 (0)
 -->
<!-- Title: replace_item_in_object Pages: 1 -->
<svg width="327pt" height="76pt"
 viewBox="0.00 0.00 327.00 75.50" xmlns="http://www.w3.org/2000/svg" xmlns:xlink="http://www.w3.org/1999/xlink">
<g id="graph0" class="graph" transform="scale(1 1) rotate(0) translate(4 71.5)">
<title>replace_item_in_object</title>
<!-- Node1 -->
<g id="Node000001" class="node">
<title>Node1</title>
<g id="a_Node000001"><a xlink:title=" ">
<polygon fill="#999999" stroke="#666666" points="319,-45.5 189,-45.5 189,-26.5 319,-26.5 319,-45.5"/>
<text text-anchor="middle" x="254" y="-33.5" font-family="Helvetica,sans-Serif" font-size="10.00">replace_item_in_object</text>
</a>
</g>
</g>
<!-- Node2 -->
<g id="Node000002" class="node">
<title>Node2</title>
<g id="a_Node000002"><a xlink:href="cJSON_8c.html#ae8335f21a2f78d63c854c002f09f96dc" target="_top" xlink:title=" ">
<polygon fill="white" stroke="#666666" points="153,-67.5 0,-67.5 0,-48.5 153,-48.5 153,-67.5"/>
<text text-anchor="middle" x="76.5" y="-55.5" font-family="Helvetica,sans-Serif" font-size="10.00">cJSON_ReplaceItemInObject</text>
</a>
</g>
</g>
<!-- Node1&#45;&gt;Node2 -->
<g id="edge1_Node000001_Node000002" class="edge">
<title>Node1&#45;&gt;Node2</title>
<g id="a_edge1_Node000001_Node000002"><a xlink:title=" ">
<path fill="none" stroke="#63b8ff" d="M178.51,-45.34C170.12,-46.39 161.56,-47.46 153.15,-48.52"/>
<polygon fill="#63b8ff" stroke="#63b8ff" points="179.16,-48.78 188.65,-44.07 178.29,-41.84 179.16,-48.78"/>
</a>
</g>
</g>
<!-- Node3 -->
<g id="Node000003" class="node">
<title>Node3</title>
<g id="a_Node000003"><a xlink:href="cJSON_8c.html#acbcada89e12f21f1d0f2e296d93130dc" target="_top" xlink:title=" ">
<polygon fill="white" stroke="#666666" points="153,-30 0,-30 0,0 153,0 153,-30"/>
<text text-anchor="start" x="8" y="-18" font-family="Helvetica,sans-Serif" font-size="10.00">cJSON_ReplaceItemInObject</text>
<text text-anchor="middle" x="76.5" y="-7" font-family="Helvetica,sans-Serif" font-size="10.00">CaseSensitive</text>
</a>
</g>
</g>
<!-- Node1&#45;&gt;Node3 -->
<g id="edge2_Node000001_Node000003" class="edge">
<title>Node1&#45;&gt;Node3</title>
<g id="a_edge2_Node000001_Node000003"><a xlink:title=" ">
<path fill="none" stroke="#63b8ff" d="M178.51,-27.09C170.12,-26.08 161.56,-25.06 153.15,-24.05"/>
<polygon fill="#63b8ff" stroke="#63b8ff" points="178.3,-30.59 188.65,-28.3 179.13,-23.64 178.3,-30.59"/>
</a>
</g>
</g>
</g>
</svg>
