<?xml version="1.0" encoding="UTF-8" standalone="no"?>
<!DOCTYPE svg PUBLIC "-//W3C//DTD SVG 1.1//EN"
 "http://www.w3.org/Graphics/SVG/1.1/DTD/svg11.dtd">
<!-- Generated by graphviz version 2.43.0 (0)
 -->
<!-- Title: parse_array Pages: 1 -->
<svg width="762pt" height="158pt"
 viewBox="0.00 0.00 762.00 158.00" xmlns="http://www.w3.org/2000/svg" xmlns:xlink="http://www.w3.org/1999/xlink">
<g id="graph0" class="graph" transform="scale(1 1) rotate(0) translate(4 154)">
<title>parse_array</title>
<!-- Node1 -->
<g id="Node000001" class="node">
<title>Node1</title>
<g id="a_Node000001"><a xlink:title=" ">
<polygon fill="#999999" stroke="#666666" points="74,-112 0,-112 0,-93 74,-93 74,-112"/>
<text text-anchor="middle" x="37" y="-100" font-family="Helvetica,sans-Serif" font-size="10.00">parse_array</text>
</a>
</g>
</g>
<!-- Node2 -->
<g id="Node000002" class="node">
<title>Node2</title>
<g id="a_Node000002"><a xlink:href="cJSON_8c.html#a0a9c3a7f6f01d4a8d9c552fa82274b4b" target="_top" xlink:title=" ">
<polygon fill="white" stroke="#666666" points="475,-150 344,-150 344,-131 475,-131 475,-150"/>
<text text-anchor="middle" x="409.5" y="-138" font-family="Helvetica,sans-Serif" font-size="10.00">buffer_skip_whitespace</text>
</a>
</g>
</g>
<!-- Node1&#45;&gt;Node2 -->
<g id="edge1_Node000001_Node000002" class="edge">
<title>Node1&#45;&gt;Node2</title>
<g id="a_edge1_Node000001_Node000002"><a xlink:title=" ">
<path fill="none" stroke="#63b8ff" d="M71.55,-112.02C83.61,-115.27 97.36,-118.77 110,-121.5 159.35,-132.17 171.69,-136.26 222,-140.5 258.55,-143.58 299.27,-143.93 333.32,-143.37"/>
<polygon fill="#63b8ff" stroke="#63b8ff" points="333.72,-146.86 343.65,-143.17 333.59,-139.86 333.72,-146.86"/>
</a>
</g>
</g>
<!-- Node3 -->
<g id="Node000003" class="node">
<title>Node3</title>
<g id="a_Node000003"><a xlink:href="cJSON_8c.html#aa05c1f56de8779ae1584c525cc81aeb5" target="_top" xlink:title=" ">
<polygon fill="white" stroke="#666666" points="460,-19 359,-19 359,0 460,0 460,-19"/>
<text text-anchor="middle" x="409.5" y="-7" font-family="Helvetica,sans-Serif" font-size="10.00">cJSON_New_Item</text>
</a>
</g>
</g>
<!-- Node1&#45;&gt;Node3 -->
<g id="edge2_Node000001_Node000003" class="edge">
<title>Node1&#45;&gt;Node3</title>
<g id="a_edge2_Node000001_Node000003"><a xlink:title=" ">
<path fill="none" stroke="#63b8ff" d="M55.92,-92.95C88.14,-76.28 158.4,-42.15 222,-26.5 263.55,-16.27 311.68,-12.07 348.64,-10.4"/>
<polygon fill="#63b8ff" stroke="#63b8ff" points="348.9,-13.89 358.75,-9.99 348.62,-6.9 348.9,-13.89"/>
</a>
</g>
</g>
<!-- Node5 -->
<g id="Node000005" class="node">
<title>Node5</title>
<g id="a_Node000005"><a xlink:href="cJSON_8c.html#afd5c0b7089e4de2fc9b2af599d4b596f" target="_top" xlink:title=" ">
<polygon fill="white" stroke="#666666" points="186,-112 110,-112 110,-93 186,-93 186,-112"/>
<text text-anchor="middle" x="148" y="-100" font-family="Helvetica,sans-Serif" font-size="10.00">parse_value</text>
</a>
</g>
</g>
<!-- Node1&#45;&gt;Node5 -->
<g id="edge4_Node000001_Node000005" class="edge">
<title>Node1&#45;&gt;Node5</title>
<g id="a_edge4_Node000001_Node000005"><a xlink:title=" ">
<path fill="none" stroke="#63b8ff" d="M74.3,-96.1C82.4,-95.78 91.1,-95.68 99.58,-95.8"/>
<polygon fill="#63b8ff" stroke="#63b8ff" points="99.66,-99.3 109.75,-96.06 99.84,-92.31 99.66,-99.3"/>
</a>
</g>
</g>
<!-- Node4 -->
<g id="Node000004" class="node">
<title>Node4</title>
<g id="a_Node000004"><a xlink:href="structinternal__hooks.html#a8b8f7ff45faa5da18dd3ccd2a2c8e416" target="_top" xlink:title=" ">
<polygon fill="white" stroke="#666666" points="645,-38 511,-38 511,-19 645,-19 645,-38"/>
<text text-anchor="middle" x="578" y="-26" font-family="Helvetica,sans-Serif" font-size="10.00">internal_hooks::allocate</text>
</a>
</g>
</g>
<!-- Node3&#45;&gt;Node4 -->
<g id="edge3_Node000003_Node000004" class="edge">
<title>Node3&#45;&gt;Node4</title>
<g id="a_edge3_Node000003_Node000004"><a xlink:title=" ">
<path fill="none" stroke="#63b8ff" d="M460,-15.15C472.81,-16.61 486.9,-18.22 500.72,-19.8"/>
<polygon fill="#63b8ff" stroke="#63b8ff" points="500.39,-23.28 510.73,-20.94 501.19,-16.33 500.39,-23.28"/>
</a>
</g>
</g>
<!-- Node5&#45;&gt;Node1 -->
<g id="edge5_Node000005_Node000001" class="edge">
<title>Node5&#45;&gt;Node1</title>
<g id="a_edge5_Node000005_Node000001"><a xlink:title=" ">
<path fill="none" stroke="#63b8ff" d="M109.75,-108.94C101.6,-109.24 92.88,-109.32 84.42,-109.18"/>
<polygon fill="#63b8ff" stroke="#63b8ff" points="84.39,-105.68 74.3,-108.9 84.19,-112.68 84.39,-105.68"/>
</a>
</g>
</g>
<!-- Node6 -->
<g id="Node000006" class="node">
<title>Node6</title>
<g id="a_Node000006"><a xlink:href="cJSON_8c.html#a699e1cebda71c2846a9a10b29b4dc407" target="_top" xlink:title=" ">
<polygon fill="white" stroke="#666666" points="308,-55 222,-55 222,-36 308,-36 308,-55"/>
<text text-anchor="middle" x="265" y="-43" font-family="Helvetica,sans-Serif" font-size="10.00">parse_number</text>
</a>
</g>
</g>
<!-- Node5&#45;&gt;Node6 -->
<g id="edge6_Node000005_Node000006" class="edge">
<title>Node5&#45;&gt;Node6</title>
<g id="a_edge6_Node000005_Node000006"><a xlink:title=" ">
<path fill="none" stroke="#63b8ff" d="M168.25,-92.96C186.66,-83.84 214.64,-69.97 235.61,-59.57"/>
<polygon fill="#63b8ff" stroke="#63b8ff" points="237.28,-62.65 244.69,-55.07 234.17,-56.38 237.28,-62.65"/>
</a>
</g>
</g>
<!-- Node8 -->
<g id="Node000008" class="node">
<title>Node8</title>
<g id="a_Node000008"><a xlink:href="cJSON_8c.html#a1472ac5d1becd7d9a5e558b4c053b06a" target="_top" xlink:title=" ">
<polygon fill="white" stroke="#666666" points="304.5,-131 225.5,-131 225.5,-112 304.5,-112 304.5,-131"/>
<text text-anchor="middle" x="265" y="-119" font-family="Helvetica,sans-Serif" font-size="10.00">parse_object</text>
</a>
</g>
</g>
<!-- Node5&#45;&gt;Node8 -->
<g id="edge8_Node000005_Node000008" class="edge">
<title>Node5&#45;&gt;Node8</title>
<g id="a_edge8_Node000005_Node000008"><a xlink:title=" ">
<path fill="none" stroke="#63b8ff" d="M186.02,-102.26C200.15,-104.03 216.17,-106.72 230,-109.66"/>
<polygon fill="#63b8ff" stroke="#63b8ff" points="229.56,-113.15 240.09,-111.95 231.11,-106.32 229.56,-113.15"/>
</a>
</g>
</g>
<!-- Node9 -->
<g id="Node000009" class="node">
<title>Node9</title>
<g id="a_Node000009"><a xlink:href="cJSON_8c.html#adf47b520af96d1bbefa2390016fbdb51" target="_top" xlink:title=" ">
<polygon fill="white" stroke="#666666" points="448,-93 371,-93 371,-74 448,-74 448,-93"/>
<text text-anchor="middle" x="409.5" y="-81" font-family="Helvetica,sans-Serif" font-size="10.00">parse_string</text>
</a>
</g>
</g>
<!-- Node5&#45;&gt;Node9 -->
<g id="edge16_Node000005_Node000009" class="edge">
<title>Node5&#45;&gt;Node9</title>
<g id="a_edge16_Node000005_Node000009"><a xlink:title=" ">
<path fill="none" stroke="#63b8ff" d="M186.18,-99.78C232.2,-96.41 310.64,-90.67 360.98,-86.98"/>
<polygon fill="#63b8ff" stroke="#63b8ff" points="361.25,-90.47 370.97,-86.25 360.74,-83.49 361.25,-90.47"/>
</a>
</g>
</g>
<!-- Node7 -->
<g id="Node000007" class="node">
<title>Node7</title>
<g id="a_Node000007"><a xlink:href="cJSON_8c.html#ab25412ae56c8c594831918169bea100d" target="_top" xlink:title=" ">
<polygon fill="white" stroke="#666666" points="463,-56 356,-56 356,-37 463,-37 463,-56"/>
<text text-anchor="middle" x="409.5" y="-44" font-family="Helvetica,sans-Serif" font-size="10.00">get_decimal_point</text>
</a>
</g>
</g>
<!-- Node6&#45;&gt;Node7 -->
<g id="edge7_Node000006_Node000007" class="edge">
<title>Node6&#45;&gt;Node7</title>
<g id="a_edge7_Node000006_Node000007"><a xlink:title=" ">
<path fill="none" stroke="#63b8ff" d="M308.37,-45.8C320.15,-45.88 333.2,-45.97 345.88,-46.06"/>
<polygon fill="#63b8ff" stroke="#63b8ff" points="345.92,-49.56 355.94,-46.13 345.96,-42.56 345.92,-49.56"/>
</a>
</g>
</g>
<!-- Node8&#45;&gt;Node2 -->
<g id="edge9_Node000008_Node000002" class="edge">
<title>Node8&#45;&gt;Node2</title>
<g id="a_edge9_Node000008_Node000002"><a xlink:title=" ">
<path fill="none" stroke="#63b8ff" d="M304.56,-126.64C313.65,-127.85 323.64,-129.19 333.73,-130.53"/>
<polygon fill="#63b8ff" stroke="#63b8ff" points="333.44,-134.02 343.82,-131.88 334.37,-127.08 333.44,-134.02"/>
</a>
</g>
</g>
<!-- Node8&#45;&gt;Node3 -->
<g id="edge10_Node000008_Node000003" class="edge">
<title>Node8&#45;&gt;Node3</title>
<g id="a_edge10_Node000008_Node000003"><a xlink:title=" ">
<path fill="none" stroke="#63b8ff" d="M272.78,-111.95C288.23,-90.43 326.12,-39.09 344,-27.5 346.47,-25.9 349.08,-24.44 351.78,-23.11"/>
<polygon fill="#63b8ff" stroke="#63b8ff" points="353.42,-26.21 361.24,-19.06 350.67,-19.78 353.42,-26.21"/>
</a>
</g>
</g>
<!-- Node8&#45;&gt;Node5 -->
<g id="edge15_Node000008_Node000005" class="edge">
<title>Node8&#45;&gt;Node5</title>
<g id="a_edge15_Node000008_Node000005"><a xlink:title=" ">
<path fill="none" stroke="#63b8ff" d="M225.26,-121.52C211.42,-119.74 195.95,-117.11 182.58,-114.25"/>
<polygon fill="#63b8ff" stroke="#63b8ff" points="183.36,-110.84 172.83,-112.03 181.8,-117.66 183.36,-110.84"/>
</a>
</g>
</g>
<!-- Node8&#45;&gt;Node9 -->
<g id="edge11_Node000008_Node000009" class="edge">
<title>Node8&#45;&gt;Node9</title>
<g id="a_edge11_Node000008_Node000009"><a xlink:title=" ">
<path fill="none" stroke="#63b8ff" d="M301.96,-111.91C320.44,-106.98 343.16,-100.93 362.86,-95.67"/>
<polygon fill="#63b8ff" stroke="#63b8ff" points="363.79,-99.04 372.55,-93.09 361.99,-92.28 363.79,-99.04"/>
</a>
</g>
</g>
<!-- Node9&#45;&gt;Node4 -->
<g id="edge12_Node000009_Node000004" class="edge">
<title>Node9&#45;&gt;Node4</title>
<g id="a_edge12_Node000009_Node000004"><a xlink:title=" ">
<path fill="none" stroke="#63b8ff" d="M446.47,-73.98C455.8,-71.37 465.81,-68.44 475,-65.5 497.71,-58.22 522.91,-49.09 542.58,-41.72"/>
<polygon fill="#63b8ff" stroke="#63b8ff" points="543.91,-44.96 552.03,-38.16 541.44,-38.41 543.91,-44.96"/>
</a>
</g>
</g>
<!-- Node10 -->
<g id="Node000010" class="node">
<title>Node10</title>
<g id="a_Node000010"><a xlink:href="cJSON_8c.html#a0e2851b1b595b3b430fd186e7deaf987" target="_top" xlink:title=" ">
<polygon fill="white" stroke="#666666" points="636,-93 520,-93 520,-74 636,-74 636,-93"/>
<text text-anchor="middle" x="578" y="-81" font-family="Helvetica,sans-Serif" font-size="10.00">utf16_literal_to_utf8</text>
</a>
</g>
</g>
<!-- Node9&#45;&gt;Node10 -->
<g id="edge13_Node000009_Node000010" class="edge">
<title>Node9&#45;&gt;Node10</title>
<g id="a_edge13_Node000009_Node000010"><a xlink:title=" ">
<path fill="none" stroke="#63b8ff" d="M448.28,-83.5C466.42,-83.5 488.72,-83.5 509.62,-83.5"/>
<polygon fill="#63b8ff" stroke="#63b8ff" points="509.75,-87 519.75,-83.5 509.75,-80 509.75,-87"/>
</a>
</g>
</g>
<!-- Node11 -->
<g id="Node000011" class="node">
<title>Node11</title>
<g id="a_Node000011"><a xlink:href="cJSON_8c.html#a1aa736fdc6ba20c7d46622d20766e916" target="_top" xlink:title=" ">
<polygon fill="white" stroke="#666666" points="754,-93 681,-93 681,-74 754,-74 754,-93"/>
<text text-anchor="middle" x="717.5" y="-81" font-family="Helvetica,sans-Serif" font-size="10.00">parse_hex4</text>
</a>
</g>
</g>
<!-- Node10&#45;&gt;Node11 -->
<g id="edge14_Node000010_Node000011" class="edge">
<title>Node10&#45;&gt;Node11</title>
<g id="a_edge14_Node000010_Node000011"><a xlink:title=" ">
<path fill="none" stroke="#63b8ff" d="M636.12,-83.5C647.64,-83.5 659.6,-83.5 670.68,-83.5"/>
<polygon fill="#63b8ff" stroke="#63b8ff" points="670.97,-87 680.97,-83.5 670.97,-80 670.97,-87"/>
</a>
</g>
</g>
</g>
</svg>
