<?xml version="1.0" encoding="UTF-8" standalone="no"?>
<!DOCTYPE svg PUBLIC "-//W3C//DTD SVG 1.1//EN"
 "http://www.w3.org/Graphics/SVG/1.1/DTD/svg11.dtd">
<!-- Generated by graphviz version 2.43.0 (0)
 -->
<!-- Title: cJSON_ParseWithOpts Pages: 1 -->
<svg width="1014pt" height="237pt"
 viewBox="0.00 0.00 1014.00 237.46" xmlns="http://www.w3.org/2000/svg" xmlns:xlink="http://www.w3.org/1999/xlink">
<g id="graph0" class="graph" transform="scale(1 1) rotate(0) translate(4 233.46)">
<title>cJSON_ParseWithOpts</title>
<!-- Node1 -->
<g id="Node000001" class="node">
<title>Node1</title>
<g id="a_Node000001"><a xlink:title=" ">
<polygon fill="#999999" stroke="#666666" points="122,-94 0,-94 0,-75 122,-75 122,-94"/>
<text text-anchor="middle" x="61" y="-82" font-family="Helvetica,sans-Serif" font-size="10.00">cJSON_ParseWithOpts</text>
</a>
</g>
</g>
<!-- Node2 -->
<g id="Node000002" class="node">
<title>Node2</title>
<g id="a_Node000002"><a xlink:href="cJSON_8c.html#a3a24e49a04490273160cdc1f30f10d22" target="_top" xlink:title=" ">
<polygon fill="white" stroke="#666666" points="313,-94 158,-94 158,-75 313,-75 313,-94"/>
<text text-anchor="middle" x="235.5" y="-82" font-family="Helvetica,sans-Serif" font-size="10.00">cJSON_ParseWithLengthOpts</text>
</a>
</g>
</g>
<!-- Node1&#45;&gt;Node2 -->
<g id="edge1_Node000001_Node000002" class="edge">
<title>Node1&#45;&gt;Node2</title>
<g id="a_edge1_Node000001_Node000002"><a xlink:title=" ">
<path fill="none" stroke="#63b8ff" d="M122.33,-84.5C130.57,-84.5 139.16,-84.5 147.75,-84.5"/>
<polygon fill="#63b8ff" stroke="#63b8ff" points="147.83,-88 157.83,-84.5 147.83,-81 147.83,-88"/>
</a>
</g>
</g>
<!-- Node3 -->
<g id="Node000003" class="node">
<title>Node3</title>
<g id="a_Node000003"><a xlink:href="cJSON_8c.html#a0a9c3a7f6f01d4a8d9c552fa82274b4b" target="_top" xlink:title=" ">
<polygon fill="white" stroke="#666666" points="727,-132 596,-132 596,-113 727,-113 727,-132"/>
<text text-anchor="middle" x="661.5" y="-120" font-family="Helvetica,sans-Serif" font-size="10.00">buffer_skip_whitespace</text>
</a>
</g>
</g>
<!-- Node2&#45;&gt;Node3 -->
<g id="edge2_Node000002_Node000003" class="edge">
<title>Node2&#45;&gt;Node3</title>
<g id="a_edge2_Node000002_Node000003"><a xlink:title=" ">
<path fill="none" stroke="#63b8ff" d="M248.39,-94.16C281.55,-120.39 378.89,-192.68 474,-217.5 510.98,-227.15 527.7,-237.94 560,-217.5 591.58,-197.51 567.59,-165.79 596,-141.5 597.98,-139.81 600.1,-138.27 602.33,-136.86"/>
<polygon fill="#63b8ff" stroke="#63b8ff" points="604.15,-139.86 611.36,-132.09 600.89,-133.67 604.15,-139.86"/>
</a>
</g>
</g>
<!-- Node4 -->
<g id="Node000004" class="node">
<title>Node4</title>
<g id="a_Node000004"><a xlink:href="cJSON_8c.html#aa05c1f56de8779ae1584c525cc81aeb5" target="_top" xlink:title=" ">
<polygon fill="white" stroke="#666666" points="712,-95 611,-95 611,-76 712,-76 712,-95"/>
<text text-anchor="middle" x="661.5" y="-83" font-family="Helvetica,sans-Serif" font-size="10.00">cJSON_New_Item</text>
</a>
</g>
</g>
<!-- Node2&#45;&gt;Node4 -->
<g id="edge3_Node000002_Node000004" class="edge">
<title>Node2&#45;&gt;Node4</title>
<g id="a_edge3_Node000002_Node000004"><a xlink:title=" ">
<path fill="none" stroke="#63b8ff" d="M303.21,-75C368.7,-67.04 471.37,-58.2 560,-66.5 576.24,-68.02 593.77,-70.9 609.57,-73.96"/>
<polygon fill="#63b8ff" stroke="#63b8ff" points="609.18,-77.45 619.67,-75.99 610.56,-70.59 609.18,-77.45"/>
</a>
</g>
</g>
<!-- Node6 -->
<g id="Node000006" class="node">
<title>Node6</title>
<g id="a_Node000006"><a xlink:href="cJSON_8c.html#afd5c0b7089e4de2fc9b2af599d4b596f" target="_top" xlink:title=" ">
<polygon fill="white" stroke="#666666" points="431.5,-132 355.5,-132 355.5,-113 431.5,-113 431.5,-132"/>
<text text-anchor="middle" x="393.5" y="-120" font-family="Helvetica,sans-Serif" font-size="10.00">parse_value</text>
</a>
</g>
</g>
<!-- Node2&#45;&gt;Node6 -->
<g id="edge5_Node000002_Node000006" class="edge">
<title>Node2&#45;&gt;Node6</title>
<g id="a_edge5_Node000002_Node000006"><a xlink:title=" ">
<path fill="none" stroke="#63b8ff" d="M275.87,-94.09C297,-99.24 323.2,-105.62 345.4,-111.03"/>
<polygon fill="#63b8ff" stroke="#63b8ff" points="344.75,-114.47 355.3,-113.44 346.41,-107.67 344.75,-114.47"/>
</a>
</g>
</g>
<!-- Node14 -->
<g id="Node000014" class="node">
<title>Node14</title>
<g id="a_Node000014"><a xlink:href="cJSON_8c.html#a3bb0de8275d39e5a31ea006a7dae65b7" target="_top" xlink:title=" ">
<polygon fill="white" stroke="#666666" points="438,-19 349,-19 349,0 438,0 438,-19"/>
<text text-anchor="middle" x="393.5" y="-7" font-family="Helvetica,sans-Serif" font-size="10.00">skip_utf8_bom</text>
</a>
</g>
</g>
<!-- Node2&#45;&gt;Node14 -->
<g id="edge21_Node000002_Node000014" class="edge">
<title>Node2&#45;&gt;Node14</title>
<g id="a_edge21_Node000002_Node000014"><a xlink:title=" ">
<path fill="none" stroke="#63b8ff" d="M256.57,-74.85C283.72,-61.8 332.31,-38.44 363.44,-23.47"/>
<polygon fill="#63b8ff" stroke="#63b8ff" points="365.01,-26.6 372.5,-19.11 361.97,-20.29 365.01,-26.6"/>
</a>
</g>
</g>
<!-- Node5 -->
<g id="Node000005" class="node">
<title>Node5</title>
<g id="a_Node000005"><a xlink:href="structinternal__hooks.html#a8b8f7ff45faa5da18dd3ccd2a2c8e416" target="_top" xlink:title=" ">
<polygon fill="white" stroke="#666666" points="897,-114 763,-114 763,-95 897,-95 897,-114"/>
<text text-anchor="middle" x="830" y="-102" font-family="Helvetica,sans-Serif" font-size="10.00">internal_hooks::allocate</text>
</a>
</g>
</g>
<!-- Node4&#45;&gt;Node5 -->
<g id="edge4_Node000004_Node000005" class="edge">
<title>Node4&#45;&gt;Node5</title>
<g id="a_edge4_Node000004_Node000005"><a xlink:title=" ">
<path fill="none" stroke="#63b8ff" d="M712,-91.15C724.81,-92.61 738.9,-94.22 752.72,-95.8"/>
<polygon fill="#63b8ff" stroke="#63b8ff" points="752.39,-99.28 762.73,-96.94 753.19,-92.33 752.39,-99.28"/>
</a>
</g>
</g>
<!-- Node7 -->
<g id="Node000007" class="node">
<title>Node7</title>
<g id="a_Node000007"><a xlink:href="cJSON_8c.html#a367cc7ac5a592211d9f18dc02dd23069" target="_top" xlink:title=" ">
<polygon fill="white" stroke="#666666" points="554,-95 480,-95 480,-76 554,-76 554,-95"/>
<text text-anchor="middle" x="517" y="-83" font-family="Helvetica,sans-Serif" font-size="10.00">parse_array</text>
</a>
</g>
</g>
<!-- Node6&#45;&gt;Node7 -->
<g id="edge6_Node000006_Node000007" class="edge">
<title>Node6&#45;&gt;Node7</title>
<g id="a_edge6_Node000006_Node000007"><a xlink:title=" ">
<path fill="none" stroke="#63b8ff" d="M410.38,-112.93C425.54,-106.56 449.13,-98.77 470.16,-92.89"/>
<polygon fill="#63b8ff" stroke="#63b8ff" points="471.18,-96.24 479.92,-90.26 469.36,-89.49 471.18,-96.24"/>
</a>
</g>
</g>
<!-- Node8 -->
<g id="Node000008" class="node">
<title>Node8</title>
<g id="a_Node000008"><a xlink:href="cJSON_8c.html#a699e1cebda71c2846a9a10b29b4dc407" target="_top" xlink:title=" ">
<polygon fill="white" stroke="#666666" points="560,-208 474,-208 474,-189 560,-189 560,-208"/>
<text text-anchor="middle" x="517" y="-196" font-family="Helvetica,sans-Serif" font-size="10.00">parse_number</text>
</a>
</g>
</g>
<!-- Node6&#45;&gt;Node8 -->
<g id="edge10_Node000006_Node000008" class="edge">
<title>Node6&#45;&gt;Node8</title>
<g id="a_edge10_Node000006_Node000008"><a xlink:title=" ">
<path fill="none" stroke="#63b8ff" d="M408.7,-132.16C424.47,-142.8 450.79,-160.3 474,-174.5 479.01,-177.57 484.43,-180.75 489.64,-183.76"/>
<polygon fill="#63b8ff" stroke="#63b8ff" points="488.28,-187.01 498.7,-188.92 491.74,-180.93 488.28,-187.01"/>
</a>
</g>
</g>
<!-- Node10 -->
<g id="Node000010" class="node">
<title>Node10</title>
<g id="a_Node000010"><a xlink:href="cJSON_8c.html#a1472ac5d1becd7d9a5e558b4c053b06a" target="_top" xlink:title=" ">
<polygon fill="white" stroke="#666666" points="556.5,-132 477.5,-132 477.5,-113 556.5,-113 556.5,-132"/>
<text text-anchor="middle" x="517" y="-120" font-family="Helvetica,sans-Serif" font-size="10.00">parse_object</text>
</a>
</g>
</g>
<!-- Node6&#45;&gt;Node10 -->
<g id="edge12_Node000006_Node000010" class="edge">
<title>Node6&#45;&gt;Node10</title>
<g id="a_edge12_Node000006_Node000010"><a xlink:title=" ">
<path fill="none" stroke="#63b8ff" d="M431.61,-116.23C442.84,-115.75 455.34,-115.63 467.21,-115.87"/>
<polygon fill="#63b8ff" stroke="#63b8ff" points="467.33,-119.37 477.43,-116.17 467.54,-112.38 467.33,-119.37"/>
</a>
</g>
</g>
<!-- Node11 -->
<g id="Node000011" class="node">
<title>Node11</title>
<g id="a_Node000011"><a xlink:href="cJSON_8c.html#adf47b520af96d1bbefa2390016fbdb51" target="_top" xlink:title=" ">
<polygon fill="white" stroke="#666666" points="700,-169 623,-169 623,-150 700,-150 700,-169"/>
<text text-anchor="middle" x="661.5" y="-157" font-family="Helvetica,sans-Serif" font-size="10.00">parse_string</text>
</a>
</g>
</g>
<!-- Node6&#45;&gt;Node11 -->
<g id="edge20_Node000006_Node000011" class="edge">
<title>Node6&#45;&gt;Node11</title>
<g id="a_edge20_Node000006_Node000011"><a xlink:title=" ">
<path fill="none" stroke="#63b8ff" d="M429.9,-132.07C443.59,-135.48 459.44,-139.07 474,-141.5 520.78,-149.31 574.76,-154.06 612.58,-156.71"/>
<polygon fill="#63b8ff" stroke="#63b8ff" points="612.58,-160.21 622.79,-157.4 613.05,-153.23 612.58,-160.21"/>
</a>
</g>
</g>
<!-- Node7&#45;&gt;Node3 -->
<g id="edge7_Node000007_Node000003" class="edge">
<title>Node7&#45;&gt;Node3</title>
<g id="a_edge7_Node000007_Node000003"><a xlink:title=" ">
<path fill="none" stroke="#63b8ff" d="M554.33,-94.93C572.44,-99.64 594.56,-105.38 613.91,-110.4"/>
<polygon fill="#63b8ff" stroke="#63b8ff" points="613.18,-113.83 623.74,-112.96 614.94,-107.06 613.18,-113.83"/>
</a>
</g>
</g>
<!-- Node7&#45;&gt;Node4 -->
<g id="edge8_Node000007_Node000004" class="edge">
<title>Node7&#45;&gt;Node4</title>
<g id="a_edge8_Node000007_Node000004"><a xlink:title=" ">
<path fill="none" stroke="#63b8ff" d="M554.33,-85.5C568.4,-85.5 584.88,-85.5 600.61,-85.5"/>
<polygon fill="#63b8ff" stroke="#63b8ff" points="600.8,-89 610.8,-85.5 600.8,-82 600.8,-89"/>
</a>
</g>
</g>
<!-- Node7&#45;&gt;Node6 -->
<g id="edge9_Node000007_Node000006" class="edge">
<title>Node7&#45;&gt;Node6</title>
<g id="a_edge9_Node000007_Node000006"><a xlink:title=" ">
<path fill="none" stroke="#63b8ff" d="M500.01,-95.11C485.13,-101.35 462.22,-108.95 441.54,-114.77"/>
<polygon fill="#63b8ff" stroke="#63b8ff" points="440.34,-111.47 431.61,-117.47 442.18,-118.22 440.34,-111.47"/>
</a>
</g>
</g>
<!-- Node9 -->
<g id="Node000009" class="node">
<title>Node9</title>
<g id="a_Node000009"><a xlink:href="cJSON_8c.html#ab25412ae56c8c594831918169bea100d" target="_top" xlink:title=" ">
<polygon fill="white" stroke="#666666" points="715,-208 608,-208 608,-189 715,-189 715,-208"/>
<text text-anchor="middle" x="661.5" y="-196" font-family="Helvetica,sans-Serif" font-size="10.00">get_decimal_point</text>
</a>
</g>
</g>
<!-- Node8&#45;&gt;Node9 -->
<g id="edge11_Node000008_Node000009" class="edge">
<title>Node8&#45;&gt;Node9</title>
<g id="a_edge11_Node000008_Node000009"><a xlink:title=" ">
<path fill="none" stroke="#63b8ff" d="M560.37,-198.5C572.15,-198.5 585.2,-198.5 597.88,-198.5"/>
<polygon fill="#63b8ff" stroke="#63b8ff" points="597.94,-202 607.94,-198.5 597.94,-195 597.94,-202"/>
</a>
</g>
</g>
<!-- Node10&#45;&gt;Node3 -->
<g id="edge13_Node000010_Node000003" class="edge">
<title>Node10&#45;&gt;Node3</title>
<g id="a_edge13_Node000010_Node000003"><a xlink:title=" ">
<path fill="none" stroke="#63b8ff" d="M556.56,-122.5C565.65,-122.5 575.64,-122.5 585.73,-122.5"/>
<polygon fill="#63b8ff" stroke="#63b8ff" points="585.82,-126 595.82,-122.5 585.82,-119 585.82,-126"/>
</a>
</g>
</g>
<!-- Node10&#45;&gt;Node4 -->
<g id="edge14_Node000010_Node000004" class="edge">
<title>Node10&#45;&gt;Node4</title>
<g id="a_edge14_Node000010_Node000004"><a xlink:title=" ">
<path fill="none" stroke="#63b8ff" d="M554.7,-112.97C572.67,-108.3 594.52,-102.63 613.69,-97.65"/>
<polygon fill="#63b8ff" stroke="#63b8ff" points="614.63,-101.03 623.43,-95.12 612.87,-94.25 614.63,-101.03"/>
</a>
</g>
</g>
<!-- Node10&#45;&gt;Node6 -->
<g id="edge19_Node000010_Node000006" class="edge">
<title>Node10&#45;&gt;Node6</title>
<g id="a_edge19_Node000010_Node000006"><a xlink:title=" ">
<path fill="none" stroke="#63b8ff" d="M477.43,-128.83C466.1,-129.28 453.57,-129.37 441.76,-129.1"/>
<polygon fill="#63b8ff" stroke="#63b8ff" points="441.72,-125.6 431.61,-128.77 441.5,-132.59 441.72,-125.6"/>
</a>
</g>
</g>
<!-- Node10&#45;&gt;Node11 -->
<g id="edge15_Node000010_Node000011" class="edge">
<title>Node10&#45;&gt;Node11</title>
<g id="a_edge15_Node000010_Node000011"><a xlink:title=" ">
<path fill="none" stroke="#63b8ff" d="M554.7,-132.03C572.67,-136.7 594.52,-142.37 613.69,-147.35"/>
<polygon fill="#63b8ff" stroke="#63b8ff" points="612.87,-150.75 623.43,-149.88 614.63,-143.97 612.87,-150.75"/>
</a>
</g>
</g>
<!-- Node11&#45;&gt;Node5 -->
<g id="edge16_Node000011_Node000005" class="edge">
<title>Node11&#45;&gt;Node5</title>
<g id="a_edge16_Node000011_Node000005"><a xlink:title=" ">
<path fill="none" stroke="#63b8ff" d="M698.47,-149.98C707.8,-147.37 717.81,-144.44 727,-141.5 749.71,-134.22 774.91,-125.09 794.58,-117.72"/>
<polygon fill="#63b8ff" stroke="#63b8ff" points="795.91,-120.96 804.03,-114.16 793.44,-114.41 795.91,-120.96"/>
</a>
</g>
</g>
<!-- Node12 -->
<g id="Node000012" class="node">
<title>Node12</title>
<g id="a_Node000012"><a xlink:href="cJSON_8c.html#a0e2851b1b595b3b430fd186e7deaf987" target="_top" xlink:title=" ">
<polygon fill="white" stroke="#666666" points="888,-169 772,-169 772,-150 888,-150 888,-169"/>
<text text-anchor="middle" x="830" y="-157" font-family="Helvetica,sans-Serif" font-size="10.00">utf16_literal_to_utf8</text>
</a>
</g>
</g>
<!-- Node11&#45;&gt;Node12 -->
<g id="edge17_Node000011_Node000012" class="edge">
<title>Node11&#45;&gt;Node12</title>
<g id="a_edge17_Node000011_Node000012"><a xlink:title=" ">
<path fill="none" stroke="#63b8ff" d="M700.28,-159.5C718.42,-159.5 740.72,-159.5 761.62,-159.5"/>
<polygon fill="#63b8ff" stroke="#63b8ff" points="761.75,-163 771.75,-159.5 761.75,-156 761.75,-163"/>
</a>
</g>
</g>
<!-- Node13 -->
<g id="Node000013" class="node">
<title>Node13</title>
<g id="a_Node000013"><a xlink:href="cJSON_8c.html#a1aa736fdc6ba20c7d46622d20766e916" target="_top" xlink:title=" ">
<polygon fill="white" stroke="#666666" points="1006,-169 933,-169 933,-150 1006,-150 1006,-169"/>
<text text-anchor="middle" x="969.5" y="-157" font-family="Helvetica,sans-Serif" font-size="10.00">parse_hex4</text>
</a>
</g>
</g>
<!-- Node12&#45;&gt;Node13 -->
<g id="edge18_Node000012_Node000013" class="edge">
<title>Node12&#45;&gt;Node13</title>
<g id="a_edge18_Node000012_Node000013"><a xlink:title=" ">
<path fill="none" stroke="#63b8ff" d="M888.12,-159.5C899.64,-159.5 911.6,-159.5 922.68,-159.5"/>
<polygon fill="#63b8ff" stroke="#63b8ff" points="922.97,-163 932.97,-159.5 922.97,-156 922.97,-163"/>
</a>
</g>
</g>
</g>
</svg>
