<?xml version="1.0" encoding="UTF-8" standalone="no"?>
<!DOCTYPE svg PUBLIC "-//W3C//DTD SVG 1.1//EN"
 "http://www.w3.org/Graphics/SVG/1.1/DTD/svg11.dtd">
<!-- Generated by graphviz version 2.43.0 (0)
 -->
<!-- Title: cJSON_strdup Pages: 1 -->
<svg width="445pt" height="280pt"
 viewBox="0.00 0.00 445.00 279.50" xmlns="http://www.w3.org/2000/svg" xmlns:xlink="http://www.w3.org/1999/xlink">
<g id="graph0" class="graph" transform="scale(1 1) rotate(0) translate(4 275.5)">
<title>cJSON_strdup</title>
<polygon fill="white" stroke="transparent" points="-4,4 -4,-275.5 441,-275.5 441,4 -4,4"/>
<!-- Node1 -->
<g id="node1" class="node">
<title>Node1</title>
<g id="a_node1"><a xlink:title=" ">
<polygon fill="#bfbfbf" stroke="black" points="355,-88 355,-107 437,-107 437,-88 355,-88"/>
<text text-anchor="middle" x="396" y="-95" font-family="Helvetica,sans-Serif" font-size="10.00">cJSON_strdup</text>
</a>
</g>
</g>
<!-- Node2 -->
<g id="node2" class="node">
<title>Node2</title>
<g id="a_node2"><a xlink:href="cJSON_8c.html#acc48bef0e1b495898d9489e577b91d5c" target="_top" xlink:title=" ">
<polygon fill="white" stroke="black" points="197.5,-145 197.5,-164 310.5,-164 310.5,-145 197.5,-145"/>
<text text-anchor="middle" x="254" y="-152" font-family="Helvetica,sans-Serif" font-size="10.00">add_item_to_object</text>
</a>
</g>
</g>
<!-- Node1&#45;&gt;Node2 -->
<g id="edge1" class="edge">
<title>Node1&#45;&gt;Node2</title>
<path fill="none" stroke="midnightblue" d="M362.23,-110.84C336.56,-121.3 301.45,-135.59 278.51,-144.93"/>
<polygon fill="midnightblue" stroke="midnightblue" points="363.63,-114.05 371.57,-107.04 360.99,-107.57 363.63,-114.05"/>
</g>
<!-- Node8 -->
<g id="node8" class="node">
<title>Node8</title>
<g id="a_node8"><a xlink:href="cJSON_8c.html#a7916f8c63594d49f98777b2f2153e245" target="_top" xlink:title=" ">
<polygon fill="white" stroke="black" points="195,-88 195,-107 313,-107 313,-88 195,-88"/>
<text text-anchor="middle" x="254" y="-95" font-family="Helvetica,sans-Serif" font-size="10.00">cJSON_Duplicate_rec</text>
</a>
</g>
</g>
<!-- Node1&#45;&gt;Node8 -->
<g id="edge7" class="edge">
<title>Node1&#45;&gt;Node8</title>
<path fill="none" stroke="midnightblue" d="M344.84,-97.5C334.56,-97.5 323.66,-97.5 313.12,-97.5"/>
<polygon fill="midnightblue" stroke="midnightblue" points="344.88,-101 354.88,-97.5 344.88,-94 344.88,-101"/>
</g>
<!-- Node9 -->
<g id="node9" class="node">
<title>Node9</title>
<g id="a_node9"><a xlink:href="cJSON_8c.html#afdae75197cf2c440ef858a2e93b104f2" target="_top" xlink:title=" ">
<polygon fill="white" stroke="black" points="189,-50 189,-69 319,-69 319,-50 189,-50"/>
<text text-anchor="middle" x="254" y="-57" font-family="Helvetica,sans-Serif" font-size="10.00">replace_item_in_object</text>
</a>
</g>
</g>
<!-- Node1&#45;&gt;Node9 -->
<g id="edge8" class="edge">
<title>Node1&#45;&gt;Node9</title>
<path fill="none" stroke="midnightblue" d="M349.88,-85.25C330.59,-80.02 308.39,-73.99 290.32,-69.09"/>
<polygon fill="midnightblue" stroke="midnightblue" points="349.1,-88.67 359.67,-87.91 350.94,-81.91 349.1,-88.67"/>
</g>
<!-- Node3 -->
<g id="node3" class="node">
<title>Node3</title>
<g id="a_node3"><a xlink:href="cJSON_8c.html#ac44e19cf2c9b85d693021327cd13c380" target="_top" xlink:title=" ">
<polygon fill="white" stroke="black" points="9.5,-252 9.5,-271 143.5,-271 143.5,-252 9.5,-252"/>
<text text-anchor="middle" x="76.5" y="-259" font-family="Helvetica,sans-Serif" font-size="10.00">cJSON_AddBoolToObject</text>
</a>
</g>
</g>
<!-- Node2&#45;&gt;Node3 -->
<g id="edge2" class="edge">
<title>Node2&#45;&gt;Node3</title>
<path fill="none" stroke="midnightblue" d="M238.15,-171.82C220.04,-191.83 187.57,-224.32 153,-242.5 145.7,-246.34 137.6,-249.42 129.48,-251.9"/>
<polygon fill="midnightblue" stroke="midnightblue" points="240.98,-173.9 244.99,-164.09 235.74,-169.26 240.98,-173.9"/>
</g>
<!-- Node4 -->
<g id="node4" class="node">
<title>Node4</title>
<g id="a_node4"><a xlink:href="cJSON_8c.html#ae40faf8fce455884d99bbb2f60cd5860" target="_top" xlink:title=" ">
<polygon fill="white" stroke="black" points="0.5,-202.5 0.5,-232.5 152.5,-232.5 152.5,-202.5 0.5,-202.5"/>
<text text-anchor="start" x="8.5" y="-220.5" font-family="Helvetica,sans-Serif" font-size="10.00">cJSON_AddItemReferenceTo</text>
<text text-anchor="middle" x="76.5" y="-209.5" font-family="Helvetica,sans-Serif" font-size="10.00">Object</text>
</a>
</g>
</g>
<!-- Node2&#45;&gt;Node4 -->
<g id="edge3" class="edge">
<title>Node2&#45;&gt;Node4</title>
<path fill="none" stroke="midnightblue" d="M219.29,-167.73C199.96,-175.21 175.2,-184.61 153,-192.5 143.63,-195.83 133.56,-199.26 123.93,-202.48"/>
<polygon fill="midnightblue" stroke="midnightblue" points="220.81,-170.89 228.86,-164.01 218.27,-164.37 220.81,-170.89"/>
</g>
<!-- Node5 -->
<g id="node5" class="node">
<title>Node5</title>
<g id="a_node5"><a xlink:href="cJSON_8c.html#aa53dc5895c82cc121dec73b81930ee42" target="_top" xlink:title=" ">
<polygon fill="white" stroke="black" points="1,-164 1,-183 152,-183 152,-164 1,-164"/>
<text text-anchor="middle" x="76.5" y="-171" font-family="Helvetica,sans-Serif" font-size="10.00">cJSON_AddNumberToObject</text>
</a>
</g>
</g>
<!-- Node2&#45;&gt;Node5 -->
<g id="edge4" class="edge">
<title>Node2&#45;&gt;Node5</title>
<path fill="none" stroke="midnightblue" d="M187.53,-161.59C176.02,-162.83 163.98,-164.14 152.25,-165.41"/>
<polygon fill="midnightblue" stroke="midnightblue" points="187.91,-165.07 197.47,-160.51 187.15,-158.11 187.91,-165.07"/>
</g>
<!-- Node6 -->
<g id="node6" class="node">
<title>Node6</title>
<g id="a_node6"><a xlink:href="cJSON_8c.html#a60358335b6645747178c8050d5e51653" target="_top" xlink:title=" ">
<polygon fill="white" stroke="black" points="10,-126 10,-145 143,-145 143,-126 10,-126"/>
<text text-anchor="middle" x="76.5" y="-133" font-family="Helvetica,sans-Serif" font-size="10.00">cJSON_AddRawToObject</text>
</a>
</g>
</g>
<!-- Node2&#45;&gt;Node6 -->
<g id="edge5" class="edge">
<title>Node2&#45;&gt;Node6</title>
<path fill="none" stroke="midnightblue" d="M187.15,-147.37C172.75,-145.81 157.5,-144.16 143.1,-142.6"/>
<polygon fill="midnightblue" stroke="midnightblue" points="187.15,-150.89 197.47,-148.49 187.91,-143.93 187.15,-150.89"/>
</g>
<!-- Node7 -->
<g id="node7" class="node">
<title>Node7</title>
<g id="a_node7"><a xlink:href="cJSON_8c.html#a49e0e6b028e5a814c642307254816208" target="_top" xlink:title=" ">
<polygon fill="white" stroke="black" points="6.5,-88 6.5,-107 146.5,-107 146.5,-88 6.5,-88"/>
<text text-anchor="middle" x="76.5" y="-95" font-family="Helvetica,sans-Serif" font-size="10.00">cJSON_AddStringToObject</text>
</a>
</g>
</g>
<!-- Node2&#45;&gt;Node7 -->
<g id="edge6" class="edge">
<title>Node2&#45;&gt;Node7</title>
<path fill="none" stroke="midnightblue" d="M220.92,-141.22C201.47,-133.44 176.04,-123.75 153,-116.5 142.17,-113.09 130.32,-109.88 119.28,-107.09"/>
<polygon fill="midnightblue" stroke="midnightblue" points="219.65,-144.48 230.23,-144.98 222.27,-137.99 219.65,-144.48"/>
</g>
<!-- Node10 -->
<g id="node10" class="node">
<title>Node10</title>
<g id="a_node10"><a xlink:href="cJSON_8c.html#ae8335f21a2f78d63c854c002f09f96dc" target="_top" xlink:title=" ">
<polygon fill="white" stroke="black" points="0,-50 0,-69 153,-69 153,-50 0,-50"/>
<text text-anchor="middle" x="76.5" y="-57" font-family="Helvetica,sans-Serif" font-size="10.00">cJSON_ReplaceItemInObject</text>
</a>
</g>
</g>
<!-- Node9&#45;&gt;Node10 -->
<g id="edge9" class="edge">
<title>Node9&#45;&gt;Node10</title>
<path fill="none" stroke="midnightblue" d="M178.51,-59.5C170.12,-59.5 161.56,-59.5 153.15,-59.5"/>
<polygon fill="midnightblue" stroke="midnightblue" points="178.65,-63 188.65,-59.5 178.65,-56 178.65,-63"/>
</g>
<!-- Node11 -->
<g id="node11" class="node">
<title>Node11</title>
<g id="a_node11"><a xlink:href="cJSON_8c.html#acbcada89e12f21f1d0f2e296d93130dc" target="_top" xlink:title=" ">
<polygon fill="white" stroke="black" points="0,-0.5 0,-30.5 153,-30.5 153,-0.5 0,-0.5"/>
<text text-anchor="start" x="8" y="-18.5" font-family="Helvetica,sans-Serif" font-size="10.00">cJSON_ReplaceItemInObject</text>
<text text-anchor="middle" x="76.5" y="-7.5" font-family="Helvetica,sans-Serif" font-size="10.00">CaseSensitive</text>
</a>
</g>
</g>
<!-- Node9&#45;&gt;Node11 -->
<g id="edge10" class="edge">
<title>Node9&#45;&gt;Node11</title>
<path fill="none" stroke="midnightblue" d="M205.03,-47.47C184.21,-42.25 159.61,-36.09 137.59,-30.57"/>
<polygon fill="midnightblue" stroke="midnightblue" points="204.37,-50.92 214.92,-49.95 206.07,-44.13 204.37,-50.92"/>
</g>
</g>
</svg>
