<?xml version="1.0" encoding="UTF-8" standalone="no"?>
<!DOCTYPE svg PUBLIC "-//W3C//DTD SVG 1.1//EN"
 "http://www.w3.org/Graphics/SVG/1.1/DTD/svg11.dtd">
<!-- Generated by graphviz version 2.43.0 (0)
 -->
<!-- Title: print_string_ptr Pages: 1 -->
<svg width="364pt" height="64pt"
 viewBox="0.00 0.00 364.00 64.00" xmlns="http://www.w3.org/2000/svg" xmlns:xlink="http://www.w3.org/1999/xlink">
<g id="graph0" class="graph" transform="scale(1 1) rotate(0) translate(4 60)">
<title>print_string_ptr</title>
<!-- Node1 -->
<g id="Node000001" class="node">
<title>Node1</title>
<g id="a_Node000001"><a xlink:title=" ">
<polygon fill="#999999" stroke="#666666" points="91,-37 0,-37 0,-18 91,-18 91,-37"/>
<text text-anchor="middle" x="45.5" y="-25" font-family="Helvetica,sans-Serif" font-size="10.00">print_string_ptr</text>
</a>
</g>
</g>
<!-- Node2 -->
<g id="Node000002" class="node">
<title>Node2</title>
<g id="a_Node000002"><a xlink:href="cJSON_8c.html#ad9f9a9b2ad3154fc8033756f23c023a6" target="_top" xlink:title=" ">
<polygon fill="white" stroke="#666666" points="177,-37 127,-37 127,-18 177,-18 177,-37"/>
<text text-anchor="middle" x="152" y="-25" font-family="Helvetica,sans-Serif" font-size="10.00">ensure</text>
</a>
</g>
</g>
<!-- Node1&#45;&gt;Node2 -->
<g id="edge1_Node000001_Node000002" class="edge">
<title>Node1&#45;&gt;Node2</title>
<g id="a_edge1_Node000001_Node000002"><a xlink:title=" ">
<path fill="none" stroke="#63b8ff" d="M91.12,-27.5C99.78,-27.5 108.72,-27.5 116.98,-27.5"/>
<polygon fill="#63b8ff" stroke="#63b8ff" points="116.98,-31 126.98,-27.5 116.98,-24 116.98,-31"/>
</a>
</g>
</g>
<!-- Node3 -->
<g id="Node000003" class="node">
<title>Node3</title>
<g id="a_Node000003"><a xlink:href="structinternal__hooks.html#a8b8f7ff45faa5da18dd3ccd2a2c8e416" target="_top" xlink:title=" ">
<polygon fill="white" stroke="#666666" points="351.5,-56 217.5,-56 217.5,-37 351.5,-37 351.5,-56"/>
<text text-anchor="middle" x="284.5" y="-44" font-family="Helvetica,sans-Serif" font-size="10.00">internal_hooks::allocate</text>
</a>
</g>
</g>
<!-- Node2&#45;&gt;Node3 -->
<g id="edge2_Node000002_Node000003" class="edge">
<title>Node2&#45;&gt;Node3</title>
<g id="a_edge2_Node000002_Node000003"><a xlink:title=" ">
<path fill="none" stroke="#63b8ff" d="M177.24,-31.03C186.16,-32.33 196.79,-33.88 207.84,-35.48"/>
<polygon fill="#63b8ff" stroke="#63b8ff" points="207.65,-38.99 218.05,-36.97 208.66,-32.07 207.65,-38.99"/>
</a>
</g>
</g>
<!-- Node4 -->
<g id="Node000004" class="node">
<title>Node4</title>
<g id="a_Node000004"><a xlink:href="structinternal__hooks.html#a7c3921493fab83f33cd509145d8a5393" target="_top" xlink:title=" ">
<polygon fill="white" stroke="#666666" points="356,-19 213,-19 213,0 356,0 356,-19"/>
<text text-anchor="middle" x="284.5" y="-7" font-family="Helvetica,sans-Serif" font-size="10.00">internal_hooks::reallocate</text>
</a>
</g>
</g>
<!-- Node2&#45;&gt;Node4 -->
<g id="edge3_Node000002_Node000004" class="edge">
<title>Node2&#45;&gt;Node4</title>
<g id="a_edge3_Node000002_Node000004"><a xlink:title=" ">
<path fill="none" stroke="#63b8ff" d="M177.24,-24.16C185.26,-23.05 194.66,-21.75 204.5,-20.4"/>
<polygon fill="#63b8ff" stroke="#63b8ff" points="205.03,-23.86 214.45,-19.02 204.07,-16.92 205.03,-23.86"/>
</a>
</g>
</g>
</g>
</svg>
