<?xml version="1.0" encoding="UTF-8" standalone="no"?>
<!DOCTYPE svg PUBLIC "-//W3C//DTD SVG 1.1//EN"
 "http://www.w3.org/Graphics/SVG/1.1/DTD/svg11.dtd">
<!-- Generated by graphviz version 2.43.0 (0)
 -->
<!-- Title: get_decimal_point Pages: 1 -->
<svg width="861pt" height="256pt"
 viewBox="0.00 0.00 861.00 256.00" xmlns="http://www.w3.org/2000/svg" xmlns:xlink="http://www.w3.org/1999/xlink">
<g id="graph0" class="graph" transform="scale(1 1) rotate(0) translate(4 252)">
<title>get_decimal_point</title>
<polygon fill="white" stroke="transparent" points="-4,4 -4,-252 857,-252 857,4 -4,4"/>
<!-- Node1 -->
<g id="node1" class="node">
<title>Node1</title>
<g id="a_node1"><a xlink:title=" ">
<polygon fill="#bfbfbf" stroke="black" points="746,-95.5 746,-114.5 853,-114.5 853,-95.5 746,-95.5"/>
<text text-anchor="middle" x="799.5" y="-102.5" font-family="Helvetica,sans-Serif" font-size="10.00">get_decimal_point</text>
</a>
</g>
</g>
<!-- Node2 -->
<g id="node2" class="node">
<title>Node2</title>
<g id="a_node2"><a xlink:href="cJSON_8c.html#a699e1cebda71c2846a9a10b29b4dc407" target="_top" xlink:title=" ">
<polygon fill="white" stroke="black" points="624,-152.5 624,-171.5 710,-171.5 710,-152.5 624,-152.5"/>
<text text-anchor="middle" x="667" y="-159.5" font-family="Helvetica,sans-Serif" font-size="10.00">parse_number</text>
</a>
</g>
</g>
<!-- Node1&#45;&gt;Node2 -->
<g id="edge1" class="edge">
<title>Node1&#45;&gt;Node2</title>
<path fill="none" stroke="midnightblue" d="M767.32,-118.62C743.45,-129.05 711.11,-143.17 689.91,-152.43"/>
<polygon fill="midnightblue" stroke="midnightblue" points="768.89,-121.75 776.66,-114.54 766.09,-115.34 768.89,-121.75"/>
</g>
<!-- Node9 -->
<g id="node9" class="node">
<title>Node9</title>
<g id="a_node9"><a xlink:href="cJSON_8c.html#ad93d84de08872da0eaa6624be0e74a68" target="_top" xlink:title=" ">
<polygon fill="white" stroke="black" points="626,-76.5 626,-95.5 708,-95.5 708,-76.5 626,-76.5"/>
<text text-anchor="middle" x="667" y="-83.5" font-family="Helvetica,sans-Serif" font-size="10.00">print_number</text>
</a>
</g>
</g>
<!-- Node1&#45;&gt;Node9 -->
<g id="edge10" class="edge">
<title>Node1&#45;&gt;Node9</title>
<path fill="none" stroke="midnightblue" d="M735.66,-95.85C726.27,-94.48 716.8,-93.11 708.05,-91.83"/>
<polygon fill="midnightblue" stroke="midnightblue" points="735.4,-99.35 745.8,-97.33 736.41,-92.42 735.4,-99.35"/>
</g>
<!-- Node3 -->
<g id="node3" class="node">
<title>Node3</title>
<g id="a_node3"><a xlink:href="cJSON_8c.html#afd5c0b7089e4de2fc9b2af599d4b596f" target="_top" xlink:title=" ">
<polygon fill="white" stroke="black" points="512,-171.5 512,-190.5 588,-190.5 588,-171.5 512,-171.5"/>
<text text-anchor="middle" x="550" y="-178.5" font-family="Helvetica,sans-Serif" font-size="10.00">parse_value</text>
</a>
</g>
</g>
<!-- Node2&#45;&gt;Node3 -->
<g id="edge2" class="edge">
<title>Node2&#45;&gt;Node3</title>
<path fill="none" stroke="midnightblue" d="M613.82,-170.62C605.19,-172.05 596.39,-173.5 588.23,-174.85"/>
<polygon fill="midnightblue" stroke="midnightblue" points="614.54,-174.05 623.83,-168.97 613.39,-167.14 614.54,-174.05"/>
</g>
<!-- Node4 -->
<g id="node4" class="node">
<title>Node4</title>
<g id="a_node4"><a xlink:href="cJSON_8c.html#a3a24e49a04490273160cdc1f30f10d22" target="_top" xlink:title=" ">
<polygon fill="white" stroke="black" points="321,-228.5 321,-247.5 476,-247.5 476,-228.5 321,-228.5"/>
<text text-anchor="middle" x="398.5" y="-235.5" font-family="Helvetica,sans-Serif" font-size="10.00">cJSON_ParseWithLengthOpts</text>
</a>
</g>
</g>
<!-- Node3&#45;&gt;Node4 -->
<g id="edge3" class="edge">
<title>Node3&#45;&gt;Node4</title>
<path fill="none" stroke="midnightblue" d="M524.38,-195.68C510.54,-203.45 492.72,-212.67 476,-219 466.27,-222.68 455.58,-225.85 445.35,-228.49"/>
<polygon fill="midnightblue" stroke="midnightblue" points="526.34,-198.59 533.27,-190.58 522.85,-192.52 526.34,-198.59"/>
</g>
<!-- Node7 -->
<g id="node7" class="node">
<title>Node7</title>
<g id="a_node7"><a xlink:href="cJSON_8c.html#a367cc7ac5a592211d9f18dc02dd23069" target="_top" xlink:title=" ">
<polygon fill="white" stroke="black" points="361.5,-190.5 361.5,-209.5 435.5,-209.5 435.5,-190.5 361.5,-190.5"/>
<text text-anchor="middle" x="398.5" y="-197.5" font-family="Helvetica,sans-Serif" font-size="10.00">parse_array</text>
</a>
</g>
</g>
<!-- Node3&#45;&gt;Node7 -->
<g id="edge6" class="edge">
<title>Node3&#45;&gt;Node7</title>
<path fill="none" stroke="midnightblue" d="M501.62,-180.69C478.31,-182.91 450.89,-186.64 430.33,-190.5"/>
<polygon fill="midnightblue" stroke="midnightblue" points="502,-184.17 511.66,-179.81 501.39,-177.2 502,-184.17"/>
</g>
<!-- Node8 -->
<g id="node8" class="node">
<title>Node8</title>
<g id="a_node8"><a xlink:href="cJSON_8c.html#a1472ac5d1becd7d9a5e558b4c053b06a" target="_top" xlink:title=" ">
<polygon fill="white" stroke="black" points="359,-152.5 359,-171.5 438,-171.5 438,-152.5 359,-152.5"/>
<text text-anchor="middle" x="398.5" y="-159.5" font-family="Helvetica,sans-Serif" font-size="10.00">parse_object</text>
</a>
</g>
</g>
<!-- Node3&#45;&gt;Node8 -->
<g id="edge8" class="edge">
<title>Node3&#45;&gt;Node8</title>
<path fill="none" stroke="midnightblue" d="M508.07,-169.7C486.27,-166.03 459.6,-162.67 438.15,-160.92"/>
<polygon fill="midnightblue" stroke="midnightblue" points="507.57,-173.17 518.02,-171.47 508.79,-166.28 507.57,-173.17"/>
</g>
<!-- Node5 -->
<g id="node5" class="node">
<title>Node5</title>
<g id="a_node5"><a xlink:href="cJSON_8c.html#adfabd5d09c2cf0a2f051c47650db6e80" target="_top" xlink:title=" ">
<polygon fill="white" stroke="black" points="143.5,-228.5 143.5,-247.5 265.5,-247.5 265.5,-228.5 143.5,-228.5"/>
<text text-anchor="middle" x="204.5" y="-235.5" font-family="Helvetica,sans-Serif" font-size="10.00">cJSON_ParseWithOpts</text>
</a>
</g>
</g>
<!-- Node4&#45;&gt;Node5 -->
<g id="edge4" class="edge">
<title>Node4&#45;&gt;Node5</title>
<path fill="none" stroke="midnightblue" d="M310.36,-238C295.21,-238 279.76,-238 265.53,-238"/>
<polygon fill="midnightblue" stroke="midnightblue" points="310.79,-241.5 320.79,-238 310.79,-234.5 310.79,-241.5"/>
</g>
<!-- Node6 -->
<g id="node6" class="node">
<title>Node6</title>
<g id="a_node6"><a xlink:href="cJSON_8c.html#aa2ca313f61c789be20f8a69b651043c3" target="_top" xlink:title=" ">
<polygon fill="white" stroke="black" points="0,-228.5 0,-247.5 88,-247.5 88,-228.5 0,-228.5"/>
<text text-anchor="middle" x="44" y="-235.5" font-family="Helvetica,sans-Serif" font-size="10.00">CJSON_PUBLIC</text>
</a>
</g>
</g>
<!-- Node5&#45;&gt;Node6 -->
<g id="edge5" class="edge">
<title>Node5&#45;&gt;Node6</title>
<path fill="none" stroke="midnightblue" d="M132.77,-238C117.67,-238 102.16,-238 88.45,-238"/>
<polygon fill="midnightblue" stroke="midnightblue" points="133.13,-241.5 143.13,-238 133.13,-234.5 133.13,-241.5"/>
</g>
<!-- Node7&#45;&gt;Node3 -->
<g id="edge7" class="edge">
<title>Node7&#45;&gt;Node3</title>
<path fill="none" stroke="midnightblue" d="M445.8,-200.41C469.28,-198.21 497.16,-194.44 518.02,-190.53"/>
<polygon fill="midnightblue" stroke="midnightblue" points="445.37,-196.94 435.7,-201.28 445.96,-203.91 445.37,-196.94"/>
</g>
<!-- Node8&#45;&gt;Node3 -->
<g id="edge9" class="edge">
<title>Node8&#45;&gt;Node3</title>
<path fill="none" stroke="midnightblue" d="M440.47,-173.3C462.71,-177.05 490.01,-180.47 511.66,-182.19"/>
<polygon fill="midnightblue" stroke="midnightblue" points="440.79,-169.8 430.33,-171.5 439.56,-176.7 440.79,-169.8"/>
</g>
<!-- Node10 -->
<g id="node10" class="node">
<title>Node10</title>
<g id="a_node10"><a xlink:href="cJSON_8c.html#a5ba141f183b9abb4b49e38a211299c7e" target="_top" xlink:title=" ">
<polygon fill="white" stroke="black" points="514.5,-38.5 514.5,-57.5 585.5,-57.5 585.5,-38.5 514.5,-38.5"/>
<text text-anchor="middle" x="550" y="-45.5" font-family="Helvetica,sans-Serif" font-size="10.00">print_value</text>
</a>
</g>
</g>
<!-- Node9&#45;&gt;Node10 -->
<g id="edge11" class="edge">
<title>Node9&#45;&gt;Node10</title>
<path fill="none" stroke="midnightblue" d="M627.18,-73.17C611.75,-68.08 594.31,-62.31 580.01,-57.59"/>
<polygon fill="midnightblue" stroke="midnightblue" points="626.39,-76.6 636.98,-76.41 628.58,-69.95 626.39,-76.6"/>
</g>
<!-- Node11 -->
<g id="node11" class="node">
<title>Node11</title>
<g id="a_node11"><a xlink:href="cJSON_8c.html#a5ae150f0e5009534979d4532a411d077" target="_top" xlink:title=" ">
<polygon fill="white" stroke="black" points="331.5,-114.5 331.5,-133.5 465.5,-133.5 465.5,-114.5 331.5,-114.5"/>
<text text-anchor="middle" x="398.5" y="-121.5" font-family="Helvetica,sans-Serif" font-size="10.00">cJSON_PrintPreallocated</text>
</a>
</g>
</g>
<!-- Node10&#45;&gt;Node11 -->
<g id="edge12" class="edge">
<title>Node10&#45;&gt;Node11</title>
<path fill="none" stroke="midnightblue" d="M532.16,-64.54C518.2,-77.36 497.27,-94.64 476,-105 468.13,-108.83 459.41,-111.94 450.76,-114.44"/>
<polygon fill="midnightblue" stroke="midnightblue" points="534.65,-67 539.52,-57.59 529.85,-61.91 534.65,-67"/>
</g>
<!-- Node12 -->
<g id="node12" class="node">
<title>Node12</title>
<g id="a_node12"><a xlink:href="cJSON_8c.html#ae71e2aec89bf140e6430cb7d5ca417c5" target="_top" xlink:title=" ">
<polygon fill="white" stroke="black" points="379,-76.5 379,-95.5 418,-95.5 418,-76.5 379,-76.5"/>
<text text-anchor="middle" x="398.5" y="-83.5" font-family="Helvetica,sans-Serif" font-size="10.00">print</text>
</a>
</g>
</g>
<!-- Node10&#45;&gt;Node12 -->
<g id="edge13" class="edge">
<title>Node10&#45;&gt;Node12</title>
<path fill="none" stroke="midnightblue" d="M504.51,-59.66C495.1,-62.11 485.23,-64.65 476,-67 456.24,-72.03 433.57,-77.64 418.06,-81.45"/>
<polygon fill="midnightblue" stroke="midnightblue" points="505.69,-62.97 514.49,-57.07 503.93,-56.2 505.69,-62.97"/>
</g>
<!-- Node15 -->
<g id="node15" class="node">
<title>Node15</title>
<g id="a_node15"><a xlink:href="cJSON_8c.html#ae84642817f3965a85c7c617663250c16" target="_top" xlink:title=" ">
<polygon fill="white" stroke="black" points="363.5,-38.5 363.5,-57.5 433.5,-57.5 433.5,-38.5 363.5,-38.5"/>
<text text-anchor="middle" x="398.5" y="-45.5" font-family="Helvetica,sans-Serif" font-size="10.00">print_array</text>
</a>
</g>
</g>
<!-- Node10&#45;&gt;Node15 -->
<g id="edge17" class="edge">
<title>Node10&#45;&gt;Node15</title>
<path fill="none" stroke="midnightblue" d="M504.28,-41.76C481.67,-40.95 454.66,-41.1 433.73,-42.22"/>
<polygon fill="midnightblue" stroke="midnightblue" points="504.18,-45.26 514.33,-42.2 504.49,-38.27 504.18,-45.26"/>
</g>
<!-- Node16 -->
<g id="node16" class="node">
<title>Node16</title>
<g id="a_node16"><a xlink:href="cJSON_8c.html#a3d742f5c68799bca291432a9cd72f8dd" target="_top" xlink:title=" ">
<polygon fill="white" stroke="black" points="361.5,-0.5 361.5,-19.5 435.5,-19.5 435.5,-0.5 361.5,-0.5"/>
<text text-anchor="middle" x="398.5" y="-7.5" font-family="Helvetica,sans-Serif" font-size="10.00">print_object</text>
</a>
</g>
</g>
<!-- Node10&#45;&gt;Node16 -->
<g id="edge19" class="edge">
<title>Node10&#45;&gt;Node16</title>
<path fill="none" stroke="midnightblue" d="M527.29,-34.63C512.78,-29.48 493.26,-24.39 476,-20 462.87,-16.66 448.45,-13.06 435.71,-10.43"/>
<polygon fill="midnightblue" stroke="midnightblue" points="526.28,-37.99 536.87,-38.39 528.84,-31.48 526.28,-37.99"/>
</g>
<!-- Node13 -->
<g id="node13" class="node">
<title>Node13</title>
<g id="a_node13"><a xlink:href="namespaceTimings.html#aadf2661fed15eeec1d5ca92e8125726e" target="_top" xlink:title=" ">
<polygon fill="white" stroke="black" points="124,-95.5 124,-114.5 285,-114.5 285,-95.5 124,-95.5"/>
<text text-anchor="middle" x="204.5" y="-102.5" font-family="Helvetica,sans-Serif" font-size="10.00">Timings.analyze_timing_data</text>
</a>
</g>
</g>
<!-- Node12&#45;&gt;Node13 -->
<g id="edge14" class="edge">
<title>Node12&#45;&gt;Node13</title>
<path fill="none" stroke="midnightblue" d="M368.67,-88.85C346.48,-91.05 314.7,-94.19 285.07,-97.13"/>
<polygon fill="midnightblue" stroke="midnightblue" points="369.13,-92.32 378.74,-87.86 368.44,-85.36 369.13,-92.32"/>
</g>
<!-- Node14 -->
<g id="node14" class="node">
<title>Node14</title>
<g id="a_node14"><a xlink:href="namespaceTimings.html#a4dc59d29cbbbc539305dfa472f2e0f52" target="_top" xlink:title=" ">
<polygon fill="white" stroke="black" points="2.5,-76.5 2.5,-95.5 85.5,-95.5 85.5,-76.5 2.5,-76.5"/>
<text text-anchor="middle" x="44" y="-83.5" font-family="Helvetica,sans-Serif" font-size="10.00">Timings.main</text>
</a>
</g>
</g>
<!-- Node12&#45;&gt;Node14 -->
<g id="edge16" class="edge">
<title>Node12&#45;&gt;Node14</title>
<path fill="none" stroke="midnightblue" d="M368.18,-86C305.32,-86 157.49,-86 85.63,-86"/>
<polygon fill="midnightblue" stroke="midnightblue" points="368.55,-89.5 378.55,-86 368.55,-82.5 368.55,-89.5"/>
</g>
<!-- Node13&#45;&gt;Node14 -->
<g id="edge15" class="edge">
<title>Node13&#45;&gt;Node14</title>
<path fill="none" stroke="midnightblue" d="M113.56,-94.22C103.8,-93.05 94.26,-91.9 85.54,-90.86"/>
<polygon fill="midnightblue" stroke="midnightblue" points="113.44,-97.73 123.79,-95.44 114.27,-90.78 113.44,-97.73"/>
</g>
<!-- Node15&#45;&gt;Node10 -->
<g id="edge18" class="edge">
<title>Node15&#45;&gt;Node10</title>
<path fill="none" stroke="midnightblue" d="M443.74,-54.22C466.29,-55.05 493.31,-54.91 514.33,-53.8"/>
<polygon fill="midnightblue" stroke="midnightblue" points="443.87,-50.73 433.73,-53.78 443.56,-57.72 443.87,-50.73"/>
</g>
<!-- Node16&#45;&gt;Node10 -->
<g id="edge20" class="edge">
<title>Node16&#45;&gt;Node10</title>
<path fill="none" stroke="midnightblue" d="M421.84,-23.09C437.1,-28.24 457.79,-33.37 476,-38 488.56,-41.2 502.33,-44.76 514.49,-47.41"/>
<polygon fill="midnightblue" stroke="midnightblue" points="422.83,-19.72 412.23,-19.53 420.39,-26.29 422.83,-19.72"/>
</g>
</g>
</svg>
