<?xml version="1.0" encoding="UTF-8" standalone="no"?>
<!DOCTYPE svg PUBLIC "-//W3C//DTD SVG 1.1//EN"
 "http://www.w3.org/Graphics/SVG/1.1/DTD/svg11.dtd">
<!-- Generated by graphviz version 2.43.0 (0)
 -->
<!-- Title: print_object Pages: 1 -->
<svg width="715pt" height="307pt"
 viewBox="0.00 0.00 715.00 306.91" xmlns="http://www.w3.org/2000/svg" xmlns:xlink="http://www.w3.org/1999/xlink">
<g id="graph0" class="graph" transform="scale(1 1) rotate(0) translate(4 302.91)">
<title>print_object</title>
<!-- Node1 -->
<g id="Node000001" class="node">
<title>Node1</title>
<g id="a_Node000001"><a xlink:title=" ">
<polygon fill="#999999" stroke="#666666" points="74,-128.99 0,-128.99 0,-109.99 74,-109.99 74,-128.99"/>
<text text-anchor="middle" x="37" y="-116.99" font-family="Helvetica,sans-Serif" font-size="10.00">print_object</text>
</a>
</g>
</g>
<!-- Node2 -->
<g id="Node000002" class="node">
<title>Node2</title>
<g id="a_Node000002"><a xlink:href="cJSON_8c.html#ad9f9a9b2ad3154fc8033756f23c023a6" target="_top" xlink:title=" ">
<polygon fill="white" stroke="#666666" points="528,-128.99 478,-128.99 478,-109.99 528,-109.99 528,-128.99"/>
<text text-anchor="middle" x="503" y="-116.99" font-family="Helvetica,sans-Serif" font-size="10.00">ensure</text>
</a>
</g>
</g>
<!-- Node1&#45;&gt;Node2 -->
<g id="edge1_Node000001_Node000002" class="edge">
<title>Node1&#45;&gt;Node2</title>
<g id="a_edge1_Node000001_Node000002"><a xlink:title=" ">
<path fill="none" stroke="#63b8ff" d="M51.48,-109.85C104.59,-73.13 303.18,52.02 442,-24.49 471.2,-40.59 488.16,-77.54 496.2,-100.33"/>
<polygon fill="#63b8ff" stroke="#63b8ff" points="492.92,-101.54 499.37,-109.94 499.56,-99.35 492.92,-101.54"/>
</a>
</g>
</g>
<!-- Node5 -->
<g id="Node000005" class="node">
<title>Node5</title>
<g id="a_Node000005"><a xlink:href="cJSON_8c.html#af5b4e769356f10d99a7f66697c42c1bb" target="_top" xlink:title=" ">
<polygon fill="white" stroke="#666666" points="434,-279.99 343,-279.99 343,-260.99 434,-260.99 434,-279.99"/>
<text text-anchor="middle" x="388.5" y="-267.99" font-family="Helvetica,sans-Serif" font-size="10.00">print_string_ptr</text>
</a>
</g>
</g>
<!-- Node1&#45;&gt;Node5 -->
<g id="edge4_Node000001_Node000005" class="edge">
<title>Node1&#45;&gt;Node5</title>
<g id="a_edge4_Node000001_Node000005"><a xlink:title=" ">
<path fill="none" stroke="#63b8ff" d="M44.28,-129.41C64.6,-160.44 132.22,-255.65 217,-289.49 261.94,-307.43 318.51,-294.95 353.85,-283.43"/>
<polygon fill="#63b8ff" stroke="#63b8ff" points="355.33,-286.63 363.66,-280.08 353.06,-280 355.33,-286.63"/>
</a>
</g>
</g>
<!-- Node6 -->
<g id="Node000006" class="node">
<title>Node6</title>
<g id="a_Node000006"><a xlink:href="cJSON_8c.html#a5ba141f183b9abb4b49e38a211299c7e" target="_top" xlink:title=" ">
<polygon fill="white" stroke="#666666" points="181,-128.99 110,-128.99 110,-109.99 181,-109.99 181,-128.99"/>
<text text-anchor="middle" x="145.5" y="-116.99" font-family="Helvetica,sans-Serif" font-size="10.00">print_value</text>
</a>
</g>
</g>
<!-- Node1&#45;&gt;Node6 -->
<g id="edge6_Node000001_Node000006" class="edge">
<title>Node1&#45;&gt;Node6</title>
<g id="a_edge6_Node000001_Node000006"><a xlink:title=" ">
<path fill="none" stroke="#63b8ff" d="M74.06,-113.07C82.29,-112.75 91.15,-112.66 99.7,-112.82"/>
<polygon fill="#63b8ff" stroke="#63b8ff" points="99.82,-116.32 109.92,-113.13 100.03,-109.33 99.82,-116.32"/>
</a>
</g>
</g>
<!-- Node8 -->
<g id="Node000008" class="node">
<title>Node8</title>
<g id="a_Node000008"><a xlink:href="cJSON_8c.html#af5fb173126786c1e3f90b6df6e2500c5" target="_top" xlink:title=" ">
<polygon fill="white" stroke="#666666" points="430,-52.99 347,-52.99 347,-33.99 430,-33.99 430,-52.99"/>
<text text-anchor="middle" x="388.5" y="-40.99" font-family="Helvetica,sans-Serif" font-size="10.00">update_offset</text>
</a>
</g>
</g>
<!-- Node1&#45;&gt;Node8 -->
<g id="edge19_Node000001_Node000008" class="edge">
<title>Node1&#45;&gt;Node8</title>
<g id="a_edge19_Node000001_Node000008"><a xlink:title=" ">
<path fill="none" stroke="#63b8ff" d="M72.69,-109.92C84.5,-106.78 97.79,-103.36 110,-100.49 188.89,-82 281.17,-63.7 336.93,-53.01"/>
<polygon fill="#63b8ff" stroke="#63b8ff" points="337.74,-56.42 346.9,-51.1 336.42,-49.54 337.74,-56.42"/>
</a>
</g>
</g>
<!-- Node3 -->
<g id="Node000003" class="node">
<title>Node3</title>
<g id="a_Node000003"><a xlink:href="structinternal__hooks.html#a8b8f7ff45faa5da18dd3ccd2a2c8e416" target="_top" xlink:title=" ">
<polygon fill="white" stroke="#666666" points="702.5,-147.99 568.5,-147.99 568.5,-128.99 702.5,-128.99 702.5,-147.99"/>
<text text-anchor="middle" x="635.5" y="-135.99" font-family="Helvetica,sans-Serif" font-size="10.00">internal_hooks::allocate</text>
</a>
</g>
</g>
<!-- Node2&#45;&gt;Node3 -->
<g id="edge2_Node000002_Node000003" class="edge">
<title>Node2&#45;&gt;Node3</title>
<g id="a_edge2_Node000002_Node000003"><a xlink:title=" ">
<path fill="none" stroke="#63b8ff" d="M528.24,-123.02C537.16,-124.32 547.79,-125.87 558.84,-127.48"/>
<polygon fill="#63b8ff" stroke="#63b8ff" points="558.65,-130.99 569.05,-128.96 559.66,-124.06 558.65,-130.99"/>
</a>
</g>
</g>
<!-- Node4 -->
<g id="Node000004" class="node">
<title>Node4</title>
<g id="a_Node000004"><a xlink:href="structinternal__hooks.html#a7c3921493fab83f33cd509145d8a5393" target="_top" xlink:title=" ">
<polygon fill="white" stroke="#666666" points="707,-110.99 564,-110.99 564,-91.99 707,-91.99 707,-110.99"/>
<text text-anchor="middle" x="635.5" y="-98.99" font-family="Helvetica,sans-Serif" font-size="10.00">internal_hooks::reallocate</text>
</a>
</g>
</g>
<!-- Node2&#45;&gt;Node4 -->
<g id="edge3_Node000002_Node000004" class="edge">
<title>Node2&#45;&gt;Node4</title>
<g id="a_edge3_Node000002_Node000004"><a xlink:title=" ">
<path fill="none" stroke="#63b8ff" d="M528.24,-116.15C536.26,-115.04 545.66,-113.75 555.5,-112.39"/>
<polygon fill="#63b8ff" stroke="#63b8ff" points="556.03,-115.85 565.45,-111.02 555.07,-108.92 556.03,-115.85"/>
</a>
</g>
</g>
<!-- Node5&#45;&gt;Node2 -->
<g id="edge5_Node000005_Node000002" class="edge">
<title>Node5&#45;&gt;Node2</title>
<g id="a_edge5_Node000005_Node000002"><a xlink:title=" ">
<path fill="none" stroke="#63b8ff" d="M419.82,-260.93C427.75,-257.35 435.8,-252.62 442,-246.49 472.96,-215.92 489.91,-166.28 497.34,-138.99"/>
<polygon fill="#63b8ff" stroke="#63b8ff" points="500.78,-139.65 499.88,-129.1 494,-137.91 500.78,-139.65"/>
</a>
</g>
</g>
<!-- Node6&#45;&gt;Node1 -->
<g id="edge16_Node000006_Node000001" class="edge">
<title>Node6&#45;&gt;Node1</title>
<g id="a_edge16_Node000006_Node000001"><a xlink:title=" ">
<path fill="none" stroke="#63b8ff" d="M109.92,-125.86C101.67,-126.21 92.74,-126.32 84.06,-126.19"/>
<polygon fill="#63b8ff" stroke="#63b8ff" points="84.15,-122.69 74.06,-125.92 83.96,-129.69 84.15,-122.69"/>
</a>
</g>
</g>
<!-- Node6&#45;&gt;Node2 -->
<g id="edge7_Node000006_Node000002" class="edge">
<title>Node6&#45;&gt;Node2</title>
<g id="a_edge7_Node000006_Node000002"><a xlink:title=" ">
<path fill="none" stroke="#63b8ff" d="M160.29,-129.21C190.3,-149.67 264.51,-196.62 335,-212.49 381.39,-222.94 400.24,-235.25 442,-212.49 470.69,-196.86 487.74,-160.95 495.96,-138.61"/>
<polygon fill="#63b8ff" stroke="#63b8ff" points="499.27,-139.74 499.2,-129.15 492.65,-137.47 499.27,-139.74"/>
</a>
</g>
</g>
<!-- Node7 -->
<g id="Node000007" class="node">
<title>Node7</title>
<g id="a_Node000007"><a xlink:href="cJSON_8c.html#ae84642817f3965a85c7c617663250c16" target="_top" xlink:title=" ">
<polygon fill="white" stroke="#666666" points="293,-110.99 223,-110.99 223,-91.99 293,-91.99 293,-110.99"/>
<text text-anchor="middle" x="258" y="-98.99" font-family="Helvetica,sans-Serif" font-size="10.00">print_array</text>
</a>
</g>
</g>
<!-- Node6&#45;&gt;Node7 -->
<g id="edge8_Node000006_Node000007" class="edge">
<title>Node6&#45;&gt;Node7</title>
<g id="a_edge8_Node000006_Node000007"><a xlink:title=" ">
<path fill="none" stroke="#63b8ff" d="M170.21,-109.97C182.55,-107 198.07,-104.14 212.55,-102.1"/>
<polygon fill="#63b8ff" stroke="#63b8ff" points="213.38,-105.52 222.85,-100.76 212.48,-98.58 213.38,-105.52"/>
</a>
</g>
</g>
<!-- Node9 -->
<g id="Node000009" class="node">
<title>Node9</title>
<g id="a_Node000009"><a xlink:href="cJSON_8c.html#ad93d84de08872da0eaa6624be0e74a68" target="_top" xlink:title=" ">
<polygon fill="white" stroke="#666666" points="299,-147.99 217,-147.99 217,-128.99 299,-128.99 299,-147.99"/>
<text text-anchor="middle" x="258" y="-135.99" font-family="Helvetica,sans-Serif" font-size="10.00">print_number</text>
</a>
</g>
</g>
<!-- Node6&#45;&gt;Node9 -->
<g id="edge12_Node000006_Node000009" class="edge">
<title>Node6&#45;&gt;Node9</title>
<g id="a_edge12_Node000006_Node000009"><a xlink:title=" ">
<path fill="none" stroke="#63b8ff" d="M181.16,-125.45C189.26,-126.85 198.04,-128.36 206.67,-129.84"/>
<polygon fill="#63b8ff" stroke="#63b8ff" points="206.22,-133.31 216.67,-131.56 207.41,-126.41 206.22,-133.31"/>
</a>
</g>
</g>
<!-- Node12 -->
<g id="Node000012" class="node">
<title>Node12</title>
<g id="a_Node000012"><a xlink:href="cJSON_8c.html#ad087dd738e49b4258f0a3d378a121df6" target="_top" xlink:title=" ">
<polygon fill="white" stroke="#666666" points="294,-279.99 222,-279.99 222,-260.99 294,-260.99 294,-279.99"/>
<text text-anchor="middle" x="258" y="-267.99" font-family="Helvetica,sans-Serif" font-size="10.00">print_string</text>
</a>
</g>
</g>
<!-- Node6&#45;&gt;Node12 -->
<g id="edge17_Node000006_Node000012" class="edge">
<title>Node6&#45;&gt;Node12</title>
<g id="a_edge17_Node000006_Node000012"><a xlink:title=" ">
<path fill="none" stroke="#63b8ff" d="M149.86,-129.17C158.17,-151.97 181.59,-209.87 217,-246.49 220.19,-249.79 223.93,-252.81 227.81,-255.5"/>
<polygon fill="#63b8ff" stroke="#63b8ff" points="226.07,-258.54 236.4,-260.87 229.78,-252.6 226.07,-258.54"/>
</a>
</g>
</g>
<!-- Node7&#45;&gt;Node2 -->
<g id="edge9_Node000007_Node000002" class="edge">
<title>Node7&#45;&gt;Node2</title>
<g id="a_edge9_Node000007_Node000002"><a xlink:title=" ">
<path fill="none" stroke="#63b8ff" d="M293.22,-100.13C330.1,-99.16 390.45,-98.99 442,-105.49 450.53,-106.57 459.61,-108.35 468.06,-110.28"/>
<polygon fill="#63b8ff" stroke="#63b8ff" points="467.43,-113.73 477.98,-112.68 469.08,-106.93 467.43,-113.73"/>
</a>
</g>
</g>
<!-- Node7&#45;&gt;Node6 -->
<g id="edge10_Node000007_Node000006" class="edge">
<title>Node7&#45;&gt;Node6</title>
<g id="a_edge10_Node000007_Node000006"><a xlink:title=" ">
<path fill="none" stroke="#63b8ff" d="M233.3,-111.01C221.07,-113.96 205.75,-116.78 191.39,-118.82"/>
<polygon fill="#63b8ff" stroke="#63b8ff" points="190.62,-115.39 181.16,-120.16 191.53,-122.34 190.62,-115.39"/>
</a>
</g>
</g>
<!-- Node7&#45;&gt;Node8 -->
<g id="edge11_Node000007_Node000008" class="edge">
<title>Node7&#45;&gt;Node8</title>
<g id="a_edge11_Node000007_Node000008"><a xlink:title=" ">
<path fill="none" stroke="#63b8ff" d="M280.22,-91.92C301.15,-82.47 333.34,-67.94 357.01,-57.26"/>
<polygon fill="#63b8ff" stroke="#63b8ff" points="358.57,-60.39 366.25,-53.08 355.69,-54.01 358.57,-60.39"/>
</a>
</g>
</g>
<!-- Node9&#45;&gt;Node2 -->
<g id="edge14_Node000009_Node000002" class="edge">
<title>Node9&#45;&gt;Node2</title>
<g id="a_edge14_Node000009_Node000002"><a xlink:title=" ">
<path fill="none" stroke="#63b8ff" d="M299.13,-135.36C346.18,-131.68 423.35,-125.64 467.72,-122.17"/>
<polygon fill="#63b8ff" stroke="#63b8ff" points="468.03,-125.66 477.72,-121.39 467.48,-118.68 468.03,-125.66"/>
</a>
</g>
</g>
<!-- Node10 -->
<g id="Node000010" class="node">
<title>Node10</title>
<g id="a_Node000010"><a xlink:href="cJSON_8c.html#aa7a85b63f1830e7e666e1f56872d5d3e" target="_top" xlink:title=" ">
<polygon fill="white" stroke="#666666" points="437.5,-203.99 339.5,-203.99 339.5,-184.99 437.5,-184.99 437.5,-203.99"/>
<text text-anchor="middle" x="388.5" y="-191.99" font-family="Helvetica,sans-Serif" font-size="10.00">compare_double</text>
</a>
</g>
</g>
<!-- Node9&#45;&gt;Node10 -->
<g id="edge13_Node000009_Node000010" class="edge">
<title>Node9&#45;&gt;Node10</title>
<g id="a_edge13_Node000009_Node000010"><a xlink:title=" ">
<path fill="none" stroke="#63b8ff" d="M277.18,-148.02C292.42,-155.84 314.86,-166.98 335,-175.49 339.79,-177.52 344.87,-179.53 349.92,-181.44"/>
<polygon fill="#63b8ff" stroke="#63b8ff" points="348.9,-184.8 359.5,-184.98 351.33,-178.23 348.9,-184.8"/>
</a>
</g>
</g>
<!-- Node11 -->
<g id="Node000011" class="node">
<title>Node11</title>
<g id="a_Node000011"><a xlink:href="cJSON_8c.html#ab25412ae56c8c594831918169bea100d" target="_top" xlink:title=" ">
<polygon fill="white" stroke="#666666" points="442,-166.99 335,-166.99 335,-147.99 442,-147.99 442,-166.99"/>
<text text-anchor="middle" x="388.5" y="-154.99" font-family="Helvetica,sans-Serif" font-size="10.00">get_decimal_point</text>
</a>
</g>
</g>
<!-- Node9&#45;&gt;Node11 -->
<g id="edge15_Node000009_Node000011" class="edge">
<title>Node9&#45;&gt;Node11</title>
<g id="a_edge15_Node000009_Node000011"><a xlink:title=" ">
<path fill="none" stroke="#63b8ff" d="M299.31,-144.45C307.35,-145.64 315.97,-146.92 324.57,-148.19"/>
<polygon fill="#63b8ff" stroke="#63b8ff" points="324.2,-151.67 334.6,-149.67 325.22,-144.75 324.2,-151.67"/>
</a>
</g>
</g>
<!-- Node12&#45;&gt;Node5 -->
<g id="edge18_Node000012_Node000005" class="edge">
<title>Node12&#45;&gt;Node5</title>
<g id="a_edge18_Node000012_Node000005"><a xlink:title=" ">
<path fill="none" stroke="#63b8ff" d="M294.11,-270.49C305.96,-270.49 319.48,-270.49 332.48,-270.49"/>
<polygon fill="#63b8ff" stroke="#63b8ff" points="332.76,-273.99 342.76,-270.49 332.76,-266.99 332.76,-273.99"/>
</a>
</g>
</g>
</g>
</svg>
