<?xml version="1.0" encoding="UTF-8" standalone="no"?>
<!DOCTYPE svg PUBLIC "-//W3C//DTD SVG 1.1//EN"
 "http://www.w3.org/Graphics/SVG/1.1/DTD/svg11.dtd">
<!-- Generated by graphviz version 2.43.0 (0)
 -->
<!-- Title: cJSON_PrintPreallocated Pages: 1 -->
<svg width="775pt" height="278pt"
 viewBox="0.00 0.00 775.00 278.08" xmlns="http://www.w3.org/2000/svg" xmlns:xlink="http://www.w3.org/1999/xlink">
<g id="graph0" class="graph" transform="scale(1 1) rotate(0) translate(4 274.08)">
<title>cJSON_PrintPreallocated</title>
<!-- Node1 -->
<g id="Node000001" class="node">
<title>Node1</title>
<g id="a_Node000001"><a xlink:title=" ">
<polygon fill="#999999" stroke="#666666" points="134,-167.08 0,-167.08 0,-148.08 134,-148.08 134,-167.08"/>
<text text-anchor="middle" x="67" y="-155.08" font-family="Helvetica,sans-Serif" font-size="10.00">cJSON_PrintPreallocated</text>
</a>
</g>
</g>
<!-- Node2 -->
<g id="Node000002" class="node">
<title>Node2</title>
<g id="a_Node000002"><a xlink:href="cJSON_8c.html#a5ba141f183b9abb4b49e38a211299c7e" target="_top" xlink:title=" ">
<polygon fill="white" stroke="#666666" points="241,-167.08 170,-167.08 170,-148.08 241,-148.08 241,-167.08"/>
<text text-anchor="middle" x="205.5" y="-155.08" font-family="Helvetica,sans-Serif" font-size="10.00">print_value</text>
</a>
</g>
</g>
<!-- Node1&#45;&gt;Node2 -->
<g id="edge1_Node000001_Node000002" class="edge">
<title>Node1&#45;&gt;Node2</title>
<g id="a_edge1_Node000001_Node000002"><a xlink:title=" ">
<path fill="none" stroke="#63b8ff" d="M134.25,-157.58C142.94,-157.58 151.68,-157.58 159.89,-157.58"/>
<polygon fill="#63b8ff" stroke="#63b8ff" points="159.98,-161.08 169.98,-157.58 159.98,-154.08 159.98,-161.08"/>
</a>
</g>
</g>
<!-- Node3 -->
<g id="Node000003" class="node">
<title>Node3</title>
<g id="a_Node000003"><a xlink:href="cJSON_8c.html#ad9f9a9b2ad3154fc8033756f23c023a6" target="_top" xlink:title=" ">
<polygon fill="white" stroke="#666666" points="588,-156.08 538,-156.08 538,-137.08 588,-137.08 588,-156.08"/>
<text text-anchor="middle" x="563" y="-144.08" font-family="Helvetica,sans-Serif" font-size="10.00">ensure</text>
</a>
</g>
</g>
<!-- Node2&#45;&gt;Node3 -->
<g id="edge2_Node000002_Node000003" class="edge">
<title>Node2&#45;&gt;Node3</title>
<g id="a_edge2_Node000002_Node000003"><a xlink:title=" ">
<path fill="none" stroke="#63b8ff" d="M212.4,-147.9C223.31,-130.65 248.18,-94.27 277,-71.58 322.76,-35.55 338.23,-27.57 395,-14.58 441.36,-3.97 462.02,11.17 502,-14.58 540.85,-39.59 554.83,-96.6 559.64,-126.86"/>
<polygon fill="#63b8ff" stroke="#63b8ff" points="556.21,-127.61 561.06,-137.02 563.14,-126.63 556.21,-127.61"/>
</a>
</g>
</g>
<!-- Node6 -->
<g id="Node000006" class="node">
<title>Node6</title>
<g id="a_Node000006"><a xlink:href="cJSON_8c.html#ae84642817f3965a85c7c617663250c16" target="_top" xlink:title=" ">
<polygon fill="white" stroke="#666666" points="353,-167.08 283,-167.08 283,-148.08 353,-148.08 353,-167.08"/>
<text text-anchor="middle" x="318" y="-155.08" font-family="Helvetica,sans-Serif" font-size="10.00">print_array</text>
</a>
</g>
</g>
<!-- Node2&#45;&gt;Node6 -->
<g id="edge5_Node000002_Node000006" class="edge">
<title>Node2&#45;&gt;Node6</title>
<g id="a_edge5_Node000002_Node000006"><a xlink:title=" ">
<path fill="none" stroke="#63b8ff" d="M241.16,-151.26C251.13,-150.82 262.14,-150.72 272.61,-150.95"/>
<polygon fill="#63b8ff" stroke="#63b8ff" points="272.73,-154.45 282.84,-151.29 272.96,-147.46 272.73,-154.45"/>
</a>
</g>
</g>
<!-- Node8 -->
<g id="Node000008" class="node">
<title>Node8</title>
<g id="a_Node000008"><a xlink:href="cJSON_8c.html#ad93d84de08872da0eaa6624be0e74a68" target="_top" xlink:title=" ">
<polygon fill="white" stroke="#666666" points="359,-99.08 277,-99.08 277,-80.08 359,-80.08 359,-99.08"/>
<text text-anchor="middle" x="318" y="-87.08" font-family="Helvetica,sans-Serif" font-size="10.00">print_number</text>
</a>
</g>
</g>
<!-- Node2&#45;&gt;Node8 -->
<g id="edge9_Node000002_Node000008" class="edge">
<title>Node2&#45;&gt;Node8</title>
<g id="a_edge9_Node000002_Node000008"><a xlink:title=" ">
<path fill="none" stroke="#63b8ff" d="M222.33,-147.84C240.82,-136.46 271.58,-117.53 293.01,-104.34"/>
<polygon fill="#63b8ff" stroke="#63b8ff" points="294.87,-107.31 301.55,-99.08 291.2,-101.35 294.87,-107.31"/>
</a>
</g>
</g>
<!-- Node11 -->
<g id="Node000011" class="node">
<title>Node11</title>
<g id="a_Node000011"><a xlink:href="cJSON_8c.html#a3d742f5c68799bca291432a9cd72f8dd" target="_top" xlink:title=" ">
<polygon fill="white" stroke="#666666" points="355,-204.08 281,-204.08 281,-185.08 355,-185.08 355,-204.08"/>
<text text-anchor="middle" x="318" y="-192.08" font-family="Helvetica,sans-Serif" font-size="10.00">print_object</text>
</a>
</g>
</g>
<!-- Node2&#45;&gt;Node11 -->
<g id="edge13_Node000002_Node000011" class="edge">
<title>Node2&#45;&gt;Node11</title>
<g id="a_edge13_Node000002_Node000011"><a xlink:title=" ">
<path fill="none" stroke="#63b8ff" d="M241.16,-162.87C258.19,-167.82 278.26,-174.77 293.48,-181.06"/>
<polygon fill="#63b8ff" stroke="#63b8ff" points="292.13,-184.29 302.7,-185.08 294.93,-177.87 292.13,-184.29"/>
</a>
</g>
</g>
<!-- Node13 -->
<g id="Node000013" class="node">
<title>Node13</title>
<g id="a_Node000013"><a xlink:href="cJSON_8c.html#ad087dd738e49b4258f0a3d378a121df6" target="_top" xlink:title=" ">
<polygon fill="white" stroke="#666666" points="354,-260.08 282,-260.08 282,-241.08 354,-241.08 354,-260.08"/>
<text text-anchor="middle" x="318" y="-248.08" font-family="Helvetica,sans-Serif" font-size="10.00">print_string</text>
</a>
</g>
</g>
<!-- Node2&#45;&gt;Node13 -->
<g id="edge19_Node000002_Node000013" class="edge">
<title>Node2&#45;&gt;Node13</title>
<g id="a_edge19_Node000002_Node000013"><a xlink:title=" ">
<path fill="none" stroke="#63b8ff" d="M217.91,-167.18C236.77,-183.05 274.64,-214.93 297.72,-234.35"/>
<polygon fill="#63b8ff" stroke="#63b8ff" points="295.58,-237.13 305.49,-240.89 300.09,-231.77 295.58,-237.13"/>
</a>
</g>
</g>
<!-- Node4 -->
<g id="Node000004" class="node">
<title>Node4</title>
<g id="a_Node000004"><a xlink:href="structinternal__hooks.html#a8b8f7ff45faa5da18dd3ccd2a2c8e416" target="_top" xlink:title=" ">
<polygon fill="white" stroke="#666666" points="762.5,-175.08 628.5,-175.08 628.5,-156.08 762.5,-156.08 762.5,-175.08"/>
<text text-anchor="middle" x="695.5" y="-163.08" font-family="Helvetica,sans-Serif" font-size="10.00">internal_hooks::allocate</text>
</a>
</g>
</g>
<!-- Node3&#45;&gt;Node4 -->
<g id="edge3_Node000003_Node000004" class="edge">
<title>Node3&#45;&gt;Node4</title>
<g id="a_edge3_Node000003_Node000004"><a xlink:title=" ">
<path fill="none" stroke="#63b8ff" d="M588.24,-150.11C597.16,-151.41 607.79,-152.96 618.84,-154.56"/>
<polygon fill="#63b8ff" stroke="#63b8ff" points="618.65,-158.07 629.05,-156.05 619.66,-151.15 618.65,-158.07"/>
</a>
</g>
</g>
<!-- Node5 -->
<g id="Node000005" class="node">
<title>Node5</title>
<g id="a_Node000005"><a xlink:href="structinternal__hooks.html#a7c3921493fab83f33cd509145d8a5393" target="_top" xlink:title=" ">
<polygon fill="white" stroke="#666666" points="767,-138.08 624,-138.08 624,-119.08 767,-119.08 767,-138.08"/>
<text text-anchor="middle" x="695.5" y="-126.08" font-family="Helvetica,sans-Serif" font-size="10.00">internal_hooks::reallocate</text>
</a>
</g>
</g>
<!-- Node3&#45;&gt;Node5 -->
<g id="edge4_Node000003_Node000005" class="edge">
<title>Node3&#45;&gt;Node5</title>
<g id="a_edge4_Node000003_Node000005"><a xlink:title=" ">
<path fill="none" stroke="#63b8ff" d="M588.24,-143.24C596.26,-142.13 605.66,-140.83 615.5,-139.48"/>
<polygon fill="#63b8ff" stroke="#63b8ff" points="616.03,-142.94 625.45,-138.1 615.07,-136 616.03,-142.94"/>
</a>
</g>
</g>
<!-- Node6&#45;&gt;Node2 -->
<g id="edge7_Node000006_Node000002" class="edge">
<title>Node6&#45;&gt;Node2</title>
<g id="a_edge7_Node000006_Node000002"><a xlink:title=" ">
<path fill="none" stroke="#63b8ff" d="M282.84,-163.87C272.91,-164.32 261.91,-164.44 251.42,-164.22"/>
<polygon fill="#63b8ff" stroke="#63b8ff" points="251.27,-160.72 241.16,-163.89 251.04,-167.71 251.27,-160.72"/>
</a>
</g>
</g>
<!-- Node6&#45;&gt;Node3 -->
<g id="edge6_Node000006_Node000003" class="edge">
<title>Node6&#45;&gt;Node3</title>
<g id="a_edge6_Node000006_Node000003"><a xlink:title=" ">
<path fill="none" stroke="#63b8ff" d="M353.04,-156.04C399.21,-153.95 481.22,-150.24 527.59,-148.14"/>
<polygon fill="#63b8ff" stroke="#63b8ff" points="527.9,-151.63 537.74,-147.68 527.59,-144.63 527.9,-151.63"/>
</a>
</g>
</g>
<!-- Node7 -->
<g id="Node000007" class="node">
<title>Node7</title>
<g id="a_Node000007"><a xlink:href="cJSON_8c.html#af5fb173126786c1e3f90b6df6e2500c5" target="_top" xlink:title=" ">
<polygon fill="white" stroke="#666666" points="490,-194.08 407,-194.08 407,-175.08 490,-175.08 490,-194.08"/>
<text text-anchor="middle" x="448.5" y="-182.08" font-family="Helvetica,sans-Serif" font-size="10.00">update_offset</text>
</a>
</g>
</g>
<!-- Node6&#45;&gt;Node7 -->
<g id="edge8_Node000006_Node000007" class="edge">
<title>Node6&#45;&gt;Node7</title>
<g id="a_edge8_Node000006_Node000007"><a xlink:title=" ">
<path fill="none" stroke="#63b8ff" d="M353.1,-164.74C366.51,-167.56 382.19,-170.86 396.87,-173.94"/>
<polygon fill="#63b8ff" stroke="#63b8ff" points="396.33,-177.4 406.84,-176.04 397.77,-170.55 396.33,-177.4"/>
</a>
</g>
</g>
<!-- Node8&#45;&gt;Node3 -->
<g id="edge11_Node000008_Node000003" class="edge">
<title>Node8&#45;&gt;Node3</title>
<g id="a_edge11_Node000008_Node000003"><a xlink:title=" ">
<path fill="none" stroke="#63b8ff" d="M359.13,-98.99C406.18,-110.03 483.35,-128.13 527.72,-138.54"/>
<polygon fill="#63b8ff" stroke="#63b8ff" points="527.19,-142.01 537.72,-140.89 528.79,-135.19 527.19,-142.01"/>
</a>
</g>
</g>
<!-- Node9 -->
<g id="Node000009" class="node">
<title>Node9</title>
<g id="a_Node000009"><a xlink:href="cJSON_8c.html#aa7a85b63f1830e7e666e1f56872d5d3e" target="_top" xlink:title=" ">
<polygon fill="white" stroke="#666666" points="497.5,-80.08 399.5,-80.08 399.5,-61.08 497.5,-61.08 497.5,-80.08"/>
<text text-anchor="middle" x="448.5" y="-68.08" font-family="Helvetica,sans-Serif" font-size="10.00">compare_double</text>
</a>
</g>
</g>
<!-- Node8&#45;&gt;Node9 -->
<g id="edge10_Node000008_Node000009" class="edge">
<title>Node8&#45;&gt;Node9</title>
<g id="a_edge10_Node000008_Node000009"><a xlink:title=" ">
<path fill="none" stroke="#63b8ff" d="M359.31,-83.62C368.8,-82.22 379.11,-80.69 389.22,-79.2"/>
<polygon fill="#63b8ff" stroke="#63b8ff" points="389.85,-82.64 399.23,-77.72 388.82,-75.72 389.85,-82.64"/>
</a>
</g>
</g>
<!-- Node10 -->
<g id="Node000010" class="node">
<title>Node10</title>
<g id="a_Node000010"><a xlink:href="cJSON_8c.html#ab25412ae56c8c594831918169bea100d" target="_top" xlink:title=" ">
<polygon fill="white" stroke="#666666" points="502,-43.08 395,-43.08 395,-24.08 502,-24.08 502,-43.08"/>
<text text-anchor="middle" x="448.5" y="-31.08" font-family="Helvetica,sans-Serif" font-size="10.00">get_decimal_point</text>
</a>
</g>
</g>
<!-- Node8&#45;&gt;Node10 -->
<g id="edge12_Node000008_Node000010" class="edge">
<title>Node8&#45;&gt;Node10</title>
<g id="a_edge12_Node000008_Node000010"><a xlink:title=" ">
<path fill="none" stroke="#63b8ff" d="M337.18,-80.06C352.42,-72.23 374.86,-61.1 395,-52.58 399.79,-50.55 404.87,-48.54 409.92,-46.63"/>
<polygon fill="#63b8ff" stroke="#63b8ff" points="411.33,-49.84 419.5,-43.09 408.9,-43.28 411.33,-49.84"/>
</a>
</g>
</g>
<!-- Node11&#45;&gt;Node2 -->
<g id="edge17_Node000011_Node000002" class="edge">
<title>Node11&#45;&gt;Node2</title>
<g id="a_edge17_Node000011_Node000002"><a xlink:title=" ">
<path fill="none" stroke="#63b8ff" d="M280.68,-188.8C264.13,-183.92 245,-177.28 230.32,-171.22"/>
<polygon fill="#63b8ff" stroke="#63b8ff" points="231.51,-167.92 220.95,-167.15 228.72,-174.34 231.51,-167.92"/>
</a>
</g>
</g>
<!-- Node11&#45;&gt;Node3 -->
<g id="edge14_Node000011_Node000003" class="edge">
<title>Node11&#45;&gt;Node3</title>
<g id="a_edge14_Node000011_Node000003"><a xlink:title=" ">
<path fill="none" stroke="#63b8ff" d="M351.75,-204.15C389.44,-213.39 452.52,-223.34 502,-203.58 521.7,-195.71 538.64,-177.96 549.44,-164.34"/>
<polygon fill="#63b8ff" stroke="#63b8ff" points="552.4,-166.23 555.63,-156.13 546.81,-162.01 552.4,-166.23"/>
</a>
</g>
</g>
<!-- Node11&#45;&gt;Node7 -->
<g id="edge18_Node000011_Node000007" class="edge">
<title>Node11&#45;&gt;Node7</title>
<g id="a_edge18_Node000011_Node000007"><a xlink:title=" ">
<path fill="none" stroke="#63b8ff" d="M355.14,-191.77C367.91,-190.77 382.54,-189.63 396.33,-188.56"/>
<polygon fill="#63b8ff" stroke="#63b8ff" points="396.96,-192.02 406.66,-187.76 396.42,-185.04 396.96,-192.02"/>
</a>
</g>
</g>
<!-- Node12 -->
<g id="Node000012" class="node">
<title>Node12</title>
<g id="a_Node000012"><a xlink:href="cJSON_8c.html#af5b4e769356f10d99a7f66697c42c1bb" target="_top" xlink:title=" ">
<polygon fill="white" stroke="#666666" points="494,-270.08 403,-270.08 403,-251.08 494,-251.08 494,-270.08"/>
<text text-anchor="middle" x="448.5" y="-258.08" font-family="Helvetica,sans-Serif" font-size="10.00">print_string_ptr</text>
</a>
</g>
</g>
<!-- Node11&#45;&gt;Node12 -->
<g id="edge15_Node000011_Node000012" class="edge">
<title>Node11&#45;&gt;Node12</title>
<g id="a_edge15_Node000011_Node000012"><a xlink:title=" ">
<path fill="none" stroke="#63b8ff" d="M335.41,-204.12C350.67,-212.88 374.13,-226.06 395,-236.58 401.83,-240.02 409.25,-243.54 416.31,-246.79"/>
<polygon fill="#63b8ff" stroke="#63b8ff" points="415.06,-250.07 425.61,-251.02 417.96,-243.7 415.06,-250.07"/>
</a>
</g>
</g>
<!-- Node12&#45;&gt;Node3 -->
<g id="edge16_Node000012_Node000003" class="edge">
<title>Node12&#45;&gt;Node3</title>
<g id="a_edge16_Node000012_Node000003"><a xlink:title=" ">
<path fill="none" stroke="#63b8ff" d="M477.89,-251.01C486.23,-247.34 494.98,-242.56 502,-236.58 525.37,-216.66 543.36,-185.48 553.31,-165.54"/>
<polygon fill="#63b8ff" stroke="#63b8ff" points="556.6,-166.79 557.77,-156.26 550.29,-163.76 556.6,-166.79"/>
</a>
</g>
</g>
<!-- Node13&#45;&gt;Node12 -->
<g id="edge20_Node000013_Node000012" class="edge">
<title>Node13&#45;&gt;Node12</title>
<g id="a_edge20_Node000013_Node000012"><a xlink:title=" ">
<path fill="none" stroke="#63b8ff" d="M354.11,-253.31C365.96,-254.23 379.48,-255.29 392.48,-256.3"/>
<polygon fill="#63b8ff" stroke="#63b8ff" points="392.52,-259.81 402.76,-257.1 393.06,-252.83 392.52,-259.81"/>
</a>
</g>
</g>
</g>
</svg>
