<?xml version="1.0" encoding="UTF-8" standalone="no"?>
<!DOCTYPE svg PUBLIC "-//W3C//DTD SVG 1.1//EN"
 "http://www.w3.org/Graphics/SVG/1.1/DTD/svg11.dtd">
<!-- Generated by graphviz version 2.43.0 (0)
 -->
<!-- Title: parse_object Pages: 1 -->
<svg width="658pt" height="199pt"
 viewBox="0.00 0.00 658.00 199.00" xmlns="http://www.w3.org/2000/svg" xmlns:xlink="http://www.w3.org/1999/xlink">
<g id="graph0" class="graph" transform="scale(1 1) rotate(0) translate(4 195)">
<title>parse_object</title>
<polygon fill="white" stroke="transparent" points="-4,4 -4,-195 654,-195 654,4 -4,4"/>
<!-- Node1 -->
<g id="node1" class="node">
<title>Node1</title>
<g id="a_node1"><a xlink:title=" ">
<polygon fill="#bfbfbf" stroke="black" points="0,-95.5 0,-114.5 79,-114.5 79,-95.5 0,-95.5"/>
<text text-anchor="middle" x="39.5" y="-102.5" font-family="Helvetica,sans-Serif" font-size="10.00">parse_object</text>
</a>
</g>
</g>
<!-- Node2 -->
<g id="node2" class="node">
<title>Node2</title>
<g id="a_node2"><a xlink:href="cJSON_8c.html#a029a2c33fa2744a7cc5cf061f28d2cfc" target="_top" xlink:title=" ">
<polygon fill="white" stroke="black" points="349,-171.5 349,-190.5 480,-190.5 480,-171.5 349,-171.5"/>
<text text-anchor="middle" x="414.5" y="-178.5" font-family="Helvetica,sans-Serif" font-size="10.00">buffer_skip_whitespace</text>
</a>
</g>
</g>
<!-- Node1&#45;&gt;Node2 -->
<g id="edge1" class="edge">
<title>Node1&#45;&gt;Node2</title>
<path fill="none" stroke="midnightblue" d="M66.04,-114.55C101.59,-127.44 168.26,-150.15 227,-162 263.29,-169.32 304.14,-173.89 338.34,-176.7"/>
<polygon fill="midnightblue" stroke="midnightblue" points="338.49,-180.22 348.73,-177.52 339.04,-173.24 338.49,-180.22"/>
</g>
<!-- Node3 -->
<g id="node3" class="node">
<title>Node3</title>
<g id="a_node3"><a xlink:href="cJSON_8c.html#a8f447c625af025c35d0ec59032ad6473" target="_top" xlink:title=" ">
<polygon fill="white" stroke="black" points="364,-76.5 364,-95.5 465,-95.5 465,-76.5 364,-76.5"/>
<text text-anchor="middle" x="414.5" y="-83.5" font-family="Helvetica,sans-Serif" font-size="10.00">cJSON_New_Item</text>
</a>
</g>
</g>
<!-- Node1&#45;&gt;Node3 -->
<g id="edge2" class="edge">
<title>Node1&#45;&gt;Node3</title>
<path fill="none" stroke="midnightblue" d="M70.62,-95.5C84.05,-91.73 100.17,-87.86 115,-86 197.27,-75.67 293.3,-78.26 353.75,-81.64"/>
<polygon fill="midnightblue" stroke="midnightblue" points="353.69,-85.15 363.88,-82.24 354.1,-78.16 353.69,-85.15"/>
</g>
<!-- Node5 -->
<g id="node5" class="node">
<title>Node5</title>
<g id="a_node5"><a xlink:href="cJSON_8c.html#adf47b520af96d1bbefa2390016fbdb51" target="_top" xlink:title=" ">
<polygon fill="white" stroke="black" points="231.5,-19.5 231.5,-38.5 308.5,-38.5 308.5,-19.5 231.5,-19.5"/>
<text text-anchor="middle" x="270" y="-26.5" font-family="Helvetica,sans-Serif" font-size="10.00">parse_string</text>
</a>
</g>
</g>
<!-- Node1&#45;&gt;Node5 -->
<g id="edge4" class="edge">
<title>Node1&#45;&gt;Node5</title>
<path fill="none" stroke="midnightblue" d="M51.17,-95.14C64.85,-83.11 89.83,-63.11 115,-53 148.95,-39.36 190,-33.43 221.18,-30.88"/>
<polygon fill="midnightblue" stroke="midnightblue" points="221.63,-34.35 231.35,-30.13 221.12,-27.37 221.63,-34.35"/>
</g>
<!-- Node8 -->
<g id="node8" class="node">
<title>Node8</title>
<g id="a_node8"><a xlink:href="cJSON_8c.html#afd5c0b7089e4de2fc9b2af599d4b596f" target="_top" xlink:title=" ">
<polygon fill="white" stroke="black" points="115,-95.5 115,-114.5 191,-114.5 191,-95.5 115,-95.5"/>
<text text-anchor="middle" x="153" y="-102.5" font-family="Helvetica,sans-Serif" font-size="10.00">parse_value</text>
</a>
</g>
</g>
<!-- Node1&#45;&gt;Node8 -->
<g id="edge8" class="edge">
<title>Node1&#45;&gt;Node8</title>
<path fill="none" stroke="midnightblue" d="M79.18,-98.54C87.41,-98.25 96.19,-98.18 104.7,-98.32"/>
<polygon fill="midnightblue" stroke="midnightblue" points="104.79,-101.82 114.89,-98.6 104.99,-94.83 104.79,-101.82"/>
</g>
<!-- Node4 -->
<g id="node4" class="node">
<title>Node4</title>
<g id="a_node4"><a xlink:href="structinternal__hooks.html#a872a0c28217b451331d24b8e0484b293" target="_top" xlink:title=" ">
<polygon fill="white" stroke="black" points="516,-57.5 516,-76.5 650,-76.5 650,-57.5 516,-57.5"/>
<text text-anchor="middle" x="583" y="-64.5" font-family="Helvetica,sans-Serif" font-size="10.00">internal_hooks::allocate</text>
</a>
</g>
</g>
<!-- Node3&#45;&gt;Node4 -->
<g id="edge3" class="edge">
<title>Node3&#45;&gt;Node4</title>
<path fill="none" stroke="midnightblue" d="M465,-80.35C477.81,-78.89 491.9,-77.28 505.72,-75.7"/>
<polygon fill="midnightblue" stroke="midnightblue" points="506.19,-79.17 515.73,-74.56 505.39,-72.22 506.19,-79.17"/>
</g>
<!-- Node5&#45;&gt;Node4 -->
<g id="edge5" class="edge">
<title>Node5&#45;&gt;Node4</title>
<path fill="none" stroke="midnightblue" d="M308.51,-33.58C357.1,-39.52 442.98,-50.01 505.57,-57.66"/>
<polygon fill="midnightblue" stroke="midnightblue" points="505.44,-61.17 515.79,-58.91 506.29,-54.22 505.44,-61.17"/>
</g>
<!-- Node6 -->
<g id="node6" class="node">
<title>Node6</title>
<g id="a_node6"><a xlink:href="cJSON_8c.html#a0e2851b1b595b3b430fd186e7deaf987" target="_top" xlink:title=" ">
<polygon fill="white" stroke="black" points="356.5,-0.5 356.5,-19.5 472.5,-19.5 472.5,-0.5 356.5,-0.5"/>
<text text-anchor="middle" x="414.5" y="-7.5" font-family="Helvetica,sans-Serif" font-size="10.00">utf16_literal_to_utf8</text>
</a>
</g>
</g>
<!-- Node5&#45;&gt;Node6 -->
<g id="edge6" class="edge">
<title>Node5&#45;&gt;Node6</title>
<path fill="none" stroke="midnightblue" d="M308.81,-23.96C320.33,-22.42 333.35,-20.69 346.2,-18.97"/>
<polygon fill="midnightblue" stroke="midnightblue" points="346.99,-22.4 356.44,-17.61 346.07,-15.46 346.99,-22.4"/>
</g>
<!-- Node7 -->
<g id="node7" class="node">
<title>Node7</title>
<g id="a_node7"><a xlink:href="cJSON_8c.html#a1aa736fdc6ba20c7d46622d20766e916" target="_top" xlink:title=" ">
<polygon fill="white" stroke="black" points="546.5,-0.5 546.5,-19.5 619.5,-19.5 619.5,-0.5 546.5,-0.5"/>
<text text-anchor="middle" x="583" y="-7.5" font-family="Helvetica,sans-Serif" font-size="10.00">parse_hex4</text>
</a>
</g>
</g>
<!-- Node6&#45;&gt;Node7 -->
<g id="edge7" class="edge">
<title>Node6&#45;&gt;Node7</title>
<path fill="none" stroke="midnightblue" d="M472.8,-10C493.53,-10 516.65,-10 536.26,-10"/>
<polygon fill="midnightblue" stroke="midnightblue" points="536.45,-13.5 546.45,-10 536.45,-6.5 536.45,-13.5"/>
</g>
<!-- Node8&#45;&gt;Node1 -->
<g id="edge15" class="edge">
<title>Node8&#45;&gt;Node1</title>
<path fill="none" stroke="midnightblue" d="M114.89,-111.4C106.73,-111.72 97.98,-111.82 89.44,-111.71"/>
<polygon fill="midnightblue" stroke="midnightblue" points="89.26,-108.2 79.18,-111.46 89.1,-115.2 89.26,-108.2"/>
</g>
<!-- Node8&#45;&gt;Node5 -->
<g id="edge16" class="edge">
<title>Node8&#45;&gt;Node5</title>
<path fill="none" stroke="midnightblue" d="M168.56,-95.37C188.09,-82.47 222.97,-59.42 246.05,-44.17"/>
<polygon fill="midnightblue" stroke="midnightblue" points="248.14,-46.98 254.55,-38.55 244.28,-41.14 248.14,-46.98"/>
</g>
<!-- Node9 -->
<g id="node9" class="node">
<title>Node9</title>
<g id="a_node9"><a xlink:href="cJSON_8c.html#a367cc7ac5a592211d9f18dc02dd23069" target="_top" xlink:title=" ">
<polygon fill="white" stroke="black" points="233,-95.5 233,-114.5 307,-114.5 307,-95.5 233,-95.5"/>
<text text-anchor="middle" x="270" y="-102.5" font-family="Helvetica,sans-Serif" font-size="10.00">parse_array</text>
</a>
</g>
</g>
<!-- Node8&#45;&gt;Node9 -->
<g id="edge9" class="edge">
<title>Node8&#45;&gt;Node9</title>
<path fill="none" stroke="midnightblue" d="M191.02,-98.65C201.07,-98.24 212.07,-98.15 222.57,-98.36"/>
<polygon fill="midnightblue" stroke="midnightblue" points="222.73,-101.87 232.84,-98.68 222.95,-94.87 222.73,-101.87"/>
</g>
<!-- Node10 -->
<g id="node10" class="node">
<title>Node10</title>
<g id="a_node10"><a xlink:href="cJSON_8c.html#a699e1cebda71c2846a9a10b29b4dc407" target="_top" xlink:title=" ">
<polygon fill="white" stroke="black" points="227,-133.5 227,-152.5 313,-152.5 313,-133.5 227,-133.5"/>
<text text-anchor="middle" x="270" y="-140.5" font-family="Helvetica,sans-Serif" font-size="10.00">parse_number</text>
</a>
</g>
</g>
<!-- Node8&#45;&gt;Node10 -->
<g id="edge13" class="edge">
<title>Node8&#45;&gt;Node10</title>
<path fill="none" stroke="midnightblue" d="M183.02,-114.59C197.32,-119.31 214.76,-125.08 230.19,-130.18"/>
<polygon fill="midnightblue" stroke="midnightblue" points="229.4,-133.6 239.99,-133.41 231.59,-126.95 229.4,-133.6"/>
</g>
<!-- Node9&#45;&gt;Node2 -->
<g id="edge10" class="edge">
<title>Node9&#45;&gt;Node2</title>
<path fill="none" stroke="midnightblue" d="M296.3,-114.53C302.03,-117.2 307.91,-120.38 313,-124 331.95,-137.49 329.16,-149.85 349,-162 352.43,-164.1 356.1,-165.98 359.9,-167.66"/>
<polygon fill="midnightblue" stroke="midnightblue" points="358.9,-171.03 369.49,-171.43 361.47,-164.52 358.9,-171.03"/>
</g>
<!-- Node9&#45;&gt;Node3 -->
<g id="edge11" class="edge">
<title>Node9&#45;&gt;Node3</title>
<path fill="none" stroke="midnightblue" d="M307.33,-100.16C321.4,-98.28 337.88,-96.08 353.61,-93.99"/>
<polygon fill="midnightblue" stroke="midnightblue" points="354.35,-97.42 363.8,-92.63 353.42,-90.48 354.35,-97.42"/>
</g>
<!-- Node9&#45;&gt;Node8 -->
<g id="edge12" class="edge">
<title>Node9&#45;&gt;Node8</title>
<path fill="none" stroke="midnightblue" d="M232.84,-111.32C222.84,-111.74 211.85,-111.85 201.33,-111.66"/>
<polygon fill="midnightblue" stroke="midnightblue" points="201.12,-108.15 191.02,-111.35 200.91,-115.14 201.12,-108.15"/>
</g>
<!-- Node11 -->
<g id="node11" class="node">
<title>Node11</title>
<g id="a_node11"><a xlink:href="cJSON_8c.html#ab25412ae56c8c594831918169bea100d" target="_top" xlink:title=" ">
<polygon fill="white" stroke="black" points="361,-133.5 361,-152.5 468,-152.5 468,-133.5 361,-133.5"/>
<text text-anchor="middle" x="414.5" y="-140.5" font-family="Helvetica,sans-Serif" font-size="10.00">get_decimal_point</text>
</a>
</g>
</g>
<!-- Node10&#45;&gt;Node11 -->
<g id="edge14" class="edge">
<title>Node10&#45;&gt;Node11</title>
<path fill="none" stroke="midnightblue" d="M313.37,-143C325.15,-143 338.2,-143 350.88,-143"/>
<polygon fill="midnightblue" stroke="midnightblue" points="350.94,-146.5 360.94,-143 350.94,-139.5 350.94,-146.5"/>
</g>
</g>
</svg>
