<?xml version="1.0" encoding="UTF-8" standalone="no"?>
<!DOCTYPE svg PUBLIC "-//W3C//DTD SVG 1.1//EN"
 "http://www.w3.org/Graphics/SVG/1.1/DTD/svg11.dtd">
<!-- Generated by graphviz version 2.43.0 (0)
 -->
<!-- Title: parse_object Pages: 1 -->
<svg width="658pt" height="196pt"
 viewBox="0.00 0.00 658.00 196.00" xmlns="http://www.w3.org/2000/svg" xmlns:xlink="http://www.w3.org/1999/xlink">
<g id="graph0" class="graph" transform="scale(1 1) rotate(0) translate(4 192)">
<title>parse_object</title>
<!-- Node1 -->
<g id="Node000001" class="node">
<title>Node1</title>
<g id="a_Node000001"><a xlink:title=" ">
<polygon fill="#999999" stroke="#666666" points="79,-114 0,-114 0,-95 79,-95 79,-114"/>
<text text-anchor="middle" x="39.5" y="-102" font-family="Helvetica,sans-Serif" font-size="10.00">parse_object</text>
</a>
</g>
</g>
<!-- Node2 -->
<g id="Node000002" class="node">
<title>Node2</title>
<g id="a_Node000002"><a xlink:href="cJSON_8c.html#a0a9c3a7f6f01d4a8d9c552fa82274b4b" target="_top" xlink:title=" ">
<polygon fill="white" stroke="#666666" points="480,-188 349,-188 349,-169 480,-169 480,-188"/>
<text text-anchor="middle" x="414.5" y="-176" font-family="Helvetica,sans-Serif" font-size="10.00">buffer_skip_whitespace</text>
</a>
</g>
</g>
<!-- Node1&#45;&gt;Node2 -->
<g id="edge1_Node000001_Node000002" class="edge">
<title>Node1&#45;&gt;Node2</title>
<g id="a_edge1_Node000001_Node000002"><a xlink:title=" ">
<path fill="none" stroke="#63b8ff" d="M66.35,-114.02C101.98,-126.74 168.45,-149 227,-160.5 263.3,-167.63 304.16,-171.98 338.36,-174.61"/>
<polygon fill="#63b8ff" stroke="#63b8ff" points="338.52,-178.13 348.75,-175.37 339.03,-171.15 338.52,-178.13"/>
</a>
</g>
</g>
<!-- Node3 -->
<g id="Node000003" class="node">
<title>Node3</title>
<g id="a_Node000003"><a xlink:href="cJSON_8c.html#aa05c1f56de8779ae1584c525cc81aeb5" target="_top" xlink:title=" ">
<polygon fill="white" stroke="#666666" points="465,-95 364,-95 364,-76 465,-76 465,-95"/>
<text text-anchor="middle" x="414.5" y="-83" font-family="Helvetica,sans-Serif" font-size="10.00">cJSON_New_Item</text>
</a>
</g>
</g>
<!-- Node1&#45;&gt;Node3 -->
<g id="edge2_Node000001_Node000003" class="edge">
<title>Node1&#45;&gt;Node3</title>
<g id="a_edge2_Node000001_Node000003"><a xlink:title=" ">
<path fill="none" stroke="#63b8ff" d="M72.84,-94.94C85.82,-91.57 101,-88.19 115,-86.5 197.32,-76.56 293.33,-78.65 353.77,-81.62"/>
<polygon fill="#63b8ff" stroke="#63b8ff" points="353.73,-85.12 363.9,-82.14 354.09,-78.13 353.73,-85.12"/>
</a>
</g>
</g>
<!-- Node5 -->
<g id="Node000005" class="node">
<title>Node5</title>
<g id="a_Node000005"><a xlink:href="cJSON_8c.html#adf47b520af96d1bbefa2390016fbdb51" target="_top" xlink:title=" ">
<polygon fill="white" stroke="#666666" points="308.5,-38 231.5,-38 231.5,-19 308.5,-19 308.5,-38"/>
<text text-anchor="middle" x="270" y="-26" font-family="Helvetica,sans-Serif" font-size="10.00">parse_string</text>
</a>
</g>
</g>
<!-- Node1&#45;&gt;Node5 -->
<g id="edge4_Node000001_Node000005" class="edge">
<title>Node1&#45;&gt;Node5</title>
<g id="a_edge4_Node000001_Node000005"><a xlink:title=" ">
<path fill="none" stroke="#63b8ff" d="M51.17,-94.64C64.85,-82.61 89.83,-62.61 115,-52.5 148.95,-38.86 190,-32.93 221.18,-30.38"/>
<polygon fill="#63b8ff" stroke="#63b8ff" points="221.63,-33.85 231.35,-29.63 221.12,-26.87 221.63,-33.85"/>
</a>
</g>
</g>
<!-- Node8 -->
<g id="Node000008" class="node">
<title>Node8</title>
<g id="a_Node000008"><a xlink:href="cJSON_8c.html#afd5c0b7089e4de2fc9b2af599d4b596f" target="_top" xlink:title=" ">
<polygon fill="white" stroke="#666666" points="191,-114 115,-114 115,-95 191,-95 191,-114"/>
<text text-anchor="middle" x="153" y="-102" font-family="Helvetica,sans-Serif" font-size="10.00">parse_value</text>
</a>
</g>
</g>
<!-- Node1&#45;&gt;Node8 -->
<g id="edge8_Node000001_Node000008" class="edge">
<title>Node1&#45;&gt;Node8</title>
<g id="a_edge8_Node000001_Node000008"><a xlink:title=" ">
<path fill="none" stroke="#63b8ff" d="M79.18,-98.04C87.41,-97.75 96.19,-97.68 104.7,-97.82"/>
<polygon fill="#63b8ff" stroke="#63b8ff" points="104.79,-101.32 114.89,-98.1 104.99,-94.33 104.79,-101.32"/>
</a>
</g>
</g>
<!-- Node4 -->
<g id="Node000004" class="node">
<title>Node4</title>
<g id="a_Node000004"><a xlink:href="structinternal__hooks.html#a8b8f7ff45faa5da18dd3ccd2a2c8e416" target="_top" xlink:title=" ">
<polygon fill="white" stroke="#666666" points="650,-76 516,-76 516,-57 650,-57 650,-76"/>
<text text-anchor="middle" x="583" y="-64" font-family="Helvetica,sans-Serif" font-size="10.00">internal_hooks::allocate</text>
</a>
</g>
</g>
<!-- Node3&#45;&gt;Node4 -->
<g id="edge3_Node000003_Node000004" class="edge">
<title>Node3&#45;&gt;Node4</title>
<g id="a_edge3_Node000003_Node000004"><a xlink:title=" ">
<path fill="none" stroke="#63b8ff" d="M465,-79.85C477.81,-78.39 491.9,-76.78 505.72,-75.2"/>
<polygon fill="#63b8ff" stroke="#63b8ff" points="506.19,-78.67 515.73,-74.06 505.39,-71.72 506.19,-78.67"/>
</a>
</g>
</g>
<!-- Node5&#45;&gt;Node4 -->
<g id="edge5_Node000005_Node000004" class="edge">
<title>Node5&#45;&gt;Node4</title>
<g id="a_edge5_Node000005_Node000004"><a xlink:title=" ">
<path fill="none" stroke="#63b8ff" d="M308.51,-33.08C357.1,-39.02 442.98,-49.51 505.57,-57.16"/>
<polygon fill="#63b8ff" stroke="#63b8ff" points="505.44,-60.67 515.79,-58.41 506.29,-53.72 505.44,-60.67"/>
</a>
</g>
</g>
<!-- Node6 -->
<g id="Node000006" class="node">
<title>Node6</title>
<g id="a_Node000006"><a xlink:href="cJSON_8c.html#a0e2851b1b595b3b430fd186e7deaf987" target="_top" xlink:title=" ">
<polygon fill="white" stroke="#666666" points="472.5,-19 356.5,-19 356.5,0 472.5,0 472.5,-19"/>
<text text-anchor="middle" x="414.5" y="-7" font-family="Helvetica,sans-Serif" font-size="10.00">utf16_literal_to_utf8</text>
</a>
</g>
</g>
<!-- Node5&#45;&gt;Node6 -->
<g id="edge6_Node000005_Node000006" class="edge">
<title>Node5&#45;&gt;Node6</title>
<g id="a_edge6_Node000005_Node000006"><a xlink:title=" ">
<path fill="none" stroke="#63b8ff" d="M308.81,-23.46C320.33,-21.92 333.35,-20.19 346.2,-18.47"/>
<polygon fill="#63b8ff" stroke="#63b8ff" points="346.99,-21.9 356.44,-17.11 346.07,-14.96 346.99,-21.9"/>
</a>
</g>
</g>
<!-- Node7 -->
<g id="Node000007" class="node">
<title>Node7</title>
<g id="a_Node000007"><a xlink:href="cJSON_8c.html#a1aa736fdc6ba20c7d46622d20766e916" target="_top" xlink:title=" ">
<polygon fill="white" stroke="#666666" points="619.5,-19 546.5,-19 546.5,0 619.5,0 619.5,-19"/>
<text text-anchor="middle" x="583" y="-7" font-family="Helvetica,sans-Serif" font-size="10.00">parse_hex4</text>
</a>
</g>
</g>
<!-- Node6&#45;&gt;Node7 -->
<g id="edge7_Node000006_Node000007" class="edge">
<title>Node6&#45;&gt;Node7</title>
<g id="a_edge7_Node000006_Node000007"><a xlink:title=" ">
<path fill="none" stroke="#63b8ff" d="M472.8,-9.5C493.53,-9.5 516.65,-9.5 536.26,-9.5"/>
<polygon fill="#63b8ff" stroke="#63b8ff" points="536.45,-13 546.45,-9.5 536.45,-6 536.45,-13"/>
</a>
</g>
</g>
<!-- Node8&#45;&gt;Node1 -->
<g id="edge15_Node000008_Node000001" class="edge">
<title>Node8&#45;&gt;Node1</title>
<g id="a_edge15_Node000008_Node000001"><a xlink:title=" ">
<path fill="none" stroke="#63b8ff" d="M114.89,-110.9C106.73,-111.22 97.98,-111.32 89.44,-111.21"/>
<polygon fill="#63b8ff" stroke="#63b8ff" points="89.26,-107.7 79.18,-110.96 89.1,-114.7 89.26,-107.7"/>
</a>
</g>
</g>
<!-- Node8&#45;&gt;Node5 -->
<g id="edge16_Node000008_Node000005" class="edge">
<title>Node8&#45;&gt;Node5</title>
<g id="a_edge16_Node000008_Node000005"><a xlink:title=" ">
<path fill="none" stroke="#63b8ff" d="M168.56,-94.87C188.09,-81.97 222.97,-58.92 246.05,-43.67"/>
<polygon fill="#63b8ff" stroke="#63b8ff" points="248.14,-46.48 254.55,-38.05 244.28,-40.64 248.14,-46.48"/>
</a>
</g>
</g>
<!-- Node9 -->
<g id="Node000009" class="node">
<title>Node9</title>
<g id="a_Node000009"><a xlink:href="cJSON_8c.html#a367cc7ac5a592211d9f18dc02dd23069" target="_top" xlink:title=" ">
<polygon fill="white" stroke="#666666" points="307,-114 233,-114 233,-95 307,-95 307,-114"/>
<text text-anchor="middle" x="270" y="-102" font-family="Helvetica,sans-Serif" font-size="10.00">parse_array</text>
</a>
</g>
</g>
<!-- Node8&#45;&gt;Node9 -->
<g id="edge9_Node000008_Node000009" class="edge">
<title>Node8&#45;&gt;Node9</title>
<g id="a_edge9_Node000008_Node000009"><a xlink:title=" ">
<path fill="none" stroke="#63b8ff" d="M191.02,-98.15C201.07,-97.74 212.07,-97.65 222.57,-97.86"/>
<polygon fill="#63b8ff" stroke="#63b8ff" points="222.73,-101.37 232.84,-98.18 222.95,-94.37 222.73,-101.37"/>
</a>
</g>
</g>
<!-- Node10 -->
<g id="Node000010" class="node">
<title>Node10</title>
<g id="a_Node000010"><a xlink:href="cJSON_8c.html#a699e1cebda71c2846a9a10b29b4dc407" target="_top" xlink:title=" ">
<polygon fill="white" stroke="#666666" points="313,-151 227,-151 227,-132 313,-132 313,-151"/>
<text text-anchor="middle" x="270" y="-139" font-family="Helvetica,sans-Serif" font-size="10.00">parse_number</text>
</a>
</g>
</g>
<!-- Node8&#45;&gt;Node10 -->
<g id="edge13_Node000008_Node000010" class="edge">
<title>Node8&#45;&gt;Node10</title>
<g id="a_edge13_Node000008_Node000010"><a xlink:title=" ">
<path fill="none" stroke="#63b8ff" d="M183.62,-114.03C197.59,-118.52 214.47,-123.95 229.51,-128.8"/>
<polygon fill="#63b8ff" stroke="#63b8ff" points="228.49,-132.14 239.09,-131.88 230.64,-125.48 228.49,-132.14"/>
</a>
</g>
</g>
<!-- Node9&#45;&gt;Node2 -->
<g id="edge10_Node000009_Node000002" class="edge">
<title>Node9&#45;&gt;Node2</title>
<g id="a_edge10_Node000009_Node000002"><a xlink:title=" ">
<path fill="none" stroke="#63b8ff" d="M296.27,-114.08C302,-116.75 307.89,-119.91 313,-123.5 331.78,-136.68 329.27,-148.79 349,-160.5 351.85,-162.19 354.86,-163.73 357.97,-165.13"/>
<polygon fill="#63b8ff" stroke="#63b8ff" points="356.91,-168.47 367.5,-168.91 359.5,-161.97 356.91,-168.47"/>
</a>
</g>
</g>
<!-- Node9&#45;&gt;Node3 -->
<g id="edge11_Node000009_Node000003" class="edge">
<title>Node9&#45;&gt;Node3</title>
<g id="a_edge11_Node000009_Node000003"><a xlink:title=" ">
<path fill="none" stroke="#63b8ff" d="M307.33,-99.66C321.4,-97.78 337.88,-95.58 353.61,-93.49"/>
<polygon fill="#63b8ff" stroke="#63b8ff" points="354.35,-96.92 363.8,-92.13 353.42,-89.98 354.35,-96.92"/>
</a>
</g>
</g>
<!-- Node9&#45;&gt;Node8 -->
<g id="edge12_Node000009_Node000008" class="edge">
<title>Node9&#45;&gt;Node8</title>
<g id="a_edge12_Node000009_Node000008"><a xlink:title=" ">
<path fill="none" stroke="#63b8ff" d="M232.84,-110.82C222.84,-111.24 211.85,-111.35 201.33,-111.16"/>
<polygon fill="#63b8ff" stroke="#63b8ff" points="201.12,-107.65 191.02,-110.85 200.91,-114.64 201.12,-107.65"/>
</a>
</g>
</g>
<!-- Node11 -->
<g id="Node000011" class="node">
<title>Node11</title>
<g id="a_Node000011"><a xlink:href="cJSON_8c.html#ab25412ae56c8c594831918169bea100d" target="_top" xlink:title=" ">
<polygon fill="white" stroke="#666666" points="468,-151 361,-151 361,-132 468,-132 468,-151"/>
<text text-anchor="middle" x="414.5" y="-139" font-family="Helvetica,sans-Serif" font-size="10.00">get_decimal_point</text>
</a>
</g>
</g>
<!-- Node10&#45;&gt;Node11 -->
<g id="edge14_Node000010_Node000011" class="edge">
<title>Node10&#45;&gt;Node11</title>
<g id="a_edge14_Node000010_Node000011"><a xlink:title=" ">
<path fill="none" stroke="#63b8ff" d="M313.37,-141.5C325.15,-141.5 338.2,-141.5 350.88,-141.5"/>
<polygon fill="#63b8ff" stroke="#63b8ff" points="350.94,-145 360.94,-141.5 350.94,-138 350.94,-145"/>
</a>
</g>
</g>
</g>
</svg>
