<?xml version="1.0" encoding="UTF-8" standalone="no"?>
<!DOCTYPE svg PUBLIC "-//W3C//DTD SVG 1.1//EN"
 "http://www.w3.org/Graphics/SVG/1.1/DTD/svg11.dtd">
<!-- Generated by graphviz version 2.43.0 (0)
 -->
<!-- Title: print Pages: 1 -->
<!--zoomable 348 -->

<svg id="main" version="1.1" xmlns="http://www.w3.org/2000/svg" xmlns:xlink="http://www.w3.org/1999/xlink" xml:space="preserve" onload="init(evt)">
<style type="text/css"><![CDATA[
.node, .edge {opacity: 0.7;}
.node.selected, .edge.selected {opacity: 1;}
.edge:hover path { stroke: red; }
.edge:hover polygon { stroke: red; fill: red; }
]]></style>

<defs>
  <circle id="rim" cx="0" cy="0" r="7"/>
  <circle id="rim2" cx="0" cy="0" r="3.5"/>
  <g id="zoomPlus">
    <use xlink:href="#rim" fill="#404040"><set attributeName="fill" to="#808080" begin="zoomplus.mouseover" end="zoomplus.mouseout"/></use>
    <path d="M-4,0h8M0,-4v8" fill="none" stroke="white" stroke-width="1.5" pointer-events="none"/>
  </g>
  <g id="zoomMin">
    <use xlink:href="#rim" fill="#404040"><set attributeName="fill" to="#808080" begin="zoomminus.mouseover" end="zoomminus.mouseout"/></use>
    <path d="M-4,0h8" fill="none" stroke="white" stroke-width="1.5" pointer-events="none"/>
  </g>
  <g id="arrowUp" transform="translate(30 24)">
    <use xlink:href="#rim"/>
    <path pointer-events="none" fill="none" stroke="white" stroke-width="1.5" d="M0,-3.0v7 M-2.5,-0.5L0,-3.0L2.5,-0.5"/>
  </g>
  <g id="arrowRight" transform="rotate(90) translate(36 -43)">
    <use xlink:href="#rim"/>
    <path pointer-events="none" fill="none" stroke="white" stroke-width="1.5" d="M0,-3.0v7 M-2.5,-0.5L0,-3.0L2.5,-0.5"/>
  </g>
  <g id="arrowDown" transform="rotate(180) translate(-30 -48)">
    <use xlink:href="#rim"/>
    <path pointer-events="none" fill="none" stroke="white" stroke-width="1.5" d="M0,-3.0v7 M-2.5,-0.5L0,-3.0L2.5,-0.5"/>
  </g>
  <g id="arrowLeft" transform="rotate(270) translate(-36 17)">
    <use xlink:href="#rim"/>
    <path pointer-events="none" fill="none" stroke="white" stroke-width="1.5" d="M0,-3.0v7 M-2.5,-0.5L0,-3.0L2.5,-0.5"/>
  </g>
  <g id="resetDef">
    <use xlink:href="#rim2" fill="#404040"><set attributeName="fill" to="#808080" begin="reset.mouseover" end="reset.mouseout"/></use>
  </g>
</defs>
<script type="application/ecmascript">
var viewWidth = 680;
var viewHeight = 348;
var sectionId = 'dynsection-52';
</script>
<script type="application/ecmascript" xlink:href="svg.min.js"/>
<svg id="graph" class="graph">
<g id="viewport">
<title>print</title>
<!-- Node1 -->
<g id="Node000001" class="node">
<title>Node1</title>
<g id="a_Node000001"><a xlink:title=" ">
<polygon fill="#999999" stroke="#666666" points="39,-271.5 0,-271.5 0,-252.5 39,-252.5 39,-271.5"/>
<text text-anchor="middle" x="19.5" y="-259.5" font-family="Helvetica,sans-Serif" font-size="10.00">print</text>
</a>
</g>
</g>
<!-- Node2 -->
<g id="Node000002" class="node">
<title>Node2</title>
<g id="a_Node000002"><a xlink:href="structinternal__hooks.html#a8b8f7ff45faa5da18dd3ccd2a2c8e416" target="_top" xlink:title=" ">
<polygon fill="white" stroke="#666666" points="667.5,-253.5 533.5,-253.5 533.5,-234.5 667.5,-234.5 667.5,-253.5"/>
<text text-anchor="middle" x="600.5" y="-241.5" font-family="Helvetica,sans-Serif" font-size="10.00">internal_hooks::allocate</text>
</a>
</g>
</g>
<!-- Node1&#45;&gt;Node2 -->
<g id="edge1_Node000001_Node000002" class="edge">
<title>Node1&#45;&gt;Node2</title>
<g id="a_edge1_Node000001_Node000002"><a xlink:title=" ">
<path fill="none" stroke="#63b8ff" d="M34.44,-271.56C66.19,-292.39 146.98,-340 222,-340 222,-340 222,-340 354.5,-340 441.99,-340 535.69,-286.27 577.35,-259.2"/>
<polygon fill="#63b8ff" stroke="#63b8ff" points="579.48,-261.99 585.88,-253.56 575.61,-256.16 579.48,-261.99"/>
</a>
</g>
</g>
<!-- Node3 -->
<g id="Node000003" class="node">
<title>Node3</title>
<g id="a_Node000003"><a xlink:href="cJSON_8c.html#a5ba141f183b9abb4b49e38a211299c7e" target="_top" xlink:title=" ">
<polygon fill="white" stroke="#666666" points="146,-234.5 75,-234.5 75,-215.5 146,-215.5 146,-234.5"/>
<text text-anchor="middle" x="110.5" y="-222.5" font-family="Helvetica,sans-Serif" font-size="10.00">print_value</text>
</a>
</g>
</g>
<!-- Node1&#45;&gt;Node3 -->
<g id="edge2_Node000001_Node000003" class="edge">
<title>Node1&#45;&gt;Node3</title>
<g id="a_edge2_Node000001_Node000003"><a xlink:title=" ">
<path fill="none" stroke="#63b8ff" d="M39.37,-254.15C50.35,-249.59 64.49,-243.71 77.19,-238.43"/>
<polygon fill="#63b8ff" stroke="#63b8ff" points="78.65,-241.61 86.54,-234.54 75.97,-235.15 78.65,-241.61"/>
</a>
</g>
</g>
<!-- Node5 -->
<g id="Node000005" class="node">
<title>Node5</title>
<g id="a_Node000005"><a xlink:href="structinternal__hooks.html#a7c3921493fab83f33cd509145d8a5393" target="_top" xlink:title=" ">
<polygon fill="white" stroke="#666666" points="672,-141.5 529,-141.5 529,-122.5 672,-122.5 672,-141.5"/>
<text text-anchor="middle" x="600.5" y="-129.5" font-family="Helvetica,sans-Serif" font-size="10.00">internal_hooks::reallocate</text>
</a>
</g>
</g>
<!-- Node1&#45;&gt;Node5 -->
<g id="edge22_Node000001_Node000005" class="edge">
<title>Node1&#45;&gt;Node5</title>
<g id="a_edge22_Node000001_Node000005"><a xlink:title=" ">
<path fill="none" stroke="#63b8ff" d="M22.73,-252.36C34.31,-205.1 92.03,0 222,0 222,0 222,0 354.5,0 450.18,0 544.43,-78.98 582.22,-114.76"/>
<polygon fill="#63b8ff" stroke="#63b8ff" points="580.17,-117.65 589.8,-122.08 585.04,-112.61 580.17,-117.65"/>
</a>
</g>
</g>
<!-- Node7 -->
<g id="Node000007" class="node">
<title>Node7</title>
<g id="a_Node000007"><a xlink:href="cJSON_8c.html#af5fb173126786c1e3f90b6df6e2500c5" target="_top" xlink:title=" ">
<polygon fill="white" stroke="#666666" points="395,-273.5 312,-273.5 312,-254.5 395,-254.5 395,-273.5"/>
<text text-anchor="middle" x="353.5" y="-261.5" font-family="Helvetica,sans-Serif" font-size="10.00">update_offset</text>
</a>
</g>
</g>
<!-- Node1&#45;&gt;Node7 -->
<g id="edge23_Node000001_Node000007" class="edge">
<title>Node1&#45;&gt;Node7</title>
<g id="a_edge23_Node000001_Node000007"><a xlink:title=" ">
<path fill="none" stroke="#63b8ff" d="M39.15,-265.65C79.96,-273.16 180.21,-288.97 264,-281 276.29,-279.83 289.41,-277.77 301.68,-275.47"/>
<polygon fill="#63b8ff" stroke="#63b8ff" points="302.61,-278.86 311.76,-273.5 301.27,-271.99 302.61,-278.86"/>
</a>
</g>
</g>
<!-- Node4 -->
<g id="Node000004" class="node">
<title>Node4</title>
<g id="a_Node000004"><a xlink:href="cJSON_8c.html#ad9f9a9b2ad3154fc8033756f23c023a6" target="_top" xlink:title=" ">
<polygon fill="white" stroke="#666666" points="493,-197.5 443,-197.5 443,-178.5 493,-178.5 493,-197.5"/>
<text text-anchor="middle" x="468" y="-185.5" font-family="Helvetica,sans-Serif" font-size="10.00">ensure</text>
</a>
</g>
</g>
<!-- Node3&#45;&gt;Node4 -->
<g id="edge3_Node000003_Node000004" class="edge">
<title>Node3&#45;&gt;Node4</title>
<g id="a_edge3_Node000003_Node000004"><a xlink:title=" ">
<path fill="none" stroke="#63b8ff" d="M114.9,-215.32C122.98,-193.72 145.45,-141.37 182,-114 225.69,-81.29 245.96,-87.63 300,-80 347.09,-73.35 366.01,-55.88 407,-80 439.51,-99.13 455.67,-142.95 462.6,-168.51"/>
<polygon fill="#63b8ff" stroke="#63b8ff" points="459.21,-169.36 465.03,-178.21 466,-167.66 459.21,-169.36"/>
</a>
</g>
</g>
<!-- Node6 -->
<g id="Node000006" class="node">
<title>Node6</title>
<g id="a_Node000006"><a xlink:href="cJSON_8c.html#ae84642817f3965a85c7c617663250c16" target="_top" xlink:title=" ">
<polygon fill="white" stroke="#666666" points="258,-271.5 188,-271.5 188,-252.5 258,-252.5 258,-271.5"/>
<text text-anchor="middle" x="223" y="-259.5" font-family="Helvetica,sans-Serif" font-size="10.00">print_array</text>
</a>
</g>
</g>
<!-- Node3&#45;&gt;Node6 -->
<g id="edge6_Node000003_Node000006" class="edge">
<title>Node3&#45;&gt;Node6</title>
<g id="a_edge6_Node000003_Node000006"><a xlink:title=" ">
<path fill="none" stroke="#63b8ff" d="M146.16,-230.29C163.19,-235.24 183.26,-242.19 198.48,-248.48"/>
<polygon fill="#63b8ff" stroke="#63b8ff" points="197.13,-251.71 207.7,-252.5 199.93,-245.3 197.13,-251.71"/>
</a>
</g>
</g>
<!-- Node8 -->
<g id="Node000008" class="node">
<title>Node8</title>
<g id="a_Node000008"><a xlink:href="cJSON_8c.html#ad93d84de08872da0eaa6624be0e74a68" target="_top" xlink:title=" ">
<polygon fill="white" stroke="#666666" points="264,-141.5 182,-141.5 182,-122.5 264,-122.5 264,-141.5"/>
<text text-anchor="middle" x="223" y="-129.5" font-family="Helvetica,sans-Serif" font-size="10.00">print_number</text>
</a>
</g>
</g>
<!-- Node3&#45;&gt;Node8 -->
<g id="edge10_Node000003_Node000008" class="edge">
<title>Node3&#45;&gt;Node8</title>
<g id="a_edge10_Node000003_Node000008"><a xlink:title=" ">
<path fill="none" stroke="#63b8ff" d="M122.91,-215.4C141.77,-199.53 179.64,-167.65 202.72,-148.23"/>
<polygon fill="#63b8ff" stroke="#63b8ff" points="205.09,-150.81 210.49,-141.69 200.58,-145.45 205.09,-150.81"/>
</a>
</g>
</g>
<!-- Node11 -->
<g id="Node000011" class="node">
<title>Node11</title>
<g id="a_Node000011"><a xlink:href="cJSON_8c.html#a3d742f5c68799bca291432a9cd72f8dd" target="_top" xlink:title=" ">
<polygon fill="white" stroke="#666666" points="260,-234.5 186,-234.5 186,-215.5 260,-215.5 260,-234.5"/>
<text text-anchor="middle" x="223" y="-222.5" font-family="Helvetica,sans-Serif" font-size="10.00">print_object</text>
</a>
</g>
</g>
<!-- Node3&#45;&gt;Node11 -->
<g id="edge14_Node000003_Node000011" class="edge">
<title>Node3&#45;&gt;Node11</title>
<g id="a_edge14_Node000003_Node000011"><a xlink:title=" ">
<path fill="none" stroke="#63b8ff" d="M146.16,-218.69C155.55,-218.27 165.88,-218.15 175.8,-218.33"/>
<polygon fill="#63b8ff" stroke="#63b8ff" points="175.84,-221.83 185.94,-218.63 176.04,-214.84 175.84,-221.83"/>
</a>
</g>
</g>
<!-- Node13 -->
<g id="Node000013" class="node">
<title>Node13</title>
<g id="a_Node000013"><a xlink:href="cJSON_8c.html#ad087dd738e49b4258f0a3d378a121df6" target="_top" xlink:title=" ">
<polygon fill="white" stroke="#666666" points="259,-197.5 187,-197.5 187,-178.5 259,-178.5 259,-197.5"/>
<text text-anchor="middle" x="223" y="-185.5" font-family="Helvetica,sans-Serif" font-size="10.00">print_string</text>
</a>
</g>
</g>
<!-- Node3&#45;&gt;Node13 -->
<g id="edge20_Node000003_Node000013" class="edge">
<title>Node3&#45;&gt;Node13</title>
<g id="a_edge20_Node000003_Node000013"><a xlink:title=" ">
<path fill="none" stroke="#63b8ff" d="M139.96,-215.47C153.26,-211.02 169.29,-205.65 183.64,-200.84"/>
<polygon fill="#63b8ff" stroke="#63b8ff" points="184.88,-204.12 193.26,-197.62 182.66,-197.48 184.88,-204.12"/>
</a>
</g>
</g>
<!-- Node4&#45;&gt;Node2 -->
<g id="edge4_Node000004_Node000002" class="edge">
<title>Node4&#45;&gt;Node2</title>
<g id="a_edge4_Node000004_Node000002"><a xlink:title=" ">
<path fill="none" stroke="#63b8ff" d="M491.43,-197.63C512.57,-206.7 544.44,-220.37 568.1,-230.52"/>
<polygon fill="#63b8ff" stroke="#63b8ff" points="566.79,-233.77 577.36,-234.5 569.55,-227.34 566.79,-233.77"/>
</a>
</g>
</g>
<!-- Node4&#45;&gt;Node5 -->
<g id="edge5_Node000004_Node000005" class="edge">
<title>Node4&#45;&gt;Node5</title>
<g id="a_edge5_Node000004_Node000005"><a xlink:title=" ">
<path fill="none" stroke="#63b8ff" d="M491.43,-178.37C512.57,-169.3 544.44,-155.63 568.1,-145.48"/>
<polygon fill="#63b8ff" stroke="#63b8ff" points="569.55,-148.66 577.36,-141.5 566.79,-142.23 569.55,-148.66"/>
</a>
</g>
</g>
<!-- Node6&#45;&gt;Node3 -->
<g id="edge8_Node000006_Node000003" class="edge">
<title>Node6&#45;&gt;Node3</title>
<g id="a_edge8_Node000006_Node000003"><a xlink:title=" ">
<path fill="none" stroke="#63b8ff" d="M187.56,-256.77C170.55,-251.84 150.46,-244.9 135.2,-238.59"/>
<polygon fill="#63b8ff" stroke="#63b8ff" points="136.51,-235.35 125.95,-234.57 133.72,-241.77 136.51,-235.35"/>
</a>
</g>
</g>
<!-- Node6&#45;&gt;Node4 -->
<g id="edge7_Node000006_Node000004" class="edge">
<title>Node6&#45;&gt;Node4</title>
<g id="a_edge7_Node000006_Node000004"><a xlink:title=" ">
<path fill="none" stroke="#63b8ff" d="M244.17,-271.56C279.55,-286.83 354.07,-312.18 407,-283 436.2,-266.9 453.16,-229.95 461.2,-207.17"/>
<polygon fill="#63b8ff" stroke="#63b8ff" points="464.56,-208.14 464.37,-197.55 457.92,-205.95 464.56,-208.14"/>
</a>
</g>
</g>
<!-- Node6&#45;&gt;Node7 -->
<g id="edge9_Node000006_Node000007" class="edge">
<title>Node6&#45;&gt;Node7</title>
<g id="a_edge9_Node000006_Node000007"><a xlink:title=" ">
<path fill="none" stroke="#63b8ff" d="M258.1,-262.53C271.38,-262.74 286.89,-262.98 301.45,-263.21"/>
<polygon fill="#63b8ff" stroke="#63b8ff" points="301.78,-266.71 311.84,-263.37 301.89,-259.71 301.78,-266.71"/>
</a>
</g>
</g>
<!-- Node8&#45;&gt;Node4 -->
<g id="edge12_Node000008_Node000004" class="edge">
<title>Node8&#45;&gt;Node4</title>
<g id="a_edge12_Node000008_Node000004"><a xlink:title=" ">
<path fill="none" stroke="#63b8ff" d="M239.25,-122.43C271.99,-103.22 350.64,-64.29 407,-95 435.69,-110.64 452.74,-146.54 460.96,-168.88"/>
<polygon fill="#63b8ff" stroke="#63b8ff" points="457.65,-170.02 464.2,-178.34 464.27,-167.75 457.65,-170.02"/>
</a>
</g>
</g>
<!-- Node9 -->
<g id="Node000009" class="node">
<title>Node9</title>
<g id="a_Node000009"><a xlink:href="cJSON_8c.html#aa7a85b63f1830e7e666e1f56872d5d3e" target="_top" xlink:title=" ">
<polygon fill="white" stroke="#666666" points="402.5,-160.5 304.5,-160.5 304.5,-141.5 402.5,-141.5 402.5,-160.5"/>
<text text-anchor="middle" x="353.5" y="-148.5" font-family="Helvetica,sans-Serif" font-size="10.00">compare_double</text>
</a>
</g>
</g>
<!-- Node8&#45;&gt;Node9 -->
<g id="edge11_Node000008_Node000009" class="edge">
<title>Node8&#45;&gt;Node9</title>
<g id="a_edge11_Node000008_Node000009"><a xlink:title=" ">
<path fill="none" stroke="#63b8ff" d="M264.31,-137.96C273.8,-139.36 284.11,-140.89 294.22,-142.38"/>
<polygon fill="#63b8ff" stroke="#63b8ff" points="293.82,-145.86 304.23,-143.86 294.85,-138.94 293.82,-145.86"/>
</a>
</g>
</g>
<!-- Node10 -->
<g id="Node000010" class="node">
<title>Node10</title>
<g id="a_Node000010"><a xlink:href="cJSON_8c.html#ab25412ae56c8c594831918169bea100d" target="_top" xlink:title=" ">
<polygon fill="white" stroke="#666666" points="407,-123.5 300,-123.5 300,-104.5 407,-104.5 407,-123.5"/>
<text text-anchor="middle" x="353.5" y="-111.5" font-family="Helvetica,sans-Serif" font-size="10.00">get_decimal_point</text>
</a>
</g>
</g>
<!-- Node8&#45;&gt;Node10 -->
<g id="edge13_Node000008_Node000010" class="edge">
<title>Node8&#45;&gt;Node10</title>
<g id="a_edge13_Node000008_Node000010"><a xlink:title=" ">
<path fill="none" stroke="#63b8ff" d="M264.31,-126.35C272.35,-125.23 280.97,-124.02 289.57,-122.82"/>
<polygon fill="#63b8ff" stroke="#63b8ff" points="290.18,-126.26 299.6,-121.41 289.21,-119.33 290.18,-126.26"/>
</a>
</g>
</g>
<!-- Node11&#45;&gt;Node3 -->
<g id="edge18_Node000011_Node000003" class="edge">
<title>Node11&#45;&gt;Node3</title>
<g id="a_edge18_Node000011_Node000003"><a xlink:title=" ">
<path fill="none" stroke="#63b8ff" d="M185.94,-231.37C176.45,-231.76 166.11,-231.85 156.23,-231.64"/>
<polygon fill="#63b8ff" stroke="#63b8ff" points="156.27,-228.14 146.16,-231.31 156.04,-235.14 156.27,-228.14"/>
</a>
</g>
</g>
<!-- Node11&#45;&gt;Node4 -->
<g id="edge15_Node000011_Node000004" class="edge">
<title>Node11&#45;&gt;Node4</title>
<g id="a_edge15_Node000011_Node000004"><a xlink:title=" ">
<path fill="none" stroke="#63b8ff" d="M260.1,-223.67C297.25,-221.79 356.65,-217.33 407,-207 415.62,-205.23 424.75,-202.7 433.22,-200.05"/>
<polygon fill="#63b8ff" stroke="#63b8ff" points="434.36,-203.36 442.78,-196.94 432.19,-196.71 434.36,-203.36"/>
</a>
</g>
</g>
<!-- Node11&#45;&gt;Node7 -->
<g id="edge19_Node000011_Node000007" class="edge">
<title>Node11&#45;&gt;Node7</title>
<g id="a_edge19_Node000011_Node000007"><a xlink:title=" ">
<path fill="none" stroke="#63b8ff" d="M255.43,-234.54C272.24,-239.64 293.13,-245.98 311.22,-251.47"/>
<polygon fill="#63b8ff" stroke="#63b8ff" points="310.36,-254.87 320.94,-254.42 312.39,-248.17 310.36,-254.87"/>
</a>
</g>
</g>
<!-- Node12 -->
<g id="Node000012" class="node">
<title>Node12</title>
<g id="a_Node000012"><a xlink:href="cJSON_8c.html#af5b4e769356f10d99a7f66697c42c1bb" target="_top" xlink:title=" ">
<polygon fill="white" stroke="#666666" points="399,-197.5 308,-197.5 308,-178.5 399,-178.5 399,-197.5"/>
<text text-anchor="middle" x="353.5" y="-185.5" font-family="Helvetica,sans-Serif" font-size="10.00">print_string_ptr</text>
</a>
</g>
</g>
<!-- Node11&#45;&gt;Node12 -->
<g id="edge16_Node000011_Node000012" class="edge">
<title>Node11&#45;&gt;Node12</title>
<g id="a_edge16_Node000011_Node000012"><a xlink:title=" ">
<path fill="none" stroke="#63b8ff" d="M257.09,-215.47C273.01,-210.89 292.28,-205.34 309.33,-200.43"/>
<polygon fill="#63b8ff" stroke="#63b8ff" points="310.43,-203.76 319.07,-197.62 308.5,-197.03 310.43,-203.76"/>
</a>
</g>
</g>
<!-- Node12&#45;&gt;Node4 -->
<g id="edge17_Node000012_Node000004" class="edge">
<title>Node12&#45;&gt;Node4</title>
<g id="a_edge17_Node000012_Node000004"><a xlink:title=" ">
<path fill="none" stroke="#63b8ff" d="M399.29,-188C410.41,-188 422.15,-188 432.68,-188"/>
<polygon fill="#63b8ff" stroke="#63b8ff" points="432.74,-191.5 442.74,-188 432.74,-184.5 432.74,-191.5"/>
</a>
</g>
</g>
<!-- Node13&#45;&gt;Node12 -->
<g id="edge21_Node000013_Node000012" class="edge">
<title>Node13&#45;&gt;Node12</title>
<g id="a_edge21_Node000013_Node000012"><a xlink:title=" ">
<path fill="none" stroke="#63b8ff" d="M259.11,-188C270.96,-188 284.48,-188 297.48,-188"/>
<polygon fill="#63b8ff" stroke="#63b8ff" points="297.76,-191.5 307.76,-188 297.76,-184.5 297.76,-191.5"/>
</a>
</g>
</g>
</g>
</svg>

<g id="navigator" transform="translate(0 0)" fill="#404254">
  <rect fill="#f2f5e9" fill-opacity="0.5" stroke="#606060" stroke-width=".5" x="0" y="0" width="60" height="60"/>
  <use id="zoomplus" xlink:href="#zoomPlus" x="17" y="9" onmousedown="handleZoom(evt,'in')"/>
  <use id="zoomminus" xlink:href="#zoomMin" x="42" y="9" onmousedown="handleZoom(evt,'out')"/>
  <use id="reset" xlink:href="#resetDef" x="30" y="36" onmousedown="handleReset()"/>
   <use id="arrowup" xlink:href="#arrowUp" x="0" y="0" onmousedown="handlePan(0,-1)"/>
  <use id="arrowright" xlink:href="#arrowRight" x="0" y="0" onmousedown="handlePan(1,0)"/>
  <use id="arrowdown" xlink:href="#arrowDown" x="0" y="0" onmousedown="handlePan(0,1)"/>
  <use id="arrowleft" xlink:href="#arrowLeft" x="0" y="0" onmousedown="handlePan(-1,0)"/>
</g>
<svg viewBox="0 0 15 15" width="100%" height="30px" preserveAspectRatio="xMaxYMin meet">
 <g id="arrow_out" transform="scale(0.3 0.3)">
  <a xlink:href="cJSON_8c_a36b0c212c0d382a4714afa8b70c1a2ee_cgraph_org.svg" target="_base">
   <rect id="button" ry="5" rx="5" y="6" x="6" height="38" width="38"
        fill="#f2f5e9" fill-opacity="0.5" stroke="#606060" stroke-width="1.0"/>
   <path id="arrow"
     d="M 11.500037,31.436501 C 11.940474,20.09759 22.043105,11.32322 32.158766,21.979434 L 37.068811,17.246167 C 37.068811,17.246167 37.088388,32 37.088388,32 L 22.160133,31.978069 C 22.160133,31.978069 26.997745,27.140456 26.997745,27.140456 C 18.528582,18.264221 13.291696,25.230495 11.500037,31.436501 z"
     style="fill:#404040;"/>
  </a>
 </g>
</svg>

<style type='text/css'>
<![CDATA[
[data-mouse-over-selected='false'] { opacity: 0.7; }
[data-mouse-over-selected='true']  { opacity: 1.0; }
]]>
</style>
<script type="application/ecmascript"><![CDATA[
document.addEventListener('DOMContentLoaded', (event) => {
  highlightEdges();
  highlightAdjacentNodes();
});
]]></script>
</svg>
