<?xml version="1.0" encoding="UTF-8" standalone="no"?>
<!DOCTYPE svg PUBLIC "-//W3C//DTD SVG 1.1//EN"
 "http://www.w3.org/Graphics/SVG/1.1/DTD/svg11.dtd">
<!-- Generated by graphviz version 2.43.0 (0)
 -->
<!-- Title: src/CommProtocols/Modbus.c Pages: 1 -->
<svg width="1240pt" height="308pt"
 viewBox="0.00 0.00 1239.50 308.00" xmlns="http://www.w3.org/2000/svg" xmlns:xlink="http://www.w3.org/1999/xlink">
<g id="graph0" class="graph" transform="scale(1 1) rotate(0) translate(4 304)">
<title>src/CommProtocols/Modbus.c</title>
<polygon fill="white" stroke="transparent" points="-4,4 -4,-304 1235.5,-304 1235.5,4 -4,4"/>
<!-- Node1 -->
<g id="node1" class="node">
<title>Node1</title>
<g id="a_node1"><a xlink:title="Implementation of Modbus protocol handling.">
<polygon fill="#bfbfbf" stroke="black" points="364.5,-280.5 364.5,-299.5 525.5,-299.5 525.5,-280.5 364.5,-280.5"/>
<text text-anchor="middle" x="445" y="-287.5" font-family="Helvetica,sans-Serif" font-size="10.00">src/CommProtocols/Modbus.c</text>
</a>
</g>
</g>
<!-- Node2 -->
<g id="node2" class="node">
<title>Node2</title>
<g id="a_node2"><a xlink:title=" ">
<polygon fill="white" stroke="#bfbfbf" points="1168.5,-0.5 1168.5,-19.5 1231.5,-19.5 1231.5,-0.5 1168.5,-0.5"/>
<text text-anchor="middle" x="1200" y="-7.5" font-family="Helvetica,sans-Serif" font-size="10.00">pthread.h</text>
</a>
</g>
</g>
<!-- Node1&#45;&gt;Node2 -->
<g id="edge1" class="edge">
<title>Node1&#45;&gt;Node2</title>
<path fill="none" stroke="midnightblue" d="M525.82,-285.38C718.13,-275.68 1187,-245.25 1187,-179 1187,-179 1187,-179 1187,-121 1187,-88.58 1192.64,-51.15 1196.49,-29.37"/>
<polygon fill="midnightblue" stroke="midnightblue" points="1199.93,-29.99 1198.3,-19.52 1193.05,-28.72 1199.93,-29.99"/>
</g>
<!-- Node3 -->
<g id="node3" class="node">
<title>Node3</title>
<g id="a_node3"><a xlink:title=" ">
<polygon fill="white" stroke="#bfbfbf" points="0,-0.5 0,-19.5 50,-19.5 50,-0.5 0,-0.5"/>
<text text-anchor="middle" x="25" y="-7.5" font-family="Helvetica,sans-Serif" font-size="10.00">stdio.h</text>
</a>
</g>
</g>
<!-- Node1&#45;&gt;Node3 -->
<g id="edge2" class="edge">
<title>Node1&#45;&gt;Node3</title>
<path fill="none" stroke="midnightblue" d="M364.37,-286.99C312.59,-282.8 245.3,-271.8 192,-244 155.78,-225.11 127,-219.86 127,-179 127,-179 127,-179 127,-121 127,-76.39 81.34,-42.23 51.12,-24.51"/>
<polygon fill="midnightblue" stroke="midnightblue" points="52.73,-21.4 42.3,-19.55 49.3,-27.5 52.73,-21.4"/>
</g>
<!-- Node4 -->
<g id="node4" class="node">
<title>Node4</title>
<g id="a_node4"><a xlink:title=" ">
<polygon fill="white" stroke="#bfbfbf" points="346,-168.5 346,-187.5 418,-187.5 418,-168.5 346,-168.5"/>
<text text-anchor="middle" x="382" y="-175.5" font-family="Helvetica,sans-Serif" font-size="10.00">sys/types.h</text>
</a>
</g>
</g>
<!-- Node1&#45;&gt;Node4 -->
<g id="edge3" class="edge">
<title>Node1&#45;&gt;Node4</title>
<path fill="none" stroke="midnightblue" d="M420.53,-280.44C404.43,-273.38 384.62,-261.63 375,-244 367.19,-229.69 370.34,-210.98 374.62,-197.31"/>
<polygon fill="midnightblue" stroke="midnightblue" points="378.02,-198.2 378.1,-187.61 371.43,-195.84 378.02,-198.2"/>
</g>
<!-- Node5 -->
<g id="node5" class="node">
<title>Node5</title>
<g id="a_node5"><a xlink:title=" ">
<polygon fill="white" stroke="#bfbfbf" points="68,-0.5 68,-19.5 124,-19.5 124,-0.5 68,-0.5"/>
<text text-anchor="middle" x="96" y="-7.5" font-family="Helvetica,sans-Serif" font-size="10.00">unistd.h</text>
</a>
</g>
</g>
<!-- Node1&#45;&gt;Node5 -->
<g id="edge4" class="edge">
<title>Node1&#45;&gt;Node5</title>
<path fill="none" stroke="midnightblue" d="M364.36,-287.93C286.72,-282.12 181,-259.44 181,-179 181,-179 181,-179 181,-121 181,-79.76 143.14,-44.57 117.95,-25.73"/>
<polygon fill="midnightblue" stroke="midnightblue" points="119.82,-22.76 109.66,-19.76 115.73,-28.44 119.82,-22.76"/>
</g>
<!-- Node6 -->
<g id="node6" class="node">
<title>Node6</title>
<g id="a_node6"><a xlink:href="Sdb_8h.html" target="_top" xlink:title=" ">
<polygon fill="white" stroke="black" points="577.5,-56.5 577.5,-75.5 638.5,-75.5 638.5,-56.5 577.5,-56.5"/>
<text text-anchor="middle" x="608" y="-63.5" font-family="Helvetica,sans-Serif" font-size="10.00">src/Sdb.h</text>
</a>
</g>
</g>
<!-- Node1&#45;&gt;Node6 -->
<g id="edge5" class="edge">
<title>Node1&#45;&gt;Node6</title>
<path fill="none" stroke="midnightblue" d="M422.62,-280.42C405.42,-272.92 381.97,-260.62 366,-244 340.95,-217.93 316.38,-197.69 337,-168 389.39,-92.56 505.27,-73.37 567.16,-68.55"/>
<polygon fill="midnightblue" stroke="midnightblue" points="567.6,-72.03 577.34,-67.85 567.12,-65.05 567.6,-72.03"/>
</g>
<!-- Node21 -->
<g id="node21" class="node">
<title>Node21</title>
<g id="a_node21"><a xlink:title=" ">
<polygon fill="white" stroke="#bfbfbf" points="524.5,-224.5 524.5,-243.5 685.5,-243.5 685.5,-224.5 524.5,-224.5"/>
<text text-anchor="middle" x="605" y="-231.5" font-family="Helvetica,sans-Serif" font-size="10.00">src/CommProtocols/Modbus.h</text>
</a>
</g>
</g>
<!-- Node1&#45;&gt;Node21 -->
<g id="edge23" class="edge">
<title>Node1&#45;&gt;Node21</title>
<path fill="none" stroke="midnightblue" d="M470.35,-280.44C497.27,-271.36 540,-256.94 570.09,-246.78"/>
<polygon fill="midnightblue" stroke="midnightblue" points="571.41,-250.03 579.77,-243.52 569.17,-243.4 571.41,-250.03"/>
</g>
<!-- Node22 -->
<g id="node22" class="node">
<title>Node22</title>
<g id="a_node22"><a xlink:href="SensorDataPipe_8h.html" target="_top" xlink:title="Lock&#45;Free Data Pipeline.">
<polygon fill="white" stroke="black" points="703.5,-224.5 703.5,-243.5 870.5,-243.5 870.5,-224.5 703.5,-224.5"/>
<text text-anchor="middle" x="787" y="-231.5" font-family="Helvetica,sans-Serif" font-size="10.00">src/Common/SensorDataPipe.h</text>
</a>
</g>
</g>
<!-- Node1&#45;&gt;Node22 -->
<g id="edge24" class="edge">
<title>Node1&#45;&gt;Node22</title>
<path fill="none" stroke="midnightblue" d="M499.19,-280.44C559.98,-270.85 658.49,-255.29 723.01,-245.1"/>
<polygon fill="midnightblue" stroke="midnightblue" points="723.73,-248.53 733.06,-243.52 722.64,-241.62 723.73,-248.53"/>
</g>
<!-- Node24 -->
<g id="node24" class="node">
<title>Node24</title>
<g id="a_node24"><a xlink:href="Thread_8h.html" target="_top" xlink:title="Lightweight Synchronization Primitives Wrapper.">
<polygon fill="white" stroke="black" points="834,-168.5 834,-187.5 958,-187.5 958,-168.5 834,-168.5"/>
<text text-anchor="middle" x="896" y="-175.5" font-family="Helvetica,sans-Serif" font-size="10.00">src/Common/Thread.h</text>
</a>
</g>
</g>
<!-- Node1&#45;&gt;Node24 -->
<g id="edge40" class="edge">
<title>Node1&#45;&gt;Node24</title>
<path fill="none" stroke="midnightblue" d="M525.52,-285.63C643.92,-279.93 853.87,-266.74 880,-244 892.99,-232.69 896.3,-212.69 896.79,-197.85"/>
<polygon fill="midnightblue" stroke="midnightblue" points="900.29,-197.72 896.72,-187.74 893.29,-197.76 900.29,-197.72"/>
</g>
<!-- Node28 -->
<g id="node28" class="node">
<title>Node28</title>
<g id="a_node28"><a xlink:href="Socket_8h.html" target="_top" xlink:title="Simplified Socket Communication Utilities.">
<polygon fill="white" stroke="black" points="384,-224.5 384,-243.5 506,-243.5 506,-224.5 384,-224.5"/>
<text text-anchor="middle" x="445" y="-231.5" font-family="Helvetica,sans-Serif" font-size="10.00">src/Common/Socket.h</text>
</a>
</g>
</g>
<!-- Node1&#45;&gt;Node28 -->
<g id="edge35" class="edge">
<title>Node1&#45;&gt;Node28</title>
<path fill="none" stroke="midnightblue" d="M445,-280.08C445,-273.01 445,-262.86 445,-253.99"/>
<polygon fill="midnightblue" stroke="midnightblue" points="448.5,-253.75 445,-243.75 441.5,-253.75 448.5,-253.75"/>
</g>
<!-- Node6&#45;&gt;Node2 -->
<g id="edge12" class="edge">
<title>Node6&#45;&gt;Node2</title>
<path fill="none" stroke="midnightblue" d="M638.51,-62.75C741.72,-55.11 1075.54,-30.12 1158.33,-19.76"/>
<polygon fill="midnightblue" stroke="midnightblue" points="1158.86,-23.22 1168.29,-18.4 1157.91,-16.29 1158.86,-23.22"/>
</g>
<!-- Node6&#45;&gt;Node3 -->
<g id="edge15" class="edge">
<title>Node6&#45;&gt;Node3</title>
<path fill="none" stroke="midnightblue" d="M577.41,-64.39C495.13,-62.34 262.24,-53.9 60.05,-19.88"/>
<polygon fill="midnightblue" stroke="midnightblue" points="60.59,-16.42 50.14,-18.19 59.41,-23.32 60.59,-16.42"/>
</g>
<!-- Node6&#45;&gt;Node5 -->
<g id="edge21" class="edge">
<title>Node6&#45;&gt;Node5</title>
<path fill="none" stroke="midnightblue" d="M577.24,-63.62C502.78,-59.97 306.89,-48.39 134.22,-19.98"/>
<polygon fill="midnightblue" stroke="midnightblue" points="134.63,-16.5 124.19,-18.3 133.48,-23.4 134.63,-16.5"/>
</g>
<!-- Node7 -->
<g id="node7" class="node">
<title>Node7</title>
<g id="a_node7"><a xlink:title=" ">
<polygon fill="white" stroke="#bfbfbf" points="956,-0.5 956,-19.5 1012,-19.5 1012,-0.5 956,-0.5"/>
<text text-anchor="middle" x="984" y="-7.5" font-family="Helvetica,sans-Serif" font-size="10.00">assert.h</text>
</a>
</g>
</g>
<!-- Node6&#45;&gt;Node7 -->
<g id="edge6" class="edge">
<title>Node6&#45;&gt;Node7</title>
<path fill="none" stroke="midnightblue" d="M638.56,-62.05C696.56,-56.21 826.71,-41.97 945.77,-20.06"/>
<polygon fill="midnightblue" stroke="midnightblue" points="946.6,-23.46 955.79,-18.19 945.31,-16.58 946.6,-23.46"/>
</g>
<!-- Node8 -->
<g id="node8" class="node">
<title>Node8</title>
<g id="a_node8"><a xlink:title=" ">
<polygon fill="white" stroke="#bfbfbf" points="1030.5,-0.5 1030.5,-19.5 1083.5,-19.5 1083.5,-0.5 1030.5,-0.5"/>
<text text-anchor="middle" x="1057" y="-7.5" font-family="Helvetica,sans-Serif" font-size="10.00">ctype.h</text>
</a>
</g>
</g>
<!-- Node6&#45;&gt;Node8 -->
<g id="edge7" class="edge">
<title>Node6&#45;&gt;Node8</title>
<path fill="none" stroke="midnightblue" d="M638.51,-63.11C705.69,-58.63 871.5,-45.92 1020.13,-19.91"/>
<polygon fill="midnightblue" stroke="midnightblue" points="1021.12,-23.29 1030.35,-18.09 1019.89,-16.4 1021.12,-23.29"/>
</g>
<!-- Node9 -->
<g id="node9" class="node">
<title>Node9</title>
<g id="a_node9"><a xlink:title=" ">
<polygon fill="white" stroke="#bfbfbf" points="142.5,-0.5 142.5,-19.5 193.5,-19.5 193.5,-0.5 142.5,-0.5"/>
<text text-anchor="middle" x="168" y="-7.5" font-family="Helvetica,sans-Serif" font-size="10.00">errno.h</text>
</a>
</g>
</g>
<!-- Node6&#45;&gt;Node9 -->
<g id="edge8" class="edge">
<title>Node6&#45;&gt;Node9</title>
<path fill="none" stroke="midnightblue" d="M577.47,-63.17C511.06,-58.86 348.43,-46.51 203.49,-20.04"/>
<polygon fill="midnightblue" stroke="midnightblue" points="204,-16.57 193.53,-18.19 202.72,-23.46 204,-16.57"/>
</g>
<!-- Node10 -->
<g id="node10" class="node">
<title>Node10</title>
<g id="a_node10"><a xlink:title=" ">
<polygon fill="white" stroke="#bfbfbf" points="211.5,-0.5 211.5,-19.5 258.5,-19.5 258.5,-0.5 211.5,-0.5"/>
<text text-anchor="middle" x="235" y="-7.5" font-family="Helvetica,sans-Serif" font-size="10.00">fcntl.h</text>
</a>
</g>
</g>
<!-- Node6&#45;&gt;Node10 -->
<g id="edge9" class="edge">
<title>Node6&#45;&gt;Node10</title>
<path fill="none" stroke="midnightblue" d="M577.19,-62.42C518.73,-57.21 387.61,-44.01 268.67,-20.11"/>
<polygon fill="midnightblue" stroke="midnightblue" points="269.17,-16.64 258.67,-18.07 267.77,-23.49 269.17,-16.64"/>
</g>
<!-- Node11 -->
<g id="node11" class="node">
<title>Node11</title>
<g id="a_node11"><a xlink:title=" ">
<polygon fill="white" stroke="#bfbfbf" points="276.5,-0.5 276.5,-19.5 323.5,-19.5 323.5,-0.5 276.5,-0.5"/>
<text text-anchor="middle" x="300" y="-7.5" font-family="Helvetica,sans-Serif" font-size="10.00">float.h</text>
</a>
</g>
</g>
<!-- Node6&#45;&gt;Node11 -->
<g id="edge10" class="edge">
<title>Node6&#45;&gt;Node11</title>
<path fill="none" stroke="midnightblue" d="M577.28,-61.04C528,-54.45 428.06,-40.15 333.71,-19.95"/>
<polygon fill="midnightblue" stroke="midnightblue" points="334.23,-16.48 323.72,-17.79 332.75,-23.33 334.23,-16.48"/>
</g>
<!-- Node12 -->
<g id="node12" class="node">
<title>Node12</title>
<g id="a_node12"><a xlink:title=" ">
<polygon fill="white" stroke="#bfbfbf" points="341.5,-0.5 341.5,-19.5 392.5,-19.5 392.5,-0.5 341.5,-0.5"/>
<text text-anchor="middle" x="367" y="-7.5" font-family="Helvetica,sans-Serif" font-size="10.00">math.h</text>
</a>
</g>
</g>
<!-- Node6&#45;&gt;Node12 -->
<g id="edge11" class="edge">
<title>Node6&#45;&gt;Node12</title>
<path fill="none" stroke="midnightblue" d="M577.21,-58.64C538.76,-50.62 470.73,-36.17 402.63,-20.08"/>
<polygon fill="midnightblue" stroke="midnightblue" points="403.13,-16.6 392.59,-17.69 401.51,-23.41 403.13,-16.6"/>
</g>
<!-- Node13 -->
<g id="node13" class="node">
<title>Node13</title>
<g id="a_node13"><a xlink:title=" ">
<polygon fill="white" stroke="#bfbfbf" points="411,-0.5 411,-19.5 467,-19.5 467,-0.5 411,-0.5"/>
<text text-anchor="middle" x="439" y="-7.5" font-family="Helvetica,sans-Serif" font-size="10.00">stdarg.h</text>
</a>
</g>
</g>
<!-- Node6&#45;&gt;Node13 -->
<g id="edge13" class="edge">
<title>Node6&#45;&gt;Node13</title>
<path fill="none" stroke="midnightblue" d="M581.22,-56.44C552.67,-47.32 507.27,-32.81 475.46,-22.65"/>
<polygon fill="midnightblue" stroke="midnightblue" points="476.24,-19.23 465.65,-19.52 474.11,-25.89 476.24,-19.23"/>
</g>
<!-- Node14 -->
<g id="node14" class="node">
<title>Node14</title>
<g id="a_node14"><a xlink:title=" ">
<polygon fill="white" stroke="#bfbfbf" points="485.5,-0.5 485.5,-19.5 538.5,-19.5 538.5,-0.5 485.5,-0.5"/>
<text text-anchor="middle" x="512" y="-7.5" font-family="Helvetica,sans-Serif" font-size="10.00">stdint.h</text>
</a>
</g>
</g>
<!-- Node6&#45;&gt;Node14 -->
<g id="edge14" class="edge">
<title>Node6&#45;&gt;Node14</title>
<path fill="none" stroke="midnightblue" d="M592.58,-56.32C577.46,-47.82 554.18,-34.73 536.53,-24.8"/>
<polygon fill="midnightblue" stroke="midnightblue" points="537.82,-21.51 527.39,-19.65 534.39,-27.61 537.82,-21.51"/>
</g>
<!-- Node15 -->
<g id="node15" class="node">
<title>Node15</title>
<g id="a_node15"><a xlink:title=" ">
<polygon fill="white" stroke="#bfbfbf" points="556.5,-0.5 556.5,-19.5 609.5,-19.5 609.5,-0.5 556.5,-0.5"/>
<text text-anchor="middle" x="583" y="-7.5" font-family="Helvetica,sans-Serif" font-size="10.00">stdlib.h</text>
</a>
</g>
</g>
<!-- Node6&#45;&gt;Node15 -->
<g id="edge16" class="edge">
<title>Node6&#45;&gt;Node15</title>
<path fill="none" stroke="midnightblue" d="M603.87,-56.08C600.49,-48.77 595.58,-38.18 591.38,-29.1"/>
<polygon fill="midnightblue" stroke="midnightblue" points="594.43,-27.36 587.05,-19.75 588.08,-30.3 594.43,-27.36"/>
</g>
<!-- Node16 -->
<g id="node16" class="node">
<title>Node16</title>
<g id="a_node16"><a xlink:title=" ">
<polygon fill="white" stroke="#bfbfbf" points="627.5,-0.5 627.5,-19.5 680.5,-19.5 680.5,-0.5 627.5,-0.5"/>
<text text-anchor="middle" x="654" y="-7.5" font-family="Helvetica,sans-Serif" font-size="10.00">string.h</text>
</a>
</g>
</g>
<!-- Node6&#45;&gt;Node16 -->
<g id="edge17" class="edge">
<title>Node6&#45;&gt;Node16</title>
<path fill="none" stroke="midnightblue" d="M615.6,-56.08C622.23,-48.3 632.02,-36.8 640.06,-27.37"/>
<polygon fill="midnightblue" stroke="midnightblue" points="642.73,-29.63 646.55,-19.75 637.4,-25.09 642.73,-29.63"/>
</g>
<!-- Node17 -->
<g id="node17" class="node">
<title>Node17</title>
<g id="a_node17"><a xlink:title=" ">
<polygon fill="white" stroke="#bfbfbf" points="698.5,-0.5 698.5,-19.5 775.5,-19.5 775.5,-0.5 698.5,-0.5"/>
<text text-anchor="middle" x="737" y="-7.5" font-family="Helvetica,sans-Serif" font-size="10.00">sys/mman.h</text>
</a>
</g>
</g>
<!-- Node6&#45;&gt;Node17 -->
<g id="edge18" class="edge">
<title>Node6&#45;&gt;Node17</title>
<path fill="none" stroke="midnightblue" d="M628.44,-56.44C649.67,-47.56 683.1,-33.56 707.25,-23.45"/>
<polygon fill="midnightblue" stroke="midnightblue" points="708.78,-26.61 716.66,-19.52 706.08,-20.15 708.78,-26.61"/>
</g>
<!-- Node18 -->
<g id="node18" class="node">
<title>Node18</title>
<g id="a_node18"><a xlink:title=" ">
<polygon fill="white" stroke="#bfbfbf" points="794,-0.5 794,-19.5 858,-19.5 858,-0.5 794,-0.5"/>
<text text-anchor="middle" x="826" y="-7.5" font-family="Helvetica,sans-Serif" font-size="10.00">sys/stat.h</text>
</a>
</g>
</g>
<!-- Node6&#45;&gt;Node18 -->
<g id="edge19" class="edge">
<title>Node6&#45;&gt;Node18</title>
<path fill="none" stroke="midnightblue" d="M638.77,-57.38C676.8,-47.96 741.68,-31.89 784.2,-21.35"/>
<polygon fill="midnightblue" stroke="midnightblue" points="785.1,-24.74 793.97,-18.93 783.42,-17.94 785.1,-24.74"/>
</g>
<!-- Node19 -->
<g id="node19" class="node">
<title>Node19</title>
<g id="a_node19"><a xlink:title=" ">
<polygon fill="white" stroke="#bfbfbf" points="1102,-0.5 1102,-19.5 1150,-19.5 1150,-0.5 1102,-0.5"/>
<text text-anchor="middle" x="1126" y="-7.5" font-family="Helvetica,sans-Serif" font-size="10.00">time.h</text>
</a>
</g>
</g>
<!-- Node6&#45;&gt;Node19 -->
<g id="edge20" class="edge">
<title>Node6&#45;&gt;Node19</title>
<path fill="none" stroke="midnightblue" d="M638.57,-62.86C727.75,-56.52 987.42,-37.27 1092.04,-19.81"/>
<polygon fill="midnightblue" stroke="midnightblue" points="1092.71,-23.25 1101.96,-18.08 1091.51,-16.35 1092.71,-23.25"/>
</g>
<!-- Node20 -->
<g id="node20" class="node">
<title>Node20</title>
<g id="a_node20"><a xlink:title=" ">
<polygon fill="white" stroke="#bfbfbf" points="876,-0.5 876,-19.5 938,-19.5 938,-0.5 876,-0.5"/>
<text text-anchor="middle" x="907" y="-7.5" font-family="Helvetica,sans-Serif" font-size="10.00">stdbool.h</text>
</a>
</g>
</g>
<!-- Node6&#45;&gt;Node20 -->
<g id="edge22" class="edge">
<title>Node6&#45;&gt;Node20</title>
<path fill="none" stroke="midnightblue" d="M638.79,-60.15C685.65,-52.67 777.89,-37.51 865.73,-20.18"/>
<polygon fill="midnightblue" stroke="midnightblue" points="866.46,-23.6 875.59,-18.22 865.1,-16.74 866.46,-23.6"/>
</g>
<!-- Node22&#45;&gt;Node6 -->
<g id="edge26" class="edge">
<title>Node22&#45;&gt;Node6</title>
<path fill="none" stroke="midnightblue" d="M776.63,-224.4C765.74,-215.36 748.13,-200.72 733,-188 703.56,-163.24 694.65,-158.74 667,-132 650.82,-116.36 633.68,-97.13 622.07,-83.67"/>
<polygon fill="midnightblue" stroke="midnightblue" points="624.45,-81.07 615.3,-75.74 619.13,-85.62 624.45,-81.07"/>
</g>
<!-- Node23 -->
<g id="node23" class="node">
<title>Node23</title>
<g id="a_node23"><a xlink:title=" ">
<polygon fill="white" stroke="#bfbfbf" points="742,-168.5 742,-187.5 816,-187.5 816,-168.5 742,-168.5"/>
<text text-anchor="middle" x="779" y="-175.5" font-family="Helvetica,sans-Serif" font-size="10.00">stdatomic.h</text>
</a>
</g>
</g>
<!-- Node22&#45;&gt;Node23 -->
<g id="edge25" class="edge">
<title>Node22&#45;&gt;Node23</title>
<path fill="none" stroke="midnightblue" d="M785.68,-224.08C784.62,-216.93 783.09,-206.64 781.77,-197.69"/>
<polygon fill="midnightblue" stroke="midnightblue" points="785.22,-197.13 780.3,-187.75 778.3,-198.16 785.22,-197.13"/>
</g>
<!-- Node22&#45;&gt;Node24 -->
<g id="edge27" class="edge">
<title>Node22&#45;&gt;Node24</title>
<path fill="none" stroke="midnightblue" d="M804.51,-224.32C822.07,-215.62 849.33,-202.12 869.53,-192.11"/>
<polygon fill="midnightblue" stroke="midnightblue" points="871.12,-195.23 878.53,-187.65 868.02,-188.96 871.12,-195.23"/>
</g>
<!-- Node24&#45;&gt;Node2 -->
<g id="edge28" class="edge">
<title>Node24&#45;&gt;Node2</title>
<path fill="none" stroke="midnightblue" d="M911.92,-168.31C961.78,-141.08 1115.23,-57.29 1175.41,-24.43"/>
<polygon fill="midnightblue" stroke="midnightblue" points="1177.14,-27.47 1184.24,-19.61 1173.79,-21.33 1177.14,-27.47"/>
</g>
<!-- Node24&#45;&gt;Node6 -->
<g id="edge30" class="edge">
<title>Node24&#45;&gt;Node6</title>
<path fill="none" stroke="midnightblue" d="M839.2,-168.45C801.29,-161.52 750.91,-149.92 709,-132 678.07,-118.78 646.02,-96.41 626.54,-81.68"/>
<polygon fill="midnightblue" stroke="midnightblue" points="628.58,-78.83 618.53,-75.5 624.31,-84.38 628.58,-78.83"/>
</g>
<!-- Node25 -->
<g id="node25" class="node">
<title>Node25</title>
<g id="a_node25"><a xlink:title=" ">
<polygon fill="white" stroke="#bfbfbf" points="856,-112.5 856,-131.5 936,-131.5 936,-112.5 856,-112.5"/>
<text text-anchor="middle" x="896" y="-119.5" font-family="Helvetica,sans-Serif" font-size="10.00">semaphore.h</text>
</a>
</g>
</g>
<!-- Node24&#45;&gt;Node25 -->
<g id="edge29" class="edge">
<title>Node24&#45;&gt;Node25</title>
<path fill="none" stroke="midnightblue" d="M896,-168.08C896,-161.01 896,-150.86 896,-141.99"/>
<polygon fill="midnightblue" stroke="midnightblue" points="899.5,-141.75 896,-131.75 892.5,-141.75 899.5,-141.75"/>
</g>
<!-- Node26 -->
<g id="node26" class="node">
<title>Node26</title>
<g id="a_node26"><a xlink:href="Time_8h.html" target="_top" xlink:title="Lightweight Time Manipulation Utilities.">
<polygon fill="white" stroke="black" points="717.5,-112.5 717.5,-131.5 832.5,-131.5 832.5,-112.5 717.5,-112.5"/>
<text text-anchor="middle" x="775" y="-119.5" font-family="Helvetica,sans-Serif" font-size="10.00">src/Common/Time.h</text>
</a>
</g>
</g>
<!-- Node24&#45;&gt;Node26 -->
<g id="edge31" class="edge">
<title>Node24&#45;&gt;Node26</title>
<path fill="none" stroke="midnightblue" d="M876.83,-168.44C857.09,-159.64 826.11,-145.81 803.51,-135.72"/>
<polygon fill="midnightblue" stroke="midnightblue" points="804.64,-132.4 794.08,-131.52 801.79,-138.79 804.64,-132.4"/>
</g>
<!-- Node26&#45;&gt;Node6 -->
<g id="edge34" class="edge">
<title>Node26&#45;&gt;Node6</title>
<path fill="none" stroke="midnightblue" d="M748.54,-112.44C720.32,-103.32 675.46,-88.81 644.03,-78.65"/>
<polygon fill="midnightblue" stroke="midnightblue" points="644.93,-75.26 634.34,-75.52 642.78,-81.92 644.93,-75.26"/>
</g>
<!-- Node26&#45;&gt;Node19 -->
<g id="edge33" class="edge">
<title>Node26&#45;&gt;Node19</title>
<path fill="none" stroke="midnightblue" d="M802.25,-112.46C865.65,-92.59 1022.93,-43.3 1092.26,-21.57"/>
<polygon fill="midnightblue" stroke="midnightblue" points="1093.33,-24.91 1101.83,-18.57 1091.24,-18.23 1093.33,-24.91"/>
</g>
<!-- Node27 -->
<g id="node27" class="node">
<title>Node27</title>
<g id="a_node27"><a xlink:title=" ">
<polygon fill="white" stroke="#bfbfbf" points="748.5,-56.5 748.5,-75.5 801.5,-75.5 801.5,-56.5 748.5,-56.5"/>
<text text-anchor="middle" x="775" y="-63.5" font-family="Helvetica,sans-Serif" font-size="10.00">limits.h</text>
</a>
</g>
</g>
<!-- Node26&#45;&gt;Node27 -->
<g id="edge32" class="edge">
<title>Node26&#45;&gt;Node27</title>
<path fill="none" stroke="midnightblue" d="M775,-112.08C775,-105.01 775,-94.86 775,-85.99"/>
<polygon fill="midnightblue" stroke="midnightblue" points="778.5,-85.75 775,-75.75 771.5,-85.75 778.5,-85.75"/>
</g>
<!-- Node28&#45;&gt;Node4 -->
<g id="edge39" class="edge">
<title>Node28&#45;&gt;Node4</title>
<path fill="none" stroke="midnightblue" d="M434.88,-224.32C425.47,-216.26 411.26,-204.08 399.93,-194.37"/>
<polygon fill="midnightblue" stroke="midnightblue" points="402.18,-191.68 392.31,-187.83 397.62,-197 402.18,-191.68"/>
</g>
<!-- Node28&#45;&gt;Node6 -->
<g id="edge36" class="edge">
<title>Node28&#45;&gt;Node6</title>
<path fill="none" stroke="midnightblue" d="M446.05,-224.21C448.01,-210.92 453.24,-185.41 466,-168 495.98,-127.09 547.6,-96.45 579.65,-80.17"/>
<polygon fill="midnightblue" stroke="midnightblue" points="581.51,-83.15 588.93,-75.58 578.41,-76.88 581.51,-83.15"/>
</g>
<!-- Node28&#45;&gt;Node26 -->
<g id="edge37" class="edge">
<title>Node28&#45;&gt;Node26</title>
<path fill="none" stroke="midnightblue" d="M470.62,-224.46C529.1,-204.97 672.52,-157.16 739.48,-134.84"/>
<polygon fill="midnightblue" stroke="midnightblue" points="740.79,-138.09 749.17,-131.61 738.58,-131.45 740.79,-138.09"/>
</g>
<!-- Node29 -->
<g id="node29" class="node">
<title>Node29</title>
<g id="a_node29"><a xlink:title=" ">
<polygon fill="white" stroke="#bfbfbf" points="474.5,-168.5 474.5,-187.5 551.5,-187.5 551.5,-168.5 474.5,-168.5"/>
<text text-anchor="middle" x="513" y="-175.5" font-family="Helvetica,sans-Serif" font-size="10.00">sys/socket.h</text>
</a>
</g>
</g>
<!-- Node28&#45;&gt;Node29 -->
<g id="edge38" class="edge">
<title>Node28&#45;&gt;Node29</title>
<path fill="none" stroke="midnightblue" d="M455.93,-224.32C466.17,-216.18 481.72,-203.84 494,-194.09"/>
<polygon fill="midnightblue" stroke="midnightblue" points="496.22,-196.79 501.88,-187.83 491.87,-191.31 496.22,-196.79"/>
</g>
</g>
</svg>
