<?xml version="1.0" encoding="UTF-8" standalone="no"?>
<!DOCTYPE svg PUBLIC "-//W3C//DTD SVG 1.1//EN"
 "http://www.w3.org/Graphics/SVG/1.1/DTD/svg11.dtd">
<!-- Generated by graphviz version 2.43.0 (0)
 -->
<!-- Title: MbPrepareCtx Pages: 1 -->
<svg width="374pt" height="104pt"
 viewBox="0.00 0.00 374.00 104.00" xmlns="http://www.w3.org/2000/svg" xmlns:xlink="http://www.w3.org/1999/xlink">
<g id="graph0" class="graph" transform="scale(1 1) rotate(0) translate(4 100)">
<title>MbPrepareCtx</title>
<polygon fill="white" stroke="transparent" points="-4,4 -4,-100 370,-100 370,4 -4,4"/>
<!-- Node1 -->
<g id="node1" class="node">
<title>Node1</title>
<g id="a_node1"><a xlink:title="Prepares Modbus context from configuration file.">
<polygon fill="#bfbfbf" stroke="black" points="0,-38.5 0,-57.5 86,-57.5 86,-38.5 0,-38.5"/>
<text text-anchor="middle" x="43" y="-45.5" font-family="Helvetica,sans-Serif" font-size="10.00">MbPrepareCtx</text>
</a>
</g>
</g>
<!-- Node2 -->
<g id="node2" class="node">
<title>Node2</title>
<g id="a_node2"><a xlink:href="Sdb_8h.html#ae4ef1557f623dc27e4d1f8f9cac4b6fc" target="_top" xlink:title=" ">
<polygon fill="white" stroke="black" points="122,-76.5 122,-95.5 256,-95.5 256,-76.5 122,-76.5"/>
<text text-anchor="middle" x="189" y="-83.5" font-family="Helvetica,sans-Serif" font-size="10.00">SdbLoadFileIntoMemory</text>
</a>
</g>
</g>
<!-- Node1&#45;&gt;Node2 -->
<g id="edge1" class="edge">
<title>Node1&#45;&gt;Node2</title>
<path fill="none" stroke="midnightblue" d="M80.34,-57.59C99.08,-62.54 122.14,-68.62 142.11,-73.89"/>
<polygon fill="midnightblue" stroke="midnightblue" points="141.36,-77.31 151.92,-76.48 143.15,-70.54 141.36,-77.31"/>
</g>
<!-- Node3 -->
<g id="node3" class="node">
<title>Node3</title>
<g id="a_node3"><a xlink:href="Sdb_8h.html#acd332199b77e76c2b764ef93a7b60439" target="_top" xlink:title=" ">
<polygon fill="white" stroke="black" points="144.5,-38.5 144.5,-57.5 233.5,-57.5 233.5,-38.5 144.5,-38.5"/>
<text text-anchor="middle" x="189" y="-45.5" font-family="Helvetica,sans-Serif" font-size="10.00">SdbStringMake</text>
</a>
</g>
</g>
<!-- Node1&#45;&gt;Node3 -->
<g id="edge2" class="edge">
<title>Node1&#45;&gt;Node3</title>
<path fill="none" stroke="midnightblue" d="M86.04,-48C101.09,-48 118.26,-48 134.17,-48"/>
<polygon fill="midnightblue" stroke="midnightblue" points="134.41,-51.5 144.41,-48 134.41,-44.5 134.41,-51.5"/>
</g>
<!-- Node4 -->
<g id="node4" class="node">
<title>Node4</title>
<g id="a_node4"><a xlink:href="Socket_8c.html#afe998f70317da205d71f4d76f90d7a0e" target="_top" xlink:title="Create and Connect TCP Socket.">
<polygon fill="white" stroke="black" points="148.5,-0.5 148.5,-19.5 229.5,-19.5 229.5,-0.5 148.5,-0.5"/>
<text text-anchor="middle" x="189" y="-7.5" font-family="Helvetica,sans-Serif" font-size="10.00">SocketCreate</text>
</a>
</g>
</g>
<!-- Node1&#45;&gt;Node4 -->
<g id="edge3" class="edge">
<title>Node1&#45;&gt;Node4</title>
<path fill="none" stroke="midnightblue" d="M80.34,-38.41C99.08,-33.46 122.14,-27.38 142.11,-22.11"/>
<polygon fill="midnightblue" stroke="midnightblue" points="143.15,-25.46 151.92,-19.52 141.36,-18.69 143.15,-25.46"/>
</g>
<!-- Node5 -->
<g id="node5" class="node">
<title>Node5</title>
<g id="a_node5"><a xlink:href="Sdb_8h.html#aa83c474af0fff05c80b6c752168bca29" target="_top" xlink:title=" ">
<polygon fill="white" stroke="black" points="292,-0.5 292,-19.5 366,-19.5 366,-0.5 292,-0.5"/>
<text text-anchor="middle" x="329" y="-7.5" font-family="Helvetica,sans-Serif" font-size="10.00">SdbMemset</text>
</a>
</g>
</g>
<!-- Node4&#45;&gt;Node5 -->
<g id="edge4" class="edge">
<title>Node4&#45;&gt;Node5</title>
<path fill="none" stroke="midnightblue" d="M229.55,-10C245.77,-10 264.67,-10 281.55,-10"/>
<polygon fill="midnightblue" stroke="midnightblue" points="281.75,-13.5 291.75,-10 281.75,-6.5 281.75,-13.5"/>
</g>
</g>
</svg>
