<?xml version="1.0" encoding="UTF-8" standalone="no"?>
<!DOCTYPE svg PUBLIC "-//W3C//DTD SVG 1.1//EN"
 "http://www.w3.org/Graphics/SVG/1.1/DTD/svg11.dtd">
<!-- Generated by graphviz version 2.43.0 (0)
 -->
<!-- Title: PgRun Pages: 1 -->
<svg width="556pt" height="507pt"
 viewBox="0.00 0.00 556.00 507.22" xmlns="http://www.w3.org/2000/svg" xmlns:xlink="http://www.w3.org/1999/xlink">
<g id="graph0" class="graph" transform="scale(1 1) rotate(0) translate(4 503.22)">
<title>PgRun</title>
<polygon fill="white" stroke="transparent" points="-4,4 -4,-503.22 552,-503.22 552,4 -4,4"/>
<!-- Node1 -->
<g id="node1" class="node">
<title>Node1</title>
<g id="a_node1"><a xlink:title="Main PostgreSQL operation loop.">
<polygon fill="#bfbfbf" stroke="black" points="0,-251.72 0,-270.72 47,-270.72 47,-251.72 0,-251.72"/>
<text text-anchor="middle" x="23.5" y="-258.72" font-family="Helvetica,sans-Serif" font-size="10.00">PgRun</text>
</a>
</g>
</g>
<!-- Node2 -->
<g id="node2" class="node">
<title>Node2</title>
<g id="a_node2"><a xlink:href="DatabaseSystems_2Postgres_8c.html#a5caf93c93fdc98377097952a04cd7520" target="_top" xlink:title="Initializes thread arenas for PostgreSQL operations.">
<polygon fill="white" stroke="black" points="87.5,-422.72 87.5,-441.72 199.5,-441.72 199.5,-422.72 87.5,-422.72"/>
<text text-anchor="middle" x="143.5" y="-429.72" font-family="Helvetica,sans-Serif" font-size="10.00">PgInitThreadArenas</text>
</a>
</g>
</g>
<!-- Node1&#45;&gt;Node2 -->
<g id="edge1" class="edge">
<title>Node1&#45;&gt;Node2</title>
<path fill="none" stroke="midnightblue" d="M25.39,-271C28.34,-297.75 40.22,-372.87 83,-413.22 84.67,-414.8 86.46,-416.24 88.36,-417.56"/>
<polygon fill="midnightblue" stroke="midnightblue" points="86.77,-420.68 97.18,-422.63 90.25,-414.61 86.77,-420.68"/>
</g>
<!-- Node3 -->
<g id="node3" class="node">
<title>Node3</title>
<g id="a_node3"><a xlink:href="DatabaseSystems_2Postgres_8c.html#aa7c5ed35f820c0efcccbb4e2f010a980" target="_top" xlink:title="Inserts data into PostgreSQL table using COPY protocol.">
<polygon fill="white" stroke="black" points="103.5,-384.72 103.5,-403.72 183.5,-403.72 183.5,-384.72 103.5,-384.72"/>
<text text-anchor="middle" x="143.5" y="-391.72" font-family="Helvetica,sans-Serif" font-size="10.00">PgInsertData</text>
</a>
</g>
</g>
<!-- Node1&#45;&gt;Node3 -->
<g id="edge2" class="edge">
<title>Node1&#45;&gt;Node3</title>
<path fill="none" stroke="midnightblue" d="M27.18,-270.79C33.48,-291.66 51.18,-341.7 83,-370.22 87.41,-374.18 92.56,-377.52 97.94,-380.35"/>
<polygon fill="midnightblue" stroke="midnightblue" points="96.59,-383.58 107.14,-384.61 99.54,-377.23 96.59,-383.58"/>
</g>
<!-- Node10 -->
<g id="node10" class="node">
<title>Node10</title>
<g id="a_node10"><a xlink:href="DatabaseSystems_2Postgres_8c.html#a1bdbf06b579bf30db0f8826026a90474" target="_top" xlink:title="Prepares PostgreSQL context from configuration.">
<polygon fill="white" stroke="black" points="102,-118.72 102,-137.72 185,-137.72 185,-118.72 102,-118.72"/>
<text text-anchor="middle" x="143.5" y="-125.72" font-family="Helvetica,sans-Serif" font-size="10.00">PgPrepareCtx</text>
</a>
</g>
</g>
<!-- Node1&#45;&gt;Node10 -->
<g id="edge13" class="edge">
<title>Node1&#45;&gt;Node10</title>
<path fill="none" stroke="midnightblue" d="M26.72,-251.7C32.28,-229.92 48.88,-176.13 83,-147.22 85.9,-144.77 89.12,-142.63 92.52,-140.76"/>
<polygon fill="midnightblue" stroke="midnightblue" points="94.25,-143.82 101.85,-136.44 91.3,-137.47 94.25,-143.82"/>
</g>
<!-- Node20 -->
<g id="node20" class="node">
<title>Node20</title>
<g id="a_node20"><a xlink:href="Sdb_8h.html#a132f10c44fe9dab28a9fae8839c099ad" target="_top" xlink:title=" ">
<polygon fill="white" stroke="black" points="88.5,-308.72 88.5,-327.72 198.5,-327.72 198.5,-308.72 88.5,-308.72"/>
<text text-anchor="middle" x="143.5" y="-315.72" font-family="Helvetica,sans-Serif" font-size="10.00">SdbArenaBootstrap</text>
</a>
</g>
</g>
<!-- Node1&#45;&gt;Node20 -->
<g id="edge25" class="edge">
<title>Node1&#45;&gt;Node20</title>
<path fill="none" stroke="midnightblue" d="M37.38,-271.04C48.86,-279.42 66.37,-291.34 83,-299.22 87.66,-301.43 92.64,-303.47 97.66,-305.34"/>
<polygon fill="midnightblue" stroke="midnightblue" points="96.7,-308.71 107.29,-308.7 99,-302.1 96.7,-308.71"/>
</g>
<!-- Node21 -->
<g id="node21" class="node">
<title>Node21</title>
<g id="a_node21"><a xlink:href="Sdb_8h.html#ab63e953fd90c628d5c0727287df66fab" target="_top" xlink:title=" ">
<polygon fill="white" stroke="black" points="104,-270.72 104,-289.72 183,-289.72 183,-270.72 104,-270.72"/>
<text text-anchor="middle" x="143.5" y="-277.72" font-family="Helvetica,sans-Serif" font-size="10.00">SdbArenaInit</text>
</a>
</g>
</g>
<!-- Node1&#45;&gt;Node21 -->
<g id="edge26" class="edge">
<title>Node1&#45;&gt;Node21</title>
<path fill="none" stroke="midnightblue" d="M47.25,-264.89C60.33,-266.99 77.28,-269.72 93.25,-272.29"/>
<polygon fill="midnightblue" stroke="midnightblue" points="93.13,-275.82 103.56,-273.95 94.24,-268.91 93.13,-275.82"/>
</g>
<!-- Node22 -->
<g id="node22" class="node">
<title>Node22</title>
<g id="a_node22"><a xlink:href="Thread_8c.html#a192a33d80a7d463ad237856cdc7343be" target="_top" xlink:title="Wait on a thread barrier.">
<polygon fill="white" stroke="black" points="99,-232.72 99,-251.72 188,-251.72 188,-232.72 99,-232.72"/>
<text text-anchor="middle" x="143.5" y="-239.72" font-family="Helvetica,sans-Serif" font-size="10.00">SdbBarrierWait</text>
</a>
</g>
</g>
<!-- Node1&#45;&gt;Node22 -->
<g id="edge27" class="edge">
<title>Node1&#45;&gt;Node22</title>
<path fill="none" stroke="midnightblue" d="M47.25,-257.56C59.11,-255.65 74.17,-253.23 88.79,-250.87"/>
<polygon fill="midnightblue" stroke="midnightblue" points="89.48,-254.31 98.79,-249.26 88.36,-247.4 89.48,-254.31"/>
</g>
<!-- Node23 -->
<g id="node23" class="node">
<title>Node23</title>
<g id="a_node23"><a xlink:href="Signals_8c.html#aca8d19968aa974641e340443ba21e58e" target="_top" xlink:title="Checks if the system should initiate shutdown.">
<polygon fill="white" stroke="black" points="85.5,-194.72 85.5,-213.72 201.5,-213.72 201.5,-194.72 85.5,-194.72"/>
<text text-anchor="middle" x="143.5" y="-201.72" font-family="Helvetica,sans-Serif" font-size="10.00">SdbShouldShutdown</text>
</a>
</g>
</g>
<!-- Node1&#45;&gt;Node23 -->
<g id="edge28" class="edge">
<title>Node1&#45;&gt;Node23</title>
<path fill="none" stroke="midnightblue" d="M37.38,-251.41C48.86,-243.03 66.37,-231.11 83,-223.22 87.66,-221.02 92.64,-218.97 97.66,-217.11"/>
<polygon fill="midnightblue" stroke="midnightblue" points="99,-220.35 107.29,-213.75 96.7,-213.74 99,-220.35"/>
</g>
<!-- Node24 -->
<g id="node24" class="node">
<title>Node24</title>
<g id="a_node24"><a xlink:href="Time_8c.html#ad3369a427cccb648ad4f30900f4f7c33" target="_top" xlink:title="Get Current Monotonic Timestamp.">
<polygon fill="white" stroke="black" points="88.5,-156.72 88.5,-175.72 198.5,-175.72 198.5,-156.72 88.5,-156.72"/>
<text text-anchor="middle" x="143.5" y="-163.72" font-family="Helvetica,sans-Serif" font-size="10.00">SdbTimeMonotonic</text>
</a>
</g>
</g>
<!-- Node1&#45;&gt;Node24 -->
<g id="edge29" class="edge">
<title>Node1&#45;&gt;Node24</title>
<path fill="none" stroke="midnightblue" d="M29.4,-251.54C38.05,-235.42 57.51,-203.11 83,-185.22 85.84,-183.23 88.89,-181.44 92.07,-179.83"/>
<polygon fill="midnightblue" stroke="midnightblue" points="93.53,-183.02 101.26,-175.77 90.7,-176.61 93.53,-183.02"/>
</g>
<!-- Node25 -->
<g id="node25" class="node">
<title>Node25</title>
<g id="a_node25"><a xlink:href="Time_8c.html#ab96009a36f9428aa5cb1df4c18e7b50a" target="_top" xlink:title="Calculate Time Difference Between Timestamps.">
<polygon fill="white" stroke="black" points="240,-289.72 240,-308.72 378,-308.72 378,-289.72 240,-289.72"/>
<text text-anchor="middle" x="309" y="-296.72" font-family="Helvetica,sans-Serif" font-size="10.00">SdbTimePrintSpecDiffWT</text>
</a>
</g>
</g>
<!-- Node1&#45;&gt;Node25 -->
<g id="edge30" class="edge">
<title>Node1&#45;&gt;Node25</title>
<path fill="none" stroke="midnightblue" d="M28.5,-270.99C36.14,-288.16 54.62,-323.25 83,-337.22 131.25,-360.97 151.8,-350.15 204,-337.22 221.56,-332.87 223.19,-324.92 240,-318.22 245.9,-315.87 252.21,-313.69 258.5,-311.72"/>
<polygon fill="midnightblue" stroke="midnightblue" points="259.76,-314.99 268.33,-308.77 257.75,-308.29 259.76,-314.99"/>
</g>
<!-- Node26 -->
<g id="node26" class="node">
<title>Node26</title>
<g id="a_node26"><a xlink:href="SensorDataPipe_8c.html#a63f4e3d66ed1aaab189408c5e20fcb06" target="_top" xlink:title="Acquire Read Buffer Arena.">
<polygon fill="white" stroke="black" points="83,-80.72 83,-99.72 204,-99.72 204,-80.72 83,-80.72"/>
<text text-anchor="middle" x="143.5" y="-87.72" font-family="Helvetica,sans-Serif" font-size="10.00">SdPipeGetReadBuffer</text>
</a>
</g>
</g>
<!-- Node1&#45;&gt;Node26 -->
<g id="edge32" class="edge">
<title>Node1&#45;&gt;Node26</title>
<path fill="none" stroke="midnightblue" d="M25.39,-251.45C28.34,-224.7 40.22,-149.58 83,-109.22 84.67,-107.65 86.46,-106.21 88.36,-104.89"/>
<polygon fill="midnightblue" stroke="midnightblue" points="90.25,-107.84 97.18,-99.82 86.77,-101.77 90.25,-107.84"/>
</g>
<!-- Node4 -->
<g id="node4" class="node">
<title>Node4</title>
<g id="a_node4"><a xlink:href="Sdb_8h.html#ac5c7c1054a5f2110db33fbaf02ee3875" target="_top" xlink:title=" ">
<polygon fill="white" stroke="black" points="442.5,-384.72 442.5,-403.72 519.5,-403.72 519.5,-384.72 442.5,-384.72"/>
<text text-anchor="middle" x="481" y="-391.72" font-family="Helvetica,sans-Serif" font-size="10.00">SdbMemcpy</text>
</a>
</g>
</g>
<!-- Node3&#45;&gt;Node4 -->
<g id="edge3" class="edge">
<title>Node3&#45;&gt;Node4</title>
<path fill="none" stroke="midnightblue" d="M177.92,-403.76C186.53,-406.52 195.7,-409.74 204,-413.22 220.68,-420.23 222.44,-427.87 240,-432.22 299.53,-446.97 317.64,-443.1 378,-432.22 403.73,-427.59 431.44,-416.86 451.48,-407.99"/>
<polygon fill="midnightblue" stroke="midnightblue" points="453,-411.14 460.66,-403.81 450.1,-404.77 453,-411.14"/>
</g>
<!-- Node5 -->
<g id="node5" class="node">
<title>Node5</title>
<g id="a_node5"><a xlink:href="DatabaseSystems_2Postgres_8c.html#a9b90329e0cf4324fbe9fcd6b22233e34" target="_top" xlink:title="Writes a 2&#45;byte value in network byte order.">
<polygon fill="white" stroke="black" points="284.5,-403.72 284.5,-422.72 333.5,-422.72 333.5,-403.72 284.5,-403.72"/>
<text text-anchor="middle" x="309" y="-410.72" font-family="Helvetica,sans-Serif" font-size="10.00">Write2</text>
</a>
</g>
</g>
<!-- Node3&#45;&gt;Node5 -->
<g id="edge4" class="edge">
<title>Node3&#45;&gt;Node5</title>
<path fill="none" stroke="midnightblue" d="M183.66,-398.78C211.23,-401.98 247.76,-406.22 274.08,-409.28"/>
<polygon fill="midnightblue" stroke="midnightblue" points="273.99,-412.8 284.33,-410.47 274.8,-405.84 273.99,-412.8"/>
</g>
<!-- Node6 -->
<g id="node6" class="node">
<title>Node6</title>
<g id="a_node6"><a xlink:href="DatabaseSystems_2Postgres_8c.html#ab8781f83020464aef1cf9779f072a37f" target="_top" xlink:title=" ">
<polygon fill="white" stroke="black" points="284.5,-365.72 284.5,-384.72 333.5,-384.72 333.5,-365.72 284.5,-365.72"/>
<text text-anchor="middle" x="309" y="-372.72" font-family="Helvetica,sans-Serif" font-size="10.00">Write4</text>
</a>
</g>
</g>
<!-- Node3&#45;&gt;Node6 -->
<g id="edge6" class="edge">
<title>Node3&#45;&gt;Node6</title>
<path fill="none" stroke="midnightblue" d="M183.66,-389.67C211.23,-386.47 247.76,-382.22 274.08,-379.17"/>
<polygon fill="midnightblue" stroke="midnightblue" points="274.8,-382.61 284.33,-377.97 273.99,-375.65 274.8,-382.61"/>
</g>
<!-- Node7 -->
<g id="node7" class="node">
<title>Node7</title>
<g id="a_node7"><a xlink:href="DatabaseSystems_2Postgres_8c.html#af07f5759e9e25a2b5a8569ab296897e8" target="_top" xlink:title=" ">
<polygon fill="white" stroke="black" points="284.5,-327.72 284.5,-346.72 333.5,-346.72 333.5,-327.72 284.5,-327.72"/>
<text text-anchor="middle" x="309" y="-334.72" font-family="Helvetica,sans-Serif" font-size="10.00">Write8</text>
</a>
</g>
</g>
<!-- Node3&#45;&gt;Node7 -->
<g id="edge8" class="edge">
<title>Node3&#45;&gt;Node7</title>
<path fill="none" stroke="midnightblue" d="M168.08,-384.69C193.99,-374.24 232.9,-358.62 240,-356.22 251.11,-352.47 263.42,-348.87 274.48,-345.83"/>
<polygon fill="midnightblue" stroke="midnightblue" points="275.46,-349.19 284.21,-343.21 273.64,-342.43 275.46,-349.19"/>
</g>
<!-- Node8 -->
<g id="node8" class="node">
<title>Node8</title>
<g id="a_node8"><a xlink:href="DatabaseSystems_2Postgres_8c.html#a8be5b0d3a8c5e012cae2737b1ffa7bff" target="_top" xlink:title=" ">
<polygon fill="white" stroke="black" points="260,-479.72 260,-498.72 358,-498.72 358,-479.72 260,-479.72"/>
<text text-anchor="middle" x="309" y="-486.72" font-family="Helvetica,sans-Serif" font-size="10.00">WriteTimestamp</text>
</a>
</g>
</g>
<!-- Node3&#45;&gt;Node8 -->
<g id="edge10" class="edge">
<title>Node3&#45;&gt;Node8</title>
<path fill="none" stroke="midnightblue" d="M183.74,-402.7C190.89,-405.34 197.99,-408.77 204,-413.22 226.59,-429.95 217.66,-448.16 240,-465.22 245.48,-469.41 251.75,-472.91 258.22,-475.82"/>
<polygon fill="midnightblue" stroke="midnightblue" points="257.18,-479.17 267.77,-479.67 259.8,-472.68 257.18,-479.17"/>
</g>
<!-- Node5&#45;&gt;Node4 -->
<g id="edge5" class="edge">
<title>Node5&#45;&gt;Node4</title>
<path fill="none" stroke="midnightblue" d="M333.64,-410.58C358.99,-407.75 399.95,-403.17 432.1,-399.58"/>
<polygon fill="midnightblue" stroke="midnightblue" points="432.64,-403.04 442.19,-398.45 431.87,-396.08 432.64,-403.04"/>
</g>
<!-- Node6&#45;&gt;Node4 -->
<g id="edge7" class="edge">
<title>Node6&#45;&gt;Node4</title>
<path fill="none" stroke="midnightblue" d="M333.64,-377.87C358.99,-380.7 399.95,-385.28 432.1,-388.87"/>
<polygon fill="midnightblue" stroke="midnightblue" points="431.87,-392.37 442.19,-390 432.64,-385.41 431.87,-392.37"/>
</g>
<!-- Node7&#45;&gt;Node4 -->
<g id="edge9" class="edge">
<title>Node7&#45;&gt;Node4</title>
<path fill="none" stroke="midnightblue" d="M333.75,-343.33C346.88,-346.84 363.43,-351.48 378,-356.22 401.06,-363.73 426.63,-373.26 446.4,-380.89"/>
<polygon fill="midnightblue" stroke="midnightblue" points="445.29,-384.22 455.88,-384.59 447.83,-377.7 445.29,-384.22"/>
</g>
<!-- Node8&#45;&gt;Node4 -->
<g id="edge11" class="edge">
<title>Node8&#45;&gt;Node4</title>
<path fill="none" stroke="midnightblue" d="M342.57,-479.71C354.05,-475.85 366.86,-470.94 378,-465.22 408.61,-449.53 440.65,-425.85 460.47,-410.22"/>
<polygon fill="midnightblue" stroke="midnightblue" points="462.8,-412.84 468.42,-403.86 458.42,-407.37 462.8,-412.84"/>
</g>
<!-- Node9 -->
<g id="node9" class="node">
<title>Node9</title>
<g id="a_node9"><a xlink:href="DatabaseSystems_2Postgres_8c.html#afa67b44da30f50a326b7a120665bc477" target="_top" xlink:title="Converts Unix timestamp to PostgreSQL timestamp.">
<polygon fill="white" stroke="black" points="422.5,-479.72 422.5,-498.72 539.5,-498.72 539.5,-479.72 422.5,-479.72"/>
<text text-anchor="middle" x="481" y="-486.72" font-family="Helvetica,sans-Serif" font-size="10.00">UnixToPgTimestamp</text>
</a>
</g>
</g>
<!-- Node8&#45;&gt;Node9 -->
<g id="edge12" class="edge">
<title>Node8&#45;&gt;Node9</title>
<path fill="none" stroke="midnightblue" d="M358.26,-489.22C375,-489.22 394.08,-489.22 412.1,-489.22"/>
<polygon fill="midnightblue" stroke="midnightblue" points="412.27,-492.72 422.27,-489.22 412.27,-485.72 412.27,-492.72"/>
</g>
<!-- Node11 -->
<g id="node11" class="node">
<title>Node11</title>
<g id="a_node11"><a xlink:href="DatabaseInitializer_8c.html#ac3e5e24c2c387a0c28dffaab993aebac" target="_top" xlink:title="Loads and parses a database configuration file.">
<polygon fill="white" stroke="black" points="245,-42.72 245,-61.72 373,-61.72 373,-42.72 245,-42.72"/>
<text text-anchor="middle" x="309" y="-49.72" font-family="Helvetica,sans-Serif" font-size="10.00">DbInitGetConfFromFile</text>
</a>
</g>
</g>
<!-- Node10&#45;&gt;Node11 -->
<g id="edge14" class="edge">
<title>Node10&#45;&gt;Node11</title>
<path fill="none" stroke="midnightblue" d="M184.16,-118.65C191.05,-116.14 197.94,-113.03 204,-109.22 223.7,-96.85 220.08,-83.23 240,-71.22 243.6,-69.05 247.46,-67.12 251.44,-65.41"/>
<polygon fill="midnightblue" stroke="midnightblue" points="252.81,-68.63 260.89,-61.78 250.3,-62.1 252.81,-68.63"/>
</g>
<!-- Node12 -->
<g id="node12" class="node">
<title>Node12</title>
<g id="a_node12"><a xlink:href="Sdb_8h.html#ae4ef1557f623dc27e4d1f8f9cac4b6fc" target="_top" xlink:title=" ">
<polygon fill="white" stroke="black" points="414,-4.72 414,-23.72 548,-23.72 548,-4.72 414,-4.72"/>
<text text-anchor="middle" x="481" y="-11.72" font-family="Helvetica,sans-Serif" font-size="10.00">SdbLoadFileIntoMemory</text>
</a>
</g>
</g>
<!-- Node10&#45;&gt;Node12 -->
<g id="edge20" class="edge">
<title>Node10&#45;&gt;Node12</title>
<path fill="none" stroke="midnightblue" d="M185.27,-120.15C192.05,-117.48 198.61,-113.94 204,-109.22 232.13,-84.61 209.23,-54.44 240,-33.22 292.74,3.15 368.37,2.77 420.56,-3.38"/>
<polygon fill="midnightblue" stroke="midnightblue" points="420.31,-6.88 430.68,-4.68 421.2,0.07 420.31,-6.88"/>
</g>
<!-- Node14 -->
<g id="node14" class="node">
<title>Node14</title>
<g id="a_node14"><a xlink:href="DatabaseSystems_2Postgres_8c.html#ae298043cc4c2e142d7914316919a5c7a" target="_top" xlink:title=" ">
<polygon fill="white" stroke="black" points="256,-232.72 256,-251.72 362,-251.72 362,-232.72 256,-232.72"/>
<text text-anchor="middle" x="309" y="-239.72" font-family="Helvetica,sans-Serif" font-size="10.00">GetTableMetadata</text>
</a>
</g>
</g>
<!-- Node10&#45;&gt;Node14 -->
<g id="edge17" class="edge">
<title>Node10&#45;&gt;Node14</title>
<path fill="none" stroke="midnightblue" d="M185.17,-136.42C191.96,-139.07 198.55,-142.58 204,-147.22 230.94,-170.16 213.41,-194.88 240,-218.22 244.69,-222.34 250.14,-225.77 255.86,-228.61"/>
<polygon fill="midnightblue" stroke="midnightblue" points="254.46,-231.82 265.03,-232.62 257.27,-225.41 254.46,-231.82"/>
</g>
<!-- Node16 -->
<g id="node16" class="node">
<title>Node16</title>
<g id="a_node16"><a xlink:href="Sdb_8h.html#acd332199b77e76c2b764ef93a7b60439" target="_top" xlink:title=" ">
<polygon fill="white" stroke="black" points="436.5,-194.72 436.5,-213.72 525.5,-213.72 525.5,-194.72 436.5,-194.72"/>
<text text-anchor="middle" x="481" y="-201.72" font-family="Helvetica,sans-Serif" font-size="10.00">SdbStringMake</text>
</a>
</g>
</g>
<!-- Node10&#45;&gt;Node16 -->
<g id="edge24" class="edge">
<title>Node10&#45;&gt;Node16</title>
<path fill="none" stroke="midnightblue" d="M184.16,-137.8C191.05,-140.31 197.94,-143.42 204,-147.22 223.7,-159.6 219.01,-175.2 240,-185.22 299.1,-213.46 375.77,-214.25 426.36,-210.61"/>
<polygon fill="midnightblue" stroke="midnightblue" points="426.74,-214.09 436.43,-209.8 426.18,-207.11 426.74,-214.09"/>
</g>
<!-- Node17 -->
<g id="node17" class="node">
<title>Node17</title>
<g id="a_node17"><a xlink:href="Sdb_8h.html#a2f3b726bde5f66a61dee9805406813ee" target="_top" xlink:title=" ">
<polygon fill="white" stroke="black" points="259,-156.72 259,-175.72 359,-175.72 359,-156.72 259,-156.72"/>
<text text-anchor="middle" x="309" y="-163.72" font-family="Helvetica,sans-Serif" font-size="10.00">SdbStringAppend</text>
</a>
</g>
</g>
<!-- Node10&#45;&gt;Node17 -->
<g id="edge21" class="edge">
<title>Node10&#45;&gt;Node17</title>
<path fill="none" stroke="midnightblue" d="M185.34,-137.72C207.09,-142.77 234.05,-149.04 257.15,-154.41"/>
<polygon fill="midnightblue" stroke="midnightblue" points="256.58,-157.87 267.12,-156.72 258.17,-151.05 256.58,-157.87"/>
</g>
<!-- Node18 -->
<g id="node18" class="node">
<title>Node18</title>
<g id="a_node18"><a xlink:href="Sdb_8h.html#a28c30cfe4c8326befba64bf54397bc47" target="_top" xlink:title=" ">
<polygon fill="white" stroke="black" points="255.5,-118.72 255.5,-137.72 362.5,-137.72 362.5,-118.72 255.5,-118.72"/>
<text text-anchor="middle" x="309" y="-125.72" font-family="Helvetica,sans-Serif" font-size="10.00">SdbStringAppendC</text>
</a>
</g>
</g>
<!-- Node10&#45;&gt;Node18 -->
<g id="edge22" class="edge">
<title>Node10&#45;&gt;Node18</title>
<path fill="none" stroke="midnightblue" d="M185.34,-128.22C203.46,-128.22 225.2,-128.22 245.31,-128.22"/>
<polygon fill="midnightblue" stroke="midnightblue" points="245.34,-131.72 255.34,-128.22 245.34,-124.72 245.34,-131.72"/>
</g>
<!-- Node19 -->
<g id="node19" class="node">
<title>Node19</title>
<g id="a_node19"><a xlink:href="Sdb_8h.html#af443df2d401ad3eca43919e5cf1a7118" target="_top" xlink:title=" ">
<polygon fill="white" stroke="black" points="251,-80.72 251,-99.72 367,-99.72 367,-80.72 251,-80.72"/>
<text text-anchor="middle" x="309" y="-87.72" font-family="Helvetica,sans-Serif" font-size="10.00">SdbStringBackspace</text>
</a>
</g>
</g>
<!-- Node10&#45;&gt;Node19 -->
<g id="edge23" class="edge">
<title>Node10&#45;&gt;Node19</title>
<path fill="none" stroke="midnightblue" d="M185.34,-118.73C207.09,-113.68 234.05,-107.41 257.15,-102.04"/>
<polygon fill="midnightblue" stroke="midnightblue" points="258.17,-105.4 267.12,-99.73 256.58,-98.58 258.17,-105.4"/>
</g>
<!-- Node11&#45;&gt;Node12 -->
<g id="edge15" class="edge">
<title>Node11&#45;&gt;Node12</title>
<path fill="none" stroke="midnightblue" d="M352.9,-42.64C375.53,-37.58 403.5,-31.32 427.43,-25.98"/>
<polygon fill="midnightblue" stroke="midnightblue" points="428.41,-29.34 437.41,-23.74 426.89,-22.51 428.41,-29.34"/>
</g>
<!-- Node13 -->
<g id="node13" class="node">
<title>Node13</title>
<g id="a_node13"><a xlink:href="Sdb_8h.html#a7d36f635ee473a12e82ed102ab4597a3" target="_top" xlink:title=" ">
<polygon fill="white" stroke="black" points="432,-42.72 432,-61.72 530,-61.72 530,-42.72 432,-42.72"/>
<text text-anchor="middle" x="481" y="-49.72" font-family="Helvetica,sans-Serif" font-size="10.00">SdbScratchBegin</text>
</a>
</g>
</g>
<!-- Node11&#45;&gt;Node13 -->
<g id="edge16" class="edge">
<title>Node11&#45;&gt;Node13</title>
<path fill="none" stroke="midnightblue" d="M373.3,-52.22C389.18,-52.22 406.13,-52.22 421.75,-52.22"/>
<polygon fill="midnightblue" stroke="midnightblue" points="421.79,-55.72 431.79,-52.22 421.79,-48.72 421.79,-55.72"/>
</g>
<!-- Node15 -->
<g id="node15" class="node">
<title>Node15</title>
<g id="a_node15"><a xlink:href="Sdb_8h.html#adb598df288598cf1c13afc15e3f7e6c2" target="_top" xlink:title=" ">
<polygon fill="white" stroke="black" points="421.5,-232.72 421.5,-251.72 540.5,-251.72 540.5,-232.72 421.5,-232.72"/>
<text text-anchor="middle" x="481" y="-239.72" font-family="Helvetica,sans-Serif" font-size="10.00">SdbStringAppendFmt</text>
</a>
</g>
</g>
<!-- Node14&#45;&gt;Node15 -->
<g id="edge18" class="edge">
<title>Node14&#45;&gt;Node15</title>
<path fill="none" stroke="midnightblue" d="M362.39,-242.22C377.82,-242.22 394.94,-242.22 411.24,-242.22"/>
<polygon fill="midnightblue" stroke="midnightblue" points="411.25,-245.72 421.25,-242.22 411.25,-238.72 411.25,-245.72"/>
</g>
<!-- Node14&#45;&gt;Node16 -->
<g id="edge19" class="edge">
<title>Node14&#45;&gt;Node16</title>
<path fill="none" stroke="midnightblue" d="M352.9,-232.64C375.53,-227.58 403.5,-221.32 427.43,-215.98"/>
<polygon fill="midnightblue" stroke="midnightblue" points="428.41,-219.34 437.41,-213.74 426.89,-212.51 428.41,-219.34"/>
</g>
<!-- Node25&#45;&gt;Node4 -->
<g id="edge31" class="edge">
<title>Node25&#45;&gt;Node4</title>
<path fill="none" stroke="midnightblue" d="M353.33,-308.75C361.72,-311.31 370.3,-314.44 378,-318.22 410.44,-334.15 443.08,-360.77 462.41,-377.9"/>
<polygon fill="midnightblue" stroke="midnightblue" points="460.07,-380.5 469.84,-384.6 464.76,-375.31 460.07,-380.5"/>
</g>
</g>
</svg>
