<?xml version="1.0" encoding="UTF-8" standalone="no"?>
<!DOCTYPE svg PUBLIC "-//W3C//DTD SVG 1.1//EN"
 "http://www.w3.org/Graphics/SVG/1.1/DTD/svg11.dtd">
<!-- Generated by graphviz version 2.43.0 (0)
 -->
<!-- Title: PgInsertData Pages: 1 -->
<svg width="375pt" height="157pt"
 viewBox="0.00 0.00 375.00 157.13" xmlns="http://www.w3.org/2000/svg" xmlns:xlink="http://www.w3.org/1999/xlink">
<g id="graph0" class="graph" transform="scale(1 1) rotate(0) translate(4 153.13)">
<title>PgInsertData</title>
<!-- Node1 -->
<g id="Node000001" class="node">
<title>Node1</title>
<g id="a_Node000001"><a xlink:title="Inserts data into PostgreSQL table using COPY protocol.">
<polygon fill="#999999" stroke="#666666" points="80,-93 0,-93 0,-74 80,-74 80,-93"/>
<text text-anchor="middle" x="40" y="-81" font-family="Helvetica,sans-Serif" font-size="10.00">PgInsertData</text>
</a>
</g>
</g>
<!-- Node2 -->
<g id="Node000002" class="node">
<title>Node2</title>
<g id="a_Node000002"><a xlink:href="Sdb_8h.html#a9b1bdb21ac42d86edd96d53d49da1760" target="_top" xlink:title=" ">
<polygon fill="white" stroke="#666666" points="347,-93 270,-93 270,-74 347,-74 347,-93"/>
<text text-anchor="middle" x="308.5" y="-81" font-family="Helvetica,sans-Serif" font-size="10.00">SdbMemcpy</text>
</a>
</g>
</g>
<!-- Node1&#45;&gt;Node2 -->
<g id="edge1_Node000001_Node000002" class="edge">
<title>Node1&#45;&gt;Node2</title>
<g id="a_edge1_Node000001_Node000002"><a xlink:title=" ">
<path fill="none" stroke="#63b8ff" d="M50,-93.39C63.01,-106.87 88.55,-130.38 116,-139.5 157.34,-153.23 172.02,-151.11 214,-139.5 242.05,-131.74 270.15,-113.09 288.11,-99.43"/>
<polygon fill="#63b8ff" stroke="#63b8ff" points="290.36,-102.12 296.07,-93.2 286.04,-96.61 290.36,-102.12"/>
</a>
</g>
</g>
<!-- Node3 -->
<g id="Node000003" class="node">
<title>Node3</title>
<g id="a_Node000003"><a xlink:href="DatabaseSystems_2Postgres_8c.html#a9b90329e0cf4324fbe9fcd6b22233e34" target="_top" xlink:title="Writes a 2&#45;byte value in network byte order.">
<polygon fill="white" stroke="#666666" points="189.5,-130 140.5,-130 140.5,-111 189.5,-111 189.5,-130"/>
<text text-anchor="middle" x="165" y="-118" font-family="Helvetica,sans-Serif" font-size="10.00">Write2</text>
</a>
</g>
</g>
<!-- Node1&#45;&gt;Node3 -->
<g id="edge2_Node000001_Node000003" class="edge">
<title>Node1&#45;&gt;Node3</title>
<g id="a_edge2_Node000001_Node000003"><a xlink:title=" ">
<path fill="none" stroke="#63b8ff" d="M72.68,-93.03C90.37,-98.35 112.41,-104.98 130.41,-110.39"/>
<polygon fill="#63b8ff" stroke="#63b8ff" points="129.62,-113.81 140.2,-113.34 131.63,-107.11 129.62,-113.81"/>
</a>
</g>
</g>
<!-- Node4 -->
<g id="Node000004" class="node">
<title>Node4</title>
<g id="a_Node000004"><a xlink:href="DatabaseSystems_2Postgres_8c.html#ab8781f83020464aef1cf9779f072a37f" target="_top" xlink:title=" ">
<polygon fill="white" stroke="#666666" points="189.5,-93 140.5,-93 140.5,-74 189.5,-74 189.5,-93"/>
<text text-anchor="middle" x="165" y="-81" font-family="Helvetica,sans-Serif" font-size="10.00">Write4</text>
</a>
</g>
</g>
<!-- Node1&#45;&gt;Node4 -->
<g id="edge4_Node000001_Node000004" class="edge">
<title>Node1&#45;&gt;Node4</title>
<g id="a_edge4_Node000001_Node000004"><a xlink:title=" ">
<path fill="none" stroke="#63b8ff" d="M80.26,-83.5C96.37,-83.5 114.83,-83.5 130.31,-83.5"/>
<polygon fill="#63b8ff" stroke="#63b8ff" points="130.49,-87 140.49,-83.5 130.49,-80 130.49,-87"/>
</a>
</g>
</g>
<!-- Node5 -->
<g id="Node000005" class="node">
<title>Node5</title>
<g id="a_Node000005"><a xlink:href="DatabaseSystems_2Postgres_8c.html#af07f5759e9e25a2b5a8569ab296897e8" target="_top" xlink:title=" ">
<polygon fill="white" stroke="#666666" points="189.5,-56 140.5,-56 140.5,-37 189.5,-37 189.5,-56"/>
<text text-anchor="middle" x="165" y="-44" font-family="Helvetica,sans-Serif" font-size="10.00">Write8</text>
</a>
</g>
</g>
<!-- Node1&#45;&gt;Node5 -->
<g id="edge6_Node000001_Node000005" class="edge">
<title>Node1&#45;&gt;Node5</title>
<g id="a_edge6_Node000001_Node000005"><a xlink:title=" ">
<path fill="none" stroke="#63b8ff" d="M72.68,-73.97C90.37,-68.65 112.41,-62.02 130.41,-56.61"/>
<polygon fill="#63b8ff" stroke="#63b8ff" points="131.63,-59.89 140.2,-53.66 129.62,-53.19 131.63,-59.89"/>
</a>
</g>
</g>
<!-- Node6 -->
<g id="Node000006" class="node">
<title>Node6</title>
<g id="a_Node000006"><a xlink:href="DatabaseSystems_2Postgres_8c.html#a8be5b0d3a8c5e012cae2737b1ffa7bff" target="_top" xlink:title=" ">
<polygon fill="white" stroke="#666666" points="214,-19 116,-19 116,0 214,0 214,-19"/>
<text text-anchor="middle" x="165" y="-7" font-family="Helvetica,sans-Serif" font-size="10.00">WriteTimestamp</text>
</a>
</g>
</g>
<!-- Node1&#45;&gt;Node6 -->
<g id="edge8_Node000001_Node000006" class="edge">
<title>Node1&#45;&gt;Node6</title>
<g id="a_edge8_Node000001_Node000006"><a xlink:title=" ">
<path fill="none" stroke="#63b8ff" d="M52,-73.7C66.05,-61.57 91.47,-40.9 116,-27.5 118.89,-25.92 121.95,-24.42 125.06,-23.01"/>
<polygon fill="#63b8ff" stroke="#63b8ff" points="126.61,-26.16 134.48,-19.07 123.9,-19.71 126.61,-26.16"/>
</a>
</g>
</g>
<!-- Node3&#45;&gt;Node2 -->
<g id="edge3_Node000003_Node000002" class="edge">
<title>Node3&#45;&gt;Node2</title>
<g id="a_edge3_Node000003_Node000002"><a xlink:title=" ">
<path fill="none" stroke="#63b8ff" d="M189.68,-114.31C209.1,-109.23 237.16,-101.89 261.03,-95.65"/>
<polygon fill="#63b8ff" stroke="#63b8ff" points="262.18,-98.97 270.97,-93.05 260.41,-92.2 262.18,-98.97"/>
</a>
</g>
</g>
<!-- Node4&#45;&gt;Node2 -->
<g id="edge5_Node000004_Node000002" class="edge">
<title>Node4&#45;&gt;Node2</title>
<g id="a_edge5_Node000004_Node000002"><a xlink:title=" ">
<path fill="none" stroke="#63b8ff" d="M189.68,-83.5C208.74,-83.5 236.12,-83.5 259.7,-83.5"/>
<polygon fill="#63b8ff" stroke="#63b8ff" points="259.87,-87 269.87,-83.5 259.87,-80 259.87,-87"/>
</a>
</g>
</g>
<!-- Node5&#45;&gt;Node2 -->
<g id="edge7_Node000005_Node000002" class="edge">
<title>Node5&#45;&gt;Node2</title>
<g id="a_edge7_Node000005_Node000002"><a xlink:title=" ">
<path fill="none" stroke="#63b8ff" d="M189.68,-52.69C209.1,-57.77 237.16,-65.11 261.03,-71.35"/>
<polygon fill="#63b8ff" stroke="#63b8ff" points="260.41,-74.8 270.97,-73.95 262.18,-68.03 260.41,-74.8"/>
</a>
</g>
</g>
<!-- Node6&#45;&gt;Node2 -->
<g id="edge9_Node000006_Node000002" class="edge">
<title>Node6&#45;&gt;Node2</title>
<g id="a_edge9_Node000006_Node000002"><a xlink:title=" ">
<path fill="none" stroke="#63b8ff" d="M194.03,-19.04C200.67,-21.56 207.67,-24.45 214,-27.5 239.08,-39.59 266.22,-56.28 284.76,-68.29"/>
<polygon fill="#63b8ff" stroke="#63b8ff" points="283.09,-71.38 293.38,-73.93 286.93,-65.53 283.09,-71.38"/>
</a>
</g>
</g>
<!-- Node7 -->
<g id="Node000007" class="node">
<title>Node7</title>
<g id="a_Node000007"><a xlink:href="DatabaseSystems_2Postgres_8c.html#afa67b44da30f50a326b7a120665bc477" target="_top" xlink:title="Converts Unix timestamp to PostgreSQL timestamp.">
<polygon fill="white" stroke="#666666" points="367,-19 250,-19 250,0 367,0 367,-19"/>
<text text-anchor="middle" x="308.5" y="-7" font-family="Helvetica,sans-Serif" font-size="10.00">UnixToPgTimestamp</text>
</a>
</g>
</g>
<!-- Node6&#45;&gt;Node7 -->
<g id="edge10_Node000006_Node000007" class="edge">
<title>Node6&#45;&gt;Node7</title>
<g id="a_edge10_Node000006_Node000007"><a xlink:title=" ">
<path fill="none" stroke="#63b8ff" d="M214.3,-9.5C222.38,-9.5 230.9,-9.5 239.37,-9.5"/>
<polygon fill="#63b8ff" stroke="#63b8ff" points="239.64,-13 249.64,-9.5 239.64,-6 239.64,-13"/>
</a>
</g>
</g>
</g>
</svg>
