<?xml version="1.0" encoding="UTF-8" standalone="no"?>
<!DOCTYPE svg PUBLIC "-//W3C//DTD SVG 1.1//EN"
 "http://www.w3.org/Graphics/SVG/1.1/DTD/svg11.dtd">
<!-- Generated by graphviz version 2.43.0 (0)
 -->
<!-- Title: src/DataHandlers/ModbusWithPostgres/Modbus.c Pages: 1 -->
<svg width="1360pt" height="390pt"
 viewBox="0.00 0.00 1360.00 390.00" xmlns="http://www.w3.org/2000/svg" xmlns:xlink="http://www.w3.org/1999/xlink">
<g id="graph0" class="graph" transform="scale(1 1) rotate(0) translate(4 386)">
<title>src/DataHandlers/ModbusWithPostgres/Modbus.c</title>
<!-- Node1 -->
<g id="Node000001" class="node">
<title>Node1</title>
<g id="a_Node000001"><a xlink:title=" ">
<polygon fill="#999999" stroke="#666666" points="691,-382 527,-382 527,-352 691,-352 691,-382"/>
<text text-anchor="start" x="535" y="-370" font-family="Helvetica,sans-Serif" font-size="10.00">src/DataHandlers/ModbusWith</text>
<text text-anchor="middle" x="609" y="-359" font-family="Helvetica,sans-Serif" font-size="10.00">Postgres/Modbus.c</text>
</a>
</g>
</g>
<!-- Node2 -->
<g id="Node000002" class="node">
<title>Node2</title>
<g id="a_Node000002"><a xlink:href="Sdb_8h.html" target="_top" xlink:title=" ">
<polygon fill="white" stroke="#666666" points="693.5,-74 632.5,-74 632.5,-55 693.5,-55 693.5,-74"/>
<text text-anchor="middle" x="663" y="-62" font-family="Helvetica,sans-Serif" font-size="10.00">src/Sdb.h</text>
</a>
</g>
</g>
<!-- Node1&#45;&gt;Node2 -->
<g id="edge1_Node000001_Node000002" class="edge">
<title>Node1&#45;&gt;Node2</title>
<g id="a_edge1_Node000001_Node000002"><a xlink:title=" ">
<path fill="none" stroke="#63b8ff" d="M576.65,-351.9C540.35,-334.09 483.37,-299.65 459,-250 453.13,-238.03 457.01,-233.18 459,-220 462.82,-194.7 459.7,-184.72 476,-165 487.26,-151.38 587.01,-102.13 636.03,-78.43"/>
<polygon fill="#63b8ff" stroke="#63b8ff" points="637.63,-81.54 645.12,-74.04 634.59,-75.23 637.63,-81.54"/>
</a>
</g>
</g>
<!-- Node20 -->
<g id="Node000020" class="node">
<title>Node20</title>
<g id="a_Node000020"><a xlink:title=" ">
<polygon fill="#e0e0e0" stroke="#999999" points="1349.5,-310.5 1188.5,-310.5 1188.5,-291.5 1349.5,-291.5 1349.5,-310.5"/>
<text text-anchor="middle" x="1269" y="-298.5" font-family="Helvetica,sans-Serif" font-size="10.00">src/CommProtocols/Modbus.h</text>
</a>
</g>
</g>
<!-- Node1&#45;&gt;Node20 -->
<g id="edge19_Node000001_Node000020" class="edge">
<title>Node1&#45;&gt;Node20</title>
<g id="a_edge19_Node000001_Node000020"><a xlink:title=" ">
<path fill="none" stroke="#63b8ff" d="M691.3,-360.51C802.27,-352.72 1005.93,-337.03 1179,-316 1188.44,-314.85 1198.4,-313.47 1208.13,-312.03"/>
<polygon fill="#63b8ff" stroke="#63b8ff" points="1208.79,-315.47 1218.15,-310.52 1207.74,-308.55 1208.79,-315.47"/>
</a>
</g>
</g>
<!-- Node21 -->
<g id="Node000021" class="node">
<title>Node21</title>
<g id="a_Node000021"><a xlink:href="SensorDataPipe_8h.html" target="_top" xlink:title="Lock&#45;Free Data Pipeline.">
<polygon fill="white" stroke="#666666" points="635.5,-244.5 468.5,-244.5 468.5,-225.5 635.5,-225.5 635.5,-244.5"/>
<text text-anchor="middle" x="552" y="-232.5" font-family="Helvetica,sans-Serif" font-size="10.00">src/Common/SensorDataPipe.h</text>
</a>
</g>
</g>
<!-- Node1&#45;&gt;Node21 -->
<g id="edge20_Node000001_Node000021" class="edge">
<title>Node1&#45;&gt;Node21</title>
<g id="a_edge20_Node000001_Node000021"><a xlink:title=" ">
<path fill="none" stroke="#63b8ff" d="M595.59,-351.76C587.36,-342.29 577.24,-329.21 571,-316 561.68,-296.29 556.72,-271.62 554.23,-254.92"/>
<polygon fill="#63b8ff" stroke="#63b8ff" points="557.67,-254.25 552.88,-244.8 550.73,-255.17 557.67,-254.25"/>
</a>
</g>
</g>
<!-- Node23 -->
<g id="Node000023" class="node">
<title>Node23</title>
<g id="a_Node000023"><a xlink:href="Thread_8h.html" target="_top" xlink:title="Lightweight Synchronization Primitives Wrapper.">
<polygon fill="white" stroke="#666666" points="429,-184 305,-184 305,-165 429,-165 429,-184"/>
<text text-anchor="middle" x="367" y="-172" font-family="Helvetica,sans-Serif" font-size="10.00">src/Common/Thread.h</text>
</a>
</g>
</g>
<!-- Node1&#45;&gt;Node23 -->
<g id="edge36_Node000001_Node000023" class="edge">
<title>Node1&#45;&gt;Node23</title>
<g id="a_edge36_Node000001_Node000023"><a xlink:title=" ">
<path fill="none" stroke="#63b8ff" d="M526.81,-359.16C492.6,-352.61 454.52,-340.03 427,-316 389.97,-283.68 375.11,-224.52 369.73,-194.32"/>
<polygon fill="#63b8ff" stroke="#63b8ff" points="373.15,-193.59 368.1,-184.28 366.24,-194.71 373.15,-193.59"/>
</a>
</g>
</g>
<!-- Node27 -->
<g id="Node000027" class="node">
<title>Node27</title>
<g id="a_Node000027"><a xlink:href="Socket_8h.html" target="_top" xlink:title="Simplified Socket Communication Utilities.">
<polygon fill="white" stroke="#666666" points="287,-184 165,-184 165,-165 287,-165 287,-184"/>
<text text-anchor="middle" x="226" y="-172" font-family="Helvetica,sans-Serif" font-size="10.00">src/Common/Socket.h</text>
</a>
</g>
</g>
<!-- Node1&#45;&gt;Node27 -->
<g id="edge31_Node000001_Node000027" class="edge">
<title>Node1&#45;&gt;Node27</title>
<g id="a_edge31_Node000001_Node000027"><a xlink:title=" ">
<path fill="none" stroke="#63b8ff" d="M526.81,-355.21C486.79,-347.8 438.84,-335.63 399,-316 332.7,-283.32 269.01,-221.17 240.96,-191.74"/>
<polygon fill="#63b8ff" stroke="#63b8ff" points="243.42,-189.24 234.02,-184.35 238.32,-194.04 243.42,-189.24"/>
</a>
</g>
</g>
<!-- Node30 -->
<g id="Node000030" class="node">
<title>Node30</title>
<g id="a_Node000030"><a xlink:href="ModbusWithPostgres_8h.html" target="_top" xlink:title="Integration of Modbus and PostgreSQL data handling.">
<polygon fill="white" stroke="#666666" points="753.5,-316 580.5,-316 580.5,-286 753.5,-286 753.5,-316"/>
<text text-anchor="start" x="588.5" y="-304" font-family="Helvetica,sans-Serif" font-size="10.00">src/DataHandlers/ModbusWith</text>
<text text-anchor="middle" x="667" y="-293" font-family="Helvetica,sans-Serif" font-size="10.00">Postgres/ModbusWithPostgres.h</text>
</a>
</g>
</g>
<!-- Node1&#45;&gt;Node30 -->
<g id="edge37_Node000001_Node000030" class="edge">
<title>Node1&#45;&gt;Node30</title>
<g id="a_edge37_Node000001_Node000030"><a xlink:title=" ">
<path fill="none" stroke="#63b8ff" d="M621.87,-351.8C629.38,-343.51 639.01,-332.89 647.44,-323.59"/>
<polygon fill="#63b8ff" stroke="#63b8ff" points="650.04,-325.92 654.16,-316.16 644.86,-321.22 650.04,-325.92"/>
</a>
</g>
</g>
<!-- Node34 -->
<g id="Node000034" class="node">
<title>Node34</title>
<g id="a_Node000034"><a xlink:href="TestConstants_8h.html" target="_top" xlink:title="Constants for Modbus Test Server.">
<polygon fill="white" stroke="#666666" points="1170,-310.5 1014,-310.5 1014,-291.5 1170,-291.5 1170,-310.5"/>
<text text-anchor="middle" x="1092" y="-298.5" font-family="Helvetica,sans-Serif" font-size="10.00">src/DevUtils/TestConstants.h</text>
</a>
</g>
</g>
<!-- Node1&#45;&gt;Node34 -->
<g id="edge47_Node000001_Node000034" class="edge">
<title>Node1&#45;&gt;Node34</title>
<g id="a_edge47_Node000001_Node000034"><a xlink:title=" ">
<path fill="none" stroke="#63b8ff" d="M691.21,-355.11C782.74,-342.98 929.38,-323.55 1017.62,-311.86"/>
<polygon fill="#63b8ff" stroke="#63b8ff" points="1018.1,-315.32 1027.55,-310.54 1017.18,-308.38 1018.1,-315.32"/>
</a>
</g>
</g>
<!-- Node36 -->
<g id="Node000036" class="node">
<title>Node36</title>
<g id="a_Node000036"><a xlink:href="Signals_8h.html" target="_top" xlink:title="Signal handling interface for the Sensor Data Handler System.">
<polygon fill="white" stroke="#666666" points="907,-310.5 829,-310.5 829,-291.5 907,-291.5 907,-310.5"/>
<text text-anchor="middle" x="868" y="-298.5" font-family="Helvetica,sans-Serif" font-size="10.00">src/Signals.h</text>
</a>
</g>
</g>
<!-- Node1&#45;&gt;Node36 -->
<g id="edge50_Node000001_Node000036" class="edge">
<title>Node1&#45;&gt;Node36</title>
<g id="a_edge50_Node000001_Node000036"><a xlink:title=" ">
<path fill="none" stroke="#63b8ff" d="M665.84,-351.95C713.36,-340.21 780.19,-323.7 823.79,-312.93"/>
<polygon fill="#63b8ff" stroke="#63b8ff" points="824.66,-316.31 833.53,-310.52 822.98,-309.52 824.66,-316.31"/>
</a>
</g>
</g>
<!-- Node3 -->
<g id="Node000003" class="node">
<title>Node3</title>
<g id="a_Node000003"><a xlink:title=" ">
<polygon fill="#e0e0e0" stroke="#999999" points="932,-19 876,-19 876,0 932,0 932,-19"/>
<text text-anchor="middle" x="904" y="-7" font-family="Helvetica,sans-Serif" font-size="10.00">assert.h</text>
</a>
</g>
</g>
<!-- Node2&#45;&gt;Node3 -->
<g id="edge2_Node000002_Node000003" class="edge">
<title>Node2&#45;&gt;Node3</title>
<g id="a_edge2_Node000002_Node000003"><a xlink:title=" ">
<path fill="none" stroke="#63b8ff" d="M693.78,-56.9C731.87,-48.7 798.96,-34.19 865.86,-19.24"/>
<polygon fill="#63b8ff" stroke="#63b8ff" points="866.73,-22.63 875.73,-17.03 865.2,-15.8 866.73,-22.63"/>
</a>
</g>
</g>
<!-- Node4 -->
<g id="Node000004" class="node">
<title>Node4</title>
<g id="a_Node000004"><a xlink:title=" ">
<polygon fill="#e0e0e0" stroke="#999999" points="1003.5,-19 950.5,-19 950.5,0 1003.5,0 1003.5,-19"/>
<text text-anchor="middle" x="977" y="-7" font-family="Helvetica,sans-Serif" font-size="10.00">ctype.h</text>
</a>
</g>
</g>
<!-- Node2&#45;&gt;Node4 -->
<g id="edge3_Node000002_Node000004" class="edge">
<title>Node2&#45;&gt;Node4</title>
<g id="a_edge3_Node000002_Node000004"><a xlink:title=" ">
<path fill="none" stroke="#63b8ff" d="M693.57,-59.35C743.2,-52.46 844.55,-37.71 940.45,-18.98"/>
<polygon fill="#63b8ff" stroke="#63b8ff" points="941.18,-22.4 950.31,-17.03 939.82,-15.53 941.18,-22.4"/>
</a>
</g>
</g>
<!-- Node5 -->
<g id="Node000005" class="node">
<title>Node5</title>
<g id="a_Node000005"><a xlink:title=" ">
<polygon fill="#e0e0e0" stroke="#999999" points="1072.5,-19 1021.5,-19 1021.5,0 1072.5,0 1072.5,-19"/>
<text text-anchor="middle" x="1047" y="-7" font-family="Helvetica,sans-Serif" font-size="10.00">errno.h</text>
</a>
</g>
</g>
<!-- Node2&#45;&gt;Node5 -->
<g id="edge4_Node000002_Node000005" class="edge">
<title>Node2&#45;&gt;Node5</title>
<g id="a_edge4_Node000002_Node000005"><a xlink:title=" ">
<path fill="none" stroke="#63b8ff" d="M693.52,-60.76C752.8,-55.2 887.8,-41.32 1011.44,-18.89"/>
<polygon fill="#63b8ff" stroke="#63b8ff" points="1012.25,-22.3 1021.46,-17.05 1010.99,-15.42 1012.25,-22.3"/>
</a>
</g>
</g>
<!-- Node6 -->
<g id="Node000006" class="node">
<title>Node6</title>
<g id="a_Node000006"><a xlink:title=" ">
<polygon fill="#e0e0e0" stroke="#999999" points="1137.5,-19 1090.5,-19 1090.5,0 1137.5,0 1137.5,-19"/>
<text text-anchor="middle" x="1114" y="-7" font-family="Helvetica,sans-Serif" font-size="10.00">fcntl.h</text>
</a>
</g>
</g>
<!-- Node2&#45;&gt;Node6 -->
<g id="edge5_Node000002_Node000006" class="edge">
<title>Node2&#45;&gt;Node6</title>
<g id="a_edge5_Node000002_Node000006"><a xlink:title=" ">
<path fill="none" stroke="#63b8ff" d="M693.64,-61.78C761.55,-57.63 929.93,-45.53 1080.41,-18.83"/>
<polygon fill="#63b8ff" stroke="#63b8ff" points="1081.08,-22.26 1090.3,-17.05 1079.84,-15.37 1081.08,-22.26"/>
</a>
</g>
</g>
<!-- Node7 -->
<g id="Node000007" class="node">
<title>Node7</title>
<g id="a_Node000007"><a xlink:title=" ">
<polygon fill="#e0e0e0" stroke="#999999" points="1202.5,-19 1155.5,-19 1155.5,0 1202.5,0 1202.5,-19"/>
<text text-anchor="middle" x="1179" y="-7" font-family="Helvetica,sans-Serif" font-size="10.00">float.h</text>
</a>
</g>
</g>
<!-- Node2&#45;&gt;Node7 -->
<g id="edge6_Node000002_Node000007" class="edge">
<title>Node2&#45;&gt;Node7</title>
<g id="a_edge6_Node000002_Node000007"><a xlink:title=" ">
<path fill="none" stroke="#63b8ff" d="M693.53,-62.47C768.87,-59.56 969.66,-49.5 1145.39,-19.01"/>
<polygon fill="#63b8ff" stroke="#63b8ff" points="1146.09,-22.44 1155.33,-17.26 1144.88,-15.55 1146.09,-22.44"/>
</a>
</g>
</g>
<!-- Node8 -->
<g id="Node000008" class="node">
<title>Node8</title>
<g id="a_Node000008"><a xlink:title=" ">
<polygon fill="#e0e0e0" stroke="#999999" points="1271.5,-19 1220.5,-19 1220.5,0 1271.5,0 1271.5,-19"/>
<text text-anchor="middle" x="1246" y="-7" font-family="Helvetica,sans-Serif" font-size="10.00">math.h</text>
</a>
</g>
</g>
<!-- Node2&#45;&gt;Node8 -->
<g id="edge7_Node000002_Node000008" class="edge">
<title>Node2&#45;&gt;Node8</title>
<g id="a_edge7_Node000002_Node000008"><a xlink:title=" ">
<path fill="none" stroke="#63b8ff" d="M693.57,-62.78C775.78,-60.47 1008.54,-51.48 1210.57,-18.97"/>
<polygon fill="#63b8ff" stroke="#63b8ff" points="1211.17,-22.42 1220.47,-17.36 1210.04,-15.52 1211.17,-22.42"/>
</a>
</g>
</g>
<!-- Node9 -->
<g id="Node000009" class="node">
<title>Node9</title>
<g id="a_Node000009"><a xlink:title=" ">
<polygon fill="#e0e0e0" stroke="#999999" points="249.5,-19 186.5,-19 186.5,0 249.5,0 249.5,-19"/>
<text text-anchor="middle" x="218" y="-7" font-family="Helvetica,sans-Serif" font-size="10.00">pthread.h</text>
</a>
</g>
</g>
<!-- Node2&#45;&gt;Node9 -->
<g id="edge8_Node000002_Node000009" class="edge">
<title>Node2&#45;&gt;Node9</title>
<g id="a_edge8_Node000002_Node000009"><a xlink:title=" ">
<path fill="none" stroke="#63b8ff" d="M632.46,-61.13C566.4,-55.79 405.15,-41.62 259.73,-18.96"/>
<polygon fill="#63b8ff" stroke="#63b8ff" points="260.15,-15.49 249.73,-17.39 259.06,-22.4 260.15,-15.49"/>
</a>
</g>
</g>
<!-- Node10 -->
<g id="Node000010" class="node">
<title>Node10</title>
<g id="a_Node000010"><a xlink:title=" ">
<polygon fill="#e0e0e0" stroke="#999999" points="324,-19 268,-19 268,0 324,0 324,-19"/>
<text text-anchor="middle" x="296" y="-7" font-family="Helvetica,sans-Serif" font-size="10.00">stdarg.h</text>
</a>
</g>
</g>
<!-- Node2&#45;&gt;Node10 -->
<g id="edge9_Node000002_Node000010" class="edge">
<title>Node2&#45;&gt;Node10</title>
<g id="a_edge9_Node000002_Node000010"><a xlink:title=" ">
<path fill="none" stroke="#63b8ff" d="M632.37,-60.32C575.57,-54.22 449.87,-39.76 334.3,-19.09"/>
<polygon fill="#63b8ff" stroke="#63b8ff" points="334.69,-15.6 324.23,-17.27 333.44,-22.49 334.69,-15.6"/>
</a>
</g>
</g>
<!-- Node11 -->
<g id="Node000011" class="node">
<title>Node11</title>
<g id="a_Node000011"><a xlink:title=" ">
<polygon fill="#e0e0e0" stroke="#999999" points="395.5,-19 342.5,-19 342.5,0 395.5,0 395.5,-19"/>
<text text-anchor="middle" x="369" y="-7" font-family="Helvetica,sans-Serif" font-size="10.00">stdint.h</text>
</a>
</g>
</g>
<!-- Node2&#45;&gt;Node11 -->
<g id="edge10_Node000002_Node000011" class="edge">
<title>Node2&#45;&gt;Node11</title>
<g id="a_edge10_Node000002_Node000011"><a xlink:title=" ">
<path fill="none" stroke="#63b8ff" d="M632.31,-58.83C585.6,-51.58 493.68,-36.8 405.58,-19.01"/>
<polygon fill="#63b8ff" stroke="#63b8ff" points="406.19,-15.56 395.7,-16.99 404.8,-22.42 406.19,-15.56"/>
</a>
</g>
</g>
<!-- Node12 -->
<g id="Node000012" class="node">
<title>Node12</title>
<g id="a_Node000012"><a xlink:title=" ">
<polygon fill="#e0e0e0" stroke="#999999" points="464,-19 414,-19 414,0 464,0 464,-19"/>
<text text-anchor="middle" x="439" y="-7" font-family="Helvetica,sans-Serif" font-size="10.00">stdio.h</text>
</a>
</g>
</g>
<!-- Node2&#45;&gt;Node12 -->
<g id="edge11_Node000002_Node000012" class="edge">
<title>Node2&#45;&gt;Node12</title>
<g id="a_edge11_Node000002_Node000012"><a xlink:title=" ">
<path fill="none" stroke="#63b8ff" d="M632.36,-56.47C596.69,-48.26 535.74,-34.12 474.13,-19.25"/>
<polygon fill="#63b8ff" stroke="#63b8ff" points="474.78,-15.8 464.24,-16.85 473.14,-22.61 474.78,-15.8"/>
</a>
</g>
</g>
<!-- Node13 -->
<g id="Node000013" class="node">
<title>Node13</title>
<g id="a_Node000013"><a xlink:title=" ">
<polygon fill="#e0e0e0" stroke="#999999" points="535.5,-19 482.5,-19 482.5,0 535.5,0 535.5,-19"/>
<text text-anchor="middle" x="509" y="-7" font-family="Helvetica,sans-Serif" font-size="10.00">stdlib.h</text>
</a>
</g>
</g>
<!-- Node2&#45;&gt;Node13 -->
<g id="edge12_Node000002_Node000013" class="edge">
<title>Node2&#45;&gt;Node13</title>
<g id="a_edge12_Node000002_Node000013"><a xlink:title=" ">
<path fill="none" stroke="#63b8ff" d="M638.26,-54.98C612.63,-46.16 572.37,-32.31 543.59,-22.41"/>
<polygon fill="#63b8ff" stroke="#63b8ff" points="544.53,-19.03 533.94,-19.08 542.25,-25.65 544.53,-19.03"/>
</a>
</g>
</g>
<!-- Node14 -->
<g id="Node000014" class="node">
<title>Node14</title>
<g id="a_Node000014"><a xlink:title=" ">
<polygon fill="#e0e0e0" stroke="#999999" points="606.5,-19 553.5,-19 553.5,0 606.5,0 606.5,-19"/>
<text text-anchor="middle" x="580" y="-7" font-family="Helvetica,sans-Serif" font-size="10.00">string.h</text>
</a>
</g>
</g>
<!-- Node2&#45;&gt;Node14 -->
<g id="edge13_Node000002_Node000014" class="edge">
<title>Node2&#45;&gt;Node14</title>
<g id="a_edge13_Node000002_Node000014"><a xlink:title=" ">
<path fill="none" stroke="#63b8ff" d="M649.66,-54.98C636.91,-46.84 617.45,-34.41 602.33,-24.76"/>
<polygon fill="#63b8ff" stroke="#63b8ff" points="603.89,-21.6 593.58,-19.17 600.12,-27.5 603.89,-21.6"/>
</a>
</g>
</g>
<!-- Node15 -->
<g id="Node000015" class="node">
<title>Node15</title>
<g id="a_Node000015"><a xlink:title=" ">
<polygon fill="#e0e0e0" stroke="#999999" points="701.5,-19 624.5,-19 624.5,0 701.5,0 701.5,-19"/>
<text text-anchor="middle" x="663" y="-7" font-family="Helvetica,sans-Serif" font-size="10.00">sys/mman.h</text>
</a>
</g>
</g>
<!-- Node2&#45;&gt;Node15 -->
<g id="edge14_Node000002_Node000015" class="edge">
<title>Node2&#45;&gt;Node15</title>
<g id="a_edge14_Node000002_Node000015"><a xlink:title=" ">
<path fill="none" stroke="#63b8ff" d="M663,-54.75C663,-47.8 663,-37.85 663,-29.13"/>
<polygon fill="#63b8ff" stroke="#63b8ff" points="666.5,-29.09 663,-19.09 659.5,-29.09 666.5,-29.09"/>
</a>
</g>
</g>
<!-- Node16 -->
<g id="Node000016" class="node">
<title>Node16</title>
<g id="a_Node000016"><a xlink:title=" ">
<polygon fill="#e0e0e0" stroke="#999999" points="784,-19 720,-19 720,0 784,0 784,-19"/>
<text text-anchor="middle" x="752" y="-7" font-family="Helvetica,sans-Serif" font-size="10.00">sys/stat.h</text>
</a>
</g>
</g>
<!-- Node2&#45;&gt;Node16 -->
<g id="edge15_Node000002_Node000016" class="edge">
<title>Node2&#45;&gt;Node16</title>
<g id="a_edge15_Node000002_Node000016"><a xlink:title=" ">
<path fill="none" stroke="#63b8ff" d="M677.3,-54.98C691.1,-46.77 712.24,-34.18 728.51,-24.49"/>
<polygon fill="#63b8ff" stroke="#63b8ff" points="730.64,-27.29 737.44,-19.17 727.06,-21.28 730.64,-27.29"/>
</a>
</g>
</g>
<!-- Node17 -->
<g id="Node000017" class="node">
<title>Node17</title>
<g id="a_Node000017"><a xlink:title=" ">
<polygon fill="#e0e0e0" stroke="#999999" points="168,-19 120,-19 120,0 168,0 168,-19"/>
<text text-anchor="middle" x="144" y="-7" font-family="Helvetica,sans-Serif" font-size="10.00">time.h</text>
</a>
</g>
</g>
<!-- Node2&#45;&gt;Node17 -->
<g id="edge16_Node000002_Node000017" class="edge">
<title>Node2&#45;&gt;Node17</title>
<g id="a_edge16_Node000002_Node000017"><a xlink:title=" ">
<path fill="none" stroke="#63b8ff" d="M632.35,-62.4C556.74,-59.34 355.18,-48.96 178.07,-18.9"/>
<polygon fill="#63b8ff" stroke="#63b8ff" points="178.5,-15.42 168.05,-17.17 177.31,-22.32 178.5,-15.42"/>
</a>
</g>
</g>
<!-- Node18 -->
<g id="Node000018" class="node">
<title>Node18</title>
<g id="a_Node000018"><a xlink:title=" ">
<polygon fill="#e0e0e0" stroke="#999999" points="858,-19 802,-19 802,0 858,0 858,-19"/>
<text text-anchor="middle" x="830" y="-7" font-family="Helvetica,sans-Serif" font-size="10.00">unistd.h</text>
</a>
</g>
</g>
<!-- Node2&#45;&gt;Node18 -->
<g id="edge17_Node000002_Node000018" class="edge">
<title>Node2&#45;&gt;Node18</title>
<g id="a_edge17_Node000002_Node000018"><a xlink:title=" ">
<path fill="none" stroke="#63b8ff" d="M689.83,-54.98C717.87,-46.09 762.05,-32.07 793.3,-22.15"/>
<polygon fill="#63b8ff" stroke="#63b8ff" points="794.49,-25.44 802.96,-19.08 792.37,-18.77 794.49,-25.44"/>
</a>
</g>
</g>
<!-- Node19 -->
<g id="Node000019" class="node">
<title>Node19</title>
<g id="a_Node000019"><a xlink:title=" ">
<polygon fill="#e0e0e0" stroke="#999999" points="1352,-19 1290,-19 1290,0 1352,0 1352,-19"/>
<text text-anchor="middle" x="1321" y="-7" font-family="Helvetica,sans-Serif" font-size="10.00">stdbool.h</text>
</a>
</g>
</g>
<!-- Node2&#45;&gt;Node19 -->
<g id="edge18_Node000002_Node000019" class="edge">
<title>Node2&#45;&gt;Node19</title>
<g id="a_edge18_Node000002_Node000019"><a xlink:title=" ">
<path fill="none" stroke="#63b8ff" d="M693.7,-62.78C782.83,-60.38 1049.37,-50.97 1279.73,-18.98"/>
<polygon fill="#63b8ff" stroke="#63b8ff" points="1280.21,-22.45 1289.63,-17.59 1279.24,-15.52 1280.21,-22.45"/>
</a>
</g>
</g>
<!-- Node21&#45;&gt;Node2 -->
<g id="edge22_Node000021_Node000002" class="edge">
<title>Node21&#45;&gt;Node2</title>
<g id="a_edge22_Node000021_Node000002"><a xlink:title=" ">
<path fill="none" stroke="#63b8ff" d="M557.66,-225.41C575.1,-198.94 628.26,-118.24 651.7,-82.66"/>
<polygon fill="#63b8ff" stroke="#63b8ff" points="654.64,-84.55 657.22,-74.27 648.8,-80.7 654.64,-84.55"/>
</a>
</g>
</g>
<!-- Node22 -->
<g id="Node000022" class="node">
<title>Node22</title>
<g id="a_Node000022"><a xlink:title=" ">
<polygon fill="#e0e0e0" stroke="#999999" points="559,-184 485,-184 485,-165 559,-165 559,-184"/>
<text text-anchor="middle" x="522" y="-172" font-family="Helvetica,sans-Serif" font-size="10.00">stdatomic.h</text>
</a>
</g>
</g>
<!-- Node21&#45;&gt;Node22 -->
<g id="edge21_Node000021_Node000022" class="edge">
<title>Node21&#45;&gt;Node22</title>
<g id="a_edge21_Node000021_Node000022"><a xlink:title=" ">
<path fill="none" stroke="#63b8ff" d="M547.57,-225.37C543.23,-216.9 536.48,-203.74 531.01,-193.07"/>
<polygon fill="#63b8ff" stroke="#63b8ff" points="534.12,-191.47 526.44,-184.17 527.89,-194.66 534.12,-191.47"/>
</a>
</g>
</g>
<!-- Node21&#45;&gt;Node23 -->
<g id="edge23_Node000021_Node000023" class="edge">
<title>Node21&#45;&gt;Node23</title>
<g id="a_edge23_Node000021_Node000023"><a xlink:title=" ">
<path fill="none" stroke="#63b8ff" d="M525.1,-225.49C493.04,-215.36 439.32,-198.37 403.52,-187.05"/>
<polygon fill="#63b8ff" stroke="#63b8ff" points="404.52,-183.69 393.93,-184.02 402.41,-190.37 404.52,-183.69"/>
</a>
</g>
</g>
<!-- Node23&#45;&gt;Node2 -->
<g id="edge26_Node000023_Node000002" class="edge">
<title>Node23&#45;&gt;Node2</title>
<g id="a_edge26_Node000023_Node000002"><a xlink:title=" ">
<path fill="none" stroke="#63b8ff" d="M390.47,-164.94C442.93,-145.79 569.79,-99.51 630.09,-77.51"/>
<polygon fill="#63b8ff" stroke="#63b8ff" points="631.33,-80.78 639.52,-74.07 628.93,-74.21 631.33,-80.78"/>
</a>
</g>
</g>
<!-- Node23&#45;&gt;Node9 -->
<g id="edge24_Node000023_Node000009" class="edge">
<title>Node23&#45;&gt;Node9</title>
<g id="a_edge24_Node000023_Node000009"><a xlink:title=" ">
<path fill="none" stroke="#63b8ff" d="M359.12,-164.87C347.97,-152.65 326.93,-129.62 309,-110 282.05,-80.52 250.6,-46.13 232.62,-26.48"/>
<polygon fill="#63b8ff" stroke="#63b8ff" points="235.12,-24.03 225.79,-19.02 229.96,-28.76 235.12,-24.03"/>
</a>
</g>
</g>
<!-- Node24 -->
<g id="Node000024" class="node">
<title>Node24</title>
<g id="a_Node000024"><a xlink:title=" ">
<polygon fill="#e0e0e0" stroke="#999999" points="475,-129 395,-129 395,-110 475,-110 475,-129"/>
<text text-anchor="middle" x="435" y="-117" font-family="Helvetica,sans-Serif" font-size="10.00">semaphore.h</text>
</a>
</g>
</g>
<!-- Node23&#45;&gt;Node24 -->
<g id="edge25_Node000023_Node000024" class="edge">
<title>Node23&#45;&gt;Node24</title>
<g id="a_edge25_Node000023_Node000024"><a xlink:title=" ">
<path fill="none" stroke="#63b8ff" d="M377.93,-164.98C388.08,-157.07 403.42,-145.11 415.65,-135.58"/>
<polygon fill="#63b8ff" stroke="#63b8ff" points="418.14,-138.08 423.88,-129.17 413.84,-132.56 418.14,-138.08"/>
</a>
</g>
</g>
<!-- Node25 -->
<g id="Node000025" class="node">
<title>Node25</title>
<g id="a_Node000025"><a xlink:href="Time_8h.html" target="_top" xlink:title="Lightweight Time Manipulation Utilities.">
<polygon fill="white" stroke="#666666" points="300.5,-129 185.5,-129 185.5,-110 300.5,-110 300.5,-129"/>
<text text-anchor="middle" x="243" y="-117" font-family="Helvetica,sans-Serif" font-size="10.00">src/Common/Time.h</text>
</a>
</g>
</g>
<!-- Node23&#45;&gt;Node25 -->
<g id="edge27_Node000023_Node000025" class="edge">
<title>Node23&#45;&gt;Node25</title>
<g id="a_edge27_Node000023_Node000025"><a xlink:title=" ">
<path fill="none" stroke="#63b8ff" d="M347.08,-164.98C326.95,-156.38 295.62,-142.99 272.59,-133.15"/>
<polygon fill="#63b8ff" stroke="#63b8ff" points="273.86,-129.88 263.29,-129.17 271.1,-136.32 273.86,-129.88"/>
</a>
</g>
</g>
<!-- Node25&#45;&gt;Node2 -->
<g id="edge30_Node000025_Node000002" class="edge">
<title>Node25&#45;&gt;Node2</title>
<g id="a_edge30_Node000025_Node000002"><a xlink:title=" ">
<path fill="none" stroke="#63b8ff" d="M300.52,-111.24C386.67,-100.37 547.1,-80.13 622.22,-70.65"/>
<polygon fill="#63b8ff" stroke="#63b8ff" points="622.76,-74.11 632.24,-69.38 621.88,-67.16 622.76,-74.11"/>
</a>
</g>
</g>
<!-- Node25&#45;&gt;Node17 -->
<g id="edge29_Node000025_Node000017" class="edge">
<title>Node25&#45;&gt;Node17</title>
<g id="a_edge29_Node000025_Node000017"><a xlink:title=" ">
<path fill="none" stroke="#63b8ff" d="M242.27,-109.75C240.77,-96.54 236.25,-71.34 223,-55 211.26,-40.52 193.47,-29.92 177.75,-22.7"/>
<polygon fill="#63b8ff" stroke="#63b8ff" points="178.87,-19.37 168.3,-18.64 176.11,-25.8 178.87,-19.37"/>
</a>
</g>
</g>
<!-- Node26 -->
<g id="Node000026" class="node">
<title>Node26</title>
<g id="a_Node000026"><a xlink:title=" ">
<polygon fill="#e0e0e0" stroke="#999999" points="214.5,-74 161.5,-74 161.5,-55 214.5,-55 214.5,-74"/>
<text text-anchor="middle" x="188" y="-62" font-family="Helvetica,sans-Serif" font-size="10.00">limits.h</text>
</a>
</g>
</g>
<!-- Node25&#45;&gt;Node26 -->
<g id="edge28_Node000025_Node000026" class="edge">
<title>Node25&#45;&gt;Node26</title>
<g id="a_edge28_Node000025_Node000026"><a xlink:title=" ">
<path fill="none" stroke="#63b8ff" d="M233.92,-109.75C225.91,-102.03 214.04,-90.6 204.38,-81.28"/>
<polygon fill="#63b8ff" stroke="#63b8ff" points="206.54,-78.51 196.91,-74.09 201.69,-83.55 206.54,-78.51"/>
</a>
</g>
</g>
<!-- Node27&#45;&gt;Node2 -->
<g id="edge32_Node000027_Node000002" class="edge">
<title>Node27&#45;&gt;Node2</title>
<g id="a_edge32_Node000027_Node000002"><a xlink:title=" ">
<path fill="none" stroke="#63b8ff" d="M243.79,-164.94C272.87,-151.3 332.69,-124.67 386,-110 468.28,-87.36 567.68,-74.86 622.23,-69.23"/>
<polygon fill="#63b8ff" stroke="#63b8ff" points="622.6,-72.71 632.2,-68.23 621.9,-65.75 622.6,-72.71"/>
</a>
</g>
</g>
<!-- Node27&#45;&gt;Node25 -->
<g id="edge33_Node000027_Node000025" class="edge">
<title>Node27&#45;&gt;Node25</title>
<g id="a_edge33_Node000027_Node000025"><a xlink:title=" ">
<path fill="none" stroke="#63b8ff" d="M228.81,-164.75C231.06,-157.72 234.3,-147.62 237.12,-138.84"/>
<polygon fill="#63b8ff" stroke="#63b8ff" points="240.52,-139.68 240.25,-129.09 233.86,-137.54 240.52,-139.68"/>
</a>
</g>
</g>
<!-- Node28 -->
<g id="Node000028" class="node">
<title>Node28</title>
<g id="a_Node000028"><a xlink:title=" ">
<polygon fill="#e0e0e0" stroke="#999999" points="167.5,-129 90.5,-129 90.5,-110 167.5,-110 167.5,-129"/>
<text text-anchor="middle" x="129" y="-117" font-family="Helvetica,sans-Serif" font-size="10.00">sys/socket.h</text>
</a>
</g>
</g>
<!-- Node27&#45;&gt;Node28 -->
<g id="edge34_Node000027_Node000028" class="edge">
<title>Node27&#45;&gt;Node28</title>
<g id="a_edge34_Node000027_Node000028"><a xlink:title=" ">
<path fill="none" stroke="#63b8ff" d="M210.42,-164.98C195.23,-156.69 171.9,-143.94 154.1,-134.22"/>
<polygon fill="#63b8ff" stroke="#63b8ff" points="155.32,-130.89 144.87,-129.17 151.97,-137.04 155.32,-130.89"/>
</a>
</g>
</g>
<!-- Node29 -->
<g id="Node000029" class="node">
<title>Node29</title>
<g id="a_Node000029"><a xlink:title=" ">
<polygon fill="#e0e0e0" stroke="#999999" points="72,-129 0,-129 0,-110 72,-110 72,-129"/>
<text text-anchor="middle" x="36" y="-117" font-family="Helvetica,sans-Serif" font-size="10.00">sys/types.h</text>
</a>
</g>
</g>
<!-- Node27&#45;&gt;Node29 -->
<g id="edge35_Node000027_Node000029" class="edge">
<title>Node27&#45;&gt;Node29</title>
<g id="a_edge35_Node000027_Node000029"><a xlink:title=" ">
<path fill="none" stroke="#63b8ff" d="M195.47,-164.98C163.3,-156.01 112.44,-141.82 76.83,-131.89"/>
<polygon fill="#63b8ff" stroke="#63b8ff" points="77.34,-128.4 66.77,-129.08 75.46,-135.14 77.34,-128.4"/>
</a>
</g>
</g>
<!-- Node30&#45;&gt;Node2 -->
<g id="edge38_Node000030_Node000002" class="edge">
<title>Node30&#45;&gt;Node2</title>
<g id="a_edge38_Node000030_Node000002"><a xlink:title=" ">
<path fill="none" stroke="#63b8ff" d="M666.76,-285.68C666.07,-245.25 664.1,-130.17 663.32,-84.51"/>
<polygon fill="#63b8ff" stroke="#63b8ff" points="666.82,-84.2 663.15,-74.26 659.82,-84.32 666.82,-84.2"/>
</a>
</g>
</g>
<!-- Node30&#45;&gt;Node21 -->
<g id="edge39_Node000030_Node000021" class="edge">
<title>Node30&#45;&gt;Node21</title>
<g id="a_edge39_Node000030_Node000021"><a xlink:title=" ">
<path fill="none" stroke="#63b8ff" d="M641.76,-285.95C622.22,-275.08 595.32,-260.11 576.07,-249.4"/>
<polygon fill="#63b8ff" stroke="#63b8ff" points="577.74,-246.32 567.3,-244.52 574.34,-252.44 577.74,-246.32"/>
</a>
</g>
</g>
<!-- Node31 -->
<g id="Node000031" class="node">
<title>Node31</title>
<g id="a_Node000031"><a xlink:href="ThreadGroup_8h.html" target="_top" xlink:title="Thread Group Management System.">
<polygon fill="white" stroke="#666666" points="844.5,-244.5 691.5,-244.5 691.5,-225.5 844.5,-225.5 844.5,-244.5"/>
<text text-anchor="middle" x="768" y="-232.5" font-family="Helvetica,sans-Serif" font-size="10.00">src/Common/ThreadGroup.h</text>
</a>
</g>
</g>
<!-- Node30&#45;&gt;Node31 -->
<g id="edge40_Node000030_Node000031" class="edge">
<title>Node30&#45;&gt;Node31</title>
<g id="a_edge40_Node000030_Node000031"><a xlink:title=" ">
<path fill="none" stroke="#63b8ff" d="M689.42,-285.8C706.19,-275.17 729.01,-260.7 745.75,-250.1"/>
<polygon fill="#63b8ff" stroke="#63b8ff" points="747.76,-252.97 754.34,-244.66 744.02,-247.05 747.76,-252.97"/>
</a>
</g>
</g>
<!-- Node32 -->
<g id="Node000032" class="node">
<title>Node32</title>
<g id="a_Node000032"><a xlink:href="cJSON_8h.html" target="_top" xlink:title=" ">
<polygon fill="white" stroke="#666666" points="989.5,-244.5 862.5,-244.5 862.5,-225.5 989.5,-225.5 989.5,-244.5"/>
<text text-anchor="middle" x="926" y="-232.5" font-family="Helvetica,sans-Serif" font-size="10.00">src/Libs/cJSON/cJSON.h</text>
</a>
</g>
</g>
<!-- Node30&#45;&gt;Node32 -->
<g id="edge45_Node000030_Node000032" class="edge">
<title>Node30&#45;&gt;Node32</title>
<g id="a_edge45_Node000030_Node000032"><a xlink:title=" ">
<path fill="none" stroke="#63b8ff" d="M723.84,-285.95C771.36,-274.21 838.19,-257.7 881.79,-246.93"/>
<polygon fill="#63b8ff" stroke="#63b8ff" points="882.66,-250.31 891.53,-244.52 880.98,-243.52 882.66,-250.31"/>
</a>
</g>
</g>
<!-- Node31&#45;&gt;Node2 -->
<g id="edge43_Node000031_Node000002" class="edge">
<title>Node31&#45;&gt;Node2</title>
<g id="a_edge43_Node000031_Node000002"><a xlink:title=" ">
<path fill="none" stroke="#63b8ff" d="M762.65,-225.41C746.22,-199.05 696.29,-118.93 673.98,-83.12"/>
<polygon fill="#63b8ff" stroke="#63b8ff" points="676.73,-80.91 668.47,-74.27 670.78,-84.61 676.73,-80.91"/>
</a>
</g>
</g>
<!-- Node31&#45;&gt;Node9 -->
<g id="edge41_Node000031_Node000009" class="edge">
<title>Node31&#45;&gt;Node9</title>
<g id="a_edge41_Node000031_Node000009"><a xlink:title=" ">
<path fill="none" stroke="#63b8ff" d="M749.2,-225.38C703.91,-204.68 584.98,-150.9 484,-110 401.31,-76.51 302.63,-40.66 251.87,-22.51"/>
<polygon fill="#63b8ff" stroke="#63b8ff" points="252.97,-19.19 242.37,-19.12 250.62,-25.78 252.97,-19.19"/>
</a>
</g>
</g>
<!-- Node31&#45;&gt;Node19 -->
<g id="edge42_Node000031_Node000019" class="edge">
<title>Node31&#45;&gt;Node19</title>
<g id="a_edge42_Node000031_Node000019"><a xlink:title=" ">
<path fill="none" stroke="#63b8ff" d="M786.74,-225.46C816.07,-212.16 874.67,-185.87 925,-165 1058.9,-109.49 1220.45,-48.21 1288.39,-22.69"/>
<polygon fill="#63b8ff" stroke="#63b8ff" points="1289.96,-25.84 1298.1,-19.05 1287.51,-19.28 1289.96,-25.84"/>
</a>
</g>
</g>
<!-- Node31&#45;&gt;Node23 -->
<g id="edge44_Node000031_Node000023" class="edge">
<title>Node31&#45;&gt;Node23</title>
<g id="a_edge44_Node000031_Node000023"><a xlink:title=" ">
<path fill="none" stroke="#63b8ff" d="M709.69,-225.49C636.93,-214.88 512.7,-196.76 435.49,-185.49"/>
<polygon fill="#63b8ff" stroke="#63b8ff" points="435.78,-182 425.38,-184.02 434.77,-188.92 435.78,-182"/>
</a>
</g>
</g>
<!-- Node33 -->
<g id="Node000033" class="node">
<title>Node33</title>
<g id="a_Node000033"><a xlink:title=" ">
<polygon fill="#e0e0e0" stroke="#999999" points="990,-184 934,-184 934,-165 990,-165 990,-184"/>
<text text-anchor="middle" x="962" y="-172" font-family="Helvetica,sans-Serif" font-size="10.00">stddef.h</text>
</a>
</g>
</g>
<!-- Node32&#45;&gt;Node33 -->
<g id="edge46_Node000032_Node000033" class="edge">
<title>Node32&#45;&gt;Node33</title>
<g id="a_edge46_Node000032_Node000033"><a xlink:title=" ">
<path fill="none" stroke="#63b8ff" d="M931.31,-225.37C936.58,-216.81 944.79,-203.47 951.39,-192.74"/>
<polygon fill="#63b8ff" stroke="#63b8ff" points="954.41,-194.52 956.67,-184.17 948.44,-190.85 954.41,-194.52"/>
</a>
</g>
</g>
<!-- Node34&#45;&gt;Node2 -->
<g id="edge48_Node000034_Node000002" class="edge">
<title>Node34&#45;&gt;Node2</title>
<g id="a_edge48_Node000034_Node000002"><a xlink:title=" ">
<path fill="none" stroke="#63b8ff" d="M1139.32,-291.48C1181.16,-282.88 1237.6,-268.26 1251,-250 1258.89,-239.25 1258.76,-230.85 1251,-220 1185.97,-129.07 825.97,-82.84 703.67,-69.59"/>
<polygon fill="#63b8ff" stroke="#63b8ff" points="703.91,-66.1 693.6,-68.52 703.17,-73.06 703.91,-66.1"/>
</a>
</g>
</g>
<!-- Node35 -->
<g id="Node000035" class="node">
<title>Node35</title>
<g id="a_Node000035"><a xlink:title=" ">
<polygon fill="#e0e0e0" stroke="#999999" points="1242,-250 1120,-250 1120,-220 1242,-220 1242,-250"/>
<text text-anchor="start" x="1128" y="-238" font-family="Helvetica,sans-Serif" font-size="10.00">src/DatabaseSystems</text>
<text text-anchor="middle" x="1181" y="-227" font-family="Helvetica,sans-Serif" font-size="10.00">/Postgres.h</text>
</a>
</g>
</g>
<!-- Node34&#45;&gt;Node35 -->
<g id="edge49_Node000034_Node000035" class="edge">
<title>Node34&#45;&gt;Node35</title>
<g id="a_edge49_Node000034_Node000035"><a xlink:title=" ">
<path fill="none" stroke="#63b8ff" d="M1104,-291.37C1116.53,-282.36 1136.61,-267.92 1153.12,-256.05"/>
<polygon fill="#63b8ff" stroke="#63b8ff" points="1155.3,-258.8 1161.37,-250.12 1151.21,-253.11 1155.3,-258.8"/>
</a>
</g>
</g>
<!-- Node36&#45;&gt;Node2 -->
<g id="edge52_Node000036_Node000002" class="edge">
<title>Node36&#45;&gt;Node2</title>
<g id="a_edge52_Node000036_Node000002"><a xlink:title=" ">
<path fill="none" stroke="#63b8ff" d="M907.26,-296.43C937.54,-291.39 977.59,-279.25 998,-250 1019.62,-219.02 1021.61,-195.27 999,-165 963.33,-117.24 785.41,-84.3 703.9,-71.47"/>
<polygon fill="#63b8ff" stroke="#63b8ff" points="703.94,-67.94 693.53,-69.87 702.87,-74.86 703.94,-67.94"/>
</a>
</g>
</g>
<!-- Node36&#45;&gt;Node21 -->
<g id="edge53_Node000036_Node000021" class="edge">
<title>Node36&#45;&gt;Node21</title>
<g id="a_edge53_Node000036_Node000021"><a xlink:title=" ">
<path fill="none" stroke="#63b8ff" d="M828.94,-292.09C772.31,-280.62 667.31,-259.35 604.14,-246.56"/>
<polygon fill="#63b8ff" stroke="#63b8ff" points="604.48,-243.06 593.99,-244.5 603.1,-249.92 604.48,-243.06"/>
</a>
</g>
</g>
<!-- Node36&#45;&gt;Node31 -->
<g id="edge54_Node000036_Node000031" class="edge">
<title>Node36&#45;&gt;Node31</title>
<g id="a_edge54_Node000036_Node000031"><a xlink:title=" ">
<path fill="none" stroke="#63b8ff" d="M854.51,-291.37C838.04,-280.82 809.93,-262.84 790.24,-250.23"/>
<polygon fill="#63b8ff" stroke="#63b8ff" points="791.9,-247.14 781.59,-244.7 788.13,-253.04 791.9,-247.14"/>
</a>
</g>
</g>
<!-- Node36&#45;&gt;Node32 -->
<g id="edge55_Node000036_Node000032" class="edge">
<title>Node36&#45;&gt;Node32</title>
<g id="a_edge55_Node000036_Node000032"><a xlink:title=" ">
<path fill="none" stroke="#63b8ff" d="M875.82,-291.37C884.85,-281.4 899.91,-264.79 911.17,-252.36"/>
<polygon fill="#63b8ff" stroke="#63b8ff" points="913.81,-254.67 917.93,-244.91 908.62,-249.96 913.81,-254.67"/>
</a>
</g>
</g>
<!-- Node37 -->
<g id="Node000037" class="node">
<title>Node37</title>
<g id="a_Node000037"><a xlink:title=" ">
<polygon fill="#e0e0e0" stroke="#999999" points="1101.5,-244.5 1046.5,-244.5 1046.5,-225.5 1101.5,-225.5 1101.5,-244.5"/>
<text text-anchor="middle" x="1074" y="-232.5" font-family="Helvetica,sans-Serif" font-size="10.00">signal.h</text>
</a>
</g>
</g>
<!-- Node36&#45;&gt;Node37 -->
<g id="edge51_Node000036_Node000037" class="edge">
<title>Node36&#45;&gt;Node37</title>
<g id="a_edge51_Node000036_Node000037"><a xlink:title=" ">
<path fill="none" stroke="#63b8ff" d="M896.81,-291.46C929.61,-281.68 984.78,-265.06 1032,-250 1034.29,-249.27 1036.64,-248.51 1039.01,-247.74"/>
<polygon fill="#63b8ff" stroke="#63b8ff" points="1040.31,-251 1048.72,-244.55 1038.12,-244.35 1040.31,-251"/>
</a>
</g>
</g>
</g>
</svg>
