<?xml version="1.0" encoding="UTF-8" standalone="no"?>
<!DOCTYPE svg PUBLIC "-//W3C//DTD SVG 1.1//EN"
 "http://www.w3.org/Graphics/SVG/1.1/DTD/svg11.dtd">
<!-- Generated by graphviz version 2.43.0 (0)
 -->
<!-- Title: MbRun Pages: 1 -->
<!--zoomable 473 -->

<svg id="main" version="1.1" xmlns="http://www.w3.org/2000/svg" xmlns:xlink="http://www.w3.org/1999/xlink" xml:space="preserve" onload="init(evt)">
<style type="text/css"><![CDATA[
.node, .edge {opacity: 0.7;}
.node.selected, .edge.selected {opacity: 1;}
.edge:hover path { stroke: red; }
.edge:hover polygon { stroke: red; fill: red; }
]]></style>

<defs>
  <circle id="rim" cx="0" cy="0" r="7"/>
  <circle id="rim2" cx="0" cy="0" r="3.5"/>
  <g id="zoomPlus">
    <use xlink:href="#rim" fill="#404040"><set attributeName="fill" to="#808080" begin="zoomplus.mouseover" end="zoomplus.mouseout"/></use>
    <path d="M-4,0h8M0,-4v8" fill="none" stroke="white" stroke-width="1.5" pointer-events="none"/>
  </g>
  <g id="zoomMin">
    <use xlink:href="#rim" fill="#404040"><set attributeName="fill" to="#808080" begin="zoomminus.mouseover" end="zoomminus.mouseout"/></use>
    <path d="M-4,0h8" fill="none" stroke="white" stroke-width="1.5" pointer-events="none"/>
  </g>
  <g id="arrowUp" transform="translate(30 24)">
    <use xlink:href="#rim"/>
    <path pointer-events="none" fill="none" stroke="white" stroke-width="1.5" d="M0,-3.0v7 M-2.5,-0.5L0,-3.0L2.5,-0.5"/>
  </g>
  <g id="arrowRight" transform="rotate(90) translate(36 -43)">
    <use xlink:href="#rim"/>
    <path pointer-events="none" fill="none" stroke="white" stroke-width="1.5" d="M0,-3.0v7 M-2.5,-0.5L0,-3.0L2.5,-0.5"/>
  </g>
  <g id="arrowDown" transform="rotate(180) translate(-30 -48)">
    <use xlink:href="#rim"/>
    <path pointer-events="none" fill="none" stroke="white" stroke-width="1.5" d="M0,-3.0v7 M-2.5,-0.5L0,-3.0L2.5,-0.5"/>
  </g>
  <g id="arrowLeft" transform="rotate(270) translate(-36 17)">
    <use xlink:href="#rim"/>
    <path pointer-events="none" fill="none" stroke="white" stroke-width="1.5" d="M0,-3.0v7 M-2.5,-0.5L0,-3.0L2.5,-0.5"/>
  </g>
  <g id="resetDef">
    <use xlink:href="#rim2" fill="#404040"><set attributeName="fill" to="#808080" begin="reset.mouseover" end="reset.mouseout"/></use>
  </g>
</defs>
<script type="application/ecmascript">
var viewWidth = 510;
var viewHeight = 473;
var sectionId = 'dynsection-3';
</script>
<script type="application/ecmascript" xlink:href="svg.min.js"/>
<svg id="graph" class="graph">
<g id="viewport">
<title>MbRun</title>
<!-- Node1 -->
<g id="Node000001" class="node">
<title>Node1</title>
<g id="a_Node000001"><a xlink:title="Implements main Modbus thread loop.">
<polygon fill="#999999" stroke="#666666" points="50,-241 0,-241 0,-222 50,-222 50,-241"/>
<text text-anchor="middle" x="25" y="-229" font-family="Helvetica,sans-Serif" font-size="10.00">MbRun</text>
</a>
</g>
</g>
<!-- Node2 -->
<g id="Node000002" class="node">
<title>Node2</title>
<g id="a_Node000002"><a xlink:href="CommProtocols_2Modbus_8c.html#acf3d1cd1f764408a20670063da2912fc" target="_top" xlink:title="Parses a Modbus TCP frame into its components.">
<polygon fill="white" stroke="#666666" points="206,-465 102,-465 102,-446 206,-446 206,-465"/>
<text text-anchor="middle" x="154" y="-453" font-family="Helvetica,sans-Serif" font-size="10.00">MbParseTcpFrame</text>
</a>
</g>
</g>
<!-- Node1&#45;&gt;Node2 -->
<g id="edge1_Node000001_Node000002" class="edge">
<title>Node1&#45;&gt;Node2</title>
<g id="a_edge1_Node000001_Node000002"><a xlink:title=" ">
<path fill="none" stroke="#63b8ff" d="M25.72,-241.35C25.35,-274.25 28.78,-381.47 86,-437.5 88.1,-439.55 90.4,-441.38 92.86,-443"/>
<polygon fill="#63b8ff" stroke="#63b8ff" points="91.23,-446.1 101.69,-447.77 94.56,-439.94 91.23,-446.1"/>
</a>
</g>
</g>
<!-- Node3 -->
<g id="Node000003" class="node">
<title>Node3</title>
<g id="a_Node000003"><a xlink:href="CommProtocols_2Modbus_8c.html#a6b783d9f5a80832c1744d417adb3b146" target="_top" xlink:title="Prepares Modbus context from configuration file.">
<polygon fill="white" stroke="#666666" points="197,-428 111,-428 111,-409 197,-409 197,-428"/>
<text text-anchor="middle" x="154" y="-416" font-family="Helvetica,sans-Serif" font-size="10.00">MbPrepareCtx</text>
</a>
</g>
</g>
<!-- Node1&#45;&gt;Node3 -->
<g id="edge2_Node000001_Node000003" class="edge">
<title>Node1&#45;&gt;Node3</title>
<g id="a_edge2_Node000001_Node000003"><a xlink:title=" ">
<path fill="none" stroke="#63b8ff" d="M26.44,-241.2C28.28,-270.02 37.76,-355.91 86,-400.5 90.42,-404.58 95.67,-407.76 101.25,-410.23"/>
<polygon fill="#63b8ff" stroke="#63b8ff" points="100.28,-413.6 110.88,-413.74 102.68,-407.02 100.28,-413.6"/>
</a>
</g>
</g>
<!-- Node8 -->
<g id="Node000008" class="node">
<title>Node8</title>
<g id="a_Node000008"><a xlink:href="CommProtocols_2Modbus_8c.html#a958797e9ec7e41e215bebd4d2fd91513" target="_top" xlink:title="Initializes thread arenas for Modbus operations.">
<polygon fill="white" stroke="#666666" points="211.5,-391 96.5,-391 96.5,-372 211.5,-372 211.5,-391"/>
<text text-anchor="middle" x="154" y="-379" font-family="Helvetica,sans-Serif" font-size="10.00">MbThreadArenasInit</text>
</a>
</g>
</g>
<!-- Node1&#45;&gt;Node8 -->
<g id="edge7_Node000001_Node000008" class="edge">
<title>Node1&#45;&gt;Node8</title>
<g id="a_edge7_Node000001_Node000008"><a xlink:title=" ">
<path fill="none" stroke="#63b8ff" d="M27.51,-241.16C31.84,-265.56 46.64,-330.12 86,-363.5 87.52,-364.79 89.11,-365.98 90.78,-367.09"/>
<polygon fill="#63b8ff" stroke="#63b8ff" points="89.13,-370.18 99.57,-371.96 92.52,-364.05 89.13,-370.18"/>
</a>
</g>
</g>
<!-- Node9 -->
<g id="Node000009" class="node">
<title>Node9</title>
<g id="a_Node000009"><a xlink:href="Sdb_8h.html#aaf34881f50372f5c1932078f4439bc5a" target="_top" xlink:title=" ">
<polygon fill="white" stroke="#666666" points="209,-354 99,-354 99,-335 209,-335 209,-354"/>
<text text-anchor="middle" x="154" y="-342" font-family="Helvetica,sans-Serif" font-size="10.00">SdbArenaBootstrap</text>
</a>
</g>
</g>
<!-- Node1&#45;&gt;Node9 -->
<g id="edge8_Node000001_Node000009" class="edge">
<title>Node1&#45;&gt;Node9</title>
<g id="a_edge8_Node000001_Node000009"><a xlink:title=" ">
<path fill="none" stroke="#63b8ff" d="M29.95,-241.01C37.92,-259.05 57.61,-298.43 86,-320.5 91.37,-324.68 97.54,-328.17 103.9,-331.08"/>
<polygon fill="#63b8ff" stroke="#63b8ff" points="102.72,-334.37 113.3,-334.93 105.38,-327.9 102.72,-334.37"/>
</a>
</g>
</g>
<!-- Node10 -->
<g id="Node000010" class="node">
<title>Node10</title>
<g id="a_Node000010"><a xlink:href="Sdb_8h.html#a05ee63d567b60fbc2b9e6732f4154a48" target="_top" xlink:title=" ">
<polygon fill="white" stroke="#666666" points="374,-214 276,-214 276,-195 374,-195 374,-214"/>
<text text-anchor="middle" x="325" y="-202" font-family="Helvetica,sans-Serif" font-size="10.00">SdbArenaGetPos</text>
</a>
</g>
</g>
<!-- Node1&#45;&gt;Node10 -->
<g id="edge9_Node000001_Node000010" class="edge">
<title>Node1&#45;&gt;Node10</title>
<g id="a_edge9_Node000001_Node000010"><a xlink:title=" ">
<path fill="none" stroke="#63b8ff" d="M32.74,-241.34C42.61,-254.76 62.4,-278.2 86,-287.5 142.23,-309.67 165.05,-307.74 222,-287.5 258.68,-274.46 291.75,-241.97 309.74,-221.73"/>
<polygon fill="#63b8ff" stroke="#63b8ff" points="312.41,-223.99 316.29,-214.14 307.11,-219.42 312.41,-223.99"/>
</a>
</g>
</g>
<!-- Node11 -->
<g id="Node000011" class="node">
<title>Node11</title>
<g id="a_Node000011"><a xlink:href="Sdb_8h.html#ab63e953fd90c628d5c0727287df66fab" target="_top" xlink:title=" ">
<polygon fill="white" stroke="#666666" points="193.5,-278 114.5,-278 114.5,-259 193.5,-259 193.5,-278"/>
<text text-anchor="middle" x="154" y="-266" font-family="Helvetica,sans-Serif" font-size="10.00">SdbArenaInit</text>
</a>
</g>
</g>
<!-- Node1&#45;&gt;Node11 -->
<g id="edge10_Node000001_Node000011" class="edge">
<title>Node1&#45;&gt;Node11</title>
<g id="a_edge10_Node000001_Node000011"><a xlink:title=" ">
<path fill="none" stroke="#63b8ff" d="M50.16,-239.42C61.07,-242.93 74.15,-247.03 86,-250.5 92.6,-252.43 99.59,-254.4 106.47,-256.28"/>
<polygon fill="#63b8ff" stroke="#63b8ff" points="105.84,-259.74 116.41,-258.98 107.67,-252.98 105.84,-259.74"/>
</a>
</g>
</g>
<!-- Node12 -->
<g id="Node000012" class="node">
<title>Node12</title>
<g id="a_Node000012"><a xlink:href="Sdb_8h.html#a77f49f2da4cf9e662d7cb63fe2c677dd" target="_top" xlink:title=" ">
<polygon fill="white" stroke="#666666" points="197,-241 111,-241 111,-222 197,-222 197,-241"/>
<text text-anchor="middle" x="154" y="-229" font-family="Helvetica,sans-Serif" font-size="10.00">SdbArenaPush</text>
</a>
</g>
</g>
<!-- Node1&#45;&gt;Node12 -->
<g id="edge11_Node000001_Node000012" class="edge">
<title>Node1&#45;&gt;Node12</title>
<g id="a_edge11_Node000001_Node000012"><a xlink:title=" ">
<path fill="none" stroke="#63b8ff" d="M50.19,-231.5C64.51,-231.5 83.22,-231.5 100.75,-231.5"/>
<polygon fill="#63b8ff" stroke="#63b8ff" points="100.9,-235 110.9,-231.5 100.9,-228 100.9,-235"/>
</a>
</g>
</g>
<!-- Node13 -->
<g id="Node000013" class="node">
<title>Node13</title>
<g id="a_Node000013"><a xlink:href="Thread_8c.html#a192a33d80a7d463ad237856cdc7343be" target="_top" xlink:title="Wait on a thread barrier.">
<polygon fill="white" stroke="#666666" points="198.5,-204 109.5,-204 109.5,-185 198.5,-185 198.5,-204"/>
<text text-anchor="middle" x="154" y="-192" font-family="Helvetica,sans-Serif" font-size="10.00">SdbBarrierWait</text>
</a>
</g>
</g>
<!-- Node1&#45;&gt;Node13 -->
<g id="edge12_Node000001_Node000013" class="edge">
<title>Node1&#45;&gt;Node13</title>
<g id="a_edge12_Node000001_Node000013"><a xlink:title=" ">
<path fill="none" stroke="#63b8ff" d="M50.21,-224.15C61.13,-220.85 74.2,-216.94 86,-213.5 93.51,-211.31 101.5,-209.01 109.25,-206.8"/>
<polygon fill="#63b8ff" stroke="#63b8ff" points="110.22,-210.17 118.89,-204.07 108.31,-203.43 110.22,-210.17"/>
</a>
</g>
</g>
<!-- Node14 -->
<g id="Node000014" class="node">
<title>Node14</title>
<g id="a_Node000014"><a xlink:href="Sdb_8h.html#a9b1bdb21ac42d86edd96d53d49da1760" target="_top" xlink:title=" ">
<polygon fill="white" stroke="#666666" points="192.5,-167 115.5,-167 115.5,-148 192.5,-148 192.5,-167"/>
<text text-anchor="middle" x="154" y="-155" font-family="Helvetica,sans-Serif" font-size="10.00">SdbMemcpy</text>
</a>
</g>
</g>
<!-- Node1&#45;&gt;Node14 -->
<g id="edge13_Node000001_Node000014" class="edge">
<title>Node1&#45;&gt;Node14</title>
<g id="a_edge13_Node000001_Node000014"><a xlink:title=" ">
<path fill="none" stroke="#63b8ff" d="M33.92,-221.87C44.53,-209.59 64.53,-188.48 86,-176.5 92.03,-173.13 98.7,-170.32 105.43,-167.99"/>
<polygon fill="#63b8ff" stroke="#63b8ff" points="106.77,-171.24 115.27,-164.9 104.68,-164.56 106.77,-171.24"/>
</a>
</g>
</g>
<!-- Node15 -->
<g id="Node000015" class="node">
<title>Node15</title>
<g id="a_Node000015"><a xlink:href="Signals_8c.html#aca8d19968aa974641e340443ba21e58e" target="_top" xlink:title="Checks if the system should initiate shutdown.">
<polygon fill="white" stroke="#666666" points="212,-130 96,-130 96,-111 212,-111 212,-130"/>
<text text-anchor="middle" x="154" y="-118" font-family="Helvetica,sans-Serif" font-size="10.00">SdbShouldShutdown</text>
</a>
</g>
</g>
<!-- Node1&#45;&gt;Node15 -->
<g id="edge14_Node000001_Node000015" class="edge">
<title>Node1&#45;&gt;Node15</title>
<g id="a_edge14_Node000001_Node000015"><a xlink:title=" ">
<path fill="none" stroke="#63b8ff" d="M29.61,-221.78C37.11,-202.96 56.21,-161.43 86,-139.5 88.63,-137.56 91.45,-135.83 94.39,-134.26"/>
<polygon fill="#63b8ff" stroke="#63b8ff" points="95.87,-137.44 103.51,-130.09 92.96,-131.07 95.87,-137.44"/>
</a>
</g>
</g>
<!-- Node16 -->
<g id="Node000016" class="node">
<title>Node16</title>
<g id="a_Node000016"><a xlink:href="SensorDataPipe_8c.html#ad24e8341d323d221a2cfae80ae7d0508" target="_top" xlink:title="Flush the current write buffer.">
<polygon fill="white" stroke="#666666" points="192,-93 116,-93 116,-74 192,-74 192,-93"/>
<text text-anchor="middle" x="154" y="-81" font-family="Helvetica,sans-Serif" font-size="10.00">SdPipeFlush</text>
</a>
</g>
</g>
<!-- Node1&#45;&gt;Node16 -->
<g id="edge15_Node000001_Node000016" class="edge">
<title>Node1&#45;&gt;Node16</title>
<g id="a_edge15_Node000001_Node000016"><a xlink:title=" ">
<path fill="none" stroke="#63b8ff" d="M27.67,-221.74C32.32,-197.7 47.65,-135.19 86,-102.5 91.76,-97.59 98.7,-93.95 105.91,-91.25"/>
<polygon fill="#63b8ff" stroke="#63b8ff" points="107.34,-94.46 115.81,-88.11 105.22,-87.79 107.34,-94.46"/>
</a>
</g>
</g>
<!-- Node18 -->
<g id="Node000018" class="node">
<title>Node18</title>
<g id="a_Node000018"><a xlink:href="SensorDataPipe_8c.html#a137e077b0781a1a12f97eb0e2a86f042" target="_top" xlink:title="Acquire Write Buffer Arena.">
<polygon fill="white" stroke="#666666" points="215,-56 93,-56 93,-37 215,-37 215,-56"/>
<text text-anchor="middle" x="154" y="-44" font-family="Helvetica,sans-Serif" font-size="10.00">SdPipeGetWriteBuffer</text>
</a>
</g>
</g>
<!-- Node1&#45;&gt;Node18 -->
<g id="edge18_Node000001_Node000018" class="edge">
<title>Node1&#45;&gt;Node18</title>
<g id="a_edge18_Node000001_Node000018"><a xlink:title=" ">
<path fill="none" stroke="#63b8ff" d="M26.56,-221.6C28.71,-192.97 38.92,-109.37 86,-65.5 87.69,-63.93 89.5,-62.48 91.4,-61.16"/>
<polygon fill="#63b8ff" stroke="#63b8ff" points="93.33,-64.08 100.26,-56.07 89.84,-58.01 93.33,-64.08"/>
</a>
</g>
</g>
<!-- Node19 -->
<g id="Node000019" class="node">
<title>Node19</title>
<g id="a_Node000019"><a xlink:href="Socket_8c.html#ae188935dc7b2150fece7683b227f616a" target="_top" xlink:title="Receive Data with Configurable Timeout.">
<polygon fill="white" stroke="#666666" points="222,-19 86,-19 86,0 222,0 222,-19"/>
<text text-anchor="middle" x="154" y="-7" font-family="Helvetica,sans-Serif" font-size="10.00">SocketRecvWithTimeout</text>
</a>
</g>
</g>
<!-- Node1&#45;&gt;Node19 -->
<g id="edge20_Node000001_Node000019" class="edge">
<title>Node1&#45;&gt;Node19</title>
<g id="a_edge20_Node000001_Node000019"><a xlink:title=" ">
<path fill="none" stroke="#63b8ff" d="M25.75,-221.75C25.49,-189.15 29.22,-82.96 86,-27.5 86.97,-26.55 87.98,-25.65 89.03,-24.8"/>
<polygon fill="#63b8ff" stroke="#63b8ff" points="91.28,-27.52 97.76,-19.13 87.47,-21.65 91.28,-27.52"/>
</a>
</g>
</g>
<!-- Node4 -->
<g id="Node000004" class="node">
<title>Node4</title>
<g id="a_Node000004"><a xlink:href="Sdb_8h.html#a5ee7553cb2684af20d146fcf1cc6538f" target="_top" xlink:title=" ">
<polygon fill="white" stroke="#666666" points="392,-465 258,-465 258,-446 392,-446 392,-465"/>
<text text-anchor="middle" x="325" y="-453" font-family="Helvetica,sans-Serif" font-size="10.00">SdbLoadFileIntoMemory</text>
</a>
</g>
</g>
<!-- Node3&#45;&gt;Node4 -->
<g id="edge3_Node000003_Node000004" class="edge">
<title>Node3&#45;&gt;Node4</title>
<g id="a_edge3_Node000003_Node000004"><a xlink:title=" ">
<path fill="none" stroke="#63b8ff" d="M197.21,-427.74C219.45,-432.61 246.96,-438.63 270.66,-443.82"/>
<polygon fill="#63b8ff" stroke="#63b8ff" points="270.05,-447.27 280.56,-445.99 271.54,-440.43 270.05,-447.27"/>
</a>
</g>
</g>
<!-- Node5 -->
<g id="Node000005" class="node">
<title>Node5</title>
<g id="a_Node000005"><a xlink:href="Sdb_8h.html#acd332199b77e76c2b764ef93a7b60439" target="_top" xlink:title=" ">
<polygon fill="white" stroke="#666666" points="369.5,-428 280.5,-428 280.5,-409 369.5,-409 369.5,-428"/>
<text text-anchor="middle" x="325" y="-416" font-family="Helvetica,sans-Serif" font-size="10.00">SdbStringMake</text>
</a>
</g>
</g>
<!-- Node3&#45;&gt;Node5 -->
<g id="edge4_Node000003_Node000005" class="edge">
<title>Node3&#45;&gt;Node5</title>
<g id="a_edge4_Node000003_Node000005"><a xlink:title=" ">
<path fill="none" stroke="#63b8ff" d="M197.21,-418.5C219.27,-418.5 246.5,-418.5 270.07,-418.5"/>
<polygon fill="#63b8ff" stroke="#63b8ff" points="270.27,-422 280.27,-418.5 270.27,-415 270.27,-422"/>
</a>
</g>
</g>
<!-- Node6 -->
<g id="Node000006" class="node">
<title>Node6</title>
<g id="a_Node000006"><a xlink:href="Socket_8c.html#afe998f70317da205d71f4d76f90d7a0e" target="_top" xlink:title="Create and Connect TCP Socket.">
<polygon fill="white" stroke="#666666" points="365.5,-391 284.5,-391 284.5,-372 365.5,-372 365.5,-391"/>
<text text-anchor="middle" x="325" y="-379" font-family="Helvetica,sans-Serif" font-size="10.00">SocketCreate</text>
</a>
</g>
</g>
<!-- Node3&#45;&gt;Node6 -->
<g id="edge5_Node000003_Node000006" class="edge">
<title>Node3&#45;&gt;Node6</title>
<g id="a_edge5_Node000003_Node000006"><a xlink:title=" ">
<path fill="none" stroke="#63b8ff" d="M197.21,-409.26C220.67,-404.12 249.99,-397.7 274.52,-392.33"/>
<polygon fill="#63b8ff" stroke="#63b8ff" points="275.34,-395.74 284.36,-390.18 273.84,-388.9 275.34,-395.74"/>
</a>
</g>
</g>
<!-- Node7 -->
<g id="Node000007" class="node">
<title>Node7</title>
<g id="a_Node000007"><a xlink:href="Sdb_8h.html#a2758760564fc0044b9f6c9aee290a7fe" target="_top" xlink:title=" ">
<polygon fill="white" stroke="#666666" points="502,-391 428,-391 428,-372 502,-372 502,-391"/>
<text text-anchor="middle" x="465" y="-379" font-family="Helvetica,sans-Serif" font-size="10.00">SdbMemset</text>
</a>
</g>
</g>
<!-- Node6&#45;&gt;Node7 -->
<g id="edge6_Node000006_Node000007" class="edge">
<title>Node6&#45;&gt;Node7</title>
<g id="a_edge6_Node000006_Node000007"><a xlink:title=" ">
<path fill="none" stroke="#63b8ff" d="M365.55,-381.5C381.77,-381.5 400.67,-381.5 417.55,-381.5"/>
<polygon fill="#63b8ff" stroke="#63b8ff" points="417.75,-385 427.75,-381.5 417.75,-378 417.75,-385"/>
</a>
</g>
</g>
<!-- Node16&#45;&gt;Node10 -->
<g id="edge17_Node000016_Node000010" class="edge">
<title>Node16&#45;&gt;Node10</title>
<g id="a_edge17_Node000016_Node000010"><a xlink:title=" ">
<path fill="none" stroke="#63b8ff" d="M192.19,-90.45C202.29,-93.27 212.93,-97.17 222,-102.5 259.56,-124.55 293.16,-163.72 310.85,-186.57"/>
<polygon fill="#63b8ff" stroke="#63b8ff" points="308.2,-188.86 317.02,-194.72 313.78,-184.64 308.2,-188.86"/>
</a>
</g>
</g>
<!-- Node17 -->
<g id="Node000017" class="node">
<title>Node17</title>
<g id="a_Node000017"><a xlink:href="Sdb_8h.html#ab38d94a0b56df0604f07862a93856990" target="_top" xlink:title=" ">
<polygon fill="white" stroke="#666666" points="369.5,-75 280.5,-75 280.5,-56 369.5,-56 369.5,-75"/>
<text text-anchor="middle" x="325" y="-63" font-family="Helvetica,sans-Serif" font-size="10.00">SdbArenaClear</text>
</a>
</g>
</g>
<!-- Node16&#45;&gt;Node17 -->
<g id="edge16_Node000016_Node000017" class="edge">
<title>Node16&#45;&gt;Node17</title>
<g id="a_edge16_Node000016_Node000017"><a xlink:title=" ">
<path fill="none" stroke="#63b8ff" d="M192.09,-79.55C214.97,-77.11 244.72,-73.94 270.17,-71.23"/>
<polygon fill="#63b8ff" stroke="#63b8ff" points="270.85,-74.68 280.42,-70.14 270.11,-67.72 270.85,-74.68"/>
</a>
</g>
</g>
<!-- Node18&#45;&gt;Node17 -->
<g id="edge19_Node000018_Node000017" class="edge">
<title>Node18&#45;&gt;Node17</title>
<g id="a_edge19_Node000018_Node000017"><a xlink:title=" ">
<path fill="none" stroke="#63b8ff" d="M215.06,-53.25C233.06,-55.28 252.68,-57.48 270.25,-59.46"/>
<polygon fill="#63b8ff" stroke="#63b8ff" points="270,-62.95 280.33,-60.59 270.79,-56 270,-62.95"/>
</a>
</g>
</g>
<!-- Node20 -->
<g id="Node000020" class="node">
<title>Node20</title>
<g id="a_Node000020"><a xlink:href="Time_8c.html#a0221db75cb1cf6093ca801b7915fe887" target="_top" xlink:title="Convert Time Difference to Timeval.">
<polygon fill="white" stroke="#666666" points="362,-19 288,-19 288,0 362,0 362,-19"/>
<text text-anchor="middle" x="325" y="-7" font-family="Helvetica,sans-Serif" font-size="10.00">SdbTimeval</text>
</a>
</g>
</g>
<!-- Node19&#45;&gt;Node20 -->
<g id="edge21_Node000019_Node000020" class="edge">
<title>Node19&#45;&gt;Node20</title>
<g id="a_edge21_Node000019_Node000020"><a xlink:title=" ">
<path fill="none" stroke="#63b8ff" d="M222.28,-9.5C240.73,-9.5 260.32,-9.5 277.33,-9.5"/>
<polygon fill="#63b8ff" stroke="#63b8ff" points="277.56,-13 287.56,-9.5 277.56,-6 277.56,-13"/>
</a>
</g>
</g>
</g>
</svg>

<g id="navigator" transform="translate(0 0)" fill="#404254">
  <rect fill="#f2f5e9" fill-opacity="0.5" stroke="#606060" stroke-width=".5" x="0" y="0" width="60" height="60"/>
  <use id="zoomplus" xlink:href="#zoomPlus" x="17" y="9" onmousedown="handleZoom(evt,'in')"/>
  <use id="zoomminus" xlink:href="#zoomMin" x="42" y="9" onmousedown="handleZoom(evt,'out')"/>
  <use id="reset" xlink:href="#resetDef" x="30" y="36" onmousedown="handleReset()"/>
   <use id="arrowup" xlink:href="#arrowUp" x="0" y="0" onmousedown="handlePan(0,-1)"/>
  <use id="arrowright" xlink:href="#arrowRight" x="0" y="0" onmousedown="handlePan(1,0)"/>
  <use id="arrowdown" xlink:href="#arrowDown" x="0" y="0" onmousedown="handlePan(0,1)"/>
  <use id="arrowleft" xlink:href="#arrowLeft" x="0" y="0" onmousedown="handlePan(-1,0)"/>
</g>
<svg viewBox="0 0 15 15" width="100%" height="30px" preserveAspectRatio="xMaxYMin meet">
 <g id="arrow_out" transform="scale(0.3 0.3)">
  <a xlink:href="DataHandlers_2ModbusWithPostgres_2Modbus_8c_ac42f810b60d139ab2f82c4146710d721_cgraph_org.svg" target="_base">
   <rect id="button" ry="5" rx="5" y="6" x="6" height="38" width="38"
        fill="#f2f5e9" fill-opacity="0.5" stroke="#606060" stroke-width="1.0"/>
   <path id="arrow"
     d="M 11.500037,31.436501 C 11.940474,20.09759 22.043105,11.32322 32.158766,21.979434 L 37.068811,17.246167 C 37.068811,17.246167 37.088388,32 37.088388,32 L 22.160133,31.978069 C 22.160133,31.978069 26.997745,27.140456 26.997745,27.140456 C 18.528582,18.264221 13.291696,25.230495 11.500037,31.436501 z"
     style="fill:#404040;"/>
  </a>
 </g>
</svg>

<style type='text/css'>
<![CDATA[
[data-mouse-over-selected='false'] { opacity: 0.7; }
[data-mouse-over-selected='true']  { opacity: 1.0; }
]]>
</style>
<script type="application/ecmascript"><![CDATA[
document.addEventListener('DOMContentLoaded', (event) => {
  highlightEdges();
  highlightAdjacentNodes();
});
]]></script>
</svg>
