<?xml version="1.0" encoding="UTF-8" standalone="no"?>
<!DOCTYPE svg PUBLIC "-//W3C//DTD SVG 1.1//EN"
 "http://www.w3.org/Graphics/SVG/1.1/DTD/svg11.dtd">
<!-- Generated by graphviz version 2.43.0 (0)
 -->
<!-- Title: PgPrepareCtx Pages: 1 -->
<svg width="425pt" height="251pt"
 viewBox="0.00 0.00 425.00 251.00" xmlns="http://www.w3.org/2000/svg" xmlns:xlink="http://www.w3.org/1999/xlink">

<svg id="main" version="1.1" xmlns="http://www.w3.org/2000/svg" xmlns:xlink="http://www.w3.org/1999/xlink" xml:space="preserve" onload="init(evt)">
<style type="text/css"><![CDATA[
.node, .edge {opacity: 0.7;}
.node.selected, .edge.selected {opacity: 1;}
.edge:hover path { stroke: red; }
.edge:hover polygon { stroke: red; fill: red; }
]]></style>
<script type="application/ecmascript" xlink:href="svg.min.js"/>
<svg id="graph" class="graph">
<g id="graph0" class="graph" transform="scale(1 1) rotate(0) translate(4 247)">
<title>PgPrepareCtx</title>
<!-- Node1 -->
<g id="Node000001" class="node">
<title>Node1</title>
<g id="a_Node000001"><a xlink:title="Prepares PostgreSQL context from configuration.">
<polygon fill="#999999" stroke="#666666" points="83,-131 0,-131 0,-112 83,-112 83,-131"/>
<text text-anchor="middle" x="41.5" y="-119" font-family="Helvetica,sans-Serif" font-size="10.00">PgPrepareCtx</text>
</a>
</g>
</g>
<!-- Node2 -->
<g id="Node000002" class="node">
<title>Node2</title>
<g id="a_Node000002"><a xlink:href="DatabaseInitializer_8c.html#a892f0ebc1700e0aa69bd02dd611e0094" target="_top" xlink:title="Loads and parses a database configuration file.">
<polygon fill="white" stroke="#666666" points="247,-206 119,-206 119,-187 247,-187 247,-206"/>
<text text-anchor="middle" x="183" y="-194" font-family="Helvetica,sans-Serif" font-size="10.00">DbInitGetConfFromFile</text>
</a>
</g>
</g>
<!-- Node1&#45;&gt;Node2 -->
<g id="edge1_Node000001_Node000002" class="edge">
<title>Node1&#45;&gt;Node2</title>
<g id="a_edge1_Node000001_Node000002"><a xlink:title=" ">
<path fill="none" stroke="#63b8ff" d="M53.07,-131.37C67.11,-143.98 93.17,-165.72 119,-178.5 122.79,-180.37 126.8,-182.08 130.89,-183.63"/>
<polygon fill="#63b8ff" stroke="#63b8ff" points="129.93,-187 140.52,-186.97 132.22,-180.39 129.93,-187"/>
</a>
</g>
</g>
<!-- Node3 -->
<g id="Node000003" class="node">
<title>Node3</title>
<g id="a_Node000003"><a xlink:href="Sdb_8h.html#a5ee7553cb2684af20d146fcf1cc6538f" target="_top" xlink:title=" ">
<polygon fill="white" stroke="#666666" points="417,-243 283,-243 283,-224 417,-224 417,-243"/>
<text text-anchor="middle" x="350" y="-231" font-family="Helvetica,sans-Serif" font-size="10.00">SdbLoadFileIntoMemory</text>
</a>
</g>
</g>
<!-- Node1&#45;&gt;Node3 -->
<g id="edge7_Node000001_Node000003" class="edge">
<title>Node1&#45;&gt;Node3</title>
<g id="a_edge7_Node000001_Node000003"><a xlink:title=" ">
<path fill="none" stroke="#63b8ff" d="M46.97,-131.11C56.78,-150.96 82.29,-196.25 119,-215.5 165.93,-240.1 225.78,-244.09 272.66,-242.19"/>
<polygon fill="#63b8ff" stroke="#63b8ff" points="272.95,-245.68 282.76,-241.68 272.6,-238.69 272.95,-245.68"/>
</a>
</g>
</g>
<!-- Node5 -->
<g id="Node000005" class="node">
<title>Node5</title>
<g id="a_Node000005"><a xlink:href="DatabaseSystems_2Postgres_8c.html#ac6502b8786d53619f0b41e92ec1022de" target="_top" xlink:title=" ">
<polygon fill="white" stroke="#666666" points="236,-169 130,-169 130,-150 236,-150 236,-169"/>
<text text-anchor="middle" x="183" y="-157" font-family="Helvetica,sans-Serif" font-size="10.00">GetTableMetadata</text>
</a>
</g>
</g>
<!-- Node1&#45;&gt;Node5 -->
<g id="edge4_Node000001_Node000005" class="edge">
<title>Node1&#45;&gt;Node5</title>
<g id="a_edge4_Node000001_Node000005"><a xlink:title=" ">
<path fill="none" stroke="#63b8ff" d="M77.7,-131.09C95.71,-135.99 117.83,-142.02 137.06,-147.26"/>
<polygon fill="#63b8ff" stroke="#63b8ff" points="136.24,-150.66 146.81,-149.91 138.08,-143.91 136.24,-150.66"/>
</a>
</g>
</g>
<!-- Node7 -->
<g id="Node000007" class="node">
<title>Node7</title>
<g id="a_Node000007"><a xlink:href="Sdb_8h.html#acd332199b77e76c2b764ef93a7b60439" target="_top" xlink:title=" ">
<polygon fill="white" stroke="#666666" points="394.5,-132 305.5,-132 305.5,-113 394.5,-113 394.5,-132"/>
<text text-anchor="middle" x="350" y="-120" font-family="Helvetica,sans-Serif" font-size="10.00">SdbStringMake</text>
</a>
</g>
</g>
<!-- Node1&#45;&gt;Node7 -->
<g id="edge11_Node000001_Node000007" class="edge">
<title>Node1&#45;&gt;Node7</title>
<g id="a_edge11_Node000001_Node000007"><a xlink:title=" ">
<path fill="none" stroke="#63b8ff" d="M83.2,-121.63C137.77,-121.81 234.77,-122.13 295.29,-122.32"/>
<polygon fill="#63b8ff" stroke="#63b8ff" points="295.39,-125.83 305.41,-122.36 295.42,-118.83 295.39,-125.83"/>
</a>
</g>
</g>
<!-- Node8 -->
<g id="Node000008" class="node">
<title>Node8</title>
<g id="a_Node000008"><a xlink:href="Sdb_8h.html#a2f3b726bde5f66a61dee9805406813ee" target="_top" xlink:title=" ">
<polygon fill="white" stroke="#666666" points="233,-93 133,-93 133,-74 233,-74 233,-93"/>
<text text-anchor="middle" x="183" y="-81" font-family="Helvetica,sans-Serif" font-size="10.00">SdbStringAppend</text>
</a>
</g>
</g>
<!-- Node1&#45;&gt;Node8 -->
<g id="edge8_Node000001_Node000008" class="edge">
<title>Node1&#45;&gt;Node8</title>
<g id="a_edge8_Node000001_Node000008"><a xlink:title=" ">
<path fill="none" stroke="#63b8ff" d="M77.7,-111.91C95.71,-107.01 117.83,-100.98 137.06,-95.74"/>
<polygon fill="#63b8ff" stroke="#63b8ff" points="138.08,-99.09 146.81,-93.09 136.24,-92.34 138.08,-99.09"/>
</a>
</g>
</g>
<!-- Node9 -->
<g id="Node000009" class="node">
<title>Node9</title>
<g id="a_Node000009"><a xlink:href="Sdb_8h.html#a28c30cfe4c8326befba64bf54397bc47" target="_top" xlink:title=" ">
<polygon fill="white" stroke="#666666" points="236.5,-56 129.5,-56 129.5,-37 236.5,-37 236.5,-56"/>
<text text-anchor="middle" x="183" y="-44" font-family="Helvetica,sans-Serif" font-size="10.00">SdbStringAppendC</text>
</a>
</g>
</g>
<!-- Node1&#45;&gt;Node9 -->
<g id="edge9_Node000001_Node000009" class="edge">
<title>Node1&#45;&gt;Node9</title>
<g id="a_edge9_Node000001_Node000009"><a xlink:title=" ">
<path fill="none" stroke="#63b8ff" d="M53.07,-111.63C67.11,-99.02 93.17,-77.28 119,-64.5 122.79,-62.63 126.8,-60.92 130.89,-59.37"/>
<polygon fill="#63b8ff" stroke="#63b8ff" points="132.22,-62.61 140.52,-56.03 129.93,-56 132.22,-62.61"/>
</a>
</g>
</g>
<!-- Node10 -->
<g id="Node000010" class="node">
<title>Node10</title>
<g id="a_Node000010"><a xlink:href="Sdb_8h.html#af443df2d401ad3eca43919e5cf1a7118" target="_top" xlink:title=" ">
<polygon fill="white" stroke="#666666" points="241,-19 125,-19 125,0 241,0 241,-19"/>
<text text-anchor="middle" x="183" y="-7" font-family="Helvetica,sans-Serif" font-size="10.00">SdbStringBackspace</text>
</a>
</g>
</g>
<!-- Node1&#45;&gt;Node10 -->
<g id="edge10_Node000001_Node000010" class="edge">
<title>Node1&#45;&gt;Node10</title>
<g id="a_edge10_Node000001_Node000010"><a xlink:title=" ">
<path fill="none" stroke="#63b8ff" d="M47.63,-111.88C58.29,-92.8 84.75,-50.09 119,-27.5 121.4,-25.91 123.95,-24.47 126.58,-23.15"/>
<polygon fill="#63b8ff" stroke="#63b8ff" points="128.04,-26.33 135.81,-19.12 125.24,-19.91 128.04,-26.33"/>
</a>
</g>
</g>
<!-- Node2&#45;&gt;Node3 -->
<g id="edge2_Node000002_Node000003" class="edge">
<title>Node2&#45;&gt;Node3</title>
<g id="a_edge2_Node000002_Node000003"><a xlink:title=" ">
<path fill="none" stroke="#63b8ff" d="M226.49,-206.03C247.87,-210.82 273.97,-216.68 296.58,-221.75"/>
<polygon fill="#63b8ff" stroke="#63b8ff" points="295.84,-225.17 306.37,-223.94 297.37,-218.34 295.84,-225.17"/>
</a>
</g>
</g>
<!-- Node4 -->
<g id="Node000004" class="node">
<title>Node4</title>
<g id="a_Node000004"><a xlink:href="Sdb_8h.html#a7d36f635ee473a12e82ed102ab4597a3" target="_top" xlink:title=" ">
<polygon fill="white" stroke="#666666" points="399,-206 301,-206 301,-187 399,-187 399,-206"/>
<text text-anchor="middle" x="350" y="-194" font-family="Helvetica,sans-Serif" font-size="10.00">SdbScratchBegin</text>
</a>
</g>
</g>
<!-- Node2&#45;&gt;Node4 -->
<g id="edge3_Node000002_Node000004" class="edge">
<title>Node2&#45;&gt;Node4</title>
<g id="a_edge3_Node000002_Node000004"><a xlink:title=" ">
<path fill="none" stroke="#63b8ff" d="M247.32,-196.5C261.65,-196.5 276.81,-196.5 290.91,-196.5"/>
<polygon fill="#63b8ff" stroke="#63b8ff" points="290.97,-200 300.97,-196.5 290.97,-193 290.97,-200"/>
</a>
</g>
</g>
<!-- Node6 -->
<g id="Node000006" class="node">
<title>Node6</title>
<g id="a_Node000006"><a xlink:href="Sdb_8h.html#adb598df288598cf1c13afc15e3f7e6c2" target="_top" xlink:title=" ">
<polygon fill="white" stroke="#666666" points="409.5,-169 290.5,-169 290.5,-150 409.5,-150 409.5,-169"/>
<text text-anchor="middle" x="350" y="-157" font-family="Helvetica,sans-Serif" font-size="10.00">SdbStringAppendFmt</text>
</a>
</g>
</g>
<!-- Node5&#45;&gt;Node6 -->
<g id="edge5_Node000005_Node000006" class="edge">
<title>Node5&#45;&gt;Node6</title>
<g id="a_edge5_Node000005_Node000006"><a xlink:title=" ">
<path fill="none" stroke="#63b8ff" d="M236.21,-159.5C250.17,-159.5 265.47,-159.5 280.18,-159.5"/>
<polygon fill="#63b8ff" stroke="#63b8ff" points="280.25,-163 290.25,-159.5 280.25,-156 280.25,-163"/>
</a>
</g>
</g>
<!-- Node5&#45;&gt;Node7 -->
<g id="edge6_Node000005_Node000007" class="edge">
<title>Node5&#45;&gt;Node7</title>
<g id="a_edge6_Node000005_Node000007"><a xlink:title=" ">
<path fill="none" stroke="#63b8ff" d="M226.49,-149.97C247.87,-145.18 273.97,-139.32 296.58,-134.25"/>
<polygon fill="#63b8ff" stroke="#63b8ff" points="297.37,-137.66 306.37,-132.06 295.84,-130.83 297.37,-137.66"/>
</a>
</g>
</g>
</g>
</svg>
</svg>

<style type='text/css'>
<![CDATA[
[data-mouse-over-selected='false'] { opacity: 0.7; }
[data-mouse-over-selected='true']  { opacity: 1.0; }
]]>
</style>
<script type="application/ecmascript"><![CDATA[
document.addEventListener('DOMContentLoaded', (event) => {
  highlightEdges();
  highlightAdjacentNodes();
});
]]></script>
</svg>
