<?xml version="1.0" encoding="UTF-8" standalone="no"?>
<!DOCTYPE svg PUBLIC "-//W3C//DTD SVG 1.1//EN"
 "http://www.w3.org/Graphics/SVG/1.1/DTD/svg11.dtd">
<!-- Generated by graphviz version 2.43.0 (0)
 -->
<!-- Title: src/DataHandlers/ModbusWithPostgres/Postgres.c Pages: 1 -->
<svg width="1362pt" height="379pt"
 viewBox="0.00 0.00 1362.00 379.00" xmlns="http://www.w3.org/2000/svg" xmlns:xlink="http://www.w3.org/1999/xlink">
<g id="graph0" class="graph" transform="scale(1 1) rotate(0) translate(4 375)">
<title>src/DataHandlers/ModbusWithPostgres/Postgres.c</title>
<!-- Node1 -->
<g id="Node000001" class="node">
<title>Node1</title>
<g id="a_Node000001"><a xlink:title=" ">
<polygon fill="#999999" stroke="#666666" points="892,-371 728,-371 728,-341 892,-341 892,-371"/>
<text text-anchor="start" x="736" y="-359" font-family="Helvetica,sans-Serif" font-size="10.00">src/DataHandlers/ModbusWith</text>
<text text-anchor="middle" x="810" y="-348" font-family="Helvetica,sans-Serif" font-size="10.00">Postgres/Postgres.c</text>
</a>
</g>
</g>
<!-- Node2 -->
<g id="Node000002" class="node">
<title>Node2</title>
<g id="a_Node000002"><a xlink:title=" ">
<polygon fill="#e0e0e0" stroke="#999999" points="590.5,-239 535.5,-239 535.5,-220 590.5,-220 590.5,-239"/>
<text text-anchor="middle" x="563" y="-227" font-family="Helvetica,sans-Serif" font-size="10.00">signal.h</text>
</a>
</g>
</g>
<!-- Node1&#45;&gt;Node2 -->
<g id="edge1_Node000001_Node000002" class="edge">
<title>Node1&#45;&gt;Node2</title>
<g id="a_edge1_Node000001_Node000002"><a xlink:title=" ">
<path fill="none" stroke="#63b8ff" d="M772.66,-340.95C748.67,-331.56 717.06,-318.5 690,-305 652.07,-286.08 609.99,-260.42 585.06,-244.68"/>
<polygon fill="#63b8ff" stroke="#63b8ff" points="586.7,-241.58 576.38,-239.17 582.95,-247.49 586.7,-241.58"/>
</a>
</g>
</g>
<!-- Node3 -->
<g id="Node000003" class="node">
<title>Node3</title>
<g id="a_Node000003"><a xlink:title=" ">
<polygon fill="#e0e0e0" stroke="#999999" points="1213.5,-299.5 1144.5,-299.5 1144.5,-280.5 1213.5,-280.5 1213.5,-299.5"/>
<text text-anchor="middle" x="1179" y="-287.5" font-family="Helvetica,sans-Serif" font-size="10.00">sys/epoll.h</text>
</a>
</g>
</g>
<!-- Node1&#45;&gt;Node3 -->
<g id="edge2_Node000001_Node000003" class="edge">
<title>Node1&#45;&gt;Node3</title>
<g id="a_edge2_Node000001_Node000003"><a xlink:title=" ">
<path fill="none" stroke="#63b8ff" d="M892.15,-345.95C958.26,-337.8 1053.3,-324.16 1135,-305 1138.2,-304.25 1141.5,-303.38 1144.8,-302.45"/>
<polygon fill="#63b8ff" stroke="#63b8ff" points="1145.95,-305.76 1154.52,-299.53 1143.94,-299.05 1145.95,-305.76"/>
</a>
</g>
</g>
<!-- Node4 -->
<g id="Node000004" class="node">
<title>Node4</title>
<g id="a_Node000004"><a xlink:href="Sdb_8h.html" target="_top" xlink:title=" ">
<polygon fill="white" stroke="#666666" points="677.5,-74 616.5,-74 616.5,-55 677.5,-55 677.5,-74"/>
<text text-anchor="middle" x="647" y="-62" font-family="Helvetica,sans-Serif" font-size="10.00">src/Sdb.h</text>
</a>
</g>
</g>
<!-- Node1&#45;&gt;Node4 -->
<g id="edge3_Node000001_Node000004" class="edge">
<title>Node1&#45;&gt;Node4</title>
<g id="a_edge3_Node000001_Node000004"><a xlink:title=" ">
<path fill="none" stroke="#63b8ff" d="M740.49,-340.96C651.03,-320.85 507,-280.69 507,-230.5 507,-230.5 507,-230.5 507,-173.5 507,-122.63 565.66,-92.36 607.04,-77.34"/>
<polygon fill="#63b8ff" stroke="#63b8ff" points="608.32,-80.6 616.62,-74.02 606.03,-73.99 608.32,-80.6"/>
</a>
</g>
</g>
<!-- Node22 -->
<g id="Node000022" class="node">
<title>Node22</title>
<g id="a_Node000022"><a xlink:href="Time_8h.html" target="_top" xlink:title="Lightweight Time Manipulation Utilities.">
<polygon fill="white" stroke="#666666" points="478.5,-129 363.5,-129 363.5,-110 478.5,-110 478.5,-129"/>
<text text-anchor="middle" x="421" y="-117" font-family="Helvetica,sans-Serif" font-size="10.00">src/Common/Time.h</text>
</a>
</g>
</g>
<!-- Node1&#45;&gt;Node22 -->
<g id="edge21_Node000001_Node000022" class="edge">
<title>Node1&#45;&gt;Node22</title>
<g id="a_edge21_Node000001_Node000022"><a xlink:title=" ">
<path fill="none" stroke="#63b8ff" d="M727.77,-351.2C646.13,-345.84 528.21,-333.34 493,-305 440.56,-262.8 426.22,-177.26 422.37,-139.34"/>
<polygon fill="#63b8ff" stroke="#63b8ff" points="425.84,-138.85 421.49,-129.2 418.87,-139.46 425.84,-138.85"/>
</a>
</g>
</g>
<!-- Node24 -->
<g id="Node000024" class="node">
<title>Node24</title>
<g id="a_Node000024"><a xlink:href="ModbusWithPostgres_8h.html" target="_top" xlink:title="Integration of Modbus and PostgreSQL data handling.">
<polygon fill="white" stroke="#666666" points="985.5,-305 812.5,-305 812.5,-275 985.5,-275 985.5,-305"/>
<text text-anchor="start" x="820.5" y="-293" font-family="Helvetica,sans-Serif" font-size="10.00">src/DataHandlers/ModbusWith</text>
<text text-anchor="middle" x="899" y="-282" font-family="Helvetica,sans-Serif" font-size="10.00">Postgres/ModbusWithPostgres.h</text>
</a>
</g>
</g>
<!-- Node1&#45;&gt;Node24 -->
<g id="edge25_Node000001_Node000024" class="edge">
<title>Node1&#45;&gt;Node24</title>
<g id="a_edge25_Node000001_Node000024"><a xlink:title=" ">
<path fill="none" stroke="#63b8ff" d="M829.75,-340.8C841.85,-332.1 857.53,-320.82 870.91,-311.2"/>
<polygon fill="#63b8ff" stroke="#63b8ff" points="873.23,-313.84 879.3,-305.16 869.14,-308.16 873.23,-313.84"/>
</a>
</g>
</g>
<!-- Node32 -->
<g id="Node000032" class="node">
<title>Node32</title>
<g id="a_Node000032"><a xlink:href="DatabaseInitializer_8h.html" target="_top" xlink:title="Database configuration initialization interface.">
<polygon fill="white" stroke="#666666" points="1126,-305 1004,-305 1004,-275 1126,-275 1126,-305"/>
<text text-anchor="start" x="1012" y="-293" font-family="Helvetica,sans-Serif" font-size="10.00">src/DatabaseSystems</text>
<text text-anchor="middle" x="1065" y="-282" font-family="Helvetica,sans-Serif" font-size="10.00">/DatabaseInitializer.h</text>
</a>
</g>
</g>
<!-- Node1&#45;&gt;Node32 -->
<g id="edge42_Node000001_Node000032" class="edge">
<title>Node1&#45;&gt;Node32</title>
<g id="a_edge42_Node000001_Node000032"><a xlink:title=" ">
<path fill="none" stroke="#63b8ff" d="M865.96,-340.95C905.32,-331.08 958.13,-317.82 999.46,-307.45"/>
<polygon fill="#63b8ff" stroke="#63b8ff" points="1000.32,-310.84 1009.17,-305.01 998.62,-304.05 1000.32,-310.84"/>
</a>
</g>
</g>
<!-- Node33 -->
<g id="Node000033" class="node">
<title>Node33</title>
<g id="a_Node000033"><a xlink:title=" ">
<polygon fill="#e0e0e0" stroke="#999999" points="1354,-305 1232,-305 1232,-275 1354,-275 1354,-305"/>
<text text-anchor="start" x="1240" y="-293" font-family="Helvetica,sans-Serif" font-size="10.00">src/DatabaseSystems</text>
<text text-anchor="middle" x="1293" y="-282" font-family="Helvetica,sans-Serif" font-size="10.00">/Postgres.h</text>
</a>
</g>
</g>
<!-- Node1&#45;&gt;Node33 -->
<g id="edge45_Node000001_Node000033" class="edge">
<title>Node1&#45;&gt;Node33</title>
<g id="a_edge45_Node000001_Node000033"><a xlink:title=" ">
<path fill="none" stroke="#63b8ff" d="M892.15,-346.94C973.4,-338.53 1101.48,-324.13 1221.84,-305.11"/>
<polygon fill="#63b8ff" stroke="#63b8ff" points="1222.64,-308.52 1231.97,-303.49 1221.54,-301.61 1222.64,-308.52"/>
</a>
</g>
</g>
<!-- Node34 -->
<g id="Node000034" class="node">
<title>Node34</title>
<g id="a_Node000034"><a xlink:href="Signals_8h.html" target="_top" xlink:title="Signal handling interface for the Sensor Data Handler System.">
<polygon fill="white" stroke="#666666" points="777,-299.5 699,-299.5 699,-280.5 777,-280.5 777,-299.5"/>
<text text-anchor="middle" x="738" y="-287.5" font-family="Helvetica,sans-Serif" font-size="10.00">src/Signals.h</text>
</a>
</g>
</g>
<!-- Node1&#45;&gt;Node34 -->
<g id="edge46_Node000001_Node000034" class="edge">
<title>Node1&#45;&gt;Node34</title>
<g id="a_edge46_Node000001_Node000034"><a xlink:title=" ">
<path fill="none" stroke="#63b8ff" d="M794.02,-340.8C782.69,-330.72 767.47,-317.19 755.75,-306.78"/>
<polygon fill="#63b8ff" stroke="#63b8ff" points="757.75,-303.87 747.95,-299.84 753.1,-309.1 757.75,-303.87"/>
</a>
</g>
</g>
<!-- Node5 -->
<g id="Node000005" class="node">
<title>Node5</title>
<g id="a_Node000005"><a xlink:title=" ">
<polygon fill="#e0e0e0" stroke="#999999" points="999,-19 943,-19 943,0 999,0 999,-19"/>
<text text-anchor="middle" x="971" y="-7" font-family="Helvetica,sans-Serif" font-size="10.00">assert.h</text>
</a>
</g>
</g>
<!-- Node4&#45;&gt;Node5 -->
<g id="edge4_Node000004_Node000005" class="edge">
<title>Node4&#45;&gt;Node5</title>
<g id="a_edge4_Node000004_Node000005"><a xlink:title=" ">
<path fill="none" stroke="#63b8ff" d="M677.71,-59.48C728.66,-52.65 834.08,-37.83 932.91,-19.09"/>
<polygon fill="#63b8ff" stroke="#63b8ff" points="933.6,-22.52 942.76,-17.21 932.28,-15.65 933.6,-22.52"/>
</a>
</g>
</g>
<!-- Node6 -->
<g id="Node000006" class="node">
<title>Node6</title>
<g id="a_Node000006"><a xlink:title=" ">
<polygon fill="#e0e0e0" stroke="#999999" points="1070.5,-19 1017.5,-19 1017.5,0 1070.5,0 1070.5,-19"/>
<text text-anchor="middle" x="1044" y="-7" font-family="Helvetica,sans-Serif" font-size="10.00">ctype.h</text>
</a>
</g>
</g>
<!-- Node4&#45;&gt;Node6 -->
<g id="edge5_Node000004_Node000006" class="edge">
<title>Node4&#45;&gt;Node6</title>
<g id="a_edge5_Node000004_Node000006"><a xlink:title=" ">
<path fill="none" stroke="#63b8ff" d="M677.6,-60.87C738.44,-55.38 879.1,-41.5 1007.34,-18.92"/>
<polygon fill="#63b8ff" stroke="#63b8ff" points="1008.1,-22.34 1017.33,-17.14 1006.87,-15.45 1008.1,-22.34"/>
</a>
</g>
</g>
<!-- Node7 -->
<g id="Node000007" class="node">
<title>Node7</title>
<g id="a_Node000007"><a xlink:title=" ">
<polygon fill="#e0e0e0" stroke="#999999" points="117.5,-19 66.5,-19 66.5,0 117.5,0 117.5,-19"/>
<text text-anchor="middle" x="92" y="-7" font-family="Helvetica,sans-Serif" font-size="10.00">errno.h</text>
</a>
</g>
</g>
<!-- Node4&#45;&gt;Node7 -->
<g id="edge6_Node000004_Node000007" class="edge">
<title>Node4&#45;&gt;Node7</title>
<g id="a_edge6_Node000004_Node000007"><a xlink:title=" ">
<path fill="none" stroke="#63b8ff" d="M616.25,-62.59C536.8,-59.87 318.11,-50.08 127.45,-18.99"/>
<polygon fill="#63b8ff" stroke="#63b8ff" points="127.97,-15.53 117.53,-17.35 126.82,-22.43 127.97,-15.53"/>
</a>
</g>
</g>
<!-- Node8 -->
<g id="Node000008" class="node">
<title>Node8</title>
<g id="a_Node000008"><a xlink:title=" ">
<polygon fill="#e0e0e0" stroke="#999999" points="182.5,-19 135.5,-19 135.5,0 182.5,0 182.5,-19"/>
<text text-anchor="middle" x="159" y="-7" font-family="Helvetica,sans-Serif" font-size="10.00">fcntl.h</text>
</a>
</g>
</g>
<!-- Node4&#45;&gt;Node8 -->
<g id="edge7_Node000004_Node000008" class="edge">
<title>Node4&#45;&gt;Node8</title>
<g id="a_edge7_Node000004_Node000008"><a xlink:title=" ">
<path fill="none" stroke="#63b8ff" d="M616.35,-62.23C544.09,-58.86 357.38,-48.05 192.97,-19.09"/>
<polygon fill="#63b8ff" stroke="#63b8ff" points="193.13,-15.56 182.67,-17.25 191.9,-22.45 193.13,-15.56"/>
</a>
</g>
</g>
<!-- Node9 -->
<g id="Node000009" class="node">
<title>Node9</title>
<g id="a_Node000009"><a xlink:title=" ">
<polygon fill="#e0e0e0" stroke="#999999" points="247.5,-19 200.5,-19 200.5,0 247.5,0 247.5,-19"/>
<text text-anchor="middle" x="224" y="-7" font-family="Helvetica,sans-Serif" font-size="10.00">float.h</text>
</a>
</g>
</g>
<!-- Node4&#45;&gt;Node9 -->
<g id="edge8_Node000004_Node000009" class="edge">
<title>Node4&#45;&gt;Node9</title>
<g id="a_edge8_Node000004_Node000009"><a xlink:title=" ">
<path fill="none" stroke="#63b8ff" d="M616.35,-61.54C551.68,-57.09 396.43,-44.68 257.64,-19.07"/>
<polygon fill="#63b8ff" stroke="#63b8ff" points="258.15,-15.6 247.68,-17.2 256.86,-22.48 258.15,-15.6"/>
</a>
</g>
</g>
<!-- Node10 -->
<g id="Node000010" class="node">
<title>Node10</title>
<g id="a_Node000010"><a xlink:title=" ">
<polygon fill="#e0e0e0" stroke="#999999" points="316.5,-19 265.5,-19 265.5,0 316.5,0 316.5,-19"/>
<text text-anchor="middle" x="291" y="-7" font-family="Helvetica,sans-Serif" font-size="10.00">math.h</text>
</a>
</g>
</g>
<!-- Node4&#45;&gt;Node10 -->
<g id="edge9_Node000004_Node000010" class="edge">
<title>Node4&#45;&gt;Node10</title>
<g id="a_edge9_Node000004_Node000010"><a xlink:title=" ">
<path fill="none" stroke="#63b8ff" d="M616.29,-60.28C560.64,-54.23 439.23,-40 326.71,-18.94"/>
<polygon fill="#63b8ff" stroke="#63b8ff" points="327.03,-15.44 316.55,-17.02 325.72,-22.32 327.03,-15.44"/>
</a>
</g>
</g>
<!-- Node11 -->
<g id="Node000011" class="node">
<title>Node11</title>
<g id="a_Node000011"><a xlink:title=" ">
<polygon fill="#e0e0e0" stroke="#999999" points="1232.5,-19 1169.5,-19 1169.5,0 1232.5,0 1232.5,-19"/>
<text text-anchor="middle" x="1201" y="-7" font-family="Helvetica,sans-Serif" font-size="10.00">pthread.h</text>
</a>
</g>
</g>
<!-- Node4&#45;&gt;Node11 -->
<g id="edge10_Node000004_Node000011" class="edge">
<title>Node4&#45;&gt;Node11</title>
<g id="a_edge10_Node000004_Node000011"><a xlink:title=" ">
<path fill="none" stroke="#63b8ff" d="M677.5,-62.11C755.78,-58.28 970.29,-46.1 1159.17,-18.93"/>
<polygon fill="#63b8ff" stroke="#63b8ff" points="1159.89,-22.37 1169.28,-17.46 1158.88,-15.44 1159.89,-22.37"/>
</a>
</g>
</g>
<!-- Node12 -->
<g id="Node000012" class="node">
<title>Node12</title>
<g id="a_Node000012"><a xlink:title=" ">
<polygon fill="#e0e0e0" stroke="#999999" points="391,-19 335,-19 335,0 391,0 391,-19"/>
<text text-anchor="middle" x="363" y="-7" font-family="Helvetica,sans-Serif" font-size="10.00">stdarg.h</text>
</a>
</g>
</g>
<!-- Node4&#45;&gt;Node12 -->
<g id="edge11_Node000004_Node000012" class="edge">
<title>Node4&#45;&gt;Node12</title>
<g id="a_edge11_Node000004_Node000012"><a xlink:title=" ">
<path fill="none" stroke="#63b8ff" d="M616.49,-58.48C571.54,-50.99 484.64,-36.1 401.15,-19.16"/>
<polygon fill="#63b8ff" stroke="#63b8ff" points="401.75,-15.71 391.25,-17.14 400.35,-22.57 401.75,-15.71"/>
</a>
</g>
</g>
<!-- Node13 -->
<g id="Node000013" class="node">
<title>Node13</title>
<g id="a_Node000013"><a xlink:title=" ">
<polygon fill="#e0e0e0" stroke="#999999" points="462.5,-19 409.5,-19 409.5,0 462.5,0 462.5,-19"/>
<text text-anchor="middle" x="436" y="-7" font-family="Helvetica,sans-Serif" font-size="10.00">stdint.h</text>
</a>
</g>
</g>
<!-- Node4&#45;&gt;Node13 -->
<g id="edge12_Node000004_Node000013" class="edge">
<title>Node4&#45;&gt;Node13</title>
<g id="a_edge12_Node000004_Node000013"><a xlink:title=" ">
<path fill="none" stroke="#63b8ff" d="M616.32,-55.79C578.18,-46.21 513.15,-29.88 472.49,-19.67"/>
<polygon fill="#63b8ff" stroke="#63b8ff" points="473.26,-16.25 462.71,-17.21 471.55,-23.04 473.26,-16.25"/>
</a>
</g>
</g>
<!-- Node14 -->
<g id="Node000014" class="node">
<title>Node14</title>
<g id="a_Node000014"><a xlink:title=" ">
<polygon fill="#e0e0e0" stroke="#999999" points="531,-19 481,-19 481,0 531,0 531,-19"/>
<text text-anchor="middle" x="506" y="-7" font-family="Helvetica,sans-Serif" font-size="10.00">stdio.h</text>
</a>
</g>
</g>
<!-- Node4&#45;&gt;Node14 -->
<g id="edge13_Node000004_Node000014" class="edge">
<title>Node4&#45;&gt;Node14</title>
<g id="a_edge13_Node000004_Node000014"><a xlink:title=" ">
<path fill="none" stroke="#63b8ff" d="M624.35,-54.98C601.15,-46.27 564.88,-32.63 538.6,-22.75"/>
<polygon fill="#63b8ff" stroke="#63b8ff" points="539.66,-19.41 529.07,-19.17 537.2,-25.97 539.66,-19.41"/>
</a>
</g>
</g>
<!-- Node15 -->
<g id="Node000015" class="node">
<title>Node15</title>
<g id="a_Node000015"><a xlink:title=" ">
<polygon fill="#e0e0e0" stroke="#999999" points="602.5,-19 549.5,-19 549.5,0 602.5,0 602.5,-19"/>
<text text-anchor="middle" x="576" y="-7" font-family="Helvetica,sans-Serif" font-size="10.00">stdlib.h</text>
</a>
</g>
</g>
<!-- Node4&#45;&gt;Node15 -->
<g id="edge14_Node000004_Node000015" class="edge">
<title>Node4&#45;&gt;Node15</title>
<g id="a_edge14_Node000004_Node000015"><a xlink:title=" ">
<path fill="none" stroke="#63b8ff" d="M635.59,-54.98C624.89,-47 608.66,-34.88 595.84,-25.31"/>
<polygon fill="#63b8ff" stroke="#63b8ff" points="597.72,-22.35 587.61,-19.17 593.53,-27.96 597.72,-22.35"/>
</a>
</g>
</g>
<!-- Node16 -->
<g id="Node000016" class="node">
<title>Node16</title>
<g id="a_Node000016"><a xlink:title=" ">
<polygon fill="#e0e0e0" stroke="#999999" points="673.5,-19 620.5,-19 620.5,0 673.5,0 673.5,-19"/>
<text text-anchor="middle" x="647" y="-7" font-family="Helvetica,sans-Serif" font-size="10.00">string.h</text>
</a>
</g>
</g>
<!-- Node4&#45;&gt;Node16 -->
<g id="edge15_Node000004_Node000016" class="edge">
<title>Node4&#45;&gt;Node16</title>
<g id="a_edge15_Node000004_Node000016"><a xlink:title=" ">
<path fill="none" stroke="#63b8ff" d="M647,-54.75C647,-47.8 647,-37.85 647,-29.13"/>
<polygon fill="#63b8ff" stroke="#63b8ff" points="650.5,-29.09 647,-19.09 643.5,-29.09 650.5,-29.09"/>
</a>
</g>
</g>
<!-- Node17 -->
<g id="Node000017" class="node">
<title>Node17</title>
<g id="a_Node000017"><a xlink:title=" ">
<polygon fill="#e0e0e0" stroke="#999999" points="768.5,-19 691.5,-19 691.5,0 768.5,0 768.5,-19"/>
<text text-anchor="middle" x="730" y="-7" font-family="Helvetica,sans-Serif" font-size="10.00">sys/mman.h</text>
</a>
</g>
</g>
<!-- Node4&#45;&gt;Node17 -->
<g id="edge16_Node000004_Node000017" class="edge">
<title>Node4&#45;&gt;Node17</title>
<g id="a_edge16_Node000004_Node000017"><a xlink:title=" ">
<path fill="none" stroke="#63b8ff" d="M660.34,-54.98C673.09,-46.84 692.55,-34.41 707.67,-24.76"/>
<polygon fill="#63b8ff" stroke="#63b8ff" points="709.88,-27.5 716.42,-19.17 706.11,-21.6 709.88,-27.5"/>
</a>
</g>
</g>
<!-- Node18 -->
<g id="Node000018" class="node">
<title>Node18</title>
<g id="a_Node000018"><a xlink:title=" ">
<polygon fill="#e0e0e0" stroke="#999999" points="851,-19 787,-19 787,0 851,0 851,-19"/>
<text text-anchor="middle" x="819" y="-7" font-family="Helvetica,sans-Serif" font-size="10.00">sys/stat.h</text>
</a>
</g>
</g>
<!-- Node4&#45;&gt;Node18 -->
<g id="edge17_Node000004_Node000018" class="edge">
<title>Node4&#45;&gt;Node18</title>
<g id="a_edge17_Node000004_Node000018"><a xlink:title=" ">
<path fill="none" stroke="#63b8ff" d="M674.63,-54.98C703.51,-46.09 749.01,-32.07 781.2,-22.15"/>
<polygon fill="#63b8ff" stroke="#63b8ff" points="782.62,-25.37 791.15,-19.08 780.56,-18.68 782.62,-25.37"/>
</a>
</g>
</g>
<!-- Node19 -->
<g id="Node000019" class="node">
<title>Node19</title>
<g id="a_Node000019"><a xlink:title=" ">
<polygon fill="#e0e0e0" stroke="#999999" points="48,-19 0,-19 0,0 48,0 48,-19"/>
<text text-anchor="middle" x="24" y="-7" font-family="Helvetica,sans-Serif" font-size="10.00">time.h</text>
</a>
</g>
</g>
<!-- Node4&#45;&gt;Node19 -->
<g id="edge18_Node000004_Node000019" class="edge">
<title>Node4&#45;&gt;Node19</title>
<g id="a_edge18_Node000004_Node000019"><a xlink:title=" ">
<path fill="none" stroke="#63b8ff" d="M616.31,-61.9C514.11,-56.48 185.13,-38.12 58.26,-18.85"/>
<polygon fill="#63b8ff" stroke="#63b8ff" points="58.47,-15.34 48.05,-17.22 57.37,-22.25 58.47,-15.34"/>
</a>
</g>
</g>
<!-- Node20 -->
<g id="Node000020" class="node">
<title>Node20</title>
<g id="a_Node000020"><a xlink:title=" ">
<polygon fill="#e0e0e0" stroke="#999999" points="925,-19 869,-19 869,0 925,0 925,-19"/>
<text text-anchor="middle" x="897" y="-7" font-family="Helvetica,sans-Serif" font-size="10.00">unistd.h</text>
</a>
</g>
</g>
<!-- Node4&#45;&gt;Node20 -->
<g id="edge19_Node000004_Node000020" class="edge">
<title>Node4&#45;&gt;Node20</title>
<g id="a_edge19_Node000004_Node000020"><a xlink:title=" ">
<path fill="none" stroke="#63b8ff" d="M677.73,-57.28C717.31,-49.22 788.47,-34.59 858.81,-19.23"/>
<polygon fill="#63b8ff" stroke="#63b8ff" points="859.71,-22.61 868.73,-17.05 858.21,-15.78 859.71,-22.61"/>
</a>
</g>
</g>
<!-- Node21 -->
<g id="Node000021" class="node">
<title>Node21</title>
<g id="a_Node000021"><a xlink:title=" ">
<polygon fill="#e0e0e0" stroke="#999999" points="1151,-19 1089,-19 1089,0 1151,0 1151,-19"/>
<text text-anchor="middle" x="1120" y="-7" font-family="Helvetica,sans-Serif" font-size="10.00">stdbool.h</text>
</a>
</g>
</g>
<!-- Node4&#45;&gt;Node21 -->
<g id="edge20_Node000004_Node000021" class="edge">
<title>Node4&#45;&gt;Node21</title>
<g id="a_edge20_Node000004_Node000021"><a xlink:title=" ">
<path fill="none" stroke="#63b8ff" d="M677.59,-61.49C747.07,-56.67 922.21,-43.18 1078.36,-19.1"/>
<polygon fill="#63b8ff" stroke="#63b8ff" points="1079.28,-22.5 1088.62,-17.5 1078.2,-15.59 1079.28,-22.5"/>
</a>
</g>
</g>
<!-- Node22&#45;&gt;Node4 -->
<g id="edge24_Node000022_Node000004" class="edge">
<title>Node22&#45;&gt;Node4</title>
<g id="a_edge24_Node000022_Node000004"><a xlink:title=" ">
<path fill="none" stroke="#63b8ff" d="M457.31,-109.98C498,-100.44 563.81,-85.01 606.24,-75.06"/>
<polygon fill="#63b8ff" stroke="#63b8ff" points="607.29,-78.41 616.22,-72.72 605.69,-71.59 607.29,-78.41"/>
</a>
</g>
</g>
<!-- Node22&#45;&gt;Node19 -->
<g id="edge23_Node000022_Node000019" class="edge">
<title>Node22&#45;&gt;Node19</title>
<g id="a_edge23_Node000022_Node000019"><a xlink:title=" ">
<path fill="none" stroke="#63b8ff" d="M389.52,-109.94C316.13,-89.97 134.17,-40.47 58.19,-19.8"/>
<polygon fill="#63b8ff" stroke="#63b8ff" points="58.76,-16.33 48.19,-17.08 56.92,-23.08 58.76,-16.33"/>
</a>
</g>
</g>
<!-- Node23 -->
<g id="Node000023" class="node">
<title>Node23</title>
<g id="a_Node000023"><a xlink:title=" ">
<polygon fill="#e0e0e0" stroke="#999999" points="447.5,-74 394.5,-74 394.5,-55 447.5,-55 447.5,-74"/>
<text text-anchor="middle" x="421" y="-62" font-family="Helvetica,sans-Serif" font-size="10.00">limits.h</text>
</a>
</g>
</g>
<!-- Node22&#45;&gt;Node23 -->
<g id="edge22_Node000022_Node000023" class="edge">
<title>Node22&#45;&gt;Node23</title>
<g id="a_edge22_Node000022_Node000023"><a xlink:title=" ">
<path fill="none" stroke="#63b8ff" d="M421,-109.75C421,-102.8 421,-92.85 421,-84.13"/>
<polygon fill="#63b8ff" stroke="#63b8ff" points="424.5,-84.09 421,-74.09 417.5,-84.09 424.5,-84.09"/>
</a>
</g>
</g>
<!-- Node24&#45;&gt;Node4 -->
<g id="edge26_Node000024_Node000004" class="edge">
<title>Node24&#45;&gt;Node4</title>
<g id="a_edge26_Node000024_Node000004"><a xlink:title=" ">
<path fill="none" stroke="#63b8ff" d="M948.23,-274.92C976.93,-263.74 1005.43,-245.7 994,-220 964.33,-153.29 937.27,-142.71 872,-110 812.43,-80.15 734.59,-70.31 687.83,-67.07"/>
<polygon fill="#63b8ff" stroke="#63b8ff" points="687.97,-63.58 677.77,-66.45 687.54,-70.56 687.97,-63.58"/>
</a>
</g>
</g>
<!-- Node25 -->
<g id="Node000025" class="node">
<title>Node25</title>
<g id="a_Node000025"><a xlink:href="SensorDataPipe_8h.html" target="_top" xlink:title="Lock&#45;Free Data Pipeline.">
<polygon fill="white" stroke="#666666" points="813.5,-239 646.5,-239 646.5,-220 813.5,-220 813.5,-239"/>
<text text-anchor="middle" x="730" y="-227" font-family="Helvetica,sans-Serif" font-size="10.00">src/Common/SensorDataPipe.h</text>
</a>
</g>
</g>
<!-- Node24&#45;&gt;Node25 -->
<g id="edge27_Node000024_Node000025" class="edge">
<title>Node24&#45;&gt;Node25</title>
<g id="a_edge27_Node000024_Node000025"><a xlink:title=" ">
<path fill="none" stroke="#63b8ff" d="M858.52,-274.99C829.82,-265.05 791.72,-251.86 764.47,-242.43"/>
<polygon fill="#63b8ff" stroke="#63b8ff" points="765.55,-239.1 754.96,-239.14 763.26,-245.72 765.55,-239.1"/>
</a>
</g>
</g>
<!-- Node29 -->
<g id="Node000029" class="node">
<title>Node29</title>
<g id="a_Node000029"><a xlink:href="ThreadGroup_8h.html" target="_top" xlink:title="Thread Group Management System.">
<polygon fill="white" stroke="#666666" points="984.5,-239 831.5,-239 831.5,-220 984.5,-220 984.5,-239"/>
<text text-anchor="middle" x="908" y="-227" font-family="Helvetica,sans-Serif" font-size="10.00">src/Common/ThreadGroup.h</text>
</a>
</g>
</g>
<!-- Node24&#45;&gt;Node29 -->
<g id="edge35_Node000024_Node000029" class="edge">
<title>Node24&#45;&gt;Node29</title>
<g id="a_edge35_Node000024_Node000029"><a xlink:title=" ">
<path fill="none" stroke="#63b8ff" d="M901.18,-274.84C902.37,-267.13 903.85,-257.49 905.13,-249.17"/>
<polygon fill="#63b8ff" stroke="#63b8ff" points="908.59,-249.68 906.65,-239.27 901.67,-248.62 908.59,-249.68"/>
</a>
</g>
</g>
<!-- Node30 -->
<g id="Node000030" class="node">
<title>Node30</title>
<g id="a_Node000030"><a xlink:href="cJSON_8h.html" target="_top" xlink:title=" ">
<polygon fill="white" stroke="#666666" points="1168.5,-239 1041.5,-239 1041.5,-220 1168.5,-220 1168.5,-239"/>
<text text-anchor="middle" x="1105" y="-227" font-family="Helvetica,sans-Serif" font-size="10.00">src/Libs/cJSON/cJSON.h</text>
</a>
</g>
</g>
<!-- Node24&#45;&gt;Node30 -->
<g id="edge40_Node000024_Node000030" class="edge">
<title>Node24&#45;&gt;Node30</title>
<g id="a_edge40_Node000024_Node000030"><a xlink:title=" ">
<path fill="none" stroke="#63b8ff" d="M948.34,-274.99C984.05,-264.85 1031.69,-251.32 1065.02,-241.85"/>
<polygon fill="#63b8ff" stroke="#63b8ff" points="1066.22,-245.15 1074.88,-239.05 1064.3,-238.42 1066.22,-245.15"/>
</a>
</g>
</g>
<!-- Node25&#45;&gt;Node4 -->
<g id="edge29_Node000025_Node000004" class="edge">
<title>Node25&#45;&gt;Node4</title>
<g id="a_edge29_Node000025_Node000004"><a xlink:title=" ">
<path fill="none" stroke="#63b8ff" d="M714.88,-219.87C702.57,-212.06 685.69,-199.43 676,-184 656.36,-152.72 650.02,-109.07 647.97,-84.42"/>
<polygon fill="#63b8ff" stroke="#63b8ff" points="651.45,-84 647.29,-74.26 644.47,-84.47 651.45,-84"/>
</a>
</g>
</g>
<!-- Node26 -->
<g id="Node000026" class="node">
<title>Node26</title>
<g id="a_Node000026"><a xlink:title=" ">
<polygon fill="#e0e0e0" stroke="#999999" points="759,-184 685,-184 685,-165 759,-165 759,-184"/>
<text text-anchor="middle" x="722" y="-172" font-family="Helvetica,sans-Serif" font-size="10.00">stdatomic.h</text>
</a>
</g>
</g>
<!-- Node25&#45;&gt;Node26 -->
<g id="edge28_Node000025_Node000026" class="edge">
<title>Node25&#45;&gt;Node26</title>
<g id="a_edge28_Node000025_Node000026"><a xlink:title=" ">
<path fill="none" stroke="#63b8ff" d="M728.68,-219.75C727.63,-212.8 726.13,-202.85 724.81,-194.13"/>
<polygon fill="#63b8ff" stroke="#63b8ff" points="728.25,-193.45 723.3,-184.09 721.33,-194.5 728.25,-193.45"/>
</a>
</g>
</g>
<!-- Node27 -->
<g id="Node000027" class="node">
<title>Node27</title>
<g id="a_Node000027"><a xlink:href="Thread_8h.html" target="_top" xlink:title="Lightweight Synchronization Primitives Wrapper.">
<polygon fill="white" stroke="#666666" points="901,-184 777,-184 777,-165 901,-165 901,-184"/>
<text text-anchor="middle" x="839" y="-172" font-family="Helvetica,sans-Serif" font-size="10.00">src/Common/Thread.h</text>
</a>
</g>
</g>
<!-- Node25&#45;&gt;Node27 -->
<g id="edge30_Node000025_Node000027" class="edge">
<title>Node25&#45;&gt;Node27</title>
<g id="a_edge30_Node000025_Node000027"><a xlink:title=" ">
<path fill="none" stroke="#63b8ff" d="M747.51,-219.98C764.97,-211.5 792.01,-198.35 812.17,-188.54"/>
<polygon fill="#63b8ff" stroke="#63b8ff" points="813.71,-191.69 821.17,-184.17 810.64,-185.4 813.71,-191.69"/>
</a>
</g>
</g>
<!-- Node27&#45;&gt;Node4 -->
<g id="edge33_Node000027_Node000004" class="edge">
<title>Node27&#45;&gt;Node4</title>
<g id="a_edge33_Node000027_Node000004"><a xlink:title=" ">
<path fill="none" stroke="#63b8ff" d="M838.96,-164.74C838.4,-151.06 835.26,-124.68 820,-110 784.65,-76.01 726.96,-67.03 688.02,-65.13"/>
<polygon fill="#63b8ff" stroke="#63b8ff" points="687.68,-61.62 677.57,-64.77 687.44,-68.62 687.68,-61.62"/>
</a>
</g>
</g>
<!-- Node27&#45;&gt;Node11 -->
<g id="edge31_Node000027_Node000011" class="edge">
<title>Node27&#45;&gt;Node11</title>
<g id="a_edge31_Node000027_Node000011"><a xlink:title=" ">
<path fill="none" stroke="#63b8ff" d="M857.95,-164.97C917.56,-138.13 1101.45,-55.32 1172.54,-23.31"/>
<polygon fill="#63b8ff" stroke="#63b8ff" points="1174.12,-26.44 1181.8,-19.15 1171.24,-20.06 1174.12,-26.44"/>
</a>
</g>
</g>
<!-- Node27&#45;&gt;Node22 -->
<g id="edge34_Node000027_Node000022" class="edge">
<title>Node27&#45;&gt;Node22</title>
<g id="a_edge34_Node000027_Node000022"><a xlink:title=" ">
<path fill="none" stroke="#63b8ff" d="M776.87,-165.62C699.67,-155.83 568.39,-139.19 488.69,-129.08"/>
<polygon fill="#63b8ff" stroke="#63b8ff" points="489.11,-125.61 478.75,-127.82 488.23,-132.55 489.11,-125.61"/>
</a>
</g>
</g>
<!-- Node28 -->
<g id="Node000028" class="node">
<title>Node28</title>
<g id="a_Node000028"><a xlink:title=" ">
<polygon fill="#e0e0e0" stroke="#999999" points="811,-129 731,-129 731,-110 811,-110 811,-129"/>
<text text-anchor="middle" x="771" y="-117" font-family="Helvetica,sans-Serif" font-size="10.00">semaphore.h</text>
</a>
</g>
</g>
<!-- Node27&#45;&gt;Node28 -->
<g id="edge32_Node000027_Node000028" class="edge">
<title>Node27&#45;&gt;Node28</title>
<g id="a_edge32_Node000027_Node000028"><a xlink:title=" ">
<path fill="none" stroke="#63b8ff" d="M828.07,-164.98C817.92,-157.07 802.58,-145.11 790.35,-135.58"/>
<polygon fill="#63b8ff" stroke="#63b8ff" points="792.16,-132.56 782.12,-129.17 787.86,-138.08 792.16,-132.56"/>
</a>
</g>
</g>
<!-- Node29&#45;&gt;Node4 -->
<g id="edge38_Node000029_Node000004" class="edge">
<title>Node29&#45;&gt;Node4</title>
<g id="a_edge38_Node000029_Node000004"><a xlink:title=" ">
<path fill="none" stroke="#63b8ff" d="M910.74,-219.75C914.2,-206.98 918.74,-182.83 910,-165 892.43,-129.16 875.06,-127.13 839,-110 789.81,-86.64 727.58,-75.12 687.53,-69.76"/>
<polygon fill="#63b8ff" stroke="#63b8ff" points="687.96,-66.28 677.6,-68.49 687.08,-73.23 687.96,-66.28"/>
</a>
</g>
</g>
<!-- Node29&#45;&gt;Node11 -->
<g id="edge36_Node000029_Node000011" class="edge">
<title>Node29&#45;&gt;Node11</title>
<g id="a_edge36_Node000029_Node000011"><a xlink:title=" ">
<path fill="none" stroke="#63b8ff" d="M921.53,-219.9C935.2,-211.13 956.82,-196.99 975,-184 1053.61,-127.82 1143.84,-56.36 1182.19,-25.64"/>
<polygon fill="#63b8ff" stroke="#63b8ff" points="1184.77,-28.06 1190.38,-19.07 1180.39,-22.6 1184.77,-28.06"/>
</a>
</g>
</g>
<!-- Node29&#45;&gt;Node21 -->
<g id="edge37_Node000029_Node000021" class="edge">
<title>Node29&#45;&gt;Node21</title>
<g id="a_edge37_Node000029_Node000021"><a xlink:title=" ">
<path fill="none" stroke="#63b8ff" d="M916.31,-219.95C948.1,-187.27 1062.3,-69.83 1104.33,-26.61"/>
<polygon fill="#63b8ff" stroke="#63b8ff" points="1107.05,-28.83 1111.52,-19.22 1102.04,-23.95 1107.05,-28.83"/>
</a>
</g>
</g>
<!-- Node29&#45;&gt;Node27 -->
<g id="edge39_Node000029_Node000027" class="edge">
<title>Node29&#45;&gt;Node27</title>
<g id="a_edge39_Node000029_Node000027"><a xlink:title=" ">
<path fill="none" stroke="#63b8ff" d="M896.91,-219.98C886.51,-212 870.74,-199.88 858.28,-190.31"/>
<polygon fill="#63b8ff" stroke="#63b8ff" points="860.35,-187.49 850.29,-184.17 856.09,-193.04 860.35,-187.49"/>
</a>
</g>
</g>
<!-- Node31 -->
<g id="Node000031" class="node">
<title>Node31</title>
<g id="a_Node000031"><a xlink:title=" ">
<polygon fill="#e0e0e0" stroke="#999999" points="1133,-184 1077,-184 1077,-165 1133,-165 1133,-184"/>
<text text-anchor="middle" x="1105" y="-172" font-family="Helvetica,sans-Serif" font-size="10.00">stddef.h</text>
</a>
</g>
</g>
<!-- Node30&#45;&gt;Node31 -->
<g id="edge41_Node000030_Node000031" class="edge">
<title>Node30&#45;&gt;Node31</title>
<g id="a_edge41_Node000030_Node000031"><a xlink:title=" ">
<path fill="none" stroke="#63b8ff" d="M1105,-219.75C1105,-212.8 1105,-202.85 1105,-194.13"/>
<polygon fill="#63b8ff" stroke="#63b8ff" points="1108.5,-194.09 1105,-184.09 1101.5,-194.09 1108.5,-194.09"/>
</a>
</g>
</g>
<!-- Node32&#45;&gt;Node4 -->
<g id="edge43_Node000032_Node000004" class="edge">
<title>Node32&#45;&gt;Node4</title>
<g id="a_edge43_Node000032_Node000004"><a xlink:title=" ">
<path fill="none" stroke="#63b8ff" d="M1126.11,-276.18C1146.1,-268.77 1166.18,-257.16 1178,-239 1196.77,-210.17 1154.31,-173.59 1142,-165 1067.98,-113.36 792.75,-80.41 687.91,-69.5"/>
<polygon fill="#63b8ff" stroke="#63b8ff" points="688.03,-66 677.73,-68.46 687.32,-72.96 688.03,-66"/>
</a>
</g>
</g>
<!-- Node32&#45;&gt;Node30 -->
<g id="edge44_Node000032_Node000030" class="edge">
<title>Node32&#45;&gt;Node30</title>
<g id="a_edge44_Node000032_Node000030"><a xlink:title=" ">
<path fill="none" stroke="#63b8ff" d="M1074.68,-274.84C1080.25,-266.69 1087.29,-256.4 1093.18,-247.78"/>
<polygon fill="#63b8ff" stroke="#63b8ff" points="1096.25,-249.5 1099.01,-239.27 1090.47,-245.55 1096.25,-249.5"/>
</a>
</g>
</g>
<!-- Node34&#45;&gt;Node2 -->
<g id="edge47_Node000034_Node000002" class="edge">
<title>Node34&#45;&gt;Node2</title>
<g id="a_edge47_Node000034_Node000002"><a xlink:title=" ">
<path fill="none" stroke="#63b8ff" d="M712.55,-280.49C682.36,-270.4 631.84,-253.51 597.98,-242.19"/>
<polygon fill="#63b8ff" stroke="#63b8ff" points="599.07,-238.87 588.48,-239.02 596.85,-245.51 599.07,-238.87"/>
</a>
</g>
</g>
<!-- Node34&#45;&gt;Node4 -->
<g id="edge48_Node000034_Node000004" class="edge">
<title>Node34&#45;&gt;Node4</title>
<g id="a_edge48_Node000034_Node000004"><a xlink:title=" ">
<path fill="none" stroke="#63b8ff" d="M699.57,-280.43C677.44,-273.31 651.42,-260.71 638,-239 607.67,-189.92 627.69,-117.31 639.75,-83.74"/>
<polygon fill="#63b8ff" stroke="#63b8ff" points="643.06,-84.89 643.31,-74.29 636.51,-82.42 643.06,-84.89"/>
</a>
</g>
</g>
<!-- Node34&#45;&gt;Node25 -->
<g id="edge49_Node000034_Node000025" class="edge">
<title>Node34&#45;&gt;Node25</title>
<g id="a_edge49_Node000034_Node000025"><a xlink:title=" ">
<path fill="none" stroke="#63b8ff" d="M736.82,-280.37C735.71,-272.25 734.01,-259.81 732.58,-249.39"/>
<polygon fill="#63b8ff" stroke="#63b8ff" points="736.01,-248.6 731.19,-239.17 729.07,-249.55 736.01,-248.6"/>
</a>
</g>
</g>
<!-- Node34&#45;&gt;Node29 -->
<g id="edge50_Node000034_Node000029" class="edge">
<title>Node34&#45;&gt;Node29</title>
<g id="a_edge50_Node000034_Node000029"><a xlink:title=" ">
<path fill="none" stroke="#63b8ff" d="M762.72,-280.49C791.93,-270.44 840.7,-253.66 873.59,-242.34"/>
<polygon fill="#63b8ff" stroke="#63b8ff" points="874.93,-245.58 883.25,-239.02 872.66,-238.96 874.93,-245.58"/>
</a>
</g>
</g>
<!-- Node34&#45;&gt;Node30 -->
<g id="edge51_Node000034_Node000030" class="edge">
<title>Node34&#45;&gt;Node30</title>
<g id="a_edge51_Node000034_Node000030"><a xlink:title=" ">
<path fill="none" stroke="#63b8ff" d="M776.31,-280.45C785.37,-278.55 795.01,-276.62 804,-275 881.32,-261.1 970.39,-248.33 1031.46,-240.07"/>
<polygon fill="#63b8ff" stroke="#63b8ff" points="1031.95,-243.54 1041.39,-238.73 1031.02,-236.6 1031.95,-243.54"/>
</a>
</g>
</g>
</g>
</svg>
