<?xml version="1.0" encoding="UTF-8" standalone="no"?>
<!DOCTYPE svg PUBLIC "-//W3C//DTD SVG 1.1//EN"
 "http://www.w3.org/Graphics/SVG/1.1/DTD/svg11.dtd">
<!-- Generated by graphviz version 2.43.0 (0)
 -->
<!-- Title: src/DatabaseSystems/Postgres.c Pages: 1 -->
<svg width="1359pt" height="341pt"
 viewBox="0.00 0.00 1359.00 341.00" xmlns="http://www.w3.org/2000/svg" xmlns:xlink="http://www.w3.org/1999/xlink">
<g id="graph0" class="graph" transform="scale(1 1) rotate(0) translate(4 337)">
<title>src/DatabaseSystems/Postgres.c</title>
<polygon fill="white" stroke="transparent" points="-4,4 -4,-337 1355,-337 1355,4 -4,4"/>
<!-- Node1 -->
<g id="node1" class="node">
<title>Node1</title>
<g id="a_node1"><a xlink:title="Implementation of PostgreSQL database operations.">
<polygon fill="#bfbfbf" stroke="black" points="382.5,-302.5 382.5,-332.5 504.5,-332.5 504.5,-302.5 382.5,-302.5"/>
<text text-anchor="start" x="390.5" y="-320.5" font-family="Helvetica,sans-Serif" font-size="10.00">src/DatabaseSystems</text>
<text text-anchor="middle" x="443.5" y="-309.5" font-family="Helvetica,sans-Serif" font-size="10.00">/Postgres.c</text>
</a>
</g>
</g>
<!-- Node2 -->
<g id="node2" class="node">
<title>Node2</title>
<g id="a_node2"><a xlink:title=" ">
<polygon fill="white" stroke="#bfbfbf" points="0,-241 0,-260 69,-260 69,-241 0,-241"/>
<text text-anchor="middle" x="34.5" y="-248" font-family="Helvetica,sans-Serif" font-size="10.00">arpa/inet.h</text>
</a>
</g>
</g>
<!-- Node1&#45;&gt;Node2 -->
<g id="edge1" class="edge">
<title>Node1&#45;&gt;Node2</title>
<path fill="none" stroke="midnightblue" d="M382.3,-311.6C309.1,-304.93 183.18,-290.87 77.5,-266 74.1,-265.2 70.59,-264.24 67.1,-263.2"/>
<polygon fill="midnightblue" stroke="midnightblue" points="68.07,-259.84 57.48,-260.14 65.94,-266.51 68.07,-259.84"/>
</g>
<!-- Node3 -->
<g id="node3" class="node">
<title>Node3</title>
<g id="a_node3"><a xlink:title=" ">
<polygon fill="white" stroke="#bfbfbf" points="87,-241 87,-260 150,-260 150,-241 87,-241"/>
<text text-anchor="middle" x="118.5" y="-248" font-family="Helvetica,sans-Serif" font-size="10.00">libpq&#45;fe.h</text>
</a>
</g>
</g>
<!-- Node1&#45;&gt;Node3 -->
<g id="edge2" class="edge">
<title>Node1&#45;&gt;Node3</title>
<path fill="none" stroke="midnightblue" d="M382.35,-307.71C325.51,-299 238.69,-284.33 164.5,-266 160.87,-265.1 157.11,-264.08 153.37,-263"/>
<polygon fill="midnightblue" stroke="midnightblue" points="154.23,-259.6 143.64,-260.06 152.2,-266.3 154.23,-259.6"/>
</g>
<!-- Node4 -->
<g id="node4" class="node">
<title>Node4</title>
<g id="a_node4"><a xlink:title=" ">
<polygon fill="white" stroke="#bfbfbf" points="119,-0.5 119,-19.5 172,-19.5 172,-0.5 119,-0.5"/>
<text text-anchor="middle" x="145.5" y="-7.5" font-family="Helvetica,sans-Serif" font-size="10.00">stdlib.h</text>
</a>
</g>
</g>
<!-- Node1&#45;&gt;Node4 -->
<g id="edge3" class="edge">
<title>Node1&#45;&gt;Node4</title>
<path fill="none" stroke="midnightblue" d="M382.47,-309.46C323.3,-301.53 238.87,-286.96 213.5,-266 183.11,-240.89 178.5,-223.92 178.5,-184.5 178.5,-184.5 178.5,-184.5 178.5,-121 178.5,-87.25 164.07,-50.03 154.29,-28.69"/>
<polygon fill="midnightblue" stroke="midnightblue" points="157.41,-27.1 149.95,-19.58 151.09,-30.11 157.41,-27.1"/>
</g>
<!-- Node5 -->
<g id="node5" class="node">
<title>Node5</title>
<g id="a_node5"><a xlink:title=" ">
<polygon fill="white" stroke="#bfbfbf" points="190,-0.5 190,-19.5 243,-19.5 243,-0.5 190,-0.5"/>
<text text-anchor="middle" x="216.5" y="-7.5" font-family="Helvetica,sans-Serif" font-size="10.00">string.h</text>
</a>
</g>
</g>
<!-- Node1&#45;&gt;Node5 -->
<g id="edge4" class="edge">
<title>Node1&#45;&gt;Node5</title>
<path fill="none" stroke="midnightblue" d="M382.42,-308.83C328.68,-300.84 255.9,-286.59 235.5,-266 209.32,-239.58 216.5,-221.69 216.5,-184.5 216.5,-184.5 216.5,-184.5 216.5,-121 216.5,-88.95 216.5,-51.64 216.5,-29.75"/>
<polygon fill="midnightblue" stroke="midnightblue" points="220,-29.56 216.5,-19.56 213,-29.56 220,-29.56"/>
</g>
<!-- Node6 -->
<g id="node6" class="node">
<title>Node6</title>
<g id="a_node6"><a xlink:title=" ">
<polygon fill="white" stroke="#bfbfbf" points="245,-241 245,-260 314,-260 314,-241 245,-241"/>
<text text-anchor="middle" x="279.5" y="-248" font-family="Helvetica,sans-Serif" font-size="10.00">sys/epoll.h</text>
</a>
</g>
</g>
<!-- Node1&#45;&gt;Node6 -->
<g id="edge5" class="edge">
<title>Node1&#45;&gt;Node6</title>
<path fill="none" stroke="midnightblue" d="M407.91,-302.4C378.88,-290.89 338.28,-274.8 310.55,-263.81"/>
<polygon fill="midnightblue" stroke="midnightblue" points="311.55,-260.44 300.96,-260.01 308.97,-266.95 311.55,-260.44"/>
</g>
<!-- Node7 -->
<g id="node7" class="node">
<title>Node7</title>
<g id="a_node7"><a xlink:title=" ">
<polygon fill="white" stroke="#bfbfbf" points="332,-241 332,-260 415,-260 415,-241 332,-241"/>
<text text-anchor="middle" x="373.5" y="-248" font-family="Helvetica,sans-Serif" font-size="10.00">sys/eventfd.h</text>
</a>
</g>
</g>
<!-- Node1&#45;&gt;Node7 -->
<g id="edge6" class="edge">
<title>Node1&#45;&gt;Node7</title>
<path fill="none" stroke="midnightblue" d="M428.31,-302.4C417.18,-292.06 402.06,-278.02 390.53,-267.31"/>
<polygon fill="midnightblue" stroke="midnightblue" points="392.57,-264.43 382.86,-260.19 387.81,-269.56 392.57,-264.43"/>
</g>
<!-- Node8 -->
<g id="node8" class="node">
<title>Node8</title>
<g id="a_node8"><a xlink:href="Sdb_8h.html" target="_top" xlink:title=" ">
<polygon fill="white" stroke="black" points="755,-56.5 755,-75.5 816,-75.5 816,-56.5 755,-56.5"/>
<text text-anchor="middle" x="785.5" y="-63.5" font-family="Helvetica,sans-Serif" font-size="10.00">src/Sdb.h</text>
</a>
</g>
</g>
<!-- Node1&#45;&gt;Node8 -->
<g id="edge7" class="edge">
<title>Node1&#45;&gt;Node8</title>
<path fill="none" stroke="midnightblue" d="M444.77,-302.26C446.73,-285.43 451.48,-256.94 462.5,-235 494.63,-171.03 504.94,-148.55 566.5,-112 622.24,-78.91 698.44,-69.84 744.7,-67.54"/>
<polygon fill="midnightblue" stroke="midnightblue" points="745.09,-71.02 754.94,-67.11 744.8,-64.03 745.09,-71.02"/>
</g>
<!-- Node24 -->
<g id="node24" class="node">
<title>Node24</title>
<g id="a_node24"><a xlink:title=" ">
<polygon fill="white" stroke="#bfbfbf" points="543.5,-168.5 543.5,-198.5 665.5,-198.5 665.5,-168.5 543.5,-168.5"/>
<text text-anchor="start" x="551.5" y="-186.5" font-family="Helvetica,sans-Serif" font-size="10.00">src/DatabaseSystems</text>
<text text-anchor="middle" x="604.5" y="-175.5" font-family="Helvetica,sans-Serif" font-size="10.00">/Postgres.h</text>
</a>
</g>
</g>
<!-- Node1&#45;&gt;Node24 -->
<g id="edge25" class="edge">
<title>Node1&#45;&gt;Node24</title>
<path fill="none" stroke="midnightblue" d="M504.72,-308.66C554.96,-300.82 620.36,-286.9 636.5,-266 650.15,-248.32 637.58,-224.08 624.4,-206.64"/>
<polygon fill="midnightblue" stroke="midnightblue" points="626.99,-204.28 617.99,-198.68 621.54,-208.67 626.99,-204.28"/>
</g>
<!-- Node25 -->
<g id="node25" class="node">
<title>Node25</title>
<g id="a_node25"><a xlink:href="SensorDataPipe_8h.html" target="_top" xlink:title="Lock&#45;Free Data Pipeline.">
<polygon fill="white" stroke="black" points="683,-241 683,-260 850,-260 850,-241 683,-241"/>
<text text-anchor="middle" x="766.5" y="-248" font-family="Helvetica,sans-Serif" font-size="10.00">src/Common/SensorDataPipe.h</text>
</a>
</g>
</g>
<!-- Node1&#45;&gt;Node25 -->
<g id="edge26" class="edge">
<title>Node1&#45;&gt;Node25</title>
<path fill="none" stroke="midnightblue" d="M504.63,-304.2C565.19,-292.01 656.95,-273.55 714.22,-262.02"/>
<polygon fill="midnightblue" stroke="midnightblue" points="715.03,-265.43 724.15,-260.02 713.65,-258.56 715.03,-265.43"/>
</g>
<!-- Node27 -->
<g id="node27" class="node">
<title>Node27</title>
<g id="a_node27"><a xlink:href="Thread_8h.html" target="_top" xlink:title="Lightweight Synchronization Primitives Wrapper.">
<polygon fill="white" stroke="black" points="813.5,-174 813.5,-193 937.5,-193 937.5,-174 813.5,-174"/>
<text text-anchor="middle" x="875.5" y="-181" font-family="Helvetica,sans-Serif" font-size="10.00">src/Common/Thread.h</text>
</a>
</g>
</g>
<!-- Node1&#45;&gt;Node27 -->
<g id="edge37" class="edge">
<title>Node1&#45;&gt;Node27</title>
<path fill="none" stroke="midnightblue" d="M504.56,-313.01C613.86,-306.21 833.99,-289.71 859.5,-266 876.55,-250.15 878.46,-221.89 877.54,-203.17"/>
<polygon fill="midnightblue" stroke="midnightblue" points="881.03,-202.86 876.74,-193.17 874.05,-203.42 881.03,-202.86"/>
</g>
<!-- Node31 -->
<g id="node31" class="node">
<title>Node31</title>
<g id="a_node31"><a xlink:href="DatabaseInitializer_8h.html" target="_top" xlink:title="Database configuration initialization interface.">
<polygon fill="white" stroke="black" points="905.5,-235.5 905.5,-265.5 1027.5,-265.5 1027.5,-235.5 905.5,-235.5"/>
<text text-anchor="start" x="913.5" y="-253.5" font-family="Helvetica,sans-Serif" font-size="10.00">src/DatabaseSystems</text>
<text text-anchor="middle" x="966.5" y="-242.5" font-family="Helvetica,sans-Serif" font-size="10.00">/DatabaseInitializer.h</text>
</a>
</g>
</g>
<!-- Node1&#45;&gt;Node31 -->
<g id="edge38" class="edge">
<title>Node1&#45;&gt;Node31</title>
<path fill="none" stroke="midnightblue" d="M504.57,-311.15C590.99,-303.24 753.78,-287.04 891.5,-266 892.75,-265.81 894.02,-265.61 895.29,-265.41"/>
<polygon fill="midnightblue" stroke="midnightblue" points="895.88,-268.86 905.17,-263.76 894.73,-261.95 895.88,-268.86"/>
</g>
<!-- Node32 -->
<g id="node32" class="node">
<title>Node32</title>
<g id="a_node32"><a xlink:href="cJSON_8h.html" target="_top" xlink:title=" ">
<polygon fill="white" stroke="black" points="994,-174 994,-193 1121,-193 1121,-174 994,-174"/>
<text text-anchor="middle" x="1057.5" y="-181" font-family="Helvetica,sans-Serif" font-size="10.00">src/Libs/cJSON/cJSON.h</text>
</a>
</g>
</g>
<!-- Node1&#45;&gt;Node32 -->
<g id="edge42" class="edge">
<title>Node1&#45;&gt;Node32</title>
<path fill="none" stroke="midnightblue" d="M504.61,-315.24C647.9,-311.74 996.5,-299.81 1036.5,-266 1054.6,-250.7 1058.2,-222.05 1058.4,-203.13"/>
<polygon fill="midnightblue" stroke="midnightblue" points="1061.9,-202.97 1058.2,-193.04 1054.9,-203.11 1061.9,-202.97"/>
</g>
<!-- Node34 -->
<g id="node34" class="node">
<title>Node34</title>
<g id="a_node34"><a xlink:href="TestConstants_8h.html" target="_top" xlink:title="Constants for Modbus Test Server.">
<polygon fill="white" stroke="black" points="471.5,-241 471.5,-260 627.5,-260 627.5,-241 471.5,-241"/>
<text text-anchor="middle" x="549.5" y="-248" font-family="Helvetica,sans-Serif" font-size="10.00">src/DevUtils/TestConstants.h</text>
</a>
</g>
</g>
<!-- Node1&#45;&gt;Node34 -->
<g id="edge43" class="edge">
<title>Node1&#45;&gt;Node34</title>
<path fill="none" stroke="midnightblue" d="M466.5,-302.4C484.44,-291.39 509.22,-276.2 527.02,-265.28"/>
<polygon fill="midnightblue" stroke="midnightblue" points="528.93,-268.22 535.63,-260.01 525.27,-262.25 528.93,-268.22"/>
</g>
<!-- Node8&#45;&gt;Node4 -->
<g id="edge18" class="edge">
<title>Node8&#45;&gt;Node4</title>
<path fill="none" stroke="midnightblue" d="M754.74,-64.63C666.72,-63.18 406.27,-56.06 182.12,-20"/>
<polygon fill="midnightblue" stroke="midnightblue" points="182.58,-16.53 172.15,-18.37 181.46,-23.44 182.58,-16.53"/>
</g>
<!-- Node8&#45;&gt;Node5 -->
<g id="edge19" class="edge">
<title>Node8&#45;&gt;Node5</title>
<path fill="none" stroke="midnightblue" d="M754.87,-64.21C674.13,-61.76 448.8,-52.46 253.04,-20.01"/>
<polygon fill="midnightblue" stroke="midnightblue" points="253.6,-16.55 243.15,-18.34 252.43,-23.46 253.6,-16.55"/>
</g>
<!-- Node9 -->
<g id="node9" class="node">
<title>Node9</title>
<g id="a_node9"><a xlink:title=" ">
<polygon fill="white" stroke="#bfbfbf" points="941.5,-0.5 941.5,-19.5 997.5,-19.5 997.5,-0.5 941.5,-0.5"/>
<text text-anchor="middle" x="969.5" y="-7.5" font-family="Helvetica,sans-Serif" font-size="10.00">assert.h</text>
</a>
</g>
</g>
<!-- Node8&#45;&gt;Node9 -->
<g id="edge8" class="edge">
<title>Node8&#45;&gt;Node9</title>
<path fill="none" stroke="midnightblue" d="M814.66,-56.44C846.29,-47.16 896.91,-32.3 931.61,-22.12"/>
<polygon fill="midnightblue" stroke="midnightblue" points="932.78,-25.43 941.39,-19.25 930.81,-18.71 932.78,-25.43"/>
</g>
<!-- Node10 -->
<g id="node10" class="node">
<title>Node10</title>
<g id="a_node10"><a xlink:title=" ">
<polygon fill="white" stroke="#bfbfbf" points="1016,-0.5 1016,-19.5 1069,-19.5 1069,-0.5 1016,-0.5"/>
<text text-anchor="middle" x="1042.5" y="-7.5" font-family="Helvetica,sans-Serif" font-size="10.00">ctype.h</text>
</a>
</g>
</g>
<!-- Node8&#45;&gt;Node10 -->
<g id="edge9" class="edge">
<title>Node8&#45;&gt;Node10</title>
<path fill="none" stroke="midnightblue" d="M816.34,-59.17C857.3,-51.32 932.12,-36.65 1005.87,-20.06"/>
<polygon fill="midnightblue" stroke="midnightblue" points="1006.81,-23.44 1015.79,-17.82 1005.27,-16.61 1006.81,-23.44"/>
</g>
<!-- Node11 -->
<g id="node11" class="node">
<title>Node11</title>
<g id="a_node11"><a xlink:title=" ">
<polygon fill="white" stroke="#bfbfbf" points="1087,-0.5 1087,-19.5 1138,-19.5 1138,-0.5 1087,-0.5"/>
<text text-anchor="middle" x="1112.5" y="-7.5" font-family="Helvetica,sans-Serif" font-size="10.00">errno.h</text>
</a>
</g>
</g>
<!-- Node8&#45;&gt;Node11 -->
<g id="edge10" class="edge">
<title>Node8&#45;&gt;Node11</title>
<path fill="none" stroke="midnightblue" d="M816.06,-61.39C867.84,-55.05 976.25,-40.76 1076.92,-20.15"/>
<polygon fill="midnightblue" stroke="midnightblue" points="1077.87,-23.53 1086.95,-18.08 1076.45,-16.68 1077.87,-23.53"/>
</g>
<!-- Node12 -->
<g id="node12" class="node">
<title>Node12</title>
<g id="a_node12"><a xlink:title=" ">
<polygon fill="white" stroke="#bfbfbf" points="1156,-0.5 1156,-19.5 1203,-19.5 1203,-0.5 1156,-0.5"/>
<text text-anchor="middle" x="1179.5" y="-7.5" font-family="Helvetica,sans-Serif" font-size="10.00">fcntl.h</text>
</a>
</g>
</g>
<!-- Node8&#45;&gt;Node12 -->
<g id="edge11" class="edge">
<title>Node8&#45;&gt;Node12</title>
<path fill="none" stroke="midnightblue" d="M816.26,-62.75C877.42,-57.93 1018.71,-45.14 1145.92,-20.07"/>
<polygon fill="midnightblue" stroke="midnightblue" points="1146.71,-23.48 1155.83,-18.09 1145.34,-16.62 1146.71,-23.48"/>
</g>
<!-- Node13 -->
<g id="node13" class="node">
<title>Node13</title>
<g id="a_node13"><a xlink:title=" ">
<polygon fill="white" stroke="#bfbfbf" points="261,-0.5 261,-19.5 308,-19.5 308,-0.5 261,-0.5"/>
<text text-anchor="middle" x="284.5" y="-7.5" font-family="Helvetica,sans-Serif" font-size="10.00">float.h</text>
</a>
</g>
</g>
<!-- Node8&#45;&gt;Node13 -->
<g id="edge12" class="edge">
<title>Node8&#45;&gt;Node13</title>
<path fill="none" stroke="midnightblue" d="M754.78,-63.95C680.91,-61.02 487.47,-50.96 318,-19.99"/>
<polygon fill="midnightblue" stroke="midnightblue" points="318.63,-16.55 308.15,-18.16 317.35,-23.43 318.63,-16.55"/>
</g>
<!-- Node14 -->
<g id="node14" class="node">
<title>Node14</title>
<g id="a_node14"><a xlink:title=" ">
<polygon fill="white" stroke="#bfbfbf" points="326,-0.5 326,-19.5 377,-19.5 377,-0.5 326,-0.5"/>
<text text-anchor="middle" x="351.5" y="-7.5" font-family="Helvetica,sans-Serif" font-size="10.00">math.h</text>
</a>
</g>
</g>
<!-- Node8&#45;&gt;Node14 -->
<g id="edge13" class="edge">
<title>Node8&#45;&gt;Node14</title>
<path fill="none" stroke="midnightblue" d="M754.75,-63C689.03,-58.41 529.95,-45.64 386.86,-19.8"/>
<polygon fill="midnightblue" stroke="midnightblue" points="387.49,-16.36 377.02,-18 386.23,-23.25 387.49,-16.36"/>
</g>
<!-- Node15 -->
<g id="node15" class="node">
<title>Node15</title>
<g id="a_node15"><a xlink:title=" ">
<polygon fill="white" stroke="#bfbfbf" points="1288,-0.5 1288,-19.5 1351,-19.5 1351,-0.5 1288,-0.5"/>
<text text-anchor="middle" x="1319.5" y="-7.5" font-family="Helvetica,sans-Serif" font-size="10.00">pthread.h</text>
</a>
</g>
</g>
<!-- Node8&#45;&gt;Node15 -->
<g id="edge14" class="edge">
<title>Node8&#45;&gt;Node15</title>
<path fill="none" stroke="midnightblue" d="M816.24,-63.53C892.61,-59.6 1097.24,-47.34 1277.85,-19.9"/>
<polygon fill="midnightblue" stroke="midnightblue" points="1278.44,-23.35 1287.79,-18.37 1277.37,-16.43 1278.44,-23.35"/>
</g>
<!-- Node16 -->
<g id="node16" class="node">
<title>Node16</title>
<g id="a_node16"><a xlink:title=" ">
<polygon fill="white" stroke="#bfbfbf" points="395.5,-0.5 395.5,-19.5 451.5,-19.5 451.5,-0.5 395.5,-0.5"/>
<text text-anchor="middle" x="423.5" y="-7.5" font-family="Helvetica,sans-Serif" font-size="10.00">stdarg.h</text>
</a>
</g>
</g>
<!-- Node8&#45;&gt;Node16 -->
<g id="edge15" class="edge">
<title>Node8&#45;&gt;Node16</title>
<path fill="none" stroke="midnightblue" d="M754.86,-61.8C698.67,-55.72 575.19,-41.3 461.62,-20.05"/>
<polygon fill="midnightblue" stroke="midnightblue" points="462.19,-16.6 451.72,-18.17 460.89,-23.47 462.19,-16.6"/>
</g>
<!-- Node17 -->
<g id="node17" class="node">
<title>Node17</title>
<g id="a_node17"><a xlink:title=" ">
<polygon fill="white" stroke="#bfbfbf" points="470,-0.5 470,-19.5 523,-19.5 523,-0.5 470,-0.5"/>
<text text-anchor="middle" x="496.5" y="-7.5" font-family="Helvetica,sans-Serif" font-size="10.00">stdint.h</text>
</a>
</g>
</g>
<!-- Node8&#45;&gt;Node17 -->
<g id="edge16" class="edge">
<title>Node8&#45;&gt;Node17</title>
<path fill="none" stroke="midnightblue" d="M754.99,-60.27C709.09,-53 619.32,-38.21 533.14,-20.01"/>
<polygon fill="midnightblue" stroke="midnightblue" points="533.7,-16.55 523.19,-17.89 532.24,-23.4 533.7,-16.55"/>
</g>
<!-- Node18 -->
<g id="node18" class="node">
<title>Node18</title>
<g id="a_node18"><a xlink:title=" ">
<polygon fill="white" stroke="#bfbfbf" points="541.5,-0.5 541.5,-19.5 591.5,-19.5 591.5,-0.5 541.5,-0.5"/>
<text text-anchor="middle" x="566.5" y="-7.5" font-family="Helvetica,sans-Serif" font-size="10.00">stdio.h</text>
</a>
</g>
</g>
<!-- Node8&#45;&gt;Node18 -->
<g id="edge17" class="edge">
<title>Node8&#45;&gt;Node18</title>
<path fill="none" stroke="midnightblue" d="M754.68,-57.7C719.86,-49.42 661.24,-35.34 601.69,-20.27"/>
<polygon fill="midnightblue" stroke="midnightblue" points="602.29,-16.81 591.74,-17.74 600.57,-23.59 602.29,-16.81"/>
</g>
<!-- Node19 -->
<g id="node19" class="node">
<title>Node19</title>
<g id="a_node19"><a xlink:title=" ">
<polygon fill="white" stroke="#bfbfbf" points="610,-0.5 610,-19.5 687,-19.5 687,-0.5 610,-0.5"/>
<text text-anchor="middle" x="648.5" y="-7.5" font-family="Helvetica,sans-Serif" font-size="10.00">sys/mman.h</text>
</a>
</g>
</g>
<!-- Node8&#45;&gt;Node19 -->
<g id="edge20" class="edge">
<title>Node8&#45;&gt;Node19</title>
<path fill="none" stroke="midnightblue" d="M763.79,-56.44C741.15,-47.52 705.43,-33.44 679.75,-23.32"/>
<polygon fill="midnightblue" stroke="midnightblue" points="680.69,-19.93 670.11,-19.52 678.13,-26.44 680.69,-19.93"/>
</g>
<!-- Node20 -->
<g id="node20" class="node">
<title>Node20</title>
<g id="a_node20"><a xlink:title=" ">
<polygon fill="white" stroke="#bfbfbf" points="705.5,-0.5 705.5,-19.5 769.5,-19.5 769.5,-0.5 705.5,-0.5"/>
<text text-anchor="middle" x="737.5" y="-7.5" font-family="Helvetica,sans-Serif" font-size="10.00">sys/stat.h</text>
</a>
</g>
</g>
<!-- Node8&#45;&gt;Node20 -->
<g id="edge21" class="edge">
<title>Node8&#45;&gt;Node20</title>
<path fill="none" stroke="midnightblue" d="M777.57,-56.08C770.65,-48.3 760.43,-36.8 752.05,-27.37"/>
<polygon fill="midnightblue" stroke="midnightblue" points="754.54,-24.9 745.28,-19.75 749.31,-29.55 754.54,-24.9"/>
</g>
<!-- Node21 -->
<g id="node21" class="node">
<title>Node21</title>
<g id="a_node21"><a xlink:title=" ">
<polygon fill="white" stroke="#bfbfbf" points="1221.5,-0.5 1221.5,-19.5 1269.5,-19.5 1269.5,-0.5 1221.5,-0.5"/>
<text text-anchor="middle" x="1245.5" y="-7.5" font-family="Helvetica,sans-Serif" font-size="10.00">time.h</text>
</a>
</g>
</g>
<!-- Node8&#45;&gt;Node21 -->
<g id="edge22" class="edge">
<title>Node8&#45;&gt;Node21</title>
<path fill="none" stroke="midnightblue" d="M816.03,-63.48C884.93,-59.68 1057.79,-48.13 1211.37,-19.92"/>
<polygon fill="midnightblue" stroke="midnightblue" points="1212.27,-23.31 1221.45,-18.04 1210.98,-16.43 1212.27,-23.31"/>
</g>
<!-- Node22 -->
<g id="node22" class="node">
<title>Node22</title>
<g id="a_node22"><a xlink:title=" ">
<polygon fill="white" stroke="#bfbfbf" points="787.5,-0.5 787.5,-19.5 843.5,-19.5 843.5,-0.5 787.5,-0.5"/>
<text text-anchor="middle" x="815.5" y="-7.5" font-family="Helvetica,sans-Serif" font-size="10.00">unistd.h</text>
</a>
</g>
</g>
<!-- Node8&#45;&gt;Node22 -->
<g id="edge23" class="edge">
<title>Node8&#45;&gt;Node22</title>
<path fill="none" stroke="midnightblue" d="M790.45,-56.08C794.6,-48.61 800.65,-37.72 805.77,-28.52"/>
<polygon fill="midnightblue" stroke="midnightblue" points="808.84,-30.19 810.64,-19.75 802.72,-26.79 808.84,-30.19"/>
</g>
<!-- Node23 -->
<g id="node23" class="node">
<title>Node23</title>
<g id="a_node23"><a xlink:title=" ">
<polygon fill="white" stroke="#bfbfbf" points="861.5,-0.5 861.5,-19.5 923.5,-19.5 923.5,-0.5 861.5,-0.5"/>
<text text-anchor="middle" x="892.5" y="-7.5" font-family="Helvetica,sans-Serif" font-size="10.00">stdbool.h</text>
</a>
</g>
</g>
<!-- Node8&#45;&gt;Node23 -->
<g id="edge24" class="edge">
<title>Node8&#45;&gt;Node23</title>
<path fill="none" stroke="midnightblue" d="M802.69,-56.32C819.85,-47.66 846.45,-34.24 866.25,-24.25"/>
<polygon fill="midnightblue" stroke="midnightblue" points="868,-27.28 875.35,-19.65 864.85,-21.04 868,-27.28"/>
</g>
<!-- Node25&#45;&gt;Node8 -->
<g id="edge28" class="edge">
<title>Node25&#45;&gt;Node8</title>
<path fill="none" stroke="midnightblue" d="M767.42,-240.7C770.33,-212.69 779.44,-125.21 783.51,-86.16"/>
<polygon fill="midnightblue" stroke="midnightblue" points="787.04,-86.02 784.59,-75.71 780.08,-85.3 787.04,-86.02"/>
</g>
<!-- Node26 -->
<g id="node26" class="node">
<title>Node26</title>
<g id="a_node26"><a xlink:title=" ">
<polygon fill="white" stroke="#bfbfbf" points="683.5,-174 683.5,-193 757.5,-193 757.5,-174 683.5,-174"/>
<text text-anchor="middle" x="720.5" y="-181" font-family="Helvetica,sans-Serif" font-size="10.00">stdatomic.h</text>
</a>
</g>
</g>
<!-- Node25&#45;&gt;Node26 -->
<g id="edge27" class="edge">
<title>Node25&#45;&gt;Node26</title>
<path fill="none" stroke="midnightblue" d="M760.3,-240.73C753.19,-230.7 741.39,-214.01 732.48,-201.42"/>
<polygon fill="midnightblue" stroke="midnightblue" points="735.24,-199.27 726.61,-193.13 729.53,-203.31 735.24,-199.27"/>
</g>
<!-- Node25&#45;&gt;Node27 -->
<g id="edge29" class="edge">
<title>Node25&#45;&gt;Node27</title>
<path fill="none" stroke="midnightblue" d="M781.2,-240.73C799.42,-229.87 830.7,-211.22 852.2,-198.39"/>
<polygon fill="midnightblue" stroke="midnightblue" points="854.24,-201.26 861.03,-193.13 850.65,-195.24 854.24,-201.26"/>
</g>
<!-- Node27&#45;&gt;Node8 -->
<g id="edge32" class="edge">
<title>Node27&#45;&gt;Node8</title>
<path fill="none" stroke="midnightblue" d="M868.74,-173.82C853.88,-154.76 818.19,-108.95 798.71,-83.96"/>
<polygon fill="midnightblue" stroke="midnightblue" points="801.25,-81.52 792.34,-75.78 795.73,-85.82 801.25,-81.52"/>
</g>
<!-- Node27&#45;&gt;Node15 -->
<g id="edge30" class="edge">
<title>Node27&#45;&gt;Node15</title>
<path fill="none" stroke="midnightblue" d="M937.56,-175.47C987.67,-168.42 1059.32,-155.18 1118.5,-132 1155.76,-117.4 1254.27,-53.91 1298.03,-25.2"/>
<polygon fill="midnightblue" stroke="midnightblue" points="1300.06,-28.05 1306.49,-19.63 1296.21,-22.2 1300.06,-28.05"/>
</g>
<!-- Node28 -->
<g id="node28" class="node">
<title>Node28</title>
<g id="a_node28"><a xlink:title=" ">
<polygon fill="white" stroke="#bfbfbf" points="851.5,-112.5 851.5,-131.5 931.5,-131.5 931.5,-112.5 851.5,-112.5"/>
<text text-anchor="middle" x="891.5" y="-119.5" font-family="Helvetica,sans-Serif" font-size="10.00">semaphore.h</text>
</a>
</g>
</g>
<!-- Node27&#45;&gt;Node28 -->
<g id="edge31" class="edge">
<title>Node27&#45;&gt;Node28</title>
<path fill="none" stroke="midnightblue" d="M877.79,-173.98C880.07,-165.49 883.65,-152.2 886.57,-141.32"/>
<polygon fill="midnightblue" stroke="midnightblue" points="889.99,-142.07 889.21,-131.51 883.24,-140.26 889.99,-142.07"/>
</g>
<!-- Node29 -->
<g id="node29" class="node">
<title>Node29</title>
<g id="a_node29"><a xlink:href="Time_8h.html" target="_top" xlink:title="Lightweight Time Manipulation Utilities.">
<polygon fill="white" stroke="black" points="994,-112.5 994,-131.5 1109,-131.5 1109,-112.5 994,-112.5"/>
<text text-anchor="middle" x="1051.5" y="-119.5" font-family="Helvetica,sans-Serif" font-size="10.00">src/Common/Time.h</text>
</a>
</g>
</g>
<!-- Node27&#45;&gt;Node29 -->
<g id="edge33" class="edge">
<title>Node27&#45;&gt;Node29</title>
<path fill="none" stroke="midnightblue" d="M900.72,-173.98C931.17,-163.68 982.55,-146.31 1016.74,-134.75"/>
<polygon fill="midnightblue" stroke="midnightblue" points="1017.98,-138.03 1026.33,-131.51 1015.74,-131.4 1017.98,-138.03"/>
</g>
<!-- Node29&#45;&gt;Node8 -->
<g id="edge36" class="edge">
<title>Node29&#45;&gt;Node8</title>
<path fill="none" stroke="midnightblue" d="M1009.35,-112.44C959.16,-102.25 875.9,-85.35 826.3,-75.28"/>
<polygon fill="midnightblue" stroke="midnightblue" points="826.75,-71.8 816.26,-73.24 825.36,-78.66 826.75,-71.8"/>
</g>
<!-- Node29&#45;&gt;Node21 -->
<g id="edge35" class="edge">
<title>Node29&#45;&gt;Node21</title>
<path fill="none" stroke="midnightblue" d="M1059.5,-112.32C1072.44,-98.71 1099.27,-72.24 1126.5,-56 1153.34,-39.99 1186.87,-27.93 1211.49,-20.34"/>
<polygon fill="midnightblue" stroke="midnightblue" points="1212.54,-23.68 1221.12,-17.47 1210.53,-16.98 1212.54,-23.68"/>
</g>
<!-- Node30 -->
<g id="node30" class="node">
<title>Node30</title>
<g id="a_node30"><a xlink:title=" ">
<polygon fill="white" stroke="#bfbfbf" points="1021,-56.5 1021,-75.5 1074,-75.5 1074,-56.5 1021,-56.5"/>
<text text-anchor="middle" x="1047.5" y="-63.5" font-family="Helvetica,sans-Serif" font-size="10.00">limits.h</text>
</a>
</g>
</g>
<!-- Node29&#45;&gt;Node30 -->
<g id="edge34" class="edge">
<title>Node29&#45;&gt;Node30</title>
<path fill="none" stroke="midnightblue" d="M1050.84,-112.08C1050.32,-105.01 1049.56,-94.86 1048.91,-85.99"/>
<polygon fill="midnightblue" stroke="midnightblue" points="1052.38,-85.47 1048.15,-75.75 1045.4,-85.98 1052.38,-85.47"/>
</g>
<!-- Node31&#45;&gt;Node8 -->
<g id="edge39" class="edge">
<title>Node31&#45;&gt;Node8</title>
<path fill="none" stroke="midnightblue" d="M968.24,-235.35C970.78,-207.86 972.2,-146.88 940.5,-112 911.52,-80.1 861.4,-70.29 826.02,-67.54"/>
<polygon fill="midnightblue" stroke="midnightblue" points="826.2,-64.04 816,-66.92 825.77,-71.03 826.2,-64.04"/>
</g>
<!-- Node31&#45;&gt;Node32 -->
<g id="edge40" class="edge">
<title>Node31&#45;&gt;Node32</title>
<path fill="none" stroke="midnightblue" d="M986.25,-235.4C1001.36,-224.6 1022.14,-209.76 1037.36,-198.89"/>
<polygon fill="midnightblue" stroke="midnightblue" points="1039.49,-201.67 1045.59,-193.01 1035.42,-195.97 1039.49,-201.67"/>
</g>
<!-- Node33 -->
<g id="node33" class="node">
<title>Node33</title>
<g id="a_node33"><a xlink:title=" ">
<polygon fill="white" stroke="#bfbfbf" points="1168.5,-112.5 1168.5,-131.5 1224.5,-131.5 1224.5,-112.5 1168.5,-112.5"/>
<text text-anchor="middle" x="1196.5" y="-119.5" font-family="Helvetica,sans-Serif" font-size="10.00">stddef.h</text>
</a>
</g>
</g>
<!-- Node32&#45;&gt;Node33 -->
<g id="edge41" class="edge">
<title>Node32&#45;&gt;Node33</title>
<path fill="none" stroke="midnightblue" d="M1077.42,-173.98C1100.95,-163.9 1140.31,-147.05 1167.29,-135.5"/>
<polygon fill="midnightblue" stroke="midnightblue" points="1168.81,-138.66 1176.62,-131.51 1166.05,-132.23 1168.81,-138.66"/>
</g>
<!-- Node34&#45;&gt;Node8 -->
<g id="edge44" class="edge">
<title>Node34&#45;&gt;Node8</title>
<path fill="none" stroke="midnightblue" d="M544.12,-240.81C535.04,-224.93 519.12,-190.77 534.5,-168 581.78,-98.01 686.47,-76.51 744.6,-69.92"/>
<polygon fill="midnightblue" stroke="midnightblue" points="745.3,-73.36 754.89,-68.85 744.58,-66.4 745.3,-73.36"/>
</g>
<!-- Node34&#45;&gt;Node24 -->
<g id="edge45" class="edge">
<title>Node34&#45;&gt;Node24</title>
<path fill="none" stroke="midnightblue" d="M556.92,-240.73C564.35,-231.95 576.09,-218.08 586.04,-206.31"/>
<polygon fill="midnightblue" stroke="midnightblue" points="588.79,-208.48 592.58,-198.59 583.45,-203.96 588.79,-208.48"/>
</g>
</g>
</svg>
