<?xml version="1.0" encoding="UTF-8" standalone="no"?>
<!DOCTYPE svg PUBLIC "-//W3C//DTD SVG 1.1//EN"
 "http://www.w3.org/Graphics/SVG/1.1/DTD/svg11.dtd">
<!-- Generated by graphviz version 2.43.0 (0)
 -->
<!-- Title: MbPipeThroughputTest Pages: 1 -->
<svg width="440pt" height="332pt"
 viewBox="0.00 0.00 440.00 332.00" xmlns="http://www.w3.org/2000/svg" xmlns:xlink="http://www.w3.org/1999/xlink">
<g id="graph0" class="graph" transform="scale(1 1) rotate(0) translate(4 328)">
<title>MbPipeThroughputTest</title>
<polygon fill="white" stroke="transparent" points="-4,4 -4,-328 436,-328 436,4 -4,4"/>
<!-- Node1 -->
<g id="node1" class="node">
<title>Node1</title>
<g id="a_node1"><a xlink:title="Implements throughput testing for Modbus data pipe.">
<polygon fill="#bfbfbf" stroke="black" points="0,-152.5 0,-171.5 128,-171.5 128,-152.5 0,-152.5"/>
<text text-anchor="middle" x="64" y="-159.5" font-family="Helvetica,sans-Serif" font-size="10.00">MbPipeThroughputTest</text>
</a>
</g>
</g>
<!-- Node2 -->
<g id="node2" class="node">
<title>Node2</title>
<g id="a_node2"><a xlink:href="CommProtocols_2Modbus_8c.html#a958797e9ec7e41e215bebd4d2fd91513" target="_top" xlink:title="Initializes thread arenas for Modbus operations.">
<polygon fill="white" stroke="black" points="173.5,-304.5 173.5,-323.5 288.5,-323.5 288.5,-304.5 173.5,-304.5"/>
<text text-anchor="middle" x="231" y="-311.5" font-family="Helvetica,sans-Serif" font-size="10.00">MbThreadArenasInit</text>
</a>
</g>
</g>
<!-- Node1&#45;&gt;Node2 -->
<g id="edge1" class="edge">
<title>Node1&#45;&gt;Node2</title>
<path fill="none" stroke="midnightblue" d="M69.45,-171.73C81.19,-196.33 115.49,-261.41 164,-295 166.88,-296.99 169.97,-298.78 173.18,-300.38"/>
<polygon fill="midnightblue" stroke="midnightblue" points="171.92,-303.65 182.49,-304.42 174.71,-297.23 171.92,-303.65"/>
</g>
<!-- Node3 -->
<g id="node3" class="node">
<title>Node3</title>
<g id="a_node3"><a xlink:href="Sdb_8h.html#a132f10c44fe9dab28a9fae8839c099ad" target="_top" xlink:title=" ">
<polygon fill="white" stroke="black" points="176,-266.5 176,-285.5 286,-285.5 286,-266.5 176,-266.5"/>
<text text-anchor="middle" x="231" y="-273.5" font-family="Helvetica,sans-Serif" font-size="10.00">SdbArenaBootstrap</text>
</a>
</g>
</g>
<!-- Node1&#45;&gt;Node3 -->
<g id="edge2" class="edge">
<title>Node1&#45;&gt;Node3</title>
<path fill="none" stroke="midnightblue" d="M72.33,-171.66C87.38,-190.83 123.75,-233.82 164,-257 167.72,-259.14 171.7,-261.06 175.79,-262.77"/>
<polygon fill="midnightblue" stroke="midnightblue" points="174.88,-266.16 185.47,-266.4 177.34,-259.61 174.88,-266.16"/>
</g>
<!-- Node4 -->
<g id="node4" class="node">
<title>Node4</title>
<g id="a_node4"><a xlink:href="Sdb_8h.html#ab63e953fd90c628d5c0727287df66fab" target="_top" xlink:title=" ">
<polygon fill="white" stroke="black" points="191.5,-228.5 191.5,-247.5 270.5,-247.5 270.5,-228.5 191.5,-228.5"/>
<text text-anchor="middle" x="231" y="-235.5" font-family="Helvetica,sans-Serif" font-size="10.00">SdbArenaInit</text>
</a>
</g>
</g>
<!-- Node1&#45;&gt;Node4 -->
<g id="edge3" class="edge">
<title>Node1&#45;&gt;Node4</title>
<path fill="none" stroke="midnightblue" d="M79.19,-171.65C97.91,-184.03 132.23,-205.52 164,-219 169.55,-221.36 175.49,-223.53 181.45,-225.49"/>
<polygon fill="midnightblue" stroke="midnightblue" points="180.82,-228.96 191.41,-228.59 182.9,-222.27 180.82,-228.96"/>
</g>
<!-- Node5 -->
<g id="node5" class="node">
<title>Node5</title>
<g id="a_node5"><a xlink:href="Sdb_8h.html#a99992a234eafd2bc02fe59561c4beb35" target="_top" xlink:title=" ">
<polygon fill="white" stroke="black" points="188,-190.5 188,-209.5 274,-209.5 274,-190.5 188,-190.5"/>
<text text-anchor="middle" x="231" y="-197.5" font-family="Helvetica,sans-Serif" font-size="10.00">SdbArenaPush</text>
</a>
</g>
</g>
<!-- Node1&#45;&gt;Node5 -->
<g id="edge4" class="edge">
<title>Node1&#45;&gt;Node5</title>
<path fill="none" stroke="midnightblue" d="M106.64,-171.59C128.51,-176.63 155.51,-182.84 178.66,-188.18"/>
<polygon fill="midnightblue" stroke="midnightblue" points="178.13,-191.65 188.66,-190.48 179.7,-184.82 178.13,-191.65"/>
</g>
<!-- Node6 -->
<g id="node6" class="node">
<title>Node6</title>
<g id="a_node6"><a xlink:href="Thread_8c.html#a192a33d80a7d463ad237856cdc7343be" target="_top" xlink:title="Wait on a thread barrier.">
<polygon fill="white" stroke="black" points="186.5,-152.5 186.5,-171.5 275.5,-171.5 275.5,-152.5 186.5,-152.5"/>
<text text-anchor="middle" x="231" y="-159.5" font-family="Helvetica,sans-Serif" font-size="10.00">SdbBarrierWait</text>
</a>
</g>
</g>
<!-- Node1&#45;&gt;Node6 -->
<g id="edge5" class="edge">
<title>Node1&#45;&gt;Node6</title>
<path fill="none" stroke="midnightblue" d="M128.32,-162C143.98,-162 160.61,-162 175.78,-162"/>
<polygon fill="midnightblue" stroke="midnightblue" points="176.03,-165.5 186.03,-162 176.03,-158.5 176.03,-165.5"/>
</g>
<!-- Node7 -->
<g id="node7" class="node">
<title>Node7</title>
<g id="a_node7"><a xlink:href="Sdb_8h.html#ae4ef1557f623dc27e4d1f8f9cac4b6fc" target="_top" xlink:title=" ">
<polygon fill="white" stroke="black" points="164,-114.5 164,-133.5 298,-133.5 298,-114.5 164,-114.5"/>
<text text-anchor="middle" x="231" y="-121.5" font-family="Helvetica,sans-Serif" font-size="10.00">SdbLoadFileIntoMemory</text>
</a>
</g>
</g>
<!-- Node1&#45;&gt;Node7 -->
<g id="edge6" class="edge">
<title>Node1&#45;&gt;Node7</title>
<path fill="none" stroke="midnightblue" d="M106.64,-152.41C128.51,-147.37 155.51,-141.16 178.66,-135.82"/>
<polygon fill="midnightblue" stroke="midnightblue" points="179.7,-139.18 188.66,-133.52 178.13,-132.35 179.7,-139.18"/>
</g>
<!-- Node8 -->
<g id="node8" class="node">
<title>Node8</title>
<g id="a_node8"><a xlink:href="Sdb_8h.html#ac5c7c1054a5f2110db33fbaf02ee3875" target="_top" xlink:title=" ">
<polygon fill="white" stroke="black" points="192.5,-76.5 192.5,-95.5 269.5,-95.5 269.5,-76.5 192.5,-76.5"/>
<text text-anchor="middle" x="231" y="-83.5" font-family="Helvetica,sans-Serif" font-size="10.00">SdbMemcpy</text>
</a>
</g>
</g>
<!-- Node1&#45;&gt;Node8 -->
<g id="edge7" class="edge">
<title>Node1&#45;&gt;Node8</title>
<path fill="none" stroke="midnightblue" d="M79.19,-152.35C97.91,-139.97 132.23,-118.48 164,-105 169.91,-102.49 176.25,-100.2 182.58,-98.14"/>
<polygon fill="midnightblue" stroke="midnightblue" points="183.92,-101.39 192.45,-95.11 181.86,-94.7 183.92,-101.39"/>
</g>
<!-- Node9 -->
<g id="node9" class="node">
<title>Node9</title>
<g id="a_node9"><a xlink:href="SensorDataPipe_8c.html#ad24e8341d323d221a2cfae80ae7d0508" target="_top" xlink:title="Flush the current write buffer.">
<polygon fill="white" stroke="black" points="193,-0.5 193,-19.5 269,-19.5 269,-0.5 193,-0.5"/>
<text text-anchor="middle" x="231" y="-7.5" font-family="Helvetica,sans-Serif" font-size="10.00">SdPipeFlush</text>
</a>
</g>
</g>
<!-- Node1&#45;&gt;Node9 -->
<g id="edge8" class="edge">
<title>Node1&#45;&gt;Node9</title>
<path fill="none" stroke="midnightblue" d="M69.45,-152.27C81.19,-127.67 115.49,-62.59 164,-29 169.73,-25.03 176.28,-21.89 182.99,-19.39"/>
<polygon fill="midnightblue" stroke="midnightblue" points="184.41,-22.61 192.84,-16.19 182.25,-15.95 184.41,-22.61"/>
</g>
<!-- Node12 -->
<g id="node12" class="node">
<title>Node12</title>
<g id="a_node12"><a xlink:href="SensorDataPipe_8c.html#a2c82e4869caac3347107efcc1b791db4" target="_top" xlink:title="Acquire Write Buffer Arena.">
<polygon fill="white" stroke="black" points="170,-38.5 170,-57.5 292,-57.5 292,-38.5 170,-38.5"/>
<text text-anchor="middle" x="231" y="-45.5" font-family="Helvetica,sans-Serif" font-size="10.00">SdPipeGetWriteBuffer</text>
</a>
</g>
</g>
<!-- Node1&#45;&gt;Node12 -->
<g id="edge11" class="edge">
<title>Node1&#45;&gt;Node12</title>
<path fill="none" stroke="midnightblue" d="M72.33,-152.34C87.38,-133.17 123.75,-90.18 164,-67 167.72,-64.86 171.7,-62.94 175.79,-61.23"/>
<polygon fill="midnightblue" stroke="midnightblue" points="177.34,-64.39 185.47,-57.6 174.88,-57.84 177.34,-64.39"/>
</g>
<!-- Node10 -->
<g id="node10" class="node">
<title>Node10</title>
<g id="a_node10"><a xlink:href="Sdb_8h.html#ab38d94a0b56df0604f07862a93856990" target="_top" xlink:title=" ">
<polygon fill="white" stroke="black" points="338.5,-38.5 338.5,-57.5 427.5,-57.5 427.5,-38.5 338.5,-38.5"/>
<text text-anchor="middle" x="383" y="-45.5" font-family="Helvetica,sans-Serif" font-size="10.00">SdbArenaClear</text>
</a>
</g>
</g>
<!-- Node9&#45;&gt;Node10 -->
<g id="edge9" class="edge">
<title>Node9&#45;&gt;Node10</title>
<path fill="none" stroke="midnightblue" d="M269.08,-19.39C288.85,-24.4 313.4,-30.62 334.55,-35.98"/>
<polygon fill="midnightblue" stroke="midnightblue" points="333.75,-39.39 344.31,-38.45 335.47,-32.6 333.75,-39.39"/>
</g>
<!-- Node11 -->
<g id="node11" class="node">
<title>Node11</title>
<g id="a_node11"><a xlink:href="Sdb_8h.html#a05ee63d567b60fbc2b9e6732f4154a48" target="_top" xlink:title=" ">
<polygon fill="white" stroke="black" points="334,-0.5 334,-19.5 432,-19.5 432,-0.5 334,-0.5"/>
<text text-anchor="middle" x="383" y="-7.5" font-family="Helvetica,sans-Serif" font-size="10.00">SdbArenaGetPos</text>
</a>
</g>
</g>
<!-- Node9&#45;&gt;Node11 -->
<g id="edge10" class="edge">
<title>Node9&#45;&gt;Node11</title>
<path fill="none" stroke="midnightblue" d="M269.08,-10C285.55,-10 305.33,-10 323.7,-10"/>
<polygon fill="midnightblue" stroke="midnightblue" points="323.73,-13.5 333.73,-10 323.73,-6.5 323.73,-13.5"/>
</g>
<!-- Node12&#45;&gt;Node10 -->
<g id="edge12" class="edge">
<title>Node12&#45;&gt;Node10</title>
<path fill="none" stroke="midnightblue" d="M292.15,-48C304.12,-48 316.63,-48 328.37,-48"/>
<polygon fill="midnightblue" stroke="midnightblue" points="328.46,-51.5 338.46,-48 328.46,-44.5 328.46,-51.5"/>
</g>
</g>
</svg>
