<?xml version="1.0" encoding="UTF-8" standalone="no"?>
<!DOCTYPE svg PUBLIC "-//W3C//DTD SVG 1.1//EN"
 "http://www.w3.org/Graphics/SVG/1.1/DTD/svg11.dtd">
<!-- Generated by graphviz version 2.43.0 (0)
 -->
<!-- Title: DhsCreateTg Pages: 1 -->
<!--zoomable 288 -->

<svg id="main" version="1.1" xmlns="http://www.w3.org/2000/svg" xmlns:xlink="http://www.w3.org/1999/xlink" xml:space="preserve" onload="init(evt)">
<style type="text/css"><![CDATA[
.node, .edge {opacity: 0.7;}
.node.selected, .edge.selected {opacity: 1;}
.edge:hover path { stroke: red; }
.edge:hover polygon { stroke: red; fill: red; }
]]></style>

<defs>
  <circle id="rim" cx="0" cy="0" r="7"/>
  <circle id="rim2" cx="0" cy="0" r="3.5"/>
  <g id="zoomPlus">
    <use xlink:href="#rim" fill="#404040"><set attributeName="fill" to="#808080" begin="zoomplus.mouseover" end="zoomplus.mouseout"/></use>
    <path d="M-4,0h8M0,-4v8" fill="none" stroke="white" stroke-width="1.5" pointer-events="none"/>
  </g>
  <g id="zoomMin">
    <use xlink:href="#rim" fill="#404040"><set attributeName="fill" to="#808080" begin="zoomminus.mouseover" end="zoomminus.mouseout"/></use>
    <path d="M-4,0h8" fill="none" stroke="white" stroke-width="1.5" pointer-events="none"/>
  </g>
  <g id="arrowUp" transform="translate(30 24)">
    <use xlink:href="#rim"/>
    <path pointer-events="none" fill="none" stroke="white" stroke-width="1.5" d="M0,-3.0v7 M-2.5,-0.5L0,-3.0L2.5,-0.5"/>
  </g>
  <g id="arrowRight" transform="rotate(90) translate(36 -43)">
    <use xlink:href="#rim"/>
    <path pointer-events="none" fill="none" stroke="white" stroke-width="1.5" d="M0,-3.0v7 M-2.5,-0.5L0,-3.0L2.5,-0.5"/>
  </g>
  <g id="arrowDown" transform="rotate(180) translate(-30 -48)">
    <use xlink:href="#rim"/>
    <path pointer-events="none" fill="none" stroke="white" stroke-width="1.5" d="M0,-3.0v7 M-2.5,-0.5L0,-3.0L2.5,-0.5"/>
  </g>
  <g id="arrowLeft" transform="rotate(270) translate(-36 17)">
    <use xlink:href="#rim"/>
    <path pointer-events="none" fill="none" stroke="white" stroke-width="1.5" d="M0,-3.0v7 M-2.5,-0.5L0,-3.0L2.5,-0.5"/>
  </g>
  <g id="resetDef">
    <use xlink:href="#rim2" fill="#404040"><set attributeName="fill" to="#808080" begin="reset.mouseover" end="reset.mouseout"/></use>
  </g>
</defs>
<script type="application/ecmascript">
var viewWidth = 616;
var viewHeight = 288;
var sectionId = 'dynsection-2';
</script>
<script type="application/ecmascript" xlink:href="svg.min.js"/>
<svg id="graph" class="graph">
<g id="viewport">
<title>DhsCreateTg</title>
<!-- Node1 -->
<g id="Node000001" class="node">
<title>Node1</title>
<g id="a_Node000001"><a xlink:title="Creates a thread group based on the configuration.">
<polygon fill="#999999" stroke="#666666" points="80,-203 0,-203 0,-184 80,-184 80,-203"/>
<text text-anchor="middle" x="40" y="-191" font-family="Helvetica,sans-Serif" font-size="10.00">DhsCreateTg</text>
</a>
</g>
</g>
<!-- Node2 -->
<g id="Node000002" class="node">
<title>Node2</title>
<g id="a_Node000002"><a xlink:href="DataHandlers_8c.html#a1f81298204aa5be0dae90f95258fd0c1" target="_top" xlink:title="Converts handler name to its corresponding ID.">
<polygon fill="white" stroke="#666666" points="251,-222 116,-222 116,-203 251,-203 251,-222"/>
<text text-anchor="middle" x="183.5" y="-210" font-family="Helvetica,sans-Serif" font-size="10.00">GetHandlerIdFromName</text>
</a>
</g>
</g>
<!-- Node1&#45;&gt;Node2 -->
<g id="edge1_Node000001_Node000002" class="edge">
<title>Node1&#45;&gt;Node2</title>
<g id="a_edge1_Node000001_Node000002"><a xlink:title=" ">
<path fill="none" stroke="#63b8ff" d="M80.04,-198.74C88.12,-199.83 96.9,-201.01 105.81,-202.2"/>
<polygon fill="#63b8ff" stroke="#63b8ff" points="105.51,-205.69 115.89,-203.56 106.44,-198.76 105.51,-205.69"/>
</a>
</g>
</g>
<!-- Node3 -->
<g id="Node000003" class="node">
<title>Node3</title>
<g id="a_Node000003"><a xlink:href="ModbusWithPostgres_8c.html#ad38832a9ba1f0fa4494d337d4bee578f" target="_top" xlink:title="Creates thread group from configuration.">
<polygon fill="white" stroke="#666666" points="227.5,-185 139.5,-185 139.5,-166 227.5,-166 227.5,-185"/>
<text text-anchor="middle" x="183.5" y="-173" font-family="Helvetica,sans-Serif" font-size="10.00">MbPgCreateTg</text>
</a>
</g>
</g>
<!-- Node1&#45;&gt;Node3 -->
<g id="edge2_Node000001_Node000003" class="edge">
<title>Node1&#45;&gt;Node3</title>
<g id="a_edge2_Node000001_Node000003"><a xlink:title=" ">
<path fill="none" stroke="#63b8ff" d="M80.04,-188.53C95.28,-186.59 113,-184.34 129.37,-182.26"/>
<polygon fill="#63b8ff" stroke="#63b8ff" points="129.88,-185.72 139.36,-180.99 129,-178.78 129.88,-185.72"/>
</a>
</g>
</g>
<!-- Node4 -->
<g id="Node000004" class="node">
<title>Node4</title>
<g id="a_Node000004"><a xlink:href="DataHandlers_8c.html#afe9e102250a74bffceba672ba91d9368" target="_top" xlink:title="Extracts memory and scratch sizes from JSON configuration.">
<polygon fill="white" stroke="#666666" points="439,-280 287,-280 287,-261 439,-261 439,-280"/>
<text text-anchor="middle" x="363" y="-268" font-family="Helvetica,sans-Serif" font-size="10.00">DhsGetMemAndScratchSize</text>
</a>
</g>
</g>
<!-- Node3&#45;&gt;Node4 -->
<g id="edge3_Node000003_Node000004" class="edge">
<title>Node3&#45;&gt;Node4</title>
<g id="a_edge3_Node000003_Node000004"><a xlink:title=" ">
<path fill="none" stroke="#63b8ff" d="M227.64,-183.15C235.87,-185.86 244.07,-189.53 251,-194.5 273.85,-210.87 264.41,-229.77 287,-246.5 292.82,-250.81 299.43,-254.36 306.27,-257.28"/>
<polygon fill="#63b8ff" stroke="#63b8ff" points="305.09,-260.58 315.68,-260.9 307.6,-254.05 305.09,-260.58"/>
</a>
</g>
</g>
<!-- Node5 -->
<g id="Node000005" class="node">
<title>Node5</title>
<g id="a_Node000005"><a xlink:href="Sdb_8h.html#a3bc1152307e502260c7363261ded3603" target="_top" xlink:title=" ">
<polygon fill="white" stroke="#666666" points="608,-279 475,-279 475,-260 608,-260 608,-279"/>
<text text-anchor="middle" x="541.5" y="-267" font-family="Helvetica,sans-Serif" font-size="10.00">SdbMemSizeFromString</text>
</a>
</g>
</g>
<!-- Node3&#45;&gt;Node5 -->
<g id="edge9_Node000003_Node000005" class="edge">
<title>Node3&#45;&gt;Node5</title>
<g id="a_edge9_Node000003_Node000005"><a xlink:title=" ">
<path fill="none" stroke="#63b8ff" d="M222.94,-185.02C232.25,-187.72 242.09,-190.92 251,-194.5 267.79,-201.24 270.01,-207.27 287,-213.5 321.84,-226.28 416.77,-245.79 480.05,-258.09"/>
<polygon fill="#63b8ff" stroke="#63b8ff" points="479.44,-261.53 489.92,-260 480.77,-254.66 479.44,-261.53"/>
</a>
</g>
</g>
<!-- Node6 -->
<g id="Node000006" class="node">
<title>Node6</title>
<g id="a_Node000006"><a xlink:href="ModbusWithPostgres_8c.html#a6738c27ba468f4aa7e2039ed83906086" target="_top" xlink:title="Cleanup function for Modbus&#45;PostgreSQL context.">
<polygon fill="white" stroke="#666666" points="404.5,-204 321.5,-204 321.5,-185 404.5,-185 404.5,-204"/>
<text text-anchor="middle" x="363" y="-192" font-family="Helvetica,sans-Serif" font-size="10.00">MbPgCleanup</text>
</a>
</g>
</g>
<!-- Node3&#45;&gt;Node6 -->
<g id="edge5_Node000003_Node000006" class="edge">
<title>Node3&#45;&gt;Node6</title>
<g id="a_edge5_Node000003_Node000006"><a xlink:title=" ">
<path fill="none" stroke="#63b8ff" d="M227.92,-180.15C253.11,-182.84 284.96,-186.25 311.29,-189.07"/>
<polygon fill="#63b8ff" stroke="#63b8ff" points="311.14,-192.58 321.46,-190.16 311.89,-185.62 311.14,-192.58"/>
</a>
</g>
</g>
<!-- Node9 -->
<g id="Node000009" class="node">
<title>Node9</title>
<g id="a_Node000009"><a xlink:href="Thread_8c.html#a6b9ac1c397bc80d499de59fae806cbe1" target="_top" xlink:title="Initialize a thread barrier.">
<polygon fill="white" stroke="#666666" points="404.5,-167 321.5,-167 321.5,-148 404.5,-148 404.5,-167"/>
<text text-anchor="middle" x="363" y="-155" font-family="Helvetica,sans-Serif" font-size="10.00">SdbBarrierInit</text>
</a>
</g>
</g>
<!-- Node3&#45;&gt;Node9 -->
<g id="edge8_Node000003_Node000009" class="edge">
<title>Node3&#45;&gt;Node9</title>
<g id="a_edge8_Node000003_Node000009"><a xlink:title=" ">
<path fill="none" stroke="#63b8ff" d="M227.92,-171.1C253.11,-168.54 284.96,-165.31 311.29,-162.64"/>
<polygon fill="#63b8ff" stroke="#63b8ff" points="311.86,-166.1 321.46,-161.61 311.16,-159.14 311.86,-166.1"/>
</a>
</g>
</g>
<!-- Node10 -->
<g id="Node000010" class="node">
<title>Node10</title>
<g id="a_Node000010"><a xlink:href="SensorDataPipe_8c.html#af2c17a20e06c1a0f02552c36cc2ef0c3" target="_top" xlink:title="Create Sensor Data Pipeline.">
<polygon fill="white" stroke="#666666" points="396.5,-130 329.5,-130 329.5,-111 396.5,-111 396.5,-130"/>
<text text-anchor="middle" x="363" y="-118" font-family="Helvetica,sans-Serif" font-size="10.00">SdpCreate</text>
</a>
</g>
</g>
<!-- Node3&#45;&gt;Node10 -->
<g id="edge10_Node000003_Node000010" class="edge">
<title>Node3&#45;&gt;Node10</title>
<g id="a_edge10_Node000003_Node000010"><a xlink:title=" ">
<path fill="none" stroke="#63b8ff" d="M209.57,-165.99C230.19,-158.33 260.28,-147.56 287,-139.5 297.43,-136.35 308.77,-133.3 319.41,-130.58"/>
<polygon fill="#63b8ff" stroke="#63b8ff" points="320.49,-133.92 329.34,-128.1 318.79,-127.13 320.49,-133.92"/>
</a>
</g>
</g>
<!-- Node15 -->
<g id="Node000015" class="node">
<title>Node15</title>
<g id="a_Node000015"><a xlink:href="ThreadGroup_8c.html#a7b3544a615a6e4b53ca964334bc2a685" target="_top" xlink:title="Create a Thread Group.">
<polygon fill="white" stroke="#666666" points="408,-56 318,-56 318,-37 408,-37 408,-56"/>
<text text-anchor="middle" x="363" y="-44" font-family="Helvetica,sans-Serif" font-size="10.00">TgCreateGroup</text>
</a>
</g>
</g>
<!-- Node3&#45;&gt;Node15 -->
<g id="edge15_Node000003_Node000015" class="edge">
<title>Node3&#45;&gt;Node15</title>
<g id="a_edge15_Node000003_Node000015"><a xlink:title=" ">
<path fill="none" stroke="#63b8ff" d="M197.84,-165.8C228.29,-143.67 303.16,-89.26 340.33,-62.25"/>
<polygon fill="#63b8ff" stroke="#63b8ff" points="342.47,-65.02 348.5,-56.31 338.36,-59.36 342.47,-65.02"/>
</a>
</g>
</g>
<!-- Node4&#45;&gt;Node5 -->
<g id="edge4_Node000004_Node000005" class="edge">
<title>Node4&#45;&gt;Node5</title>
<g id="a_edge4_Node000004_Node000005"><a xlink:title=" ">
<path fill="none" stroke="#63b8ff" d="M439.11,-270.07C447.58,-270.03 456.22,-269.98 464.7,-269.93"/>
<polygon fill="#63b8ff" stroke="#63b8ff" points="464.96,-273.43 474.94,-269.87 464.92,-266.43 464.96,-273.43"/>
</a>
</g>
</g>
<!-- Node7 -->
<g id="Node000007" class="node">
<title>Node7</title>
<g id="a_Node000007"><a xlink:href="Thread_8c.html#a9cb4c8bef2fd99915d71913855bbd5c1" target="_top" xlink:title="Deinitialize a thread barrier.">
<polygon fill="white" stroke="#666666" points="590,-241 493,-241 493,-222 590,-222 590,-241"/>
<text text-anchor="middle" x="541.5" y="-229" font-family="Helvetica,sans-Serif" font-size="10.00">SdbBarrierDeinit</text>
</a>
</g>
</g>
<!-- Node6&#45;&gt;Node7 -->
<g id="edge6_Node000006_Node000007" class="edge">
<title>Node6&#45;&gt;Node7</title>
<g id="a_edge6_Node000006_Node000007"><a xlink:title=" ">
<path fill="none" stroke="#63b8ff" d="M404.94,-203.08C428.76,-208.08 459.12,-214.44 485.06,-219.88"/>
<polygon fill="#63b8ff" stroke="#63b8ff" points="484.63,-223.36 495.13,-221.99 486.06,-216.51 484.63,-223.36"/>
</a>
</g>
</g>
<!-- Node8 -->
<g id="Node000008" class="node">
<title>Node8</title>
<g id="a_Node000008"><a xlink:href="SensorDataPipe_8c.html#a6bcca74f25bea60fddde9dbadf2f46e7" target="_top" xlink:title="Destroy Sensor Data Pipeline.">
<polygon fill="white" stroke="#666666" points="578,-204 505,-204 505,-185 578,-185 578,-204"/>
<text text-anchor="middle" x="541.5" y="-192" font-family="Helvetica,sans-Serif" font-size="10.00">SdpDestroy</text>
</a>
</g>
</g>
<!-- Node6&#45;&gt;Node8 -->
<g id="edge7_Node000006_Node000008" class="edge">
<title>Node6&#45;&gt;Node8</title>
<g id="a_edge7_Node000006_Node000008"><a xlink:title=" ">
<path fill="none" stroke="#63b8ff" d="M404.94,-194.5C431.76,-194.5 466.85,-194.5 494.61,-194.5"/>
<polygon fill="#63b8ff" stroke="#63b8ff" points="494.86,-198 504.86,-194.5 494.86,-191 494.86,-198"/>
</a>
</g>
</g>
<!-- Node11 -->
<g id="Node000011" class="node">
<title>Node11</title>
<g id="a_Node000011"><a xlink:href="Sdb_8h.html#aaf34881f50372f5c1932078f4439bc5a" target="_top" xlink:title=" ">
<polygon fill="white" stroke="#666666" points="596.5,-167 486.5,-167 486.5,-148 596.5,-148 596.5,-167"/>
<text text-anchor="middle" x="541.5" y="-155" font-family="Helvetica,sans-Serif" font-size="10.00">SdbArenaBootstrap</text>
</a>
</g>
</g>
<!-- Node10&#45;&gt;Node11 -->
<g id="edge11_Node000010_Node000011" class="edge">
<title>Node10&#45;&gt;Node11</title>
<g id="a_edge11_Node000010_Node000011"><a xlink:title=" ">
<path fill="none" stroke="#63b8ff" d="M396.78,-127.37C421.49,-132.55 455.94,-139.77 484.92,-145.85"/>
<polygon fill="#63b8ff" stroke="#63b8ff" points="484.41,-149.32 494.92,-147.94 485.85,-142.47 484.41,-149.32"/>
</a>
</g>
</g>
<!-- Node12 -->
<g id="Node000012" class="node">
<title>Node12</title>
<g id="a_Node000012"><a xlink:href="Sdb_8h.html#a05ee63d567b60fbc2b9e6732f4154a48" target="_top" xlink:title=" ">
<polygon fill="white" stroke="#666666" points="590.5,-130 492.5,-130 492.5,-111 590.5,-111 590.5,-130"/>
<text text-anchor="middle" x="541.5" y="-118" font-family="Helvetica,sans-Serif" font-size="10.00">SdbArenaGetPos</text>
</a>
</g>
</g>
<!-- Node10&#45;&gt;Node12 -->
<g id="edge12_Node000010_Node000012" class="edge">
<title>Node10&#45;&gt;Node12</title>
<g id="a_edge12_Node000010_Node000012"><a xlink:title=" ">
<path fill="none" stroke="#63b8ff" d="M396.78,-120.5C420.67,-120.5 453.67,-120.5 482.02,-120.5"/>
<polygon fill="#63b8ff" stroke="#63b8ff" points="482.23,-124 492.23,-120.5 482.23,-117 482.23,-124"/>
</a>
</g>
</g>
<!-- Node13 -->
<g id="Node000013" class="node">
<title>Node13</title>
<g id="a_Node000013"><a xlink:href="Sdb_8h.html#ab63e953fd90c628d5c0727287df66fab" target="_top" xlink:title=" ">
<polygon fill="white" stroke="#666666" points="581,-93 502,-93 502,-74 581,-74 581,-93"/>
<text text-anchor="middle" x="541.5" y="-81" font-family="Helvetica,sans-Serif" font-size="10.00">SdbArenaInit</text>
</a>
</g>
</g>
<!-- Node10&#45;&gt;Node13 -->
<g id="edge13_Node000010_Node000013" class="edge">
<title>Node10&#45;&gt;Node13</title>
<g id="a_edge13_Node000010_Node000013"><a xlink:title=" ">
<path fill="none" stroke="#63b8ff" d="M396.78,-113.63C423.48,-108.03 461.55,-100.05 491.8,-93.71"/>
<polygon fill="#63b8ff" stroke="#63b8ff" points="492.67,-97.1 501.74,-91.63 491.23,-90.25 492.67,-97.1"/>
</a>
</g>
</g>
<!-- Node14 -->
<g id="Node000014" class="node">
<title>Node14</title>
<g id="a_Node000014"><a xlink:href="Sdb_8h.html#a9a812984d9d5b96c810aea56d3cb526d" target="_top" xlink:title=" ">
<polygon fill="white" stroke="#666666" points="585,-56 498,-56 498,-37 585,-37 585,-56"/>
<text text-anchor="middle" x="541.5" y="-44" font-family="Helvetica,sans-Serif" font-size="10.00">SdbArenaSeek</text>
</a>
</g>
</g>
<!-- Node10&#45;&gt;Node14 -->
<g id="edge14_Node000010_Node000014" class="edge">
<title>Node10&#45;&gt;Node14</title>
<g id="a_edge14_Node000010_Node000014"><a xlink:title=" ">
<path fill="none" stroke="#63b8ff" d="M380.88,-110.96C402.27,-99.13 440.53,-78.92 475,-65.5 480.94,-63.19 487.27,-61.01 493.58,-59.01"/>
<polygon fill="#63b8ff" stroke="#63b8ff" points="494.85,-62.28 503.4,-56.02 492.81,-55.58 494.85,-62.28"/>
</a>
</g>
</g>
<!-- Node16 -->
<g id="Node000016" class="node">
<title>Node16</title>
<g id="a_Node000016"><a xlink:href="Sdb_8h.html#a9b1bdb21ac42d86edd96d53d49da1760" target="_top" xlink:title=" ">
<polygon fill="white" stroke="#666666" points="580,-19 503,-19 503,0 580,0 580,-19"/>
<text text-anchor="middle" x="541.5" y="-7" font-family="Helvetica,sans-Serif" font-size="10.00">SdbMemcpy</text>
</a>
</g>
</g>
<!-- Node15&#45;&gt;Node16 -->
<g id="edge16_Node000015_Node000016" class="edge">
<title>Node15&#45;&gt;Node16</title>
<g id="a_edge16_Node000015_Node000016"><a xlink:title=" ">
<path fill="none" stroke="#63b8ff" d="M408.08,-37.26C433.98,-31.83 466.71,-24.97 493.15,-19.43"/>
<polygon fill="#63b8ff" stroke="#63b8ff" points="493.88,-22.85 502.95,-17.37 492.44,-16 493.88,-22.85"/>
</a>
</g>
</g>
</g>
</svg>

<g id="navigator" transform="translate(0 0)" fill="#404254">
  <rect fill="#f2f5e9" fill-opacity="0.5" stroke="#606060" stroke-width=".5" x="0" y="0" width="60" height="60"/>
  <use id="zoomplus" xlink:href="#zoomPlus" x="17" y="9" onmousedown="handleZoom(evt,'in')"/>
  <use id="zoomminus" xlink:href="#zoomMin" x="42" y="9" onmousedown="handleZoom(evt,'out')"/>
  <use id="reset" xlink:href="#resetDef" x="30" y="36" onmousedown="handleReset()"/>
   <use id="arrowup" xlink:href="#arrowUp" x="0" y="0" onmousedown="handlePan(0,-1)"/>
  <use id="arrowright" xlink:href="#arrowRight" x="0" y="0" onmousedown="handlePan(1,0)"/>
  <use id="arrowdown" xlink:href="#arrowDown" x="0" y="0" onmousedown="handlePan(0,1)"/>
  <use id="arrowleft" xlink:href="#arrowLeft" x="0" y="0" onmousedown="handlePan(-1,0)"/>
</g>
<svg viewBox="0 0 15 15" width="100%" height="30px" preserveAspectRatio="xMaxYMin meet">
 <g id="arrow_out" transform="scale(0.3 0.3)">
  <a xlink:href="DataHandlers_8h_a1045578fac74308a6c876c8b06299b50_cgraph_org.svg" target="_base">
   <rect id="button" ry="5" rx="5" y="6" x="6" height="38" width="38"
        fill="#f2f5e9" fill-opacity="0.5" stroke="#606060" stroke-width="1.0"/>
   <path id="arrow"
     d="M 11.500037,31.436501 C 11.940474,20.09759 22.043105,11.32322 32.158766,21.979434 L 37.068811,17.246167 C 37.068811,17.246167 37.088388,32 37.088388,32 L 22.160133,31.978069 C 22.160133,31.978069 26.997745,27.140456 26.997745,27.140456 C 18.528582,18.264221 13.291696,25.230495 11.500037,31.436501 z"
     style="fill:#404040;"/>
  </a>
 </g>
</svg>

<style type='text/css'>
<![CDATA[
[data-mouse-over-selected='false'] { opacity: 0.7; }
[data-mouse-over-selected='true']  { opacity: 1.0; }
]]>
</style>
<script type="application/ecmascript"><![CDATA[
document.addEventListener('DOMContentLoaded', (event) => {
  highlightEdges();
  highlightAdjacentNodes();
});
]]></script>
</svg>
