<?xml version="1.0" encoding="UTF-8" standalone="no"?>
<!DOCTYPE svg PUBLIC "-//W3C//DTD SVG 1.1//EN"
 "http://www.w3.org/Graphics/SVG/1.1/DTD/svg11.dtd">
<!-- Generated by graphviz version 2.43.0 (0)
 -->
<!-- Title: src/DataHandlers/DataHandlers.h Pages: 1 -->
<svg width="1241pt" height="308pt"
 viewBox="0.00 0.00 1240.50 308.00" xmlns="http://www.w3.org/2000/svg" xmlns:xlink="http://www.w3.org/1999/xlink">
<g id="graph0" class="graph" transform="scale(1 1) rotate(0) translate(4 304)">
<title>src/DataHandlers/DataHandlers.h</title>
<polygon fill="white" stroke="transparent" points="-4,4 -4,-304 1236.5,-304 1236.5,4 -4,4"/>
<!-- Node1 -->
<g id="node1" class="node">
<title>Node1</title>
<g id="a_node1"><a xlink:title="Data Handler Management for Thread Group Creation.">
<polygon fill="#bfbfbf" stroke="black" points="730.5,-280.5 730.5,-299.5 909.5,-299.5 909.5,-280.5 730.5,-280.5"/>
<text text-anchor="middle" x="820" y="-287.5" font-family="Helvetica,sans-Serif" font-size="10.00">src/DataHandlers/DataHandlers.h</text>
</a>
</g>
</g>
<!-- Node2 -->
<g id="node2" class="node">
<title>Node2</title>
<g id="a_node2"><a xlink:href="Sdb_8h.html" target="_top" xlink:title=" ">
<polygon fill="white" stroke="black" points="675.5,-56.5 675.5,-75.5 736.5,-75.5 736.5,-56.5 675.5,-56.5"/>
<text text-anchor="middle" x="706" y="-63.5" font-family="Helvetica,sans-Serif" font-size="10.00">src/Sdb.h</text>
</a>
</g>
</g>
<!-- Node1&#45;&gt;Node2 -->
<g id="edge1" class="edge">
<title>Node1&#45;&gt;Node2</title>
<path fill="none" stroke="midnightblue" d="M788.57,-280.42C769.78,-273.64 747.07,-262.2 734,-244 699.27,-195.64 700.82,-120.67 703.81,-85.9"/>
<polygon fill="midnightblue" stroke="midnightblue" points="707.32,-86.05 704.83,-75.75 700.35,-85.35 707.32,-86.05"/>
</g>
<!-- Node20 -->
<g id="node20" class="node">
<title>Node20</title>
<g id="a_node20"><a xlink:href="ThreadGroup_8h.html" target="_top" xlink:title="Thread Group Management System.">
<polygon fill="white" stroke="black" points="743.5,-224.5 743.5,-243.5 896.5,-243.5 896.5,-224.5 743.5,-224.5"/>
<text text-anchor="middle" x="820" y="-231.5" font-family="Helvetica,sans-Serif" font-size="10.00">src/Common/ThreadGroup.h</text>
</a>
</g>
</g>
<!-- Node1&#45;&gt;Node20 -->
<g id="edge19" class="edge">
<title>Node1&#45;&gt;Node20</title>
<path fill="none" stroke="midnightblue" d="M820,-280.08C820,-273.01 820,-262.86 820,-253.99"/>
<polygon fill="midnightblue" stroke="midnightblue" points="823.5,-253.75 820,-243.75 816.5,-253.75 823.5,-253.75"/>
</g>
<!-- Node25 -->
<g id="node25" class="node">
<title>Node25</title>
<g id="a_node25"><a xlink:href="cJSON_8h.html" target="_top" xlink:title=" ">
<polygon fill="white" stroke="black" points="988.5,-224.5 988.5,-243.5 1115.5,-243.5 1115.5,-224.5 988.5,-224.5"/>
<text text-anchor="middle" x="1052" y="-231.5" font-family="Helvetica,sans-Serif" font-size="10.00">src/Libs/cJSON/cJSON.h</text>
</a>
</g>
</g>
<!-- Node1&#45;&gt;Node25 -->
<g id="edge31" class="edge">
<title>Node1&#45;&gt;Node25</title>
<path fill="none" stroke="midnightblue" d="M856.76,-280.44C897.06,-271.06 961.81,-255.99 1005.58,-245.8"/>
<polygon fill="midnightblue" stroke="midnightblue" points="1006.46,-249.19 1015.41,-243.52 1004.88,-242.37 1006.46,-249.19"/>
</g>
<!-- Node3 -->
<g id="node3" class="node">
<title>Node3</title>
<g id="a_node3"><a xlink:title=" ">
<polygon fill="white" stroke="#bfbfbf" points="403,-0.5 403,-19.5 459,-19.5 459,-0.5 403,-0.5"/>
<text text-anchor="middle" x="431" y="-7.5" font-family="Helvetica,sans-Serif" font-size="10.00">assert.h</text>
</a>
</g>
</g>
<!-- Node2&#45;&gt;Node3 -->
<g id="edge2" class="edge">
<title>Node2&#45;&gt;Node3</title>
<path fill="none" stroke="midnightblue" d="M675.47,-59.75C631.94,-52.15 549.33,-37.31 469.47,-20.23"/>
<polygon fill="midnightblue" stroke="midnightblue" points="469.76,-16.71 459.25,-18.03 468.29,-23.56 469.76,-16.71"/>
</g>
<!-- Node4 -->
<g id="node4" class="node">
<title>Node4</title>
<g id="a_node4"><a xlink:title=" ">
<polygon fill="white" stroke="#bfbfbf" points="477.5,-0.5 477.5,-19.5 530.5,-19.5 530.5,-0.5 477.5,-0.5"/>
<text text-anchor="middle" x="504" y="-7.5" font-family="Helvetica,sans-Serif" font-size="10.00">ctype.h</text>
</a>
</g>
</g>
<!-- Node2&#45;&gt;Node4 -->
<g id="edge3" class="edge">
<title>Node2&#45;&gt;Node4</title>
<path fill="none" stroke="midnightblue" d="M675.32,-56.8C639.15,-47.13 579.1,-31.08 540.55,-20.77"/>
<polygon fill="midnightblue" stroke="midnightblue" points="541.33,-17.36 530.76,-18.15 539.52,-24.12 541.33,-17.36"/>
</g>
<!-- Node5 -->
<g id="node5" class="node">
<title>Node5</title>
<g id="a_node5"><a xlink:title=" ">
<polygon fill="white" stroke="#bfbfbf" points="548.5,-0.5 548.5,-19.5 599.5,-19.5 599.5,-0.5 548.5,-0.5"/>
<text text-anchor="middle" x="574" y="-7.5" font-family="Helvetica,sans-Serif" font-size="10.00">errno.h</text>
</a>
</g>
</g>
<!-- Node2&#45;&gt;Node5 -->
<g id="edge4" class="edge">
<title>Node2&#45;&gt;Node5</title>
<path fill="none" stroke="midnightblue" d="M685.08,-56.44C663.26,-47.52 628.85,-33.44 604.11,-23.32"/>
<polygon fill="midnightblue" stroke="midnightblue" points="605.4,-20.06 594.82,-19.52 602.75,-26.54 605.4,-20.06"/>
</g>
<!-- Node6 -->
<g id="node6" class="node">
<title>Node6</title>
<g id="a_node6"><a xlink:title=" ">
<polygon fill="white" stroke="#bfbfbf" points="617.5,-0.5 617.5,-19.5 664.5,-19.5 664.5,-0.5 617.5,-0.5"/>
<text text-anchor="middle" x="641" y="-7.5" font-family="Helvetica,sans-Serif" font-size="10.00">fcntl.h</text>
</a>
</g>
</g>
<!-- Node2&#45;&gt;Node6 -->
<g id="edge5" class="edge">
<title>Node2&#45;&gt;Node6</title>
<path fill="none" stroke="midnightblue" d="M695.56,-56.32C685.85,-48.26 671.18,-36.08 659.5,-26.37"/>
<polygon fill="midnightblue" stroke="midnightblue" points="661.56,-23.53 651.63,-19.83 657.09,-28.92 661.56,-23.53"/>
</g>
<!-- Node7 -->
<g id="node7" class="node">
<title>Node7</title>
<g id="a_node7"><a xlink:title=" ">
<polygon fill="white" stroke="#bfbfbf" points="682.5,-0.5 682.5,-19.5 729.5,-19.5 729.5,-0.5 682.5,-0.5"/>
<text text-anchor="middle" x="706" y="-7.5" font-family="Helvetica,sans-Serif" font-size="10.00">float.h</text>
</a>
</g>
</g>
<!-- Node2&#45;&gt;Node7 -->
<g id="edge6" class="edge">
<title>Node2&#45;&gt;Node7</title>
<path fill="none" stroke="midnightblue" d="M706,-56.08C706,-49.01 706,-38.86 706,-29.99"/>
<polygon fill="midnightblue" stroke="midnightblue" points="709.5,-29.75 706,-19.75 702.5,-29.75 709.5,-29.75"/>
</g>
<!-- Node8 -->
<g id="node8" class="node">
<title>Node8</title>
<g id="a_node8"><a xlink:title=" ">
<polygon fill="white" stroke="#bfbfbf" points="747.5,-0.5 747.5,-19.5 798.5,-19.5 798.5,-0.5 747.5,-0.5"/>
<text text-anchor="middle" x="773" y="-7.5" font-family="Helvetica,sans-Serif" font-size="10.00">math.h</text>
</a>
</g>
</g>
<!-- Node2&#45;&gt;Node8 -->
<g id="edge7" class="edge">
<title>Node2&#45;&gt;Node8</title>
<path fill="none" stroke="midnightblue" d="M716.76,-56.32C726.77,-48.26 741.89,-36.08 753.93,-26.37"/>
<polygon fill="midnightblue" stroke="midnightblue" points="756.45,-28.83 762.04,-19.83 752.06,-23.38 756.45,-28.83"/>
</g>
<!-- Node9 -->
<g id="node9" class="node">
<title>Node9</title>
<g id="a_node9"><a xlink:title=" ">
<polygon fill="white" stroke="#bfbfbf" points="1169.5,-0.5 1169.5,-19.5 1232.5,-19.5 1232.5,-0.5 1169.5,-0.5"/>
<text text-anchor="middle" x="1201" y="-7.5" font-family="Helvetica,sans-Serif" font-size="10.00">pthread.h</text>
</a>
</g>
</g>
<!-- Node2&#45;&gt;Node9 -->
<g id="edge8" class="edge">
<title>Node2&#45;&gt;Node9</title>
<path fill="none" stroke="midnightblue" d="M736.71,-63.2C808.69,-58.73 993.98,-45.67 1158.95,-19.98"/>
<polygon fill="midnightblue" stroke="midnightblue" points="1159.95,-23.36 1169.29,-18.35 1158.86,-16.45 1159.95,-23.36"/>
</g>
<!-- Node10 -->
<g id="node10" class="node">
<title>Node10</title>
<g id="a_node10"><a xlink:title=" ">
<polygon fill="white" stroke="#bfbfbf" points="817,-0.5 817,-19.5 873,-19.5 873,-0.5 817,-0.5"/>
<text text-anchor="middle" x="845" y="-7.5" font-family="Helvetica,sans-Serif" font-size="10.00">stdarg.h</text>
</a>
</g>
</g>
<!-- Node2&#45;&gt;Node10 -->
<g id="edge9" class="edge">
<title>Node2&#45;&gt;Node10</title>
<path fill="none" stroke="midnightblue" d="M728.02,-56.44C751.1,-47.48 787.56,-33.31 813.64,-23.18"/>
<polygon fill="midnightblue" stroke="midnightblue" points="815.02,-26.4 823.08,-19.52 812.49,-19.88 815.02,-26.4"/>
</g>
<!-- Node11 -->
<g id="node11" class="node">
<title>Node11</title>
<g id="a_node11"><a xlink:title=" ">
<polygon fill="white" stroke="#bfbfbf" points="891.5,-0.5 891.5,-19.5 944.5,-19.5 944.5,-0.5 891.5,-0.5"/>
<text text-anchor="middle" x="918" y="-7.5" font-family="Helvetica,sans-Serif" font-size="10.00">stdint.h</text>
</a>
</g>
</g>
<!-- Node2&#45;&gt;Node11 -->
<g id="edge10" class="edge">
<title>Node2&#45;&gt;Node11</title>
<path fill="none" stroke="midnightblue" d="M736.83,-57.15C775.26,-47.36 840.85,-30.65 881.68,-20.25"/>
<polygon fill="midnightblue" stroke="midnightblue" points="882.66,-23.61 891.49,-17.75 880.94,-16.83 882.66,-23.61"/>
</g>
<!-- Node12 -->
<g id="node12" class="node">
<title>Node12</title>
<g id="a_node12"><a xlink:title=" ">
<polygon fill="white" stroke="#bfbfbf" points="963,-0.5 963,-19.5 1013,-19.5 1013,-0.5 963,-0.5"/>
<text text-anchor="middle" x="988" y="-7.5" font-family="Helvetica,sans-Serif" font-size="10.00">stdio.h</text>
</a>
</g>
</g>
<!-- Node2&#45;&gt;Node12 -->
<g id="edge11" class="edge">
<title>Node2&#45;&gt;Node12</title>
<path fill="none" stroke="midnightblue" d="M736.7,-60.23C781.92,-53.04 869.28,-38.48 952.89,-20.11"/>
<polygon fill="midnightblue" stroke="midnightblue" points="953.8,-23.49 962.8,-17.91 952.28,-16.66 953.8,-23.49"/>
</g>
<!-- Node13 -->
<g id="node13" class="node">
<title>Node13</title>
<g id="a_node13"><a xlink:title=" ">
<polygon fill="white" stroke="#bfbfbf" points="1031.5,-0.5 1031.5,-19.5 1084.5,-19.5 1084.5,-0.5 1031.5,-0.5"/>
<text text-anchor="middle" x="1058" y="-7.5" font-family="Helvetica,sans-Serif" font-size="10.00">stdlib.h</text>
</a>
</g>
</g>
<!-- Node2&#45;&gt;Node13 -->
<g id="edge12" class="edge">
<title>Node2&#45;&gt;Node13</title>
<path fill="none" stroke="midnightblue" d="M736.68,-61.7C791.69,-55.56 910.87,-41.2 1021.36,-19.94"/>
<polygon fill="midnightblue" stroke="midnightblue" points="1022.19,-23.34 1031.33,-17.99 1020.85,-16.47 1022.19,-23.34"/>
</g>
<!-- Node14 -->
<g id="node14" class="node">
<title>Node14</title>
<g id="a_node14"><a xlink:title=" ">
<polygon fill="white" stroke="#bfbfbf" points="80.5,-0.5 80.5,-19.5 133.5,-19.5 133.5,-0.5 80.5,-0.5"/>
<text text-anchor="middle" x="107" y="-7.5" font-family="Helvetica,sans-Serif" font-size="10.00">string.h</text>
</a>
</g>
</g>
<!-- Node2&#45;&gt;Node14 -->
<g id="edge13" class="edge">
<title>Node2&#45;&gt;Node14</title>
<path fill="none" stroke="midnightblue" d="M675.2,-64.4C591.27,-62.37 351.42,-53.97 143.82,-20.04"/>
<polygon fill="midnightblue" stroke="midnightblue" points="144.09,-16.54 133.65,-18.36 142.94,-23.45 144.09,-16.54"/>
</g>
<!-- Node15 -->
<g id="node15" class="node">
<title>Node15</title>
<g id="a_node15"><a xlink:title=" ">
<polygon fill="white" stroke="#bfbfbf" points="151.5,-0.5 151.5,-19.5 228.5,-19.5 228.5,-0.5 151.5,-0.5"/>
<text text-anchor="middle" x="190" y="-7.5" font-family="Helvetica,sans-Serif" font-size="10.00">sys/mman.h</text>
</a>
</g>
</g>
<!-- Node2&#45;&gt;Node15 -->
<g id="edge14" class="edge">
<title>Node2&#45;&gt;Node15</title>
<path fill="none" stroke="midnightblue" d="M675.22,-63C601.64,-58.01 409.57,-43.78 238.65,-19.97"/>
<polygon fill="midnightblue" stroke="midnightblue" points="239.11,-16.5 228.72,-18.57 238.14,-23.43 239.11,-16.5"/>
</g>
<!-- Node16 -->
<g id="node16" class="node">
<title>Node16</title>
<g id="a_node16"><a xlink:title=" ">
<polygon fill="white" stroke="#bfbfbf" points="247,-0.5 247,-19.5 311,-19.5 311,-0.5 247,-0.5"/>
<text text-anchor="middle" x="279" y="-7.5" font-family="Helvetica,sans-Serif" font-size="10.00">sys/stat.h</text>
</a>
</g>
</g>
<!-- Node2&#45;&gt;Node16 -->
<g id="edge15" class="edge">
<title>Node2&#45;&gt;Node16</title>
<path fill="none" stroke="midnightblue" d="M675.33,-62.48C611.34,-56.98 458.79,-42.72 321.06,-20.03"/>
<polygon fill="midnightblue" stroke="midnightblue" points="321.61,-16.57 311.17,-18.38 320.46,-23.48 321.61,-16.57"/>
</g>
<!-- Node17 -->
<g id="node17" class="node">
<title>Node17</title>
<g id="a_node17"><a xlink:title=" ">
<polygon fill="white" stroke="#bfbfbf" points="1103,-0.5 1103,-19.5 1151,-19.5 1151,-0.5 1103,-0.5"/>
<text text-anchor="middle" x="1127" y="-7.5" font-family="Helvetica,sans-Serif" font-size="10.00">time.h</text>
</a>
</g>
</g>
<!-- Node2&#45;&gt;Node17 -->
<g id="edge16" class="edge">
<title>Node2&#45;&gt;Node17</title>
<path fill="none" stroke="midnightblue" d="M736.67,-63.02C801.02,-58.54 954.9,-46.04 1093.03,-19.91"/>
<polygon fill="midnightblue" stroke="midnightblue" points="1093.79,-23.33 1102.95,-18.01 1092.47,-16.46 1093.79,-23.33"/>
</g>
<!-- Node18 -->
<g id="node18" class="node">
<title>Node18</title>
<g id="a_node18"><a xlink:title=" ">
<polygon fill="white" stroke="#bfbfbf" points="329,-0.5 329,-19.5 385,-19.5 385,-0.5 329,-0.5"/>
<text text-anchor="middle" x="357" y="-7.5" font-family="Helvetica,sans-Serif" font-size="10.00">unistd.h</text>
</a>
</g>
</g>
<!-- Node2&#45;&gt;Node18 -->
<g id="edge17" class="edge">
<title>Node2&#45;&gt;Node18</title>
<path fill="none" stroke="midnightblue" d="M675.28,-61.56C620.85,-55.24 503.73,-40.7 395.34,-20.1"/>
<polygon fill="midnightblue" stroke="midnightblue" points="395.7,-16.61 385.22,-18.16 394.38,-23.48 395.7,-16.61"/>
</g>
<!-- Node19 -->
<g id="node19" class="node">
<title>Node19</title>
<g id="a_node19"><a xlink:title=" ">
<polygon fill="white" stroke="#bfbfbf" points="0,-0.5 0,-19.5 62,-19.5 62,-0.5 0,-0.5"/>
<text text-anchor="middle" x="31" y="-7.5" font-family="Helvetica,sans-Serif" font-size="10.00">stdbool.h</text>
</a>
</g>
</g>
<!-- Node2&#45;&gt;Node19 -->
<g id="edge18" class="edge">
<title>Node2&#45;&gt;Node19</title>
<path fill="none" stroke="midnightblue" d="M675.42,-64.46C584.79,-62.53 309.66,-54.17 72.55,-20.01"/>
<polygon fill="midnightblue" stroke="midnightblue" points="72.76,-16.51 62.36,-18.52 71.75,-23.43 72.76,-16.51"/>
</g>
<!-- Node20&#45;&gt;Node2 -->
<g id="edge22" class="edge">
<title>Node20&#45;&gt;Node2</title>
<path fill="none" stroke="midnightblue" d="M810.7,-224.2C801.76,-215.48 788.14,-201.5 778,-188 752.06,-153.44 727.62,-108.93 714.97,-84.67"/>
<polygon fill="midnightblue" stroke="midnightblue" points="717.99,-82.9 710.3,-75.61 711.77,-86.1 717.99,-82.9"/>
</g>
<!-- Node20&#45;&gt;Node9 -->
<g id="edge20" class="edge">
<title>Node20&#45;&gt;Node9</title>
<path fill="none" stroke="midnightblue" d="M839.62,-224.38C859.85,-215.45 892.24,-201 920,-188 971.48,-163.89 986.28,-161.3 1035,-132 1091.46,-98.04 1152.89,-50.07 1182.71,-26"/>
<polygon fill="midnightblue" stroke="midnightblue" points="1185.02,-28.63 1190.58,-19.61 1180.61,-23.2 1185.02,-28.63"/>
</g>
<!-- Node20&#45;&gt;Node19 -->
<g id="edge21" class="edge">
<title>Node20&#45;&gt;Node19</title>
<path fill="none" stroke="midnightblue" d="M789.55,-224.43C667.02,-189.96 209.88,-61.33 71.16,-22.3"/>
<polygon fill="midnightblue" stroke="midnightblue" points="71.93,-18.88 61.36,-19.54 70.03,-25.62 71.93,-18.88"/>
</g>
<!-- Node21 -->
<g id="node21" class="node">
<title>Node21</title>
<g id="a_node21"><a xlink:href="Thread_8h.html" target="_top" xlink:title="Lightweight Synchronization Primitives Wrapper.">
<polygon fill="white" stroke="black" points="787,-168.5 787,-187.5 911,-187.5 911,-168.5 787,-168.5"/>
<text text-anchor="middle" x="849" y="-175.5" font-family="Helvetica,sans-Serif" font-size="10.00">src/Common/Thread.h</text>
</a>
</g>
</g>
<!-- Node20&#45;&gt;Node21 -->
<g id="edge23" class="edge">
<title>Node20&#45;&gt;Node21</title>
<path fill="none" stroke="midnightblue" d="M824.79,-224.08C828.76,-216.69 834.53,-205.95 839.43,-196.81"/>
<polygon fill="midnightblue" stroke="midnightblue" points="842.65,-198.22 844.3,-187.75 836.49,-194.91 842.65,-198.22"/>
</g>
<!-- Node21&#45;&gt;Node2 -->
<g id="edge26" class="edge">
<title>Node21&#45;&gt;Node2</title>
<path fill="none" stroke="midnightblue" d="M835.33,-168.48C821.56,-159.75 799.85,-145.56 782,-132 761,-116.05 738.17,-96.15 723.07,-82.6"/>
<polygon fill="midnightblue" stroke="midnightblue" points="725.3,-79.9 715.54,-75.79 720.61,-85.09 725.3,-79.9"/>
</g>
<!-- Node21&#45;&gt;Node9 -->
<g id="edge24" class="edge">
<title>Node21&#45;&gt;Node9</title>
<path fill="none" stroke="midnightblue" d="M911.39,-171.61C944.68,-166.05 984.7,-154.79 1014,-132 1044.63,-108.17 1026.81,-80.38 1057,-56 1072.88,-43.18 1122.79,-29.29 1159.42,-20.38"/>
<polygon fill="midnightblue" stroke="midnightblue" points="1160.44,-23.74 1169.35,-18.01 1158.81,-16.93 1160.44,-23.74"/>
</g>
<!-- Node22 -->
<g id="node22" class="node">
<title>Node22</title>
<g id="a_node22"><a xlink:title=" ">
<polygon fill="white" stroke="#bfbfbf" points="925,-112.5 925,-131.5 1005,-131.5 1005,-112.5 925,-112.5"/>
<text text-anchor="middle" x="965" y="-119.5" font-family="Helvetica,sans-Serif" font-size="10.00">semaphore.h</text>
</a>
</g>
</g>
<!-- Node21&#45;&gt;Node22 -->
<g id="edge25" class="edge">
<title>Node21&#45;&gt;Node22</title>
<path fill="none" stroke="midnightblue" d="M867.38,-168.44C886.22,-159.68 915.73,-145.94 937.38,-135.86"/>
<polygon fill="midnightblue" stroke="midnightblue" points="939.12,-138.91 946.71,-131.52 936.16,-132.56 939.12,-138.91"/>
</g>
<!-- Node23 -->
<g id="node23" class="node">
<title>Node23</title>
<g id="a_node23"><a xlink:href="Time_8h.html" target="_top" xlink:title="Lightweight Time Manipulation Utilities.">
<polygon fill="white" stroke="black" points="791.5,-112.5 791.5,-131.5 906.5,-131.5 906.5,-112.5 791.5,-112.5"/>
<text text-anchor="middle" x="849" y="-119.5" font-family="Helvetica,sans-Serif" font-size="10.00">src/Common/Time.h</text>
</a>
</g>
</g>
<!-- Node21&#45;&gt;Node23 -->
<g id="edge27" class="edge">
<title>Node21&#45;&gt;Node23</title>
<path fill="none" stroke="midnightblue" d="M849,-168.08C849,-161.01 849,-150.86 849,-141.99"/>
<polygon fill="midnightblue" stroke="midnightblue" points="852.5,-141.75 849,-131.75 845.5,-141.75 852.5,-141.75"/>
</g>
<!-- Node23&#45;&gt;Node2 -->
<g id="edge30" class="edge">
<title>Node23&#45;&gt;Node2</title>
<path fill="none" stroke="midnightblue" d="M826.34,-112.44C802.6,-103.48 765.09,-89.31 738.26,-79.18"/>
<polygon fill="midnightblue" stroke="midnightblue" points="739.14,-75.77 728.55,-75.52 736.67,-82.32 739.14,-75.77"/>
</g>
<!-- Node23&#45;&gt;Node17 -->
<g id="edge29" class="edge">
<title>Node23&#45;&gt;Node17</title>
<path fill="none" stroke="midnightblue" d="M848.95,-112.31C849.38,-98.19 852.42,-70.41 869,-56 943.05,8.36 991.88,-38.23 1092.97,-19.87"/>
<polygon fill="midnightblue" stroke="midnightblue" points="1093.8,-23.28 1102.92,-17.89 1092.43,-16.41 1093.8,-23.28"/>
</g>
<!-- Node24 -->
<g id="node24" class="node">
<title>Node24</title>
<g id="a_node24"><a xlink:title=" ">
<polygon fill="white" stroke="#bfbfbf" points="877.5,-56.5 877.5,-75.5 930.5,-75.5 930.5,-56.5 877.5,-56.5"/>
<text text-anchor="middle" x="904" y="-63.5" font-family="Helvetica,sans-Serif" font-size="10.00">limits.h</text>
</a>
</g>
</g>
<!-- Node23&#45;&gt;Node24 -->
<g id="edge28" class="edge">
<title>Node23&#45;&gt;Node24</title>
<path fill="none" stroke="midnightblue" d="M858.08,-112.08C866.17,-104.14 878.2,-92.34 887.91,-82.8"/>
<polygon fill="midnightblue" stroke="midnightblue" points="890.4,-85.25 895.09,-75.75 885.5,-80.26 890.4,-85.25"/>
</g>
<!-- Node26 -->
<g id="node26" class="node">
<title>Node26</title>
<g id="a_node26"><a xlink:title=" ">
<polygon fill="white" stroke="#bfbfbf" points="1099,-168.5 1099,-187.5 1155,-187.5 1155,-168.5 1099,-168.5"/>
<text text-anchor="middle" x="1127" y="-175.5" font-family="Helvetica,sans-Serif" font-size="10.00">stddef.h</text>
</a>
</g>
</g>
<!-- Node25&#45;&gt;Node26 -->
<g id="edge32" class="edge">
<title>Node25&#45;&gt;Node26</title>
<path fill="none" stroke="midnightblue" d="M1064.05,-224.32C1075.46,-216.11 1092.83,-203.6 1106.43,-193.81"/>
<polygon fill="midnightblue" stroke="midnightblue" points="1108.66,-196.52 1114.73,-187.83 1104.57,-190.84 1108.66,-196.52"/>
</g>
</g>
</svg>
