<?xml version="1.0" encoding="UTF-8" standalone="no"?>
<!DOCTYPE svg PUBLIC "-//W3C//DTD SVG 1.1//EN"
 "http://www.w3.org/Graphics/SVG/1.1/DTD/svg11.dtd">
<!-- Generated by graphviz version 2.43.0 (0)
 -->
<!-- Title: DhsCreateTg Pages: 1 -->
<svg width="616pt" height="294pt"
 viewBox="0.00 0.00 616.00 294.00" xmlns="http://www.w3.org/2000/svg" xmlns:xlink="http://www.w3.org/1999/xlink">
<g id="graph0" class="graph" transform="scale(1 1) rotate(0) translate(4 290)">
<title>DhsCreateTg</title>
<polygon fill="white" stroke="transparent" points="-4,4 -4,-290 612,-290 612,4 -4,4"/>
<!-- Node1 -->
<g id="node1" class="node">
<title>Node1</title>
<g id="a_node1"><a xlink:title="Creates a thread group based on the configuration.">
<polygon fill="#bfbfbf" stroke="black" points="0,-190.5 0,-209.5 80,-209.5 80,-190.5 0,-190.5"/>
<text text-anchor="middle" x="40" y="-197.5" font-family="Helvetica,sans-Serif" font-size="10.00">DhsCreateTg</text>
</a>
</g>
</g>
<!-- Node2 -->
<g id="node2" class="node">
<title>Node2</title>
<g id="a_node2"><a xlink:href="DataHandlers_8c.html#a1f81298204aa5be0dae90f95258fd0c1" target="_top" xlink:title="Converts handler name to its corresponding ID.">
<polygon fill="white" stroke="black" points="116,-209.5 116,-228.5 251,-228.5 251,-209.5 116,-209.5"/>
<text text-anchor="middle" x="183.5" y="-216.5" font-family="Helvetica,sans-Serif" font-size="10.00">GetHandlerIdFromName</text>
</a>
</g>
</g>
<!-- Node1&#45;&gt;Node2 -->
<g id="edge1" class="edge">
<title>Node1&#45;&gt;Node2</title>
<path fill="none" stroke="midnightblue" d="M80.04,-205.24C88.12,-206.33 96.9,-207.51 105.81,-208.7"/>
<polygon fill="midnightblue" stroke="midnightblue" points="105.51,-212.19 115.89,-210.06 106.44,-205.26 105.51,-212.19"/>
</g>
<!-- Node3 -->
<g id="node3" class="node">
<title>Node3</title>
<g id="a_node3"><a xlink:href="ModbusWithPostgres_8c.html#a09939d6694d5620261fa04ffa2af1d11" target="_top" xlink:title="Creates thread group from configuration.">
<polygon fill="white" stroke="black" points="139.5,-171.5 139.5,-190.5 227.5,-190.5 227.5,-171.5 139.5,-171.5"/>
<text text-anchor="middle" x="183.5" y="-178.5" font-family="Helvetica,sans-Serif" font-size="10.00">MbPgCreateTg</text>
</a>
</g>
</g>
<!-- Node1&#45;&gt;Node3 -->
<g id="edge2" class="edge">
<title>Node1&#45;&gt;Node3</title>
<path fill="none" stroke="midnightblue" d="M80.04,-194.76C95.28,-192.71 113,-190.33 129.37,-188.13"/>
<polygon fill="midnightblue" stroke="midnightblue" points="129.91,-191.59 139.36,-186.79 128.98,-184.65 129.91,-191.59"/>
</g>
<!-- Node4 -->
<g id="node4" class="node">
<title>Node4</title>
<g id="a_node4"><a xlink:href="DataHandlers_8c.html#afe9e102250a74bffceba672ba91d9368" target="_top" xlink:title="Extracts memory and scratch sizes from JSON configuration.">
<polygon fill="white" stroke="black" points="287,-266.5 287,-285.5 439,-285.5 439,-266.5 287,-266.5"/>
<text text-anchor="middle" x="363" y="-273.5" font-family="Helvetica,sans-Serif" font-size="10.00">DhsGetMemAndScratchSize</text>
</a>
</g>
</g>
<!-- Node3&#45;&gt;Node4 -->
<g id="edge3" class="edge">
<title>Node3&#45;&gt;Node4</title>
<path fill="none" stroke="midnightblue" d="M227.64,-188.65C235.87,-191.36 244.07,-195.03 251,-200 273.85,-216.37 264.41,-235.27 287,-252 292.82,-256.31 299.43,-259.86 306.27,-262.78"/>
<polygon fill="midnightblue" stroke="midnightblue" points="305.09,-266.08 315.68,-266.4 307.6,-259.55 305.09,-266.08"/>
</g>
<!-- Node5 -->
<g id="node5" class="node">
<title>Node5</title>
<g id="a_node5"><a xlink:href="Sdb_8h.html#a3bc1152307e502260c7363261ded3603" target="_top" xlink:title=" ">
<polygon fill="white" stroke="black" points="475,-266.5 475,-285.5 608,-285.5 608,-266.5 475,-266.5"/>
<text text-anchor="middle" x="541.5" y="-273.5" font-family="Helvetica,sans-Serif" font-size="10.00">SdbMemSizeFromString</text>
</a>
</g>
</g>
<!-- Node3&#45;&gt;Node5 -->
<g id="edge9" class="edge">
<title>Node3&#45;&gt;Node5</title>
<path fill="none" stroke="midnightblue" d="M222.94,-190.52C232.25,-193.22 242.09,-196.42 251,-200 267.79,-206.74 270.03,-212.74 287,-219 322.05,-231.93 417.87,-251.99 481.15,-264.54"/>
<polygon fill="midnightblue" stroke="midnightblue" points="480.52,-267.98 491.01,-266.49 481.88,-261.12 480.52,-267.98"/>
</g>
<!-- Node6 -->
<g id="node6" class="node">
<title>Node6</title>
<g id="a_node6"><a xlink:href="ModbusWithPostgres_8c.html#a6738c27ba468f4aa7e2039ed83906086" target="_top" xlink:title="Cleanup function for Modbus&#45;PostgreSQL context.">
<polygon fill="white" stroke="black" points="321.5,-190.5 321.5,-209.5 404.5,-209.5 404.5,-190.5 321.5,-190.5"/>
<text text-anchor="middle" x="363" y="-197.5" font-family="Helvetica,sans-Serif" font-size="10.00">MbPgCleanup</text>
</a>
</g>
</g>
<!-- Node3&#45;&gt;Node6 -->
<g id="edge5" class="edge">
<title>Node3&#45;&gt;Node6</title>
<path fill="none" stroke="midnightblue" d="M227.92,-185.65C253.11,-188.34 284.96,-191.75 311.29,-194.57"/>
<polygon fill="midnightblue" stroke="midnightblue" points="311.14,-198.08 321.46,-195.66 311.89,-191.12 311.14,-198.08"/>
</g>
<!-- Node9 -->
<g id="node9" class="node">
<title>Node9</title>
<g id="a_node9"><a xlink:href="Thread_8c.html#a6b9ac1c397bc80d499de59fae806cbe1" target="_top" xlink:title="Initialize a thread barrier.">
<polygon fill="white" stroke="black" points="321.5,-152.5 321.5,-171.5 404.5,-171.5 404.5,-152.5 321.5,-152.5"/>
<text text-anchor="middle" x="363" y="-159.5" font-family="Helvetica,sans-Serif" font-size="10.00">SdbBarrierInit</text>
</a>
</g>
</g>
<!-- Node3&#45;&gt;Node9 -->
<g id="edge8" class="edge">
<title>Node3&#45;&gt;Node9</title>
<path fill="none" stroke="midnightblue" d="M227.92,-176.35C253.11,-173.66 284.96,-170.25 311.29,-167.43"/>
<polygon fill="midnightblue" stroke="midnightblue" points="311.89,-170.88 321.46,-166.34 311.14,-163.92 311.89,-170.88"/>
</g>
<!-- Node10 -->
<g id="node10" class="node">
<title>Node10</title>
<g id="a_node10"><a xlink:href="SensorDataPipe_8c.html#aa79e3351208df70a0520943cdade8046" target="_top" xlink:title="Create Sensor Data Pipeline.">
<polygon fill="white" stroke="black" points="329.5,-114.5 329.5,-133.5 396.5,-133.5 396.5,-114.5 329.5,-114.5"/>
<text text-anchor="middle" x="363" y="-121.5" font-family="Helvetica,sans-Serif" font-size="10.00">SdpCreate</text>
</a>
</g>
</g>
<!-- Node3&#45;&gt;Node10 -->
<g id="edge10" class="edge">
<title>Node3&#45;&gt;Node10</title>
<path fill="none" stroke="midnightblue" d="M208.27,-171.36C228.89,-163.2 259.64,-151.51 287,-143 297.4,-139.76 308.74,-136.67 319.37,-133.96"/>
<polygon fill="midnightblue" stroke="midnightblue" points="320.45,-137.3 329.3,-131.48 318.75,-130.51 320.45,-137.3"/>
</g>
<!-- Node15 -->
<g id="node15" class="node">
<title>Node15</title>
<g id="a_node15"><a xlink:href="ThreadGroup_8c.html#af2f3e46faf85d1558bf6170af7e2f408" target="_top" xlink:title="Create a Thread Group.">
<polygon fill="white" stroke="black" points="318,-38.5 318,-57.5 408,-57.5 408,-38.5 318,-38.5"/>
<text text-anchor="middle" x="363" y="-45.5" font-family="Helvetica,sans-Serif" font-size="10.00">TgCreateGroup</text>
</a>
</g>
</g>
<!-- Node3&#45;&gt;Node15 -->
<g id="edge15" class="edge">
<title>Node3&#45;&gt;Node15</title>
<path fill="none" stroke="midnightblue" d="M197.27,-171.43C227.44,-148.83 303.41,-91.9 340.69,-63.96"/>
<polygon fill="midnightblue" stroke="midnightblue" points="342.97,-66.63 348.87,-57.84 338.77,-61.03 342.97,-66.63"/>
</g>
<!-- Node4&#45;&gt;Node5 -->
<g id="edge4" class="edge">
<title>Node4&#45;&gt;Node5</title>
<path fill="none" stroke="midnightblue" d="M439.11,-276C447.58,-276 456.22,-276 464.7,-276"/>
<polygon fill="midnightblue" stroke="midnightblue" points="464.94,-279.5 474.94,-276 464.94,-272.5 464.94,-279.5"/>
</g>
<!-- Node7 -->
<g id="node7" class="node">
<title>Node7</title>
<g id="a_node7"><a xlink:href="Thread_8c.html#a9cb4c8bef2fd99915d71913855bbd5c1" target="_top" xlink:title="Deinitialize a thread barrier.">
<polygon fill="white" stroke="black" points="493,-228.5 493,-247.5 590,-247.5 590,-228.5 493,-228.5"/>
<text text-anchor="middle" x="541.5" y="-235.5" font-family="Helvetica,sans-Serif" font-size="10.00">SdbBarrierDeinit</text>
</a>
</g>
</g>
<!-- Node6&#45;&gt;Node7 -->
<g id="edge6" class="edge">
<title>Node6&#45;&gt;Node7</title>
<path fill="none" stroke="midnightblue" d="M404.94,-208.81C429.14,-214.02 460.08,-220.68 486.29,-226.33"/>
<polygon fill="midnightblue" stroke="midnightblue" points="485.56,-229.75 496.08,-228.44 487.04,-222.91 485.56,-229.75"/>
</g>
<!-- Node8 -->
<g id="node8" class="node">
<title>Node8</title>
<g id="a_node8"><a xlink:href="SensorDataPipe_8c.html#a6bcca74f25bea60fddde9dbadf2f46e7" target="_top" xlink:title="Destroy Sensor Data Pipeline.">
<polygon fill="white" stroke="black" points="505,-190.5 505,-209.5 578,-209.5 578,-190.5 505,-190.5"/>
<text text-anchor="middle" x="541.5" y="-197.5" font-family="Helvetica,sans-Serif" font-size="10.00">SdpDestroy</text>
</a>
</g>
</g>
<!-- Node6&#45;&gt;Node8 -->
<g id="edge7" class="edge">
<title>Node6&#45;&gt;Node8</title>
<path fill="none" stroke="midnightblue" d="M404.94,-200C431.76,-200 466.85,-200 494.61,-200"/>
<polygon fill="midnightblue" stroke="midnightblue" points="494.86,-203.5 504.86,-200 494.86,-196.5 494.86,-203.5"/>
</g>
<!-- Node11 -->
<g id="node11" class="node">
<title>Node11</title>
<g id="a_node11"><a xlink:href="Sdb_8h.html#a132f10c44fe9dab28a9fae8839c099ad" target="_top" xlink:title=" ">
<polygon fill="white" stroke="black" points="486.5,-152.5 486.5,-171.5 596.5,-171.5 596.5,-152.5 486.5,-152.5"/>
<text text-anchor="middle" x="541.5" y="-159.5" font-family="Helvetica,sans-Serif" font-size="10.00">SdbArenaBootstrap</text>
</a>
</g>
</g>
<!-- Node10&#45;&gt;Node11 -->
<g id="edge11" class="edge">
<title>Node10&#45;&gt;Node11</title>
<path fill="none" stroke="midnightblue" d="M396.78,-131.06C421.84,-136.45 456.94,-144.01 486.17,-150.3"/>
<polygon fill="midnightblue" stroke="midnightblue" points="485.73,-153.79 496.24,-152.47 487.2,-146.94 485.73,-153.79"/>
</g>
<!-- Node12 -->
<g id="node12" class="node">
<title>Node12</title>
<g id="a_node12"><a xlink:href="Sdb_8h.html#a05ee63d567b60fbc2b9e6732f4154a48" target="_top" xlink:title=" ">
<polygon fill="white" stroke="black" points="492.5,-114.5 492.5,-133.5 590.5,-133.5 590.5,-114.5 492.5,-114.5"/>
<text text-anchor="middle" x="541.5" y="-121.5" font-family="Helvetica,sans-Serif" font-size="10.00">SdbArenaGetPos</text>
</a>
</g>
</g>
<!-- Node10&#45;&gt;Node12 -->
<g id="edge12" class="edge">
<title>Node10&#45;&gt;Node12</title>
<path fill="none" stroke="midnightblue" d="M396.78,-124C420.67,-124 453.67,-124 482.02,-124"/>
<polygon fill="midnightblue" stroke="midnightblue" points="482.23,-127.5 492.23,-124 482.23,-120.5 482.23,-127.5"/>
</g>
<!-- Node13 -->
<g id="node13" class="node">
<title>Node13</title>
<g id="a_node13"><a xlink:href="Sdb_8h.html#ab63e953fd90c628d5c0727287df66fab" target="_top" xlink:title=" ">
<polygon fill="white" stroke="black" points="502,-76.5 502,-95.5 581,-95.5 581,-76.5 502,-76.5"/>
<text text-anchor="middle" x="541.5" y="-83.5" font-family="Helvetica,sans-Serif" font-size="10.00">SdbArenaInit</text>
</a>
</g>
</g>
<!-- Node10&#45;&gt;Node13 -->
<g id="edge13" class="edge">
<title>Node10&#45;&gt;Node13</title>
<path fill="none" stroke="midnightblue" d="M396.78,-116.94C423.48,-111.2 461.55,-103 491.8,-96.48"/>
<polygon fill="midnightblue" stroke="midnightblue" points="492.7,-99.87 501.74,-94.35 491.22,-93.03 492.7,-99.87"/>
</g>
<!-- Node14 -->
<g id="node14" class="node">
<title>Node14</title>
<g id="a_node14"><a xlink:href="Sdb_8h.html#a1bbfbdaa7f48d20cf4009a728cc7d138" target="_top" xlink:title=" ">
<polygon fill="white" stroke="black" points="498,-38.5 498,-57.5 585,-57.5 585,-38.5 498,-38.5"/>
<text text-anchor="middle" x="541.5" y="-45.5" font-family="Helvetica,sans-Serif" font-size="10.00">SdbArenaSeek</text>
</a>
</g>
</g>
<!-- Node10&#45;&gt;Node14 -->
<g id="edge14" class="edge">
<title>Node10&#45;&gt;Node14</title>
<path fill="none" stroke="midnightblue" d="M380.09,-114.49C401.28,-102.25 439.97,-80.92 475,-67 480.85,-64.68 487.09,-62.5 493.32,-60.5"/>
<polygon fill="midnightblue" stroke="midnightblue" points="494.48,-63.81 503.02,-57.53 492.43,-57.11 494.48,-63.81"/>
</g>
<!-- Node16 -->
<g id="node16" class="node">
<title>Node16</title>
<g id="a_node16"><a xlink:href="Sdb_8h.html#ac5c7c1054a5f2110db33fbaf02ee3875" target="_top" xlink:title=" ">
<polygon fill="white" stroke="black" points="503,-0.5 503,-19.5 580,-19.5 580,-0.5 503,-0.5"/>
<text text-anchor="middle" x="541.5" y="-7.5" font-family="Helvetica,sans-Serif" font-size="10.00">SdbMemcpy</text>
</a>
</g>
</g>
<!-- Node15&#45;&gt;Node16 -->
<g id="edge16" class="edge">
<title>Node15&#45;&gt;Node16</title>
<path fill="none" stroke="midnightblue" d="M408.08,-38.51C433.98,-32.93 466.71,-25.89 493.15,-20.19"/>
<polygon fill="midnightblue" stroke="midnightblue" points="493.91,-23.61 502.95,-18.09 492.43,-16.77 493.91,-23.61"/>
</g>
</g>
</svg>
