<?xml version="1.0" encoding="UTF-8" standalone="no"?>
<!DOCTYPE svg PUBLIC "-//W3C//DTD SVG 1.1//EN"
 "http://www.w3.org/Graphics/SVG/1.1/DTD/svg11.dtd">
<!-- Generated by graphviz version 2.43.0 (0)
 -->
<!-- Title: MbRun Pages: 1 -->
<!--zoomable 484 -->
<svg id="main" version="1.1" xmlns="http://www.w3.org/2000/svg" xmlns:xlink="http://www.w3.org/1999/xlink" xml:space="preserve" onload="init(evt)">
<style type="text/css"><![CDATA[
.edge:hover path { stroke: red; }
.edge:hover polygon { stroke: red; fill: red; }
]]></style>
<script type="text/javascript"><![CDATA[
var edges = document.getElementsByTagName('g');
if (edges && edges.length) {
  for (var i=0;i<edges.length;i++) {
    if (edges[i].id.substr(0,4)=='edge') {
      edges[i].setAttribute('class','edge');
    }
  }
}
]]></script>
        <defs>
                <circle id="rim" cx="0" cy="0" r="7"/>
                <circle id="rim2" cx="0" cy="0" r="3.5"/>
                <g id="zoomPlus">
                        <use xlink:href="#rim" fill="#404040">
                                <set attributeName="fill" to="#808080" begin="zoomplus.mouseover" end="zoomplus.mouseout"/>
                        </use>
                        <path d="M-4,0h8M0,-4v8" fill="none" stroke="white" stroke-width="1.5" pointer-events="none"/>
                </g>
                <g id="zoomMin">
                        <use xlink:href="#rim" fill="#404040">
                                <set attributeName="fill" to="#808080" begin="zoomminus.mouseover" end="zoomminus.mouseout"/>
                        </use>
                        <path d="M-4,0h8" fill="none" stroke="white" stroke-width="1.5" pointer-events="none"/>
                </g>
                <g id="dirArrow">
                        <path fill="none" stroke="white" stroke-width="1.5" d="M0,-3.0v7 M-2.5,-0.5L0,-3.0L2.5,-0.5"/>
                </g>
               <g id="resetDef">
                       <use xlink:href="#rim2" fill="#404040">
                               <set attributeName="fill" to="#808080" begin="reset.mouseover" end="reset.mouseout"/>
                       </use>
               </g>
        </defs>

<script type="text/javascript">
var viewWidth = 510;
var viewHeight = 484;
var sectionId = 'dynsection-3';
</script>
<script xlink:href="svgpan.js"/>
<svg id="graph" class="graph">
<g id="viewport">
<title>MbRun</title>
<polygon fill="white" stroke="transparent" points="-4,4 -4,-480 506,-480 506,4 -4,4"/>
<!-- Node1 -->
<g id="node1" class="node">
<title>Node1</title>
<g id="a_node1"><a xlink:title="Implements main Modbus thread loop.">
<polygon fill="#bfbfbf" stroke="black" points="0,-228.5 0,-247.5 50,-247.5 50,-228.5 0,-228.5"/>
<text text-anchor="middle" x="25" y="-235.5" font-family="Helvetica,sans-Serif" font-size="10.00">MbRun</text>
</a>
</g>
</g>
<!-- Node2 -->
<g id="node2" class="node">
<title>Node2</title>
<g id="a_node2"><a xlink:href="CommProtocols_2Modbus_8c.html#a9e87a7f171eca6b73f1fe05e833d46bb" target="_top" xlink:title="Parses a Modbus TCP frame into its components.">
<polygon fill="white" stroke="black" points="102,-456.5 102,-475.5 206,-475.5 206,-456.5 102,-456.5"/>
<text text-anchor="middle" x="154" y="-463.5" font-family="Helvetica,sans-Serif" font-size="10.00">MbParseTcpFrame</text>
</a>
</g>
</g>
<!-- Node1&#45;&gt;Node2 -->
<g id="edge1" class="edge">
<title>Node1&#45;&gt;Node2</title>
<path fill="none" stroke="midnightblue" d="M25.7,-247.96C25.27,-281.23 28.52,-389.7 86,-447 88.13,-449.12 90.47,-451.01 92.97,-452.69"/>
<polygon fill="midnightblue" stroke="midnightblue" points="91.54,-455.89 101.99,-457.64 94.91,-449.76 91.54,-455.89"/>
</g>
<!-- Node3 -->
<g id="node3" class="node">
<title>Node3</title>
<g id="a_node3"><a xlink:href="CommProtocols_2Modbus_8c.html#ad8cd921b4b7d4e15fd1d4e6fef74aabd" target="_top" xlink:title="Prepares Modbus context from configuration file.">
<polygon fill="white" stroke="black" points="111,-418.5 111,-437.5 197,-437.5 197,-418.5 111,-418.5"/>
<text text-anchor="middle" x="154" y="-425.5" font-family="Helvetica,sans-Serif" font-size="10.00">MbPrepareCtx</text>
</a>
</g>
</g>
<!-- Node1&#45;&gt;Node3 -->
<g id="edge2" class="edge">
<title>Node1&#45;&gt;Node3</title>
<path fill="none" stroke="midnightblue" d="M26.43,-247.78C28.24,-276.84 37.65,-363.52 86,-409 90.4,-413.14 95.64,-416.39 101.21,-418.93"/>
<polygon fill="midnightblue" stroke="midnightblue" points="100.24,-422.31 110.83,-422.59 102.73,-415.76 100.24,-422.31"/>
</g>
<!-- Node8 -->
<g id="node8" class="node">
<title>Node8</title>
<g id="a_node8"><a xlink:href="CommProtocols_2Modbus_8c.html#a958797e9ec7e41e215bebd4d2fd91513" target="_top" xlink:title="Initializes thread arenas for Modbus operations.">
<polygon fill="white" stroke="black" points="96.5,-380.5 96.5,-399.5 211.5,-399.5 211.5,-380.5 96.5,-380.5"/>
<text text-anchor="middle" x="154" y="-387.5" font-family="Helvetica,sans-Serif" font-size="10.00">MbThreadArenasInit</text>
</a>
</g>
</g>
<!-- Node1&#45;&gt;Node8 -->
<g id="edge7" class="edge">
<title>Node1&#45;&gt;Node8</title>
<path fill="none" stroke="midnightblue" d="M27.51,-247.69C31.86,-272.2 46.68,-337.09 86,-371 87.96,-372.69 90.07,-374.24 92.27,-375.64"/>
<polygon fill="midnightblue" stroke="midnightblue" points="90.75,-378.8 101.22,-380.41 94.05,-372.62 90.75,-378.8"/>
</g>
<!-- Node9 -->
<g id="node9" class="node">
<title>Node9</title>
<g id="a_node9"><a xlink:href="Sdb_8h.html#a132f10c44fe9dab28a9fae8839c099ad" target="_top" xlink:title=" ">
<polygon fill="white" stroke="black" points="99,-342.5 99,-361.5 209,-361.5 209,-342.5 99,-342.5"/>
<text text-anchor="middle" x="154" y="-349.5" font-family="Helvetica,sans-Serif" font-size="10.00">SdbArenaBootstrap</text>
</a>
</g>
</g>
<!-- Node1&#45;&gt;Node9 -->
<g id="edge8" class="edge">
<title>Node1&#45;&gt;Node9</title>
<path fill="none" stroke="midnightblue" d="M29.92,-247.61C37.84,-265.86 57.44,-305.68 86,-328 91.36,-332.19 97.52,-335.69 103.88,-338.6"/>
<polygon fill="midnightblue" stroke="midnightblue" points="102.7,-341.9 113.28,-342.46 105.36,-335.42 102.7,-341.9"/>
</g>
<!-- Node10 -->
<g id="node10" class="node">
<title>Node10</title>
<g id="a_node10"><a xlink:href="Sdb_8h.html#a05ee63d567b60fbc2b9e6732f4154a48" target="_top" xlink:title=" ">
<polygon fill="white" stroke="black" points="276,-200.5 276,-219.5 374,-219.5 374,-200.5 276,-200.5"/>
<text text-anchor="middle" x="325" y="-207.5" font-family="Helvetica,sans-Serif" font-size="10.00">SdbArenaGetPos</text>
</a>
</g>
</g>
<!-- Node1&#45;&gt;Node10 -->
<g id="edge9" class="edge">
<title>Node1&#45;&gt;Node10</title>
<path fill="none" stroke="midnightblue" d="M32.37,-247.55C42.08,-261.13 61.98,-285.41 86,-295 142.14,-317.41 165.17,-315.58 222,-295 259.15,-281.55 292.27,-248.01 310.11,-227.31"/>
<polygon fill="midnightblue" stroke="midnightblue" points="312.85,-229.49 316.59,-219.57 307.48,-225 312.85,-229.49"/>
</g>
<!-- Node11 -->
<g id="node11" class="node">
<title>Node11</title>
<g id="a_node11"><a xlink:href="Sdb_8h.html#ab63e953fd90c628d5c0727287df66fab" target="_top" xlink:title=" ">
<polygon fill="white" stroke="black" points="114.5,-266.5 114.5,-285.5 193.5,-285.5 193.5,-266.5 114.5,-266.5"/>
<text text-anchor="middle" x="154" y="-273.5" font-family="Helvetica,sans-Serif" font-size="10.00">SdbArenaInit</text>
</a>
</g>
</g>
<!-- Node1&#45;&gt;Node11 -->
<g id="edge10" class="edge">
<title>Node1&#45;&gt;Node11</title>
<path fill="none" stroke="midnightblue" d="M50.18,-245.84C61.1,-249.33 74.17,-253.45 86,-257 93.33,-259.2 101.13,-261.47 108.71,-263.65"/>
<polygon fill="midnightblue" stroke="midnightblue" points="107.94,-267.06 118.51,-266.44 109.85,-260.33 107.94,-267.06"/>
</g>
<!-- Node12 -->
<g id="node12" class="node">
<title>Node12</title>
<g id="a_node12"><a xlink:href="Sdb_8h.html#a99992a234eafd2bc02fe59561c4beb35" target="_top" xlink:title=" ">
<polygon fill="white" stroke="black" points="111,-228.5 111,-247.5 197,-247.5 197,-228.5 111,-228.5"/>
<text text-anchor="middle" x="154" y="-235.5" font-family="Helvetica,sans-Serif" font-size="10.00">SdbArenaPush</text>
</a>
</g>
</g>
<!-- Node1&#45;&gt;Node12 -->
<g id="edge11" class="edge">
<title>Node1&#45;&gt;Node12</title>
<path fill="none" stroke="midnightblue" d="M50.19,-238C64.51,-238 83.22,-238 100.75,-238"/>
<polygon fill="midnightblue" stroke="midnightblue" points="100.9,-241.5 110.9,-238 100.9,-234.5 100.9,-241.5"/>
</g>
<!-- Node13 -->
<g id="node13" class="node">
<title>Node13</title>
<g id="a_node13"><a xlink:href="Thread_8c.html#a192a33d80a7d463ad237856cdc7343be" target="_top" xlink:title="Wait on a thread barrier.">
<polygon fill="white" stroke="black" points="109.5,-190.5 109.5,-209.5 198.5,-209.5 198.5,-190.5 109.5,-190.5"/>
<text text-anchor="middle" x="154" y="-197.5" font-family="Helvetica,sans-Serif" font-size="10.00">SdbBarrierWait</text>
</a>
</g>
</g>
<!-- Node1&#45;&gt;Node13 -->
<g id="edge12" class="edge">
<title>Node1&#45;&gt;Node13</title>
<path fill="none" stroke="midnightblue" d="M50.18,-230.16C61.1,-226.67 74.17,-222.55 86,-219 93.33,-216.8 101.13,-214.53 108.71,-212.35"/>
<polygon fill="midnightblue" stroke="midnightblue" points="109.85,-215.67 118.51,-209.56 107.94,-208.94 109.85,-215.67"/>
</g>
<!-- Node14 -->
<g id="node14" class="node">
<title>Node14</title>
<g id="a_node14"><a xlink:href="Sdb_8h.html#ac5c7c1054a5f2110db33fbaf02ee3875" target="_top" xlink:title=" ">
<polygon fill="white" stroke="black" points="115.5,-152.5 115.5,-171.5 192.5,-171.5 192.5,-152.5 115.5,-152.5"/>
<text text-anchor="middle" x="154" y="-159.5" font-family="Helvetica,sans-Serif" font-size="10.00">SdbMemcpy</text>
</a>
</g>
</g>
<!-- Node1&#45;&gt;Node14 -->
<g id="edge13" class="edge">
<title>Node1&#45;&gt;Node14</title>
<path fill="none" stroke="midnightblue" d="M33.48,-228.45C43.91,-215.77 64.03,-193.52 86,-181 92,-177.58 98.66,-174.74 105.38,-172.39"/>
<polygon fill="midnightblue" stroke="midnightblue" points="106.72,-175.64 115.21,-169.3 104.62,-168.96 106.72,-175.64"/>
</g>
<!-- Node15 -->
<g id="node15" class="node">
<title>Node15</title>
<g id="a_node15"><a xlink:href="Signals_8c.html#aca8d19968aa974641e340443ba21e58e" target="_top" xlink:title="Checks if the system should initiate shutdown.">
<polygon fill="white" stroke="black" points="96,-114.5 96,-133.5 212,-133.5 212,-114.5 96,-114.5"/>
<text text-anchor="middle" x="154" y="-121.5" font-family="Helvetica,sans-Serif" font-size="10.00">SdbShouldShutdown</text>
</a>
</g>
</g>
<!-- Node1&#45;&gt;Node15 -->
<g id="edge14" class="edge">
<title>Node1&#45;&gt;Node15</title>
<path fill="none" stroke="midnightblue" d="M29.41,-228.27C36.67,-208.97 55.53,-165.77 86,-143 88.61,-141.05 91.42,-139.29 94.36,-137.72"/>
<polygon fill="midnightblue" stroke="midnightblue" points="95.84,-140.89 103.45,-133.52 92.91,-134.53 95.84,-140.89"/>
</g>
<!-- Node16 -->
<g id="node16" class="node">
<title>Node16</title>
<g id="a_node16"><a xlink:href="SensorDataPipe_8c.html#ad24e8341d323d221a2cfae80ae7d0508" target="_top" xlink:title="Flush the current write buffer.">
<polygon fill="white" stroke="black" points="116,-76.5 116,-95.5 192,-95.5 192,-76.5 116,-76.5"/>
<text text-anchor="middle" x="154" y="-83.5" font-family="Helvetica,sans-Serif" font-size="10.00">SdPipeFlush</text>
</a>
</g>
</g>
<!-- Node1&#45;&gt;Node16 -->
<g id="edge15" class="edge">
<title>Node1&#45;&gt;Node16</title>
<path fill="none" stroke="midnightblue" d="M27.51,-228.31C31.86,-203.8 46.68,-138.91 86,-105 91.73,-100.06 98.66,-96.4 105.86,-93.69"/>
<polygon fill="midnightblue" stroke="midnightblue" points="107.29,-96.91 115.76,-90.55 105.17,-90.23 107.29,-96.91"/>
</g>
<!-- Node18 -->
<g id="node18" class="node">
<title>Node18</title>
<g id="a_node18"><a xlink:href="SensorDataPipe_8c.html#a2c82e4869caac3347107efcc1b791db4" target="_top" xlink:title="Acquire Write Buffer Arena.">
<polygon fill="white" stroke="black" points="93,-38.5 93,-57.5 215,-57.5 215,-38.5 93,-38.5"/>
<text text-anchor="middle" x="154" y="-45.5" font-family="Helvetica,sans-Serif" font-size="10.00">SdPipeGetWriteBuffer</text>
</a>
</g>
</g>
<!-- Node1&#45;&gt;Node18 -->
<g id="edge18" class="edge">
<title>Node1&#45;&gt;Node18</title>
<path fill="none" stroke="midnightblue" d="M26.43,-228.22C28.24,-199.16 37.65,-112.48 86,-67 87.68,-65.42 89.48,-63.97 91.38,-62.63"/>
<polygon fill="midnightblue" stroke="midnightblue" points="93.31,-65.56 100.22,-57.53 89.81,-59.5 93.31,-65.56"/>
</g>
<!-- Node19 -->
<g id="node19" class="node">
<title>Node19</title>
<g id="a_node19"><a xlink:href="Socket_8c.html#ae188935dc7b2150fece7683b227f616a" target="_top" xlink:title="Receive Data with Configurable Timeout.">
<polygon fill="white" stroke="black" points="86,-0.5 86,-19.5 222,-19.5 222,-0.5 86,-0.5"/>
<text text-anchor="middle" x="154" y="-7.5" font-family="Helvetica,sans-Serif" font-size="10.00">SocketRecvWithTimeout</text>
</a>
</g>
</g>
<!-- Node1&#45;&gt;Node19 -->
<g id="edge20" class="edge">
<title>Node1&#45;&gt;Node19</title>
<path fill="none" stroke="midnightblue" d="M25.7,-228.04C25.27,-194.77 28.52,-86.3 86,-29 87.45,-27.56 88.99,-26.23 90.62,-24.99"/>
<polygon fill="midnightblue" stroke="midnightblue" points="92.66,-27.84 99.34,-19.62 88.99,-21.89 92.66,-27.84"/>
</g>
<!-- Node4 -->
<g id="node4" class="node">
<title>Node4</title>
<g id="a_node4"><a xlink:href="Sdb_8h.html#ae4ef1557f623dc27e4d1f8f9cac4b6fc" target="_top" xlink:title=" ">
<polygon fill="white" stroke="black" points="258,-456.5 258,-475.5 392,-475.5 392,-456.5 258,-456.5"/>
<text text-anchor="middle" x="325" y="-463.5" font-family="Helvetica,sans-Serif" font-size="10.00">SdbLoadFileIntoMemory</text>
</a>
</g>
</g>
<!-- Node3&#45;&gt;Node4 -->
<g id="edge3" class="edge">
<title>Node3&#45;&gt;Node4</title>
<path fill="none" stroke="midnightblue" d="M197.21,-437.49C219.79,-442.57 247.81,-448.87 271.76,-454.25"/>
<polygon fill="midnightblue" stroke="midnightblue" points="271.22,-457.72 281.74,-456.5 272.75,-450.89 271.22,-457.72"/>
</g>
<!-- Node5 -->
<g id="node5" class="node">
<title>Node5</title>
<g id="a_node5"><a xlink:href="Sdb_8h.html#acd332199b77e76c2b764ef93a7b60439" target="_top" xlink:title=" ">
<polygon fill="white" stroke="black" points="280.5,-418.5 280.5,-437.5 369.5,-437.5 369.5,-418.5 280.5,-418.5"/>
<text text-anchor="middle" x="325" y="-425.5" font-family="Helvetica,sans-Serif" font-size="10.00">SdbStringMake</text>
</a>
</g>
</g>
<!-- Node3&#45;&gt;Node5 -->
<g id="edge4" class="edge">
<title>Node3&#45;&gt;Node5</title>
<path fill="none" stroke="midnightblue" d="M197.21,-428C219.27,-428 246.5,-428 270.07,-428"/>
<polygon fill="midnightblue" stroke="midnightblue" points="270.27,-431.5 280.27,-428 270.27,-424.5 270.27,-431.5"/>
</g>
<!-- Node6 -->
<g id="node6" class="node">
<title>Node6</title>
<g id="a_node6"><a xlink:href="Socket_8c.html#afe998f70317da205d71f4d76f90d7a0e" target="_top" xlink:title="Create and Connect TCP Socket.">
<polygon fill="white" stroke="black" points="284.5,-380.5 284.5,-399.5 365.5,-399.5 365.5,-380.5 284.5,-380.5"/>
<text text-anchor="middle" x="325" y="-387.5" font-family="Helvetica,sans-Serif" font-size="10.00">SocketCreate</text>
</a>
</g>
</g>
<!-- Node3&#45;&gt;Node6 -->
<g id="edge5" class="edge">
<title>Node3&#45;&gt;Node6</title>
<path fill="none" stroke="midnightblue" d="M197.21,-418.51C220.67,-413.23 249.99,-406.64 274.52,-401.13"/>
<polygon fill="midnightblue" stroke="midnightblue" points="275.37,-404.52 284.36,-398.91 273.83,-397.69 275.37,-404.52"/>
</g>
<!-- Node7 -->
<g id="node7" class="node">
<title>Node7</title>
<g id="a_node7"><a xlink:href="Sdb_8h.html#aa83c474af0fff05c80b6c752168bca29" target="_top" xlink:title=" ">
<polygon fill="white" stroke="black" points="428,-380.5 428,-399.5 502,-399.5 502,-380.5 428,-380.5"/>
<text text-anchor="middle" x="465" y="-387.5" font-family="Helvetica,sans-Serif" font-size="10.00">SdbMemset</text>
</a>
</g>
</g>
<!-- Node6&#45;&gt;Node7 -->
<g id="edge6" class="edge">
<title>Node6&#45;&gt;Node7</title>
<path fill="none" stroke="midnightblue" d="M365.55,-390C381.77,-390 400.67,-390 417.55,-390"/>
<polygon fill="midnightblue" stroke="midnightblue" points="417.75,-393.5 427.75,-390 417.75,-386.5 417.75,-393.5"/>
</g>
<!-- Node16&#45;&gt;Node10 -->
<g id="edge17" class="edge">
<title>Node16&#45;&gt;Node10</title>
<path fill="none" stroke="midnightblue" d="M192.24,-92.86C202.34,-95.69 212.97,-99.61 222,-105 260.15,-127.77 293.75,-168.4 311.24,-191.88"/>
<polygon fill="midnightblue" stroke="midnightblue" points="308.61,-194.22 317.32,-200.24 314.27,-190.1 308.61,-194.22"/>
</g>
<!-- Node17 -->
<g id="node17" class="node">
<title>Node17</title>
<g id="a_node17"><a xlink:href="Sdb_8h.html#ab38d94a0b56df0604f07862a93856990" target="_top" xlink:title=" ">
<polygon fill="white" stroke="black" points="280.5,-57.5 280.5,-76.5 369.5,-76.5 369.5,-57.5 280.5,-57.5"/>
<text text-anchor="middle" x="325" y="-64.5" font-family="Helvetica,sans-Serif" font-size="10.00">SdbArenaClear</text>
</a>
</g>
</g>
<!-- Node16&#45;&gt;Node17 -->
<g id="edge16" class="edge">
<title>Node16&#45;&gt;Node17</title>
<path fill="none" stroke="midnightblue" d="M192.09,-81.83C214.97,-79.26 244.72,-75.91 270.17,-73.05"/>
<polygon fill="midnightblue" stroke="midnightblue" points="270.87,-76.49 280.42,-71.9 270.09,-69.54 270.87,-76.49"/>
</g>
<!-- Node18&#45;&gt;Node17 -->
<g id="edge19" class="edge">
<title>Node18&#45;&gt;Node17</title>
<path fill="none" stroke="midnightblue" d="M215.06,-54.75C233.06,-56.78 252.68,-58.98 270.25,-60.96"/>
<polygon fill="midnightblue" stroke="midnightblue" points="270,-64.45 280.33,-62.09 270.79,-57.5 270,-64.45"/>
</g>
<!-- Node20 -->
<g id="node20" class="node">
<title>Node20</title>
<g id="a_node20"><a xlink:href="Time_8c.html#a0221db75cb1cf6093ca801b7915fe887" target="_top" xlink:title="Convert Time Difference to Timeval.">
<polygon fill="white" stroke="black" points="288,-0.5 288,-19.5 362,-19.5 362,-0.5 288,-0.5"/>
<text text-anchor="middle" x="325" y="-7.5" font-family="Helvetica,sans-Serif" font-size="10.00">SdbTimeval</text>
</a>
</g>
</g>
<!-- Node19&#45;&gt;Node20 -->
<g id="edge21" class="edge">
<title>Node19&#45;&gt;Node20</title>
<path fill="none" stroke="midnightblue" d="M222.28,-10C240.73,-10 260.32,-10 277.33,-10"/>
<polygon fill="midnightblue" stroke="midnightblue" points="277.56,-13.5 287.56,-10 277.56,-6.5 277.56,-13.5"/>
</g>
</g>
</svg>
        <g id="navigator" transform="translate(0 0)" fill="#404254">
                <rect fill="#f2f5e9" fill-opacity="0.5" stroke="#606060" stroke-width=".5" x="0" y="0" width="60" height="60"/>
                <use id="zoomplus" xlink:href="#zoomPlus" x="17" y="9" onmousedown="handleZoom(evt,'in')"/>
                <use id="zoomminus" xlink:href="#zoomMin" x="42" y="9" onmousedown="handleZoom(evt,'out')"/>
                <use id="reset" xlink:href="#resetDef" x="30" y="36" onmousedown="handleReset()"/>
                <g id="arrowUp" xlink:href="#dirArrow" transform="translate(30 24)" onmousedown="handlePan(0,-1)">
                  <use xlink:href="#rim" fill="#404040">
                        <set attributeName="fill" to="#808080" begin="arrowUp.mouseover" end="arrowUp.mouseout"/>
                  </use>
                  <path fill="none" stroke="white" stroke-width="1.5" d="M0,-3.0v7 M-2.5,-0.5L0,-3.0L2.5,-0.5"/>
                </g>
                <g id="arrowRight" xlink:href="#dirArrow" transform="rotate(90) translate(36 -43)" onmousedown="handlePan(1,0)">
                  <use xlink:href="#rim" fill="#404040">
                        <set attributeName="fill" to="#808080" begin="arrowRight.mouseover" end="arrowRight.mouseout"/>
                  </use>
                  <path fill="none" stroke="white" stroke-width="1.5" d="M0,-3.0v7 M-2.5,-0.5L0,-3.0L2.5,-0.5"/>
                </g>
                <g id="arrowDown" xlink:href="#dirArrow" transform="rotate(180) translate(-30 -48)" onmousedown="handlePan(0,1)">
                  <use xlink:href="#rim" fill="#404040">
                        <set attributeName="fill" to="#808080" begin="arrowDown.mouseover" end="arrowDown.mouseout"/>
                  </use>
                  <path fill="none" stroke="white" stroke-width="1.5" d="M0,-3.0v7 M-2.5,-0.5L0,-3.0L2.5,-0.5"/>
                </g>
                <g id="arrowLeft" xlink:href="#dirArrow" transform="rotate(270) translate(-36 17)" onmousedown="handlePan(-1,0)">
                  <use xlink:href="#rim" fill="#404040">
                        <set attributeName="fill" to="#808080" begin="arrowLeft.mouseover" end="arrowLeft.mouseout"/>
                  </use>
                  <path fill="none" stroke="white" stroke-width="1.5" d="M0,-3.0v7 M-2.5,-0.5L0,-3.0L2.5,-0.5"/>
                </g>
        </g>
        <svg viewBox="0 0 15 15" width="100%" height="30px" preserveAspectRatio="xMaxYMin meet">
         <g id="arrow_out" transform="scale(0.3 0.3)">
          <a xlink:href="DataHandlers_2ModbusWithPostgres_2Modbus_8c_ac42f810b60d139ab2f82c4146710d721_cgraph_org.svg" target="_base">
           <rect id="button" ry="5" rx="5" y="6" x="6" height="38" width="38"
                fill="#f2f5e9" fill-opacity="0.5" stroke="#606060" stroke-width="1.0"/>
           <path id="arrow"
             d="M 11.500037,31.436501 C 11.940474,20.09759 22.043105,11.32322 32.158766,21.979434 L 37.068811,17.246167 C 37.068811,17.246167 37.088388,32 37.088388,32 L 22.160133,31.978069 C 22.160133,31.978069 26.997745,27.140456 26.997745,27.140456 C 18.528582,18.264221 13.291696,25.230495 11.500037,31.436501 z"
             style="fill:#404040;"/>
          </a>
         </g>
        </svg>
</svg>
