<?xml version="1.0" encoding="UTF-8" standalone="no"?>
<!DOCTYPE svg PUBLIC "-//W3C//DTD SVG 1.1//EN"
 "http://www.w3.org/Graphics/SVG/1.1/DTD/svg11.dtd">
<!-- Generated by graphviz version 2.43.0 (0)
 -->
<!-- Title: PgPrepareCtx Pages: 1 -->
<svg width="425pt" height="256pt"
 viewBox="0.00 0.00 425.00 256.00" xmlns="http://www.w3.org/2000/svg" xmlns:xlink="http://www.w3.org/1999/xlink">
<g id="graph0" class="graph" transform="scale(1 1) rotate(0) translate(4 252)">
<title>PgPrepareCtx</title>
<polygon fill="white" stroke="transparent" points="-4,4 -4,-252 421,-252 421,4 -4,4"/>
<!-- Node1 -->
<g id="node1" class="node">
<title>Node1</title>
<g id="a_node1"><a xlink:title="Prepares PostgreSQL context from configuration.">
<polygon fill="#bfbfbf" stroke="black" points="0,-114.5 0,-133.5 83,-133.5 83,-114.5 0,-114.5"/>
<text text-anchor="middle" x="41.5" y="-121.5" font-family="Helvetica,sans-Serif" font-size="10.00">PgPrepareCtx</text>
</a>
</g>
</g>
<!-- Node2 -->
<g id="node2" class="node">
<title>Node2</title>
<g id="a_node2"><a xlink:href="DatabaseInitializer_8c.html#ac3e5e24c2c387a0c28dffaab993aebac" target="_top" xlink:title="Loads and parses a database configuration file.">
<polygon fill="white" stroke="black" points="119,-190.5 119,-209.5 247,-209.5 247,-190.5 119,-190.5"/>
<text text-anchor="middle" x="183" y="-197.5" font-family="Helvetica,sans-Serif" font-size="10.00">DbInitGetConfFromFile</text>
</a>
</g>
</g>
<!-- Node1&#45;&gt;Node2 -->
<g id="edge1" class="edge">
<title>Node1&#45;&gt;Node2</title>
<path fill="none" stroke="midnightblue" d="M53.1,-133.81C67.17,-146.36 93.26,-168.03 119,-181 123.36,-183.2 128.02,-185.19 132.76,-186.99"/>
<polygon fill="midnightblue" stroke="midnightblue" points="131.94,-190.4 142.53,-190.4 134.25,-183.8 131.94,-190.4"/>
</g>
<!-- Node3 -->
<g id="node3" class="node">
<title>Node3</title>
<g id="a_node3"><a xlink:href="Sdb_8h.html#ae4ef1557f623dc27e4d1f8f9cac4b6fc" target="_top" xlink:title=" ">
<polygon fill="white" stroke="black" points="283,-228.5 283,-247.5 417,-247.5 417,-228.5 283,-228.5"/>
<text text-anchor="middle" x="350" y="-235.5" font-family="Helvetica,sans-Serif" font-size="10.00">SdbLoadFileIntoMemory</text>
</a>
</g>
</g>
<!-- Node1&#45;&gt;Node3 -->
<g id="edge7" class="edge">
<title>Node1&#45;&gt;Node3</title>
<path fill="none" stroke="midnightblue" d="M46.94,-133.7C56.71,-153.73 82.15,-199.45 119,-219 165.91,-243.88 225.89,-248.09 272.83,-246.37"/>
<polygon fill="midnightblue" stroke="midnightblue" points="273.12,-249.86 282.95,-245.9 272.8,-242.86 273.12,-249.86"/>
</g>
<!-- Node5 -->
<g id="node5" class="node">
<title>Node5</title>
<g id="a_node5"><a xlink:href="DatabaseSystems_2Postgres_8c.html#ae298043cc4c2e142d7914316919a5c7a" target="_top" xlink:title=" ">
<polygon fill="white" stroke="black" points="130,-152.5 130,-171.5 236,-171.5 236,-152.5 130,-152.5"/>
<text text-anchor="middle" x="183" y="-159.5" font-family="Helvetica,sans-Serif" font-size="10.00">GetTableMetadata</text>
</a>
</g>
</g>
<!-- Node1&#45;&gt;Node5 -->
<g id="edge4" class="edge">
<title>Node1&#45;&gt;Node5</title>
<path fill="none" stroke="midnightblue" d="M77.7,-133.59C95.71,-138.49 117.83,-144.52 137.06,-149.76"/>
<polygon fill="midnightblue" stroke="midnightblue" points="136.24,-153.16 146.81,-152.41 138.08,-146.41 136.24,-153.16"/>
</g>
<!-- Node7 -->
<g id="node7" class="node">
<title>Node7</title>
<g id="a_node7"><a xlink:href="Sdb_8h.html#acd332199b77e76c2b764ef93a7b60439" target="_top" xlink:title=" ">
<polygon fill="white" stroke="black" points="305.5,-114.5 305.5,-133.5 394.5,-133.5 394.5,-114.5 305.5,-114.5"/>
<text text-anchor="middle" x="350" y="-121.5" font-family="Helvetica,sans-Serif" font-size="10.00">SdbStringMake</text>
</a>
</g>
</g>
<!-- Node1&#45;&gt;Node7 -->
<g id="edge11" class="edge">
<title>Node1&#45;&gt;Node7</title>
<path fill="none" stroke="midnightblue" d="M83.2,-124C137.77,-124 234.77,-124 295.29,-124"/>
<polygon fill="midnightblue" stroke="midnightblue" points="295.41,-127.5 305.41,-124 295.41,-120.5 295.41,-127.5"/>
</g>
<!-- Node8 -->
<g id="node8" class="node">
<title>Node8</title>
<g id="a_node8"><a xlink:href="Sdb_8h.html#a2f3b726bde5f66a61dee9805406813ee" target="_top" xlink:title=" ">
<polygon fill="white" stroke="black" points="133,-76.5 133,-95.5 233,-95.5 233,-76.5 133,-76.5"/>
<text text-anchor="middle" x="183" y="-83.5" font-family="Helvetica,sans-Serif" font-size="10.00">SdbStringAppend</text>
</a>
</g>
</g>
<!-- Node1&#45;&gt;Node8 -->
<g id="edge8" class="edge">
<title>Node1&#45;&gt;Node8</title>
<path fill="none" stroke="midnightblue" d="M77.7,-114.41C95.71,-109.51 117.83,-103.48 137.06,-98.24"/>
<polygon fill="midnightblue" stroke="midnightblue" points="138.08,-101.59 146.81,-95.59 136.24,-94.84 138.08,-101.59"/>
</g>
<!-- Node9 -->
<g id="node9" class="node">
<title>Node9</title>
<g id="a_node9"><a xlink:href="Sdb_8h.html#a28c30cfe4c8326befba64bf54397bc47" target="_top" xlink:title=" ">
<polygon fill="white" stroke="black" points="129.5,-38.5 129.5,-57.5 236.5,-57.5 236.5,-38.5 129.5,-38.5"/>
<text text-anchor="middle" x="183" y="-45.5" font-family="Helvetica,sans-Serif" font-size="10.00">SdbStringAppendC</text>
</a>
</g>
</g>
<!-- Node1&#45;&gt;Node9 -->
<g id="edge9" class="edge">
<title>Node1&#45;&gt;Node9</title>
<path fill="none" stroke="midnightblue" d="M53.1,-114.19C67.17,-101.64 93.26,-79.97 119,-67 123.36,-64.8 128.02,-62.81 132.76,-61.01"/>
<polygon fill="midnightblue" stroke="midnightblue" points="134.25,-64.2 142.53,-57.6 131.94,-57.6 134.25,-64.2"/>
</g>
<!-- Node10 -->
<g id="node10" class="node">
<title>Node10</title>
<g id="a_node10"><a xlink:href="Sdb_8h.html#af443df2d401ad3eca43919e5cf1a7118" target="_top" xlink:title=" ">
<polygon fill="white" stroke="black" points="125,-0.5 125,-19.5 241,-19.5 241,-0.5 125,-0.5"/>
<text text-anchor="middle" x="183" y="-7.5" font-family="Helvetica,sans-Serif" font-size="10.00">SdbStringBackspace</text>
</a>
</g>
</g>
<!-- Node1&#45;&gt;Node10 -->
<g id="edge10" class="edge">
<title>Node1&#45;&gt;Node10</title>
<path fill="none" stroke="midnightblue" d="M47.63,-114.32C58.29,-95.12 84.75,-52.07 119,-29 122.07,-26.93 125.37,-25.08 128.8,-23.43"/>
<polygon fill="midnightblue" stroke="midnightblue" points="130.24,-26.62 138.09,-19.5 127.51,-20.17 130.24,-26.62"/>
</g>
<!-- Node2&#45;&gt;Node3 -->
<g id="edge2" class="edge">
<title>Node2&#45;&gt;Node3</title>
<path fill="none" stroke="midnightblue" d="M225.64,-209.59C247.51,-214.63 274.51,-220.84 297.66,-226.18"/>
<polygon fill="midnightblue" stroke="midnightblue" points="297.13,-229.65 307.66,-228.48 298.7,-222.82 297.13,-229.65"/>
</g>
<!-- Node4 -->
<g id="node4" class="node">
<title>Node4</title>
<g id="a_node4"><a xlink:href="Sdb_8h.html#a7d36f635ee473a12e82ed102ab4597a3" target="_top" xlink:title=" ">
<polygon fill="white" stroke="black" points="301,-190.5 301,-209.5 399,-209.5 399,-190.5 301,-190.5"/>
<text text-anchor="middle" x="350" y="-197.5" font-family="Helvetica,sans-Serif" font-size="10.00">SdbScratchBegin</text>
</a>
</g>
</g>
<!-- Node2&#45;&gt;Node4 -->
<g id="edge3" class="edge">
<title>Node2&#45;&gt;Node4</title>
<path fill="none" stroke="midnightblue" d="M247.32,-200C261.65,-200 276.81,-200 290.91,-200"/>
<polygon fill="midnightblue" stroke="midnightblue" points="290.97,-203.5 300.97,-200 290.97,-196.5 290.97,-203.5"/>
</g>
<!-- Node6 -->
<g id="node6" class="node">
<title>Node6</title>
<g id="a_node6"><a xlink:href="Sdb_8h.html#adb598df288598cf1c13afc15e3f7e6c2" target="_top" xlink:title=" ">
<polygon fill="white" stroke="black" points="290.5,-152.5 290.5,-171.5 409.5,-171.5 409.5,-152.5 290.5,-152.5"/>
<text text-anchor="middle" x="350" y="-159.5" font-family="Helvetica,sans-Serif" font-size="10.00">SdbStringAppendFmt</text>
</a>
</g>
</g>
<!-- Node5&#45;&gt;Node6 -->
<g id="edge5" class="edge">
<title>Node5&#45;&gt;Node6</title>
<path fill="none" stroke="midnightblue" d="M236.21,-162C250.17,-162 265.47,-162 280.18,-162"/>
<polygon fill="midnightblue" stroke="midnightblue" points="280.25,-165.5 290.25,-162 280.25,-158.5 280.25,-165.5"/>
</g>
<!-- Node5&#45;&gt;Node7 -->
<g id="edge6" class="edge">
<title>Node5&#45;&gt;Node7</title>
<path fill="none" stroke="midnightblue" d="M225.64,-152.41C247.51,-147.37 274.51,-141.16 297.66,-135.82"/>
<polygon fill="midnightblue" stroke="midnightblue" points="298.7,-139.18 307.66,-133.52 297.13,-132.35 298.7,-139.18"/>
</g>
</g>
</svg>
