<?xml version="1.0" encoding="UTF-8" standalone="no"?>
<!DOCTYPE svg PUBLIC "-//W3C//DTD SVG 1.1//EN"
 "http://www.w3.org/Graphics/SVG/1.1/DTD/svg11.dtd">
<!-- Generated by graphviz version 2.43.0 (0)
 -->
<!-- Title: UnixToPgTimestamp Pages: 1 -->
<svg width="556pt" height="27pt"
 viewBox="0.00 0.00 556.00 27.00" xmlns="http://www.w3.org/2000/svg" xmlns:xlink="http://www.w3.org/1999/xlink">
<g id="graph0" class="graph" transform="scale(1 1) rotate(0) translate(4 23)">
<title>UnixToPgTimestamp</title>
<!-- Node1 -->
<g id="Node000001" class="node">
<title>Node1</title>
<g id="a_Node000001"><a xlink:title="Converts Unix timestamp to PostgreSQL timestamp.">
<polygon fill="#999999" stroke="#666666" points="548,-19 431,-19 431,0 548,0 548,-19"/>
<text text-anchor="middle" x="489.5" y="-7" font-family="Helvetica,sans-Serif" font-size="10.00">UnixToPgTimestamp</text>
</a>
</g>
</g>
<!-- Node2 -->
<g id="Node000002" class="node">
<title>Node2</title>
<g id="a_Node000002"><a xlink:href="DatabaseSystems_2Postgres_8c.html#a8be5b0d3a8c5e012cae2737b1ffa7bff" target="_top" xlink:title=" ">
<polygon fill="white" stroke="#666666" points="395,-19 297,-19 297,0 395,0 395,-19"/>
<text text-anchor="middle" x="346" y="-7" font-family="Helvetica,sans-Serif" font-size="10.00">WriteTimestamp</text>
</a>
</g>
</g>
<!-- Node1&#45;&gt;Node2 -->
<g id="edge1_Node000001_Node000002" class="edge">
<title>Node1&#45;&gt;Node2</title>
<g id="a_edge1_Node000001_Node000002"><a xlink:title=" ">
<path fill="none" stroke="#63b8ff" d="M420.78,-9.5C412.08,-9.5 403.31,-9.5 395,-9.5"/>
<polygon fill="#63b8ff" stroke="#63b8ff" points="420.95,-13 430.95,-9.5 420.95,-6 420.95,-13"/>
</a>
</g>
</g>
<!-- Node3 -->
<g id="Node000003" class="node">
<title>Node3</title>
<g id="a_Node000003"><a xlink:href="DatabaseSystems_2Postgres_8c.html#aa7c5ed35f820c0efcccbb4e2f010a980" target="_top" xlink:title="Inserts data into PostgreSQL table using COPY protocol.">
<polygon fill="white" stroke="#666666" points="261,-19 181,-19 181,0 261,0 261,-19"/>
<text text-anchor="middle" x="221" y="-7" font-family="Helvetica,sans-Serif" font-size="10.00">PgInsertData</text>
</a>
</g>
</g>
<!-- Node2&#45;&gt;Node3 -->
<g id="edge2_Node000002_Node000003" class="edge">
<title>Node2&#45;&gt;Node3</title>
<g id="a_edge2_Node000002_Node000003"><a xlink:title=" ">
<path fill="none" stroke="#63b8ff" d="M286.62,-9.5C277.94,-9.5 269.17,-9.5 261.01,-9.5"/>
<polygon fill="#63b8ff" stroke="#63b8ff" points="286.74,-13 296.74,-9.5 286.74,-6 286.74,-13"/>
</a>
</g>
</g>
<!-- Node4 -->
<g id="Node000004" class="node">
<title>Node4</title>
<g id="a_Node000004"><a xlink:href="DataHandlers_2ModbusWithPostgres_2Postgres_8c.html#a5f5041cd700c888724519dddcc5413a0" target="_top" xlink:title="Main PostgreSQL operation loop.">
<polygon fill="white" stroke="#666666" points="145,-19 98,-19 98,0 145,0 145,-19"/>
<text text-anchor="middle" x="121.5" y="-7" font-family="Helvetica,sans-Serif" font-size="10.00">PgRun</text>
</a>
</g>
</g>
<!-- Node3&#45;&gt;Node4 -->
<g id="edge3_Node000003_Node000004" class="edge">
<title>Node3&#45;&gt;Node4</title>
<g id="a_edge3_Node000003_Node000004"><a xlink:title=" ">
<path fill="none" stroke="#63b8ff" d="M170.79,-9.5C161.77,-9.5 152.78,-9.5 145.05,-9.5"/>
<polygon fill="#63b8ff" stroke="#63b8ff" points="170.9,-13 180.9,-9.5 170.9,-6 170.9,-13"/>
</a>
</g>
</g>
<!-- Node5 -->
<g id="Node000005" class="node">
<title>Node5</title>
<g id="a_Node000005"><a xlink:href="ModbusWithPostgres_8c.html#a93270e4da545537675777f30acea6b6b" target="_top" xlink:title="PostgreSQL thread implementation.">
<polygon fill="white" stroke="#666666" points="62,-19 0,-19 0,0 62,0 62,-19"/>
<text text-anchor="middle" x="31" y="-7" font-family="Helvetica,sans-Serif" font-size="10.00">PgThread</text>
</a>
</g>
</g>
<!-- Node4&#45;&gt;Node5 -->
<g id="edge4_Node000004_Node000005" class="edge">
<title>Node4&#45;&gt;Node5</title>
<g id="a_edge4_Node000004_Node000005"><a xlink:title=" ">
<path fill="none" stroke="#63b8ff" d="M87.54,-9.5C79.18,-9.5 70.26,-9.5 62.06,-9.5"/>
<polygon fill="#63b8ff" stroke="#63b8ff" points="87.71,-13 97.71,-9.5 87.71,-6 87.71,-13"/>
</a>
</g>
</g>
</g>
</svg>
