<?xml version="1.0" encoding="UTF-8" standalone="no"?>
<!DOCTYPE svg PUBLIC "-//W3C//DTD SVG 1.1//EN"
 "http://www.w3.org/Graphics/SVG/1.1/DTD/svg11.dtd">
<!-- Generated by graphviz version 2.43.0 (0)
 -->
<!-- Title: src/DataHandlers/ModbusWithPostgres/Modbus.c Pages: 1 -->
<svg width="1360pt" height="397pt"
 viewBox="0.00 0.00 1360.00 397.00" xmlns="http://www.w3.org/2000/svg" xmlns:xlink="http://www.w3.org/1999/xlink">
<g id="graph0" class="graph" transform="scale(1 1) rotate(0) translate(4 393)">
<title>src/DataHandlers/ModbusWithPostgres/Modbus.c</title>
<polygon fill="white" stroke="transparent" points="-4,4 -4,-393 1356,-393 1356,4 -4,4"/>
<!-- Node1 -->
<g id="node1" class="node">
<title>Node1</title>
<g id="a_node1"><a xlink:title=" ">
<polygon fill="#bfbfbf" stroke="black" points="527,-358.5 527,-388.5 691,-388.5 691,-358.5 527,-358.5"/>
<text text-anchor="start" x="535" y="-376.5" font-family="Helvetica,sans-Serif" font-size="10.00">src/DataHandlers/ModbusWith</text>
<text text-anchor="middle" x="609" y="-365.5" font-family="Helvetica,sans-Serif" font-size="10.00">Postgres/Modbus.c</text>
</a>
</g>
</g>
<!-- Node2 -->
<g id="node2" class="node">
<title>Node2</title>
<g id="a_node2"><a xlink:href="Sdb_8h.html" target="_top" xlink:title=" ">
<polygon fill="white" stroke="black" points="632.5,-56.5 632.5,-75.5 693.5,-75.5 693.5,-56.5 632.5,-56.5"/>
<text text-anchor="middle" x="663" y="-63.5" font-family="Helvetica,sans-Serif" font-size="10.00">src/Sdb.h</text>
</a>
</g>
</g>
<!-- Node1&#45;&gt;Node2 -->
<g id="edge1" class="edge">
<title>Node1&#45;&gt;Node2</title>
<path fill="none" stroke="midnightblue" d="M577.28,-358.43C541.01,-340.37 483.48,-305.26 459,-255 452.97,-242.61 456.98,-237.63 459,-224 462.82,-198.27 459.54,-188.14 476,-168 487.25,-154.24 587.47,-103.99 636.38,-79.96"/>
<polygon fill="midnightblue" stroke="midnightblue" points="638,-83.07 645.44,-75.53 634.92,-76.78 638,-83.07"/>
</g>
<!-- Node20 -->
<g id="node20" class="node">
<title>Node20</title>
<g id="a_node20"><a xlink:title=" ">
<polygon fill="white" stroke="#bfbfbf" points="1188.5,-297 1188.5,-316 1349.5,-316 1349.5,-297 1188.5,-297"/>
<text text-anchor="middle" x="1269" y="-304" font-family="Helvetica,sans-Serif" font-size="10.00">src/CommProtocols/Modbus.h</text>
</a>
</g>
</g>
<!-- Node1&#45;&gt;Node20 -->
<g id="edge19" class="edge">
<title>Node1&#45;&gt;Node20</title>
<path fill="none" stroke="midnightblue" d="M691.32,-367.06C802.31,-359.3 1005.99,-343.57 1179,-322 1189.01,-320.75 1199.62,-319.23 1209.9,-317.64"/>
<polygon fill="midnightblue" stroke="midnightblue" points="1210.71,-321.05 1220.05,-316.04 1209.62,-314.14 1210.71,-321.05"/>
</g>
<!-- Node21 -->
<g id="node21" class="node">
<title>Node21</title>
<g id="a_node21"><a xlink:href="SensorDataPipe_8h.html" target="_top" xlink:title="Lock&#45;Free Data Pipeline.">
<polygon fill="white" stroke="black" points="468.5,-230 468.5,-249 635.5,-249 635.5,-230 468.5,-230"/>
<text text-anchor="middle" x="552" y="-237" font-family="Helvetica,sans-Serif" font-size="10.00">src/Common/SensorDataPipe.h</text>
</a>
</g>
</g>
<!-- Node1&#45;&gt;Node21 -->
<g id="edge20" class="edge">
<title>Node1&#45;&gt;Node21</title>
<path fill="none" stroke="midnightblue" d="M595.58,-358.1C587.34,-348.53 577.22,-335.32 571,-322 561.61,-301.89 556.66,-276.77 554.19,-259.77"/>
<polygon fill="midnightblue" stroke="midnightblue" points="557.62,-258.93 552.86,-249.46 550.67,-259.82 557.62,-258.93"/>
</g>
<!-- Node23 -->
<g id="node23" class="node">
<title>Node23</title>
<g id="a_node23"><a xlink:href="Thread_8h.html" target="_top" xlink:title="Lightweight Synchronization Primitives Wrapper.">
<polygon fill="white" stroke="black" points="305,-168.5 305,-187.5 429,-187.5 429,-168.5 305,-168.5"/>
<text text-anchor="middle" x="367" y="-175.5" font-family="Helvetica,sans-Serif" font-size="10.00">src/Common/Thread.h</text>
</a>
</g>
</g>
<!-- Node1&#45;&gt;Node23 -->
<g id="edge36" class="edge">
<title>Node1&#45;&gt;Node23</title>
<path fill="none" stroke="midnightblue" d="M526.73,-365.49C492.5,-358.86 454.44,-346.17 427,-322 389.38,-288.86 374.74,-228.27 369.56,-197.7"/>
<polygon fill="midnightblue" stroke="midnightblue" points="372.98,-196.93 368.01,-187.57 366.06,-197.99 372.98,-196.93"/>
</g>
<!-- Node27 -->
<g id="node27" class="node">
<title>Node27</title>
<g id="a_node27"><a xlink:href="Socket_8h.html" target="_top" xlink:title="Simplified Socket Communication Utilities.">
<polygon fill="white" stroke="black" points="165,-168.5 165,-187.5 287,-187.5 287,-168.5 165,-168.5"/>
<text text-anchor="middle" x="226" y="-175.5" font-family="Helvetica,sans-Serif" font-size="10.00">src/Common/Socket.h</text>
</a>
</g>
</g>
<!-- Node1&#45;&gt;Node27 -->
<g id="edge31" class="edge">
<title>Node1&#45;&gt;Node27</title>
<path fill="none" stroke="midnightblue" d="M526.99,-361.68C486.9,-354.21 438.83,-341.9 399,-322 332.09,-288.57 268.25,-224.87 240.5,-195.1"/>
<polygon fill="midnightblue" stroke="midnightblue" points="243,-192.64 233.66,-187.65 237.85,-197.38 243,-192.64"/>
</g>
<!-- Node30 -->
<g id="node30" class="node">
<title>Node30</title>
<g id="a_node30"><a xlink:href="ModbusWithPostgres_8h.html" target="_top" xlink:title="Integration of Modbus and PostgreSQL data handling.">
<polygon fill="white" stroke="black" points="580.5,-291.5 580.5,-321.5 753.5,-321.5 753.5,-291.5 580.5,-291.5"/>
<text text-anchor="start" x="588.5" y="-309.5" font-family="Helvetica,sans-Serif" font-size="10.00">src/DataHandlers/ModbusWith</text>
<text text-anchor="middle" x="667" y="-298.5" font-family="Helvetica,sans-Serif" font-size="10.00">Postgres/ModbusWithPostgres.h</text>
</a>
</g>
</g>
<!-- Node1&#45;&gt;Node30 -->
<g id="edge37" class="edge">
<title>Node1&#45;&gt;Node30</title>
<path fill="none" stroke="midnightblue" d="M621.59,-358.4C629.19,-349.88 639.03,-338.85 647.61,-329.23"/>
<polygon fill="midnightblue" stroke="midnightblue" points="650.39,-331.37 654.44,-321.58 645.17,-326.71 650.39,-331.37"/>
</g>
<!-- Node34 -->
<g id="node34" class="node">
<title>Node34</title>
<g id="a_node34"><a xlink:href="TestConstants_8h.html" target="_top" xlink:title="Constants for Modbus Test Server.">
<polygon fill="white" stroke="black" points="1014,-297 1014,-316 1170,-316 1170,-297 1014,-297"/>
<text text-anchor="middle" x="1092" y="-304" font-family="Helvetica,sans-Serif" font-size="10.00">src/DevUtils/TestConstants.h</text>
</a>
</g>
</g>
<!-- Node1&#45;&gt;Node34 -->
<g id="edge47" class="edge">
<title>Node1&#45;&gt;Node34</title>
<path fill="none" stroke="midnightblue" d="M691.21,-361.44C783.13,-349.07 930.63,-329.22 1018.74,-317.36"/>
<polygon fill="midnightblue" stroke="midnightblue" points="1019.21,-320.83 1028.66,-316.02 1018.28,-313.89 1019.21,-320.83"/>
</g>
<!-- Node36 -->
<g id="node36" class="node">
<title>Node36</title>
<g id="a_node36"><a xlink:href="Signals_8h.html" target="_top" xlink:title="Signal handling interface for the Sensor Data Handler System.">
<polygon fill="white" stroke="black" points="829,-297 829,-316 907,-316 907,-297 829,-297"/>
<text text-anchor="middle" x="868" y="-304" font-family="Helvetica,sans-Serif" font-size="10.00">src/Signals.h</text>
</a>
</g>
</g>
<!-- Node1&#45;&gt;Node36 -->
<g id="edge50" class="edge">
<title>Node1&#45;&gt;Node36</title>
<path fill="none" stroke="midnightblue" d="M664.88,-358.48C712.62,-346.5 780.33,-329.5 824.22,-318.49"/>
<polygon fill="midnightblue" stroke="midnightblue" points="825.17,-321.86 834.02,-316.03 823.47,-315.07 825.17,-321.86"/>
</g>
<!-- Node3 -->
<g id="node3" class="node">
<title>Node3</title>
<g id="a_node3"><a xlink:title=" ">
<polygon fill="white" stroke="#bfbfbf" points="876,-0.5 876,-19.5 932,-19.5 932,-0.5 876,-0.5"/>
<text text-anchor="middle" x="904" y="-7.5" font-family="Helvetica,sans-Serif" font-size="10.00">assert.h</text>
</a>
</g>
</g>
<!-- Node2&#45;&gt;Node3 -->
<g id="edge2" class="edge">
<title>Node2&#45;&gt;Node3</title>
<path fill="none" stroke="midnightblue" d="M693.81,-58.42C731.91,-50.23 799.03,-35.66 865.88,-20.23"/>
<polygon fill="midnightblue" stroke="midnightblue" points="866.78,-23.61 875.73,-17.94 865.2,-16.79 866.78,-23.61"/>
</g>
<!-- Node4 -->
<g id="node4" class="node">
<title>Node4</title>
<g id="a_node4"><a xlink:title=" ">
<polygon fill="white" stroke="#bfbfbf" points="950.5,-0.5 950.5,-19.5 1003.5,-19.5 1003.5,-0.5 950.5,-0.5"/>
<text text-anchor="middle" x="977" y="-7.5" font-family="Helvetica,sans-Serif" font-size="10.00">ctype.h</text>
</a>
</g>
</g>
<!-- Node2&#45;&gt;Node4 -->
<g id="edge3" class="edge">
<title>Node2&#45;&gt;Node4</title>
<path fill="none" stroke="midnightblue" d="M693.59,-60.91C743.25,-54.09 844.66,-39.38 940.47,-19.95"/>
<polygon fill="midnightblue" stroke="midnightblue" points="941.23,-23.37 950.32,-17.94 939.82,-16.51 941.23,-23.37"/>
</g>
<!-- Node5 -->
<g id="node5" class="node">
<title>Node5</title>
<g id="a_node5"><a xlink:title=" ">
<polygon fill="white" stroke="#bfbfbf" points="1021.5,-0.5 1021.5,-19.5 1072.5,-19.5 1072.5,-0.5 1021.5,-0.5"/>
<text text-anchor="middle" x="1047" y="-7.5" font-family="Helvetica,sans-Serif" font-size="10.00">errno.h</text>
</a>
</g>
</g>
<!-- Node2&#45;&gt;Node5 -->
<g id="edge4" class="edge">
<title>Node2&#45;&gt;Node5</title>
<path fill="none" stroke="midnightblue" d="M693.54,-62.34C752.87,-56.9 887.94,-43.19 1011.46,-19.87"/>
<polygon fill="midnightblue" stroke="midnightblue" points="1012.3,-23.27 1021.47,-17.95 1010.99,-16.4 1012.3,-23.27"/>
</g>
<!-- Node6 -->
<g id="node6" class="node">
<title>Node6</title>
<g id="a_node6"><a xlink:title=" ">
<polygon fill="white" stroke="#bfbfbf" points="1090.5,-0.5 1090.5,-19.5 1137.5,-19.5 1137.5,-0.5 1090.5,-0.5"/>
<text text-anchor="middle" x="1114" y="-7.5" font-family="Helvetica,sans-Serif" font-size="10.00">fcntl.h</text>
</a>
</g>
</g>
<!-- Node2&#45;&gt;Node6 -->
<g id="edge5" class="edge">
<title>Node2&#45;&gt;Node6</title>
<path fill="none" stroke="midnightblue" d="M693.66,-63.37C761.63,-59.41 930.11,-47.62 1080.44,-19.8"/>
<polygon fill="midnightblue" stroke="midnightblue" points="1081.13,-23.23 1090.31,-17.94 1079.84,-16.35 1081.13,-23.23"/>
</g>
<!-- Node7 -->
<g id="node7" class="node">
<title>Node7</title>
<g id="a_node7"><a xlink:title=" ">
<polygon fill="white" stroke="#bfbfbf" points="1155.5,-0.5 1155.5,-19.5 1202.5,-19.5 1202.5,-0.5 1155.5,-0.5"/>
<text text-anchor="middle" x="1179" y="-7.5" font-family="Helvetica,sans-Serif" font-size="10.00">float.h</text>
</a>
</g>
</g>
<!-- Node2&#45;&gt;Node7 -->
<g id="edge6" class="edge">
<title>Node2&#45;&gt;Node7</title>
<path fill="none" stroke="midnightblue" d="M693.56,-64.08C768.96,-61.41 969.88,-51.81 1145.42,-20"/>
<polygon fill="midnightblue" stroke="midnightblue" points="1146.15,-23.42 1155.35,-18.17 1144.88,-16.54 1146.15,-23.42"/>
</g>
<!-- Node8 -->
<g id="node8" class="node">
<title>Node8</title>
<g id="a_node8"><a xlink:title=" ">
<polygon fill="white" stroke="#bfbfbf" points="1220.5,-0.5 1220.5,-19.5 1271.5,-19.5 1271.5,-0.5 1220.5,-0.5"/>
<text text-anchor="middle" x="1246" y="-7.5" font-family="Helvetica,sans-Serif" font-size="10.00">math.h</text>
</a>
</g>
</g>
<!-- Node2&#45;&gt;Node8 -->
<g id="edge7" class="edge">
<title>Node2&#45;&gt;Node8</title>
<path fill="none" stroke="midnightblue" d="M693.59,-64.39C775.87,-62.34 1008.76,-53.9 1210.6,-19.96"/>
<polygon fill="midnightblue" stroke="midnightblue" points="1211.22,-23.4 1220.49,-18.27 1210.04,-16.5 1211.22,-23.4"/>
</g>
<!-- Node9 -->
<g id="node9" class="node">
<title>Node9</title>
<g id="a_node9"><a xlink:title=" ">
<polygon fill="white" stroke="#bfbfbf" points="186.5,-0.5 186.5,-19.5 249.5,-19.5 249.5,-0.5 186.5,-0.5"/>
<text text-anchor="middle" x="218" y="-7.5" font-family="Helvetica,sans-Serif" font-size="10.00">pthread.h</text>
</a>
</g>
</g>
<!-- Node2&#45;&gt;Node9 -->
<g id="edge8" class="edge">
<title>Node2&#45;&gt;Node9</title>
<path fill="none" stroke="midnightblue" d="M632.48,-62.02C554.36,-54.33 347.72,-33.57 259.61,-19.9"/>
<polygon fill="midnightblue" stroke="midnightblue" points="260.15,-16.44 249.72,-18.31 259.04,-23.35 260.15,-16.44"/>
</g>
<!-- Node10 -->
<g id="node10" class="node">
<title>Node10</title>
<g id="a_node10"><a xlink:title=" ">
<polygon fill="white" stroke="#bfbfbf" points="268,-0.5 268,-19.5 324,-19.5 324,-0.5 268,-0.5"/>
<text text-anchor="middle" x="296" y="-7.5" font-family="Helvetica,sans-Serif" font-size="10.00">stdarg.h</text>
</a>
</g>
</g>
<!-- Node2&#45;&gt;Node10 -->
<g id="edge9" class="edge">
<title>Node2&#45;&gt;Node10</title>
<path fill="none" stroke="midnightblue" d="M632.35,-61.89C575.51,-55.89 449.75,-41.54 334.28,-20.08"/>
<polygon fill="midnightblue" stroke="midnightblue" points="334.69,-16.59 324.22,-18.18 333.4,-23.47 334.69,-16.59"/>
</g>
<!-- Node11 -->
<g id="node11" class="node">
<title>Node11</title>
<g id="a_node11"><a xlink:title=" ">
<polygon fill="white" stroke="#bfbfbf" points="342.5,-0.5 342.5,-19.5 395.5,-19.5 395.5,-0.5 342.5,-0.5"/>
<text text-anchor="middle" x="369" y="-7.5" font-family="Helvetica,sans-Serif" font-size="10.00">stdint.h</text>
</a>
</g>
</g>
<!-- Node2&#45;&gt;Node11 -->
<g id="edge10" class="edge">
<title>Node2&#45;&gt;Node11</title>
<path fill="none" stroke="midnightblue" d="M632.28,-60.38C585.54,-53.19 493.58,-38.42 405.57,-19.99"/>
<polygon fill="midnightblue" stroke="midnightblue" points="406.19,-16.54 395.69,-17.9 404.75,-23.39 406.19,-16.54"/>
</g>
<!-- Node12 -->
<g id="node12" class="node">
<title>Node12</title>
<g id="a_node12"><a xlink:title=" ">
<polygon fill="white" stroke="#bfbfbf" points="414,-0.5 414,-19.5 464,-19.5 464,-0.5 414,-0.5"/>
<text text-anchor="middle" x="439" y="-7.5" font-family="Helvetica,sans-Serif" font-size="10.00">stdio.h</text>
</a>
</g>
</g>
<!-- Node2&#45;&gt;Node12 -->
<g id="edge11" class="edge">
<title>Node2&#45;&gt;Node12</title>
<path fill="none" stroke="midnightblue" d="M632.34,-58C596.64,-49.79 535.66,-35.59 474.11,-20.23"/>
<polygon fill="midnightblue" stroke="midnightblue" points="474.78,-16.79 464.23,-17.76 473.08,-23.58 474.78,-16.79"/>
</g>
<!-- Node13 -->
<g id="node13" class="node">
<title>Node13</title>
<g id="a_node13"><a xlink:title=" ">
<polygon fill="white" stroke="#bfbfbf" points="482.5,-0.5 482.5,-19.5 535.5,-19.5 535.5,-0.5 482.5,-0.5"/>
<text text-anchor="middle" x="509" y="-7.5" font-family="Helvetica,sans-Serif" font-size="10.00">stdlib.h</text>
</a>
</g>
</g>
<!-- Node2&#45;&gt;Node13 -->
<g id="edge12" class="edge">
<title>Node2&#45;&gt;Node13</title>
<path fill="none" stroke="midnightblue" d="M638.6,-56.44C612.8,-47.4 571.92,-33.06 542.98,-22.92"/>
<polygon fill="midnightblue" stroke="midnightblue" points="543.88,-19.52 533.29,-19.52 541.57,-26.13 543.88,-19.52"/>
</g>
<!-- Node14 -->
<g id="node14" class="node">
<title>Node14</title>
<g id="a_node14"><a xlink:title=" ">
<polygon fill="white" stroke="#bfbfbf" points="553.5,-0.5 553.5,-19.5 606.5,-19.5 606.5,-0.5 553.5,-0.5"/>
<text text-anchor="middle" x="580" y="-7.5" font-family="Helvetica,sans-Serif" font-size="10.00">string.h</text>
</a>
</g>
</g>
<!-- Node2&#45;&gt;Node14 -->
<g id="edge13" class="edge">
<title>Node2&#45;&gt;Node14</title>
<path fill="none" stroke="midnightblue" d="M649.66,-56.32C636.84,-47.98 617.22,-35.21 602.06,-25.35"/>
<polygon fill="midnightblue" stroke="midnightblue" points="603.59,-22.17 593.3,-19.65 599.78,-28.04 603.59,-22.17"/>
</g>
<!-- Node15 -->
<g id="node15" class="node">
<title>Node15</title>
<g id="a_node15"><a xlink:title=" ">
<polygon fill="white" stroke="#bfbfbf" points="624.5,-0.5 624.5,-19.5 701.5,-19.5 701.5,-0.5 624.5,-0.5"/>
<text text-anchor="middle" x="663" y="-7.5" font-family="Helvetica,sans-Serif" font-size="10.00">sys/mman.h</text>
</a>
</g>
</g>
<!-- Node2&#45;&gt;Node15 -->
<g id="edge14" class="edge">
<title>Node2&#45;&gt;Node15</title>
<path fill="none" stroke="midnightblue" d="M663,-56.08C663,-49.01 663,-38.86 663,-29.99"/>
<polygon fill="midnightblue" stroke="midnightblue" points="666.5,-29.75 663,-19.75 659.5,-29.75 666.5,-29.75"/>
</g>
<!-- Node16 -->
<g id="node16" class="node">
<title>Node16</title>
<g id="a_node16"><a xlink:title=" ">
<polygon fill="white" stroke="#bfbfbf" points="720,-0.5 720,-19.5 784,-19.5 784,-0.5 720,-0.5"/>
<text text-anchor="middle" x="752" y="-7.5" font-family="Helvetica,sans-Serif" font-size="10.00">sys/stat.h</text>
</a>
</g>
</g>
<!-- Node2&#45;&gt;Node16 -->
<g id="edge15" class="edge">
<title>Node2&#45;&gt;Node16</title>
<path fill="none" stroke="midnightblue" d="M677.3,-56.32C691.18,-47.9 712.49,-34.97 728.8,-25.07"/>
<polygon fill="midnightblue" stroke="midnightblue" points="731,-27.83 737.74,-19.65 727.37,-21.85 731,-27.83"/>
</g>
<!-- Node17 -->
<g id="node17" class="node">
<title>Node17</title>
<g id="a_node17"><a xlink:title=" ">
<polygon fill="white" stroke="#bfbfbf" points="120,-0.5 120,-19.5 168,-19.5 168,-0.5 120,-0.5"/>
<text text-anchor="middle" x="144" y="-7.5" font-family="Helvetica,sans-Serif" font-size="10.00">time.h</text>
</a>
</g>
</g>
<!-- Node2&#45;&gt;Node17 -->
<g id="edge16" class="edge">
<title>Node2&#45;&gt;Node17</title>
<path fill="none" stroke="midnightblue" d="M632.33,-64.01C556.65,-61.18 354.97,-51.24 178.05,-19.88"/>
<polygon fill="midnightblue" stroke="midnightblue" points="178.5,-16.4 168.04,-18.08 177.26,-23.29 178.5,-16.4"/>
</g>
<!-- Node18 -->
<g id="node18" class="node">
<title>Node18</title>
<g id="a_node18"><a xlink:title=" ">
<polygon fill="white" stroke="#bfbfbf" points="802,-0.5 802,-19.5 858,-19.5 858,-0.5 802,-0.5"/>
<text text-anchor="middle" x="830" y="-7.5" font-family="Helvetica,sans-Serif" font-size="10.00">unistd.h</text>
</a>
</g>
</g>
<!-- Node2&#45;&gt;Node18 -->
<g id="edge17" class="edge">
<title>Node2&#45;&gt;Node18</title>
<path fill="none" stroke="midnightblue" d="M689.46,-56.44C717.68,-47.32 762.54,-32.81 793.97,-22.65"/>
<polygon fill="midnightblue" stroke="midnightblue" points="795.22,-25.92 803.66,-19.52 793.07,-19.26 795.22,-25.92"/>
</g>
<!-- Node19 -->
<g id="node19" class="node">
<title>Node19</title>
<g id="a_node19"><a xlink:title=" ">
<polygon fill="white" stroke="#bfbfbf" points="1290,-0.5 1290,-19.5 1352,-19.5 1352,-0.5 1290,-0.5"/>
<text text-anchor="middle" x="1321" y="-7.5" font-family="Helvetica,sans-Serif" font-size="10.00">stdbool.h</text>
</a>
</g>
</g>
<!-- Node2&#45;&gt;Node19 -->
<g id="edge18" class="edge">
<title>Node2&#45;&gt;Node19</title>
<path fill="none" stroke="midnightblue" d="M693.72,-64.38C782.9,-62.23 1049.56,-53.38 1279.74,-19.97"/>
<polygon fill="midnightblue" stroke="midnightblue" points="1280.26,-23.44 1289.64,-18.52 1279.24,-16.51 1280.26,-23.44"/>
</g>
<!-- Node21&#45;&gt;Node2 -->
<g id="edge22" class="edge">
<title>Node21&#45;&gt;Node2</title>
<path fill="none" stroke="midnightblue" d="M557.66,-229.76C575.18,-202.69 628.75,-119.91 652.02,-83.96"/>
<polygon fill="midnightblue" stroke="midnightblue" points="654.99,-85.82 657.49,-75.52 649.11,-82.01 654.99,-85.82"/>
</g>
<!-- Node22 -->
<g id="node22" class="node">
<title>Node22</title>
<g id="a_node22"><a xlink:title=" ">
<polygon fill="white" stroke="#bfbfbf" points="485,-168.5 485,-187.5 559,-187.5 559,-168.5 485,-168.5"/>
<text text-anchor="middle" x="522" y="-175.5" font-family="Helvetica,sans-Serif" font-size="10.00">stdatomic.h</text>
</a>
</g>
</g>
<!-- Node21&#45;&gt;Node22 -->
<g id="edge21" class="edge">
<title>Node21&#45;&gt;Node22</title>
<path fill="none" stroke="midnightblue" d="M547.7,-229.98C543.34,-221.32 536.44,-207.65 530.9,-196.65"/>
<polygon fill="midnightblue" stroke="midnightblue" points="533.92,-194.86 526.29,-187.51 527.67,-198.01 533.92,-194.86"/>
</g>
<!-- Node21&#45;&gt;Node23 -->
<g id="edge23" class="edge">
<title>Node21&#45;&gt;Node23</title>
<path fill="none" stroke="midnightblue" d="M525.49,-229.98C493.35,-219.64 439.01,-202.16 403.07,-190.6"/>
<polygon fill="midnightblue" stroke="midnightblue" points="404.05,-187.24 393.46,-187.51 401.9,-193.9 404.05,-187.24"/>
</g>
<!-- Node23&#45;&gt;Node2 -->
<g id="edge26" class="edge">
<title>Node23&#45;&gt;Node2</title>
<path fill="none" stroke="midnightblue" d="M390.23,-168.37C442.64,-148.89 570.22,-101.48 630.47,-79.09"/>
<polygon fill="midnightblue" stroke="midnightblue" points="631.73,-82.36 639.88,-75.59 629.29,-75.79 631.73,-82.36"/>
</g>
<!-- Node23&#45;&gt;Node9 -->
<g id="edge24" class="edge">
<title>Node23&#45;&gt;Node9</title>
<path fill="none" stroke="midnightblue" d="M359.13,-168.16C347.99,-155.64 326.97,-132.04 309,-112 282.12,-82.02 250.64,-47.13 232.64,-27.2"/>
<polygon fill="midnightblue" stroke="midnightblue" points="235.11,-24.71 225.8,-19.63 229.91,-29.4 235.11,-24.71"/>
</g>
<!-- Node24 -->
<g id="node24" class="node">
<title>Node24</title>
<g id="a_node24"><a xlink:title=" ">
<polygon fill="white" stroke="#bfbfbf" points="395,-112.5 395,-131.5 475,-131.5 475,-112.5 395,-112.5"/>
<text text-anchor="middle" x="435" y="-119.5" font-family="Helvetica,sans-Serif" font-size="10.00">semaphore.h</text>
</a>
</g>
</g>
<!-- Node23&#45;&gt;Node24 -->
<g id="edge25" class="edge">
<title>Node23&#45;&gt;Node24</title>
<path fill="none" stroke="midnightblue" d="M377.93,-168.32C388.17,-160.18 403.72,-147.84 416,-138.09"/>
<polygon fill="midnightblue" stroke="midnightblue" points="418.22,-140.79 423.88,-131.83 413.87,-135.31 418.22,-140.79"/>
</g>
<!-- Node25 -->
<g id="node25" class="node">
<title>Node25</title>
<g id="a_node25"><a xlink:href="Time_8h.html" target="_top" xlink:title="Lightweight Time Manipulation Utilities.">
<polygon fill="white" stroke="black" points="185.5,-112.5 185.5,-131.5 300.5,-131.5 300.5,-112.5 185.5,-112.5"/>
<text text-anchor="middle" x="243" y="-119.5" font-family="Helvetica,sans-Serif" font-size="10.00">src/Common/Time.h</text>
</a>
</g>
</g>
<!-- Node23&#45;&gt;Node25 -->
<g id="edge27" class="edge">
<title>Node23&#45;&gt;Node25</title>
<path fill="none" stroke="midnightblue" d="M347.35,-168.44C327.04,-159.6 295.1,-145.69 271.9,-135.59"/>
<polygon fill="midnightblue" stroke="midnightblue" points="273.12,-132.3 262.56,-131.52 270.33,-138.72 273.12,-132.3"/>
</g>
<!-- Node25&#45;&gt;Node2 -->
<g id="edge30" class="edge">
<title>Node25&#45;&gt;Node2</title>
<path fill="none" stroke="midnightblue" d="M300.52,-113.6C386.67,-102.53 547.1,-81.9 622.22,-72.24"/>
<polygon fill="midnightblue" stroke="midnightblue" points="622.77,-75.7 632.24,-70.95 621.88,-68.76 622.77,-75.7"/>
</g>
<!-- Node25&#45;&gt;Node17 -->
<g id="edge29" class="edge">
<title>Node25&#45;&gt;Node17</title>
<path fill="none" stroke="midnightblue" d="M242.37,-112.49C240.98,-99.11 236.59,-72.95 223,-56 211.31,-41.42 193.53,-30.7 177.8,-23.38"/>
<polygon fill="midnightblue" stroke="midnightblue" points="178.9,-20.05 168.34,-19.27 176.11,-26.47 178.9,-20.05"/>
</g>
<!-- Node26 -->
<g id="node26" class="node">
<title>Node26</title>
<g id="a_node26"><a xlink:title=" ">
<polygon fill="white" stroke="#bfbfbf" points="161.5,-56.5 161.5,-75.5 214.5,-75.5 214.5,-56.5 161.5,-56.5"/>
<text text-anchor="middle" x="188" y="-63.5" font-family="Helvetica,sans-Serif" font-size="10.00">limits.h</text>
</a>
</g>
</g>
<!-- Node25&#45;&gt;Node26 -->
<g id="edge28" class="edge">
<title>Node25&#45;&gt;Node26</title>
<path fill="none" stroke="midnightblue" d="M233.92,-112.08C225.83,-104.14 213.8,-92.34 204.09,-82.8"/>
<polygon fill="midnightblue" stroke="midnightblue" points="206.5,-80.26 196.91,-75.75 201.6,-85.25 206.5,-80.26"/>
</g>
<!-- Node27&#45;&gt;Node2 -->
<g id="edge32" class="edge">
<title>Node27&#45;&gt;Node2</title>
<path fill="none" stroke="midnightblue" d="M243.3,-168.46C272.17,-154.55 332.3,-127.06 386,-112 468.19,-88.95 567.63,-76.37 622.21,-70.73"/>
<polygon fill="midnightblue" stroke="midnightblue" points="622.58,-74.21 632.18,-69.72 621.88,-67.24 622.58,-74.21"/>
</g>
<!-- Node27&#45;&gt;Node25 -->
<g id="edge33" class="edge">
<title>Node27&#45;&gt;Node25</title>
<path fill="none" stroke="midnightblue" d="M228.81,-168.08C231.08,-160.85 234.37,-150.41 237.21,-141.4"/>
<polygon fill="midnightblue" stroke="midnightblue" points="240.58,-142.34 240.25,-131.75 233.9,-140.24 240.58,-142.34"/>
</g>
<!-- Node28 -->
<g id="node28" class="node">
<title>Node28</title>
<g id="a_node28"><a xlink:title=" ">
<polygon fill="white" stroke="#bfbfbf" points="90.5,-112.5 90.5,-131.5 167.5,-131.5 167.5,-112.5 90.5,-112.5"/>
<text text-anchor="middle" x="129" y="-119.5" font-family="Helvetica,sans-Serif" font-size="10.00">sys/socket.h</text>
</a>
</g>
</g>
<!-- Node27&#45;&gt;Node28 -->
<g id="edge34" class="edge">
<title>Node27&#45;&gt;Node28</title>
<path fill="none" stroke="midnightblue" d="M210.42,-168.32C195,-159.74 171.19,-146.49 153.29,-136.52"/>
<polygon fill="midnightblue" stroke="midnightblue" points="154.99,-133.46 144.55,-131.65 151.58,-139.58 154.99,-133.46"/>
</g>
<!-- Node29 -->
<g id="node29" class="node">
<title>Node29</title>
<g id="a_node29"><a xlink:title=" ">
<polygon fill="white" stroke="#bfbfbf" points="0,-112.5 0,-131.5 72,-131.5 72,-112.5 0,-112.5"/>
<text text-anchor="middle" x="36" y="-119.5" font-family="Helvetica,sans-Serif" font-size="10.00">sys/types.h</text>
</a>
</g>
</g>
<!-- Node27&#45;&gt;Node29 -->
<g id="edge35" class="edge">
<title>Node27&#45;&gt;Node29</title>
<path fill="none" stroke="midnightblue" d="M195.89,-168.44C163.37,-159.2 111.42,-144.44 75.61,-134.26"/>
<polygon fill="midnightblue" stroke="midnightblue" points="76.54,-130.88 65.97,-131.52 74.63,-137.62 76.54,-130.88"/>
</g>
<!-- Node30&#45;&gt;Node2 -->
<g id="edge38" class="edge">
<title>Node30&#45;&gt;Node2</title>
<path fill="none" stroke="midnightblue" d="M666.76,-291.29C666.08,-250.43 664.1,-132.55 663.32,-86.12"/>
<polygon fill="midnightblue" stroke="midnightblue" points="666.82,-85.89 663.15,-75.95 659.82,-86 666.82,-85.89"/>
</g>
<!-- Node30&#45;&gt;Node21 -->
<g id="edge39" class="edge">
<title>Node30&#45;&gt;Node21</title>
<path fill="none" stroke="midnightblue" d="M642.05,-291.4C622.4,-280.29 595.21,-264.92 575.85,-253.98"/>
<polygon fill="midnightblue" stroke="midnightblue" points="577.48,-250.88 567.05,-249.01 574.03,-256.97 577.48,-250.88"/>
</g>
<!-- Node31 -->
<g id="node31" class="node">
<title>Node31</title>
<g id="a_node31"><a xlink:href="ThreadGroup_8h.html" target="_top" xlink:title="Thread Group Management System.">
<polygon fill="white" stroke="black" points="691.5,-230 691.5,-249 844.5,-249 844.5,-230 691.5,-230"/>
<text text-anchor="middle" x="768" y="-237" font-family="Helvetica,sans-Serif" font-size="10.00">src/Common/ThreadGroup.h</text>
</a>
</g>
</g>
<!-- Node30&#45;&gt;Node31 -->
<g id="edge40" class="edge">
<title>Node30&#45;&gt;Node31</title>
<path fill="none" stroke="midnightblue" d="M688.92,-291.4C705.85,-280.5 729.19,-265.48 746.12,-254.58"/>
<polygon fill="midnightblue" stroke="midnightblue" points="748.27,-257.36 754.78,-249.01 744.48,-251.48 748.27,-257.36"/>
</g>
<!-- Node32 -->
<g id="node32" class="node">
<title>Node32</title>
<g id="a_node32"><a xlink:href="cJSON_8h.html" target="_top" xlink:title=" ">
<polygon fill="white" stroke="black" points="862.5,-230 862.5,-249 989.5,-249 989.5,-230 862.5,-230"/>
<text text-anchor="middle" x="926" y="-237" font-family="Helvetica,sans-Serif" font-size="10.00">src/Libs/cJSON/cJSON.h</text>
</a>
</g>
</g>
<!-- Node30&#45;&gt;Node32 -->
<g id="edge45" class="edge">
<title>Node30&#45;&gt;Node32</title>
<path fill="none" stroke="midnightblue" d="M722.88,-291.48C770.62,-279.5 838.33,-262.5 882.22,-251.49"/>
<polygon fill="midnightblue" stroke="midnightblue" points="883.17,-254.86 892.02,-249.03 881.47,-248.07 883.17,-254.86"/>
</g>
<!-- Node31&#45;&gt;Node2 -->
<g id="edge43" class="edge">
<title>Node31&#45;&gt;Node2</title>
<path fill="none" stroke="midnightblue" d="M762.65,-229.76C746.15,-202.81 695.83,-120.62 673.67,-84.42"/>
<polygon fill="midnightblue" stroke="midnightblue" points="676.42,-82.22 668.22,-75.52 670.45,-85.88 676.42,-82.22"/>
</g>
<!-- Node31&#45;&gt;Node9 -->
<g id="edge41" class="edge">
<title>Node31&#45;&gt;Node9</title>
<path fill="none" stroke="midnightblue" d="M749.55,-229.85C704.52,-208.83 585.3,-153.75 484,-112 401.15,-77.85 302.15,-41.38 251.49,-23.03"/>
<polygon fill="midnightblue" stroke="midnightblue" points="252.62,-19.72 242.02,-19.61 250.24,-26.3 252.62,-19.72"/>
</g>
<!-- Node31&#45;&gt;Node19 -->
<g id="edge42" class="edge">
<title>Node31&#45;&gt;Node19</title>
<path fill="none" stroke="midnightblue" d="M786.25,-229.98C815.41,-216.46 874.36,-189.4 925,-168 1059.13,-111.33 1221.19,-48.96 1288.87,-23.18"/>
<polygon fill="midnightblue" stroke="midnightblue" points="1290.43,-26.33 1298.53,-19.51 1287.94,-19.79 1290.43,-26.33"/>
</g>
<!-- Node31&#45;&gt;Node23 -->
<g id="edge44" class="edge">
<title>Node31&#45;&gt;Node23</title>
<path fill="none" stroke="midnightblue" d="M710.55,-229.98C637.59,-219.15 511.91,-200.5 434.48,-189.01"/>
<polygon fill="midnightblue" stroke="midnightblue" points="434.75,-185.51 424.35,-187.51 433.72,-192.44 434.75,-185.51"/>
</g>
<!-- Node33 -->
<g id="node33" class="node">
<title>Node33</title>
<g id="a_node33"><a xlink:title=" ">
<polygon fill="white" stroke="#bfbfbf" points="934,-168.5 934,-187.5 990,-187.5 990,-168.5 934,-168.5"/>
<text text-anchor="middle" x="962" y="-175.5" font-family="Helvetica,sans-Serif" font-size="10.00">stddef.h</text>
</a>
</g>
</g>
<!-- Node32&#45;&gt;Node33 -->
<g id="edge46" class="edge">
<title>Node32&#45;&gt;Node33</title>
<path fill="none" stroke="midnightblue" d="M931.16,-229.98C936.45,-221.23 944.84,-207.37 951.53,-196.31"/>
<polygon fill="midnightblue" stroke="midnightblue" points="954.67,-197.88 956.85,-187.51 948.68,-194.25 954.67,-197.88"/>
</g>
<!-- Node34&#45;&gt;Node2 -->
<g id="edge48" class="edge">
<title>Node34&#45;&gt;Node2</title>
<path fill="none" stroke="midnightblue" d="M1138.92,-296.92C1180.81,-288.19 1237.58,-273.35 1251,-255 1259.14,-243.88 1258.98,-235.23 1251,-224 1186.16,-132.79 826.04,-85.03 703.69,-71.26"/>
<polygon fill="midnightblue" stroke="midnightblue" points="703.93,-67.77 693.61,-70.15 703.16,-74.73 703.93,-67.77"/>
</g>
<!-- Node35 -->
<g id="node35" class="node">
<title>Node35</title>
<g id="a_node35"><a xlink:title=" ">
<polygon fill="white" stroke="#bfbfbf" points="1120,-224.5 1120,-254.5 1242,-254.5 1242,-224.5 1120,-224.5"/>
<text text-anchor="start" x="1128" y="-242.5" font-family="Helvetica,sans-Serif" font-size="10.00">src/DatabaseSystems</text>
<text text-anchor="middle" x="1181" y="-231.5" font-family="Helvetica,sans-Serif" font-size="10.00">/Postgres.h</text>
</a>
</g>
</g>
<!-- Node34&#45;&gt;Node35 -->
<g id="edge49" class="edge">
<title>Node34&#45;&gt;Node35</title>
<path fill="none" stroke="midnightblue" d="M1104,-296.73C1116.61,-287.53 1136.87,-272.73 1153.44,-260.63"/>
<polygon fill="midnightblue" stroke="midnightblue" points="1155.7,-263.31 1161.71,-254.59 1151.57,-257.66 1155.7,-263.31"/>
</g>
<!-- Node36&#45;&gt;Node2 -->
<g id="edge52" class="edge">
<title>Node36&#45;&gt;Node2</title>
<path fill="none" stroke="midnightblue" d="M907.27,-301.78C937.56,-296.62 977.61,-284.32 998,-255 1020.08,-223.25 1022.07,-199.03 999,-168 963.32,-120.01 784.71,-86.22 703.41,-73.08"/>
<polygon fill="midnightblue" stroke="midnightblue" points="703.96,-69.62 693.53,-71.51 702.86,-76.54 703.96,-69.62"/>
</g>
<!-- Node36&#45;&gt;Node21 -->
<g id="edge53" class="edge">
<title>Node36&#45;&gt;Node21</title>
<path fill="none" stroke="midnightblue" d="M828.94,-297.46C772.15,-285.78 666.73,-264.1 603.61,-251.12"/>
<polygon fill="midnightblue" stroke="midnightblue" points="603.98,-247.62 593.48,-249.03 602.57,-254.48 603.98,-247.62"/>
</g>
<!-- Node36&#45;&gt;Node31 -->
<g id="edge54" class="edge">
<title>Node36&#45;&gt;Node31</title>
<path fill="none" stroke="midnightblue" d="M854.51,-296.73C837.95,-285.96 809.62,-267.55 789.91,-254.74"/>
<polygon fill="midnightblue" stroke="midnightblue" points="791.56,-251.64 781.27,-249.13 787.75,-257.51 791.56,-251.64"/>
</g>
<!-- Node36&#45;&gt;Node32 -->
<g id="edge55" class="edge">
<title>Node36&#45;&gt;Node32</title>
<path fill="none" stroke="midnightblue" d="M875.82,-296.73C884.95,-286.5 900.24,-269.36 911.55,-256.69"/>
<polygon fill="midnightblue" stroke="midnightblue" points="914.26,-258.92 918.3,-249.13 909.03,-254.26 914.26,-258.92"/>
</g>
<!-- Node37 -->
<g id="node37" class="node">
<title>Node37</title>
<g id="a_node37"><a xlink:title=" ">
<polygon fill="white" stroke="#bfbfbf" points="1046.5,-230 1046.5,-249 1101.5,-249 1101.5,-230 1046.5,-230"/>
<text text-anchor="middle" x="1074" y="-237" font-family="Helvetica,sans-Serif" font-size="10.00">signal.h</text>
</a>
</g>
</g>
<!-- Node36&#45;&gt;Node37 -->
<g id="edge51" class="edge">
<title>Node36&#45;&gt;Node37</title>
<path fill="none" stroke="midnightblue" d="M896.83,-296.94C929.66,-287.13 984.85,-270.39 1032,-255 1034.59,-254.15 1037.27,-253.26 1039.96,-252.36"/>
<polygon fill="midnightblue" stroke="midnightblue" points="1041.28,-255.61 1049.62,-249.07 1039.02,-248.98 1041.28,-255.61"/>
</g>
</g>
</svg>
