<?xml version="1.0" encoding="UTF-8" standalone="no"?>
<!DOCTYPE svg PUBLIC "-//W3C//DTD SVG 1.1//EN"
 "http://www.w3.org/Graphics/SVG/1.1/DTD/svg11.dtd">
<!-- Generated by graphviz version 2.43.0 (0)
 -->
<!-- Title: GetHandlerIdFromName Pages: 1 -->
<svg width="465pt" height="27pt"
 viewBox="0.00 0.00 465.00 27.00" xmlns="http://www.w3.org/2000/svg" xmlns:xlink="http://www.w3.org/1999/xlink">
<g id="graph0" class="graph" transform="scale(1 1) rotate(0) translate(4 23)">
<title>GetHandlerIdFromName</title>
<!-- Node1 -->
<g id="Node000001" class="node">
<title>Node1</title>
<g id="a_Node000001"><a xlink:title="Converts handler name to its corresponding ID.">
<polygon fill="#999999" stroke="#666666" points="457,-19 322,-19 322,0 457,0 457,-19"/>
<text text-anchor="middle" x="389.5" y="-7" font-family="Helvetica,sans-Serif" font-size="10.00">GetHandlerIdFromName</text>
</a>
</g>
</g>
<!-- Node2 -->
<g id="Node000002" class="node">
<title>Node2</title>
<g id="a_Node000002"><a xlink:href="DataHandlers_8c.html#a1045578fac74308a6c876c8b06299b50" target="_top" xlink:title="Creates a thread group based on configuration.">
<polygon fill="white" stroke="#666666" points="286,-19 206,-19 206,0 286,0 286,-19"/>
<text text-anchor="middle" x="246" y="-7" font-family="Helvetica,sans-Serif" font-size="10.00">DhsCreateTg</text>
</a>
</g>
</g>
<!-- Node1&#45;&gt;Node2 -->
<g id="edge1_Node000001_Node000002" class="edge">
<title>Node1&#45;&gt;Node2</title>
<g id="a_edge1_Node000001_Node000002"><a xlink:title=" ">
<path fill="none" stroke="#63b8ff" d="M311.89,-9.5C303.05,-9.5 294.33,-9.5 286.3,-9.5"/>
<polygon fill="#63b8ff" stroke="#63b8ff" points="311.89,-13 321.89,-9.5 311.89,-6 311.89,-13"/>
</a>
</g>
</g>
<!-- Node3 -->
<g id="Node000003" class="node">
<title>Node3</title>
<g id="a_Node000003"><a xlink:href="Main_8c.html#aeeb5ef67af0eb14822aa17b0dc6f1be7" target="_top" xlink:title="Sets up the thread group manager from a configuration file.">
<polygon fill="white" stroke="#666666" points="170,-19 77,-19 77,0 170,0 170,-19"/>
<text text-anchor="middle" x="123.5" y="-7" font-family="Helvetica,sans-Serif" font-size="10.00">SetUpFromConf</text>
</a>
</g>
</g>
<!-- Node2&#45;&gt;Node3 -->
<g id="edge2_Node000002_Node000003" class="edge">
<title>Node2&#45;&gt;Node3</title>
<g id="a_edge2_Node000002_Node000003"><a xlink:title=" ">
<path fill="none" stroke="#63b8ff" d="M195.74,-9.5C187.27,-9.5 178.5,-9.5 170.13,-9.5"/>
<polygon fill="#63b8ff" stroke="#63b8ff" points="195.88,-13 205.88,-9.5 195.88,-6 195.88,-13"/>
</a>
</g>
</g>
<!-- Node4 -->
<g id="Node000004" class="node">
<title>Node4</title>
<g id="a_Node000004"><a xlink:href="Main_8c.html#ae21eb8342793f7f8f0d5fda6b96c0803" target="_top" xlink:title="Main entry point for the Sensor Data Handler System.">
<polygon fill="white" stroke="#666666" points="41,-19 0,-19 0,0 41,0 41,-19"/>
<text text-anchor="middle" x="20.5" y="-7" font-family="Helvetica,sans-Serif" font-size="10.00">main</text>
</a>
</g>
</g>
<!-- Node3&#45;&gt;Node4 -->
<g id="edge3_Node000003_Node000004" class="edge">
<title>Node3&#45;&gt;Node4</title>
<g id="a_edge3_Node000003_Node000004"><a xlink:title=" ">
<path fill="none" stroke="#63b8ff" d="M66.72,-9.5C57.53,-9.5 48.58,-9.5 41.09,-9.5"/>
<polygon fill="#63b8ff" stroke="#63b8ff" points="66.73,-13 76.73,-9.5 66.73,-6 66.73,-13"/>
</a>
</g>
</g>
</g>
</svg>
