<?xml version="1.0" encoding="UTF-8" standalone="no"?>
<!DOCTYPE svg PUBLIC "-//W3C//DTD SVG 1.1//EN"
 "http://www.w3.org/Graphics/SVG/1.1/DTD/svg11.dtd">
<!-- Generated by graphviz version 2.43.0 (0)
 -->
<!-- Title: src/DatabaseSystems/Postgres.h Pages: 1 -->
<!--zoomable 313 -->

<svg id="main" version="1.1" xmlns="http://www.w3.org/2000/svg" xmlns:xlink="http://www.w3.org/1999/xlink" xml:space="preserve" onload="init(evt)">
<style type="text/css"><![CDATA[
.node, .edge {opacity: 0.7;}
.node.selected, .edge.selected {opacity: 1;}
.edge:hover path { stroke: red; }
.edge:hover polygon { stroke: red; fill: red; }
]]></style>

<defs>
  <circle id="rim" cx="0" cy="0" r="7"/>
  <circle id="rim2" cx="0" cy="0" r="3.5"/>
  <g id="zoomPlus">
    <use xlink:href="#rim" fill="#404040"><set attributeName="fill" to="#808080" begin="zoomplus.mouseover" end="zoomplus.mouseout"/></use>
    <path d="M-4,0h8M0,-4v8" fill="none" stroke="white" stroke-width="1.5" pointer-events="none"/>
  </g>
  <g id="zoomMin">
    <use xlink:href="#rim" fill="#404040"><set attributeName="fill" to="#808080" begin="zoomminus.mouseover" end="zoomminus.mouseout"/></use>
    <path d="M-4,0h8" fill="none" stroke="white" stroke-width="1.5" pointer-events="none"/>
  </g>
  <g id="arrowUp" transform="translate(30 24)">
    <use xlink:href="#rim"/>
    <path pointer-events="none" fill="none" stroke="white" stroke-width="1.5" d="M0,-3.0v7 M-2.5,-0.5L0,-3.0L2.5,-0.5"/>
  </g>
  <g id="arrowRight" transform="rotate(90) translate(36 -43)">
    <use xlink:href="#rim"/>
    <path pointer-events="none" fill="none" stroke="white" stroke-width="1.5" d="M0,-3.0v7 M-2.5,-0.5L0,-3.0L2.5,-0.5"/>
  </g>
  <g id="arrowDown" transform="rotate(180) translate(-30 -48)">
    <use xlink:href="#rim"/>
    <path pointer-events="none" fill="none" stroke="white" stroke-width="1.5" d="M0,-3.0v7 M-2.5,-0.5L0,-3.0L2.5,-0.5"/>
  </g>
  <g id="arrowLeft" transform="rotate(270) translate(-36 17)">
    <use xlink:href="#rim"/>
    <path pointer-events="none" fill="none" stroke="white" stroke-width="1.5" d="M0,-3.0v7 M-2.5,-0.5L0,-3.0L2.5,-0.5"/>
  </g>
  <g id="resetDef">
    <use xlink:href="#rim2" fill="#404040"><set attributeName="fill" to="#808080" begin="reset.mouseover" end="reset.mouseout"/></use>
  </g>
</defs>
<script type="application/ecmascript">
var viewWidth = 1240;
var viewHeight = 313;
var sectionId = 'dynsection-0';
</script>
<script type="application/ecmascript" xlink:href="svg.min.js"/>
<svg id="graph" class="graph">
<g id="viewport">
<title>src/DatabaseSystems/Postgres.h</title>
<!-- Node1 -->
<g id="Node000001" class="node">
<title>Node1</title>
<g id="a_Node000001"><a xlink:title="PostgreSQL interface for sensor data storage.">
<polygon fill="#999999" stroke="#666666" points="836.5,-305 714.5,-305 714.5,-275 836.5,-275 836.5,-305"/>
<text text-anchor="start" x="722.5" y="-293" font-family="Helvetica,sans-Serif" font-size="10.00">src/DatabaseSystems</text>
<text text-anchor="middle" x="775.5" y="-282" font-family="Helvetica,sans-Serif" font-size="10.00">/Postgres.h</text>
</a>
</g>
</g>
<!-- Node2 -->
<g id="Node000002" class="node">
<title>Node2</title>
<g id="a_Node000002"><a xlink:title=" ">
<polygon fill="#e0e0e0" stroke="#999999" points="636,-239 573,-239 573,-220 636,-220 636,-239"/>
<text text-anchor="middle" x="604.5" y="-227" font-family="Helvetica,sans-Serif" font-size="10.00">libpq&#45;fe.h</text>
</a>
</g>
</g>
<!-- Node1&#45;&gt;Node2 -->
<g id="edge1_Node000001_Node000002" class="edge">
<title>Node1&#45;&gt;Node2</title>
<g id="a_edge1_Node000001_Node000002"><a xlink:title=" ">
<path fill="none" stroke="#63b8ff" d="M734.54,-274.99C705.5,-265.05 666.95,-251.86 639.38,-242.43"/>
<polygon fill="#63b8ff" stroke="#63b8ff" points="640.35,-239.06 629.75,-239.14 638.08,-245.69 640.35,-239.06"/>
</a>
</g>
</g>
<!-- Node3 -->
<g id="Node000003" class="node">
<title>Node3</title>
<g id="a_Node000003"><a xlink:href="Sdb_8h.html" target="_top" xlink:title=" ">
<polygon fill="white" stroke="#666666" points="714,-74 653,-74 653,-55 714,-55 714,-74"/>
<text text-anchor="middle" x="683.5" y="-62" font-family="Helvetica,sans-Serif" font-size="10.00">src/Sdb.h</text>
</a>
</g>
</g>
<!-- Node1&#45;&gt;Node3 -->
<g id="edge2_Node000001_Node000003" class="edge">
<title>Node1&#45;&gt;Node3</title>
<g id="a_edge2_Node000001_Node000003"><a xlink:title=" ">
<path fill="none" stroke="#63b8ff" d="M728.38,-274.89C711.15,-267.2 693.44,-255.72 683.5,-239 654.18,-189.69 668.49,-117.71 677.74,-84.09"/>
<polygon fill="#63b8ff" stroke="#63b8ff" points="681.17,-84.83 680.61,-74.25 674.45,-82.87 681.17,-84.83"/>
</a>
</g>
</g>
<!-- Node21 -->
<g id="Node000021" class="node">
<title>Node21</title>
<g id="a_Node000021"><a xlink:href="SensorDataPipe_8h.html" target="_top" xlink:title="Lock&#45;Free Data Pipeline.">
<polygon fill="white" stroke="#666666" points="859,-239 692,-239 692,-220 859,-220 859,-239"/>
<text text-anchor="middle" x="775.5" y="-227" font-family="Helvetica,sans-Serif" font-size="10.00">src/Common/SensorDataPipe.h</text>
</a>
</g>
</g>
<!-- Node1&#45;&gt;Node21 -->
<g id="edge20_Node000001_Node000021" class="edge">
<title>Node1&#45;&gt;Node21</title>
<g id="a_edge20_Node000001_Node000021"><a xlink:title=" ">
<path fill="none" stroke="#63b8ff" d="M775.5,-274.84C775.5,-267.21 775.5,-257.7 775.5,-249.45"/>
<polygon fill="#63b8ff" stroke="#63b8ff" points="779,-249.27 775.5,-239.27 772,-249.27 779,-249.27"/>
</a>
</g>
</g>
<!-- Node23 -->
<g id="Node000023" class="node">
<title>Node23</title>
<g id="a_Node000023"><a xlink:href="Thread_8h.html" target="_top" xlink:title="Lightweight Synchronization Primitives Wrapper.">
<polygon fill="white" stroke="#666666" points="947.5,-184 823.5,-184 823.5,-165 947.5,-165 947.5,-184"/>
<text text-anchor="middle" x="885.5" y="-172" font-family="Helvetica,sans-Serif" font-size="10.00">src/Common/Thread.h</text>
</a>
</g>
</g>
<!-- Node1&#45;&gt;Node23 -->
<g id="edge31_Node000001_Node000023" class="edge">
<title>Node1&#45;&gt;Node23</title>
<g id="a_edge31_Node000001_Node000023"><a xlink:title=" ">
<path fill="none" stroke="#63b8ff" d="M818.1,-274.83C836.02,-266.89 855.64,-255.24 868.5,-239 878.57,-226.28 882.7,-208.1 884.38,-194.45"/>
<polygon fill="#63b8ff" stroke="#63b8ff" points="887.88,-194.54 885.29,-184.27 880.91,-193.92 887.88,-194.54"/>
</a>
</g>
</g>
<!-- Node27 -->
<g id="Node000027" class="node">
<title>Node27</title>
<g id="a_Node000027"><a xlink:href="cJSON_8h.html" target="_top" xlink:title=" ">
<polygon fill="white" stroke="#666666" points="1050,-239 923,-239 923,-220 1050,-220 1050,-239"/>
<text text-anchor="middle" x="986.5" y="-227" font-family="Helvetica,sans-Serif" font-size="10.00">src/Libs/cJSON/cJSON.h</text>
</a>
</g>
</g>
<!-- Node1&#45;&gt;Node27 -->
<g id="edge32_Node000001_Node000027" class="edge">
<title>Node1&#45;&gt;Node27</title>
<g id="a_edge32_Node000001_Node000027"><a xlink:title=" ">
<path fill="none" stroke="#63b8ff" d="M826.04,-274.99C862.77,-264.8 911.83,-251.2 945.99,-241.73"/>
<polygon fill="#63b8ff" stroke="#63b8ff" points="946.95,-245.1 955.65,-239.05 945.08,-238.35 946.95,-245.1"/>
</a>
</g>
</g>
<!-- Node4 -->
<g id="Node000004" class="node">
<title>Node4</title>
<g id="a_Node000004"><a xlink:title=" ">
<polygon fill="#e0e0e0" stroke="#999999" points="943.5,-19 887.5,-19 887.5,0 943.5,0 943.5,-19"/>
<text text-anchor="middle" x="915.5" y="-7" font-family="Helvetica,sans-Serif" font-size="10.00">assert.h</text>
</a>
</g>
</g>
<!-- Node3&#45;&gt;Node4 -->
<g id="edge3_Node000003_Node000004" class="edge">
<title>Node3&#45;&gt;Node4</title>
<g id="a_edge3_Node000003_Node000004"><a xlink:title=" ">
<path fill="none" stroke="#63b8ff" d="M714.24,-56.5C750.79,-48.17 813.9,-33.78 877.43,-19.24"/>
<polygon fill="#63b8ff" stroke="#63b8ff" points="878.25,-22.64 887.22,-17 876.69,-15.82 878.25,-22.64"/>
</a>
</g>
</g>
<!-- Node5 -->
<g id="Node000005" class="node">
<title>Node5</title>
<g id="a_Node000005"><a xlink:title=" ">
<polygon fill="#e0e0e0" stroke="#999999" points="1015,-19 962,-19 962,0 1015,0 1015,-19"/>
<text text-anchor="middle" x="988.5" y="-7" font-family="Helvetica,sans-Serif" font-size="10.00">ctype.h</text>
</a>
</g>
</g>
<!-- Node3&#45;&gt;Node5 -->
<g id="edge4_Node000003_Node000005" class="edge">
<title>Node3&#45;&gt;Node5</title>
<g id="a_edge4_Node000003_Node000005"><a xlink:title=" ">
<path fill="none" stroke="#63b8ff" d="M714.28,-59.1C762.63,-52.05 859.51,-37.3 951.75,-19.03"/>
<polygon fill="#63b8ff" stroke="#63b8ff" points="952.69,-22.41 961.81,-17.02 951.32,-15.54 952.69,-22.41"/>
</a>
</g>
</g>
<!-- Node6 -->
<g id="Node000006" class="node">
<title>Node6</title>
<g id="a_Node000006"><a xlink:title=" ">
<polygon fill="#e0e0e0" stroke="#999999" points="1084,-19 1033,-19 1033,0 1084,0 1084,-19"/>
<text text-anchor="middle" x="1058.5" y="-7" font-family="Helvetica,sans-Serif" font-size="10.00">errno.h</text>
</a>
</g>
</g>
<!-- Node3&#45;&gt;Node6 -->
<g id="edge5_Node000003_Node000006" class="edge">
<title>Node3&#45;&gt;Node6</title>
<g id="a_edge5_Node000003_Node000006"><a xlink:title=" ">
<path fill="none" stroke="#63b8ff" d="M714.26,-60.69C772.62,-55.09 903.58,-41.3 1022.91,-19.11"/>
<polygon fill="#63b8ff" stroke="#63b8ff" points="1023.77,-22.51 1032.95,-17.22 1022.47,-15.64 1023.77,-22.51"/>
</a>
</g>
</g>
<!-- Node7 -->
<g id="Node000007" class="node">
<title>Node7</title>
<g id="a_Node000007"><a xlink:title=" ">
<polygon fill="#e0e0e0" stroke="#999999" points="47,-19 0,-19 0,0 47,0 47,-19"/>
<text text-anchor="middle" x="23.5" y="-7" font-family="Helvetica,sans-Serif" font-size="10.00">fcntl.h</text>
</a>
</g>
</g>
<!-- Node3&#45;&gt;Node7 -->
<g id="edge6_Node000003_Node000007" class="edge">
<title>Node3&#45;&gt;Node7</title>
<g id="a_edge6_Node000003_Node000007"><a xlink:title=" ">
<path fill="none" stroke="#63b8ff" d="M652.87,-63.37C562.73,-62.56 290.57,-57.04 57.19,-18.98"/>
<polygon fill="#63b8ff" stroke="#63b8ff" points="57.59,-15.5 47.16,-17.32 56.45,-22.4 57.59,-15.5"/>
</a>
</g>
</g>
<!-- Node8 -->
<g id="Node000008" class="node">
<title>Node8</title>
<g id="a_Node000008"><a xlink:title=" ">
<polygon fill="#e0e0e0" stroke="#999999" points="112,-19 65,-19 65,0 112,0 112,-19"/>
<text text-anchor="middle" x="88.5" y="-7" font-family="Helvetica,sans-Serif" font-size="10.00">float.h</text>
</a>
</g>
</g>
<!-- Node3&#45;&gt;Node8 -->
<g id="edge7_Node000003_Node000008" class="edge">
<title>Node3&#45;&gt;Node8</title>
<g id="a_edge7_Node000003_Node000008"><a xlink:title=" ">
<path fill="none" stroke="#63b8ff" d="M652.75,-63.02C568.93,-61.29 329.41,-53.61 122.31,-19.02"/>
<polygon fill="#63b8ff" stroke="#63b8ff" points="122.61,-15.52 112.16,-17.3 121.43,-22.42 122.61,-15.52"/>
</a>
</g>
</g>
<!-- Node9 -->
<g id="Node000009" class="node">
<title>Node9</title>
<g id="a_Node000009"><a xlink:title=" ">
<polygon fill="#e0e0e0" stroke="#999999" points="181,-19 130,-19 130,0 181,0 181,-19"/>
<text text-anchor="middle" x="155.5" y="-7" font-family="Helvetica,sans-Serif" font-size="10.00">math.h</text>
</a>
</g>
</g>
<!-- Node3&#45;&gt;Node9 -->
<g id="edge8_Node000003_Node000009" class="edge">
<title>Node3&#45;&gt;Node9</title>
<g id="a_edge8_Node000003_Node000009"><a xlink:title=" ">
<path fill="none" stroke="#63b8ff" d="M652.72,-62.31C576.26,-59.01 371.46,-48.12 190.96,-18.8"/>
<polygon fill="#63b8ff" stroke="#63b8ff" points="191.46,-15.33 181.02,-17.16 190.32,-22.24 191.46,-15.33"/>
</a>
</g>
</g>
<!-- Node10 -->
<g id="Node000010" class="node">
<title>Node10</title>
<g id="a_Node000010"><a xlink:title=" ">
<polygon fill="#e0e0e0" stroke="#999999" points="1232,-19 1169,-19 1169,0 1232,0 1232,-19"/>
<text text-anchor="middle" x="1200.5" y="-7" font-family="Helvetica,sans-Serif" font-size="10.00">pthread.h</text>
</a>
</g>
</g>
<!-- Node3&#45;&gt;Node10 -->
<g id="edge9_Node000003_Node000010" class="edge">
<title>Node3&#45;&gt;Node10</title>
<g id="a_edge9_Node000003_Node000010"><a xlink:title=" ">
<path fill="none" stroke="#63b8ff" d="M714.27,-61.81C788.76,-57.48 984.81,-44.55 1158.68,-18.95"/>
<polygon fill="#63b8ff" stroke="#63b8ff" points="1159.4,-22.38 1168.78,-17.44 1158.37,-15.45 1159.4,-22.38"/>
</a>
</g>
</g>
<!-- Node11 -->
<g id="Node000011" class="node">
<title>Node11</title>
<g id="a_Node000011"><a xlink:title=" ">
<polygon fill="#e0e0e0" stroke="#999999" points="255.5,-19 199.5,-19 199.5,0 255.5,0 255.5,-19"/>
<text text-anchor="middle" x="227.5" y="-7" font-family="Helvetica,sans-Serif" font-size="10.00">stdarg.h</text>
</a>
</g>
</g>
<!-- Node3&#45;&gt;Node11 -->
<g id="edge10_Node000003_Node000011" class="edge">
<title>Node3&#45;&gt;Node11</title>
<g id="a_edge10_Node000003_Node000011"><a xlink:title=" ">
<path fill="none" stroke="#63b8ff" d="M652.84,-61.51C584.86,-56.83 416.25,-43.73 265.61,-18.99"/>
<polygon fill="#63b8ff" stroke="#63b8ff" points="266.15,-15.54 255.71,-17.35 265,-22.44 266.15,-15.54"/>
</a>
</g>
</g>
<!-- Node12 -->
<g id="Node000012" class="node">
<title>Node12</title>
<g id="a_Node000012"><a xlink:title=" ">
<polygon fill="#e0e0e0" stroke="#999999" points="327,-19 274,-19 274,0 327,0 327,-19"/>
<text text-anchor="middle" x="300.5" y="-7" font-family="Helvetica,sans-Serif" font-size="10.00">stdint.h</text>
</a>
</g>
</g>
<!-- Node3&#45;&gt;Node12 -->
<g id="edge11_Node000003_Node000012" class="edge">
<title>Node3&#45;&gt;Node12</title>
<g id="a_edge11_Node000003_Node000012"><a xlink:title=" ">
<path fill="none" stroke="#63b8ff" d="M652.7,-60.64C593.53,-54.91 459.73,-40.83 337.11,-18.92"/>
<polygon fill="#63b8ff" stroke="#63b8ff" points="337.63,-15.46 327.17,-17.12 336.39,-22.35 337.63,-15.46"/>
</a>
</g>
</g>
<!-- Node13 -->
<g id="Node000013" class="node">
<title>Node13</title>
<g id="a_Node000013"><a xlink:title=" ">
<polygon fill="#e0e0e0" stroke="#999999" points="395.5,-19 345.5,-19 345.5,0 395.5,0 395.5,-19"/>
<text text-anchor="middle" x="370.5" y="-7" font-family="Helvetica,sans-Serif" font-size="10.00">stdio.h</text>
</a>
</g>
</g>
<!-- Node3&#45;&gt;Node13 -->
<g id="edge12_Node000003_Node000013" class="edge">
<title>Node3&#45;&gt;Node13</title>
<g id="a_edge12_Node000003_Node000013"><a xlink:title=" ">
<path fill="none" stroke="#63b8ff" d="M652.79,-59.49C602.95,-52.79 501.18,-38.32 405.53,-19.06"/>
<polygon fill="#63b8ff" stroke="#63b8ff" points="406.19,-15.62 395.7,-17.06 404.8,-22.48 406.19,-15.62"/>
</a>
</g>
</g>
<!-- Node14 -->
<g id="Node000014" class="node">
<title>Node14</title>
<g id="a_Node000014"><a xlink:title=" ">
<polygon fill="#e0e0e0" stroke="#999999" points="467,-19 414,-19 414,0 467,0 467,-19"/>
<text text-anchor="middle" x="440.5" y="-7" font-family="Helvetica,sans-Serif" font-size="10.00">stdlib.h</text>
</a>
</g>
</g>
<!-- Node3&#45;&gt;Node14 -->
<g id="edge13_Node000003_Node000014" class="edge">
<title>Node3&#45;&gt;Node14</title>
<g id="a_edge13_Node000003_Node000014"><a xlink:title=" ">
<path fill="none" stroke="#63b8ff" d="M652.78,-57.2C614.05,-49.2 545.17,-34.78 477.25,-19.36"/>
<polygon fill="#63b8ff" stroke="#63b8ff" points="477.76,-15.88 467.24,-17.07 476.21,-22.71 477.76,-15.88"/>
</a>
</g>
</g>
<!-- Node15 -->
<g id="Node000015" class="node">
<title>Node15</title>
<g id="a_Node000015"><a xlink:title=" ">
<polygon fill="#e0e0e0" stroke="#999999" points="538,-19 485,-19 485,0 538,0 538,-19"/>
<text text-anchor="middle" x="511.5" y="-7" font-family="Helvetica,sans-Serif" font-size="10.00">string.h</text>
</a>
</g>
</g>
<!-- Node3&#45;&gt;Node15 -->
<g id="edge14_Node000003_Node000015" class="edge">
<title>Node3&#45;&gt;Node15</title>
<g id="a_edge14_Node000003_Node000015"><a xlink:title=" ">
<path fill="none" stroke="#63b8ff" d="M655.87,-54.98C626.65,-45.98 580.41,-31.73 548.16,-21.8"/>
<polygon fill="#63b8ff" stroke="#63b8ff" points="548.8,-18.33 538.22,-18.73 546.74,-25.02 548.8,-18.33"/>
</a>
</g>
</g>
<!-- Node16 -->
<g id="Node000016" class="node">
<title>Node16</title>
<g id="a_Node000016"><a xlink:title=" ">
<polygon fill="#e0e0e0" stroke="#999999" points="633,-19 556,-19 556,0 633,0 633,-19"/>
<text text-anchor="middle" x="594.5" y="-7" font-family="Helvetica,sans-Serif" font-size="10.00">sys/mman.h</text>
</a>
</g>
</g>
<!-- Node3&#45;&gt;Node16 -->
<g id="edge15_Node000003_Node000016" class="edge">
<title>Node3&#45;&gt;Node16</title>
<g id="a_edge15_Node000003_Node000016"><a xlink:title=" ">
<path fill="none" stroke="#63b8ff" d="M669.2,-54.98C655.4,-46.77 634.26,-34.18 617.99,-24.49"/>
<polygon fill="#63b8ff" stroke="#63b8ff" points="619.44,-21.28 609.06,-19.17 615.86,-27.29 619.44,-21.28"/>
</a>
</g>
</g>
<!-- Node17 -->
<g id="Node000017" class="node">
<title>Node17</title>
<g id="a_Node000017"><a xlink:title=" ">
<polygon fill="#e0e0e0" stroke="#999999" points="715.5,-19 651.5,-19 651.5,0 715.5,0 715.5,-19"/>
<text text-anchor="middle" x="683.5" y="-7" font-family="Helvetica,sans-Serif" font-size="10.00">sys/stat.h</text>
</a>
</g>
</g>
<!-- Node3&#45;&gt;Node17 -->
<g id="edge16_Node000003_Node000017" class="edge">
<title>Node3&#45;&gt;Node17</title>
<g id="a_edge16_Node000003_Node000017"><a xlink:title=" ">
<path fill="none" stroke="#63b8ff" d="M683.5,-54.75C683.5,-47.8 683.5,-37.85 683.5,-29.13"/>
<polygon fill="#63b8ff" stroke="#63b8ff" points="687,-29.09 683.5,-19.09 680,-29.09 687,-29.09"/>
</a>
</g>
</g>
<!-- Node18 -->
<g id="Node000018" class="node">
<title>Node18</title>
<g id="a_Node000018"><a xlink:title=" ">
<polygon fill="#e0e0e0" stroke="#999999" points="1150.5,-19 1102.5,-19 1102.5,0 1150.5,0 1150.5,-19"/>
<text text-anchor="middle" x="1126.5" y="-7" font-family="Helvetica,sans-Serif" font-size="10.00">time.h</text>
</a>
</g>
</g>
<!-- Node3&#45;&gt;Node18 -->
<g id="edge17_Node000003_Node000018" class="edge">
<title>Node3&#45;&gt;Node18</title>
<g id="a_edge17_Node000003_Node000018"><a xlink:title=" ">
<path fill="none" stroke="#63b8ff" d="M714.06,-61.69C780.94,-57.42 945.36,-45.15 1092.34,-18.95"/>
<polygon fill="#63b8ff" stroke="#63b8ff" points="1093.22,-22.35 1102.44,-17.12 1091.97,-15.46 1093.22,-22.35"/>
</a>
</g>
</g>
<!-- Node19 -->
<g id="Node000019" class="node">
<title>Node19</title>
<g id="a_Node000019"><a xlink:title=" ">
<polygon fill="#e0e0e0" stroke="#999999" points="789.5,-19 733.5,-19 733.5,0 789.5,0 789.5,-19"/>
<text text-anchor="middle" x="761.5" y="-7" font-family="Helvetica,sans-Serif" font-size="10.00">unistd.h</text>
</a>
</g>
</g>
<!-- Node3&#45;&gt;Node19 -->
<g id="edge18_Node000003_Node000019" class="edge">
<title>Node3&#45;&gt;Node19</title>
<g id="a_edge18_Node000003_Node000019"><a xlink:title=" ">
<path fill="none" stroke="#63b8ff" d="M696.03,-54.98C707.9,-46.92 725.96,-34.65 740.11,-25.03"/>
<polygon fill="#63b8ff" stroke="#63b8ff" points="742.44,-27.69 748.74,-19.17 738.5,-21.9 742.44,-27.69"/>
</a>
</g>
</g>
<!-- Node20 -->
<g id="Node000020" class="node">
<title>Node20</title>
<g id="a_Node000020"><a xlink:title=" ">
<polygon fill="#e0e0e0" stroke="#999999" points="869.5,-19 807.5,-19 807.5,0 869.5,0 869.5,-19"/>
<text text-anchor="middle" x="838.5" y="-7" font-family="Helvetica,sans-Serif" font-size="10.00">stdbool.h</text>
</a>
</g>
</g>
<!-- Node3&#45;&gt;Node20 -->
<g id="edge19_Node000003_Node000020" class="edge">
<title>Node3&#45;&gt;Node20</title>
<g id="a_edge19_Node000003_Node000020"><a xlink:title=" ">
<path fill="none" stroke="#63b8ff" d="M708.4,-54.98C734.2,-46.16 774.72,-32.31 803.68,-22.41"/>
<polygon fill="#63b8ff" stroke="#63b8ff" points="805.07,-25.63 813.4,-19.08 802.81,-19.01 805.07,-25.63"/>
</a>
</g>
</g>
<!-- Node21&#45;&gt;Node3 -->
<g id="edge22_Node000021_Node000003" class="edge">
<title>Node21&#45;&gt;Node3</title>
<g id="a_edge22_Node000021_Node000003"><a xlink:title=" ">
<path fill="none" stroke="#63b8ff" d="M761.44,-219.92C749.5,-211.97 732.74,-199.12 722.5,-184 701.33,-152.73 690.9,-109.07 686.41,-84.42"/>
<polygon fill="#63b8ff" stroke="#63b8ff" points="689.81,-83.54 684.7,-74.26 682.91,-84.7 689.81,-83.54"/>
</a>
</g>
</g>
<!-- Node22 -->
<g id="Node000022" class="node">
<title>Node22</title>
<g id="a_Node000022"><a xlink:title=" ">
<polygon fill="#e0e0e0" stroke="#999999" points="805.5,-184 731.5,-184 731.5,-165 805.5,-165 805.5,-184"/>
<text text-anchor="middle" x="768.5" y="-172" font-family="Helvetica,sans-Serif" font-size="10.00">stdatomic.h</text>
</a>
</g>
</g>
<!-- Node21&#45;&gt;Node22 -->
<g id="edge21_Node000021_Node000022" class="edge">
<title>Node21&#45;&gt;Node22</title>
<g id="a_edge21_Node000021_Node000022"><a xlink:title=" ">
<path fill="none" stroke="#63b8ff" d="M774.34,-219.75C773.43,-212.8 772.11,-202.85 770.96,-194.13"/>
<polygon fill="#63b8ff" stroke="#63b8ff" points="774.41,-193.54 769.63,-184.09 767.47,-194.46 774.41,-193.54"/>
</a>
</g>
</g>
<!-- Node21&#45;&gt;Node23 -->
<g id="edge23_Node000021_Node000023" class="edge">
<title>Node21&#45;&gt;Node23</title>
<g id="a_edge23_Node000021_Node000023"><a xlink:title=" ">
<path fill="none" stroke="#63b8ff" d="M793.17,-219.98C810.79,-211.5 838.08,-198.35 858.43,-188.54"/>
<polygon fill="#63b8ff" stroke="#63b8ff" points="860.02,-191.66 867.51,-184.17 856.98,-185.36 860.02,-191.66"/>
</a>
</g>
</g>
<!-- Node23&#45;&gt;Node3 -->
<g id="edge26_Node000023_Node000003" class="edge">
<title>Node23&#45;&gt;Node3</title>
<g id="a_edge26_Node000023_Node000003"><a xlink:title=" ">
<path fill="none" stroke="#63b8ff" d="M869.31,-164.84C834.13,-146.04 750.52,-101.33 708.5,-78.87"/>
<polygon fill="#63b8ff" stroke="#63b8ff" points="709.95,-75.68 699.49,-74.05 706.65,-81.85 709.95,-75.68"/>
</a>
</g>
</g>
<!-- Node23&#45;&gt;Node10 -->
<g id="edge24_Node000023_Node000010" class="edge">
<title>Node23&#45;&gt;Node10</title>
<g id="a_edge24_Node000023_Node000010"><a xlink:title=" ">
<path fill="none" stroke="#63b8ff" d="M927.64,-164.98C958.5,-157.81 1000.86,-145.97 1035.5,-129 1094.3,-100.19 1154.6,-50.83 1183.3,-25.89"/>
<polygon fill="#63b8ff" stroke="#63b8ff" points="1185.64,-28.49 1190.84,-19.26 1181.02,-23.24 1185.64,-28.49"/>
</a>
</g>
</g>
<!-- Node24 -->
<g id="Node000024" class="node">
<title>Node24</title>
<g id="a_Node000024"><a xlink:title=" ">
<polygon fill="#e0e0e0" stroke="#999999" points="1026.5,-129 946.5,-129 946.5,-110 1026.5,-110 1026.5,-129"/>
<text text-anchor="middle" x="986.5" y="-117" font-family="Helvetica,sans-Serif" font-size="10.00">semaphore.h</text>
</a>
</g>
</g>
<!-- Node23&#45;&gt;Node24 -->
<g id="edge25_Node000023_Node000024" class="edge">
<title>Node23&#45;&gt;Node24</title>
<g id="a_edge25_Node000023_Node000024"><a xlink:title=" ">
<path fill="none" stroke="#63b8ff" d="M901.73,-164.98C917.68,-156.61 942.28,-143.7 960.88,-133.95"/>
<polygon fill="#63b8ff" stroke="#63b8ff" points="962.75,-136.92 969.98,-129.17 959.5,-130.72 962.75,-136.92"/>
</a>
</g>
</g>
<!-- Node25 -->
<g id="Node000025" class="node">
<title>Node25</title>
<g id="a_Node000025"><a xlink:href="Time_8h.html" target="_top" xlink:title="Lightweight Time Manipulation Utilities.">
<polygon fill="white" stroke="#666666" points="928,-129 813,-129 813,-110 928,-110 928,-129"/>
<text text-anchor="middle" x="870.5" y="-117" font-family="Helvetica,sans-Serif" font-size="10.00">src/Common/Time.h</text>
</a>
</g>
</g>
<!-- Node23&#45;&gt;Node25 -->
<g id="edge27_Node000023_Node000025" class="edge">
<title>Node23&#45;&gt;Node25</title>
<g id="a_edge27_Node000023_Node000025"><a xlink:title=" ">
<path fill="none" stroke="#63b8ff" d="M883.02,-164.75C881.04,-157.72 878.18,-147.62 875.69,-138.84"/>
<polygon fill="#63b8ff" stroke="#63b8ff" points="879.02,-137.76 872.93,-129.09 872.29,-139.66 879.02,-137.76"/>
</a>
</g>
</g>
<!-- Node25&#45;&gt;Node3 -->
<g id="edge30_Node000025_Node000003" class="edge">
<title>Node25&#45;&gt;Node3</title>
<g id="a_edge30_Node000025_Node000003"><a xlink:title=" ">
<path fill="none" stroke="#63b8ff" d="M840.46,-109.98C808.79,-101.01 758.73,-86.82 723.69,-76.89"/>
<polygon fill="#63b8ff" stroke="#63b8ff" points="724.36,-73.44 713.78,-74.08 722.45,-80.18 724.36,-73.44"/>
</a>
</g>
</g>
<!-- Node25&#45;&gt;Node18 -->
<g id="edge29_Node000025_Node000018" class="edge">
<title>Node25&#45;&gt;Node18</title>
<g id="a_edge29_Node000025_Node000018"><a xlink:title=" ">
<path fill="none" stroke="#63b8ff" d="M891.02,-109.84C936.16,-90.8 1044.25,-45.2 1096.8,-23.03"/>
<polygon fill="#63b8ff" stroke="#63b8ff" points="1098.39,-26.16 1106.24,-19.05 1095.67,-19.71 1098.39,-26.16"/>
</a>
</g>
</g>
<!-- Node26 -->
<g id="Node000026" class="node">
<title>Node26</title>
<g id="a_Node000026"><a xlink:title=" ">
<polygon fill="#e0e0e0" stroke="#999999" points="897,-74 844,-74 844,-55 897,-55 897,-74"/>
<text text-anchor="middle" x="870.5" y="-62" font-family="Helvetica,sans-Serif" font-size="10.00">limits.h</text>
</a>
</g>
</g>
<!-- Node25&#45;&gt;Node26 -->
<g id="edge28_Node000025_Node000026" class="edge">
<title>Node25&#45;&gt;Node26</title>
<g id="a_edge28_Node000025_Node000026"><a xlink:title=" ">
<path fill="none" stroke="#63b8ff" d="M870.5,-109.75C870.5,-102.8 870.5,-92.85 870.5,-84.13"/>
<polygon fill="#63b8ff" stroke="#63b8ff" points="874,-84.09 870.5,-74.09 867,-84.09 874,-84.09"/>
</a>
</g>
</g>
<!-- Node28 -->
<g id="Node000028" class="node">
<title>Node28</title>
<g id="a_Node000028"><a xlink:title=" ">
<polygon fill="#e0e0e0" stroke="#999999" points="1021.5,-184 965.5,-184 965.5,-165 1021.5,-165 1021.5,-184"/>
<text text-anchor="middle" x="993.5" y="-172" font-family="Helvetica,sans-Serif" font-size="10.00">stddef.h</text>
</a>
</g>
</g>
<!-- Node27&#45;&gt;Node28 -->
<g id="edge33_Node000027_Node000028" class="edge">
<title>Node27&#45;&gt;Node28</title>
<g id="a_edge33_Node000027_Node000028"><a xlink:title=" ">
<path fill="none" stroke="#63b8ff" d="M987.66,-219.75C988.57,-212.8 989.89,-202.85 991.04,-194.13"/>
<polygon fill="#63b8ff" stroke="#63b8ff" points="994.53,-194.46 992.37,-184.09 987.59,-193.54 994.53,-194.46"/>
</a>
</g>
</g>
</g>
</svg>

<g id="navigator" transform="translate(0 0)" fill="#404254">
  <rect fill="#f2f5e9" fill-opacity="0.5" stroke="#606060" stroke-width=".5" x="0" y="0" width="60" height="60"/>
  <use id="zoomplus" xlink:href="#zoomPlus" x="17" y="9" onmousedown="handleZoom(evt,'in')"/>
  <use id="zoomminus" xlink:href="#zoomMin" x="42" y="9" onmousedown="handleZoom(evt,'out')"/>
  <use id="reset" xlink:href="#resetDef" x="30" y="36" onmousedown="handleReset()"/>
   <use id="arrowup" xlink:href="#arrowUp" x="0" y="0" onmousedown="handlePan(0,-1)"/>
  <use id="arrowright" xlink:href="#arrowRight" x="0" y="0" onmousedown="handlePan(1,0)"/>
  <use id="arrowdown" xlink:href="#arrowDown" x="0" y="0" onmousedown="handlePan(0,1)"/>
  <use id="arrowleft" xlink:href="#arrowLeft" x="0" y="0" onmousedown="handlePan(-1,0)"/>
</g>
<svg viewBox="0 0 15 15" width="100%" height="30px" preserveAspectRatio="xMaxYMin meet">
 <g id="arrow_out" transform="scale(0.3 0.3)">
  <a xlink:href="DatabaseSystems_2Postgres_8h__incl_org.svg" target="_base">
   <rect id="button" ry="5" rx="5" y="6" x="6" height="38" width="38"
        fill="#f2f5e9" fill-opacity="0.5" stroke="#606060" stroke-width="1.0"/>
   <path id="arrow"
     d="M 11.500037,31.436501 C 11.940474,20.09759 22.043105,11.32322 32.158766,21.979434 L 37.068811,17.246167 C 37.068811,17.246167 37.088388,32 37.088388,32 L 22.160133,31.978069 C 22.160133,31.978069 26.997745,27.140456 26.997745,27.140456 C 18.528582,18.264221 13.291696,25.230495 11.500037,31.436501 z"
     style="fill:#404040;"/>
  </a>
 </g>
</svg>

<style type='text/css'>
<![CDATA[
[data-mouse-over-selected='false'] { opacity: 0.7; }
[data-mouse-over-selected='true']  { opacity: 1.0; }
]]>
</style>
<script type="application/ecmascript"><![CDATA[
document.addEventListener('DOMContentLoaded', (event) => {
  highlightEdges();
  highlightAdjacentNodes();
});
]]></script>
</svg>
