<?xml version="1.0" encoding="UTF-8" standalone="no"?>
<!DOCTYPE svg PUBLIC "-//W3C//DTD SVG 1.1//EN"
 "http://www.w3.org/Graphics/SVG/1.1/DTD/svg11.dtd">
<!-- Generated by graphviz version 2.43.0 (0)
 -->
<!-- Title: src/DatabaseSystems/Postgres.h Pages: 1 -->
<!--zoomable 319 -->
<svg id="main" version="1.1" xmlns="http://www.w3.org/2000/svg" xmlns:xlink="http://www.w3.org/1999/xlink" xml:space="preserve" onload="init(evt)">
<style type="text/css"><![CDATA[
.edge:hover path { stroke: red; }
.edge:hover polygon { stroke: red; fill: red; }
]]></style>
<script type="text/javascript"><![CDATA[
var edges = document.getElementsByTagName('g');
if (edges && edges.length) {
  for (var i=0;i<edges.length;i++) {
    if (edges[i].id.substr(0,4)=='edge') {
      edges[i].setAttribute('class','edge');
    }
  }
}
]]></script>
        <defs>
                <circle id="rim" cx="0" cy="0" r="7"/>
                <circle id="rim2" cx="0" cy="0" r="3.5"/>
                <g id="zoomPlus">
                        <use xlink:href="#rim" fill="#404040">
                                <set attributeName="fill" to="#808080" begin="zoomplus.mouseover" end="zoomplus.mouseout"/>
                        </use>
                        <path d="M-4,0h8M0,-4v8" fill="none" stroke="white" stroke-width="1.5" pointer-events="none"/>
                </g>
                <g id="zoomMin">
                        <use xlink:href="#rim" fill="#404040">
                                <set attributeName="fill" to="#808080" begin="zoomminus.mouseover" end="zoomminus.mouseout"/>
                        </use>
                        <path d="M-4,0h8" fill="none" stroke="white" stroke-width="1.5" pointer-events="none"/>
                </g>
                <g id="dirArrow">
                        <path fill="none" stroke="white" stroke-width="1.5" d="M0,-3.0v7 M-2.5,-0.5L0,-3.0L2.5,-0.5"/>
                </g>
               <g id="resetDef">
                       <use xlink:href="#rim2" fill="#404040">
                               <set attributeName="fill" to="#808080" begin="reset.mouseover" end="reset.mouseout"/>
                       </use>
               </g>
        </defs>

<script type="text/javascript">
var viewWidth = 1240;
var viewHeight = 319;
var sectionId = 'dynsection-0';
</script>
<script xlink:href="svgpan.js"/>
<svg id="graph" class="graph">
<g id="viewport">
<title>src/DatabaseSystems/Postgres.h</title>
<polygon fill="white" stroke="transparent" points="-4,4 -4,-315 1236,-315 1236,4 -4,4"/>
<!-- Node1 -->
<g id="node1" class="node">
<title>Node1</title>
<g id="a_node1"><a xlink:title="PostgreSQL interface for sensor data storage.">
<polygon fill="#bfbfbf" stroke="black" points="714.5,-280.5 714.5,-310.5 836.5,-310.5 836.5,-280.5 714.5,-280.5"/>
<text text-anchor="start" x="722.5" y="-298.5" font-family="Helvetica,sans-Serif" font-size="10.00">src/DatabaseSystems</text>
<text text-anchor="middle" x="775.5" y="-287.5" font-family="Helvetica,sans-Serif" font-size="10.00">/Postgres.h</text>
</a>
</g>
</g>
<!-- Node2 -->
<g id="node2" class="node">
<title>Node2</title>
<g id="a_node2"><a xlink:title=" ">
<polygon fill="white" stroke="#bfbfbf" points="573,-224.5 573,-243.5 636,-243.5 636,-224.5 573,-224.5"/>
<text text-anchor="middle" x="604.5" y="-231.5" font-family="Helvetica,sans-Serif" font-size="10.00">libpq&#45;fe.h</text>
</a>
</g>
</g>
<!-- Node1&#45;&gt;Node2 -->
<g id="edge1" class="edge">
<title>Node1&#45;&gt;Node2</title>
<path fill="none" stroke="midnightblue" d="M734.98,-280.4C705.77,-270.24 666.78,-256.67 639.05,-247.02"/>
<polygon fill="midnightblue" stroke="midnightblue" points="639.98,-243.64 629.38,-243.66 637.68,-250.25 639.98,-243.64"/>
</g>
<!-- Node3 -->
<g id="node3" class="node">
<title>Node3</title>
<g id="a_node3"><a xlink:href="Sdb_8h.html" target="_top" xlink:title=" ">
<polygon fill="white" stroke="black" points="653,-56.5 653,-75.5 714,-75.5 714,-56.5 653,-56.5"/>
<text text-anchor="middle" x="683.5" y="-63.5" font-family="Helvetica,sans-Serif" font-size="10.00">src/Sdb.h</text>
</a>
</g>
</g>
<!-- Node1&#45;&gt;Node3 -->
<g id="edge2" class="edge">
<title>Node1&#45;&gt;Node3</title>
<path fill="none" stroke="midnightblue" d="M728.86,-280.36C711.46,-272.57 693.52,-260.93 683.5,-244 653.55,-193.39 668.38,-119.54 677.77,-85.47"/>
<polygon fill="midnightblue" stroke="midnightblue" points="681.23,-86.12 680.68,-75.54 674.51,-84.15 681.23,-86.12"/>
</g>
<!-- Node21 -->
<g id="node21" class="node">
<title>Node21</title>
<g id="a_node21"><a xlink:href="SensorDataPipe_8h.html" target="_top" xlink:title="Lock&#45;Free Data Pipeline.">
<polygon fill="white" stroke="black" points="692,-224.5 692,-243.5 859,-243.5 859,-224.5 692,-224.5"/>
<text text-anchor="middle" x="775.5" y="-231.5" font-family="Helvetica,sans-Serif" font-size="10.00">src/Common/SensorDataPipe.h</text>
</a>
</g>
</g>
<!-- Node1&#45;&gt;Node21 -->
<g id="edge20" class="edge">
<title>Node1&#45;&gt;Node21</title>
<path fill="none" stroke="midnightblue" d="M775.5,-280.4C775.5,-272.47 775.5,-262.46 775.5,-253.86"/>
<polygon fill="midnightblue" stroke="midnightblue" points="779,-253.66 775.5,-243.66 772,-253.66 779,-253.66"/>
</g>
<!-- Node23 -->
<g id="node23" class="node">
<title>Node23</title>
<g id="a_node23"><a xlink:href="Thread_8h.html" target="_top" xlink:title="Lightweight Synchronization Primitives Wrapper.">
<polygon fill="white" stroke="black" points="823.5,-168.5 823.5,-187.5 947.5,-187.5 947.5,-168.5 823.5,-168.5"/>
<text text-anchor="middle" x="885.5" y="-175.5" font-family="Helvetica,sans-Serif" font-size="10.00">src/Common/Thread.h</text>
</a>
</g>
</g>
<!-- Node1&#45;&gt;Node23 -->
<g id="edge31" class="edge">
<title>Node1&#45;&gt;Node23</title>
<path fill="none" stroke="midnightblue" d="M817.68,-280.34C835.73,-272.3 855.58,-260.49 868.5,-244 878.94,-230.67 883.01,-211.55 884.57,-197.5"/>
<polygon fill="midnightblue" stroke="midnightblue" points="888.06,-197.77 885.36,-187.52 881.08,-197.22 888.06,-197.77"/>
</g>
<!-- Node27 -->
<g id="node27" class="node">
<title>Node27</title>
<g id="a_node27"><a xlink:href="cJSON_8h.html" target="_top" xlink:title=" ">
<polygon fill="white" stroke="black" points="923,-224.5 923,-243.5 1050,-243.5 1050,-224.5 923,-224.5"/>
<text text-anchor="middle" x="986.5" y="-231.5" font-family="Helvetica,sans-Serif" font-size="10.00">src/Libs/cJSON/cJSON.h</text>
</a>
</g>
</g>
<!-- Node1&#45;&gt;Node27 -->
<g id="edge32" class="edge">
<title>Node1&#45;&gt;Node27</title>
<path fill="none" stroke="midnightblue" d="M825.24,-280.47C862.27,-270.03 912.18,-255.96 946.62,-246.25"/>
<polygon fill="midnightblue" stroke="midnightblue" points="947.66,-249.59 956.33,-243.51 945.76,-242.85 947.66,-249.59"/>
</g>
<!-- Node4 -->
<g id="node4" class="node">
<title>Node4</title>
<g id="a_node4"><a xlink:title=" ">
<polygon fill="white" stroke="#bfbfbf" points="887.5,-0.5 887.5,-19.5 943.5,-19.5 943.5,-0.5 887.5,-0.5"/>
<text text-anchor="middle" x="915.5" y="-7.5" font-family="Helvetica,sans-Serif" font-size="10.00">assert.h</text>
</a>
</g>
</g>
<!-- Node3&#45;&gt;Node4 -->
<g id="edge3" class="edge">
<title>Node3&#45;&gt;Node4</title>
<path fill="none" stroke="midnightblue" d="M714.26,-58.02C750.83,-49.69 813.97,-35.24 877.45,-20.23"/>
<polygon fill="midnightblue" stroke="midnightblue" points="878.3,-23.62 887.23,-17.91 876.69,-16.81 878.3,-23.62"/>
</g>
<!-- Node5 -->
<g id="node5" class="node">
<title>Node5</title>
<g id="a_node5"><a xlink:title=" ">
<polygon fill="white" stroke="#bfbfbf" points="962,-0.5 962,-19.5 1015,-19.5 1015,-0.5 962,-0.5"/>
<text text-anchor="middle" x="988.5" y="-7.5" font-family="Helvetica,sans-Serif" font-size="10.00">ctype.h</text>
</a>
</g>
</g>
<!-- Node3&#45;&gt;Node5 -->
<g id="edge4" class="edge">
<title>Node3&#45;&gt;Node5</title>
<path fill="none" stroke="midnightblue" d="M714.31,-60.66C762.69,-53.66 859.61,-38.95 951.77,-20.01"/>
<polygon fill="midnightblue" stroke="midnightblue" points="952.74,-23.38 961.82,-17.92 951.32,-16.53 952.74,-23.38"/>
</g>
<!-- Node6 -->
<g id="node6" class="node">
<title>Node6</title>
<g id="a_node6"><a xlink:title=" ">
<polygon fill="white" stroke="#bfbfbf" points="1033,-0.5 1033,-19.5 1084,-19.5 1084,-0.5 1033,-0.5"/>
<text text-anchor="middle" x="1058.5" y="-7.5" font-family="Helvetica,sans-Serif" font-size="10.00">errno.h</text>
</a>
</g>
</g>
<!-- Node3&#45;&gt;Node6 -->
<g id="edge5" class="edge">
<title>Node3&#45;&gt;Node6</title>
<path fill="none" stroke="midnightblue" d="M714.28,-62.27C772.69,-56.8 903.72,-43.16 1022.94,-20.1"/>
<polygon fill="midnightblue" stroke="midnightblue" points="1023.82,-23.49 1032.96,-18.13 1022.47,-16.63 1023.82,-23.49"/>
</g>
<!-- Node7 -->
<g id="node7" class="node">
<title>Node7</title>
<g id="a_node7"><a xlink:title=" ">
<polygon fill="white" stroke="#bfbfbf" points="0,-0.5 0,-19.5 47,-19.5 47,-0.5 0,-0.5"/>
<text text-anchor="middle" x="23.5" y="-7.5" font-family="Helvetica,sans-Serif" font-size="10.00">fcntl.h</text>
</a>
</g>
</g>
<!-- Node3&#45;&gt;Node7 -->
<g id="edge6" class="edge">
<title>Node3&#45;&gt;Node7</title>
<path fill="none" stroke="midnightblue" d="M652.84,-64.99C562.63,-64.51 290.29,-59.76 57.16,-19.96"/>
<polygon fill="midnightblue" stroke="midnightblue" points="57.59,-16.48 47.14,-18.23 56.4,-23.38 57.59,-16.48"/>
</g>
<!-- Node8 -->
<g id="node8" class="node">
<title>Node8</title>
<g id="a_node8"><a xlink:title=" ">
<polygon fill="white" stroke="#bfbfbf" points="65,-0.5 65,-19.5 112,-19.5 112,-0.5 65,-0.5"/>
<text text-anchor="middle" x="88.5" y="-7.5" font-family="Helvetica,sans-Serif" font-size="10.00">float.h</text>
</a>
</g>
</g>
<!-- Node3&#45;&gt;Node8 -->
<g id="edge7" class="edge">
<title>Node3&#45;&gt;Node8</title>
<path fill="none" stroke="midnightblue" d="M652.72,-64.63C568.83,-63.19 329.16,-56.14 122.28,-20"/>
<polygon fill="midnightblue" stroke="midnightblue" points="122.6,-16.5 112.15,-18.2 121.38,-23.4 122.6,-16.5"/>
</g>
<!-- Node9 -->
<g id="node9" class="node">
<title>Node9</title>
<g id="a_node9"><a xlink:title=" ">
<polygon fill="white" stroke="#bfbfbf" points="130,-0.5 130,-19.5 181,-19.5 181,-0.5 130,-0.5"/>
<text text-anchor="middle" x="155.5" y="-7.5" font-family="Helvetica,sans-Serif" font-size="10.00">math.h</text>
</a>
</g>
</g>
<!-- Node3&#45;&gt;Node9 -->
<g id="edge8" class="edge">
<title>Node3&#45;&gt;Node9</title>
<path fill="none" stroke="midnightblue" d="M652.98,-63.92C576.7,-60.86 371.49,-50.39 190.95,-19.78"/>
<polygon fill="midnightblue" stroke="midnightblue" points="191.46,-16.31 181.01,-18.07 190.27,-23.21 191.46,-16.31"/>
</g>
<!-- Node10 -->
<g id="node10" class="node">
<title>Node10</title>
<g id="a_node10"><a xlink:title=" ">
<polygon fill="white" stroke="#bfbfbf" points="1169,-0.5 1169,-19.5 1232,-19.5 1232,-0.5 1169,-0.5"/>
<text text-anchor="middle" x="1200.5" y="-7.5" font-family="Helvetica,sans-Serif" font-size="10.00">pthread.h</text>
</a>
</g>
</g>
<!-- Node3&#45;&gt;Node10 -->
<g id="edge9" class="edge">
<title>Node3&#45;&gt;Node10</title>
<path fill="none" stroke="midnightblue" d="M714.01,-63.41C788.32,-59.26 984.73,-46.63 1158.68,-19.93"/>
<polygon fill="midnightblue" stroke="midnightblue" points="1159.44,-23.36 1168.79,-18.36 1158.37,-16.44 1159.44,-23.36"/>
</g>
<!-- Node11 -->
<g id="node11" class="node">
<title>Node11</title>
<g id="a_node11"><a xlink:title=" ">
<polygon fill="white" stroke="#bfbfbf" points="199.5,-0.5 199.5,-19.5 255.5,-19.5 255.5,-0.5 199.5,-0.5"/>
<text text-anchor="middle" x="227.5" y="-7.5" font-family="Helvetica,sans-Serif" font-size="10.00">stdarg.h</text>
</a>
</g>
</g>
<!-- Node3&#45;&gt;Node11 -->
<g id="edge10" class="edge">
<title>Node3&#45;&gt;Node11</title>
<path fill="none" stroke="midnightblue" d="M652.81,-63.09C584.79,-58.57 416.1,-45.73 265.59,-19.98"/>
<polygon fill="midnightblue" stroke="midnightblue" points="266.15,-16.53 255.7,-18.26 264.96,-23.42 266.15,-16.53"/>
</g>
<!-- Node12 -->
<g id="node12" class="node">
<title>Node12</title>
<g id="a_node12"><a xlink:title=" ">
<polygon fill="white" stroke="#bfbfbf" points="274,-0.5 274,-19.5 327,-19.5 327,-0.5 274,-0.5"/>
<text text-anchor="middle" x="300.5" y="-7.5" font-family="Helvetica,sans-Serif" font-size="10.00">stdint.h</text>
</a>
</g>
</g>
<!-- Node3&#45;&gt;Node12 -->
<g id="edge11" class="edge">
<title>Node3&#45;&gt;Node12</title>
<path fill="none" stroke="midnightblue" d="M652.67,-62.21C593.47,-56.61 459.6,-42.67 337.09,-19.9"/>
<polygon fill="midnightblue" stroke="midnightblue" points="337.64,-16.44 327.16,-18.03 336.34,-23.32 337.64,-16.44"/>
</g>
<!-- Node13 -->
<g id="node13" class="node">
<title>Node13</title>
<g id="a_node13"><a xlink:title=" ">
<polygon fill="white" stroke="#bfbfbf" points="345.5,-0.5 345.5,-19.5 395.5,-19.5 395.5,-0.5 345.5,-0.5"/>
<text text-anchor="middle" x="370.5" y="-7.5" font-family="Helvetica,sans-Serif" font-size="10.00">stdio.h</text>
</a>
</g>
</g>
<!-- Node3&#45;&gt;Node13 -->
<g id="edge12" class="edge">
<title>Node3&#45;&gt;Node13</title>
<path fill="none" stroke="midnightblue" d="M652.77,-61.06C602.89,-54.44 501.06,-40.02 405.51,-20.04"/>
<polygon fill="midnightblue" stroke="midnightblue" points="406.19,-16.61 395.68,-17.96 404.74,-23.46 406.19,-16.61"/>
</g>
<!-- Node14 -->
<g id="node14" class="node">
<title>Node14</title>
<g id="a_node14"><a xlink:title=" ">
<polygon fill="white" stroke="#bfbfbf" points="414,-0.5 414,-19.5 467,-19.5 467,-0.5 414,-0.5"/>
<text text-anchor="middle" x="440.5" y="-7.5" font-family="Helvetica,sans-Serif" font-size="10.00">stdlib.h</text>
</a>
</g>
</g>
<!-- Node3&#45;&gt;Node14 -->
<g id="edge13" class="edge">
<title>Node3&#45;&gt;Node14</title>
<path fill="none" stroke="midnightblue" d="M652.76,-58.74C614,-50.75 545.09,-36.29 477.23,-20.35"/>
<polygon fill="midnightblue" stroke="midnightblue" points="477.76,-16.88 467.23,-17.99 476.15,-23.69 477.76,-16.88"/>
</g>
<!-- Node15 -->
<g id="node15" class="node">
<title>Node15</title>
<g id="a_node15"><a xlink:title=" ">
<polygon fill="white" stroke="#bfbfbf" points="485,-0.5 485,-19.5 538,-19.5 538,-0.5 485,-0.5"/>
<text text-anchor="middle" x="511.5" y="-7.5" font-family="Helvetica,sans-Serif" font-size="10.00">string.h</text>
</a>
</g>
</g>
<!-- Node3&#45;&gt;Node15 -->
<g id="edge14" class="edge">
<title>Node3&#45;&gt;Node15</title>
<path fill="none" stroke="midnightblue" d="M656.25,-56.44C626.89,-47.23 580.03,-32.52 547.62,-22.34"/>
<polygon fill="midnightblue" stroke="midnightblue" points="548.65,-19 538.06,-19.34 546.55,-25.67 548.65,-19"/>
</g>
<!-- Node16 -->
<g id="node16" class="node">
<title>Node16</title>
<g id="a_node16"><a xlink:title=" ">
<polygon fill="white" stroke="#bfbfbf" points="556,-0.5 556,-19.5 633,-19.5 633,-0.5 556,-0.5"/>
<text text-anchor="middle" x="594.5" y="-7.5" font-family="Helvetica,sans-Serif" font-size="10.00">sys/mman.h</text>
</a>
</g>
</g>
<!-- Node3&#45;&gt;Node16 -->
<g id="edge15" class="edge">
<title>Node3&#45;&gt;Node16</title>
<path fill="none" stroke="midnightblue" d="M669.2,-56.32C655.32,-47.9 634.01,-34.97 617.7,-25.07"/>
<polygon fill="midnightblue" stroke="midnightblue" points="619.13,-21.85 608.76,-19.65 615.5,-27.83 619.13,-21.85"/>
</g>
<!-- Node17 -->
<g id="node17" class="node">
<title>Node17</title>
<g id="a_node17"><a xlink:title=" ">
<polygon fill="white" stroke="#bfbfbf" points="651.5,-0.5 651.5,-19.5 715.5,-19.5 715.5,-0.5 651.5,-0.5"/>
<text text-anchor="middle" x="683.5" y="-7.5" font-family="Helvetica,sans-Serif" font-size="10.00">sys/stat.h</text>
</a>
</g>
</g>
<!-- Node3&#45;&gt;Node17 -->
<g id="edge16" class="edge">
<title>Node3&#45;&gt;Node17</title>
<path fill="none" stroke="midnightblue" d="M683.5,-56.08C683.5,-49.01 683.5,-38.86 683.5,-29.99"/>
<polygon fill="midnightblue" stroke="midnightblue" points="687,-29.75 683.5,-19.75 680,-29.75 687,-29.75"/>
</g>
<!-- Node18 -->
<g id="node18" class="node">
<title>Node18</title>
<g id="a_node18"><a xlink:title=" ">
<polygon fill="white" stroke="#bfbfbf" points="1102.5,-0.5 1102.5,-19.5 1150.5,-19.5 1150.5,-0.5 1102.5,-0.5"/>
<text text-anchor="middle" x="1126.5" y="-7.5" font-family="Helvetica,sans-Serif" font-size="10.00">time.h</text>
</a>
</g>
</g>
<!-- Node3&#45;&gt;Node18 -->
<g id="edge17" class="edge">
<title>Node3&#45;&gt;Node18</title>
<path fill="none" stroke="midnightblue" d="M714.09,-63.29C781.02,-59.19 945.54,-47.22 1092.36,-19.93"/>
<polygon fill="midnightblue" stroke="midnightblue" points="1093.27,-23.32 1102.45,-18.03 1091.98,-16.44 1093.27,-23.32"/>
</g>
<!-- Node19 -->
<g id="node19" class="node">
<title>Node19</title>
<g id="a_node19"><a xlink:title=" ">
<polygon fill="white" stroke="#bfbfbf" points="733.5,-0.5 733.5,-19.5 789.5,-19.5 789.5,-0.5 733.5,-0.5"/>
<text text-anchor="middle" x="761.5" y="-7.5" font-family="Helvetica,sans-Serif" font-size="10.00">unistd.h</text>
</a>
</g>
</g>
<!-- Node3&#45;&gt;Node19 -->
<g id="edge18" class="edge">
<title>Node3&#45;&gt;Node19</title>
<path fill="none" stroke="midnightblue" d="M696.03,-56.32C708.09,-47.98 726.53,-35.21 740.77,-25.35"/>
<polygon fill="midnightblue" stroke="midnightblue" points="742.77,-28.22 749,-19.65 738.78,-22.47 742.77,-28.22"/>
</g>
<!-- Node20 -->
<g id="node20" class="node">
<title>Node20</title>
<g id="a_node20"><a xlink:title=" ">
<polygon fill="white" stroke="#bfbfbf" points="807.5,-0.5 807.5,-19.5 869.5,-19.5 869.5,-0.5 807.5,-0.5"/>
<text text-anchor="middle" x="838.5" y="-7.5" font-family="Helvetica,sans-Serif" font-size="10.00">stdbool.h</text>
</a>
</g>
</g>
<!-- Node3&#45;&gt;Node20 -->
<g id="edge19" class="edge">
<title>Node3&#45;&gt;Node20</title>
<path fill="none" stroke="midnightblue" d="M708.06,-56.44C734.02,-47.4 775.17,-33.06 804.3,-22.92"/>
<polygon fill="midnightblue" stroke="midnightblue" points="805.76,-26.11 814.05,-19.52 803.46,-19.5 805.76,-26.11"/>
</g>
<!-- Node21&#45;&gt;Node3 -->
<g id="edge22" class="edge">
<title>Node21&#45;&gt;Node3</title>
<path fill="none" stroke="midnightblue" d="M761.41,-224.31C749.47,-216.26 732.7,-203.25 722.5,-188 700.91,-155.7 690.57,-110.61 686.22,-85.59"/>
<polygon fill="midnightblue" stroke="midnightblue" points="689.66,-84.94 684.62,-75.62 682.75,-86.05 689.66,-84.94"/>
</g>
<!-- Node22 -->
<g id="node22" class="node">
<title>Node22</title>
<g id="a_node22"><a xlink:title=" ">
<polygon fill="white" stroke="#bfbfbf" points="731.5,-168.5 731.5,-187.5 805.5,-187.5 805.5,-168.5 731.5,-168.5"/>
<text text-anchor="middle" x="768.5" y="-175.5" font-family="Helvetica,sans-Serif" font-size="10.00">stdatomic.h</text>
</a>
</g>
</g>
<!-- Node21&#45;&gt;Node22 -->
<g id="edge21" class="edge">
<title>Node21&#45;&gt;Node22</title>
<path fill="none" stroke="midnightblue" d="M774.34,-224.08C773.42,-216.93 772.08,-206.64 770.92,-197.69"/>
<polygon fill="midnightblue" stroke="midnightblue" points="774.39,-197.22 769.63,-187.75 767.45,-198.12 774.39,-197.22"/>
</g>
<!-- Node21&#45;&gt;Node23 -->
<g id="edge23" class="edge">
<title>Node21&#45;&gt;Node23</title>
<path fill="none" stroke="midnightblue" d="M793.17,-224.32C810.89,-215.62 838.4,-202.12 858.79,-192.11"/>
<polygon fill="midnightblue" stroke="midnightblue" points="860.44,-195.2 867.87,-187.65 857.35,-188.92 860.44,-195.2"/>
</g>
<!-- Node23&#45;&gt;Node3 -->
<g id="edge26" class="edge">
<title>Node23&#45;&gt;Node3</title>
<path fill="none" stroke="midnightblue" d="M869.65,-168.37C834.62,-149.29 750.38,-103.42 708.3,-80.51"/>
<polygon fill="midnightblue" stroke="midnightblue" points="709.73,-77.3 699.28,-75.59 706.39,-83.45 709.73,-77.3"/>
</g>
<!-- Node23&#45;&gt;Node10 -->
<g id="edge24" class="edge">
<title>Node23&#45;&gt;Node10</title>
<path fill="none" stroke="midnightblue" d="M927.36,-168.49C958.27,-161.26 1000.82,-149.27 1035.5,-132 1094.83,-102.45 1155.32,-51.7 1183.77,-26.35"/>
<polygon fill="midnightblue" stroke="midnightblue" points="1186.14,-28.92 1191.22,-19.63 1181.45,-23.72 1186.14,-28.92"/>
</g>
<!-- Node24 -->
<g id="node24" class="node">
<title>Node24</title>
<g id="a_node24"><a xlink:title=" ">
<polygon fill="white" stroke="#bfbfbf" points="946.5,-112.5 946.5,-131.5 1026.5,-131.5 1026.5,-112.5 946.5,-112.5"/>
<text text-anchor="middle" x="986.5" y="-119.5" font-family="Helvetica,sans-Serif" font-size="10.00">semaphore.h</text>
</a>
</g>
</g>
<!-- Node23&#45;&gt;Node24 -->
<g id="edge25" class="edge">
<title>Node23&#45;&gt;Node24</title>
<path fill="none" stroke="midnightblue" d="M901.73,-168.32C917.85,-159.7 942.8,-146.36 961.46,-136.39"/>
<polygon fill="midnightblue" stroke="midnightblue" points="963.14,-139.46 970.31,-131.65 959.84,-133.28 963.14,-139.46"/>
</g>
<!-- Node25 -->
<g id="node25" class="node">
<title>Node25</title>
<g id="a_node25"><a xlink:href="Time_8h.html" target="_top" xlink:title="Lightweight Time Manipulation Utilities.">
<polygon fill="white" stroke="black" points="813,-112.5 813,-131.5 928,-131.5 928,-112.5 813,-112.5"/>
<text text-anchor="middle" x="870.5" y="-119.5" font-family="Helvetica,sans-Serif" font-size="10.00">src/Common/Time.h</text>
</a>
</g>
</g>
<!-- Node23&#45;&gt;Node25 -->
<g id="edge27" class="edge">
<title>Node23&#45;&gt;Node25</title>
<path fill="none" stroke="midnightblue" d="M883.02,-168.08C881.01,-160.85 878.11,-150.41 875.61,-141.4"/>
<polygon fill="midnightblue" stroke="midnightblue" points="878.98,-140.45 872.93,-131.75 872.24,-142.32 878.98,-140.45"/>
</g>
<!-- Node25&#45;&gt;Node3 -->
<g id="edge30" class="edge">
<title>Node25&#45;&gt;Node3</title>
<path fill="none" stroke="midnightblue" d="M840.87,-112.44C809,-103.24 758.17,-88.56 722.94,-78.39"/>
<polygon fill="midnightblue" stroke="midnightblue" points="723.57,-74.93 712.99,-75.52 721.63,-81.65 723.57,-74.93"/>
</g>
<!-- Node25&#45;&gt;Node18 -->
<g id="edge29" class="edge">
<title>Node25&#45;&gt;Node18</title>
<path fill="none" stroke="midnightblue" d="M890.59,-112.37C935.55,-93.05 1044.44,-46.26 1097.06,-23.65"/>
<polygon fill="midnightblue" stroke="midnightblue" points="1098.7,-26.76 1106.51,-19.59 1095.94,-20.32 1098.7,-26.76"/>
</g>
<!-- Node26 -->
<g id="node26" class="node">
<title>Node26</title>
<g id="a_node26"><a xlink:title=" ">
<polygon fill="white" stroke="#bfbfbf" points="844,-56.5 844,-75.5 897,-75.5 897,-56.5 844,-56.5"/>
<text text-anchor="middle" x="870.5" y="-63.5" font-family="Helvetica,sans-Serif" font-size="10.00">limits.h</text>
</a>
</g>
</g>
<!-- Node25&#45;&gt;Node26 -->
<g id="edge28" class="edge">
<title>Node25&#45;&gt;Node26</title>
<path fill="none" stroke="midnightblue" d="M870.5,-112.08C870.5,-105.01 870.5,-94.86 870.5,-85.99"/>
<polygon fill="midnightblue" stroke="midnightblue" points="874,-85.75 870.5,-75.75 867,-85.75 874,-85.75"/>
</g>
<!-- Node28 -->
<g id="node28" class="node">
<title>Node28</title>
<g id="a_node28"><a xlink:title=" ">
<polygon fill="white" stroke="#bfbfbf" points="965.5,-168.5 965.5,-187.5 1021.5,-187.5 1021.5,-168.5 965.5,-168.5"/>
<text text-anchor="middle" x="993.5" y="-175.5" font-family="Helvetica,sans-Serif" font-size="10.00">stddef.h</text>
</a>
</g>
</g>
<!-- Node27&#45;&gt;Node28 -->
<g id="edge33" class="edge">
<title>Node27&#45;&gt;Node28</title>
<path fill="none" stroke="midnightblue" d="M987.66,-224.08C988.58,-216.93 989.92,-206.64 991.08,-197.69"/>
<polygon fill="midnightblue" stroke="midnightblue" points="994.55,-198.12 992.37,-187.75 987.61,-197.22 994.55,-198.12"/>
</g>
</g>
</svg>
        <g id="navigator" transform="translate(0 0)" fill="#404254">
                <rect fill="#f2f5e9" fill-opacity="0.5" stroke="#606060" stroke-width=".5" x="0" y="0" width="60" height="60"/>
                <use id="zoomplus" xlink:href="#zoomPlus" x="17" y="9" onmousedown="handleZoom(evt,'in')"/>
                <use id="zoomminus" xlink:href="#zoomMin" x="42" y="9" onmousedown="handleZoom(evt,'out')"/>
                <use id="reset" xlink:href="#resetDef" x="30" y="36" onmousedown="handleReset()"/>
                <g id="arrowUp" xlink:href="#dirArrow" transform="translate(30 24)" onmousedown="handlePan(0,-1)">
                  <use xlink:href="#rim" fill="#404040">
                        <set attributeName="fill" to="#808080" begin="arrowUp.mouseover" end="arrowUp.mouseout"/>
                  </use>
                  <path fill="none" stroke="white" stroke-width="1.5" d="M0,-3.0v7 M-2.5,-0.5L0,-3.0L2.5,-0.5"/>
                </g>
                <g id="arrowRight" xlink:href="#dirArrow" transform="rotate(90) translate(36 -43)" onmousedown="handlePan(1,0)">
                  <use xlink:href="#rim" fill="#404040">
                        <set attributeName="fill" to="#808080" begin="arrowRight.mouseover" end="arrowRight.mouseout"/>
                  </use>
                  <path fill="none" stroke="white" stroke-width="1.5" d="M0,-3.0v7 M-2.5,-0.5L0,-3.0L2.5,-0.5"/>
                </g>
                <g id="arrowDown" xlink:href="#dirArrow" transform="rotate(180) translate(-30 -48)" onmousedown="handlePan(0,1)">
                  <use xlink:href="#rim" fill="#404040">
                        <set attributeName="fill" to="#808080" begin="arrowDown.mouseover" end="arrowDown.mouseout"/>
                  </use>
                  <path fill="none" stroke="white" stroke-width="1.5" d="M0,-3.0v7 M-2.5,-0.5L0,-3.0L2.5,-0.5"/>
                </g>
                <g id="arrowLeft" xlink:href="#dirArrow" transform="rotate(270) translate(-36 17)" onmousedown="handlePan(-1,0)">
                  <use xlink:href="#rim" fill="#404040">
                        <set attributeName="fill" to="#808080" begin="arrowLeft.mouseover" end="arrowLeft.mouseout"/>
                  </use>
                  <path fill="none" stroke="white" stroke-width="1.5" d="M0,-3.0v7 M-2.5,-0.5L0,-3.0L2.5,-0.5"/>
                </g>
        </g>
        <svg viewBox="0 0 15 15" width="100%" height="30px" preserveAspectRatio="xMaxYMin meet">
         <g id="arrow_out" transform="scale(0.3 0.3)">
          <a xlink:href="DatabaseSystems_2Postgres_8h__incl_org.svg" target="_base">
           <rect id="button" ry="5" rx="5" y="6" x="6" height="38" width="38"
                fill="#f2f5e9" fill-opacity="0.5" stroke="#606060" stroke-width="1.0"/>
           <path id="arrow"
             d="M 11.500037,31.436501 C 11.940474,20.09759 22.043105,11.32322 32.158766,21.979434 L 37.068811,17.246167 C 37.068811,17.246167 37.088388,32 37.088388,32 L 22.160133,31.978069 C 22.160133,31.978069 26.997745,27.140456 26.997745,27.140456 C 18.528582,18.264221 13.291696,25.230495 11.500037,31.436501 z"
             style="fill:#404040;"/>
          </a>
         </g>
        </svg>
</svg>
