<?xml version="1.0" encoding="UTF-8" standalone="no"?>
<!DOCTYPE svg PUBLIC "-//W3C//DTD SVG 1.1//EN"
 "http://www.w3.org/Graphics/SVG/1.1/DTD/svg11.dtd">
<!-- Generated by graphviz version 2.43.0 (0)
 -->
<!-- Title: src/DataHandlers/DataHandlers.c Pages: 1 -->
<!--zoomable 375 -->
<svg id="main" version="1.1" xmlns="http://www.w3.org/2000/svg" xmlns:xlink="http://www.w3.org/1999/xlink" xml:space="preserve" onload="init(evt)">
<style type="text/css"><![CDATA[
.edge:hover path { stroke: red; }
.edge:hover polygon { stroke: red; fill: red; }
]]></style>
<script type="text/javascript"><![CDATA[
var edges = document.getElementsByTagName('g');
if (edges && edges.length) {
  for (var i=0;i<edges.length;i++) {
    if (edges[i].id.substr(0,4)=='edge') {
      edges[i].setAttribute('class','edge');
    }
  }
}
]]></script>
        <defs>
                <circle id="rim" cx="0" cy="0" r="7"/>
                <circle id="rim2" cx="0" cy="0" r="3.5"/>
                <g id="zoomPlus">
                        <use xlink:href="#rim" fill="#404040">
                                <set attributeName="fill" to="#808080" begin="zoomplus.mouseover" end="zoomplus.mouseout"/>
                        </use>
                        <path d="M-4,0h8M0,-4v8" fill="none" stroke="white" stroke-width="1.5" pointer-events="none"/>
                </g>
                <g id="zoomMin">
                        <use xlink:href="#rim" fill="#404040">
                                <set attributeName="fill" to="#808080" begin="zoomminus.mouseover" end="zoomminus.mouseout"/>
                        </use>
                        <path d="M-4,0h8" fill="none" stroke="white" stroke-width="1.5" pointer-events="none"/>
                </g>
                <g id="dirArrow">
                        <path fill="none" stroke="white" stroke-width="1.5" d="M0,-3.0v7 M-2.5,-0.5L0,-3.0L2.5,-0.5"/>
                </g>
               <g id="resetDef">
                       <use xlink:href="#rim2" fill="#404040">
                               <set attributeName="fill" to="#808080" begin="reset.mouseover" end="reset.mouseout"/>
                       </use>
               </g>
        </defs>

<script type="text/javascript">
var viewWidth = 1240;
var viewHeight = 375;
var sectionId = 'dynsection-0';
</script>
<script xlink:href="svgpan.js"/>
<svg id="graph" class="graph">
<g id="viewport">
<title>src/DataHandlers/DataHandlers.c</title>
<polygon fill="white" stroke="transparent" points="-4,4 -4,-371 1235.5,-371 1235.5,4 -4,4"/>
<!-- Node1 -->
<g id="node1" class="node">
<title>Node1</title>
<g id="a_node1"><a xlink:title="Implementation of Data Handler Thread Group Management.">
<polygon fill="#bfbfbf" stroke="black" points="275,-347.5 275,-366.5 454,-366.5 454,-347.5 275,-347.5"/>
<text text-anchor="middle" x="364.5" y="-354.5" font-family="Helvetica,sans-Serif" font-size="10.00">src/DataHandlers/DataHandlers.c</text>
</a>
</g>
</g>
<!-- Node2 -->
<g id="node2" class="node">
<title>Node2</title>
<g id="a_node2"><a xlink:href="Sdb_8h.html" target="_top" xlink:title=" ">
<polygon fill="white" stroke="black" points="526,-56.5 526,-75.5 587,-75.5 587,-56.5 526,-56.5"/>
<text text-anchor="middle" x="556.5" y="-63.5" font-family="Helvetica,sans-Serif" font-size="10.00">src/Sdb.h</text>
</a>
</g>
</g>
<!-- Node1&#45;&gt;Node2 -->
<g id="edge1" class="edge">
<title>Node1&#45;&gt;Node2</title>
<path fill="none" stroke="midnightblue" d="M349.89,-347.41C322.35,-329.99 265.5,-287.66 265.5,-235 265.5,-235 265.5,-235 265.5,-177 265.5,-138.58 289.16,-131.11 322.5,-112 383.53,-77.02 466.71,-68.66 515.7,-66.98"/>
<polygon fill="midnightblue" stroke="midnightblue" points="516,-70.48 525.91,-66.71 515.82,-63.48 516,-70.48"/>
</g>
<!-- Node20 -->
<g id="node20" class="node">
<title>Node20</title>
<g id="a_node20"><a xlink:href="ThreadGroup_8h.html" target="_top" xlink:title="Thread Group Management System.">
<polygon fill="white" stroke="black" points="84,-224.5 84,-243.5 237,-243.5 237,-224.5 84,-224.5"/>
<text text-anchor="middle" x="160.5" y="-231.5" font-family="Helvetica,sans-Serif" font-size="10.00">src/Common/ThreadGroup.h</text>
</a>
</g>
</g>
<!-- Node1&#45;&gt;Node20 -->
<g id="edge19" class="edge">
<title>Node1&#45;&gt;Node20</title>
<path fill="none" stroke="midnightblue" d="M335.94,-347.43C312.37,-339.71 278.53,-327.11 251.5,-311 222.63,-293.8 193.57,-267.62 176.3,-250.92"/>
<polygon fill="midnightblue" stroke="midnightblue" points="178.41,-248.08 168.83,-243.56 173.5,-253.07 178.41,-248.08"/>
</g>
<!-- Node25 -->
<g id="node25" class="node">
<title>Node25</title>
<g id="a_node25"><a xlink:href="cJSON_8h.html" target="_top" xlink:title=" ">
<polygon fill="white" stroke="black" points="604,-224.5 604,-243.5 731,-243.5 731,-224.5 604,-224.5"/>
<text text-anchor="middle" x="667.5" y="-231.5" font-family="Helvetica,sans-Serif" font-size="10.00">src/Libs/cJSON/cJSON.h</text>
</a>
</g>
</g>
<!-- Node1&#45;&gt;Node25 -->
<g id="edge31" class="edge">
<title>Node1&#45;&gt;Node25</title>
<path fill="none" stroke="midnightblue" d="M430.56,-347.45C469.58,-340.8 519.25,-329.5 560.5,-311 595.43,-295.33 630.59,-267.5 650.64,-250.21"/>
<polygon fill="midnightblue" stroke="midnightblue" points="653.06,-252.75 658.27,-243.52 648.44,-247.49 653.06,-252.75"/>
</g>
<!-- Node27 -->
<g id="node27" class="node">
<title>Node27</title>
<g id="a_node27"><a xlink:href="ModbusWithPostgres_8h.html" target="_top" xlink:title="Integration of Modbus and PostgreSQL data handling.">
<polygon fill="white" stroke="black" points="378,-280.5 378,-310.5 551,-310.5 551,-280.5 378,-280.5"/>
<text text-anchor="start" x="386" y="-298.5" font-family="Helvetica,sans-Serif" font-size="10.00">src/DataHandlers/ModbusWith</text>
<text text-anchor="middle" x="464.5" y="-287.5" font-family="Helvetica,sans-Serif" font-size="10.00">Postgres/ModbusWithPostgres.h</text>
</a>
</g>
</g>
<!-- Node1&#45;&gt;Node27 -->
<g id="edge33" class="edge">
<title>Node1&#45;&gt;Node27</title>
<path fill="none" stroke="midnightblue" d="M378.83,-347.48C392.62,-339.27 413.98,-326.56 431.92,-315.88"/>
<polygon fill="midnightblue" stroke="midnightblue" points="434.13,-318.64 440.93,-310.52 430.55,-312.63 434.13,-318.64"/>
</g>
<!-- Node3 -->
<g id="node3" class="node">
<title>Node3</title>
<g id="a_node3"><a xlink:title=" ">
<polygon fill="white" stroke="#bfbfbf" points="769.5,-0.5 769.5,-19.5 825.5,-19.5 825.5,-0.5 769.5,-0.5"/>
<text text-anchor="middle" x="797.5" y="-7.5" font-family="Helvetica,sans-Serif" font-size="10.00">assert.h</text>
</a>
</g>
</g>
<!-- Node2&#45;&gt;Node3 -->
<g id="edge2" class="edge">
<title>Node2&#45;&gt;Node3</title>
<path fill="none" stroke="midnightblue" d="M587.31,-58.42C625.41,-50.23 692.53,-35.66 759.38,-20.23"/>
<polygon fill="midnightblue" stroke="midnightblue" points="760.28,-23.61 769.23,-17.94 758.7,-16.79 760.28,-23.61"/>
</g>
<!-- Node4 -->
<g id="node4" class="node">
<title>Node4</title>
<g id="a_node4"><a xlink:title=" ">
<polygon fill="white" stroke="#bfbfbf" points="844,-0.5 844,-19.5 897,-19.5 897,-0.5 844,-0.5"/>
<text text-anchor="middle" x="870.5" y="-7.5" font-family="Helvetica,sans-Serif" font-size="10.00">ctype.h</text>
</a>
</g>
</g>
<!-- Node2&#45;&gt;Node4 -->
<g id="edge3" class="edge">
<title>Node2&#45;&gt;Node4</title>
<path fill="none" stroke="midnightblue" d="M587.09,-60.91C636.75,-54.09 738.16,-39.38 833.97,-19.95"/>
<polygon fill="midnightblue" stroke="midnightblue" points="834.73,-23.37 843.82,-17.94 833.32,-16.51 834.73,-23.37"/>
</g>
<!-- Node5 -->
<g id="node5" class="node">
<title>Node5</title>
<g id="a_node5"><a xlink:title=" ">
<polygon fill="white" stroke="#bfbfbf" points="915,-0.5 915,-19.5 966,-19.5 966,-0.5 915,-0.5"/>
<text text-anchor="middle" x="940.5" y="-7.5" font-family="Helvetica,sans-Serif" font-size="10.00">errno.h</text>
</a>
</g>
</g>
<!-- Node2&#45;&gt;Node5 -->
<g id="edge4" class="edge">
<title>Node2&#45;&gt;Node5</title>
<path fill="none" stroke="midnightblue" d="M587.17,-61.58C657.4,-53.67 829.03,-33.85 904.91,-20.05"/>
<polygon fill="midnightblue" stroke="midnightblue" points="905.79,-23.45 914.96,-18.14 904.49,-16.57 905.79,-23.45"/>
</g>
<!-- Node6 -->
<g id="node6" class="node">
<title>Node6</title>
<g id="a_node6"><a xlink:title=" ">
<polygon fill="white" stroke="#bfbfbf" points="984,-0.5 984,-19.5 1031,-19.5 1031,-0.5 984,-0.5"/>
<text text-anchor="middle" x="1007.5" y="-7.5" font-family="Helvetica,sans-Serif" font-size="10.00">fcntl.h</text>
</a>
</g>
</g>
<!-- Node2&#45;&gt;Node6 -->
<g id="edge5" class="edge">
<title>Node2&#45;&gt;Node6</title>
<path fill="none" stroke="midnightblue" d="M587.03,-61.86C673.39,-52.97 916.44,-27.82 973.8,-19.73"/>
<polygon fill="midnightblue" stroke="midnightblue" points="974.52,-23.16 983.84,-18.13 973.41,-16.25 974.52,-23.16"/>
</g>
<!-- Node7 -->
<g id="node7" class="node">
<title>Node7</title>
<g id="a_node7"><a xlink:title=" ">
<polygon fill="white" stroke="#bfbfbf" points="1049,-0.5 1049,-19.5 1096,-19.5 1096,-0.5 1049,-0.5"/>
<text text-anchor="middle" x="1072.5" y="-7.5" font-family="Helvetica,sans-Serif" font-size="10.00">float.h</text>
</a>
</g>
</g>
<!-- Node2&#45;&gt;Node7 -->
<g id="edge6" class="edge">
<title>Node2&#45;&gt;Node7</title>
<path fill="none" stroke="midnightblue" d="M587.24,-61.9C604.88,-60.14 627.43,-57.91 647.5,-56 818.87,-39.68 866.27,-51.42 1038.92,-20"/>
<polygon fill="midnightblue" stroke="midnightblue" points="1039.65,-23.43 1048.85,-18.17 1038.38,-16.54 1039.65,-23.43"/>
</g>
<!-- Node8 -->
<g id="node8" class="node">
<title>Node8</title>
<g id="a_node8"><a xlink:title=" ">
<polygon fill="white" stroke="#bfbfbf" points="1114,-0.5 1114,-19.5 1165,-19.5 1165,-0.5 1114,-0.5"/>
<text text-anchor="middle" x="1139.5" y="-7.5" font-family="Helvetica,sans-Serif" font-size="10.00">math.h</text>
</a>
</g>
</g>
<!-- Node2&#45;&gt;Node8 -->
<g id="edge7" class="edge">
<title>Node2&#45;&gt;Node8</title>
<path fill="none" stroke="midnightblue" d="M587.23,-61.8C604.86,-60.01 627.42,-57.78 647.5,-56 847.61,-38.24 902.45,-53.75 1103.97,-19.98"/>
<polygon fill="midnightblue" stroke="midnightblue" points="1104.71,-23.4 1113.99,-18.28 1103.54,-16.5 1104.71,-23.4"/>
</g>
<!-- Node9 -->
<g id="node9" class="node">
<title>Node9</title>
<g id="a_node9"><a xlink:title=" ">
<polygon fill="white" stroke="#bfbfbf" points="0,-0.5 0,-19.5 63,-19.5 63,-0.5 0,-0.5"/>
<text text-anchor="middle" x="31.5" y="-7.5" font-family="Helvetica,sans-Serif" font-size="10.00">pthread.h</text>
</a>
</g>
</g>
<!-- Node2&#45;&gt;Node9 -->
<g id="edge8" class="edge">
<title>Node2&#45;&gt;Node9</title>
<path fill="none" stroke="midnightblue" d="M525.76,-63.46C450.38,-59.41 250.22,-46.95 73.22,-19.91"/>
<polygon fill="midnightblue" stroke="midnightblue" points="73.63,-16.44 63.21,-18.37 72.56,-23.35 73.63,-16.44"/>
</g>
<!-- Node10 -->
<g id="node10" class="node">
<title>Node10</title>
<g id="a_node10"><a xlink:title=" ">
<polygon fill="white" stroke="#bfbfbf" points="161.5,-0.5 161.5,-19.5 217.5,-19.5 217.5,-0.5 161.5,-0.5"/>
<text text-anchor="middle" x="189.5" y="-7.5" font-family="Helvetica,sans-Serif" font-size="10.00">stdarg.h</text>
</a>
</g>
</g>
<!-- Node2&#45;&gt;Node10 -->
<g id="edge9" class="edge">
<title>Node2&#45;&gt;Node10</title>
<path fill="none" stroke="midnightblue" d="M525.85,-61.89C469.01,-55.89 343.25,-41.54 227.78,-20.08"/>
<polygon fill="midnightblue" stroke="midnightblue" points="228.19,-16.59 217.72,-18.18 226.9,-23.47 228.19,-16.59"/>
</g>
<!-- Node11 -->
<g id="node11" class="node">
<title>Node11</title>
<g id="a_node11"><a xlink:title=" ">
<polygon fill="white" stroke="#bfbfbf" points="236,-0.5 236,-19.5 289,-19.5 289,-0.5 236,-0.5"/>
<text text-anchor="middle" x="262.5" y="-7.5" font-family="Helvetica,sans-Serif" font-size="10.00">stdint.h</text>
</a>
</g>
</g>
<!-- Node2&#45;&gt;Node11 -->
<g id="edge10" class="edge">
<title>Node2&#45;&gt;Node11</title>
<path fill="none" stroke="midnightblue" d="M525.78,-60.38C479.04,-53.19 387.08,-38.42 299.07,-19.99"/>
<polygon fill="midnightblue" stroke="midnightblue" points="299.69,-16.54 289.19,-17.9 298.25,-23.39 299.69,-16.54"/>
</g>
<!-- Node12 -->
<g id="node12" class="node">
<title>Node12</title>
<g id="a_node12"><a xlink:title=" ">
<polygon fill="white" stroke="#bfbfbf" points="307.5,-0.5 307.5,-19.5 357.5,-19.5 357.5,-0.5 307.5,-0.5"/>
<text text-anchor="middle" x="332.5" y="-7.5" font-family="Helvetica,sans-Serif" font-size="10.00">stdio.h</text>
</a>
</g>
</g>
<!-- Node2&#45;&gt;Node12 -->
<g id="edge11" class="edge">
<title>Node2&#45;&gt;Node12</title>
<path fill="none" stroke="midnightblue" d="M525.84,-58C490.14,-49.79 429.16,-35.59 367.61,-20.23"/>
<polygon fill="midnightblue" stroke="midnightblue" points="368.28,-16.79 357.73,-17.76 366.58,-23.58 368.28,-16.79"/>
</g>
<!-- Node13 -->
<g id="node13" class="node">
<title>Node13</title>
<g id="a_node13"><a xlink:title=" ">
<polygon fill="white" stroke="#bfbfbf" points="376,-0.5 376,-19.5 429,-19.5 429,-0.5 376,-0.5"/>
<text text-anchor="middle" x="402.5" y="-7.5" font-family="Helvetica,sans-Serif" font-size="10.00">stdlib.h</text>
</a>
</g>
</g>
<!-- Node2&#45;&gt;Node13 -->
<g id="edge12" class="edge">
<title>Node2&#45;&gt;Node13</title>
<path fill="none" stroke="midnightblue" d="M532.1,-56.44C506.3,-47.4 465.42,-33.06 436.48,-22.92"/>
<polygon fill="midnightblue" stroke="midnightblue" points="437.38,-19.52 426.79,-19.52 435.07,-26.13 437.38,-19.52"/>
</g>
<!-- Node14 -->
<g id="node14" class="node">
<title>Node14</title>
<g id="a_node14"><a xlink:title=" ">
<polygon fill="white" stroke="#bfbfbf" points="447,-0.5 447,-19.5 500,-19.5 500,-0.5 447,-0.5"/>
<text text-anchor="middle" x="473.5" y="-7.5" font-family="Helvetica,sans-Serif" font-size="10.00">string.h</text>
</a>
</g>
</g>
<!-- Node2&#45;&gt;Node14 -->
<g id="edge13" class="edge">
<title>Node2&#45;&gt;Node14</title>
<path fill="none" stroke="midnightblue" d="M543.16,-56.32C530.34,-47.98 510.72,-35.21 495.56,-25.35"/>
<polygon fill="midnightblue" stroke="midnightblue" points="497.09,-22.17 486.8,-19.65 493.28,-28.04 497.09,-22.17"/>
</g>
<!-- Node15 -->
<g id="node15" class="node">
<title>Node15</title>
<g id="a_node15"><a xlink:title=" ">
<polygon fill="white" stroke="#bfbfbf" points="518,-0.5 518,-19.5 595,-19.5 595,-0.5 518,-0.5"/>
<text text-anchor="middle" x="556.5" y="-7.5" font-family="Helvetica,sans-Serif" font-size="10.00">sys/mman.h</text>
</a>
</g>
</g>
<!-- Node2&#45;&gt;Node15 -->
<g id="edge14" class="edge">
<title>Node2&#45;&gt;Node15</title>
<path fill="none" stroke="midnightblue" d="M556.5,-56.08C556.5,-49.01 556.5,-38.86 556.5,-29.99"/>
<polygon fill="midnightblue" stroke="midnightblue" points="560,-29.75 556.5,-19.75 553,-29.75 560,-29.75"/>
</g>
<!-- Node16 -->
<g id="node16" class="node">
<title>Node16</title>
<g id="a_node16"><a xlink:title=" ">
<polygon fill="white" stroke="#bfbfbf" points="613.5,-0.5 613.5,-19.5 677.5,-19.5 677.5,-0.5 613.5,-0.5"/>
<text text-anchor="middle" x="645.5" y="-7.5" font-family="Helvetica,sans-Serif" font-size="10.00">sys/stat.h</text>
</a>
</g>
</g>
<!-- Node2&#45;&gt;Node16 -->
<g id="edge15" class="edge">
<title>Node2&#45;&gt;Node16</title>
<path fill="none" stroke="midnightblue" d="M570.8,-56.32C584.68,-47.9 605.99,-34.97 622.3,-25.07"/>
<polygon fill="midnightblue" stroke="midnightblue" points="624.5,-27.83 631.24,-19.65 620.87,-21.85 624.5,-27.83"/>
</g>
<!-- Node17 -->
<g id="node17" class="node">
<title>Node17</title>
<g id="a_node17"><a xlink:title=" ">
<polygon fill="white" stroke="#bfbfbf" points="1183.5,-0.5 1183.5,-19.5 1231.5,-19.5 1231.5,-0.5 1183.5,-0.5"/>
<text text-anchor="middle" x="1207.5" y="-7.5" font-family="Helvetica,sans-Serif" font-size="10.00">time.h</text>
</a>
</g>
</g>
<!-- Node2&#45;&gt;Node17 -->
<g id="edge16" class="edge">
<title>Node2&#45;&gt;Node17</title>
<path fill="none" stroke="midnightblue" d="M587.23,-61.73C604.86,-59.91 627.41,-57.68 647.5,-56 878.14,-36.72 941.23,-58.44 1173.36,-19.84"/>
<polygon fill="midnightblue" stroke="midnightblue" points="1174.19,-23.25 1183.47,-18.14 1173.03,-16.35 1174.19,-23.25"/>
</g>
<!-- Node18 -->
<g id="node18" class="node">
<title>Node18</title>
<g id="a_node18"><a xlink:title=" ">
<polygon fill="white" stroke="#bfbfbf" points="695.5,-0.5 695.5,-19.5 751.5,-19.5 751.5,-0.5 695.5,-0.5"/>
<text text-anchor="middle" x="723.5" y="-7.5" font-family="Helvetica,sans-Serif" font-size="10.00">unistd.h</text>
</a>
</g>
</g>
<!-- Node2&#45;&gt;Node18 -->
<g id="edge17" class="edge">
<title>Node2&#45;&gt;Node18</title>
<path fill="none" stroke="midnightblue" d="M582.96,-56.44C611.18,-47.32 656.04,-32.81 687.47,-22.65"/>
<polygon fill="midnightblue" stroke="midnightblue" points="688.72,-25.92 697.16,-19.52 686.57,-19.26 688.72,-25.92"/>
</g>
<!-- Node19 -->
<g id="node19" class="node">
<title>Node19</title>
<g id="a_node19"><a xlink:title=" ">
<polygon fill="white" stroke="#bfbfbf" points="81.5,-0.5 81.5,-19.5 143.5,-19.5 143.5,-0.5 81.5,-0.5"/>
<text text-anchor="middle" x="112.5" y="-7.5" font-family="Helvetica,sans-Serif" font-size="10.00">stdbool.h</text>
</a>
</g>
</g>
<!-- Node2&#45;&gt;Node19 -->
<g id="edge18" class="edge">
<title>Node2&#45;&gt;Node19</title>
<path fill="none" stroke="midnightblue" d="M525.93,-62.75C459.82,-57.65 298.47,-43.86 153.82,-20.06"/>
<polygon fill="midnightblue" stroke="midnightblue" points="154.32,-16.59 143.88,-18.4 153.17,-23.5 154.32,-16.59"/>
</g>
<!-- Node20&#45;&gt;Node2 -->
<g id="edge22" class="edge">
<title>Node20&#45;&gt;Node2</title>
<path fill="none" stroke="midnightblue" d="M164.08,-224.45C174.1,-201.75 204.73,-139.8 251.5,-112 295.41,-85.9 443.38,-73.71 515.84,-69.19"/>
<polygon fill="midnightblue" stroke="midnightblue" points="516.19,-72.67 525.96,-68.58 515.77,-65.69 516.19,-72.67"/>
</g>
<!-- Node20&#45;&gt;Node9 -->
<g id="edge20" class="edge">
<title>Node20&#45;&gt;Node9</title>
<path fill="none" stroke="midnightblue" d="M155.44,-224.3C136.3,-191.36 68.05,-73.9 41.85,-28.81"/>
<polygon fill="midnightblue" stroke="midnightblue" points="44.71,-26.77 36.66,-19.88 38.66,-30.29 44.71,-26.77"/>
</g>
<!-- Node20&#45;&gt;Node19 -->
<g id="edge21" class="edge">
<title>Node20&#45;&gt;Node19</title>
<path fill="none" stroke="midnightblue" d="M158.62,-224.3C151.54,-191.56 126.42,-75.38 116.54,-29.67"/>
<polygon fill="midnightblue" stroke="midnightblue" points="119.96,-28.92 114.42,-19.88 113.11,-30.4 119.96,-28.92"/>
</g>
<!-- Node21 -->
<g id="node21" class="node">
<title>Node21</title>
<g id="a_node21"><a xlink:href="Thread_8h.html" target="_top" xlink:title="Lightweight Synchronization Primitives Wrapper.">
<polygon fill="white" stroke="black" points="293.5,-168.5 293.5,-187.5 417.5,-187.5 417.5,-168.5 293.5,-168.5"/>
<text text-anchor="middle" x="355.5" y="-175.5" font-family="Helvetica,sans-Serif" font-size="10.00">src/Common/Thread.h</text>
</a>
</g>
</g>
<!-- Node20&#45;&gt;Node21 -->
<g id="edge23" class="edge">
<title>Node20&#45;&gt;Node21</title>
<path fill="none" stroke="midnightblue" d="M191.4,-224.44C224.77,-215.2 278.09,-200.44 314.85,-190.26"/>
<polygon fill="midnightblue" stroke="midnightblue" points="316.04,-193.56 324.75,-187.52 314.17,-186.81 316.04,-193.56"/>
</g>
<!-- Node21&#45;&gt;Node2 -->
<g id="edge26" class="edge">
<title>Node21&#45;&gt;Node2</title>
<path fill="none" stroke="midnightblue" d="M371.27,-168.37C406.13,-149.29 489.95,-103.42 531.82,-80.51"/>
<polygon fill="midnightblue" stroke="midnightblue" points="533.71,-83.46 540.8,-75.59 530.35,-77.32 533.71,-83.46"/>
</g>
<!-- Node21&#45;&gt;Node9 -->
<g id="edge24" class="edge">
<title>Node21&#45;&gt;Node9</title>
<path fill="none" stroke="midnightblue" d="M338.54,-168.31C285.28,-141.02 121.18,-56.95 57.31,-24.22"/>
<polygon fill="midnightblue" stroke="midnightblue" points="58.79,-21.05 48.3,-19.61 55.6,-27.28 58.79,-21.05"/>
</g>
<!-- Node22 -->
<g id="node22" class="node">
<title>Node22</title>
<g id="a_node22"><a xlink:title=" ">
<polygon fill="white" stroke="#bfbfbf" points="331.5,-112.5 331.5,-131.5 411.5,-131.5 411.5,-112.5 331.5,-112.5"/>
<text text-anchor="middle" x="371.5" y="-119.5" font-family="Helvetica,sans-Serif" font-size="10.00">semaphore.h</text>
</a>
</g>
</g>
<!-- Node21&#45;&gt;Node22 -->
<g id="edge25" class="edge">
<title>Node21&#45;&gt;Node22</title>
<path fill="none" stroke="midnightblue" d="M358.14,-168.08C360.29,-160.85 363.38,-150.41 366.05,-141.4"/>
<polygon fill="midnightblue" stroke="midnightblue" points="369.42,-142.33 368.91,-131.75 362.71,-140.34 369.42,-142.33"/>
</g>
<!-- Node23 -->
<g id="node23" class="node">
<title>Node23</title>
<g id="a_node23"><a xlink:href="Time_8h.html" target="_top" xlink:title="Lightweight Time Manipulation Utilities.">
<polygon fill="white" stroke="black" points="604,-112.5 604,-131.5 719,-131.5 719,-112.5 604,-112.5"/>
<text text-anchor="middle" x="661.5" y="-119.5" font-family="Helvetica,sans-Serif" font-size="10.00">src/Common/Time.h</text>
</a>
</g>
</g>
<!-- Node21&#45;&gt;Node23 -->
<g id="edge27" class="edge">
<title>Node21&#45;&gt;Node23</title>
<path fill="none" stroke="midnightblue" d="M403.99,-168.44C458.04,-158.9 545.43,-143.48 603.17,-133.29"/>
<polygon fill="midnightblue" stroke="midnightblue" points="604,-136.7 613.24,-131.52 602.78,-129.81 604,-136.7"/>
</g>
<!-- Node23&#45;&gt;Node2 -->
<g id="edge30" class="edge">
<title>Node23&#45;&gt;Node2</title>
<path fill="none" stroke="midnightblue" d="M644.63,-112.32C627.79,-103.66 601.69,-90.24 582.26,-80.25"/>
<polygon fill="midnightblue" stroke="midnightblue" points="583.82,-77.12 573.33,-75.65 580.62,-83.34 583.82,-77.12"/>
</g>
<!-- Node23&#45;&gt;Node17 -->
<g id="edge29" class="edge">
<title>Node23&#45;&gt;Node17</title>
<path fill="none" stroke="midnightblue" d="M661.32,-112.15C661.55,-97.8 664.32,-69.68 681.5,-56 722.62,-23.25 1086.99,-28.7 1173.55,-19.47"/>
<polygon fill="midnightblue" stroke="midnightblue" points="1174.03,-22.94 1183.47,-18.13 1173.09,-16 1174.03,-22.94"/>
</g>
<!-- Node24 -->
<g id="node24" class="node">
<title>Node24</title>
<g id="a_node24"><a xlink:title=" ">
<polygon fill="white" stroke="#bfbfbf" points="690,-56.5 690,-75.5 743,-75.5 743,-56.5 690,-56.5"/>
<text text-anchor="middle" x="716.5" y="-63.5" font-family="Helvetica,sans-Serif" font-size="10.00">limits.h</text>
</a>
</g>
</g>
<!-- Node23&#45;&gt;Node24 -->
<g id="edge28" class="edge">
<title>Node23&#45;&gt;Node24</title>
<path fill="none" stroke="midnightblue" d="M670.58,-112.08C678.67,-104.14 690.7,-92.34 700.41,-82.8"/>
<polygon fill="midnightblue" stroke="midnightblue" points="702.9,-85.25 707.59,-75.75 698,-80.26 702.9,-85.25"/>
</g>
<!-- Node26 -->
<g id="node26" class="node">
<title>Node26</title>
<g id="a_node26"><a xlink:title=" ">
<polygon fill="white" stroke="#bfbfbf" points="639.5,-168.5 639.5,-187.5 695.5,-187.5 695.5,-168.5 639.5,-168.5"/>
<text text-anchor="middle" x="667.5" y="-175.5" font-family="Helvetica,sans-Serif" font-size="10.00">stddef.h</text>
</a>
</g>
</g>
<!-- Node25&#45;&gt;Node26 -->
<g id="edge32" class="edge">
<title>Node25&#45;&gt;Node26</title>
<path fill="none" stroke="midnightblue" d="M667.5,-224.08C667.5,-217.01 667.5,-206.86 667.5,-197.99"/>
<polygon fill="midnightblue" stroke="midnightblue" points="671,-197.75 667.5,-187.75 664,-197.75 671,-197.75"/>
</g>
<!-- Node27&#45;&gt;Node2 -->
<g id="edge34" class="edge">
<title>Node27&#45;&gt;Node2</title>
<path fill="none" stroke="midnightblue" d="M511.49,-280.39C529.04,-272.6 547.2,-260.96 557.5,-244 588.02,-193.73 572.35,-119.71 562.49,-85.54"/>
<polygon fill="midnightblue" stroke="midnightblue" points="565.72,-84.11 559.45,-75.57 559.02,-86.15 565.72,-84.11"/>
</g>
<!-- Node27&#45;&gt;Node20 -->
<g id="edge39" class="edge">
<title>Node27&#45;&gt;Node20</title>
<path fill="none" stroke="midnightblue" d="M392.84,-280.47C337.99,-269.74 263.55,-255.17 213.86,-245.44"/>
<polygon fill="midnightblue" stroke="midnightblue" points="214.45,-241.99 203.96,-243.51 213.1,-248.86 214.45,-241.99"/>
</g>
<!-- Node27&#45;&gt;Node25 -->
<g id="edge40" class="edge">
<title>Node27&#45;&gt;Node25</title>
<path fill="none" stroke="midnightblue" d="M512.35,-280.47C547.83,-270.08 595.59,-256.08 628.7,-246.37"/>
<polygon fill="midnightblue" stroke="midnightblue" points="629.87,-249.68 638.48,-243.51 627.9,-242.96 629.87,-249.68"/>
</g>
<!-- Node28 -->
<g id="node28" class="node">
<title>Node28</title>
<g id="a_node28"><a xlink:href="SensorDataPipe_8h.html" target="_top" xlink:title="Lock&#45;Free Data Pipeline.">
<polygon fill="white" stroke="black" points="381,-224.5 381,-243.5 548,-243.5 548,-224.5 381,-224.5"/>
<text text-anchor="middle" x="464.5" y="-231.5" font-family="Helvetica,sans-Serif" font-size="10.00">src/Common/SensorDataPipe.h</text>
</a>
</g>
</g>
<!-- Node27&#45;&gt;Node28 -->
<g id="edge35" class="edge">
<title>Node27&#45;&gt;Node28</title>
<path fill="none" stroke="midnightblue" d="M464.5,-280.4C464.5,-272.47 464.5,-262.46 464.5,-253.86"/>
<polygon fill="midnightblue" stroke="midnightblue" points="468,-253.66 464.5,-243.66 461,-253.66 468,-253.66"/>
</g>
<!-- Node28&#45;&gt;Node2 -->
<g id="edge37" class="edge">
<title>Node28&#45;&gt;Node2</title>
<path fill="none" stroke="midnightblue" d="M478.88,-224.38C491.08,-216.39 508.18,-203.41 518.5,-188 540.07,-155.8 549.94,-110.67 554.01,-85.61"/>
<polygon fill="midnightblue" stroke="midnightblue" points="557.48,-86.04 555.49,-75.64 550.56,-85.01 557.48,-86.04"/>
</g>
<!-- Node28&#45;&gt;Node21 -->
<g id="edge38" class="edge">
<title>Node28&#45;&gt;Node21</title>
<path fill="none" stroke="midnightblue" d="M446.99,-224.32C429.43,-215.62 402.17,-202.12 381.97,-192.11"/>
<polygon fill="midnightblue" stroke="midnightblue" points="383.48,-188.96 372.97,-187.65 380.38,-195.23 383.48,-188.96"/>
</g>
<!-- Node29 -->
<g id="node29" class="node">
<title>Node29</title>
<g id="a_node29"><a xlink:title=" ">
<polygon fill="white" stroke="#bfbfbf" points="435.5,-168.5 435.5,-187.5 509.5,-187.5 509.5,-168.5 435.5,-168.5"/>
<text text-anchor="middle" x="472.5" y="-175.5" font-family="Helvetica,sans-Serif" font-size="10.00">stdatomic.h</text>
</a>
</g>
</g>
<!-- Node28&#45;&gt;Node29 -->
<g id="edge36" class="edge">
<title>Node28&#45;&gt;Node29</title>
<path fill="none" stroke="midnightblue" d="M465.82,-224.08C466.88,-216.93 468.41,-206.64 469.73,-197.69"/>
<polygon fill="midnightblue" stroke="midnightblue" points="473.2,-198.16 471.2,-187.75 466.28,-197.13 473.2,-198.16"/>
</g>
</g>
</svg>
        <g id="navigator" transform="translate(0 0)" fill="#404254">
                <rect fill="#f2f5e9" fill-opacity="0.5" stroke="#606060" stroke-width=".5" x="0" y="0" width="60" height="60"/>
                <use id="zoomplus" xlink:href="#zoomPlus" x="17" y="9" onmousedown="handleZoom(evt,'in')"/>
                <use id="zoomminus" xlink:href="#zoomMin" x="42" y="9" onmousedown="handleZoom(evt,'out')"/>
                <use id="reset" xlink:href="#resetDef" x="30" y="36" onmousedown="handleReset()"/>
                <g id="arrowUp" xlink:href="#dirArrow" transform="translate(30 24)" onmousedown="handlePan(0,-1)">
                  <use xlink:href="#rim" fill="#404040">
                        <set attributeName="fill" to="#808080" begin="arrowUp.mouseover" end="arrowUp.mouseout"/>
                  </use>
                  <path fill="none" stroke="white" stroke-width="1.5" d="M0,-3.0v7 M-2.5,-0.5L0,-3.0L2.5,-0.5"/>
                </g>
                <g id="arrowRight" xlink:href="#dirArrow" transform="rotate(90) translate(36 -43)" onmousedown="handlePan(1,0)">
                  <use xlink:href="#rim" fill="#404040">
                        <set attributeName="fill" to="#808080" begin="arrowRight.mouseover" end="arrowRight.mouseout"/>
                  </use>
                  <path fill="none" stroke="white" stroke-width="1.5" d="M0,-3.0v7 M-2.5,-0.5L0,-3.0L2.5,-0.5"/>
                </g>
                <g id="arrowDown" xlink:href="#dirArrow" transform="rotate(180) translate(-30 -48)" onmousedown="handlePan(0,1)">
                  <use xlink:href="#rim" fill="#404040">
                        <set attributeName="fill" to="#808080" begin="arrowDown.mouseover" end="arrowDown.mouseout"/>
                  </use>
                  <path fill="none" stroke="white" stroke-width="1.5" d="M0,-3.0v7 M-2.5,-0.5L0,-3.0L2.5,-0.5"/>
                </g>
                <g id="arrowLeft" xlink:href="#dirArrow" transform="rotate(270) translate(-36 17)" onmousedown="handlePan(-1,0)">
                  <use xlink:href="#rim" fill="#404040">
                        <set attributeName="fill" to="#808080" begin="arrowLeft.mouseover" end="arrowLeft.mouseout"/>
                  </use>
                  <path fill="none" stroke="white" stroke-width="1.5" d="M0,-3.0v7 M-2.5,-0.5L0,-3.0L2.5,-0.5"/>
                </g>
        </g>
        <svg viewBox="0 0 15 15" width="100%" height="30px" preserveAspectRatio="xMaxYMin meet">
         <g id="arrow_out" transform="scale(0.3 0.3)">
          <a xlink:href="DataHandlers_8c__incl_org.svg" target="_base">
           <rect id="button" ry="5" rx="5" y="6" x="6" height="38" width="38"
                fill="#f2f5e9" fill-opacity="0.5" stroke="#606060" stroke-width="1.0"/>
           <path id="arrow"
             d="M 11.500037,31.436501 C 11.940474,20.09759 22.043105,11.32322 32.158766,21.979434 L 37.068811,17.246167 C 37.068811,17.246167 37.088388,32 37.088388,32 L 22.160133,31.978069 C 22.160133,31.978069 26.997745,27.140456 26.997745,27.140456 C 18.528582,18.264221 13.291696,25.230495 11.500037,31.436501 z"
             style="fill:#404040;"/>
          </a>
         </g>
        </svg>
</svg>
