<?xml version="1.0" encoding="UTF-8" standalone="no"?>
<!DOCTYPE svg PUBLIC "-//W3C//DTD SVG 1.1//EN"
 "http://www.w3.org/Graphics/SVG/1.1/DTD/svg11.dtd">
<!-- Generated by graphviz version 2.43.0 (0)
 -->
<!-- Title: GetTableMetadata Pages: 1 -->
<svg width="269pt" height="66pt"
 viewBox="0.00 0.00 269.00 66.00" xmlns="http://www.w3.org/2000/svg" xmlns:xlink="http://www.w3.org/1999/xlink">
<g id="graph0" class="graph" transform="scale(1 1) rotate(0) translate(4 62)">
<title>GetTableMetadata</title>
<polygon fill="white" stroke="transparent" points="-4,4 -4,-62 265,-62 265,4 -4,4"/>
<!-- Node1 -->
<g id="node1" class="node">
<title>Node1</title>
<g id="a_node1"><a xlink:title=" ">
<polygon fill="#bfbfbf" stroke="black" points="0,-19.5 0,-38.5 106,-38.5 106,-19.5 0,-19.5"/>
<text text-anchor="middle" x="53" y="-26.5" font-family="Helvetica,sans-Serif" font-size="10.00">GetTableMetadata</text>
</a>
</g>
</g>
<!-- Node2 -->
<g id="node2" class="node">
<title>Node2</title>
<g id="a_node2"><a xlink:href="Sdb_8h.html#adb598df288598cf1c13afc15e3f7e6c2" target="_top" xlink:title=" ">
<polygon fill="white" stroke="black" points="142,-38.5 142,-57.5 261,-57.5 261,-38.5 142,-38.5"/>
<text text-anchor="middle" x="201.5" y="-45.5" font-family="Helvetica,sans-Serif" font-size="10.00">SdbStringAppendFmt</text>
</a>
</g>
</g>
<!-- Node1&#45;&gt;Node2 -->
<g id="edge1" class="edge">
<title>Node1&#45;&gt;Node2</title>
<path fill="none" stroke="midnightblue" d="M106.06,-35.75C114.4,-36.83 123.13,-37.97 131.78,-39.09"/>
<polygon fill="midnightblue" stroke="midnightblue" points="131.5,-42.58 141.87,-40.4 132.4,-35.64 131.5,-42.58"/>
</g>
<!-- Node3 -->
<g id="node3" class="node">
<title>Node3</title>
<g id="a_node3"><a xlink:href="Sdb_8h.html#acd332199b77e76c2b764ef93a7b60439" target="_top" xlink:title=" ">
<polygon fill="white" stroke="black" points="157,-0.5 157,-19.5 246,-19.5 246,-0.5 157,-0.5"/>
<text text-anchor="middle" x="201.5" y="-7.5" font-family="Helvetica,sans-Serif" font-size="10.00">SdbStringMake</text>
</a>
</g>
</g>
<!-- Node1&#45;&gt;Node3 -->
<g id="edge2" class="edge">
<title>Node1&#45;&gt;Node3</title>
<path fill="none" stroke="midnightblue" d="M106.06,-22.25C119.3,-20.53 133.55,-18.68 146.87,-16.96"/>
<polygon fill="midnightblue" stroke="midnightblue" points="147.37,-20.42 156.83,-15.66 146.47,-13.48 147.37,-20.42"/>
</g>
</g>
</svg>
