<?xml version="1.0" encoding="UTF-8" standalone="no"?>
<!DOCTYPE svg PUBLIC "-//W3C//DTD SVG 1.1//EN"
 "http://www.w3.org/Graphics/SVG/1.1/DTD/svg11.dtd">
<!-- Generated by graphviz version 2.43.0 (0)
 -->
<!-- Title: src/DatabaseSystems/Postgres.c Pages: 1 -->
<!--zoomable 335 -->

<svg id="main" version="1.1" xmlns="http://www.w3.org/2000/svg" xmlns:xlink="http://www.w3.org/1999/xlink" xml:space="preserve" onload="init(evt)">
<style type="text/css"><![CDATA[
.node, .edge {opacity: 0.7;}
.node.selected, .edge.selected {opacity: 1;}
.edge:hover path { stroke: red; }
.edge:hover polygon { stroke: red; fill: red; }
]]></style>

<defs>
  <circle id="rim" cx="0" cy="0" r="7"/>
  <circle id="rim2" cx="0" cy="0" r="3.5"/>
  <g id="zoomPlus">
    <use xlink:href="#rim" fill="#404040"><set attributeName="fill" to="#808080" begin="zoomplus.mouseover" end="zoomplus.mouseout"/></use>
    <path d="M-4,0h8M0,-4v8" fill="none" stroke="white" stroke-width="1.5" pointer-events="none"/>
  </g>
  <g id="zoomMin">
    <use xlink:href="#rim" fill="#404040"><set attributeName="fill" to="#808080" begin="zoomminus.mouseover" end="zoomminus.mouseout"/></use>
    <path d="M-4,0h8" fill="none" stroke="white" stroke-width="1.5" pointer-events="none"/>
  </g>
  <g id="arrowUp" transform="translate(30 24)">
    <use xlink:href="#rim"/>
    <path pointer-events="none" fill="none" stroke="white" stroke-width="1.5" d="M0,-3.0v7 M-2.5,-0.5L0,-3.0L2.5,-0.5"/>
  </g>
  <g id="arrowRight" transform="rotate(90) translate(36 -43)">
    <use xlink:href="#rim"/>
    <path pointer-events="none" fill="none" stroke="white" stroke-width="1.5" d="M0,-3.0v7 M-2.5,-0.5L0,-3.0L2.5,-0.5"/>
  </g>
  <g id="arrowDown" transform="rotate(180) translate(-30 -48)">
    <use xlink:href="#rim"/>
    <path pointer-events="none" fill="none" stroke="white" stroke-width="1.5" d="M0,-3.0v7 M-2.5,-0.5L0,-3.0L2.5,-0.5"/>
  </g>
  <g id="arrowLeft" transform="rotate(270) translate(-36 17)">
    <use xlink:href="#rim"/>
    <path pointer-events="none" fill="none" stroke="white" stroke-width="1.5" d="M0,-3.0v7 M-2.5,-0.5L0,-3.0L2.5,-0.5"/>
  </g>
  <g id="resetDef">
    <use xlink:href="#rim2" fill="#404040"><set attributeName="fill" to="#808080" begin="reset.mouseover" end="reset.mouseout"/></use>
  </g>
</defs>
<script type="application/ecmascript">
var viewWidth = 1359;
var viewHeight = 335;
var sectionId = 'dynsection-0';
</script>
<script type="application/ecmascript" xlink:href="svg.min.js"/>
<svg id="graph" class="graph">
<g id="viewport">
<title>src/DatabaseSystems/Postgres.c</title>
<!-- Node1 -->
<g id="Node000001" class="node">
<title>Node1</title>
<g id="a_Node000001"><a xlink:title="Implementation of PostgreSQL database operations.">
<polygon fill="#999999" stroke="#666666" points="504.5,-327 382.5,-327 382.5,-297 504.5,-297 504.5,-327"/>
<text text-anchor="start" x="390.5" y="-315" font-family="Helvetica,sans-Serif" font-size="10.00">src/DatabaseSystems</text>
<text text-anchor="middle" x="443.5" y="-304" font-family="Helvetica,sans-Serif" font-size="10.00">/Postgres.c</text>
</a>
</g>
</g>
<!-- Node2 -->
<g id="Node000002" class="node">
<title>Node2</title>
<g id="a_Node000002"><a xlink:title=" ">
<polygon fill="#e0e0e0" stroke="#999999" points="69,-255.5 0,-255.5 0,-236.5 69,-236.5 69,-255.5"/>
<text text-anchor="middle" x="34.5" y="-243.5" font-family="Helvetica,sans-Serif" font-size="10.00">arpa/inet.h</text>
</a>
</g>
</g>
<!-- Node1&#45;&gt;Node2 -->
<g id="edge1_Node000001_Node000002" class="edge">
<title>Node1&#45;&gt;Node2</title>
<g id="a_edge1_Node000001_Node000002"><a xlink:title=" ">
<path fill="none" stroke="#63b8ff" d="M382.35,-306.02C309.18,-299.29 183.3,-285.24 77.5,-261 74.46,-260.3 71.33,-259.49 68.21,-258.6"/>
<polygon fill="#63b8ff" stroke="#63b8ff" points="68.98,-255.18 58.39,-255.62 66.94,-261.88 68.98,-255.18"/>
</a>
</g>
</g>
<!-- Node3 -->
<g id="Node000003" class="node">
<title>Node3</title>
<g id="a_Node000003"><a xlink:title=" ">
<polygon fill="#e0e0e0" stroke="#999999" points="150,-255.5 87,-255.5 87,-236.5 150,-236.5 150,-255.5"/>
<text text-anchor="middle" x="118.5" y="-243.5" font-family="Helvetica,sans-Serif" font-size="10.00">libpq&#45;fe.h</text>
</a>
</g>
</g>
<!-- Node1&#45;&gt;Node3 -->
<g id="edge2_Node000001_Node000003" class="edge">
<title>Node1&#45;&gt;Node3</title>
<g id="a_edge2_Node000001_Node000003"><a xlink:title=" ">
<path fill="none" stroke="#63b8ff" d="M382.39,-302.18C325.57,-293.47 238.77,-278.89 164.5,-261 161.15,-260.19 157.69,-259.28 154.23,-258.32"/>
<polygon fill="#63b8ff" stroke="#63b8ff" points="155.2,-254.96 144.62,-255.54 153.25,-261.68 155.2,-254.96"/>
</a>
</g>
</g>
<!-- Node4 -->
<g id="Node000004" class="node">
<title>Node4</title>
<g id="a_Node000004"><a xlink:title=" ">
<polygon fill="#e0e0e0" stroke="#999999" points="172,-19 119,-19 119,0 172,0 172,-19"/>
<text text-anchor="middle" x="145.5" y="-7" font-family="Helvetica,sans-Serif" font-size="10.00">stdlib.h</text>
</a>
</g>
</g>
<!-- Node1&#45;&gt;Node4 -->
<g id="edge3_Node000001_Node000004" class="edge">
<title>Node1&#45;&gt;Node4</title>
<g id="a_edge3_Node000001_Node000004"><a xlink:title=" ">
<path fill="none" stroke="#63b8ff" d="M382.26,-303.91C323.44,-296 239.86,-281.57 214.5,-261 184.22,-236.44 178.5,-219.99 178.5,-181 178.5,-181 178.5,-181 178.5,-118.5 178.5,-85.63 164.34,-49.49 154.57,-28.46"/>
<polygon fill="#63b8ff" stroke="#63b8ff" points="157.59,-26.66 150.09,-19.18 151.29,-29.71 157.59,-26.66"/>
</a>
</g>
</g>
<!-- Node5 -->
<g id="Node000005" class="node">
<title>Node5</title>
<g id="a_Node000005"><a xlink:title=" ">
<polygon fill="#e0e0e0" stroke="#999999" points="243,-19 190,-19 190,0 243,0 243,-19"/>
<text text-anchor="middle" x="216.5" y="-7" font-family="Helvetica,sans-Serif" font-size="10.00">string.h</text>
</a>
</g>
</g>
<!-- Node1&#45;&gt;Node5 -->
<g id="edge4_Node000001_Node000005" class="edge">
<title>Node1&#45;&gt;Node5</title>
<g id="a_edge4_Node000001_Node000005"><a xlink:title=" ">
<path fill="none" stroke="#63b8ff" d="M382.44,-303.46C328.72,-295.59 255.96,-281.51 235.5,-261 209.69,-235.12 216.5,-217.54 216.5,-181 216.5,-181 216.5,-181 216.5,-118.5 216.5,-87.19 216.5,-50.77 216.5,-29.23"/>
<polygon fill="#63b8ff" stroke="#63b8ff" points="220,-29.18 216.5,-19.18 213,-29.18 220,-29.18"/>
</a>
</g>
</g>
<!-- Node6 -->
<g id="Node000006" class="node">
<title>Node6</title>
<g id="a_Node000006"><a xlink:title=" ">
<polygon fill="#e0e0e0" stroke="#999999" points="314,-255.5 245,-255.5 245,-236.5 314,-236.5 314,-255.5"/>
<text text-anchor="middle" x="279.5" y="-243.5" font-family="Helvetica,sans-Serif" font-size="10.00">sys/epoll.h</text>
</a>
</g>
</g>
<!-- Node1&#45;&gt;Node6 -->
<g id="edge5_Node000001_Node000006" class="edge">
<title>Node1&#45;&gt;Node6</title>
<g id="a_edge5_Node000001_Node000006"><a xlink:title=" ">
<path fill="none" stroke="#63b8ff" d="M407.51,-296.95C378.62,-285.68 338.47,-270.01 310.88,-259.25"/>
<polygon fill="#63b8ff" stroke="#63b8ff" points="311.91,-255.89 301.33,-255.52 309.37,-262.41 311.91,-255.89"/>
</a>
</g>
</g>
<!-- Node7 -->
<g id="Node000007" class="node">
<title>Node7</title>
<g id="a_Node000007"><a xlink:title=" ">
<polygon fill="#e0e0e0" stroke="#999999" points="415,-255.5 332,-255.5 332,-236.5 415,-236.5 415,-255.5"/>
<text text-anchor="middle" x="373.5" y="-243.5" font-family="Helvetica,sans-Serif" font-size="10.00">sys/eventfd.h</text>
</a>
</g>
</g>
<!-- Node1&#45;&gt;Node7 -->
<g id="edge6_Node000001_Node000007" class="edge">
<title>Node1&#45;&gt;Node7</title>
<g id="a_edge6_Node000001_Node000007"><a xlink:title=" ">
<path fill="none" stroke="#63b8ff" d="M427.96,-296.8C416.94,-286.72 402.15,-273.19 390.76,-262.78"/>
<polygon fill="#63b8ff" stroke="#63b8ff" points="392.92,-260.01 383.17,-255.84 388.19,-265.18 392.92,-260.01"/>
</a>
</g>
</g>
<!-- Node8 -->
<g id="Node000008" class="node">
<title>Node8</title>
<g id="a_Node000008"><a xlink:href="Sdb_8h.html" target="_top" xlink:title=" ">
<polygon fill="white" stroke="#666666" points="816,-74 755,-74 755,-55 816,-55 816,-74"/>
<text text-anchor="middle" x="785.5" y="-62" font-family="Helvetica,sans-Serif" font-size="10.00">src/Sdb.h</text>
</a>
</g>
</g>
<!-- Node1&#45;&gt;Node8 -->
<g id="edge7_Node000001_Node000008" class="edge">
<title>Node1&#45;&gt;Node8</title>
<g id="a_edge7_Node000001_Node000008"><a xlink:title=" ">
<path fill="none" stroke="#63b8ff" d="M444.83,-296.71C446.83,-280.14 451.6,-252.36 462.5,-231 494.72,-167.83 505.34,-145.89 566.5,-110 622.38,-77.21 698.54,-68.26 744.75,-66.01"/>
<polygon fill="#63b8ff" stroke="#63b8ff" points="745.13,-69.49 754.98,-65.59 744.85,-62.5 745.13,-69.49"/>
</a>
</g>
</g>
<!-- Node24 -->
<g id="Node000024" class="node">
<title>Node24</title>
<g id="a_Node000024"><a xlink:title=" ">
<polygon fill="#e0e0e0" stroke="#999999" points="665.5,-195 543.5,-195 543.5,-165 665.5,-165 665.5,-195"/>
<text text-anchor="start" x="551.5" y="-183" font-family="Helvetica,sans-Serif" font-size="10.00">src/DatabaseSystems</text>
<text text-anchor="middle" x="604.5" y="-172" font-family="Helvetica,sans-Serif" font-size="10.00">/Postgres.h</text>
</a>
</g>
</g>
<!-- Node1&#45;&gt;Node24 -->
<g id="edge25_Node000001_Node000024" class="edge">
<title>Node1&#45;&gt;Node24</title>
<g id="a_edge25_Node000001_Node000024"><a xlink:title=" ">
<path fill="none" stroke="#63b8ff" d="M504.71,-303.32C554.95,-295.62 620.35,-281.87 636.5,-261 649.88,-243.72 637.56,-220.11 624.53,-203.02"/>
<polygon fill="#63b8ff" stroke="#63b8ff" points="627.2,-200.76 618.18,-195.21 621.77,-205.18 627.2,-200.76"/>
</a>
</g>
</g>
<!-- Node25 -->
<g id="Node000025" class="node">
<title>Node25</title>
<g id="a_Node000025"><a xlink:href="SensorDataPipe_8h.html" target="_top" xlink:title="Lock&#45;Free Data Pipeline.">
<polygon fill="white" stroke="#666666" points="850,-255.5 683,-255.5 683,-236.5 850,-236.5 850,-255.5"/>
<text text-anchor="middle" x="766.5" y="-243.5" font-family="Helvetica,sans-Serif" font-size="10.00">src/Common/SensorDataPipe.h</text>
</a>
</g>
</g>
<!-- Node1&#45;&gt;Node25 -->
<g id="edge26_Node000001_Node000025" class="edge">
<title>Node1&#45;&gt;Node25</title>
<g id="a_edge26_Node000001_Node000025"><a xlink:title=" ">
<path fill="none" stroke="#63b8ff" d="M504.63,-298.89C564.85,-286.96 655.9,-268.91 713.24,-257.55"/>
<polygon fill="#63b8ff" stroke="#63b8ff" points="714.06,-260.96 723.18,-255.58 712.69,-254.09 714.06,-260.96"/>
</a>
</g>
</g>
<!-- Node27 -->
<g id="Node000027" class="node">
<title>Node27</title>
<g id="a_Node000027"><a xlink:href="Thread_8h.html" target="_top" xlink:title="Lightweight Synchronization Primitives Wrapper.">
<polygon fill="white" stroke="#666666" points="937.5,-189.5 813.5,-189.5 813.5,-170.5 937.5,-170.5 937.5,-189.5"/>
<text text-anchor="middle" x="875.5" y="-177.5" font-family="Helvetica,sans-Serif" font-size="10.00">src/Common/Thread.h</text>
</a>
</g>
</g>
<!-- Node1&#45;&gt;Node27 -->
<g id="edge37_Node000001_Node000027" class="edge">
<title>Node1&#45;&gt;Node27</title>
<g id="a_edge37_Node000001_Node000027"><a xlink:title=" ">
<path fill="none" stroke="#63b8ff" d="M504.55,-307.58C613.84,-300.9 833.94,-284.65 859.5,-261 876.2,-245.55 878.24,-217.98 877.45,-199.59"/>
<polygon fill="#63b8ff" stroke="#63b8ff" points="880.93,-199.23 876.69,-189.52 873.95,-199.76 880.93,-199.23"/>
</a>
</g>
</g>
<!-- Node31 -->
<g id="Node000031" class="node">
<title>Node31</title>
<g id="a_Node000031"><a xlink:href="DatabaseInitializer_8h.html" target="_top" xlink:title="Database configuration initialization interface.">
<polygon fill="white" stroke="#666666" points="1027.5,-261 905.5,-261 905.5,-231 1027.5,-231 1027.5,-261"/>
<text text-anchor="start" x="913.5" y="-249" font-family="Helvetica,sans-Serif" font-size="10.00">src/DatabaseSystems</text>
<text text-anchor="middle" x="966.5" y="-238" font-family="Helvetica,sans-Serif" font-size="10.00">/DatabaseInitializer.h</text>
</a>
</g>
</g>
<!-- Node1&#45;&gt;Node31 -->
<g id="edge38_Node000001_Node000031" class="edge">
<title>Node1&#45;&gt;Node31</title>
<g id="a_edge38_Node000001_Node000031"><a xlink:title=" ">
<path fill="none" stroke="#63b8ff" d="M504.55,-305.62C590.95,-297.68 753.72,-281.52 891.5,-261 892.75,-260.81 894.02,-260.62 895.29,-260.42"/>
<polygon fill="#63b8ff" stroke="#63b8ff" points="895.85,-263.88 905.17,-258.83 894.74,-256.97 895.85,-263.88"/>
</a>
</g>
</g>
<!-- Node32 -->
<g id="Node000032" class="node">
<title>Node32</title>
<g id="a_Node000032"><a xlink:href="cJSON_8h.html" target="_top" xlink:title=" ">
<polygon fill="white" stroke="#666666" points="1121,-189.5 994,-189.5 994,-170.5 1121,-170.5 1121,-189.5"/>
<text text-anchor="middle" x="1057.5" y="-177.5" font-family="Helvetica,sans-Serif" font-size="10.00">src/Libs/cJSON/cJSON.h</text>
</a>
</g>
</g>
<!-- Node1&#45;&gt;Node32 -->
<g id="edge42_Node000001_Node000032" class="edge">
<title>Node1&#45;&gt;Node32</title>
<g id="a_edge42_Node000001_Node000032"><a xlink:title=" ">
<path fill="none" stroke="#63b8ff" d="M504.6,-309.78C647.86,-306.38 996.42,-294.7 1036.5,-261 1054.16,-246.15 1057.92,-218.43 1058.28,-199.85"/>
<polygon fill="#63b8ff" stroke="#63b8ff" points="1061.78,-199.61 1058.15,-189.65 1054.78,-199.69 1061.78,-199.61"/>
</a>
</g>
</g>
<!-- Node34 -->
<g id="Node000034" class="node">
<title>Node34</title>
<g id="a_Node000034"><a xlink:href="TestConstants_8h.html" target="_top" xlink:title="Constants for Modbus Test Server.">
<polygon fill="white" stroke="#666666" points="627.5,-255.5 471.5,-255.5 471.5,-236.5 627.5,-236.5 627.5,-255.5"/>
<text text-anchor="middle" x="549.5" y="-243.5" font-family="Helvetica,sans-Serif" font-size="10.00">src/DevUtils/TestConstants.h</text>
</a>
</g>
</g>
<!-- Node1&#45;&gt;Node34 -->
<g id="edge43_Node000001_Node000034" class="edge">
<title>Node1&#45;&gt;Node34</title>
<g id="a_edge43_Node000001_Node000034"><a xlink:title=" ">
<path fill="none" stroke="#63b8ff" d="M466.76,-296.95C484.61,-286.18 509.12,-271.38 526.83,-260.69"/>
<polygon fill="#63b8ff" stroke="#63b8ff" points="528.64,-263.68 535.39,-255.52 525.02,-257.69 528.64,-263.68"/>
</a>
</g>
</g>
<!-- Node8&#45;&gt;Node4 -->
<g id="edge18_Node000008_Node000004" class="edge">
<title>Node8&#45;&gt;Node4</title>
<g id="a_edge18_Node000008_Node000004"><a xlink:title=" ">
<path fill="none" stroke="#63b8ff" d="M754.76,-63.02C666.8,-61.29 406.51,-53.52 182.14,-19.01"/>
<polygon fill="#63b8ff" stroke="#63b8ff" points="182.58,-15.54 172.16,-17.45 181.5,-22.45 182.58,-15.54"/>
</a>
</g>
</g>
<!-- Node8&#45;&gt;Node5 -->
<g id="edge19_Node000008_Node000005" class="edge">
<title>Node8&#45;&gt;Node5</title>
<g id="a_edge19_Node000008_Node000005"><a xlink:title=" ">
<path fill="none" stroke="#63b8ff" d="M754.89,-62.61C674.21,-59.91 449.01,-50.11 253.06,-19.02"/>
<polygon fill="#63b8ff" stroke="#63b8ff" points="253.6,-15.56 243.17,-17.43 252.48,-22.47 253.6,-15.56"/>
</a>
</g>
</g>
<!-- Node9 -->
<g id="Node000009" class="node">
<title>Node9</title>
<g id="a_Node000009"><a xlink:title=" ">
<polygon fill="#e0e0e0" stroke="#999999" points="997.5,-19 941.5,-19 941.5,0 997.5,0 997.5,-19"/>
<text text-anchor="middle" x="969.5" y="-7" font-family="Helvetica,sans-Serif" font-size="10.00">assert.h</text>
</a>
</g>
</g>
<!-- Node8&#45;&gt;Node9 -->
<g id="edge8_Node000008_Node000009" class="edge">
<title>Node8&#45;&gt;Node9</title>
<g id="a_edge8_Node000008_Node000009"><a xlink:title=" ">
<path fill="none" stroke="#63b8ff" d="M815.06,-54.98C846.68,-45.88 896.94,-31.4 931.48,-21.45"/>
<polygon fill="#63b8ff" stroke="#63b8ff" points="932.58,-24.78 941.22,-18.65 930.64,-18.05 932.58,-24.78"/>
</a>
</g>
</g>
<!-- Node10 -->
<g id="Node000010" class="node">
<title>Node10</title>
<g id="a_Node000010"><a xlink:title=" ">
<polygon fill="#e0e0e0" stroke="#999999" points="1069,-19 1016,-19 1016,0 1069,0 1069,-19"/>
<text text-anchor="middle" x="1042.5" y="-7" font-family="Helvetica,sans-Serif" font-size="10.00">ctype.h</text>
</a>
</g>
</g>
<!-- Node8&#45;&gt;Node10 -->
<g id="edge9_Node000008_Node000010" class="edge">
<title>Node8&#45;&gt;Node10</title>
<g id="a_edge9_Node000008_Node000010"><a xlink:title=" ">
<path fill="none" stroke="#63b8ff" d="M816.31,-57.63C857.25,-49.76 932.04,-35.13 1005.85,-19.08"/>
<polygon fill="#63b8ff" stroke="#63b8ff" points="1006.76,-22.46 1015.79,-16.91 1005.27,-15.63 1006.76,-22.46"/>
</a>
</g>
</g>
<!-- Node11 -->
<g id="Node000011" class="node">
<title>Node11</title>
<g id="a_Node000011"><a xlink:title=" ">
<polygon fill="#e0e0e0" stroke="#999999" points="1138,-19 1087,-19 1087,0 1138,0 1138,-19"/>
<text text-anchor="middle" x="1112.5" y="-7" font-family="Helvetica,sans-Serif" font-size="10.00">errno.h</text>
</a>
</g>
</g>
<!-- Node8&#45;&gt;Node11 -->
<g id="edge10_Node000008_Node000011" class="edge">
<title>Node8&#45;&gt;Node11</title>
<g id="a_edge10_Node000008_Node000011"><a xlink:title=" ">
<path fill="none" stroke="#63b8ff" d="M816.03,-59.83C867.77,-53.39 976.13,-39.03 1076.9,-19.17"/>
<polygon fill="#63b8ff" stroke="#63b8ff" points="1077.82,-22.55 1086.94,-17.16 1076.45,-15.69 1077.82,-22.55"/>
</a>
</g>
</g>
<!-- Node12 -->
<g id="Node000012" class="node">
<title>Node12</title>
<g id="a_Node000012"><a xlink:title=" ">
<polygon fill="#e0e0e0" stroke="#999999" points="1203,-19 1156,-19 1156,0 1203,0 1203,-19"/>
<text text-anchor="middle" x="1179.5" y="-7" font-family="Helvetica,sans-Serif" font-size="10.00">fcntl.h</text>
</a>
</g>
</g>
<!-- Node8&#45;&gt;Node12 -->
<g id="edge11_Node000008_Node000012" class="edge">
<title>Node8&#45;&gt;Node12</title>
<g id="a_edge11_Node000008_Node000012"><a xlink:title=" ">
<path fill="none" stroke="#63b8ff" d="M816.23,-61.16C877.34,-56.19 1018.55,-43.18 1145.9,-19.08"/>
<polygon fill="#63b8ff" stroke="#63b8ff" points="1146.66,-22.5 1155.82,-17.18 1145.34,-15.63 1146.66,-22.5"/>
</a>
</g>
</g>
<!-- Node13 -->
<g id="Node000013" class="node">
<title>Node13</title>
<g id="a_Node000013"><a xlink:title=" ">
<polygon fill="#e0e0e0" stroke="#999999" points="308,-19 261,-19 261,0 308,0 308,-19"/>
<text text-anchor="middle" x="284.5" y="-7" font-family="Helvetica,sans-Serif" font-size="10.00">float.h</text>
</a>
</g>
</g>
<!-- Node8&#45;&gt;Node13 -->
<g id="edge12_Node000008_Node000013" class="edge">
<title>Node8&#45;&gt;Node13</title>
<g id="a_edge12_Node000008_Node000013"><a xlink:title=" ">
<path fill="none" stroke="#63b8ff" d="M754.81,-62.34C681,-59.18 487.69,-48.7 318.02,-19"/>
<polygon fill="#63b8ff" stroke="#63b8ff" points="318.63,-15.56 308.17,-17.25 317.4,-22.45 318.63,-15.56"/>
</a>
</g>
</g>
<!-- Node14 -->
<g id="Node000014" class="node">
<title>Node14</title>
<g id="a_Node000014"><a xlink:title=" ">
<polygon fill="#e0e0e0" stroke="#999999" points="377,-19 326,-19 326,0 377,0 377,-19"/>
<text text-anchor="middle" x="351.5" y="-7" font-family="Helvetica,sans-Serif" font-size="10.00">math.h</text>
</a>
</g>
</g>
<!-- Node8&#45;&gt;Node14 -->
<g id="edge13_Node000008_Node000014" class="edge">
<title>Node8&#45;&gt;Node14</title>
<g id="a_edge13_Node000008_Node000014"><a xlink:title=" ">
<path fill="none" stroke="#63b8ff" d="M754.78,-61.41C689.17,-56.67 530.42,-43.67 387.31,-18.9"/>
<polygon fill="#63b8ff" stroke="#63b8ff" points="387.49,-15.38 377.04,-17.1 386.28,-22.27 387.49,-15.38"/>
</a>
</g>
</g>
<!-- Node15 -->
<g id="Node000015" class="node">
<title>Node15</title>
<g id="a_Node000015"><a xlink:title=" ">
<polygon fill="#e0e0e0" stroke="#999999" points="1351,-19 1288,-19 1288,0 1351,0 1351,-19"/>
<text text-anchor="middle" x="1319.5" y="-7" font-family="Helvetica,sans-Serif" font-size="10.00">pthread.h</text>
</a>
</g>
</g>
<!-- Node8&#45;&gt;Node15 -->
<g id="edge14_Node000008_Node000015" class="edge">
<title>Node8&#45;&gt;Node15</title>
<g id="a_edge14_Node000008_Node000015"><a xlink:title=" ">
<path fill="none" stroke="#63b8ff" d="M816.22,-61.95C892.55,-57.84 1097.09,-45.25 1277.83,-18.92"/>
<polygon fill="#63b8ff" stroke="#63b8ff" points="1278.4,-22.37 1287.78,-17.45 1277.38,-15.45 1278.4,-22.37"/>
</a>
</g>
</g>
<!-- Node16 -->
<g id="Node000016" class="node">
<title>Node16</title>
<g id="a_Node000016"><a xlink:title=" ">
<polygon fill="#e0e0e0" stroke="#999999" points="451.5,-19 395.5,-19 395.5,0 451.5,0 451.5,-19"/>
<text text-anchor="middle" x="423.5" y="-7" font-family="Helvetica,sans-Serif" font-size="10.00">stdarg.h</text>
</a>
</g>
</g>
<!-- Node8&#45;&gt;Node16 -->
<g id="edge15_Node000008_Node000016" class="edge">
<title>Node8&#45;&gt;Node16</title>
<g id="a_edge15_Node000008_Node000016"><a xlink:title=" ">
<path fill="none" stroke="#63b8ff" d="M754.89,-60.24C698.73,-54.05 575.31,-39.53 461.64,-19.06"/>
<polygon fill="#63b8ff" stroke="#63b8ff" points="462.19,-15.61 451.73,-17.26 460.94,-22.49 462.19,-15.61"/>
</a>
</g>
</g>
<!-- Node17 -->
<g id="Node000017" class="node">
<title>Node17</title>
<g id="a_Node000017"><a xlink:title=" ">
<polygon fill="#e0e0e0" stroke="#999999" points="523,-19 470,-19 470,0 523,0 523,-19"/>
<text text-anchor="middle" x="496.5" y="-7" font-family="Helvetica,sans-Serif" font-size="10.00">stdint.h</text>
</a>
</g>
</g>
<!-- Node8&#45;&gt;Node17 -->
<g id="edge16_Node000008_Node000017" class="edge">
<title>Node8&#45;&gt;Node17</title>
<g id="a_edge16_Node000008_Node000017"><a xlink:title=" ">
<path fill="none" stroke="#63b8ff" d="M754.62,-58.66C708.63,-51.32 619.18,-36.56 533.13,-19.02"/>
<polygon fill="#63b8ff" stroke="#63b8ff" points="533.7,-15.57 523.2,-16.98 532.29,-22.42 533.7,-15.57"/>
</a>
</g>
</g>
<!-- Node18 -->
<g id="Node000018" class="node">
<title>Node18</title>
<g id="a_Node000018"><a xlink:title=" ">
<polygon fill="#e0e0e0" stroke="#999999" points="591.5,-19 541.5,-19 541.5,0 591.5,0 591.5,-19"/>
<text text-anchor="middle" x="566.5" y="-7" font-family="Helvetica,sans-Serif" font-size="10.00">stdio.h</text>
</a>
</g>
</g>
<!-- Node8&#45;&gt;Node18 -->
<g id="edge17_Node000008_Node000018" class="edge">
<title>Node8&#45;&gt;Node18</title>
<g id="a_edge17_Node000008_Node000018"><a xlink:title=" ">
<path fill="none" stroke="#63b8ff" d="M754.71,-56.18C719.91,-47.89 661.32,-33.88 601.71,-19.28"/>
<polygon fill="#63b8ff" stroke="#63b8ff" points="602.29,-15.82 591.74,-16.84 600.62,-22.62 602.29,-15.82"/>
</a>
</g>
</g>
<!-- Node19 -->
<g id="Node000019" class="node">
<title>Node19</title>
<g id="a_Node000019"><a xlink:title=" ">
<polygon fill="#e0e0e0" stroke="#999999" points="687,-19 610,-19 610,0 687,0 687,-19"/>
<text text-anchor="middle" x="648.5" y="-7" font-family="Helvetica,sans-Serif" font-size="10.00">sys/mman.h</text>
</a>
</g>
</g>
<!-- Node8&#45;&gt;Node19 -->
<g id="edge20_Node000008_Node000019" class="edge">
<title>Node8&#45;&gt;Node19</title>
<g id="a_edge20_Node000008_Node000019"><a xlink:title=" ">
<path fill="none" stroke="#63b8ff" d="M763.49,-54.98C741.05,-46.3 706.02,-32.75 680.51,-22.88"/>
<polygon fill="#63b8ff" stroke="#63b8ff" points="681.5,-19.51 670.91,-19.17 678.98,-26.04 681.5,-19.51"/>
</a>
</g>
</g>
<!-- Node20 -->
<g id="Node000020" class="node">
<title>Node20</title>
<g id="a_Node000020"><a xlink:title=" ">
<polygon fill="#e0e0e0" stroke="#999999" points="769.5,-19 705.5,-19 705.5,0 769.5,0 769.5,-19"/>
<text text-anchor="middle" x="737.5" y="-7" font-family="Helvetica,sans-Serif" font-size="10.00">sys/stat.h</text>
</a>
</g>
</g>
<!-- Node8&#45;&gt;Node20 -->
<g id="edge21_Node000008_Node000020" class="edge">
<title>Node8&#45;&gt;Node20</title>
<g id="a_edge21_Node000008_Node000020"><a xlink:title=" ">
<path fill="none" stroke="#63b8ff" d="M777.57,-54.75C770.65,-47.11 760.43,-35.82 752.05,-26.56"/>
<polygon fill="#63b8ff" stroke="#63b8ff" points="754.59,-24.15 745.28,-19.09 749.4,-28.85 754.59,-24.15"/>
</a>
</g>
</g>
<!-- Node21 -->
<g id="Node000021" class="node">
<title>Node21</title>
<g id="a_Node000021"><a xlink:title=" ">
<polygon fill="#e0e0e0" stroke="#999999" points="1269.5,-19 1221.5,-19 1221.5,0 1269.5,0 1269.5,-19"/>
<text text-anchor="middle" x="1245.5" y="-7" font-family="Helvetica,sans-Serif" font-size="10.00">time.h</text>
</a>
</g>
</g>
<!-- Node8&#45;&gt;Node21 -->
<g id="edge22_Node000008_Node000021" class="edge">
<title>Node8&#45;&gt;Node21</title>
<g id="a_edge22_Node000008_Node000021"><a xlink:title=" ">
<path fill="none" stroke="#63b8ff" d="M816,-61.88C884.85,-57.89 1057.6,-46.01 1211.34,-18.94"/>
<polygon fill="#63b8ff" stroke="#63b8ff" points="1212.21,-22.34 1221.44,-17.14 1210.98,-15.45 1212.21,-22.34"/>
</a>
</g>
</g>
<!-- Node22 -->
<g id="Node000022" class="node">
<title>Node22</title>
<g id="a_Node000022"><a xlink:title=" ">
<polygon fill="#e0e0e0" stroke="#999999" points="843.5,-19 787.5,-19 787.5,0 843.5,0 843.5,-19"/>
<text text-anchor="middle" x="815.5" y="-7" font-family="Helvetica,sans-Serif" font-size="10.00">unistd.h</text>
</a>
</g>
</g>
<!-- Node8&#45;&gt;Node22 -->
<g id="edge23_Node000008_Node000022" class="edge">
<title>Node8&#45;&gt;Node22</title>
<g id="a_edge23_Node000008_Node000022"><a xlink:title=" ">
<path fill="none" stroke="#63b8ff" d="M790.45,-54.75C794.56,-47.49 800.53,-36.95 805.6,-27.98"/>
<polygon fill="#63b8ff" stroke="#63b8ff" points="808.76,-29.52 810.64,-19.09 802.67,-26.07 808.76,-29.52"/>
</a>
</g>
</g>
<!-- Node23 -->
<g id="Node000023" class="node">
<title>Node23</title>
<g id="a_Node000023"><a xlink:title=" ">
<polygon fill="#e0e0e0" stroke="#999999" points="923.5,-19 861.5,-19 861.5,0 923.5,0 923.5,-19"/>
<text text-anchor="middle" x="892.5" y="-7" font-family="Helvetica,sans-Serif" font-size="10.00">stdbool.h</text>
</a>
</g>
</g>
<!-- Node8&#45;&gt;Node23 -->
<g id="edge24_Node000008_Node000023" class="edge">
<title>Node8&#45;&gt;Node23</title>
<g id="a_edge24_Node000008_Node000023"><a xlink:title=" ">
<path fill="none" stroke="#63b8ff" d="M802.69,-54.98C819.75,-46.54 846.13,-33.47 865.9,-23.68"/>
<polygon fill="#63b8ff" stroke="#63b8ff" points="867.59,-26.75 875,-19.17 864.48,-20.47 867.59,-26.75"/>
</a>
</g>
</g>
<!-- Node25&#45;&gt;Node8 -->
<g id="edge28_Node000025_Node000008" class="edge">
<title>Node25&#45;&gt;Node8</title>
<g id="a_edge28_Node000025_Node000008"><a xlink:title=" ">
<path fill="none" stroke="#63b8ff" d="M767.42,-236.34C770.33,-208.8 779.44,-122.76 783.51,-84.34"/>
<polygon fill="#63b8ff" stroke="#63b8ff" points="787.02,-84.38 784.59,-74.07 780.06,-83.65 787.02,-84.38"/>
</a>
</g>
</g>
<!-- Node26 -->
<g id="Node000026" class="node">
<title>Node26</title>
<g id="a_Node000026"><a xlink:title=" ">
<polygon fill="#e0e0e0" stroke="#999999" points="757.5,-189.5 683.5,-189.5 683.5,-170.5 757.5,-170.5 757.5,-189.5"/>
<text text-anchor="middle" x="720.5" y="-177.5" font-family="Helvetica,sans-Serif" font-size="10.00">stdatomic.h</text>
</a>
</g>
</g>
<!-- Node25&#45;&gt;Node26 -->
<g id="edge27_Node000025_Node000026" class="edge">
<title>Node25&#45;&gt;Node26</title>
<g id="a_edge27_Node000025_Node000026"><a xlink:title=" ">
<path fill="none" stroke="#63b8ff" d="M760.3,-236.37C753.27,-226.59 741.65,-210.42 732.77,-198.08"/>
<polygon fill="#63b8ff" stroke="#63b8ff" points="735.58,-195.98 726.9,-189.91 729.89,-200.07 735.58,-195.98"/>
</a>
</g>
</g>
<!-- Node25&#45;&gt;Node27 -->
<g id="edge29_Node000025_Node000027" class="edge">
<title>Node25&#45;&gt;Node27</title>
<g id="a_edge29_Node000025_Node000027"><a xlink:title=" ">
<path fill="none" stroke="#63b8ff" d="M781.2,-236.37C799.32,-225.73 830.35,-207.51 851.84,-194.89"/>
<polygon fill="#63b8ff" stroke="#63b8ff" points="853.83,-197.78 860.68,-189.7 850.29,-191.74 853.83,-197.78"/>
</a>
</g>
</g>
<!-- Node27&#45;&gt;Node8 -->
<g id="edge32_Node000027_Node000008" class="edge">
<title>Node27&#45;&gt;Node8</title>
<g id="a_edge32_Node000027_Node000008"><a xlink:title=" ">
<path fill="none" stroke="#63b8ff" d="M868.74,-170.47C853.88,-151.74 818.19,-106.72 798.71,-82.16"/>
<polygon fill="#63b8ff" stroke="#63b8ff" points="801.3,-79.79 792.34,-74.13 795.81,-84.14 801.3,-79.79"/>
</a>
</g>
</g>
<!-- Node27&#45;&gt;Node15 -->
<g id="edge30_Node000027_Node000015" class="edge">
<title>Node27&#45;&gt;Node15</title>
<g id="a_edge30_Node000027_Node000015"><a xlink:title=" ">
<path fill="none" stroke="#63b8ff" d="M937.5,-171.98C987.58,-164.96 1059.22,-151.84 1118.5,-129 1155.55,-114.72 1253.74,-52.81 1297.69,-24.6"/>
<polygon fill="#63b8ff" stroke="#63b8ff" points="1299.69,-27.48 1306.21,-19.12 1295.9,-21.59 1299.69,-27.48"/>
</a>
</g>
</g>
<!-- Node28 -->
<g id="Node000028" class="node">
<title>Node28</title>
<g id="a_Node000028"><a xlink:title=" ">
<polygon fill="#e0e0e0" stroke="#999999" points="931.5,-129 851.5,-129 851.5,-110 931.5,-110 931.5,-129"/>
<text text-anchor="middle" x="891.5" y="-117" font-family="Helvetica,sans-Serif" font-size="10.00">semaphore.h</text>
</a>
</g>
</g>
<!-- Node27&#45;&gt;Node28 -->
<g id="edge31_Node000027_Node000028" class="edge">
<title>Node27&#45;&gt;Node28</title>
<g id="a_edge31_Node000027_Node000028"><a xlink:title=" ">
<path fill="none" stroke="#63b8ff" d="M877.86,-170.37C880.11,-162.16 883.56,-149.54 886.43,-139.05"/>
<polygon fill="#63b8ff" stroke="#63b8ff" points="889.87,-139.74 889.13,-129.17 883.12,-137.89 889.87,-139.74"/>
</a>
</g>
</g>
<!-- Node29 -->
<g id="Node000029" class="node">
<title>Node29</title>
<g id="a_Node000029"><a xlink:href="Time_8h.html" target="_top" xlink:title="Lightweight Time Manipulation Utilities.">
<polygon fill="white" stroke="#666666" points="1109,-129 994,-129 994,-110 1109,-110 1109,-129"/>
<text text-anchor="middle" x="1051.5" y="-117" font-family="Helvetica,sans-Serif" font-size="10.00">src/Common/Time.h</text>
</a>
</g>
</g>
<!-- Node27&#45;&gt;Node29 -->
<g id="edge33_Node000027_Node000029" class="edge">
<title>Node27&#45;&gt;Node29</title>
<g id="a_edge33_Node000027_Node000029"><a xlink:title=" ">
<path fill="none" stroke="#63b8ff" d="M901.09,-170.49C931.46,-160.4 982.26,-143.51 1016.32,-132.19"/>
<polygon fill="#63b8ff" stroke="#63b8ff" points="1017.49,-135.49 1025.88,-129.02 1015.28,-128.85 1017.49,-135.49"/>
</a>
</g>
</g>
<!-- Node29&#45;&gt;Node8 -->
<g id="edge36_Node000029_Node000008" class="edge">
<title>Node29&#45;&gt;Node8</title>
<g id="a_edge36_Node000029_Node000008"><a xlink:title=" ">
<path fill="none" stroke="#63b8ff" d="M1008.76,-109.98C958.44,-99.96 875.49,-83.43 826.11,-73.59"/>
<polygon fill="#63b8ff" stroke="#63b8ff" points="826.6,-70.12 816.11,-71.6 825.23,-76.99 826.6,-70.12"/>
</a>
</g>
</g>
<!-- Node29&#45;&gt;Node21 -->
<g id="edge35_Node000029_Node000021" class="edge">
<title>Node29&#45;&gt;Node21</title>
<g id="a_edge35_Node000029_Node000021"><a xlink:title=" ">
<path fill="none" stroke="#63b8ff" d="M1059.96,-109.59C1073.11,-96.17 1099.71,-70.7 1126.5,-55 1153.43,-39.22 1186.94,-27.29 1211.54,-19.77"/>
<polygon fill="#63b8ff" stroke="#63b8ff" points="1212.57,-23.12 1221.16,-16.92 1210.57,-16.41 1212.57,-23.12"/>
</a>
</g>
</g>
<!-- Node30 -->
<g id="Node000030" class="node">
<title>Node30</title>
<g id="a_Node000030"><a xlink:title=" ">
<polygon fill="#e0e0e0" stroke="#999999" points="1074,-74 1021,-74 1021,-55 1074,-55 1074,-74"/>
<text text-anchor="middle" x="1047.5" y="-62" font-family="Helvetica,sans-Serif" font-size="10.00">limits.h</text>
</a>
</g>
</g>
<!-- Node29&#45;&gt;Node30 -->
<g id="edge34_Node000029_Node000030" class="edge">
<title>Node29&#45;&gt;Node30</title>
<g id="a_edge34_Node000029_Node000030"><a xlink:title=" ">
<path fill="none" stroke="#63b8ff" d="M1050.84,-109.75C1050.32,-102.8 1049.56,-92.85 1048.91,-84.13"/>
<polygon fill="#63b8ff" stroke="#63b8ff" points="1052.39,-83.8 1048.15,-74.09 1045.41,-84.32 1052.39,-83.8"/>
</a>
</g>
</g>
<!-- Node31&#45;&gt;Node8 -->
<g id="edge39_Node000031_Node000008" class="edge">
<title>Node31&#45;&gt;Node8</title>
<g id="a_edge39_Node000031_Node000008"><a xlink:title=" ">
<path fill="none" stroke="#63b8ff" d="M968.2,-230.67C970.58,-203.46 971.59,-144 940.5,-110 911.53,-78.31 861.64,-68.62 826.3,-65.94"/>
<polygon fill="#63b8ff" stroke="#63b8ff" points="826.48,-62.45 816.29,-65.34 826.06,-69.44 826.48,-62.45"/>
</a>
</g>
</g>
<!-- Node31&#45;&gt;Node32 -->
<g id="edge40_Node000031_Node000032" class="edge">
<title>Node31&#45;&gt;Node32</title>
<g id="a_edge40_Node000031_Node000032"><a xlink:title=" ">
<path fill="none" stroke="#63b8ff" d="M986.7,-230.8C1001.53,-220.37 1021.61,-206.24 1036.61,-195.69"/>
<polygon fill="#63b8ff" stroke="#63b8ff" points="1039.02,-198.27 1045.19,-189.66 1035,-192.55 1039.02,-198.27"/>
</a>
</g>
</g>
<!-- Node33 -->
<g id="Node000033" class="node">
<title>Node33</title>
<g id="a_Node000033"><a xlink:title=" ">
<polygon fill="#e0e0e0" stroke="#999999" points="1224.5,-129 1168.5,-129 1168.5,-110 1224.5,-110 1224.5,-129"/>
<text text-anchor="middle" x="1196.5" y="-117" font-family="Helvetica,sans-Serif" font-size="10.00">stddef.h</text>
</a>
</g>
</g>
<!-- Node32&#45;&gt;Node33 -->
<g id="edge41_Node000032_Node000033" class="edge">
<title>Node32&#45;&gt;Node33</title>
<g id="a_edge41_Node000032_Node000033"><a xlink:title=" ">
<path fill="none" stroke="#63b8ff" d="M1077.71,-170.49C1101.18,-160.62 1140.11,-144.23 1166.96,-132.93"/>
<polygon fill="#63b8ff" stroke="#63b8ff" points="1168.4,-136.12 1176.26,-129.02 1165.69,-129.67 1168.4,-136.12"/>
</a>
</g>
</g>
<!-- Node34&#45;&gt;Node8 -->
<g id="edge44_Node000034_Node000008" class="edge">
<title>Node34&#45;&gt;Node8</title>
<g id="a_edge44_Node000034_Node000008"><a xlink:title=" ">
<path fill="none" stroke="#63b8ff" d="M544.16,-236.46C535.15,-220.87 519.33,-187.33 534.5,-165 581.86,-95.28 686.52,-74.41 744.62,-68.17"/>
<polygon fill="#63b8ff" stroke="#63b8ff" points="745.29,-71.62 754.9,-67.16 744.61,-64.65 745.29,-71.62"/>
</a>
</g>
</g>
<!-- Node34&#45;&gt;Node24 -->
<g id="edge45_Node000034_Node000024" class="edge">
<title>Node34&#45;&gt;Node24</title>
<g id="a_edge45_Node000034_Node000024"><a xlink:title=" ">
<path fill="none" stroke="#63b8ff" d="M556.92,-236.37C564.18,-227.91 575.57,-214.67 585.38,-203.25"/>
<polygon fill="#63b8ff" stroke="#63b8ff" points="588.3,-205.23 592.16,-195.36 582.99,-200.66 588.3,-205.23"/>
</a>
</g>
</g>
</g>
</svg>

<g id="navigator" transform="translate(0 0)" fill="#404254">
  <rect fill="#f2f5e9" fill-opacity="0.5" stroke="#606060" stroke-width=".5" x="0" y="0" width="60" height="60"/>
  <use id="zoomplus" xlink:href="#zoomPlus" x="17" y="9" onmousedown="handleZoom(evt,'in')"/>
  <use id="zoomminus" xlink:href="#zoomMin" x="42" y="9" onmousedown="handleZoom(evt,'out')"/>
  <use id="reset" xlink:href="#resetDef" x="30" y="36" onmousedown="handleReset()"/>
   <use id="arrowup" xlink:href="#arrowUp" x="0" y="0" onmousedown="handlePan(0,-1)"/>
  <use id="arrowright" xlink:href="#arrowRight" x="0" y="0" onmousedown="handlePan(1,0)"/>
  <use id="arrowdown" xlink:href="#arrowDown" x="0" y="0" onmousedown="handlePan(0,1)"/>
  <use id="arrowleft" xlink:href="#arrowLeft" x="0" y="0" onmousedown="handlePan(-1,0)"/>
</g>
<svg viewBox="0 0 15 15" width="100%" height="30px" preserveAspectRatio="xMaxYMin meet">
 <g id="arrow_out" transform="scale(0.3 0.3)">
  <a xlink:href="DatabaseSystems_2Postgres_8c__incl_org.svg" target="_base">
   <rect id="button" ry="5" rx="5" y="6" x="6" height="38" width="38"
        fill="#f2f5e9" fill-opacity="0.5" stroke="#606060" stroke-width="1.0"/>
   <path id="arrow"
     d="M 11.500037,31.436501 C 11.940474,20.09759 22.043105,11.32322 32.158766,21.979434 L 37.068811,17.246167 C 37.068811,17.246167 37.088388,32 37.088388,32 L 22.160133,31.978069 C 22.160133,31.978069 26.997745,27.140456 26.997745,27.140456 C 18.528582,18.264221 13.291696,25.230495 11.500037,31.436501 z"
     style="fill:#404040;"/>
  </a>
 </g>
</svg>

<style type='text/css'>
<![CDATA[
[data-mouse-over-selected='false'] { opacity: 0.7; }
[data-mouse-over-selected='true']  { opacity: 1.0; }
]]>
</style>
<script type="application/ecmascript"><![CDATA[
document.addEventListener('DOMContentLoaded', (event) => {
  highlightEdges();
  highlightAdjacentNodes();
});
]]></script>
</svg>
