<?xml version="1.0" encoding="UTF-8" standalone="no"?>
<!DOCTYPE svg PUBLIC "-//W3C//DTD SVG 1.1//EN"
 "http://www.w3.org/Graphics/SVG/1.1/DTD/svg11.dtd">
<!-- Generated by graphviz version 2.43.0 (0)
 -->
<!-- Title: src/DataHandlers/ModbusWithPostgres/Postgres.c Pages: 1 -->
<svg width="1362pt" height="386pt"
 viewBox="0.00 0.00 1362.00 386.00" xmlns="http://www.w3.org/2000/svg" xmlns:xlink="http://www.w3.org/1999/xlink">
<g id="graph0" class="graph" transform="scale(1 1) rotate(0) translate(4 382)">
<title>src/DataHandlers/ModbusWithPostgres/Postgres.c</title>
<polygon fill="white" stroke="transparent" points="-4,4 -4,-382 1358,-382 1358,4 -4,4"/>
<!-- Node1 -->
<g id="node1" class="node">
<title>Node1</title>
<g id="a_node1"><a xlink:title=" ">
<polygon fill="#bfbfbf" stroke="black" points="728,-347.5 728,-377.5 892,-377.5 892,-347.5 728,-347.5"/>
<text text-anchor="start" x="736" y="-365.5" font-family="Helvetica,sans-Serif" font-size="10.00">src/DataHandlers/ModbusWith</text>
<text text-anchor="middle" x="810" y="-354.5" font-family="Helvetica,sans-Serif" font-size="10.00">Postgres/Postgres.c</text>
</a>
</g>
</g>
<!-- Node2 -->
<g id="node2" class="node">
<title>Node2</title>
<g id="a_node2"><a xlink:title=" ">
<polygon fill="white" stroke="#bfbfbf" points="535.5,-224.5 535.5,-243.5 590.5,-243.5 590.5,-224.5 535.5,-224.5"/>
<text text-anchor="middle" x="563" y="-231.5" font-family="Helvetica,sans-Serif" font-size="10.00">signal.h</text>
</a>
</g>
</g>
<!-- Node1&#45;&gt;Node2 -->
<g id="edge1" class="edge">
<title>Node1&#45;&gt;Node2</title>
<path fill="none" stroke="midnightblue" d="M772.89,-347.45C748.87,-337.98 717.12,-324.74 690,-311 651.79,-291.65 609.49,-265.27 584.63,-249.23"/>
<polygon fill="midnightblue" stroke="midnightblue" points="586.29,-246.13 576,-243.62 582.48,-252 586.29,-246.13"/>
</g>
<!-- Node3 -->
<g id="node3" class="node">
<title>Node3</title>
<g id="a_node3"><a xlink:title=" ">
<polygon fill="white" stroke="#bfbfbf" points="1144.5,-286 1144.5,-305 1213.5,-305 1213.5,-286 1144.5,-286"/>
<text text-anchor="middle" x="1179" y="-293" font-family="Helvetica,sans-Serif" font-size="10.00">sys/epoll.h</text>
</a>
</g>
</g>
<!-- Node1&#45;&gt;Node3 -->
<g id="edge2" class="edge">
<title>Node1&#45;&gt;Node3</title>
<path fill="none" stroke="midnightblue" d="M892.2,-352.52C958.35,-344.38 1053.39,-330.65 1135,-311 1138.47,-310.17 1142.05,-309.18 1145.61,-308.13"/>
<polygon fill="midnightblue" stroke="midnightblue" points="1146.96,-311.38 1155.46,-305.05 1144.87,-304.7 1146.96,-311.38"/>
</g>
<!-- Node4 -->
<g id="node4" class="node">
<title>Node4</title>
<g id="a_node4"><a xlink:href="Sdb_8h.html" target="_top" xlink:title=" ">
<polygon fill="white" stroke="black" points="616.5,-56.5 616.5,-75.5 677.5,-75.5 677.5,-56.5 616.5,-56.5"/>
<text text-anchor="middle" x="647" y="-63.5" font-family="Helvetica,sans-Serif" font-size="10.00">src/Sdb.h</text>
</a>
</g>
</g>
<!-- Node1&#45;&gt;Node4 -->
<g id="edge3" class="edge">
<title>Node1&#45;&gt;Node4</title>
<path fill="none" stroke="midnightblue" d="M727.6,-360.91C637.88,-355.39 507,-330.91 507,-235 507,-235 507,-235 507,-177 507,-125.35 566.65,-94.26 608.08,-78.9"/>
<polygon fill="midnightblue" stroke="midnightblue" points="609.4,-82.14 617.65,-75.5 607.06,-75.54 609.4,-82.14"/>
</g>
<!-- Node22 -->
<g id="node22" class="node">
<title>Node22</title>
<g id="a_node22"><a xlink:href="Time_8h.html" target="_top" xlink:title="Lightweight Time Manipulation Utilities.">
<polygon fill="white" stroke="black" points="363.5,-112.5 363.5,-131.5 478.5,-131.5 478.5,-112.5 363.5,-112.5"/>
<text text-anchor="middle" x="421" y="-119.5" font-family="Helvetica,sans-Serif" font-size="10.00">src/Common/Time.h</text>
</a>
</g>
</g>
<!-- Node1&#45;&gt;Node22 -->
<g id="edge21" class="edge">
<title>Node1&#45;&gt;Node22</title>
<path fill="none" stroke="midnightblue" d="M727.72,-357.6C646.05,-352.15 528.11,-339.48 493,-311 439.87,-267.9 425.89,-180.79 422.26,-142.18"/>
<polygon fill="midnightblue" stroke="midnightblue" points="425.72,-141.54 421.43,-131.85 418.74,-142.1 425.72,-141.54"/>
</g>
<!-- Node24 -->
<g id="node24" class="node">
<title>Node24</title>
<g id="a_node24"><a xlink:href="ModbusWithPostgres_8h.html" target="_top" xlink:title="Integration of Modbus and PostgreSQL data handling.">
<polygon fill="white" stroke="black" points="812.5,-280.5 812.5,-310.5 985.5,-310.5 985.5,-280.5 812.5,-280.5"/>
<text text-anchor="start" x="820.5" y="-298.5" font-family="Helvetica,sans-Serif" font-size="10.00">src/DataHandlers/ModbusWith</text>
<text text-anchor="middle" x="899" y="-287.5" font-family="Helvetica,sans-Serif" font-size="10.00">Postgres/ModbusWithPostgres.h</text>
</a>
</g>
</g>
<!-- Node1&#45;&gt;Node24 -->
<g id="edge25" class="edge">
<title>Node1&#45;&gt;Node24</title>
<path fill="none" stroke="midnightblue" d="M829.31,-347.4C841.67,-338.37 857.9,-326.51 871.59,-316.52"/>
<polygon fill="midnightblue" stroke="midnightblue" points="873.71,-319.3 879.73,-310.58 869.59,-313.65 873.71,-319.3"/>
</g>
<!-- Node32 -->
<g id="node32" class="node">
<title>Node32</title>
<g id="a_node32"><a xlink:href="DatabaseInitializer_8h.html" target="_top" xlink:title="Database configuration initialization interface.">
<polygon fill="white" stroke="black" points="1004,-280.5 1004,-310.5 1126,-310.5 1126,-280.5 1004,-280.5"/>
<text text-anchor="start" x="1012" y="-298.5" font-family="Helvetica,sans-Serif" font-size="10.00">src/DatabaseSystems</text>
<text text-anchor="middle" x="1065" y="-287.5" font-family="Helvetica,sans-Serif" font-size="10.00">/DatabaseInitializer.h</text>
</a>
</g>
</g>
<!-- Node1&#45;&gt;Node32 -->
<g id="edge42" class="edge">
<title>Node1&#45;&gt;Node32</title>
<path fill="none" stroke="midnightblue" d="M865.02,-347.48C904.6,-337.39 958.13,-323.74 999.85,-313.11"/>
<polygon fill="midnightblue" stroke="midnightblue" points="1000.82,-316.47 1009.64,-310.61 999.09,-309.69 1000.82,-316.47"/>
</g>
<!-- Node33 -->
<g id="node33" class="node">
<title>Node33</title>
<g id="a_node33"><a xlink:title=" ">
<polygon fill="white" stroke="#bfbfbf" points="1232,-280.5 1232,-310.5 1354,-310.5 1354,-280.5 1232,-280.5"/>
<text text-anchor="start" x="1240" y="-298.5" font-family="Helvetica,sans-Serif" font-size="10.00">src/DatabaseSystems</text>
<text text-anchor="middle" x="1293" y="-287.5" font-family="Helvetica,sans-Serif" font-size="10.00">/Postgres.h</text>
</a>
</g>
</g>
<!-- Node1&#45;&gt;Node33 -->
<g id="edge45" class="edge">
<title>Node1&#45;&gt;Node33</title>
<path fill="none" stroke="midnightblue" d="M892.17,-353.47C973.44,-345.07 1101.54,-330.6 1221.85,-311.11"/>
<polygon fill="midnightblue" stroke="midnightblue" points="1222.67,-314.52 1231.97,-309.45 1221.54,-307.61 1222.67,-314.52"/>
</g>
<!-- Node34 -->
<g id="node34" class="node">
<title>Node34</title>
<g id="a_node34"><a xlink:href="Signals_8h.html" target="_top" xlink:title="Signal handling interface for the Sensor Data Handler System.">
<polygon fill="white" stroke="black" points="699,-286 699,-305 777,-305 777,-286 699,-286"/>
<text text-anchor="middle" x="738" y="-293" font-family="Helvetica,sans-Serif" font-size="10.00">src/Signals.h</text>
</a>
</g>
</g>
<!-- Node1&#45;&gt;Node34 -->
<g id="edge46" class="edge">
<title>Node1&#45;&gt;Node34</title>
<path fill="none" stroke="midnightblue" d="M794.38,-347.4C782.82,-336.96 767.08,-322.75 755.17,-312"/>
<polygon fill="midnightblue" stroke="midnightblue" points="757.4,-309.3 747.63,-305.19 752.71,-314.49 757.4,-309.3"/>
</g>
<!-- Node5 -->
<g id="node5" class="node">
<title>Node5</title>
<g id="a_node5"><a xlink:title=" ">
<polygon fill="white" stroke="#bfbfbf" points="943,-0.5 943,-19.5 999,-19.5 999,-0.5 943,-0.5"/>
<text text-anchor="middle" x="971" y="-7.5" font-family="Helvetica,sans-Serif" font-size="10.00">assert.h</text>
</a>
</g>
</g>
<!-- Node4&#45;&gt;Node5 -->
<g id="edge4" class="edge">
<title>Node4&#45;&gt;Node5</title>
<path fill="none" stroke="midnightblue" d="M677.73,-61.04C728.72,-54.27 834.18,-39.51 932.93,-20.08"/>
<polygon fill="midnightblue" stroke="midnightblue" points="933.65,-23.5 942.77,-18.12 932.28,-16.64 933.65,-23.5"/>
</g>
<!-- Node6 -->
<g id="node6" class="node">
<title>Node6</title>
<g id="a_node6"><a xlink:title=" ">
<polygon fill="white" stroke="#bfbfbf" points="1017.5,-0.5 1017.5,-19.5 1070.5,-19.5 1070.5,-0.5 1017.5,-0.5"/>
<text text-anchor="middle" x="1044" y="-7.5" font-family="Helvetica,sans-Serif" font-size="10.00">ctype.h</text>
</a>
</g>
</g>
<!-- Node4&#45;&gt;Node6 -->
<g id="edge5" class="edge">
<title>Node4&#45;&gt;Node6</title>
<path fill="none" stroke="midnightblue" d="M677.62,-62.44C738.51,-57.09 879.23,-43.37 1007.36,-19.9"/>
<polygon fill="midnightblue" stroke="midnightblue" points="1008.15,-23.31 1017.34,-18.05 1006.87,-16.43 1008.15,-23.31"/>
</g>
<!-- Node7 -->
<g id="node7" class="node">
<title>Node7</title>
<g id="a_node7"><a xlink:title=" ">
<polygon fill="white" stroke="#bfbfbf" points="66.5,-0.5 66.5,-19.5 117.5,-19.5 117.5,-0.5 66.5,-0.5"/>
<text text-anchor="middle" x="92" y="-7.5" font-family="Helvetica,sans-Serif" font-size="10.00">errno.h</text>
</a>
</g>
</g>
<!-- Node4&#45;&gt;Node7 -->
<g id="edge6" class="edge">
<title>Node4&#45;&gt;Node7</title>
<path fill="none" stroke="midnightblue" d="M616.24,-63.04C522.31,-56.96 239.23,-37.82 127.47,-19.93"/>
<polygon fill="midnightblue" stroke="midnightblue" points="127.96,-16.46 117.52,-18.26 126.8,-23.37 127.96,-16.46"/>
</g>
<!-- Node8 -->
<g id="node8" class="node">
<title>Node8</title>
<g id="a_node8"><a xlink:title=" ">
<polygon fill="white" stroke="#bfbfbf" points="135.5,-0.5 135.5,-19.5 182.5,-19.5 182.5,-0.5 135.5,-0.5"/>
<text text-anchor="middle" x="159" y="-7.5" font-family="Helvetica,sans-Serif" font-size="10.00">fcntl.h</text>
</a>
</g>
</g>
<!-- Node4&#45;&gt;Node8 -->
<g id="edge7" class="edge">
<title>Node4&#45;&gt;Node8</title>
<path fill="none" stroke="midnightblue" d="M616.32,-63.83C544,-60.69 357.18,-50.27 192.94,-20.08"/>
<polygon fill="midnightblue" stroke="midnightblue" points="193.13,-16.55 182.66,-18.15 191.84,-23.43 193.13,-16.55"/>
</g>
<!-- Node9 -->
<g id="node9" class="node">
<title>Node9</title>
<g id="a_node9"><a xlink:title=" ">
<polygon fill="white" stroke="#bfbfbf" points="200.5,-0.5 200.5,-19.5 247.5,-19.5 247.5,-0.5 200.5,-0.5"/>
<text text-anchor="middle" x="224" y="-7.5" font-family="Helvetica,sans-Serif" font-size="10.00">float.h</text>
</a>
</g>
</g>
<!-- Node4&#45;&gt;Node9 -->
<g id="edge8" class="edge">
<title>Node4&#45;&gt;Node9</title>
<path fill="none" stroke="midnightblue" d="M616.33,-63.14C551.6,-58.86 396.25,-46.72 257.62,-20.05"/>
<polygon fill="midnightblue" stroke="midnightblue" points="258.15,-16.59 247.66,-18.11 256.81,-23.46 258.15,-16.59"/>
</g>
<!-- Node10 -->
<g id="node10" class="node">
<title>Node10</title>
<g id="a_node10"><a xlink:title=" ">
<polygon fill="white" stroke="#bfbfbf" points="265.5,-0.5 265.5,-19.5 316.5,-19.5 316.5,-0.5 265.5,-0.5"/>
<text text-anchor="middle" x="291" y="-7.5" font-family="Helvetica,sans-Serif" font-size="10.00">math.h</text>
</a>
</g>
</g>
<!-- Node4&#45;&gt;Node10 -->
<g id="edge9" class="edge">
<title>Node4&#45;&gt;Node10</title>
<path fill="none" stroke="midnightblue" d="M616.27,-61.86C560.52,-55.9 438.86,-41.76 326.35,-19.86"/>
<polygon fill="midnightblue" stroke="midnightblue" points="327.03,-16.42 316.54,-17.92 325.67,-23.29 327.03,-16.42"/>
</g>
<!-- Node11 -->
<g id="node11" class="node">
<title>Node11</title>
<g id="a_node11"><a xlink:title=" ">
<polygon fill="white" stroke="#bfbfbf" points="1169.5,-0.5 1169.5,-19.5 1232.5,-19.5 1232.5,-0.5 1169.5,-0.5"/>
<text text-anchor="middle" x="1201" y="-7.5" font-family="Helvetica,sans-Serif" font-size="10.00">pthread.h</text>
</a>
</g>
</g>
<!-- Node4&#45;&gt;Node11 -->
<g id="edge10" class="edge">
<title>Node4&#45;&gt;Node11</title>
<path fill="none" stroke="midnightblue" d="M677.52,-63.69C755.84,-60.05 970.44,-48.24 1159.19,-19.92"/>
<polygon fill="midnightblue" stroke="midnightblue" points="1159.93,-23.35 1169.29,-18.38 1158.88,-16.43 1159.93,-23.35"/>
</g>
<!-- Node12 -->
<g id="node12" class="node">
<title>Node12</title>
<g id="a_node12"><a xlink:title=" ">
<polygon fill="white" stroke="#bfbfbf" points="335,-0.5 335,-19.5 391,-19.5 391,-0.5 335,-0.5"/>
<text text-anchor="middle" x="363" y="-7.5" font-family="Helvetica,sans-Serif" font-size="10.00">stdarg.h</text>
</a>
</g>
</g>
<!-- Node4&#45;&gt;Node12 -->
<g id="edge11" class="edge">
<title>Node4&#45;&gt;Node12</title>
<path fill="none" stroke="midnightblue" d="M616.47,-60.03C571.48,-52.57 484.55,-37.68 401.13,-20.14"/>
<polygon fill="midnightblue" stroke="midnightblue" points="401.75,-16.7 391.24,-18.05 400.3,-23.55 401.75,-16.7"/>
</g>
<!-- Node13 -->
<g id="node13" class="node">
<title>Node13</title>
<g id="a_node13"><a xlink:title=" ">
<polygon fill="white" stroke="#bfbfbf" points="409.5,-0.5 409.5,-19.5 462.5,-19.5 462.5,-0.5 409.5,-0.5"/>
<text text-anchor="middle" x="436" y="-7.5" font-family="Helvetica,sans-Serif" font-size="10.00">stdint.h</text>
</a>
</g>
</g>
<!-- Node4&#45;&gt;Node13 -->
<g id="edge12" class="edge">
<title>Node4&#45;&gt;Node13</title>
<path fill="none" stroke="midnightblue" d="M616.32,-57.15C578.18,-47.39 513.15,-30.74 472.49,-20.34"/>
<polygon fill="midnightblue" stroke="midnightblue" points="473.26,-16.92 462.71,-17.84 471.53,-23.71 473.26,-16.92"/>
</g>
<!-- Node14 -->
<g id="node14" class="node">
<title>Node14</title>
<g id="a_node14"><a xlink:title=" ">
<polygon fill="white" stroke="#bfbfbf" points="481,-0.5 481,-19.5 531,-19.5 531,-0.5 481,-0.5"/>
<text text-anchor="middle" x="506" y="-7.5" font-family="Helvetica,sans-Serif" font-size="10.00">stdio.h</text>
</a>
</g>
</g>
<!-- Node4&#45;&gt;Node14 -->
<g id="edge13" class="edge">
<title>Node4&#45;&gt;Node14</title>
<path fill="none" stroke="midnightblue" d="M624.66,-56.44C601.25,-47.48 564.26,-33.31 537.81,-23.18"/>
<polygon fill="midnightblue" stroke="midnightblue" points="538.83,-19.82 528.24,-19.52 536.32,-26.36 538.83,-19.82"/>
</g>
<!-- Node15 -->
<g id="node15" class="node">
<title>Node15</title>
<g id="a_node15"><a xlink:title=" ">
<polygon fill="white" stroke="#bfbfbf" points="549.5,-0.5 549.5,-19.5 602.5,-19.5 602.5,-0.5 549.5,-0.5"/>
<text text-anchor="middle" x="576" y="-7.5" font-family="Helvetica,sans-Serif" font-size="10.00">stdlib.h</text>
</a>
</g>
</g>
<!-- Node4&#45;&gt;Node15 -->
<g id="edge14" class="edge">
<title>Node4&#45;&gt;Node15</title>
<path fill="none" stroke="midnightblue" d="M635.59,-56.32C624.89,-48.18 608.66,-35.84 595.84,-26.09"/>
<polygon fill="midnightblue" stroke="midnightblue" points="597.69,-23.1 587.61,-19.83 593.46,-28.67 597.69,-23.1"/>
</g>
<!-- Node16 -->
<g id="node16" class="node">
<title>Node16</title>
<g id="a_node16"><a xlink:title=" ">
<polygon fill="white" stroke="#bfbfbf" points="620.5,-0.5 620.5,-19.5 673.5,-19.5 673.5,-0.5 620.5,-0.5"/>
<text text-anchor="middle" x="647" y="-7.5" font-family="Helvetica,sans-Serif" font-size="10.00">string.h</text>
</a>
</g>
</g>
<!-- Node4&#45;&gt;Node16 -->
<g id="edge15" class="edge">
<title>Node4&#45;&gt;Node16</title>
<path fill="none" stroke="midnightblue" d="M647,-56.08C647,-49.01 647,-38.86 647,-29.99"/>
<polygon fill="midnightblue" stroke="midnightblue" points="650.5,-29.75 647,-19.75 643.5,-29.75 650.5,-29.75"/>
</g>
<!-- Node17 -->
<g id="node17" class="node">
<title>Node17</title>
<g id="a_node17"><a xlink:title=" ">
<polygon fill="white" stroke="#bfbfbf" points="691.5,-0.5 691.5,-19.5 768.5,-19.5 768.5,-0.5 691.5,-0.5"/>
<text text-anchor="middle" x="730" y="-7.5" font-family="Helvetica,sans-Serif" font-size="10.00">sys/mman.h</text>
</a>
</g>
</g>
<!-- Node4&#45;&gt;Node17 -->
<g id="edge16" class="edge">
<title>Node4&#45;&gt;Node17</title>
<path fill="none" stroke="midnightblue" d="M660.34,-56.32C673.16,-47.98 692.78,-35.21 707.94,-25.35"/>
<polygon fill="midnightblue" stroke="midnightblue" points="710.22,-28.04 716.7,-19.65 706.41,-22.17 710.22,-28.04"/>
</g>
<!-- Node18 -->
<g id="node18" class="node">
<title>Node18</title>
<g id="a_node18"><a xlink:title=" ">
<polygon fill="white" stroke="#bfbfbf" points="787,-0.5 787,-19.5 851,-19.5 851,-0.5 787,-0.5"/>
<text text-anchor="middle" x="819" y="-7.5" font-family="Helvetica,sans-Serif" font-size="10.00">sys/stat.h</text>
</a>
</g>
</g>
<!-- Node4&#45;&gt;Node18 -->
<g id="edge17" class="edge">
<title>Node4&#45;&gt;Node18</title>
<path fill="none" stroke="midnightblue" d="M674.25,-56.44C703.44,-47.28 749.92,-32.69 782.31,-22.52"/>
<polygon fill="midnightblue" stroke="midnightblue" points="783.38,-25.85 791.87,-19.52 781.28,-19.17 783.38,-25.85"/>
</g>
<!-- Node19 -->
<g id="node19" class="node">
<title>Node19</title>
<g id="a_node19"><a xlink:title=" ">
<polygon fill="white" stroke="#bfbfbf" points="0,-0.5 0,-19.5 48,-19.5 48,-0.5 0,-0.5"/>
<text text-anchor="middle" x="24" y="-7.5" font-family="Helvetica,sans-Serif" font-size="10.00">time.h</text>
</a>
</g>
</g>
<!-- Node4&#45;&gt;Node19 -->
<g id="edge18" class="edge">
<title>Node4&#45;&gt;Node19</title>
<path fill="none" stroke="midnightblue" d="M616.3,-63.43C514.07,-58.09 185.01,-39.93 58.23,-19.82"/>
<polygon fill="midnightblue" stroke="midnightblue" points="58.47,-16.31 48.03,-18.12 57.32,-23.22 58.47,-16.31"/>
</g>
<!-- Node20 -->
<g id="node20" class="node">
<title>Node20</title>
<g id="a_node20"><a xlink:title=" ">
<polygon fill="white" stroke="#bfbfbf" points="869,-0.5 869,-19.5 925,-19.5 925,-0.5 869,-0.5"/>
<text text-anchor="middle" x="897" y="-7.5" font-family="Helvetica,sans-Serif" font-size="10.00">unistd.h</text>
</a>
</g>
</g>
<!-- Node4&#45;&gt;Node20 -->
<g id="edge19" class="edge">
<title>Node4&#45;&gt;Node20</title>
<path fill="none" stroke="midnightblue" d="M677.75,-58.81C717.35,-50.77 788.55,-36.09 858.83,-20.22"/>
<polygon fill="midnightblue" stroke="midnightblue" points="859.76,-23.59 868.74,-17.97 858.21,-16.77 859.76,-23.59"/>
</g>
<!-- Node21 -->
<g id="node21" class="node">
<title>Node21</title>
<g id="a_node21"><a xlink:title=" ">
<polygon fill="white" stroke="#bfbfbf" points="1089,-0.5 1089,-19.5 1151,-19.5 1151,-0.5 1089,-0.5"/>
<text text-anchor="middle" x="1120" y="-7.5" font-family="Helvetica,sans-Serif" font-size="10.00">stdbool.h</text>
</a>
</g>
</g>
<!-- Node4&#45;&gt;Node21 -->
<g id="edge20" class="edge">
<title>Node4&#45;&gt;Node21</title>
<path fill="none" stroke="midnightblue" d="M677.61,-63.06C747.13,-58.4 922.34,-45.15 1078.38,-20.09"/>
<polygon fill="midnightblue" stroke="midnightblue" points="1079.32,-23.49 1088.63,-18.43 1078.19,-16.58 1079.32,-23.49"/>
</g>
<!-- Node22&#45;&gt;Node4 -->
<g id="edge24" class="edge">
<title>Node22&#45;&gt;Node4</title>
<path fill="none" stroke="midnightblue" d="M456.81,-112.44C497.6,-102.7 564.1,-86.81 606.68,-76.63"/>
<polygon fill="midnightblue" stroke="midnightblue" points="607.52,-80.03 616.43,-74.3 605.89,-73.22 607.52,-80.03"/>
</g>
<!-- Node22&#45;&gt;Node19 -->
<g id="edge23" class="edge">
<title>Node22&#45;&gt;Node19</title>
<path fill="none" stroke="midnightblue" d="M390.18,-112.46C317.27,-92.26 134.64,-41.66 58.34,-20.51"/>
<polygon fill="midnightblue" stroke="midnightblue" points="58.87,-17.03 48.3,-17.73 57,-23.78 58.87,-17.03"/>
</g>
<!-- Node23 -->
<g id="node23" class="node">
<title>Node23</title>
<g id="a_node23"><a xlink:title=" ">
<polygon fill="white" stroke="#bfbfbf" points="394.5,-56.5 394.5,-75.5 447.5,-75.5 447.5,-56.5 394.5,-56.5"/>
<text text-anchor="middle" x="421" y="-63.5" font-family="Helvetica,sans-Serif" font-size="10.00">limits.h</text>
</a>
</g>
</g>
<!-- Node22&#45;&gt;Node23 -->
<g id="edge22" class="edge">
<title>Node22&#45;&gt;Node23</title>
<path fill="none" stroke="midnightblue" d="M421,-112.08C421,-105.01 421,-94.86 421,-85.99"/>
<polygon fill="midnightblue" stroke="midnightblue" points="424.5,-85.75 421,-75.75 417.5,-85.75 424.5,-85.75"/>
</g>
<!-- Node24&#45;&gt;Node4 -->
<g id="edge26" class="edge">
<title>Node24&#45;&gt;Node4</title>
<path fill="none" stroke="midnightblue" d="M946.9,-280.44C975.97,-268.98 1005.46,-250.37 994,-224 964.92,-157.09 938.93,-145.26 874,-112 813.99,-81.27 735.12,-71.49 687.89,-68.4"/>
<polygon fill="midnightblue" stroke="midnightblue" points="687.93,-64.9 677.74,-67.81 687.52,-71.88 687.93,-64.9"/>
</g>
<!-- Node25 -->
<g id="node25" class="node">
<title>Node25</title>
<g id="a_node25"><a xlink:href="SensorDataPipe_8h.html" target="_top" xlink:title="Lock&#45;Free Data Pipeline.">
<polygon fill="white" stroke="black" points="646.5,-224.5 646.5,-243.5 813.5,-243.5 813.5,-224.5 646.5,-224.5"/>
<text text-anchor="middle" x="730" y="-231.5" font-family="Helvetica,sans-Serif" font-size="10.00">src/Common/SensorDataPipe.h</text>
</a>
</g>
</g>
<!-- Node24&#45;&gt;Node25 -->
<g id="edge27" class="edge">
<title>Node24&#45;&gt;Node25</title>
<path fill="none" stroke="midnightblue" d="M858.95,-280.4C830.09,-270.24 791.55,-256.67 764.15,-247.02"/>
<polygon fill="midnightblue" stroke="midnightblue" points="765.19,-243.68 754.59,-243.66 762.86,-250.28 765.19,-243.68"/>
</g>
<!-- Node29 -->
<g id="node29" class="node">
<title>Node29</title>
<g id="a_node29"><a xlink:href="ThreadGroup_8h.html" target="_top" xlink:title="Thread Group Management System.">
<polygon fill="white" stroke="black" points="831.5,-224.5 831.5,-243.5 984.5,-243.5 984.5,-224.5 831.5,-224.5"/>
<text text-anchor="middle" x="908" y="-231.5" font-family="Helvetica,sans-Serif" font-size="10.00">src/Common/ThreadGroup.h</text>
</a>
</g>
</g>
<!-- Node24&#45;&gt;Node29 -->
<g id="edge35" class="edge">
<title>Node24&#45;&gt;Node29</title>
<path fill="none" stroke="midnightblue" d="M901.13,-280.4C902.35,-272.38 903.88,-262.23 905.19,-253.57"/>
<polygon fill="midnightblue" stroke="midnightblue" points="908.66,-254.07 906.69,-243.66 901.73,-253.02 908.66,-254.07"/>
</g>
<!-- Node30 -->
<g id="node30" class="node">
<title>Node30</title>
<g id="a_node30"><a xlink:href="cJSON_8h.html" target="_top" xlink:title=" ">
<polygon fill="white" stroke="black" points="1041.5,-224.5 1041.5,-243.5 1168.5,-243.5 1168.5,-224.5 1041.5,-224.5"/>
<text text-anchor="middle" x="1105" y="-231.5" font-family="Helvetica,sans-Serif" font-size="10.00">src/Libs/cJSON/cJSON.h</text>
</a>
</g>
</g>
<!-- Node24&#45;&gt;Node30 -->
<g id="edge40" class="edge">
<title>Node24&#45;&gt;Node30</title>
<path fill="none" stroke="midnightblue" d="M947.56,-280.47C983.56,-270.08 1032.02,-256.08 1065.63,-246.37"/>
<polygon fill="midnightblue" stroke="midnightblue" points="1066.91,-249.64 1075.55,-243.51 1064.97,-242.92 1066.91,-249.64"/>
</g>
<!-- Node25&#45;&gt;Node4 -->
<g id="edge29" class="edge">
<title>Node25&#45;&gt;Node4</title>
<path fill="none" stroke="midnightblue" d="M714.86,-224.24C702.54,-216.33 685.66,-203.55 676,-188 656.03,-155.84 649.81,-111.01 647.88,-85.92"/>
<polygon fill="midnightblue" stroke="midnightblue" points="651.35,-85.39 647.24,-75.62 644.36,-85.82 651.35,-85.39"/>
</g>
<!-- Node26 -->
<g id="node26" class="node">
<title>Node26</title>
<g id="a_node26"><a xlink:title=" ">
<polygon fill="white" stroke="#bfbfbf" points="685,-168.5 685,-187.5 759,-187.5 759,-168.5 685,-168.5"/>
<text text-anchor="middle" x="722" y="-175.5" font-family="Helvetica,sans-Serif" font-size="10.00">stdatomic.h</text>
</a>
</g>
</g>
<!-- Node25&#45;&gt;Node26 -->
<g id="edge28" class="edge">
<title>Node25&#45;&gt;Node26</title>
<path fill="none" stroke="midnightblue" d="M728.68,-224.08C727.62,-216.93 726.09,-206.64 724.77,-197.69"/>
<polygon fill="midnightblue" stroke="midnightblue" points="728.22,-197.13 723.3,-187.75 721.3,-198.16 728.22,-197.13"/>
</g>
<!-- Node27 -->
<g id="node27" class="node">
<title>Node27</title>
<g id="a_node27"><a xlink:href="Thread_8h.html" target="_top" xlink:title="Lightweight Synchronization Primitives Wrapper.">
<polygon fill="white" stroke="black" points="777,-168.5 777,-187.5 901,-187.5 901,-168.5 777,-168.5"/>
<text text-anchor="middle" x="839" y="-175.5" font-family="Helvetica,sans-Serif" font-size="10.00">src/Common/Thread.h</text>
</a>
</g>
</g>
<!-- Node25&#45;&gt;Node27 -->
<g id="edge30" class="edge">
<title>Node25&#45;&gt;Node27</title>
<path fill="none" stroke="midnightblue" d="M747.51,-224.32C765.07,-215.62 792.33,-202.12 812.53,-192.11"/>
<polygon fill="midnightblue" stroke="midnightblue" points="814.12,-195.23 821.53,-187.65 811.02,-188.96 814.12,-195.23"/>
</g>
<!-- Node27&#45;&gt;Node4 -->
<g id="edge33" class="edge">
<title>Node27&#45;&gt;Node4</title>
<path fill="none" stroke="midnightblue" d="M839.03,-168.49C838.61,-154.64 835.69,-127.23 820,-112 784.78,-77.82 727.06,-68.7 688.08,-66.72"/>
<polygon fill="midnightblue" stroke="midnightblue" points="687.74,-63.2 677.61,-66.33 687.48,-70.2 687.74,-63.2"/>
</g>
<!-- Node27&#45;&gt;Node11 -->
<g id="edge31" class="edge">
<title>Node27&#45;&gt;Node11</title>
<path fill="none" stroke="midnightblue" d="M857.7,-168.42C917.16,-141.16 1102.11,-56.35 1172.98,-23.85"/>
<polygon fill="midnightblue" stroke="midnightblue" points="1174.56,-26.97 1182.19,-19.62 1171.65,-20.61 1174.56,-26.97"/>
</g>
<!-- Node27&#45;&gt;Node22 -->
<g id="edge34" class="edge">
<title>Node27&#45;&gt;Node22</title>
<path fill="none" stroke="midnightblue" d="M776.87,-168.97C699.67,-159 568.39,-142.04 488.69,-131.74"/>
<polygon fill="midnightblue" stroke="midnightblue" points="489.12,-128.27 478.75,-130.46 488.22,-135.21 489.12,-128.27"/>
</g>
<!-- Node28 -->
<g id="node28" class="node">
<title>Node28</title>
<g id="a_node28"><a xlink:title=" ">
<polygon fill="white" stroke="#bfbfbf" points="731,-112.5 731,-131.5 811,-131.5 811,-112.5 731,-112.5"/>
<text text-anchor="middle" x="771" y="-119.5" font-family="Helvetica,sans-Serif" font-size="10.00">semaphore.h</text>
</a>
</g>
</g>
<!-- Node27&#45;&gt;Node28 -->
<g id="edge32" class="edge">
<title>Node27&#45;&gt;Node28</title>
<path fill="none" stroke="midnightblue" d="M828.07,-168.32C817.83,-160.18 802.28,-147.84 790,-138.09"/>
<polygon fill="midnightblue" stroke="midnightblue" points="792.13,-135.31 782.12,-131.83 787.78,-140.79 792.13,-135.31"/>
</g>
<!-- Node29&#45;&gt;Node4 -->
<g id="edge38" class="edge">
<title>Node29&#45;&gt;Node4</title>
<path fill="none" stroke="midnightblue" d="M910.64,-224.49C914.14,-211.56 918.9,-186.52 910,-168 892.74,-132.09 875.84,-129.4 840,-112 790.74,-88.09 728.14,-76.52 687.82,-71.18"/>
<polygon fill="midnightblue" stroke="midnightblue" points="688.18,-67.7 677.82,-69.93 687.31,-74.65 688.18,-67.7"/>
</g>
<!-- Node29&#45;&gt;Node11 -->
<g id="edge36" class="edge">
<title>Node29&#45;&gt;Node11</title>
<path fill="none" stroke="midnightblue" d="M921.29,-224.48C934.95,-215.63 956.74,-201.25 975,-188 1053.78,-130.81 1143.92,-57.84 1182.22,-26.47"/>
<polygon fill="midnightblue" stroke="midnightblue" points="1184.89,-28.81 1190.39,-19.76 1180.44,-23.4 1184.89,-28.81"/>
</g>
<!-- Node29&#45;&gt;Node21 -->
<g id="edge37" class="edge">
<title>Node29&#45;&gt;Node21</title>
<path fill="none" stroke="midnightblue" d="M916.31,-224.3C948.16,-190.94 1062.78,-70.92 1104.59,-27.13"/>
<polygon fill="midnightblue" stroke="midnightblue" points="1107.14,-29.53 1111.52,-19.88 1102.08,-24.7 1107.14,-29.53"/>
</g>
<!-- Node29&#45;&gt;Node27 -->
<g id="edge39" class="edge">
<title>Node29&#45;&gt;Node27</title>
<path fill="none" stroke="midnightblue" d="M896.91,-224.32C886.51,-216.18 870.74,-203.84 858.28,-194.09"/>
<polygon fill="midnightblue" stroke="midnightblue" points="860.32,-191.24 850.29,-187.83 856.01,-196.75 860.32,-191.24"/>
</g>
<!-- Node31 -->
<g id="node31" class="node">
<title>Node31</title>
<g id="a_node31"><a xlink:title=" ">
<polygon fill="white" stroke="#bfbfbf" points="1077,-168.5 1077,-187.5 1133,-187.5 1133,-168.5 1077,-168.5"/>
<text text-anchor="middle" x="1105" y="-175.5" font-family="Helvetica,sans-Serif" font-size="10.00">stddef.h</text>
</a>
</g>
</g>
<!-- Node30&#45;&gt;Node31 -->
<g id="edge41" class="edge">
<title>Node30&#45;&gt;Node31</title>
<path fill="none" stroke="midnightblue" d="M1105,-224.08C1105,-217.01 1105,-206.86 1105,-197.99"/>
<polygon fill="midnightblue" stroke="midnightblue" points="1108.5,-197.75 1105,-187.75 1101.5,-197.75 1108.5,-197.75"/>
</g>
<!-- Node32&#45;&gt;Node4 -->
<g id="edge43" class="edge">
<title>Node32&#45;&gt;Node4</title>
<path fill="none" stroke="midnightblue" d="M1126.13,-281.41C1146.11,-273.91 1166.19,-262.21 1178,-244 1197.02,-214.66 1152.52,-175.45 1142,-168 1068.3,-115.81 792.87,-82.23 687.95,-71.09"/>
<polygon fill="midnightblue" stroke="midnightblue" points="688.06,-67.58 677.75,-70.02 687.33,-74.55 688.06,-67.58"/>
</g>
<!-- Node32&#45;&gt;Node30 -->
<g id="edge44" class="edge">
<title>Node32&#45;&gt;Node30</title>
<path fill="none" stroke="midnightblue" d="M1074.48,-280.4C1080.17,-271.93 1087.45,-261.1 1093.48,-252.14"/>
<polygon fill="midnightblue" stroke="midnightblue" points="1096.51,-253.91 1099.18,-243.66 1090.7,-250 1096.51,-253.91"/>
</g>
<!-- Node34&#45;&gt;Node2 -->
<g id="edge47" class="edge">
<title>Node34&#45;&gt;Node2</title>
<path fill="none" stroke="midnightblue" d="M712.93,-285.98C682.65,-275.68 631.56,-258.31 597.56,-246.75"/>
<polygon fill="midnightblue" stroke="midnightblue" points="598.62,-243.41 588.03,-243.51 596.37,-250.04 598.62,-243.41"/>
</g>
<!-- Node34&#45;&gt;Node4 -->
<g id="edge48" class="edge">
<title>Node34&#45;&gt;Node4</title>
<path fill="none" stroke="midnightblue" d="M700.32,-285.99C678.02,-278.8 651.56,-266.03 638,-244 607.01,-193.63 627.63,-119.13 639.83,-85.12"/>
<polygon fill="midnightblue" stroke="midnightblue" points="643.17,-86.17 643.42,-75.58 636.62,-83.71 643.17,-86.17"/>
</g>
<!-- Node34&#45;&gt;Node25 -->
<g id="edge49" class="edge">
<title>Node34&#45;&gt;Node25</title>
<path fill="none" stroke="midnightblue" d="M736.85,-285.98C735.73,-277.58 733.96,-264.48 732.51,-253.66"/>
<polygon fill="midnightblue" stroke="midnightblue" points="735.95,-252.95 731.14,-243.51 729.01,-253.89 735.95,-252.95"/>
</g>
<!-- Node34&#45;&gt;Node29 -->
<g id="edge50" class="edge">
<title>Node34&#45;&gt;Node29</title>
<path fill="none" stroke="midnightblue" d="M762.36,-285.98C791.64,-275.72 840.97,-258.46 874,-246.9"/>
<polygon fill="midnightblue" stroke="midnightblue" points="875.41,-250.12 883.69,-243.51 873.09,-243.51 875.41,-250.12"/>
</g>
<!-- Node34&#45;&gt;Node30 -->
<g id="edge51" class="edge">
<title>Node34&#45;&gt;Node30</title>
<path fill="none" stroke="midnightblue" d="M774.91,-285.93C784.37,-283.86 794.54,-281.74 804,-280 881.28,-265.75 970.35,-252.87 1031.44,-244.58"/>
<polygon fill="midnightblue" stroke="midnightblue" points="1031.93,-248.04 1041.37,-243.24 1030.99,-241.11 1031.93,-248.04"/>
</g>
</g>
</svg>
