<?xml version="1.0" encoding="UTF-8" standalone="no"?>
<!DOCTYPE svg PUBLIC "-//W3C//DTD SVG 1.1//EN"
 "http://www.w3.org/Graphics/SVG/1.1/DTD/svg11.dtd">
<!-- Generated by graphviz version 2.43.0 (0)
 -->
<!-- Title: PgRun Pages: 1 -->
<svg width="556pt" height="499pt"
 viewBox="0.00 0.00 556.00 499.10" xmlns="http://www.w3.org/2000/svg" xmlns:xlink="http://www.w3.org/1999/xlink">
<g id="graph0" class="graph" transform="scale(1 1) rotate(0) translate(4 495.1)">
<title>PgRun</title>
<!-- Node1 -->
<g id="Node000001" class="node">
<title>Node1</title>
<g id="a_Node000001"><a xlink:title="Main PostgreSQL thread function.">
<polygon fill="#999999" stroke="#666666" points="47,-264.1 0,-264.1 0,-245.1 47,-245.1 47,-264.1"/>
<text text-anchor="middle" x="23.5" y="-252.1" font-family="Helvetica,sans-Serif" font-size="10.00">PgRun</text>
</a>
</g>
</g>
<!-- Node2 -->
<g id="Node000002" class="node">
<title>Node2</title>
<g id="a_Node000002"><a xlink:href="DatabaseSystems_2Postgres_8c.html#a5caf93c93fdc98377097952a04cd7520" target="_top" xlink:title="Initializes thread arenas for PostgreSQL operations.">
<polygon fill="white" stroke="#666666" points="199.5,-433.1 87.5,-433.1 87.5,-414.1 199.5,-414.1 199.5,-433.1"/>
<text text-anchor="middle" x="143.5" y="-421.1" font-family="Helvetica,sans-Serif" font-size="10.00">PgInitThreadArenas</text>
</a>
</g>
</g>
<!-- Node1&#45;&gt;Node2 -->
<g id="edge1_Node000001_Node000002" class="edge">
<title>Node1&#45;&gt;Node2</title>
<g id="a_edge1_Node000001_Node000002"><a xlink:title=" ">
<path fill="none" stroke="#63b8ff" d="M25.38,-264.34C28.3,-291.01 40.11,-365.84 83,-405.6 84.28,-406.78 85.63,-407.89 87.05,-408.92"/>
<polygon fill="#63b8ff" stroke="#63b8ff" points="85.34,-411.98 95.72,-414.09 88.92,-405.96 85.34,-411.98"/>
</a>
</g>
</g>
<!-- Node3 -->
<g id="Node000003" class="node">
<title>Node3</title>
<g id="a_Node000003"><a xlink:href="DatabaseSystems_2Postgres_8c.html#aa7c5ed35f820c0efcccbb4e2f010a980" target="_top" xlink:title="Inserts data into PostgreSQL table using COPY protocol.">
<polygon fill="white" stroke="#666666" points="183.5,-396.1 103.5,-396.1 103.5,-377.1 183.5,-377.1 183.5,-396.1"/>
<text text-anchor="middle" x="143.5" y="-384.1" font-family="Helvetica,sans-Serif" font-size="10.00">PgInsertData</text>
</a>
</g>
</g>
<!-- Node1&#45;&gt;Node3 -->
<g id="edge2_Node000001_Node000003" class="edge">
<title>Node1&#45;&gt;Node3</title>
<g id="a_edge2_Node000001_Node000003"><a xlink:title=" ">
<path fill="none" stroke="#63b8ff" d="M27.3,-264.39C33.73,-285.25 51.51,-334.48 83,-362.6 87.47,-366.59 92.69,-369.96 98.15,-372.8"/>
<polygon fill="#63b8ff" stroke="#63b8ff" points="96.92,-376.09 107.47,-377.09 99.85,-369.73 96.92,-376.09"/>
</a>
</g>
</g>
<!-- Node10 -->
<g id="Node000010" class="node">
<title>Node10</title>
<g id="a_Node000010"><a xlink:href="DatabaseSystems_2Postgres_8c.html#ac1ce839ca0bb2cb91546fd9d00713d8b" target="_top" xlink:title="Prepares PostgreSQL context from configuration.">
<polygon fill="white" stroke="#666666" points="185,-135.1 102,-135.1 102,-116.1 185,-116.1 185,-135.1"/>
<text text-anchor="middle" x="143.5" y="-123.1" font-family="Helvetica,sans-Serif" font-size="10.00">PgPrepareCtx</text>
</a>
</g>
</g>
<!-- Node1&#45;&gt;Node10 -->
<g id="edge13_Node000001_Node000010" class="edge">
<title>Node1&#45;&gt;Node10</title>
<g id="a_edge13_Node000001_Node000010"><a xlink:title=" ">
<path fill="none" stroke="#63b8ff" d="M26.85,-244.97C32.59,-223.47 49.39,-171.32 83,-143.6 85.92,-141.19 89.15,-139.1 92.57,-137.3"/>
<polygon fill="#63b8ff" stroke="#63b8ff" points="94.2,-140.4 101.91,-133.13 91.35,-134.01 94.2,-140.4"/>
</a>
</g>
</g>
<!-- Node20 -->
<g id="Node000020" class="node">
<title>Node20</title>
<g id="a_Node000020"><a xlink:href="Sdb_8h.html#aaf34881f50372f5c1932078f4439bc5a" target="_top" xlink:title=" ">
<polygon fill="white" stroke="#666666" points="198.5,-320.1 88.5,-320.1 88.5,-301.1 198.5,-301.1 198.5,-320.1"/>
<text text-anchor="middle" x="143.5" y="-308.1" font-family="Helvetica,sans-Serif" font-size="10.00">SdbArenaBootstrap</text>
</a>
</g>
</g>
<!-- Node1&#45;&gt;Node20 -->
<g id="edge25_Node000001_Node000020" class="edge">
<title>Node1&#45;&gt;Node20</title>
<g id="a_edge25_Node000001_Node000020"><a xlink:title=" ">
<path fill="none" stroke="#63b8ff" d="M36.9,-264.14C48.35,-272.58 66.09,-284.74 83,-292.6 87.02,-294.46 91.28,-296.19 95.6,-297.78"/>
<polygon fill="#63b8ff" stroke="#63b8ff" points="94.48,-301.1 105.08,-301.04 96.76,-294.48 94.48,-301.1"/>
</a>
</g>
</g>
<!-- Node21 -->
<g id="Node000021" class="node">
<title>Node21</title>
<g id="a_Node000021"><a xlink:href="Sdb_8h.html#ab63e953fd90c628d5c0727287df66fab" target="_top" xlink:title=" ">
<polygon fill="white" stroke="#666666" points="183,-283.1 104,-283.1 104,-264.1 183,-264.1 183,-283.1"/>
<text text-anchor="middle" x="143.5" y="-271.1" font-family="Helvetica,sans-Serif" font-size="10.00">SdbArenaInit</text>
</a>
</g>
</g>
<!-- Node1&#45;&gt;Node21 -->
<g id="edge26_Node000001_Node000021" class="edge">
<title>Node1&#45;&gt;Node21</title>
<g id="a_edge26_Node000001_Node000021"><a xlink:title=" ">
<path fill="none" stroke="#63b8ff" d="M47.25,-258.26C60.33,-260.37 77.28,-263.09 93.25,-265.67"/>
<polygon fill="#63b8ff" stroke="#63b8ff" points="93.13,-269.19 103.56,-267.33 94.24,-262.28 93.13,-269.19"/>
</a>
</g>
</g>
<!-- Node22 -->
<g id="Node000022" class="node">
<title>Node22</title>
<g id="a_Node000022"><a xlink:href="Thread_8c.html#a192a33d80a7d463ad237856cdc7343be" target="_top" xlink:title="Wait on a thread barrier.">
<polygon fill="white" stroke="#666666" points="188,-246.1 99,-246.1 99,-227.1 188,-227.1 188,-246.1"/>
<text text-anchor="middle" x="143.5" y="-234.1" font-family="Helvetica,sans-Serif" font-size="10.00">SdbBarrierWait</text>
</a>
</g>
</g>
<!-- Node1&#45;&gt;Node22 -->
<g id="edge27_Node000001_Node000022" class="edge">
<title>Node1&#45;&gt;Node22</title>
<g id="a_edge27_Node000001_Node000022"><a xlink:title=" ">
<path fill="none" stroke="#63b8ff" d="M47.25,-251.13C59.11,-249.32 74.17,-247.02 88.79,-244.79"/>
<polygon fill="#63b8ff" stroke="#63b8ff" points="89.43,-248.23 98.79,-243.26 88.38,-241.31 89.43,-248.23"/>
</a>
</g>
</g>
<!-- Node23 -->
<g id="Node000023" class="node">
<title>Node23</title>
<g id="a_Node000023"><a xlink:href="Signals_8c.html#aca8d19968aa974641e340443ba21e58e" target="_top" xlink:title="Checks if the system should initiate shutdown.">
<polygon fill="white" stroke="#666666" points="201.5,-209.1 85.5,-209.1 85.5,-190.1 201.5,-190.1 201.5,-209.1"/>
<text text-anchor="middle" x="143.5" y="-197.1" font-family="Helvetica,sans-Serif" font-size="10.00">SdbShouldShutdown</text>
</a>
</g>
</g>
<!-- Node1&#45;&gt;Node23 -->
<g id="edge28_Node000001_Node000023" class="edge">
<title>Node1&#45;&gt;Node23</title>
<g id="a_edge28_Node000001_Node000023"><a xlink:title=" ">
<path fill="none" stroke="#63b8ff" d="M37.92,-245.03C49.45,-237.14 66.74,-226.06 83,-218.6 87.74,-216.42 92.81,-214.39 97.9,-212.53"/>
<polygon fill="#63b8ff" stroke="#63b8ff" points="99.35,-215.73 107.67,-209.16 97.07,-209.11 99.35,-215.73"/>
</a>
</g>
</g>
<!-- Node24 -->
<g id="Node000024" class="node">
<title>Node24</title>
<g id="a_Node000024"><a xlink:href="Time_8c.html#ad3369a427cccb648ad4f30900f4f7c33" target="_top" xlink:title="Get Current Monotonic Timestamp.">
<polygon fill="white" stroke="#666666" points="198.5,-172.1 88.5,-172.1 88.5,-153.1 198.5,-153.1 198.5,-172.1"/>
<text text-anchor="middle" x="143.5" y="-160.1" font-family="Helvetica,sans-Serif" font-size="10.00">SdbTimeMonotonic</text>
</a>
</g>
</g>
<!-- Node1&#45;&gt;Node24 -->
<g id="edge29_Node000001_Node000024" class="edge">
<title>Node1&#45;&gt;Node24</title>
<g id="a_edge29_Node000001_Node000024"><a xlink:title=" ">
<path fill="none" stroke="#63b8ff" d="M29.58,-244.87C38.35,-229.04 57.82,-197.74 83,-180.6 85.26,-179.05 87.66,-177.64 90.15,-176.35"/>
<polygon fill="#63b8ff" stroke="#63b8ff" points="91.76,-179.46 99.44,-172.16 88.89,-173.08 91.76,-179.46"/>
</a>
</g>
</g>
<!-- Node25 -->
<g id="Node000025" class="node">
<title>Node25</title>
<g id="a_Node000025"><a xlink:href="Time_8c.html#ab96009a36f9428aa5cb1df4c18e7b50a" target="_top" xlink:title="Calculate Time Difference Between Timestamps.">
<polygon fill="white" stroke="#666666" points="378,-304.1 240,-304.1 240,-285.1 378,-285.1 378,-304.1"/>
<text text-anchor="middle" x="309" y="-292.1" font-family="Helvetica,sans-Serif" font-size="10.00">SdbTimePrintSpecDiffWT</text>
</a>
</g>
</g>
<!-- Node1&#45;&gt;Node25 -->
<g id="edge30_Node000001_Node000025" class="edge">
<title>Node1&#45;&gt;Node25</title>
<g id="a_edge30_Node000001_Node000025"><a xlink:title=" ">
<path fill="none" stroke="#63b8ff" d="M28.54,-264.24C36.24,-281.19 54.81,-315.83 83,-329.6 131.33,-353.19 151.39,-340.76 204,-329.6 221.13,-325.96 223.52,-319.52 240,-313.6 246.43,-311.28 253.29,-309.07 260.08,-307.04"/>
<polygon fill="#63b8ff" stroke="#63b8ff" points="261.3,-310.33 269.92,-304.18 259.35,-303.61 261.3,-310.33"/>
</a>
</g>
</g>
<!-- Node26 -->
<g id="Node000026" class="node">
<title>Node26</title>
<g id="a_Node000026"><a xlink:href="SensorDataPipe_8c.html#ad89a4144ee5810394cfbba1605639e19" target="_top" xlink:title="Acquire Read Buffer Arena.">
<polygon fill="white" stroke="#666666" points="204,-98.1 83,-98.1 83,-79.1 204,-79.1 204,-98.1"/>
<text text-anchor="middle" x="143.5" y="-86.1" font-family="Helvetica,sans-Serif" font-size="10.00">SdPipeGetReadBuffer</text>
</a>
</g>
</g>
<!-- Node1&#45;&gt;Node26 -->
<g id="edge32_Node000001_Node000026" class="edge">
<title>Node1&#45;&gt;Node26</title>
<g id="a_edge32_Node000001_Node000026"><a xlink:title=" ">
<path fill="none" stroke="#63b8ff" d="M25.44,-245.04C28.53,-218.9 40.72,-145.52 83,-106.6 84.28,-105.42 85.64,-104.31 87.06,-103.28"/>
<polygon fill="#63b8ff" stroke="#63b8ff" points="88.93,-106.24 95.74,-98.13 85.36,-100.22 88.93,-106.24"/>
</a>
</g>
</g>
<!-- Node4 -->
<g id="Node000004" class="node">
<title>Node4</title>
<g id="a_Node000004"><a xlink:href="Sdb_8h.html#a9b1bdb21ac42d86edd96d53d49da1760" target="_top" xlink:title=" ">
<polygon fill="white" stroke="#666666" points="519.5,-396.1 442.5,-396.1 442.5,-377.1 519.5,-377.1 519.5,-396.1"/>
<text text-anchor="middle" x="481" y="-384.1" font-family="Helvetica,sans-Serif" font-size="10.00">SdbMemcpy</text>
</a>
</g>
</g>
<!-- Node3&#45;&gt;Node4 -->
<g id="edge3_Node000003_Node000004" class="edge">
<title>Node3&#45;&gt;Node4</title>
<g id="a_edge3_Node000003_Node000004"><a xlink:title=" ">
<path fill="none" stroke="#63b8ff" d="M177.92,-396.13C186.53,-398.89 195.7,-402.11 204,-405.6 220.68,-412.6 222.44,-420.25 240,-424.6 299.53,-439.34 317.64,-435.47 378,-424.6 403.73,-419.96 431.44,-409.23 451.48,-400.36"/>
<polygon fill="#63b8ff" stroke="#63b8ff" points="453,-403.51 460.66,-396.18 450.1,-397.14 453,-403.51"/>
</a>
</g>
</g>
<!-- Node5 -->
<g id="Node000005" class="node">
<title>Node5</title>
<g id="a_Node000005"><a xlink:href="DatabaseSystems_2Postgres_8c.html#a9b90329e0cf4324fbe9fcd6b22233e34" target="_top" xlink:title="Writes a 2&#45;byte value in network byte order.">
<polygon fill="white" stroke="#666666" points="333.5,-415.1 284.5,-415.1 284.5,-396.1 333.5,-396.1 333.5,-415.1"/>
<text text-anchor="middle" x="309" y="-403.1" font-family="Helvetica,sans-Serif" font-size="10.00">Write2</text>
</a>
</g>
</g>
<!-- Node3&#45;&gt;Node5 -->
<g id="edge4_Node000003_Node000005" class="edge">
<title>Node3&#45;&gt;Node5</title>
<g id="a_edge4_Node000003_Node000005"><a xlink:title=" ">
<path fill="none" stroke="#63b8ff" d="M183.66,-391.15C211.23,-394.35 247.76,-398.6 274.08,-401.65"/>
<polygon fill="#63b8ff" stroke="#63b8ff" points="273.99,-405.17 284.33,-402.85 274.8,-398.21 273.99,-405.17"/>
</a>
</g>
</g>
<!-- Node6 -->
<g id="Node000006" class="node">
<title>Node6</title>
<g id="a_Node000006"><a xlink:href="DatabaseSystems_2Postgres_8c.html#ab8781f83020464aef1cf9779f072a37f" target="_top" xlink:title=" ">
<polygon fill="white" stroke="#666666" points="333.5,-378.1 284.5,-378.1 284.5,-359.1 333.5,-359.1 333.5,-378.1"/>
<text text-anchor="middle" x="309" y="-366.1" font-family="Helvetica,sans-Serif" font-size="10.00">Write4</text>
</a>
</g>
</g>
<!-- Node3&#45;&gt;Node6 -->
<g id="edge6_Node000003_Node000006" class="edge">
<title>Node3&#45;&gt;Node6</title>
<g id="a_edge6_Node000003_Node000006"><a xlink:title=" ">
<path fill="none" stroke="#63b8ff" d="M183.66,-382.28C211.23,-379.25 247.76,-375.23 274.08,-372.33"/>
<polygon fill="#63b8ff" stroke="#63b8ff" points="274.78,-375.78 284.33,-371.2 274.01,-368.82 274.78,-375.78"/>
</a>
</g>
</g>
<!-- Node7 -->
<g id="Node000007" class="node">
<title>Node7</title>
<g id="a_Node000007"><a xlink:href="DatabaseSystems_2Postgres_8c.html#af07f5759e9e25a2b5a8569ab296897e8" target="_top" xlink:title=" ">
<polygon fill="white" stroke="#666666" points="333.5,-341.1 284.5,-341.1 284.5,-322.1 333.5,-322.1 333.5,-341.1"/>
<text text-anchor="middle" x="309" y="-329.1" font-family="Helvetica,sans-Serif" font-size="10.00">Write8</text>
</a>
</g>
</g>
<!-- Node3&#45;&gt;Node7 -->
<g id="edge8_Node000003_Node000007" class="edge">
<title>Node3&#45;&gt;Node7</title>
<g id="a_edge8_Node000003_Node000007"><a xlink:title=" ">
<path fill="none" stroke="#63b8ff" d="M168.23,-376.98C187.43,-369.37 215.25,-358.7 240,-350.6 251.15,-346.95 263.46,-343.37 274.52,-340.32"/>
<polygon fill="#63b8ff" stroke="#63b8ff" points="275.51,-343.68 284.24,-337.68 273.68,-336.92 275.51,-343.68"/>
</a>
</g>
</g>
<!-- Node8 -->
<g id="Node000008" class="node">
<title>Node8</title>
<g id="a_Node000008"><a xlink:href="DatabaseSystems_2Postgres_8c.html#a8be5b0d3a8c5e012cae2737b1ffa7bff" target="_top" xlink:title=" ">
<polygon fill="white" stroke="#666666" points="358,-491.1 260,-491.1 260,-472.1 358,-472.1 358,-491.1"/>
<text text-anchor="middle" x="309" y="-479.1" font-family="Helvetica,sans-Serif" font-size="10.00">WriteTimestamp</text>
</a>
</g>
</g>
<!-- Node3&#45;&gt;Node8 -->
<g id="edge10_Node000003_Node000008" class="edge">
<title>Node3&#45;&gt;Node8</title>
<g id="a_edge10_Node000003_Node000008"><a xlink:title=" ">
<path fill="none" stroke="#63b8ff" d="M183.74,-395.07C190.89,-397.71 197.99,-401.14 204,-405.6 226.59,-422.32 217.66,-440.53 240,-457.6 245.48,-461.78 251.75,-465.28 258.22,-468.19"/>
<polygon fill="#63b8ff" stroke="#63b8ff" points="257.18,-471.54 267.77,-472.04 259.8,-465.05 257.18,-471.54"/>
</a>
</g>
</g>
<!-- Node5&#45;&gt;Node4 -->
<g id="edge5_Node000005_Node000004" class="edge">
<title>Node5&#45;&gt;Node4</title>
<g id="a_edge5_Node000005_Node000004"><a xlink:title=" ">
<path fill="none" stroke="#63b8ff" d="M333.64,-402.95C358.99,-400.12 399.95,-395.54 432.1,-391.95"/>
<polygon fill="#63b8ff" stroke="#63b8ff" points="432.64,-395.41 442.19,-390.82 431.87,-388.45 432.64,-395.41"/>
</a>
</g>
</g>
<!-- Node6&#45;&gt;Node4 -->
<g id="edge7_Node000006_Node000004" class="edge">
<title>Node6&#45;&gt;Node4</title>
<g id="a_edge7_Node000006_Node000004"><a xlink:title=" ">
<path fill="none" stroke="#63b8ff" d="M333.64,-371.1C358.99,-373.78 399.95,-378.12 432.1,-381.52"/>
<polygon fill="#63b8ff" stroke="#63b8ff" points="431.88,-385.02 442.19,-382.59 432.62,-378.06 431.88,-385.02"/>
</a>
</g>
</g>
<!-- Node7&#45;&gt;Node4 -->
<g id="edge9_Node000007_Node000004" class="edge">
<title>Node7&#45;&gt;Node4</title>
<g id="a_edge9_Node000007_Node000004"><a xlink:title=" ">
<path fill="none" stroke="#63b8ff" d="M333.72,-337.81C346.83,-341.34 363.39,-345.98 378,-350.6 400.52,-357.71 425.53,-366.52 445.14,-373.64"/>
<polygon fill="#63b8ff" stroke="#63b8ff" points="443.99,-376.95 454.59,-377.1 446.4,-370.38 443.99,-376.95"/>
</a>
</g>
</g>
<!-- Node8&#45;&gt;Node4 -->
<g id="edge11_Node000008_Node000004" class="edge">
<title>Node8&#45;&gt;Node4</title>
<g id="a_edge11_Node000008_Node000004"><a xlink:title=" ">
<path fill="none" stroke="#63b8ff" d="M342.57,-472.08C354.05,-468.22 366.86,-463.31 378,-457.6 408.61,-441.91 440.65,-418.23 460.47,-402.59"/>
<polygon fill="#63b8ff" stroke="#63b8ff" points="462.8,-405.21 468.42,-396.23 458.42,-399.74 462.8,-405.21"/>
</a>
</g>
</g>
<!-- Node9 -->
<g id="Node000009" class="node">
<title>Node9</title>
<g id="a_Node000009"><a xlink:href="DatabaseSystems_2Postgres_8c.html#afa67b44da30f50a326b7a120665bc477" target="_top" xlink:title="Converts Unix timestamp to PostgreSQL timestamp.">
<polygon fill="white" stroke="#666666" points="539.5,-491.1 422.5,-491.1 422.5,-472.1 539.5,-472.1 539.5,-491.1"/>
<text text-anchor="middle" x="481" y="-479.1" font-family="Helvetica,sans-Serif" font-size="10.00">UnixToPgTimestamp</text>
</a>
</g>
</g>
<!-- Node8&#45;&gt;Node9 -->
<g id="edge12_Node000008_Node000009" class="edge">
<title>Node8&#45;&gt;Node9</title>
<g id="a_edge12_Node000008_Node000009"><a xlink:title=" ">
<path fill="none" stroke="#63b8ff" d="M358.26,-481.6C375,-481.6 394.08,-481.6 412.1,-481.6"/>
<polygon fill="#63b8ff" stroke="#63b8ff" points="412.27,-485.1 422.27,-481.6 412.27,-478.1 412.27,-485.1"/>
</a>
</g>
</g>
<!-- Node11 -->
<g id="Node000011" class="node">
<title>Node11</title>
<g id="a_Node000011"><a xlink:href="DatabaseInitializer_8c.html#a892f0ebc1700e0aa69bd02dd611e0094" target="_top" xlink:title="Loads and parses a database configuration file.">
<polygon fill="white" stroke="#666666" points="373,-61.1 245,-61.1 245,-42.1 373,-42.1 373,-61.1"/>
<text text-anchor="middle" x="309" y="-49.1" font-family="Helvetica,sans-Serif" font-size="10.00">DbInitGetConfFromFile</text>
</a>
</g>
</g>
<!-- Node10&#45;&gt;Node11 -->
<g id="edge14_Node000010_Node000011" class="edge">
<title>Node10&#45;&gt;Node11</title>
<g id="a_edge14_Node000010_Node000011"><a xlink:title=" ">
<path fill="none" stroke="#63b8ff" d="M183.8,-116.07C190.8,-113.54 197.82,-110.42 204,-106.6 223.51,-94.52 220.19,-81.17 240,-69.6 242.99,-67.85 246.15,-66.27 249.41,-64.84"/>
<polygon fill="#63b8ff" stroke="#63b8ff" points="250.74,-68.08 258.79,-61.19 248.2,-61.55 250.74,-68.08"/>
</a>
</g>
</g>
<!-- Node12 -->
<g id="Node000012" class="node">
<title>Node12</title>
<g id="a_Node000012"><a xlink:href="Sdb_8h.html#a5ee7553cb2684af20d146fcf1cc6538f" target="_top" xlink:title=" ">
<polygon fill="white" stroke="#666666" points="548,-24.1 414,-24.1 414,-5.1 548,-5.1 548,-24.1"/>
<text text-anchor="middle" x="481" y="-12.1" font-family="Helvetica,sans-Serif" font-size="10.00">SdbLoadFileIntoMemory</text>
</a>
</g>
</g>
<!-- Node10&#45;&gt;Node12 -->
<g id="edge20_Node000010_Node000012" class="edge">
<title>Node10&#45;&gt;Node12</title>
<g id="a_edge20_Node000010_Node000012"><a xlink:title=" ">
<path fill="none" stroke="#63b8ff" d="M185.23,-117.47C192.01,-114.81 198.59,-111.28 204,-106.6 231.65,-82.66 209.74,-53.14 240,-32.6 293.31,3.6 369.49,2.72 421.64,-3.71"/>
<polygon fill="#63b8ff" stroke="#63b8ff" points="421.36,-7.2 431.73,-5.05 422.28,-0.26 421.36,-7.2"/>
</a>
</g>
</g>
<!-- Node14 -->
<g id="Node000014" class="node">
<title>Node14</title>
<g id="a_Node000014"><a xlink:href="DatabaseSystems_2Postgres_8c.html#ac6502b8786d53619f0b41e92ec1022de" target="_top" xlink:title=" ">
<polygon fill="white" stroke="#666666" points="362,-248.1 256,-248.1 256,-229.1 362,-229.1 362,-248.1"/>
<text text-anchor="middle" x="309" y="-236.1" font-family="Helvetica,sans-Serif" font-size="10.00">GetTableMetadata</text>
</a>
</g>
</g>
<!-- Node10&#45;&gt;Node14 -->
<g id="edge17_Node000010_Node000014" class="edge">
<title>Node10&#45;&gt;Node14</title>
<g id="a_edge17_Node000010_Node000014"><a xlink:title=" ">
<path fill="none" stroke="#63b8ff" d="M185.15,-133.06C191.94,-135.61 198.54,-139.02 204,-143.6 231.11,-166.33 213.41,-191.26 240,-214.6 244.69,-218.72 250.14,-222.14 255.86,-224.99"/>
<polygon fill="#63b8ff" stroke="#63b8ff" points="254.46,-228.19 265.03,-229 257.27,-221.78 254.46,-228.19"/>
</a>
</g>
</g>
<!-- Node16 -->
<g id="Node000016" class="node">
<title>Node16</title>
<g id="a_Node000016"><a xlink:href="Sdb_8h.html#acd332199b77e76c2b764ef93a7b60439" target="_top" xlink:title=" ">
<polygon fill="white" stroke="#666666" points="525.5,-210.1 436.5,-210.1 436.5,-191.1 525.5,-191.1 525.5,-210.1"/>
<text text-anchor="middle" x="481" y="-198.1" font-family="Helvetica,sans-Serif" font-size="10.00">SdbStringMake</text>
</a>
</g>
</g>
<!-- Node10&#45;&gt;Node16 -->
<g id="edge24_Node000010_Node000016" class="edge">
<title>Node10&#45;&gt;Node16</title>
<g id="a_edge24_Node000010_Node000016"><a xlink:title=" ">
<path fill="none" stroke="#63b8ff" d="M185.06,-134.84C191.64,-137.18 198.19,-140.06 204,-143.6 223.6,-155.52 219.25,-170.8 240,-180.6 299.25,-208.57 375.89,-209.79 426.43,-206.53"/>
<polygon fill="#63b8ff" stroke="#63b8ff" points="426.77,-210.01 436.49,-205.8 426.26,-203.03 426.77,-210.01"/>
</a>
</g>
</g>
<!-- Node17 -->
<g id="Node000017" class="node">
<title>Node17</title>
<g id="a_Node000017"><a xlink:href="Sdb_8h.html#a2f3b726bde5f66a61dee9805406813ee" target="_top" xlink:title=" ">
<polygon fill="white" stroke="#666666" points="359,-172.1 259,-172.1 259,-153.1 359,-153.1 359,-172.1"/>
<text text-anchor="middle" x="309" y="-160.1" font-family="Helvetica,sans-Serif" font-size="10.00">SdbStringAppend</text>
</a>
</g>
</g>
<!-- Node10&#45;&gt;Node17 -->
<g id="edge21_Node000010_Node000017" class="edge">
<title>Node10&#45;&gt;Node17</title>
<g id="a_edge21_Node000010_Node000017"><a xlink:title=" ">
<path fill="none" stroke="#63b8ff" d="M185.34,-134.84C206.76,-139.69 233.23,-145.68 256.09,-150.85"/>
<polygon fill="#63b8ff" stroke="#63b8ff" points="255.45,-154.29 265.98,-153.09 257,-147.47 255.45,-154.29"/>
</a>
</g>
</g>
<!-- Node18 -->
<g id="Node000018" class="node">
<title>Node18</title>
<g id="a_Node000018"><a xlink:href="Sdb_8h.html#a28c30cfe4c8326befba64bf54397bc47" target="_top" xlink:title=" ">
<polygon fill="white" stroke="#666666" points="362.5,-135.1 255.5,-135.1 255.5,-116.1 362.5,-116.1 362.5,-135.1"/>
<text text-anchor="middle" x="309" y="-123.1" font-family="Helvetica,sans-Serif" font-size="10.00">SdbStringAppendC</text>
</a>
</g>
</g>
<!-- Node10&#45;&gt;Node18 -->
<g id="edge22_Node000010_Node000018" class="edge">
<title>Node10&#45;&gt;Node18</title>
<g id="a_edge22_Node000010_Node000018"><a xlink:title=" ">
<path fill="none" stroke="#63b8ff" d="M185.34,-125.6C203.46,-125.6 225.2,-125.6 245.31,-125.6"/>
<polygon fill="#63b8ff" stroke="#63b8ff" points="245.34,-129.1 255.34,-125.6 245.34,-122.1 245.34,-129.1"/>
</a>
</g>
</g>
<!-- Node19 -->
<g id="Node000019" class="node">
<title>Node19</title>
<g id="a_Node000019"><a xlink:href="Sdb_8h.html#af443df2d401ad3eca43919e5cf1a7118" target="_top" xlink:title=" ">
<polygon fill="white" stroke="#666666" points="367,-98.1 251,-98.1 251,-79.1 367,-79.1 367,-98.1"/>
<text text-anchor="middle" x="309" y="-86.1" font-family="Helvetica,sans-Serif" font-size="10.00">SdbStringBackspace</text>
</a>
</g>
</g>
<!-- Node10&#45;&gt;Node19 -->
<g id="edge23_Node000010_Node000019" class="edge">
<title>Node10&#45;&gt;Node19</title>
<g id="a_edge23_Node000010_Node000019"><a xlink:title=" ">
<path fill="none" stroke="#63b8ff" d="M185.34,-116.36C206.76,-111.51 233.23,-105.52 256.09,-100.34"/>
<polygon fill="#63b8ff" stroke="#63b8ff" points="257,-103.73 265.98,-98.11 255.45,-96.9 257,-103.73"/>
</a>
</g>
</g>
<!-- Node11&#45;&gt;Node12 -->
<g id="edge15_Node000011_Node000012" class="edge">
<title>Node11&#45;&gt;Node12</title>
<g id="a_edge15_Node000011_Node000012"><a xlink:title=" ">
<path fill="none" stroke="#63b8ff" d="M353.78,-42.07C375.8,-37.27 402.7,-31.42 426,-26.35"/>
<polygon fill="#63b8ff" stroke="#63b8ff" points="427.05,-29.7 436.07,-24.16 425.56,-22.86 427.05,-29.7"/>
</a>
</g>
</g>
<!-- Node13 -->
<g id="Node000013" class="node">
<title>Node13</title>
<g id="a_Node000013"><a xlink:href="Sdb_8h.html#a7d36f635ee473a12e82ed102ab4597a3" target="_top" xlink:title=" ">
<polygon fill="white" stroke="#666666" points="530,-61.1 432,-61.1 432,-42.1 530,-42.1 530,-61.1"/>
<text text-anchor="middle" x="481" y="-49.1" font-family="Helvetica,sans-Serif" font-size="10.00">SdbScratchBegin</text>
</a>
</g>
</g>
<!-- Node11&#45;&gt;Node13 -->
<g id="edge16_Node000011_Node000013" class="edge">
<title>Node11&#45;&gt;Node13</title>
<g id="a_edge16_Node000011_Node000013"><a xlink:title=" ">
<path fill="none" stroke="#63b8ff" d="M373.3,-51.6C389.18,-51.6 406.13,-51.6 421.75,-51.6"/>
<polygon fill="#63b8ff" stroke="#63b8ff" points="421.79,-55.1 431.79,-51.6 421.79,-48.1 421.79,-55.1"/>
</a>
</g>
</g>
<!-- Node15 -->
<g id="Node000015" class="node">
<title>Node15</title>
<g id="a_Node000015"><a xlink:href="Sdb_8h.html#adb598df288598cf1c13afc15e3f7e6c2" target="_top" xlink:title=" ">
<polygon fill="white" stroke="#666666" points="540.5,-248.1 421.5,-248.1 421.5,-229.1 540.5,-229.1 540.5,-248.1"/>
<text text-anchor="middle" x="481" y="-236.1" font-family="Helvetica,sans-Serif" font-size="10.00">SdbStringAppendFmt</text>
</a>
</g>
</g>
<!-- Node14&#45;&gt;Node15 -->
<g id="edge18_Node000014_Node000015" class="edge">
<title>Node14&#45;&gt;Node15</title>
<g id="a_edge18_Node000014_Node000015"><a xlink:title=" ">
<path fill="none" stroke="#63b8ff" d="M362.39,-238.6C377.82,-238.6 394.94,-238.6 411.24,-238.6"/>
<polygon fill="#63b8ff" stroke="#63b8ff" points="411.25,-242.1 421.25,-238.6 411.25,-235.1 411.25,-242.1"/>
</a>
</g>
</g>
<!-- Node14&#45;&gt;Node16 -->
<g id="edge19_Node000014_Node000016" class="edge">
<title>Node14&#45;&gt;Node16</title>
<g id="a_edge19_Node000014_Node000016"><a xlink:title=" ">
<path fill="none" stroke="#63b8ff" d="M352.9,-229.01C375.53,-223.95 403.5,-217.7 427.43,-212.35"/>
<polygon fill="#63b8ff" stroke="#63b8ff" points="428.41,-215.71 437.41,-210.12 426.89,-208.88 428.41,-215.71"/>
</a>
</g>
</g>
<!-- Node25&#45;&gt;Node4 -->
<g id="edge31_Node000025_Node000004" class="edge">
<title>Node25&#45;&gt;Node4</title>
<g id="a_edge31_Node000025_Node000004"><a xlink:title=" ">
<path fill="none" stroke="#63b8ff" d="M352.91,-304.13C361.43,-306.7 370.15,-309.84 378,-313.6 409.65,-328.76 441.87,-353.76 461.4,-370.2"/>
<polygon fill="#63b8ff" stroke="#63b8ff" points="459.33,-373.03 469.2,-376.88 463.88,-367.72 459.33,-373.03"/>
</a>
</g>
</g>
</g>
</svg>
