<?xml version="1.0" encoding="UTF-8" standalone="no"?>
<!DOCTYPE svg PUBLIC "-//W3C//DTD SVG 1.1//EN"
 "http://www.w3.org/Graphics/SVG/1.1/DTD/svg11.dtd">
<!-- Generated by graphviz version 2.43.0 (0)
 -->
<!-- Title: src/DatabaseSystems/DatabaseInitializer.h Pages: 1 -->
<svg width="1313pt" height="151pt"
 viewBox="0.00 0.00 1313.00 151.00" xmlns="http://www.w3.org/2000/svg" xmlns:xlink="http://www.w3.org/1999/xlink">
<g id="graph0" class="graph" transform="scale(1 1) rotate(0) translate(4 147)">
<title>src/DatabaseSystems/DatabaseInitializer.h</title>
<polygon fill="white" stroke="transparent" points="-4,4 -4,-147 1309,-147 1309,4 -4,4"/>
<!-- Node1 -->
<g id="node1" class="node">
<title>Node1</title>
<g id="a_node1"><a xlink:title="Database configuration initialization interface.">
<polygon fill="#bfbfbf" stroke="black" points="626,-112.5 626,-142.5 748,-142.5 748,-112.5 626,-112.5"/>
<text text-anchor="start" x="634" y="-130.5" font-family="Helvetica,sans-Serif" font-size="10.00">src/DatabaseSystems</text>
<text text-anchor="middle" x="687" y="-119.5" font-family="Helvetica,sans-Serif" font-size="10.00">/DatabaseInitializer.h</text>
</a>
</g>
</g>
<!-- Node2 -->
<g id="node2" class="node">
<title>Node2</title>
<g id="a_node2"><a xlink:href="Sdb_8h.html" target="_top" xlink:title=" ">
<polygon fill="white" stroke="black" points="600.5,-56.5 600.5,-75.5 661.5,-75.5 661.5,-56.5 600.5,-56.5"/>
<text text-anchor="middle" x="631" y="-63.5" font-family="Helvetica,sans-Serif" font-size="10.00">src/Sdb.h</text>
</a>
</g>
</g>
<!-- Node1&#45;&gt;Node2 -->
<g id="edge1" class="edge">
<title>Node1&#45;&gt;Node2</title>
<path fill="none" stroke="midnightblue" d="M673.73,-112.4C665.42,-103.58 654.7,-92.18 646.08,-83.02"/>
<polygon fill="midnightblue" stroke="midnightblue" points="648.55,-80.54 639.15,-75.66 643.45,-85.34 648.55,-80.54"/>
</g>
<!-- Node20 -->
<g id="node20" class="node">
<title>Node20</title>
<g id="a_node20"><a xlink:href="cJSON_8h.html" target="_top" xlink:title=" ">
<polygon fill="white" stroke="black" points="946.5,-56.5 946.5,-75.5 1073.5,-75.5 1073.5,-56.5 946.5,-56.5"/>
<text text-anchor="middle" x="1010" y="-63.5" font-family="Helvetica,sans-Serif" font-size="10.00">src/Libs/cJSON/cJSON.h</text>
</a>
</g>
</g>
<!-- Node1&#45;&gt;Node20 -->
<g id="edge19" class="edge">
<title>Node1&#45;&gt;Node20</title>
<path fill="none" stroke="midnightblue" d="M748.13,-115.24C807.31,-104.34 896.28,-87.95 953.75,-77.36"/>
<polygon fill="midnightblue" stroke="midnightblue" points="954.55,-80.77 963.75,-75.52 953.28,-73.89 954.55,-80.77"/>
</g>
<!-- Node3 -->
<g id="node3" class="node">
<title>Node3</title>
<g id="a_node3"><a xlink:title=" ">
<polygon fill="white" stroke="#bfbfbf" points="0,-0.5 0,-19.5 56,-19.5 56,-0.5 0,-0.5"/>
<text text-anchor="middle" x="28" y="-7.5" font-family="Helvetica,sans-Serif" font-size="10.00">assert.h</text>
</a>
</g>
</g>
<!-- Node2&#45;&gt;Node3 -->
<g id="edge2" class="edge">
<title>Node2&#45;&gt;Node3</title>
<path fill="none" stroke="midnightblue" d="M600.43,-64.28C516.49,-61.94 275.39,-52.79 66.13,-19.93"/>
<polygon fill="midnightblue" stroke="midnightblue" points="66.61,-16.46 56.19,-18.35 65.51,-23.38 66.61,-16.46"/>
</g>
<!-- Node4 -->
<g id="node4" class="node">
<title>Node4</title>
<g id="a_node4"><a xlink:title=" ">
<polygon fill="white" stroke="#bfbfbf" points="74.5,-0.5 74.5,-19.5 127.5,-19.5 127.5,-0.5 74.5,-0.5"/>
<text text-anchor="middle" x="101" y="-7.5" font-family="Helvetica,sans-Serif" font-size="10.00">ctype.h</text>
</a>
</g>
</g>
<!-- Node2&#45;&gt;Node4 -->
<g id="edge3" class="edge">
<title>Node2&#45;&gt;Node4</title>
<path fill="none" stroke="midnightblue" d="M600.36,-63.93C523.76,-60.89 317.73,-50.48 137.57,-20.03"/>
<polygon fill="midnightblue" stroke="midnightblue" points="138.1,-16.57 127.66,-18.33 136.92,-23.47 138.1,-16.57"/>
</g>
<!-- Node5 -->
<g id="node5" class="node">
<title>Node5</title>
<g id="a_node5"><a xlink:title=" ">
<polygon fill="white" stroke="#bfbfbf" points="145.5,-0.5 145.5,-19.5 196.5,-19.5 196.5,-0.5 145.5,-0.5"/>
<text text-anchor="middle" x="171" y="-7.5" font-family="Helvetica,sans-Serif" font-size="10.00">errno.h</text>
</a>
</g>
</g>
<!-- Node2&#45;&gt;Node5 -->
<g id="edge4" class="edge">
<title>Node2&#45;&gt;Node5</title>
<path fill="none" stroke="midnightblue" d="M600.29,-63.38C531.41,-59.39 359.26,-47.52 206.55,-20.04"/>
<polygon fill="midnightblue" stroke="midnightblue" points="206.99,-16.56 196.52,-18.21 205.73,-23.45 206.99,-16.56"/>
</g>
<!-- Node6 -->
<g id="node6" class="node">
<title>Node6</title>
<g id="a_node6"><a xlink:title=" ">
<polygon fill="white" stroke="#bfbfbf" points="214.5,-0.5 214.5,-19.5 261.5,-19.5 261.5,-0.5 214.5,-0.5"/>
<text text-anchor="middle" x="238" y="-7.5" font-family="Helvetica,sans-Serif" font-size="10.00">fcntl.h</text>
</a>
</g>
</g>
<!-- Node2&#45;&gt;Node6 -->
<g id="edge5" class="edge">
<title>Node2&#45;&gt;Node6</title>
<path fill="none" stroke="midnightblue" d="M600.32,-62.74C539.33,-57.91 398.43,-45.09 271.56,-20.07"/>
<polygon fill="midnightblue" stroke="midnightblue" points="272.16,-16.62 261.67,-18.08 270.79,-23.48 272.16,-16.62"/>
</g>
<!-- Node7 -->
<g id="node7" class="node">
<title>Node7</title>
<g id="a_node7"><a xlink:title=" ">
<polygon fill="white" stroke="#bfbfbf" points="279.5,-0.5 279.5,-19.5 326.5,-19.5 326.5,-0.5 279.5,-0.5"/>
<text text-anchor="middle" x="303" y="-7.5" font-family="Helvetica,sans-Serif" font-size="10.00">float.h</text>
</a>
</g>
</g>
<!-- Node2&#45;&gt;Node7 -->
<g id="edge6" class="edge">
<title>Node2&#45;&gt;Node7</title>
<path fill="none" stroke="midnightblue" d="M600.09,-61.57C547.68,-55.49 437.92,-41.57 336.47,-20.11"/>
<polygon fill="midnightblue" stroke="midnightblue" points="337.2,-16.69 326.68,-18.01 335.73,-23.53 337.2,-16.69"/>
</g>
<!-- Node8 -->
<g id="node8" class="node">
<title>Node8</title>
<g id="a_node8"><a xlink:title=" ">
<polygon fill="white" stroke="#bfbfbf" points="344.5,-0.5 344.5,-19.5 395.5,-19.5 395.5,-0.5 344.5,-0.5"/>
<text text-anchor="middle" x="370" y="-7.5" font-family="Helvetica,sans-Serif" font-size="10.00">math.h</text>
</a>
</g>
</g>
<!-- Node2&#45;&gt;Node8 -->
<g id="edge7" class="edge">
<title>Node2&#45;&gt;Node8</title>
<path fill="none" stroke="midnightblue" d="M600.39,-59.57C558.55,-52 480.91,-37.47 405.69,-20.29"/>
<polygon fill="midnightblue" stroke="midnightblue" points="406.11,-16.79 395.58,-17.96 404.54,-23.61 406.11,-16.79"/>
</g>
<!-- Node9 -->
<g id="node9" class="node">
<title>Node9</title>
<g id="a_node9"><a xlink:title=" ">
<polygon fill="white" stroke="#bfbfbf" points="413.5,-0.5 413.5,-19.5 476.5,-19.5 476.5,-0.5 413.5,-0.5"/>
<text text-anchor="middle" x="445" y="-7.5" font-family="Helvetica,sans-Serif" font-size="10.00">pthread.h</text>
</a>
</g>
</g>
<!-- Node2&#45;&gt;Node9 -->
<g id="edge8" class="edge">
<title>Node2&#45;&gt;Node9</title>
<path fill="none" stroke="midnightblue" d="M601.53,-56.44C569.83,-47.24 519.27,-32.56 484.23,-22.39"/>
<polygon fill="midnightblue" stroke="midnightblue" points="484.91,-18.94 474.33,-19.52 482.96,-25.67 484.91,-18.94"/>
</g>
<!-- Node10 -->
<g id="node10" class="node">
<title>Node10</title>
<g id="a_node10"><a xlink:title=" ">
<polygon fill="white" stroke="#bfbfbf" points="495,-0.5 495,-19.5 551,-19.5 551,-0.5 495,-0.5"/>
<text text-anchor="middle" x="523" y="-7.5" font-family="Helvetica,sans-Serif" font-size="10.00">stdarg.h</text>
</a>
</g>
</g>
<!-- Node2&#45;&gt;Node10 -->
<g id="edge9" class="edge">
<title>Node2&#45;&gt;Node10</title>
<path fill="none" stroke="midnightblue" d="M613.65,-56.32C596.33,-47.66 569.48,-34.24 549.5,-24.25"/>
<polygon fill="midnightblue" stroke="midnightblue" points="550.82,-21 540.31,-19.65 547.69,-27.26 550.82,-21"/>
</g>
<!-- Node11 -->
<g id="node11" class="node">
<title>Node11</title>
<g id="a_node11"><a xlink:title=" ">
<polygon fill="white" stroke="#bfbfbf" points="569.5,-0.5 569.5,-19.5 622.5,-19.5 622.5,-0.5 569.5,-0.5"/>
<text text-anchor="middle" x="596" y="-7.5" font-family="Helvetica,sans-Serif" font-size="10.00">stdint.h</text>
</a>
</g>
</g>
<!-- Node2&#45;&gt;Node11 -->
<g id="edge10" class="edge">
<title>Node2&#45;&gt;Node11</title>
<path fill="none" stroke="midnightblue" d="M625.22,-56.08C620.33,-48.53 613.17,-37.49 607.17,-28.23"/>
<polygon fill="midnightblue" stroke="midnightblue" points="610.05,-26.24 601.67,-19.75 604.17,-30.05 610.05,-26.24"/>
</g>
<!-- Node12 -->
<g id="node12" class="node">
<title>Node12</title>
<g id="a_node12"><a xlink:title=" ">
<polygon fill="white" stroke="#bfbfbf" points="641,-0.5 641,-19.5 691,-19.5 691,-0.5 641,-0.5"/>
<text text-anchor="middle" x="666" y="-7.5" font-family="Helvetica,sans-Serif" font-size="10.00">stdio.h</text>
</a>
</g>
</g>
<!-- Node2&#45;&gt;Node12 -->
<g id="edge11" class="edge">
<title>Node2&#45;&gt;Node12</title>
<path fill="none" stroke="midnightblue" d="M636.78,-56.08C641.67,-48.53 648.83,-37.49 654.83,-28.23"/>
<polygon fill="midnightblue" stroke="midnightblue" points="657.83,-30.05 660.33,-19.75 651.95,-26.24 657.83,-30.05"/>
</g>
<!-- Node13 -->
<g id="node13" class="node">
<title>Node13</title>
<g id="a_node13"><a xlink:title=" ">
<polygon fill="white" stroke="#bfbfbf" points="709.5,-0.5 709.5,-19.5 762.5,-19.5 762.5,-0.5 709.5,-0.5"/>
<text text-anchor="middle" x="736" y="-7.5" font-family="Helvetica,sans-Serif" font-size="10.00">stdlib.h</text>
</a>
</g>
</g>
<!-- Node2&#45;&gt;Node13 -->
<g id="edge12" class="edge">
<title>Node2&#45;&gt;Node13</title>
<path fill="none" stroke="midnightblue" d="M647.87,-56.32C664.71,-47.66 690.81,-34.24 710.24,-24.25"/>
<polygon fill="midnightblue" stroke="midnightblue" points="711.88,-27.34 719.17,-19.65 708.68,-21.12 711.88,-27.34"/>
</g>
<!-- Node14 -->
<g id="node14" class="node">
<title>Node14</title>
<g id="a_node14"><a xlink:title=" ">
<polygon fill="white" stroke="#bfbfbf" points="780.5,-0.5 780.5,-19.5 833.5,-19.5 833.5,-0.5 780.5,-0.5"/>
<text text-anchor="middle" x="807" y="-7.5" font-family="Helvetica,sans-Serif" font-size="10.00">string.h</text>
</a>
</g>
</g>
<!-- Node2&#45;&gt;Node14 -->
<g id="edge13" class="edge">
<title>Node2&#45;&gt;Node14</title>
<path fill="none" stroke="midnightblue" d="M658.89,-56.44C689.11,-47.17 737.44,-32.34 770.62,-22.16"/>
<polygon fill="midnightblue" stroke="midnightblue" points="771.86,-25.44 780.39,-19.16 769.81,-18.75 771.86,-25.44"/>
</g>
<!-- Node15 -->
<g id="node15" class="node">
<title>Node15</title>
<g id="a_node15"><a xlink:title=" ">
<polygon fill="white" stroke="#bfbfbf" points="851.5,-0.5 851.5,-19.5 928.5,-19.5 928.5,-0.5 851.5,-0.5"/>
<text text-anchor="middle" x="890" y="-7.5" font-family="Helvetica,sans-Serif" font-size="10.00">sys/mman.h</text>
</a>
</g>
</g>
<!-- Node2&#45;&gt;Node15 -->
<g id="edge14" class="edge">
<title>Node2&#45;&gt;Node15</title>
<path fill="none" stroke="midnightblue" d="M661.73,-58.59C706.16,-49.33 788.8,-32.1 841.51,-21.11"/>
<polygon fill="midnightblue" stroke="midnightblue" points="842.24,-24.53 851.31,-19.07 840.81,-17.68 842.24,-24.53"/>
</g>
<!-- Node16 -->
<g id="node16" class="node">
<title>Node16</title>
<g id="a_node16"><a xlink:title=" ">
<polygon fill="white" stroke="#bfbfbf" points="947,-0.5 947,-19.5 1011,-19.5 1011,-0.5 947,-0.5"/>
<text text-anchor="middle" x="979" y="-7.5" font-family="Helvetica,sans-Serif" font-size="10.00">sys/stat.h</text>
</a>
</g>
</g>
<!-- Node2&#45;&gt;Node16 -->
<g id="edge15" class="edge">
<title>Node2&#45;&gt;Node16</title>
<path fill="none" stroke="midnightblue" d="M661.62,-61.24C715.3,-54.49 830.09,-39.36 936.84,-20.11"/>
<polygon fill="midnightblue" stroke="midnightblue" points="937.6,-23.52 946.81,-18.29 936.35,-16.64 937.6,-23.52"/>
</g>
<!-- Node17 -->
<g id="node17" class="node">
<title>Node17</title>
<g id="a_node17"><a xlink:title=" ">
<polygon fill="white" stroke="#bfbfbf" points="1029,-0.5 1029,-19.5 1077,-19.5 1077,-0.5 1029,-0.5"/>
<text text-anchor="middle" x="1053" y="-7.5" font-family="Helvetica,sans-Serif" font-size="10.00">time.h</text>
</a>
</g>
</g>
<!-- Node2&#45;&gt;Node17 -->
<g id="edge16" class="edge">
<title>Node2&#45;&gt;Node17</title>
<path fill="none" stroke="midnightblue" d="M661.5,-63.05C725.86,-58.59 880.36,-46.12 1019,-19.92"/>
<polygon fill="midnightblue" stroke="midnightblue" points="1019.79,-23.33 1028.95,-18.01 1018.47,-16.46 1019.79,-23.33"/>
</g>
<!-- Node18 -->
<g id="node18" class="node">
<title>Node18</title>
<g id="a_node18"><a xlink:title=" ">
<polygon fill="white" stroke="#bfbfbf" points="1095,-0.5 1095,-19.5 1151,-19.5 1151,-0.5 1095,-0.5"/>
<text text-anchor="middle" x="1123" y="-7.5" font-family="Helvetica,sans-Serif" font-size="10.00">unistd.h</text>
</a>
</g>
</g>
<!-- Node2&#45;&gt;Node18 -->
<g id="edge17" class="edge">
<title>Node2&#45;&gt;Node18</title>
<path fill="none" stroke="midnightblue" d="M661.55,-63.46C733.56,-59.51 919.69,-47.48 1084.48,-20.03"/>
<polygon fill="midnightblue" stroke="midnightblue" points="1085.53,-23.41 1094.8,-18.29 1084.36,-16.5 1085.53,-23.41"/>
</g>
<!-- Node19 -->
<g id="node19" class="node">
<title>Node19</title>
<g id="a_node19"><a xlink:title=" ">
<polygon fill="white" stroke="#bfbfbf" points="1169,-0.5 1169,-19.5 1231,-19.5 1231,-0.5 1169,-0.5"/>
<text text-anchor="middle" x="1200" y="-7.5" font-family="Helvetica,sans-Serif" font-size="10.00">stdbool.h</text>
</a>
</g>
</g>
<!-- Node2&#45;&gt;Node19 -->
<g id="edge18" class="edge">
<title>Node2&#45;&gt;Node19</title>
<path fill="none" stroke="midnightblue" d="M661.59,-63.86C741.66,-60.56 964.11,-49.41 1158.52,-20.03"/>
<polygon fill="midnightblue" stroke="midnightblue" points="1159.28,-23.46 1168.63,-18.48 1158.22,-16.54 1159.28,-23.46"/>
</g>
<!-- Node21 -->
<g id="node21" class="node">
<title>Node21</title>
<g id="a_node21"><a xlink:title=" ">
<polygon fill="white" stroke="#bfbfbf" points="1249,-0.5 1249,-19.5 1305,-19.5 1305,-0.5 1249,-0.5"/>
<text text-anchor="middle" x="1277" y="-7.5" font-family="Helvetica,sans-Serif" font-size="10.00">stddef.h</text>
</a>
</g>
</g>
<!-- Node20&#45;&gt;Node21 -->
<g id="edge20" class="edge">
<title>Node20&#45;&gt;Node21</title>
<path fill="none" stroke="midnightblue" d="M1056.82,-56.48C1101.21,-48.27 1169.98,-35.16 1238.63,-20.23"/>
<polygon fill="midnightblue" stroke="midnightblue" points="1239.73,-23.57 1248.75,-18.01 1238.23,-16.73 1239.73,-23.57"/>
</g>
</g>
</svg>
