<?xml version="1.0" encoding="UTF-8" standalone="no"?>
<!DOCTYPE svg PUBLIC "-//W3C//DTD SVG 1.1//EN"
 "http://www.w3.org/Graphics/SVG/1.1/DTD/svg11.dtd">
<!-- Generated by graphviz version 2.43.0 (0)
 -->
<!-- Title: src Pages: 1 -->
<svg width="324pt" height="292pt"
 viewBox="0.00 0.00 324.00 292.00" xmlns="http://www.w3.org/2000/svg" xmlns:xlink="http://www.w3.org/1999/xlink">
<g id="graph0" class="graph" transform="scale(1 1) rotate(0) translate(4 288)">
<title>src</title>
<polygon fill="white" stroke="transparent" points="-4,4 -4,-288 320,-288 320,4 -4,4"/>
<g id="clust1" class="cluster">
<title>clusterdir_68267d1309a1af8e8297ef4c3efbcdba</title>
<g id="a_clust1"><a xlink:href="dir_68267d1309a1af8e8297ef4c3efbcdba.html" target="_top">
<polygon fill="#eeeeff" stroke="black" points="8,-8 8,-276 308,-276 308,-8 8,-8"/>
</a>
</g>
</g>
<!-- dir_68267d1309a1af8e8297ef4c3efbcdba -->
<g id="node1" class="node">
<title>dir_68267d1309a1af8e8297ef4c3efbcdba</title>
<text text-anchor="middle" x="268" y="-247.5" font-family="Helvetica,sans-Serif" font-size="10.00">src</text>
</g>
<!-- dir_ba210d1fa67db7bee1bb22e0a3c11d9f -->
<g id="node2" class="node">
<title>dir_ba210d1fa67db7bee1bb22e0a3c11d9f</title>
<g id="a_node2"><a xlink:href="dir_ba210d1fa67db7bee1bb22e0a3c11d9f.html" target="_top" xlink:title="Common">
<polygon fill="white" stroke="black" points="158.5,-52 97.5,-52 97.5,-16 158.5,-16 158.5,-52"/>
<text text-anchor="middle" x="128" y="-31.5" font-family="Helvetica,sans-Serif" font-size="10.00">Common</text>
</a>
</g>
</g>
<!-- dir_5648bdb9175c8a60e59f8d18b6e918eb -->
<g id="node3" class="node">
<title>dir_5648bdb9175c8a60e59f8d18b6e918eb</title>
<g id="a_node3"><a xlink:href="dir_5648bdb9175c8a60e59f8d18b6e918eb.html" target="_top" xlink:title="CommProtocols">
<polygon fill="white" stroke="black" points="208,-124 114,-124 114,-88 208,-88 208,-124"/>
<text text-anchor="middle" x="161" y="-103.5" font-family="Helvetica,sans-Serif" font-size="10.00">CommProtocols</text>
</a>
</g>
</g>
<!-- dir_5648bdb9175c8a60e59f8d18b6e918eb&#45;&gt;dir_ba210d1fa67db7bee1bb22e0a3c11d9f -->
<g id="edge1" class="edge">
<title>dir_5648bdb9175c8a60e59f8d18b6e918eb&#45;&gt;dir_ba210d1fa67db7bee1bb22e0a3c11d9f</title>
<path fill="none" stroke="black" d="M152.84,-87.7C149.09,-79.73 144.55,-70.1 140.38,-61.26"/>
<polygon fill="black" stroke="black" points="143.49,-59.66 136.06,-52.1 137.16,-62.64 143.49,-59.66"/>
<g id="a_edge1&#45;headlabel"><a xlink:href="dir_000004_000003.html" target="_top" xlink:title="5">
<text text-anchor="middle" x="147.59" y="-59.2" font-family="Helvetica,sans-Serif" font-size="10.00">5</text>
</a>
</g>
</g>
<!-- dir_0a9f4019e53e49156bb57e7356c1bcfc -->
<g id="node4" class="node">
<title>dir_0a9f4019e53e49156bb57e7356c1bcfc</title>
<g id="a_node4"><a xlink:href="dir_0a9f4019e53e49156bb57e7356c1bcfc.html" target="_top" xlink:title="DatabaseSystems">
<polygon fill="white" stroke="black" points="195.5,-196 90.5,-196 90.5,-160 195.5,-160 195.5,-196"/>
<text text-anchor="middle" x="143" y="-175.5" font-family="Helvetica,sans-Serif" font-size="10.00">DatabaseSystems</text>
</a>
</g>
</g>
<!-- dir_0a9f4019e53e49156bb57e7356c1bcfc&#45;&gt;dir_ba210d1fa67db7bee1bb22e0a3c11d9f -->
<g id="edge8" class="edge">
<title>dir_0a9f4019e53e49156bb57e7356c1bcfc&#45;&gt;dir_ba210d1fa67db7bee1bb22e0a3c11d9f</title>
<path fill="none" stroke="black" d="M126.54,-159.92C118.35,-150.22 109.3,-137.37 105,-124 98.32,-103.23 105.33,-79.27 113.32,-61.44"/>
<polygon fill="black" stroke="black" points="116.57,-62.76 117.77,-52.23 110.27,-59.71 116.57,-62.76"/>
<g id="a_edge8&#45;headlabel"><a xlink:href="dir_000007_000003.html" target="_top" xlink:title="4">
<text text-anchor="middle" x="117.56" y="-64.73" font-family="Helvetica,sans-Serif" font-size="10.00">4</text>
</a>
</g>
</g>
<!-- dir_2308787cffff41de07f012cfe0ae8a2d -->
<g id="node6" class="node">
<title>dir_2308787cffff41de07f012cfe0ae8a2d</title>
<g id="a_node6"><a xlink:href="dir_2308787cffff41de07f012cfe0ae8a2d.html" target="_top" xlink:title="DevUtils">
<polygon fill="white" stroke="black" points="75.5,-124 16.5,-124 16.5,-88 75.5,-88 75.5,-124"/>
<text text-anchor="middle" x="46" y="-103.5" font-family="Helvetica,sans-Serif" font-size="10.00">DevUtils</text>
</a>
</g>
</g>
<!-- dir_0a9f4019e53e49156bb57e7356c1bcfc&#45;&gt;dir_2308787cffff41de07f012cfe0ae8a2d -->
<g id="edge7" class="edge">
<title>dir_0a9f4019e53e49156bb57e7356c1bcfc&#45;&gt;dir_2308787cffff41de07f012cfe0ae8a2d</title>
<path fill="none" stroke="black" d="M119.02,-159.7C106.69,-150.8 91.48,-139.82 78.15,-130.2"/>
<polygon fill="black" stroke="black" points="79.86,-127.12 69.7,-124.1 75.76,-132.79 79.86,-127.12"/>
<g id="a_edge7&#45;headlabel"><a xlink:href="dir_000007_000008.html" target="_top" xlink:title="1">
<text text-anchor="middle" x="84.44" y="-124.42" font-family="Helvetica,sans-Serif" font-size="10.00">1</text>
</a>
</g>
</g>
<!-- dir_c565dd4fd82bef78a100487935d458e7 -->
<g id="node7" class="node">
<title>dir_c565dd4fd82bef78a100487935d458e7</title>
<g id="a_node7"><a xlink:href="dir_c565dd4fd82bef78a100487935d458e7.html" target="_top" xlink:title="Libs">
<polygon fill="white" stroke="red" points="280,-124 226,-124 226,-88 280,-88 280,-124"/>
<text text-anchor="middle" x="253" y="-103.5" font-family="Helvetica,sans-Serif" font-size="10.00">Libs</text>
</a>
</g>
</g>
<!-- dir_0a9f4019e53e49156bb57e7356c1bcfc&#45;&gt;dir_c565dd4fd82bef78a100487935d458e7 -->
<g id="edge9" class="edge">
<title>dir_0a9f4019e53e49156bb57e7356c1bcfc&#45;&gt;dir_c565dd4fd82bef78a100487935d458e7</title>
<path fill="none" stroke="black" d="M169.91,-159.88C184.16,-150.81 201.85,-139.55 217.24,-129.76"/>
<polygon fill="black" stroke="black" points="219.43,-132.51 225.99,-124.19 215.67,-126.61 219.43,-132.51"/>
<g id="a_edge9&#45;headlabel"><a xlink:href="dir_000007_000009.html" target="_top" xlink:title="4">
<text text-anchor="middle" x="217.92" y="-134.34" font-family="Helvetica,sans-Serif" font-size="10.00">4</text>
</a>
</g>
</g>
<!-- dir_2985f10e73214164e79e64325c3fa3d3 -->
<g id="node5" class="node">
<title>dir_2985f10e73214164e79e64325c3fa3d3</title>
<g id="a_node5"><a xlink:href="dir_2985f10e73214164e79e64325c3fa3d3.html" target="_top" xlink:title="DataHandlers">
<polygon fill="white" stroke="red" points="188.5,-268 105.5,-268 105.5,-232 188.5,-232 188.5,-268"/>
<text text-anchor="middle" x="147" y="-247.5" font-family="Helvetica,sans-Serif" font-size="10.00">DataHandlers</text>
</a>
</g>
</g>
<!-- dir_2985f10e73214164e79e64325c3fa3d3&#45;&gt;dir_ba210d1fa67db7bee1bb22e0a3c11d9f -->
<g id="edge3" class="edge">
<title>dir_2985f10e73214164e79e64325c3fa3d3&#45;&gt;dir_ba210d1fa67db7bee1bb22e0a3c11d9f</title>
<path fill="none" stroke="black" d="M182.6,-231.84C236.76,-203.38 329.53,-144.01 289,-88 261.8,-50.41 207.03,-39.02 168.97,-35.81"/>
<polygon fill="black" stroke="black" points="168.93,-32.3 158.71,-35.11 168.45,-39.29 168.93,-32.3"/>
<g id="a_edge3&#45;headlabel"><a xlink:href="dir_000005_000003.html" target="_top" xlink:title="10">
<text text-anchor="middle" x="172.71" y="-27.22" font-family="Helvetica,sans-Serif" font-size="10.00">10</text>
</a>
</g>
</g>
<!-- dir_2985f10e73214164e79e64325c3fa3d3&#45;&gt;dir_0a9f4019e53e49156bb57e7356c1bcfc -->
<g id="edge6" class="edge">
<title>dir_2985f10e73214164e79e64325c3fa3d3&#45;&gt;dir_0a9f4019e53e49156bb57e7356c1bcfc</title>
<path fill="none" stroke="black" d="M146.01,-231.7C145.57,-223.98 145.04,-214.71 144.55,-206.11"/>
<polygon fill="black" stroke="black" points="148.04,-205.89 143.98,-196.1 141.05,-206.29 148.04,-205.89"/>
<g id="a_edge6&#45;headlabel"><a xlink:href="dir_000005_000007.html" target="_top" xlink:title="1">
<text text-anchor="middle" x="151.08" y="-206.82" font-family="Helvetica,sans-Serif" font-size="10.00">1</text>
</a>
</g>
</g>
<!-- dir_2985f10e73214164e79e64325c3fa3d3&#45;&gt;dir_2308787cffff41de07f012cfe0ae8a2d -->
<g id="edge5" class="edge">
<title>dir_2985f10e73214164e79e64325c3fa3d3&#45;&gt;dir_2308787cffff41de07f012cfe0ae8a2d</title>
<path fill="none" stroke="black" d="M120.24,-231.92C107.3,-222.59 92.37,-210.06 82,-196 68.14,-177.21 58.67,-152.34 52.94,-133.67"/>
<polygon fill="black" stroke="black" points="56.28,-132.64 50.13,-124.01 49.56,-134.59 56.28,-132.64"/>
<g id="a_edge5&#45;headlabel"><a xlink:href="dir_000005_000008.html" target="_top" xlink:title="2">
<text text-anchor="middle" x="60.01" y="-132.8" font-family="Helvetica,sans-Serif" font-size="10.00">2</text>
</a>
</g>
</g>
<!-- dir_2985f10e73214164e79e64325c3fa3d3&#45;&gt;dir_c565dd4fd82bef78a100487935d458e7 -->
<g id="edge4" class="edge">
<title>dir_2985f10e73214164e79e64325c3fa3d3&#45;&gt;dir_c565dd4fd82bef78a100487935d458e7</title>
<path fill="none" stroke="black" d="M169.06,-231.9C180.66,-222.19 194.6,-209.34 205,-196 220.1,-176.64 233.03,-151.87 241.65,-133.38"/>
<polygon fill="black" stroke="black" points="244.92,-134.64 245.87,-124.09 238.55,-131.74 244.92,-134.64"/>
<g id="a_edge4&#45;headlabel"><a xlink:href="dir_000005_000009.html" target="_top" xlink:title="4">
<text text-anchor="middle" x="246.02" y="-136.58" font-family="Helvetica,sans-Serif" font-size="10.00">4</text>
</a>
</g>
</g>
<!-- dir_2308787cffff41de07f012cfe0ae8a2d&#45;&gt;dir_ba210d1fa67db7bee1bb22e0a3c11d9f -->
<g id="edge2" class="edge">
<title>dir_2308787cffff41de07f012cfe0ae8a2d&#45;&gt;dir_ba210d1fa67db7bee1bb22e0a3c11d9f</title>
<path fill="none" stroke="black" d="M66.27,-87.7C76.5,-78.97 89.06,-68.24 100.18,-58.75"/>
<polygon fill="black" stroke="black" points="102.63,-61.26 107.96,-52.1 98.09,-55.94 102.63,-61.26"/>
<g id="a_edge2&#45;headlabel"><a xlink:href="dir_000008_000003.html" target="_top" xlink:title="7">
<text text-anchor="middle" x="101.74" y="-63.25" font-family="Helvetica,sans-Serif" font-size="10.00">7</text>
</a>
</g>
</g>
</g>
</svg>
