<?xml version="1.0" encoding="UTF-8" standalone="no"?>
<!DOCTYPE svg PUBLIC "-//W3C//DTD SVG 1.1//EN"
 "http://www.w3.org/Graphics/SVG/1.1/DTD/svg11.dtd">
<!-- Generated by graphviz version 2.43.0 (0)
 -->
<!-- Title: src/DataHandlers/ModbusWithPostgres Pages: 1 -->
<svg width="210pt" height="295pt"
 viewBox="0.00 0.00 209.50 295.00" xmlns="http://www.w3.org/2000/svg" xmlns:xlink="http://www.w3.org/1999/xlink">
<g id="graph0" class="graph" transform="scale(1 1) rotate(0) translate(4 291)">
<title>src/DataHandlers/ModbusWithPostgres</title>
<polygon fill="white" stroke="transparent" points="-4,4 -4,-291 205.5,-291 205.5,4 -4,4"/>
<g id="clust1" class="cluster">
<title>clusterdir_2985f10e73214164e79e64325c3fa3d3</title>
<g id="a_clust1"><a xlink:href="dir_2985f10e73214164e79e64325c3fa3d3.html" target="_top" xlink:title="DataHandlers">
<polygon fill="#ddddee" stroke="black" points="57.5,-208 57.5,-279 193.5,-279 193.5,-208 57.5,-208"/>
<text text-anchor="middle" x="125.5" y="-267" font-family="Helvetica,sans-Serif" font-size="10.00">DataHandlers</text>
</a>
</g>
</g>
<!-- dir_62fe5d835900518d4ef58eb94e0cb468 -->
<g id="node1" class="node">
<title>dir_62fe5d835900518d4ef58eb94e0cb468</title>
<g id="a_node1"><a xlink:href="dir_62fe5d835900518d4ef58eb94e0cb468.html" target="_top" xlink:title="ModbusWithPostgres">
<polygon fill="#eeeeff" stroke="black" points="185,-252 66,-252 66,-216 185,-216 185,-252"/>
<text text-anchor="middle" x="125.5" y="-231.5" font-family="Helvetica,sans-Serif" font-size="10.00">ModbusWithPostgres</text>
</a>
</g>
</g>
<!-- dir_0a9f4019e53e49156bb57e7356c1bcfc -->
<g id="node2" class="node">
<title>dir_0a9f4019e53e49156bb57e7356c1bcfc</title>
<g id="a_node2"><a xlink:href="dir_0a9f4019e53e49156bb57e7356c1bcfc.html" target="_top" xlink:title="DatabaseSystems">
<polygon fill="none" stroke="black" points="138,-180 33,-180 33,-144 138,-144 138,-180"/>
<text text-anchor="middle" x="85.5" y="-159.5" font-family="Helvetica,sans-Serif" font-size="10.00">DatabaseSystems</text>
</a>
</g>
</g>
<!-- dir_62fe5d835900518d4ef58eb94e0cb468&#45;&gt;dir_0a9f4019e53e49156bb57e7356c1bcfc -->
<g id="edge5" class="edge">
<title>dir_62fe5d835900518d4ef58eb94e0cb468&#45;&gt;dir_0a9f4019e53e49156bb57e7356c1bcfc</title>
<path fill="none" stroke="black" d="M115.61,-215.7C111.01,-207.64 105.44,-197.89 100.35,-188.98"/>
<polygon fill="black" stroke="black" points="103.27,-187.05 95.27,-180.1 97.2,-190.52 103.27,-187.05"/>
<g id="a_edge5&#45;headlabel"><a xlink:href="dir_000006_000007.html" target="_top" xlink:title="1">
<text text-anchor="middle" x="107.52" y="-186.26" font-family="Helvetica,sans-Serif" font-size="10.00">1</text>
</a>
</g>
</g>
<!-- dir_2308787cffff41de07f012cfe0ae8a2d -->
<g id="node3" class="node">
<title>dir_2308787cffff41de07f012cfe0ae8a2d</title>
<g id="a_node3"><a xlink:href="dir_2308787cffff41de07f012cfe0ae8a2d.html" target="_top" xlink:title="DevUtils">
<polygon fill="none" stroke="black" points="59,-108 0,-108 0,-72 59,-72 59,-108"/>
<text text-anchor="middle" x="29.5" y="-87.5" font-family="Helvetica,sans-Serif" font-size="10.00">DevUtils</text>
</a>
</g>
</g>
<!-- dir_62fe5d835900518d4ef58eb94e0cb468&#45;&gt;dir_2308787cffff41de07f012cfe0ae8a2d -->
<g id="edge6" class="edge">
<title>dir_62fe5d835900518d4ef58eb94e0cb468&#45;&gt;dir_2308787cffff41de07f012cfe0ae8a2d</title>
<path fill="none" stroke="black" d="M67.43,-215.96C50.27,-207.92 33.44,-196.37 23.5,-180 12.24,-161.46 15.1,-136.57 19.99,-117.82"/>
<polygon fill="black" stroke="black" points="23.38,-118.7 22.85,-108.12 16.67,-116.72 23.38,-118.7"/>
<g id="a_edge6&#45;headlabel"><a xlink:href="dir_000006_000008.html" target="_top" xlink:title="2">
<text text-anchor="middle" x="25.09" y="-120.45" font-family="Helvetica,sans-Serif" font-size="10.00">2</text>
</a>
</g>
</g>
<!-- dir_ba210d1fa67db7bee1bb22e0a3c11d9f -->
<g id="node4" class="node">
<title>dir_ba210d1fa67db7bee1bb22e0a3c11d9f</title>
<g id="a_node4"><a xlink:href="dir_ba210d1fa67db7bee1bb22e0a3c11d9f.html" target="_top" xlink:title="Common">
<polygon fill="none" stroke="black" points="118,-36 57,-36 57,0 118,0 118,-36"/>
<text text-anchor="middle" x="87.5" y="-15.5" font-family="Helvetica,sans-Serif" font-size="10.00">Common</text>
</a>
</g>
</g>
<!-- dir_62fe5d835900518d4ef58eb94e0cb468&#45;&gt;dir_ba210d1fa67db7bee1bb22e0a3c11d9f -->
<g id="edge7" class="edge">
<title>dir_62fe5d835900518d4ef58eb94e0cb468&#45;&gt;dir_ba210d1fa67db7bee1bb22e0a3c11d9f</title>
<path fill="none" stroke="black" d="M140.8,-215.61C165.74,-185.03 209.71,-120.3 181.5,-72 169.89,-52.12 147.76,-39.11 127.89,-30.96"/>
<polygon fill="black" stroke="black" points="128.97,-27.63 118.38,-27.34 126.48,-34.17 128.97,-27.63"/>
<g id="a_edge7&#45;headlabel"><a xlink:href="dir_000006_000003.html" target="_top" xlink:title="8">
<text text-anchor="middle" x="133.34" y="-23.75" font-family="Helvetica,sans-Serif" font-size="10.00">8</text>
</a>
</g>
</g>
<!-- dir_c565dd4fd82bef78a100487935d458e7 -->
<g id="node5" class="node">
<title>dir_c565dd4fd82bef78a100487935d458e7</title>
<g id="a_node5"><a xlink:href="dir_c565dd4fd82bef78a100487935d458e7.html" target="_top" xlink:title="Libs">
<polygon fill="white" stroke="red" points="172.5,-108 118.5,-108 118.5,-72 172.5,-72 172.5,-108"/>
<text text-anchor="middle" x="145.5" y="-87.5" font-family="Helvetica,sans-Serif" font-size="10.00">Libs</text>
</a>
</g>
</g>
<!-- dir_62fe5d835900518d4ef58eb94e0cb468&#45;&gt;dir_c565dd4fd82bef78a100487935d458e7 -->
<g id="edge8" class="edge">
<title>dir_62fe5d835900518d4ef58eb94e0cb468&#45;&gt;dir_c565dd4fd82bef78a100487935d458e7</title>
<path fill="none" stroke="black" d="M134.22,-215.83C138.87,-205.69 144.12,-192.44 146.5,-180 150.41,-159.54 149.92,-135.95 148.59,-118.2"/>
<polygon fill="black" stroke="black" points="152.07,-117.89 147.7,-108.24 145.1,-118.51 152.07,-117.89"/>
<g id="a_edge8&#45;headlabel"><a xlink:href="dir_000006_000009.html" target="_top" xlink:title="2">
<text text-anchor="middle" x="155.22" y="-118.72" font-family="Helvetica,sans-Serif" font-size="10.00">2</text>
</a>
</g>
</g>
<!-- dir_0a9f4019e53e49156bb57e7356c1bcfc&#45;&gt;dir_2308787cffff41de07f012cfe0ae8a2d -->
<g id="edge2" class="edge">
<title>dir_0a9f4019e53e49156bb57e7356c1bcfc&#45;&gt;dir_2308787cffff41de07f012cfe0ae8a2d</title>
<path fill="none" stroke="black" d="M71.66,-143.7C65.01,-135.39 56.92,-125.28 49.61,-116.14"/>
<polygon fill="black" stroke="black" points="52.16,-113.73 43.18,-108.1 46.7,-118.1 52.16,-113.73"/>
<g id="a_edge2&#45;headlabel"><a xlink:href="dir_000007_000008.html" target="_top" xlink:title="1">
<text text-anchor="middle" x="56.63" y="-112.26" font-family="Helvetica,sans-Serif" font-size="10.00">1</text>
</a>
</g>
</g>
<!-- dir_0a9f4019e53e49156bb57e7356c1bcfc&#45;&gt;dir_ba210d1fa67db7bee1bb22e0a3c11d9f -->
<g id="edge3" class="edge">
<title>dir_0a9f4019e53e49156bb57e7356c1bcfc&#45;&gt;dir_ba210d1fa67db7bee1bb22e0a3c11d9f</title>
<path fill="none" stroke="black" d="M85.74,-143.87C86.08,-119.67 86.71,-75.21 87.11,-46.39"/>
<polygon fill="black" stroke="black" points="90.62,-46.24 87.26,-36.19 83.62,-46.14 90.62,-46.24"/>
<g id="a_edge3&#45;headlabel"><a xlink:href="dir_000007_000003.html" target="_top" xlink:title="4">
<text text-anchor="middle" x="93.41" y="-47.37" font-family="Helvetica,sans-Serif" font-size="10.00">4</text>
</a>
</g>
</g>
<!-- dir_0a9f4019e53e49156bb57e7356c1bcfc&#45;&gt;dir_c565dd4fd82bef78a100487935d458e7 -->
<g id="edge4" class="edge">
<title>dir_0a9f4019e53e49156bb57e7356c1bcfc&#45;&gt;dir_c565dd4fd82bef78a100487935d458e7</title>
<path fill="none" stroke="black" d="M100.33,-143.7C107.52,-135.3 116.3,-125.07 124.19,-115.86"/>
<polygon fill="black" stroke="black" points="126.99,-117.97 130.84,-108.1 121.67,-113.42 126.99,-117.97"/>
<g id="a_edge4&#45;headlabel"><a xlink:href="dir_000007_000009.html" target="_top" xlink:title="4">
<text text-anchor="middle" x="126.81" y="-120.05" font-family="Helvetica,sans-Serif" font-size="10.00">4</text>
</a>
</g>
</g>
<!-- dir_2308787cffff41de07f012cfe0ae8a2d&#45;&gt;dir_ba210d1fa67db7bee1bb22e0a3c11d9f -->
<g id="edge1" class="edge">
<title>dir_2308787cffff41de07f012cfe0ae8a2d&#45;&gt;dir_ba210d1fa67db7bee1bb22e0a3c11d9f</title>
<path fill="none" stroke="black" d="M43.84,-71.7C50.79,-63.3 59.27,-53.07 66.9,-43.86"/>
<polygon fill="black" stroke="black" points="69.64,-46.04 73.33,-36.1 64.25,-41.57 69.64,-46.04"/>
<g id="a_edge1&#45;headlabel"><a xlink:href="dir_000008_000003.html" target="_top" xlink:title="7">
<text text-anchor="middle" x="69.54" y="-48.12" font-family="Helvetica,sans-Serif" font-size="10.00">7</text>
</a>
</g>
</g>
</g>
</svg>
