<?xml version="1.0" encoding="UTF-8" standalone="no"?>
<!DOCTYPE svg PUBLIC "-//W3C//DTD SVG 1.1//EN"
 "http://www.w3.org/Graphics/SVG/1.1/DTD/svg11.dtd">
<!-- Generated by graphviz version 2.43.0 (0)
 -->
<!-- Title: src/DevUtils Pages: 1 -->
<svg width="102pt" height="167pt"
 viewBox="0.00 0.00 102.00 167.00" xmlns="http://www.w3.org/2000/svg" xmlns:xlink="http://www.w3.org/1999/xlink">
<g id="graph0" class="graph" transform="scale(1 1) rotate(0) translate(4 163)">
<title>src/DevUtils</title>
<polygon fill="white" stroke="transparent" points="-4,4 -4,-163 98,-163 98,4 -4,4"/>
<g id="clust1" class="cluster">
<title>clusterdir_68267d1309a1af8e8297ef4c3efbcdba</title>
<g id="a_clust1"><a xlink:href="dir_68267d1309a1af8e8297ef4c3efbcdba.html" target="_top" xlink:title="src">
<polygon fill="#ddddee" stroke="black" points="8,-8 8,-151 86,-151 86,-8 8,-8"/>
<text text-anchor="middle" x="47" y="-139" font-family="Helvetica,sans-Serif" font-size="10.00">src</text>
</a>
</g>
</g>
<!-- dir_ba210d1fa67db7bee1bb22e0a3c11d9f -->
<g id="node1" class="node">
<title>dir_ba210d1fa67db7bee1bb22e0a3c11d9f</title>
<g id="a_node1"><a xlink:href="dir_ba210d1fa67db7bee1bb22e0a3c11d9f.html" target="_top" xlink:title="Common">
<polygon fill="none" stroke="black" points="77.5,-52 16.5,-52 16.5,-16 77.5,-16 77.5,-52"/>
<text text-anchor="middle" x="47" y="-31.5" font-family="Helvetica,sans-Serif" font-size="10.00">Common</text>
</a>
</g>
</g>
<!-- dir_2308787cffff41de07f012cfe0ae8a2d -->
<g id="node2" class="node">
<title>dir_2308787cffff41de07f012cfe0ae8a2d</title>
<g id="a_node2"><a xlink:href="dir_2308787cffff41de07f012cfe0ae8a2d.html" target="_top" xlink:title="DevUtils">
<polygon fill="#eeeeff" stroke="black" points="76.5,-124 17.5,-124 17.5,-88 76.5,-88 76.5,-124"/>
<text text-anchor="middle" x="47" y="-103.5" font-family="Helvetica,sans-Serif" font-size="10.00">DevUtils</text>
</a>
</g>
</g>
<!-- dir_2308787cffff41de07f012cfe0ae8a2d&#45;&gt;dir_ba210d1fa67db7bee1bb22e0a3c11d9f -->
<g id="edge1" class="edge">
<title>dir_2308787cffff41de07f012cfe0ae8a2d&#45;&gt;dir_ba210d1fa67db7bee1bb22e0a3c11d9f</title>
<path fill="none" stroke="black" d="M47,-87.7C47,-79.98 47,-70.71 47,-62.11"/>
<polygon fill="black" stroke="black" points="50.5,-62.1 47,-52.1 43.5,-62.1 50.5,-62.1"/>
<g id="a_edge1&#45;headlabel"><a xlink:href="dir_000008_000003.html" target="_top" xlink:title="7">
<text text-anchor="middle" x="53.34" y="-63.2" font-family="Helvetica,sans-Serif" font-size="10.00">7</text>
</a>
</g>
</g>
</g>
</svg>
