<?xml version="1.0" encoding="UTF-8" standalone="no"?>
<!DOCTYPE svg PUBLIC "-//W3C//DTD SVG 1.1//EN"
 "http://www.w3.org/Graphics/SVG/1.1/DTD/svg11.dtd">
<!-- Generated by graphviz version 2.43.0 (0)
 -->
<!-- Title: src/DatabaseSystems Pages: 1 -->
<svg width="192pt" height="239pt"
 viewBox="0.00 0.00 192.00 239.00" xmlns="http://www.w3.org/2000/svg" xmlns:xlink="http://www.w3.org/1999/xlink">
<g id="graph0" class="graph" transform="scale(1 1) rotate(0) translate(4 235)">
<title>src/DatabaseSystems</title>
<polygon fill="white" stroke="transparent" points="-4,4 -4,-235 188,-235 188,4 -4,4"/>
<g id="clust1" class="cluster">
<title>clusterdir_68267d1309a1af8e8297ef4c3efbcdba</title>
<g id="a_clust1"><a xlink:href="dir_68267d1309a1af8e8297ef4c3efbcdba.html" target="_top" xlink:title="src">
<polygon fill="#ddddee" stroke="black" points="8,-8 8,-223 176,-223 176,-8 8,-8"/>
<text text-anchor="middle" x="92" y="-211" font-family="Helvetica,sans-Serif" font-size="10.00">src</text>
</a>
</g>
</g>
<!-- dir_2308787cffff41de07f012cfe0ae8a2d -->
<g id="node1" class="node">
<title>dir_2308787cffff41de07f012cfe0ae8a2d</title>
<g id="a_node1"><a xlink:href="dir_2308787cffff41de07f012cfe0ae8a2d.html" target="_top" xlink:title="DevUtils">
<polygon fill="none" stroke="black" points="75.5,-124 16.5,-124 16.5,-88 75.5,-88 75.5,-124"/>
<text text-anchor="middle" x="46" y="-103.5" font-family="Helvetica,sans-Serif" font-size="10.00">DevUtils</text>
</a>
</g>
</g>
<!-- dir_ba210d1fa67db7bee1bb22e0a3c11d9f -->
<g id="node2" class="node">
<title>dir_ba210d1fa67db7bee1bb22e0a3c11d9f</title>
<g id="a_node2"><a xlink:href="dir_ba210d1fa67db7bee1bb22e0a3c11d9f.html" target="_top" xlink:title="Common">
<polygon fill="none" stroke="black" points="101.5,-52 40.5,-52 40.5,-16 101.5,-16 101.5,-52"/>
<text text-anchor="middle" x="71" y="-31.5" font-family="Helvetica,sans-Serif" font-size="10.00">Common</text>
</a>
</g>
</g>
<!-- dir_2308787cffff41de07f012cfe0ae8a2d&#45;&gt;dir_ba210d1fa67db7bee1bb22e0a3c11d9f -->
<g id="edge1" class="edge">
<title>dir_2308787cffff41de07f012cfe0ae8a2d&#45;&gt;dir_ba210d1fa67db7bee1bb22e0a3c11d9f</title>
<path fill="none" stroke="black" d="M52.18,-87.7C55,-79.81 58.39,-70.3 61.52,-61.55"/>
<polygon fill="black" stroke="black" points="64.82,-62.7 64.89,-52.1 58.23,-60.34 64.82,-62.7"/>
<g id="a_edge1&#45;headlabel"><a xlink:href="dir_000008_000003.html" target="_top" xlink:title="7">
<text text-anchor="middle" x="66.29" y="-64.54" font-family="Helvetica,sans-Serif" font-size="10.00">7</text>
</a>
</g>
</g>
<!-- dir_c565dd4fd82bef78a100487935d458e7 -->
<g id="node3" class="node">
<title>dir_c565dd4fd82bef78a100487935d458e7</title>
<g id="a_node3"><a xlink:href="dir_c565dd4fd82bef78a100487935d458e7.html" target="_top" xlink:title="Libs">
<polygon fill="white" stroke="red" points="168,-124 114,-124 114,-88 168,-88 168,-124"/>
<text text-anchor="middle" x="141" y="-103.5" font-family="Helvetica,sans-Serif" font-size="10.00">Libs</text>
</a>
</g>
</g>
<!-- dir_0a9f4019e53e49156bb57e7356c1bcfc -->
<g id="node4" class="node">
<title>dir_0a9f4019e53e49156bb57e7356c1bcfc</title>
<g id="a_node4"><a xlink:href="dir_0a9f4019e53e49156bb57e7356c1bcfc.html" target="_top" xlink:title="DatabaseSystems">
<polygon fill="#eeeeff" stroke="black" points="147.5,-196 42.5,-196 42.5,-160 147.5,-160 147.5,-196"/>
<text text-anchor="middle" x="95" y="-175.5" font-family="Helvetica,sans-Serif" font-size="10.00">DatabaseSystems</text>
</a>
</g>
</g>
<!-- dir_0a9f4019e53e49156bb57e7356c1bcfc&#45;&gt;dir_2308787cffff41de07f012cfe0ae8a2d -->
<g id="edge2" class="edge">
<title>dir_0a9f4019e53e49156bb57e7356c1bcfc&#45;&gt;dir_2308787cffff41de07f012cfe0ae8a2d</title>
<path fill="none" stroke="black" d="M82.89,-159.7C77.13,-151.47 70.14,-141.48 63.79,-132.42"/>
<polygon fill="black" stroke="black" points="66.58,-130.29 57.97,-124.1 60.84,-134.3 66.58,-130.29"/>
<g id="a_edge2&#45;headlabel"><a xlink:href="dir_000007_000008.html" target="_top" xlink:title="1">
<text text-anchor="middle" x="70.96" y="-129.11" font-family="Helvetica,sans-Serif" font-size="10.00">1</text>
</a>
</g>
</g>
<!-- dir_0a9f4019e53e49156bb57e7356c1bcfc&#45;&gt;dir_ba210d1fa67db7bee1bb22e0a3c11d9f -->
<g id="edge3" class="edge">
<title>dir_0a9f4019e53e49156bb57e7356c1bcfc&#45;&gt;dir_ba210d1fa67db7bee1bb22e0a3c11d9f</title>
<path fill="none" stroke="black" d="M93.82,-159.83C92.41,-141.82 89.64,-112.76 85,-88 83.4,-79.45 81.16,-70.25 78.93,-61.95"/>
<polygon fill="black" stroke="black" points="82.23,-60.74 76.18,-52.04 75.49,-62.61 82.23,-60.74"/>
<g id="a_edge3&#45;headlabel"><a xlink:href="dir_000007_000003.html" target="_top" xlink:title="4">
<text text-anchor="middle" x="85.93" y="-60.94" font-family="Helvetica,sans-Serif" font-size="10.00">4</text>
</a>
</g>
</g>
<!-- dir_0a9f4019e53e49156bb57e7356c1bcfc&#45;&gt;dir_c565dd4fd82bef78a100487935d458e7 -->
<g id="edge4" class="edge">
<title>dir_0a9f4019e53e49156bb57e7356c1bcfc&#45;&gt;dir_c565dd4fd82bef78a100487935d458e7</title>
<path fill="none" stroke="black" d="M106.37,-159.7C111.72,-151.56 118.2,-141.69 124.11,-132.7"/>
<polygon fill="black" stroke="black" points="127.19,-134.38 129.76,-124.1 121.34,-130.54 127.19,-134.38"/>
<g id="a_edge4&#45;headlabel"><a xlink:href="dir_000007_000009.html" target="_top" xlink:title="4">
<text text-anchor="middle" x="127.59" y="-136.45" font-family="Helvetica,sans-Serif" font-size="10.00">4</text>
</a>
</g>
</g>
</g>
</svg>
