<?xml version="1.0" encoding="UTF-8" standalone="no"?>
<!DOCTYPE svg PUBLIC "-//W3C//DTD SVG 1.1//EN"
 "http://www.w3.org/Graphics/SVG/1.1/DTD/svg11.dtd">
<!-- Generated by graphviz version 2.43.0 (0)
 -->
<!-- Title: src Pages: 1 -->
<svg width="410pt" height="334pt"
 viewBox="0.00 0.00 410.00 334.00" xmlns="http://www.w3.org/2000/svg" xmlns:xlink="http://www.w3.org/1999/xlink">
<g id="graph0" class="graph" transform="scale(1 1) rotate(0) translate(4 330)">
<title>src</title>
<g id="clust1" class="cluster">
<title>clusterdir_68267d1309a1af8e8297ef4c3efbcdba</title>
<g id="a_clust1"><a xlink:href="dir_68267d1309a1af8e8297ef4c3efbcdba.html" target="_top">
<polygon fill="#edf0f7" stroke="#404040" stroke-width="2" points="8,-8 8,-318 394,-318 394,-8 8,-8"/>
</a>
</g>
</g>
<g id="clust2" class="cluster">
<title>clusterdir_2985f10e73214164e79e64325c3fa3d3</title>
<g id="a_clust2"><a xlink:href="dir_2985f10e73214164e79e64325c3fa3d3.html" target="_top">
<polygon fill="#dfe5f1" stroke="#404040" points="94,-173 94,-263 230,-263 230,-173 94,-173"/>
</a>
</g>
</g>
<g id="clust3" class="cluster">
<title>clusterdir_c565dd4fd82bef78a100487935d458e7</title>
<g id="a_clust3"><a xlink:href="dir_c565dd4fd82bef78a100487935d458e7.html" target="_top">
<polygon fill="#dfe5f1" stroke="#404040" points="146,-63 146,-98 262,-98 262,-63 146,-63"/>
</a>
</g>
</g>
<!-- dir_68267d1309a1af8e8297ef4c3efbcdba -->
<g id="node1" class="node">
<title>dir_68267d1309a1af8e8297ef4c3efbcdba</title>
<text text-anchor="middle" x="104" y="-298" font-family="Helvetica,sans-Serif" font-size="10.00">src</text>
</g>
<!-- dir_ba210d1fa67db7bee1bb22e0a3c11d9f -->
<g id="node2" class="node">
<title>dir_ba210d1fa67db7bee1bb22e0a3c11d9f</title>
<g id="a_node2"><a xlink:href="dir_ba210d1fa67db7bee1bb22e0a3c11d9f.html" target="_top" xlink:title="Common">
<polygon fill="#dfe5f1" stroke="#404040" points="155.5,-35 94.5,-35 94.5,-16 155.5,-16 155.5,-35"/>
<text text-anchor="middle" x="125" y="-23" font-family="Helvetica,sans-Serif" font-size="10.00">Common</text>
</a>
</g>
</g>
<!-- dir_68267d1309a1af8e8297ef4c3efbcdba&#45;&gt;dir_ba210d1fa67db7bee1bb22e0a3c11d9f -->
<g id="edge4" class="edge">
<title>dir_68267d1309a1af8e8297ef4c3efbcdba&#45;&gt;dir_ba210d1fa67db7bee1bb22e0a3c11d9f</title>
<g id="a_edge4"><a xlink:href="dir_000010_000001.html" target="_top">
<path fill="none" stroke="#63b8ff" d="M89.63,-290.79C64.92,-274.58 17,-237.25 17,-191.5 17,-191.5 17,-191.5 17,-134.5 17,-102.41 6.91,-88.02 27,-63 40.91,-45.68 63.9,-36.58 84.12,-31.8"/>
<polygon fill="#63b8ff" stroke="#63b8ff" points="85,-35.19 94.08,-29.72 83.57,-28.34 85,-35.19"/>
</a>
</g>
<g id="a_edge4&#45;headlabel"><a xlink:href="dir_000010_000001.html" target="_top" xlink:title="31">
<text text-anchor="middle" x="82.06" y="-36.2" font-family="Helvetica,sans-Serif" font-size="10.00" fill="#63b8ff">31</text>
</a>
</g>
</g>
<!-- dir_2985f10e73214164e79e64325c3fa3d3 -->
<g id="node5" class="node">
<title>dir_2985f10e73214164e79e64325c3fa3d3</title>
<text text-anchor="middle" x="171" y="-243" font-family="Helvetica,sans-Serif" font-size="10.00">DataHandlers</text>
</g>
<!-- dir_68267d1309a1af8e8297ef4c3efbcdba&#45;&gt;dir_2985f10e73214164e79e64325c3fa3d3 -->
<g id="edge3" class="edge">
<title>dir_68267d1309a1af8e8297ef4c3efbcdba&#45;&gt;dir_2985f10e73214164e79e64325c3fa3d3</title>
<g id="a_edge3"><a xlink:href="dir_000010_000006.html" target="_top">
<path fill="none" stroke="#63b8ff" d="M114.76,-290.98C124.77,-283.07 139.89,-271.11 151.93,-261.58"/>
<polygon fill="#63b8ff" stroke="#63b8ff" points="154.37,-264.12 160.04,-255.17 150.03,-258.63 154.37,-264.12"/>
</a>
</g>
<g id="a_edge3&#45;headlabel"><a xlink:href="dir_000010_000006.html" target="_top" xlink:title="2">
<text text-anchor="middle" x="153.31" y="-266.08" font-family="Helvetica,sans-Serif" font-size="10.00" fill="#63b8ff">2</text>
</a>
</g>
</g>
<!-- dir_2308787cffff41de07f012cfe0ae8a2d -->
<g id="node7" class="node">
<title>dir_2308787cffff41de07f012cfe0ae8a2d</title>
<g id="a_node7"><a xlink:href="dir_2308787cffff41de07f012cfe0ae8a2d.html" target="_top" xlink:title="DevUtils">
<polygon fill="#dfe5f1" stroke="#404040" points="95.5,-90 36.5,-90 36.5,-71 95.5,-71 95.5,-90"/>
<text text-anchor="middle" x="66" y="-78" font-family="Helvetica,sans-Serif" font-size="10.00">DevUtils</text>
</a>
</g>
</g>
<!-- dir_68267d1309a1af8e8297ef4c3efbcdba&#45;&gt;dir_2308787cffff41de07f012cfe0ae8a2d -->
<g id="edge2" class="edge">
<title>dir_68267d1309a1af8e8297ef4c3efbcdba&#45;&gt;dir_2308787cffff41de07f012cfe0ae8a2d</title>
<g id="a_edge2"><a xlink:href="dir_000010_000007.html" target="_top">
<path fill="none" stroke="#63b8ff" d="M100.22,-290.67C90.5,-267.39 64.85,-202.22 57,-145 54.92,-129.81 57.68,-112.6 60.67,-99.92"/>
<polygon fill="#63b8ff" stroke="#63b8ff" points="64.09,-100.69 63.25,-90.12 57.32,-98.9 64.09,-100.69"/>
</a>
</g>
<g id="a_edge2&#45;headlabel"><a xlink:href="dir_000010_000007.html" target="_top" xlink:title="4">
<text text-anchor="middle" x="65.92" y="-102.38" font-family="Helvetica,sans-Serif" font-size="10.00" fill="#63b8ff">4</text>
</a>
</g>
</g>
<!-- dir_1def0c7d21b9f7897b004a8c7f96613f -->
<g id="node9" class="node">
<title>dir_1def0c7d21b9f7897b004a8c7f96613f</title>
<g id="a_node9"><a xlink:href="dir_1def0c7d21b9f7897b004a8c7f96613f.html" target="_top" xlink:title="cJSON">
<polygon fill="#d0d9ea" stroke="#404040" points="200,-90 154,-90 154,-71 200,-71 200,-90"/>
<text text-anchor="middle" x="177" y="-78" font-family="Helvetica,sans-Serif" font-size="10.00">cJSON</text>
</a>
</g>
</g>
<!-- dir_68267d1309a1af8e8297ef4c3efbcdba&#45;&gt;dir_1def0c7d21b9f7897b004a8c7f96613f -->
<g id="edge1" class="edge">
<title>dir_68267d1309a1af8e8297ef4c3efbcdba&#45;&gt;dir_1def0c7d21b9f7897b004a8c7f96613f</title>
<g id="a_edge1"><a xlink:href="dir_000010_000000.html" target="_top">
<path fill="none" stroke="#63b8ff" d="M119.83,-300.33C147.8,-300.85 205.71,-297.4 234,-263 272.68,-215.96 261.53,-178.7 231,-126 223.84,-113.64 211.87,-103.25 201.01,-95.62"/>
<polygon fill="#63b8ff" stroke="#63b8ff" points="202.93,-92.7 192.66,-90.12 199.08,-98.54 202.93,-92.7"/>
</a>
</g>
<g id="a_edge1&#45;headlabel"><a xlink:href="dir_000010_000000.html" target="_top" xlink:title="10">
<text text-anchor="middle" x="207.5" y="-89.81" font-family="Helvetica,sans-Serif" font-size="10.00" fill="#63b8ff">10</text>
</a>
</g>
</g>
<!-- dir_5648bdb9175c8a60e59f8d18b6e918eb -->
<g id="node3" class="node">
<title>dir_5648bdb9175c8a60e59f8d18b6e918eb</title>
<g id="a_node3"><a xlink:href="dir_5648bdb9175c8a60e59f8d18b6e918eb.html" target="_top" xlink:title="CommProtocols">
<polygon fill="#dfe5f1" stroke="#404040" points="386,-90 292,-90 292,-71 386,-71 386,-90"/>
<text text-anchor="middle" x="339" y="-78" font-family="Helvetica,sans-Serif" font-size="10.00">CommProtocols</text>
</a>
</g>
</g>
<!-- dir_5648bdb9175c8a60e59f8d18b6e918eb&#45;&gt;dir_ba210d1fa67db7bee1bb22e0a3c11d9f -->
<g id="edge5" class="edge">
<title>dir_5648bdb9175c8a60e59f8d18b6e918eb&#45;&gt;dir_ba210d1fa67db7bee1bb22e0a3c11d9f</title>
<g id="a_edge5"><a xlink:href="dir_000002_000001.html" target="_top">
<path fill="none" stroke="#63b8ff" d="M308.02,-70.93C298.41,-68.32 287.78,-65.49 278,-63 239.96,-53.32 196.4,-43 165.51,-35.81"/>
<polygon fill="#63b8ff" stroke="#63b8ff" points="166.08,-32.35 155.55,-33.5 164.5,-39.17 166.08,-32.35"/>
</a>
</g>
<g id="a_edge5&#45;headlabel"><a xlink:href="dir_000002_000001.html" target="_top" xlink:title="5">
<text text-anchor="middle" x="170.22" y="-27.9" font-family="Helvetica,sans-Serif" font-size="10.00" fill="#63b8ff">5</text>
</a>
</g>
</g>
<!-- dir_0a9f4019e53e49156bb57e7356c1bcfc -->
<g id="node4" class="node">
<title>dir_0a9f4019e53e49156bb57e7356c1bcfc</title>
<g id="a_node4"><a xlink:href="dir_0a9f4019e53e49156bb57e7356c1bcfc.html" target="_top" xlink:title="DatabaseSystems">
<polygon fill="#dfe5f1" stroke="#404040" points="181.5,-145 76.5,-145 76.5,-126 181.5,-126 181.5,-145"/>
<text text-anchor="middle" x="129" y="-133" font-family="Helvetica,sans-Serif" font-size="10.00">DatabaseSystems</text>
</a>
</g>
</g>
<!-- dir_0a9f4019e53e49156bb57e7356c1bcfc&#45;&gt;dir_ba210d1fa67db7bee1bb22e0a3c11d9f -->
<g id="edge8" class="edge">
<title>dir_0a9f4019e53e49156bb57e7356c1bcfc&#45;&gt;dir_ba210d1fa67db7bee1bb22e0a3c11d9f</title>
<g id="a_edge8"><a xlink:href="dir_000005_000001.html" target="_top">
<path fill="none" stroke="#63b8ff" d="M128.67,-125.66C128.02,-108.17 126.57,-68.8 125.7,-45.27"/>
<polygon fill="#63b8ff" stroke="#63b8ff" points="129.19,-45.02 125.32,-35.16 122.19,-45.28 129.19,-45.02"/>
</a>
</g>
<g id="a_edge8&#45;headlabel"><a xlink:href="dir_000005_000001.html" target="_top" xlink:title="4">
<text text-anchor="middle" x="132.16" y="-46.01" font-family="Helvetica,sans-Serif" font-size="10.00" fill="#63b8ff">4</text>
</a>
</g>
</g>
<!-- dir_0a9f4019e53e49156bb57e7356c1bcfc&#45;&gt;dir_2308787cffff41de07f012cfe0ae8a2d -->
<g id="edge7" class="edge">
<title>dir_0a9f4019e53e49156bb57e7356c1bcfc&#45;&gt;dir_2308787cffff41de07f012cfe0ae8a2d</title>
<g id="a_edge7"><a xlink:href="dir_000005_000007.html" target="_top">
<path fill="none" stroke="#63b8ff" d="M118.88,-125.98C109.56,-118.15 95.53,-106.34 84.26,-96.86"/>
<polygon fill="#63b8ff" stroke="#63b8ff" points="86.21,-93.93 76.31,-90.17 81.71,-99.29 86.21,-93.93"/>
</a>
</g>
<g id="a_edge7&#45;headlabel"><a xlink:href="dir_000005_000007.html" target="_top" xlink:title="1">
<text text-anchor="middle" x="90.79" y="-91.57" font-family="Helvetica,sans-Serif" font-size="10.00" fill="#63b8ff">1</text>
</a>
</g>
</g>
<!-- dir_0a9f4019e53e49156bb57e7356c1bcfc&#45;&gt;dir_1def0c7d21b9f7897b004a8c7f96613f -->
<g id="edge6" class="edge">
<title>dir_0a9f4019e53e49156bb57e7356c1bcfc&#45;&gt;dir_1def0c7d21b9f7897b004a8c7f96613f</title>
<g id="a_edge6"><a xlink:href="dir_000005_000000.html" target="_top">
<path fill="none" stroke="#63b8ff" d="M136.93,-125.75C143.85,-118.11 154.07,-106.82 162.45,-97.56"/>
<polygon fill="#63b8ff" stroke="#63b8ff" points="165.1,-99.85 169.22,-90.09 159.91,-95.15 165.1,-99.85"/>
</a>
</g>
<g id="a_edge6&#45;headlabel"><a xlink:href="dir_000005_000000.html" target="_top" xlink:title="4">
<text text-anchor="middle" x="164.79" y="-101.92" font-family="Helvetica,sans-Serif" font-size="10.00" fill="#63b8ff">4</text>
</a>
</g>
</g>
<!-- dir_2985f10e73214164e79e64325c3fa3d3&#45;&gt;dir_ba210d1fa67db7bee1bb22e0a3c11d9f -->
<g id="edge11" class="edge">
<title>dir_2985f10e73214164e79e64325c3fa3d3&#45;&gt;dir_ba210d1fa67db7bee1bb22e0a3c11d9f</title>
<g id="a_edge11"><a xlink:href="dir_000006_000001.html" target="_top">
<path fill="none" stroke="#63b8ff" d="M191.83,-235.86C207.08,-228.5 227.11,-216.48 239,-200 275.31,-149.67 303.99,-112.07 266,-63 253.76,-47.19 202.84,-36.99 165.7,-31.49"/>
<polygon fill="#63b8ff" stroke="#63b8ff" points="166.02,-28 155.63,-30.07 165.04,-34.94 166.02,-28"/>
</a>
</g>
<g id="a_edge11&#45;headlabel"><a xlink:href="dir_000006_000001.html" target="_top" xlink:title="10">
<text text-anchor="middle" x="169.98" y="-23.2" font-family="Helvetica,sans-Serif" font-size="10.00" fill="#63b8ff">10</text>
</a>
</g>
</g>
<!-- dir_62fe5d835900518d4ef58eb94e0cb468 -->
<g id="node6" class="node">
<title>dir_62fe5d835900518d4ef58eb94e0cb468</title>
<g id="a_node6"><a xlink:href="dir_62fe5d835900518d4ef58eb94e0cb468.html" target="_top" xlink:title="ModbusWithPostgres">
<polygon fill="#d0d9ea" stroke="#404040" points="221.5,-200 102.5,-200 102.5,-181 221.5,-181 221.5,-200"/>
<text text-anchor="middle" x="162" y="-188" font-family="Helvetica,sans-Serif" font-size="10.00">ModbusWithPostgres</text>
</a>
</g>
</g>
<!-- dir_2985f10e73214164e79e64325c3fa3d3&#45;&gt;dir_62fe5d835900518d4ef58eb94e0cb468 -->
<g id="edge10" class="edge">
<title>dir_2985f10e73214164e79e64325c3fa3d3&#45;&gt;dir_62fe5d835900518d4ef58eb94e0cb468</title>
<g id="a_edge10"><a xlink:href="dir_000006_000009.html" target="_top">
<path fill="none" stroke="#63b8ff" d="M169.51,-235.75C168.33,-228.8 166.64,-218.85 165.16,-210.13"/>
<polygon fill="#63b8ff" stroke="#63b8ff" points="168.58,-209.36 163.46,-200.09 161.68,-210.53 168.58,-209.36"/>
</a>
</g>
<g id="a_edge10&#45;headlabel"><a xlink:href="dir_000006_000009.html" target="_top" xlink:title="1">
<text text-anchor="middle" x="171.98" y="-209.93" font-family="Helvetica,sans-Serif" font-size="10.00" fill="#63b8ff">1</text>
</a>
</g>
</g>
<!-- dir_2985f10e73214164e79e64325c3fa3d3&#45;&gt;dir_1def0c7d21b9f7897b004a8c7f96613f -->
<g id="edge9" class="edge">
<title>dir_2985f10e73214164e79e64325c3fa3d3&#45;&gt;dir_1def0c7d21b9f7897b004a8c7f96613f</title>
<g id="a_edge9"><a xlink:href="dir_000006_000000.html" target="_top">
<path fill="none" stroke="#63b8ff" d="M190.58,-235.98C204.67,-228.68 222.6,-216.68 231,-200 245.9,-170.41 237.6,-155.23 222,-126 215.98,-114.72 206.14,-104.5 197.19,-96.71"/>
<polygon fill="#63b8ff" stroke="#63b8ff" points="199.3,-93.91 189.35,-90.27 194.86,-99.32 199.3,-93.91"/>
</a>
</g>
<g id="a_edge9&#45;headlabel"><a xlink:href="dir_000006_000000.html" target="_top" xlink:title="4">
<text text-anchor="middle" x="203.88" y="-91.5" font-family="Helvetica,sans-Serif" font-size="10.00" fill="#63b8ff">4</text>
</a>
</g>
</g>
<!-- dir_62fe5d835900518d4ef58eb94e0cb468&#45;&gt;dir_ba210d1fa67db7bee1bb22e0a3c11d9f -->
<g id="edge15" class="edge">
<title>dir_62fe5d835900518d4ef58eb94e0cb468&#45;&gt;dir_ba210d1fa67db7bee1bb22e0a3c11d9f</title>
<g id="a_edge15"><a xlink:href="dir_000009_000001.html" target="_top">
<path fill="none" stroke="#63b8ff" d="M171.45,-180.6C183.58,-168.07 201.83,-144.66 191,-126 178.41,-104.31 157.03,-118.08 142,-98 135.83,-89.75 130.68,-63.46 127.72,-45.17"/>
<polygon fill="#63b8ff" stroke="#63b8ff" points="131.14,-44.4 126.17,-35.05 124.22,-45.46 131.14,-44.4"/>
</a>
</g>
<g id="a_edge15&#45;headlabel"><a xlink:href="dir_000009_000001.html" target="_top" xlink:title="8">
<text text-anchor="middle" x="134.49" y="-45.03" font-family="Helvetica,sans-Serif" font-size="10.00" fill="#63b8ff">8</text>
</a>
</g>
</g>
<!-- dir_62fe5d835900518d4ef58eb94e0cb468&#45;&gt;dir_0a9f4019e53e49156bb57e7356c1bcfc -->
<g id="edge12" class="edge">
<title>dir_62fe5d835900518d4ef58eb94e0cb468&#45;&gt;dir_0a9f4019e53e49156bb57e7356c1bcfc</title>
<g id="a_edge12"><a xlink:href="dir_000009_000005.html" target="_top">
<path fill="none" stroke="#63b8ff" d="M156.55,-180.75C151.99,-173.42 145.33,-162.73 139.71,-153.7"/>
<polygon fill="#63b8ff" stroke="#63b8ff" points="142.6,-151.73 134.35,-145.09 136.66,-155.43 142.6,-151.73"/>
</a>
</g>
<g id="a_edge12&#45;headlabel"><a xlink:href="dir_000009_000005.html" target="_top" xlink:title="1">
<text text-anchor="middle" x="146.91" y="-150.78" font-family="Helvetica,sans-Serif" font-size="10.00" fill="#63b8ff">1</text>
</a>
</g>
</g>
<!-- dir_62fe5d835900518d4ef58eb94e0cb468&#45;&gt;dir_2308787cffff41de07f012cfe0ae8a2d -->
<g id="edge14" class="edge">
<title>dir_62fe5d835900518d4ef58eb94e0cb468&#45;&gt;dir_2308787cffff41de07f012cfe0ae8a2d</title>
<g id="a_edge14"><a xlink:href="dir_000009_000007.html" target="_top">
<path fill="none" stroke="#63b8ff" d="M122.1,-180.99C102.35,-174.57 80.17,-163.58 68,-145 59.4,-131.88 59.74,-113.75 61.74,-100.21"/>
<polygon fill="#63b8ff" stroke="#63b8ff" points="65.22,-100.62 63.65,-90.14 58.35,-99.31 65.22,-100.62"/>
</a>
</g>
<g id="a_edge14&#45;headlabel"><a xlink:href="dir_000009_000007.html" target="_top" xlink:title="2">
<text text-anchor="middle" x="67.34" y="-102.18" font-family="Helvetica,sans-Serif" font-size="10.00" fill="#63b8ff">2</text>
</a>
</g>
</g>
<!-- dir_62fe5d835900518d4ef58eb94e0cb468&#45;&gt;dir_1def0c7d21b9f7897b004a8c7f96613f -->
<g id="edge13" class="edge">
<title>dir_62fe5d835900518d4ef58eb94e0cb468&#45;&gt;dir_1def0c7d21b9f7897b004a8c7f96613f</title>
<g id="a_edge13"><a xlink:href="dir_000009_000000.html" target="_top">
<path fill="none" stroke="#63b8ff" d="M178.89,-180.95C191.71,-173.43 208.38,-161.15 216,-145 224.12,-127.78 210.03,-109.38 196.57,-96.85"/>
<polygon fill="#63b8ff" stroke="#63b8ff" points="198.74,-94.1 188.89,-90.19 194.16,-99.39 198.74,-94.1"/>
</a>
</g>
<g id="a_edge13&#45;headlabel"><a xlink:href="dir_000009_000000.html" target="_top" xlink:title="2">
<text text-anchor="middle" x="203.32" y="-91.81" font-family="Helvetica,sans-Serif" font-size="10.00" fill="#63b8ff">2</text>
</a>
</g>
</g>
<!-- dir_2308787cffff41de07f012cfe0ae8a2d&#45;&gt;dir_ba210d1fa67db7bee1bb22e0a3c11d9f -->
<g id="edge16" class="edge">
<title>dir_2308787cffff41de07f012cfe0ae8a2d&#45;&gt;dir_ba210d1fa67db7bee1bb22e0a3c11d9f</title>
<g id="a_edge16"><a xlink:href="dir_000007_000001.html" target="_top">
<path fill="none" stroke="#63b8ff" d="M75.48,-70.98C84.2,-63.15 97.34,-51.34 107.9,-41.86"/>
<polygon fill="#63b8ff" stroke="#63b8ff" points="110.25,-44.46 115.35,-35.17 105.57,-39.25 110.25,-44.46"/>
</a>
</g>
<g id="a_edge16&#45;headlabel"><a xlink:href="dir_000007_000001.html" target="_top" xlink:title="7">
<text text-anchor="middle" x="109.47" y="-46.47" font-family="Helvetica,sans-Serif" font-size="10.00" fill="#63b8ff">7</text>
</a>
</g>
</g>
<!-- dir_c565dd4fd82bef78a100487935d458e7 -->
<g id="node8" class="node">
<title>dir_c565dd4fd82bef78a100487935d458e7</title>
<text text-anchor="middle" x="236" y="-78" font-family="Helvetica,sans-Serif" font-size="10.00">Libs</text>
</g>
</g>
</svg>
