<?xml version="1.0" encoding="UTF-8" standalone="no"?>
<!DOCTYPE svg PUBLIC "-//W3C//DTD SVG 1.1//EN"
 "http://www.w3.org/Graphics/SVG/1.1/DTD/svg11.dtd">
<!-- Generated by graphviz version 2.43.0 (0)
 -->
<!-- Title: main Pages: 1 -->
<svg width="1202pt" height="513pt"
 viewBox="0.00 0.00 1202.00 513.00" xmlns="http://www.w3.org/2000/svg" xmlns:xlink="http://www.w3.org/1999/xlink">
<g id="graph0" class="graph" transform="scale(1 1) rotate(0) translate(4 509)">
<title>main</title>
<!-- Node1 -->
<g id="Node000001" class="node">
<title>Node1</title>
<g id="a_Node000001"><a xlink:title="Main entry point for the Sensor Data Handler System.">
<polygon fill="#999999" stroke="#666666" points="41,-206 0,-206 0,-187 41,-187 41,-206"/>
<text text-anchor="middle" x="20.5" y="-194" font-family="Helvetica,sans-Serif" font-size="10.00">main</text>
</a>
</g>
</g>
<!-- Node2 -->
<g id="Node000002" class="node">
<title>Node2</title>
<g id="a_Node000002"><a xlink:href="Signals_8c.html#a455fa9d5e249372255aebefb29edf4ee" target="_top" xlink:title="Sets up signal handlers for the application.">
<polygon fill="white" stroke="#666666" points="213,-337 77,-337 77,-318 213,-318 213,-337"/>
<text text-anchor="middle" x="145" y="-325" font-family="Helvetica,sans-Serif" font-size="10.00">SdbSetupSignalHandlers</text>
</a>
</g>
</g>
<!-- Node1&#45;&gt;Node2 -->
<g id="edge1_Node000001_Node000002" class="edge">
<title>Node1&#45;&gt;Node2</title>
<g id="a_edge1_Node000001_Node000002"><a xlink:title=" ">
<path fill="none" stroke="#63b8ff" d="M30.71,-206.35C51.47,-228.55 102.15,-282.75 128.11,-310.5"/>
<polygon fill="#63b8ff" stroke="#63b8ff" points="125.63,-312.98 135.02,-317.9 130.74,-308.2 125.63,-312.98"/>
</a>
</g>
</g>
<!-- Node10 -->
<g id="Node000010" class="node">
<title>Node10</title>
<g id="a_Node000010"><a xlink:href="Main_8c.html#aeeb5ef67af0eb14822aa17b0dc6f1be7" target="_top" xlink:title="Sets up the thread group manager from a configuration file.">
<polygon fill="white" stroke="#666666" points="191.5,-244 98.5,-244 98.5,-225 191.5,-225 191.5,-244"/>
<text text-anchor="middle" x="145" y="-232" font-family="Helvetica,sans-Serif" font-size="10.00">SetUpFromConf</text>
</a>
</g>
</g>
<!-- Node1&#45;&gt;Node10 -->
<g id="edge9_Node000001_Node000010" class="edge">
<title>Node1&#45;&gt;Node10</title>
<g id="a_edge9_Node000001_Node000010"><a xlink:title=" ">
<path fill="none" stroke="#63b8ff" d="M41.18,-202.61C58,-207.82 82.73,-215.49 103.72,-222"/>
<polygon fill="#63b8ff" stroke="#63b8ff" points="102.78,-225.38 113.36,-225 104.85,-218.69 102.78,-225.38"/>
</a>
</g>
</g>
<!-- Node31 -->
<g id="Node000031" class="node">
<title>Node31</title>
<g id="a_Node000031"><a xlink:href="ThreadGroup_8c.html#a89d20945922100833762d19e367b3334" target="_top" xlink:title="Destroy Thread Group Manager.">
<polygon fill="white" stroke="#666666" points="371,-207 261,-207 261,-188 371,-188 371,-207"/>
<text text-anchor="middle" x="316" y="-195" font-family="Helvetica,sans-Serif" font-size="10.00">TgDestroyManager</text>
</a>
</g>
</g>
<!-- Node1&#45;&gt;Node31 -->
<g id="edge32_Node000001_Node000031" class="edge">
<title>Node1&#45;&gt;Node31</title>
<g id="a_edge32_Node000001_Node000031"><a xlink:title=" ">
<path fill="none" stroke="#63b8ff" d="M41.21,-196.57C83.39,-196.71 183.97,-197.05 250.76,-197.28"/>
<polygon fill="#63b8ff" stroke="#63b8ff" points="250.76,-200.78 260.77,-197.32 250.78,-193.78 250.76,-200.78"/>
</a>
</g>
</g>
<!-- Node32 -->
<g id="Node000032" class="node">
<title>Node32</title>
<g id="a_Node000032"><a xlink:href="ThreadGroup_8c.html#a99b84055dd294fe099f1bb31fcdaceb4" target="_top" xlink:title="Start All Thread Groups in Manager.">
<polygon fill="white" stroke="#666666" points="198.5,-150 91.5,-150 91.5,-131 198.5,-131 198.5,-150"/>
<text text-anchor="middle" x="145" y="-138" font-family="Helvetica,sans-Serif" font-size="10.00">TgManagerStartAll</text>
</a>
</g>
</g>
<!-- Node1&#45;&gt;Node32 -->
<g id="edge33_Node000001_Node000032" class="edge">
<title>Node1&#45;&gt;Node32</title>
<g id="a_edge33_Node000001_Node000032"><a xlink:title=" ">
<path fill="none" stroke="#63b8ff" d="M41.18,-187.5C60.83,-178.52 91.28,-164.6 113.95,-154.24"/>
<polygon fill="#63b8ff" stroke="#63b8ff" points="115.5,-157.38 123.14,-150.04 112.59,-151.01 115.5,-157.38"/>
</a>
</g>
</g>
<!-- Node42 -->
<g id="Node000042" class="node">
<title>Node42</title>
<g id="a_Node000042"><a xlink:href="ThreadGroup_8c.html#a94f41b6eed9ab8ff08d3921b617a87dd" target="_top" xlink:title="Wait for Completion of All Thread Groups.">
<polygon fill="white" stroke="#666666" points="549.5,-55 428.5,-55 428.5,-36 549.5,-36 549.5,-55"/>
<text text-anchor="middle" x="489" y="-43" font-family="Helvetica,sans-Serif" font-size="10.00">TgManagerWaitForAll</text>
</a>
</g>
</g>
<!-- Node1&#45;&gt;Node42 -->
<g id="edge45_Node000001_Node000042" class="edge">
<title>Node1&#45;&gt;Node42</title>
<g id="a_edge45_Node000001_Node000042"><a xlink:title=" ">
<path fill="none" stroke="#63b8ff" d="M25.95,-186.86C33.85,-170.87 51.89,-138.97 77,-122.5 181.51,-53.93 331.36,-42.77 418.29,-42.81"/>
<polygon fill="#63b8ff" stroke="#63b8ff" points="418.29,-46.31 428.31,-42.86 418.33,-39.31 418.29,-46.31"/>
</a>
</g>
</g>
<!-- Node3 -->
<g id="Node000003" class="node">
<title>Node3</title>
<g id="a_Node000003"><a xlink:href="Signals_8c.html#a6f1cd44547a55d590f525110340d0f1f" target="_top" xlink:title="Internal signal handler to process system signals.">
<polygon fill="white" stroke="#666666" points="358.5,-412 273.5,-412 273.5,-393 358.5,-393 358.5,-412"/>
<text text-anchor="middle" x="316" y="-400" font-family="Helvetica,sans-Serif" font-size="10.00">SignalHandler</text>
</a>
</g>
</g>
<!-- Node2&#45;&gt;Node3 -->
<g id="edge2_Node000002_Node000003" class="edge">
<title>Node2&#45;&gt;Node3</title>
<g id="a_edge2_Node000002_Node000003"><a xlink:title=" ">
<path fill="none" stroke="#63b8ff" d="M167.75,-337.15C197.28,-350.26 250.25,-373.76 283.96,-388.72"/>
<polygon fill="#63b8ff" stroke="#63b8ff" points="282.78,-392.03 293.34,-392.89 285.62,-385.63 282.78,-392.03"/>
</a>
</g>
</g>
<!-- Node4 -->
<g id="Node000004" class="node">
<title>Node4</title>
<g id="a_Node000004"><a xlink:href="Signals_8c.html#a9934ca93fac5b0dcfa0ae402a83bbaa0" target="_top" xlink:title="Creates a memory dump of the process state.">
<polygon fill="white" stroke="#666666" points="551,-468 427,-468 427,-449 551,-449 551,-468"/>
<text text-anchor="middle" x="489" y="-456" font-family="Helvetica,sans-Serif" font-size="10.00">DumpProcessMemory</text>
</a>
</g>
</g>
<!-- Node3&#45;&gt;Node4 -->
<g id="edge3_Node000003_Node000004" class="edge">
<title>Node3&#45;&gt;Node4</title>
<g id="a_edge3_Node000003_Node000004"><a xlink:title=" ">
<path fill="none" stroke="#63b8ff" d="M340.67,-412.1C361.19,-420.23 391.79,-431.91 419,-440.5 425.42,-442.53 432.24,-444.51 438.98,-446.37"/>
<polygon fill="#63b8ff" stroke="#63b8ff" points="438.19,-449.78 448.76,-449 440.01,-443.02 438.19,-449.78"/>
</a>
</g>
</g>
<!-- Node7 -->
<g id="Node000007" class="node">
<title>Node7</title>
<g id="a_Node000007"><a xlink:href="Signals_8c.html#a45f6f56c3aac50030832d4b445f1cd61" target="_top" xlink:title="Handles internal pipe dump operations.">
<polygon fill="white" stroke="#666666" points="539.5,-431 438.5,-431 438.5,-412 539.5,-412 539.5,-431"/>
<text text-anchor="middle" x="489" y="-419" font-family="Helvetica,sans-Serif" font-size="10.00">HandlePipeDump</text>
</a>
</g>
</g>
<!-- Node3&#45;&gt;Node7 -->
<g id="edge6_Node000003_Node000007" class="edge">
<title>Node3&#45;&gt;Node7</title>
<g id="a_edge6_Node000003_Node000007"><a xlink:title=" ">
<path fill="none" stroke="#63b8ff" d="M358.83,-407.15C379.76,-409.47 405.46,-412.33 428.41,-414.88"/>
<polygon fill="#63b8ff" stroke="#63b8ff" points="428.07,-418.36 438.4,-415.99 428.84,-411.41 428.07,-418.36"/>
</a>
</g>
</g>
<!-- Node9 -->
<g id="Node000009" class="node">
<title>Node9</title>
<g id="a_Node000009"><a xlink:href="Signals_8c.html#ac59c3ef33c4c32b750598e2d2f6398e1" target="_top" xlink:title="Initiates system shutdown with proper synchronization.">
<polygon fill="white" stroke="#666666" points="559,-394 419,-394 419,-375 559,-375 559,-394"/>
<text text-anchor="middle" x="489" y="-382" font-family="Helvetica,sans-Serif" font-size="10.00">InitiateGracefulShutdown</text>
</a>
</g>
</g>
<!-- Node3&#45;&gt;Node9 -->
<g id="edge8_Node000003_Node000009" class="edge">
<title>Node3&#45;&gt;Node9</title>
<g id="a_edge8_Node000003_Node000009"><a xlink:title=" ">
<path fill="none" stroke="#63b8ff" d="M358.83,-398.1C373.96,-396.5 391.58,-394.65 408.85,-392.83"/>
<polygon fill="#63b8ff" stroke="#63b8ff" points="409.37,-396.3 418.95,-391.77 408.64,-389.33 409.37,-396.3"/>
</a>
</g>
</g>
<!-- Node5 -->
<g id="Node000005" class="node">
<title>Node5</title>
<g id="a_Node000005"><a xlink:href="Signals_8c.html#a5ef6dcc759fd8166d79fd158ec2f9935" target="_top" xlink:title=" ">
<polygon fill="white" stroke="#666666" points="709.5,-468 632.5,-468 632.5,-449 709.5,-449 709.5,-468"/>
<text text-anchor="middle" x="671" y="-456" font-family="Helvetica,sans-Serif" font-size="10.00">GetThreadId</text>
</a>
</g>
</g>
<!-- Node4&#45;&gt;Node5 -->
<g id="edge4_Node000004_Node000005" class="edge">
<title>Node4&#45;&gt;Node5</title>
<g id="a_edge4_Node000004_Node000005"><a xlink:title=" ">
<path fill="none" stroke="#63b8ff" d="M551.19,-458.5C574.42,-458.5 600.51,-458.5 622.31,-458.5"/>
<polygon fill="#63b8ff" stroke="#63b8ff" points="622.32,-462 632.32,-458.5 622.32,-455 622.32,-462"/>
</a>
</g>
</g>
<!-- Node6 -->
<g id="Node000006" class="node">
<title>Node6</title>
<g id="a_Node000006"><a xlink:href="Signals_8c.html#a27d60415a71248a37804f83c33553b0b" target="_top" xlink:title=" ">
<polygon fill="white" stroke="#666666" points="719.5,-505 622.5,-505 622.5,-486 719.5,-486 719.5,-505"/>
<text text-anchor="middle" x="671" y="-493" font-family="Helvetica,sans-Serif" font-size="10.00">GetThreadName</text>
</a>
</g>
</g>
<!-- Node4&#45;&gt;Node6 -->
<g id="edge5_Node000004_Node000006" class="edge">
<title>Node4&#45;&gt;Node6</title>
<g id="a_edge5_Node000004_Node000006"><a xlink:title=" ">
<path fill="none" stroke="#63b8ff" d="M536.35,-468.03C559.88,-472.86 588.66,-478.78 613.48,-483.88"/>
<polygon fill="#63b8ff" stroke="#63b8ff" points="612.99,-487.35 623.49,-485.94 614.4,-480.5 612.99,-487.35"/>
</a>
</g>
</g>
<!-- Node8 -->
<g id="Node000008" class="node">
<title>Node8</title>
<g id="a_Node000008"><a xlink:href="Signals_8c.html#a544b451adfe66651acf0f329633a8673" target="_top" xlink:title="Dumps sensor data pipe contents to a file.">
<polygon fill="white" stroke="#666666" points="741.5,-431 600.5,-431 600.5,-412 741.5,-412 741.5,-431"/>
<text text-anchor="middle" x="671" y="-419" font-family="Helvetica,sans-Serif" font-size="10.00">SdbDumpSensorDataPipe</text>
</a>
</g>
</g>
<!-- Node7&#45;&gt;Node8 -->
<g id="edge7_Node000007_Node000008" class="edge">
<title>Node7&#45;&gt;Node8</title>
<g id="a_edge7_Node000007_Node000008"><a xlink:title=" ">
<path fill="none" stroke="#63b8ff" d="M539.66,-421.5C555.32,-421.5 573.03,-421.5 590.24,-421.5"/>
<polygon fill="#63b8ff" stroke="#63b8ff" points="590.29,-425 600.29,-421.5 590.29,-418 590.29,-425"/>
</a>
</g>
</g>
<!-- Node11 -->
<g id="Node000011" class="node">
<title>Node11</title>
<g id="a_Node000011"><a xlink:href="DataHandlers_8c.html#a1045578fac74308a6c876c8b06299b50" target="_top" xlink:title="Creates a thread group based on configuration.">
<polygon fill="white" stroke="#666666" points="356,-318 276,-318 276,-299 356,-299 356,-318"/>
<text text-anchor="middle" x="316" y="-306" font-family="Helvetica,sans-Serif" font-size="10.00">DhsCreateTg</text>
</a>
</g>
</g>
<!-- Node10&#45;&gt;Node11 -->
<g id="edge10_Node000010_Node000011" class="edge">
<title>Node10&#45;&gt;Node11</title>
<g id="a_edge10_Node000010_Node000011"><a xlink:title=" ">
<path fill="none" stroke="#63b8ff" d="M161.16,-244.2C180.78,-256.41 216.33,-277.37 249,-290.5 254.44,-292.68 260.23,-294.7 266.04,-296.52"/>
<polygon fill="#63b8ff" stroke="#63b8ff" points="265.18,-299.92 275.77,-299.41 267.18,-293.21 265.18,-299.92"/>
</a>
</g>
</g>
<!-- Node27 -->
<g id="Node000027" class="node">
<title>Node27</title>
<g id="a_Node000027"><a xlink:href="Sdb_8h.html#a5ee7553cb2684af20d146fcf1cc6538f" target="_top" xlink:title=" ">
<polygon fill="white" stroke="#666666" points="383,-281 249,-281 249,-262 383,-262 383,-281"/>
<text text-anchor="middle" x="316" y="-269" font-family="Helvetica,sans-Serif" font-size="10.00">SdbLoadFileIntoMemory</text>
</a>
</g>
</g>
<!-- Node10&#45;&gt;Node27 -->
<g id="edge27_Node000010_Node000027" class="edge">
<title>Node10&#45;&gt;Node27</title>
<g id="a_edge27_Node000010_Node000027"><a xlink:title=" ">
<path fill="none" stroke="#63b8ff" d="M189.52,-244.03C211.42,-248.82 238.15,-254.68 261.31,-259.75"/>
<polygon fill="#63b8ff" stroke="#63b8ff" points="260.82,-263.22 271.33,-261.94 262.31,-256.38 260.82,-263.22"/>
</a>
</g>
</g>
<!-- Node28 -->
<g id="Node000028" class="node">
<title>Node28</title>
<g id="a_Node000028"><a xlink:href="ThreadGroup_8c.html#a180b3c7c6bbfead29d63ad9ea6829480" target="_top" xlink:title="Create a Thread Group Manager.">
<polygon fill="white" stroke="#666666" points="368,-244 264,-244 264,-225 368,-225 368,-244"/>
<text text-anchor="middle" x="316" y="-232" font-family="Helvetica,sans-Serif" font-size="10.00">TgCreateManager</text>
</a>
</g>
</g>
<!-- Node10&#45;&gt;Node28 -->
<g id="edge28_Node000010_Node000028" class="edge">
<title>Node10&#45;&gt;Node28</title>
<g id="a_edge28_Node000010_Node000028"><a xlink:title=" ">
<path fill="none" stroke="#63b8ff" d="M191.73,-234.5C210.8,-234.5 233.23,-234.5 253.69,-234.5"/>
<polygon fill="#63b8ff" stroke="#63b8ff" points="253.87,-238 263.87,-234.5 253.87,-231 253.87,-238"/>
</a>
</g>
</g>
<!-- Node10&#45;&gt;Node31 -->
<g id="edge31_Node000010_Node000031" class="edge">
<title>Node10&#45;&gt;Node31</title>
<g id="a_edge31_Node000010_Node000031"><a xlink:title=" ">
<path fill="none" stroke="#63b8ff" d="M189.52,-224.97C211.42,-220.18 238.15,-214.32 261.31,-209.25"/>
<polygon fill="#63b8ff" stroke="#63b8ff" points="262.31,-212.62 271.33,-207.06 260.82,-205.78 262.31,-212.62"/>
</a>
</g>
</g>
<!-- Node12 -->
<g id="Node000012" class="node">
<title>Node12</title>
<g id="a_Node000012"><a xlink:href="DataHandlers_8c.html#a1f81298204aa5be0dae90f95258fd0c1" target="_top" xlink:title="Converts handler name to its corresponding ID.">
<polygon fill="white" stroke="#666666" points="556.5,-281 421.5,-281 421.5,-262 556.5,-262 556.5,-281"/>
<text text-anchor="middle" x="489" y="-269" font-family="Helvetica,sans-Serif" font-size="10.00">GetHandlerIdFromName</text>
</a>
</g>
</g>
<!-- Node11&#45;&gt;Node12 -->
<g id="edge11_Node000011_Node000012" class="edge">
<title>Node11&#45;&gt;Node12</title>
<g id="a_edge11_Node000011_Node000012"><a xlink:title=" ">
<path fill="none" stroke="#63b8ff" d="M356.23,-300.01C379.3,-295.02 408.8,-288.64 434.03,-283.18"/>
<polygon fill="#63b8ff" stroke="#63b8ff" points="434.8,-286.59 443.83,-281.06 433.32,-279.75 434.8,-286.59"/>
</a>
</g>
</g>
<!-- Node13 -->
<g id="Node000013" class="node">
<title>Node13</title>
<g id="a_Node000013"><a xlink:href="ModbusWithPostgres_8c.html#ad38832a9ba1f0fa4494d337d4bee578f" target="_top" xlink:title="Creates thread group from configuration.">
<polygon fill="white" stroke="#666666" points="533,-318 445,-318 445,-299 533,-299 533,-318"/>
<text text-anchor="middle" x="489" y="-306" font-family="Helvetica,sans-Serif" font-size="10.00">MbPgCreateTg</text>
</a>
</g>
</g>
<!-- Node11&#45;&gt;Node13 -->
<g id="edge12_Node000011_Node000013" class="edge">
<title>Node11&#45;&gt;Node13</title>
<g id="a_edge12_Node000011_Node000013"><a xlink:title=" ">
<path fill="none" stroke="#63b8ff" d="M356.23,-308.5C379.46,-308.5 409.2,-308.5 434.55,-308.5"/>
<polygon fill="#63b8ff" stroke="#63b8ff" points="434.75,-312 444.75,-308.5 434.75,-305 434.75,-312"/>
</a>
</g>
</g>
<!-- Node14 -->
<g id="Node000014" class="node">
<title>Node14</title>
<g id="a_Node000014"><a xlink:href="DataHandlers_8c.html#afe9e102250a74bffceba672ba91d9368" target="_top" xlink:title="Extracts memory and scratch sizes from JSON configuration.">
<polygon fill="white" stroke="#666666" points="747,-355 595,-355 595,-336 747,-336 747,-355"/>
<text text-anchor="middle" x="671" y="-343" font-family="Helvetica,sans-Serif" font-size="10.00">DhsGetMemAndScratchSize</text>
</a>
</g>
</g>
<!-- Node13&#45;&gt;Node14 -->
<g id="edge13_Node000013_Node000014" class="edge">
<title>Node13&#45;&gt;Node14</title>
<g id="a_edge13_Node000013_Node000014"><a xlink:title=" ">
<path fill="none" stroke="#63b8ff" d="M533.11,-317.36C557.26,-322.33 587.66,-328.57 613.67,-333.92"/>
<polygon fill="#63b8ff" stroke="#63b8ff" points="613.27,-337.41 623.77,-336 614.68,-330.56 613.27,-337.41"/>
</a>
</g>
</g>
<!-- Node15 -->
<g id="Node000015" class="node">
<title>Node15</title>
<g id="a_Node000015"><a xlink:href="Sdb_8h.html#a3bc1152307e502260c7363261ded3603" target="_top" xlink:title=" ">
<polygon fill="white" stroke="#666666" points="916,-392 783,-392 783,-373 916,-373 916,-392"/>
<text text-anchor="middle" x="849.5" y="-380" font-family="Helvetica,sans-Serif" font-size="10.00">SdbMemSizeFromString</text>
</a>
</g>
</g>
<!-- Node13&#45;&gt;Node15 -->
<g id="edge19_Node000013_Node000015" class="edge">
<title>Node13&#45;&gt;Node15</title>
<g id="a_edge19_Node000013_Node000015"><a xlink:title=" ">
<path fill="none" stroke="#63b8ff" d="M503.46,-318.09C522.7,-331.22 559.66,-354.32 595,-364.5 653.01,-381.21 721.43,-385.2 772.55,-385.29"/>
<polygon fill="#63b8ff" stroke="#63b8ff" points="772.87,-388.79 782.86,-385.26 772.85,-381.79 772.87,-388.79"/>
</a>
</g>
</g>
<!-- Node16 -->
<g id="Node000016" class="node">
<title>Node16</title>
<g id="a_Node000016"><a xlink:href="ModbusWithPostgres_8c.html#a6738c27ba468f4aa7e2039ed83906086" target="_top" xlink:title="Cleanup function for Modbus&#45;PostgreSQL context.">
<polygon fill="white" stroke="#666666" points="712.5,-318 629.5,-318 629.5,-299 712.5,-299 712.5,-318"/>
<text text-anchor="middle" x="671" y="-306" font-family="Helvetica,sans-Serif" font-size="10.00">MbPgCleanup</text>
</a>
</g>
</g>
<!-- Node13&#45;&gt;Node16 -->
<g id="edge15_Node000013_Node000016" class="edge">
<title>Node13&#45;&gt;Node16</title>
<g id="a_edge15_Node000013_Node000016"><a xlink:title=" ">
<path fill="none" stroke="#63b8ff" d="M533.11,-308.5C559.03,-308.5 592.14,-308.5 619.31,-308.5"/>
<polygon fill="#63b8ff" stroke="#63b8ff" points="619.4,-312 629.4,-308.5 619.4,-305 619.4,-312"/>
</a>
</g>
</g>
<!-- Node19 -->
<g id="Node000019" class="node">
<title>Node19</title>
<g id="a_Node000019"><a xlink:href="Thread_8c.html#a6b9ac1c397bc80d499de59fae806cbe1" target="_top" xlink:title="Initialize a thread barrier.">
<polygon fill="white" stroke="#666666" points="712.5,-281 629.5,-281 629.5,-262 712.5,-262 712.5,-281"/>
<text text-anchor="middle" x="671" y="-269" font-family="Helvetica,sans-Serif" font-size="10.00">SdbBarrierInit</text>
</a>
</g>
</g>
<!-- Node13&#45;&gt;Node19 -->
<g id="edge18_Node000013_Node000019" class="edge">
<title>Node13&#45;&gt;Node19</title>
<g id="a_edge18_Node000013_Node000019"><a xlink:title=" ">
<path fill="none" stroke="#63b8ff" d="M533.11,-299.64C559.03,-294.31 592.14,-287.5 619.31,-281.92"/>
<polygon fill="#63b8ff" stroke="#63b8ff" points="620.31,-285.29 629.4,-279.85 618.9,-278.43 620.31,-285.29"/>
</a>
</g>
</g>
<!-- Node20 -->
<g id="Node000020" class="node">
<title>Node20</title>
<g id="a_Node000020"><a xlink:href="SensorDataPipe_8c.html#af2c17a20e06c1a0f02552c36cc2ef0c3" target="_top" xlink:title="Create Sensor Data Pipeline.">
<polygon fill="white" stroke="#666666" points="704.5,-244 637.5,-244 637.5,-225 704.5,-225 704.5,-244"/>
<text text-anchor="middle" x="671" y="-232" font-family="Helvetica,sans-Serif" font-size="10.00">SdpCreate</text>
</a>
</g>
</g>
<!-- Node13&#45;&gt;Node20 -->
<g id="edge20_Node000013_Node000020" class="edge">
<title>Node13&#45;&gt;Node20</title>
<g id="a_edge20_Node000013_Node000020"><a xlink:title=" ">
<path fill="none" stroke="#63b8ff" d="M533.03,-301.13C541.98,-298.56 551.08,-295.11 559,-290.5 578.83,-278.96 575.13,-264.97 595,-253.5 604.8,-247.84 616.26,-243.85 627.24,-241.04"/>
<polygon fill="#63b8ff" stroke="#63b8ff" points="628.16,-244.42 637.13,-238.78 626.6,-237.6 628.16,-244.42"/>
</a>
</g>
</g>
<!-- Node25 -->
<g id="Node000025" class="node">
<title>Node25</title>
<g id="a_Node000025"><a xlink:href="ThreadGroup_8c.html#a7b3544a615a6e4b53ca964334bc2a685" target="_top" xlink:title="Create a Thread Group.">
<polygon fill="white" stroke="#666666" points="716,-206 626,-206 626,-187 716,-187 716,-206"/>
<text text-anchor="middle" x="671" y="-194" font-family="Helvetica,sans-Serif" font-size="10.00">TgCreateGroup</text>
</a>
</g>
</g>
<!-- Node13&#45;&gt;Node25 -->
<g id="edge25_Node000013_Node000025" class="edge">
<title>Node13&#45;&gt;Node25</title>
<g id="a_edge25_Node000013_Node000025"><a xlink:title=" ">
<path fill="none" stroke="#63b8ff" d="M533.21,-303.27C542.45,-300.58 551.63,-296.54 559,-290.5 587.29,-267.32 566.78,-239.76 595,-216.5 601.14,-211.44 608.44,-207.65 616.04,-204.81"/>
<polygon fill="#63b8ff" stroke="#63b8ff" points="617.3,-208.08 625.76,-201.7 615.16,-201.42 617.3,-208.08"/>
</a>
</g>
</g>
<!-- Node14&#45;&gt;Node15 -->
<g id="edge14_Node000014_Node000015" class="edge">
<title>Node14&#45;&gt;Node15</title>
<g id="a_edge14_Node000014_Node000015"><a xlink:title=" ">
<path fill="none" stroke="#63b8ff" d="M717.45,-355.03C740.52,-359.86 768.74,-365.78 793.08,-370.88"/>
<polygon fill="#63b8ff" stroke="#63b8ff" points="792.39,-374.31 802.89,-372.94 793.83,-367.46 792.39,-374.31"/>
</a>
</g>
</g>
<!-- Node17 -->
<g id="Node000017" class="node">
<title>Node17</title>
<g id="a_Node000017"><a xlink:href="Thread_8c.html#a9cb4c8bef2fd99915d71913855bbd5c1" target="_top" xlink:title="Deinitialize a thread barrier.">
<polygon fill="white" stroke="#666666" points="898,-318 801,-318 801,-299 898,-299 898,-318"/>
<text text-anchor="middle" x="849.5" y="-306" font-family="Helvetica,sans-Serif" font-size="10.00">SdbBarrierDeinit</text>
</a>
</g>
</g>
<!-- Node16&#45;&gt;Node17 -->
<g id="edge16_Node000016_Node000017" class="edge">
<title>Node16&#45;&gt;Node17</title>
<g id="a_edge16_Node000016_Node000017"><a xlink:title=" ">
<path fill="none" stroke="#63b8ff" d="M712.94,-308.5C736.03,-308.5 765.26,-308.5 790.66,-308.5"/>
<polygon fill="#63b8ff" stroke="#63b8ff" points="790.91,-312 800.91,-308.5 790.91,-305 790.91,-312"/>
</a>
</g>
</g>
<!-- Node18 -->
<g id="Node000018" class="node">
<title>Node18</title>
<g id="a_Node000018"><a xlink:href="SensorDataPipe_8c.html#a6bcca74f25bea60fddde9dbadf2f46e7" target="_top" xlink:title="Destroy Sensor Data Pipeline.">
<polygon fill="white" stroke="#666666" points="886,-355 813,-355 813,-336 886,-336 886,-355"/>
<text text-anchor="middle" x="849.5" y="-343" font-family="Helvetica,sans-Serif" font-size="10.00">SdpDestroy</text>
</a>
</g>
</g>
<!-- Node16&#45;&gt;Node18 -->
<g id="edge17_Node000016_Node000018" class="edge">
<title>Node16&#45;&gt;Node18</title>
<g id="a_edge17_Node000016_Node000018"><a xlink:title=" ">
<path fill="none" stroke="#63b8ff" d="M712.94,-317.08C739.87,-322.73 775.16,-330.13 802.98,-335.96"/>
<polygon fill="#63b8ff" stroke="#63b8ff" points="802.36,-339.4 812.86,-338.03 803.79,-332.55 802.36,-339.4"/>
</a>
</g>
</g>
<!-- Node21 -->
<g id="Node000021" class="node">
<title>Node21</title>
<g id="a_Node000021"><a xlink:href="Sdb_8h.html#aaf34881f50372f5c1932078f4439bc5a" target="_top" xlink:title=" ">
<polygon fill="white" stroke="#666666" points="904.5,-281 794.5,-281 794.5,-262 904.5,-262 904.5,-281"/>
<text text-anchor="middle" x="849.5" y="-269" font-family="Helvetica,sans-Serif" font-size="10.00">SdbArenaBootstrap</text>
</a>
</g>
</g>
<!-- Node20&#45;&gt;Node21 -->
<g id="edge21_Node000020_Node000021" class="edge">
<title>Node20&#45;&gt;Node21</title>
<g id="a_edge21_Node000020_Node000021"><a xlink:title=" ">
<path fill="none" stroke="#63b8ff" d="M704.78,-241.37C729.49,-246.55 763.94,-253.77 792.92,-259.85"/>
<polygon fill="#63b8ff" stroke="#63b8ff" points="792.41,-263.32 802.92,-261.94 793.85,-256.47 792.41,-263.32"/>
</a>
</g>
</g>
<!-- Node22 -->
<g id="Node000022" class="node">
<title>Node22</title>
<g id="a_Node000022"><a xlink:href="Sdb_8h.html#a05ee63d567b60fbc2b9e6732f4154a48" target="_top" xlink:title=" ">
<polygon fill="white" stroke="#666666" points="898.5,-244 800.5,-244 800.5,-225 898.5,-225 898.5,-244"/>
<text text-anchor="middle" x="849.5" y="-232" font-family="Helvetica,sans-Serif" font-size="10.00">SdbArenaGetPos</text>
</a>
</g>
</g>
<!-- Node20&#45;&gt;Node22 -->
<g id="edge22_Node000020_Node000022" class="edge">
<title>Node20&#45;&gt;Node22</title>
<g id="a_edge22_Node000020_Node000022"><a xlink:title=" ">
<path fill="none" stroke="#63b8ff" d="M704.78,-234.5C728.67,-234.5 761.67,-234.5 790.02,-234.5"/>
<polygon fill="#63b8ff" stroke="#63b8ff" points="790.23,-238 800.23,-234.5 790.23,-231 790.23,-238"/>
</a>
</g>
</g>
<!-- Node23 -->
<g id="Node000023" class="node">
<title>Node23</title>
<g id="a_Node000023"><a xlink:href="Sdb_8h.html#ab63e953fd90c628d5c0727287df66fab" target="_top" xlink:title=" ">
<polygon fill="white" stroke="#666666" points="889,-207 810,-207 810,-188 889,-188 889,-207"/>
<text text-anchor="middle" x="849.5" y="-195" font-family="Helvetica,sans-Serif" font-size="10.00">SdbArenaInit</text>
</a>
</g>
</g>
<!-- Node20&#45;&gt;Node23 -->
<g id="edge23_Node000020_Node000023" class="edge">
<title>Node20&#45;&gt;Node23</title>
<g id="a_edge23_Node000020_Node000023"><a xlink:title=" ">
<path fill="none" stroke="#63b8ff" d="M704.78,-227.63C731.48,-222.03 769.55,-214.05 799.8,-207.71"/>
<polygon fill="#63b8ff" stroke="#63b8ff" points="800.67,-211.1 809.74,-205.63 799.23,-204.25 800.67,-211.1"/>
</a>
</g>
</g>
<!-- Node24 -->
<g id="Node000024" class="node">
<title>Node24</title>
<g id="a_Node000024"><a xlink:href="Sdb_8h.html#a9a812984d9d5b96c810aea56d3cb526d" target="_top" xlink:title=" ">
<polygon fill="white" stroke="#666666" points="893,-170 806,-170 806,-151 893,-151 893,-170"/>
<text text-anchor="middle" x="849.5" y="-158" font-family="Helvetica,sans-Serif" font-size="10.00">SdbArenaSeek</text>
</a>
</g>
</g>
<!-- Node20&#45;&gt;Node24 -->
<g id="edge24_Node000020_Node000024" class="edge">
<title>Node20&#45;&gt;Node24</title>
<g id="a_edge24_Node000020_Node000024"><a xlink:title=" ">
<path fill="none" stroke="#63b8ff" d="M704.82,-230.13C718.5,-227.33 734.15,-222.8 747,-215.5 766.67,-204.32 763.52,-191.01 783,-179.5 787.18,-177.03 791.69,-174.87 796.33,-172.97"/>
<polygon fill="#63b8ff" stroke="#63b8ff" points="797.78,-176.17 805.97,-169.45 795.37,-169.6 797.78,-176.17"/>
</a>
</g>
</g>
<!-- Node26 -->
<g id="Node000026" class="node">
<title>Node26</title>
<g id="a_Node000026"><a xlink:href="Sdb_8h.html#a9b1bdb21ac42d86edd96d53d49da1760" target="_top" xlink:title=" ">
<polygon fill="white" stroke="#666666" points="888,-133 811,-133 811,-114 888,-114 888,-133"/>
<text text-anchor="middle" x="849.5" y="-121" font-family="Helvetica,sans-Serif" font-size="10.00">SdbMemcpy</text>
</a>
</g>
</g>
<!-- Node25&#45;&gt;Node26 -->
<g id="edge26_Node000025_Node000026" class="edge">
<title>Node25&#45;&gt;Node26</title>
<g id="a_edge26_Node000025_Node000026"><a xlink:title=" ">
<path fill="none" stroke="#63b8ff" d="M716.25,-188.58C726.73,-185.67 737.58,-181.75 747,-176.5 766.22,-165.78 763.9,-153.43 783,-142.5 788.6,-139.3 794.78,-136.6 801.04,-134.33"/>
<polygon fill="#63b8ff" stroke="#63b8ff" points="802.46,-137.55 810.88,-131.12 800.29,-130.9 802.46,-137.55"/>
</a>
</g>
</g>
<!-- Node29 -->
<g id="Node000029" class="node">
<title>Node29</title>
<g id="a_Node000029"><a xlink:href="Thread_8c.html#a96f5f3ba983e0047d225045c00697ffb" target="_top" xlink:title="Initialize a condition variable.">
<polygon fill="white" stroke="#666666" points="526.5,-207 451.5,-207 451.5,-188 526.5,-188 526.5,-207"/>
<text text-anchor="middle" x="489" y="-195" font-family="Helvetica,sans-Serif" font-size="10.00">SdbCondInit</text>
</a>
</g>
</g>
<!-- Node28&#45;&gt;Node29 -->
<g id="edge29_Node000028_Node000029" class="edge">
<title>Node28&#45;&gt;Node29</title>
<g id="a_edge29_Node000028_Node000029"><a xlink:title=" ">
<path fill="none" stroke="#63b8ff" d="M361.04,-224.97C385.65,-219.65 416.31,-213.01 441.34,-207.6"/>
<polygon fill="#63b8ff" stroke="#63b8ff" points="442.3,-210.97 451.33,-205.43 440.82,-204.13 442.3,-210.97"/>
</a>
</g>
</g>
<!-- Node30 -->
<g id="Node000030" class="node">
<title>Node30</title>
<g id="a_Node000030"><a xlink:href="Thread_8c.html#ab44b8ad4cd3641c5261510ebe9803db4" target="_top" xlink:title="Initialize a mutex.">
<polygon fill="white" stroke="#666666" points="529.5,-244 448.5,-244 448.5,-225 529.5,-225 529.5,-244"/>
<text text-anchor="middle" x="489" y="-232" font-family="Helvetica,sans-Serif" font-size="10.00">SdbMutexInit</text>
</a>
</g>
</g>
<!-- Node28&#45;&gt;Node30 -->
<g id="edge30_Node000028_Node000030" class="edge">
<title>Node28&#45;&gt;Node30</title>
<g id="a_edge30_Node000028_Node000030"><a xlink:title=" ">
<path fill="none" stroke="#63b8ff" d="M368.31,-234.5C390.47,-234.5 416.31,-234.5 438.29,-234.5"/>
<polygon fill="#63b8ff" stroke="#63b8ff" points="438.42,-238 448.42,-234.5 438.42,-231 438.42,-238"/>
</a>
</g>
</g>
<!-- Node33 -->
<g id="Node000033" class="node">
<title>Node33</title>
<g id="a_Node000033"><a xlink:href="Thread_8c.html#a5fbfdcfc990630f27e5161ec4ea18aaa" target="_top" xlink:title="Lock a mutex with timeout.">
<polygon fill="white" stroke="#666666" points="715,-167 627,-167 627,-148 715,-148 715,-167"/>
<text text-anchor="middle" x="671" y="-155" font-family="Helvetica,sans-Serif" font-size="10.00">SdbMutexLock</text>
</a>
</g>
</g>
<!-- Node32&#45;&gt;Node33 -->
<g id="edge34_Node000032_Node000033" class="edge">
<title>Node32&#45;&gt;Node33</title>
<g id="a_edge34_Node000032_Node000033"><a xlink:title=" ">
<path fill="none" stroke="#63b8ff" d="M198.64,-142.21C298.78,-145.46 515.68,-152.49 616.49,-155.76"/>
<polygon fill="#63b8ff" stroke="#63b8ff" points="616.64,-159.27 626.75,-156.1 616.87,-152.27 616.64,-159.27"/>
</a>
</g>
</g>
<!-- Node38 -->
<g id="Node000038" class="node">
<title>Node38</title>
<g id="a_Node000038"><a xlink:href="Thread_8c.html#a385a70a16dc0b1872fdf925d2121880c" target="_top" xlink:title="Unlock a mutex.">
<polygon fill="white" stroke="#666666" points="720.5,-93 621.5,-93 621.5,-74 720.5,-74 720.5,-93"/>
<text text-anchor="middle" x="671" y="-81" font-family="Helvetica,sans-Serif" font-size="10.00">SdbMutexUnlock</text>
</a>
</g>
</g>
<!-- Node32&#45;&gt;Node38 -->
<g id="edge39_Node000032_Node000038" class="edge">
<title>Node32&#45;&gt;Node38</title>
<g id="a_edge39_Node000032_Node000038"><a xlink:title=" ">
<path fill="none" stroke="#63b8ff" d="M166.36,-130.85C186.76,-121.7 219.29,-108.5 249,-102.5 376.23,-76.8 529.31,-77.6 611.31,-80.51"/>
<polygon fill="#63b8ff" stroke="#63b8ff" points="611.3,-84.01 621.43,-80.89 611.57,-77.02 611.3,-84.01"/>
</a>
</g>
</g>
<!-- Node39 -->
<g id="Node000039" class="node">
<title>Node39</title>
<g id="a_Node000039"><a xlink:href="ThreadGroup_8c.html#aaf638572d1f947f2ab3b6637d11029fd" target="_top" xlink:title="Start All Threads in a Thread Group.">
<polygon fill="white" stroke="#666666" points="356.5,-131 275.5,-131 275.5,-112 356.5,-112 356.5,-131"/>
<text text-anchor="middle" x="316" y="-119" font-family="Helvetica,sans-Serif" font-size="10.00">TgStartGroup</text>
</a>
</g>
</g>
<!-- Node32&#45;&gt;Node39 -->
<g id="edge40_Node000032_Node000039" class="edge">
<title>Node32&#45;&gt;Node39</title>
<g id="a_edge40_Node000032_Node000039"><a xlink:title=" ">
<path fill="none" stroke="#63b8ff" d="M198.55,-134.59C219.86,-132.2 244.36,-129.44 265.37,-127.08"/>
<polygon fill="#63b8ff" stroke="#63b8ff" points="265.83,-130.55 275.38,-125.95 265.05,-123.59 265.83,-130.55"/>
</a>
</g>
</g>
<!-- Node34 -->
<g id="Node000034" class="node">
<title>Node34</title>
<g id="a_Node000034"><a xlink:href="Thread_8c.html#aa16f3f5cb899e1128f1a80c021780e5f" target="_top" xlink:title=" ">
<polygon fill="white" stroke="#666666" points="894,-58 805,-58 805,-39 894,-39 894,-58"/>
<text text-anchor="middle" x="849.5" y="-46" font-family="Helvetica,sans-Serif" font-size="10.00">CreateTimeout</text>
</a>
</g>
</g>
<!-- Node33&#45;&gt;Node34 -->
<g id="edge35_Node000033_Node000034" class="edge">
<title>Node33&#45;&gt;Node34</title>
<g id="a_edge35_Node000033_Node000034"><a xlink:title=" ">
<path fill="none" stroke="#63b8ff" d="M715.12,-151.3C725.96,-148.64 737.26,-144.86 747,-139.5 766.55,-128.73 766.51,-119.54 783,-104.5 798.05,-90.77 815.63,-75.8 828.78,-64.8"/>
<polygon fill="#63b8ff" stroke="#63b8ff" points="831.27,-67.28 836.71,-58.19 826.79,-61.9 831.27,-67.28"/>
</a>
</g>
</g>
<!-- Node35 -->
<g id="Node000035" class="node">
<title>Node35</title>
<g id="a_Node000035"><a xlink:href="Time_8c.html#afad180732be23f8e46bdfc2bb349ff44" target="_top" xlink:title="Create Absolute Timeout Timestamp.">
<polygon fill="white" stroke="#666666" points="1077,-58 952,-58 952,-39 1077,-39 1077,-58"/>
<text text-anchor="middle" x="1014.5" y="-46" font-family="Helvetica,sans-Serif" font-size="10.00">SdbTimespecAbsolute</text>
</a>
</g>
</g>
<!-- Node34&#45;&gt;Node35 -->
<g id="edge36_Node000034_Node000035" class="edge">
<title>Node34&#45;&gt;Node35</title>
<g id="a_edge36_Node000034_Node000035"><a xlink:title=" ">
<path fill="none" stroke="#63b8ff" d="M894.18,-48.5C908.86,-48.5 925.65,-48.5 941.9,-48.5"/>
<polygon fill="#63b8ff" stroke="#63b8ff" points="941.93,-52 951.93,-48.5 941.93,-45 941.93,-52"/>
</a>
</g>
</g>
<!-- Node36 -->
<g id="Node000036" class="node">
<title>Node36</title>
<g id="a_Node000036"><a xlink:href="Time_8c.html#af8be68d54def6b644cac5efb8fe2e605" target="_top" xlink:title="Add Time Difference to Timestamp.">
<polygon fill="white" stroke="#666666" points="1192.5,-77 1114.5,-77 1114.5,-58 1192.5,-58 1192.5,-77"/>
<text text-anchor="middle" x="1153.5" y="-65" font-family="Helvetica,sans-Serif" font-size="10.00">SdbTimeAdd</text>
</a>
</g>
</g>
<!-- Node35&#45;&gt;Node36 -->
<g id="edge37_Node000035_Node000036" class="edge">
<title>Node35&#45;&gt;Node36</title>
<g id="a_edge37_Node000035_Node000036"><a xlink:title=" ">
<path fill="none" stroke="#63b8ff" d="M1077.19,-57.06C1086.27,-58.32 1095.52,-59.6 1104.28,-60.81"/>
<polygon fill="#63b8ff" stroke="#63b8ff" points="1103.92,-64.3 1114.31,-62.2 1104.88,-57.36 1103.92,-64.3"/>
</a>
</g>
</g>
<!-- Node37 -->
<g id="Node000037" class="node">
<title>Node37</title>
<g id="a_Node000037"><a xlink:href="Time_8c.html#a83d0c194706101b50506d2618e27167c" target="_top" xlink:title="Get Current Real&#45;Time Timestamp.">
<polygon fill="white" stroke="#666666" points="1194,-40 1113,-40 1113,-21 1194,-21 1194,-40"/>
<text text-anchor="middle" x="1153.5" y="-28" font-family="Helvetica,sans-Serif" font-size="10.00">SdbTimeNow</text>
</a>
</g>
</g>
<!-- Node35&#45;&gt;Node37 -->
<g id="edge38_Node000035_Node000037" class="edge">
<title>Node35&#45;&gt;Node37</title>
<g id="a_edge38_Node000035_Node000037"><a xlink:title=" ">
<path fill="none" stroke="#63b8ff" d="M1077.19,-40.4C1085.77,-39.27 1094.5,-38.12 1102.82,-37.03"/>
<polygon fill="#63b8ff" stroke="#63b8ff" points="1103.28,-40.5 1112.74,-35.72 1102.37,-33.56 1103.28,-40.5"/>
</a>
</g>
</g>
<!-- Node40 -->
<g id="Node000040" class="node">
<title>Node40</title>
<g id="a_Node000040"><a xlink:href="ThreadGroup_8c.html#aab12be916ed17f20adc66a71e0a715c3" target="_top" xlink:title=" ">
<polygon fill="white" stroke="#666666" points="522,-131 456,-131 456,-112 522,-112 522,-131"/>
<text text-anchor="middle" x="489" y="-119" font-family="Helvetica,sans-Serif" font-size="10.00">TgMonitor</text>
</a>
</g>
</g>
<!-- Node39&#45;&gt;Node40 -->
<g id="edge41_Node000039_Node000040" class="edge">
<title>Node39&#45;&gt;Node40</title>
<g id="a_edge41_Node000039_Node000040"><a xlink:title=" ">
<path fill="none" stroke="#63b8ff" d="M356.66,-121.5C383.43,-121.5 418.71,-121.5 445.97,-121.5"/>
<polygon fill="#63b8ff" stroke="#63b8ff" points="445.99,-125 455.99,-121.5 445.99,-118 445.99,-125"/>
</a>
</g>
</g>
<!-- Node40&#45;&gt;Node33 -->
<g id="edge43_Node000040_Node000033" class="edge">
<title>Node40&#45;&gt;Node33</title>
<g id="a_edge43_Node000040_Node000033"><a xlink:title=" ">
<path fill="none" stroke="#63b8ff" d="M522.18,-127.94C548.44,-133.19 586.08,-140.72 616.8,-146.86"/>
<polygon fill="#63b8ff" stroke="#63b8ff" points="616.44,-150.36 626.93,-148.89 617.81,-143.49 616.44,-150.36"/>
</a>
</g>
</g>
<!-- Node40&#45;&gt;Node38 -->
<g id="edge44_Node000040_Node000038" class="edge">
<title>Node40&#45;&gt;Node38</title>
<g id="a_edge44_Node000040_Node000038"><a xlink:title=" ">
<path fill="none" stroke="#63b8ff" d="M522.18,-114.71C547.89,-109.28 584.52,-101.55 614.88,-95.14"/>
<polygon fill="#63b8ff" stroke="#63b8ff" points="615.85,-98.51 624.91,-93.02 614.41,-91.66 615.85,-98.51"/>
</a>
</g>
</g>
<!-- Node41 -->
<g id="Node000041" class="node">
<title>Node41</title>
<g id="a_Node000041"><a xlink:href="Thread_8c.html#a6e1a34c43565fd0fe32ce19bd63680c8" target="_top" xlink:title="Signal a condition variable.">
<polygon fill="white" stroke="#666666" points="715.5,-130 626.5,-130 626.5,-111 715.5,-111 715.5,-130"/>
<text text-anchor="middle" x="671" y="-118" font-family="Helvetica,sans-Serif" font-size="10.00">SdbCondSignal</text>
</a>
</g>
</g>
<!-- Node40&#45;&gt;Node41 -->
<g id="edge42_Node000040_Node000041" class="edge">
<title>Node40&#45;&gt;Node41</title>
<g id="a_edge42_Node000040_Node000041"><a xlink:title=" ">
<path fill="none" stroke="#63b8ff" d="M522.18,-121.32C548.25,-121.18 585.56,-120.97 616.17,-120.8"/>
<polygon fill="#63b8ff" stroke="#63b8ff" points="616.28,-124.3 626.26,-120.74 616.24,-117.3 616.28,-124.3"/>
</a>
</g>
</g>
<!-- Node42&#45;&gt;Node33 -->
<g id="edge48_Node000042_Node000033" class="edge">
<title>Node42&#45;&gt;Node33</title>
<g id="a_edge48_Node000042_Node000033"><a xlink:title=" ">
<path fill="none" stroke="#63b8ff" d="M502.3,-55C516.37,-66.01 539.92,-84.91 559,-102.5 575.87,-118.05 575.06,-128.15 595,-139.5 601.79,-143.36 609.39,-146.4 617.06,-148.79"/>
<polygon fill="#63b8ff" stroke="#63b8ff" points="616.2,-152.18 626.77,-151.48 618.07,-145.44 616.2,-152.18"/>
</a>
</g>
</g>
<!-- Node42&#45;&gt;Node38 -->
<g id="edge49_Node000042_Node000038" class="edge">
<title>Node42&#45;&gt;Node38</title>
<g id="a_edge49_Node000042_Node000038"><a xlink:title=" ">
<path fill="none" stroke="#63b8ff" d="M535.42,-55.09C559.6,-60.19 589.53,-66.51 615.01,-71.89"/>
<polygon fill="#63b8ff" stroke="#63b8ff" points="614.4,-75.34 624.91,-73.98 615.84,-68.49 614.4,-75.34"/>
</a>
</g>
</g>
<!-- Node43 -->
<g id="Node000043" class="node">
<title>Node43</title>
<g id="a_Node000043"><a xlink:href="Thread_8c.html#a3aa5be8c3ae6f155db4058a8b658ab91" target="_top" xlink:title="Wait on a condition variable with timeout.">
<polygon fill="white" stroke="#666666" points="711.5,-19 630.5,-19 630.5,0 711.5,0 711.5,-19"/>
<text text-anchor="middle" x="671" y="-7" font-family="Helvetica,sans-Serif" font-size="10.00">SdbCondWait</text>
</a>
</g>
</g>
<!-- Node42&#45;&gt;Node43 -->
<g id="edge46_Node000042_Node000043" class="edge">
<title>Node42&#45;&gt;Node43</title>
<g id="a_edge46_Node000042_Node000043"><a xlink:title=" ">
<path fill="none" stroke="#63b8ff" d="M537.76,-35.95C563.23,-30.85 594.54,-24.59 620.3,-19.44"/>
<polygon fill="#63b8ff" stroke="#63b8ff" points="621.11,-22.85 630.23,-17.45 619.74,-15.98 621.11,-22.85"/>
</a>
</g>
</g>
<!-- Node44 -->
<g id="Node000044" class="node">
<title>Node44</title>
<g id="a_Node000044"><a xlink:href="Signals_8c.html#aca8d19968aa974641e340443ba21e58e" target="_top" xlink:title="Checks if the system should initiate shutdown.">
<polygon fill="white" stroke="#666666" points="729,-56 613,-56 613,-37 729,-37 729,-56"/>
<text text-anchor="middle" x="671" y="-44" font-family="Helvetica,sans-Serif" font-size="10.00">SdbShouldShutdown</text>
</a>
</g>
</g>
<!-- Node42&#45;&gt;Node44 -->
<g id="edge50_Node000042_Node000044" class="edge">
<title>Node42&#45;&gt;Node44</title>
<g id="a_edge50_Node000042_Node000044"><a xlink:title=" ">
<path fill="none" stroke="#63b8ff" d="M549.94,-45.83C566.86,-45.93 585.39,-46.03 602.72,-46.13"/>
<polygon fill="#63b8ff" stroke="#63b8ff" points="602.75,-49.63 612.76,-46.18 602.78,-42.63 602.75,-49.63"/>
</a>
</g>
</g>
<!-- Node43&#45;&gt;Node34 -->
<g id="edge47_Node000043_Node000034" class="edge">
<title>Node43&#45;&gt;Node34</title>
<g id="a_edge47_Node000043_Node000034"><a xlink:title=" ">
<path fill="none" stroke="#63b8ff" d="M711.61,-18.25C736.3,-23.71 768.39,-30.8 795.29,-36.74"/>
<polygon fill="#63b8ff" stroke="#63b8ff" points="794.79,-40.22 805.31,-38.96 796.31,-33.38 794.79,-40.22"/>
</a>
</g>
</g>
</g>
</svg>
