<?xml version="1.0" encoding="UTF-8" standalone="no"?>
<!DOCTYPE svg PUBLIC "-//W3C//DTD SVG 1.1//EN"
 "http://www.w3.org/Graphics/SVG/1.1/DTD/svg11.dtd">
<!-- Generated by graphviz version 2.43.0 (0)
 -->
<!-- Title: src/Main.c Pages: 1 -->
<!--zoomable 357 -->

<svg id="main" version="1.1" xmlns="http://www.w3.org/2000/svg" xmlns:xlink="http://www.w3.org/1999/xlink" xml:space="preserve" onload="init(evt)">
<style type="text/css"><![CDATA[
.node, .edge {opacity: 0.7;}
.node.selected, .edge.selected {opacity: 1;}
.edge:hover path { stroke: red; }
.edge:hover polygon { stroke: red; fill: red; }
]]></style>

<defs>
  <circle id="rim" cx="0" cy="0" r="7"/>
  <circle id="rim2" cx="0" cy="0" r="3.5"/>
  <g id="zoomPlus">
    <use xlink:href="#rim" fill="#404040"><set attributeName="fill" to="#808080" begin="zoomplus.mouseover" end="zoomplus.mouseout"/></use>
    <path d="M-4,0h8M0,-4v8" fill="none" stroke="white" stroke-width="1.5" pointer-events="none"/>
  </g>
  <g id="zoomMin">
    <use xlink:href="#rim" fill="#404040"><set attributeName="fill" to="#808080" begin="zoomminus.mouseover" end="zoomminus.mouseout"/></use>
    <path d="M-4,0h8" fill="none" stroke="white" stroke-width="1.5" pointer-events="none"/>
  </g>
  <g id="arrowUp" transform="translate(30 24)">
    <use xlink:href="#rim"/>
    <path pointer-events="none" fill="none" stroke="white" stroke-width="1.5" d="M0,-3.0v7 M-2.5,-0.5L0,-3.0L2.5,-0.5"/>
  </g>
  <g id="arrowRight" transform="rotate(90) translate(36 -43)">
    <use xlink:href="#rim"/>
    <path pointer-events="none" fill="none" stroke="white" stroke-width="1.5" d="M0,-3.0v7 M-2.5,-0.5L0,-3.0L2.5,-0.5"/>
  </g>
  <g id="arrowDown" transform="rotate(180) translate(-30 -48)">
    <use xlink:href="#rim"/>
    <path pointer-events="none" fill="none" stroke="white" stroke-width="1.5" d="M0,-3.0v7 M-2.5,-0.5L0,-3.0L2.5,-0.5"/>
  </g>
  <g id="arrowLeft" transform="rotate(270) translate(-36 17)">
    <use xlink:href="#rim"/>
    <path pointer-events="none" fill="none" stroke="white" stroke-width="1.5" d="M0,-3.0v7 M-2.5,-0.5L0,-3.0L2.5,-0.5"/>
  </g>
  <g id="resetDef">
    <use xlink:href="#rim2" fill="#404040"><set attributeName="fill" to="#808080" begin="reset.mouseover" end="reset.mouseout"/></use>
  </g>
</defs>
<script type="application/ecmascript">
var viewWidth = 1239;
var viewHeight = 357;
var sectionId = 'dynsection-0';
</script>
<script type="application/ecmascript" xlink:href="svg.min.js"/>
<svg id="graph" class="graph">
<g id="viewport">
<title>src/Main.c</title>
<!-- Node1 -->
<g id="Node000001" class="node">
<title>Node1</title>
<g id="a_Node000001"><a xlink:title="Main implementation file for the Sensor Data Handler System.">
<polygon fill="#999999" stroke="#666666" points="761.5,-349 695.5,-349 695.5,-330 761.5,-330 761.5,-349"/>
<text text-anchor="middle" x="728.5" y="-337" font-family="Helvetica,sans-Serif" font-size="10.00">src/Main.c</text>
</a>
</g>
</g>
<!-- Node2 -->
<g id="Node000002" class="node">
<title>Node2</title>
<g id="a_Node000002"><a xlink:title=" ">
<polygon fill="#e0e0e0" stroke="#999999" points="478,-239 423,-239 423,-220 478,-220 478,-239"/>
<text text-anchor="middle" x="450.5" y="-227" font-family="Helvetica,sans-Serif" font-size="10.00">signal.h</text>
</a>
</g>
</g>
<!-- Node1&#45;&gt;Node2 -->
<g id="edge1_Node000001_Node000002" class="edge">
<title>Node1&#45;&gt;Node2</title>
<g id="a_edge1_Node000001_Node000002"><a xlink:title=" ">
<path fill="none" stroke="#63b8ff" d="M699.05,-329.95C671.08,-321.59 628.01,-308.1 591.5,-294 550.95,-278.34 505.29,-257.09 477.21,-243.58"/>
<polygon fill="#63b8ff" stroke="#63b8ff" points="478.57,-240.35 468.04,-239.15 475.52,-246.65 478.57,-240.35"/>
</a>
</g>
</g>
<!-- Node3 -->
<g id="Node000003" class="node">
<title>Node3</title>
<g id="a_Node000003"><a xlink:title=" ">
<polygon fill="#e0e0e0" stroke="#999999" points="53,-19 0,-19 0,0 53,0 53,-19"/>
<text text-anchor="middle" x="26.5" y="-7" font-family="Helvetica,sans-Serif" font-size="10.00">stdlib.h</text>
</a>
</g>
</g>
<!-- Node1&#45;&gt;Node3 -->
<g id="edge2_Node000001_Node000003" class="edge">
<title>Node1&#45;&gt;Node3</title>
<g id="a_edge2_Node000001_Node000003"><a xlink:title=" ">
<path fill="none" stroke="#63b8ff" d="M695.47,-338.97C578.01,-339.79 187.5,-334.66 187.5,-230.5 187.5,-230.5 187.5,-230.5 187.5,-118.5 187.5,-87.16 102.28,-44.25 55.84,-23.2"/>
<polygon fill="#63b8ff" stroke="#63b8ff" points="57.12,-19.94 46.57,-19.05 54.27,-26.33 57.12,-19.94"/>
</a>
</g>
</g>
<!-- Node4 -->
<g id="Node000004" class="node">
<title>Node4</title>
<g id="a_Node000004"><a xlink:title=" ">
<polygon fill="#e0e0e0" stroke="#999999" points="1231,-19 1178,-19 1178,0 1231,0 1231,-19"/>
<text text-anchor="middle" x="1204.5" y="-7" font-family="Helvetica,sans-Serif" font-size="10.00">string.h</text>
</a>
</g>
</g>
<!-- Node1&#45;&gt;Node4 -->
<g id="edge3_Node000001_Node000004" class="edge">
<title>Node1&#45;&gt;Node4</title>
<g id="a_edge3_Node000001_Node000004"><a xlink:title=" ">
<path fill="none" stroke="#63b8ff" d="M761.59,-338.08C869.54,-335.82 1204.5,-321.49 1204.5,-230.5 1204.5,-230.5 1204.5,-230.5 1204.5,-118.5 1204.5,-87.19 1204.5,-50.77 1204.5,-29.23"/>
<polygon fill="#63b8ff" stroke="#63b8ff" points="1208,-29.18 1204.5,-19.18 1201,-29.18 1208,-29.18"/>
</a>
</g>
</g>
<!-- Node5 -->
<g id="Node000005" class="node">
<title>Node5</title>
<g id="a_Node000005"><a xlink:href="Sdb_8h.html" target="_top" xlink:title=" ">
<polygon fill="white" stroke="#666666" points="680,-74 619,-74 619,-55 680,-55 680,-74"/>
<text text-anchor="middle" x="649.5" y="-62" font-family="Helvetica,sans-Serif" font-size="10.00">src/Sdb.h</text>
</a>
</g>
</g>
<!-- Node1&#45;&gt;Node5 -->
<g id="edge4_Node000001_Node000005" class="edge">
<title>Node1&#45;&gt;Node5</title>
<g id="a_edge4_Node000001_Node000005"><a xlink:title=" ">
<path fill="none" stroke="#63b8ff" d="M695.25,-334.93C610.77,-324.95 394.5,-293.27 394.5,-230.5 394.5,-230.5 394.5,-230.5 394.5,-173.5 394.5,-81.51 536.95,-66.7 608.91,-65.08"/>
<polygon fill="#63b8ff" stroke="#63b8ff" points="609.05,-68.58 618.99,-64.93 608.94,-61.58 609.05,-68.58"/>
</a>
</g>
</g>
<!-- Node21 -->
<g id="Node000021" class="node">
<title>Node21</title>
<g id="a_Node000021"><a xlink:href="Thread_8h.html" target="_top" xlink:title="Lightweight Synchronization Primitives Wrapper.">
<polygon fill="white" stroke="#666666" points="778.5,-184 654.5,-184 654.5,-165 778.5,-165 778.5,-184"/>
<text text-anchor="middle" x="716.5" y="-172" font-family="Helvetica,sans-Serif" font-size="10.00">src/Common/Thread.h</text>
</a>
</g>
</g>
<!-- Node1&#45;&gt;Node21 -->
<g id="edge22_Node000001_Node000021" class="edge">
<title>Node1&#45;&gt;Node21</title>
<g id="a_edge22_Node000001_Node000021"><a xlink:title=" ">
<path fill="none" stroke="#63b8ff" d="M727.85,-329.74C725.98,-304.31 720.52,-230.08 717.91,-194.69"/>
<polygon fill="#63b8ff" stroke="#63b8ff" points="721.37,-194.02 717.15,-184.31 714.39,-194.54 721.37,-194.02"/>
</a>
</g>
</g>
<!-- Node25 -->
<g id="Node000025" class="node">
<title>Node25</title>
<g id="a_Node000025"><a xlink:href="ThreadGroup_8h.html" target="_top" xlink:title="Thread Group Management System.">
<polygon fill="white" stroke="#666666" points="988,-239 835,-239 835,-220 988,-220 988,-239"/>
<text text-anchor="middle" x="911.5" y="-227" font-family="Helvetica,sans-Serif" font-size="10.00">src/Common/ThreadGroup.h</text>
</a>
</g>
</g>
<!-- Node1&#45;&gt;Node25 -->
<g id="edge30_Node000001_Node000025" class="edge">
<title>Node1&#45;&gt;Node25</title>
<g id="a_edge30_Node000001_Node000025"><a xlink:title=" ">
<path fill="none" stroke="#63b8ff" d="M761.9,-336.65C816.9,-332.82 922.71,-321.94 945.5,-294 957.39,-279.42 943.56,-260.04 930.13,-246.54"/>
<polygon fill="#63b8ff" stroke="#63b8ff" points="932.16,-243.64 922.47,-239.35 927.37,-248.75 932.16,-243.64"/>
</a>
</g>
</g>
<!-- Node26 -->
<g id="Node000026" class="node">
<title>Node26</title>
<g id="a_Node000026"><a xlink:href="DataHandlers_8h.html" target="_top" xlink:title="Data Handler Management for Thread Group Creation.">
<polygon fill="white" stroke="#666666" points="936,-294 757,-294 757,-275 936,-275 936,-294"/>
<text text-anchor="middle" x="846.5" y="-282" font-family="Helvetica,sans-Serif" font-size="10.00">src/DataHandlers/DataHandlers.h</text>
</a>
</g>
</g>
<!-- Node1&#45;&gt;Node26 -->
<g id="edge35_Node000001_Node000026" class="edge">
<title>Node1&#45;&gt;Node26</title>
<g id="a_edge35_Node000001_Node000026"><a xlink:title=" ">
<path fill="none" stroke="#63b8ff" d="M747.46,-329.98C766.53,-321.42 796.16,-308.11 818.05,-298.28"/>
<polygon fill="#63b8ff" stroke="#63b8ff" points="819.51,-301.46 827.2,-294.17 816.64,-295.07 819.51,-301.46"/>
</a>
</g>
</g>
<!-- Node27 -->
<g id="Node000027" class="node">
<title>Node27</title>
<g id="a_Node000027"><a xlink:href="cJSON_8h.html" target="_top" xlink:title=" ">
<polygon fill="white" stroke="#666666" points="1133,-239 1006,-239 1006,-220 1133,-220 1133,-239"/>
<text text-anchor="middle" x="1069.5" y="-227" font-family="Helvetica,sans-Serif" font-size="10.00">src/Libs/cJSON/cJSON.h</text>
</a>
</g>
</g>
<!-- Node1&#45;&gt;Node27 -->
<g id="edge40_Node000001_Node000027" class="edge">
<title>Node1&#45;&gt;Node27</title>
<g id="a_edge40_Node000001_Node000027"><a xlink:title=" ">
<path fill="none" stroke="#63b8ff" d="M761.88,-335.74C808.01,-331.13 893.28,-319.69 961.5,-294 994.3,-281.65 1028.6,-259.68 1049.52,-245.1"/>
<polygon fill="#63b8ff" stroke="#63b8ff" points="1051.75,-247.81 1057.88,-239.17 1047.7,-242.11 1051.75,-247.81"/>
</a>
</g>
</g>
<!-- Node29 -->
<g id="Node000029" class="node">
<title>Node29</title>
<g id="a_Node000029"><a xlink:href="Signals_8h.html" target="_top" xlink:title="Signal handling interface for the Sensor Data Handler System.">
<polygon fill="white" stroke="#666666" points="678.5,-294 600.5,-294 600.5,-275 678.5,-275 678.5,-294"/>
<text text-anchor="middle" x="639.5" y="-282" font-family="Helvetica,sans-Serif" font-size="10.00">src/Signals.h</text>
</a>
</g>
</g>
<!-- Node1&#45;&gt;Node29 -->
<g id="edge41_Node000001_Node000029" class="edge">
<title>Node1&#45;&gt;Node29</title>
<g id="a_edge41_Node000001_Node000029"><a xlink:title=" ">
<path fill="none" stroke="#63b8ff" d="M714.2,-329.98C700.4,-321.77 679.26,-309.18 662.99,-299.49"/>
<polygon fill="#63b8ff" stroke="#63b8ff" points="664.44,-296.28 654.06,-294.17 660.86,-302.29 664.44,-296.28"/>
</a>
</g>
</g>
<!-- Node5&#45;&gt;Node3 -->
<g id="edge15_Node000005_Node000003" class="edge">
<title>Node5&#45;&gt;Node3</title>
<g id="a_edge15_Node000005_Node000003"><a xlink:title=" ">
<path fill="none" stroke="#63b8ff" d="M618.69,-62.93C532.34,-60.97 280.61,-52.69 63.16,-19.02"/>
<polygon fill="#63b8ff" stroke="#63b8ff" points="63.58,-15.54 53.16,-17.45 62.5,-22.46 63.58,-15.54"/>
</a>
</g>
</g>
<!-- Node5&#45;&gt;Node4 -->
<g id="edge16_Node000005_Node000004" class="edge">
<title>Node5&#45;&gt;Node4</title>
<g id="a_edge16_Node000005_Node000004"><a xlink:title=" ">
<path fill="none" stroke="#63b8ff" d="M680.18,-62.51C759.45,-59.61 977.66,-49.43 1167.93,-19.03"/>
<polygon fill="#63b8ff" stroke="#63b8ff" points="1168.52,-22.48 1177.83,-17.42 1167.4,-15.57 1168.52,-22.48"/>
</a>
</g>
</g>
<!-- Node6 -->
<g id="Node000006" class="node">
<title>Node6</title>
<g id="a_Node000006"><a xlink:title=" ">
<polygon fill="#e0e0e0" stroke="#999999" points="518.5,-19 462.5,-19 462.5,0 518.5,0 518.5,-19"/>
<text text-anchor="middle" x="490.5" y="-7" font-family="Helvetica,sans-Serif" font-size="10.00">assert.h</text>
</a>
</g>
</g>
<!-- Node5&#45;&gt;Node6 -->
<g id="edge5_Node000005_Node000006" class="edge">
<title>Node5&#45;&gt;Node6</title>
<g id="a_edge5_Node000005_Node000006"><a xlink:title=" ">
<path fill="none" stroke="#63b8ff" d="M623.95,-54.98C597.38,-46.13 555.56,-32.19 525.83,-22.28"/>
<polygon fill="#63b8ff" stroke="#63b8ff" points="526.84,-18.92 516.25,-19.08 524.63,-25.56 526.84,-18.92"/>
</a>
</g>
</g>
<!-- Node7 -->
<g id="Node000007" class="node">
<title>Node7</title>
<g id="a_Node000007"><a xlink:title=" ">
<polygon fill="#e0e0e0" stroke="#999999" points="590,-19 537,-19 537,0 590,0 590,-19"/>
<text text-anchor="middle" x="563.5" y="-7" font-family="Helvetica,sans-Serif" font-size="10.00">ctype.h</text>
</a>
</g>
</g>
<!-- Node5&#45;&gt;Node7 -->
<g id="edge6_Node000005_Node000007" class="edge">
<title>Node5&#45;&gt;Node7</title>
<g id="a_edge6_Node000005_Node000007"><a xlink:title=" ">
<path fill="none" stroke="#63b8ff" d="M635.68,-54.98C622.35,-46.77 601.92,-34.18 586.19,-24.49"/>
<polygon fill="#63b8ff" stroke="#63b8ff" points="587.92,-21.44 577.57,-19.17 584.25,-27.4 587.92,-21.44"/>
</a>
</g>
</g>
<!-- Node8 -->
<g id="Node000008" class="node">
<title>Node8</title>
<g id="a_Node000008"><a xlink:title=" ">
<polygon fill="#e0e0e0" stroke="#999999" points="659,-19 608,-19 608,0 659,0 659,-19"/>
<text text-anchor="middle" x="633.5" y="-7" font-family="Helvetica,sans-Serif" font-size="10.00">errno.h</text>
</a>
</g>
</g>
<!-- Node5&#45;&gt;Node8 -->
<g id="edge7_Node000005_Node000008" class="edge">
<title>Node5&#45;&gt;Node8</title>
<g id="a_edge7_Node000005_Node000008"><a xlink:title=" ">
<path fill="none" stroke="#63b8ff" d="M646.86,-54.75C644.74,-47.72 641.69,-37.62 639.04,-28.84"/>
<polygon fill="#63b8ff" stroke="#63b8ff" points="642.33,-27.65 636.09,-19.09 635.63,-29.67 642.33,-27.65"/>
</a>
</g>
</g>
<!-- Node9 -->
<g id="Node000009" class="node">
<title>Node9</title>
<g id="a_Node000009"><a xlink:title=" ">
<polygon fill="#e0e0e0" stroke="#999999" points="724,-19 677,-19 677,0 724,0 724,-19"/>
<text text-anchor="middle" x="700.5" y="-7" font-family="Helvetica,sans-Serif" font-size="10.00">fcntl.h</text>
</a>
</g>
</g>
<!-- Node5&#45;&gt;Node9 -->
<g id="edge8_Node000005_Node000009" class="edge">
<title>Node5&#45;&gt;Node9</title>
<g id="a_edge8_Node000005_Node000009"><a xlink:title=" ">
<path fill="none" stroke="#63b8ff" d="M657.92,-54.75C665.27,-47.11 676.13,-35.82 685.04,-26.56"/>
<polygon fill="#63b8ff" stroke="#63b8ff" points="687.82,-28.72 692.24,-19.09 682.78,-23.87 687.82,-28.72"/>
</a>
</g>
</g>
<!-- Node10 -->
<g id="Node000010" class="node">
<title>Node10</title>
<g id="a_Node000010"><a xlink:title=" ">
<polygon fill="#e0e0e0" stroke="#999999" points="789,-19 742,-19 742,0 789,0 789,-19"/>
<text text-anchor="middle" x="765.5" y="-7" font-family="Helvetica,sans-Serif" font-size="10.00">float.h</text>
</a>
</g>
</g>
<!-- Node5&#45;&gt;Node10 -->
<g id="edge9_Node000005_Node000010" class="edge">
<title>Node5&#45;&gt;Node10</title>
<g id="a_edge9_Node000005_Node000010"><a xlink:title=" ">
<path fill="none" stroke="#63b8ff" d="M668.14,-54.98C686.8,-46.46 715.75,-33.23 737.24,-23.41"/>
<polygon fill="#63b8ff" stroke="#63b8ff" points="738.88,-26.51 746.52,-19.17 735.97,-20.14 738.88,-26.51"/>
</a>
</g>
</g>
<!-- Node11 -->
<g id="Node000011" class="node">
<title>Node11</title>
<g id="a_Node000011"><a xlink:title=" ">
<polygon fill="#e0e0e0" stroke="#999999" points="858,-19 807,-19 807,0 858,0 858,-19"/>
<text text-anchor="middle" x="832.5" y="-7" font-family="Helvetica,sans-Serif" font-size="10.00">math.h</text>
</a>
</g>
</g>
<!-- Node5&#45;&gt;Node11 -->
<g id="edge10_Node000005_Node000011" class="edge">
<title>Node5&#45;&gt;Node11</title>
<g id="a_edge10_Node000005_Node000011"><a xlink:title=" ">
<path fill="none" stroke="#63b8ff" d="M678.9,-54.98C711.09,-45.66 762.68,-30.72 797.07,-20.76"/>
<polygon fill="#63b8ff" stroke="#63b8ff" points="798.09,-24.11 806.72,-17.97 796.14,-17.39 798.09,-24.11"/>
</a>
</g>
</g>
<!-- Node12 -->
<g id="Node000012" class="node">
<title>Node12</title>
<g id="a_Node000012"><a xlink:title=" ">
<polygon fill="#e0e0e0" stroke="#999999" points="1160,-19 1097,-19 1097,0 1160,0 1160,-19"/>
<text text-anchor="middle" x="1128.5" y="-7" font-family="Helvetica,sans-Serif" font-size="10.00">pthread.h</text>
</a>
</g>
</g>
<!-- Node5&#45;&gt;Node12 -->
<g id="edge11_Node000005_Node000012" class="edge">
<title>Node5&#45;&gt;Node12</title>
<g id="a_edge11_Node000005_Node000012"><a xlink:title=" ">
<path fill="none" stroke="#63b8ff" d="M680.17,-61.48C750.32,-56.62 927.98,-42.99 1086.82,-18.94"/>
<polygon fill="#63b8ff" stroke="#63b8ff" points="1087.42,-22.39 1096.77,-17.41 1086.36,-15.47 1087.42,-22.39"/>
</a>
</g>
</g>
<!-- Node13 -->
<g id="Node000013" class="node">
<title>Node13</title>
<g id="a_Node000013"><a xlink:title=" ">
<polygon fill="#e0e0e0" stroke="#999999" points="932.5,-19 876.5,-19 876.5,0 932.5,0 932.5,-19"/>
<text text-anchor="middle" x="904.5" y="-7" font-family="Helvetica,sans-Serif" font-size="10.00">stdarg.h</text>
</a>
</g>
</g>
<!-- Node5&#45;&gt;Node13 -->
<g id="edge12_Node000005_Node000013" class="edge">
<title>Node5&#45;&gt;Node13</title>
<g id="a_edge12_Node000005_Node000013"><a xlink:title=" ">
<path fill="none" stroke="#63b8ff" d="M680.24,-57.47C720.59,-49.5 793.9,-34.85 866.06,-19.27"/>
<polygon fill="#63b8ff" stroke="#63b8ff" points="867.2,-22.61 876.23,-17.07 865.72,-15.76 867.2,-22.61"/>
</a>
</g>
</g>
<!-- Node14 -->
<g id="Node000014" class="node">
<title>Node14</title>
<g id="a_Node000014"><a xlink:title=" ">
<polygon fill="#e0e0e0" stroke="#999999" points="124,-19 71,-19 71,0 124,0 124,-19"/>
<text text-anchor="middle" x="97.5" y="-7" font-family="Helvetica,sans-Serif" font-size="10.00">stdint.h</text>
</a>
</g>
</g>
<!-- Node5&#45;&gt;Node14 -->
<g id="edge13_Node000005_Node000014" class="edge">
<title>Node5&#45;&gt;Node14</title>
<g id="a_edge13_Node000005_Node000014"><a xlink:title=" ">
<path fill="none" stroke="#63b8ff" d="M618.78,-62.41C539.93,-59.3 323.94,-48.66 134.3,-18.87"/>
<polygon fill="#63b8ff" stroke="#63b8ff" points="134.58,-15.37 124.15,-17.25 133.47,-22.28 134.58,-15.37"/>
</a>
</g>
</g>
<!-- Node15 -->
<g id="Node000015" class="node">
<title>Node15</title>
<g id="a_Node000015"><a xlink:title=" ">
<polygon fill="#e0e0e0" stroke="#999999" points="192.5,-19 142.5,-19 142.5,0 192.5,0 192.5,-19"/>
<text text-anchor="middle" x="167.5" y="-7" font-family="Helvetica,sans-Serif" font-size="10.00">stdio.h</text>
</a>
</g>
</g>
<!-- Node5&#45;&gt;Node15 -->
<g id="edge14_Node000005_Node000015" class="edge">
<title>Node5&#45;&gt;Node15</title>
<g id="a_edge14_Node000005_Node000015"><a xlink:title=" ">
<path fill="none" stroke="#63b8ff" d="M618.87,-62C547.55,-58.19 364.76,-46.51 202.81,-18.98"/>
<polygon fill="#63b8ff" stroke="#63b8ff" points="203.11,-15.48 192.66,-17.23 201.92,-22.38 203.11,-15.48"/>
</a>
</g>
</g>
<!-- Node16 -->
<g id="Node000016" class="node">
<title>Node16</title>
<g id="a_Node000016"><a xlink:title=" ">
<polygon fill="#e0e0e0" stroke="#999999" points="288,-19 211,-19 211,0 288,0 288,-19"/>
<text text-anchor="middle" x="249.5" y="-7" font-family="Helvetica,sans-Serif" font-size="10.00">sys/mman.h</text>
</a>
</g>
</g>
<!-- Node5&#45;&gt;Node16 -->
<g id="edge17_Node000005_Node000016" class="edge">
<title>Node5&#45;&gt;Node16</title>
<g id="a_edge17_Node000005_Node000016"><a xlink:title=" ">
<path fill="none" stroke="#63b8ff" d="M618.82,-60.14C559.22,-53.5 423.37,-37.82 298.37,-19.06"/>
<polygon fill="#63b8ff" stroke="#63b8ff" points="298.66,-15.56 288.25,-17.53 297.61,-22.49 298.66,-15.56"/>
</a>
</g>
</g>
<!-- Node17 -->
<g id="Node000017" class="node">
<title>Node17</title>
<g id="a_Node000017"><a xlink:title=" ">
<polygon fill="#e0e0e0" stroke="#999999" points="370.5,-19 306.5,-19 306.5,0 370.5,0 370.5,-19"/>
<text text-anchor="middle" x="338.5" y="-7" font-family="Helvetica,sans-Serif" font-size="10.00">sys/stat.h</text>
</a>
</g>
</g>
<!-- Node5&#45;&gt;Node17 -->
<g id="edge18_Node000005_Node000017" class="edge">
<title>Node5&#45;&gt;Node17</title>
<g id="a_edge18_Node000005_Node000017"><a xlink:title=" ">
<path fill="none" stroke="#63b8ff" d="M618.65,-58.84C570.2,-51.42 473.05,-36.19 380.77,-19.17"/>
<polygon fill="#63b8ff" stroke="#63b8ff" points="381.17,-15.69 370.7,-17.31 379.9,-22.57 381.17,-15.69"/>
</a>
</g>
</g>
<!-- Node18 -->
<g id="Node000018" class="node">
<title>Node18</title>
<g id="a_Node000018"><a xlink:title=" ">
<polygon fill="#e0e0e0" stroke="#999999" points="998.5,-19 950.5,-19 950.5,0 998.5,0 998.5,-19"/>
<text text-anchor="middle" x="974.5" y="-7" font-family="Helvetica,sans-Serif" font-size="10.00">time.h</text>
</a>
</g>
</g>
<!-- Node5&#45;&gt;Node18 -->
<g id="edge19_Node000005_Node000018" class="edge">
<title>Node5&#45;&gt;Node18</title>
<g id="a_edge19_Node000005_Node000018"><a xlink:title=" ">
<path fill="none" stroke="#63b8ff" d="M680.37,-59.84C732.12,-53.47 839.81,-39.26 940.39,-19.04"/>
<polygon fill="#63b8ff" stroke="#63b8ff" points="941.31,-22.43 950.41,-17 939.92,-15.57 941.31,-22.43"/>
</a>
</g>
</g>
<!-- Node19 -->
<g id="Node000019" class="node">
<title>Node19</title>
<g id="a_Node000019"><a xlink:title=" ">
<polygon fill="#e0e0e0" stroke="#999999" points="444.5,-19 388.5,-19 388.5,0 444.5,0 444.5,-19"/>
<text text-anchor="middle" x="416.5" y="-7" font-family="Helvetica,sans-Serif" font-size="10.00">unistd.h</text>
</a>
</g>
</g>
<!-- Node5&#45;&gt;Node19 -->
<g id="edge20_Node000005_Node000019" class="edge">
<title>Node5&#45;&gt;Node19</title>
<g id="a_edge20_Node000005_Node000019"><a xlink:title=" ">
<path fill="none" stroke="#63b8ff" d="M618.94,-56.59C582.26,-48.28 518.62,-33.86 454.63,-19.25"/>
<polygon fill="#63b8ff" stroke="#63b8ff" points="455.31,-15.82 444.78,-17 453.75,-22.64 455.31,-15.82"/>
</a>
</g>
</g>
<!-- Node20 -->
<g id="Node000020" class="node">
<title>Node20</title>
<g id="a_Node000020"><a xlink:title=" ">
<polygon fill="#e0e0e0" stroke="#999999" points="1078.5,-19 1016.5,-19 1016.5,0 1078.5,0 1078.5,-19"/>
<text text-anchor="middle" x="1047.5" y="-7" font-family="Helvetica,sans-Serif" font-size="10.00">stdbool.h</text>
</a>
</g>
</g>
<!-- Node5&#45;&gt;Node20 -->
<g id="edge21_Node000005_Node000020" class="edge">
<title>Node5&#45;&gt;Node20</title>
<g id="a_edge21_Node000005_Node000020"><a xlink:title=" ">
<path fill="none" stroke="#63b8ff" d="M680.28,-60.57C740.75,-54.63 879.49,-40.04 1005.87,-19.15"/>
<polygon fill="#63b8ff" stroke="#63b8ff" points="1006.82,-22.54 1016.11,-17.44 1005.67,-15.63 1006.82,-22.54"/>
</a>
</g>
</g>
<!-- Node21&#45;&gt;Node5 -->
<g id="edge25_Node000021_Node000005" class="edge">
<title>Node21&#45;&gt;Node5</title>
<g id="a_edge25_Node000021_Node000005"><a xlink:title=" ">
<path fill="none" stroke="#63b8ff" d="M709.53,-164.9C702.57,-156.13 691.74,-142 683.5,-129 674.1,-114.16 664.78,-96.49 658.28,-83.56"/>
<polygon fill="#63b8ff" stroke="#63b8ff" points="661.3,-81.77 653.73,-74.36 655.02,-84.87 661.3,-81.77"/>
</a>
</g>
</g>
<!-- Node21&#45;&gt;Node12 -->
<g id="edge23_Node000021_Node000012" class="edge">
<title>Node21&#45;&gt;Node12</title>
<g id="a_edge23_Node000021_Node000012"><a xlink:title=" ">
<path fill="none" stroke="#63b8ff" d="M778.72,-173.77C837.77,-171.75 927.63,-162.64 997.5,-129 1041.44,-107.85 1042.29,-87.65 1078.5,-55 1089.18,-45.37 1101.22,-34.65 1110.81,-26.15"/>
<polygon fill="#63b8ff" stroke="#63b8ff" points="1113.34,-28.58 1118.51,-19.33 1108.7,-23.34 1113.34,-28.58"/>
</a>
</g>
</g>
<!-- Node22 -->
<g id="Node000022" class="node">
<title>Node22</title>
<g id="a_Node000022"><a xlink:title=" ">
<polygon fill="#e0e0e0" stroke="#999999" points="772.5,-129 692.5,-129 692.5,-110 772.5,-110 772.5,-129"/>
<text text-anchor="middle" x="732.5" y="-117" font-family="Helvetica,sans-Serif" font-size="10.00">semaphore.h</text>
</a>
</g>
</g>
<!-- Node21&#45;&gt;Node22 -->
<g id="edge24_Node000021_Node000022" class="edge">
<title>Node21&#45;&gt;Node22</title>
<g id="a_edge24_Node000021_Node000022"><a xlink:title=" ">
<path fill="none" stroke="#63b8ff" d="M719.14,-164.75C721.26,-157.72 724.31,-147.62 726.96,-138.84"/>
<polygon fill="#63b8ff" stroke="#63b8ff" points="730.37,-139.67 729.91,-129.09 723.67,-137.65 730.37,-139.67"/>
</a>
</g>
</g>
<!-- Node23 -->
<g id="Node000023" class="node">
<title>Node23</title>
<g id="a_Node000023"><a xlink:href="Time_8h.html" target="_top" xlink:title="Lightweight Time Manipulation Utilities.">
<polygon fill="white" stroke="#666666" points="988,-129 873,-129 873,-110 988,-110 988,-129"/>
<text text-anchor="middle" x="930.5" y="-117" font-family="Helvetica,sans-Serif" font-size="10.00">src/Common/Time.h</text>
</a>
</g>
</g>
<!-- Node21&#45;&gt;Node23 -->
<g id="edge26_Node000021_Node000023" class="edge">
<title>Node21&#45;&gt;Node23</title>
<g id="a_edge26_Node000021_Node000023"><a xlink:title=" ">
<path fill="none" stroke="#63b8ff" d="M750.88,-164.98C787.59,-155.89 845.88,-141.46 886.05,-131.51"/>
<polygon fill="#63b8ff" stroke="#63b8ff" points="886.98,-134.88 895.85,-129.08 885.3,-128.09 886.98,-134.88"/>
</a>
</g>
</g>
<!-- Node23&#45;&gt;Node5 -->
<g id="edge29_Node000023_Node000005" class="edge">
<title>Node23&#45;&gt;Node5</title>
<g id="a_edge29_Node000023_Node000005"><a xlink:title=" ">
<path fill="none" stroke="#63b8ff" d="M885.35,-109.98C831.39,-99.81 741.9,-82.93 690.06,-73.15"/>
<polygon fill="#63b8ff" stroke="#63b8ff" points="690.69,-69.71 680.21,-71.29 689.39,-76.59 690.69,-69.71"/>
</a>
</g>
</g>
<!-- Node23&#45;&gt;Node18 -->
<g id="edge28_Node000023_Node000018" class="edge">
<title>Node23&#45;&gt;Node18</title>
<g id="a_edge28_Node000023_Node000018"><a xlink:title=" ">
<path fill="none" stroke="#63b8ff" d="M927.55,-109.85C923.75,-97.21 918.55,-73.22 926.5,-55 931.77,-42.92 942.13,-32.65 951.87,-25.03"/>
<polygon fill="#63b8ff" stroke="#63b8ff" points="954.09,-27.74 960.13,-19.04 949.98,-22.07 954.09,-27.74"/>
</a>
</g>
</g>
<!-- Node24 -->
<g id="Node000024" class="node">
<title>Node24</title>
<g id="a_Node000024"><a xlink:title=" ">
<polygon fill="#e0e0e0" stroke="#999999" points="988,-74 935,-74 935,-55 988,-55 988,-74"/>
<text text-anchor="middle" x="961.5" y="-62" font-family="Helvetica,sans-Serif" font-size="10.00">limits.h</text>
</a>
</g>
</g>
<!-- Node23&#45;&gt;Node24 -->
<g id="edge27_Node000023_Node000024" class="edge">
<title>Node23&#45;&gt;Node24</title>
<g id="a_edge27_Node000023_Node000024"><a xlink:title=" ">
<path fill="none" stroke="#63b8ff" d="M935.62,-109.75C939.86,-102.49 946.03,-91.95 951.28,-82.98"/>
<polygon fill="#63b8ff" stroke="#63b8ff" points="954.45,-84.49 956.48,-74.09 948.41,-80.95 954.45,-84.49"/>
</a>
</g>
</g>
<!-- Node25&#45;&gt;Node5 -->
<g id="edge33_Node000025_Node000005" class="edge">
<title>Node25&#45;&gt;Node5</title>
<g id="a_edge33_Node000025_Node000005"><a xlink:title=" ">
<path fill="none" stroke="#63b8ff" d="M907.38,-219.76C896.51,-197.69 864.83,-139.37 820.5,-110 781.05,-83.86 727.05,-73.06 690.36,-68.61"/>
<polygon fill="#63b8ff" stroke="#63b8ff" points="690.35,-65.09 680.03,-67.47 689.59,-72.05 690.35,-65.09"/>
</a>
</g>
</g>
<!-- Node25&#45;&gt;Node12 -->
<g id="edge31_Node000025_Node000012" class="edge">
<title>Node25&#45;&gt;Node12</title>
<g id="a_edge31_Node000025_Node000012"><a xlink:title=" ">
<path fill="none" stroke="#63b8ff" d="M926.2,-219.92C939.9,-211.59 960.54,-198.16 976.5,-184 1034.54,-132.49 1091.81,-59.55 1116.21,-27.14"/>
<polygon fill="#63b8ff" stroke="#63b8ff" points="1119.02,-29.23 1122.2,-19.12 1113.41,-25.04 1119.02,-29.23"/>
</a>
</g>
</g>
<!-- Node25&#45;&gt;Node20 -->
<g id="edge32_Node000025_Node000020" class="edge">
<title>Node25&#45;&gt;Node20</title>
<g id="a_edge32_Node000025_Node000020"><a xlink:title=" ">
<path fill="none" stroke="#63b8ff" d="M920.6,-219.93C937.56,-203.59 974.36,-166.23 997.5,-129 1018.04,-95.94 1033.79,-52.96 1041.75,-28.9"/>
<polygon fill="#63b8ff" stroke="#63b8ff" points="1045.11,-29.87 1044.85,-19.28 1038.45,-27.73 1045.11,-29.87"/>
</a>
</g>
</g>
<!-- Node25&#45;&gt;Node21 -->
<g id="edge34_Node000025_Node000021" class="edge">
<title>Node25&#45;&gt;Node21</title>
<g id="a_edge34_Node000025_Node000021"><a xlink:title=" ">
<path fill="none" stroke="#63b8ff" d="M880.17,-219.98C847.01,-210.97 794.5,-196.7 757.94,-186.76"/>
<polygon fill="#63b8ff" stroke="#63b8ff" points="758.64,-183.33 748.08,-184.08 756.81,-190.08 758.64,-183.33"/>
</a>
</g>
</g>
<!-- Node26&#45;&gt;Node5 -->
<g id="edge36_Node000026_Node000005" class="edge">
<title>Node26&#45;&gt;Node5</title>
<g id="a_edge36_Node000026_Node000005"><a xlink:title=" ">
<path fill="none" stroke="#63b8ff" d="M842.29,-274.73C838.07,-265.83 831.51,-251.59 826.5,-239 804.03,-182.59 824.66,-152.71 781.5,-110 757.16,-85.91 719.36,-74.86 690.43,-69.79"/>
<polygon fill="#63b8ff" stroke="#63b8ff" points="690.64,-66.28 680.22,-68.18 689.55,-73.19 690.64,-66.28"/>
</a>
</g>
</g>
<!-- Node26&#45;&gt;Node25 -->
<g id="edge37_Node000026_Node000025" class="edge">
<title>Node26&#45;&gt;Node25</title>
<g id="a_edge37_Node000026_Node000025"><a xlink:title=" ">
<path fill="none" stroke="#63b8ff" d="M856.94,-274.98C866.65,-267.07 881.32,-255.11 893,-245.58"/>
<polygon fill="#63b8ff" stroke="#63b8ff" points="895.33,-248.2 900.87,-239.17 890.9,-242.78 895.33,-248.2"/>
</a>
</g>
</g>
<!-- Node26&#45;&gt;Node27 -->
<g id="edge38_Node000026_Node000027" class="edge">
<title>Node26&#45;&gt;Node27</title>
<g id="a_edge38_Node000026_Node000027"><a xlink:title=" ">
<path fill="none" stroke="#63b8ff" d="M882.33,-274.98C920.66,-265.87 981.58,-251.4 1023.45,-241.45"/>
<polygon fill="#63b8ff" stroke="#63b8ff" points="1024.47,-244.8 1033.39,-239.08 1022.85,-237.99 1024.47,-244.8"/>
</a>
</g>
</g>
<!-- Node28 -->
<g id="Node000028" class="node">
<title>Node28</title>
<g id="a_Node000028"><a xlink:title=" ">
<polygon fill="#e0e0e0" stroke="#999999" points="1176.5,-184 1120.5,-184 1120.5,-165 1176.5,-165 1176.5,-184"/>
<text text-anchor="middle" x="1148.5" y="-172" font-family="Helvetica,sans-Serif" font-size="10.00">stddef.h</text>
</a>
</g>
</g>
<!-- Node27&#45;&gt;Node28 -->
<g id="edge39_Node000027_Node000028" class="edge">
<title>Node27&#45;&gt;Node28</title>
<g id="a_edge39_Node000027_Node000028"><a xlink:title=" ">
<path fill="none" stroke="#63b8ff" d="M1082.19,-219.98C1094.33,-211.84 1112.86,-199.41 1127.25,-189.76"/>
<polygon fill="#63b8ff" stroke="#63b8ff" points="1129.22,-192.65 1135.58,-184.17 1125.32,-186.84 1129.22,-192.65"/>
</a>
</g>
</g>
<!-- Node29&#45;&gt;Node2 -->
<g id="edge42_Node000029_Node000002" class="edge">
<title>Node29&#45;&gt;Node2</title>
<g id="a_edge42_Node000029_Node000002"><a xlink:title=" ">
<path fill="none" stroke="#63b8ff" d="M609.13,-274.98C576.18,-265.74 523.52,-250.98 488.01,-241.02"/>
<polygon fill="#63b8ff" stroke="#63b8ff" points="488.6,-237.55 478.02,-238.22 486.71,-244.29 488.6,-237.55"/>
</a>
</g>
</g>
<!-- Node29&#45;&gt;Node5 -->
<g id="edge43_Node000029_Node000005" class="edge">
<title>Node29&#45;&gt;Node5</title>
<g id="a_edge43_Node000029_Node000005"><a xlink:title=" ">
<path fill="none" stroke="#63b8ff" d="M600.23,-278.09C575.13,-272.55 543.94,-261.38 525.5,-239 504.39,-213.39 500.59,-194.65 515.5,-165 536.86,-122.54 585.86,-93.64 618.31,-78.36"/>
<polygon fill="#63b8ff" stroke="#63b8ff" points="620.14,-81.37 627.8,-74.05 617.25,-75 620.14,-81.37"/>
</a>
</g>
</g>
<!-- Node29&#45;&gt;Node25 -->
<g id="edge48_Node000029_Node000025" class="edge">
<title>Node29&#45;&gt;Node25</title>
<g id="a_edge48_Node000029_Node000025"><a xlink:title=" ">
<path fill="none" stroke="#63b8ff" d="M678.76,-275.85C725.89,-266.67 805.16,-251.22 857.9,-240.94"/>
<polygon fill="#63b8ff" stroke="#63b8ff" points="858.6,-244.37 867.75,-239.03 857.26,-237.5 858.6,-244.37"/>
</a>
</g>
</g>
<!-- Node29&#45;&gt;Node27 -->
<g id="edge49_Node000029_Node000027" class="edge">
<title>Node29&#45;&gt;Node27</title>
<g id="a_edge49_Node000029_Node000027"><a xlink:title=" ">
<path fill="none" stroke="#63b8ff" d="M678.8,-278.66C750.54,-269.81 903.77,-250.93 995.57,-239.61"/>
<polygon fill="#63b8ff" stroke="#63b8ff" points="996.13,-243.07 1005.62,-238.37 995.27,-236.12 996.13,-243.07"/>
</a>
</g>
</g>
<!-- Node30 -->
<g id="Node000030" class="node">
<title>Node30</title>
<g id="a_Node000030"><a xlink:href="SensorDataPipe_8h.html" target="_top" xlink:title="Lock&#45;Free Data Pipeline.">
<polygon fill="white" stroke="#666666" points="701,-239 534,-239 534,-220 701,-220 701,-239"/>
<text text-anchor="middle" x="617.5" y="-227" font-family="Helvetica,sans-Serif" font-size="10.00">src/Common/SensorDataPipe.h</text>
</a>
</g>
</g>
<!-- Node29&#45;&gt;Node30 -->
<g id="edge44_Node000029_Node000030" class="edge">
<title>Node29&#45;&gt;Node30</title>
<g id="a_edge44_Node000029_Node000030"><a xlink:title=" ">
<path fill="none" stroke="#63b8ff" d="M635.87,-274.75C632.92,-267.65 628.67,-257.4 624.99,-248.56"/>
<polygon fill="#63b8ff" stroke="#63b8ff" points="628.13,-246.98 621.07,-239.09 621.67,-249.67 628.13,-246.98"/>
</a>
</g>
</g>
<!-- Node30&#45;&gt;Node5 -->
<g id="edge46_Node000030_Node000005" class="edge">
<title>Node30&#45;&gt;Node5</title>
<g id="a_edge46_Node000030_Node000005"><a xlink:title=" ">
<path fill="none" stroke="#63b8ff" d="M619.22,-219.74C624.23,-194.2 638.91,-119.43 645.82,-84.23"/>
<polygon fill="#63b8ff" stroke="#63b8ff" points="649.28,-84.79 647.77,-74.31 642.41,-83.45 649.28,-84.79"/>
</a>
</g>
</g>
<!-- Node30&#45;&gt;Node21 -->
<g id="edge47_Node000030_Node000021" class="edge">
<title>Node30&#45;&gt;Node21</title>
<g id="a_edge47_Node000030_Node000021"><a xlink:title=" ">
<path fill="none" stroke="#63b8ff" d="M633.41,-219.98C649.05,-211.61 673.16,-198.7 691.38,-188.95"/>
<polygon fill="#63b8ff" stroke="#63b8ff" points="693.14,-191.98 700.3,-184.17 689.84,-185.8 693.14,-191.98"/>
</a>
</g>
</g>
<!-- Node31 -->
<g id="Node000031" class="node">
<title>Node31</title>
<g id="a_Node000031"><a xlink:title=" ">
<polygon fill="#e0e0e0" stroke="#999999" points="598.5,-184 524.5,-184 524.5,-165 598.5,-165 598.5,-184"/>
<text text-anchor="middle" x="561.5" y="-172" font-family="Helvetica,sans-Serif" font-size="10.00">stdatomic.h</text>
</a>
</g>
</g>
<!-- Node30&#45;&gt;Node31 -->
<g id="edge45_Node000030_Node000031" class="edge">
<title>Node30&#45;&gt;Node31</title>
<g id="a_edge45_Node000030_Node000031"><a xlink:title=" ">
<path fill="none" stroke="#63b8ff" d="M608.5,-219.98C600.31,-212.23 587.99,-200.58 578.03,-191.14"/>
<polygon fill="#63b8ff" stroke="#63b8ff" points="580.33,-188.5 570.66,-184.17 575.52,-193.59 580.33,-188.5"/>
</a>
</g>
</g>
</g>
</svg>

<g id="navigator" transform="translate(0 0)" fill="#404254">
  <rect fill="#f2f5e9" fill-opacity="0.5" stroke="#606060" stroke-width=".5" x="0" y="0" width="60" height="60"/>
  <use id="zoomplus" xlink:href="#zoomPlus" x="17" y="9" onmousedown="handleZoom(evt,'in')"/>
  <use id="zoomminus" xlink:href="#zoomMin" x="42" y="9" onmousedown="handleZoom(evt,'out')"/>
  <use id="reset" xlink:href="#resetDef" x="30" y="36" onmousedown="handleReset()"/>
   <use id="arrowup" xlink:href="#arrowUp" x="0" y="0" onmousedown="handlePan(0,-1)"/>
  <use id="arrowright" xlink:href="#arrowRight" x="0" y="0" onmousedown="handlePan(1,0)"/>
  <use id="arrowdown" xlink:href="#arrowDown" x="0" y="0" onmousedown="handlePan(0,1)"/>
  <use id="arrowleft" xlink:href="#arrowLeft" x="0" y="0" onmousedown="handlePan(-1,0)"/>
</g>
<svg viewBox="0 0 15 15" width="100%" height="30px" preserveAspectRatio="xMaxYMin meet">
 <g id="arrow_out" transform="scale(0.3 0.3)">
  <a xlink:href="Main_8c__incl_org.svg" target="_base">
   <rect id="button" ry="5" rx="5" y="6" x="6" height="38" width="38"
        fill="#f2f5e9" fill-opacity="0.5" stroke="#606060" stroke-width="1.0"/>
   <path id="arrow"
     d="M 11.500037,31.436501 C 11.940474,20.09759 22.043105,11.32322 32.158766,21.979434 L 37.068811,17.246167 C 37.068811,17.246167 37.088388,32 37.088388,32 L 22.160133,31.978069 C 22.160133,31.978069 26.997745,27.140456 26.997745,27.140456 C 18.528582,18.264221 13.291696,25.230495 11.500037,31.436501 z"
     style="fill:#404040;"/>
  </a>
 </g>
</svg>

<style type='text/css'>
<![CDATA[
[data-mouse-over-selected='false'] { opacity: 0.7; }
[data-mouse-over-selected='true']  { opacity: 1.0; }
]]>
</style>
<script type="application/ecmascript"><![CDATA[
document.addEventListener('DOMContentLoaded', (event) => {
  highlightEdges();
  highlightAdjacentNodes();
});
]]></script>
</svg>
