<?xml version="1.0" encoding="UTF-8" standalone="no"?>
<!DOCTYPE svg PUBLIC "-//W3C//DTD SVG 1.1//EN"
 "http://www.w3.org/Graphics/SVG/1.1/DTD/svg11.dtd">
<!-- Generated by graphviz version 2.43.0 (0)
 -->
<!-- Title: SetUpFromConf Pages: 1 -->
<!--zoomable 294 -->
<svg id="main" version="1.1" xmlns="http://www.w3.org/2000/svg" xmlns:xlink="http://www.w3.org/1999/xlink" xml:space="preserve" onload="init(evt)">
<style type="text/css"><![CDATA[
.edge:hover path { stroke: red; }
.edge:hover polygon { stroke: red; fill: red; }
]]></style>
<script type="text/javascript"><![CDATA[
var edges = document.getElementsByTagName('g');
if (edges && edges.length) {
  for (var i=0;i<edges.length;i++) {
    if (edges[i].id.substr(0,4)=='edge') {
      edges[i].setAttribute('class','edge');
    }
  }
}
]]></script>
        <defs>
                <circle id="rim" cx="0" cy="0" r="7"/>
                <circle id="rim2" cx="0" cy="0" r="3.5"/>
                <g id="zoomPlus">
                        <use xlink:href="#rim" fill="#404040">
                                <set attributeName="fill" to="#808080" begin="zoomplus.mouseover" end="zoomplus.mouseout"/>
                        </use>
                        <path d="M-4,0h8M0,-4v8" fill="none" stroke="white" stroke-width="1.5" pointer-events="none"/>
                </g>
                <g id="zoomMin">
                        <use xlink:href="#rim" fill="#404040">
                                <set attributeName="fill" to="#808080" begin="zoomminus.mouseover" end="zoomminus.mouseout"/>
                        </use>
                        <path d="M-4,0h8" fill="none" stroke="white" stroke-width="1.5" pointer-events="none"/>
                </g>
                <g id="dirArrow">
                        <path fill="none" stroke="white" stroke-width="1.5" d="M0,-3.0v7 M-2.5,-0.5L0,-3.0L2.5,-0.5"/>
                </g>
               <g id="resetDef">
                       <use xlink:href="#rim2" fill="#404040">
                               <set attributeName="fill" to="#808080" begin="reset.mouseover" end="reset.mouseout"/>
                       </use>
               </g>
        </defs>

<script type="text/javascript">
var viewWidth = 799;
var viewHeight = 294;
var sectionId = 'dynsection-2';
</script>
<script xlink:href="svgpan.js"/>
<svg id="graph" class="graph">
<g id="viewport">
<title>SetUpFromConf</title>
<polygon fill="white" stroke="transparent" points="-4,4 -4,-290 795,-290 795,4 -4,4"/>
<!-- Node1 -->
<g id="node1" class="node">
<title>Node1</title>
<g id="a_node1"><a xlink:title="Sets up the thread group manager from a configuration file.">
<polygon fill="#bfbfbf" stroke="black" points="0,-133.5 0,-152.5 93,-152.5 93,-133.5 0,-133.5"/>
<text text-anchor="middle" x="46.5" y="-140.5" font-family="Helvetica,sans-Serif" font-size="10.00">SetUpFromConf</text>
</a>
</g>
</g>
<!-- Node2 -->
<g id="node2" class="node">
<title>Node2</title>
<g id="a_node2"><a xlink:href="DataHandlers_8c.html#a9f7c5ff5d0edf87feed0ab9a70ddfcd4" target="_top" xlink:title="Creates a thread group based on configuration.">
<polygon fill="white" stroke="black" points="156,-190.5 156,-209.5 236,-209.5 236,-190.5 156,-190.5"/>
<text text-anchor="middle" x="196" y="-197.5" font-family="Helvetica,sans-Serif" font-size="10.00">DhsCreateTg</text>
</a>
</g>
</g>
<!-- Node1&#45;&gt;Node2 -->
<g id="edge1" class="edge">
<title>Node1&#45;&gt;Node2</title>
<path fill="none" stroke="midnightblue" d="M65.92,-152.6C82.21,-160.84 106.78,-172.68 129,-181 135.08,-183.28 141.56,-185.45 148,-187.45"/>
<polygon fill="midnightblue" stroke="midnightblue" points="147.43,-190.93 158.01,-190.45 149.44,-184.23 147.43,-190.93"/>
</g>
<!-- Node18 -->
<g id="node18" class="node">
<title>Node18</title>
<g id="a_node18"><a xlink:href="Sdb_8h.html#ae4ef1557f623dc27e4d1f8f9cac4b6fc" target="_top" xlink:title=" ">
<polygon fill="white" stroke="black" points="129,-152.5 129,-171.5 263,-171.5 263,-152.5 129,-152.5"/>
<text text-anchor="middle" x="196" y="-159.5" font-family="Helvetica,sans-Serif" font-size="10.00">SdbLoadFileIntoMemory</text>
</a>
</g>
</g>
<!-- Node1&#45;&gt;Node18 -->
<g id="edge18" class="edge">
<title>Node1&#45;&gt;Node18</title>
<path fill="none" stroke="midnightblue" d="M93.36,-148.91C101.45,-149.95 110.05,-151.06 118.71,-152.17"/>
<polygon fill="midnightblue" stroke="midnightblue" points="118.5,-155.67 128.86,-153.48 119.39,-148.73 118.5,-155.67"/>
</g>
<!-- Node19 -->
<g id="node19" class="node">
<title>Node19</title>
<g id="a_node19"><a xlink:href="ThreadGroup_8c.html#a79b116d4c584dd6832e5cf644aad41a5" target="_top" xlink:title="Create a Thread Group Manager.">
<polygon fill="white" stroke="black" points="144,-114.5 144,-133.5 248,-133.5 248,-114.5 144,-114.5"/>
<text text-anchor="middle" x="196" y="-121.5" font-family="Helvetica,sans-Serif" font-size="10.00">TgCreateManager</text>
</a>
</g>
</g>
<!-- Node1&#45;&gt;Node19 -->
<g id="edge19" class="edge">
<title>Node1&#45;&gt;Node19</title>
<path fill="none" stroke="midnightblue" d="M93.36,-137.09C106.1,-135.45 120.14,-133.64 133.61,-131.91"/>
<polygon fill="midnightblue" stroke="midnightblue" points="134.3,-135.35 143.77,-130.6 133.4,-128.41 134.3,-135.35"/>
</g>
<!-- Node22 -->
<g id="node22" class="node">
<title>Node22</title>
<g id="a_node22"><a xlink:href="ThreadGroup_8c.html#a89d20945922100833762d19e367b3334" target="_top" xlink:title="Destroy Thread Group Manager.">
<polygon fill="white" stroke="black" points="141,-76.5 141,-95.5 251,-95.5 251,-76.5 141,-76.5"/>
<text text-anchor="middle" x="196" y="-83.5" font-family="Helvetica,sans-Serif" font-size="10.00">TgDestroyManager</text>
</a>
</g>
</g>
<!-- Node1&#45;&gt;Node22 -->
<g id="edge22" class="edge">
<title>Node1&#45;&gt;Node22</title>
<path fill="none" stroke="midnightblue" d="M65.92,-133.4C82.21,-125.16 106.78,-113.32 129,-105 135.08,-102.72 141.56,-100.55 148,-98.55"/>
<polygon fill="midnightblue" stroke="midnightblue" points="149.44,-101.77 158.01,-95.55 147.43,-95.07 149.44,-101.77"/>
</g>
<!-- Node3 -->
<g id="node3" class="node">
<title>Node3</title>
<g id="a_node3"><a xlink:href="DataHandlers_8c.html#a1f81298204aa5be0dae90f95258fd0c1" target="_top" xlink:title="Converts handler name to its corresponding ID.">
<polygon fill="white" stroke="black" points="299,-209.5 299,-228.5 434,-228.5 434,-209.5 299,-209.5"/>
<text text-anchor="middle" x="366.5" y="-216.5" font-family="Helvetica,sans-Serif" font-size="10.00">GetHandlerIdFromName</text>
</a>
</g>
</g>
<!-- Node2&#45;&gt;Node3 -->
<g id="edge2" class="edge">
<title>Node2&#45;&gt;Node3</title>
<path fill="none" stroke="midnightblue" d="M236.08,-204.41C251.83,-206.18 270.57,-208.3 288.83,-210.35"/>
<polygon fill="midnightblue" stroke="midnightblue" points="288.58,-213.85 298.9,-211.49 289.36,-206.89 288.58,-213.85"/>
</g>
<!-- Node4 -->
<g id="node4" class="node">
<title>Node4</title>
<g id="a_node4"><a xlink:href="ModbusWithPostgres_8c.html#a09939d6694d5620261fa04ffa2af1d11" target="_top" xlink:title="Creates thread group from configuration.">
<polygon fill="white" stroke="black" points="322.5,-171.5 322.5,-190.5 410.5,-190.5 410.5,-171.5 322.5,-171.5"/>
<text text-anchor="middle" x="366.5" y="-178.5" font-family="Helvetica,sans-Serif" font-size="10.00">MbPgCreateTg</text>
</a>
</g>
</g>
<!-- Node2&#45;&gt;Node4 -->
<g id="edge3" class="edge">
<title>Node2&#45;&gt;Node4</title>
<path fill="none" stroke="midnightblue" d="M236.08,-195.59C258.81,-193.03 287.77,-189.77 312.52,-186.97"/>
<polygon fill="midnightblue" stroke="midnightblue" points="312.94,-190.45 322.49,-185.85 312.16,-183.49 312.94,-190.45"/>
</g>
<!-- Node5 -->
<g id="node5" class="node">
<title>Node5</title>
<g id="a_node5"><a xlink:href="DataHandlers_8c.html#afe9e102250a74bffceba672ba91d9368" target="_top" xlink:title="Extracts memory and scratch sizes from JSON configuration.">
<polygon fill="white" stroke="black" points="470,-266.5 470,-285.5 622,-285.5 622,-266.5 470,-266.5"/>
<text text-anchor="middle" x="546" y="-273.5" font-family="Helvetica,sans-Serif" font-size="10.00">DhsGetMemAndScratchSize</text>
</a>
</g>
</g>
<!-- Node4&#45;&gt;Node5 -->
<g id="edge4" class="edge">
<title>Node4&#45;&gt;Node5</title>
<path fill="none" stroke="midnightblue" d="M410.64,-188.65C418.87,-191.36 427.07,-195.03 434,-200 456.85,-216.37 447.41,-235.27 470,-252 475.82,-256.31 482.43,-259.86 489.27,-262.78"/>
<polygon fill="midnightblue" stroke="midnightblue" points="488.09,-266.08 498.68,-266.4 490.6,-259.55 488.09,-266.08"/>
</g>
<!-- Node6 -->
<g id="node6" class="node">
<title>Node6</title>
<g id="a_node6"><a xlink:href="Sdb_8h.html#a3bc1152307e502260c7363261ded3603" target="_top" xlink:title=" ">
<polygon fill="white" stroke="black" points="658,-266.5 658,-285.5 791,-285.5 791,-266.5 658,-266.5"/>
<text text-anchor="middle" x="724.5" y="-273.5" font-family="Helvetica,sans-Serif" font-size="10.00">SdbMemSizeFromString</text>
</a>
</g>
</g>
<!-- Node4&#45;&gt;Node6 -->
<g id="edge10" class="edge">
<title>Node4&#45;&gt;Node6</title>
<path fill="none" stroke="midnightblue" d="M405.94,-190.52C415.25,-193.22 425.09,-196.42 434,-200 450.79,-206.74 453.03,-212.74 470,-219 505.05,-231.93 600.87,-251.99 664.15,-264.54"/>
<polygon fill="midnightblue" stroke="midnightblue" points="663.52,-267.98 674.01,-266.49 664.88,-261.12 663.52,-267.98"/>
</g>
<!-- Node7 -->
<g id="node7" class="node">
<title>Node7</title>
<g id="a_node7"><a xlink:href="ModbusWithPostgres_8c.html#a6738c27ba468f4aa7e2039ed83906086" target="_top" xlink:title="Cleanup function for Modbus&#45;PostgreSQL context.">
<polygon fill="white" stroke="black" points="504.5,-190.5 504.5,-209.5 587.5,-209.5 587.5,-190.5 504.5,-190.5"/>
<text text-anchor="middle" x="546" y="-197.5" font-family="Helvetica,sans-Serif" font-size="10.00">MbPgCleanup</text>
</a>
</g>
</g>
<!-- Node4&#45;&gt;Node7 -->
<g id="edge6" class="edge">
<title>Node4&#45;&gt;Node7</title>
<path fill="none" stroke="midnightblue" d="M410.92,-185.65C436.11,-188.34 467.96,-191.75 494.29,-194.57"/>
<polygon fill="midnightblue" stroke="midnightblue" points="494.14,-198.08 504.46,-195.66 494.89,-191.12 494.14,-198.08"/>
</g>
<!-- Node10 -->
<g id="node10" class="node">
<title>Node10</title>
<g id="a_node10"><a xlink:href="Thread_8c.html#a6b9ac1c397bc80d499de59fae806cbe1" target="_top" xlink:title="Initialize a thread barrier.">
<polygon fill="white" stroke="black" points="504.5,-152.5 504.5,-171.5 587.5,-171.5 587.5,-152.5 504.5,-152.5"/>
<text text-anchor="middle" x="546" y="-159.5" font-family="Helvetica,sans-Serif" font-size="10.00">SdbBarrierInit</text>
</a>
</g>
</g>
<!-- Node4&#45;&gt;Node10 -->
<g id="edge9" class="edge">
<title>Node4&#45;&gt;Node10</title>
<path fill="none" stroke="midnightblue" d="M410.92,-176.35C436.11,-173.66 467.96,-170.25 494.29,-167.43"/>
<polygon fill="midnightblue" stroke="midnightblue" points="494.89,-170.88 504.46,-166.34 494.14,-163.92 494.89,-170.88"/>
</g>
<!-- Node11 -->
<g id="node11" class="node">
<title>Node11</title>
<g id="a_node11"><a xlink:href="SensorDataPipe_8c.html#aa79e3351208df70a0520943cdade8046" target="_top" xlink:title="Create Sensor Data Pipeline.">
<polygon fill="white" stroke="black" points="512.5,-114.5 512.5,-133.5 579.5,-133.5 579.5,-114.5 512.5,-114.5"/>
<text text-anchor="middle" x="546" y="-121.5" font-family="Helvetica,sans-Serif" font-size="10.00">SdpCreate</text>
</a>
</g>
</g>
<!-- Node4&#45;&gt;Node11 -->
<g id="edge11" class="edge">
<title>Node4&#45;&gt;Node11</title>
<path fill="none" stroke="midnightblue" d="M391.27,-171.36C411.89,-163.2 442.64,-151.51 470,-143 480.4,-139.76 491.74,-136.67 502.37,-133.96"/>
<polygon fill="midnightblue" stroke="midnightblue" points="503.45,-137.3 512.3,-131.48 501.75,-130.51 503.45,-137.3"/>
</g>
<!-- Node16 -->
<g id="node16" class="node">
<title>Node16</title>
<g id="a_node16"><a xlink:href="ThreadGroup_8c.html#af2f3e46faf85d1558bf6170af7e2f408" target="_top" xlink:title="Create a Thread Group.">
<polygon fill="white" stroke="black" points="501,-38.5 501,-57.5 591,-57.5 591,-38.5 501,-38.5"/>
<text text-anchor="middle" x="546" y="-45.5" font-family="Helvetica,sans-Serif" font-size="10.00">TgCreateGroup</text>
</a>
</g>
</g>
<!-- Node4&#45;&gt;Node16 -->
<g id="edge16" class="edge">
<title>Node4&#45;&gt;Node16</title>
<path fill="none" stroke="midnightblue" d="M387.66,-171.45C401.37,-164.49 419.57,-154.33 434,-143 452.3,-128.63 452.68,-120.53 470,-105 486.79,-89.94 507.26,-74.56 522.57,-63.58"/>
<polygon fill="midnightblue" stroke="midnightblue" points="524.79,-66.3 530.92,-57.66 520.74,-60.59 524.79,-66.3"/>
</g>
<!-- Node5&#45;&gt;Node6 -->
<g id="edge5" class="edge">
<title>Node5&#45;&gt;Node6</title>
<path fill="none" stroke="midnightblue" d="M622.11,-276C630.58,-276 639.22,-276 647.7,-276"/>
<polygon fill="midnightblue" stroke="midnightblue" points="647.94,-279.5 657.94,-276 647.94,-272.5 647.94,-279.5"/>
</g>
<!-- Node8 -->
<g id="node8" class="node">
<title>Node8</title>
<g id="a_node8"><a xlink:href="Thread_8c.html#a9cb4c8bef2fd99915d71913855bbd5c1" target="_top" xlink:title="Deinitialize a thread barrier.">
<polygon fill="white" stroke="black" points="676,-228.5 676,-247.5 773,-247.5 773,-228.5 676,-228.5"/>
<text text-anchor="middle" x="724.5" y="-235.5" font-family="Helvetica,sans-Serif" font-size="10.00">SdbBarrierDeinit</text>
</a>
</g>
</g>
<!-- Node7&#45;&gt;Node8 -->
<g id="edge7" class="edge">
<title>Node7&#45;&gt;Node8</title>
<path fill="none" stroke="midnightblue" d="M587.94,-208.81C612.14,-214.02 643.08,-220.68 669.29,-226.33"/>
<polygon fill="midnightblue" stroke="midnightblue" points="668.56,-229.75 679.08,-228.44 670.04,-222.91 668.56,-229.75"/>
</g>
<!-- Node9 -->
<g id="node9" class="node">
<title>Node9</title>
<g id="a_node9"><a xlink:href="SensorDataPipe_8c.html#a6bcca74f25bea60fddde9dbadf2f46e7" target="_top" xlink:title="Destroy Sensor Data Pipeline.">
<polygon fill="white" stroke="black" points="688,-190.5 688,-209.5 761,-209.5 761,-190.5 688,-190.5"/>
<text text-anchor="middle" x="724.5" y="-197.5" font-family="Helvetica,sans-Serif" font-size="10.00">SdpDestroy</text>
</a>
</g>
</g>
<!-- Node7&#45;&gt;Node9 -->
<g id="edge8" class="edge">
<title>Node7&#45;&gt;Node9</title>
<path fill="none" stroke="midnightblue" d="M587.94,-200C614.76,-200 649.85,-200 677.61,-200"/>
<polygon fill="midnightblue" stroke="midnightblue" points="677.86,-203.5 687.86,-200 677.86,-196.5 677.86,-203.5"/>
</g>
<!-- Node12 -->
<g id="node12" class="node">
<title>Node12</title>
<g id="a_node12"><a xlink:href="Sdb_8h.html#a132f10c44fe9dab28a9fae8839c099ad" target="_top" xlink:title=" ">
<polygon fill="white" stroke="black" points="669.5,-152.5 669.5,-171.5 779.5,-171.5 779.5,-152.5 669.5,-152.5"/>
<text text-anchor="middle" x="724.5" y="-159.5" font-family="Helvetica,sans-Serif" font-size="10.00">SdbArenaBootstrap</text>
</a>
</g>
</g>
<!-- Node11&#45;&gt;Node12 -->
<g id="edge12" class="edge">
<title>Node11&#45;&gt;Node12</title>
<path fill="none" stroke="midnightblue" d="M579.78,-131.06C604.84,-136.45 639.94,-144.01 669.17,-150.3"/>
<polygon fill="midnightblue" stroke="midnightblue" points="668.73,-153.79 679.24,-152.47 670.2,-146.94 668.73,-153.79"/>
</g>
<!-- Node13 -->
<g id="node13" class="node">
<title>Node13</title>
<g id="a_node13"><a xlink:href="Sdb_8h.html#a05ee63d567b60fbc2b9e6732f4154a48" target="_top" xlink:title=" ">
<polygon fill="white" stroke="black" points="675.5,-114.5 675.5,-133.5 773.5,-133.5 773.5,-114.5 675.5,-114.5"/>
<text text-anchor="middle" x="724.5" y="-121.5" font-family="Helvetica,sans-Serif" font-size="10.00">SdbArenaGetPos</text>
</a>
</g>
</g>
<!-- Node11&#45;&gt;Node13 -->
<g id="edge13" class="edge">
<title>Node11&#45;&gt;Node13</title>
<path fill="none" stroke="midnightblue" d="M579.78,-124C603.67,-124 636.67,-124 665.02,-124"/>
<polygon fill="midnightblue" stroke="midnightblue" points="665.23,-127.5 675.23,-124 665.23,-120.5 665.23,-127.5"/>
</g>
<!-- Node14 -->
<g id="node14" class="node">
<title>Node14</title>
<g id="a_node14"><a xlink:href="Sdb_8h.html#ab63e953fd90c628d5c0727287df66fab" target="_top" xlink:title=" ">
<polygon fill="white" stroke="black" points="685,-76.5 685,-95.5 764,-95.5 764,-76.5 685,-76.5"/>
<text text-anchor="middle" x="724.5" y="-83.5" font-family="Helvetica,sans-Serif" font-size="10.00">SdbArenaInit</text>
</a>
</g>
</g>
<!-- Node11&#45;&gt;Node14 -->
<g id="edge14" class="edge">
<title>Node11&#45;&gt;Node14</title>
<path fill="none" stroke="midnightblue" d="M579.78,-116.94C606.48,-111.2 644.55,-103 674.8,-96.48"/>
<polygon fill="midnightblue" stroke="midnightblue" points="675.7,-99.87 684.74,-94.35 674.22,-93.03 675.7,-99.87"/>
</g>
<!-- Node15 -->
<g id="node15" class="node">
<title>Node15</title>
<g id="a_node15"><a xlink:href="Sdb_8h.html#a1bbfbdaa7f48d20cf4009a728cc7d138" target="_top" xlink:title=" ">
<polygon fill="white" stroke="black" points="681,-38.5 681,-57.5 768,-57.5 768,-38.5 681,-38.5"/>
<text text-anchor="middle" x="724.5" y="-45.5" font-family="Helvetica,sans-Serif" font-size="10.00">SdbArenaSeek</text>
</a>
</g>
</g>
<!-- Node11&#45;&gt;Node15 -->
<g id="edge15" class="edge">
<title>Node11&#45;&gt;Node15</title>
<path fill="none" stroke="midnightblue" d="M563.09,-114.49C584.28,-102.25 622.97,-80.92 658,-67 663.85,-64.68 670.09,-62.5 676.32,-60.5"/>
<polygon fill="midnightblue" stroke="midnightblue" points="677.48,-63.81 686.02,-57.53 675.43,-57.11 677.48,-63.81"/>
</g>
<!-- Node17 -->
<g id="node17" class="node">
<title>Node17</title>
<g id="a_node17"><a xlink:href="Sdb_8h.html#ac5c7c1054a5f2110db33fbaf02ee3875" target="_top" xlink:title=" ">
<polygon fill="white" stroke="black" points="686,-0.5 686,-19.5 763,-19.5 763,-0.5 686,-0.5"/>
<text text-anchor="middle" x="724.5" y="-7.5" font-family="Helvetica,sans-Serif" font-size="10.00">SdbMemcpy</text>
</a>
</g>
</g>
<!-- Node16&#45;&gt;Node17 -->
<g id="edge17" class="edge">
<title>Node16&#45;&gt;Node17</title>
<path fill="none" stroke="midnightblue" d="M591.08,-38.51C616.98,-32.93 649.71,-25.89 676.15,-20.19"/>
<polygon fill="midnightblue" stroke="midnightblue" points="676.91,-23.61 685.95,-18.09 675.43,-16.77 676.91,-23.61"/>
</g>
<!-- Node20 -->
<g id="node20" class="node">
<title>Node20</title>
<g id="a_node20"><a xlink:href="Thread_8c.html#a96f5f3ba983e0047d225045c00697ffb" target="_top" xlink:title="Initialize a condition variable.">
<polygon fill="white" stroke="black" points="329,-114.5 329,-133.5 404,-133.5 404,-114.5 329,-114.5"/>
<text text-anchor="middle" x="366.5" y="-121.5" font-family="Helvetica,sans-Serif" font-size="10.00">SdbCondInit</text>
</a>
</g>
</g>
<!-- Node19&#45;&gt;Node20 -->
<g id="edge20" class="edge">
<title>Node19&#45;&gt;Node20</title>
<path fill="none" stroke="midnightblue" d="M248.01,-124C270.51,-124 296.76,-124 318.75,-124"/>
<polygon fill="midnightblue" stroke="midnightblue" points="318.83,-127.5 328.83,-124 318.83,-120.5 318.83,-127.5"/>
</g>
<!-- Node21 -->
<g id="node21" class="node">
<title>Node21</title>
<g id="a_node21"><a xlink:href="Thread_8c.html#ab44b8ad4cd3641c5261510ebe9803db4" target="_top" xlink:title="Initialize a mutex.">
<polygon fill="white" stroke="black" points="326,-76.5 326,-95.5 407,-95.5 407,-76.5 326,-76.5"/>
<text text-anchor="middle" x="366.5" y="-83.5" font-family="Helvetica,sans-Serif" font-size="10.00">SdbMutexInit</text>
</a>
</g>
</g>
<!-- Node19&#45;&gt;Node21 -->
<g id="edge21" class="edge">
<title>Node19&#45;&gt;Node21</title>
<path fill="none" stroke="midnightblue" d="M239.52,-114.41C262.72,-109.18 291.58,-102.67 315.81,-97.21"/>
<polygon fill="midnightblue" stroke="midnightblue" points="316.9,-100.55 325.89,-94.93 315.36,-93.72 316.9,-100.55"/>
</g>
</g>
</svg>
        <g id="navigator" transform="translate(0 0)" fill="#404254">
                <rect fill="#f2f5e9" fill-opacity="0.5" stroke="#606060" stroke-width=".5" x="0" y="0" width="60" height="60"/>
                <use id="zoomplus" xlink:href="#zoomPlus" x="17" y="9" onmousedown="handleZoom(evt,'in')"/>
                <use id="zoomminus" xlink:href="#zoomMin" x="42" y="9" onmousedown="handleZoom(evt,'out')"/>
                <use id="reset" xlink:href="#resetDef" x="30" y="36" onmousedown="handleReset()"/>
                <g id="arrowUp" xlink:href="#dirArrow" transform="translate(30 24)" onmousedown="handlePan(0,-1)">
                  <use xlink:href="#rim" fill="#404040">
                        <set attributeName="fill" to="#808080" begin="arrowUp.mouseover" end="arrowUp.mouseout"/>
                  </use>
                  <path fill="none" stroke="white" stroke-width="1.5" d="M0,-3.0v7 M-2.5,-0.5L0,-3.0L2.5,-0.5"/>
                </g>
                <g id="arrowRight" xlink:href="#dirArrow" transform="rotate(90) translate(36 -43)" onmousedown="handlePan(1,0)">
                  <use xlink:href="#rim" fill="#404040">
                        <set attributeName="fill" to="#808080" begin="arrowRight.mouseover" end="arrowRight.mouseout"/>
                  </use>
                  <path fill="none" stroke="white" stroke-width="1.5" d="M0,-3.0v7 M-2.5,-0.5L0,-3.0L2.5,-0.5"/>
                </g>
                <g id="arrowDown" xlink:href="#dirArrow" transform="rotate(180) translate(-30 -48)" onmousedown="handlePan(0,1)">
                  <use xlink:href="#rim" fill="#404040">
                        <set attributeName="fill" to="#808080" begin="arrowDown.mouseover" end="arrowDown.mouseout"/>
                  </use>
                  <path fill="none" stroke="white" stroke-width="1.5" d="M0,-3.0v7 M-2.5,-0.5L0,-3.0L2.5,-0.5"/>
                </g>
                <g id="arrowLeft" xlink:href="#dirArrow" transform="rotate(270) translate(-36 17)" onmousedown="handlePan(-1,0)">
                  <use xlink:href="#rim" fill="#404040">
                        <set attributeName="fill" to="#808080" begin="arrowLeft.mouseover" end="arrowLeft.mouseout"/>
                  </use>
                  <path fill="none" stroke="white" stroke-width="1.5" d="M0,-3.0v7 M-2.5,-0.5L0,-3.0L2.5,-0.5"/>
                </g>
        </g>
        <svg viewBox="0 0 15 15" width="100%" height="30px" preserveAspectRatio="xMaxYMin meet">
         <g id="arrow_out" transform="scale(0.3 0.3)">
          <a xlink:href="Main_8c_aeeb5ef67af0eb14822aa17b0dc6f1be7_cgraph_org.svg" target="_base">
           <rect id="button" ry="5" rx="5" y="6" x="6" height="38" width="38"
                fill="#f2f5e9" fill-opacity="0.5" stroke="#606060" stroke-width="1.0"/>
           <path id="arrow"
             d="M 11.500037,31.436501 C 11.940474,20.09759 22.043105,11.32322 32.158766,21.979434 L 37.068811,17.246167 C 37.068811,17.246167 37.088388,32 37.088388,32 L 22.160133,31.978069 C 22.160133,31.978069 26.997745,27.140456 26.997745,27.140456 C 18.528582,18.264221 13.291696,25.230495 11.500037,31.436501 z"
             style="fill:#404040;"/>
          </a>
         </g>
        </svg>
</svg>
