<?xml version="1.0" encoding="UTF-8" standalone="no"?>
<!DOCTYPE svg PUBLIC "-//W3C//DTD SVG 1.1//EN"
 "http://www.w3.org/Graphics/SVG/1.1/DTD/svg11.dtd">
<!-- Generated by graphviz version 2.43.0 (0)
 -->
<!-- Title: main Pages: 1 -->
<!--zoomable 522 -->
<svg id="main" version="1.1" xmlns="http://www.w3.org/2000/svg" xmlns:xlink="http://www.w3.org/1999/xlink" xml:space="preserve" onload="init(evt)">
<style type="text/css"><![CDATA[
.edge:hover path { stroke: red; }
.edge:hover polygon { stroke: red; fill: red; }
]]></style>
<script type="text/javascript"><![CDATA[
var edges = document.getElementsByTagName('g');
if (edges && edges.length) {
  for (var i=0;i<edges.length;i++) {
    if (edges[i].id.substr(0,4)=='edge') {
      edges[i].setAttribute('class','edge');
    }
  }
}
]]></script>
        <defs>
                <circle id="rim" cx="0" cy="0" r="7"/>
                <circle id="rim2" cx="0" cy="0" r="3.5"/>
                <g id="zoomPlus">
                        <use xlink:href="#rim" fill="#404040">
                                <set attributeName="fill" to="#808080" begin="zoomplus.mouseover" end="zoomplus.mouseout"/>
                        </use>
                        <path d="M-4,0h8M0,-4v8" fill="none" stroke="white" stroke-width="1.5" pointer-events="none"/>
                </g>
                <g id="zoomMin">
                        <use xlink:href="#rim" fill="#404040">
                                <set attributeName="fill" to="#808080" begin="zoomminus.mouseover" end="zoomminus.mouseout"/>
                        </use>
                        <path d="M-4,0h8" fill="none" stroke="white" stroke-width="1.5" pointer-events="none"/>
                </g>
                <g id="dirArrow">
                        <path fill="none" stroke="white" stroke-width="1.5" d="M0,-3.0v7 M-2.5,-0.5L0,-3.0L2.5,-0.5"/>
                </g>
               <g id="resetDef">
                       <use xlink:href="#rim2" fill="#404040">
                               <set attributeName="fill" to="#808080" begin="reset.mouseover" end="reset.mouseout"/>
                       </use>
               </g>
        </defs>

<script type="text/javascript">
var viewWidth = 1202;
var viewHeight = 522;
var sectionId = 'dynsection-1';
</script>
<script xlink:href="svgpan.js"/>
<svg id="graph" class="graph">
<g id="viewport">
<title>main</title>
<polygon fill="white" stroke="transparent" points="-4,4 -4,-518 1198,-518 1198,4 -4,4"/>
<!-- Node1 -->
<g id="node1" class="node">
<title>Node1</title>
<g id="a_node1"><a xlink:title="Main entry point for the Sensor Data Handler System.">
<polygon fill="#bfbfbf" stroke="black" points="0,-190.5 0,-209.5 41,-209.5 41,-190.5 0,-190.5"/>
<text text-anchor="middle" x="20.5" y="-197.5" font-family="Helvetica,sans-Serif" font-size="10.00">main</text>
</a>
</g>
</g>
<!-- Node2 -->
<g id="node2" class="node">
<title>Node2</title>
<g id="a_node2"><a xlink:href="Signals_8c.html#a455fa9d5e249372255aebefb29edf4ee" target="_top" xlink:title="Sets up signal handlers for the application.">
<polygon fill="white" stroke="black" points="77,-332.5 77,-351.5 213,-351.5 213,-332.5 77,-332.5"/>
<text text-anchor="middle" x="145" y="-339.5" font-family="Helvetica,sans-Serif" font-size="10.00">SdbSetupSignalHandlers</text>
</a>
</g>
</g>
<!-- Node1&#45;&gt;Node2 -->
<g id="edge1" class="edge">
<title>Node1&#45;&gt;Node2</title>
<path fill="none" stroke="midnightblue" d="M29.92,-209.76C50.38,-233.47 102.91,-294.37 128.93,-324.54"/>
<polygon fill="midnightblue" stroke="midnightblue" points="126.34,-326.89 135.52,-332.17 131.64,-322.31 126.34,-326.89"/>
</g>
<!-- Node10 -->
<g id="node10" class="node">
<title>Node10</title>
<g id="a_node10"><a xlink:href="Main_8c.html#aeeb5ef67af0eb14822aa17b0dc6f1be7" target="_top" xlink:title="Sets up the thread group manager from a configuration file.">
<polygon fill="white" stroke="black" points="98.5,-228.5 98.5,-247.5 191.5,-247.5 191.5,-228.5 98.5,-228.5"/>
<text text-anchor="middle" x="145" y="-235.5" font-family="Helvetica,sans-Serif" font-size="10.00">SetUpFromConf</text>
</a>
</g>
</g>
<!-- Node1&#45;&gt;Node10 -->
<g id="edge9" class="edge">
<title>Node1&#45;&gt;Node10</title>
<path fill="none" stroke="midnightblue" d="M41.18,-206.11C58,-211.32 82.73,-218.99 103.72,-225.5"/>
<polygon fill="midnightblue" stroke="midnightblue" points="102.78,-228.88 113.36,-228.5 104.85,-222.19 102.78,-228.88"/>
</g>
<!-- Node31 -->
<g id="node31" class="node">
<title>Node31</title>
<g id="a_node31"><a xlink:href="ThreadGroup_8c.html#a89d20945922100833762d19e367b3334" target="_top" xlink:title="Destroy Thread Group Manager.">
<polygon fill="white" stroke="black" points="261,-190.5 261,-209.5 371,-209.5 371,-190.5 261,-190.5"/>
<text text-anchor="middle" x="316" y="-197.5" font-family="Helvetica,sans-Serif" font-size="10.00">TgDestroyManager</text>
</a>
</g>
</g>
<!-- Node1&#45;&gt;Node31 -->
<g id="edge32" class="edge">
<title>Node1&#45;&gt;Node31</title>
<path fill="none" stroke="midnightblue" d="M41.21,-200C83.39,-200 183.97,-200 250.76,-200"/>
<polygon fill="midnightblue" stroke="midnightblue" points="250.77,-203.5 260.77,-200 250.77,-196.5 250.77,-203.5"/>
</g>
<!-- Node32 -->
<g id="node32" class="node">
<title>Node32</title>
<g id="a_node32"><a xlink:href="ThreadGroup_8c.html#a99b84055dd294fe099f1bb31fcdaceb4" target="_top" xlink:title="Start All Thread Groups in Manager.">
<polygon fill="white" stroke="black" points="91.5,-133.5 91.5,-152.5 198.5,-152.5 198.5,-133.5 91.5,-133.5"/>
<text text-anchor="middle" x="145" y="-140.5" font-family="Helvetica,sans-Serif" font-size="10.00">TgManagerStartAll</text>
</a>
</g>
</g>
<!-- Node1&#45;&gt;Node32 -->
<g id="edge33" class="edge">
<title>Node1&#45;&gt;Node32</title>
<path fill="none" stroke="midnightblue" d="M41.18,-190.84C60.95,-181.64 91.65,-167.36 114.36,-156.79"/>
<polygon fill="midnightblue" stroke="midnightblue" points="115.96,-159.91 123.55,-152.52 113.01,-153.56 115.96,-159.91"/>
</g>
<!-- Node42 -->
<g id="node42" class="node">
<title>Node42</title>
<g id="a_node42"><a xlink:href="ThreadGroup_8c.html#a94f41b6eed9ab8ff08d3921b617a87dd" target="_top" xlink:title="Wait for Completion of All Thread Groups.">
<polygon fill="white" stroke="black" points="428.5,-38.5 428.5,-57.5 549.5,-57.5 549.5,-38.5 428.5,-38.5"/>
<text text-anchor="middle" x="489" y="-45.5" font-family="Helvetica,sans-Serif" font-size="10.00">TgManagerWaitForAll</text>
</a>
</g>
</g>
<!-- Node1&#45;&gt;Node42 -->
<g id="edge45" class="edge">
<title>Node1&#45;&gt;Node42</title>
<path fill="none" stroke="midnightblue" d="M25.75,-190.36C33.48,-174.03 51.43,-141.01 77,-124 181.03,-54.8 331.04,-44.3 418.13,-44.85"/>
<polygon fill="midnightblue" stroke="midnightblue" points="418.13,-48.35 428.17,-44.96 418.21,-41.35 418.13,-48.35"/>
</g>
<!-- Node3 -->
<g id="node3" class="node">
<title>Node3</title>
<g id="a_node3"><a xlink:href="Signals_8c.html#a6f1cd44547a55d590f525110340d0f1f" target="_top" xlink:title="Internal signal handler to process system signals.">
<polygon fill="white" stroke="black" points="273.5,-399.5 273.5,-418.5 358.5,-418.5 358.5,-399.5 273.5,-399.5"/>
<text text-anchor="middle" x="316" y="-406.5" font-family="Helvetica,sans-Serif" font-size="10.00">SignalHandler</text>
</a>
</g>
</g>
<!-- Node2&#45;&gt;Node3 -->
<g id="edge2" class="edge">
<title>Node2&#45;&gt;Node3</title>
<path fill="none" stroke="midnightblue" d="M170.21,-351.6C199.33,-363.14 248.37,-382.58 281.2,-395.6"/>
<polygon fill="midnightblue" stroke="midnightblue" points="280.25,-398.99 290.83,-399.42 282.83,-392.48 280.25,-398.99"/>
</g>
<!-- Node4 -->
<g id="node4" class="node">
<title>Node4</title>
<g id="a_node4"><a xlink:href="Signals_8c.html#a9934ca93fac5b0dcfa0ae402a83bbaa0" target="_top" xlink:title="Creates a memory dump of the process state.">
<polygon fill="white" stroke="black" points="427,-456.5 427,-475.5 551,-475.5 551,-456.5 427,-456.5"/>
<text text-anchor="middle" x="489" y="-463.5" font-family="Helvetica,sans-Serif" font-size="10.00">DumpProcessMemory</text>
</a>
</g>
</g>
<!-- Node3&#45;&gt;Node4 -->
<g id="edge3" class="edge">
<title>Node3&#45;&gt;Node4</title>
<path fill="none" stroke="midnightblue" d="M340.7,-418.5C361.24,-426.58 391.85,-438.22 419,-447 426.15,-449.31 433.78,-451.59 441.25,-453.73"/>
<polygon fill="midnightblue" stroke="midnightblue" points="440.37,-457.11 450.94,-456.44 442.25,-450.37 440.37,-457.11"/>
</g>
<!-- Node7 -->
<g id="node7" class="node">
<title>Node7</title>
<g id="a_node7"><a xlink:href="Signals_8c.html#a45f6f56c3aac50030832d4b445f1cd61" target="_top" xlink:title="Handles internal pipe dump operations.">
<polygon fill="white" stroke="black" points="438.5,-418.5 438.5,-437.5 539.5,-437.5 539.5,-418.5 438.5,-418.5"/>
<text text-anchor="middle" x="489" y="-425.5" font-family="Helvetica,sans-Serif" font-size="10.00">HandlePipeDump</text>
</a>
</g>
</g>
<!-- Node3&#45;&gt;Node7 -->
<g id="edge6" class="edge">
<title>Node3&#45;&gt;Node7</title>
<path fill="none" stroke="midnightblue" d="M358.83,-413.65C379.76,-415.97 405.46,-418.83 428.41,-421.38"/>
<polygon fill="midnightblue" stroke="midnightblue" points="428.07,-424.86 438.4,-422.49 428.84,-417.91 428.07,-424.86"/>
</g>
<!-- Node9 -->
<g id="node9" class="node">
<title>Node9</title>
<g id="a_node9"><a xlink:href="Signals_8c.html#ac59c3ef33c4c32b750598e2d2f6398e1" target="_top" xlink:title="Initiates system shutdown with proper synchronization.">
<polygon fill="white" stroke="black" points="419,-380.5 419,-399.5 559,-399.5 559,-380.5 419,-380.5"/>
<text text-anchor="middle" x="489" y="-387.5" font-family="Helvetica,sans-Serif" font-size="10.00">InitiateGracefulShutdown</text>
</a>
</g>
</g>
<!-- Node3&#45;&gt;Node9 -->
<g id="edge8" class="edge">
<title>Node3&#45;&gt;Node9</title>
<path fill="none" stroke="midnightblue" d="M358.83,-404.35C373.96,-402.67 391.58,-400.71 408.85,-398.79"/>
<polygon fill="midnightblue" stroke="midnightblue" points="409.4,-402.25 418.95,-397.67 408.63,-395.3 409.4,-402.25"/>
</g>
<!-- Node5 -->
<g id="node5" class="node">
<title>Node5</title>
<g id="a_node5"><a xlink:href="Signals_8c.html#a5ef6dcc759fd8166d79fd158ec2f9935" target="_top" xlink:title=" ">
<polygon fill="white" stroke="black" points="632.5,-456.5 632.5,-475.5 709.5,-475.5 709.5,-456.5 632.5,-456.5"/>
<text text-anchor="middle" x="671" y="-463.5" font-family="Helvetica,sans-Serif" font-size="10.00">GetThreadId</text>
</a>
</g>
</g>
<!-- Node4&#45;&gt;Node5 -->
<g id="edge4" class="edge">
<title>Node4&#45;&gt;Node5</title>
<path fill="none" stroke="midnightblue" d="M551.19,-466C574.42,-466 600.51,-466 622.31,-466"/>
<polygon fill="midnightblue" stroke="midnightblue" points="622.32,-469.5 632.32,-466 622.32,-462.5 622.32,-469.5"/>
</g>
<!-- Node6 -->
<g id="node6" class="node">
<title>Node6</title>
<g id="a_node6"><a xlink:href="Signals_8c.html#a27d60415a71248a37804f83c33553b0b" target="_top" xlink:title=" ">
<polygon fill="white" stroke="black" points="622.5,-494.5 622.5,-513.5 719.5,-513.5 719.5,-494.5 622.5,-494.5"/>
<text text-anchor="middle" x="671" y="-501.5" font-family="Helvetica,sans-Serif" font-size="10.00">GetThreadName</text>
</a>
</g>
</g>
<!-- Node4&#45;&gt;Node6 -->
<g id="edge5" class="edge">
<title>Node4&#45;&gt;Node6</title>
<path fill="none" stroke="midnightblue" d="M535.42,-475.59C559.6,-480.69 589.53,-487.01 615.01,-492.39"/>
<polygon fill="midnightblue" stroke="midnightblue" points="614.4,-495.84 624.91,-494.48 615.84,-488.99 614.4,-495.84"/>
</g>
<!-- Node8 -->
<g id="node8" class="node">
<title>Node8</title>
<g id="a_node8"><a xlink:href="Signals_8c.html#a544b451adfe66651acf0f329633a8673" target="_top" xlink:title="Dumps sensor data pipe contents to a file.">
<polygon fill="white" stroke="black" points="600.5,-418.5 600.5,-437.5 741.5,-437.5 741.5,-418.5 600.5,-418.5"/>
<text text-anchor="middle" x="671" y="-425.5" font-family="Helvetica,sans-Serif" font-size="10.00">SdbDumpSensorDataPipe</text>
</a>
</g>
</g>
<!-- Node7&#45;&gt;Node8 -->
<g id="edge7" class="edge">
<title>Node7&#45;&gt;Node8</title>
<path fill="none" stroke="midnightblue" d="M539.66,-428C555.32,-428 573.03,-428 590.24,-428"/>
<polygon fill="midnightblue" stroke="midnightblue" points="590.29,-431.5 600.29,-428 590.29,-424.5 590.29,-431.5"/>
</g>
<!-- Node11 -->
<g id="node11" class="node">
<title>Node11</title>
<g id="a_node11"><a xlink:href="DataHandlers_8c.html#a9f7c5ff5d0edf87feed0ab9a70ddfcd4" target="_top" xlink:title="Creates a thread group based on configuration.">
<polygon fill="white" stroke="black" points="276,-304.5 276,-323.5 356,-323.5 356,-304.5 276,-304.5"/>
<text text-anchor="middle" x="316" y="-311.5" font-family="Helvetica,sans-Serif" font-size="10.00">DhsCreateTg</text>
</a>
</g>
</g>
<!-- Node10&#45;&gt;Node11 -->
<g id="edge10" class="edge">
<title>Node10&#45;&gt;Node11</title>
<path fill="none" stroke="midnightblue" d="M160.82,-247.61C180.37,-259.95 216.15,-281.39 249,-295 254.57,-297.31 260.52,-299.45 266.48,-301.4"/>
<polygon fill="midnightblue" stroke="midnightblue" points="265.87,-304.87 276.46,-304.48 267.94,-298.18 265.87,-304.87"/>
</g>
<!-- Node27 -->
<g id="node27" class="node">
<title>Node27</title>
<g id="a_node27"><a xlink:href="Sdb_8h.html#ae4ef1557f623dc27e4d1f8f9cac4b6fc" target="_top" xlink:title=" ">
<polygon fill="white" stroke="black" points="249,-266.5 249,-285.5 383,-285.5 383,-266.5 249,-266.5"/>
<text text-anchor="middle" x="316" y="-273.5" font-family="Helvetica,sans-Serif" font-size="10.00">SdbLoadFileIntoMemory</text>
</a>
</g>
</g>
<!-- Node10&#45;&gt;Node27 -->
<g id="edge27" class="edge">
<title>Node10&#45;&gt;Node27</title>
<path fill="none" stroke="midnightblue" d="M188.65,-247.59C211.15,-252.65 238.95,-258.9 262.74,-264.25"/>
<polygon fill="midnightblue" stroke="midnightblue" points="262.14,-267.7 272.66,-266.48 263.67,-260.87 262.14,-267.7"/>
</g>
<!-- Node28 -->
<g id="node28" class="node">
<title>Node28</title>
<g id="a_node28"><a xlink:href="ThreadGroup_8c.html#a79b116d4c584dd6832e5cf644aad41a5" target="_top" xlink:title="Create a Thread Group Manager.">
<polygon fill="white" stroke="black" points="264,-228.5 264,-247.5 368,-247.5 368,-228.5 264,-228.5"/>
<text text-anchor="middle" x="316" y="-235.5" font-family="Helvetica,sans-Serif" font-size="10.00">TgCreateManager</text>
</a>
</g>
</g>
<!-- Node10&#45;&gt;Node28 -->
<g id="edge28" class="edge">
<title>Node10&#45;&gt;Node28</title>
<path fill="none" stroke="midnightblue" d="M191.73,-238C210.8,-238 233.23,-238 253.69,-238"/>
<polygon fill="midnightblue" stroke="midnightblue" points="253.87,-241.5 263.87,-238 253.87,-234.5 253.87,-241.5"/>
</g>
<!-- Node10&#45;&gt;Node31 -->
<g id="edge31" class="edge">
<title>Node10&#45;&gt;Node31</title>
<path fill="none" stroke="midnightblue" d="M188.65,-228.41C211.15,-223.35 238.95,-217.1 262.74,-211.75"/>
<polygon fill="midnightblue" stroke="midnightblue" points="263.67,-215.13 272.66,-209.52 262.14,-208.3 263.67,-215.13"/>
</g>
<!-- Node12 -->
<g id="node12" class="node">
<title>Node12</title>
<g id="a_node12"><a xlink:href="DataHandlers_8c.html#a1f81298204aa5be0dae90f95258fd0c1" target="_top" xlink:title="Converts handler name to its corresponding ID.">
<polygon fill="white" stroke="black" points="421.5,-266.5 421.5,-285.5 556.5,-285.5 556.5,-266.5 421.5,-266.5"/>
<text text-anchor="middle" x="489" y="-273.5" font-family="Helvetica,sans-Serif" font-size="10.00">GetHandlerIdFromName</text>
</a>
</g>
</g>
<!-- Node11&#45;&gt;Node12 -->
<g id="edge11" class="edge">
<title>Node11&#45;&gt;Node12</title>
<path fill="none" stroke="midnightblue" d="M356.23,-305.28C379.65,-300.08 409.69,-293.4 435.17,-287.74"/>
<polygon fill="midnightblue" stroke="midnightblue" points="436.05,-291.13 445.05,-285.54 434.53,-284.3 436.05,-291.13"/>
</g>
<!-- Node13 -->
<g id="node13" class="node">
<title>Node13</title>
<g id="a_node13"><a xlink:href="ModbusWithPostgres_8c.html#a09939d6694d5620261fa04ffa2af1d11" target="_top" xlink:title="Creates thread group from configuration.">
<polygon fill="white" stroke="black" points="445,-304.5 445,-323.5 533,-323.5 533,-304.5 445,-304.5"/>
<text text-anchor="middle" x="489" y="-311.5" font-family="Helvetica,sans-Serif" font-size="10.00">MbPgCreateTg</text>
</a>
</g>
</g>
<!-- Node11&#45;&gt;Node13 -->
<g id="edge12" class="edge">
<title>Node11&#45;&gt;Node13</title>
<path fill="none" stroke="midnightblue" d="M356.23,-314C379.46,-314 409.2,-314 434.55,-314"/>
<polygon fill="midnightblue" stroke="midnightblue" points="434.75,-317.5 444.75,-314 434.75,-310.5 434.75,-317.5"/>
</g>
<!-- Node14 -->
<g id="node14" class="node">
<title>Node14</title>
<g id="a_node14"><a xlink:href="DataHandlers_8c.html#afe9e102250a74bffceba672ba91d9368" target="_top" xlink:title="Extracts memory and scratch sizes from JSON configuration.">
<polygon fill="white" stroke="black" points="595,-342.5 595,-361.5 747,-361.5 747,-342.5 595,-342.5"/>
<text text-anchor="middle" x="671" y="-349.5" font-family="Helvetica,sans-Serif" font-size="10.00">DhsGetMemAndScratchSize</text>
</a>
</g>
</g>
<!-- Node13&#45;&gt;Node14 -->
<g id="edge13" class="edge">
<title>Node13&#45;&gt;Node14</title>
<path fill="none" stroke="midnightblue" d="M533.11,-323.1C557.65,-328.28 588.63,-334.82 614.91,-340.37"/>
<polygon fill="midnightblue" stroke="midnightblue" points="614.22,-343.8 624.73,-342.44 615.66,-336.95 614.22,-343.8"/>
</g>
<!-- Node15 -->
<g id="node15" class="node">
<title>Node15</title>
<g id="a_node15"><a xlink:href="Sdb_8h.html#a3bc1152307e502260c7363261ded3603" target="_top" xlink:title=" ">
<polygon fill="white" stroke="black" points="783,-380.5 783,-399.5 916,-399.5 916,-380.5 783,-380.5"/>
<text text-anchor="middle" x="849.5" y="-387.5" font-family="Helvetica,sans-Serif" font-size="10.00">SdbMemSizeFromString</text>
</a>
</g>
</g>
<!-- Node13&#45;&gt;Node15 -->
<g id="edge19" class="edge">
<title>Node13&#45;&gt;Node15</title>
<path fill="none" stroke="midnightblue" d="M503.12,-323.52C522.24,-336.83 559.38,-360.52 595,-371 652.93,-388.04 721.35,-392.29 772.5,-392.56"/>
<polygon fill="midnightblue" stroke="midnightblue" points="772.82,-396.06 782.82,-392.56 772.82,-389.06 772.82,-396.06"/>
</g>
<!-- Node16 -->
<g id="node16" class="node">
<title>Node16</title>
<g id="a_node16"><a xlink:href="ModbusWithPostgres_8c.html#a6738c27ba468f4aa7e2039ed83906086" target="_top" xlink:title="Cleanup function for Modbus&#45;PostgreSQL context.">
<polygon fill="white" stroke="black" points="629.5,-304.5 629.5,-323.5 712.5,-323.5 712.5,-304.5 629.5,-304.5"/>
<text text-anchor="middle" x="671" y="-311.5" font-family="Helvetica,sans-Serif" font-size="10.00">MbPgCleanup</text>
</a>
</g>
</g>
<!-- Node13&#45;&gt;Node16 -->
<g id="edge15" class="edge">
<title>Node13&#45;&gt;Node16</title>
<path fill="none" stroke="midnightblue" d="M533.11,-314C559.03,-314 592.14,-314 619.31,-314"/>
<polygon fill="midnightblue" stroke="midnightblue" points="619.4,-317.5 629.4,-314 619.4,-310.5 619.4,-317.5"/>
</g>
<!-- Node19 -->
<g id="node19" class="node">
<title>Node19</title>
<g id="a_node19"><a xlink:href="Thread_8c.html#a6b9ac1c397bc80d499de59fae806cbe1" target="_top" xlink:title="Initialize a thread barrier.">
<polygon fill="white" stroke="black" points="629.5,-266.5 629.5,-285.5 712.5,-285.5 712.5,-266.5 629.5,-266.5"/>
<text text-anchor="middle" x="671" y="-273.5" font-family="Helvetica,sans-Serif" font-size="10.00">SdbBarrierInit</text>
</a>
</g>
</g>
<!-- Node13&#45;&gt;Node19 -->
<g id="edge18" class="edge">
<title>Node13&#45;&gt;Node19</title>
<path fill="none" stroke="midnightblue" d="M533.11,-304.9C559.03,-299.43 592.14,-292.44 619.31,-286.7"/>
<polygon fill="midnightblue" stroke="midnightblue" points="620.34,-290.06 629.4,-284.57 618.89,-283.21 620.34,-290.06"/>
</g>
<!-- Node20 -->
<g id="node20" class="node">
<title>Node20</title>
<g id="a_node20"><a xlink:href="SensorDataPipe_8c.html#aa79e3351208df70a0520943cdade8046" target="_top" xlink:title="Create Sensor Data Pipeline.">
<polygon fill="white" stroke="black" points="637.5,-228.5 637.5,-247.5 704.5,-247.5 704.5,-228.5 637.5,-228.5"/>
<text text-anchor="middle" x="671" y="-235.5" font-family="Helvetica,sans-Serif" font-size="10.00">SdpCreate</text>
</a>
</g>
</g>
<!-- Node13&#45;&gt;Node20 -->
<g id="edge20" class="edge">
<title>Node13&#45;&gt;Node20</title>
<path fill="none" stroke="midnightblue" d="M533.08,-306.02C542.03,-303.32 551.12,-299.73 559,-295 578.95,-283.03 574.93,-268.77 595,-257 604.85,-251.23 616.42,-247.19 627.49,-244.38"/>
<polygon fill="midnightblue" stroke="midnightblue" points="628.47,-247.75 637.45,-242.12 626.93,-240.92 628.47,-247.75"/>
</g>
<!-- Node25 -->
<g id="node25" class="node">
<title>Node25</title>
<g id="a_node25"><a xlink:href="ThreadGroup_8c.html#af2f3e46faf85d1558bf6170af7e2f408" target="_top" xlink:title="Create a Thread Group.">
<polygon fill="white" stroke="black" points="626,-190.5 626,-209.5 716,-209.5 716,-190.5 626,-190.5"/>
<text text-anchor="middle" x="671" y="-197.5" font-family="Helvetica,sans-Serif" font-size="10.00">TgCreateGroup</text>
</a>
</g>
</g>
<!-- Node13&#45;&gt;Node25 -->
<g id="edge25" class="edge">
<title>Node13&#45;&gt;Node25</title>
<path fill="none" stroke="midnightblue" d="M533.28,-308.15C542.51,-305.32 551.67,-301.15 559,-295 587.62,-270.96 566.13,-242.74 595,-219 601.13,-213.96 608.42,-210.24 616.01,-207.49"/>
<polygon fill="midnightblue" stroke="midnightblue" points="617.2,-210.78 625.73,-204.5 615.14,-204.09 617.2,-210.78"/>
</g>
<!-- Node14&#45;&gt;Node15 -->
<g id="edge14" class="edge">
<title>Node14&#45;&gt;Node15</title>
<path fill="none" stroke="midnightblue" d="M716.54,-361.59C740.14,-366.67 769.33,-372.96 794.25,-378.32"/>
<polygon fill="midnightblue" stroke="midnightblue" points="793.77,-381.8 804.28,-380.48 795.24,-374.95 793.77,-381.8"/>
</g>
<!-- Node17 -->
<g id="node17" class="node">
<title>Node17</title>
<g id="a_node17"><a xlink:href="Thread_8c.html#a9cb4c8bef2fd99915d71913855bbd5c1" target="_top" xlink:title="Deinitialize a thread barrier.">
<polygon fill="white" stroke="black" points="801,-304.5 801,-323.5 898,-323.5 898,-304.5 801,-304.5"/>
<text text-anchor="middle" x="849.5" y="-311.5" font-family="Helvetica,sans-Serif" font-size="10.00">SdbBarrierDeinit</text>
</a>
</g>
</g>
<!-- Node16&#45;&gt;Node17 -->
<g id="edge16" class="edge">
<title>Node16&#45;&gt;Node17</title>
<path fill="none" stroke="midnightblue" d="M712.94,-314C736.03,-314 765.26,-314 790.66,-314"/>
<polygon fill="midnightblue" stroke="midnightblue" points="790.91,-317.5 800.91,-314 790.91,-310.5 790.91,-317.5"/>
</g>
<!-- Node18 -->
<g id="node18" class="node">
<title>Node18</title>
<g id="a_node18"><a xlink:href="SensorDataPipe_8c.html#a6bcca74f25bea60fddde9dbadf2f46e7" target="_top" xlink:title="Destroy Sensor Data Pipeline.">
<polygon fill="white" stroke="black" points="813,-342.5 813,-361.5 886,-361.5 886,-342.5 813,-342.5"/>
<text text-anchor="middle" x="849.5" y="-349.5" font-family="Helvetica,sans-Serif" font-size="10.00">SdpDestroy</text>
</a>
</g>
</g>
<!-- Node16&#45;&gt;Node18 -->
<g id="edge17" class="edge">
<title>Node16&#45;&gt;Node18</title>
<path fill="none" stroke="midnightblue" d="M712.94,-322.81C739.87,-328.61 775.16,-336.21 802.98,-342.2"/>
<polygon fill="midnightblue" stroke="midnightblue" points="802.35,-345.64 812.86,-344.33 803.82,-338.8 802.35,-345.64"/>
</g>
<!-- Node21 -->
<g id="node21" class="node">
<title>Node21</title>
<g id="a_node21"><a xlink:href="Sdb_8h.html#a132f10c44fe9dab28a9fae8839c099ad" target="_top" xlink:title=" ">
<polygon fill="white" stroke="black" points="794.5,-266.5 794.5,-285.5 904.5,-285.5 904.5,-266.5 794.5,-266.5"/>
<text text-anchor="middle" x="849.5" y="-273.5" font-family="Helvetica,sans-Serif" font-size="10.00">SdbArenaBootstrap</text>
</a>
</g>
</g>
<!-- Node20&#45;&gt;Node21 -->
<g id="edge21" class="edge">
<title>Node20&#45;&gt;Node21</title>
<path fill="none" stroke="midnightblue" d="M704.78,-245.06C729.84,-250.45 764.94,-258.01 794.17,-264.3"/>
<polygon fill="midnightblue" stroke="midnightblue" points="793.73,-267.79 804.24,-266.47 795.2,-260.94 793.73,-267.79"/>
</g>
<!-- Node22 -->
<g id="node22" class="node">
<title>Node22</title>
<g id="a_node22"><a xlink:href="Sdb_8h.html#a05ee63d567b60fbc2b9e6732f4154a48" target="_top" xlink:title=" ">
<polygon fill="white" stroke="black" points="800.5,-228.5 800.5,-247.5 898.5,-247.5 898.5,-228.5 800.5,-228.5"/>
<text text-anchor="middle" x="849.5" y="-235.5" font-family="Helvetica,sans-Serif" font-size="10.00">SdbArenaGetPos</text>
</a>
</g>
</g>
<!-- Node20&#45;&gt;Node22 -->
<g id="edge22" class="edge">
<title>Node20&#45;&gt;Node22</title>
<path fill="none" stroke="midnightblue" d="M704.78,-238C728.67,-238 761.67,-238 790.02,-238"/>
<polygon fill="midnightblue" stroke="midnightblue" points="790.23,-241.5 800.23,-238 790.23,-234.5 790.23,-241.5"/>
</g>
<!-- Node23 -->
<g id="node23" class="node">
<title>Node23</title>
<g id="a_node23"><a xlink:href="Sdb_8h.html#ab63e953fd90c628d5c0727287df66fab" target="_top" xlink:title=" ">
<polygon fill="white" stroke="black" points="810,-190.5 810,-209.5 889,-209.5 889,-190.5 810,-190.5"/>
<text text-anchor="middle" x="849.5" y="-197.5" font-family="Helvetica,sans-Serif" font-size="10.00">SdbArenaInit</text>
</a>
</g>
</g>
<!-- Node20&#45;&gt;Node23 -->
<g id="edge23" class="edge">
<title>Node20&#45;&gt;Node23</title>
<path fill="none" stroke="midnightblue" d="M704.78,-230.94C731.48,-225.2 769.55,-217 799.8,-210.48"/>
<polygon fill="midnightblue" stroke="midnightblue" points="800.7,-213.87 809.74,-208.35 799.22,-207.03 800.7,-213.87"/>
</g>
<!-- Node24 -->
<g id="node24" class="node">
<title>Node24</title>
<g id="a_node24"><a xlink:href="Sdb_8h.html#a1bbfbdaa7f48d20cf4009a728cc7d138" target="_top" xlink:title=" ">
<polygon fill="white" stroke="black" points="806,-152.5 806,-171.5 893,-171.5 893,-152.5 806,-152.5"/>
<text text-anchor="middle" x="849.5" y="-159.5" font-family="Helvetica,sans-Serif" font-size="10.00">SdbArenaSeek</text>
</a>
</g>
</g>
<!-- Node20&#45;&gt;Node24 -->
<g id="edge24" class="edge">
<title>Node20&#45;&gt;Node24</title>
<path fill="none" stroke="midnightblue" d="M704.55,-233.88C718.33,-231.11 734.14,-226.54 747,-219 767.07,-207.23 763.13,-193.11 783,-181 787.14,-178.48 791.64,-176.27 796.26,-174.35"/>
<polygon fill="midnightblue" stroke="midnightblue" points="797.71,-177.55 805.88,-170.8 795.28,-170.98 797.71,-177.55"/>
</g>
<!-- Node26 -->
<g id="node26" class="node">
<title>Node26</title>
<g id="a_node26"><a xlink:href="Sdb_8h.html#ac5c7c1054a5f2110db33fbaf02ee3875" target="_top" xlink:title=" ">
<polygon fill="white" stroke="black" points="811,-114.5 811,-133.5 888,-133.5 888,-114.5 811,-114.5"/>
<text text-anchor="middle" x="849.5" y="-121.5" font-family="Helvetica,sans-Serif" font-size="10.00">SdbMemcpy</text>
</a>
</g>
</g>
<!-- Node25&#45;&gt;Node26 -->
<g id="edge26" class="edge">
<title>Node25&#45;&gt;Node26</title>
<path fill="none" stroke="midnightblue" d="M716.07,-193.22C726.66,-190.43 737.61,-186.5 747,-181 767.07,-169.23 763.13,-155.11 783,-143 788.51,-139.64 794.64,-136.86 800.87,-134.55"/>
<polygon fill="midnightblue" stroke="midnightblue" points="802.29,-137.76 810.69,-131.3 800.09,-131.12 802.29,-137.76"/>
</g>
<!-- Node29 -->
<g id="node29" class="node">
<title>Node29</title>
<g id="a_node29"><a xlink:href="Thread_8c.html#a96f5f3ba983e0047d225045c00697ffb" target="_top" xlink:title="Initialize a condition variable.">
<polygon fill="white" stroke="black" points="451.5,-190.5 451.5,-209.5 526.5,-209.5 526.5,-190.5 451.5,-190.5"/>
<text text-anchor="middle" x="489" y="-197.5" font-family="Helvetica,sans-Serif" font-size="10.00">SdbCondInit</text>
</a>
</g>
</g>
<!-- Node28&#45;&gt;Node29 -->
<g id="edge29" class="edge">
<title>Node28&#45;&gt;Node29</title>
<path fill="none" stroke="midnightblue" d="M360.15,-228.41C384.85,-222.92 415.85,-216.03 441.14,-210.41"/>
<polygon fill="midnightblue" stroke="midnightblue" points="442.23,-213.76 451.24,-208.17 440.72,-206.92 442.23,-213.76"/>
</g>
<!-- Node30 -->
<g id="node30" class="node">
<title>Node30</title>
<g id="a_node30"><a xlink:href="Thread_8c.html#ab44b8ad4cd3641c5261510ebe9803db4" target="_top" xlink:title="Initialize a mutex.">
<polygon fill="white" stroke="black" points="448.5,-228.5 448.5,-247.5 529.5,-247.5 529.5,-228.5 448.5,-228.5"/>
<text text-anchor="middle" x="489" y="-235.5" font-family="Helvetica,sans-Serif" font-size="10.00">SdbMutexInit</text>
</a>
</g>
</g>
<!-- Node28&#45;&gt;Node30 -->
<g id="edge30" class="edge">
<title>Node28&#45;&gt;Node30</title>
<path fill="none" stroke="midnightblue" d="M368.31,-238C390.47,-238 416.31,-238 438.29,-238"/>
<polygon fill="midnightblue" stroke="midnightblue" points="438.42,-241.5 448.42,-238 438.42,-234.5 438.42,-241.5"/>
</g>
<!-- Node33 -->
<g id="node33" class="node">
<title>Node33</title>
<g id="a_node33"><a xlink:href="Thread_8c.html#a5fbfdcfc990630f27e5161ec4ea18aaa" target="_top" xlink:title="Lock a mutex with timeout.">
<polygon fill="white" stroke="black" points="627,-152.5 627,-171.5 715,-171.5 715,-152.5 627,-152.5"/>
<text text-anchor="middle" x="671" y="-159.5" font-family="Helvetica,sans-Serif" font-size="10.00">SdbMutexLock</text>
</a>
</g>
</g>
<!-- Node32&#45;&gt;Node33 -->
<g id="edge34" class="edge">
<title>Node32&#45;&gt;Node33</title>
<path fill="none" stroke="midnightblue" d="M198.64,-144.91C298.78,-148.54 515.68,-156.4 616.49,-160.06"/>
<polygon fill="midnightblue" stroke="midnightblue" points="616.63,-163.57 626.75,-160.43 616.88,-156.57 616.63,-163.57"/>
</g>
<!-- Node38 -->
<g id="node38" class="node">
<title>Node38</title>
<g id="a_node38"><a xlink:href="Thread_8c.html#a385a70a16dc0b1872fdf925d2121880c" target="_top" xlink:title="Unlock a mutex.">
<polygon fill="white" stroke="black" points="621.5,-76.5 621.5,-95.5 720.5,-95.5 720.5,-76.5 621.5,-76.5"/>
<text text-anchor="middle" x="671" y="-83.5" font-family="Helvetica,sans-Serif" font-size="10.00">SdbMutexUnlock</text>
</a>
</g>
</g>
<!-- Node32&#45;&gt;Node38 -->
<g id="edge39" class="edge">
<title>Node32&#45;&gt;Node38</title>
<path fill="none" stroke="midnightblue" d="M166.36,-133.35C186.76,-124.2 219.29,-111 249,-105 376.23,-79.3 529.31,-80.1 611.31,-83.01"/>
<polygon fill="midnightblue" stroke="midnightblue" points="611.3,-86.51 621.43,-83.39 611.57,-79.52 611.3,-86.51"/>
</g>
<!-- Node39 -->
<g id="node39" class="node">
<title>Node39</title>
<g id="a_node39"><a xlink:href="ThreadGroup_8c.html#aaf638572d1f947f2ab3b6637d11029fd" target="_top" xlink:title="Start All Threads in a Thread Group.">
<polygon fill="white" stroke="black" points="275.5,-114.5 275.5,-133.5 356.5,-133.5 356.5,-114.5 275.5,-114.5"/>
<text text-anchor="middle" x="316" y="-121.5" font-family="Helvetica,sans-Serif" font-size="10.00">TgStartGroup</text>
</a>
</g>
</g>
<!-- Node32&#45;&gt;Node39 -->
<g id="edge40" class="edge">
<title>Node32&#45;&gt;Node39</title>
<path fill="none" stroke="midnightblue" d="M198.55,-137.09C219.86,-134.7 244.36,-131.94 265.37,-129.58"/>
<polygon fill="midnightblue" stroke="midnightblue" points="265.83,-133.05 275.38,-128.45 265.05,-126.09 265.83,-133.05"/>
</g>
<!-- Node34 -->
<g id="node34" class="node">
<title>Node34</title>
<g id="a_node34"><a xlink:href="Thread_8c.html#aa16f3f5cb899e1128f1a80c021780e5f" target="_top" xlink:title=" ">
<polygon fill="white" stroke="black" points="805,-38.5 805,-57.5 894,-57.5 894,-38.5 805,-38.5"/>
<text text-anchor="middle" x="849.5" y="-45.5" font-family="Helvetica,sans-Serif" font-size="10.00">CreateTimeout</text>
</a>
</g>
</g>
<!-- Node33&#45;&gt;Node34 -->
<g id="edge35" class="edge">
<title>Node33&#45;&gt;Node34</title>
<path fill="none" stroke="midnightblue" d="M715.28,-155.42C726.12,-152.62 737.38,-148.64 747,-143 767.07,-131.23 766.21,-121.1 783,-105 797.82,-90.79 815.4,-75.57 828.62,-64.44"/>
<polygon fill="midnightblue" stroke="midnightblue" points="831.18,-66.86 836.6,-57.76 826.69,-61.49 831.18,-66.86"/>
</g>
<!-- Node35 -->
<g id="node35" class="node">
<title>Node35</title>
<g id="a_node35"><a xlink:href="Time_8c.html#afad180732be23f8e46bdfc2bb349ff44" target="_top" xlink:title="Create Absolute Timeout Timestamp.">
<polygon fill="white" stroke="black" points="952,-38.5 952,-57.5 1077,-57.5 1077,-38.5 952,-38.5"/>
<text text-anchor="middle" x="1014.5" y="-45.5" font-family="Helvetica,sans-Serif" font-size="10.00">SdbTimespecAbsolute</text>
</a>
</g>
</g>
<!-- Node34&#45;&gt;Node35 -->
<g id="edge36" class="edge">
<title>Node34&#45;&gt;Node35</title>
<path fill="none" stroke="midnightblue" d="M894.18,-48C908.86,-48 925.65,-48 941.9,-48"/>
<polygon fill="midnightblue" stroke="midnightblue" points="941.93,-51.5 951.93,-48 941.93,-44.5 941.93,-51.5"/>
</g>
<!-- Node36 -->
<g id="node36" class="node">
<title>Node36</title>
<g id="a_node36"><a xlink:href="Time_8c.html#af8be68d54def6b644cac5efb8fe2e605" target="_top" xlink:title="Add Time Difference to Timestamp.">
<polygon fill="white" stroke="black" points="1114.5,-57.5 1114.5,-76.5 1192.5,-76.5 1192.5,-57.5 1114.5,-57.5"/>
<text text-anchor="middle" x="1153.5" y="-64.5" font-family="Helvetica,sans-Serif" font-size="10.00">SdbTimeAdd</text>
</a>
</g>
</g>
<!-- Node35&#45;&gt;Node36 -->
<g id="edge37" class="edge">
<title>Node35&#45;&gt;Node36</title>
<path fill="none" stroke="midnightblue" d="M1077.19,-56.56C1086.27,-57.82 1095.52,-59.1 1104.28,-60.31"/>
<polygon fill="midnightblue" stroke="midnightblue" points="1103.92,-63.8 1114.31,-61.7 1104.88,-56.86 1103.92,-63.8"/>
</g>
<!-- Node37 -->
<g id="node37" class="node">
<title>Node37</title>
<g id="a_node37"><a xlink:href="Time_8c.html#a83d0c194706101b50506d2618e27167c" target="_top" xlink:title="Get Current Real&#45;Time Timestamp.">
<polygon fill="white" stroke="black" points="1113,-19.5 1113,-38.5 1194,-38.5 1194,-19.5 1113,-19.5"/>
<text text-anchor="middle" x="1153.5" y="-26.5" font-family="Helvetica,sans-Serif" font-size="10.00">SdbTimeNow</text>
</a>
</g>
</g>
<!-- Node35&#45;&gt;Node37 -->
<g id="edge38" class="edge">
<title>Node35&#45;&gt;Node37</title>
<path fill="none" stroke="midnightblue" d="M1077.19,-39.44C1085.77,-38.25 1094.5,-37.04 1102.82,-35.89"/>
<polygon fill="midnightblue" stroke="midnightblue" points="1103.32,-39.35 1112.74,-34.51 1102.36,-32.42 1103.32,-39.35"/>
</g>
<!-- Node40 -->
<g id="node40" class="node">
<title>Node40</title>
<g id="a_node40"><a xlink:href="ThreadGroup_8c.html#abd4b3faea4ee7a0e94f28b6ce36aab7c" target="_top" xlink:title=" ">
<polygon fill="white" stroke="black" points="456,-114.5 456,-133.5 522,-133.5 522,-114.5 456,-114.5"/>
<text text-anchor="middle" x="489" y="-121.5" font-family="Helvetica,sans-Serif" font-size="10.00">TgMonitor</text>
</a>
</g>
</g>
<!-- Node39&#45;&gt;Node40 -->
<g id="edge41" class="edge">
<title>Node39&#45;&gt;Node40</title>
<path fill="none" stroke="midnightblue" d="M356.66,-124C383.43,-124 418.71,-124 445.97,-124"/>
<polygon fill="midnightblue" stroke="midnightblue" points="445.99,-127.5 455.99,-124 445.99,-120.5 445.99,-127.5"/>
</g>
<!-- Node40&#45;&gt;Node33 -->
<g id="edge43" class="edge">
<title>Node40&#45;&gt;Node33</title>
<path fill="none" stroke="midnightblue" d="M522.18,-130.79C548.44,-136.34 586.08,-144.28 616.8,-150.77"/>
<polygon fill="midnightblue" stroke="midnightblue" points="616.43,-154.27 626.93,-152.91 617.87,-147.42 616.43,-154.27"/>
</g>
<!-- Node40&#45;&gt;Node38 -->
<g id="edge44" class="edge">
<title>Node40&#45;&gt;Node38</title>
<path fill="none" stroke="midnightblue" d="M522.18,-117.21C547.89,-111.78 584.52,-104.05 614.88,-97.64"/>
<polygon fill="midnightblue" stroke="midnightblue" points="615.85,-101.01 624.91,-95.52 614.41,-94.16 615.85,-101.01"/>
</g>
<!-- Node41 -->
<g id="node41" class="node">
<title>Node41</title>
<g id="a_node41"><a xlink:href="Thread_8c.html#a6e1a34c43565fd0fe32ce19bd63680c8" target="_top" xlink:title="Signal a condition variable.">
<polygon fill="white" stroke="black" points="626.5,-114.5 626.5,-133.5 715.5,-133.5 715.5,-114.5 626.5,-114.5"/>
<text text-anchor="middle" x="671" y="-121.5" font-family="Helvetica,sans-Serif" font-size="10.00">SdbCondSignal</text>
</a>
</g>
</g>
<!-- Node40&#45;&gt;Node41 -->
<g id="edge42" class="edge">
<title>Node40&#45;&gt;Node41</title>
<path fill="none" stroke="midnightblue" d="M522.18,-124C548.25,-124 585.56,-124 616.17,-124"/>
<polygon fill="midnightblue" stroke="midnightblue" points="616.26,-127.5 626.26,-124 616.26,-120.5 616.26,-127.5"/>
</g>
<!-- Node42&#45;&gt;Node33 -->
<g id="edge48" class="edge">
<title>Node42&#45;&gt;Node33</title>
<path fill="none" stroke="midnightblue" d="M502.6,-57.65C516.74,-68.65 540.15,-87.39 559,-105 576,-120.88 574.93,-131.23 595,-143 601.76,-146.96 609.34,-150.11 617.01,-152.6"/>
<polygon fill="midnightblue" stroke="midnightblue" points="616.14,-155.99 626.72,-155.42 618.09,-149.27 616.14,-155.99"/>
</g>
<!-- Node42&#45;&gt;Node38 -->
<g id="edge49" class="edge">
<title>Node42&#45;&gt;Node38</title>
<path fill="none" stroke="midnightblue" d="M535.42,-57.59C559.6,-62.69 589.53,-69.01 615.01,-74.39"/>
<polygon fill="midnightblue" stroke="midnightblue" points="614.4,-77.84 624.91,-76.48 615.84,-70.99 614.4,-77.84"/>
</g>
<!-- Node43 -->
<g id="node43" class="node">
<title>Node43</title>
<g id="a_node43"><a xlink:href="Thread_8c.html#a3aa5be8c3ae6f155db4058a8b658ab91" target="_top" xlink:title="Wait on a condition variable with timeout.">
<polygon fill="white" stroke="black" points="630.5,-0.5 630.5,-19.5 711.5,-19.5 711.5,-0.5 630.5,-0.5"/>
<text text-anchor="middle" x="671" y="-7.5" font-family="Helvetica,sans-Serif" font-size="10.00">SdbCondWait</text>
</a>
</g>
</g>
<!-- Node42&#45;&gt;Node43 -->
<g id="edge46" class="edge">
<title>Node42&#45;&gt;Node43</title>
<path fill="none" stroke="midnightblue" d="M535.42,-38.41C561.37,-32.93 593.94,-26.06 620.53,-20.44"/>
<polygon fill="midnightblue" stroke="midnightblue" points="621.35,-23.85 630.41,-18.36 619.9,-17 621.35,-23.85"/>
</g>
<!-- Node44 -->
<g id="node44" class="node">
<title>Node44</title>
<g id="a_node44"><a xlink:href="Signals_8c.html#aca8d19968aa974641e340443ba21e58e" target="_top" xlink:title="Checks if the system should initiate shutdown.">
<polygon fill="white" stroke="black" points="613,-38.5 613,-57.5 729,-57.5 729,-38.5 613,-38.5"/>
<text text-anchor="middle" x="671" y="-45.5" font-family="Helvetica,sans-Serif" font-size="10.00">SdbShouldShutdown</text>
</a>
</g>
</g>
<!-- Node42&#45;&gt;Node44 -->
<g id="edge50" class="edge">
<title>Node42&#45;&gt;Node44</title>
<path fill="none" stroke="midnightblue" d="M549.94,-48C566.86,-48 585.39,-48 602.72,-48"/>
<polygon fill="midnightblue" stroke="midnightblue" points="602.76,-51.5 612.76,-48 602.76,-44.5 602.76,-51.5"/>
</g>
<!-- Node43&#45;&gt;Node34 -->
<g id="edge47" class="edge">
<title>Node43&#45;&gt;Node34</title>
<path fill="none" stroke="midnightblue" d="M711.61,-18.53C736.12,-23.81 767.92,-30.65 794.7,-36.42"/>
<polygon fill="midnightblue" stroke="midnightblue" points="794.17,-39.88 804.69,-38.57 795.65,-33.04 794.17,-39.88"/>
</g>
</g>
</svg>
        <g id="navigator" transform="translate(0 0)" fill="#404254">
                <rect fill="#f2f5e9" fill-opacity="0.5" stroke="#606060" stroke-width=".5" x="0" y="0" width="60" height="60"/>
                <use id="zoomplus" xlink:href="#zoomPlus" x="17" y="9" onmousedown="handleZoom(evt,'in')"/>
                <use id="zoomminus" xlink:href="#zoomMin" x="42" y="9" onmousedown="handleZoom(evt,'out')"/>
                <use id="reset" xlink:href="#resetDef" x="30" y="36" onmousedown="handleReset()"/>
                <g id="arrowUp" xlink:href="#dirArrow" transform="translate(30 24)" onmousedown="handlePan(0,-1)">
                  <use xlink:href="#rim" fill="#404040">
                        <set attributeName="fill" to="#808080" begin="arrowUp.mouseover" end="arrowUp.mouseout"/>
                  </use>
                  <path fill="none" stroke="white" stroke-width="1.5" d="M0,-3.0v7 M-2.5,-0.5L0,-3.0L2.5,-0.5"/>
                </g>
                <g id="arrowRight" xlink:href="#dirArrow" transform="rotate(90) translate(36 -43)" onmousedown="handlePan(1,0)">
                  <use xlink:href="#rim" fill="#404040">
                        <set attributeName="fill" to="#808080" begin="arrowRight.mouseover" end="arrowRight.mouseout"/>
                  </use>
                  <path fill="none" stroke="white" stroke-width="1.5" d="M0,-3.0v7 M-2.5,-0.5L0,-3.0L2.5,-0.5"/>
                </g>
                <g id="arrowDown" xlink:href="#dirArrow" transform="rotate(180) translate(-30 -48)" onmousedown="handlePan(0,1)">
                  <use xlink:href="#rim" fill="#404040">
                        <set attributeName="fill" to="#808080" begin="arrowDown.mouseover" end="arrowDown.mouseout"/>
                  </use>
                  <path fill="none" stroke="white" stroke-width="1.5" d="M0,-3.0v7 M-2.5,-0.5L0,-3.0L2.5,-0.5"/>
                </g>
                <g id="arrowLeft" xlink:href="#dirArrow" transform="rotate(270) translate(-36 17)" onmousedown="handlePan(-1,0)">
                  <use xlink:href="#rim" fill="#404040">
                        <set attributeName="fill" to="#808080" begin="arrowLeft.mouseover" end="arrowLeft.mouseout"/>
                  </use>
                  <path fill="none" stroke="white" stroke-width="1.5" d="M0,-3.0v7 M-2.5,-0.5L0,-3.0L2.5,-0.5"/>
                </g>
        </g>
        <svg viewBox="0 0 15 15" width="100%" height="30px" preserveAspectRatio="xMaxYMin meet">
         <g id="arrow_out" transform="scale(0.3 0.3)">
          <a xlink:href="Main_8c_ae21eb8342793f7f8f0d5fda6b96c0803_cgraph_org.svg" target="_base">
           <rect id="button" ry="5" rx="5" y="6" x="6" height="38" width="38"
                fill="#f2f5e9" fill-opacity="0.5" stroke="#606060" stroke-width="1.0"/>
           <path id="arrow"
             d="M 11.500037,31.436501 C 11.940474,20.09759 22.043105,11.32322 32.158766,21.979434 L 37.068811,17.246167 C 37.068811,17.246167 37.088388,32 37.088388,32 L 22.160133,31.978069 C 22.160133,31.978069 26.997745,27.140456 26.997745,27.140456 C 18.528582,18.264221 13.291696,25.230495 11.500037,31.436501 z"
             style="fill:#404040;"/>
          </a>
         </g>
        </svg>
</svg>
