<?xml version="1.0" encoding="UTF-8" standalone="no"?>
<!DOCTYPE svg PUBLIC "-//W3C//DTD SVG 1.1//EN"
 "http://www.w3.org/Graphics/SVG/1.1/DTD/svg11.dtd">
<!-- Generated by graphviz version 2.43.0 (0)
 -->
<!-- Title: src/Main.c Pages: 1 -->
<!--zoomable 364 -->
<svg id="main" version="1.1" xmlns="http://www.w3.org/2000/svg" xmlns:xlink="http://www.w3.org/1999/xlink" xml:space="preserve" onload="init(evt)">
<style type="text/css"><![CDATA[
.edge:hover path { stroke: red; }
.edge:hover polygon { stroke: red; fill: red; }
]]></style>
<script type="text/javascript"><![CDATA[
var edges = document.getElementsByTagName('g');
if (edges && edges.length) {
  for (var i=0;i<edges.length;i++) {
    if (edges[i].id.substr(0,4)=='edge') {
      edges[i].setAttribute('class','edge');
    }
  }
}
]]></script>
        <defs>
                <circle id="rim" cx="0" cy="0" r="7"/>
                <circle id="rim2" cx="0" cy="0" r="3.5"/>
                <g id="zoomPlus">
                        <use xlink:href="#rim" fill="#404040">
                                <set attributeName="fill" to="#808080" begin="zoomplus.mouseover" end="zoomplus.mouseout"/>
                        </use>
                        <path d="M-4,0h8M0,-4v8" fill="none" stroke="white" stroke-width="1.5" pointer-events="none"/>
                </g>
                <g id="zoomMin">
                        <use xlink:href="#rim" fill="#404040">
                                <set attributeName="fill" to="#808080" begin="zoomminus.mouseover" end="zoomminus.mouseout"/>
                        </use>
                        <path d="M-4,0h8" fill="none" stroke="white" stroke-width="1.5" pointer-events="none"/>
                </g>
                <g id="dirArrow">
                        <path fill="none" stroke="white" stroke-width="1.5" d="M0,-3.0v7 M-2.5,-0.5L0,-3.0L2.5,-0.5"/>
                </g>
               <g id="resetDef">
                       <use xlink:href="#rim2" fill="#404040">
                               <set attributeName="fill" to="#808080" begin="reset.mouseover" end="reset.mouseout"/>
                       </use>
               </g>
        </defs>

<script type="text/javascript">
var viewWidth = 1239;
var viewHeight = 364;
var sectionId = 'dynsection-0';
</script>
<script xlink:href="svgpan.js"/>
<svg id="graph" class="graph">
<g id="viewport">
<title>src/Main.c</title>
<polygon fill="white" stroke="transparent" points="-4,4 -4,-360 1235,-360 1235,4 -4,4"/>
<!-- Node1 -->
<g id="node1" class="node">
<title>Node1</title>
<g id="a_node1"><a xlink:title="Main implementation file for the Sensor Data Handler System.">
<polygon fill="#bfbfbf" stroke="black" points="695.5,-336.5 695.5,-355.5 761.5,-355.5 761.5,-336.5 695.5,-336.5"/>
<text text-anchor="middle" x="728.5" y="-343.5" font-family="Helvetica,sans-Serif" font-size="10.00">src/Main.c</text>
</a>
</g>
</g>
<!-- Node2 -->
<g id="node2" class="node">
<title>Node2</title>
<g id="a_node2"><a xlink:title=" ">
<polygon fill="white" stroke="#bfbfbf" points="423,-224.5 423,-243.5 478,-243.5 478,-224.5 423,-224.5"/>
<text text-anchor="middle" x="450.5" y="-231.5" font-family="Helvetica,sans-Serif" font-size="10.00">signal.h</text>
</a>
</g>
</g>
<!-- Node1&#45;&gt;Node2 -->
<g id="edge1" class="edge">
<title>Node1&#45;&gt;Node2</title>
<path fill="none" stroke="midnightblue" d="M699.29,-336.47C671.32,-328.05 628.08,-314.38 591.5,-300 550.66,-283.94 504.74,-262.02 476.72,-248.19"/>
<polygon fill="midnightblue" stroke="midnightblue" points="478.1,-244.97 467.59,-243.65 474.99,-251.24 478.1,-244.97"/>
</g>
<!-- Node3 -->
<g id="node3" class="node">
<title>Node3</title>
<g id="a_node3"><a xlink:title=" ">
<polygon fill="white" stroke="#bfbfbf" points="0,-0.5 0,-19.5 53,-19.5 53,-0.5 0,-0.5"/>
<text text-anchor="middle" x="26.5" y="-7.5" font-family="Helvetica,sans-Serif" font-size="10.00">stdlib.h</text>
</a>
</g>
</g>
<!-- Node1&#45;&gt;Node3 -->
<g id="edge2" class="edge">
<title>Node1&#45;&gt;Node3</title>
<path fill="none" stroke="midnightblue" d="M695.47,-345.36C578.01,-345.75 187.5,-339.23 187.5,-235 187.5,-235 187.5,-235 187.5,-121 187.5,-89.4 101.85,-45.38 55.49,-23.86"/>
<polygon fill="midnightblue" stroke="midnightblue" points="56.79,-20.61 46.24,-19.63 53.88,-26.97 56.79,-20.61"/>
</g>
<!-- Node4 -->
<g id="node4" class="node">
<title>Node4</title>
<g id="a_node4"><a xlink:title=" ">
<polygon fill="white" stroke="#bfbfbf" points="1178,-0.5 1178,-19.5 1231,-19.5 1231,-0.5 1178,-0.5"/>
<text text-anchor="middle" x="1204.5" y="-7.5" font-family="Helvetica,sans-Serif" font-size="10.00">string.h</text>
</a>
</g>
</g>
<!-- Node1&#45;&gt;Node4 -->
<g id="edge3" class="edge">
<title>Node1&#45;&gt;Node4</title>
<path fill="none" stroke="midnightblue" d="M761.59,-344.45C869.54,-341.76 1204.5,-326.07 1204.5,-235 1204.5,-235 1204.5,-235 1204.5,-121 1204.5,-88.95 1204.5,-51.64 1204.5,-29.75"/>
<polygon fill="midnightblue" stroke="midnightblue" points="1208,-29.56 1204.5,-19.56 1201,-29.56 1208,-29.56"/>
</g>
<!-- Node5 -->
<g id="node5" class="node">
<title>Node5</title>
<g id="a_node5"><a xlink:href="Sdb_8h.html" target="_top" xlink:title=" ">
<polygon fill="white" stroke="black" points="619,-56.5 619,-75.5 680,-75.5 680,-56.5 619,-56.5"/>
<text text-anchor="middle" x="649.5" y="-63.5" font-family="Helvetica,sans-Serif" font-size="10.00">src/Sdb.h</text>
</a>
</g>
</g>
<!-- Node1&#45;&gt;Node5 -->
<g id="edge4" class="edge">
<title>Node1&#45;&gt;Node5</title>
<path fill="none" stroke="midnightblue" d="M695.25,-341.25C610.77,-330.79 394.5,-297.88 394.5,-235 394.5,-235 394.5,-235 394.5,-177 394.5,-84.75 536.95,-68.95 608.91,-66.85"/>
<polygon fill="midnightblue" stroke="midnightblue" points="609.07,-70.35 618.99,-66.63 608.92,-63.35 609.07,-70.35"/>
</g>
<!-- Node21 -->
<g id="node21" class="node">
<title>Node21</title>
<g id="a_node21"><a xlink:href="Thread_8h.html" target="_top" xlink:title="Lightweight Synchronization Primitives Wrapper.">
<polygon fill="white" stroke="black" points="654.5,-168.5 654.5,-187.5 778.5,-187.5 778.5,-168.5 654.5,-168.5"/>
<text text-anchor="middle" x="716.5" y="-175.5" font-family="Helvetica,sans-Serif" font-size="10.00">src/Common/Thread.h</text>
</a>
</g>
</g>
<!-- Node1&#45;&gt;Node21 -->
<g id="edge22" class="edge">
<title>Node1&#45;&gt;Node21</title>
<path fill="none" stroke="midnightblue" d="M727.85,-336.08C725.97,-309.95 720.42,-233.21 717.84,-197.58"/>
<polygon fill="midnightblue" stroke="midnightblue" points="721.33,-197.29 717.12,-187.57 714.35,-197.79 721.33,-197.29"/>
</g>
<!-- Node25 -->
<g id="node25" class="node">
<title>Node25</title>
<g id="a_node25"><a xlink:href="ThreadGroup_8h.html" target="_top" xlink:title="Thread Group Management System.">
<polygon fill="white" stroke="black" points="835,-224.5 835,-243.5 988,-243.5 988,-224.5 835,-224.5"/>
<text text-anchor="middle" x="911.5" y="-231.5" font-family="Helvetica,sans-Serif" font-size="10.00">src/Common/ThreadGroup.h</text>
</a>
</g>
</g>
<!-- Node1&#45;&gt;Node25 -->
<g id="edge30" class="edge">
<title>Node1&#45;&gt;Node25</title>
<path fill="none" stroke="midnightblue" d="M761.91,-343.07C816.91,-339.11 922.73,-327.98 945.5,-300 957.85,-284.83 943.15,-264.47 929.41,-250.61"/>
<polygon fill="midnightblue" stroke="midnightblue" points="931.72,-247.98 922.05,-243.65 926.91,-253.06 931.72,-247.98"/>
</g>
<!-- Node26 -->
<g id="node26" class="node">
<title>Node26</title>
<g id="a_node26"><a xlink:href="DataHandlers_8h.html" target="_top" xlink:title="Data Handler Management for Thread Group Creation.">
<polygon fill="white" stroke="black" points="757,-280.5 757,-299.5 936,-299.5 936,-280.5 757,-280.5"/>
<text text-anchor="middle" x="846.5" y="-287.5" font-family="Helvetica,sans-Serif" font-size="10.00">src/DataHandlers/DataHandlers.h</text>
</a>
</g>
</g>
<!-- Node1&#45;&gt;Node26 -->
<g id="edge35" class="edge">
<title>Node1&#45;&gt;Node26</title>
<path fill="none" stroke="midnightblue" d="M747.2,-336.44C766.44,-327.64 796.65,-313.81 818.7,-303.72"/>
<polygon fill="midnightblue" stroke="midnightblue" points="820.25,-306.86 827.89,-299.52 817.34,-300.5 820.25,-306.86"/>
</g>
<!-- Node27 -->
<g id="node27" class="node">
<title>Node27</title>
<g id="a_node27"><a xlink:href="cJSON_8h.html" target="_top" xlink:title=" ">
<polygon fill="white" stroke="black" points="1006,-224.5 1006,-243.5 1133,-243.5 1133,-224.5 1006,-224.5"/>
<text text-anchor="middle" x="1069.5" y="-231.5" font-family="Helvetica,sans-Serif" font-size="10.00">src/Libs/cJSON/cJSON.h</text>
</a>
</g>
</g>
<!-- Node1&#45;&gt;Node27 -->
<g id="edge40" class="edge">
<title>Node1&#45;&gt;Node27</title>
<path fill="none" stroke="midnightblue" d="M761.53,-342.29C807.61,-337.7 893.22,-326.19 961.5,-300 994.61,-287.3 1029.07,-264.64 1049.91,-249.71"/>
<polygon fill="midnightblue" stroke="midnightblue" points="1052.2,-252.37 1058.22,-243.65 1048.07,-246.72 1052.2,-252.37"/>
</g>
<!-- Node29 -->
<g id="node29" class="node">
<title>Node29</title>
<g id="a_node29"><a xlink:href="Signals_8h.html" target="_top" xlink:title="Signal handling interface for the Sensor Data Handler System.">
<polygon fill="white" stroke="black" points="600.5,-280.5 600.5,-299.5 678.5,-299.5 678.5,-280.5 600.5,-280.5"/>
<text text-anchor="middle" x="639.5" y="-287.5" font-family="Helvetica,sans-Serif" font-size="10.00">src/Signals.h</text>
</a>
</g>
</g>
<!-- Node1&#45;&gt;Node29 -->
<g id="edge41" class="edge">
<title>Node1&#45;&gt;Node29</title>
<path fill="none" stroke="midnightblue" d="M714.2,-336.32C700.32,-327.9 679.01,-314.97 662.7,-305.07"/>
<polygon fill="midnightblue" stroke="midnightblue" points="664.13,-301.85 653.76,-299.65 660.5,-307.83 664.13,-301.85"/>
</g>
<!-- Node5&#45;&gt;Node3 -->
<g id="edge15" class="edge">
<title>Node5&#45;&gt;Node3</title>
<path fill="none" stroke="midnightblue" d="M618.98,-64.55C532.87,-62.87 280.65,-55.22 63.15,-20.01"/>
<polygon fill="midnightblue" stroke="midnightblue" points="63.59,-16.53 53.15,-18.37 62.45,-23.44 63.59,-16.53"/>
</g>
<!-- Node5&#45;&gt;Node4 -->
<g id="edge16" class="edge">
<title>Node5&#45;&gt;Node4</title>
<path fill="none" stroke="midnightblue" d="M680.2,-64.11C759.53,-61.45 977.86,-51.74 1167.96,-20.01"/>
<polygon fill="midnightblue" stroke="midnightblue" points="1168.57,-23.46 1177.85,-18.34 1167.4,-16.56 1168.57,-23.46"/>
</g>
<!-- Node6 -->
<g id="node6" class="node">
<title>Node6</title>
<g id="a_node6"><a xlink:title=" ">
<polygon fill="white" stroke="#bfbfbf" points="462.5,-0.5 462.5,-19.5 518.5,-19.5 518.5,-0.5 462.5,-0.5"/>
<text text-anchor="middle" x="490.5" y="-7.5" font-family="Helvetica,sans-Serif" font-size="10.00">assert.h</text>
</a>
</g>
</g>
<!-- Node5&#45;&gt;Node6 -->
<g id="edge5" class="edge">
<title>Node5&#45;&gt;Node6</title>
<path fill="none" stroke="midnightblue" d="M624.31,-56.44C597.56,-47.36 555.1,-32.94 525.19,-22.78"/>
<polygon fill="midnightblue" stroke="midnightblue" points="526.17,-19.42 515.58,-19.52 523.92,-26.05 526.17,-19.42"/>
</g>
<!-- Node7 -->
<g id="node7" class="node">
<title>Node7</title>
<g id="a_node7"><a xlink:title=" ">
<polygon fill="white" stroke="#bfbfbf" points="537,-0.5 537,-19.5 590,-19.5 590,-0.5 537,-0.5"/>
<text text-anchor="middle" x="563.5" y="-7.5" font-family="Helvetica,sans-Serif" font-size="10.00">ctype.h</text>
</a>
</g>
</g>
<!-- Node5&#45;&gt;Node7 -->
<g id="edge6" class="edge">
<title>Node5&#45;&gt;Node7</title>
<path fill="none" stroke="midnightblue" d="M635.68,-56.32C622.27,-47.9 601.68,-34.97 585.91,-25.07"/>
<polygon fill="midnightblue" stroke="midnightblue" points="587.61,-22.01 577.28,-19.65 583.89,-27.94 587.61,-22.01"/>
</g>
<!-- Node8 -->
<g id="node8" class="node">
<title>Node8</title>
<g id="a_node8"><a xlink:title=" ">
<polygon fill="white" stroke="#bfbfbf" points="608,-0.5 608,-19.5 659,-19.5 659,-0.5 608,-0.5"/>
<text text-anchor="middle" x="633.5" y="-7.5" font-family="Helvetica,sans-Serif" font-size="10.00">errno.h</text>
</a>
</g>
</g>
<!-- Node5&#45;&gt;Node8 -->
<g id="edge7" class="edge">
<title>Node5&#45;&gt;Node8</title>
<path fill="none" stroke="midnightblue" d="M646.86,-56.08C644.71,-48.85 641.62,-38.41 638.95,-29.4"/>
<polygon fill="midnightblue" stroke="midnightblue" points="642.29,-28.34 636.09,-19.75 635.58,-30.33 642.29,-28.34"/>
</g>
<!-- Node9 -->
<g id="node9" class="node">
<title>Node9</title>
<g id="a_node9"><a xlink:title=" ">
<polygon fill="white" stroke="#bfbfbf" points="677,-0.5 677,-19.5 724,-19.5 724,-0.5 677,-0.5"/>
<text text-anchor="middle" x="700.5" y="-7.5" font-family="Helvetica,sans-Serif" font-size="10.00">fcntl.h</text>
</a>
</g>
</g>
<!-- Node5&#45;&gt;Node9 -->
<g id="edge8" class="edge">
<title>Node5&#45;&gt;Node9</title>
<path fill="none" stroke="midnightblue" d="M657.92,-56.08C665.35,-48.22 676.35,-36.57 685.31,-27.08"/>
<polygon fill="midnightblue" stroke="midnightblue" points="687.91,-29.42 692.24,-19.75 682.82,-24.62 687.91,-29.42"/>
</g>
<!-- Node10 -->
<g id="node10" class="node">
<title>Node10</title>
<g id="a_node10"><a xlink:title=" ">
<polygon fill="white" stroke="#bfbfbf" points="742,-0.5 742,-19.5 789,-19.5 789,-0.5 742,-0.5"/>
<text text-anchor="middle" x="765.5" y="-7.5" font-family="Helvetica,sans-Serif" font-size="10.00">float.h</text>
</a>
</g>
</g>
<!-- Node5&#45;&gt;Node10 -->
<g id="edge9" class="edge">
<title>Node5&#45;&gt;Node10</title>
<path fill="none" stroke="midnightblue" d="M667.88,-56.44C686.72,-47.68 716.23,-33.94 737.88,-23.86"/>
<polygon fill="midnightblue" stroke="midnightblue" points="739.62,-26.91 747.21,-19.52 736.66,-20.56 739.62,-26.91"/>
</g>
<!-- Node11 -->
<g id="node11" class="node">
<title>Node11</title>
<g id="a_node11"><a xlink:title=" ">
<polygon fill="white" stroke="#bfbfbf" points="807,-0.5 807,-19.5 858,-19.5 858,-0.5 807,-0.5"/>
<text text-anchor="middle" x="832.5" y="-7.5" font-family="Helvetica,sans-Serif" font-size="10.00">math.h</text>
</a>
</g>
</g>
<!-- Node5&#45;&gt;Node11 -->
<g id="edge10" class="edge">
<title>Node5&#45;&gt;Node11</title>
<path fill="none" stroke="midnightblue" d="M678.5,-56.44C710.69,-46.94 762.67,-31.61 797.2,-21.41"/>
<polygon fill="midnightblue" stroke="midnightblue" points="798.29,-24.75 806.89,-18.56 796.31,-18.03 798.29,-24.75"/>
</g>
<!-- Node12 -->
<g id="node12" class="node">
<title>Node12</title>
<g id="a_node12"><a xlink:title=" ">
<polygon fill="white" stroke="#bfbfbf" points="1097,-0.5 1097,-19.5 1160,-19.5 1160,-0.5 1097,-0.5"/>
<text text-anchor="middle" x="1128.5" y="-7.5" font-family="Helvetica,sans-Serif" font-size="10.00">pthread.h</text>
</a>
</g>
</g>
<!-- Node5&#45;&gt;Node12 -->
<g id="edge11" class="edge">
<title>Node5&#45;&gt;Node12</title>
<path fill="none" stroke="midnightblue" d="M680.19,-63.05C750.37,-58.34 928.12,-44.96 1086.84,-19.92"/>
<polygon fill="midnightblue" stroke="midnightblue" points="1087.46,-23.37 1096.78,-18.34 1086.36,-16.46 1087.46,-23.37"/>
</g>
<!-- Node13 -->
<g id="node13" class="node">
<title>Node13</title>
<g id="a_node13"><a xlink:title=" ">
<polygon fill="white" stroke="#bfbfbf" points="876.5,-0.5 876.5,-19.5 932.5,-19.5 932.5,-0.5 876.5,-0.5"/>
<text text-anchor="middle" x="904.5" y="-7.5" font-family="Helvetica,sans-Serif" font-size="10.00">stdarg.h</text>
</a>
</g>
</g>
<!-- Node5&#45;&gt;Node13 -->
<g id="edge12" class="edge">
<title>Node5&#45;&gt;Node13</title>
<path fill="none" stroke="midnightblue" d="M680.26,-59C720.64,-51.05 793.98,-36.36 866.08,-20.26"/>
<polygon fill="midnightblue" stroke="midnightblue" points="867.25,-23.59 876.24,-17.98 865.72,-16.76 867.25,-23.59"/>
</g>
<!-- Node14 -->
<g id="node14" class="node">
<title>Node14</title>
<g id="a_node14"><a xlink:title=" ">
<polygon fill="white" stroke="#bfbfbf" points="71,-0.5 71,-19.5 124,-19.5 124,-0.5 71,-0.5"/>
<text text-anchor="middle" x="97.5" y="-7.5" font-family="Helvetica,sans-Serif" font-size="10.00">stdint.h</text>
</a>
</g>
</g>
<!-- Node5&#45;&gt;Node14 -->
<g id="edge13" class="edge">
<title>Node5&#45;&gt;Node14</title>
<path fill="none" stroke="midnightblue" d="M618.75,-64.01C539.86,-61.12 323.75,-50.94 134.28,-19.85"/>
<polygon fill="midnightblue" stroke="midnightblue" points="134.58,-16.35 124.14,-18.16 133.43,-23.25 134.58,-16.35"/>
</g>
<!-- Node15 -->
<g id="node15" class="node">
<title>Node15</title>
<g id="a_node15"><a xlink:title=" ">
<polygon fill="white" stroke="#bfbfbf" points="142.5,-0.5 142.5,-19.5 192.5,-19.5 192.5,-0.5 142.5,-0.5"/>
<text text-anchor="middle" x="167.5" y="-7.5" font-family="Helvetica,sans-Serif" font-size="10.00">stdio.h</text>
</a>
</g>
</g>
<!-- Node5&#45;&gt;Node15 -->
<g id="edge14" class="edge">
<title>Node5&#45;&gt;Node15</title>
<path fill="none" stroke="midnightblue" d="M618.85,-63.6C547.47,-59.98 364.57,-48.66 202.78,-19.96"/>
<polygon fill="midnightblue" stroke="midnightblue" points="203.11,-16.46 192.65,-18.13 201.87,-23.35 203.11,-16.46"/>
</g>
<!-- Node16 -->
<g id="node16" class="node">
<title>Node16</title>
<g id="a_node16"><a xlink:title=" ">
<polygon fill="white" stroke="#bfbfbf" points="211,-0.5 211,-19.5 288,-19.5 288,-0.5 211,-0.5"/>
<text text-anchor="middle" x="249.5" y="-7.5" font-family="Helvetica,sans-Serif" font-size="10.00">sys/mman.h</text>
</a>
</g>
</g>
<!-- Node5&#45;&gt;Node16 -->
<g id="edge17" class="edge">
<title>Node5&#45;&gt;Node16</title>
<path fill="none" stroke="midnightblue" d="M618.81,-61.69C559.18,-55.11 423.28,-39.5 298.36,-20.05"/>
<polygon fill="midnightblue" stroke="midnightblue" points="298.66,-16.56 288.24,-18.46 297.58,-23.47 298.66,-16.56"/>
</g>
<!-- Node17 -->
<g id="node17" class="node">
<title>Node17</title>
<g id="a_node17"><a xlink:title=" ">
<polygon fill="white" stroke="#bfbfbf" points="306.5,-0.5 306.5,-19.5 370.5,-19.5 370.5,-0.5 306.5,-0.5"/>
<text text-anchor="middle" x="338.5" y="-7.5" font-family="Helvetica,sans-Serif" font-size="10.00">sys/stat.h</text>
</a>
</g>
</g>
<!-- Node5&#45;&gt;Node17 -->
<g id="edge18" class="edge">
<title>Node5&#45;&gt;Node17</title>
<path fill="none" stroke="midnightblue" d="M618.63,-60.38C570.15,-53.01 472.97,-37.78 380.75,-20.16"/>
<polygon fill="midnightblue" stroke="midnightblue" points="381.18,-16.68 370.7,-18.23 379.86,-23.56 381.18,-16.68"/>
</g>
<!-- Node18 -->
<g id="node18" class="node">
<title>Node18</title>
<g id="a_node18"><a xlink:title=" ">
<polygon fill="white" stroke="#bfbfbf" points="950.5,-0.5 950.5,-19.5 998.5,-19.5 998.5,-0.5 950.5,-0.5"/>
<text text-anchor="middle" x="974.5" y="-7.5" font-family="Helvetica,sans-Serif" font-size="10.00">time.h</text>
</a>
</g>
</g>
<!-- Node5&#45;&gt;Node18 -->
<g id="edge19" class="edge">
<title>Node5&#45;&gt;Node18</title>
<path fill="none" stroke="midnightblue" d="M680.4,-61.41C732.19,-55.14 839.94,-41.01 940.42,-20.02"/>
<polygon fill="midnightblue" stroke="midnightblue" points="941.37,-23.4 950.43,-17.9 939.92,-16.55 941.37,-23.4"/>
</g>
<!-- Node19 -->
<g id="node19" class="node">
<title>Node19</title>
<g id="a_node19"><a xlink:title=" ">
<polygon fill="white" stroke="#bfbfbf" points="388.5,-0.5 388.5,-19.5 444.5,-19.5 444.5,-0.5 388.5,-0.5"/>
<text text-anchor="middle" x="416.5" y="-7.5" font-family="Helvetica,sans-Serif" font-size="10.00">unistd.h</text>
</a>
</g>
</g>
<!-- Node5&#45;&gt;Node19 -->
<g id="edge20" class="edge">
<title>Node5&#45;&gt;Node19</title>
<path fill="none" stroke="midnightblue" d="M618.92,-58.11C582.21,-49.81 518.55,-35.32 454.62,-20.24"/>
<polygon fill="midnightblue" stroke="midnightblue" points="455.31,-16.81 444.77,-17.92 453.7,-23.62 455.31,-16.81"/>
</g>
<!-- Node20 -->
<g id="node20" class="node">
<title>Node20</title>
<g id="a_node20"><a xlink:title=" ">
<polygon fill="white" stroke="#bfbfbf" points="1016.5,-0.5 1016.5,-19.5 1078.5,-19.5 1078.5,-0.5 1016.5,-0.5"/>
<text text-anchor="middle" x="1047.5" y="-7.5" font-family="Helvetica,sans-Serif" font-size="10.00">stdbool.h</text>
</a>
</g>
</g>
<!-- Node5&#45;&gt;Node20 -->
<g id="edge21" class="edge">
<title>Node5&#45;&gt;Node20</title>
<path fill="none" stroke="midnightblue" d="M680.3,-62.14C740.8,-56.3 879.6,-41.84 1005.88,-20.14"/>
<polygon fill="midnightblue" stroke="midnightblue" points="1006.86,-23.52 1016.11,-18.36 1005.66,-16.63 1006.86,-23.52"/>
</g>
<!-- Node21&#45;&gt;Node5 -->
<g id="edge25" class="edge">
<title>Node21&#45;&gt;Node5</title>
<path fill="none" stroke="midnightblue" d="M709.52,-168.31C702.54,-159.44 691.7,-145.16 683.5,-132 673.84,-116.5 664.33,-97.96 657.84,-84.66"/>
<polygon fill="midnightblue" stroke="midnightblue" points="660.99,-83.14 653.5,-75.64 654.68,-86.17 660.99,-83.14"/>
</g>
<!-- Node21&#45;&gt;Node12 -->
<g id="edge23" class="edge">
<title>Node21&#45;&gt;Node12</title>
<path fill="none" stroke="midnightblue" d="M778.54,-177.36C837.67,-175.38 927.75,-166.22 997.5,-132 1041.82,-110.25 1042.15,-89.4 1078.5,-56 1089.27,-46.1 1101.48,-35.11 1111.13,-26.47"/>
<polygon fill="midnightblue" stroke="midnightblue" points="1113.73,-28.84 1118.86,-19.57 1109.07,-23.62 1113.73,-28.84"/>
</g>
<!-- Node22 -->
<g id="node22" class="node">
<title>Node22</title>
<g id="a_node22"><a xlink:title=" ">
<polygon fill="white" stroke="#bfbfbf" points="692.5,-112.5 692.5,-131.5 772.5,-131.5 772.5,-112.5 692.5,-112.5"/>
<text text-anchor="middle" x="732.5" y="-119.5" font-family="Helvetica,sans-Serif" font-size="10.00">semaphore.h</text>
</a>
</g>
</g>
<!-- Node21&#45;&gt;Node22 -->
<g id="edge24" class="edge">
<title>Node21&#45;&gt;Node22</title>
<path fill="none" stroke="midnightblue" d="M719.14,-168.08C721.29,-160.85 724.38,-150.41 727.05,-141.4"/>
<polygon fill="midnightblue" stroke="midnightblue" points="730.42,-142.33 729.91,-131.75 723.71,-140.34 730.42,-142.33"/>
</g>
<!-- Node23 -->
<g id="node23" class="node">
<title>Node23</title>
<g id="a_node23"><a xlink:href="Time_8h.html" target="_top" xlink:title="Lightweight Time Manipulation Utilities.">
<polygon fill="white" stroke="black" points="873,-112.5 873,-131.5 988,-131.5 988,-112.5 873,-112.5"/>
<text text-anchor="middle" x="930.5" y="-119.5" font-family="Helvetica,sans-Serif" font-size="10.00">src/Common/Time.h</text>
</a>
</g>
</g>
<!-- Node21&#45;&gt;Node23 -->
<g id="edge26" class="edge">
<title>Node21&#45;&gt;Node23</title>
<path fill="none" stroke="midnightblue" d="M750.41,-168.44C787.35,-159.12 846.55,-144.18 886.92,-134"/>
<polygon fill="midnightblue" stroke="midnightblue" points="887.91,-137.36 896.75,-131.52 886.2,-130.57 887.91,-137.36"/>
</g>
<!-- Node23&#45;&gt;Node5 -->
<g id="edge29" class="edge">
<title>Node23&#45;&gt;Node5</title>
<path fill="none" stroke="midnightblue" d="M885.97,-112.44C832.15,-102.1 742.33,-84.84 690.25,-74.83"/>
<polygon fill="midnightblue" stroke="midnightblue" points="690.84,-71.38 680.36,-72.93 689.52,-78.26 690.84,-71.38"/>
</g>
<!-- Node23&#45;&gt;Node18 -->
<g id="edge28" class="edge">
<title>Node23&#45;&gt;Node18</title>
<path fill="none" stroke="midnightblue" d="M927.51,-112.15C923.67,-99.22 918.41,-74.67 926.5,-56 931.77,-43.84 942.12,-33.46 951.86,-25.74"/>
<polygon fill="midnightblue" stroke="midnightblue" points="954.14,-28.41 960.13,-19.67 950,-22.77 954.14,-28.41"/>
</g>
<!-- Node24 -->
<g id="node24" class="node">
<title>Node24</title>
<g id="a_node24"><a xlink:title=" ">
<polygon fill="white" stroke="#bfbfbf" points="935,-56.5 935,-75.5 988,-75.5 988,-56.5 935,-56.5"/>
<text text-anchor="middle" x="961.5" y="-63.5" font-family="Helvetica,sans-Serif" font-size="10.00">limits.h</text>
</a>
</g>
</g>
<!-- Node23&#45;&gt;Node24 -->
<g id="edge27" class="edge">
<title>Node23&#45;&gt;Node24</title>
<path fill="none" stroke="midnightblue" d="M935.62,-112.08C939.91,-104.61 946.16,-93.72 951.44,-84.52"/>
<polygon fill="midnightblue" stroke="midnightblue" points="954.53,-86.17 956.48,-75.75 948.46,-82.68 954.53,-86.17"/>
</g>
<!-- Node25&#45;&gt;Node5 -->
<g id="edge33" class="edge">
<title>Node25&#45;&gt;Node5</title>
<path fill="none" stroke="midnightblue" d="M907.59,-224.41C896.98,-202.15 865.44,-142.2 820.5,-112 781.19,-85.59 727.16,-74.67 690.43,-70.16"/>
<polygon fill="midnightblue" stroke="midnightblue" points="690.41,-66.63 680.08,-69 689.63,-73.59 690.41,-66.63"/>
</g>
<!-- Node25&#45;&gt;Node12 -->
<g id="edge31" class="edge">
<title>Node25&#45;&gt;Node12</title>
<path fill="none" stroke="midnightblue" d="M925.96,-224.49C939.67,-216.08 960.49,-202.42 976.5,-188 1034.81,-135.46 1091.94,-61.04 1116.26,-27.97"/>
<polygon fill="midnightblue" stroke="midnightblue" points="1119.16,-29.94 1122.23,-19.79 1113.51,-25.81 1119.16,-29.94"/>
</g>
<!-- Node25&#45;&gt;Node20 -->
<g id="edge32" class="edge">
<title>Node25&#45;&gt;Node20</title>
<path fill="none" stroke="midnightblue" d="M920.61,-224.29C937.6,-207.68 974.44,-169.73 997.5,-132 1018.26,-98.03 1034.02,-53.89 1041.9,-29.41"/>
<polygon fill="midnightblue" stroke="midnightblue" points="1045.31,-30.24 1044.96,-19.65 1038.63,-28.15 1045.31,-30.24"/>
</g>
<!-- Node25&#45;&gt;Node21 -->
<g id="edge34" class="edge">
<title>Node25&#45;&gt;Node21</title>
<path fill="none" stroke="midnightblue" d="M880.6,-224.44C847.23,-215.2 793.91,-200.44 757.15,-190.26"/>
<polygon fill="midnightblue" stroke="midnightblue" points="757.83,-186.81 747.25,-187.52 755.96,-193.56 757.83,-186.81"/>
</g>
<!-- Node26&#45;&gt;Node5 -->
<g id="edge36" class="edge">
<title>Node26&#45;&gt;Node5</title>
<path fill="none" stroke="midnightblue" d="M842.43,-280.47C838.22,-271.49 831.55,-256.9 826.5,-244 803.89,-186.29 825.33,-155.83 781.5,-112 757.26,-87.76 719.44,-76.56 690.49,-71.4"/>
<polygon fill="midnightblue" stroke="midnightblue" points="690.7,-67.89 680.27,-69.76 689.59,-74.8 690.7,-67.89"/>
</g>
<!-- Node26&#45;&gt;Node25 -->
<g id="edge37" class="edge">
<title>Node26&#45;&gt;Node25</title>
<path fill="none" stroke="midnightblue" d="M856.94,-280.32C866.65,-272.26 881.32,-260.08 893,-250.37"/>
<polygon fill="midnightblue" stroke="midnightblue" points="895.41,-252.92 900.87,-243.83 890.94,-247.53 895.41,-252.92"/>
</g>
<!-- Node26&#45;&gt;Node27 -->
<g id="edge38" class="edge">
<title>Node26&#45;&gt;Node27</title>
<path fill="none" stroke="midnightblue" d="M881.84,-280.44C920.41,-271.1 982.28,-256.12 1024.35,-245.93"/>
<polygon fill="midnightblue" stroke="midnightblue" points="1025.43,-249.27 1034.33,-243.52 1023.79,-242.47 1025.43,-249.27"/>
</g>
<!-- Node28 -->
<g id="node28" class="node">
<title>Node28</title>
<g id="a_node28"><a xlink:title=" ">
<polygon fill="white" stroke="#bfbfbf" points="1120.5,-168.5 1120.5,-187.5 1176.5,-187.5 1176.5,-168.5 1120.5,-168.5"/>
<text text-anchor="middle" x="1148.5" y="-175.5" font-family="Helvetica,sans-Serif" font-size="10.00">stddef.h</text>
</a>
</g>
</g>
<!-- Node27&#45;&gt;Node28 -->
<g id="edge39" class="edge">
<title>Node27&#45;&gt;Node28</title>
<path fill="none" stroke="midnightblue" d="M1082.19,-224.32C1094.4,-215.98 1113.08,-203.21 1127.5,-193.35"/>
<polygon fill="midnightblue" stroke="midnightblue" points="1129.56,-196.19 1135.84,-187.65 1125.61,-190.41 1129.56,-196.19"/>
</g>
<!-- Node29&#45;&gt;Node2 -->
<g id="edge42" class="edge">
<title>Node29&#45;&gt;Node2</title>
<path fill="none" stroke="midnightblue" d="M609.55,-280.44C576.68,-271.05 523.84,-255.95 488.18,-245.77"/>
<polygon fill="midnightblue" stroke="midnightblue" points="488.73,-242.28 478.16,-242.9 486.81,-249.01 488.73,-242.28"/>
</g>
<!-- Node29&#45;&gt;Node5 -->
<g id="edge43" class="edge">
<title>Node29&#45;&gt;Node5</title>
<path fill="none" stroke="midnightblue" d="M600.47,-283.49C575.31,-277.86 543.96,-266.56 525.5,-244 503.93,-217.63 500.3,-198.49 515.5,-168 536.94,-125 586.38,-95.48 618.83,-79.92"/>
<polygon fill="midnightblue" stroke="midnightblue" points="620.7,-82.92 628.31,-75.54 617.77,-76.56 620.7,-82.92"/>
</g>
<!-- Node29&#45;&gt;Node25 -->
<g id="edge48" class="edge">
<title>Node29&#45;&gt;Node25</title>
<path fill="none" stroke="midnightblue" d="M678.76,-281.21C726.17,-271.79 806.09,-255.93 858.82,-245.46"/>
<polygon fill="midnightblue" stroke="midnightblue" points="859.53,-248.89 868.66,-243.5 858.17,-242.02 859.53,-248.89"/>
</g>
<!-- Node29&#45;&gt;Node27 -->
<g id="edge49" class="edge">
<title>Node29&#45;&gt;Node27</title>
<path fill="none" stroke="midnightblue" d="M678.8,-284.06C750.54,-275.06 903.77,-255.81 995.57,-244.28"/>
<polygon fill="midnightblue" stroke="midnightblue" points="996.14,-247.74 1005.62,-243.02 995.27,-240.79 996.14,-247.74"/>
</g>
<!-- Node30 -->
<g id="node30" class="node">
<title>Node30</title>
<g id="a_node30"><a xlink:href="SensorDataPipe_8h.html" target="_top" xlink:title="Lock&#45;Free Data Pipeline.">
<polygon fill="white" stroke="black" points="534,-224.5 534,-243.5 701,-243.5 701,-224.5 534,-224.5"/>
<text text-anchor="middle" x="617.5" y="-231.5" font-family="Helvetica,sans-Serif" font-size="10.00">src/Common/SensorDataPipe.h</text>
</a>
</g>
</g>
<!-- Node29&#45;&gt;Node30 -->
<g id="edge44" class="edge">
<title>Node29&#45;&gt;Node30</title>
<path fill="none" stroke="midnightblue" d="M635.87,-280.08C632.89,-272.77 628.57,-262.18 624.88,-253.1"/>
<polygon fill="midnightblue" stroke="midnightblue" points="628.08,-251.69 621.07,-243.75 621.6,-254.33 628.08,-251.69"/>
</g>
<!-- Node30&#45;&gt;Node5 -->
<g id="edge46" class="edge">
<title>Node30&#45;&gt;Node5</title>
<path fill="none" stroke="midnightblue" d="M619.22,-224.08C624.26,-197.95 639.05,-121.21 645.92,-85.58"/>
<polygon fill="midnightblue" stroke="midnightblue" points="649.39,-86.05 647.85,-75.57 642.52,-84.72 649.39,-86.05"/>
</g>
<!-- Node30&#45;&gt;Node21 -->
<g id="edge47" class="edge">
<title>Node30&#45;&gt;Node21</title>
<path fill="none" stroke="midnightblue" d="M633.41,-224.32C649.14,-215.74 673.44,-202.49 691.71,-192.52"/>
<polygon fill="midnightblue" stroke="midnightblue" points="693.53,-195.52 700.63,-187.65 690.18,-189.37 693.53,-195.52"/>
</g>
<!-- Node31 -->
<g id="node31" class="node">
<title>Node31</title>
<g id="a_node31"><a xlink:title=" ">
<polygon fill="white" stroke="#bfbfbf" points="524.5,-168.5 524.5,-187.5 598.5,-187.5 598.5,-168.5 524.5,-168.5"/>
<text text-anchor="middle" x="561.5" y="-175.5" font-family="Helvetica,sans-Serif" font-size="10.00">stdatomic.h</text>
</a>
</g>
</g>
<!-- Node30&#45;&gt;Node31 -->
<g id="edge45" class="edge">
<title>Node30&#45;&gt;Node31</title>
<path fill="none" stroke="midnightblue" d="M608.5,-224.32C600.31,-216.42 587.99,-204.55 578.03,-194.94"/>
<polygon fill="midnightblue" stroke="midnightblue" points="580.29,-192.26 570.66,-187.83 575.43,-197.29 580.29,-192.26"/>
</g>
</g>
</svg>
        <g id="navigator" transform="translate(0 0)" fill="#404254">
                <rect fill="#f2f5e9" fill-opacity="0.5" stroke="#606060" stroke-width=".5" x="0" y="0" width="60" height="60"/>
                <use id="zoomplus" xlink:href="#zoomPlus" x="17" y="9" onmousedown="handleZoom(evt,'in')"/>
                <use id="zoomminus" xlink:href="#zoomMin" x="42" y="9" onmousedown="handleZoom(evt,'out')"/>
                <use id="reset" xlink:href="#resetDef" x="30" y="36" onmousedown="handleReset()"/>
                <g id="arrowUp" xlink:href="#dirArrow" transform="translate(30 24)" onmousedown="handlePan(0,-1)">
                  <use xlink:href="#rim" fill="#404040">
                        <set attributeName="fill" to="#808080" begin="arrowUp.mouseover" end="arrowUp.mouseout"/>
                  </use>
                  <path fill="none" stroke="white" stroke-width="1.5" d="M0,-3.0v7 M-2.5,-0.5L0,-3.0L2.5,-0.5"/>
                </g>
                <g id="arrowRight" xlink:href="#dirArrow" transform="rotate(90) translate(36 -43)" onmousedown="handlePan(1,0)">
                  <use xlink:href="#rim" fill="#404040">
                        <set attributeName="fill" to="#808080" begin="arrowRight.mouseover" end="arrowRight.mouseout"/>
                  </use>
                  <path fill="none" stroke="white" stroke-width="1.5" d="M0,-3.0v7 M-2.5,-0.5L0,-3.0L2.5,-0.5"/>
                </g>
                <g id="arrowDown" xlink:href="#dirArrow" transform="rotate(180) translate(-30 -48)" onmousedown="handlePan(0,1)">
                  <use xlink:href="#rim" fill="#404040">
                        <set attributeName="fill" to="#808080" begin="arrowDown.mouseover" end="arrowDown.mouseout"/>
                  </use>
                  <path fill="none" stroke="white" stroke-width="1.5" d="M0,-3.0v7 M-2.5,-0.5L0,-3.0L2.5,-0.5"/>
                </g>
                <g id="arrowLeft" xlink:href="#dirArrow" transform="rotate(270) translate(-36 17)" onmousedown="handlePan(-1,0)">
                  <use xlink:href="#rim" fill="#404040">
                        <set attributeName="fill" to="#808080" begin="arrowLeft.mouseover" end="arrowLeft.mouseout"/>
                  </use>
                  <path fill="none" stroke="white" stroke-width="1.5" d="M0,-3.0v7 M-2.5,-0.5L0,-3.0L2.5,-0.5"/>
                </g>
        </g>
        <svg viewBox="0 0 15 15" width="100%" height="30px" preserveAspectRatio="xMaxYMin meet">
         <g id="arrow_out" transform="scale(0.3 0.3)">
          <a xlink:href="Main_8c__incl_org.svg" target="_base">
           <rect id="button" ry="5" rx="5" y="6" x="6" height="38" width="38"
                fill="#f2f5e9" fill-opacity="0.5" stroke="#606060" stroke-width="1.0"/>
           <path id="arrow"
             d="M 11.500037,31.436501 C 11.940474,20.09759 22.043105,11.32322 32.158766,21.979434 L 37.068811,17.246167 C 37.068811,17.246167 37.088388,32 37.088388,32 L 22.160133,31.978069 C 22.160133,31.978069 26.997745,27.140456 26.997745,27.140456 C 18.528582,18.264221 13.291696,25.230495 11.500037,31.436501 z"
             style="fill:#404040;"/>
          </a>
         </g>
        </svg>
</svg>
