<?xml version="1.0" encoding="UTF-8" standalone="no"?>
<!DOCTYPE svg PUBLIC "-//W3C//DTD SVG 1.1//EN"
 "http://www.w3.org/Graphics/SVG/1.1/DTD/svg11.dtd">
<!-- Generated by graphviz version 2.43.0 (0)
 -->
<!-- Title: src/DevUtils/ModbusTestServer.c Pages: 1 -->
<!--zoomable 375 -->
<svg id="main" version="1.1" xmlns="http://www.w3.org/2000/svg" xmlns:xlink="http://www.w3.org/1999/xlink" xml:space="preserve" onload="init(evt)">
<style type="text/css"><![CDATA[
.edge:hover path { stroke: red; }
.edge:hover polygon { stroke: red; fill: red; }
]]></style>
<script type="text/javascript"><![CDATA[
var edges = document.getElementsByTagName('g');
if (edges && edges.length) {
  for (var i=0;i<edges.length;i++) {
    if (edges[i].id.substr(0,4)=='edge') {
      edges[i].setAttribute('class','edge');
    }
  }
}
]]></script>
        <defs>
                <circle id="rim" cx="0" cy="0" r="7"/>
                <circle id="rim2" cx="0" cy="0" r="3.5"/>
                <g id="zoomPlus">
                        <use xlink:href="#rim" fill="#404040">
                                <set attributeName="fill" to="#808080" begin="zoomplus.mouseover" end="zoomplus.mouseout"/>
                        </use>
                        <path d="M-4,0h8M0,-4v8" fill="none" stroke="white" stroke-width="1.5" pointer-events="none"/>
                </g>
                <g id="zoomMin">
                        <use xlink:href="#rim" fill="#404040">
                                <set attributeName="fill" to="#808080" begin="zoomminus.mouseover" end="zoomminus.mouseout"/>
                        </use>
                        <path d="M-4,0h8" fill="none" stroke="white" stroke-width="1.5" pointer-events="none"/>
                </g>
                <g id="dirArrow">
                        <path fill="none" stroke="white" stroke-width="1.5" d="M0,-3.0v7 M-2.5,-0.5L0,-3.0L2.5,-0.5"/>
                </g>
               <g id="resetDef">
                       <use xlink:href="#rim2" fill="#404040">
                               <set attributeName="fill" to="#808080" begin="reset.mouseover" end="reset.mouseout"/>
                       </use>
               </g>
        </defs>

<script type="text/javascript">
var viewWidth = 1634;
var viewHeight = 375;
var sectionId = 'dynsection-0';
</script>
<script xlink:href="svgpan.js"/>
<svg id="graph" class="graph">
<g id="viewport">
<title>src/DevUtils/ModbusTestServer.c</title>
<polygon fill="white" stroke="transparent" points="-4,4 -4,-371 1630,-371 1630,4 -4,4"/>
<!-- Node1 -->
<g id="node1" class="node">
<title>Node1</title>
<g id="a_node1"><a xlink:title="Implementation of Modbus Test Server.">
<polygon fill="#bfbfbf" stroke="black" points="962.5,-347.5 962.5,-366.5 1138.5,-366.5 1138.5,-347.5 962.5,-347.5"/>
<text text-anchor="middle" x="1050.5" y="-354.5" font-family="Helvetica,sans-Serif" font-size="10.00">src/DevUtils/ModbusTestServer.c</text>
</a>
</g>
</g>
<!-- Node2 -->
<g id="node2" class="node">
<title>Node2</title>
<g id="a_node2"><a xlink:title=" ">
<polygon fill="white" stroke="#bfbfbf" points="0,-291.5 0,-310.5 69,-310.5 69,-291.5 0,-291.5"/>
<text text-anchor="middle" x="34.5" y="-298.5" font-family="Helvetica,sans-Serif" font-size="10.00">arpa/inet.h</text>
</a>
</g>
</g>
<!-- Node1&#45;&gt;Node2 -->
<g id="edge1" class="edge">
<title>Node1&#45;&gt;Node2</title>
<path fill="none" stroke="midnightblue" d="M962.18,-355.87C791.73,-354.75 405.75,-347.92 83.5,-311 82.19,-310.85 80.87,-310.69 79.54,-310.51"/>
<polygon fill="midnightblue" stroke="midnightblue" points="79.62,-306.99 69.21,-308.97 78.59,-313.91 79.62,-306.99"/>
</g>
<!-- Node3 -->
<g id="node3" class="node">
<title>Node3</title>
<g id="a_node3"><a xlink:title=" ">
<polygon fill="white" stroke="#bfbfbf" points="108,-0.5 108,-19.5 161,-19.5 161,-0.5 108,-0.5"/>
<text text-anchor="middle" x="134.5" y="-7.5" font-family="Helvetica,sans-Serif" font-size="10.00">string.h</text>
</a>
</g>
</g>
<!-- Node1&#45;&gt;Node3 -->
<g id="edge2" class="edge">
<title>Node1&#45;&gt;Node3</title>
<path fill="none" stroke="midnightblue" d="M962.13,-354.47C725.87,-349.22 97.5,-327.11 97.5,-240.5 97.5,-240.5 97.5,-240.5 97.5,-121 97.5,-86.89 113.68,-49.79 124.64,-28.57"/>
<polygon fill="midnightblue" stroke="midnightblue" points="127.86,-29.98 129.51,-19.51 121.69,-26.66 127.86,-29.98"/>
</g>
<!-- Node4 -->
<g id="node4" class="node">
<title>Node4</title>
<g id="a_node4"><a xlink:title=" ">
<polygon fill="white" stroke="#bfbfbf" points="981,-230 981,-249 1058,-249 1058,-230 981,-230"/>
<text text-anchor="middle" x="1019.5" y="-237" font-family="Helvetica,sans-Serif" font-size="10.00">sys/socket.h</text>
</a>
</g>
</g>
<!-- Node1&#45;&gt;Node4 -->
<g id="edge3" class="edge">
<title>Node1&#45;&gt;Node4</title>
<path fill="none" stroke="midnightblue" d="M1041.21,-347.39C1032.92,-339.02 1021.36,-325.48 1016.5,-311 1010.85,-294.14 1012.57,-273.72 1015.12,-259.21"/>
<polygon fill="midnightblue" stroke="midnightblue" points="1018.63,-259.52 1017.22,-249.02 1011.78,-258.11 1018.63,-259.52"/>
</g>
<!-- Node5 -->
<g id="node5" class="node">
<title>Node5</title>
<g id="a_node5"><a xlink:title=" ">
<polygon fill="white" stroke="#bfbfbf" points="1263.5,-0.5 1263.5,-19.5 1311.5,-19.5 1311.5,-0.5 1263.5,-0.5"/>
<text text-anchor="middle" x="1287.5" y="-7.5" font-family="Helvetica,sans-Serif" font-size="10.00">time.h</text>
</a>
</g>
</g>
<!-- Node1&#45;&gt;Node5 -->
<g id="edge4" class="edge">
<title>Node1&#45;&gt;Node5</title>
<path fill="none" stroke="midnightblue" d="M1138.64,-350.9C1211.31,-341.36 1302.5,-314.61 1302.5,-240.5 1302.5,-240.5 1302.5,-240.5 1302.5,-121 1302.5,-88.5 1295.99,-51.1 1291.55,-29.34"/>
<polygon fill="midnightblue" stroke="midnightblue" points="1294.96,-28.56 1289.46,-19.5 1288.11,-30.01 1294.96,-28.56"/>
</g>
<!-- Node6 -->
<g id="node6" class="node">
<title>Node6</title>
<g id="a_node6"><a xlink:title=" ">
<polygon fill="white" stroke="#bfbfbf" points="1329.5,-0.5 1329.5,-19.5 1385.5,-19.5 1385.5,-0.5 1329.5,-0.5"/>
<text text-anchor="middle" x="1357.5" y="-7.5" font-family="Helvetica,sans-Serif" font-size="10.00">unistd.h</text>
</a>
</g>
</g>
<!-- Node1&#45;&gt;Node6 -->
<g id="edge5" class="edge">
<title>Node1&#45;&gt;Node6</title>
<path fill="none" stroke="midnightblue" d="M1138.64,-354.13C1185.51,-349.61 1242.39,-338.21 1286.5,-311 1320.09,-290.28 1340.5,-279.97 1340.5,-240.5 1340.5,-240.5 1340.5,-240.5 1340.5,-121 1340.5,-88.58 1347.8,-51.42 1352.83,-29.64"/>
<polygon fill="midnightblue" stroke="midnightblue" points="1356.27,-30.31 1355.21,-19.77 1349.47,-28.67 1356.27,-30.31"/>
</g>
<!-- Node7 -->
<g id="node7" class="node">
<title>Node7</title>
<g id="a_node7"><a xlink:href="Sdb_8h.html" target="_top" xlink:title=" ">
<polygon fill="white" stroke="black" points="726,-56.5 726,-75.5 787,-75.5 787,-56.5 726,-56.5"/>
<text text-anchor="middle" x="756.5" y="-63.5" font-family="Helvetica,sans-Serif" font-size="10.00">src/Sdb.h</text>
</a>
</g>
</g>
<!-- Node1&#45;&gt;Node7 -->
<g id="edge6" class="edge">
<title>Node1&#45;&gt;Node7</title>
<path fill="none" stroke="midnightblue" d="M962.22,-352.74C885.48,-344.61 786.5,-318.92 786.5,-240.5 786.5,-240.5 786.5,-240.5 786.5,-177 786.5,-143.64 773.5,-106.53 764.61,-85.07"/>
<polygon fill="midnightblue" stroke="midnightblue" points="767.72,-83.42 760.55,-75.62 761.29,-86.19 767.72,-83.42"/>
</g>
<!-- Node22 -->
<g id="node22" class="node">
<title>Node22</title>
<g id="a_node22"><a xlink:title=" ">
<polygon fill="white" stroke="#bfbfbf" points="1368.5,-291.5 1368.5,-310.5 1446.5,-310.5 1446.5,-291.5 1368.5,-291.5"/>
<text text-anchor="middle" x="1407.5" y="-298.5" font-family="Helvetica,sans-Serif" font-size="10.00">netinet/tcp.h</text>
</a>
</g>
</g>
<!-- Node1&#45;&gt;Node22 -->
<g id="edge24" class="edge">
<title>Node1&#45;&gt;Node22</title>
<path fill="none" stroke="midnightblue" d="M1110.55,-347.5C1171.91,-338.71 1269.93,-324.44 1354.5,-311 1355.77,-310.8 1357.06,-310.59 1358.36,-310.38"/>
<polygon fill="midnightblue" stroke="midnightblue" points="1359.14,-313.8 1368.44,-308.73 1358.01,-306.89 1359.14,-313.8"/>
</g>
<!-- Node23 -->
<g id="node23" class="node">
<title>Node23</title>
<g id="a_node23"><a xlink:title=" ">
<polygon fill="white" stroke="#bfbfbf" points="1465,-291.5 1465,-310.5 1626,-310.5 1626,-291.5 1465,-291.5"/>
<text text-anchor="middle" x="1545.5" y="-298.5" font-family="Helvetica,sans-Serif" font-size="10.00">src/CommProtocols/Modbus.h</text>
</a>
</g>
</g>
<!-- Node1&#45;&gt;Node23 -->
<g id="edge25" class="edge">
<title>Node1&#45;&gt;Node23</title>
<path fill="none" stroke="midnightblue" d="M1128.66,-347.47C1218.03,-337.72 1364,-321.8 1457.35,-311.62"/>
<polygon fill="midnightblue" stroke="midnightblue" points="1457.78,-315.09 1467.34,-310.53 1457.02,-308.13 1457.78,-315.09"/>
</g>
<!-- Node24 -->
<g id="node24" class="node">
<title>Node24</title>
<g id="a_node24"><a xlink:href="Socket_8h.html" target="_top" xlink:title="Simplified Socket Communication Utilities.">
<polygon fill="white" stroke="black" points="847.5,-291.5 847.5,-310.5 969.5,-310.5 969.5,-291.5 847.5,-291.5"/>
<text text-anchor="middle" x="908.5" y="-298.5" font-family="Helvetica,sans-Serif" font-size="10.00">src/Common/Socket.h</text>
</a>
</g>
</g>
<!-- Node1&#45;&gt;Node24 -->
<g id="edge26" class="edge">
<title>Node1&#45;&gt;Node24</title>
<path fill="none" stroke="midnightblue" d="M1028,-347.44C1004.42,-338.48 967.18,-324.31 940.54,-314.18"/>
<polygon fill="midnightblue" stroke="midnightblue" points="941.49,-310.8 930.9,-310.52 939,-317.34 941.49,-310.8"/>
</g>
<!-- Node25 -->
<g id="node25" class="node">
<title>Node25</title>
<g id="a_node25"><a xlink:href="Time_8h.html" target="_top" xlink:title="Lightweight Time Manipulation Utilities.">
<polygon fill="white" stroke="black" points="943,-112.5 943,-131.5 1058,-131.5 1058,-112.5 943,-112.5"/>
<text text-anchor="middle" x="1000.5" y="-119.5" font-family="Helvetica,sans-Serif" font-size="10.00">src/Common/Time.h</text>
</a>
</g>
</g>
<!-- Node1&#45;&gt;Node25 -->
<g id="edge39" class="edge">
<title>Node1&#45;&gt;Node25</title>
<path fill="none" stroke="midnightblue" d="M1115.59,-347.43C1145.4,-341.07 1179.92,-330.04 1206.5,-311 1240.95,-286.32 1269.07,-259.21 1245.5,-224 1206.27,-165.39 1126.17,-140.76 1068.22,-130.43"/>
<polygon fill="midnightblue" stroke="midnightblue" points="1068.47,-126.92 1058.03,-128.71 1067.31,-133.82 1068.47,-126.92"/>
</g>
<!-- Node28 -->
<g id="node28" class="node">
<title>Node28</title>
<g id="a_node28"><a xlink:href="Thread_8h.html" target="_top" xlink:title="Lightweight Synchronization Primitives Wrapper.">
<polygon fill="white" stroke="black" points="441.5,-168.5 441.5,-187.5 565.5,-187.5 565.5,-168.5 441.5,-168.5"/>
<text text-anchor="middle" x="503.5" y="-175.5" font-family="Helvetica,sans-Serif" font-size="10.00">src/Common/Thread.h</text>
</a>
</g>
</g>
<!-- Node1&#45;&gt;Node28 -->
<g id="edge34" class="edge">
<title>Node1&#45;&gt;Node28</title>
<path fill="none" stroke="midnightblue" d="M962.28,-351.5C846.49,-344.91 649.86,-331.18 580.5,-311 527.83,-295.67 499.17,-301.77 470.5,-255 458.59,-235.58 474.05,-211.09 487.57,-195.25"/>
<polygon fill="midnightblue" stroke="midnightblue" points="490.18,-197.58 494.31,-187.82 485,-192.88 490.18,-197.58"/>
</g>
<!-- Node30 -->
<g id="node30" class="node">
<title>Node30</title>
<g id="a_node30"><a xlink:title=" ">
<polygon fill="white" stroke="#bfbfbf" points="1114.5,-224.5 1114.5,-254.5 1236.5,-254.5 1236.5,-224.5 1114.5,-224.5"/>
<text text-anchor="start" x="1122.5" y="-242.5" font-family="Helvetica,sans-Serif" font-size="10.00">src/DatabaseSystems</text>
<text text-anchor="middle" x="1175.5" y="-231.5" font-family="Helvetica,sans-Serif" font-size="10.00">/Postgres.h</text>
</a>
</g>
</g>
<!-- Node1&#45;&gt;Node30 -->
<g id="edge40" class="edge">
<title>Node1&#45;&gt;Node30</title>
<path fill="none" stroke="midnightblue" d="M1132.95,-347.41C1155.17,-340.89 1176.81,-329.77 1190.5,-311 1200.48,-297.31 1195.71,-278.39 1189,-263.6"/>
<polygon fill="midnightblue" stroke="midnightblue" points="1192.08,-261.92 1184.45,-254.57 1185.83,-265.07 1192.08,-261.92"/>
</g>
<!-- Node31 -->
<g id="node31" class="node">
<title>Node31</title>
<g id="a_node31"><a xlink:href="TestConstants_8h.html" target="_top" xlink:title="Constants for Modbus Test Server.">
<polygon fill="white" stroke="black" points="1025.5,-291.5 1025.5,-310.5 1181.5,-310.5 1181.5,-291.5 1025.5,-291.5"/>
<text text-anchor="middle" x="1103.5" y="-298.5" font-family="Helvetica,sans-Serif" font-size="10.00">src/DevUtils/TestConstants.h</text>
</a>
</g>
</g>
<!-- Node1&#45;&gt;Node31 -->
<g id="edge41" class="edge">
<title>Node1&#45;&gt;Node31</title>
<path fill="none" stroke="midnightblue" d="M1059.25,-347.08C1066.97,-339.22 1078.4,-327.57 1087.72,-318.08"/>
<polygon fill="midnightblue" stroke="midnightblue" points="1090.4,-320.34 1094.91,-310.75 1085.41,-315.44 1090.4,-320.34"/>
</g>
<!-- Node32 -->
<g id="node32" class="node">
<title>Node32</title>
<g id="a_node32"><a xlink:href="Signals_8h.html" target="_top" xlink:title="Signal handling interface for the Sensor Data Handler System.">
<polygon fill="white" stroke="black" points="589.5,-291.5 589.5,-310.5 667.5,-310.5 667.5,-291.5 589.5,-291.5"/>
<text text-anchor="middle" x="628.5" y="-298.5" font-family="Helvetica,sans-Serif" font-size="10.00">src/Signals.h</text>
</a>
</g>
</g>
<!-- Node1&#45;&gt;Node32 -->
<g id="edge44" class="edge">
<title>Node1&#45;&gt;Node32</title>
<path fill="none" stroke="midnightblue" d="M983.63,-347.44C898.51,-336.55 753.43,-317.99 677.74,-308.3"/>
<polygon fill="midnightblue" stroke="midnightblue" points="677.9,-304.79 667.54,-307 677.01,-311.74 677.9,-304.79"/>
</g>
<!-- Node7&#45;&gt;Node3 -->
<g id="edge18" class="edge">
<title>Node7&#45;&gt;Node3</title>
<path fill="none" stroke="midnightblue" d="M725.97,-62.76C643.55,-56.64 409.68,-38.86 215.5,-20 201.02,-18.59 185.11,-16.87 171.25,-15.3"/>
<polygon fill="midnightblue" stroke="midnightblue" points="171.44,-11.8 161.11,-14.14 170.65,-18.76 171.44,-11.8"/>
</g>
<!-- Node7&#45;&gt;Node5 -->
<g id="edge21" class="edge">
<title>Node7&#45;&gt;Node5</title>
<path fill="none" stroke="midnightblue" d="M787.07,-64.11C863.96,-61.47 1071.67,-51.9 1253.45,-19.87"/>
<polygon fill="midnightblue" stroke="midnightblue" points="1254.23,-23.29 1263.46,-18.08 1253,-16.4 1254.23,-23.29"/>
</g>
<!-- Node7&#45;&gt;Node6 -->
<g id="edge22" class="edge">
<title>Node7&#45;&gt;Node6</title>
<path fill="none" stroke="midnightblue" d="M787.24,-63.19C886.4,-57.27 1197.9,-37.87 1319.2,-19.91"/>
<polygon fill="midnightblue" stroke="midnightblue" points="1319.97,-23.34 1329.31,-18.35 1318.89,-16.42 1319.97,-23.34"/>
</g>
<!-- Node8 -->
<g id="node8" class="node">
<title>Node8</title>
<g id="a_node8"><a xlink:title=" ">
<polygon fill="white" stroke="#bfbfbf" points="386.5,-0.5 386.5,-19.5 442.5,-19.5 442.5,-0.5 386.5,-0.5"/>
<text text-anchor="middle" x="414.5" y="-7.5" font-family="Helvetica,sans-Serif" font-size="10.00">assert.h</text>
</a>
</g>
</g>
<!-- Node7&#45;&gt;Node8 -->
<g id="edge7" class="edge">
<title>Node7&#45;&gt;Node8</title>
<path fill="none" stroke="midnightblue" d="M725.6,-61.4C672.02,-54.94 558.22,-40.33 452.59,-20.06"/>
<polygon fill="midnightblue" stroke="midnightblue" points="453.21,-16.62 442.72,-18.15 451.87,-23.49 453.21,-16.62"/>
</g>
<!-- Node9 -->
<g id="node9" class="node">
<title>Node9</title>
<g id="a_node9"><a xlink:title=" ">
<polygon fill="white" stroke="#bfbfbf" points="461,-0.5 461,-19.5 514,-19.5 514,-0.5 461,-0.5"/>
<text text-anchor="middle" x="487.5" y="-7.5" font-family="Helvetica,sans-Serif" font-size="10.00">ctype.h</text>
</a>
</g>
</g>
<!-- Node7&#45;&gt;Node9 -->
<g id="edge8" class="edge">
<title>Node7&#45;&gt;Node9</title>
<path fill="none" stroke="midnightblue" d="M725.71,-59.7C682.69,-52.17 601.93,-37.53 524.17,-20.28"/>
<polygon fill="midnightblue" stroke="midnightblue" points="524.73,-16.82 514.21,-18.05 523.21,-23.65 524.73,-16.82"/>
</g>
<!-- Node10 -->
<g id="node10" class="node">
<title>Node10</title>
<g id="a_node10"><a xlink:title=" ">
<polygon fill="white" stroke="#bfbfbf" points="532,-0.5 532,-19.5 583,-19.5 583,-0.5 532,-0.5"/>
<text text-anchor="middle" x="557.5" y="-7.5" font-family="Helvetica,sans-Serif" font-size="10.00">errno.h</text>
</a>
</g>
</g>
<!-- Node7&#45;&gt;Node10 -->
<g id="edge9" class="edge">
<title>Node7&#45;&gt;Node10</title>
<path fill="none" stroke="midnightblue" d="M725.84,-56.68C690.07,-46.97 631,-30.94 593.19,-20.69"/>
<polygon fill="midnightblue" stroke="midnightblue" points="593.7,-17.2 583.13,-17.95 591.86,-23.95 593.7,-17.2"/>
</g>
<!-- Node11 -->
<g id="node11" class="node">
<title>Node11</title>
<g id="a_node11"><a xlink:title=" ">
<polygon fill="white" stroke="#bfbfbf" points="601,-0.5 601,-19.5 648,-19.5 648,-0.5 601,-0.5"/>
<text text-anchor="middle" x="624.5" y="-7.5" font-family="Helvetica,sans-Serif" font-size="10.00">fcntl.h</text>
</a>
</g>
</g>
<!-- Node7&#45;&gt;Node11 -->
<g id="edge10" class="edge">
<title>Node7&#45;&gt;Node11</title>
<path fill="none" stroke="midnightblue" d="M735.58,-56.44C713.76,-47.52 679.35,-33.44 654.61,-23.32"/>
<polygon fill="midnightblue" stroke="midnightblue" points="655.9,-20.06 645.32,-19.52 653.25,-26.54 655.9,-20.06"/>
</g>
<!-- Node12 -->
<g id="node12" class="node">
<title>Node12</title>
<g id="a_node12"><a xlink:title=" ">
<polygon fill="white" stroke="#bfbfbf" points="666,-0.5 666,-19.5 713,-19.5 713,-0.5 666,-0.5"/>
<text text-anchor="middle" x="689.5" y="-7.5" font-family="Helvetica,sans-Serif" font-size="10.00">float.h</text>
</a>
</g>
</g>
<!-- Node7&#45;&gt;Node12 -->
<g id="edge11" class="edge">
<title>Node7&#45;&gt;Node12</title>
<path fill="none" stroke="midnightblue" d="M745.74,-56.32C735.73,-48.26 720.61,-36.08 708.57,-26.37"/>
<polygon fill="midnightblue" stroke="midnightblue" points="710.44,-23.38 700.46,-19.83 706.05,-28.83 710.44,-23.38"/>
</g>
<!-- Node13 -->
<g id="node13" class="node">
<title>Node13</title>
<g id="a_node13"><a xlink:title=" ">
<polygon fill="white" stroke="#bfbfbf" points="731,-0.5 731,-19.5 782,-19.5 782,-0.5 731,-0.5"/>
<text text-anchor="middle" x="756.5" y="-7.5" font-family="Helvetica,sans-Serif" font-size="10.00">math.h</text>
</a>
</g>
</g>
<!-- Node7&#45;&gt;Node13 -->
<g id="edge12" class="edge">
<title>Node7&#45;&gt;Node13</title>
<path fill="none" stroke="midnightblue" d="M756.5,-56.08C756.5,-49.01 756.5,-38.86 756.5,-29.99"/>
<polygon fill="midnightblue" stroke="midnightblue" points="760,-29.75 756.5,-19.75 753,-29.75 760,-29.75"/>
</g>
<!-- Node14 -->
<g id="node14" class="node">
<title>Node14</title>
<g id="a_node14"><a xlink:title=" ">
<polygon fill="white" stroke="#bfbfbf" points="225,-0.5 225,-19.5 288,-19.5 288,-0.5 225,-0.5"/>
<text text-anchor="middle" x="256.5" y="-7.5" font-family="Helvetica,sans-Serif" font-size="10.00">pthread.h</text>
</a>
</g>
</g>
<!-- Node7&#45;&gt;Node14 -->
<g id="edge13" class="edge">
<title>Node7&#45;&gt;Node14</title>
<path fill="none" stroke="midnightblue" d="M726,-63.26C653.56,-58.87 465.39,-45.89 298.18,-19.92"/>
<polygon fill="midnightblue" stroke="midnightblue" points="298.64,-16.45 288.21,-18.35 297.55,-23.36 298.64,-16.45"/>
</g>
<!-- Node15 -->
<g id="node15" class="node">
<title>Node15</title>
<g id="a_node15"><a xlink:title=" ">
<polygon fill="white" stroke="#bfbfbf" points="800.5,-0.5 800.5,-19.5 856.5,-19.5 856.5,-0.5 800.5,-0.5"/>
<text text-anchor="middle" x="828.5" y="-7.5" font-family="Helvetica,sans-Serif" font-size="10.00">stdarg.h</text>
</a>
</g>
</g>
<!-- Node7&#45;&gt;Node15 -->
<g id="edge14" class="edge">
<title>Node7&#45;&gt;Node15</title>
<path fill="none" stroke="midnightblue" d="M768.07,-56.32C778.92,-48.18 795.38,-35.84 808.38,-26.09"/>
<polygon fill="midnightblue" stroke="midnightblue" points="810.82,-28.63 816.72,-19.83 806.62,-23.03 810.82,-28.63"/>
</g>
<!-- Node16 -->
<g id="node16" class="node">
<title>Node16</title>
<g id="a_node16"><a xlink:title=" ">
<polygon fill="white" stroke="#bfbfbf" points="875,-0.5 875,-19.5 928,-19.5 928,-0.5 875,-0.5"/>
<text text-anchor="middle" x="901.5" y="-7.5" font-family="Helvetica,sans-Serif" font-size="10.00">stdint.h</text>
</a>
</g>
</g>
<!-- Node7&#45;&gt;Node16 -->
<g id="edge15" class="edge">
<title>Node7&#45;&gt;Node16</title>
<path fill="none" stroke="midnightblue" d="M779.48,-56.44C803.66,-47.44 841.92,-33.19 869.15,-23.05"/>
<polygon fill="midnightblue" stroke="midnightblue" points="870.48,-26.29 878.63,-19.52 868.04,-19.73 870.48,-26.29"/>
</g>
<!-- Node17 -->
<g id="node17" class="node">
<title>Node17</title>
<g id="a_node17"><a xlink:title=" ">
<polygon fill="white" stroke="#bfbfbf" points="946.5,-0.5 946.5,-19.5 996.5,-19.5 996.5,-0.5 946.5,-0.5"/>
<text text-anchor="middle" x="971.5" y="-7.5" font-family="Helvetica,sans-Serif" font-size="10.00">stdio.h</text>
</a>
</g>
</g>
<!-- Node7&#45;&gt;Node17 -->
<g id="edge16" class="edge">
<title>Node7&#45;&gt;Node17</title>
<path fill="none" stroke="midnightblue" d="M787.09,-57.42C822.92,-48.52 884.04,-33.3 936.5,-20 936.6,-19.97 936.7,-19.95 936.8,-19.92"/>
<polygon fill="midnightblue" stroke="midnightblue" points="937.44,-23.37 946.27,-17.51 935.72,-16.59 937.44,-23.37"/>
</g>
<!-- Node18 -->
<g id="node18" class="node">
<title>Node18</title>
<g id="a_node18"><a xlink:title=" ">
<polygon fill="white" stroke="#bfbfbf" points="1015,-0.5 1015,-19.5 1068,-19.5 1068,-0.5 1015,-0.5"/>
<text text-anchor="middle" x="1041.5" y="-7.5" font-family="Helvetica,sans-Serif" font-size="10.00">stdlib.h</text>
</a>
</g>
</g>
<!-- Node7&#45;&gt;Node18 -->
<g id="edge17" class="edge">
<title>Node7&#45;&gt;Node18</title>
<path fill="none" stroke="midnightblue" d="M787.3,-60.11C832.66,-52.76 920.33,-37.99 1004.79,-20.03"/>
<polygon fill="midnightblue" stroke="midnightblue" points="1005.77,-23.4 1014.81,-17.88 1004.3,-16.56 1005.77,-23.4"/>
</g>
<!-- Node19 -->
<g id="node19" class="node">
<title>Node19</title>
<g id="a_node19"><a xlink:title=" ">
<polygon fill="white" stroke="#bfbfbf" points="1086,-0.5 1086,-19.5 1163,-19.5 1163,-0.5 1086,-0.5"/>
<text text-anchor="middle" x="1124.5" y="-7.5" font-family="Helvetica,sans-Serif" font-size="10.00">sys/mman.h</text>
</a>
</g>
</g>
<!-- Node7&#45;&gt;Node19 -->
<g id="edge19" class="edge">
<title>Node7&#45;&gt;Node19</title>
<path fill="none" stroke="midnightblue" d="M787.01,-61.18C842.34,-54.15 963.13,-38.35 1075.6,-20.08"/>
<polygon fill="midnightblue" stroke="midnightblue" points="1076.45,-23.49 1085.75,-18.42 1075.32,-16.58 1076.45,-23.49"/>
</g>
<!-- Node20 -->
<g id="node20" class="node">
<title>Node20</title>
<g id="a_node20"><a xlink:title=" ">
<polygon fill="white" stroke="#bfbfbf" points="1181.5,-0.5 1181.5,-19.5 1245.5,-19.5 1245.5,-0.5 1181.5,-0.5"/>
<text text-anchor="middle" x="1213.5" y="-7.5" font-family="Helvetica,sans-Serif" font-size="10.00">sys/stat.h</text>
</a>
</g>
</g>
<!-- Node7&#45;&gt;Node20 -->
<g id="edge20" class="edge">
<title>Node7&#45;&gt;Node20</title>
<path fill="none" stroke="midnightblue" d="M787.18,-62.83C854.74,-57.79 1021.57,-44.03 1171.06,-20.07"/>
<polygon fill="midnightblue" stroke="midnightblue" points="1172.02,-23.46 1181.33,-18.41 1170.9,-16.55 1172.02,-23.46"/>
</g>
<!-- Node21 -->
<g id="node21" class="node">
<title>Node21</title>
<g id="a_node21"><a xlink:title=" ">
<polygon fill="white" stroke="#bfbfbf" points="306.5,-0.5 306.5,-19.5 368.5,-19.5 368.5,-0.5 306.5,-0.5"/>
<text text-anchor="middle" x="337.5" y="-7.5" font-family="Helvetica,sans-Serif" font-size="10.00">stdbool.h</text>
</a>
</g>
</g>
<!-- Node7&#45;&gt;Node21 -->
<g id="edge23" class="edge">
<title>Node7&#45;&gt;Node21</title>
<path fill="none" stroke="midnightblue" d="M725.89,-62.44C662.82,-56.95 513.68,-42.77 378.97,-20.1"/>
<polygon fill="midnightblue" stroke="midnightblue" points="379.33,-16.61 368.88,-18.38 378.15,-23.51 379.33,-16.61"/>
</g>
<!-- Node24&#45;&gt;Node4 -->
<g id="edge32" class="edge">
<title>Node24&#45;&gt;Node4</title>
<path fill="none" stroke="midnightblue" d="M924.4,-291.48C942.78,-281.62 973.26,-265.29 994.74,-253.77"/>
<polygon fill="midnightblue" stroke="midnightblue" points="996.47,-256.82 1003.63,-249.01 993.16,-250.65 996.47,-256.82"/>
</g>
<!-- Node24&#45;&gt;Node7 -->
<g id="edge27" class="edge">
<title>Node24&#45;&gt;Node7</title>
<path fill="none" stroke="midnightblue" d="M889.64,-291.35C875.04,-283.73 855.36,-271.32 843.5,-255 804.47,-201.32 834.23,-169.16 800.5,-112 793.87,-100.76 783.85,-90.21 775.04,-82.16"/>
<polygon fill="midnightblue" stroke="midnightblue" points="777.27,-79.45 767.43,-75.52 772.66,-84.73 777.27,-79.45"/>
</g>
<!-- Node24&#45;&gt;Node25 -->
<g id="edge28" class="edge">
<title>Node24&#45;&gt;Node25</title>
<path fill="none" stroke="midnightblue" d="M913.39,-291.43C918.5,-282.41 926.71,-267.79 933.5,-255 955.01,-214.51 979.08,-166.34 991.7,-140.86"/>
<polygon fill="midnightblue" stroke="midnightblue" points="994.93,-142.22 996.22,-131.71 988.65,-139.12 994.93,-142.22"/>
</g>
<!-- Node27 -->
<g id="node27" class="node">
<title>Node27</title>
<g id="a_node27"><a xlink:title=" ">
<polygon fill="white" stroke="#bfbfbf" points="852.5,-230 852.5,-249 924.5,-249 924.5,-230 852.5,-230"/>
<text text-anchor="middle" x="888.5" y="-237" font-family="Helvetica,sans-Serif" font-size="10.00">sys/types.h</text>
</a>
</g>
</g>
<!-- Node24&#45;&gt;Node27 -->
<g id="edge33" class="edge">
<title>Node24&#45;&gt;Node27</title>
<path fill="none" stroke="midnightblue" d="M905.63,-291.48C902.78,-282.99 898.32,-269.7 894.66,-258.82"/>
<polygon fill="midnightblue" stroke="midnightblue" points="897.86,-257.37 891.36,-249.01 891.23,-259.6 897.86,-257.37"/>
</g>
<!-- Node25&#45;&gt;Node5 -->
<g id="edge30" class="edge">
<title>Node25&#45;&gt;Node5</title>
<path fill="none" stroke="midnightblue" d="M1023.02,-112.37C1073.74,-92.93 1197.03,-45.67 1255.6,-23.23"/>
<polygon fill="midnightblue" stroke="midnightblue" points="1257,-26.44 1265.08,-19.59 1254.49,-19.9 1257,-26.44"/>
</g>
<!-- Node25&#45;&gt;Node7 -->
<g id="edge31" class="edge">
<title>Node25&#45;&gt;Node7</title>
<path fill="none" stroke="midnightblue" d="M961.84,-112.44C916.86,-102.49 842.94,-86.13 797.14,-75.99"/>
<polygon fill="midnightblue" stroke="midnightblue" points="797.78,-72.55 787.26,-73.81 796.26,-79.38 797.78,-72.55"/>
</g>
<!-- Node26 -->
<g id="node26" class="node">
<title>Node26</title>
<g id="a_node26"><a xlink:title=" ">
<polygon fill="white" stroke="#bfbfbf" points="974,-56.5 974,-75.5 1027,-75.5 1027,-56.5 974,-56.5"/>
<text text-anchor="middle" x="1000.5" y="-63.5" font-family="Helvetica,sans-Serif" font-size="10.00">limits.h</text>
</a>
</g>
</g>
<!-- Node25&#45;&gt;Node26 -->
<g id="edge29" class="edge">
<title>Node25&#45;&gt;Node26</title>
<path fill="none" stroke="midnightblue" d="M1000.5,-112.08C1000.5,-105.01 1000.5,-94.86 1000.5,-85.99"/>
<polygon fill="midnightblue" stroke="midnightblue" points="1004,-85.75 1000.5,-75.75 997,-85.75 1004,-85.75"/>
</g>
<!-- Node28&#45;&gt;Node7 -->
<g id="edge37" class="edge">
<title>Node28&#45;&gt;Node7</title>
<path fill="none" stroke="midnightblue" d="M523.35,-168.37C567.78,-149.05 675.4,-102.26 727.41,-79.65"/>
<polygon fill="midnightblue" stroke="midnightblue" points="728.96,-82.79 736.74,-75.59 726.17,-76.37 728.96,-82.79"/>
</g>
<!-- Node28&#45;&gt;Node14 -->
<g id="edge35" class="edge">
<title>Node28&#45;&gt;Node14</title>
<path fill="none" stroke="midnightblue" d="M490.57,-168.31C450.39,-141.3 327.43,-58.67 277.7,-25.25"/>
<polygon fill="midnightblue" stroke="midnightblue" points="279.56,-22.28 269.3,-19.61 275.65,-28.09 279.56,-22.28"/>
</g>
<!-- Node28&#45;&gt;Node25 -->
<g id="edge38" class="edge">
<title>Node28&#45;&gt;Node25</title>
<path fill="none" stroke="midnightblue" d="M565.83,-169.02C568.76,-168.67 571.66,-168.33 574.5,-168 700.91,-153.31 848.65,-138.16 932.74,-129.72"/>
<polygon fill="midnightblue" stroke="midnightblue" points="933.32,-133.18 942.92,-128.7 932.62,-126.21 933.32,-133.18"/>
</g>
<!-- Node29 -->
<g id="node29" class="node">
<title>Node29</title>
<g id="a_node29"><a xlink:title=" ">
<polygon fill="white" stroke="#bfbfbf" points="463.5,-112.5 463.5,-131.5 543.5,-131.5 543.5,-112.5 463.5,-112.5"/>
<text text-anchor="middle" x="503.5" y="-119.5" font-family="Helvetica,sans-Serif" font-size="10.00">semaphore.h</text>
</a>
</g>
</g>
<!-- Node28&#45;&gt;Node29 -->
<g id="edge36" class="edge">
<title>Node28&#45;&gt;Node29</title>
<path fill="none" stroke="midnightblue" d="M503.5,-168.08C503.5,-161.01 503.5,-150.86 503.5,-141.99"/>
<polygon fill="midnightblue" stroke="midnightblue" points="507,-141.75 503.5,-131.75 500,-141.75 507,-141.75"/>
</g>
<!-- Node31&#45;&gt;Node7 -->
<g id="edge42" class="edge">
<title>Node31&#45;&gt;Node7</title>
<path fill="none" stroke="midnightblue" d="M1101.29,-291.41C1096.97,-276.11 1086.06,-243.87 1066.5,-224 988.36,-144.63 861.7,-98.08 797.14,-78.3"/>
<polygon fill="midnightblue" stroke="midnightblue" points="797.91,-74.88 787.32,-75.35 795.9,-81.58 797.91,-74.88"/>
</g>
<!-- Node31&#45;&gt;Node30 -->
<g id="edge43" class="edge">
<title>Node31&#45;&gt;Node30</title>
<path fill="none" stroke="midnightblue" d="M1113.82,-291.48C1123.38,-283.57 1138.01,-271.48 1150.61,-261.07"/>
<polygon fill="midnightblue" stroke="midnightblue" points="1153.05,-263.59 1158.53,-254.52 1148.59,-258.2 1153.05,-263.59"/>
</g>
<!-- Node32&#45;&gt;Node7 -->
<g id="edge46" class="edge">
<title>Node32&#45;&gt;Node7</title>
<path fill="none" stroke="midnightblue" d="M667.72,-292C688.99,-285.59 713.85,-274.35 728.5,-255 767.14,-203.95 763.29,-122.31 759.17,-85.76"/>
<polygon fill="midnightblue" stroke="midnightblue" points="762.6,-85.05 757.87,-75.57 755.66,-85.93 762.6,-85.05"/>
</g>
<!-- Node33 -->
<g id="node33" class="node">
<title>Node33</title>
<g id="a_node33"><a xlink:title=" ">
<polygon fill="white" stroke="#bfbfbf" points="665,-230 665,-249 720,-249 720,-230 665,-230"/>
<text text-anchor="middle" x="692.5" y="-237" font-family="Helvetica,sans-Serif" font-size="10.00">signal.h</text>
</a>
</g>
</g>
<!-- Node32&#45;&gt;Node33 -->
<g id="edge45" class="edge">
<title>Node32&#45;&gt;Node33</title>
<path fill="none" stroke="midnightblue" d="M637.67,-291.48C647.65,-282.2 663.81,-267.17 676.01,-255.83"/>
<polygon fill="midnightblue" stroke="midnightblue" points="678.41,-258.38 683.35,-249.01 673.64,-253.25 678.41,-258.38"/>
</g>
<!-- Node34 -->
<g id="node34" class="node">
<title>Node34</title>
<g id="a_node34"><a xlink:href="SensorDataPipe_8h.html" target="_top" xlink:title="Lock&#45;Free Data Pipeline.">
<polygon fill="white" stroke="black" points="480,-230 480,-249 647,-249 647,-230 480,-230"/>
<text text-anchor="middle" x="563.5" y="-237" font-family="Helvetica,sans-Serif" font-size="10.00">src/Common/SensorDataPipe.h</text>
</a>
</g>
</g>
<!-- Node32&#45;&gt;Node34 -->
<g id="edge47" class="edge">
<title>Node32&#45;&gt;Node34</title>
<path fill="none" stroke="midnightblue" d="M619.19,-291.48C609.05,-282.2 592.64,-267.17 580.25,-255.83"/>
<polygon fill="midnightblue" stroke="midnightblue" points="582.54,-253.18 572.8,-249.01 577.81,-258.34 582.54,-253.18"/>
</g>
<!-- Node36 -->
<g id="node36" class="node">
<title>Node36</title>
<g id="a_node36"><a xlink:href="ThreadGroup_8h.html" target="_top" xlink:title="Thread Group Management System.">
<polygon fill="white" stroke="black" points="271,-230 271,-249 424,-249 424,-230 271,-230"/>
<text text-anchor="middle" x="347.5" y="-237" font-family="Helvetica,sans-Serif" font-size="10.00">src/Common/ThreadGroup.h</text>
</a>
</g>
</g>
<!-- Node32&#45;&gt;Node36 -->
<g id="edge51" class="edge">
<title>Node32&#45;&gt;Node36</title>
<path fill="none" stroke="midnightblue" d="M589.43,-291.73C539.46,-281.15 452.83,-262.8 397.93,-251.18"/>
<polygon fill="midnightblue" stroke="midnightblue" points="398.57,-247.74 388.06,-249.09 397.12,-254.58 398.57,-247.74"/>
</g>
<!-- Node37 -->
<g id="node37" class="node">
<title>Node37</title>
<g id="a_node37"><a xlink:href="cJSON_8h.html" target="_top" xlink:title=" ">
<polygon fill="white" stroke="black" points="126,-230 126,-249 253,-249 253,-230 126,-230"/>
<text text-anchor="middle" x="189.5" y="-237" font-family="Helvetica,sans-Serif" font-size="10.00">src/Libs/cJSON/cJSON.h</text>
</a>
</g>
</g>
<!-- Node32&#45;&gt;Node37 -->
<g id="edge56" class="edge">
<title>Node32&#45;&gt;Node37</title>
<path fill="none" stroke="midnightblue" d="M589.25,-296.19C521.96,-289.43 380.32,-274.22 261.5,-255 254.15,-253.81 246.4,-252.41 238.83,-250.95"/>
<polygon fill="midnightblue" stroke="midnightblue" points="239.5,-247.52 229.01,-249.02 238.15,-254.39 239.5,-247.52"/>
</g>
<!-- Node34&#45;&gt;Node7 -->
<g id="edge49" class="edge">
<title>Node34&#45;&gt;Node7</title>
<path fill="none" stroke="midnightblue" d="M589.16,-229.85C611.27,-221.53 643.22,-207.35 666.5,-188 702.76,-157.86 732.54,-110.24 747.02,-84.66"/>
<polygon fill="midnightblue" stroke="midnightblue" points="750.18,-86.17 751.95,-75.72 744.05,-82.78 750.18,-86.17"/>
</g>
<!-- Node34&#45;&gt;Node28 -->
<g id="edge50" class="edge">
<title>Node34&#45;&gt;Node28</title>
<path fill="none" stroke="midnightblue" d="M554.9,-229.98C545.64,-220.78 530.68,-205.96 519.29,-194.66"/>
<polygon fill="midnightblue" stroke="midnightblue" points="521.65,-192.07 512.08,-187.51 516.72,-197.04 521.65,-192.07"/>
</g>
<!-- Node35 -->
<g id="node35" class="node">
<title>Node35</title>
<g id="a_node35"><a xlink:title=" ">
<polygon fill="white" stroke="#bfbfbf" points="583.5,-168.5 583.5,-187.5 657.5,-187.5 657.5,-168.5 583.5,-168.5"/>
<text text-anchor="middle" x="620.5" y="-175.5" font-family="Helvetica,sans-Serif" font-size="10.00">stdatomic.h</text>
</a>
</g>
</g>
<!-- Node34&#45;&gt;Node35 -->
<g id="edge48" class="edge">
<title>Node34&#45;&gt;Node35</title>
<path fill="none" stroke="midnightblue" d="M571.67,-229.98C580.39,-220.87 594.4,-206.24 605.19,-194.98"/>
<polygon fill="midnightblue" stroke="midnightblue" points="607.96,-197.15 612.35,-187.51 602.9,-192.31 607.96,-197.15"/>
</g>
<!-- Node36&#45;&gt;Node7 -->
<g id="edge54" class="edge">
<title>Node36&#45;&gt;Node7</title>
<path fill="none" stroke="midnightblue" d="M351.86,-229.9C364.26,-206.43 402.23,-141.12 454.5,-112 498.58,-87.44 644.13,-74.52 715.84,-69.51"/>
<polygon fill="midnightblue" stroke="midnightblue" points="716.13,-73 725.86,-68.83 715.65,-66.02 716.13,-73"/>
</g>
<!-- Node36&#45;&gt;Node14 -->
<g id="edge52" class="edge">
<title>Node36&#45;&gt;Node14</title>
<path fill="none" stroke="midnightblue" d="M344.04,-229.86C330.67,-196.43 282.15,-75.13 263.69,-28.99"/>
<polygon fill="midnightblue" stroke="midnightblue" points="266.92,-27.63 259.96,-19.65 260.42,-30.23 266.92,-27.63"/>
</g>
<!-- Node36&#45;&gt;Node21 -->
<g id="edge53" class="edge">
<title>Node36&#45;&gt;Node21</title>
<path fill="none" stroke="midnightblue" d="M347.12,-229.86C345.66,-196.64 340.39,-76.66 338.33,-29.87"/>
<polygon fill="midnightblue" stroke="midnightblue" points="341.82,-29.49 337.88,-19.65 334.82,-29.79 341.82,-29.49"/>
</g>
<!-- Node36&#45;&gt;Node28 -->
<g id="edge55" class="edge">
<title>Node36&#45;&gt;Node28</title>
<path fill="none" stroke="midnightblue" d="M369.85,-229.98C396.49,-219.81 441.21,-202.76 471.51,-191.2"/>
<polygon fill="midnightblue" stroke="midnightblue" points="473.09,-194.34 481.19,-187.51 470.6,-187.8 473.09,-194.34"/>
</g>
<!-- Node38 -->
<g id="node38" class="node">
<title>Node38</title>
<g id="a_node38"><a xlink:title=" ">
<polygon fill="white" stroke="#bfbfbf" points="161.5,-168.5 161.5,-187.5 217.5,-187.5 217.5,-168.5 161.5,-168.5"/>
<text text-anchor="middle" x="189.5" y="-175.5" font-family="Helvetica,sans-Serif" font-size="10.00">stddef.h</text>
</a>
</g>
</g>
<!-- Node37&#45;&gt;Node38 -->
<g id="edge57" class="edge">
<title>Node37&#45;&gt;Node38</title>
<path fill="none" stroke="midnightblue" d="M189.5,-229.98C189.5,-221.58 189.5,-208.48 189.5,-197.66"/>
<polygon fill="midnightblue" stroke="midnightblue" points="193,-197.51 189.5,-187.51 186,-197.51 193,-197.51"/>
</g>
</g>
</svg>
        <g id="navigator" transform="translate(0 0)" fill="#404254">
                <rect fill="#f2f5e9" fill-opacity="0.5" stroke="#606060" stroke-width=".5" x="0" y="0" width="60" height="60"/>
                <use id="zoomplus" xlink:href="#zoomPlus" x="17" y="9" onmousedown="handleZoom(evt,'in')"/>
                <use id="zoomminus" xlink:href="#zoomMin" x="42" y="9" onmousedown="handleZoom(evt,'out')"/>
                <use id="reset" xlink:href="#resetDef" x="30" y="36" onmousedown="handleReset()"/>
                <g id="arrowUp" xlink:href="#dirArrow" transform="translate(30 24)" onmousedown="handlePan(0,-1)">
                  <use xlink:href="#rim" fill="#404040">
                        <set attributeName="fill" to="#808080" begin="arrowUp.mouseover" end="arrowUp.mouseout"/>
                  </use>
                  <path fill="none" stroke="white" stroke-width="1.5" d="M0,-3.0v7 M-2.5,-0.5L0,-3.0L2.5,-0.5"/>
                </g>
                <g id="arrowRight" xlink:href="#dirArrow" transform="rotate(90) translate(36 -43)" onmousedown="handlePan(1,0)">
                  <use xlink:href="#rim" fill="#404040">
                        <set attributeName="fill" to="#808080" begin="arrowRight.mouseover" end="arrowRight.mouseout"/>
                  </use>
                  <path fill="none" stroke="white" stroke-width="1.5" d="M0,-3.0v7 M-2.5,-0.5L0,-3.0L2.5,-0.5"/>
                </g>
                <g id="arrowDown" xlink:href="#dirArrow" transform="rotate(180) translate(-30 -48)" onmousedown="handlePan(0,1)">
                  <use xlink:href="#rim" fill="#404040">
                        <set attributeName="fill" to="#808080" begin="arrowDown.mouseover" end="arrowDown.mouseout"/>
                  </use>
                  <path fill="none" stroke="white" stroke-width="1.5" d="M0,-3.0v7 M-2.5,-0.5L0,-3.0L2.5,-0.5"/>
                </g>
                <g id="arrowLeft" xlink:href="#dirArrow" transform="rotate(270) translate(-36 17)" onmousedown="handlePan(-1,0)">
                  <use xlink:href="#rim" fill="#404040">
                        <set attributeName="fill" to="#808080" begin="arrowLeft.mouseover" end="arrowLeft.mouseout"/>
                  </use>
                  <path fill="none" stroke="white" stroke-width="1.5" d="M0,-3.0v7 M-2.5,-0.5L0,-3.0L2.5,-0.5"/>
                </g>
        </g>
        <svg viewBox="0 0 15 15" width="100%" height="30px" preserveAspectRatio="xMaxYMin meet">
         <g id="arrow_out" transform="scale(0.3 0.3)">
          <a xlink:href="ModbusTestServer_8c__incl_org.svg" target="_base">
           <rect id="button" ry="5" rx="5" y="6" x="6" height="38" width="38"
                fill="#f2f5e9" fill-opacity="0.5" stroke="#606060" stroke-width="1.0"/>
           <path id="arrow"
             d="M 11.500037,31.436501 C 11.940474,20.09759 22.043105,11.32322 32.158766,21.979434 L 37.068811,17.246167 C 37.068811,17.246167 37.088388,32 37.088388,32 L 22.160133,31.978069 C 22.160133,31.978069 26.997745,27.140456 26.997745,27.140456 C 18.528582,18.264221 13.291696,25.230495 11.500037,31.436501 z"
             style="fill:#404040;"/>
          </a>
         </g>
        </svg>
</svg>
