<?xml version="1.0" encoding="UTF-8" standalone="no"?>
<!DOCTYPE svg PUBLIC "-//W3C//DTD SVG 1.1//EN"
 "http://www.w3.org/Graphics/SVG/1.1/DTD/svg11.dtd">
<!-- Generated by graphviz version 2.43.0 (0)
 -->
<!-- Title: src/DataHandlers/ModbusWithPostgres/ModbusWithPostgres.c Pages: 1 -->
<svg width="1240pt" height="386pt"
 viewBox="0.00 0.00 1239.50 386.00" xmlns="http://www.w3.org/2000/svg" xmlns:xlink="http://www.w3.org/1999/xlink">
<g id="graph0" class="graph" transform="scale(1 1) rotate(0) translate(4 382)">
<title>src/DataHandlers/ModbusWithPostgres/ModbusWithPostgres.c</title>
<polygon fill="white" stroke="transparent" points="-4,4 -4,-382 1235.5,-382 1235.5,4 -4,4"/>
<!-- Node1 -->
<g id="node1" class="node">
<title>Node1</title>
<g id="a_node1"><a xlink:title="Implementation of Modbus&#45;PostgreSQL integration.">
<polygon fill="#bfbfbf" stroke="black" points="415,-347.5 415,-377.5 588,-377.5 588,-347.5 415,-347.5"/>
<text text-anchor="start" x="423" y="-365.5" font-family="Helvetica,sans-Serif" font-size="10.00">src/DataHandlers/ModbusWith</text>
<text text-anchor="middle" x="501.5" y="-354.5" font-family="Helvetica,sans-Serif" font-size="10.00">Postgres/ModbusWithPostgres.c</text>
</a>
</g>
</g>
<!-- Node2 -->
<g id="node2" class="node">
<title>Node2</title>
<g id="a_node2"><a xlink:href="Sdb_8h.html" target="_top" xlink:title=" ">
<polygon fill="white" stroke="black" points="615,-56.5 615,-75.5 676,-75.5 676,-56.5 615,-56.5"/>
<text text-anchor="middle" x="645.5" y="-63.5" font-family="Helvetica,sans-Serif" font-size="10.00">src/Sdb.h</text>
</a>
</g>
</g>
<!-- Node1&#45;&gt;Node2 -->
<g id="edge1" class="edge">
<title>Node1&#45;&gt;Node2</title>
<path fill="none" stroke="midnightblue" d="M588.18,-357.47C725.68,-350.41 981.83,-334.31 1016.5,-311 1048.17,-289.7 1056.5,-273.17 1056.5,-235 1056.5,-235 1056.5,-235 1056.5,-177 1056.5,-100.86 789.93,-76.01 686.15,-69.23"/>
<polygon fill="midnightblue" stroke="midnightblue" points="686.26,-65.73 676.06,-68.59 685.82,-72.71 686.26,-65.73"/>
</g>
<!-- Node9 -->
<g id="node9" class="node">
<title>Node9</title>
<g id="a_node9"><a xlink:title=" ">
<polygon fill="white" stroke="#bfbfbf" points="0,-0.5 0,-19.5 63,-19.5 63,-0.5 0,-0.5"/>
<text text-anchor="middle" x="31.5" y="-7.5" font-family="Helvetica,sans-Serif" font-size="10.00">pthread.h</text>
</a>
</g>
</g>
<!-- Node1&#45;&gt;Node9 -->
<g id="edge51" class="edge">
<title>Node1&#45;&gt;Node9</title>
<path fill="none" stroke="midnightblue" d="M414.93,-360.21C304.51,-357.11 121.07,-346.57 64.5,-311 30.68,-289.74 16.5,-274.95 16.5,-235 16.5,-235 16.5,-235 16.5,-121 16.5,-88.5 23.01,-51.1 27.45,-29.34"/>
<polygon fill="midnightblue" stroke="midnightblue" points="30.89,-30.01 29.54,-19.5 24.04,-28.56 30.89,-30.01"/>
</g>
<!-- Node20 -->
<g id="node20" class="node">
<title>Node20</title>
<g id="a_node20"><a xlink:href="SensorDataPipe_8h.html" target="_top" xlink:title="Lock&#45;Free Data Pipeline.">
<polygon fill="white" stroke="black" points="512,-224.5 512,-243.5 679,-243.5 679,-224.5 512,-224.5"/>
<text text-anchor="middle" x="595.5" y="-231.5" font-family="Helvetica,sans-Serif" font-size="10.00">src/Common/SensorDataPipe.h</text>
</a>
</g>
</g>
<!-- Node1&#45;&gt;Node20 -->
<g id="edge19" class="edge">
<title>Node1&#45;&gt;Node20</title>
<path fill="none" stroke="midnightblue" d="M588.26,-357.57C660.54,-352.26 755.41,-339.86 779.5,-311 811.28,-272.92 749.61,-253.65 689.27,-244.07"/>
<polygon fill="midnightblue" stroke="midnightblue" points="689.63,-240.58 679.22,-242.56 688.59,-247.51 689.63,-240.58"/>
</g>
<!-- Node26 -->
<g id="node26" class="node">
<title>Node26</title>
<g id="a_node26"><a xlink:href="ThreadGroup_8h.html" target="_top" xlink:title="Thread Group Management System.">
<polygon fill="white" stroke="black" points="45,-224.5 45,-243.5 198,-243.5 198,-224.5 45,-224.5"/>
<text text-anchor="middle" x="121.5" y="-231.5" font-family="Helvetica,sans-Serif" font-size="10.00">src/Common/ThreadGroup.h</text>
</a>
</g>
</g>
<!-- Node1&#45;&gt;Node26 -->
<g id="edge30" class="edge">
<title>Node1&#45;&gt;Node26</title>
<path fill="none" stroke="midnightblue" d="M414.67,-357.33C296.13,-350.74 95.75,-336.02 73.5,-311 56.44,-291.81 81.13,-265.9 100.95,-249.83"/>
<polygon fill="midnightblue" stroke="midnightblue" points="103.24,-252.48 109.01,-243.6 98.96,-246.95 103.24,-252.48"/>
</g>
<!-- Node27 -->
<g id="node27" class="node">
<title>Node27</title>
<g id="a_node27"><a xlink:href="DataHandlers_8h.html" target="_top" xlink:title="Data Handler Management for Thread Group Creation.">
<polygon fill="white" stroke="black" points="83,-286 83,-305 262,-305 262,-286 83,-286"/>
<text text-anchor="middle" x="172.5" y="-293" font-family="Helvetica,sans-Serif" font-size="10.00">src/DataHandlers/DataHandlers.h</text>
</a>
</g>
</g>
<!-- Node1&#45;&gt;Node27 -->
<g id="edge35" class="edge">
<title>Node1&#45;&gt;Node27</title>
<path fill="none" stroke="midnightblue" d="M430.52,-347.48C368.99,-335.32 281.32,-318 225.67,-307.01"/>
<polygon fill="midnightblue" stroke="midnightblue" points="226.16,-303.53 215.67,-305.03 224.8,-310.4 226.16,-303.53"/>
</g>
<!-- Node28 -->
<g id="node28" class="node">
<title>Node28</title>
<g id="a_node28"><a xlink:href="cJSON_8h.html" target="_top" xlink:title=" ">
<polygon fill="white" stroke="black" points="367,-224.5 367,-243.5 494,-243.5 494,-224.5 367,-224.5"/>
<text text-anchor="middle" x="430.5" y="-231.5" font-family="Helvetica,sans-Serif" font-size="10.00">src/Libs/cJSON/cJSON.h</text>
</a>
</g>
</g>
<!-- Node1&#45;&gt;Node28 -->
<g id="edge50" class="edge">
<title>Node1&#45;&gt;Node28</title>
<path fill="none" stroke="midnightblue" d="M452.38,-347.28C434.74,-339.55 416.7,-327.97 406.5,-311 395.3,-292.36 406.9,-267.97 417.52,-251.9"/>
<polygon fill="midnightblue" stroke="midnightblue" points="420.54,-253.7 423.48,-243.52 414.84,-249.64 420.54,-253.7"/>
</g>
<!-- Node30 -->
<g id="node30" class="node">
<title>Node30</title>
<g id="a_node30"><a xlink:title=" ">
<polygon fill="white" stroke="#bfbfbf" points="606.5,-280.5 606.5,-310.5 770.5,-310.5 770.5,-280.5 606.5,-280.5"/>
<text text-anchor="start" x="614.5" y="-298.5" font-family="Helvetica,sans-Serif" font-size="10.00">src/DataHandlers/ModbusWith</text>
<text text-anchor="middle" x="688.5" y="-287.5" font-family="Helvetica,sans-Serif" font-size="10.00">Postgres/Modbus.h</text>
</a>
</g>
</g>
<!-- Node1&#45;&gt;Node30 -->
<g id="edge40" class="edge">
<title>Node1&#45;&gt;Node30</title>
<path fill="none" stroke="midnightblue" d="M542.08,-347.4C570.38,-337.56 608.33,-324.37 638.5,-313.88"/>
<polygon fill="midnightblue" stroke="midnightblue" points="639.71,-317.17 648,-310.58 637.41,-310.55 639.71,-317.17"/>
</g>
<!-- Node31 -->
<g id="node31" class="node">
<title>Node31</title>
<g id="a_node31"><a xlink:href="ModbusWithPostgres_8h.html" target="_top" xlink:title="Integration of Modbus and PostgreSQL data handling.">
<polygon fill="white" stroke="black" points="415,-280.5 415,-310.5 588,-310.5 588,-280.5 415,-280.5"/>
<text text-anchor="start" x="423" y="-298.5" font-family="Helvetica,sans-Serif" font-size="10.00">src/DataHandlers/ModbusWith</text>
<text text-anchor="middle" x="501.5" y="-287.5" font-family="Helvetica,sans-Serif" font-size="10.00">Postgres/ModbusWithPostgres.h</text>
</a>
</g>
</g>
<!-- Node1&#45;&gt;Node31 -->
<g id="edge41" class="edge">
<title>Node1&#45;&gt;Node31</title>
<path fill="none" stroke="midnightblue" d="M501.5,-347.4C501.5,-339.64 501.5,-329.81 501.5,-320.86"/>
<polygon fill="midnightblue" stroke="midnightblue" points="505,-320.58 501.5,-310.58 498,-320.58 505,-320.58"/>
</g>
<!-- Node32 -->
<g id="node32" class="node">
<title>Node32</title>
<g id="a_node32"><a xlink:title=" ">
<polygon fill="white" stroke="#bfbfbf" points="826.5,-280.5 826.5,-310.5 990.5,-310.5 990.5,-280.5 826.5,-280.5"/>
<text text-anchor="start" x="834.5" y="-298.5" font-family="Helvetica,sans-Serif" font-size="10.00">src/DataHandlers/ModbusWith</text>
<text text-anchor="middle" x="908.5" y="-287.5" font-family="Helvetica,sans-Serif" font-size="10.00">Postgres/Postgres.h</text>
</a>
</g>
</g>
<!-- Node1&#45;&gt;Node32 -->
<g id="edge46" class="edge">
<title>Node1&#45;&gt;Node32</title>
<path fill="none" stroke="midnightblue" d="M588.31,-347.64C655.4,-336.92 748.05,-322.13 816.42,-311.2"/>
<polygon fill="midnightblue" stroke="midnightblue" points="817.01,-314.66 826.33,-309.62 815.9,-307.74 817.01,-314.66"/>
</g>
<!-- Node33 -->
<g id="node33" class="node">
<title>Node33</title>
<g id="a_node33"><a xlink:href="ModbusTestServer_8h.html" target="_top" xlink:title="Header for Modbus Test Server Implementation.">
<polygon fill="white" stroke="black" points="787.5,-224.5 787.5,-243.5 963.5,-243.5 963.5,-224.5 787.5,-224.5"/>
<text text-anchor="middle" x="875.5" y="-231.5" font-family="Helvetica,sans-Serif" font-size="10.00">src/DevUtils/ModbusTestServer.h</text>
</a>
</g>
</g>
<!-- Node1&#45;&gt;Node33 -->
<g id="edge47" class="edge">
<title>Node1&#45;&gt;Node33</title>
<path fill="none" stroke="midnightblue" d="M588.13,-358.91C723.47,-353.97 972.5,-340.88 999.5,-311 1026.79,-280.81 970.56,-258.51 925.17,-246.13"/>
<polygon fill="midnightblue" stroke="midnightblue" points="925.95,-242.72 915.39,-243.57 924.17,-249.49 925.95,-242.72"/>
</g>
<!-- Node34 -->
<g id="node34" class="node">
<title>Node34</title>
<g id="a_node34"><a xlink:href="Signals_8h.html" target="_top" xlink:title="Signal handling interface for the Sensor Data Handler System.">
<polygon fill="white" stroke="black" points="280.5,-286 280.5,-305 358.5,-305 358.5,-286 280.5,-286"/>
<text text-anchor="middle" x="319.5" y="-293" font-family="Helvetica,sans-Serif" font-size="10.00">src/Signals.h</text>
</a>
</g>
</g>
<!-- Node1&#45;&gt;Node34 -->
<g id="edge52" class="edge">
<title>Node1&#45;&gt;Node34</title>
<path fill="none" stroke="midnightblue" d="M462.01,-347.4C429.37,-335.74 383.54,-319.37 352.75,-308.38"/>
<polygon fill="midnightblue" stroke="midnightblue" points="353.91,-305.07 343.32,-305.01 351.56,-311.67 353.91,-305.07"/>
</g>
<!-- Node3 -->
<g id="node3" class="node">
<title>Node3</title>
<g id="a_node3"><a xlink:title=" ">
<polygon fill="white" stroke="#bfbfbf" points="769.5,-0.5 769.5,-19.5 825.5,-19.5 825.5,-0.5 769.5,-0.5"/>
<text text-anchor="middle" x="797.5" y="-7.5" font-family="Helvetica,sans-Serif" font-size="10.00">assert.h</text>
</a>
</g>
</g>
<!-- Node2&#45;&gt;Node3 -->
<g id="edge2" class="edge">
<title>Node2&#45;&gt;Node3</title>
<path fill="none" stroke="midnightblue" d="M669.58,-56.44C695.04,-47.4 735.39,-33.06 763.96,-22.92"/>
<polygon fill="midnightblue" stroke="midnightblue" points="765.28,-26.16 773.53,-19.52 762.93,-19.57 765.28,-26.16"/>
</g>
<!-- Node4 -->
<g id="node4" class="node">
<title>Node4</title>
<g id="a_node4"><a xlink:title=" ">
<polygon fill="white" stroke="#bfbfbf" points="844,-0.5 844,-19.5 897,-19.5 897,-0.5 844,-0.5"/>
<text text-anchor="middle" x="870.5" y="-7.5" font-family="Helvetica,sans-Serif" font-size="10.00">ctype.h</text>
</a>
</g>
</g>
<!-- Node2&#45;&gt;Node4 -->
<g id="edge3" class="edge">
<title>Node2&#45;&gt;Node4</title>
<path fill="none" stroke="midnightblue" d="M676.3,-57.78C711.83,-49.42 772.26,-35.14 833.88,-20.13"/>
<polygon fill="midnightblue" stroke="midnightblue" points="834.89,-23.49 843.77,-17.72 833.23,-16.69 834.89,-23.49"/>
</g>
<!-- Node5 -->
<g id="node5" class="node">
<title>Node5</title>
<g id="a_node5"><a xlink:title=" ">
<polygon fill="white" stroke="#bfbfbf" points="915,-0.5 915,-19.5 966,-19.5 966,-0.5 915,-0.5"/>
<text text-anchor="middle" x="940.5" y="-7.5" font-family="Helvetica,sans-Serif" font-size="10.00">errno.h</text>
</a>
</g>
</g>
<!-- Node2&#45;&gt;Node5 -->
<g id="edge4" class="edge">
<title>Node2&#45;&gt;Node5</title>
<path fill="none" stroke="midnightblue" d="M676.21,-60.6C723.4,-53.65 816.77,-39.13 905.04,-20.17"/>
<polygon fill="midnightblue" stroke="midnightblue" points="905.91,-23.57 914.94,-18.02 904.42,-16.73 905.91,-23.57"/>
</g>
<!-- Node6 -->
<g id="node6" class="node">
<title>Node6</title>
<g id="a_node6"><a xlink:title=" ">
<polygon fill="white" stroke="#bfbfbf" points="984,-0.5 984,-19.5 1031,-19.5 1031,-0.5 984,-0.5"/>
<text text-anchor="middle" x="1007.5" y="-7.5" font-family="Helvetica,sans-Serif" font-size="10.00">fcntl.h</text>
</a>
</g>
</g>
<!-- Node2&#45;&gt;Node6 -->
<g id="edge5" class="edge">
<title>Node2&#45;&gt;Node6</title>
<path fill="none" stroke="midnightblue" d="M676.22,-62.25C733.18,-56.83 859.12,-43.43 973.83,-20.12"/>
<polygon fill="midnightblue" stroke="midnightblue" points="974.74,-23.5 983.82,-18.05 973.32,-16.65 974.74,-23.5"/>
</g>
<!-- Node7 -->
<g id="node7" class="node">
<title>Node7</title>
<g id="a_node7"><a xlink:title=" ">
<polygon fill="white" stroke="#bfbfbf" points="1049,-0.5 1049,-19.5 1096,-19.5 1096,-0.5 1049,-0.5"/>
<text text-anchor="middle" x="1072.5" y="-7.5" font-family="Helvetica,sans-Serif" font-size="10.00">float.h</text>
</a>
</g>
</g>
<!-- Node2&#45;&gt;Node7 -->
<g id="edge6" class="edge">
<title>Node2&#45;&gt;Node7</title>
<path fill="none" stroke="midnightblue" d="M676.24,-63.19C741.47,-58.98 898.63,-46.94 1038.78,-20.07"/>
<polygon fill="midnightblue" stroke="midnightblue" points="1039.69,-23.46 1048.84,-18.11 1038.35,-16.59 1039.69,-23.46"/>
</g>
<!-- Node8 -->
<g id="node8" class="node">
<title>Node8</title>
<g id="a_node8"><a xlink:title=" ">
<polygon fill="white" stroke="#bfbfbf" points="1114,-0.5 1114,-19.5 1165,-19.5 1165,-0.5 1114,-0.5"/>
<text text-anchor="middle" x="1139.5" y="-7.5" font-family="Helvetica,sans-Serif" font-size="10.00">math.h</text>
</a>
</g>
</g>
<!-- Node2&#45;&gt;Node8 -->
<g id="edge7" class="edge">
<title>Node2&#45;&gt;Node8</title>
<path fill="none" stroke="midnightblue" d="M676.15,-63.71C748.9,-60.29 937.81,-49.27 1104.07,-20"/>
<polygon fill="midnightblue" stroke="midnightblue" points="1104.75,-23.43 1113.98,-18.23 1103.52,-16.54 1104.75,-23.43"/>
</g>
<!-- Node2&#45;&gt;Node9 -->
<g id="edge8" class="edge">
<title>Node2&#45;&gt;Node9</title>
<path fill="none" stroke="midnightblue" d="M614.9,-64.08C530.3,-61.22 286.09,-50.85 73.31,-19.9"/>
<polygon fill="midnightblue" stroke="midnightblue" points="73.61,-16.41 63.2,-18.41 72.59,-23.33 73.61,-16.41"/>
</g>
<!-- Node10 -->
<g id="node10" class="node">
<title>Node10</title>
<g id="a_node10"><a xlink:title=" ">
<polygon fill="white" stroke="#bfbfbf" points="161.5,-0.5 161.5,-19.5 217.5,-19.5 217.5,-0.5 161.5,-0.5"/>
<text text-anchor="middle" x="189.5" y="-7.5" font-family="Helvetica,sans-Serif" font-size="10.00">stdarg.h</text>
</a>
</g>
</g>
<!-- Node2&#45;&gt;Node10 -->
<g id="edge9" class="edge">
<title>Node2&#45;&gt;Node10</title>
<path fill="none" stroke="midnightblue" d="M614.9,-63.03C545.57,-58.26 371.38,-44.68 227.5,-20 227.4,-19.98 227.3,-19.97 227.2,-19.95"/>
<polygon fill="midnightblue" stroke="midnightblue" points="228.13,-16.56 217.64,-18.08 226.78,-23.43 228.13,-16.56"/>
</g>
<!-- Node11 -->
<g id="node11" class="node">
<title>Node11</title>
<g id="a_node11"><a xlink:title=" ">
<polygon fill="white" stroke="#bfbfbf" points="236,-0.5 236,-19.5 289,-19.5 289,-0.5 236,-0.5"/>
<text text-anchor="middle" x="262.5" y="-7.5" font-family="Helvetica,sans-Serif" font-size="10.00">stdint.h</text>
</a>
</g>
</g>
<!-- Node2&#45;&gt;Node11 -->
<g id="edge10" class="edge">
<title>Node2&#45;&gt;Node11</title>
<path fill="none" stroke="midnightblue" d="M614.67,-62.21C555.47,-56.61 421.6,-42.67 299.09,-19.9"/>
<polygon fill="midnightblue" stroke="midnightblue" points="299.64,-16.44 289.16,-18.03 298.34,-23.32 299.64,-16.44"/>
</g>
<!-- Node12 -->
<g id="node12" class="node">
<title>Node12</title>
<g id="a_node12"><a xlink:title=" ">
<polygon fill="white" stroke="#bfbfbf" points="307.5,-0.5 307.5,-19.5 357.5,-19.5 357.5,-0.5 307.5,-0.5"/>
<text text-anchor="middle" x="332.5" y="-7.5" font-family="Helvetica,sans-Serif" font-size="10.00">stdio.h</text>
</a>
</g>
</g>
<!-- Node2&#45;&gt;Node12 -->
<g id="edge11" class="edge">
<title>Node2&#45;&gt;Node12</title>
<path fill="none" stroke="midnightblue" d="M614.89,-60.98C563.51,-54.01 456.75,-38.66 367.5,-20 367.4,-19.98 367.3,-19.96 367.2,-19.94"/>
<polygon fill="midnightblue" stroke="midnightblue" points="368.2,-16.57 357.67,-17.77 366.64,-23.4 368.2,-16.57"/>
</g>
<!-- Node13 -->
<g id="node13" class="node">
<title>Node13</title>
<g id="a_node13"><a xlink:title=" ">
<polygon fill="white" stroke="#bfbfbf" points="376,-0.5 376,-19.5 429,-19.5 429,-0.5 376,-0.5"/>
<text text-anchor="middle" x="402.5" y="-7.5" font-family="Helvetica,sans-Serif" font-size="10.00">stdlib.h</text>
</a>
</g>
</g>
<!-- Node2&#45;&gt;Node13 -->
<g id="edge12" class="edge">
<title>Node2&#45;&gt;Node13</title>
<path fill="none" stroke="midnightblue" d="M614.92,-58.66C576.37,-50.6 507.81,-36.05 439.32,-20.13"/>
<polygon fill="midnightblue" stroke="midnightblue" points="439.75,-16.64 429.21,-17.78 438.16,-23.46 439.75,-16.64"/>
</g>
<!-- Node14 -->
<g id="node14" class="node">
<title>Node14</title>
<g id="a_node14"><a xlink:title=" ">
<polygon fill="white" stroke="#bfbfbf" points="447,-0.5 447,-19.5 500,-19.5 500,-0.5 447,-0.5"/>
<text text-anchor="middle" x="473.5" y="-7.5" font-family="Helvetica,sans-Serif" font-size="10.00">string.h</text>
</a>
</g>
</g>
<!-- Node2&#45;&gt;Node14 -->
<g id="edge13" class="edge">
<title>Node2&#45;&gt;Node14</title>
<path fill="none" stroke="midnightblue" d="M618.25,-56.44C588.89,-47.23 542.03,-32.52 509.62,-22.34"/>
<polygon fill="midnightblue" stroke="midnightblue" points="510.65,-19 500.06,-19.34 508.55,-25.67 510.65,-19"/>
</g>
<!-- Node15 -->
<g id="node15" class="node">
<title>Node15</title>
<g id="a_node15"><a xlink:title=" ">
<polygon fill="white" stroke="#bfbfbf" points="518,-0.5 518,-19.5 595,-19.5 595,-0.5 518,-0.5"/>
<text text-anchor="middle" x="556.5" y="-7.5" font-family="Helvetica,sans-Serif" font-size="10.00">sys/mman.h</text>
</a>
</g>
</g>
<!-- Node2&#45;&gt;Node15 -->
<g id="edge14" class="edge">
<title>Node2&#45;&gt;Node15</title>
<path fill="none" stroke="midnightblue" d="M631.2,-56.32C617.32,-47.9 596.01,-34.97 579.7,-25.07"/>
<polygon fill="midnightblue" stroke="midnightblue" points="581.13,-21.85 570.76,-19.65 577.5,-27.83 581.13,-21.85"/>
</g>
<!-- Node16 -->
<g id="node16" class="node">
<title>Node16</title>
<g id="a_node16"><a xlink:title=" ">
<polygon fill="white" stroke="#bfbfbf" points="613.5,-0.5 613.5,-19.5 677.5,-19.5 677.5,-0.5 613.5,-0.5"/>
<text text-anchor="middle" x="645.5" y="-7.5" font-family="Helvetica,sans-Serif" font-size="10.00">sys/stat.h</text>
</a>
</g>
</g>
<!-- Node2&#45;&gt;Node16 -->
<g id="edge15" class="edge">
<title>Node2&#45;&gt;Node16</title>
<path fill="none" stroke="midnightblue" d="M645.5,-56.08C645.5,-49.01 645.5,-38.86 645.5,-29.99"/>
<polygon fill="midnightblue" stroke="midnightblue" points="649,-29.75 645.5,-19.75 642,-29.75 649,-29.75"/>
</g>
<!-- Node17 -->
<g id="node17" class="node">
<title>Node17</title>
<g id="a_node17"><a xlink:title=" ">
<polygon fill="white" stroke="#bfbfbf" points="1183.5,-0.5 1183.5,-19.5 1231.5,-19.5 1231.5,-0.5 1183.5,-0.5"/>
<text text-anchor="middle" x="1207.5" y="-7.5" font-family="Helvetica,sans-Serif" font-size="10.00">time.h</text>
</a>
</g>
</g>
<!-- Node2&#45;&gt;Node17 -->
<g id="edge16" class="edge">
<title>Node2&#45;&gt;Node17</title>
<path fill="none" stroke="midnightblue" d="M676.17,-64.33C756.43,-62.17 979.3,-53.55 1173.37,-19.88"/>
<polygon fill="midnightblue" stroke="midnightblue" points="1174.22,-23.28 1183.46,-18.1 1173.01,-16.39 1174.22,-23.28"/>
</g>
<!-- Node18 -->
<g id="node18" class="node">
<title>Node18</title>
<g id="a_node18"><a xlink:title=" ">
<polygon fill="white" stroke="#bfbfbf" points="695.5,-0.5 695.5,-19.5 751.5,-19.5 751.5,-0.5 695.5,-0.5"/>
<text text-anchor="middle" x="723.5" y="-7.5" font-family="Helvetica,sans-Serif" font-size="10.00">unistd.h</text>
</a>
</g>
</g>
<!-- Node2&#45;&gt;Node18 -->
<g id="edge17" class="edge">
<title>Node2&#45;&gt;Node18</title>
<path fill="none" stroke="midnightblue" d="M658.03,-56.32C670.09,-47.98 688.53,-35.21 702.77,-25.35"/>
<polygon fill="midnightblue" stroke="midnightblue" points="704.77,-28.22 711,-19.65 700.78,-22.47 704.77,-28.22"/>
</g>
<!-- Node19 -->
<g id="node19" class="node">
<title>Node19</title>
<g id="a_node19"><a xlink:title=" ">
<polygon fill="white" stroke="#bfbfbf" points="81.5,-0.5 81.5,-19.5 143.5,-19.5 143.5,-0.5 81.5,-0.5"/>
<text text-anchor="middle" x="112.5" y="-7.5" font-family="Helvetica,sans-Serif" font-size="10.00">stdbool.h</text>
</a>
</g>
</g>
<!-- Node2&#45;&gt;Node19 -->
<g id="edge18" class="edge">
<title>Node2&#45;&gt;Node19</title>
<path fill="none" stroke="midnightblue" d="M614.75,-63.59C538.36,-59.78 333.7,-47.78 153.77,-20.01"/>
<polygon fill="midnightblue" stroke="midnightblue" points="154.29,-16.55 143.87,-18.46 153.21,-23.47 154.29,-16.55"/>
</g>
<!-- Node20&#45;&gt;Node2 -->
<g id="edge21" class="edge">
<title>Node20&#45;&gt;Node2</title>
<path fill="none" stroke="midnightblue" d="M558.8,-224.35C539.67,-217.77 517.93,-206.58 506.5,-188 501.84,-180.43 504.85,-176.73 506.5,-168 511.48,-141.73 509.52,-130.84 528.5,-112 549.13,-91.52 580.09,-80.16 604.98,-73.98"/>
<polygon fill="midnightblue" stroke="midnightblue" points="605.92,-77.35 614.88,-71.71 604.35,-70.53 605.92,-77.35"/>
</g>
<!-- Node21 -->
<g id="node21" class="node">
<title>Node21</title>
<g id="a_node21"><a xlink:title=" ">
<polygon fill="white" stroke="#bfbfbf" points="657.5,-168.5 657.5,-187.5 731.5,-187.5 731.5,-168.5 657.5,-168.5"/>
<text text-anchor="middle" x="694.5" y="-175.5" font-family="Helvetica,sans-Serif" font-size="10.00">stdatomic.h</text>
</a>
</g>
</g>
<!-- Node20&#45;&gt;Node21 -->
<g id="edge20" class="edge">
<title>Node20&#45;&gt;Node21</title>
<path fill="none" stroke="midnightblue" d="M611.41,-224.32C627.14,-215.74 651.44,-202.49 669.71,-192.52"/>
<polygon fill="midnightblue" stroke="midnightblue" points="671.53,-195.52 678.63,-187.65 668.18,-189.37 671.53,-195.52"/>
</g>
<!-- Node22 -->
<g id="node22" class="node">
<title>Node22</title>
<g id="a_node22"><a xlink:href="Thread_8h.html" target="_top" xlink:title="Lightweight Synchronization Primitives Wrapper.">
<polygon fill="white" stroke="black" points="515.5,-168.5 515.5,-187.5 639.5,-187.5 639.5,-168.5 515.5,-168.5"/>
<text text-anchor="middle" x="577.5" y="-175.5" font-family="Helvetica,sans-Serif" font-size="10.00">src/Common/Thread.h</text>
</a>
</g>
</g>
<!-- Node20&#45;&gt;Node22 -->
<g id="edge22" class="edge">
<title>Node20&#45;&gt;Node22</title>
<path fill="none" stroke="midnightblue" d="M592.53,-224.08C590.12,-216.85 586.64,-206.41 583.63,-197.4"/>
<polygon fill="midnightblue" stroke="midnightblue" points="586.9,-196.13 580.42,-187.75 580.26,-198.34 586.9,-196.13"/>
</g>
<!-- Node22&#45;&gt;Node2 -->
<g id="edge25" class="edge">
<title>Node22&#45;&gt;Node2</title>
<path fill="none" stroke="midnightblue" d="M590.17,-168.46C601.29,-160.32 617.11,-147.11 626.5,-132 635.33,-117.8 640.21,-99.32 642.81,-85.7"/>
<polygon fill="midnightblue" stroke="midnightblue" points="646.3,-86.04 644.49,-75.6 639.39,-84.89 646.3,-86.04"/>
</g>
<!-- Node22&#45;&gt;Node9 -->
<g id="edge23" class="edge">
<title>Node22&#45;&gt;Node9</title>
<path fill="none" stroke="midnightblue" d="M549.29,-168.42C458.32,-140.76 172.54,-53.88 69.24,-22.47"/>
<polygon fill="midnightblue" stroke="midnightblue" points="70.12,-19.08 59.54,-19.52 68.09,-25.78 70.12,-19.08"/>
</g>
<!-- Node23 -->
<g id="node23" class="node">
<title>Node23</title>
<g id="a_node23"><a xlink:title=" ">
<polygon fill="white" stroke="#bfbfbf" points="537.5,-112.5 537.5,-131.5 617.5,-131.5 617.5,-112.5 537.5,-112.5"/>
<text text-anchor="middle" x="577.5" y="-119.5" font-family="Helvetica,sans-Serif" font-size="10.00">semaphore.h</text>
</a>
</g>
</g>
<!-- Node22&#45;&gt;Node23 -->
<g id="edge24" class="edge">
<title>Node22&#45;&gt;Node23</title>
<path fill="none" stroke="midnightblue" d="M577.5,-168.08C577.5,-161.01 577.5,-150.86 577.5,-141.99"/>
<polygon fill="midnightblue" stroke="midnightblue" points="581,-141.75 577.5,-131.75 574,-141.75 581,-141.75"/>
</g>
<!-- Node24 -->
<g id="node24" class="node">
<title>Node24</title>
<g id="a_node24"><a xlink:href="Time_8h.html" target="_top" xlink:title="Lightweight Time Manipulation Utilities.">
<polygon fill="white" stroke="black" points="1085,-112.5 1085,-131.5 1200,-131.5 1200,-112.5 1085,-112.5"/>
<text text-anchor="middle" x="1142.5" y="-119.5" font-family="Helvetica,sans-Serif" font-size="10.00">src/Common/Time.h</text>
</a>
</g>
</g>
<!-- Node22&#45;&gt;Node24 -->
<g id="edge26" class="edge">
<title>Node22&#45;&gt;Node24</title>
<path fill="none" stroke="midnightblue" d="M639.82,-168.97C642.76,-168.64 645.66,-168.31 648.5,-168 800.49,-151.45 979.25,-136.21 1074.55,-128.43"/>
<polygon fill="midnightblue" stroke="midnightblue" points="1074.95,-131.91 1084.63,-127.61 1074.38,-124.93 1074.95,-131.91"/>
</g>
<!-- Node24&#45;&gt;Node2 -->
<g id="edge29" class="edge">
<title>Node24&#45;&gt;Node2</title>
<path fill="none" stroke="midnightblue" d="M1084.74,-113.68C1079.93,-113.1 1075.13,-112.53 1070.5,-112 929.53,-95.73 761.98,-78.65 686.25,-71.06"/>
<polygon fill="midnightblue" stroke="midnightblue" points="686.49,-67.56 676.19,-70.05 685.79,-74.53 686.49,-67.56"/>
</g>
<!-- Node24&#45;&gt;Node17 -->
<g id="edge28" class="edge">
<title>Node24&#45;&gt;Node17</title>
<path fill="none" stroke="midnightblue" d="M1150.67,-112.2C1158.49,-103.48 1170.28,-89.5 1178.5,-76 1187.63,-61.01 1195.56,-42.65 1200.8,-29.27"/>
<polygon fill="midnightblue" stroke="midnightblue" points="1204.13,-30.35 1204.41,-19.76 1197.59,-27.87 1204.13,-30.35"/>
</g>
<!-- Node25 -->
<g id="node25" class="node">
<title>Node25</title>
<g id="a_node25"><a xlink:title=" ">
<polygon fill="white" stroke="#bfbfbf" points="1116,-56.5 1116,-75.5 1169,-75.5 1169,-56.5 1116,-56.5"/>
<text text-anchor="middle" x="1142.5" y="-63.5" font-family="Helvetica,sans-Serif" font-size="10.00">limits.h</text>
</a>
</g>
</g>
<!-- Node24&#45;&gt;Node25 -->
<g id="edge27" class="edge">
<title>Node24&#45;&gt;Node25</title>
<path fill="none" stroke="midnightblue" d="M1142.5,-112.08C1142.5,-105.01 1142.5,-94.86 1142.5,-85.99"/>
<polygon fill="midnightblue" stroke="midnightblue" points="1146,-85.75 1142.5,-75.75 1139,-85.75 1146,-85.75"/>
</g>
<!-- Node26&#45;&gt;Node2 -->
<g id="edge33" class="edge">
<title>Node26&#45;&gt;Node2</title>
<path fill="none" stroke="midnightblue" d="M125.02,-224.34C134.87,-201.37 165.14,-138.79 212.5,-112 279,-74.39 510.52,-68.12 604.94,-67.14"/>
<polygon fill="midnightblue" stroke="midnightblue" points="604.99,-70.64 614.96,-67.05 604.93,-63.64 604.99,-70.64"/>
</g>
<!-- Node26&#45;&gt;Node9 -->
<g id="edge31" class="edge">
<title>Node26&#45;&gt;Node9</title>
<path fill="none" stroke="midnightblue" d="M117.97,-224.3C104.67,-191.49 57.4,-74.88 38.95,-29.38"/>
<polygon fill="midnightblue" stroke="midnightblue" points="42.1,-27.84 35.1,-19.88 35.62,-30.47 42.1,-27.84"/>
</g>
<!-- Node26&#45;&gt;Node19 -->
<g id="edge32" class="edge">
<title>Node26&#45;&gt;Node19</title>
<path fill="none" stroke="midnightblue" d="M121.15,-224.3C119.82,-191.63 115.13,-75.87 113.27,-29.96"/>
<polygon fill="midnightblue" stroke="midnightblue" points="116.76,-29.73 112.86,-19.88 109.77,-30.02 116.76,-29.73"/>
</g>
<!-- Node26&#45;&gt;Node22 -->
<g id="edge34" class="edge">
<title>Node26&#45;&gt;Node22</title>
<path fill="none" stroke="midnightblue" d="M193.5,-224.47C278.76,-214.38 419.91,-197.66 505.27,-187.55"/>
<polygon fill="midnightblue" stroke="midnightblue" points="505.87,-191.01 515.39,-186.35 505.05,-184.06 505.87,-191.01"/>
</g>
<!-- Node27&#45;&gt;Node2 -->
<g id="edge36" class="edge">
<title>Node27&#45;&gt;Node2</title>
<path fill="none" stroke="midnightblue" d="M180.14,-285.99C192.96,-272 220.03,-243.71 246.5,-224 326.96,-164.07 348.91,-148.15 442.5,-112 496.67,-91.07 562.92,-78.68 604.68,-72.35"/>
<polygon fill="midnightblue" stroke="midnightblue" points="605.36,-75.79 614.74,-70.88 604.34,-68.87 605.36,-75.79"/>
</g>
<!-- Node27&#45;&gt;Node26 -->
<g id="edge37" class="edge">
<title>Node27&#45;&gt;Node26</title>
<path fill="none" stroke="midnightblue" d="M165.19,-285.98C157.47,-276.96 145.09,-262.52 135.48,-251.31"/>
<polygon fill="midnightblue" stroke="midnightblue" points="137.96,-248.82 128.79,-243.51 132.64,-253.38 137.96,-248.82"/>
</g>
<!-- Node27&#45;&gt;Node28 -->
<g id="edge38" class="edge">
<title>Node27&#45;&gt;Node28</title>
<path fill="none" stroke="midnightblue" d="M209.47,-285.98C255.35,-275.39 333.65,-257.34 383.68,-245.8"/>
<polygon fill="midnightblue" stroke="midnightblue" points="384.65,-249.17 393.6,-243.51 383.07,-242.35 384.65,-249.17"/>
</g>
<!-- Node29 -->
<g id="node29" class="node">
<title>Node29</title>
<g id="a_node29"><a xlink:title=" ">
<polygon fill="white" stroke="#bfbfbf" points="402.5,-168.5 402.5,-187.5 458.5,-187.5 458.5,-168.5 402.5,-168.5"/>
<text text-anchor="middle" x="430.5" y="-175.5" font-family="Helvetica,sans-Serif" font-size="10.00">stddef.h</text>
</a>
</g>
</g>
<!-- Node28&#45;&gt;Node29 -->
<g id="edge39" class="edge">
<title>Node28&#45;&gt;Node29</title>
<path fill="none" stroke="midnightblue" d="M430.5,-224.08C430.5,-217.01 430.5,-206.86 430.5,-197.99"/>
<polygon fill="midnightblue" stroke="midnightblue" points="434,-197.75 430.5,-187.75 427,-197.75 434,-197.75"/>
</g>
<!-- Node31&#45;&gt;Node2 -->
<g id="edge42" class="edge">
<title>Node31&#45;&gt;Node2</title>
<path fill="none" stroke="midnightblue" d="M588.38,-281.56C621.38,-274.02 658.27,-262.25 688.5,-244 717.58,-226.45 728.09,-219.61 740.5,-188 758.08,-143.23 703.92,-101.58 670.25,-80.81"/>
<polygon fill="midnightblue" stroke="midnightblue" points="671.76,-77.63 661.38,-75.51 668.18,-83.64 671.76,-77.63"/>
</g>
<!-- Node31&#45;&gt;Node20 -->
<g id="edge43" class="edge">
<title>Node31&#45;&gt;Node20</title>
<path fill="none" stroke="midnightblue" d="M523.78,-280.4C538.7,-270.95 558.28,-258.56 573.21,-249.11"/>
<polygon fill="midnightblue" stroke="midnightblue" points="575.24,-251.96 581.82,-243.66 571.5,-246.05 575.24,-251.96"/>
</g>
<!-- Node31&#45;&gt;Node26 -->
<g id="edge44" class="edge">
<title>Node31&#45;&gt;Node26</title>
<path fill="none" stroke="midnightblue" d="M414.8,-280.92C345.18,-270.02 248.98,-254.96 186.03,-245.1"/>
<polygon fill="midnightblue" stroke="midnightblue" points="186.25,-241.6 175.83,-243.51 185.17,-248.51 186.25,-241.6"/>
</g>
<!-- Node31&#45;&gt;Node28 -->
<g id="edge45" class="edge">
<title>Node31&#45;&gt;Node28</title>
<path fill="none" stroke="midnightblue" d="M484.67,-280.4C473.83,-271.31 459.72,-259.49 448.63,-250.19"/>
<polygon fill="midnightblue" stroke="midnightblue" points="450.74,-247.4 440.83,-243.66 446.25,-252.76 450.74,-247.4"/>
</g>
<!-- Node33&#45;&gt;Node2 -->
<g id="edge49" class="edge">
<title>Node33&#45;&gt;Node2</title>
<path fill="none" stroke="midnightblue" d="M870.49,-224.32C857.38,-202.34 819.85,-144 773.5,-112 747.03,-93.73 712.38,-82.14 685.81,-75.31"/>
<polygon fill="midnightblue" stroke="midnightblue" points="686.6,-71.9 676.05,-72.92 684.93,-78.7 686.6,-71.9"/>
</g>
<!-- Node33&#45;&gt;Node22 -->
<g id="edge48" class="edge">
<title>Node33&#45;&gt;Node22</title>
<path fill="none" stroke="midnightblue" d="M828.28,-224.44C775.75,-214.92 690.89,-199.55 634.65,-189.36"/>
<polygon fill="midnightblue" stroke="midnightblue" points="634.96,-185.86 624.5,-187.52 633.71,-192.74 634.96,-185.86"/>
</g>
<!-- Node34&#45;&gt;Node2 -->
<g id="edge54" class="edge">
<title>Node34&#45;&gt;Node2</title>
<path fill="none" stroke="midnightblue" d="M322.4,-285.91C330.34,-263.58 354.48,-202.99 393.5,-168 455.15,-112.72 550.86,-85.75 604.85,-74.26"/>
<polygon fill="midnightblue" stroke="midnightblue" points="605.66,-77.67 614.75,-72.23 604.25,-70.81 605.66,-77.67"/>
</g>
<!-- Node34&#45;&gt;Node20 -->
<g id="edge55" class="edge">
<title>Node34&#45;&gt;Node20</title>
<path fill="none" stroke="midnightblue" d="M358.75,-286.04C407.97,-275.43 492.37,-257.23 545.97,-245.68"/>
<polygon fill="midnightblue" stroke="midnightblue" points="546.9,-249.06 555.94,-243.53 545.42,-242.21 546.9,-249.06"/>
</g>
<!-- Node34&#45;&gt;Node26 -->
<g id="edge56" class="edge">
<title>Node34&#45;&gt;Node26</title>
<path fill="none" stroke="midnightblue" d="M291.33,-285.98C284.82,-284.01 277.92,-281.93 271.5,-280 233.49,-268.56 190.05,-255.53 159.73,-246.45"/>
<polygon fill="midnightblue" stroke="midnightblue" points="160.57,-243.04 149.98,-243.53 158.56,-249.75 160.57,-243.04"/>
</g>
<!-- Node34&#45;&gt;Node28 -->
<g id="edge57" class="edge">
<title>Node34&#45;&gt;Node28</title>
<path fill="none" stroke="midnightblue" d="M335.4,-285.98C353.78,-276.12 384.26,-259.79 405.74,-248.27"/>
<polygon fill="midnightblue" stroke="midnightblue" points="407.47,-251.32 414.63,-243.51 404.16,-245.15 407.47,-251.32"/>
</g>
<!-- Node35 -->
<g id="node35" class="node">
<title>Node35</title>
<g id="a_node35"><a xlink:title=" ">
<polygon fill="white" stroke="#bfbfbf" points="255,-224.5 255,-243.5 310,-243.5 310,-224.5 255,-224.5"/>
<text text-anchor="middle" x="282.5" y="-231.5" font-family="Helvetica,sans-Serif" font-size="10.00">signal.h</text>
</a>
</g>
</g>
<!-- Node34&#45;&gt;Node35 -->
<g id="edge53" class="edge">
<title>Node34&#45;&gt;Node35</title>
<path fill="none" stroke="midnightblue" d="M314.2,-285.98C308.76,-277.23 300.14,-263.37 293.26,-252.31"/>
<polygon fill="midnightblue" stroke="midnightblue" points="296.04,-250.15 287.79,-243.51 290.1,-253.85 296.04,-250.15"/>
</g>
</g>
</svg>
