<?xml version="1.0" encoding="UTF-8" standalone="no"?>
<!DOCTYPE svg PUBLIC "-//W3C//DTD SVG 1.1//EN"
 "http://www.w3.org/Graphics/SVG/1.1/DTD/svg11.dtd">
<!-- Generated by graphviz version 2.43.0 (0)
 -->
<!-- Title: src/DataHandlers/ModbusWithPostgres/ModbusWithPostgres.h Pages: 1 -->
<svg width="1249pt" height="319pt"
 viewBox="0.00 0.00 1249.00 319.00" xmlns="http://www.w3.org/2000/svg" xmlns:xlink="http://www.w3.org/1999/xlink">
<g id="graph0" class="graph" transform="scale(1 1) rotate(0) translate(4 315)">
<title>src/DataHandlers/ModbusWithPostgres/ModbusWithPostgres.h</title>
<polygon fill="white" stroke="transparent" points="-4,4 -4,-315 1245,-315 1245,4 -4,4"/>
<!-- Node1 -->
<g id="node1" class="node">
<title>Node1</title>
<g id="a_node1"><a xlink:title="Integration of Modbus and PostgreSQL data handling.">
<polygon fill="#bfbfbf" stroke="black" points="736.5,-280.5 736.5,-310.5 909.5,-310.5 909.5,-280.5 736.5,-280.5"/>
<text text-anchor="start" x="744.5" y="-298.5" font-family="Helvetica,sans-Serif" font-size="10.00">src/DataHandlers/ModbusWith</text>
<text text-anchor="middle" x="823" y="-287.5" font-family="Helvetica,sans-Serif" font-size="10.00">Postgres/ModbusWithPostgres.h</text>
</a>
</g>
</g>
<!-- Node2 -->
<g id="node2" class="node">
<title>Node2</title>
<g id="a_node2"><a xlink:href="Sdb_8h.html" target="_top" xlink:title=" ">
<polygon fill="white" stroke="black" points="680.5,-56.5 680.5,-75.5 741.5,-75.5 741.5,-56.5 680.5,-56.5"/>
<text text-anchor="middle" x="711" y="-63.5" font-family="Helvetica,sans-Serif" font-size="10.00">src/Sdb.h</text>
</a>
</g>
</g>
<!-- Node1&#45;&gt;Node2 -->
<g id="edge1" class="edge">
<title>Node1&#45;&gt;Node2</title>
<path fill="none" stroke="midnightblue" d="M736.19,-287.88C702.5,-281.24 665.89,-268.43 640,-244 614.68,-220.1 608.61,-200.54 621,-168 634.95,-131.38 668.95,-99.59 690.93,-81.89"/>
<polygon fill="midnightblue" stroke="midnightblue" points="693.25,-84.52 698.98,-75.61 688.94,-79 693.25,-84.52"/>
</g>
<!-- Node20 -->
<g id="node20" class="node">
<title>Node20</title>
<g id="a_node20"><a xlink:href="SensorDataPipe_8h.html" target="_top" xlink:title="Lock&#45;Free Data Pipeline.">
<polygon fill="white" stroke="black" points="649.5,-224.5 649.5,-243.5 816.5,-243.5 816.5,-224.5 649.5,-224.5"/>
<text text-anchor="middle" x="733" y="-231.5" font-family="Helvetica,sans-Serif" font-size="10.00">src/Common/SensorDataPipe.h</text>
</a>
</g>
</g>
<!-- Node1&#45;&gt;Node20 -->
<g id="edge19" class="edge">
<title>Node1&#45;&gt;Node20</title>
<path fill="none" stroke="midnightblue" d="M801.67,-280.4C787.51,-271.04 768.99,-258.79 754.75,-249.38"/>
<polygon fill="midnightblue" stroke="midnightblue" points="756.37,-246.25 746.1,-243.66 752.51,-252.09 756.37,-246.25"/>
</g>
<!-- Node26 -->
<g id="node26" class="node">
<title>Node26</title>
<g id="a_node26"><a xlink:href="ThreadGroup_8h.html" target="_top" xlink:title="Thread Group Management System.">
<polygon fill="white" stroke="black" points="835.5,-224.5 835.5,-243.5 988.5,-243.5 988.5,-224.5 835.5,-224.5"/>
<text text-anchor="middle" x="912" y="-231.5" font-family="Helvetica,sans-Serif" font-size="10.00">src/Common/ThreadGroup.h</text>
</a>
</g>
</g>
<!-- Node1&#45;&gt;Node26 -->
<g id="edge30" class="edge">
<title>Node1&#45;&gt;Node26</title>
<path fill="none" stroke="midnightblue" d="M844.09,-280.4C858.09,-271.04 876.41,-258.79 890.49,-249.38"/>
<polygon fill="midnightblue" stroke="midnightblue" points="892.68,-252.13 899.05,-243.66 888.79,-246.31 892.68,-252.13"/>
</g>
<!-- Node27 -->
<g id="node27" class="node">
<title>Node27</title>
<g id="a_node27"><a xlink:href="cJSON_8h.html" target="_top" xlink:title=" ">
<polygon fill="white" stroke="black" points="1078.5,-224.5 1078.5,-243.5 1205.5,-243.5 1205.5,-224.5 1078.5,-224.5"/>
<text text-anchor="middle" x="1142" y="-231.5" font-family="Helvetica,sans-Serif" font-size="10.00">src/Libs/cJSON/cJSON.h</text>
</a>
</g>
</g>
<!-- Node1&#45;&gt;Node27 -->
<g id="edge35" class="edge">
<title>Node1&#45;&gt;Node27</title>
<path fill="none" stroke="midnightblue" d="M898.19,-280.47C955.87,-269.72 1034.19,-255.11 1086.33,-245.38"/>
<polygon fill="midnightblue" stroke="midnightblue" points="1087.21,-248.78 1096.39,-243.51 1085.92,-241.9 1087.21,-248.78"/>
</g>
<!-- Node3 -->
<g id="node3" class="node">
<title>Node3</title>
<g id="a_node3"><a xlink:title=" ">
<polygon fill="white" stroke="#bfbfbf" points="802,-0.5 802,-19.5 858,-19.5 858,-0.5 802,-0.5"/>
<text text-anchor="middle" x="830" y="-7.5" font-family="Helvetica,sans-Serif" font-size="10.00">assert.h</text>
</a>
</g>
</g>
<!-- Node2&#45;&gt;Node3 -->
<g id="edge2" class="edge">
<title>Node2&#45;&gt;Node3</title>
<path fill="none" stroke="midnightblue" d="M729.86,-56.44C749.27,-47.64 779.73,-33.81 801.96,-23.72"/>
<polygon fill="midnightblue" stroke="midnightblue" points="803.57,-26.84 811.23,-19.52 800.68,-20.46 803.57,-26.84"/>
</g>
<!-- Node4 -->
<g id="node4" class="node">
<title>Node4</title>
<g id="a_node4"><a xlink:title=" ">
<polygon fill="white" stroke="#bfbfbf" points="462.5,-0.5 462.5,-19.5 515.5,-19.5 515.5,-0.5 462.5,-0.5"/>
<text text-anchor="middle" x="489" y="-7.5" font-family="Helvetica,sans-Serif" font-size="10.00">ctype.h</text>
</a>
</g>
</g>
<!-- Node2&#45;&gt;Node4 -->
<g id="edge3" class="edge">
<title>Node2&#45;&gt;Node4</title>
<path fill="none" stroke="midnightblue" d="M680.19,-57.74C645.05,-49.43 585.62,-35.26 525.74,-20.41"/>
<polygon fill="midnightblue" stroke="midnightblue" points="526.29,-16.94 515.74,-17.92 524.6,-23.73 526.29,-16.94"/>
</g>
<!-- Node5 -->
<g id="node5" class="node">
<title>Node5</title>
<g id="a_node5"><a xlink:title=" ">
<polygon fill="white" stroke="#bfbfbf" points="533.5,-0.5 533.5,-19.5 584.5,-19.5 584.5,-0.5 533.5,-0.5"/>
<text text-anchor="middle" x="559" y="-7.5" font-family="Helvetica,sans-Serif" font-size="10.00">errno.h</text>
</a>
</g>
</g>
<!-- Node2&#45;&gt;Node5 -->
<g id="edge4" class="edge">
<title>Node2&#45;&gt;Node5</title>
<path fill="none" stroke="midnightblue" d="M686.92,-56.44C661.46,-47.4 621.11,-33.06 592.54,-22.92"/>
<polygon fill="midnightblue" stroke="midnightblue" points="593.57,-19.57 582.97,-19.52 591.22,-26.16 593.57,-19.57"/>
</g>
<!-- Node6 -->
<g id="node6" class="node">
<title>Node6</title>
<g id="a_node6"><a xlink:title=" ">
<polygon fill="white" stroke="#bfbfbf" points="602.5,-0.5 602.5,-19.5 649.5,-19.5 649.5,-0.5 602.5,-0.5"/>
<text text-anchor="middle" x="626" y="-7.5" font-family="Helvetica,sans-Serif" font-size="10.00">fcntl.h</text>
</a>
</g>
</g>
<!-- Node2&#45;&gt;Node6 -->
<g id="edge5" class="edge">
<title>Node2&#45;&gt;Node6</title>
<path fill="none" stroke="midnightblue" d="M697.34,-56.32C684.08,-47.9 663.73,-34.97 648.15,-25.07"/>
<polygon fill="midnightblue" stroke="midnightblue" points="649.94,-22.06 639.62,-19.65 646.19,-27.97 649.94,-22.06"/>
</g>
<!-- Node7 -->
<g id="node7" class="node">
<title>Node7</title>
<g id="a_node7"><a xlink:title=" ">
<polygon fill="white" stroke="#bfbfbf" points="667.5,-0.5 667.5,-19.5 714.5,-19.5 714.5,-0.5 667.5,-0.5"/>
<text text-anchor="middle" x="691" y="-7.5" font-family="Helvetica,sans-Serif" font-size="10.00">float.h</text>
</a>
</g>
</g>
<!-- Node2&#45;&gt;Node7 -->
<g id="edge6" class="edge">
<title>Node2&#45;&gt;Node7</title>
<path fill="none" stroke="midnightblue" d="M707.7,-56.08C705.02,-48.85 701.15,-38.41 697.81,-29.4"/>
<polygon fill="midnightblue" stroke="midnightblue" points="701,-27.91 694.24,-19.75 694.43,-30.34 701,-27.91"/>
</g>
<!-- Node8 -->
<g id="node8" class="node">
<title>Node8</title>
<g id="a_node8"><a xlink:title=" ">
<polygon fill="white" stroke="#bfbfbf" points="732.5,-0.5 732.5,-19.5 783.5,-19.5 783.5,-0.5 732.5,-0.5"/>
<text text-anchor="middle" x="758" y="-7.5" font-family="Helvetica,sans-Serif" font-size="10.00">math.h</text>
</a>
</g>
</g>
<!-- Node2&#45;&gt;Node8 -->
<g id="edge7" class="edge">
<title>Node2&#45;&gt;Node8</title>
<path fill="none" stroke="midnightblue" d="M718.76,-56.08C725.54,-48.3 735.54,-36.8 743.76,-27.37"/>
<polygon fill="midnightblue" stroke="midnightblue" points="746.46,-29.59 750.38,-19.75 741.18,-25 746.46,-29.59"/>
</g>
<!-- Node9 -->
<g id="node9" class="node">
<title>Node9</title>
<g id="a_node9"><a xlink:title=" ">
<polygon fill="white" stroke="#bfbfbf" points="1168.5,-0.5 1168.5,-19.5 1231.5,-19.5 1231.5,-0.5 1168.5,-0.5"/>
<text text-anchor="middle" x="1200" y="-7.5" font-family="Helvetica,sans-Serif" font-size="10.00">pthread.h</text>
</a>
</g>
</g>
<!-- Node2&#45;&gt;Node9 -->
<g id="edge8" class="edge">
<title>Node2&#45;&gt;Node9</title>
<path fill="none" stroke="midnightblue" d="M741.58,-63.16C812.79,-58.6 995.37,-45.42 1158.09,-19.96"/>
<polygon fill="midnightblue" stroke="midnightblue" points="1158.96,-23.36 1168.29,-18.34 1157.86,-16.45 1158.96,-23.36"/>
</g>
<!-- Node10 -->
<g id="node10" class="node">
<title>Node10</title>
<g id="a_node10"><a xlink:title=" ">
<polygon fill="white" stroke="#bfbfbf" points="876,-0.5 876,-19.5 932,-19.5 932,-0.5 876,-0.5"/>
<text text-anchor="middle" x="904" y="-7.5" font-family="Helvetica,sans-Serif" font-size="10.00">stdarg.h</text>
</a>
</g>
</g>
<!-- Node2&#45;&gt;Node10 -->
<g id="edge9" class="edge">
<title>Node2&#45;&gt;Node10</title>
<path fill="none" stroke="midnightblue" d="M741.58,-56.44C775.29,-47.01 829.57,-31.83 865.99,-21.63"/>
<polygon fill="midnightblue" stroke="midnightblue" points="867.07,-24.97 875.76,-18.9 865.19,-18.23 867.07,-24.97"/>
</g>
<!-- Node11 -->
<g id="node11" class="node">
<title>Node11</title>
<g id="a_node11"><a xlink:title=" ">
<polygon fill="white" stroke="#bfbfbf" points="950.5,-0.5 950.5,-19.5 1003.5,-19.5 1003.5,-0.5 950.5,-0.5"/>
<text text-anchor="middle" x="977" y="-7.5" font-family="Helvetica,sans-Serif" font-size="10.00">stdint.h</text>
</a>
</g>
</g>
<!-- Node2&#45;&gt;Node11 -->
<g id="edge10" class="edge">
<title>Node2&#45;&gt;Node11</title>
<path fill="none" stroke="midnightblue" d="M741.61,-59.53C783.97,-51.85 863.08,-37.1 940.39,-20.04"/>
<polygon fill="midnightblue" stroke="midnightblue" points="941.3,-23.42 950.3,-17.84 939.78,-16.59 941.3,-23.42"/>
</g>
<!-- Node12 -->
<g id="node12" class="node">
<title>Node12</title>
<g id="a_node12"><a xlink:title=" ">
<polygon fill="white" stroke="#bfbfbf" points="0,-0.5 0,-19.5 50,-19.5 50,-0.5 0,-0.5"/>
<text text-anchor="middle" x="25" y="-7.5" font-family="Helvetica,sans-Serif" font-size="10.00">stdio.h</text>
</a>
</g>
</g>
<!-- Node2&#45;&gt;Node12 -->
<g id="edge11" class="edge">
<title>Node2&#45;&gt;Node12</title>
<path fill="none" stroke="midnightblue" d="M680.21,-64.94C587.62,-64.33 303.67,-59.28 60.23,-19.88"/>
<polygon fill="midnightblue" stroke="midnightblue" points="60.57,-16.39 50.14,-18.22 59.44,-23.3 60.57,-16.39"/>
</g>
<!-- Node13 -->
<g id="node13" class="node">
<title>Node13</title>
<g id="a_node13"><a xlink:title=" ">
<polygon fill="white" stroke="#bfbfbf" points="68.5,-0.5 68.5,-19.5 121.5,-19.5 121.5,-0.5 68.5,-0.5"/>
<text text-anchor="middle" x="95" y="-7.5" font-family="Helvetica,sans-Serif" font-size="10.00">stdlib.h</text>
</a>
</g>
</g>
<!-- Node2&#45;&gt;Node13 -->
<g id="edge12" class="edge">
<title>Node2&#45;&gt;Node13</title>
<path fill="none" stroke="midnightblue" d="M680.22,-64.5C594.59,-62.72 346.27,-54.84 131.84,-20.04"/>
<polygon fill="midnightblue" stroke="midnightblue" points="132.09,-16.54 121.65,-18.36 130.95,-23.44 132.09,-16.54"/>
</g>
<!-- Node14 -->
<g id="node14" class="node">
<title>Node14</title>
<g id="a_node14"><a xlink:title=" ">
<polygon fill="white" stroke="#bfbfbf" points="139.5,-0.5 139.5,-19.5 192.5,-19.5 192.5,-0.5 139.5,-0.5"/>
<text text-anchor="middle" x="166" y="-7.5" font-family="Helvetica,sans-Serif" font-size="10.00">string.h</text>
</a>
</g>
</g>
<!-- Node2&#45;&gt;Node14 -->
<g id="edge13" class="edge">
<title>Node2&#45;&gt;Node14</title>
<path fill="none" stroke="midnightblue" d="M680.31,-64.04C602.06,-61.23 388.71,-51.24 202.62,-20.03"/>
<polygon fill="midnightblue" stroke="midnightblue" points="203.1,-16.56 192.66,-18.33 201.93,-23.46 203.1,-16.56"/>
</g>
<!-- Node15 -->
<g id="node15" class="node">
<title>Node15</title>
<g id="a_node15"><a xlink:title=" ">
<polygon fill="white" stroke="#bfbfbf" points="210.5,-0.5 210.5,-19.5 287.5,-19.5 287.5,-0.5 210.5,-0.5"/>
<text text-anchor="middle" x="249" y="-7.5" font-family="Helvetica,sans-Serif" font-size="10.00">sys/mman.h</text>
</a>
</g>
</g>
<!-- Node2&#45;&gt;Node15 -->
<g id="edge14" class="edge">
<title>Node2&#45;&gt;Node15</title>
<path fill="none" stroke="midnightblue" d="M680.25,-62.47C612.95,-56.77 447.35,-41.79 298,-20.04"/>
<polygon fill="midnightblue" stroke="midnightblue" points="298.13,-16.52 287.73,-18.53 297.11,-23.44 298.13,-16.52"/>
</g>
<!-- Node16 -->
<g id="node16" class="node">
<title>Node16</title>
<g id="a_node16"><a xlink:title=" ">
<polygon fill="white" stroke="#bfbfbf" points="306,-0.5 306,-19.5 370,-19.5 370,-0.5 306,-0.5"/>
<text text-anchor="middle" x="338" y="-7.5" font-family="Helvetica,sans-Serif" font-size="10.00">sys/stat.h</text>
</a>
</g>
</g>
<!-- Node2&#45;&gt;Node16 -->
<g id="edge15" class="edge">
<title>Node2&#45;&gt;Node16</title>
<path fill="none" stroke="midnightblue" d="M680.2,-61.67C623.08,-55.32 496.68,-40.42 380.33,-20.11"/>
<polygon fill="midnightblue" stroke="midnightblue" points="380.64,-16.61 370.18,-18.32 379.42,-23.51 380.64,-16.61"/>
</g>
<!-- Node17 -->
<g id="node17" class="node">
<title>Node17</title>
<g id="a_node17"><a xlink:title=" ">
<polygon fill="white" stroke="#bfbfbf" points="1022,-0.5 1022,-19.5 1070,-19.5 1070,-0.5 1022,-0.5"/>
<text text-anchor="middle" x="1046" y="-7.5" font-family="Helvetica,sans-Serif" font-size="10.00">time.h</text>
</a>
</g>
</g>
<!-- Node2&#45;&gt;Node17 -->
<g id="edge16" class="edge">
<title>Node2&#45;&gt;Node17</title>
<path fill="none" stroke="midnightblue" d="M741.65,-61.65C794.73,-55.58 907.36,-41.57 1011.85,-20.03"/>
<polygon fill="midnightblue" stroke="midnightblue" points="1012.86,-23.39 1021.93,-17.92 1011.42,-16.54 1012.86,-23.39"/>
</g>
<!-- Node18 -->
<g id="node18" class="node">
<title>Node18</title>
<g id="a_node18"><a xlink:title=" ">
<polygon fill="white" stroke="#bfbfbf" points="388,-0.5 388,-19.5 444,-19.5 444,-0.5 388,-0.5"/>
<text text-anchor="middle" x="416" y="-7.5" font-family="Helvetica,sans-Serif" font-size="10.00">unistd.h</text>
</a>
</g>
</g>
<!-- Node2&#45;&gt;Node18 -->
<g id="edge17" class="edge">
<title>Node2&#45;&gt;Node18</title>
<path fill="none" stroke="midnightblue" d="M680.29,-60.32C633.57,-53.04 541.63,-38.16 454.07,-20.11"/>
<polygon fill="midnightblue" stroke="midnightblue" points="454.74,-16.68 444.24,-18.07 453.32,-23.53 454.74,-16.68"/>
</g>
<!-- Node19 -->
<g id="node19" class="node">
<title>Node19</title>
<g id="a_node19"><a xlink:title=" ">
<polygon fill="white" stroke="#bfbfbf" points="1088,-0.5 1088,-19.5 1150,-19.5 1150,-0.5 1088,-0.5"/>
<text text-anchor="middle" x="1119" y="-7.5" font-family="Helvetica,sans-Serif" font-size="10.00">stdbool.h</text>
</a>
</g>
</g>
<!-- Node2&#45;&gt;Node19 -->
<g id="edge18" class="edge">
<title>Node2&#45;&gt;Node19</title>
<path fill="none" stroke="midnightblue" d="M741.68,-62.29C803.41,-56.62 947.15,-42.28 1077.46,-20.12"/>
<polygon fill="midnightblue" stroke="midnightblue" points="1078.35,-23.52 1087.62,-18.37 1077.17,-16.62 1078.35,-23.52"/>
</g>
<!-- Node20&#45;&gt;Node2 -->
<g id="edge21" class="edge">
<title>Node20&#45;&gt;Node2</title>
<path fill="none" stroke="midnightblue" d="M731.82,-224.08C728.35,-197.95 718.18,-121.21 713.46,-85.58"/>
<polygon fill="midnightblue" stroke="midnightblue" points="716.92,-85.02 712.14,-75.57 709.98,-85.94 716.92,-85.02"/>
</g>
<!-- Node21 -->
<g id="node21" class="node">
<title>Node21</title>
<g id="a_node21"><a xlink:title=" ">
<polygon fill="white" stroke="#bfbfbf" points="630,-168.5 630,-187.5 704,-187.5 704,-168.5 630,-168.5"/>
<text text-anchor="middle" x="667" y="-175.5" font-family="Helvetica,sans-Serif" font-size="10.00">stdatomic.h</text>
</a>
</g>
</g>
<!-- Node20&#45;&gt;Node21 -->
<g id="edge20" class="edge">
<title>Node20&#45;&gt;Node21</title>
<path fill="none" stroke="midnightblue" d="M722.4,-224.32C712.54,-216.26 697.65,-204.08 685.78,-194.37"/>
<polygon fill="midnightblue" stroke="midnightblue" points="687.75,-191.46 677.8,-187.83 683.32,-196.88 687.75,-191.46"/>
</g>
<!-- Node22 -->
<g id="node22" class="node">
<title>Node22</title>
<g id="a_node22"><a xlink:href="Thread_8h.html" target="_top" xlink:title="Lightweight Synchronization Primitives Wrapper.">
<polygon fill="white" stroke="black" points="760,-168.5 760,-187.5 884,-187.5 884,-168.5 760,-168.5"/>
<text text-anchor="middle" x="822" y="-175.5" font-family="Helvetica,sans-Serif" font-size="10.00">src/Common/Thread.h</text>
</a>
</g>
</g>
<!-- Node20&#45;&gt;Node22 -->
<g id="edge22" class="edge">
<title>Node20&#45;&gt;Node22</title>
<path fill="none" stroke="midnightblue" d="M747.3,-224.32C761.18,-215.9 782.49,-202.97 798.8,-193.07"/>
<polygon fill="midnightblue" stroke="midnightblue" points="801,-195.83 807.74,-187.65 797.37,-189.85 801,-195.83"/>
</g>
<!-- Node22&#45;&gt;Node2 -->
<g id="edge25" class="edge">
<title>Node22&#45;&gt;Node2</title>
<path fill="none" stroke="midnightblue" d="M813.29,-168.37C794.65,-149.89 750.65,-106.29 726.89,-82.74"/>
<polygon fill="midnightblue" stroke="midnightblue" points="729.24,-80.14 719.67,-75.59 724.31,-85.12 729.24,-80.14"/>
</g>
<!-- Node22&#45;&gt;Node9 -->
<g id="edge23" class="edge">
<title>Node22&#45;&gt;Node9</title>
<path fill="none" stroke="midnightblue" d="M884.23,-174.89C934.57,-170.99 1006.05,-160.38 1062,-132 1106.02,-109.67 1105.59,-88.21 1143,-56 1155.06,-45.61 1169.09,-34.53 1180.21,-25.96"/>
<polygon fill="midnightblue" stroke="midnightblue" points="1182.6,-28.54 1188.41,-19.68 1178.34,-22.98 1182.6,-28.54"/>
</g>
<!-- Node23 -->
<g id="node23" class="node">
<title>Node23</title>
<g id="a_node23"><a xlink:title=" ">
<polygon fill="white" stroke="#bfbfbf" points="798,-112.5 798,-131.5 878,-131.5 878,-112.5 798,-112.5"/>
<text text-anchor="middle" x="838" y="-119.5" font-family="Helvetica,sans-Serif" font-size="10.00">semaphore.h</text>
</a>
</g>
</g>
<!-- Node22&#45;&gt;Node23 -->
<g id="edge24" class="edge">
<title>Node22&#45;&gt;Node23</title>
<path fill="none" stroke="midnightblue" d="M824.64,-168.08C826.79,-160.85 829.88,-150.41 832.55,-141.4"/>
<polygon fill="midnightblue" stroke="midnightblue" points="835.92,-142.33 835.41,-131.75 829.21,-140.34 835.92,-142.33"/>
</g>
<!-- Node24 -->
<g id="node24" class="node">
<title>Node24</title>
<g id="a_node24"><a xlink:href="Time_8h.html" target="_top" xlink:title="Lightweight Time Manipulation Utilities.">
<polygon fill="white" stroke="black" points="937.5,-112.5 937.5,-131.5 1052.5,-131.5 1052.5,-112.5 937.5,-112.5"/>
<text text-anchor="middle" x="995" y="-119.5" font-family="Helvetica,sans-Serif" font-size="10.00">src/Common/Time.h</text>
</a>
</g>
</g>
<!-- Node22&#45;&gt;Node24 -->
<g id="edge26" class="edge">
<title>Node22&#45;&gt;Node24</title>
<path fill="none" stroke="midnightblue" d="M849.41,-168.44C878.77,-159.28 925.52,-144.69 958.1,-134.52"/>
<polygon fill="midnightblue" stroke="midnightblue" points="959.21,-137.84 967.72,-131.52 957.13,-131.16 959.21,-137.84"/>
</g>
<!-- Node24&#45;&gt;Node2 -->
<g id="edge29" class="edge">
<title>Node24&#45;&gt;Node2</title>
<path fill="none" stroke="midnightblue" d="M950,-112.44C895.45,-102.07 804.33,-84.75 751.76,-74.75"/>
<polygon fill="midnightblue" stroke="midnightblue" points="752.26,-71.28 741.79,-72.85 750.96,-78.16 752.26,-71.28"/>
</g>
<!-- Node24&#45;&gt;Node17 -->
<g id="edge28" class="edge">
<title>Node24&#45;&gt;Node17</title>
<path fill="none" stroke="midnightblue" d="M991.85,-112.08C987.8,-99.05 982.29,-74.39 991,-56 997.13,-43.07 1008.99,-32.62 1020.14,-25.05"/>
<polygon fill="midnightblue" stroke="midnightblue" points="1022.19,-27.9 1028.8,-19.61 1018.47,-21.97 1022.19,-27.9"/>
</g>
<!-- Node25 -->
<g id="node25" class="node">
<title>Node25</title>
<g id="a_node25"><a xlink:title=" ">
<polygon fill="white" stroke="#bfbfbf" points="999.5,-56.5 999.5,-75.5 1052.5,-75.5 1052.5,-56.5 999.5,-56.5"/>
<text text-anchor="middle" x="1026" y="-63.5" font-family="Helvetica,sans-Serif" font-size="10.00">limits.h</text>
</a>
</g>
</g>
<!-- Node24&#45;&gt;Node25 -->
<g id="edge27" class="edge">
<title>Node24&#45;&gt;Node25</title>
<path fill="none" stroke="midnightblue" d="M1000.12,-112.08C1004.41,-104.61 1010.66,-93.72 1015.94,-84.52"/>
<polygon fill="midnightblue" stroke="midnightblue" points="1019.03,-86.17 1020.98,-75.75 1012.96,-82.68 1019.03,-86.17"/>
</g>
<!-- Node26&#45;&gt;Node2 -->
<g id="edge33" class="edge">
<title>Node26&#45;&gt;Node2</title>
<path fill="none" stroke="midnightblue" d="M913.03,-224.29C915.13,-202.27 917.36,-143.81 887,-112 868.58,-92.7 797.62,-79.25 751.62,-72.35"/>
<polygon fill="midnightblue" stroke="midnightblue" points="752.05,-68.88 741.65,-70.9 751.04,-75.81 752.05,-68.88"/>
</g>
<!-- Node26&#45;&gt;Node9 -->
<g id="edge31" class="edge">
<title>Node26&#45;&gt;Node9</title>
<path fill="none" stroke="midnightblue" d="M941.22,-224.42C964.46,-216.84 997.23,-204.44 1023,-188 1094.96,-142.07 1160.71,-62.4 1187.4,-27.82"/>
<polygon fill="midnightblue" stroke="midnightblue" points="1190.32,-29.76 1193.6,-19.69 1184.76,-25.52 1190.32,-29.76"/>
</g>
<!-- Node26&#45;&gt;Node19 -->
<g id="edge32" class="edge">
<title>Node26&#45;&gt;Node19</title>
<path fill="none" stroke="midnightblue" d="M930.98,-224.41C962.02,-209.55 1023.97,-176.31 1062,-132 1088.74,-100.84 1105.74,-54.99 1113.69,-29.62"/>
<polygon fill="midnightblue" stroke="midnightblue" points="1117.11,-30.4 1116.63,-19.81 1110.41,-28.39 1117.11,-30.4"/>
</g>
<!-- Node26&#45;&gt;Node22 -->
<g id="edge34" class="edge">
<title>Node26&#45;&gt;Node22</title>
<path fill="none" stroke="midnightblue" d="M897.54,-224.32C883.5,-215.9 861.95,-202.97 845.46,-193.07"/>
<polygon fill="midnightblue" stroke="midnightblue" points="846.8,-189.8 836.42,-187.65 843.2,-195.8 846.8,-189.8"/>
</g>
<!-- Node28 -->
<g id="node28" class="node">
<title>Node28</title>
<g id="a_node28"><a xlink:title=" ">
<polygon fill="white" stroke="#bfbfbf" points="1185,-168.5 1185,-187.5 1241,-187.5 1241,-168.5 1185,-168.5"/>
<text text-anchor="middle" x="1213" y="-175.5" font-family="Helvetica,sans-Serif" font-size="10.00">stddef.h</text>
</a>
</g>
</g>
<!-- Node27&#45;&gt;Node28 -->
<g id="edge36" class="edge">
<title>Node27&#45;&gt;Node28</title>
<path fill="none" stroke="midnightblue" d="M1153.41,-224.32C1164.11,-216.18 1180.34,-203.84 1193.16,-194.09"/>
<polygon fill="midnightblue" stroke="midnightblue" points="1195.54,-196.67 1201.39,-187.83 1191.31,-191.1 1195.54,-196.67"/>
</g>
</g>
</svg>
