<?xml version="1.0" encoding="UTF-8" standalone="no"?>
<!DOCTYPE svg PUBLIC "-//W3C//DTD SVG 1.1//EN"
 "http://www.w3.org/Graphics/SVG/1.1/DTD/svg11.dtd">
<!-- Generated by graphviz version 2.43.0 (0)
 -->
<!-- Title: PgThread Pages: 1 -->
<!--zoomable 507 -->
<svg id="main" version="1.1" xmlns="http://www.w3.org/2000/svg" xmlns:xlink="http://www.w3.org/1999/xlink" xml:space="preserve" onload="init(evt)">
<style type="text/css"><![CDATA[
.edge:hover path { stroke: red; }
.edge:hover polygon { stroke: red; fill: red; }
]]></style>
<script type="text/javascript"><![CDATA[
var edges = document.getElementsByTagName('g');
if (edges && edges.length) {
  for (var i=0;i<edges.length;i++) {
    if (edges[i].id.substr(0,4)=='edge') {
      edges[i].setAttribute('class','edge');
    }
  }
}
]]></script>
        <defs>
                <circle id="rim" cx="0" cy="0" r="7"/>
                <circle id="rim2" cx="0" cy="0" r="3.5"/>
                <g id="zoomPlus">
                        <use xlink:href="#rim" fill="#404040">
                                <set attributeName="fill" to="#808080" begin="zoomplus.mouseover" end="zoomplus.mouseout"/>
                        </use>
                        <path d="M-4,0h8M0,-4v8" fill="none" stroke="white" stroke-width="1.5" pointer-events="none"/>
                </g>
                <g id="zoomMin">
                        <use xlink:href="#rim" fill="#404040">
                                <set attributeName="fill" to="#808080" begin="zoomminus.mouseover" end="zoomminus.mouseout"/>
                        </use>
                        <path d="M-4,0h8" fill="none" stroke="white" stroke-width="1.5" pointer-events="none"/>
                </g>
                <g id="dirArrow">
                        <path fill="none" stroke="white" stroke-width="1.5" d="M0,-3.0v7 M-2.5,-0.5L0,-3.0L2.5,-0.5"/>
                </g>
               <g id="resetDef">
                       <use xlink:href="#rim2" fill="#404040">
                               <set attributeName="fill" to="#808080" begin="reset.mouseover" end="reset.mouseout"/>
                       </use>
               </g>
        </defs>

<script type="text/javascript">
var viewWidth = 669;
var viewHeight = 507;
var sectionId = 'dynsection-9';
</script>
<script xlink:href="svgpan.js"/>
<svg id="graph" class="graph">
<g id="viewport">
<title>PgThread</title>
<polygon fill="white" stroke="transparent" points="-4,4 -4,-503.22 665,-503.22 665,4 -4,4"/>
<!-- Node1 -->
<g id="node1" class="node">
<title>Node1</title>
<g id="a_node1"><a xlink:title="PostgreSQL thread function.">
<polygon fill="#bfbfbf" stroke="black" points="0,-232.72 0,-251.72 62,-251.72 62,-232.72 0,-232.72"/>
<text text-anchor="middle" x="31" y="-239.72" font-family="Helvetica,sans-Serif" font-size="10.00">PgThread</text>
</a>
</g>
</g>
<!-- Node2 -->
<g id="node2" class="node">
<title>Node2</title>
<g id="a_node2"><a xlink:href="DataHandlers_2ModbusWithPostgres_2Postgres_8c.html#a5f5041cd700c888724519dddcc5413a0" target="_top" xlink:title="Main PostgreSQL operation loop.">
<polygon fill="white" stroke="black" points="105.5,-251.72 105.5,-270.72 152.5,-270.72 152.5,-251.72 105.5,-251.72"/>
<text text-anchor="middle" x="129" y="-258.72" font-family="Helvetica,sans-Serif" font-size="10.00">PgRun</text>
</a>
</g>
</g>
<!-- Node1&#45;&gt;Node2 -->
<g id="edge1" class="edge">
<title>Node1&#45;&gt;Node2</title>
<path fill="none" stroke="midnightblue" d="M62.11,-248.18C72.7,-250.28 84.63,-252.64 95.41,-254.77"/>
<polygon fill="midnightblue" stroke="midnightblue" points="94.82,-258.23 105.31,-256.73 96.18,-251.36 94.82,-258.23"/>
</g>
<!-- Node28 -->
<g id="node28" class="node">
<title>Node28</title>
<g id="a_node28"><a xlink:href="Sdb_8h.html#a6d72cd06f56898ea5a6d8e78b60888ba" target="_top" xlink:title=" ">
<polygon fill="white" stroke="black" points="98,-213.72 98,-232.72 160,-232.72 160,-213.72 98,-213.72"/>
<text text-anchor="middle" x="129" y="-220.72" font-family="Helvetica,sans-Serif" font-size="10.00">SdbStrErr</text>
</a>
</g>
</g>
<!-- Node1&#45;&gt;Node28 -->
<g id="edge34" class="edge">
<title>Node1&#45;&gt;Node28</title>
<path fill="none" stroke="midnightblue" d="M62.11,-236.26C70.33,-234.64 79.37,-232.85 88.05,-231.13"/>
<polygon fill="midnightblue" stroke="midnightblue" points="88.87,-234.54 98,-229.16 87.51,-227.67 88.87,-234.54"/>
</g>
<!-- Node3 -->
<g id="node3" class="node">
<title>Node3</title>
<g id="a_node3"><a xlink:href="DatabaseSystems_2Postgres_8c.html#a5caf93c93fdc98377097952a04cd7520" target="_top" xlink:title="Initializes thread arenas for PostgreSQL operations.">
<polygon fill="white" stroke="black" points="200.5,-422.72 200.5,-441.72 312.5,-441.72 312.5,-422.72 200.5,-422.72"/>
<text text-anchor="middle" x="256.5" y="-429.72" font-family="Helvetica,sans-Serif" font-size="10.00">PgInitThreadArenas</text>
</a>
</g>
</g>
<!-- Node2&#45;&gt;Node3 -->
<g id="edge2" class="edge">
<title>Node2&#45;&gt;Node3</title>
<path fill="none" stroke="midnightblue" d="M131.41,-271.02C135.78,-297.83 151.61,-373.09 196,-413.22 197.73,-414.79 199.59,-416.23 201.55,-417.55"/>
<polygon fill="midnightblue" stroke="midnightblue" points="200.2,-420.8 210.64,-422.6 203.6,-414.68 200.2,-420.8"/>
</g>
<!-- Node4 -->
<g id="node4" class="node">
<title>Node4</title>
<g id="a_node4"><a xlink:href="DatabaseSystems_2Postgres_8c.html#aa7c5ed35f820c0efcccbb4e2f010a980" target="_top" xlink:title="Inserts data into PostgreSQL table using COPY protocol.">
<polygon fill="white" stroke="black" points="216.5,-384.72 216.5,-403.72 296.5,-403.72 296.5,-384.72 216.5,-384.72"/>
<text text-anchor="middle" x="256.5" y="-391.72" font-family="Helvetica,sans-Serif" font-size="10.00">PgInsertData</text>
</a>
</g>
</g>
<!-- Node2&#45;&gt;Node4 -->
<g id="edge3" class="edge">
<title>Node2&#45;&gt;Node4</title>
<path fill="none" stroke="midnightblue" d="M133.37,-270.79C141.19,-291.66 162.47,-341.7 196,-370.22 200.62,-374.15 205.97,-377.5 211.52,-380.33"/>
<polygon fill="midnightblue" stroke="midnightblue" points="210.42,-383.67 220.98,-384.62 213.31,-377.3 210.42,-383.67"/>
</g>
<!-- Node11 -->
<g id="node11" class="node">
<title>Node11</title>
<g id="a_node11"><a xlink:href="DatabaseSystems_2Postgres_8c.html#a1bdbf06b579bf30db0f8826026a90474" target="_top" xlink:title="Prepares PostgreSQL context from configuration.">
<polygon fill="white" stroke="black" points="215,-118.72 215,-137.72 298,-137.72 298,-118.72 215,-118.72"/>
<text text-anchor="middle" x="256.5" y="-125.72" font-family="Helvetica,sans-Serif" font-size="10.00">PgPrepareCtx</text>
</a>
</g>
</g>
<!-- Node2&#45;&gt;Node11 -->
<g id="edge14" class="edge">
<title>Node2&#45;&gt;Node11</title>
<path fill="none" stroke="midnightblue" d="M149.25,-251.64C153.19,-249 157.04,-245.86 160,-242.22 188.54,-207.24 163.24,-178.29 196,-147.22 198.88,-144.49 202.16,-142.15 205.66,-140.15"/>
<polygon fill="midnightblue" stroke="midnightblue" points="207.19,-143.29 214.71,-135.83 204.18,-136.97 207.19,-143.29"/>
</g>
<!-- Node21 -->
<g id="node21" class="node">
<title>Node21</title>
<g id="a_node21"><a xlink:href="Sdb_8h.html#a132f10c44fe9dab28a9fae8839c099ad" target="_top" xlink:title=" ">
<polygon fill="white" stroke="black" points="201.5,-308.72 201.5,-327.72 311.5,-327.72 311.5,-308.72 201.5,-308.72"/>
<text text-anchor="middle" x="256.5" y="-315.72" font-family="Helvetica,sans-Serif" font-size="10.00">SdbArenaBootstrap</text>
</a>
</g>
</g>
<!-- Node2&#45;&gt;Node21 -->
<g id="edge26" class="edge">
<title>Node2&#45;&gt;Node21</title>
<path fill="none" stroke="midnightblue" d="M144.47,-270.76C157.53,-279.08 177.49,-291.05 196,-299.22 201.02,-301.44 206.38,-303.52 211.76,-305.44"/>
<polygon fill="midnightblue" stroke="midnightblue" points="210.77,-308.8 221.37,-308.7 213.02,-302.17 210.77,-308.8"/>
</g>
<!-- Node22 -->
<g id="node22" class="node">
<title>Node22</title>
<g id="a_node22"><a xlink:href="Sdb_8h.html#ab63e953fd90c628d5c0727287df66fab" target="_top" xlink:title=" ">
<polygon fill="white" stroke="black" points="217,-270.72 217,-289.72 296,-289.72 296,-270.72 217,-270.72"/>
<text text-anchor="middle" x="256.5" y="-277.72" font-family="Helvetica,sans-Serif" font-size="10.00">SdbArenaInit</text>
</a>
</g>
</g>
<!-- Node2&#45;&gt;Node22 -->
<g id="edge27" class="edge">
<title>Node2&#45;&gt;Node22</title>
<path fill="none" stroke="midnightblue" d="M152.73,-264.67C167.75,-266.94 188.02,-270.01 206.58,-272.82"/>
<polygon fill="midnightblue" stroke="midnightblue" points="206.27,-276.31 216.68,-274.35 207.32,-269.39 206.27,-276.31"/>
</g>
<!-- Node23 -->
<g id="node23" class="node">
<title>Node23</title>
<g id="a_node23"><a xlink:href="Thread_8c.html#a192a33d80a7d463ad237856cdc7343be" target="_top" xlink:title="Wait on a thread barrier.">
<polygon fill="white" stroke="black" points="212,-232.72 212,-251.72 301,-251.72 301,-232.72 212,-232.72"/>
<text text-anchor="middle" x="256.5" y="-239.72" font-family="Helvetica,sans-Serif" font-size="10.00">SdbBarrierWait</text>
</a>
</g>
</g>
<!-- Node2&#45;&gt;Node23 -->
<g id="edge28" class="edge">
<title>Node2&#45;&gt;Node23</title>
<path fill="none" stroke="midnightblue" d="M152.73,-257.78C166.49,-255.7 184.65,-252.95 201.87,-250.34"/>
<polygon fill="midnightblue" stroke="midnightblue" points="202.5,-253.79 211.87,-248.83 201.46,-246.87 202.5,-253.79"/>
</g>
<!-- Node24 -->
<g id="node24" class="node">
<title>Node24</title>
<g id="a_node24"><a xlink:href="Signals_8c.html#aca8d19968aa974641e340443ba21e58e" target="_top" xlink:title="Checks if the system should initiate shutdown.">
<polygon fill="white" stroke="black" points="198.5,-194.72 198.5,-213.72 314.5,-213.72 314.5,-194.72 198.5,-194.72"/>
<text text-anchor="middle" x="256.5" y="-201.72" font-family="Helvetica,sans-Serif" font-size="10.00">SdbShouldShutdown</text>
</a>
</g>
</g>
<!-- Node2&#45;&gt;Node24 -->
<g id="edge29" class="edge">
<title>Node2&#45;&gt;Node24</title>
<path fill="none" stroke="midnightblue" d="M145.9,-251.55C162.08,-241.79 186.14,-227.58 196,-223.22 201.02,-221.01 206.38,-218.92 211.76,-217.01"/>
<polygon fill="midnightblue" stroke="midnightblue" points="213.02,-220.28 221.37,-213.75 210.77,-213.65 213.02,-220.28"/>
</g>
<!-- Node25 -->
<g id="node25" class="node">
<title>Node25</title>
<g id="a_node25"><a xlink:href="Time_8c.html#ad3369a427cccb648ad4f30900f4f7c33" target="_top" xlink:title="Get Current Monotonic Timestamp.">
<polygon fill="white" stroke="black" points="201.5,-156.72 201.5,-175.72 311.5,-175.72 311.5,-156.72 201.5,-156.72"/>
<text text-anchor="middle" x="256.5" y="-163.72" font-family="Helvetica,sans-Serif" font-size="10.00">SdbTimeMonotonic</text>
</a>
</g>
</g>
<!-- Node2&#45;&gt;Node25 -->
<g id="edge30" class="edge">
<title>Node2&#45;&gt;Node25</title>
<path fill="none" stroke="midnightblue" d="M148.1,-251.58C152.28,-248.88 156.51,-245.71 160,-242.22 181.17,-221.02 172.3,-203.55 196,-185.22 198.33,-183.42 200.84,-181.79 203.46,-180.3"/>
<polygon fill="midnightblue" stroke="midnightblue" points="205.23,-183.34 212.71,-175.84 202.18,-177.04 205.23,-183.34"/>
</g>
<!-- Node26 -->
<g id="node26" class="node">
<title>Node26</title>
<g id="a_node26"><a xlink:href="Time_8c.html#ab96009a36f9428aa5cb1df4c18e7b50a" target="_top" xlink:title="Calculate Time Difference Between Timestamps.">
<polygon fill="white" stroke="black" points="353,-289.72 353,-308.72 491,-308.72 491,-289.72 353,-289.72"/>
<text text-anchor="middle" x="422" y="-296.72" font-family="Helvetica,sans-Serif" font-size="10.00">SdbTimePrintSpecDiffWT</text>
</a>
</g>
</g>
<!-- Node2&#45;&gt;Node26 -->
<g id="edge31" class="edge">
<title>Node2&#45;&gt;Node26</title>
<path fill="none" stroke="midnightblue" d="M134.73,-270.76C143.84,-287.89 165.63,-323.38 196,-337.22 244.93,-359.54 264.8,-350.15 317,-337.22 334.56,-332.87 336.19,-324.92 353,-318.22 358.9,-315.87 365.21,-313.69 371.5,-311.72"/>
<polygon fill="midnightblue" stroke="midnightblue" points="372.76,-314.99 381.33,-308.77 370.75,-308.29 372.76,-314.99"/>
</g>
<!-- Node27 -->
<g id="node27" class="node">
<title>Node27</title>
<g id="a_node27"><a xlink:href="SensorDataPipe_8c.html#a63f4e3d66ed1aaab189408c5e20fcb06" target="_top" xlink:title="Acquire Read Buffer Arena.">
<polygon fill="white" stroke="black" points="196,-80.72 196,-99.72 317,-99.72 317,-80.72 196,-80.72"/>
<text text-anchor="middle" x="256.5" y="-87.72" font-family="Helvetica,sans-Serif" font-size="10.00">SdPipeGetReadBuffer</text>
</a>
</g>
</g>
<!-- Node2&#45;&gt;Node27 -->
<g id="edge33" class="edge">
<title>Node2&#45;&gt;Node27</title>
<path fill="none" stroke="midnightblue" d="M149.82,-251.64C153.64,-249.03 157.29,-245.9 160,-242.22 196.34,-192.93 153.68,-153.48 196,-109.22 197.38,-107.78 198.86,-106.45 200.44,-105.22"/>
<polygon fill="midnightblue" stroke="midnightblue" points="202.32,-108.17 208.91,-99.87 198.58,-102.25 202.32,-108.17"/>
</g>
<!-- Node5 -->
<g id="node5" class="node">
<title>Node5</title>
<g id="a_node5"><a xlink:href="Sdb_8h.html#ac5c7c1054a5f2110db33fbaf02ee3875" target="_top" xlink:title=" ">
<polygon fill="white" stroke="black" points="555.5,-384.72 555.5,-403.72 632.5,-403.72 632.5,-384.72 555.5,-384.72"/>
<text text-anchor="middle" x="594" y="-391.72" font-family="Helvetica,sans-Serif" font-size="10.00">SdbMemcpy</text>
</a>
</g>
</g>
<!-- Node4&#45;&gt;Node5 -->
<g id="edge4" class="edge">
<title>Node4&#45;&gt;Node5</title>
<path fill="none" stroke="midnightblue" d="M290.92,-403.76C299.53,-406.52 308.7,-409.74 317,-413.22 333.68,-420.23 335.44,-427.87 353,-432.22 412.53,-446.97 430.64,-443.1 491,-432.22 516.73,-427.59 544.44,-416.86 564.48,-407.99"/>
<polygon fill="midnightblue" stroke="midnightblue" points="566,-411.14 573.66,-403.81 563.1,-404.77 566,-411.14"/>
</g>
<!-- Node6 -->
<g id="node6" class="node">
<title>Node6</title>
<g id="a_node6"><a xlink:href="DatabaseSystems_2Postgres_8c.html#a9b90329e0cf4324fbe9fcd6b22233e34" target="_top" xlink:title="Writes a 2&#45;byte value in network byte order.">
<polygon fill="white" stroke="black" points="397.5,-403.72 397.5,-422.72 446.5,-422.72 446.5,-403.72 397.5,-403.72"/>
<text text-anchor="middle" x="422" y="-410.72" font-family="Helvetica,sans-Serif" font-size="10.00">Write2</text>
</a>
</g>
</g>
<!-- Node4&#45;&gt;Node6 -->
<g id="edge5" class="edge">
<title>Node4&#45;&gt;Node6</title>
<path fill="none" stroke="midnightblue" d="M296.66,-398.78C324.23,-401.98 360.76,-406.22 387.08,-409.28"/>
<polygon fill="midnightblue" stroke="midnightblue" points="386.99,-412.8 397.33,-410.47 387.8,-405.84 386.99,-412.8"/>
</g>
<!-- Node7 -->
<g id="node7" class="node">
<title>Node7</title>
<g id="a_node7"><a xlink:href="DatabaseSystems_2Postgres_8c.html#ab8781f83020464aef1cf9779f072a37f" target="_top" xlink:title=" ">
<polygon fill="white" stroke="black" points="397.5,-365.72 397.5,-384.72 446.5,-384.72 446.5,-365.72 397.5,-365.72"/>
<text text-anchor="middle" x="422" y="-372.72" font-family="Helvetica,sans-Serif" font-size="10.00">Write4</text>
</a>
</g>
</g>
<!-- Node4&#45;&gt;Node7 -->
<g id="edge7" class="edge">
<title>Node4&#45;&gt;Node7</title>
<path fill="none" stroke="midnightblue" d="M296.66,-389.67C324.23,-386.47 360.76,-382.22 387.08,-379.17"/>
<polygon fill="midnightblue" stroke="midnightblue" points="387.8,-382.61 397.33,-377.97 386.99,-375.65 387.8,-382.61"/>
</g>
<!-- Node8 -->
<g id="node8" class="node">
<title>Node8</title>
<g id="a_node8"><a xlink:href="DatabaseSystems_2Postgres_8c.html#af07f5759e9e25a2b5a8569ab296897e8" target="_top" xlink:title=" ">
<polygon fill="white" stroke="black" points="397.5,-327.72 397.5,-346.72 446.5,-346.72 446.5,-327.72 397.5,-327.72"/>
<text text-anchor="middle" x="422" y="-334.72" font-family="Helvetica,sans-Serif" font-size="10.00">Write8</text>
</a>
</g>
</g>
<!-- Node4&#45;&gt;Node8 -->
<g id="edge9" class="edge">
<title>Node4&#45;&gt;Node8</title>
<path fill="none" stroke="midnightblue" d="M281.08,-384.69C306.99,-374.24 345.9,-358.62 353,-356.22 364.11,-352.47 376.42,-348.87 387.48,-345.83"/>
<polygon fill="midnightblue" stroke="midnightblue" points="388.46,-349.19 397.21,-343.21 386.64,-342.43 388.46,-349.19"/>
</g>
<!-- Node9 -->
<g id="node9" class="node">
<title>Node9</title>
<g id="a_node9"><a xlink:href="DatabaseSystems_2Postgres_8c.html#a8be5b0d3a8c5e012cae2737b1ffa7bff" target="_top" xlink:title=" ">
<polygon fill="white" stroke="black" points="373,-479.72 373,-498.72 471,-498.72 471,-479.72 373,-479.72"/>
<text text-anchor="middle" x="422" y="-486.72" font-family="Helvetica,sans-Serif" font-size="10.00">WriteTimestamp</text>
</a>
</g>
</g>
<!-- Node4&#45;&gt;Node9 -->
<g id="edge11" class="edge">
<title>Node4&#45;&gt;Node9</title>
<path fill="none" stroke="midnightblue" d="M296.74,-402.7C303.89,-405.34 310.99,-408.77 317,-413.22 339.59,-429.95 330.66,-448.16 353,-465.22 358.48,-469.41 364.75,-472.91 371.22,-475.82"/>
<polygon fill="midnightblue" stroke="midnightblue" points="370.18,-479.17 380.77,-479.67 372.8,-472.68 370.18,-479.17"/>
</g>
<!-- Node6&#45;&gt;Node5 -->
<g id="edge6" class="edge">
<title>Node6&#45;&gt;Node5</title>
<path fill="none" stroke="midnightblue" d="M446.64,-410.58C471.99,-407.75 512.95,-403.17 545.1,-399.58"/>
<polygon fill="midnightblue" stroke="midnightblue" points="545.64,-403.04 555.19,-398.45 544.87,-396.08 545.64,-403.04"/>
</g>
<!-- Node7&#45;&gt;Node5 -->
<g id="edge8" class="edge">
<title>Node7&#45;&gt;Node5</title>
<path fill="none" stroke="midnightblue" d="M446.64,-377.87C471.99,-380.7 512.95,-385.28 545.1,-388.87"/>
<polygon fill="midnightblue" stroke="midnightblue" points="544.87,-392.37 555.19,-390 545.64,-385.41 544.87,-392.37"/>
</g>
<!-- Node8&#45;&gt;Node5 -->
<g id="edge10" class="edge">
<title>Node8&#45;&gt;Node5</title>
<path fill="none" stroke="midnightblue" d="M446.75,-343.33C459.88,-346.84 476.43,-351.48 491,-356.22 514.06,-363.73 539.63,-373.26 559.4,-380.89"/>
<polygon fill="midnightblue" stroke="midnightblue" points="558.29,-384.22 568.88,-384.59 560.83,-377.7 558.29,-384.22"/>
</g>
<!-- Node9&#45;&gt;Node5 -->
<g id="edge12" class="edge">
<title>Node9&#45;&gt;Node5</title>
<path fill="none" stroke="midnightblue" d="M455.57,-479.71C467.05,-475.85 479.86,-470.94 491,-465.22 521.61,-449.53 553.65,-425.85 573.47,-410.22"/>
<polygon fill="midnightblue" stroke="midnightblue" points="575.8,-412.84 581.42,-403.86 571.42,-407.37 575.8,-412.84"/>
</g>
<!-- Node10 -->
<g id="node10" class="node">
<title>Node10</title>
<g id="a_node10"><a xlink:href="DatabaseSystems_2Postgres_8c.html#afa67b44da30f50a326b7a120665bc477" target="_top" xlink:title="Converts Unix timestamp to PostgreSQL timestamp.">
<polygon fill="white" stroke="black" points="535.5,-479.72 535.5,-498.72 652.5,-498.72 652.5,-479.72 535.5,-479.72"/>
<text text-anchor="middle" x="594" y="-486.72" font-family="Helvetica,sans-Serif" font-size="10.00">UnixToPgTimestamp</text>
</a>
</g>
</g>
<!-- Node9&#45;&gt;Node10 -->
<g id="edge13" class="edge">
<title>Node9&#45;&gt;Node10</title>
<path fill="none" stroke="midnightblue" d="M471.26,-489.22C488,-489.22 507.08,-489.22 525.1,-489.22"/>
<polygon fill="midnightblue" stroke="midnightblue" points="525.27,-492.72 535.27,-489.22 525.27,-485.72 525.27,-492.72"/>
</g>
<!-- Node12 -->
<g id="node12" class="node">
<title>Node12</title>
<g id="a_node12"><a xlink:href="DatabaseInitializer_8c.html#ac3e5e24c2c387a0c28dffaab993aebac" target="_top" xlink:title="Loads and parses a database configuration file.">
<polygon fill="white" stroke="black" points="358,-42.72 358,-61.72 486,-61.72 486,-42.72 358,-42.72"/>
<text text-anchor="middle" x="422" y="-49.72" font-family="Helvetica,sans-Serif" font-size="10.00">DbInitGetConfFromFile</text>
</a>
</g>
</g>
<!-- Node11&#45;&gt;Node12 -->
<g id="edge15" class="edge">
<title>Node11&#45;&gt;Node12</title>
<path fill="none" stroke="midnightblue" d="M297.16,-118.65C304.05,-116.14 310.94,-113.03 317,-109.22 336.7,-96.85 333.08,-83.23 353,-71.22 356.6,-69.05 360.46,-67.12 364.44,-65.41"/>
<polygon fill="midnightblue" stroke="midnightblue" points="365.81,-68.63 373.89,-61.78 363.3,-62.1 365.81,-68.63"/>
</g>
<!-- Node13 -->
<g id="node13" class="node">
<title>Node13</title>
<g id="a_node13"><a xlink:href="Sdb_8h.html#ae4ef1557f623dc27e4d1f8f9cac4b6fc" target="_top" xlink:title=" ">
<polygon fill="white" stroke="black" points="527,-4.72 527,-23.72 661,-23.72 661,-4.72 527,-4.72"/>
<text text-anchor="middle" x="594" y="-11.72" font-family="Helvetica,sans-Serif" font-size="10.00">SdbLoadFileIntoMemory</text>
</a>
</g>
</g>
<!-- Node11&#45;&gt;Node13 -->
<g id="edge21" class="edge">
<title>Node11&#45;&gt;Node13</title>
<path fill="none" stroke="midnightblue" d="M298.27,-120.15C305.05,-117.48 311.61,-113.94 317,-109.22 345.13,-84.61 322.23,-54.44 353,-33.22 405.74,3.15 481.37,2.77 533.56,-3.38"/>
<polygon fill="midnightblue" stroke="midnightblue" points="533.31,-6.88 543.68,-4.68 534.2,0.07 533.31,-6.88"/>
</g>
<!-- Node15 -->
<g id="node15" class="node">
<title>Node15</title>
<g id="a_node15"><a xlink:href="DatabaseSystems_2Postgres_8c.html#ae298043cc4c2e142d7914316919a5c7a" target="_top" xlink:title=" ">
<polygon fill="white" stroke="black" points="369,-232.72 369,-251.72 475,-251.72 475,-232.72 369,-232.72"/>
<text text-anchor="middle" x="422" y="-239.72" font-family="Helvetica,sans-Serif" font-size="10.00">GetTableMetadata</text>
</a>
</g>
</g>
<!-- Node11&#45;&gt;Node15 -->
<g id="edge18" class="edge">
<title>Node11&#45;&gt;Node15</title>
<path fill="none" stroke="midnightblue" d="M298.17,-136.42C304.96,-139.07 311.55,-142.58 317,-147.22 343.94,-170.16 326.41,-194.88 353,-218.22 357.69,-222.34 363.14,-225.77 368.86,-228.61"/>
<polygon fill="midnightblue" stroke="midnightblue" points="367.46,-231.82 378.03,-232.62 370.27,-225.41 367.46,-231.82"/>
</g>
<!-- Node17 -->
<g id="node17" class="node">
<title>Node17</title>
<g id="a_node17"><a xlink:href="Sdb_8h.html#acd332199b77e76c2b764ef93a7b60439" target="_top" xlink:title=" ">
<polygon fill="white" stroke="black" points="549.5,-194.72 549.5,-213.72 638.5,-213.72 638.5,-194.72 549.5,-194.72"/>
<text text-anchor="middle" x="594" y="-201.72" font-family="Helvetica,sans-Serif" font-size="10.00">SdbStringMake</text>
</a>
</g>
</g>
<!-- Node11&#45;&gt;Node17 -->
<g id="edge25" class="edge">
<title>Node11&#45;&gt;Node17</title>
<path fill="none" stroke="midnightblue" d="M297.16,-137.8C304.05,-140.31 310.94,-143.42 317,-147.22 336.7,-159.6 332.01,-175.2 353,-185.22 412.1,-213.46 488.77,-214.25 539.36,-210.61"/>
<polygon fill="midnightblue" stroke="midnightblue" points="539.74,-214.09 549.43,-209.8 539.18,-207.11 539.74,-214.09"/>
</g>
<!-- Node18 -->
<g id="node18" class="node">
<title>Node18</title>
<g id="a_node18"><a xlink:href="Sdb_8h.html#a2f3b726bde5f66a61dee9805406813ee" target="_top" xlink:title=" ">
<polygon fill="white" stroke="black" points="372,-156.72 372,-175.72 472,-175.72 472,-156.72 372,-156.72"/>
<text text-anchor="middle" x="422" y="-163.72" font-family="Helvetica,sans-Serif" font-size="10.00">SdbStringAppend</text>
</a>
</g>
</g>
<!-- Node11&#45;&gt;Node18 -->
<g id="edge22" class="edge">
<title>Node11&#45;&gt;Node18</title>
<path fill="none" stroke="midnightblue" d="M298.34,-137.72C320.09,-142.77 347.05,-149.04 370.15,-154.41"/>
<polygon fill="midnightblue" stroke="midnightblue" points="369.58,-157.87 380.12,-156.72 371.17,-151.05 369.58,-157.87"/>
</g>
<!-- Node19 -->
<g id="node19" class="node">
<title>Node19</title>
<g id="a_node19"><a xlink:href="Sdb_8h.html#a28c30cfe4c8326befba64bf54397bc47" target="_top" xlink:title=" ">
<polygon fill="white" stroke="black" points="368.5,-118.72 368.5,-137.72 475.5,-137.72 475.5,-118.72 368.5,-118.72"/>
<text text-anchor="middle" x="422" y="-125.72" font-family="Helvetica,sans-Serif" font-size="10.00">SdbStringAppendC</text>
</a>
</g>
</g>
<!-- Node11&#45;&gt;Node19 -->
<g id="edge23" class="edge">
<title>Node11&#45;&gt;Node19</title>
<path fill="none" stroke="midnightblue" d="M298.34,-128.22C316.46,-128.22 338.2,-128.22 358.31,-128.22"/>
<polygon fill="midnightblue" stroke="midnightblue" points="358.34,-131.72 368.34,-128.22 358.34,-124.72 358.34,-131.72"/>
</g>
<!-- Node20 -->
<g id="node20" class="node">
<title>Node20</title>
<g id="a_node20"><a xlink:href="Sdb_8h.html#af443df2d401ad3eca43919e5cf1a7118" target="_top" xlink:title=" ">
<polygon fill="white" stroke="black" points="364,-80.72 364,-99.72 480,-99.72 480,-80.72 364,-80.72"/>
<text text-anchor="middle" x="422" y="-87.72" font-family="Helvetica,sans-Serif" font-size="10.00">SdbStringBackspace</text>
</a>
</g>
</g>
<!-- Node11&#45;&gt;Node20 -->
<g id="edge24" class="edge">
<title>Node11&#45;&gt;Node20</title>
<path fill="none" stroke="midnightblue" d="M298.34,-118.73C320.09,-113.68 347.05,-107.41 370.15,-102.04"/>
<polygon fill="midnightblue" stroke="midnightblue" points="371.17,-105.4 380.12,-99.73 369.58,-98.58 371.17,-105.4"/>
</g>
<!-- Node12&#45;&gt;Node13 -->
<g id="edge16" class="edge">
<title>Node12&#45;&gt;Node13</title>
<path fill="none" stroke="midnightblue" d="M465.9,-42.64C488.53,-37.58 516.5,-31.32 540.43,-25.98"/>
<polygon fill="midnightblue" stroke="midnightblue" points="541.41,-29.34 550.41,-23.74 539.89,-22.51 541.41,-29.34"/>
</g>
<!-- Node14 -->
<g id="node14" class="node">
<title>Node14</title>
<g id="a_node14"><a xlink:href="Sdb_8h.html#a7d36f635ee473a12e82ed102ab4597a3" target="_top" xlink:title=" ">
<polygon fill="white" stroke="black" points="545,-42.72 545,-61.72 643,-61.72 643,-42.72 545,-42.72"/>
<text text-anchor="middle" x="594" y="-49.72" font-family="Helvetica,sans-Serif" font-size="10.00">SdbScratchBegin</text>
</a>
</g>
</g>
<!-- Node12&#45;&gt;Node14 -->
<g id="edge17" class="edge">
<title>Node12&#45;&gt;Node14</title>
<path fill="none" stroke="midnightblue" d="M486.3,-52.22C502.18,-52.22 519.13,-52.22 534.75,-52.22"/>
<polygon fill="midnightblue" stroke="midnightblue" points="534.79,-55.72 544.79,-52.22 534.79,-48.72 534.79,-55.72"/>
</g>
<!-- Node16 -->
<g id="node16" class="node">
<title>Node16</title>
<g id="a_node16"><a xlink:href="Sdb_8h.html#adb598df288598cf1c13afc15e3f7e6c2" target="_top" xlink:title=" ">
<polygon fill="white" stroke="black" points="534.5,-232.72 534.5,-251.72 653.5,-251.72 653.5,-232.72 534.5,-232.72"/>
<text text-anchor="middle" x="594" y="-239.72" font-family="Helvetica,sans-Serif" font-size="10.00">SdbStringAppendFmt</text>
</a>
</g>
</g>
<!-- Node15&#45;&gt;Node16 -->
<g id="edge19" class="edge">
<title>Node15&#45;&gt;Node16</title>
<path fill="none" stroke="midnightblue" d="M475.39,-242.22C490.82,-242.22 507.94,-242.22 524.24,-242.22"/>
<polygon fill="midnightblue" stroke="midnightblue" points="524.25,-245.72 534.25,-242.22 524.25,-238.72 524.25,-245.72"/>
</g>
<!-- Node15&#45;&gt;Node17 -->
<g id="edge20" class="edge">
<title>Node15&#45;&gt;Node17</title>
<path fill="none" stroke="midnightblue" d="M465.9,-232.64C488.53,-227.58 516.5,-221.32 540.43,-215.98"/>
<polygon fill="midnightblue" stroke="midnightblue" points="541.41,-219.34 550.41,-213.74 539.89,-212.51 541.41,-219.34"/>
</g>
<!-- Node26&#45;&gt;Node5 -->
<g id="edge32" class="edge">
<title>Node26&#45;&gt;Node5</title>
<path fill="none" stroke="midnightblue" d="M466.33,-308.75C474.72,-311.31 483.3,-314.44 491,-318.22 523.44,-334.15 556.08,-360.77 575.41,-377.9"/>
<polygon fill="midnightblue" stroke="midnightblue" points="573.07,-380.5 582.84,-384.6 577.76,-375.31 573.07,-380.5"/>
</g>
</g>
</svg>
        <g id="navigator" transform="translate(0 0)" fill="#404254">
                <rect fill="#f2f5e9" fill-opacity="0.5" stroke="#606060" stroke-width=".5" x="0" y="0" width="60" height="60"/>
                <use id="zoomplus" xlink:href="#zoomPlus" x="17" y="9" onmousedown="handleZoom(evt,'in')"/>
                <use id="zoomminus" xlink:href="#zoomMin" x="42" y="9" onmousedown="handleZoom(evt,'out')"/>
                <use id="reset" xlink:href="#resetDef" x="30" y="36" onmousedown="handleReset()"/>
                <g id="arrowUp" xlink:href="#dirArrow" transform="translate(30 24)" onmousedown="handlePan(0,-1)">
                  <use xlink:href="#rim" fill="#404040">
                        <set attributeName="fill" to="#808080" begin="arrowUp.mouseover" end="arrowUp.mouseout"/>
                  </use>
                  <path fill="none" stroke="white" stroke-width="1.5" d="M0,-3.0v7 M-2.5,-0.5L0,-3.0L2.5,-0.5"/>
                </g>
                <g id="arrowRight" xlink:href="#dirArrow" transform="rotate(90) translate(36 -43)" onmousedown="handlePan(1,0)">
                  <use xlink:href="#rim" fill="#404040">
                        <set attributeName="fill" to="#808080" begin="arrowRight.mouseover" end="arrowRight.mouseout"/>
                  </use>
                  <path fill="none" stroke="white" stroke-width="1.5" d="M0,-3.0v7 M-2.5,-0.5L0,-3.0L2.5,-0.5"/>
                </g>
                <g id="arrowDown" xlink:href="#dirArrow" transform="rotate(180) translate(-30 -48)" onmousedown="handlePan(0,1)">
                  <use xlink:href="#rim" fill="#404040">
                        <set attributeName="fill" to="#808080" begin="arrowDown.mouseover" end="arrowDown.mouseout"/>
                  </use>
                  <path fill="none" stroke="white" stroke-width="1.5" d="M0,-3.0v7 M-2.5,-0.5L0,-3.0L2.5,-0.5"/>
                </g>
                <g id="arrowLeft" xlink:href="#dirArrow" transform="rotate(270) translate(-36 17)" onmousedown="handlePan(-1,0)">
                  <use xlink:href="#rim" fill="#404040">
                        <set attributeName="fill" to="#808080" begin="arrowLeft.mouseover" end="arrowLeft.mouseout"/>
                  </use>
                  <path fill="none" stroke="white" stroke-width="1.5" d="M0,-3.0v7 M-2.5,-0.5L0,-3.0L2.5,-0.5"/>
                </g>
        </g>
        <svg viewBox="0 0 15 15" width="100%" height="30px" preserveAspectRatio="xMaxYMin meet">
         <g id="arrow_out" transform="scale(0.3 0.3)">
          <a xlink:href="ModbusWithPostgres_8h_a74049820bc4d231783641b0bfdc3a723_cgraph_org.svg" target="_base">
           <rect id="button" ry="5" rx="5" y="6" x="6" height="38" width="38"
                fill="#f2f5e9" fill-opacity="0.5" stroke="#606060" stroke-width="1.0"/>
           <path id="arrow"
             d="M 11.500037,31.436501 C 11.940474,20.09759 22.043105,11.32322 32.158766,21.979434 L 37.068811,17.246167 C 37.068811,17.246167 37.088388,32 37.088388,32 L 22.160133,31.978069 C 22.160133,31.978069 26.997745,27.140456 26.997745,27.140456 C 18.528582,18.264221 13.291696,25.230495 11.500037,31.436501 z"
             style="fill:#404040;"/>
          </a>
         </g>
        </svg>
</svg>
