<?xml version="1.0" encoding="UTF-8" standalone="no"?>
<!DOCTYPE svg PUBLIC "-//W3C//DTD SVG 1.1//EN"
 "http://www.w3.org/Graphics/SVG/1.1/DTD/svg11.dtd">
<!-- Generated by graphviz version 2.43.0 (0)
 -->
<!-- Title: PgThread Pages: 1 -->
<!--zoomable 499 -->

<svg id="main" version="1.1" xmlns="http://www.w3.org/2000/svg" xmlns:xlink="http://www.w3.org/1999/xlink" xml:space="preserve" onload="init(evt)">
<style type="text/css"><![CDATA[
.node, .edge {opacity: 0.7;}
.node.selected, .edge.selected {opacity: 1;}
.edge:hover path { stroke: red; }
.edge:hover polygon { stroke: red; fill: red; }
]]></style>

<defs>
  <circle id="rim" cx="0" cy="0" r="7"/>
  <circle id="rim2" cx="0" cy="0" r="3.5"/>
  <g id="zoomPlus">
    <use xlink:href="#rim" fill="#404040"><set attributeName="fill" to="#808080" begin="zoomplus.mouseover" end="zoomplus.mouseout"/></use>
    <path d="M-4,0h8M0,-4v8" fill="none" stroke="white" stroke-width="1.5" pointer-events="none"/>
  </g>
  <g id="zoomMin">
    <use xlink:href="#rim" fill="#404040"><set attributeName="fill" to="#808080" begin="zoomminus.mouseover" end="zoomminus.mouseout"/></use>
    <path d="M-4,0h8" fill="none" stroke="white" stroke-width="1.5" pointer-events="none"/>
  </g>
  <g id="arrowUp" transform="translate(30 24)">
    <use xlink:href="#rim"/>
    <path pointer-events="none" fill="none" stroke="white" stroke-width="1.5" d="M0,-3.0v7 M-2.5,-0.5L0,-3.0L2.5,-0.5"/>
  </g>
  <g id="arrowRight" transform="rotate(90) translate(36 -43)">
    <use xlink:href="#rim"/>
    <path pointer-events="none" fill="none" stroke="white" stroke-width="1.5" d="M0,-3.0v7 M-2.5,-0.5L0,-3.0L2.5,-0.5"/>
  </g>
  <g id="arrowDown" transform="rotate(180) translate(-30 -48)">
    <use xlink:href="#rim"/>
    <path pointer-events="none" fill="none" stroke="white" stroke-width="1.5" d="M0,-3.0v7 M-2.5,-0.5L0,-3.0L2.5,-0.5"/>
  </g>
  <g id="arrowLeft" transform="rotate(270) translate(-36 17)">
    <use xlink:href="#rim"/>
    <path pointer-events="none" fill="none" stroke="white" stroke-width="1.5" d="M0,-3.0v7 M-2.5,-0.5L0,-3.0L2.5,-0.5"/>
  </g>
  <g id="resetDef">
    <use xlink:href="#rim2" fill="#404040"><set attributeName="fill" to="#808080" begin="reset.mouseover" end="reset.mouseout"/></use>
  </g>
</defs>
<script type="application/ecmascript">
var viewWidth = 669;
var viewHeight = 499;
var sectionId = 'dynsection-9';
</script>
<script type="application/ecmascript" xlink:href="svg.min.js"/>
<svg id="graph" class="graph">
<g id="viewport">
<title>PgThread</title>
<!-- Node1 -->
<g id="Node000001" class="node">
<title>Node1</title>
<g id="a_Node000001"><a xlink:title="PostgreSQL thread function.">
<polygon fill="#999999" stroke="#666666" points="62,-245.1 0,-245.1 0,-226.1 62,-226.1 62,-245.1"/>
<text text-anchor="middle" x="31" y="-233.1" font-family="Helvetica,sans-Serif" font-size="10.00">PgThread</text>
</a>
</g>
</g>
<!-- Node2 -->
<g id="Node000002" class="node">
<title>Node2</title>
<g id="a_Node000002"><a xlink:href="DataHandlers_2ModbusWithPostgres_2Postgres_8c.html#a5f5041cd700c888724519dddcc5413a0" target="_top" xlink:title="Main PostgreSQL operation loop.">
<polygon fill="white" stroke="#666666" points="152.5,-264.1 105.5,-264.1 105.5,-245.1 152.5,-245.1 152.5,-264.1"/>
<text text-anchor="middle" x="129" y="-252.1" font-family="Helvetica,sans-Serif" font-size="10.00">PgRun</text>
</a>
</g>
</g>
<!-- Node1&#45;&gt;Node2 -->
<g id="edge1_Node000001_Node000002" class="edge">
<title>Node1&#45;&gt;Node2</title>
<g id="a_edge1_Node000001_Node000002"><a xlink:title=" ">
<path fill="none" stroke="#63b8ff" d="M62.11,-241.56C72.7,-243.65 84.63,-246.01 95.41,-248.15"/>
<polygon fill="#63b8ff" stroke="#63b8ff" points="94.82,-251.6 105.31,-250.11 96.18,-244.73 94.82,-251.6"/>
</a>
</g>
</g>
<!-- Node28 -->
<g id="Node000028" class="node">
<title>Node28</title>
<g id="a_Node000028"><a xlink:href="Sdb_8h.html#ae36b72fab20d0c2a64243117597c526b" target="_top" xlink:title=" ">
<polygon fill="white" stroke="#666666" points="160,-227.1 98,-227.1 98,-208.1 160,-208.1 160,-227.1"/>
<text text-anchor="middle" x="129" y="-215.1" font-family="Helvetica,sans-Serif" font-size="10.00">SdbStrErr</text>
</a>
</g>
</g>
<!-- Node1&#45;&gt;Node28 -->
<g id="edge34_Node000001_Node000028" class="edge">
<title>Node1&#45;&gt;Node28</title>
<g id="a_edge34_Node000001_Node000028"><a xlink:title=" ">
<path fill="none" stroke="#63b8ff" d="M62.11,-229.95C70.33,-228.41 79.37,-226.71 88.05,-225.09"/>
<polygon fill="#63b8ff" stroke="#63b8ff" points="88.81,-228.51 98,-223.22 87.52,-221.63 88.81,-228.51"/>
</a>
</g>
</g>
<!-- Node3 -->
<g id="Node000003" class="node">
<title>Node3</title>
<g id="a_Node000003"><a xlink:href="DatabaseSystems_2Postgres_8c.html#a5caf93c93fdc98377097952a04cd7520" target="_top" xlink:title="Initializes thread arenas for PostgreSQL operations.">
<polygon fill="white" stroke="#666666" points="312.5,-433.1 200.5,-433.1 200.5,-414.1 312.5,-414.1 312.5,-433.1"/>
<text text-anchor="middle" x="256.5" y="-421.1" font-family="Helvetica,sans-Serif" font-size="10.00">PgInitThreadArenas</text>
</a>
</g>
</g>
<!-- Node2&#45;&gt;Node3 -->
<g id="edge2_Node000002_Node000003" class="edge">
<title>Node2&#45;&gt;Node3</title>
<g id="a_edge2_Node000002_Node000003"><a xlink:title=" ">
<path fill="none" stroke="#63b8ff" d="M131.4,-264.36C135.74,-291.09 151.51,-366.08 196,-405.6 197.33,-406.78 198.74,-407.88 200.21,-408.92"/>
<polygon fill="#63b8ff" stroke="#63b8ff" points="198.75,-412.12 209.16,-414.07 202.24,-406.05 198.75,-412.12"/>
</a>
</g>
</g>
<!-- Node4 -->
<g id="Node000004" class="node">
<title>Node4</title>
<g id="a_Node000004"><a xlink:href="DatabaseSystems_2Postgres_8c.html#aa7c5ed35f820c0efcccbb4e2f010a980" target="_top" xlink:title="Inserts data into PostgreSQL table using COPY protocol.">
<polygon fill="white" stroke="#666666" points="296.5,-396.1 216.5,-396.1 216.5,-377.1 296.5,-377.1 296.5,-396.1"/>
<text text-anchor="middle" x="256.5" y="-384.1" font-family="Helvetica,sans-Serif" font-size="10.00">PgInsertData</text>
</a>
</g>
</g>
<!-- Node2&#45;&gt;Node4 -->
<g id="edge3_Node000002_Node000004" class="edge">
<title>Node2&#45;&gt;Node4</title>
<g id="a_edge3_Node000002_Node000004"><a xlink:title=" ">
<path fill="none" stroke="#63b8ff" d="M133.52,-264.38C141.48,-285.25 162.8,-334.47 196,-362.6 200.8,-366.66 206.37,-370.1 212.14,-372.99"/>
<polygon fill="#63b8ff" stroke="#63b8ff" points="210.75,-376.2 221.3,-377.09 213.61,-369.81 210.75,-376.2"/>
</a>
</g>
</g>
<!-- Node11 -->
<g id="Node000011" class="node">
<title>Node11</title>
<g id="a_Node000011"><a xlink:href="DatabaseSystems_2Postgres_8c.html#ac1ce839ca0bb2cb91546fd9d00713d8b" target="_top" xlink:title="Prepares PostgreSQL context from configuration.">
<polygon fill="white" stroke="#666666" points="298,-135.1 215,-135.1 215,-116.1 298,-116.1 298,-135.1"/>
<text text-anchor="middle" x="256.5" y="-123.1" font-family="Helvetica,sans-Serif" font-size="10.00">PgPrepareCtx</text>
</a>
</g>
</g>
<!-- Node2&#45;&gt;Node11 -->
<g id="edge14_Node000002_Node000011" class="edge">
<title>Node2&#45;&gt;Node11</title>
<g id="a_edge14_Node000002_Node000011"><a xlink:title=" ">
<path fill="none" stroke="#63b8ff" d="M150.16,-245.05C153.78,-242.67 157.26,-239.85 160,-236.6 188.55,-202.69 163.5,-173.73 196,-143.6 198.82,-140.98 202,-138.75 205.39,-136.84"/>
<polygon fill="#63b8ff" stroke="#63b8ff" points="207.16,-139.88 214.76,-132.5 204.22,-133.53 207.16,-139.88"/>
</a>
</g>
</g>
<!-- Node21 -->
<g id="Node000021" class="node">
<title>Node21</title>
<g id="a_Node000021"><a xlink:href="Sdb_8h.html#aaf34881f50372f5c1932078f4439bc5a" target="_top" xlink:title=" ">
<polygon fill="white" stroke="#666666" points="311.5,-320.1 201.5,-320.1 201.5,-301.1 311.5,-301.1 311.5,-320.1"/>
<text text-anchor="middle" x="256.5" y="-308.1" font-family="Helvetica,sans-Serif" font-size="10.00">SdbArenaBootstrap</text>
</a>
</g>
</g>
<!-- Node2&#45;&gt;Node21 -->
<g id="edge26_Node000002_Node000021" class="edge">
<title>Node2&#45;&gt;Node21</title>
<g id="a_edge26_Node000002_Node000021"><a xlink:title=" ">
<path fill="none" stroke="#63b8ff" d="M144.44,-264.2C157.48,-272.56 177.43,-284.57 196,-292.6 200.35,-294.48 204.96,-296.24 209.62,-297.88"/>
<polygon fill="#63b8ff" stroke="#63b8ff" points="208.56,-301.22 219.16,-301.04 210.77,-294.57 208.56,-301.22"/>
</a>
</g>
</g>
<!-- Node22 -->
<g id="Node000022" class="node">
<title>Node22</title>
<g id="a_Node000022"><a xlink:href="Sdb_8h.html#ab63e953fd90c628d5c0727287df66fab" target="_top" xlink:title=" ">
<polygon fill="white" stroke="#666666" points="296,-283.1 217,-283.1 217,-264.1 296,-264.1 296,-283.1"/>
<text text-anchor="middle" x="256.5" y="-271.1" font-family="Helvetica,sans-Serif" font-size="10.00">SdbArenaInit</text>
</a>
</g>
</g>
<!-- Node2&#45;&gt;Node22 -->
<g id="edge27_Node000002_Node000022" class="edge">
<title>Node2&#45;&gt;Node22</title>
<g id="a_edge27_Node000002_Node000022"><a xlink:title=" ">
<path fill="none" stroke="#63b8ff" d="M152.73,-258.04C167.75,-260.31 188.02,-263.38 206.58,-266.19"/>
<polygon fill="#63b8ff" stroke="#63b8ff" points="206.27,-269.68 216.68,-267.72 207.32,-262.76 206.27,-269.68"/>
</a>
</g>
</g>
<!-- Node23 -->
<g id="Node000023" class="node">
<title>Node23</title>
<g id="a_Node000023"><a xlink:href="Thread_8c.html#a192a33d80a7d463ad237856cdc7343be" target="_top" xlink:title="Wait on a thread barrier.">
<polygon fill="white" stroke="#666666" points="301,-246.1 212,-246.1 212,-227.1 301,-227.1 301,-246.1"/>
<text text-anchor="middle" x="256.5" y="-234.1" font-family="Helvetica,sans-Serif" font-size="10.00">SdbBarrierWait</text>
</a>
</g>
</g>
<!-- Node2&#45;&gt;Node23 -->
<g id="edge28_Node000002_Node000023" class="edge">
<title>Node2&#45;&gt;Node23</title>
<g id="a_edge28_Node000002_Node000023"><a xlink:title=" ">
<path fill="none" stroke="#63b8ff" d="M152.73,-251.34C166.49,-249.36 184.65,-246.76 201.87,-244.29"/>
<polygon fill="#63b8ff" stroke="#63b8ff" points="202.47,-247.74 211.87,-242.85 201.47,-240.81 202.47,-247.74"/>
</a>
</g>
</g>
<!-- Node24 -->
<g id="Node000024" class="node">
<title>Node24</title>
<g id="a_Node000024"><a xlink:href="Signals_8c.html#aca8d19968aa974641e340443ba21e58e" target="_top" xlink:title="Checks if the system should initiate shutdown.">
<polygon fill="white" stroke="#666666" points="314.5,-209.1 198.5,-209.1 198.5,-190.1 314.5,-190.1 314.5,-209.1"/>
<text text-anchor="middle" x="256.5" y="-197.1" font-family="Helvetica,sans-Serif" font-size="10.00">SdbShouldShutdown</text>
</a>
</g>
</g>
<!-- Node2&#45;&gt;Node24 -->
<g id="edge29_Node000002_Node000024" class="edge">
<title>Node2&#45;&gt;Node24</title>
<g id="a_edge29_Node000002_Node000024"><a xlink:title=" ">
<path fill="none" stroke="#63b8ff" d="M145.58,-244.99C158.7,-237.19 178.12,-226.25 196,-218.6 201.11,-216.41 206.56,-214.34 212,-212.42"/>
<polygon fill="#63b8ff" stroke="#63b8ff" points="213.37,-215.66 221.73,-209.15 211.14,-209.02 213.37,-215.66"/>
</a>
</g>
</g>
<!-- Node25 -->
<g id="Node000025" class="node">
<title>Node25</title>
<g id="a_Node000025"><a xlink:href="Time_8c.html#ad3369a427cccb648ad4f30900f4f7c33" target="_top" xlink:title="Get Current Monotonic Timestamp.">
<polygon fill="white" stroke="#666666" points="311.5,-172.1 201.5,-172.1 201.5,-153.1 311.5,-153.1 311.5,-172.1"/>
<text text-anchor="middle" x="256.5" y="-160.1" font-family="Helvetica,sans-Serif" font-size="10.00">SdbTimeMonotonic</text>
</a>
</g>
</g>
<!-- Node2&#45;&gt;Node25 -->
<g id="edge30_Node000002_Node000025" class="edge">
<title>Node2&#45;&gt;Node25</title>
<g id="a_edge30_Node000002_Node000025"><a xlink:title=" ">
<path fill="none" stroke="#63b8ff" d="M149.04,-244.98C152.9,-242.55 156.77,-239.73 160,-236.6 181.24,-216 172.38,-198.42 196,-180.6 197.85,-179.2 199.82,-177.9 201.86,-176.71"/>
<polygon fill="#63b8ff" stroke="#63b8ff" points="203.79,-179.66 211.21,-172.1 200.69,-173.39 203.79,-179.66"/>
</a>
</g>
</g>
<!-- Node26 -->
<g id="Node000026" class="node">
<title>Node26</title>
<g id="a_Node000026"><a xlink:href="Time_8c.html#ab96009a36f9428aa5cb1df4c18e7b50a" target="_top" xlink:title="Calculate Time Difference Between Timestamps.">
<polygon fill="white" stroke="#666666" points="491,-304.1 353,-304.1 353,-285.1 491,-285.1 491,-304.1"/>
<text text-anchor="middle" x="422" y="-292.1" font-family="Helvetica,sans-Serif" font-size="10.00">SdbTimePrintSpecDiffWT</text>
</a>
</g>
</g>
<!-- Node2&#45;&gt;Node26 -->
<g id="edge31_Node000002_Node000026" class="edge">
<title>Node2&#45;&gt;Node26</title>
<g id="a_edge31_Node000002_Node000026"><a xlink:title=" ">
<path fill="none" stroke="#63b8ff" d="M134.91,-264.27C144.16,-281.28 165.97,-316.02 196,-329.6 245,-351.75 264.39,-340.76 317,-329.6 334.13,-325.96 336.52,-319.52 353,-313.6 359.43,-311.28 366.29,-309.07 373.08,-307.04"/>
<polygon fill="#63b8ff" stroke="#63b8ff" points="374.3,-310.33 382.92,-304.18 372.35,-303.61 374.3,-310.33"/>
</a>
</g>
</g>
<!-- Node27 -->
<g id="Node000027" class="node">
<title>Node27</title>
<g id="a_Node000027"><a xlink:href="SensorDataPipe_8c.html#ad89a4144ee5810394cfbba1605639e19" target="_top" xlink:title="Acquire Read Buffer Arena.">
<polygon fill="white" stroke="#666666" points="317,-98.1 196,-98.1 196,-79.1 317,-79.1 317,-98.1"/>
<text text-anchor="middle" x="256.5" y="-86.1" font-family="Helvetica,sans-Serif" font-size="10.00">SdPipeGetReadBuffer</text>
</a>
</g>
</g>
<!-- Node2&#45;&gt;Node27 -->
<g id="edge33_Node000002_Node000027" class="edge">
<title>Node2&#45;&gt;Node27</title>
<g id="a_edge33_Node000002_Node000027"><a xlink:title=" ">
<path fill="none" stroke="#63b8ff" d="M150.73,-245.05C154.21,-242.69 157.5,-239.88 160,-236.6 196.29,-188.88 154.11,-149.49 196,-106.6 196.93,-105.64 197.92,-104.74 198.94,-103.88"/>
<polygon fill="#63b8ff" stroke="#63b8ff" points="201.1,-106.64 207.49,-98.19 197.23,-100.81 201.1,-106.64"/>
</a>
</g>
</g>
<!-- Node5 -->
<g id="Node000005" class="node">
<title>Node5</title>
<g id="a_Node000005"><a xlink:href="Sdb_8h.html#a9b1bdb21ac42d86edd96d53d49da1760" target="_top" xlink:title=" ">
<polygon fill="white" stroke="#666666" points="632.5,-396.1 555.5,-396.1 555.5,-377.1 632.5,-377.1 632.5,-396.1"/>
<text text-anchor="middle" x="594" y="-384.1" font-family="Helvetica,sans-Serif" font-size="10.00">SdbMemcpy</text>
</a>
</g>
</g>
<!-- Node4&#45;&gt;Node5 -->
<g id="edge4_Node000004_Node000005" class="edge">
<title>Node4&#45;&gt;Node5</title>
<g id="a_edge4_Node000004_Node000005"><a xlink:title=" ">
<path fill="none" stroke="#63b8ff" d="M290.92,-396.13C299.53,-398.89 308.7,-402.11 317,-405.6 333.68,-412.6 335.44,-420.25 353,-424.6 412.53,-439.34 430.64,-435.47 491,-424.6 516.73,-419.96 544.44,-409.23 564.48,-400.36"/>
<polygon fill="#63b8ff" stroke="#63b8ff" points="566,-403.51 573.66,-396.18 563.1,-397.14 566,-403.51"/>
</a>
</g>
</g>
<!-- Node6 -->
<g id="Node000006" class="node">
<title>Node6</title>
<g id="a_Node000006"><a xlink:href="DatabaseSystems_2Postgres_8c.html#a9b90329e0cf4324fbe9fcd6b22233e34" target="_top" xlink:title="Writes a 2&#45;byte value in network byte order.">
<polygon fill="white" stroke="#666666" points="446.5,-415.1 397.5,-415.1 397.5,-396.1 446.5,-396.1 446.5,-415.1"/>
<text text-anchor="middle" x="422" y="-403.1" font-family="Helvetica,sans-Serif" font-size="10.00">Write2</text>
</a>
</g>
</g>
<!-- Node4&#45;&gt;Node6 -->
<g id="edge5_Node000004_Node000006" class="edge">
<title>Node4&#45;&gt;Node6</title>
<g id="a_edge5_Node000004_Node000006"><a xlink:title=" ">
<path fill="none" stroke="#63b8ff" d="M296.66,-391.15C324.23,-394.35 360.76,-398.6 387.08,-401.65"/>
<polygon fill="#63b8ff" stroke="#63b8ff" points="386.99,-405.17 397.33,-402.85 387.8,-398.21 386.99,-405.17"/>
</a>
</g>
</g>
<!-- Node7 -->
<g id="Node000007" class="node">
<title>Node7</title>
<g id="a_Node000007"><a xlink:href="DatabaseSystems_2Postgres_8c.html#ab8781f83020464aef1cf9779f072a37f" target="_top" xlink:title=" ">
<polygon fill="white" stroke="#666666" points="446.5,-378.1 397.5,-378.1 397.5,-359.1 446.5,-359.1 446.5,-378.1"/>
<text text-anchor="middle" x="422" y="-366.1" font-family="Helvetica,sans-Serif" font-size="10.00">Write4</text>
</a>
</g>
</g>
<!-- Node4&#45;&gt;Node7 -->
<g id="edge7_Node000004_Node000007" class="edge">
<title>Node4&#45;&gt;Node7</title>
<g id="a_edge7_Node000004_Node000007"><a xlink:title=" ">
<path fill="none" stroke="#63b8ff" d="M296.66,-382.28C324.23,-379.25 360.76,-375.23 387.08,-372.33"/>
<polygon fill="#63b8ff" stroke="#63b8ff" points="387.78,-375.78 397.33,-371.2 387.01,-368.82 387.78,-375.78"/>
</a>
</g>
</g>
<!-- Node8 -->
<g id="Node000008" class="node">
<title>Node8</title>
<g id="a_Node000008"><a xlink:href="DatabaseSystems_2Postgres_8c.html#af07f5759e9e25a2b5a8569ab296897e8" target="_top" xlink:title=" ">
<polygon fill="white" stroke="#666666" points="446.5,-341.1 397.5,-341.1 397.5,-322.1 446.5,-322.1 446.5,-341.1"/>
<text text-anchor="middle" x="422" y="-329.1" font-family="Helvetica,sans-Serif" font-size="10.00">Write8</text>
</a>
</g>
</g>
<!-- Node4&#45;&gt;Node8 -->
<g id="edge9_Node000004_Node000008" class="edge">
<title>Node4&#45;&gt;Node8</title>
<g id="a_edge9_Node000004_Node000008"><a xlink:title=" ">
<path fill="none" stroke="#63b8ff" d="M281.23,-376.98C300.43,-369.37 328.25,-358.7 353,-350.6 364.15,-346.95 376.46,-343.37 387.52,-340.32"/>
<polygon fill="#63b8ff" stroke="#63b8ff" points="388.51,-343.68 397.24,-337.68 386.68,-336.92 388.51,-343.68"/>
</a>
</g>
</g>
<!-- Node9 -->
<g id="Node000009" class="node">
<title>Node9</title>
<g id="a_Node000009"><a xlink:href="DatabaseSystems_2Postgres_8c.html#a8be5b0d3a8c5e012cae2737b1ffa7bff" target="_top" xlink:title=" ">
<polygon fill="white" stroke="#666666" points="471,-491.1 373,-491.1 373,-472.1 471,-472.1 471,-491.1"/>
<text text-anchor="middle" x="422" y="-479.1" font-family="Helvetica,sans-Serif" font-size="10.00">WriteTimestamp</text>
</a>
</g>
</g>
<!-- Node4&#45;&gt;Node9 -->
<g id="edge11_Node000004_Node000009" class="edge">
<title>Node4&#45;&gt;Node9</title>
<g id="a_edge11_Node000004_Node000009"><a xlink:title=" ">
<path fill="none" stroke="#63b8ff" d="M296.74,-395.07C303.89,-397.71 310.99,-401.14 317,-405.6 339.59,-422.32 330.66,-440.53 353,-457.6 358.48,-461.78 364.75,-465.28 371.22,-468.19"/>
<polygon fill="#63b8ff" stroke="#63b8ff" points="370.18,-471.54 380.77,-472.04 372.8,-465.05 370.18,-471.54"/>
</a>
</g>
</g>
<!-- Node6&#45;&gt;Node5 -->
<g id="edge6_Node000006_Node000005" class="edge">
<title>Node6&#45;&gt;Node5</title>
<g id="a_edge6_Node000006_Node000005"><a xlink:title=" ">
<path fill="none" stroke="#63b8ff" d="M446.64,-402.95C471.99,-400.12 512.95,-395.54 545.1,-391.95"/>
<polygon fill="#63b8ff" stroke="#63b8ff" points="545.64,-395.41 555.19,-390.82 544.87,-388.45 545.64,-395.41"/>
</a>
</g>
</g>
<!-- Node7&#45;&gt;Node5 -->
<g id="edge8_Node000007_Node000005" class="edge">
<title>Node7&#45;&gt;Node5</title>
<g id="a_edge8_Node000007_Node000005"><a xlink:title=" ">
<path fill="none" stroke="#63b8ff" d="M446.64,-371.1C471.99,-373.78 512.95,-378.12 545.1,-381.52"/>
<polygon fill="#63b8ff" stroke="#63b8ff" points="544.88,-385.02 555.19,-382.59 545.62,-378.06 544.88,-385.02"/>
</a>
</g>
</g>
<!-- Node8&#45;&gt;Node5 -->
<g id="edge10_Node000008_Node000005" class="edge">
<title>Node8&#45;&gt;Node5</title>
<g id="a_edge10_Node000008_Node000005"><a xlink:title=" ">
<path fill="none" stroke="#63b8ff" d="M446.72,-337.81C459.83,-341.34 476.39,-345.98 491,-350.6 513.52,-357.71 538.53,-366.52 558.14,-373.64"/>
<polygon fill="#63b8ff" stroke="#63b8ff" points="556.99,-376.95 567.59,-377.1 559.4,-370.38 556.99,-376.95"/>
</a>
</g>
</g>
<!-- Node9&#45;&gt;Node5 -->
<g id="edge12_Node000009_Node000005" class="edge">
<title>Node9&#45;&gt;Node5</title>
<g id="a_edge12_Node000009_Node000005"><a xlink:title=" ">
<path fill="none" stroke="#63b8ff" d="M455.57,-472.08C467.05,-468.22 479.86,-463.31 491,-457.6 521.61,-441.91 553.65,-418.23 573.47,-402.59"/>
<polygon fill="#63b8ff" stroke="#63b8ff" points="575.8,-405.21 581.42,-396.23 571.42,-399.74 575.8,-405.21"/>
</a>
</g>
</g>
<!-- Node10 -->
<g id="Node000010" class="node">
<title>Node10</title>
<g id="a_Node000010"><a xlink:href="DatabaseSystems_2Postgres_8c.html#afa67b44da30f50a326b7a120665bc477" target="_top" xlink:title="Converts Unix timestamp to PostgreSQL timestamp.">
<polygon fill="white" stroke="#666666" points="652.5,-491.1 535.5,-491.1 535.5,-472.1 652.5,-472.1 652.5,-491.1"/>
<text text-anchor="middle" x="594" y="-479.1" font-family="Helvetica,sans-Serif" font-size="10.00">UnixToPgTimestamp</text>
</a>
</g>
</g>
<!-- Node9&#45;&gt;Node10 -->
<g id="edge13_Node000009_Node000010" class="edge">
<title>Node9&#45;&gt;Node10</title>
<g id="a_edge13_Node000009_Node000010"><a xlink:title=" ">
<path fill="none" stroke="#63b8ff" d="M471.26,-481.6C488,-481.6 507.08,-481.6 525.1,-481.6"/>
<polygon fill="#63b8ff" stroke="#63b8ff" points="525.27,-485.1 535.27,-481.6 525.27,-478.1 525.27,-485.1"/>
</a>
</g>
</g>
<!-- Node12 -->
<g id="Node000012" class="node">
<title>Node12</title>
<g id="a_Node000012"><a xlink:href="DatabaseInitializer_8c.html#a892f0ebc1700e0aa69bd02dd611e0094" target="_top" xlink:title="Loads and parses a database configuration file.">
<polygon fill="white" stroke="#666666" points="486,-61.1 358,-61.1 358,-42.1 486,-42.1 486,-61.1"/>
<text text-anchor="middle" x="422" y="-49.1" font-family="Helvetica,sans-Serif" font-size="10.00">DbInitGetConfFromFile</text>
</a>
</g>
</g>
<!-- Node11&#45;&gt;Node12 -->
<g id="edge15_Node000011_Node000012" class="edge">
<title>Node11&#45;&gt;Node12</title>
<g id="a_edge15_Node000011_Node000012"><a xlink:title=" ">
<path fill="none" stroke="#63b8ff" d="M296.8,-116.07C303.8,-113.54 310.82,-110.42 317,-106.6 336.51,-94.52 333.19,-81.17 353,-69.6 355.99,-67.85 359.15,-66.27 362.41,-64.84"/>
<polygon fill="#63b8ff" stroke="#63b8ff" points="363.74,-68.08 371.79,-61.19 361.2,-61.55 363.74,-68.08"/>
</a>
</g>
</g>
<!-- Node13 -->
<g id="Node000013" class="node">
<title>Node13</title>
<g id="a_Node000013"><a xlink:href="Sdb_8h.html#a5ee7553cb2684af20d146fcf1cc6538f" target="_top" xlink:title=" ">
<polygon fill="white" stroke="#666666" points="661,-24.1 527,-24.1 527,-5.1 661,-5.1 661,-24.1"/>
<text text-anchor="middle" x="594" y="-12.1" font-family="Helvetica,sans-Serif" font-size="10.00">SdbLoadFileIntoMemory</text>
</a>
</g>
</g>
<!-- Node11&#45;&gt;Node13 -->
<g id="edge21_Node000011_Node000013" class="edge">
<title>Node11&#45;&gt;Node13</title>
<g id="a_edge21_Node000011_Node000013"><a xlink:title=" ">
<path fill="none" stroke="#63b8ff" d="M298.23,-117.47C305.01,-114.81 311.59,-111.28 317,-106.6 344.65,-82.66 322.74,-53.14 353,-32.6 406.31,3.6 482.49,2.72 534.64,-3.71"/>
<polygon fill="#63b8ff" stroke="#63b8ff" points="534.36,-7.2 544.73,-5.05 535.28,-0.26 534.36,-7.2"/>
</a>
</g>
</g>
<!-- Node15 -->
<g id="Node000015" class="node">
<title>Node15</title>
<g id="a_Node000015"><a xlink:href="DatabaseSystems_2Postgres_8c.html#ac6502b8786d53619f0b41e92ec1022de" target="_top" xlink:title=" ">
<polygon fill="white" stroke="#666666" points="475,-248.1 369,-248.1 369,-229.1 475,-229.1 475,-248.1"/>
<text text-anchor="middle" x="422" y="-236.1" font-family="Helvetica,sans-Serif" font-size="10.00">GetTableMetadata</text>
</a>
</g>
</g>
<!-- Node11&#45;&gt;Node15 -->
<g id="edge18_Node000011_Node000015" class="edge">
<title>Node11&#45;&gt;Node15</title>
<g id="a_edge18_Node000011_Node000015"><a xlink:title=" ">
<path fill="none" stroke="#63b8ff" d="M298.15,-133.06C304.94,-135.61 311.54,-139.02 317,-143.6 344.11,-166.33 326.41,-191.26 353,-214.6 357.69,-218.72 363.14,-222.14 368.86,-224.99"/>
<polygon fill="#63b8ff" stroke="#63b8ff" points="367.46,-228.19 378.03,-229 370.27,-221.78 367.46,-228.19"/>
</a>
</g>
</g>
<!-- Node17 -->
<g id="Node000017" class="node">
<title>Node17</title>
<g id="a_Node000017"><a xlink:href="Sdb_8h.html#acd332199b77e76c2b764ef93a7b60439" target="_top" xlink:title=" ">
<polygon fill="white" stroke="#666666" points="638.5,-210.1 549.5,-210.1 549.5,-191.1 638.5,-191.1 638.5,-210.1"/>
<text text-anchor="middle" x="594" y="-198.1" font-family="Helvetica,sans-Serif" font-size="10.00">SdbStringMake</text>
</a>
</g>
</g>
<!-- Node11&#45;&gt;Node17 -->
<g id="edge25_Node000011_Node000017" class="edge">
<title>Node11&#45;&gt;Node17</title>
<g id="a_edge25_Node000011_Node000017"><a xlink:title=" ">
<path fill="none" stroke="#63b8ff" d="M298.06,-134.84C304.64,-137.18 311.19,-140.06 317,-143.6 336.6,-155.52 332.25,-170.8 353,-180.6 412.25,-208.57 488.89,-209.79 539.43,-206.53"/>
<polygon fill="#63b8ff" stroke="#63b8ff" points="539.77,-210.01 549.49,-205.8 539.26,-203.03 539.77,-210.01"/>
</a>
</g>
</g>
<!-- Node18 -->
<g id="Node000018" class="node">
<title>Node18</title>
<g id="a_Node000018"><a xlink:href="Sdb_8h.html#a2f3b726bde5f66a61dee9805406813ee" target="_top" xlink:title=" ">
<polygon fill="white" stroke="#666666" points="472,-172.1 372,-172.1 372,-153.1 472,-153.1 472,-172.1"/>
<text text-anchor="middle" x="422" y="-160.1" font-family="Helvetica,sans-Serif" font-size="10.00">SdbStringAppend</text>
</a>
</g>
</g>
<!-- Node11&#45;&gt;Node18 -->
<g id="edge22_Node000011_Node000018" class="edge">
<title>Node11&#45;&gt;Node18</title>
<g id="a_edge22_Node000011_Node000018"><a xlink:title=" ">
<path fill="none" stroke="#63b8ff" d="M298.34,-134.84C319.76,-139.69 346.23,-145.68 369.09,-150.85"/>
<polygon fill="#63b8ff" stroke="#63b8ff" points="368.45,-154.29 378.98,-153.09 370,-147.47 368.45,-154.29"/>
</a>
</g>
</g>
<!-- Node19 -->
<g id="Node000019" class="node">
<title>Node19</title>
<g id="a_Node000019"><a xlink:href="Sdb_8h.html#a28c30cfe4c8326befba64bf54397bc47" target="_top" xlink:title=" ">
<polygon fill="white" stroke="#666666" points="475.5,-135.1 368.5,-135.1 368.5,-116.1 475.5,-116.1 475.5,-135.1"/>
<text text-anchor="middle" x="422" y="-123.1" font-family="Helvetica,sans-Serif" font-size="10.00">SdbStringAppendC</text>
</a>
</g>
</g>
<!-- Node11&#45;&gt;Node19 -->
<g id="edge23_Node000011_Node000019" class="edge">
<title>Node11&#45;&gt;Node19</title>
<g id="a_edge23_Node000011_Node000019"><a xlink:title=" ">
<path fill="none" stroke="#63b8ff" d="M298.34,-125.6C316.46,-125.6 338.2,-125.6 358.31,-125.6"/>
<polygon fill="#63b8ff" stroke="#63b8ff" points="358.34,-129.1 368.34,-125.6 358.34,-122.1 358.34,-129.1"/>
</a>
</g>
</g>
<!-- Node20 -->
<g id="Node000020" class="node">
<title>Node20</title>
<g id="a_Node000020"><a xlink:href="Sdb_8h.html#af443df2d401ad3eca43919e5cf1a7118" target="_top" xlink:title=" ">
<polygon fill="white" stroke="#666666" points="480,-98.1 364,-98.1 364,-79.1 480,-79.1 480,-98.1"/>
<text text-anchor="middle" x="422" y="-86.1" font-family="Helvetica,sans-Serif" font-size="10.00">SdbStringBackspace</text>
</a>
</g>
</g>
<!-- Node11&#45;&gt;Node20 -->
<g id="edge24_Node000011_Node000020" class="edge">
<title>Node11&#45;&gt;Node20</title>
<g id="a_edge24_Node000011_Node000020"><a xlink:title=" ">
<path fill="none" stroke="#63b8ff" d="M298.34,-116.36C319.76,-111.51 346.23,-105.52 369.09,-100.34"/>
<polygon fill="#63b8ff" stroke="#63b8ff" points="370,-103.73 378.98,-98.11 368.45,-96.9 370,-103.73"/>
</a>
</g>
</g>
<!-- Node12&#45;&gt;Node13 -->
<g id="edge16_Node000012_Node000013" class="edge">
<title>Node12&#45;&gt;Node13</title>
<g id="a_edge16_Node000012_Node000013"><a xlink:title=" ">
<path fill="none" stroke="#63b8ff" d="M466.78,-42.07C488.8,-37.27 515.7,-31.42 539,-26.35"/>
<polygon fill="#63b8ff" stroke="#63b8ff" points="540.05,-29.7 549.07,-24.16 538.56,-22.86 540.05,-29.7"/>
</a>
</g>
</g>
<!-- Node14 -->
<g id="Node000014" class="node">
<title>Node14</title>
<g id="a_Node000014"><a xlink:href="Sdb_8h.html#a7d36f635ee473a12e82ed102ab4597a3" target="_top" xlink:title=" ">
<polygon fill="white" stroke="#666666" points="643,-61.1 545,-61.1 545,-42.1 643,-42.1 643,-61.1"/>
<text text-anchor="middle" x="594" y="-49.1" font-family="Helvetica,sans-Serif" font-size="10.00">SdbScratchBegin</text>
</a>
</g>
</g>
<!-- Node12&#45;&gt;Node14 -->
<g id="edge17_Node000012_Node000014" class="edge">
<title>Node12&#45;&gt;Node14</title>
<g id="a_edge17_Node000012_Node000014"><a xlink:title=" ">
<path fill="none" stroke="#63b8ff" d="M486.3,-51.6C502.18,-51.6 519.13,-51.6 534.75,-51.6"/>
<polygon fill="#63b8ff" stroke="#63b8ff" points="534.79,-55.1 544.79,-51.6 534.79,-48.1 534.79,-55.1"/>
</a>
</g>
</g>
<!-- Node16 -->
<g id="Node000016" class="node">
<title>Node16</title>
<g id="a_Node000016"><a xlink:href="Sdb_8h.html#adb598df288598cf1c13afc15e3f7e6c2" target="_top" xlink:title=" ">
<polygon fill="white" stroke="#666666" points="653.5,-248.1 534.5,-248.1 534.5,-229.1 653.5,-229.1 653.5,-248.1"/>
<text text-anchor="middle" x="594" y="-236.1" font-family="Helvetica,sans-Serif" font-size="10.00">SdbStringAppendFmt</text>
</a>
</g>
</g>
<!-- Node15&#45;&gt;Node16 -->
<g id="edge19_Node000015_Node000016" class="edge">
<title>Node15&#45;&gt;Node16</title>
<g id="a_edge19_Node000015_Node000016"><a xlink:title=" ">
<path fill="none" stroke="#63b8ff" d="M475.39,-238.6C490.82,-238.6 507.94,-238.6 524.24,-238.6"/>
<polygon fill="#63b8ff" stroke="#63b8ff" points="524.25,-242.1 534.25,-238.6 524.25,-235.1 524.25,-242.1"/>
</a>
</g>
</g>
<!-- Node15&#45;&gt;Node17 -->
<g id="edge20_Node000015_Node000017" class="edge">
<title>Node15&#45;&gt;Node17</title>
<g id="a_edge20_Node000015_Node000017"><a xlink:title=" ">
<path fill="none" stroke="#63b8ff" d="M465.9,-229.01C488.53,-223.95 516.5,-217.7 540.43,-212.35"/>
<polygon fill="#63b8ff" stroke="#63b8ff" points="541.41,-215.71 550.41,-210.12 539.89,-208.88 541.41,-215.71"/>
</a>
</g>
</g>
<!-- Node26&#45;&gt;Node5 -->
<g id="edge32_Node000026_Node000005" class="edge">
<title>Node26&#45;&gt;Node5</title>
<g id="a_edge32_Node000026_Node000005"><a xlink:title=" ">
<path fill="none" stroke="#63b8ff" d="M465.91,-304.13C474.43,-306.7 483.15,-309.84 491,-313.6 522.65,-328.76 554.87,-353.76 574.4,-370.2"/>
<polygon fill="#63b8ff" stroke="#63b8ff" points="572.33,-373.03 582.2,-376.88 576.88,-367.72 572.33,-373.03"/>
</a>
</g>
</g>
</g>
</svg>

<g id="navigator" transform="translate(0 0)" fill="#404254">
  <rect fill="#f2f5e9" fill-opacity="0.5" stroke="#606060" stroke-width=".5" x="0" y="0" width="60" height="60"/>
  <use id="zoomplus" xlink:href="#zoomPlus" x="17" y="9" onmousedown="handleZoom(evt,'in')"/>
  <use id="zoomminus" xlink:href="#zoomMin" x="42" y="9" onmousedown="handleZoom(evt,'out')"/>
  <use id="reset" xlink:href="#resetDef" x="30" y="36" onmousedown="handleReset()"/>
   <use id="arrowup" xlink:href="#arrowUp" x="0" y="0" onmousedown="handlePan(0,-1)"/>
  <use id="arrowright" xlink:href="#arrowRight" x="0" y="0" onmousedown="handlePan(1,0)"/>
  <use id="arrowdown" xlink:href="#arrowDown" x="0" y="0" onmousedown="handlePan(0,1)"/>
  <use id="arrowleft" xlink:href="#arrowLeft" x="0" y="0" onmousedown="handlePan(-1,0)"/>
</g>
<svg viewBox="0 0 15 15" width="100%" height="30px" preserveAspectRatio="xMaxYMin meet">
 <g id="arrow_out" transform="scale(0.3 0.3)">
  <a xlink:href="ModbusWithPostgres_8h_a93270e4da545537675777f30acea6b6b_cgraph_org.svg" target="_base">
   <rect id="button" ry="5" rx="5" y="6" x="6" height="38" width="38"
        fill="#f2f5e9" fill-opacity="0.5" stroke="#606060" stroke-width="1.0"/>
   <path id="arrow"
     d="M 11.500037,31.436501 C 11.940474,20.09759 22.043105,11.32322 32.158766,21.979434 L 37.068811,17.246167 C 37.068811,17.246167 37.088388,32 37.088388,32 L 22.160133,31.978069 C 22.160133,31.978069 26.997745,27.140456 26.997745,27.140456 C 18.528582,18.264221 13.291696,25.230495 11.500037,31.436501 z"
     style="fill:#404040;"/>
  </a>
 </g>
</svg>

<style type='text/css'>
<![CDATA[
[data-mouse-over-selected='false'] { opacity: 0.7; }
[data-mouse-over-selected='true']  { opacity: 1.0; }
]]>
</style>
<script type="application/ecmascript"><![CDATA[
document.addEventListener('DOMContentLoaded', (event) => {
  highlightEdges();
  highlightAdjacentNodes();
});
]]></script>
</svg>
