<?xml version="1.0" encoding="UTF-8" standalone="no"?>
<!DOCTYPE svg PUBLIC "-//W3C//DTD SVG 1.1//EN"
 "http://www.w3.org/Graphics/SVG/1.1/DTD/svg11.dtd">
<!-- Generated by graphviz version 2.43.0 (0)
 -->
<!-- Title: MbPgCreateTg Pages: 1 -->
<svg width="453pt" height="288pt"
 viewBox="0.00 0.00 453.00 288.00" xmlns="http://www.w3.org/2000/svg" xmlns:xlink="http://www.w3.org/1999/xlink">
<g id="graph0" class="graph" transform="scale(1 1) rotate(0) translate(4 284)">
<title>MbPgCreateTg</title>
<!-- Node1 -->
<g id="Node000001" class="node">
<title>Node1</title>
<g id="a_Node000001"><a xlink:title="Creates thread group for Modbus&#45;PostgreSQL integration.">
<polygon fill="#999999" stroke="#666666" points="88,-185 0,-185 0,-166 88,-166 88,-185"/>
<text text-anchor="middle" x="44" y="-173" font-family="Helvetica,sans-Serif" font-size="10.00">MbPgCreateTg</text>
</a>
</g>
</g>
<!-- Node2 -->
<g id="Node000002" class="node">
<title>Node2</title>
<g id="a_Node000002"><a xlink:href="DataHandlers_8c.html#afe9e102250a74bffceba672ba91d9368" target="_top" xlink:title="Extracts memory and scratch sizes from JSON configuration.">
<polygon fill="white" stroke="#666666" points="276,-280 124,-280 124,-261 276,-261 276,-280"/>
<text text-anchor="middle" x="200" y="-268" font-family="Helvetica,sans-Serif" font-size="10.00">DhsGetMemAndScratchSize</text>
</a>
</g>
</g>
<!-- Node1&#45;&gt;Node2 -->
<g id="edge1_Node000001_Node000002" class="edge">
<title>Node1&#45;&gt;Node2</title>
<g id="a_edge1_Node000001_Node000002"><a xlink:title=" ">
<path fill="none" stroke="#63b8ff" d="M53.25,-185.18C66.63,-200.32 94.57,-229.61 124,-246.5 131.67,-250.9 140.25,-254.61 148.79,-257.69"/>
<polygon fill="#63b8ff" stroke="#63b8ff" points="147.77,-261.04 158.37,-260.92 150,-254.41 147.77,-261.04"/>
</a>
</g>
</g>
<!-- Node3 -->
<g id="Node000003" class="node">
<title>Node3</title>
<g id="a_Node000003"><a xlink:href="Sdb_8h.html#a3bc1152307e502260c7363261ded3603" target="_top" xlink:title=" ">
<polygon fill="white" stroke="#666666" points="445,-279 312,-279 312,-260 445,-260 445,-279"/>
<text text-anchor="middle" x="378.5" y="-267" font-family="Helvetica,sans-Serif" font-size="10.00">SdbMemSizeFromString</text>
</a>
</g>
</g>
<!-- Node1&#45;&gt;Node3 -->
<g id="edge7_Node000001_Node000003" class="edge">
<title>Node1&#45;&gt;Node3</title>
<g id="a_edge7_Node000001_Node000003"><a xlink:title=" ">
<path fill="none" stroke="#63b8ff" d="M62.08,-185.14C77.76,-193.65 101.85,-205.84 124,-213.5 159.28,-225.7 255.03,-245.55 318.23,-258.05"/>
<polygon fill="#63b8ff" stroke="#63b8ff" points="317.59,-261.49 328.08,-259.99 318.95,-254.63 317.59,-261.49"/>
</a>
</g>
</g>
<!-- Node4 -->
<g id="Node000004" class="node">
<title>Node4</title>
<g id="a_Node000004"><a xlink:href="ModbusWithPostgres_8c.html#a6738c27ba468f4aa7e2039ed83906086" target="_top" xlink:title="Cleanup function for Modbus&#45;PostgreSQL context.">
<polygon fill="white" stroke="#666666" points="241.5,-204 158.5,-204 158.5,-185 241.5,-185 241.5,-204"/>
<text text-anchor="middle" x="200" y="-192" font-family="Helvetica,sans-Serif" font-size="10.00">MbPgCleanup</text>
</a>
</g>
</g>
<!-- Node1&#45;&gt;Node4 -->
<g id="edge3_Node000001_Node000004" class="edge">
<title>Node1&#45;&gt;Node4</title>
<g id="a_edge3_Node000001_Node000004"><a xlink:title=" ">
<path fill="none" stroke="#63b8ff" d="M88.31,-180.84C106.93,-183.14 128.84,-185.84 148.22,-188.24"/>
<polygon fill="#63b8ff" stroke="#63b8ff" points="148.04,-191.74 158.4,-189.49 148.9,-184.79 148.04,-191.74"/>
</a>
</g>
</g>
<!-- Node7 -->
<g id="Node000007" class="node">
<title>Node7</title>
<g id="a_Node000007"><a xlink:href="Thread_8c.html#a6b9ac1c397bc80d499de59fae806cbe1" target="_top" xlink:title="Initialize a thread barrier.">
<polygon fill="white" stroke="#666666" points="241.5,-167 158.5,-167 158.5,-148 241.5,-148 241.5,-167"/>
<text text-anchor="middle" x="200" y="-155" font-family="Helvetica,sans-Serif" font-size="10.00">SdbBarrierInit</text>
</a>
</g>
</g>
<!-- Node1&#45;&gt;Node7 -->
<g id="edge6_Node000001_Node000007" class="edge">
<title>Node1&#45;&gt;Node7</title>
<g id="a_edge6_Node000001_Node000007"><a xlink:title=" ">
<path fill="none" stroke="#63b8ff" d="M88.31,-170.44C106.93,-168.26 128.84,-165.7 148.22,-163.44"/>
<polygon fill="#63b8ff" stroke="#63b8ff" points="148.87,-166.88 158.4,-162.25 148.06,-159.93 148.87,-166.88"/>
</a>
</g>
</g>
<!-- Node8 -->
<g id="Node000008" class="node">
<title>Node8</title>
<g id="a_Node000008"><a xlink:href="SensorDataPipe_8c.html#af2c17a20e06c1a0f02552c36cc2ef0c3" target="_top" xlink:title="Create Sensor Data Pipeline.">
<polygon fill="white" stroke="#666666" points="233.5,-130 166.5,-130 166.5,-111 233.5,-111 233.5,-130"/>
<text text-anchor="middle" x="200" y="-118" font-family="Helvetica,sans-Serif" font-size="10.00">SdpCreate</text>
</a>
</g>
</g>
<!-- Node1&#45;&gt;Node8 -->
<g id="edge8_Node000001_Node000008" class="edge">
<title>Node1&#45;&gt;Node8</title>
<g id="a_edge8_Node000001_Node000008"><a xlink:title=" ">
<path fill="none" stroke="#63b8ff" d="M63.45,-165.95C79.21,-158.07 102.67,-146.99 124,-139.5 134.28,-135.89 145.57,-132.66 156.2,-129.93"/>
<polygon fill="#63b8ff" stroke="#63b8ff" points="157.27,-133.27 166.14,-127.48 155.59,-126.48 157.27,-133.27"/>
</a>
</g>
</g>
<!-- Node13 -->
<g id="Node000013" class="node">
<title>Node13</title>
<g id="a_Node000013"><a xlink:href="ThreadGroup_8c.html#a7b3544a615a6e4b53ca964334bc2a685" target="_top" xlink:title="Create a Thread Group.">
<polygon fill="white" stroke="#666666" points="245,-56 155,-56 155,-37 245,-37 245,-56"/>
<text text-anchor="middle" x="200" y="-44" font-family="Helvetica,sans-Serif" font-size="10.00">TgCreateGroup</text>
</a>
</g>
</g>
<!-- Node1&#45;&gt;Node13 -->
<g id="edge13_Node000001_Node000013" class="edge">
<title>Node1&#45;&gt;Node13</title>
<g id="a_edge13_Node000001_Node000013"><a xlink:title=" ">
<path fill="none" stroke="#63b8ff" d="M54.92,-165.7C69.6,-151.35 98.15,-123.99 124,-102.5 141.34,-88.08 161.92,-72.84 177.13,-61.91"/>
<polygon fill="#63b8ff" stroke="#63b8ff" points="179.29,-64.66 185.4,-56 175.23,-58.96 179.29,-64.66"/>
</a>
</g>
</g>
<!-- Node2&#45;&gt;Node3 -->
<g id="edge2_Node000002_Node000003" class="edge">
<title>Node2&#45;&gt;Node3</title>
<g id="a_edge2_Node000002_Node000003"><a xlink:title=" ">
<path fill="none" stroke="#63b8ff" d="M276.11,-270.07C284.58,-270.03 293.22,-269.98 301.7,-269.93"/>
<polygon fill="#63b8ff" stroke="#63b8ff" points="301.96,-273.43 311.94,-269.87 301.92,-266.43 301.96,-273.43"/>
</a>
</g>
</g>
<!-- Node5 -->
<g id="Node000005" class="node">
<title>Node5</title>
<g id="a_Node000005"><a xlink:href="Thread_8c.html#a9cb4c8bef2fd99915d71913855bbd5c1" target="_top" xlink:title="Deinitialize a thread barrier.">
<polygon fill="white" stroke="#666666" points="427,-241 330,-241 330,-222 427,-222 427,-241"/>
<text text-anchor="middle" x="378.5" y="-229" font-family="Helvetica,sans-Serif" font-size="10.00">SdbBarrierDeinit</text>
</a>
</g>
</g>
<!-- Node4&#45;&gt;Node5 -->
<g id="edge4_Node000004_Node000005" class="edge">
<title>Node4&#45;&gt;Node5</title>
<g id="a_edge4_Node000004_Node000005"><a xlink:title=" ">
<path fill="none" stroke="#63b8ff" d="M241.94,-203.08C265.76,-208.08 296.12,-214.44 322.06,-219.88"/>
<polygon fill="#63b8ff" stroke="#63b8ff" points="321.63,-223.36 332.13,-221.99 323.06,-216.51 321.63,-223.36"/>
</a>
</g>
</g>
<!-- Node6 -->
<g id="Node000006" class="node">
<title>Node6</title>
<g id="a_Node000006"><a xlink:href="SensorDataPipe_8c.html#a6bcca74f25bea60fddde9dbadf2f46e7" target="_top" xlink:title="Destroy Sensor Data Pipeline.">
<polygon fill="white" stroke="#666666" points="415,-204 342,-204 342,-185 415,-185 415,-204"/>
<text text-anchor="middle" x="378.5" y="-192" font-family="Helvetica,sans-Serif" font-size="10.00">SdpDestroy</text>
</a>
</g>
</g>
<!-- Node4&#45;&gt;Node6 -->
<g id="edge5_Node000004_Node000006" class="edge">
<title>Node4&#45;&gt;Node6</title>
<g id="a_edge5_Node000004_Node000006"><a xlink:title=" ">
<path fill="none" stroke="#63b8ff" d="M241.94,-194.5C268.76,-194.5 303.85,-194.5 331.61,-194.5"/>
<polygon fill="#63b8ff" stroke="#63b8ff" points="331.86,-198 341.86,-194.5 331.86,-191 331.86,-198"/>
</a>
</g>
</g>
<!-- Node9 -->
<g id="Node000009" class="node">
<title>Node9</title>
<g id="a_Node000009"><a xlink:href="Sdb_8h.html#aaf34881f50372f5c1932078f4439bc5a" target="_top" xlink:title=" ">
<polygon fill="white" stroke="#666666" points="433.5,-167 323.5,-167 323.5,-148 433.5,-148 433.5,-167"/>
<text text-anchor="middle" x="378.5" y="-155" font-family="Helvetica,sans-Serif" font-size="10.00">SdbArenaBootstrap</text>
</a>
</g>
</g>
<!-- Node8&#45;&gt;Node9 -->
<g id="edge9_Node000008_Node000009" class="edge">
<title>Node8&#45;&gt;Node9</title>
<g id="a_edge9_Node000008_Node000009"><a xlink:title=" ">
<path fill="none" stroke="#63b8ff" d="M233.78,-127.37C258.49,-132.55 292.94,-139.77 321.92,-145.85"/>
<polygon fill="#63b8ff" stroke="#63b8ff" points="321.41,-149.32 331.92,-147.94 322.85,-142.47 321.41,-149.32"/>
</a>
</g>
</g>
<!-- Node10 -->
<g id="Node000010" class="node">
<title>Node10</title>
<g id="a_Node000010"><a xlink:href="Sdb_8h.html#a05ee63d567b60fbc2b9e6732f4154a48" target="_top" xlink:title=" ">
<polygon fill="white" stroke="#666666" points="427.5,-130 329.5,-130 329.5,-111 427.5,-111 427.5,-130"/>
<text text-anchor="middle" x="378.5" y="-118" font-family="Helvetica,sans-Serif" font-size="10.00">SdbArenaGetPos</text>
</a>
</g>
</g>
<!-- Node8&#45;&gt;Node10 -->
<g id="edge10_Node000008_Node000010" class="edge">
<title>Node8&#45;&gt;Node10</title>
<g id="a_edge10_Node000008_Node000010"><a xlink:title=" ">
<path fill="none" stroke="#63b8ff" d="M233.78,-120.5C257.67,-120.5 290.67,-120.5 319.02,-120.5"/>
<polygon fill="#63b8ff" stroke="#63b8ff" points="319.23,-124 329.23,-120.5 319.23,-117 319.23,-124"/>
</a>
</g>
</g>
<!-- Node11 -->
<g id="Node000011" class="node">
<title>Node11</title>
<g id="a_Node000011"><a xlink:href="Sdb_8h.html#ab63e953fd90c628d5c0727287df66fab" target="_top" xlink:title=" ">
<polygon fill="white" stroke="#666666" points="418,-93 339,-93 339,-74 418,-74 418,-93"/>
<text text-anchor="middle" x="378.5" y="-81" font-family="Helvetica,sans-Serif" font-size="10.00">SdbArenaInit</text>
</a>
</g>
</g>
<!-- Node8&#45;&gt;Node11 -->
<g id="edge11_Node000008_Node000011" class="edge">
<title>Node8&#45;&gt;Node11</title>
<g id="a_edge11_Node000008_Node000011"><a xlink:title=" ">
<path fill="none" stroke="#63b8ff" d="M233.78,-113.63C260.48,-108.03 298.55,-100.05 328.8,-93.71"/>
<polygon fill="#63b8ff" stroke="#63b8ff" points="329.67,-97.1 338.74,-91.63 328.23,-90.25 329.67,-97.1"/>
</a>
</g>
</g>
<!-- Node12 -->
<g id="Node000012" class="node">
<title>Node12</title>
<g id="a_Node000012"><a xlink:href="Sdb_8h.html#a9a812984d9d5b96c810aea56d3cb526d" target="_top" xlink:title=" ">
<polygon fill="white" stroke="#666666" points="422,-56 335,-56 335,-37 422,-37 422,-56"/>
<text text-anchor="middle" x="378.5" y="-44" font-family="Helvetica,sans-Serif" font-size="10.00">SdbArenaSeek</text>
</a>
</g>
</g>
<!-- Node8&#45;&gt;Node12 -->
<g id="edge12_Node000008_Node000012" class="edge">
<title>Node8&#45;&gt;Node12</title>
<g id="a_edge12_Node000008_Node000012"><a xlink:title=" ">
<path fill="none" stroke="#63b8ff" d="M217.88,-110.96C239.27,-99.13 277.53,-78.92 312,-65.5 317.94,-63.19 324.27,-61.01 330.58,-59.01"/>
<polygon fill="#63b8ff" stroke="#63b8ff" points="331.85,-62.28 340.4,-56.02 329.81,-55.58 331.85,-62.28"/>
</a>
</g>
</g>
<!-- Node14 -->
<g id="Node000014" class="node">
<title>Node14</title>
<g id="a_Node000014"><a xlink:href="Sdb_8h.html#a9b1bdb21ac42d86edd96d53d49da1760" target="_top" xlink:title=" ">
<polygon fill="white" stroke="#666666" points="417,-19 340,-19 340,0 417,0 417,-19"/>
<text text-anchor="middle" x="378.5" y="-7" font-family="Helvetica,sans-Serif" font-size="10.00">SdbMemcpy</text>
</a>
</g>
</g>
<!-- Node13&#45;&gt;Node14 -->
<g id="edge14_Node000013_Node000014" class="edge">
<title>Node13&#45;&gt;Node14</title>
<g id="a_edge14_Node000013_Node000014"><a xlink:title=" ">
<path fill="none" stroke="#63b8ff" d="M245.08,-37.26C270.98,-31.83 303.71,-24.97 330.15,-19.43"/>
<polygon fill="#63b8ff" stroke="#63b8ff" points="330.88,-22.85 339.95,-17.37 329.44,-16 330.88,-22.85"/>
</a>
</g>
</g>
</g>
</svg>
