<?xml version="1.0" encoding="UTF-8" standalone="no"?>
<!DOCTYPE svg PUBLIC "-//W3C//DTD SVG 1.1//EN"
 "http://www.w3.org/Graphics/SVG/1.1/DTD/svg11.dtd">
<!-- Generated by graphviz version 2.43.0 (0)
 -->
<!-- Title: MbPgCleanup Pages: 1 -->
<svg width="224pt" height="66pt"
 viewBox="0.00 0.00 224.00 66.00" xmlns="http://www.w3.org/2000/svg" xmlns:xlink="http://www.w3.org/1999/xlink">
<g id="graph0" class="graph" transform="scale(1 1) rotate(0) translate(4 62)">
<title>MbPgCleanup</title>
<polygon fill="white" stroke="transparent" points="-4,4 -4,-62 220,-62 220,4 -4,4"/>
<!-- Node1 -->
<g id="node1" class="node">
<title>Node1</title>
<g id="a_node1"><a xlink:title="Cleanup function for Modbus&#45;PostgreSQL context.">
<polygon fill="#bfbfbf" stroke="black" points="0,-19.5 0,-38.5 83,-38.5 83,-19.5 0,-19.5"/>
<text text-anchor="middle" x="41.5" y="-26.5" font-family="Helvetica,sans-Serif" font-size="10.00">MbPgCleanup</text>
</a>
</g>
</g>
<!-- Node2 -->
<g id="node2" class="node">
<title>Node2</title>
<g id="a_node2"><a xlink:href="Thread_8c.html#a9cb4c8bef2fd99915d71913855bbd5c1" target="_top" xlink:title="Deinitialize a thread barrier.">
<polygon fill="white" stroke="black" points="119,-38.5 119,-57.5 216,-57.5 216,-38.5 119,-38.5"/>
<text text-anchor="middle" x="167.5" y="-45.5" font-family="Helvetica,sans-Serif" font-size="10.00">SdbBarrierDeinit</text>
</a>
</g>
</g>
<!-- Node1&#45;&gt;Node2 -->
<g id="edge1" class="edge">
<title>Node1&#45;&gt;Node2</title>
<path fill="none" stroke="midnightblue" d="M83.1,-35.22C91.33,-36.48 100.12,-37.83 108.81,-39.16"/>
<polygon fill="midnightblue" stroke="midnightblue" points="108.49,-42.65 118.91,-40.71 109.55,-35.73 108.49,-42.65"/>
</g>
<!-- Node3 -->
<g id="node3" class="node">
<title>Node3</title>
<g id="a_node3"><a xlink:href="SensorDataPipe_8c.html#a6bcca74f25bea60fddde9dbadf2f46e7" target="_top" xlink:title="Destroy Sensor Data Pipeline.">
<polygon fill="white" stroke="black" points="131,-0.5 131,-19.5 204,-19.5 204,-0.5 131,-0.5"/>
<text text-anchor="middle" x="167.5" y="-7.5" font-family="Helvetica,sans-Serif" font-size="10.00">SdpDestroy</text>
</a>
</g>
</g>
<!-- Node1&#45;&gt;Node3 -->
<g id="edge2" class="edge">
<title>Node1&#45;&gt;Node3</title>
<path fill="none" stroke="midnightblue" d="M83.1,-22.78C95.13,-20.94 108.39,-18.9 120.72,-17.01"/>
<polygon fill="midnightblue" stroke="midnightblue" points="121.46,-20.44 130.82,-15.47 120.4,-13.52 121.46,-20.44"/>
</g>
</g>
</svg>
