<?xml version="1.0" encoding="UTF-8" standalone="no"?>
<!DOCTYPE svg PUBLIC "-//W3C//DTD SVG 1.1//EN"
 "http://www.w3.org/Graphics/SVG/1.1/DTD/svg11.dtd">
<!-- Generated by graphviz version 2.43.0 (0)
 -->
<!-- Title: RunModbusTestServer Pages: 1 -->
<svg width="501pt" height="156pt"
 viewBox="0.00 0.00 501.00 156.00" xmlns="http://www.w3.org/2000/svg" xmlns:xlink="http://www.w3.org/1999/xlink">
<g id="graph0" class="graph" transform="scale(1 1) rotate(0) translate(4 152)">
<title>RunModbusTestServer</title>
<!-- Node1 -->
<g id="Node000001" class="node">
<title>Node1</title>
<g id="a_Node000001"><a xlink:title="Runs the Modbus Test Server.">
<polygon fill="#999999" stroke="#666666" points="125,-92 0,-92 0,-73 125,-73 125,-92"/>
<text text-anchor="middle" x="62.5" y="-80" font-family="Helvetica,sans-Serif" font-size="10.00">RunModbusTestServer</text>
</a>
</g>
</g>
<!-- Node2 -->
<g id="Node000002" class="node">
<title>Node2</title>
<g id="a_Node000002"><a xlink:href="Thread_8c.html#a192a33d80a7d463ad237856cdc7343be" target="_top" xlink:title="Wait on a thread barrier.">
<polygon fill="white" stroke="#666666" points="263.5,-148 174.5,-148 174.5,-129 263.5,-129 263.5,-148"/>
<text text-anchor="middle" x="219" y="-136" font-family="Helvetica,sans-Serif" font-size="10.00">SdbBarrierWait</text>
</a>
</g>
</g>
<!-- Node1&#45;&gt;Node2 -->
<g id="edge1_Node000001_Node000002" class="edge">
<title>Node1&#45;&gt;Node2</title>
<g id="a_edge1_Node000001_Node000002"><a xlink:title=" ">
<path fill="none" stroke="#63b8ff" d="M86.98,-92.15C106.63,-100.11 135.47,-111.5 161,-120.5 166.14,-122.31 171.57,-124.14 176.95,-125.89"/>
<polygon fill="#63b8ff" stroke="#63b8ff" points="175.93,-129.24 186.52,-128.97 178.07,-122.58 175.93,-129.24"/>
</a>
</g>
</g>
<!-- Node3 -->
<g id="Node000003" class="node">
<title>Node3</title>
<g id="a_Node000003"><a xlink:href="Sdb_8h.html#a2758760564fc0044b9f6c9aee290a7fe" target="_top" xlink:title=" ">
<polygon fill="white" stroke="#666666" points="256,-111 182,-111 182,-92 256,-92 256,-111"/>
<text text-anchor="middle" x="219" y="-99" font-family="Helvetica,sans-Serif" font-size="10.00">SdbMemset</text>
</a>
</g>
</g>
<!-- Node1&#45;&gt;Node3 -->
<g id="edge2_Node000001_Node000003" class="edge">
<title>Node1&#45;&gt;Node3</title>
<g id="a_edge2_Node000001_Node000003"><a xlink:title=" ">
<path fill="none" stroke="#63b8ff" d="M125.01,-90.06C140.45,-91.96 156.76,-93.97 171.34,-95.76"/>
<polygon fill="#63b8ff" stroke="#63b8ff" points="171.26,-99.28 181.61,-97.03 172.12,-92.33 171.26,-99.28"/>
</a>
</g>
</g>
<!-- Node4 -->
<g id="Node000004" class="node">
<title>Node4</title>
<g id="a_Node000004"><a xlink:href="Signals_8c.html#aca8d19968aa974641e340443ba21e58e" target="_top" xlink:title="Checks if the system should initiate shutdown.">
<polygon fill="white" stroke="#666666" points="277,-74 161,-74 161,-55 277,-55 277,-74"/>
<text text-anchor="middle" x="219" y="-62" font-family="Helvetica,sans-Serif" font-size="10.00">SdbShouldShutdown</text>
</a>
</g>
</g>
<!-- Node1&#45;&gt;Node4 -->
<g id="edge3_Node000001_Node000004" class="edge">
<title>Node1&#45;&gt;Node4</title>
<g id="a_edge3_Node000001_Node000004"><a xlink:title=" ">
<path fill="none" stroke="#63b8ff" d="M125.01,-75.33C133.47,-74.35 142.21,-73.33 150.77,-72.33"/>
<polygon fill="#63b8ff" stroke="#63b8ff" points="151.19,-75.81 160.72,-71.17 150.38,-68.85 151.19,-75.81"/>
</a>
</g>
</g>
<!-- Node5 -->
<g id="Node000005" class="node">
<title>Node5</title>
<g id="a_Node000005"><a xlink:href="ModbusTestServer_8c.html#a562277af51f78c8939feeb4d33925307" target="_top" xlink:title="Sends Modbus data over a socket.">
<polygon fill="white" stroke="#666666" points="270,-37 168,-37 168,-18 270,-18 270,-37"/>
<text text-anchor="middle" x="219" y="-25" font-family="Helvetica,sans-Serif" font-size="10.00">SendModbusData</text>
</a>
</g>
</g>
<!-- Node1&#45;&gt;Node5 -->
<g id="edge4_Node000001_Node000005" class="edge">
<title>Node1&#45;&gt;Node5</title>
<g id="a_edge4_Node000001_Node000005"><a xlink:title=" ">
<path fill="none" stroke="#63b8ff" d="M88.67,-72.95C108.31,-65.57 136.31,-55.17 161,-46.5 166.74,-44.49 172.82,-42.4 178.79,-40.39"/>
<polygon fill="#63b8ff" stroke="#63b8ff" points="180.28,-43.58 188.65,-37.08 178.05,-36.94 180.28,-43.58"/>
</a>
</g>
</g>
<!-- Node6 -->
<g id="Node000006" class="node">
<title>Node6</title>
<g id="a_Node000006"><a xlink:href="ModbusTestServer_8c.html#aa39b29a317e07f044b7bac56db0e18b1" target="_top" xlink:title="Generates random shaft power data.">
<polygon fill="white" stroke="#666666" points="493,-56 313,-56 313,-37 493,-37 493,-56"/>
<text text-anchor="middle" x="403" y="-44" font-family="Helvetica,sans-Serif" font-size="10.00">GenerateShaftPowerDataRandom</text>
</a>
</g>
</g>
<!-- Node5&#45;&gt;Node6 -->
<g id="edge5_Node000005_Node000006" class="edge">
<title>Node5&#45;&gt;Node6</title>
<g id="a_edge5_Node000005_Node000006"><a xlink:title=" ">
<path fill="none" stroke="#63b8ff" d="M270.21,-32.74C280.47,-33.81 291.59,-34.97 302.89,-36.15"/>
<polygon fill="#63b8ff" stroke="#63b8ff" points="302.53,-39.63 312.83,-37.19 303.25,-32.67 302.53,-39.63"/>
</a>
</g>
</g>
<!-- Node7 -->
<g id="Node000007" class="node">
<title>Node7</title>
<g id="a_Node000007"><a xlink:href="Sdb_8h.html#a9b1bdb21ac42d86edd96d53d49da1760" target="_top" xlink:title=" ">
<polygon fill="white" stroke="#666666" points="441.5,-19 364.5,-19 364.5,0 441.5,0 441.5,-19"/>
<text text-anchor="middle" x="403" y="-7" font-family="Helvetica,sans-Serif" font-size="10.00">SdbMemcpy</text>
</a>
</g>
</g>
<!-- Node5&#45;&gt;Node7 -->
<g id="edge6_Node000005_Node000007" class="edge">
<title>Node5&#45;&gt;Node7</title>
<g id="a_edge6_Node000005_Node000007"><a xlink:title=" ">
<path fill="none" stroke="#63b8ff" d="M270.21,-22.53C296.5,-19.93 328.51,-16.77 354.4,-14.21"/>
<polygon fill="#63b8ff" stroke="#63b8ff" points="354.76,-17.69 364.36,-13.22 354.07,-10.72 354.76,-17.69"/>
</a>
</g>
</g>
</g>
</svg>
