<?xml version="1.0" encoding="UTF-8" standalone="no"?>
<!DOCTYPE svg PUBLIC "-//W3C//DTD SVG 1.1//EN"
 "http://www.w3.org/Graphics/SVG/1.1/DTD/svg11.dtd">
<!-- Generated by graphviz version 2.43.0 (0)
 -->
<!-- Title: SendModbusData Pages: 1 -->
<svg width="326pt" height="66pt"
 viewBox="0.00 0.00 326.00 66.00" xmlns="http://www.w3.org/2000/svg" xmlns:xlink="http://www.w3.org/1999/xlink">
<g id="graph0" class="graph" transform="scale(1 1) rotate(0) translate(4 62)">
<title>SendModbusData</title>
<polygon fill="white" stroke="transparent" points="-4,4 -4,-62 322,-62 322,4 -4,4"/>
<!-- Node1 -->
<g id="node1" class="node">
<title>Node1</title>
<g id="a_node1"><a xlink:title="Sends Modbus data over a socket.">
<polygon fill="#bfbfbf" stroke="black" points="0,-19.5 0,-38.5 102,-38.5 102,-19.5 0,-19.5"/>
<text text-anchor="middle" x="51" y="-26.5" font-family="Helvetica,sans-Serif" font-size="10.00">SendModbusData</text>
</a>
</g>
</g>
<!-- Node2 -->
<g id="node2" class="node">
<title>Node2</title>
<g id="a_node2"><a xlink:href="ModbusTestServer_8c.html#aa39b29a317e07f044b7bac56db0e18b1" target="_top" xlink:title="Generates random shaft power data.">
<polygon fill="white" stroke="black" points="138,-38.5 138,-57.5 318,-57.5 318,-38.5 138,-38.5"/>
<text text-anchor="middle" x="228" y="-45.5" font-family="Helvetica,sans-Serif" font-size="10.00">GenerateShaftPowerDataRandom</text>
</a>
</g>
</g>
<!-- Node1&#45;&gt;Node2 -->
<g id="edge1" class="edge">
<title>Node1&#45;&gt;Node2</title>
<path fill="none" stroke="midnightblue" d="M102.15,-34.44C110.75,-35.38 119.95,-36.38 129.3,-37.39"/>
<polygon fill="midnightblue" stroke="midnightblue" points="129.18,-40.9 139.5,-38.5 129.93,-33.94 129.18,-40.9"/>
</g>
<!-- Node3 -->
<g id="node3" class="node">
<title>Node3</title>
<g id="a_node3"><a xlink:href="Sdb_8h.html#ac5c7c1054a5f2110db33fbaf02ee3875" target="_top" xlink:title=" ">
<polygon fill="white" stroke="black" points="189.5,-0.5 189.5,-19.5 266.5,-19.5 266.5,-0.5 189.5,-0.5"/>
<text text-anchor="middle" x="228" y="-7.5" font-family="Helvetica,sans-Serif" font-size="10.00">SdbMemcpy</text>
</a>
</g>
</g>
<!-- Node1&#45;&gt;Node3 -->
<g id="edge2" class="edge">
<title>Node1&#45;&gt;Node3</title>
<path fill="none" stroke="midnightblue" d="M102.15,-23.56C126.34,-20.93 155.23,-17.79 179.12,-15.2"/>
<polygon fill="midnightblue" stroke="midnightblue" points="179.8,-18.65 189.36,-14.09 179.05,-11.69 179.8,-18.65"/>
</g>
</g>
</svg>
