<?xml version="1.0" encoding="UTF-8" standalone="no"?>
<!DOCTYPE svg PUBLIC "-//W3C//DTD SVG 1.1//EN"
 "http://www.w3.org/Graphics/SVG/1.1/DTD/svg11.dtd">
<!-- Generated by graphviz version 2.43.0 (0)
 -->
<!-- Title: GenerateShaftPowerDataRandom Pages: 1 -->
<svg width="618pt" height="28pt"
 viewBox="0.00 0.00 618.00 28.00" xmlns="http://www.w3.org/2000/svg" xmlns:xlink="http://www.w3.org/1999/xlink">
<g id="graph0" class="graph" transform="scale(1 1) rotate(0) translate(4 24)">
<title>GenerateShaftPowerDataRandom</title>
<polygon fill="white" stroke="transparent" points="-4,4 -4,-24 614,-24 614,4 -4,4"/>
<!-- Node1 -->
<g id="node1" class="node">
<title>Node1</title>
<g id="a_node1"><a xlink:title="Generates random shaft power data.">
<polygon fill="#bfbfbf" stroke="black" points="430,-0.5 430,-19.5 610,-19.5 610,-0.5 430,-0.5"/>
<text text-anchor="middle" x="520" y="-7.5" font-family="Helvetica,sans-Serif" font-size="10.00">GenerateShaftPowerDataRandom</text>
</a>
</g>
</g>
<!-- Node2 -->
<g id="node2" class="node">
<title>Node2</title>
<g id="a_node2"><a xlink:href="ModbusTestServer_8c.html#a562277af51f78c8939feeb4d33925307" target="_top" xlink:title="Sends Modbus data over a socket.">
<polygon fill="white" stroke="black" points="292,-0.5 292,-19.5 394,-19.5 394,-0.5 292,-0.5"/>
<text text-anchor="middle" x="343" y="-7.5" font-family="Helvetica,sans-Serif" font-size="10.00">SendModbusData</text>
</a>
</g>
</g>
<!-- Node1&#45;&gt;Node2 -->
<g id="edge1" class="edge">
<title>Node1&#45;&gt;Node2</title>
<path fill="none" stroke="midnightblue" d="M419.88,-10C410.99,-10 402.27,-10 394.08,-10"/>
<polygon fill="midnightblue" stroke="midnightblue" points="419.96,-13.5 429.96,-10 419.96,-6.5 419.96,-13.5"/>
</g>
<!-- Node3 -->
<g id="node3" class="node">
<title>Node3</title>
<g id="a_node3"><a xlink:href="ModbusTestServer_8c.html#a0b60204e0a9d1577d141cdc21367ac70" target="_top" xlink:title="Main Modbus Test Server routine.">
<polygon fill="white" stroke="black" points="131,-0.5 131,-19.5 256,-19.5 256,-0.5 131,-0.5"/>
<text text-anchor="middle" x="193.5" y="-7.5" font-family="Helvetica,sans-Serif" font-size="10.00">RunModbusTestServer</text>
</a>
</g>
</g>
<!-- Node2&#45;&gt;Node3 -->
<g id="edge2" class="edge">
<title>Node2&#45;&gt;Node3</title>
<path fill="none" stroke="midnightblue" d="M281.56,-10C273.16,-10 264.52,-10 256.11,-10"/>
<polygon fill="midnightblue" stroke="midnightblue" points="281.65,-13.5 291.65,-10 281.65,-6.5 281.65,-13.5"/>
</g>
<!-- Node4 -->
<g id="node4" class="node">
<title>Node4</title>
<g id="a_node4"><a xlink:href="ModbusWithPostgres_8c.html#a95ff30564606583a3d26294e2d8dbad1" target="_top" xlink:title="Modbus test server thread.">
<polygon fill="white" stroke="black" points="0,-0.5 0,-19.5 95,-19.5 95,-0.5 0,-0.5"/>
<text text-anchor="middle" x="47.5" y="-7.5" font-family="Helvetica,sans-Serif" font-size="10.00">MbPgTestServer</text>
</a>
</g>
</g>
<!-- Node3&#45;&gt;Node4 -->
<g id="edge3" class="edge">
<title>Node3&#45;&gt;Node4</title>
<path fill="none" stroke="midnightblue" d="M120.5,-10C111.88,-10 103.26,-10 95.13,-10"/>
<polygon fill="midnightblue" stroke="midnightblue" points="120.6,-13.5 130.6,-10 120.6,-6.5 120.6,-13.5"/>
</g>
</g>
</svg>
