<?xml version="1.0" encoding="UTF-8" standalone="no"?>
<!DOCTYPE svg PUBLIC "-//W3C//DTD SVG 1.1//EN"
 "http://www.w3.org/Graphics/SVG/1.1/DTD/svg11.dtd">
<!-- Generated by graphviz version 2.43.0 (0)
 -->
<!-- Title: MbThread Pages: 1 -->
<svg width="623pt" height="484pt"
 viewBox="0.00 0.00 623.00 484.00" xmlns="http://www.w3.org/2000/svg" xmlns:xlink="http://www.w3.org/1999/xlink">
<g id="graph0" class="graph" transform="scale(1 1) rotate(0) translate(4 480)">
<title>MbThread</title>
<polygon fill="white" stroke="transparent" points="-4,4 -4,-480 619,-480 619,4 -4,4"/>
<!-- Node1 -->
<g id="node1" class="node">
<title>Node1</title>
<g id="a_node1"><a xlink:title="Modbus thread function.">
<polygon fill="#bfbfbf" stroke="black" points="0,-209.5 0,-228.5 65,-228.5 65,-209.5 0,-209.5"/>
<text text-anchor="middle" x="32.5" y="-216.5" font-family="Helvetica,sans-Serif" font-size="10.00">MbThread</text>
</a>
</g>
</g>
<!-- Node2 -->
<g id="node2" class="node">
<title>Node2</title>
<g id="a_node2"><a xlink:href="DataHandlers_2ModbusWithPostgres_2Modbus_8c.html#ac42f810b60d139ab2f82c4146710d721" target="_top" xlink:title="Implements main Modbus thread loop.">
<polygon fill="white" stroke="black" points="107,-228.5 107,-247.5 157,-247.5 157,-228.5 107,-228.5"/>
<text text-anchor="middle" x="132" y="-235.5" font-family="Helvetica,sans-Serif" font-size="10.00">MbRun</text>
</a>
</g>
</g>
<!-- Node1&#45;&gt;Node2 -->
<g id="edge1" class="edge">
<title>Node1&#45;&gt;Node2</title>
<path fill="none" stroke="midnightblue" d="M65.16,-225.17C75.33,-227.15 86.64,-229.36 96.98,-231.37"/>
<polygon fill="midnightblue" stroke="midnightblue" points="96.43,-234.83 106.92,-233.31 97.77,-227.96 96.43,-234.83"/>
</g>
<!-- Node22 -->
<g id="node22" class="node">
<title>Node22</title>
<g id="a_node22"><a xlink:href="Sdb_8h.html#a6d72cd06f56898ea5a6d8e78b60888ba" target="_top" xlink:title=" ">
<polygon fill="white" stroke="black" points="101,-190.5 101,-209.5 163,-209.5 163,-190.5 101,-190.5"/>
<text text-anchor="middle" x="132" y="-197.5" font-family="Helvetica,sans-Serif" font-size="10.00">SdbStrErr</text>
</a>
</g>
</g>
<!-- Node1&#45;&gt;Node22 -->
<g id="edge23" class="edge">
<title>Node1&#45;&gt;Node22</title>
<path fill="none" stroke="midnightblue" d="M65.16,-212.83C73.39,-211.23 82.37,-209.48 90.97,-207.8"/>
<polygon fill="midnightblue" stroke="midnightblue" points="91.68,-211.23 100.83,-205.88 90.34,-204.36 91.68,-211.23"/>
</g>
<!-- Node3 -->
<g id="node3" class="node">
<title>Node3</title>
<g id="a_node3"><a xlink:href="CommProtocols_2Modbus_8c.html#a9e87a7f171eca6b73f1fe05e833d46bb" target="_top" xlink:title="Parses a Modbus TCP frame into its components.">
<polygon fill="white" stroke="black" points="215,-456.5 215,-475.5 319,-475.5 319,-456.5 215,-456.5"/>
<text text-anchor="middle" x="267" y="-463.5" font-family="Helvetica,sans-Serif" font-size="10.00">MbParseTcpFrame</text>
</a>
</g>
</g>
<!-- Node2&#45;&gt;Node3 -->
<g id="edge2" class="edge">
<title>Node2&#45;&gt;Node3</title>
<path fill="none" stroke="midnightblue" d="M133.01,-247.52C133.59,-280.32 140.03,-389.75 199,-447 201.11,-449.05 203.43,-450.89 205.9,-452.53"/>
<polygon fill="midnightblue" stroke="midnightblue" points="204.31,-455.65 214.76,-457.38 207.67,-449.51 204.31,-455.65"/>
</g>
<!-- Node4 -->
<g id="node4" class="node">
<title>Node4</title>
<g id="a_node4"><a xlink:href="CommProtocols_2Modbus_8c.html#ad8cd921b4b7d4e15fd1d4e6fef74aabd" target="_top" xlink:title="Prepares Modbus context from configuration file.">
<polygon fill="white" stroke="black" points="224,-418.5 224,-437.5 310,-437.5 310,-418.5 224,-418.5"/>
<text text-anchor="middle" x="267" y="-425.5" font-family="Helvetica,sans-Serif" font-size="10.00">MbPrepareCtx</text>
</a>
</g>
</g>
<!-- Node2&#45;&gt;Node4 -->
<g id="edge3" class="edge">
<title>Node2&#45;&gt;Node4</title>
<path fill="none" stroke="midnightblue" d="M133.8,-247.8C136.72,-276.93 149.39,-363.76 199,-409 203.46,-413.07 208.74,-416.28 214.34,-418.8"/>
<polygon fill="midnightblue" stroke="midnightblue" points="213.38,-422.18 223.98,-422.43 215.85,-415.63 213.38,-422.18"/>
</g>
<!-- Node9 -->
<g id="node9" class="node">
<title>Node9</title>
<g id="a_node9"><a xlink:href="CommProtocols_2Modbus_8c.html#a958797e9ec7e41e215bebd4d2fd91513" target="_top" xlink:title="Initializes thread arenas for Modbus operations.">
<polygon fill="white" stroke="black" points="209.5,-380.5 209.5,-399.5 324.5,-399.5 324.5,-380.5 209.5,-380.5"/>
<text text-anchor="middle" x="267" y="-387.5" font-family="Helvetica,sans-Serif" font-size="10.00">MbThreadArenasInit</text>
</a>
</g>
</g>
<!-- Node2&#45;&gt;Node9 -->
<g id="edge8" class="edge">
<title>Node2&#45;&gt;Node9</title>
<path fill="none" stroke="midnightblue" d="M134.98,-247.71C140.48,-272.26 158.35,-337.23 199,-371 201.03,-372.69 203.21,-374.23 205.49,-375.63"/>
<polygon fill="midnightblue" stroke="midnightblue" points="204.21,-378.91 214.7,-380.4 207.43,-372.69 204.21,-378.91"/>
</g>
<!-- Node10 -->
<g id="node10" class="node">
<title>Node10</title>
<g id="a_node10"><a xlink:href="Sdb_8h.html#a132f10c44fe9dab28a9fae8839c099ad" target="_top" xlink:title=" ">
<polygon fill="white" stroke="black" points="212,-342.5 212,-361.5 322,-361.5 322,-342.5 212,-342.5"/>
<text text-anchor="middle" x="267" y="-349.5" font-family="Helvetica,sans-Serif" font-size="10.00">SdbArenaBootstrap</text>
</a>
</g>
</g>
<!-- Node2&#45;&gt;Node10 -->
<g id="edge9" class="edge">
<title>Node2&#45;&gt;Node10</title>
<path fill="none" stroke="midnightblue" d="M137.58,-247.61C146.74,-265.84 169.03,-305.64 199,-328 204.59,-332.17 210.97,-335.67 217.52,-338.59"/>
<polygon fill="midnightblue" stroke="midnightblue" points="216.59,-341.98 227.17,-342.46 219.2,-335.49 216.59,-341.98"/>
</g>
<!-- Node11 -->
<g id="node11" class="node">
<title>Node11</title>
<g id="a_node11"><a xlink:href="Sdb_8h.html#a05ee63d567b60fbc2b9e6732f4154a48" target="_top" xlink:title=" ">
<polygon fill="white" stroke="black" points="389,-200.5 389,-219.5 487,-219.5 487,-200.5 389,-200.5"/>
<text text-anchor="middle" x="438" y="-207.5" font-family="Helvetica,sans-Serif" font-size="10.00">SdbArenaGetPos</text>
</a>
</g>
</g>
<!-- Node2&#45;&gt;Node11 -->
<g id="edge10" class="edge">
<title>Node2&#45;&gt;Node11</title>
<path fill="none" stroke="midnightblue" d="M140.24,-247.58C151.21,-261.18 173.46,-285.5 199,-295 255.65,-316.08 278.17,-315.58 335,-295 372.15,-281.55 405.27,-248.01 423.11,-227.31"/>
<polygon fill="midnightblue" stroke="midnightblue" points="425.85,-229.49 429.59,-219.57 420.48,-225 425.85,-229.49"/>
</g>
<!-- Node12 -->
<g id="node12" class="node">
<title>Node12</title>
<g id="a_node12"><a xlink:href="Sdb_8h.html#ab63e953fd90c628d5c0727287df66fab" target="_top" xlink:title=" ">
<polygon fill="white" stroke="black" points="227.5,-266.5 227.5,-285.5 306.5,-285.5 306.5,-266.5 227.5,-266.5"/>
<text text-anchor="middle" x="267" y="-273.5" font-family="Helvetica,sans-Serif" font-size="10.00">SdbArenaInit</text>
</a>
</g>
</g>
<!-- Node2&#45;&gt;Node12 -->
<g id="edge11" class="edge">
<title>Node2&#45;&gt;Node12</title>
<path fill="none" stroke="midnightblue" d="M157.13,-244.97C169.62,-248.57 185.13,-253.04 199,-257 206.6,-259.17 214.69,-261.47 222.52,-263.7"/>
<polygon fill="midnightblue" stroke="midnightblue" points="221.68,-267.1 232.25,-266.46 223.59,-260.36 221.68,-267.1"/>
</g>
<!-- Node13 -->
<g id="node13" class="node">
<title>Node13</title>
<g id="a_node13"><a xlink:href="Sdb_8h.html#a99992a234eafd2bc02fe59561c4beb35" target="_top" xlink:title=" ">
<polygon fill="white" stroke="black" points="224,-228.5 224,-247.5 310,-247.5 310,-228.5 224,-228.5"/>
<text text-anchor="middle" x="267" y="-235.5" font-family="Helvetica,sans-Serif" font-size="10.00">SdbArenaPush</text>
</a>
</g>
</g>
<!-- Node2&#45;&gt;Node13 -->
<g id="edge12" class="edge">
<title>Node2&#45;&gt;Node13</title>
<path fill="none" stroke="midnightblue" d="M157.09,-238C172.89,-238 194.19,-238 213.76,-238"/>
<polygon fill="midnightblue" stroke="midnightblue" points="213.8,-241.5 223.8,-238 213.8,-234.5 213.8,-241.5"/>
</g>
<!-- Node14 -->
<g id="node14" class="node">
<title>Node14</title>
<g id="a_node14"><a xlink:href="Thread_8c.html#a192a33d80a7d463ad237856cdc7343be" target="_top" xlink:title="Wait on a thread barrier.">
<polygon fill="white" stroke="black" points="222.5,-190.5 222.5,-209.5 311.5,-209.5 311.5,-190.5 222.5,-190.5"/>
<text text-anchor="middle" x="267" y="-197.5" font-family="Helvetica,sans-Serif" font-size="10.00">SdbBarrierWait</text>
</a>
</g>
</g>
<!-- Node2&#45;&gt;Node14 -->
<g id="edge13" class="edge">
<title>Node2&#45;&gt;Node14</title>
<path fill="none" stroke="midnightblue" d="M157.13,-231.03C169.62,-227.43 185.13,-222.96 199,-219 206.6,-216.83 214.69,-214.53 222.52,-212.3"/>
<polygon fill="midnightblue" stroke="midnightblue" points="223.59,-215.64 232.25,-209.54 221.68,-208.9 223.59,-215.64"/>
</g>
<!-- Node15 -->
<g id="node15" class="node">
<title>Node15</title>
<g id="a_node15"><a xlink:href="Sdb_8h.html#ac5c7c1054a5f2110db33fbaf02ee3875" target="_top" xlink:title=" ">
<polygon fill="white" stroke="black" points="228.5,-152.5 228.5,-171.5 305.5,-171.5 305.5,-152.5 228.5,-152.5"/>
<text text-anchor="middle" x="267" y="-159.5" font-family="Helvetica,sans-Serif" font-size="10.00">SdbMemcpy</text>
</a>
</g>
</g>
<!-- Node2&#45;&gt;Node15 -->
<g id="edge14" class="edge">
<title>Node2&#45;&gt;Node15</title>
<path fill="none" stroke="midnightblue" d="M149.7,-228.45C154.18,-225.62 158.91,-222.37 163,-219 180.96,-204.22 179.1,-193.05 199,-181 204.98,-177.38 211.67,-174.43 218.45,-172.03"/>
<polygon fill="midnightblue" stroke="midnightblue" points="219.89,-175.24 228.37,-168.88 217.78,-168.57 219.89,-175.24"/>
</g>
<!-- Node16 -->
<g id="node16" class="node">
<title>Node16</title>
<g id="a_node16"><a xlink:href="Signals_8c.html#aca8d19968aa974641e340443ba21e58e" target="_top" xlink:title="Checks if the system should initiate shutdown.">
<polygon fill="white" stroke="black" points="209,-114.5 209,-133.5 325,-133.5 325,-114.5 209,-114.5"/>
<text text-anchor="middle" x="267" y="-121.5" font-family="Helvetica,sans-Serif" font-size="10.00">SdbShouldShutdown</text>
</a>
</g>
</g>
<!-- Node2&#45;&gt;Node16 -->
<g id="edge15" class="edge">
<title>Node2&#45;&gt;Node16</title>
<path fill="none" stroke="midnightblue" d="M151.72,-228.44C155.78,-225.77 159.81,-222.6 163,-219 187.77,-191.01 170.47,-167.15 199,-143 201.02,-141.29 203.18,-139.74 205.45,-138.32"/>
<polygon fill="midnightblue" stroke="midnightblue" points="207.39,-141.26 214.63,-133.52 204.15,-135.05 207.39,-141.26"/>
</g>
<!-- Node17 -->
<g id="node17" class="node">
<title>Node17</title>
<g id="a_node17"><a xlink:href="SensorDataPipe_8c.html#ad24e8341d323d221a2cfae80ae7d0508" target="_top" xlink:title="Flush the current write buffer.">
<polygon fill="white" stroke="black" points="229,-76.5 229,-95.5 305,-95.5 305,-76.5 229,-76.5"/>
<text text-anchor="middle" x="267" y="-83.5" font-family="Helvetica,sans-Serif" font-size="10.00">SdPipeFlush</text>
</a>
</g>
</g>
<!-- Node2&#45;&gt;Node17 -->
<g id="edge16" class="edge">
<title>Node2&#45;&gt;Node17</title>
<path fill="none" stroke="midnightblue" d="M152.71,-228.33C156.54,-225.73 160.22,-222.62 163,-219 195.41,-176.9 160.88,-142.01 199,-105 204.67,-99.49 211.82,-95.56 219.32,-92.75"/>
<polygon fill="midnightblue" stroke="midnightblue" points="220.4,-96.08 228.91,-89.77 218.33,-89.4 220.4,-96.08"/>
</g>
<!-- Node19 -->
<g id="node19" class="node">
<title>Node19</title>
<g id="a_node19"><a xlink:href="SensorDataPipe_8c.html#a2c82e4869caac3347107efcc1b791db4" target="_top" xlink:title="Acquire Write Buffer Arena.">
<polygon fill="white" stroke="black" points="206,-38.5 206,-57.5 328,-57.5 328,-38.5 206,-38.5"/>
<text text-anchor="middle" x="267" y="-45.5" font-family="Helvetica,sans-Serif" font-size="10.00">SdPipeGetWriteBuffer</text>
</a>
</g>
</g>
<!-- Node2&#45;&gt;Node19 -->
<g id="edge19" class="edge">
<title>Node2&#45;&gt;Node19</title>
<path fill="none" stroke="midnightblue" d="M152.91,-228.48C156.73,-225.87 160.35,-222.71 163,-219 203.3,-162.47 151,-117.15 199,-67 200.26,-65.68 201.61,-64.45 203.03,-63.3"/>
<polygon fill="midnightblue" stroke="midnightblue" points="205.34,-65.98 211.83,-57.6 201.53,-60.1 205.34,-65.98"/>
</g>
<!-- Node20 -->
<g id="node20" class="node">
<title>Node20</title>
<g id="a_node20"><a xlink:href="Socket_8c.html#ae188935dc7b2150fece7683b227f616a" target="_top" xlink:title="Receive Data with Configurable Timeout.">
<polygon fill="white" stroke="black" points="199,-0.5 199,-19.5 335,-19.5 335,-0.5 199,-0.5"/>
<text text-anchor="middle" x="267" y="-7.5" font-family="Helvetica,sans-Serif" font-size="10.00">SocketRecvWithTimeout</text>
</a>
</g>
</g>
<!-- Node2&#45;&gt;Node20 -->
<g id="edge21" class="edge">
<title>Node2&#45;&gt;Node20</title>
<path fill="none" stroke="midnightblue" d="M153.35,-228.35C157.04,-225.78 160.51,-222.67 163,-219 211.3,-147.91 140.99,-92.42 199,-29 200.21,-27.68 201.5,-26.45 202.86,-25.3"/>
<polygon fill="midnightblue" stroke="midnightblue" points="204.98,-28.09 211.32,-19.6 201.07,-22.29 204.98,-28.09"/>
</g>
<!-- Node5 -->
<g id="node5" class="node">
<title>Node5</title>
<g id="a_node5"><a xlink:href="Sdb_8h.html#ae4ef1557f623dc27e4d1f8f9cac4b6fc" target="_top" xlink:title=" ">
<polygon fill="white" stroke="black" points="371,-456.5 371,-475.5 505,-475.5 505,-456.5 371,-456.5"/>
<text text-anchor="middle" x="438" y="-463.5" font-family="Helvetica,sans-Serif" font-size="10.00">SdbLoadFileIntoMemory</text>
</a>
</g>
</g>
<!-- Node4&#45;&gt;Node5 -->
<g id="edge4" class="edge">
<title>Node4&#45;&gt;Node5</title>
<path fill="none" stroke="midnightblue" d="M310.21,-437.49C332.79,-442.57 360.81,-448.87 384.76,-454.25"/>
<polygon fill="midnightblue" stroke="midnightblue" points="384.22,-457.72 394.74,-456.5 385.75,-450.89 384.22,-457.72"/>
</g>
<!-- Node6 -->
<g id="node6" class="node">
<title>Node6</title>
<g id="a_node6"><a xlink:href="Sdb_8h.html#acd332199b77e76c2b764ef93a7b60439" target="_top" xlink:title=" ">
<polygon fill="white" stroke="black" points="393.5,-418.5 393.5,-437.5 482.5,-437.5 482.5,-418.5 393.5,-418.5"/>
<text text-anchor="middle" x="438" y="-425.5" font-family="Helvetica,sans-Serif" font-size="10.00">SdbStringMake</text>
</a>
</g>
</g>
<!-- Node4&#45;&gt;Node6 -->
<g id="edge5" class="edge">
<title>Node4&#45;&gt;Node6</title>
<path fill="none" stroke="midnightblue" d="M310.21,-428C332.27,-428 359.5,-428 383.07,-428"/>
<polygon fill="midnightblue" stroke="midnightblue" points="383.27,-431.5 393.27,-428 383.27,-424.5 383.27,-431.5"/>
</g>
<!-- Node7 -->
<g id="node7" class="node">
<title>Node7</title>
<g id="a_node7"><a xlink:href="Socket_8c.html#afe998f70317da205d71f4d76f90d7a0e" target="_top" xlink:title="Create and Connect TCP Socket.">
<polygon fill="white" stroke="black" points="397.5,-380.5 397.5,-399.5 478.5,-399.5 478.5,-380.5 397.5,-380.5"/>
<text text-anchor="middle" x="438" y="-387.5" font-family="Helvetica,sans-Serif" font-size="10.00">SocketCreate</text>
</a>
</g>
</g>
<!-- Node4&#45;&gt;Node7 -->
<g id="edge6" class="edge">
<title>Node4&#45;&gt;Node7</title>
<path fill="none" stroke="midnightblue" d="M310.21,-418.51C333.67,-413.23 362.99,-406.64 387.52,-401.13"/>
<polygon fill="midnightblue" stroke="midnightblue" points="388.37,-404.52 397.36,-398.91 386.83,-397.69 388.37,-404.52"/>
</g>
<!-- Node8 -->
<g id="node8" class="node">
<title>Node8</title>
<g id="a_node8"><a xlink:href="Sdb_8h.html#aa83c474af0fff05c80b6c752168bca29" target="_top" xlink:title=" ">
<polygon fill="white" stroke="black" points="541,-380.5 541,-399.5 615,-399.5 615,-380.5 541,-380.5"/>
<text text-anchor="middle" x="578" y="-387.5" font-family="Helvetica,sans-Serif" font-size="10.00">SdbMemset</text>
</a>
</g>
</g>
<!-- Node7&#45;&gt;Node8 -->
<g id="edge7" class="edge">
<title>Node7&#45;&gt;Node8</title>
<path fill="none" stroke="midnightblue" d="M478.55,-390C494.77,-390 513.67,-390 530.55,-390"/>
<polygon fill="midnightblue" stroke="midnightblue" points="530.75,-393.5 540.75,-390 530.75,-386.5 530.75,-393.5"/>
</g>
<!-- Node17&#45;&gt;Node11 -->
<g id="edge18" class="edge">
<title>Node17&#45;&gt;Node11</title>
<path fill="none" stroke="midnightblue" d="M305.24,-92.86C315.34,-95.69 325.97,-99.61 335,-105 373.15,-127.77 406.75,-168.4 424.24,-191.88"/>
<polygon fill="midnightblue" stroke="midnightblue" points="421.61,-194.22 430.32,-200.24 427.27,-190.1 421.61,-194.22"/>
</g>
<!-- Node18 -->
<g id="node18" class="node">
<title>Node18</title>
<g id="a_node18"><a xlink:href="Sdb_8h.html#ab38d94a0b56df0604f07862a93856990" target="_top" xlink:title=" ">
<polygon fill="white" stroke="black" points="393.5,-57.5 393.5,-76.5 482.5,-76.5 482.5,-57.5 393.5,-57.5"/>
<text text-anchor="middle" x="438" y="-64.5" font-family="Helvetica,sans-Serif" font-size="10.00">SdbArenaClear</text>
</a>
</g>
</g>
<!-- Node17&#45;&gt;Node18 -->
<g id="edge17" class="edge">
<title>Node17&#45;&gt;Node18</title>
<path fill="none" stroke="midnightblue" d="M305.09,-81.83C327.97,-79.26 357.72,-75.91 383.17,-73.05"/>
<polygon fill="midnightblue" stroke="midnightblue" points="383.87,-76.49 393.42,-71.9 383.09,-69.54 383.87,-76.49"/>
</g>
<!-- Node19&#45;&gt;Node18 -->
<g id="edge20" class="edge">
<title>Node19&#45;&gt;Node18</title>
<path fill="none" stroke="midnightblue" d="M328.06,-54.75C346.06,-56.78 365.68,-58.98 383.25,-60.96"/>
<polygon fill="midnightblue" stroke="midnightblue" points="383,-64.45 393.33,-62.09 383.79,-57.5 383,-64.45"/>
</g>
<!-- Node21 -->
<g id="node21" class="node">
<title>Node21</title>
<g id="a_node21"><a xlink:href="Time_8c.html#a0221db75cb1cf6093ca801b7915fe887" target="_top" xlink:title="Convert Time Difference to Timeval.">
<polygon fill="white" stroke="black" points="401,-0.5 401,-19.5 475,-19.5 475,-0.5 401,-0.5"/>
<text text-anchor="middle" x="438" y="-7.5" font-family="Helvetica,sans-Serif" font-size="10.00">SdbTimeval</text>
</a>
</g>
</g>
<!-- Node20&#45;&gt;Node21 -->
<g id="edge22" class="edge">
<title>Node20&#45;&gt;Node21</title>
<path fill="none" stroke="midnightblue" d="M335.28,-10C353.73,-10 373.32,-10 390.33,-10"/>
<polygon fill="midnightblue" stroke="midnightblue" points="390.56,-13.5 400.56,-10 390.56,-6.5 390.56,-13.5"/>
</g>
</g>
</svg>
