<?xml version="1.0" encoding="UTF-8" standalone="no"?>
<!DOCTYPE svg PUBLIC "-//W3C//DTD SVG 1.1//EN"
 "http://www.w3.org/Graphics/SVG/1.1/DTD/svg11.dtd">
<!-- Generated by graphviz version 2.43.0 (0)
 -->
<!-- Title: src/DataHandlers/ModbusWithPostgres/ModbusWithPostgres.c Pages: 1 -->
<svg width="1240pt" height="379pt"
 viewBox="0.00 0.00 1239.50 379.00" xmlns="http://www.w3.org/2000/svg" xmlns:xlink="http://www.w3.org/1999/xlink">
<g id="graph0" class="graph" transform="scale(1 1) rotate(0) translate(4 375)">
<title>src/DataHandlers/ModbusWithPostgres/ModbusWithPostgres.c</title>
<!-- Node1 -->
<g id="Node000001" class="node">
<title>Node1</title>
<g id="a_Node000001"><a xlink:title="Implementation of Modbus&#45;PostgreSQL integration.">
<polygon fill="#999999" stroke="#666666" points="588,-371 415,-371 415,-341 588,-341 588,-371"/>
<text text-anchor="start" x="423" y="-359" font-family="Helvetica,sans-Serif" font-size="10.00">src/DataHandlers/ModbusWith</text>
<text text-anchor="middle" x="501.5" y="-348" font-family="Helvetica,sans-Serif" font-size="10.00">Postgres/ModbusWithPostgres.c</text>
</a>
</g>
</g>
<!-- Node2 -->
<g id="Node000002" class="node">
<title>Node2</title>
<g id="a_Node000002"><a xlink:href="Sdb_8h.html" target="_top" xlink:title=" ">
<polygon fill="white" stroke="#666666" points="676,-74 615,-74 615,-55 676,-55 676,-74"/>
<text text-anchor="middle" x="645.5" y="-62" font-family="Helvetica,sans-Serif" font-size="10.00">src/Sdb.h</text>
</a>
</g>
</g>
<!-- Node1&#45;&gt;Node2 -->
<g id="edge1_Node000001_Node000002" class="edge">
<title>Node1&#45;&gt;Node2</title>
<g id="a_edge1_Node000001_Node000002"><a xlink:title=" ">
<path fill="none" stroke="#63b8ff" d="M588.16,-351.02C725.62,-344.05 981.73,-328.15 1016.5,-305 1047.78,-284.17 1056.5,-268.08 1056.5,-230.5 1056.5,-230.5 1056.5,-230.5 1056.5,-173.5 1056.5,-97.45 789.93,-73.85 686.15,-67.54"/>
<polygon fill="#63b8ff" stroke="#63b8ff" points="686.24,-64.04 676.06,-66.95 685.83,-71.03 686.24,-64.04"/>
</a>
</g>
</g>
<!-- Node9 -->
<g id="Node000009" class="node">
<title>Node9</title>
<g id="a_Node000009"><a xlink:title=" ">
<polygon fill="#e0e0e0" stroke="#999999" points="63,-19 0,-19 0,0 63,0 63,-19"/>
<text text-anchor="middle" x="31.5" y="-7" font-family="Helvetica,sans-Serif" font-size="10.00">pthread.h</text>
</a>
</g>
</g>
<!-- Node1&#45;&gt;Node9 -->
<g id="edge51_Node000001_Node000009" class="edge">
<title>Node1&#45;&gt;Node9</title>
<g id="a_edge51_Node000001_Node000009"><a xlink:title=" ">
<path fill="none" stroke="#63b8ff" d="M414.98,-353.75C304.62,-350.69 121.25,-340.28 64.5,-305 31.05,-284.2 16.5,-269.89 16.5,-230.5 16.5,-230.5 16.5,-230.5 16.5,-118.5 16.5,-86.89 22.88,-50.56 27.32,-29.13"/>
<polygon fill="#63b8ff" stroke="#63b8ff" points="30.79,-29.64 29.48,-19.12 23.95,-28.16 30.79,-29.64"/>
</a>
</g>
</g>
<!-- Node20 -->
<g id="Node000020" class="node">
<title>Node20</title>
<g id="a_Node000020"><a xlink:href="SensorDataPipe_8h.html" target="_top" xlink:title="Lock&#45;Free Data Pipeline.">
<polygon fill="white" stroke="#666666" points="679,-239 512,-239 512,-220 679,-220 679,-239"/>
<text text-anchor="middle" x="595.5" y="-227" font-family="Helvetica,sans-Serif" font-size="10.00">src/Common/SensorDataPipe.h</text>
</a>
</g>
</g>
<!-- Node1&#45;&gt;Node20 -->
<g id="edge19_Node000001_Node000020" class="edge">
<title>Node1&#45;&gt;Node20</title>
<g id="a_edge19_Node000001_Node000020"><a xlink:title=" ">
<path fill="none" stroke="#63b8ff" d="M588.25,-351.23C660.53,-346.06 755.4,-333.83 779.5,-305 811.23,-267.06 749.56,-248.24 689.24,-239.03"/>
<polygon fill="#63b8ff" stroke="#63b8ff" points="689.59,-235.55 679.19,-237.58 688.59,-242.48 689.59,-235.55"/>
</a>
</g>
</g>
<!-- Node26 -->
<g id="Node000026" class="node">
<title>Node26</title>
<g id="a_Node000026"><a xlink:href="ThreadGroup_8h.html" target="_top" xlink:title="Thread Group Management System.">
<polygon fill="white" stroke="#666666" points="198,-239 45,-239 45,-220 198,-220 198,-239"/>
<text text-anchor="middle" x="121.5" y="-227" font-family="Helvetica,sans-Serif" font-size="10.00">src/Common/ThreadGroup.h</text>
</a>
</g>
</g>
<!-- Node1&#45;&gt;Node26 -->
<g id="edge30_Node000001_Node000026" class="edge">
<title>Node1&#45;&gt;Node26</title>
<g id="a_edge30_Node000001_Node000026"><a xlink:title=" ">
<path fill="none" stroke="#63b8ff" d="M414.67,-350.94C296.14,-344.49 95.76,-330.01 73.5,-305 56.76,-286.19 81.03,-260.99 100.72,-245.25"/>
<polygon fill="#63b8ff" stroke="#63b8ff" points="102.92,-247.98 108.75,-239.13 98.68,-242.41 102.92,-247.98"/>
</a>
</g>
</g>
<!-- Node27 -->
<g id="Node000027" class="node">
<title>Node27</title>
<g id="a_Node000027"><a xlink:href="DataHandlers_8h.html" target="_top" xlink:title="Data Handler Management for Thread Group Creation.">
<polygon fill="white" stroke="#666666" points="262,-299.5 83,-299.5 83,-280.5 262,-280.5 262,-299.5"/>
<text text-anchor="middle" x="172.5" y="-287.5" font-family="Helvetica,sans-Serif" font-size="10.00">src/DataHandlers/DataHandlers.h</text>
</a>
</g>
</g>
<!-- Node1&#45;&gt;Node27 -->
<g id="edge35_Node000001_Node000027" class="edge">
<title>Node1&#45;&gt;Node27</title>
<g id="a_edge35_Node000001_Node000027"><a xlink:title=" ">
<path fill="none" stroke="#63b8ff" d="M429.3,-340.95C368.04,-329.04 281.54,-312.21 226.23,-301.45"/>
<polygon fill="#63b8ff" stroke="#63b8ff" points="226.77,-297.99 216.28,-299.52 225.43,-304.86 226.77,-297.99"/>
</a>
</g>
</g>
<!-- Node28 -->
<g id="Node000028" class="node">
<title>Node28</title>
<g id="a_Node000028"><a xlink:href="cJSON_8h.html" target="_top" xlink:title=" ">
<polygon fill="white" stroke="#666666" points="494,-239 367,-239 367,-220 494,-220 494,-239"/>
<text text-anchor="middle" x="430.5" y="-227" font-family="Helvetica,sans-Serif" font-size="10.00">src/Libs/cJSON/cJSON.h</text>
</a>
</g>
</g>
<!-- Node1&#45;&gt;Node28 -->
<g id="edge50_Node000001_Node000028" class="edge">
<title>Node1&#45;&gt;Node28</title>
<g id="a_edge50_Node000001_Node000028"><a xlink:title=" ">
<path fill="none" stroke="#63b8ff" d="M451.89,-340.82C434.41,-333.18 416.61,-321.75 406.5,-305 395.58,-286.91 406.78,-263.31 417.26,-247.57"/>
<polygon fill="#63b8ff" stroke="#63b8ff" points="420.19,-249.48 423.17,-239.31 414.5,-245.41 420.19,-249.48"/>
</a>
</g>
</g>
<!-- Node30 -->
<g id="Node000030" class="node">
<title>Node30</title>
<g id="a_Node000030"><a xlink:title=" ">
<polygon fill="#e0e0e0" stroke="#999999" points="770.5,-305 606.5,-305 606.5,-275 770.5,-275 770.5,-305"/>
<text text-anchor="start" x="614.5" y="-293" font-family="Helvetica,sans-Serif" font-size="10.00">src/DataHandlers/ModbusWith</text>
<text text-anchor="middle" x="688.5" y="-282" font-family="Helvetica,sans-Serif" font-size="10.00">Postgres/Modbus.h</text>
</a>
</g>
</g>
<!-- Node1&#45;&gt;Node30 -->
<g id="edge40_Node000001_Node000030" class="edge">
<title>Node1&#45;&gt;Node30</title>
<g id="a_edge40_Node000001_Node000030"><a xlink:title=" ">
<path fill="none" stroke="#63b8ff" d="M542.54,-340.95C570.55,-331.37 607.85,-318.6 637.73,-308.37"/>
<polygon fill="#63b8ff" stroke="#63b8ff" points="639.23,-311.56 647.56,-305.01 636.96,-304.94 639.23,-311.56"/>
</a>
</g>
</g>
<!-- Node31 -->
<g id="Node000031" class="node">
<title>Node31</title>
<g id="a_Node000031"><a xlink:href="ModbusWithPostgres_8h.html" target="_top" xlink:title="Integration of Modbus and PostgreSQL data handling.">
<polygon fill="white" stroke="#666666" points="588,-305 415,-305 415,-275 588,-275 588,-305"/>
<text text-anchor="start" x="423" y="-293" font-family="Helvetica,sans-Serif" font-size="10.00">src/DataHandlers/ModbusWith</text>
<text text-anchor="middle" x="501.5" y="-282" font-family="Helvetica,sans-Serif" font-size="10.00">Postgres/ModbusWithPostgres.h</text>
</a>
</g>
</g>
<!-- Node1&#45;&gt;Node31 -->
<g id="edge41_Node000001_Node000031" class="edge">
<title>Node1&#45;&gt;Node31</title>
<g id="a_edge41_Node000001_Node000031"><a xlink:title=" ">
<path fill="none" stroke="#63b8ff" d="M501.5,-340.8C501.5,-333.34 501.5,-323.99 501.5,-315.41"/>
<polygon fill="#63b8ff" stroke="#63b8ff" points="505,-315.16 501.5,-305.16 498,-315.16 505,-315.16"/>
</a>
</g>
</g>
<!-- Node32 -->
<g id="Node000032" class="node">
<title>Node32</title>
<g id="a_Node000032"><a xlink:title=" ">
<polygon fill="#e0e0e0" stroke="#999999" points="990.5,-305 826.5,-305 826.5,-275 990.5,-275 990.5,-305"/>
<text text-anchor="start" x="834.5" y="-293" font-family="Helvetica,sans-Serif" font-size="10.00">src/DataHandlers/ModbusWith</text>
<text text-anchor="middle" x="908.5" y="-282" font-family="Helvetica,sans-Serif" font-size="10.00">Postgres/Postgres.h</text>
</a>
</g>
</g>
<!-- Node1&#45;&gt;Node32 -->
<g id="edge46_Node000001_Node000032" class="edge">
<title>Node1&#45;&gt;Node32</title>
<g id="a_edge46_Node000001_Node000032"><a xlink:title=" ">
<path fill="none" stroke="#63b8ff" d="M588.31,-341.35C655.4,-330.8 748.05,-316.23 816.42,-305.48"/>
<polygon fill="#63b8ff" stroke="#63b8ff" points="817,-308.93 826.33,-303.92 815.91,-302.02 817,-308.93"/>
</a>
</g>
</g>
<!-- Node33 -->
<g id="Node000033" class="node">
<title>Node33</title>
<g id="a_Node000033"><a xlink:href="ModbusTestServer_8h.html" target="_top" xlink:title="Header for Modbus Test Server Implementation.">
<polygon fill="white" stroke="#666666" points="963.5,-239 787.5,-239 787.5,-220 963.5,-220 963.5,-239"/>
<text text-anchor="middle" x="875.5" y="-227" font-family="Helvetica,sans-Serif" font-size="10.00">src/DevUtils/ModbusTestServer.h</text>
</a>
</g>
</g>
<!-- Node1&#45;&gt;Node33 -->
<g id="edge47_Node000001_Node000033" class="edge">
<title>Node1&#45;&gt;Node33</title>
<g id="a_edge47_Node000001_Node000033"><a xlink:title=" ">
<path fill="none" stroke="#63b8ff" d="M588.13,-352.5C723.47,-347.69 972.48,-334.86 999.5,-305 1026.42,-275.24 971.43,-253.61 926.3,-241.55"/>
<polygon fill="#63b8ff" stroke="#63b8ff" points="927.11,-238.15 916.56,-239.05 925.37,-244.93 927.11,-238.15"/>
</a>
</g>
</g>
<!-- Node34 -->
<g id="Node000034" class="node">
<title>Node34</title>
<g id="a_Node000034"><a xlink:href="Signals_8h.html" target="_top" xlink:title="Signal handling interface for the Sensor Data Handler System.">
<polygon fill="white" stroke="#666666" points="358.5,-299.5 280.5,-299.5 280.5,-280.5 358.5,-280.5 358.5,-299.5"/>
<text text-anchor="middle" x="319.5" y="-287.5" font-family="Helvetica,sans-Serif" font-size="10.00">src/Signals.h</text>
</a>
</g>
</g>
<!-- Node1&#45;&gt;Node34 -->
<g id="edge52_Node000001_Node000034" class="edge">
<title>Node1&#45;&gt;Node34</title>
<g id="a_edge52_Node000001_Node000034"><a xlink:title=" ">
<path fill="none" stroke="#63b8ff" d="M461.56,-340.95C429.22,-329.58 384.16,-313.74 353.52,-302.96"/>
<polygon fill="#63b8ff" stroke="#63b8ff" points="354.32,-299.53 343.72,-299.52 351.99,-306.14 354.32,-299.53"/>
</a>
</g>
</g>
<!-- Node3 -->
<g id="Node000003" class="node">
<title>Node3</title>
<g id="a_Node000003"><a xlink:title=" ">
<polygon fill="#e0e0e0" stroke="#999999" points="825.5,-19 769.5,-19 769.5,0 825.5,0 825.5,-19"/>
<text text-anchor="middle" x="797.5" y="-7" font-family="Helvetica,sans-Serif" font-size="10.00">assert.h</text>
</a>
</g>
</g>
<!-- Node2&#45;&gt;Node3 -->
<g id="edge2_Node000002_Node000003" class="edge">
<title>Node2&#45;&gt;Node3</title>
<g id="a_edge2_Node000002_Node000003"><a xlink:title=" ">
<path fill="none" stroke="#63b8ff" d="M669.92,-54.98C695.22,-46.16 734.95,-32.31 763.36,-22.41"/>
<polygon fill="#63b8ff" stroke="#63b8ff" points="764.6,-25.68 772.89,-19.08 762.29,-19.07 764.6,-25.68"/>
</a>
</g>
</g>
<!-- Node4 -->
<g id="Node000004" class="node">
<title>Node4</title>
<g id="a_Node000004"><a xlink:title=" ">
<polygon fill="#e0e0e0" stroke="#999999" points="897,-19 844,-19 844,0 897,0 897,-19"/>
<text text-anchor="middle" x="870.5" y="-7" font-family="Helvetica,sans-Serif" font-size="10.00">ctype.h</text>
</a>
</g>
</g>
<!-- Node2&#45;&gt;Node4 -->
<g id="edge3_Node000002_Node000004" class="edge">
<title>Node2&#45;&gt;Node4</title>
<g id="a_edge3_Node000002_Node000004"><a xlink:title=" ">
<path fill="none" stroke="#63b8ff" d="M676.27,-56.26C711.78,-47.91 772.19,-33.69 833.86,-19.15"/>
<polygon fill="#63b8ff" stroke="#63b8ff" points="834.83,-22.52 843.76,-16.81 833.23,-15.7 834.83,-22.52"/>
</a>
</g>
</g>
<!-- Node5 -->
<g id="Node000005" class="node">
<title>Node5</title>
<g id="a_Node000005"><a xlink:title=" ">
<polygon fill="#e0e0e0" stroke="#999999" points="966,-19 915,-19 915,0 966,0 966,-19"/>
<text text-anchor="middle" x="940.5" y="-7" font-family="Helvetica,sans-Serif" font-size="10.00">errno.h</text>
</a>
</g>
</g>
<!-- Node2&#45;&gt;Node5 -->
<g id="edge4_Node000002_Node000005" class="edge">
<title>Node2&#45;&gt;Node5</title>
<g id="a_edge4_Node000002_Node000005"><a xlink:title=" ">
<path fill="none" stroke="#63b8ff" d="M676.18,-59.04C723.34,-52.03 816.66,-37.48 905.02,-19.19"/>
<polygon fill="#63b8ff" stroke="#63b8ff" points="905.86,-22.59 914.93,-17.11 904.42,-15.74 905.86,-22.59"/>
</a>
</g>
</g>
<!-- Node6 -->
<g id="Node000006" class="node">
<title>Node6</title>
<g id="a_Node000006"><a xlink:title=" ">
<polygon fill="#e0e0e0" stroke="#999999" points="1031,-19 984,-19 984,0 1031,0 1031,-19"/>
<text text-anchor="middle" x="1007.5" y="-7" font-family="Helvetica,sans-Serif" font-size="10.00">fcntl.h</text>
</a>
</g>
</g>
<!-- Node2&#45;&gt;Node6 -->
<g id="edge5_Node000002_Node000006" class="edge">
<title>Node2&#45;&gt;Node6</title>
<g id="a_edge5_Node000002_Node000006"><a xlink:title=" ">
<path fill="none" stroke="#63b8ff" d="M676.19,-60.66C733.11,-55.12 858.97,-41.56 973.8,-19.13"/>
<polygon fill="#63b8ff" stroke="#63b8ff" points="974.68,-22.52 983.81,-17.15 973.32,-15.66 974.68,-22.52"/>
</a>
</g>
</g>
<!-- Node7 -->
<g id="Node000007" class="node">
<title>Node7</title>
<g id="a_Node000007"><a xlink:title=" ">
<polygon fill="#e0e0e0" stroke="#999999" points="1096,-19 1049,-19 1049,0 1096,0 1096,-19"/>
<text text-anchor="middle" x="1072.5" y="-7" font-family="Helvetica,sans-Serif" font-size="10.00">float.h</text>
</a>
</g>
</g>
<!-- Node2&#45;&gt;Node7 -->
<g id="edge6_Node000002_Node000007" class="edge">
<title>Node2&#45;&gt;Node7</title>
<g id="a_edge6_Node000002_Node000007"><a xlink:title=" ">
<path fill="none" stroke="#63b8ff" d="M676.21,-61.59C741.39,-57.2 898.45,-44.88 1038.75,-19.09"/>
<polygon fill="#63b8ff" stroke="#63b8ff" points="1039.64,-22.48 1048.82,-17.21 1038.35,-15.6 1039.64,-22.48"/>
</a>
</g>
</g>
<!-- Node8 -->
<g id="Node000008" class="node">
<title>Node8</title>
<g id="a_Node000008"><a xlink:title=" ">
<polygon fill="#e0e0e0" stroke="#999999" points="1165,-19 1114,-19 1114,0 1165,0 1165,-19"/>
<text text-anchor="middle" x="1139.5" y="-7" font-family="Helvetica,sans-Serif" font-size="10.00">math.h</text>
</a>
</g>
</g>
<!-- Node2&#45;&gt;Node8 -->
<g id="edge7_Node000002_Node000008" class="edge">
<title>Node2&#45;&gt;Node8</title>
<g id="a_edge7_Node000002_Node000008"><a xlink:title=" ">
<path fill="none" stroke="#63b8ff" d="M676.12,-62.11C748.82,-58.48 937.62,-47.09 1104.05,-19.01"/>
<polygon fill="#63b8ff" stroke="#63b8ff" points="1104.7,-22.45 1113.97,-17.32 1103.52,-15.55 1104.7,-22.45"/>
</a>
</g>
</g>
<!-- Node2&#45;&gt;Node9 -->
<g id="edge8_Node000002_Node000009" class="edge">
<title>Node2&#45;&gt;Node9</title>
<g id="a_edge8_Node000002_Node000009"><a xlink:title=" ">
<path fill="none" stroke="#63b8ff" d="M614.91,-62.49C530.37,-59.41 286.26,-48.57 73.33,-18.92"/>
<polygon fill="#63b8ff" stroke="#63b8ff" points="73.61,-15.42 63.21,-17.49 72.63,-22.35 73.61,-15.42"/>
</a>
</g>
</g>
<!-- Node10 -->
<g id="Node000010" class="node">
<title>Node10</title>
<g id="a_Node000010"><a xlink:title=" ">
<polygon fill="#e0e0e0" stroke="#999999" points="217.5,-19 161.5,-19 161.5,0 217.5,0 217.5,-19"/>
<text text-anchor="middle" x="189.5" y="-7" font-family="Helvetica,sans-Serif" font-size="10.00">stdarg.h</text>
</a>
</g>
</g>
<!-- Node2&#45;&gt;Node10 -->
<g id="edge9_Node000002_Node000010" class="edge">
<title>Node2&#45;&gt;Node10</title>
<g id="a_edge9_Node000002_Node000010"><a xlink:title=" ">
<path fill="none" stroke="#63b8ff" d="M614.92,-61.44C545.64,-56.53 371.52,-42.69 227.5,-19 227.4,-18.98 227.3,-18.97 227.2,-18.95"/>
<polygon fill="#63b8ff" stroke="#63b8ff" points="228.12,-15.56 217.65,-17.17 226.84,-22.44 228.12,-15.56"/>
</a>
</g>
</g>
<!-- Node11 -->
<g id="Node000011" class="node">
<title>Node11</title>
<g id="a_Node000011"><a xlink:title=" ">
<polygon fill="#e0e0e0" stroke="#999999" points="289,-19 236,-19 236,0 289,0 289,-19"/>
<text text-anchor="middle" x="262.5" y="-7" font-family="Helvetica,sans-Serif" font-size="10.00">stdint.h</text>
</a>
</g>
</g>
<!-- Node2&#45;&gt;Node11 -->
<g id="edge10_Node000002_Node000011" class="edge">
<title>Node2&#45;&gt;Node11</title>
<g id="a_edge10_Node000002_Node000011"><a xlink:title=" ">
<path fill="none" stroke="#63b8ff" d="M614.7,-60.64C555.53,-54.91 421.73,-40.83 299.11,-18.92"/>
<polygon fill="#63b8ff" stroke="#63b8ff" points="299.63,-15.46 289.17,-17.12 298.39,-22.35 299.63,-15.46"/>
</a>
</g>
</g>
<!-- Node12 -->
<g id="Node000012" class="node">
<title>Node12</title>
<g id="a_Node000012"><a xlink:title=" ">
<polygon fill="#e0e0e0" stroke="#999999" points="357.5,-19 307.5,-19 307.5,0 357.5,0 357.5,-19"/>
<text text-anchor="middle" x="332.5" y="-7" font-family="Helvetica,sans-Serif" font-size="10.00">stdio.h</text>
</a>
</g>
</g>
<!-- Node2&#45;&gt;Node12 -->
<g id="edge11_Node000002_Node000012" class="edge">
<title>Node2&#45;&gt;Node12</title>
<g id="a_edge11_Node000002_Node000012"><a xlink:title=" ">
<path fill="none" stroke="#63b8ff" d="M614.92,-59.42C563.57,-52.38 456.87,-36.97 367.5,-19 367.4,-18.98 367.3,-18.96 367.2,-18.94"/>
<polygon fill="#63b8ff" stroke="#63b8ff" points="368.2,-15.57 357.68,-16.87 366.71,-22.41 368.2,-15.57"/>
</a>
</g>
</g>
<!-- Node13 -->
<g id="Node000013" class="node">
<title>Node13</title>
<g id="a_Node000013"><a xlink:title=" ">
<polygon fill="#e0e0e0" stroke="#999999" points="429,-19 376,-19 376,0 429,0 429,-19"/>
<text text-anchor="middle" x="402.5" y="-7" font-family="Helvetica,sans-Serif" font-size="10.00">stdlib.h</text>
</a>
</g>
</g>
<!-- Node2&#45;&gt;Node13 -->
<g id="edge12_Node000002_Node000013" class="edge">
<title>Node2&#45;&gt;Node13</title>
<g id="a_edge12_Node000002_Node000013"><a xlink:title=" ">
<path fill="none" stroke="#63b8ff" d="M614.94,-57.13C576.41,-49.06 507.89,-34.55 439.33,-19.15"/>
<polygon fill="#63b8ff" stroke="#63b8ff" points="439.75,-15.66 429.22,-16.87 438.21,-22.49 439.75,-15.66"/>
</a>
</g>
</g>
<!-- Node14 -->
<g id="Node000014" class="node">
<title>Node14</title>
<g id="a_Node000014"><a xlink:title=" ">
<polygon fill="#e0e0e0" stroke="#999999" points="500,-19 447,-19 447,0 500,0 500,-19"/>
<text text-anchor="middle" x="473.5" y="-7" font-family="Helvetica,sans-Serif" font-size="10.00">string.h</text>
</a>
</g>
</g>
<!-- Node2&#45;&gt;Node14 -->
<g id="edge13_Node000002_Node000014" class="edge">
<title>Node2&#45;&gt;Node14</title>
<g id="a_edge13_Node000002_Node000014"><a xlink:title=" ">
<path fill="none" stroke="#63b8ff" d="M617.87,-54.98C588.65,-45.98 542.41,-31.73 510.16,-21.8"/>
<polygon fill="#63b8ff" stroke="#63b8ff" points="510.8,-18.33 500.22,-18.73 508.74,-25.02 510.8,-18.33"/>
</a>
</g>
</g>
<!-- Node15 -->
<g id="Node000015" class="node">
<title>Node15</title>
<g id="a_Node000015"><a xlink:title=" ">
<polygon fill="#e0e0e0" stroke="#999999" points="595,-19 518,-19 518,0 595,0 595,-19"/>
<text text-anchor="middle" x="556.5" y="-7" font-family="Helvetica,sans-Serif" font-size="10.00">sys/mman.h</text>
</a>
</g>
</g>
<!-- Node2&#45;&gt;Node15 -->
<g id="edge14_Node000002_Node000015" class="edge">
<title>Node2&#45;&gt;Node15</title>
<g id="a_edge14_Node000002_Node000015"><a xlink:title=" ">
<path fill="none" stroke="#63b8ff" d="M631.2,-54.98C617.4,-46.77 596.26,-34.18 579.99,-24.49"/>
<polygon fill="#63b8ff" stroke="#63b8ff" points="581.44,-21.28 571.06,-19.17 577.86,-27.29 581.44,-21.28"/>
</a>
</g>
</g>
<!-- Node16 -->
<g id="Node000016" class="node">
<title>Node16</title>
<g id="a_Node000016"><a xlink:title=" ">
<polygon fill="#e0e0e0" stroke="#999999" points="677.5,-19 613.5,-19 613.5,0 677.5,0 677.5,-19"/>
<text text-anchor="middle" x="645.5" y="-7" font-family="Helvetica,sans-Serif" font-size="10.00">sys/stat.h</text>
</a>
</g>
</g>
<!-- Node2&#45;&gt;Node16 -->
<g id="edge15_Node000002_Node000016" class="edge">
<title>Node2&#45;&gt;Node16</title>
<g id="a_edge15_Node000002_Node000016"><a xlink:title=" ">
<path fill="none" stroke="#63b8ff" d="M645.5,-54.75C645.5,-47.8 645.5,-37.85 645.5,-29.13"/>
<polygon fill="#63b8ff" stroke="#63b8ff" points="649,-29.09 645.5,-19.09 642,-29.09 649,-29.09"/>
</a>
</g>
</g>
<!-- Node17 -->
<g id="Node000017" class="node">
<title>Node17</title>
<g id="a_Node000017"><a xlink:title=" ">
<polygon fill="#e0e0e0" stroke="#999999" points="1231.5,-19 1183.5,-19 1183.5,0 1231.5,0 1231.5,-19"/>
<text text-anchor="middle" x="1207.5" y="-7" font-family="Helvetica,sans-Serif" font-size="10.00">time.h</text>
</a>
</g>
</g>
<!-- Node2&#45;&gt;Node17 -->
<g id="edge16_Node000002_Node000017" class="edge">
<title>Node2&#45;&gt;Node17</title>
<g id="a_edge16_Node000002_Node000017"><a xlink:title=" ">
<path fill="none" stroke="#63b8ff" d="M676.14,-62.72C756.34,-60.3 979.07,-51.15 1173.34,-18.9"/>
<polygon fill="#63b8ff" stroke="#63b8ff" points="1174.17,-22.31 1183.45,-17.19 1173.01,-15.4 1174.17,-22.31"/>
</a>
</g>
</g>
<!-- Node18 -->
<g id="Node000018" class="node">
<title>Node18</title>
<g id="a_Node000018"><a xlink:title=" ">
<polygon fill="#e0e0e0" stroke="#999999" points="751.5,-19 695.5,-19 695.5,0 751.5,0 751.5,-19"/>
<text text-anchor="middle" x="723.5" y="-7" font-family="Helvetica,sans-Serif" font-size="10.00">unistd.h</text>
</a>
</g>
</g>
<!-- Node2&#45;&gt;Node18 -->
<g id="edge17_Node000002_Node000018" class="edge">
<title>Node2&#45;&gt;Node18</title>
<g id="a_edge17_Node000002_Node000018"><a xlink:title=" ">
<path fill="none" stroke="#63b8ff" d="M658.03,-54.98C669.9,-46.92 687.96,-34.65 702.11,-25.03"/>
<polygon fill="#63b8ff" stroke="#63b8ff" points="704.44,-27.69 710.74,-19.17 700.5,-21.9 704.44,-27.69"/>
</a>
</g>
</g>
<!-- Node19 -->
<g id="Node000019" class="node">
<title>Node19</title>
<g id="a_Node000019"><a xlink:title=" ">
<polygon fill="#e0e0e0" stroke="#999999" points="143.5,-19 81.5,-19 81.5,0 143.5,0 143.5,-19"/>
<text text-anchor="middle" x="112.5" y="-7" font-family="Helvetica,sans-Serif" font-size="10.00">stdbool.h</text>
</a>
</g>
</g>
<!-- Node2&#45;&gt;Node19 -->
<g id="edge18_Node000002_Node000019" class="edge">
<title>Node2&#45;&gt;Node19</title>
<g id="a_edge18_Node000002_Node000019"><a xlink:title=" ">
<path fill="none" stroke="#63b8ff" d="M614.77,-62C538.42,-58.02 333.85,-45.67 153.79,-19.02"/>
<polygon fill="#63b8ff" stroke="#63b8ff" points="154.29,-15.56 143.88,-17.54 153.25,-22.48 154.29,-15.56"/>
</a>
</g>
</g>
<!-- Node20&#45;&gt;Node2 -->
<g id="edge21_Node000020_Node000002" class="edge">
<title>Node20&#45;&gt;Node2</title>
<g id="a_edge21_Node000020_Node000002"><a xlink:title=" ">
<path fill="none" stroke="#63b8ff" d="M558.35,-219.9C539.34,-213.41 517.85,-202.37 506.5,-184 502.06,-176.82 504.9,-173.29 506.5,-165 511.48,-139.15 509.73,-128.46 528.5,-110 549.2,-89.65 580.16,-78.42 605.03,-72.33"/>
<polygon fill="#63b8ff" stroke="#63b8ff" points="605.94,-75.72 614.92,-70.1 604.4,-68.89 605.94,-75.72"/>
</a>
</g>
</g>
<!-- Node21 -->
<g id="Node000021" class="node">
<title>Node21</title>
<g id="a_Node000021"><a xlink:title=" ">
<polygon fill="#e0e0e0" stroke="#999999" points="731.5,-184 657.5,-184 657.5,-165 731.5,-165 731.5,-184"/>
<text text-anchor="middle" x="694.5" y="-172" font-family="Helvetica,sans-Serif" font-size="10.00">stdatomic.h</text>
</a>
</g>
</g>
<!-- Node20&#45;&gt;Node21 -->
<g id="edge20_Node000020_Node000021" class="edge">
<title>Node20&#45;&gt;Node21</title>
<g id="a_edge20_Node000020_Node000021"><a xlink:title=" ">
<path fill="none" stroke="#63b8ff" d="M611.41,-219.98C627.05,-211.61 651.16,-198.7 669.38,-188.95"/>
<polygon fill="#63b8ff" stroke="#63b8ff" points="671.14,-191.98 678.3,-184.17 667.84,-185.8 671.14,-191.98"/>
</a>
</g>
</g>
<!-- Node22 -->
<g id="Node000022" class="node">
<title>Node22</title>
<g id="a_Node000022"><a xlink:href="Thread_8h.html" target="_top" xlink:title="Lightweight Synchronization Primitives Wrapper.">
<polygon fill="white" stroke="#666666" points="639.5,-184 515.5,-184 515.5,-165 639.5,-165 639.5,-184"/>
<text text-anchor="middle" x="577.5" y="-172" font-family="Helvetica,sans-Serif" font-size="10.00">src/Common/Thread.h</text>
</a>
</g>
</g>
<!-- Node20&#45;&gt;Node22 -->
<g id="edge22_Node000020_Node000022" class="edge">
<title>Node20&#45;&gt;Node22</title>
<g id="a_edge22_Node000020_Node000022"><a xlink:title=" ">
<path fill="none" stroke="#63b8ff" d="M592.53,-219.75C590.14,-212.72 586.71,-202.62 583.73,-193.84"/>
<polygon fill="#63b8ff" stroke="#63b8ff" points="586.95,-192.43 580.42,-184.09 580.32,-194.68 586.95,-192.43"/>
</a>
</g>
</g>
<!-- Node22&#45;&gt;Node2 -->
<g id="edge25_Node000022_Node000002" class="edge">
<title>Node22&#45;&gt;Node2</title>
<g id="a_edge25_Node000022_Node000002"><a xlink:title=" ">
<path fill="none" stroke="#63b8ff" d="M590.58,-164.75C601.66,-156.7 617.19,-143.78 626.5,-129 635.12,-115.31 640.01,-97.5 642.66,-84.22"/>
<polygon fill="#63b8ff" stroke="#63b8ff" points="646.11,-84.79 644.39,-74.33 639.22,-83.58 646.11,-84.79"/>
</a>
</g>
</g>
<!-- Node22&#45;&gt;Node9 -->
<g id="edge23_Node000022_Node000009" class="edge">
<title>Node22&#45;&gt;Node9</title>
<g id="a_edge23_Node000022_Node000009"><a xlink:title=" ">
<path fill="none" stroke="#63b8ff" d="M548.91,-164.97C457.71,-137.74 173.58,-52.91 69.88,-21.96"/>
<polygon fill="#63b8ff" stroke="#63b8ff" points="70.72,-18.55 60.13,-19.05 68.71,-25.26 70.72,-18.55"/>
</a>
</g>
</g>
<!-- Node23 -->
<g id="Node000023" class="node">
<title>Node23</title>
<g id="a_Node000023"><a xlink:title=" ">
<polygon fill="#e0e0e0" stroke="#999999" points="617.5,-129 537.5,-129 537.5,-110 617.5,-110 617.5,-129"/>
<text text-anchor="middle" x="577.5" y="-117" font-family="Helvetica,sans-Serif" font-size="10.00">semaphore.h</text>
</a>
</g>
</g>
<!-- Node22&#45;&gt;Node23 -->
<g id="edge24_Node000022_Node000023" class="edge">
<title>Node22&#45;&gt;Node23</title>
<g id="a_edge24_Node000022_Node000023"><a xlink:title=" ">
<path fill="none" stroke="#63b8ff" d="M577.5,-164.75C577.5,-157.8 577.5,-147.85 577.5,-139.13"/>
<polygon fill="#63b8ff" stroke="#63b8ff" points="581,-139.09 577.5,-129.09 574,-139.09 581,-139.09"/>
</a>
</g>
</g>
<!-- Node24 -->
<g id="Node000024" class="node">
<title>Node24</title>
<g id="a_Node000024"><a xlink:href="Time_8h.html" target="_top" xlink:title="Lightweight Time Manipulation Utilities.">
<polygon fill="white" stroke="#666666" points="1200,-129 1085,-129 1085,-110 1200,-110 1200,-129"/>
<text text-anchor="middle" x="1142.5" y="-117" font-family="Helvetica,sans-Serif" font-size="10.00">src/Common/Time.h</text>
</a>
</g>
</g>
<!-- Node22&#45;&gt;Node24 -->
<g id="edge26_Node000022_Node000024" class="edge">
<title>Node22&#45;&gt;Node24</title>
<g id="a_edge26_Node000022_Node000024"><a xlink:title=" ">
<path fill="none" stroke="#63b8ff" d="M639.83,-165.93C642.76,-165.61 645.66,-165.3 648.5,-165 800.54,-149.05 979.28,-133.82 1074.57,-125.99"/>
<polygon fill="#63b8ff" stroke="#63b8ff" points="1074.97,-129.46 1084.65,-125.16 1074.39,-122.49 1074.97,-129.46"/>
</a>
</g>
</g>
<!-- Node24&#45;&gt;Node2 -->
<g id="edge29_Node000024_Node000002" class="edge">
<title>Node24&#45;&gt;Node2</title>
<g id="a_edge29_Node000024_Node000002"><a xlink:title=" ">
<path fill="none" stroke="#63b8ff" d="M1084.74,-111.61C1079.92,-111.06 1075.13,-110.52 1070.5,-110 929.48,-94.29 761.96,-77.22 686.24,-69.59"/>
<polygon fill="#63b8ff" stroke="#63b8ff" points="686.48,-66.09 676.18,-68.57 685.78,-73.06 686.48,-66.09"/>
</a>
</g>
</g>
<!-- Node24&#45;&gt;Node17 -->
<g id="edge28_Node000024_Node000017" class="edge">
<title>Node24&#45;&gt;Node17</title>
<g id="a_edge28_Node000024_Node000017"><a xlink:title=" ">
<path fill="none" stroke="#63b8ff" d="M1150.65,-109.8C1158.46,-101.17 1170.24,-87.35 1178.5,-74 1187.47,-59.51 1195.34,-41.78 1200.6,-28.74"/>
<polygon fill="#63b8ff" stroke="#63b8ff" points="1204.01,-29.65 1204.39,-19.06 1197.49,-27.1 1204.01,-29.65"/>
</a>
</g>
</g>
<!-- Node25 -->
<g id="Node000025" class="node">
<title>Node25</title>
<g id="a_Node000025"><a xlink:title=" ">
<polygon fill="#e0e0e0" stroke="#999999" points="1169,-74 1116,-74 1116,-55 1169,-55 1169,-74"/>
<text text-anchor="middle" x="1142.5" y="-62" font-family="Helvetica,sans-Serif" font-size="10.00">limits.h</text>
</a>
</g>
</g>
<!-- Node24&#45;&gt;Node25 -->
<g id="edge27_Node000024_Node000025" class="edge">
<title>Node24&#45;&gt;Node25</title>
<g id="a_edge27_Node000024_Node000025"><a xlink:title=" ">
<path fill="none" stroke="#63b8ff" d="M1142.5,-109.75C1142.5,-102.8 1142.5,-92.85 1142.5,-84.13"/>
<polygon fill="#63b8ff" stroke="#63b8ff" points="1146,-84.09 1142.5,-74.09 1139,-84.09 1146,-84.09"/>
</a>
</g>
</g>
<!-- Node26&#45;&gt;Node2 -->
<g id="edge33_Node000026_Node000002" class="edge">
<title>Node26&#45;&gt;Node2</title>
<g id="a_edge33_Node000026_Node000002"><a xlink:title=" ">
<path fill="none" stroke="#63b8ff" d="M125.22,-219.69C135.35,-196.91 165.84,-136.05 212.5,-110 279.2,-72.76 510.6,-66.59 604.97,-65.64"/>
<polygon fill="#63b8ff" stroke="#63b8ff" points="605.01,-69.14 614.98,-65.55 604.95,-62.14 605.01,-69.14"/>
</a>
</g>
</g>
<!-- Node26&#45;&gt;Node9 -->
<g id="edge31_Node000026_Node000009" class="edge">
<title>Node26&#45;&gt;Node9</title>
<g id="a_edge31_Node000026_Node000009"><a xlink:title=" ">
<path fill="none" stroke="#63b8ff" d="M117.97,-219.95C104.67,-187.74 57.4,-73.23 38.95,-28.55"/>
<polygon fill="#63b8ff" stroke="#63b8ff" points="42.15,-27.13 35.1,-19.22 35.68,-29.8 42.15,-27.13"/>
</a>
</g>
</g>
<!-- Node26&#45;&gt;Node19 -->
<g id="edge32_Node000026_Node000019" class="edge">
<title>Node26&#45;&gt;Node19</title>
<g id="a_edge32_Node000026_Node000019"><a xlink:title=" ">
<path fill="none" stroke="#63b8ff" d="M121.15,-219.95C119.83,-187.95 115.15,-74.68 113.28,-29.4"/>
<polygon fill="#63b8ff" stroke="#63b8ff" points="116.77,-29.07 112.86,-19.22 109.78,-29.36 116.77,-29.07"/>
</a>
</g>
</g>
<!-- Node26&#45;&gt;Node22 -->
<g id="edge34_Node000026_Node000022" class="edge">
<title>Node26&#45;&gt;Node22</title>
<g id="a_edge34_Node000026_Node000022"><a xlink:title=" ">
<path fill="none" stroke="#63b8ff" d="M194.76,-219.98C280.16,-210.06 420.4,-193.76 505.33,-183.89"/>
<polygon fill="#63b8ff" stroke="#63b8ff" points="505.88,-187.35 515.4,-182.72 505.07,-180.4 505.88,-187.35"/>
</a>
</g>
</g>
<!-- Node27&#45;&gt;Node2 -->
<g id="edge36_Node000027_Node000002" class="edge">
<title>Node27&#45;&gt;Node2</title>
<g id="a_edge36_Node000027_Node000002"><a xlink:title=" ">
<path fill="none" stroke="#63b8ff" d="M180.57,-280.22C193.59,-266.37 220.4,-239.07 246.5,-220 327.16,-161.07 349.14,-145.53 442.5,-110 496.75,-89.36 562.98,-77.09 604.71,-70.82"/>
<polygon fill="#63b8ff" stroke="#63b8ff" points="605.38,-74.26 614.77,-69.35 604.37,-67.33 605.38,-74.26"/>
</a>
</g>
</g>
<!-- Node27&#45;&gt;Node26 -->
<g id="edge37_Node000027_Node000026" class="edge">
<title>Node27&#45;&gt;Node26</title>
<g id="a_edge37_Node000027_Node000026"><a xlink:title=" ">
<path fill="none" stroke="#63b8ff" d="M164.97,-280.37C157.29,-271.55 145.18,-257.66 135.69,-246.77"/>
<polygon fill="#63b8ff" stroke="#63b8ff" points="138.27,-244.41 129.06,-239.17 132.99,-249.01 138.27,-244.41"/>
</a>
</g>
</g>
<!-- Node27&#45;&gt;Node28 -->
<g id="edge38_Node000027_Node000028" class="edge">
<title>Node27&#45;&gt;Node28</title>
<g id="a_edge38_Node000027_Node000028"><a xlink:title=" ">
<path fill="none" stroke="#63b8ff" d="M210.02,-280.49C255.78,-270.12 333.19,-252.57 383.05,-241.26"/>
<polygon fill="#63b8ff" stroke="#63b8ff" points="383.96,-244.64 392.94,-239.02 382.41,-237.81 383.96,-244.64"/>
</a>
</g>
</g>
<!-- Node29 -->
<g id="Node000029" class="node">
<title>Node29</title>
<g id="a_Node000029"><a xlink:title=" ">
<polygon fill="#e0e0e0" stroke="#999999" points="458.5,-184 402.5,-184 402.5,-165 458.5,-165 458.5,-184"/>
<text text-anchor="middle" x="430.5" y="-172" font-family="Helvetica,sans-Serif" font-size="10.00">stddef.h</text>
</a>
</g>
</g>
<!-- Node28&#45;&gt;Node29 -->
<g id="edge39_Node000028_Node000029" class="edge">
<title>Node28&#45;&gt;Node29</title>
<g id="a_edge39_Node000028_Node000029"><a xlink:title=" ">
<path fill="none" stroke="#63b8ff" d="M430.5,-219.75C430.5,-212.8 430.5,-202.85 430.5,-194.13"/>
<polygon fill="#63b8ff" stroke="#63b8ff" points="434,-194.09 430.5,-184.09 427,-194.09 434,-194.09"/>
</a>
</g>
</g>
<!-- Node31&#45;&gt;Node2 -->
<g id="edge42_Node000031_Node000002" class="edge">
<title>Node31&#45;&gt;Node2</title>
<g id="a_edge42_Node000031_Node000002"><a xlink:title=" ">
<path fill="none" stroke="#63b8ff" d="M588.29,-276.19C621.28,-268.72 658.19,-257.06 688.5,-239 717.4,-221.78 728.06,-215.26 740.5,-184 757.96,-140.11 704.46,-99.61 670.76,-79.26"/>
<polygon fill="#63b8ff" stroke="#63b8ff" points="672.26,-76.08 661.86,-74.06 668.73,-82.13 672.26,-76.08"/>
</a>
</g>
</g>
<!-- Node31&#45;&gt;Node20 -->
<g id="edge43_Node000031_Node000020" class="edge">
<title>Node31&#45;&gt;Node20</title>
<g id="a_edge43_Node000031_Node000020"><a xlink:title=" ">
<path fill="none" stroke="#63b8ff" d="M524.25,-274.84C539.1,-265.6 558.4,-253.59 573.16,-244.4"/>
<polygon fill="#63b8ff" stroke="#63b8ff" points="575.05,-247.35 581.69,-239.09 571.35,-241.41 575.05,-247.35"/>
</a>
</g>
</g>
<!-- Node31&#45;&gt;Node26 -->
<g id="edge44_Node000031_Node000026" class="edge">
<title>Node31&#45;&gt;Node26</title>
<g id="a_edge44_Node000031_Node000026"><a xlink:title=" ">
<path fill="none" stroke="#63b8ff" d="M414.8,-275.65C345.6,-265 250.13,-250.3 187.16,-240.61"/>
<polygon fill="#63b8ff" stroke="#63b8ff" points="187.37,-237.1 176.95,-239.04 186.3,-244.02 187.37,-237.1"/>
</a>
</g>
</g>
<!-- Node31&#45;&gt;Node28 -->
<g id="edge45_Node000031_Node000028" class="edge">
<title>Node31&#45;&gt;Node28</title>
<g id="a_edge45_Node000031_Node000028"><a xlink:title=" ">
<path fill="none" stroke="#63b8ff" d="M484.31,-274.84C473.69,-266.09 460.06,-254.85 449.17,-245.88"/>
<polygon fill="#63b8ff" stroke="#63b8ff" points="451.08,-242.92 441.14,-239.27 446.63,-248.33 451.08,-242.92"/>
</a>
</g>
</g>
<!-- Node33&#45;&gt;Node2 -->
<g id="edge49_Node000033_Node000002" class="edge">
<title>Node33&#45;&gt;Node2</title>
<g id="a_edge49_Node000033_Node000002"><a xlink:title=" ">
<path fill="none" stroke="#63b8ff" d="M870.45,-219.99C857.24,-198.46 819.51,-141.3 773.5,-110 746.94,-91.93 712.29,-80.48 685.74,-73.72"/>
<polygon fill="#63b8ff" stroke="#63b8ff" points="686.54,-70.31 676,-71.36 684.89,-77.12 686.54,-70.31"/>
</a>
</g>
</g>
<!-- Node33&#45;&gt;Node22 -->
<g id="edge48_Node000033_Node000022" class="edge">
<title>Node33&#45;&gt;Node22</title>
<g id="a_edge48_Node000033_Node000022"><a xlink:title=" ">
<path fill="none" stroke="#63b8ff" d="M827.62,-219.98C775.42,-210.7 691.88,-195.84 635.88,-185.88"/>
<polygon fill="#63b8ff" stroke="#63b8ff" points="636.21,-182.39 625.75,-184.08 634.99,-189.28 636.21,-182.39"/>
</a>
</g>
</g>
<!-- Node34&#45;&gt;Node2 -->
<g id="edge54_Node000034_Node000002" class="edge">
<title>Node34&#45;&gt;Node2</title>
<g id="a_edge54_Node000034_Node000002"><a xlink:title=" ">
<path fill="none" stroke="#63b8ff" d="M322.55,-280.24C330.68,-258.04 354.92,-198.96 393.5,-165 455.53,-110.4 551.1,-83.88 604.96,-72.62"/>
<polygon fill="#63b8ff" stroke="#63b8ff" points="605.73,-76.03 614.84,-70.62 604.34,-69.17 605.73,-76.03"/>
</a>
</g>
</g>
<!-- Node34&#45;&gt;Node20 -->
<g id="edge55_Node000034_Node000020" class="edge">
<title>Node34&#45;&gt;Node20</title>
<g id="a_edge55_Node000034_Node000020"><a xlink:title=" ">
<path fill="none" stroke="#63b8ff" d="M358.75,-280.68C407.69,-270.31 491.41,-252.56 545.06,-241.19"/>
<polygon fill="#63b8ff" stroke="#63b8ff" points="545.98,-244.57 555.04,-239.08 544.53,-237.73 545.98,-244.57"/>
</a>
</g>
</g>
<!-- Node34&#45;&gt;Node26 -->
<g id="edge56_Node000034_Node000026" class="edge">
<title>Node34&#45;&gt;Node26</title>
<g id="a_edge56_Node000034_Node000026"><a xlink:title=" ">
<path fill="none" stroke="#63b8ff" d="M290.71,-280.49C256.25,-270.31 198.41,-253.22 160.1,-241.9"/>
<polygon fill="#63b8ff" stroke="#63b8ff" points="160.91,-238.49 150.33,-239.02 158.92,-245.21 160.91,-238.49"/>
</a>
</g>
</g>
<!-- Node34&#45;&gt;Node28 -->
<g id="edge57_Node000034_Node000028" class="edge">
<title>Node34&#45;&gt;Node28</title>
<g id="a_edge57_Node000034_Node000028"><a xlink:title=" ">
<path fill="none" stroke="#63b8ff" d="M335.88,-280.37C354.08,-270.78 383.7,-255.17 404.95,-243.97"/>
<polygon fill="#63b8ff" stroke="#63b8ff" points="406.84,-246.93 414.05,-239.17 403.58,-240.73 406.84,-246.93"/>
</a>
</g>
</g>
<!-- Node35 -->
<g id="Node000035" class="node">
<title>Node35</title>
<g id="a_Node000035"><a xlink:title=" ">
<polygon fill="#e0e0e0" stroke="#999999" points="310,-239 255,-239 255,-220 310,-220 310,-239"/>
<text text-anchor="middle" x="282.5" y="-227" font-family="Helvetica,sans-Serif" font-size="10.00">signal.h</text>
</a>
</g>
</g>
<!-- Node34&#45;&gt;Node35 -->
<g id="edge53_Node000034_Node000035" class="edge">
<title>Node34&#45;&gt;Node35</title>
<g id="a_edge53_Node000034_Node000035"><a xlink:title=" ">
<path fill="none" stroke="#63b8ff" d="M314.04,-280.37C308.63,-271.81 300.19,-258.47 293.4,-247.74"/>
<polygon fill="#63b8ff" stroke="#63b8ff" points="296.29,-245.75 287.98,-239.17 290.37,-249.49 296.29,-245.75"/>
</a>
</g>
</g>
</g>
</svg>
