<?xml version="1.0" encoding="UTF-8" standalone="no"?>
<!DOCTYPE svg PUBLIC "-//W3C//DTD SVG 1.1//EN"
 "http://www.w3.org/Graphics/SVG/1.1/DTD/svg11.dtd">
<!-- Generated by graphviz version 2.43.0 (0)
 -->
<!-- Title: MbPgPipeThroughputTest Pages: 1 -->
<svg width="616pt" height="332pt"
 viewBox="0.00 0.00 616.00 332.00" xmlns="http://www.w3.org/2000/svg" xmlns:xlink="http://www.w3.org/1999/xlink">
<g id="graph0" class="graph" transform="scale(1 1) rotate(0) translate(4 328)">
<title>MbPgPipeThroughputTest</title>
<polygon fill="white" stroke="transparent" points="-4,4 -4,-328 612,-328 612,4 -4,4"/>
<!-- Node1 -->
<g id="node1" class="node">
<title>Node1</title>
<g id="a_node1"><a xlink:title="Modbus data pipe throughput test.">
<polygon fill="#bfbfbf" stroke="black" points="0,-114.5 0,-133.5 140,-133.5 140,-114.5 0,-114.5"/>
<text text-anchor="middle" x="70" y="-121.5" font-family="Helvetica,sans-Serif" font-size="10.00">MbPgPipeThroughputTest</text>
</a>
</g>
</g>
<!-- Node2 -->
<g id="node2" class="node">
<title>Node2</title>
<g id="a_node2"><a xlink:href="DataHandlers_2ModbusWithPostgres_2Modbus_8c.html#a1660e1b6915b7758a7708e89c8445cbf" target="_top" xlink:title="Implements throughput testing for Modbus data pipe.">
<polygon fill="white" stroke="black" points="176,-152.5 176,-171.5 304,-171.5 304,-152.5 176,-152.5"/>
<text text-anchor="middle" x="240" y="-159.5" font-family="Helvetica,sans-Serif" font-size="10.00">MbPipeThroughputTest</text>
</a>
</g>
</g>
<!-- Node1&#45;&gt;Node2 -->
<g id="edge1" class="edge">
<title>Node1&#45;&gt;Node2</title>
<path fill="none" stroke="midnightblue" d="M113.39,-133.59C135.76,-138.65 163.4,-144.9 187.05,-150.25"/>
<polygon fill="midnightblue" stroke="midnightblue" points="186.39,-153.69 196.91,-152.48 187.93,-146.86 186.39,-153.69"/>
</g>
<!-- Node14 -->
<g id="node14" class="node">
<title>Node14</title>
<g id="a_node14"><a xlink:href="Signals_8c.html#aca8d19968aa974641e340443ba21e58e" target="_top" xlink:title="Checks if the system should initiate shutdown.">
<polygon fill="white" stroke="black" points="182,-114.5 182,-133.5 298,-133.5 298,-114.5 182,-114.5"/>
<text text-anchor="middle" x="240" y="-121.5" font-family="Helvetica,sans-Serif" font-size="10.00">SdbShouldShutdown</text>
</a>
</g>
</g>
<!-- Node1&#45;&gt;Node14 -->
<g id="edge14" class="edge">
<title>Node1&#45;&gt;Node14</title>
<path fill="none" stroke="midnightblue" d="M140.3,-124C150.67,-124 161.35,-124 171.68,-124"/>
<polygon fill="midnightblue" stroke="midnightblue" points="171.87,-127.5 181.87,-124 171.87,-120.5 171.87,-127.5"/>
</g>
<!-- Node15 -->
<g id="node15" class="node">
<title>Node15</title>
<g id="a_node15"><a xlink:href="Sdb_8h.html#a6d72cd06f56898ea5a6d8e78b60888ba" target="_top" xlink:title=" ">
<polygon fill="white" stroke="black" points="209,-76.5 209,-95.5 271,-95.5 271,-76.5 209,-76.5"/>
<text text-anchor="middle" x="240" y="-83.5" font-family="Helvetica,sans-Serif" font-size="10.00">SdbStrErr</text>
</a>
</g>
</g>
<!-- Node1&#45;&gt;Node15 -->
<g id="edge15" class="edge">
<title>Node1&#45;&gt;Node15</title>
<path fill="none" stroke="midnightblue" d="M113.39,-114.41C139.65,-108.47 173.17,-100.89 198.97,-95.05"/>
<polygon fill="midnightblue" stroke="midnightblue" points="199.83,-98.45 208.81,-92.83 198.28,-91.62 199.83,-98.45"/>
</g>
<!-- Node3 -->
<g id="node3" class="node">
<title>Node3</title>
<g id="a_node3"><a xlink:href="CommProtocols_2Modbus_8c.html#a958797e9ec7e41e215bebd4d2fd91513" target="_top" xlink:title="Initializes thread arenas for Modbus operations.">
<polygon fill="white" stroke="black" points="349.5,-304.5 349.5,-323.5 464.5,-323.5 464.5,-304.5 349.5,-304.5"/>
<text text-anchor="middle" x="407" y="-311.5" font-family="Helvetica,sans-Serif" font-size="10.00">MbThreadArenasInit</text>
</a>
</g>
</g>
<!-- Node2&#45;&gt;Node3 -->
<g id="edge2" class="edge">
<title>Node2&#45;&gt;Node3</title>
<path fill="none" stroke="midnightblue" d="M245.45,-171.73C257.19,-196.33 291.49,-261.41 340,-295 342.88,-296.99 345.97,-298.78 349.18,-300.38"/>
<polygon fill="midnightblue" stroke="midnightblue" points="347.92,-303.65 358.49,-304.42 350.71,-297.23 347.92,-303.65"/>
</g>
<!-- Node4 -->
<g id="node4" class="node">
<title>Node4</title>
<g id="a_node4"><a xlink:href="Sdb_8h.html#a132f10c44fe9dab28a9fae8839c099ad" target="_top" xlink:title=" ">
<polygon fill="white" stroke="black" points="352,-266.5 352,-285.5 462,-285.5 462,-266.5 352,-266.5"/>
<text text-anchor="middle" x="407" y="-273.5" font-family="Helvetica,sans-Serif" font-size="10.00">SdbArenaBootstrap</text>
</a>
</g>
</g>
<!-- Node2&#45;&gt;Node4 -->
<g id="edge3" class="edge">
<title>Node2&#45;&gt;Node4</title>
<path fill="none" stroke="midnightblue" d="M248.33,-171.66C263.38,-190.83 299.75,-233.82 340,-257 343.72,-259.14 347.7,-261.06 351.79,-262.77"/>
<polygon fill="midnightblue" stroke="midnightblue" points="350.88,-266.16 361.47,-266.4 353.34,-259.61 350.88,-266.16"/>
</g>
<!-- Node5 -->
<g id="node5" class="node">
<title>Node5</title>
<g id="a_node5"><a xlink:href="Sdb_8h.html#ab63e953fd90c628d5c0727287df66fab" target="_top" xlink:title=" ">
<polygon fill="white" stroke="black" points="367.5,-228.5 367.5,-247.5 446.5,-247.5 446.5,-228.5 367.5,-228.5"/>
<text text-anchor="middle" x="407" y="-235.5" font-family="Helvetica,sans-Serif" font-size="10.00">SdbArenaInit</text>
</a>
</g>
</g>
<!-- Node2&#45;&gt;Node5 -->
<g id="edge4" class="edge">
<title>Node2&#45;&gt;Node5</title>
<path fill="none" stroke="midnightblue" d="M255.19,-171.65C273.91,-184.03 308.23,-205.52 340,-219 345.55,-221.36 351.49,-223.53 357.45,-225.49"/>
<polygon fill="midnightblue" stroke="midnightblue" points="356.82,-228.96 367.41,-228.59 358.9,-222.27 356.82,-228.96"/>
</g>
<!-- Node6 -->
<g id="node6" class="node">
<title>Node6</title>
<g id="a_node6"><a xlink:href="Sdb_8h.html#a99992a234eafd2bc02fe59561c4beb35" target="_top" xlink:title=" ">
<polygon fill="white" stroke="black" points="364,-190.5 364,-209.5 450,-209.5 450,-190.5 364,-190.5"/>
<text text-anchor="middle" x="407" y="-197.5" font-family="Helvetica,sans-Serif" font-size="10.00">SdbArenaPush</text>
</a>
</g>
</g>
<!-- Node2&#45;&gt;Node6 -->
<g id="edge5" class="edge">
<title>Node2&#45;&gt;Node6</title>
<path fill="none" stroke="midnightblue" d="M282.64,-171.59C304.51,-176.63 331.51,-182.84 354.66,-188.18"/>
<polygon fill="midnightblue" stroke="midnightblue" points="354.13,-191.65 364.66,-190.48 355.7,-184.82 354.13,-191.65"/>
</g>
<!-- Node7 -->
<g id="node7" class="node">
<title>Node7</title>
<g id="a_node7"><a xlink:href="Thread_8c.html#a192a33d80a7d463ad237856cdc7343be" target="_top" xlink:title="Wait on a thread barrier.">
<polygon fill="white" stroke="black" points="362.5,-152.5 362.5,-171.5 451.5,-171.5 451.5,-152.5 362.5,-152.5"/>
<text text-anchor="middle" x="407" y="-159.5" font-family="Helvetica,sans-Serif" font-size="10.00">SdbBarrierWait</text>
</a>
</g>
</g>
<!-- Node2&#45;&gt;Node7 -->
<g id="edge6" class="edge">
<title>Node2&#45;&gt;Node7</title>
<path fill="none" stroke="midnightblue" d="M304.32,-162C319.98,-162 336.61,-162 351.78,-162"/>
<polygon fill="midnightblue" stroke="midnightblue" points="352.03,-165.5 362.03,-162 352.03,-158.5 352.03,-165.5"/>
</g>
<!-- Node8 -->
<g id="node8" class="node">
<title>Node8</title>
<g id="a_node8"><a xlink:href="Sdb_8h.html#ae4ef1557f623dc27e4d1f8f9cac4b6fc" target="_top" xlink:title=" ">
<polygon fill="white" stroke="black" points="340,-114.5 340,-133.5 474,-133.5 474,-114.5 340,-114.5"/>
<text text-anchor="middle" x="407" y="-121.5" font-family="Helvetica,sans-Serif" font-size="10.00">SdbLoadFileIntoMemory</text>
</a>
</g>
</g>
<!-- Node2&#45;&gt;Node8 -->
<g id="edge7" class="edge">
<title>Node2&#45;&gt;Node8</title>
<path fill="none" stroke="midnightblue" d="M282.64,-152.41C304.51,-147.37 331.51,-141.16 354.66,-135.82"/>
<polygon fill="midnightblue" stroke="midnightblue" points="355.7,-139.18 364.66,-133.52 354.13,-132.35 355.7,-139.18"/>
</g>
<!-- Node9 -->
<g id="node9" class="node">
<title>Node9</title>
<g id="a_node9"><a xlink:href="Sdb_8h.html#ac5c7c1054a5f2110db33fbaf02ee3875" target="_top" xlink:title=" ">
<polygon fill="white" stroke="black" points="368.5,-76.5 368.5,-95.5 445.5,-95.5 445.5,-76.5 368.5,-76.5"/>
<text text-anchor="middle" x="407" y="-83.5" font-family="Helvetica,sans-Serif" font-size="10.00">SdbMemcpy</text>
</a>
</g>
</g>
<!-- Node2&#45;&gt;Node9 -->
<g id="edge8" class="edge">
<title>Node2&#45;&gt;Node9</title>
<path fill="none" stroke="midnightblue" d="M283.66,-152.45C290.73,-149.94 297.78,-146.84 304,-143 323.8,-130.79 320.12,-117.09 340,-105 345.75,-101.5 352.17,-98.63 358.69,-96.26"/>
<polygon fill="midnightblue" stroke="midnightblue" points="359.82,-99.58 368.24,-93.16 357.65,-92.92 359.82,-99.58"/>
</g>
<!-- Node10 -->
<g id="node10" class="node">
<title>Node10</title>
<g id="a_node10"><a xlink:href="SensorDataPipe_8c.html#ad24e8341d323d221a2cfae80ae7d0508" target="_top" xlink:title="Flush the current write buffer.">
<polygon fill="white" stroke="black" points="369,-0.5 369,-19.5 445,-19.5 445,-0.5 369,-0.5"/>
<text text-anchor="middle" x="407" y="-7.5" font-family="Helvetica,sans-Serif" font-size="10.00">SdPipeFlush</text>
</a>
</g>
</g>
<!-- Node2&#45;&gt;Node10 -->
<g id="edge9" class="edge">
<title>Node2&#45;&gt;Node10</title>
<path fill="none" stroke="midnightblue" d="M290.46,-152.38C295.44,-149.93 300.1,-146.85 304,-143 341.81,-105.67 301.95,-66.09 340,-29 345.34,-23.79 352.01,-20 359.05,-17.23"/>
<polygon fill="midnightblue" stroke="midnightblue" points="360.35,-20.49 368.77,-14.07 358.18,-13.83 360.35,-20.49"/>
</g>
<!-- Node13 -->
<g id="node13" class="node">
<title>Node13</title>
<g id="a_node13"><a xlink:href="SensorDataPipe_8c.html#a2c82e4869caac3347107efcc1b791db4" target="_top" xlink:title="Acquire Write Buffer Arena.">
<polygon fill="white" stroke="black" points="346,-38.5 346,-57.5 468,-57.5 468,-38.5 346,-38.5"/>
<text text-anchor="middle" x="407" y="-45.5" font-family="Helvetica,sans-Serif" font-size="10.00">SdPipeGetWriteBuffer</text>
</a>
</g>
</g>
<!-- Node2&#45;&gt;Node13 -->
<g id="edge12" class="edge">
<title>Node2&#45;&gt;Node13</title>
<path fill="none" stroke="midnightblue" d="M288.68,-152.42C294.22,-149.96 299.5,-146.88 304,-143 332.33,-118.62 311.52,-91.2 340,-67 341.99,-65.31 344.12,-63.77 346.35,-62.37"/>
<polygon fill="midnightblue" stroke="midnightblue" points="348.18,-65.36 355.39,-57.61 344.92,-59.17 348.18,-65.36"/>
</g>
<!-- Node11 -->
<g id="node11" class="node">
<title>Node11</title>
<g id="a_node11"><a xlink:href="Sdb_8h.html#ab38d94a0b56df0604f07862a93856990" target="_top" xlink:title=" ">
<polygon fill="white" stroke="black" points="514.5,-38.5 514.5,-57.5 603.5,-57.5 603.5,-38.5 514.5,-38.5"/>
<text text-anchor="middle" x="559" y="-45.5" font-family="Helvetica,sans-Serif" font-size="10.00">SdbArenaClear</text>
</a>
</g>
</g>
<!-- Node10&#45;&gt;Node11 -->
<g id="edge10" class="edge">
<title>Node10&#45;&gt;Node11</title>
<path fill="none" stroke="midnightblue" d="M445.08,-19.39C464.85,-24.4 489.4,-30.62 510.55,-35.98"/>
<polygon fill="midnightblue" stroke="midnightblue" points="509.75,-39.39 520.31,-38.45 511.47,-32.6 509.75,-39.39"/>
</g>
<!-- Node12 -->
<g id="node12" class="node">
<title>Node12</title>
<g id="a_node12"><a xlink:href="Sdb_8h.html#a05ee63d567b60fbc2b9e6732f4154a48" target="_top" xlink:title=" ">
<polygon fill="white" stroke="black" points="510,-0.5 510,-19.5 608,-19.5 608,-0.5 510,-0.5"/>
<text text-anchor="middle" x="559" y="-7.5" font-family="Helvetica,sans-Serif" font-size="10.00">SdbArenaGetPos</text>
</a>
</g>
</g>
<!-- Node10&#45;&gt;Node12 -->
<g id="edge11" class="edge">
<title>Node10&#45;&gt;Node12</title>
<path fill="none" stroke="midnightblue" d="M445.08,-10C461.55,-10 481.33,-10 499.7,-10"/>
<polygon fill="midnightblue" stroke="midnightblue" points="499.73,-13.5 509.73,-10 499.73,-6.5 499.73,-13.5"/>
</g>
<!-- Node13&#45;&gt;Node11 -->
<g id="edge13" class="edge">
<title>Node13&#45;&gt;Node11</title>
<path fill="none" stroke="midnightblue" d="M468.15,-48C480.12,-48 492.63,-48 504.37,-48"/>
<polygon fill="midnightblue" stroke="midnightblue" points="504.46,-51.5 514.46,-48 504.46,-44.5 504.46,-51.5"/>
</g>
</g>
</svg>
