<?xml version="1.0" encoding="UTF-8" standalone="no"?>
<!DOCTYPE svg PUBLIC "-//W3C//DTD SVG 1.1//EN"
 "http://www.w3.org/Graphics/SVG/1.1/DTD/svg11.dtd">
<!-- Generated by graphviz version 2.43.0 (0)
 -->
<!-- Title: RunModbusTestServer Pages: 1 -->
<!--zoomable 156 -->

<svg id="main" version="1.1" xmlns="http://www.w3.org/2000/svg" xmlns:xlink="http://www.w3.org/1999/xlink" xml:space="preserve" onload="init(evt)">
<style type="text/css"><![CDATA[
.node, .edge {opacity: 0.7;}
.node.selected, .edge.selected {opacity: 1;}
.edge:hover path { stroke: red; }
.edge:hover polygon { stroke: red; fill: red; }
]]></style>

<defs>
  <circle id="rim" cx="0" cy="0" r="7"/>
  <circle id="rim2" cx="0" cy="0" r="3.5"/>
  <g id="zoomPlus">
    <use xlink:href="#rim" fill="#404040"><set attributeName="fill" to="#808080" begin="zoomplus.mouseover" end="zoomplus.mouseout"/></use>
    <path d="M-4,0h8M0,-4v8" fill="none" stroke="white" stroke-width="1.5" pointer-events="none"/>
  </g>
  <g id="zoomMin">
    <use xlink:href="#rim" fill="#404040"><set attributeName="fill" to="#808080" begin="zoomminus.mouseover" end="zoomminus.mouseout"/></use>
    <path d="M-4,0h8" fill="none" stroke="white" stroke-width="1.5" pointer-events="none"/>
  </g>
  <g id="arrowUp" transform="translate(30 24)">
    <use xlink:href="#rim"/>
    <path pointer-events="none" fill="none" stroke="white" stroke-width="1.5" d="M0,-3.0v7 M-2.5,-0.5L0,-3.0L2.5,-0.5"/>
  </g>
  <g id="arrowRight" transform="rotate(90) translate(36 -43)">
    <use xlink:href="#rim"/>
    <path pointer-events="none" fill="none" stroke="white" stroke-width="1.5" d="M0,-3.0v7 M-2.5,-0.5L0,-3.0L2.5,-0.5"/>
  </g>
  <g id="arrowDown" transform="rotate(180) translate(-30 -48)">
    <use xlink:href="#rim"/>
    <path pointer-events="none" fill="none" stroke="white" stroke-width="1.5" d="M0,-3.0v7 M-2.5,-0.5L0,-3.0L2.5,-0.5"/>
  </g>
  <g id="arrowLeft" transform="rotate(270) translate(-36 17)">
    <use xlink:href="#rim"/>
    <path pointer-events="none" fill="none" stroke="white" stroke-width="1.5" d="M0,-3.0v7 M-2.5,-0.5L0,-3.0L2.5,-0.5"/>
  </g>
  <g id="resetDef">
    <use xlink:href="#rim2" fill="#404040"><set attributeName="fill" to="#808080" begin="reset.mouseover" end="reset.mouseout"/></use>
  </g>
</defs>
<script type="application/ecmascript">
var viewWidth = 501;
var viewHeight = 156;
var sectionId = 'dynsection-3';
</script>
<script type="application/ecmascript" xlink:href="svg.min.js"/>
<svg id="graph" class="graph">
<g id="viewport">
<title>RunModbusTestServer</title>
<!-- Node1 -->
<g id="Node000001" class="node">
<title>Node1</title>
<g id="a_Node000001"><a xlink:title="Main Modbus Test Server routine.">
<polygon fill="#999999" stroke="#666666" points="125,-92 0,-92 0,-73 125,-73 125,-92"/>
<text text-anchor="middle" x="62.5" y="-80" font-family="Helvetica,sans-Serif" font-size="10.00">RunModbusTestServer</text>
</a>
</g>
</g>
<!-- Node2 -->
<g id="Node000002" class="node">
<title>Node2</title>
<g id="a_Node000002"><a xlink:href="Thread_8c.html#a192a33d80a7d463ad237856cdc7343be" target="_top" xlink:title="Wait on a thread barrier.">
<polygon fill="white" stroke="#666666" points="263.5,-148 174.5,-148 174.5,-129 263.5,-129 263.5,-148"/>
<text text-anchor="middle" x="219" y="-136" font-family="Helvetica,sans-Serif" font-size="10.00">SdbBarrierWait</text>
</a>
</g>
</g>
<!-- Node1&#45;&gt;Node2 -->
<g id="edge1_Node000001_Node000002" class="edge">
<title>Node1&#45;&gt;Node2</title>
<g id="a_edge1_Node000001_Node000002"><a xlink:title=" ">
<path fill="none" stroke="#63b8ff" d="M86.98,-92.15C106.63,-100.11 135.47,-111.5 161,-120.5 166.14,-122.31 171.57,-124.14 176.95,-125.89"/>
<polygon fill="#63b8ff" stroke="#63b8ff" points="175.93,-129.24 186.52,-128.97 178.07,-122.58 175.93,-129.24"/>
</a>
</g>
</g>
<!-- Node3 -->
<g id="Node000003" class="node">
<title>Node3</title>
<g id="a_Node000003"><a xlink:href="Sdb_8h.html#a2758760564fc0044b9f6c9aee290a7fe" target="_top" xlink:title=" ">
<polygon fill="white" stroke="#666666" points="256,-111 182,-111 182,-92 256,-92 256,-111"/>
<text text-anchor="middle" x="219" y="-99" font-family="Helvetica,sans-Serif" font-size="10.00">SdbMemset</text>
</a>
</g>
</g>
<!-- Node1&#45;&gt;Node3 -->
<g id="edge2_Node000001_Node000003" class="edge">
<title>Node1&#45;&gt;Node3</title>
<g id="a_edge2_Node000001_Node000003"><a xlink:title=" ">
<path fill="none" stroke="#63b8ff" d="M125.01,-90.06C140.45,-91.96 156.76,-93.97 171.34,-95.76"/>
<polygon fill="#63b8ff" stroke="#63b8ff" points="171.26,-99.28 181.61,-97.03 172.12,-92.33 171.26,-99.28"/>
</a>
</g>
</g>
<!-- Node4 -->
<g id="Node000004" class="node">
<title>Node4</title>
<g id="a_Node000004"><a xlink:href="Signals_8c.html#aca8d19968aa974641e340443ba21e58e" target="_top" xlink:title="Checks if the system should initiate shutdown.">
<polygon fill="white" stroke="#666666" points="277,-74 161,-74 161,-55 277,-55 277,-74"/>
<text text-anchor="middle" x="219" y="-62" font-family="Helvetica,sans-Serif" font-size="10.00">SdbShouldShutdown</text>
</a>
</g>
</g>
<!-- Node1&#45;&gt;Node4 -->
<g id="edge3_Node000001_Node000004" class="edge">
<title>Node1&#45;&gt;Node4</title>
<g id="a_edge3_Node000001_Node000004"><a xlink:title=" ">
<path fill="none" stroke="#63b8ff" d="M125.01,-75.33C133.47,-74.35 142.21,-73.33 150.77,-72.33"/>
<polygon fill="#63b8ff" stroke="#63b8ff" points="151.19,-75.81 160.72,-71.17 150.38,-68.85 151.19,-75.81"/>
</a>
</g>
</g>
<!-- Node5 -->
<g id="Node000005" class="node">
<title>Node5</title>
<g id="a_Node000005"><a xlink:href="ModbusTestServer_8c.html#a562277af51f78c8939feeb4d33925307" target="_top" xlink:title="Sends Modbus data over a socket.">
<polygon fill="white" stroke="#666666" points="270,-37 168,-37 168,-18 270,-18 270,-37"/>
<text text-anchor="middle" x="219" y="-25" font-family="Helvetica,sans-Serif" font-size="10.00">SendModbusData</text>
</a>
</g>
</g>
<!-- Node1&#45;&gt;Node5 -->
<g id="edge4_Node000001_Node000005" class="edge">
<title>Node1&#45;&gt;Node5</title>
<g id="a_edge4_Node000001_Node000005"><a xlink:title=" ">
<path fill="none" stroke="#63b8ff" d="M88.67,-72.95C108.31,-65.57 136.31,-55.17 161,-46.5 166.74,-44.49 172.82,-42.4 178.79,-40.39"/>
<polygon fill="#63b8ff" stroke="#63b8ff" points="180.28,-43.58 188.65,-37.08 178.05,-36.94 180.28,-43.58"/>
</a>
</g>
</g>
<!-- Node6 -->
<g id="Node000006" class="node">
<title>Node6</title>
<g id="a_Node000006"><a xlink:href="ModbusTestServer_8c.html#aa39b29a317e07f044b7bac56db0e18b1" target="_top" xlink:title="Generates random shaft power data.">
<polygon fill="white" stroke="#666666" points="493,-56 313,-56 313,-37 493,-37 493,-56"/>
<text text-anchor="middle" x="403" y="-44" font-family="Helvetica,sans-Serif" font-size="10.00">GenerateShaftPowerDataRandom</text>
</a>
</g>
</g>
<!-- Node5&#45;&gt;Node6 -->
<g id="edge5_Node000005_Node000006" class="edge">
<title>Node5&#45;&gt;Node6</title>
<g id="a_edge5_Node000005_Node000006"><a xlink:title=" ">
<path fill="none" stroke="#63b8ff" d="M270.21,-32.74C280.47,-33.81 291.59,-34.97 302.89,-36.15"/>
<polygon fill="#63b8ff" stroke="#63b8ff" points="302.53,-39.63 312.83,-37.19 303.25,-32.67 302.53,-39.63"/>
</a>
</g>
</g>
<!-- Node7 -->
<g id="Node000007" class="node">
<title>Node7</title>
<g id="a_Node000007"><a xlink:href="Sdb_8h.html#a9b1bdb21ac42d86edd96d53d49da1760" target="_top" xlink:title=" ">
<polygon fill="white" stroke="#666666" points="441.5,-19 364.5,-19 364.5,0 441.5,0 441.5,-19"/>
<text text-anchor="middle" x="403" y="-7" font-family="Helvetica,sans-Serif" font-size="10.00">SdbMemcpy</text>
</a>
</g>
</g>
<!-- Node5&#45;&gt;Node7 -->
<g id="edge6_Node000005_Node000007" class="edge">
<title>Node5&#45;&gt;Node7</title>
<g id="a_edge6_Node000005_Node000007"><a xlink:title=" ">
<path fill="none" stroke="#63b8ff" d="M270.21,-22.53C296.5,-19.93 328.51,-16.77 354.4,-14.21"/>
<polygon fill="#63b8ff" stroke="#63b8ff" points="354.76,-17.69 364.36,-13.22 354.07,-10.72 354.76,-17.69"/>
</a>
</g>
</g>
</g>
</svg>

<g id="navigator" transform="translate(0 0)" fill="#404254">
  <rect fill="#f2f5e9" fill-opacity="0.5" stroke="#606060" stroke-width=".5" x="0" y="0" width="60" height="60"/>
  <use id="zoomplus" xlink:href="#zoomPlus" x="17" y="9" onmousedown="handleZoom(evt,'in')"/>
  <use id="zoomminus" xlink:href="#zoomMin" x="42" y="9" onmousedown="handleZoom(evt,'out')"/>
  <use id="reset" xlink:href="#resetDef" x="30" y="36" onmousedown="handleReset()"/>
   <use id="arrowup" xlink:href="#arrowUp" x="0" y="0" onmousedown="handlePan(0,-1)"/>
  <use id="arrowright" xlink:href="#arrowRight" x="0" y="0" onmousedown="handlePan(1,0)"/>
  <use id="arrowdown" xlink:href="#arrowDown" x="0" y="0" onmousedown="handlePan(0,1)"/>
  <use id="arrowleft" xlink:href="#arrowLeft" x="0" y="0" onmousedown="handlePan(-1,0)"/>
</g>
<svg viewBox="0 0 15 15" width="100%" height="30px" preserveAspectRatio="xMaxYMin meet">
 <g id="arrow_out" transform="scale(0.3 0.3)">
  <a xlink:href="ModbusTestServer_8c_a0b60204e0a9d1577d141cdc21367ac70_cgraph_org.svg" target="_base">
   <rect id="button" ry="5" rx="5" y="6" x="6" height="38" width="38"
        fill="#f2f5e9" fill-opacity="0.5" stroke="#606060" stroke-width="1.0"/>
   <path id="arrow"
     d="M 11.500037,31.436501 C 11.940474,20.09759 22.043105,11.32322 32.158766,21.979434 L 37.068811,17.246167 C 37.068811,17.246167 37.088388,32 37.088388,32 L 22.160133,31.978069 C 22.160133,31.978069 26.997745,27.140456 26.997745,27.140456 C 18.528582,18.264221 13.291696,25.230495 11.500037,31.436501 z"
     style="fill:#404040;"/>
  </a>
 </g>
</svg>

<style type='text/css'>
<![CDATA[
[data-mouse-over-selected='false'] { opacity: 0.7; }
[data-mouse-over-selected='true']  { opacity: 1.0; }
]]>
</style>
<script type="application/ecmascript"><![CDATA[
document.addEventListener('DOMContentLoaded', (event) => {
  highlightEdges();
  highlightAdjacentNodes();
});
]]></script>
</svg>
