<?xml version="1.0" encoding="UTF-8" standalone="no"?>
<!DOCTYPE svg PUBLIC "-//W3C//DTD SVG 1.1//EN"
 "http://www.w3.org/Graphics/SVG/1.1/DTD/svg11.dtd">
<!-- Generated by graphviz version 2.43.0 (0)
 -->
<!-- Title: MbThread Pages: 1 -->
<!--zoomable 473 -->

<svg id="main" version="1.1" xmlns="http://www.w3.org/2000/svg" xmlns:xlink="http://www.w3.org/1999/xlink" xml:space="preserve" onload="init(evt)">
<style type="text/css"><![CDATA[
.node, .edge {opacity: 0.7;}
.node.selected, .edge.selected {opacity: 1;}
.edge:hover path { stroke: red; }
.edge:hover polygon { stroke: red; fill: red; }
]]></style>

<defs>
  <circle id="rim" cx="0" cy="0" r="7"/>
  <circle id="rim2" cx="0" cy="0" r="3.5"/>
  <g id="zoomPlus">
    <use xlink:href="#rim" fill="#404040"><set attributeName="fill" to="#808080" begin="zoomplus.mouseover" end="zoomplus.mouseout"/></use>
    <path d="M-4,0h8M0,-4v8" fill="none" stroke="white" stroke-width="1.5" pointer-events="none"/>
  </g>
  <g id="zoomMin">
    <use xlink:href="#rim" fill="#404040"><set attributeName="fill" to="#808080" begin="zoomminus.mouseover" end="zoomminus.mouseout"/></use>
    <path d="M-4,0h8" fill="none" stroke="white" stroke-width="1.5" pointer-events="none"/>
  </g>
  <g id="arrowUp" transform="translate(30 24)">
    <use xlink:href="#rim"/>
    <path pointer-events="none" fill="none" stroke="white" stroke-width="1.5" d="M0,-3.0v7 M-2.5,-0.5L0,-3.0L2.5,-0.5"/>
  </g>
  <g id="arrowRight" transform="rotate(90) translate(36 -43)">
    <use xlink:href="#rim"/>
    <path pointer-events="none" fill="none" stroke="white" stroke-width="1.5" d="M0,-3.0v7 M-2.5,-0.5L0,-3.0L2.5,-0.5"/>
  </g>
  <g id="arrowDown" transform="rotate(180) translate(-30 -48)">
    <use xlink:href="#rim"/>
    <path pointer-events="none" fill="none" stroke="white" stroke-width="1.5" d="M0,-3.0v7 M-2.5,-0.5L0,-3.0L2.5,-0.5"/>
  </g>
  <g id="arrowLeft" transform="rotate(270) translate(-36 17)">
    <use xlink:href="#rim"/>
    <path pointer-events="none" fill="none" stroke="white" stroke-width="1.5" d="M0,-3.0v7 M-2.5,-0.5L0,-3.0L2.5,-0.5"/>
  </g>
  <g id="resetDef">
    <use xlink:href="#rim2" fill="#404040"><set attributeName="fill" to="#808080" begin="reset.mouseover" end="reset.mouseout"/></use>
  </g>
</defs>
<script type="application/ecmascript">
var viewWidth = 623;
var viewHeight = 473;
var sectionId = 'dynsection-8';
</script>
<script type="application/ecmascript" xlink:href="svg.min.js"/>
<svg id="graph" class="graph">
<g id="viewport">
<title>MbThread</title>
<!-- Node1 -->
<g id="Node000001" class="node">
<title>Node1</title>
<g id="a_Node000001"><a xlink:title="Modbus thread function.">
<polygon fill="#999999" stroke="#666666" points="65,-222 0,-222 0,-203 65,-203 65,-222"/>
<text text-anchor="middle" x="32.5" y="-210" font-family="Helvetica,sans-Serif" font-size="10.00">MbThread</text>
</a>
</g>
</g>
<!-- Node2 -->
<g id="Node000002" class="node">
<title>Node2</title>
<g id="a_Node000002"><a xlink:href="DataHandlers_2ModbusWithPostgres_2Modbus_8c.html#ac42f810b60d139ab2f82c4146710d721" target="_top" xlink:title="Implements main Modbus thread loop.">
<polygon fill="white" stroke="#666666" points="157,-241 107,-241 107,-222 157,-222 157,-241"/>
<text text-anchor="middle" x="132" y="-229" font-family="Helvetica,sans-Serif" font-size="10.00">MbRun</text>
</a>
</g>
</g>
<!-- Node1&#45;&gt;Node2 -->
<g id="edge1_Node000001_Node000002" class="edge">
<title>Node1&#45;&gt;Node2</title>
<g id="a_edge1_Node000001_Node000002"><a xlink:title=" ">
<path fill="none" stroke="#63b8ff" d="M65.16,-218.67C75.33,-220.65 86.64,-222.86 96.98,-224.87"/>
<polygon fill="#63b8ff" stroke="#63b8ff" points="96.43,-228.33 106.92,-226.81 97.77,-221.46 96.43,-228.33"/>
</a>
</g>
</g>
<!-- Node22 -->
<g id="Node000022" class="node">
<title>Node22</title>
<g id="a_Node000022"><a xlink:href="Sdb_8h.html#ae36b72fab20d0c2a64243117597c526b" target="_top" xlink:title=" ">
<polygon fill="white" stroke="#666666" points="163,-204 101,-204 101,-185 163,-185 163,-204"/>
<text text-anchor="middle" x="132" y="-192" font-family="Helvetica,sans-Serif" font-size="10.00">SdbStrErr</text>
</a>
</g>
</g>
<!-- Node1&#45;&gt;Node22 -->
<g id="edge23_Node000001_Node000022" class="edge">
<title>Node1&#45;&gt;Node22</title>
<g id="a_edge23_Node000001_Node000022"><a xlink:title=" ">
<path fill="none" stroke="#63b8ff" d="M65.16,-206.66C73.39,-205.14 82.37,-203.48 90.97,-201.89"/>
<polygon fill="#63b8ff" stroke="#63b8ff" points="91.63,-205.33 100.83,-200.07 90.36,-198.44 91.63,-205.33"/>
</a>
</g>
</g>
<!-- Node3 -->
<g id="Node000003" class="node">
<title>Node3</title>
<g id="a_Node000003"><a xlink:href="CommProtocols_2Modbus_8c.html#acf3d1cd1f764408a20670063da2912fc" target="_top" xlink:title="Parses a Modbus TCP frame into its components.">
<polygon fill="white" stroke="#666666" points="319,-465 215,-465 215,-446 319,-446 319,-465"/>
<text text-anchor="middle" x="267" y="-453" font-family="Helvetica,sans-Serif" font-size="10.00">MbParseTcpFrame</text>
</a>
</g>
</g>
<!-- Node2&#45;&gt;Node3 -->
<g id="edge2_Node000002_Node000003" class="edge">
<title>Node2&#45;&gt;Node3</title>
<g id="a_edge2_Node000002_Node000003"><a xlink:title=" ">
<path fill="none" stroke="#63b8ff" d="M133.04,-241.37C133.73,-274.35 140.56,-381.78 199,-437.5 201.12,-439.53 203.45,-441.33 205.92,-442.93"/>
<polygon fill="#63b8ff" stroke="#63b8ff" points="204.33,-446.05 214.81,-447.66 207.62,-439.87 204.33,-446.05"/>
</a>
</g>
</g>
<!-- Node4 -->
<g id="Node000004" class="node">
<title>Node4</title>
<g id="a_Node000004"><a xlink:href="CommProtocols_2Modbus_8c.html#a6b783d9f5a80832c1744d417adb3b146" target="_top" xlink:title="Prepares Modbus context from configuration file.">
<polygon fill="white" stroke="#666666" points="310,-428 224,-428 224,-409 310,-409 310,-428"/>
<text text-anchor="middle" x="267" y="-416" font-family="Helvetica,sans-Serif" font-size="10.00">MbPrepareCtx</text>
</a>
</g>
</g>
<!-- Node2&#45;&gt;Node4 -->
<g id="edge3_Node000002_Node000004" class="edge">
<title>Node2&#45;&gt;Node4</title>
<g id="a_edge3_Node000002_Node000004"><a xlink:title=" ">
<path fill="none" stroke="#63b8ff" d="M133.81,-241.22C136.76,-270.1 149.5,-356.16 199,-400.5 203.43,-404.46 208.63,-407.57 214.16,-410"/>
<polygon fill="#63b8ff" stroke="#63b8ff" points="213.08,-413.33 223.67,-413.48 215.48,-406.76 213.08,-413.33"/>
</a>
</g>
</g>
<!-- Node9 -->
<g id="Node000009" class="node">
<title>Node9</title>
<g id="a_Node000009"><a xlink:href="CommProtocols_2Modbus_8c.html#a958797e9ec7e41e215bebd4d2fd91513" target="_top" xlink:title="Initializes thread arenas for Modbus operations.">
<polygon fill="white" stroke="#666666" points="324.5,-391 209.5,-391 209.5,-372 324.5,-372 324.5,-391"/>
<text text-anchor="middle" x="267" y="-379" font-family="Helvetica,sans-Serif" font-size="10.00">MbThreadArenasInit</text>
</a>
</g>
</g>
<!-- Node2&#45;&gt;Node9 -->
<g id="edge8_Node000002_Node000009" class="edge">
<title>Node2&#45;&gt;Node9</title>
<g id="a_edge8_Node000002_Node000009"><a xlink:title=" ">
<path fill="none" stroke="#63b8ff" d="M134.97,-241.17C140.47,-265.62 158.32,-330.28 199,-363.5 200.57,-364.79 202.23,-365.98 203.96,-367.09"/>
<polygon fill="#63b8ff" stroke="#63b8ff" points="202.57,-370.32 213.04,-371.96 205.88,-364.15 202.57,-370.32"/>
</a>
</g>
</g>
<!-- Node10 -->
<g id="Node000010" class="node">
<title>Node10</title>
<g id="a_Node000010"><a xlink:href="Sdb_8h.html#aaf34881f50372f5c1932078f4439bc5a" target="_top" xlink:title=" ">
<polygon fill="white" stroke="#666666" points="322,-354 212,-354 212,-335 322,-335 322,-354"/>
<text text-anchor="middle" x="267" y="-342" font-family="Helvetica,sans-Serif" font-size="10.00">SdbArenaBootstrap</text>
</a>
</g>
</g>
<!-- Node2&#45;&gt;Node10 -->
<g id="edge9_Node000002_Node000010" class="edge">
<title>Node2&#45;&gt;Node10</title>
<g id="a_edge9_Node000002_Node000010"><a xlink:title=" ">
<path fill="none" stroke="#63b8ff" d="M137.75,-241.28C147.04,-259.43 169.34,-298.49 199,-320.5 204.6,-324.66 210.99,-328.14 217.54,-331.06"/>
<polygon fill="#63b8ff" stroke="#63b8ff" points="216.61,-334.46 227.19,-334.93 219.22,-327.96 216.61,-334.46"/>
</a>
</g>
</g>
<!-- Node11 -->
<g id="Node000011" class="node">
<title>Node11</title>
<g id="a_Node000011"><a xlink:href="Sdb_8h.html#a05ee63d567b60fbc2b9e6732f4154a48" target="_top" xlink:title=" ">
<polygon fill="white" stroke="#666666" points="487,-214 389,-214 389,-195 487,-195 487,-214"/>
<text text-anchor="middle" x="438" y="-202" font-family="Helvetica,sans-Serif" font-size="10.00">SdbArenaGetPos</text>
</a>
</g>
</g>
<!-- Node2&#45;&gt;Node11 -->
<g id="edge10_Node000002_Node000011" class="edge">
<title>Node2&#45;&gt;Node11</title>
<g id="a_edge10_Node000002_Node000011"><a xlink:title=" ">
<path fill="none" stroke="#63b8ff" d="M140.65,-241.36C151.79,-254.81 173.89,-278.28 199,-287.5 255.74,-308.33 278.05,-307.74 335,-287.5 371.68,-274.46 404.75,-241.97 422.74,-221.73"/>
<polygon fill="#63b8ff" stroke="#63b8ff" points="425.41,-223.99 429.29,-214.14 420.11,-219.42 425.41,-223.99"/>
</a>
</g>
</g>
<!-- Node12 -->
<g id="Node000012" class="node">
<title>Node12</title>
<g id="a_Node000012"><a xlink:href="Sdb_8h.html#ab63e953fd90c628d5c0727287df66fab" target="_top" xlink:title=" ">
<polygon fill="white" stroke="#666666" points="306.5,-278 227.5,-278 227.5,-259 306.5,-259 306.5,-278"/>
<text text-anchor="middle" x="267" y="-266" font-family="Helvetica,sans-Serif" font-size="10.00">SdbArenaInit</text>
</a>
</g>
</g>
<!-- Node2&#45;&gt;Node12 -->
<g id="edge11_Node000002_Node000012" class="edge">
<title>Node2&#45;&gt;Node12</title>
<g id="a_edge11_Node000002_Node000012"><a xlink:title=" ">
<path fill="none" stroke="#63b8ff" d="M157.11,-238.55C169.6,-242.18 185.1,-246.63 199,-250.5 205.94,-252.43 213.3,-254.44 220.49,-256.39"/>
<polygon fill="#63b8ff" stroke="#63b8ff" points="219.59,-259.77 230.15,-259 221.41,-253.01 219.59,-259.77"/>
</a>
</g>
</g>
<!-- Node13 -->
<g id="Node000013" class="node">
<title>Node13</title>
<g id="a_Node000013"><a xlink:href="Sdb_8h.html#a77f49f2da4cf9e662d7cb63fe2c677dd" target="_top" xlink:title=" ">
<polygon fill="white" stroke="#666666" points="310,-241 224,-241 224,-222 310,-222 310,-241"/>
<text text-anchor="middle" x="267" y="-229" font-family="Helvetica,sans-Serif" font-size="10.00">SdbArenaPush</text>
</a>
</g>
</g>
<!-- Node2&#45;&gt;Node13 -->
<g id="edge12_Node000002_Node000013" class="edge">
<title>Node2&#45;&gt;Node13</title>
<g id="a_edge12_Node000002_Node000013"><a xlink:title=" ">
<path fill="none" stroke="#63b8ff" d="M157.09,-231.5C172.89,-231.5 194.19,-231.5 213.76,-231.5"/>
<polygon fill="#63b8ff" stroke="#63b8ff" points="213.8,-235 223.8,-231.5 213.8,-228 213.8,-235"/>
</a>
</g>
</g>
<!-- Node14 -->
<g id="Node000014" class="node">
<title>Node14</title>
<g id="a_Node000014"><a xlink:href="Thread_8c.html#a192a33d80a7d463ad237856cdc7343be" target="_top" xlink:title="Wait on a thread barrier.">
<polygon fill="white" stroke="#666666" points="311.5,-204 222.5,-204 222.5,-185 311.5,-185 311.5,-204"/>
<text text-anchor="middle" x="267" y="-192" font-family="Helvetica,sans-Serif" font-size="10.00">SdbBarrierWait</text>
</a>
</g>
</g>
<!-- Node2&#45;&gt;Node14 -->
<g id="edge13_Node000002_Node000014" class="edge">
<title>Node2&#45;&gt;Node14</title>
<g id="a_edge13_Node000002_Node000014"><a xlink:title=" ">
<path fill="none" stroke="#63b8ff" d="M157.09,-224.8C175.2,-219.76 200.51,-212.72 222.18,-206.69"/>
<polygon fill="#63b8ff" stroke="#63b8ff" points="223.14,-210.06 231.84,-204 221.27,-203.31 223.14,-210.06"/>
</a>
</g>
</g>
<!-- Node15 -->
<g id="Node000015" class="node">
<title>Node15</title>
<g id="a_Node000015"><a xlink:href="Sdb_8h.html#a9b1bdb21ac42d86edd96d53d49da1760" target="_top" xlink:title=" ">
<polygon fill="white" stroke="#666666" points="305.5,-167 228.5,-167 228.5,-148 305.5,-148 305.5,-167"/>
<text text-anchor="middle" x="267" y="-155" font-family="Helvetica,sans-Serif" font-size="10.00">SdbMemcpy</text>
</a>
</g>
</g>
<!-- Node2&#45;&gt;Node15 -->
<g id="edge14_Node000002_Node000015" class="edge">
<title>Node2&#45;&gt;Node15</title>
<g id="a_edge14_Node000002_Node000015"><a xlink:title=" ">
<path fill="none" stroke="#63b8ff" d="M150.64,-221.95C154.83,-219.41 159.19,-216.52 163,-213.5 180.99,-199.26 179.29,-188.25 199,-176.5 205,-172.92 211.71,-169.99 218.49,-167.6"/>
<polygon fill="#63b8ff" stroke="#63b8ff" points="219.94,-170.81 228.42,-164.46 217.83,-164.14 219.94,-170.81"/>
</a>
</g>
</g>
<!-- Node16 -->
<g id="Node000016" class="node">
<title>Node16</title>
<g id="a_Node000016"><a xlink:href="Signals_8c.html#aca8d19968aa974641e340443ba21e58e" target="_top" xlink:title="Checks if the system should initiate shutdown.">
<polygon fill="white" stroke="#666666" points="325,-130 209,-130 209,-111 325,-111 325,-130"/>
<text text-anchor="middle" x="267" y="-118" font-family="Helvetica,sans-Serif" font-size="10.00">SdbShouldShutdown</text>
</a>
</g>
</g>
<!-- Node2&#45;&gt;Node16 -->
<g id="edge15_Node000002_Node000016" class="edge">
<title>Node2&#45;&gt;Node16</title>
<g id="a_edge15_Node000002_Node000016"><a xlink:title=" ">
<path fill="none" stroke="#63b8ff" d="M152.64,-221.97C156.38,-219.56 160.05,-216.72 163,-213.5 187.7,-186.53 170.96,-162.98 199,-139.5 201.03,-137.8 203.2,-136.26 205.47,-134.85"/>
<polygon fill="#63b8ff" stroke="#63b8ff" points="207.41,-137.78 214.67,-130.07 204.18,-131.57 207.41,-137.78"/>
</a>
</g>
</g>
<!-- Node17 -->
<g id="Node000017" class="node">
<title>Node17</title>
<g id="a_Node000017"><a xlink:href="SensorDataPipe_8c.html#ad24e8341d323d221a2cfae80ae7d0508" target="_top" xlink:title="Flush the current write buffer.">
<polygon fill="white" stroke="#666666" points="305,-93 229,-93 229,-74 305,-74 305,-93"/>
<text text-anchor="middle" x="267" y="-81" font-family="Helvetica,sans-Serif" font-size="10.00">SdPipeFlush</text>
</a>
</g>
</g>
<!-- Node2&#45;&gt;Node17 -->
<g id="edge16_Node000002_Node000017" class="edge">
<title>Node2&#45;&gt;Node17</title>
<g id="a_edge16_Node000002_Node000017"><a xlink:title=" ">
<path fill="none" stroke="#63b8ff" d="M153.61,-221.86C157.11,-219.52 160.43,-216.73 163,-213.5 195.29,-172.91 161.65,-138.48 199,-102.5 204.69,-97.01 211.85,-93.09 219.35,-90.29"/>
<polygon fill="#63b8ff" stroke="#63b8ff" points="220.44,-93.62 228.95,-87.31 218.36,-86.93 220.44,-93.62"/>
</a>
</g>
</g>
<!-- Node19 -->
<g id="Node000019" class="node">
<title>Node19</title>
<g id="a_Node000019"><a xlink:href="SensorDataPipe_8c.html#a137e077b0781a1a12f97eb0e2a86f042" target="_top" xlink:title="Acquire Write Buffer Arena.">
<polygon fill="white" stroke="#666666" points="328,-56 206,-56 206,-37 328,-37 328,-56"/>
<text text-anchor="middle" x="267" y="-44" font-family="Helvetica,sans-Serif" font-size="10.00">SdPipeGetWriteBuffer</text>
</a>
</g>
</g>
<!-- Node2&#45;&gt;Node19 -->
<g id="edge19_Node000002_Node000019" class="edge">
<title>Node2&#45;&gt;Node19</title>
<g id="a_edge19_Node000002_Node000019"><a xlink:title=" ">
<path fill="none" stroke="#63b8ff" d="M154.12,-221.81C157.48,-219.49 160.62,-216.73 163,-213.5 203.13,-158.98 152.04,-114.26 199,-65.5 200.27,-64.18 201.62,-62.95 203.04,-61.81"/>
<polygon fill="#63b8ff" stroke="#63b8ff" points="205.35,-64.49 211.85,-56.13 201.55,-58.61 205.35,-64.49"/>
</a>
</g>
</g>
<!-- Node20 -->
<g id="Node000020" class="node">
<title>Node20</title>
<g id="a_Node000020"><a xlink:href="Socket_8c.html#ae188935dc7b2150fece7683b227f616a" target="_top" xlink:title="Receive Data with Configurable Timeout.">
<polygon fill="white" stroke="#666666" points="335,-19 199,-19 199,0 335,0 335,-19"/>
<text text-anchor="middle" x="267" y="-7" font-family="Helvetica,sans-Serif" font-size="10.00">SocketRecvWithTimeout</text>
</a>
</g>
</g>
<!-- Node2&#45;&gt;Node20 -->
<g id="edge21_Node000002_Node000020" class="edge">
<title>Node2&#45;&gt;Node20</title>
<g id="a_edge21_Node000002_Node000020"><a xlink:title=" ">
<path fill="none" stroke="#63b8ff" d="M154.25,-221.9C157.59,-219.57 160.7,-216.78 163,-213.5 211.29,-144.52 141.62,-89.12 199,-27.5 199.78,-26.66 200.59,-25.86 201.44,-25.1"/>
<polygon fill="#63b8ff" stroke="#63b8ff" points="203.67,-27.8 209.78,-19.14 199.6,-22.11 203.67,-27.8"/>
</a>
</g>
</g>
<!-- Node5 -->
<g id="Node000005" class="node">
<title>Node5</title>
<g id="a_Node000005"><a xlink:href="Sdb_8h.html#a5ee7553cb2684af20d146fcf1cc6538f" target="_top" xlink:title=" ">
<polygon fill="white" stroke="#666666" points="505,-465 371,-465 371,-446 505,-446 505,-465"/>
<text text-anchor="middle" x="438" y="-453" font-family="Helvetica,sans-Serif" font-size="10.00">SdbLoadFileIntoMemory</text>
</a>
</g>
</g>
<!-- Node4&#45;&gt;Node5 -->
<g id="edge4_Node000004_Node000005" class="edge">
<title>Node4&#45;&gt;Node5</title>
<g id="a_edge4_Node000004_Node000005"><a xlink:title=" ">
<path fill="none" stroke="#63b8ff" d="M310.21,-427.74C332.45,-432.61 359.96,-438.63 383.66,-443.82"/>
<polygon fill="#63b8ff" stroke="#63b8ff" points="383.05,-447.27 393.56,-445.99 384.54,-440.43 383.05,-447.27"/>
</a>
</g>
</g>
<!-- Node6 -->
<g id="Node000006" class="node">
<title>Node6</title>
<g id="a_Node000006"><a xlink:href="Sdb_8h.html#acd332199b77e76c2b764ef93a7b60439" target="_top" xlink:title=" ">
<polygon fill="white" stroke="#666666" points="482.5,-428 393.5,-428 393.5,-409 482.5,-409 482.5,-428"/>
<text text-anchor="middle" x="438" y="-416" font-family="Helvetica,sans-Serif" font-size="10.00">SdbStringMake</text>
</a>
</g>
</g>
<!-- Node4&#45;&gt;Node6 -->
<g id="edge5_Node000004_Node000006" class="edge">
<title>Node4&#45;&gt;Node6</title>
<g id="a_edge5_Node000004_Node000006"><a xlink:title=" ">
<path fill="none" stroke="#63b8ff" d="M310.21,-418.5C332.27,-418.5 359.5,-418.5 383.07,-418.5"/>
<polygon fill="#63b8ff" stroke="#63b8ff" points="383.27,-422 393.27,-418.5 383.27,-415 383.27,-422"/>
</a>
</g>
</g>
<!-- Node7 -->
<g id="Node000007" class="node">
<title>Node7</title>
<g id="a_Node000007"><a xlink:href="Socket_8c.html#afe998f70317da205d71f4d76f90d7a0e" target="_top" xlink:title="Create and Connect TCP Socket.">
<polygon fill="white" stroke="#666666" points="478.5,-391 397.5,-391 397.5,-372 478.5,-372 478.5,-391"/>
<text text-anchor="middle" x="438" y="-379" font-family="Helvetica,sans-Serif" font-size="10.00">SocketCreate</text>
</a>
</g>
</g>
<!-- Node4&#45;&gt;Node7 -->
<g id="edge6_Node000004_Node000007" class="edge">
<title>Node4&#45;&gt;Node7</title>
<g id="a_edge6_Node000004_Node000007"><a xlink:title=" ">
<path fill="none" stroke="#63b8ff" d="M310.21,-409.26C333.67,-404.12 362.99,-397.7 387.52,-392.33"/>
<polygon fill="#63b8ff" stroke="#63b8ff" points="388.34,-395.74 397.36,-390.18 386.84,-388.9 388.34,-395.74"/>
</a>
</g>
</g>
<!-- Node8 -->
<g id="Node000008" class="node">
<title>Node8</title>
<g id="a_Node000008"><a xlink:href="Sdb_8h.html#a2758760564fc0044b9f6c9aee290a7fe" target="_top" xlink:title=" ">
<polygon fill="white" stroke="#666666" points="615,-391 541,-391 541,-372 615,-372 615,-391"/>
<text text-anchor="middle" x="578" y="-379" font-family="Helvetica,sans-Serif" font-size="10.00">SdbMemset</text>
</a>
</g>
</g>
<!-- Node7&#45;&gt;Node8 -->
<g id="edge7_Node000007_Node000008" class="edge">
<title>Node7&#45;&gt;Node8</title>
<g id="a_edge7_Node000007_Node000008"><a xlink:title=" ">
<path fill="none" stroke="#63b8ff" d="M478.55,-381.5C494.77,-381.5 513.67,-381.5 530.55,-381.5"/>
<polygon fill="#63b8ff" stroke="#63b8ff" points="530.75,-385 540.75,-381.5 530.75,-378 530.75,-385"/>
</a>
</g>
</g>
<!-- Node17&#45;&gt;Node11 -->
<g id="edge18_Node000017_Node000011" class="edge">
<title>Node17&#45;&gt;Node11</title>
<g id="a_edge18_Node000017_Node000011"><a xlink:title=" ">
<path fill="none" stroke="#63b8ff" d="M305.19,-90.45C315.29,-93.27 325.93,-97.17 335,-102.5 372.56,-124.55 406.16,-163.72 423.85,-186.57"/>
<polygon fill="#63b8ff" stroke="#63b8ff" points="421.2,-188.86 430.02,-194.72 426.78,-184.64 421.2,-188.86"/>
</a>
</g>
</g>
<!-- Node18 -->
<g id="Node000018" class="node">
<title>Node18</title>
<g id="a_Node000018"><a xlink:href="Sdb_8h.html#ab38d94a0b56df0604f07862a93856990" target="_top" xlink:title=" ">
<polygon fill="white" stroke="#666666" points="482.5,-75 393.5,-75 393.5,-56 482.5,-56 482.5,-75"/>
<text text-anchor="middle" x="438" y="-63" font-family="Helvetica,sans-Serif" font-size="10.00">SdbArenaClear</text>
</a>
</g>
</g>
<!-- Node17&#45;&gt;Node18 -->
<g id="edge17_Node000017_Node000018" class="edge">
<title>Node17&#45;&gt;Node18</title>
<g id="a_edge17_Node000017_Node000018"><a xlink:title=" ">
<path fill="none" stroke="#63b8ff" d="M305.09,-79.55C327.97,-77.11 357.72,-73.94 383.17,-71.23"/>
<polygon fill="#63b8ff" stroke="#63b8ff" points="383.85,-74.68 393.42,-70.14 383.11,-67.72 383.85,-74.68"/>
</a>
</g>
</g>
<!-- Node19&#45;&gt;Node18 -->
<g id="edge20_Node000019_Node000018" class="edge">
<title>Node19&#45;&gt;Node18</title>
<g id="a_edge20_Node000019_Node000018"><a xlink:title=" ">
<path fill="none" stroke="#63b8ff" d="M328.06,-53.25C346.06,-55.28 365.68,-57.48 383.25,-59.46"/>
<polygon fill="#63b8ff" stroke="#63b8ff" points="383,-62.95 393.33,-60.59 383.79,-56 383,-62.95"/>
</a>
</g>
</g>
<!-- Node21 -->
<g id="Node000021" class="node">
<title>Node21</title>
<g id="a_Node000021"><a xlink:href="Time_8c.html#a0221db75cb1cf6093ca801b7915fe887" target="_top" xlink:title="Convert Time Difference to Timeval.">
<polygon fill="white" stroke="#666666" points="475,-19 401,-19 401,0 475,0 475,-19"/>
<text text-anchor="middle" x="438" y="-7" font-family="Helvetica,sans-Serif" font-size="10.00">SdbTimeval</text>
</a>
</g>
</g>
<!-- Node20&#45;&gt;Node21 -->
<g id="edge22_Node000020_Node000021" class="edge">
<title>Node20&#45;&gt;Node21</title>
<g id="a_edge22_Node000020_Node000021"><a xlink:title=" ">
<path fill="none" stroke="#63b8ff" d="M335.28,-9.5C353.73,-9.5 373.32,-9.5 390.33,-9.5"/>
<polygon fill="#63b8ff" stroke="#63b8ff" points="390.56,-13 400.56,-9.5 390.56,-6 390.56,-13"/>
</a>
</g>
</g>
</g>
</svg>

<g id="navigator" transform="translate(0 0)" fill="#404254">
  <rect fill="#f2f5e9" fill-opacity="0.5" stroke="#606060" stroke-width=".5" x="0" y="0" width="60" height="60"/>
  <use id="zoomplus" xlink:href="#zoomPlus" x="17" y="9" onmousedown="handleZoom(evt,'in')"/>
  <use id="zoomminus" xlink:href="#zoomMin" x="42" y="9" onmousedown="handleZoom(evt,'out')"/>
  <use id="reset" xlink:href="#resetDef" x="30" y="36" onmousedown="handleReset()"/>
   <use id="arrowup" xlink:href="#arrowUp" x="0" y="0" onmousedown="handlePan(0,-1)"/>
  <use id="arrowright" xlink:href="#arrowRight" x="0" y="0" onmousedown="handlePan(1,0)"/>
  <use id="arrowdown" xlink:href="#arrowDown" x="0" y="0" onmousedown="handlePan(0,1)"/>
  <use id="arrowleft" xlink:href="#arrowLeft" x="0" y="0" onmousedown="handlePan(-1,0)"/>
</g>
<svg viewBox="0 0 15 15" width="100%" height="30px" preserveAspectRatio="xMaxYMin meet">
 <g id="arrow_out" transform="scale(0.3 0.3)">
  <a xlink:href="ModbusWithPostgres_8h_ad6cc1c50bbcd2e6f933e8f2a82990c2e_cgraph_org.svg" target="_base">
   <rect id="button" ry="5" rx="5" y="6" x="6" height="38" width="38"
        fill="#f2f5e9" fill-opacity="0.5" stroke="#606060" stroke-width="1.0"/>
   <path id="arrow"
     d="M 11.500037,31.436501 C 11.940474,20.09759 22.043105,11.32322 32.158766,21.979434 L 37.068811,17.246167 C 37.068811,17.246167 37.088388,32 37.088388,32 L 22.160133,31.978069 C 22.160133,31.978069 26.997745,27.140456 26.997745,27.140456 C 18.528582,18.264221 13.291696,25.230495 11.500037,31.436501 z"
     style="fill:#404040;"/>
  </a>
 </g>
</svg>

<style type='text/css'>
<![CDATA[
[data-mouse-over-selected='false'] { opacity: 0.7; }
[data-mouse-over-selected='true']  { opacity: 1.0; }
]]>
</style>
<script type="application/ecmascript"><![CDATA[
document.addEventListener('DOMContentLoaded', (event) => {
  highlightEdges();
  highlightAdjacentNodes();
});
]]></script>
</svg>
