<?xml version="1.0" encoding="UTF-8" standalone="no"?>
<!DOCTYPE svg PUBLIC "-//W3C//DTD SVG 1.1//EN"
 "http://www.w3.org/Graphics/SVG/1.1/DTD/svg11.dtd">
<!-- Generated by graphviz version 2.43.0 (0)
 -->
<!-- Title: MbPgPipeThroughputTest Pages: 1 -->
<svg width="616pt" height="323pt"
 viewBox="0.00 0.00 616.00 323.00" xmlns="http://www.w3.org/2000/svg" xmlns:xlink="http://www.w3.org/1999/xlink">
<g id="graph0" class="graph" transform="scale(1 1) rotate(0) translate(4 319)">
<title>MbPgPipeThroughputTest</title>
<!-- Node1 -->
<g id="Node000001" class="node">
<title>Node1</title>
<g id="a_Node000001"><a xlink:title="Modbus data pipe throughput test.">
<polygon fill="#999999" stroke="#666666" points="140,-130 0,-130 0,-111 140,-111 140,-130"/>
<text text-anchor="middle" x="70" y="-118" font-family="Helvetica,sans-Serif" font-size="10.00">MbPgPipeThroughputTest</text>
</a>
</g>
</g>
<!-- Node2 -->
<g id="Node000002" class="node">
<title>Node2</title>
<g id="a_Node000002"><a xlink:href="DataHandlers_2ModbusWithPostgres_2Modbus_8c.html#a1660e1b6915b7758a7708e89c8445cbf" target="_top" xlink:title="Implements throughput testing for Modbus data pipe.">
<polygon fill="white" stroke="#666666" points="304,-167 176,-167 176,-148 304,-148 304,-167"/>
<text text-anchor="middle" x="240" y="-155" font-family="Helvetica,sans-Serif" font-size="10.00">MbPipeThroughputTest</text>
</a>
</g>
</g>
<!-- Node1&#45;&gt;Node2 -->
<g id="edge1_Node000001_Node000002" class="edge">
<title>Node1&#45;&gt;Node2</title>
<g id="a_edge1_Node000001_Node000002"><a xlink:title=" ">
<path fill="none" stroke="#63b8ff" d="M114.26,-130.03C136.03,-134.82 162.61,-140.68 185.63,-145.75"/>
<polygon fill="#63b8ff" stroke="#63b8ff" points="185.07,-149.21 195.59,-147.94 186.58,-142.37 185.07,-149.21"/>
</a>
</g>
</g>
<!-- Node14 -->
<g id="Node000014" class="node">
<title>Node14</title>
<g id="a_Node000014"><a xlink:href="Signals_8c.html#aca8d19968aa974641e340443ba21e58e" target="_top" xlink:title="Checks if the system should initiate shutdown.">
<polygon fill="white" stroke="#666666" points="298,-130 182,-130 182,-111 298,-111 298,-130"/>
<text text-anchor="middle" x="240" y="-118" font-family="Helvetica,sans-Serif" font-size="10.00">SdbShouldShutdown</text>
</a>
</g>
</g>
<!-- Node1&#45;&gt;Node14 -->
<g id="edge14_Node000001_Node000014" class="edge">
<title>Node1&#45;&gt;Node14</title>
<g id="a_edge14_Node000001_Node000014"><a xlink:title=" ">
<path fill="none" stroke="#63b8ff" d="M140.3,-120.5C150.67,-120.5 161.35,-120.5 171.68,-120.5"/>
<polygon fill="#63b8ff" stroke="#63b8ff" points="171.87,-124 181.87,-120.5 171.87,-117 171.87,-124"/>
</a>
</g>
</g>
<!-- Node15 -->
<g id="Node000015" class="node">
<title>Node15</title>
<g id="a_Node000015"><a xlink:href="Sdb_8h.html#ae36b72fab20d0c2a64243117597c526b" target="_top" xlink:title=" ">
<polygon fill="white" stroke="#666666" points="271,-93 209,-93 209,-74 271,-74 271,-93"/>
<text text-anchor="middle" x="240" y="-81" font-family="Helvetica,sans-Serif" font-size="10.00">SdbStrErr</text>
</a>
</g>
</g>
<!-- Node1&#45;&gt;Node15 -->
<g id="edge15_Node000001_Node000015" class="edge">
<title>Node1&#45;&gt;Node15</title>
<g id="a_edge15_Node000001_Node000015"><a xlink:title=" ">
<path fill="none" stroke="#63b8ff" d="M114.26,-110.97C140.33,-105.23 173.29,-97.97 198.79,-92.36"/>
<polygon fill="#63b8ff" stroke="#63b8ff" points="199.85,-95.71 208.86,-90.14 198.34,-88.87 199.85,-95.71"/>
</a>
</g>
</g>
<!-- Node3 -->
<g id="Node000003" class="node">
<title>Node3</title>
<g id="a_Node000003"><a xlink:href="CommProtocols_2Modbus_8c.html#a958797e9ec7e41e215bebd4d2fd91513" target="_top" xlink:title="Initializes thread arenas for Modbus operations.">
<polygon fill="white" stroke="#666666" points="464.5,-315 349.5,-315 349.5,-296 464.5,-296 464.5,-315"/>
<text text-anchor="middle" x="407" y="-303" font-family="Helvetica,sans-Serif" font-size="10.00">MbThreadArenasInit</text>
</a>
</g>
</g>
<!-- Node2&#45;&gt;Node3 -->
<g id="edge2_Node000002_Node000003" class="edge">
<title>Node2&#45;&gt;Node3</title>
<g id="a_edge2_Node000002_Node000003"><a xlink:title=" ">
<path fill="none" stroke="#63b8ff" d="M245.48,-167.05C257.3,-191.19 291.78,-254.99 340,-287.5 342.28,-289.03 344.68,-290.44 347.17,-291.72"/>
<polygon fill="#63b8ff" stroke="#63b8ff" points="345.92,-295 356.48,-295.87 348.77,-288.6 345.92,-295"/>
</a>
</g>
</g>
<!-- Node4 -->
<g id="Node000004" class="node">
<title>Node4</title>
<g id="a_Node000004"><a xlink:href="Sdb_8h.html#aaf34881f50372f5c1932078f4439bc5a" target="_top" xlink:title=" ">
<polygon fill="white" stroke="#666666" points="462,-278 352,-278 352,-259 462,-259 462,-278"/>
<text text-anchor="middle" x="407" y="-266" font-family="Helvetica,sans-Serif" font-size="10.00">SdbArenaBootstrap</text>
</a>
</g>
</g>
<!-- Node2&#45;&gt;Node4 -->
<g id="edge3_Node000002_Node000004" class="edge">
<title>Node2&#45;&gt;Node4</title>
<g id="a_edge3_Node000002_Node000004"><a xlink:title=" ">
<path fill="none" stroke="#63b8ff" d="M248.58,-167.29C263.81,-186.27 300.08,-228.16 340,-250.5 343.19,-252.29 346.57,-253.9 350.05,-255.37"/>
<polygon fill="#63b8ff" stroke="#63b8ff" points="348.82,-258.65 359.42,-258.89 351.29,-252.09 348.82,-258.65"/>
</a>
</g>
</g>
<!-- Node5 -->
<g id="Node000005" class="node">
<title>Node5</title>
<g id="a_Node000005"><a xlink:href="Sdb_8h.html#ab63e953fd90c628d5c0727287df66fab" target="_top" xlink:title=" ">
<polygon fill="white" stroke="#666666" points="446.5,-241 367.5,-241 367.5,-222 446.5,-222 446.5,-241"/>
<text text-anchor="middle" x="407" y="-229" font-family="Helvetica,sans-Serif" font-size="10.00">SdbArenaInit</text>
</a>
</g>
</g>
<!-- Node2&#45;&gt;Node5 -->
<g id="edge4_Node000002_Node000005" class="edge">
<title>Node2&#45;&gt;Node5</title>
<g id="a_edge4_Node000002_Node000005"><a xlink:title=" ">
<path fill="none" stroke="#63b8ff" d="M255.19,-167.03C273.91,-179.25 308.23,-200.42 340,-213.5 345.56,-215.79 351.5,-217.88 357.45,-219.75"/>
<polygon fill="#63b8ff" stroke="#63b8ff" points="356.84,-223.22 367.42,-222.71 358.83,-216.51 356.84,-223.22"/>
</a>
</g>
</g>
<!-- Node6 -->
<g id="Node000006" class="node">
<title>Node6</title>
<g id="a_Node000006"><a xlink:href="Sdb_8h.html#a77f49f2da4cf9e662d7cb63fe2c677dd" target="_top" xlink:title=" ">
<polygon fill="white" stroke="#666666" points="450,-204 364,-204 364,-185 450,-185 450,-204"/>
<text text-anchor="middle" x="407" y="-192" font-family="Helvetica,sans-Serif" font-size="10.00">SdbArenaPush</text>
</a>
</g>
</g>
<!-- Node2&#45;&gt;Node6 -->
<g id="edge5_Node000002_Node000006" class="edge">
<title>Node2&#45;&gt;Node6</title>
<g id="a_edge5_Node000002_Node000006"><a xlink:title=" ">
<path fill="none" stroke="#63b8ff" d="M283.49,-167.03C305.03,-171.86 331.38,-177.77 354.11,-182.86"/>
<polygon fill="#63b8ff" stroke="#63b8ff" points="353.41,-186.3 363.94,-185.07 354.95,-179.46 353.41,-186.3"/>
</a>
</g>
</g>
<!-- Node7 -->
<g id="Node000007" class="node">
<title>Node7</title>
<g id="a_Node000007"><a xlink:href="Thread_8c.html#a192a33d80a7d463ad237856cdc7343be" target="_top" xlink:title="Wait on a thread barrier.">
<polygon fill="white" stroke="#666666" points="451.5,-167 362.5,-167 362.5,-148 451.5,-148 451.5,-167"/>
<text text-anchor="middle" x="407" y="-155" font-family="Helvetica,sans-Serif" font-size="10.00">SdbBarrierWait</text>
</a>
</g>
</g>
<!-- Node2&#45;&gt;Node7 -->
<g id="edge6_Node000002_Node000007" class="edge">
<title>Node2&#45;&gt;Node7</title>
<g id="a_edge6_Node000002_Node000007"><a xlink:title=" ">
<path fill="none" stroke="#63b8ff" d="M304.32,-157.5C319.98,-157.5 336.61,-157.5 351.78,-157.5"/>
<polygon fill="#63b8ff" stroke="#63b8ff" points="352.03,-161 362.03,-157.5 352.03,-154 352.03,-161"/>
</a>
</g>
</g>
<!-- Node8 -->
<g id="Node000008" class="node">
<title>Node8</title>
<g id="a_Node000008"><a xlink:href="Sdb_8h.html#a5ee7553cb2684af20d146fcf1cc6538f" target="_top" xlink:title=" ">
<polygon fill="white" stroke="#666666" points="474,-130 340,-130 340,-111 474,-111 474,-130"/>
<text text-anchor="middle" x="407" y="-118" font-family="Helvetica,sans-Serif" font-size="10.00">SdbLoadFileIntoMemory</text>
</a>
</g>
</g>
<!-- Node2&#45;&gt;Node8 -->
<g id="edge7_Node000002_Node000008" class="edge">
<title>Node2&#45;&gt;Node8</title>
<g id="a_edge7_Node000002_Node000008"><a xlink:title=" ">
<path fill="none" stroke="#63b8ff" d="M283.49,-147.97C304.87,-143.18 330.97,-137.32 353.58,-132.25"/>
<polygon fill="#63b8ff" stroke="#63b8ff" points="354.37,-135.66 363.37,-130.06 352.84,-128.83 354.37,-135.66"/>
</a>
</g>
</g>
<!-- Node9 -->
<g id="Node000009" class="node">
<title>Node9</title>
<g id="a_Node000009"><a xlink:href="Sdb_8h.html#a9b1bdb21ac42d86edd96d53d49da1760" target="_top" xlink:title=" ">
<polygon fill="white" stroke="#666666" points="445.5,-93 368.5,-93 368.5,-74 445.5,-74 445.5,-93"/>
<text text-anchor="middle" x="407" y="-81" font-family="Helvetica,sans-Serif" font-size="10.00">SdbMemcpy</text>
</a>
</g>
</g>
<!-- Node2&#45;&gt;Node9 -->
<g id="edge8_Node000002_Node000009" class="edge">
<title>Node2&#45;&gt;Node9</title>
<g id="a_edge8_Node000002_Node000009"><a xlink:title=" ">
<path fill="none" stroke="#63b8ff" d="M285.6,-147.93C292.01,-145.66 298.34,-142.88 304,-139.5 323.69,-127.73 320.32,-114.29 340,-102.5 345.77,-99.04 352.21,-96.19 358.73,-93.83"/>
<polygon fill="#63b8ff" stroke="#63b8ff" points="359.86,-97.15 368.29,-90.74 357.7,-90.49 359.86,-97.15"/>
</a>
</g>
</g>
<!-- Node10 -->
<g id="Node000010" class="node">
<title>Node10</title>
<g id="a_Node000010"><a xlink:href="SensorDataPipe_8c.html#ad24e8341d323d221a2cfae80ae7d0508" target="_top" xlink:title="Flush the current write buffer.">
<polygon fill="white" stroke="#666666" points="445,-19 369,-19 369,0 445,0 445,-19"/>
<text text-anchor="middle" x="407" y="-7" font-family="Helvetica,sans-Serif" font-size="10.00">SdPipeFlush</text>
</a>
</g>
</g>
<!-- Node2&#45;&gt;Node10 -->
<g id="edge9_Node000002_Node000010" class="edge">
<title>Node2&#45;&gt;Node10</title>
<g id="a_edge9_Node000002_Node000010"><a xlink:title=" ">
<path fill="none" stroke="#63b8ff" d="M291.96,-147.91C296.37,-145.66 300.48,-142.9 304,-139.5 341.31,-103.48 302.72,-64.56 340,-28.5 345.36,-23.31 352.04,-19.53 359.08,-16.77"/>
<polygon fill="#63b8ff" stroke="#63b8ff" points="360.38,-20.02 368.81,-13.6 358.22,-13.37 360.38,-20.02"/>
</a>
</g>
</g>
<!-- Node13 -->
<g id="Node000013" class="node">
<title>Node13</title>
<g id="a_Node000013"><a xlink:href="SensorDataPipe_8c.html#a137e077b0781a1a12f97eb0e2a86f042" target="_top" xlink:title="Acquire Write Buffer Arena.">
<polygon fill="white" stroke="#666666" points="468,-56 346,-56 346,-37 468,-37 468,-56"/>
<text text-anchor="middle" x="407" y="-44" font-family="Helvetica,sans-Serif" font-size="10.00">SdPipeGetWriteBuffer</text>
</a>
</g>
</g>
<!-- Node2&#45;&gt;Node13 -->
<g id="edge12_Node000002_Node000013" class="edge">
<title>Node2&#45;&gt;Node13</title>
<g id="a_edge12_Node000002_Node000013"><a xlink:title=" ">
<path fill="none" stroke="#63b8ff" d="M290.22,-147.97C295.19,-145.72 299.9,-142.94 304,-139.5 332.02,-115.99 312.01,-89.04 340,-65.5 342.04,-63.79 344.22,-62.23 346.51,-60.81"/>
<polygon fill="#63b8ff" stroke="#63b8ff" points="348.5,-63.72 355.77,-56.01 345.28,-57.51 348.5,-63.72"/>
</a>
</g>
</g>
<!-- Node11 -->
<g id="Node000011" class="node">
<title>Node11</title>
<g id="a_Node000011"><a xlink:href="Sdb_8h.html#ab38d94a0b56df0604f07862a93856990" target="_top" xlink:title=" ">
<polygon fill="white" stroke="#666666" points="603.5,-56 514.5,-56 514.5,-37 603.5,-37 603.5,-56"/>
<text text-anchor="middle" x="559" y="-44" font-family="Helvetica,sans-Serif" font-size="10.00">SdbArenaClear</text>
</a>
</g>
</g>
<!-- Node10&#45;&gt;Node11 -->
<g id="edge10_Node000010_Node000011" class="edge">
<title>Node10&#45;&gt;Node11</title>
<g id="a_edge10_Node000010_Node000011"><a xlink:title=" ">
<path fill="none" stroke="#63b8ff" d="M445.08,-18.65C464.46,-23.43 488.43,-29.34 509.3,-34.49"/>
<polygon fill="#63b8ff" stroke="#63b8ff" points="508.71,-37.95 519.26,-36.94 510.38,-31.15 508.71,-37.95"/>
</a>
</g>
</g>
<!-- Node12 -->
<g id="Node000012" class="node">
<title>Node12</title>
<g id="a_Node000012"><a xlink:href="Sdb_8h.html#a05ee63d567b60fbc2b9e6732f4154a48" target="_top" xlink:title=" ">
<polygon fill="white" stroke="#666666" points="608,-19 510,-19 510,0 608,0 608,-19"/>
<text text-anchor="middle" x="559" y="-7" font-family="Helvetica,sans-Serif" font-size="10.00">SdbArenaGetPos</text>
</a>
</g>
</g>
<!-- Node10&#45;&gt;Node12 -->
<g id="edge11_Node000010_Node000012" class="edge">
<title>Node10&#45;&gt;Node12</title>
<g id="a_edge11_Node000010_Node000012"><a xlink:title=" ">
<path fill="none" stroke="#63b8ff" d="M445.08,-9.5C461.55,-9.5 481.33,-9.5 499.7,-9.5"/>
<polygon fill="#63b8ff" stroke="#63b8ff" points="499.73,-13 509.73,-9.5 499.73,-6 499.73,-13"/>
</a>
</g>
</g>
<!-- Node13&#45;&gt;Node11 -->
<g id="edge13_Node000013_Node000011" class="edge">
<title>Node13&#45;&gt;Node11</title>
<g id="a_edge13_Node000013_Node000011"><a xlink:title=" ">
<path fill="none" stroke="#63b8ff" d="M468.15,-46.5C480.12,-46.5 492.63,-46.5 504.37,-46.5"/>
<polygon fill="#63b8ff" stroke="#63b8ff" points="504.46,-50 514.46,-46.5 504.46,-43 504.46,-50"/>
</a>
</g>
</g>
</g>
</svg>
