<?xml version="1.0" encoding="UTF-8" standalone="no"?>
<!DOCTYPE svg PUBLIC "-//W3C//DTD SVG 1.1//EN"
 "http://www.w3.org/Graphics/SVG/1.1/DTD/svg11.dtd">
<!-- Generated by graphviz version 2.43.0 (0)
 -->
<!-- Title: RunModbusTestServer Pages: 1 -->
<svg width="501pt" height="161pt"
 viewBox="0.00 0.00 501.00 161.00" xmlns="http://www.w3.org/2000/svg" xmlns:xlink="http://www.w3.org/1999/xlink">
<g id="graph0" class="graph" transform="scale(1 1) rotate(0) translate(4 157)">
<title>RunModbusTestServer</title>
<polygon fill="white" stroke="transparent" points="-4,4 -4,-157 497,-157 497,4 -4,4"/>
<!-- Node1 -->
<g id="node1" class="node">
<title>Node1</title>
<g id="a_node1"><a xlink:title="Runs the Modbus Test Server.">
<polygon fill="#bfbfbf" stroke="black" points="0,-76.5 0,-95.5 125,-95.5 125,-76.5 0,-76.5"/>
<text text-anchor="middle" x="62.5" y="-83.5" font-family="Helvetica,sans-Serif" font-size="10.00">RunModbusTestServer</text>
</a>
</g>
</g>
<!-- Node2 -->
<g id="node2" class="node">
<title>Node2</title>
<g id="a_node2"><a xlink:href="Thread_8c.html#a192a33d80a7d463ad237856cdc7343be" target="_top" xlink:title="Wait on a thread barrier.">
<polygon fill="white" stroke="black" points="174.5,-133.5 174.5,-152.5 263.5,-152.5 263.5,-133.5 174.5,-133.5"/>
<text text-anchor="middle" x="219" y="-140.5" font-family="Helvetica,sans-Serif" font-size="10.00">SdbBarrierWait</text>
</a>
</g>
</g>
<!-- Node1&#45;&gt;Node2 -->
<g id="edge1" class="edge">
<title>Node1&#45;&gt;Node2</title>
<path fill="none" stroke="midnightblue" d="M87.02,-95.55C106.69,-103.44 135.54,-114.8 161,-124 166.66,-126.04 172.66,-128.13 178.56,-130.14"/>
<polygon fill="midnightblue" stroke="midnightblue" points="177.73,-133.55 188.32,-133.42 179.95,-126.91 177.73,-133.55"/>
</g>
<!-- Node3 -->
<g id="node3" class="node">
<title>Node3</title>
<g id="a_node3"><a xlink:href="Sdb_8h.html#aa83c474af0fff05c80b6c752168bca29" target="_top" xlink:title=" ">
<polygon fill="white" stroke="black" points="182,-95.5 182,-114.5 256,-114.5 256,-95.5 182,-95.5"/>
<text text-anchor="middle" x="219" y="-102.5" font-family="Helvetica,sans-Serif" font-size="10.00">SdbMemset</text>
</a>
</g>
</g>
<!-- Node1&#45;&gt;Node3 -->
<g id="edge2" class="edge">
<title>Node1&#45;&gt;Node3</title>
<path fill="none" stroke="midnightblue" d="M125.01,-93.56C140.45,-95.46 156.76,-97.47 171.34,-99.26"/>
<polygon fill="midnightblue" stroke="midnightblue" points="171.26,-102.78 181.61,-100.53 172.12,-95.83 171.26,-102.78"/>
</g>
<!-- Node4 -->
<g id="node4" class="node">
<title>Node4</title>
<g id="a_node4"><a xlink:href="Signals_8c.html#aca8d19968aa974641e340443ba21e58e" target="_top" xlink:title="Checks if the system should initiate shutdown.">
<polygon fill="white" stroke="black" points="161,-57.5 161,-76.5 277,-76.5 277,-57.5 161,-57.5"/>
<text text-anchor="middle" x="219" y="-64.5" font-family="Helvetica,sans-Serif" font-size="10.00">SdbShouldShutdown</text>
</a>
</g>
</g>
<!-- Node1&#45;&gt;Node4 -->
<g id="edge3" class="edge">
<title>Node1&#45;&gt;Node4</title>
<path fill="none" stroke="midnightblue" d="M125.01,-78.44C133.47,-77.39 142.21,-76.32 150.77,-75.27"/>
<polygon fill="midnightblue" stroke="midnightblue" points="151.22,-78.74 160.72,-74.04 150.37,-71.79 151.22,-78.74"/>
</g>
<!-- Node5 -->
<g id="node5" class="node">
<title>Node5</title>
<g id="a_node5"><a xlink:href="ModbusTestServer_8c.html#a562277af51f78c8939feeb4d33925307" target="_top" xlink:title="Sends Modbus data over a socket.">
<polygon fill="white" stroke="black" points="168,-19.5 168,-38.5 270,-38.5 270,-19.5 168,-19.5"/>
<text text-anchor="middle" x="219" y="-26.5" font-family="Helvetica,sans-Serif" font-size="10.00">SendModbusData</text>
</a>
</g>
</g>
<!-- Node1&#45;&gt;Node5 -->
<g id="edge4" class="edge">
<title>Node1&#45;&gt;Node5</title>
<path fill="none" stroke="midnightblue" d="M87.02,-76.45C106.69,-68.56 135.54,-57.2 161,-48 166.66,-45.96 172.66,-43.87 178.56,-41.86"/>
<polygon fill="midnightblue" stroke="midnightblue" points="179.95,-45.09 188.32,-38.58 177.73,-38.45 179.95,-45.09"/>
</g>
<!-- Node6 -->
<g id="node6" class="node">
<title>Node6</title>
<g id="a_node6"><a xlink:href="ModbusTestServer_8c.html#aa39b29a317e07f044b7bac56db0e18b1" target="_top" xlink:title="Generates random shaft power data.">
<polygon fill="white" stroke="black" points="313,-38.5 313,-57.5 493,-57.5 493,-38.5 313,-38.5"/>
<text text-anchor="middle" x="403" y="-45.5" font-family="Helvetica,sans-Serif" font-size="10.00">GenerateShaftPowerDataRandom</text>
</a>
</g>
</g>
<!-- Node5&#45;&gt;Node6 -->
<g id="edge5" class="edge">
<title>Node5&#45;&gt;Node6</title>
<path fill="none" stroke="midnightblue" d="M270.21,-34.24C280.47,-35.31 291.59,-36.47 302.89,-37.65"/>
<polygon fill="midnightblue" stroke="midnightblue" points="302.53,-41.13 312.83,-38.69 303.25,-34.17 302.53,-41.13"/>
</g>
<!-- Node7 -->
<g id="node7" class="node">
<title>Node7</title>
<g id="a_node7"><a xlink:href="Sdb_8h.html#ac5c7c1054a5f2110db33fbaf02ee3875" target="_top" xlink:title=" ">
<polygon fill="white" stroke="black" points="364.5,-0.5 364.5,-19.5 441.5,-19.5 441.5,-0.5 364.5,-0.5"/>
<text text-anchor="middle" x="403" y="-7.5" font-family="Helvetica,sans-Serif" font-size="10.00">SdbMemcpy</text>
</a>
</g>
</g>
<!-- Node5&#45;&gt;Node7 -->
<g id="edge6" class="edge">
<title>Node5&#45;&gt;Node7</title>
<path fill="none" stroke="midnightblue" d="M270.21,-23.76C296.5,-21.01 328.51,-17.67 354.4,-14.97"/>
<polygon fill="midnightblue" stroke="midnightblue" points="354.78,-18.45 364.36,-13.93 354.05,-11.49 354.78,-18.45"/>
</g>
</g>
</svg>
