<?xml version="1.0" encoding="UTF-8" standalone="no"?>
<!DOCTYPE svg PUBLIC "-//W3C//DTD SVG 1.1//EN"
 "http://www.w3.org/Graphics/SVG/1.1/DTD/svg11.dtd">
<!-- Generated by graphviz version 2.43.0 (0)
 -->
<!-- Title: src/DevUtils/ModbusTestServer.c Pages: 1 -->
<!--zoomable 368 -->

<svg id="main" version="1.1" xmlns="http://www.w3.org/2000/svg" xmlns:xlink="http://www.w3.org/1999/xlink" xml:space="preserve" onload="init(evt)">
<style type="text/css"><![CDATA[
.node, .edge {opacity: 0.7;}
.node.selected, .edge.selected {opacity: 1;}
.edge:hover path { stroke: red; }
.edge:hover polygon { stroke: red; fill: red; }
]]></style>

<defs>
  <circle id="rim" cx="0" cy="0" r="7"/>
  <circle id="rim2" cx="0" cy="0" r="3.5"/>
  <g id="zoomPlus">
    <use xlink:href="#rim" fill="#404040"><set attributeName="fill" to="#808080" begin="zoomplus.mouseover" end="zoomplus.mouseout"/></use>
    <path d="M-4,0h8M0,-4v8" fill="none" stroke="white" stroke-width="1.5" pointer-events="none"/>
  </g>
  <g id="zoomMin">
    <use xlink:href="#rim" fill="#404040"><set attributeName="fill" to="#808080" begin="zoomminus.mouseover" end="zoomminus.mouseout"/></use>
    <path d="M-4,0h8" fill="none" stroke="white" stroke-width="1.5" pointer-events="none"/>
  </g>
  <g id="arrowUp" transform="translate(30 24)">
    <use xlink:href="#rim"/>
    <path pointer-events="none" fill="none" stroke="white" stroke-width="1.5" d="M0,-3.0v7 M-2.5,-0.5L0,-3.0L2.5,-0.5"/>
  </g>
  <g id="arrowRight" transform="rotate(90) translate(36 -43)">
    <use xlink:href="#rim"/>
    <path pointer-events="none" fill="none" stroke="white" stroke-width="1.5" d="M0,-3.0v7 M-2.5,-0.5L0,-3.0L2.5,-0.5"/>
  </g>
  <g id="arrowDown" transform="rotate(180) translate(-30 -48)">
    <use xlink:href="#rim"/>
    <path pointer-events="none" fill="none" stroke="white" stroke-width="1.5" d="M0,-3.0v7 M-2.5,-0.5L0,-3.0L2.5,-0.5"/>
  </g>
  <g id="arrowLeft" transform="rotate(270) translate(-36 17)">
    <use xlink:href="#rim"/>
    <path pointer-events="none" fill="none" stroke="white" stroke-width="1.5" d="M0,-3.0v7 M-2.5,-0.5L0,-3.0L2.5,-0.5"/>
  </g>
  <g id="resetDef">
    <use xlink:href="#rim2" fill="#404040"><set attributeName="fill" to="#808080" begin="reset.mouseover" end="reset.mouseout"/></use>
  </g>
</defs>
<script type="application/ecmascript">
var viewWidth = 1634;
var viewHeight = 368;
var sectionId = 'dynsection-0';
</script>
<script type="application/ecmascript" xlink:href="svg.min.js"/>
<svg id="graph" class="graph">
<g id="viewport">
<title>src/DevUtils/ModbusTestServer.c</title>
<!-- Node1 -->
<g id="Node000001" class="node">
<title>Node1</title>
<g id="a_Node000001"><a xlink:title="Implementation of Modbus Test Server.">
<polygon fill="#999999" stroke="#666666" points="1138.5,-360 962.5,-360 962.5,-341 1138.5,-341 1138.5,-360"/>
<text text-anchor="middle" x="1050.5" y="-348" font-family="Helvetica,sans-Serif" font-size="10.00">src/DevUtils/ModbusTestServer.c</text>
</a>
</g>
</g>
<!-- Node2 -->
<g id="Node000002" class="node">
<title>Node2</title>
<g id="a_Node000002"><a xlink:title=" ">
<polygon fill="#e0e0e0" stroke="#999999" points="69,-305 0,-305 0,-286 69,-286 69,-305"/>
<text text-anchor="middle" x="34.5" y="-293" font-family="Helvetica,sans-Serif" font-size="10.00">arpa/inet.h</text>
</a>
</g>
</g>
<!-- Node1&#45;&gt;Node2 -->
<g id="edge1_Node000001_Node000002" class="edge">
<title>Node1&#45;&gt;Node2</title>
<g id="a_edge1_Node000001_Node000002"><a xlink:title=" ">
<path fill="none" stroke="#63b8ff" d="M962.22,-349.14C791.82,-347.64 405.93,-340.24 83.5,-305 82.2,-304.86 80.88,-304.7 79.54,-304.54"/>
<polygon fill="#63b8ff" stroke="#63b8ff" points="79.61,-301.01 69.22,-303.08 78.63,-307.94 79.61,-301.01"/>
</a>
</g>
</g>
<!-- Node3 -->
<g id="Node000003" class="node">
<title>Node3</title>
<g id="a_Node000003"><a xlink:title=" ">
<polygon fill="#e0e0e0" stroke="#999999" points="161,-19 108,-19 108,0 161,0 161,-19"/>
<text text-anchor="middle" x="134.5" y="-7" font-family="Helvetica,sans-Serif" font-size="10.00">string.h</text>
</a>
</g>
</g>
<!-- Node1&#45;&gt;Node3 -->
<g id="edge2_Node000001_Node000003" class="edge">
<title>Node1&#45;&gt;Node3</title>
<g id="a_edge2_Node000001_Node000003"><a xlink:title=" ">
<path fill="none" stroke="#63b8ff" d="M962.13,-348.16C725.87,-343.39 97.5,-322.59 97.5,-236 97.5,-236 97.5,-236 97.5,-118.5 97.5,-85.12 113.52,-48.91 124.48,-28.04"/>
<polygon fill="#63b8ff" stroke="#63b8ff" points="127.63,-29.57 129.36,-19.12 121.49,-26.21 127.63,-29.57"/>
</a>
</g>
</g>
<!-- Node4 -->
<g id="Node000004" class="node">
<title>Node4</title>
<g id="a_Node000004"><a xlink:title=" ">
<polygon fill="#e0e0e0" stroke="#999999" points="1058,-244.5 981,-244.5 981,-225.5 1058,-225.5 1058,-244.5"/>
<text text-anchor="middle" x="1019.5" y="-232.5" font-family="Helvetica,sans-Serif" font-size="10.00">sys/socket.h</text>
</a>
</g>
</g>
<!-- Node1&#45;&gt;Node4 -->
<g id="edge3_Node000001_Node000004" class="edge">
<title>Node1&#45;&gt;Node4</title>
<g id="a_edge3_Node000001_Node000004"><a xlink:title=" ">
<path fill="none" stroke="#63b8ff" d="M1040.89,-340.69C1032.63,-332.41 1021.3,-319.18 1016.5,-305 1010.98,-288.69 1012.6,-268.96 1015.08,-254.79"/>
<polygon fill="#63b8ff" stroke="#63b8ff" points="1018.55,-255.28 1017.14,-244.78 1011.7,-253.87 1018.55,-255.28"/>
</a>
</g>
</g>
<!-- Node5 -->
<g id="Node000005" class="node">
<title>Node5</title>
<g id="a_Node000005"><a xlink:title=" ">
<polygon fill="#e0e0e0" stroke="#999999" points="1311.5,-19 1263.5,-19 1263.5,0 1311.5,0 1311.5,-19"/>
<text text-anchor="middle" x="1287.5" y="-7" font-family="Helvetica,sans-Serif" font-size="10.00">time.h</text>
</a>
</g>
</g>
<!-- Node1&#45;&gt;Node5 -->
<g id="edge4_Node000001_Node000005" class="edge">
<title>Node1&#45;&gt;Node5</title>
<g id="a_edge4_Node000001_Node000005"><a xlink:title=" ">
<path fill="none" stroke="#63b8ff" d="M1138.64,-345C1211.31,-335.96 1302.5,-309.89 1302.5,-236 1302.5,-236 1302.5,-236 1302.5,-118.5 1302.5,-86.89 1296.12,-50.56 1291.68,-29.13"/>
<polygon fill="#63b8ff" stroke="#63b8ff" points="1295.05,-28.16 1289.52,-19.12 1288.21,-29.64 1295.05,-28.16"/>
</a>
</g>
</g>
<!-- Node6 -->
<g id="Node000006" class="node">
<title>Node6</title>
<g id="a_Node000006"><a xlink:title=" ">
<polygon fill="#e0e0e0" stroke="#999999" points="1385.5,-19 1329.5,-19 1329.5,0 1385.5,0 1385.5,-19"/>
<text text-anchor="middle" x="1357.5" y="-7" font-family="Helvetica,sans-Serif" font-size="10.00">unistd.h</text>
</a>
</g>
</g>
<!-- Node1&#45;&gt;Node6 -->
<g id="edge5_Node000001_Node000006" class="edge">
<title>Node1&#45;&gt;Node6</title>
<g id="a_edge5_Node000001_Node000006"><a xlink:title=" ">
<path fill="none" stroke="#63b8ff" d="M1138.52,-347.67C1185.35,-343.2 1242.24,-331.93 1286.5,-305 1319.77,-284.76 1340.5,-274.94 1340.5,-236 1340.5,-236 1340.5,-236 1340.5,-118.5 1340.5,-86.8 1347.73,-50.51 1352.76,-29.09"/>
<polygon fill="#63b8ff" stroke="#63b8ff" points="1356.23,-29.65 1355.21,-19.11 1349.43,-27.99 1356.23,-29.65"/>
</a>
</g>
</g>
<!-- Node7 -->
<g id="Node000007" class="node">
<title>Node7</title>
<g id="a_Node000007"><a xlink:href="Sdb_8h.html" target="_top" xlink:title=" ">
<polygon fill="white" stroke="#666666" points="787,-74 726,-74 726,-55 787,-55 787,-74"/>
<text text-anchor="middle" x="756.5" y="-62" font-family="Helvetica,sans-Serif" font-size="10.00">src/Sdb.h</text>
</a>
</g>
</g>
<!-- Node1&#45;&gt;Node7 -->
<g id="edge6_Node000001_Node000007" class="edge">
<title>Node1&#45;&gt;Node7</title>
<g id="a_edge6_Node000001_Node000007"><a xlink:title=" ">
<path fill="none" stroke="#63b8ff" d="M962.22,-346.81C885.48,-339.19 786.5,-314.2 786.5,-236 786.5,-236 786.5,-236 786.5,-173.5 786.5,-140.87 773.63,-104.65 764.75,-83.55"/>
<polygon fill="#63b8ff" stroke="#63b8ff" points="767.89,-81.99 760.67,-74.23 761.48,-84.8 767.89,-81.99"/>
</a>
</g>
</g>
<!-- Node22 -->
<g id="Node000022" class="node">
<title>Node22</title>
<g id="a_Node000022"><a xlink:title=" ">
<polygon fill="#e0e0e0" stroke="#999999" points="1446.5,-305 1368.5,-305 1368.5,-286 1446.5,-286 1446.5,-305"/>
<text text-anchor="middle" x="1407.5" y="-293" font-family="Helvetica,sans-Serif" font-size="10.00">netinet/tcp.h</text>
</a>
</g>
</g>
<!-- Node1&#45;&gt;Node22 -->
<g id="edge24_Node000001_Node000022" class="edge">
<title>Node1&#45;&gt;Node22</title>
<g id="a_edge24_Node000001_Node000022"><a xlink:title=" ">
<path fill="none" stroke="#63b8ff" d="M1110.52,-340.96C1171.87,-332.17 1269.88,-317.98 1354.5,-305 1355.77,-304.81 1357.06,-304.61 1358.35,-304.41"/>
<polygon fill="#63b8ff" stroke="#63b8ff" points="1359.1,-307.83 1368.44,-302.83 1358.01,-300.92 1359.1,-307.83"/>
</a>
</g>
</g>
<!-- Node23 -->
<g id="Node000023" class="node">
<title>Node23</title>
<g id="a_Node000023"><a xlink:title=" ">
<polygon fill="#e0e0e0" stroke="#999999" points="1626,-305 1465,-305 1465,-286 1626,-286 1626,-305"/>
<text text-anchor="middle" x="1545.5" y="-293" font-family="Helvetica,sans-Serif" font-size="10.00">src/CommProtocols/Modbus.h</text>
</a>
</g>
</g>
<!-- Node1&#45;&gt;Node23 -->
<g id="edge25_Node000001_Node000023" class="edge">
<title>Node1&#45;&gt;Node23</title>
<g id="a_edge25_Node000001_Node000023"><a xlink:title=" ">
<path fill="none" stroke="#63b8ff" d="M1130.03,-340.98C1219.02,-331.46 1362.87,-316.05 1455.81,-306.1"/>
<polygon fill="#63b8ff" stroke="#63b8ff" points="1456.19,-309.58 1465.76,-305.04 1455.44,-302.62 1456.19,-309.58"/>
</a>
</g>
</g>
<!-- Node24 -->
<g id="Node000024" class="node">
<title>Node24</title>
<g id="a_Node000024"><a xlink:href="Socket_8h.html" target="_top" xlink:title="Simplified Socket Communication Utilities.">
<polygon fill="white" stroke="#666666" points="969.5,-305 847.5,-305 847.5,-286 969.5,-286 969.5,-305"/>
<text text-anchor="middle" x="908.5" y="-293" font-family="Helvetica,sans-Serif" font-size="10.00">src/Common/Socket.h</text>
</a>
</g>
</g>
<!-- Node1&#45;&gt;Node24 -->
<g id="edge26_Node000001_Node000024" class="edge">
<title>Node1&#45;&gt;Node24</title>
<g id="a_edge26_Node000001_Node000024"><a xlink:title=" ">
<path fill="none" stroke="#63b8ff" d="M1027.69,-340.98C1004.33,-332.27 967.8,-318.63 941.33,-308.75"/>
<polygon fill="#63b8ff" stroke="#63b8ff" points="942.32,-305.39 931.73,-305.17 939.87,-311.95 942.32,-305.39"/>
</a>
</g>
</g>
<!-- Node25 -->
<g id="Node000025" class="node">
<title>Node25</title>
<g id="a_Node000025"><a xlink:href="Time_8h.html" target="_top" xlink:title="Lightweight Time Manipulation Utilities.">
<polygon fill="white" stroke="#666666" points="1058,-129 943,-129 943,-110 1058,-110 1058,-129"/>
<text text-anchor="middle" x="1000.5" y="-117" font-family="Helvetica,sans-Serif" font-size="10.00">src/Common/Time.h</text>
</a>
</g>
</g>
<!-- Node1&#45;&gt;Node25 -->
<g id="edge39_Node000001_Node000025" class="edge">
<title>Node1&#45;&gt;Node25</title>
<g id="a_edge39_Node000001_Node000025"><a xlink:title=" ">
<path fill="none" stroke="#63b8ff" d="M1115.9,-340.98C1145.6,-334.69 1179.95,-323.79 1206.5,-305 1240.43,-280.99 1268.71,-254.48 1245.5,-220 1206.2,-161.62 1126.11,-137.48 1068.18,-127.51"/>
<polygon fill="#63b8ff" stroke="#63b8ff" points="1068.43,-124 1058,-125.86 1067.31,-130.91 1068.43,-124"/>
</a>
</g>
</g>
<!-- Node28 -->
<g id="Node000028" class="node">
<title>Node28</title>
<g id="a_Node000028"><a xlink:href="Thread_8h.html" target="_top" xlink:title="Lightweight Synchronization Primitives Wrapper.">
<polygon fill="white" stroke="#666666" points="565.5,-184 441.5,-184 441.5,-165 565.5,-165 565.5,-184"/>
<text text-anchor="middle" x="503.5" y="-172" font-family="Helvetica,sans-Serif" font-size="10.00">src/Common/Thread.h</text>
</a>
</g>
</g>
<!-- Node1&#45;&gt;Node28 -->
<g id="edge34_Node000001_Node000028" class="edge">
<title>Node1&#45;&gt;Node28</title>
<g id="a_edge34_Node000001_Node000028"><a xlink:title=" ">
<path fill="none" stroke="#63b8ff" d="M962.3,-345.03C846.54,-338.49 649.94,-324.89 580.5,-305 527.95,-289.95 499.24,-296.5 470.5,-250 458.83,-231.12 473.87,-207.39 487.26,-191.85"/>
<polygon fill="#63b8ff" stroke="#63b8ff" points="490.15,-193.87 494.34,-184.14 485,-189.13 490.15,-193.87"/>
</a>
</g>
</g>
<!-- Node30 -->
<g id="Node000030" class="node">
<title>Node30</title>
<g id="a_Node000030"><a xlink:title=" ">
<polygon fill="#e0e0e0" stroke="#999999" points="1236.5,-250 1114.5,-250 1114.5,-220 1236.5,-220 1236.5,-250"/>
<text text-anchor="start" x="1122.5" y="-238" font-family="Helvetica,sans-Serif" font-size="10.00">src/DatabaseSystems</text>
<text text-anchor="middle" x="1175.5" y="-227" font-family="Helvetica,sans-Serif" font-size="10.00">/Postgres.h</text>
</a>
</g>
</g>
<!-- Node1&#45;&gt;Node30 -->
<g id="edge40_Node000001_Node000030" class="edge">
<title>Node1&#45;&gt;Node30</title>
<g id="a_edge40_Node000001_Node000030"><a xlink:title=" ">
<path fill="none" stroke="#63b8ff" d="M1134.03,-340.89C1155.86,-334.4 1177.02,-323.42 1190.5,-305 1200.14,-291.82 1195.68,-273.66 1189.19,-259.28"/>
<polygon fill="#63b8ff" stroke="#63b8ff" points="1192.15,-257.39 1184.52,-250.04 1185.91,-260.55 1192.15,-257.39"/>
</a>
</g>
</g>
<!-- Node31 -->
<g id="Node000031" class="node">
<title>Node31</title>
<g id="a_Node000031"><a xlink:href="TestConstants_8h.html" target="_top" xlink:title="Constants for Modbus Test Server.">
<polygon fill="white" stroke="#666666" points="1181.5,-305 1025.5,-305 1025.5,-286 1181.5,-286 1181.5,-305"/>
<text text-anchor="middle" x="1103.5" y="-293" font-family="Helvetica,sans-Serif" font-size="10.00">src/DevUtils/TestConstants.h</text>
</a>
</g>
</g>
<!-- Node1&#45;&gt;Node31 -->
<g id="edge41_Node000001_Node000031" class="edge">
<title>Node1&#45;&gt;Node31</title>
<g id="a_edge41_Node000001_Node000031"><a xlink:title=" ">
<path fill="none" stroke="#63b8ff" d="M1059.25,-340.75C1066.97,-333.03 1078.4,-321.6 1087.72,-312.28"/>
<polygon fill="#63b8ff" stroke="#63b8ff" points="1090.31,-314.64 1094.91,-305.09 1085.36,-309.69 1090.31,-314.64"/>
</a>
</g>
</g>
<!-- Node32 -->
<g id="Node000032" class="node">
<title>Node32</title>
<g id="a_Node000032"><a xlink:href="Signals_8h.html" target="_top" xlink:title="Signal handling interface for the Sensor Data Handler System.">
<polygon fill="white" stroke="#666666" points="667.5,-305 589.5,-305 589.5,-286 667.5,-286 667.5,-305"/>
<text text-anchor="middle" x="628.5" y="-293" font-family="Helvetica,sans-Serif" font-size="10.00">src/Signals.h</text>
</a>
</g>
</g>
<!-- Node1&#45;&gt;Node32 -->
<g id="edge44_Node000001_Node000032" class="edge">
<title>Node1&#45;&gt;Node32</title>
<g id="a_edge44_Node000001_Node000032"><a xlink:title=" ">
<path fill="none" stroke="#63b8ff" d="M982.7,-340.98C897.47,-330.28 753.23,-312.17 677.8,-302.69"/>
<polygon fill="#63b8ff" stroke="#63b8ff" points="677.99,-299.19 667.63,-301.41 677.12,-306.13 677.99,-299.19"/>
</a>
</g>
</g>
<!-- Node7&#45;&gt;Node3 -->
<g id="edge18_Node000007_Node000003" class="edge">
<title>Node7&#45;&gt;Node3</title>
<g id="a_edge18_Node000007_Node000003"><a xlink:title=" ">
<path fill="none" stroke="#63b8ff" d="M725.97,-61.23C643.57,-55.05 409.73,-37.18 215.5,-19 201.03,-17.65 185.12,-16.01 171.26,-14.53"/>
<polygon fill="#63b8ff" stroke="#63b8ff" points="171.43,-11.03 161.12,-13.45 170.69,-17.99 171.43,-11.03"/>
</a>
</g>
</g>
<!-- Node7&#45;&gt;Node5 -->
<g id="edge21_Node000007_Node000005" class="edge">
<title>Node7&#45;&gt;Node5</title>
<g id="a_edge21_Node000007_Node000005"><a xlink:title=" ">
<path fill="none" stroke="#63b8ff" d="M787.04,-62.5C863.87,-59.63 1071.45,-49.58 1253.43,-18.89"/>
<polygon fill="#63b8ff" stroke="#63b8ff" points="1254.18,-22.32 1263.45,-17.18 1253,-15.42 1254.18,-22.32"/>
</a>
</g>
</g>
<!-- Node7&#45;&gt;Node6 -->
<g id="edge22_Node000007_Node000006" class="edge">
<title>Node7&#45;&gt;Node6</title>
<g id="a_edge22_Node000007_Node000006"><a xlink:title=" ">
<path fill="none" stroke="#63b8ff" d="M787.25,-62.66C871.11,-60.04 1110.91,-50.3 1319.4,-18.94"/>
<polygon fill="#63b8ff" stroke="#63b8ff" points="1319.94,-22.4 1329.3,-17.43 1318.89,-15.48 1319.94,-22.4"/>
</a>
</g>
</g>
<!-- Node8 -->
<g id="Node000008" class="node">
<title>Node8</title>
<g id="a_Node000008"><a xlink:title=" ">
<polygon fill="#e0e0e0" stroke="#999999" points="442.5,-19 386.5,-19 386.5,0 442.5,0 442.5,-19"/>
<text text-anchor="middle" x="414.5" y="-7" font-family="Helvetica,sans-Serif" font-size="10.00">assert.h</text>
</a>
</g>
</g>
<!-- Node7&#45;&gt;Node8 -->
<g id="edge7_Node000007_Node000008" class="edge">
<title>Node7&#45;&gt;Node8</title>
<g id="a_edge7_Node000007_Node000008"><a xlink:title=" ">
<path fill="none" stroke="#63b8ff" d="M725.63,-59.83C672.08,-53.3 558.33,-38.61 452.61,-19.08"/>
<polygon fill="#63b8ff" stroke="#63b8ff" points="453.2,-15.63 442.73,-17.23 451.92,-22.51 453.2,-15.63"/>
</a>
</g>
</g>
<!-- Node9 -->
<g id="Node000009" class="node">
<title>Node9</title>
<g id="a_Node000009"><a xlink:title=" ">
<polygon fill="#e0e0e0" stroke="#999999" points="514,-19 461,-19 461,0 514,0 514,-19"/>
<text text-anchor="middle" x="487.5" y="-7" font-family="Helvetica,sans-Serif" font-size="10.00">ctype.h</text>
</a>
</g>
</g>
<!-- Node7&#45;&gt;Node9 -->
<g id="edge8_Node000007_Node000009" class="edge">
<title>Node7&#45;&gt;Node9</title>
<g id="a_edge8_Node000007_Node000009"><a xlink:title=" ">
<path fill="none" stroke="#63b8ff" d="M725.74,-58.16C682.74,-50.58 602.02,-35.96 524.19,-19.29"/>
<polygon fill="#63b8ff" stroke="#63b8ff" points="524.73,-15.82 514.22,-17.14 523.26,-22.67 524.73,-15.82"/>
</a>
</g>
</g>
<!-- Node10 -->
<g id="Node000010" class="node">
<title>Node10</title>
<g id="a_Node000010"><a xlink:title=" ">
<polygon fill="#e0e0e0" stroke="#999999" points="583,-19 532,-19 532,0 583,0 583,-19"/>
<text text-anchor="middle" x="557.5" y="-7" font-family="Helvetica,sans-Serif" font-size="10.00">errno.h</text>
</a>
</g>
</g>
<!-- Node7&#45;&gt;Node10 -->
<g id="edge9_Node000007_Node000010" class="edge">
<title>Node7&#45;&gt;Node10</title>
<g id="a_edge9_Node000007_Node000010"><a xlink:title=" ">
<path fill="none" stroke="#63b8ff" d="M725.84,-55.33C690.07,-45.81 631,-30.07 593.19,-20.01"/>
<polygon fill="#63b8ff" stroke="#63b8ff" points="593.69,-16.52 583.13,-17.33 591.89,-23.28 593.69,-16.52"/>
</a>
</g>
</g>
<!-- Node11 -->
<g id="Node000011" class="node">
<title>Node11</title>
<g id="a_Node000011"><a xlink:title=" ">
<polygon fill="#e0e0e0" stroke="#999999" points="648,-19 601,-19 601,0 648,0 648,-19"/>
<text text-anchor="middle" x="624.5" y="-7" font-family="Helvetica,sans-Serif" font-size="10.00">fcntl.h</text>
</a>
</g>
</g>
<!-- Node7&#45;&gt;Node11 -->
<g id="edge10_Node000007_Node000011" class="edge">
<title>Node7&#45;&gt;Node11</title>
<g id="a_edge10_Node000007_Node000011"><a xlink:title=" ">
<path fill="none" stroke="#63b8ff" d="M735.29,-54.98C713.77,-46.34 680.22,-32.87 655.67,-23.02"/>
<polygon fill="#63b8ff" stroke="#63b8ff" points="656.68,-19.65 646.09,-19.17 654.07,-26.14 656.68,-19.65"/>
</a>
</g>
</g>
<!-- Node12 -->
<g id="Node000012" class="node">
<title>Node12</title>
<g id="a_Node000012"><a xlink:title=" ">
<polygon fill="#e0e0e0" stroke="#999999" points="713,-19 666,-19 666,0 713,0 713,-19"/>
<text text-anchor="middle" x="689.5" y="-7" font-family="Helvetica,sans-Serif" font-size="10.00">float.h</text>
</a>
</g>
</g>
<!-- Node7&#45;&gt;Node12 -->
<g id="edge11_Node000007_Node000012" class="edge">
<title>Node7&#45;&gt;Node12</title>
<g id="a_edge11_Node000007_Node000012"><a xlink:title=" ">
<path fill="none" stroke="#63b8ff" d="M745.74,-54.98C735.73,-47.07 720.61,-35.11 708.57,-25.58"/>
<polygon fill="#63b8ff" stroke="#63b8ff" points="710.47,-22.63 700.46,-19.17 706.13,-28.12 710.47,-22.63"/>
</a>
</g>
</g>
<!-- Node13 -->
<g id="Node000013" class="node">
<title>Node13</title>
<g id="a_Node000013"><a xlink:title=" ">
<polygon fill="#e0e0e0" stroke="#999999" points="782,-19 731,-19 731,0 782,0 782,-19"/>
<text text-anchor="middle" x="756.5" y="-7" font-family="Helvetica,sans-Serif" font-size="10.00">math.h</text>
</a>
</g>
</g>
<!-- Node7&#45;&gt;Node13 -->
<g id="edge12_Node000007_Node000013" class="edge">
<title>Node7&#45;&gt;Node13</title>
<g id="a_edge12_Node000007_Node000013"><a xlink:title=" ">
<path fill="none" stroke="#63b8ff" d="M756.5,-54.75C756.5,-47.8 756.5,-37.85 756.5,-29.13"/>
<polygon fill="#63b8ff" stroke="#63b8ff" points="760,-29.09 756.5,-19.09 753,-29.09 760,-29.09"/>
</a>
</g>
</g>
<!-- Node14 -->
<g id="Node000014" class="node">
<title>Node14</title>
<g id="a_Node000014"><a xlink:title=" ">
<polygon fill="#e0e0e0" stroke="#999999" points="288,-19 225,-19 225,0 288,0 288,-19"/>
<text text-anchor="middle" x="256.5" y="-7" font-family="Helvetica,sans-Serif" font-size="10.00">pthread.h</text>
</a>
</g>
</g>
<!-- Node7&#45;&gt;Node14 -->
<g id="edge13_Node000007_Node000014" class="edge">
<title>Node7&#45;&gt;Node14</title>
<g id="a_edge13_Node000007_Node000014"><a xlink:title=" ">
<path fill="none" stroke="#63b8ff" d="M725.74,-61.67C653.14,-57.1 465.32,-43.84 298.19,-18.93"/>
<polygon fill="#63b8ff" stroke="#63b8ff" points="298.63,-15.46 288.22,-17.43 297.59,-22.38 298.63,-15.46"/>
</a>
</g>
</g>
<!-- Node15 -->
<g id="Node000015" class="node">
<title>Node15</title>
<g id="a_Node000015"><a xlink:title=" ">
<polygon fill="#e0e0e0" stroke="#999999" points="856.5,-19 800.5,-19 800.5,0 856.5,0 856.5,-19"/>
<text text-anchor="middle" x="828.5" y="-7" font-family="Helvetica,sans-Serif" font-size="10.00">stdarg.h</text>
</a>
</g>
</g>
<!-- Node7&#45;&gt;Node15 -->
<g id="edge14_Node000007_Node000015" class="edge">
<title>Node7&#45;&gt;Node15</title>
<g id="a_edge14_Node000007_Node000015"><a xlink:title=" ">
<path fill="none" stroke="#63b8ff" d="M768.07,-54.98C778.92,-47 795.38,-34.88 808.38,-25.31"/>
<polygon fill="#63b8ff" stroke="#63b8ff" points="810.74,-27.92 816.72,-19.17 806.59,-22.28 810.74,-27.92"/>
</a>
</g>
</g>
<!-- Node16 -->
<g id="Node000016" class="node">
<title>Node16</title>
<g id="a_Node000016"><a xlink:title=" ">
<polygon fill="#e0e0e0" stroke="#999999" points="928,-19 875,-19 875,0 928,0 928,-19"/>
<text text-anchor="middle" x="901.5" y="-7" font-family="Helvetica,sans-Serif" font-size="10.00">stdint.h</text>
</a>
</g>
</g>
<!-- Node7&#45;&gt;Node16 -->
<g id="edge15_Node000007_Node000016" class="edge">
<title>Node7&#45;&gt;Node16</title>
<g id="a_edge15_Node000007_Node000016"><a xlink:title=" ">
<path fill="none" stroke="#63b8ff" d="M779.8,-54.98C803.75,-46.23 841.28,-32.51 868.33,-22.62"/>
<polygon fill="#63b8ff" stroke="#63b8ff" points="869.59,-25.89 877.78,-19.17 867.19,-19.32 869.59,-25.89"/>
</a>
</g>
</g>
<!-- Node17 -->
<g id="Node000017" class="node">
<title>Node17</title>
<g id="a_Node000017"><a xlink:title=" ">
<polygon fill="#e0e0e0" stroke="#999999" points="996.5,-19 946.5,-19 946.5,0 996.5,0 996.5,-19"/>
<text text-anchor="middle" x="971.5" y="-7" font-family="Helvetica,sans-Serif" font-size="10.00">stdio.h</text>
</a>
</g>
</g>
<!-- Node7&#45;&gt;Node17 -->
<g id="edge16_Node000007_Node000017" class="edge">
<title>Node7&#45;&gt;Node17</title>
<g id="a_edge16_Node000007_Node000017"><a xlink:title=" ">
<path fill="none" stroke="#63b8ff" d="M787.3,-55.91C826.8,-46.17 895.12,-29.33 936.53,-19.12"/>
<polygon fill="#63b8ff" stroke="#63b8ff" points="937.58,-22.47 946.45,-16.68 935.9,-15.67 937.58,-22.47"/>
</a>
</g>
</g>
<!-- Node18 -->
<g id="Node000018" class="node">
<title>Node18</title>
<g id="a_Node000018"><a xlink:title=" ">
<polygon fill="#e0e0e0" stroke="#999999" points="1068,-19 1015,-19 1015,0 1068,0 1068,-19"/>
<text text-anchor="middle" x="1041.5" y="-7" font-family="Helvetica,sans-Serif" font-size="10.00">stdlib.h</text>
</a>
</g>
</g>
<!-- Node7&#45;&gt;Node18 -->
<g id="edge17_Node000007_Node000018" class="edge">
<title>Node7&#45;&gt;Node18</title>
<g id="a_edge17_Node000007_Node000018"><a xlink:title=" ">
<path fill="none" stroke="#63b8ff" d="M787.27,-58.56C832.61,-51.16 920.23,-36.4 1004.78,-19.05"/>
<polygon fill="#63b8ff" stroke="#63b8ff" points="1005.72,-22.43 1014.8,-16.98 1004.3,-15.57 1005.72,-22.43"/>
</a>
</g>
</g>
<!-- Node19 -->
<g id="Node000019" class="node">
<title>Node19</title>
<g id="a_Node000019"><a xlink:title=" ">
<polygon fill="#e0e0e0" stroke="#999999" points="1163,-19 1086,-19 1086,0 1163,0 1163,-19"/>
<text text-anchor="middle" x="1124.5" y="-7" font-family="Helvetica,sans-Serif" font-size="10.00">sys/mman.h</text>
</a>
</g>
</g>
<!-- Node7&#45;&gt;Node19 -->
<g id="edge19_Node000007_Node000019" class="edge">
<title>Node7&#45;&gt;Node19</title>
<g id="a_edge19_Node000007_Node000019"><a xlink:title=" ">
<path fill="none" stroke="#63b8ff" d="M787.45,-59.58C842.96,-52.48 963.35,-36.68 1075.61,-19.09"/>
<polygon fill="#63b8ff" stroke="#63b8ff" points="1076.41,-22.5 1085.75,-17.49 1075.33,-15.59 1076.41,-22.5"/>
</a>
</g>
</g>
<!-- Node20 -->
<g id="Node000020" class="node">
<title>Node20</title>
<g id="a_Node000020"><a xlink:title=" ">
<polygon fill="#e0e0e0" stroke="#999999" points="1245.5,-19 1181.5,-19 1181.5,0 1245.5,0 1245.5,-19"/>
<text text-anchor="middle" x="1213.5" y="-7" font-family="Helvetica,sans-Serif" font-size="10.00">sys/stat.h</text>
</a>
</g>
</g>
<!-- Node7&#45;&gt;Node20 -->
<g id="edge20_Node000007_Node000020" class="edge">
<title>Node7&#45;&gt;Node20</title>
<g id="a_edge20_Node000007_Node000020"><a xlink:title=" ">
<path fill="none" stroke="#63b8ff" d="M787.17,-61.25C854.69,-56.09 1021.45,-42.12 1171.04,-19.08"/>
<polygon fill="#63b8ff" stroke="#63b8ff" points="1171.98,-22.48 1181.33,-17.48 1170.91,-15.56 1171.98,-22.48"/>
</a>
</g>
</g>
<!-- Node21 -->
<g id="Node000021" class="node">
<title>Node21</title>
<g id="a_Node000021"><a xlink:title=" ">
<polygon fill="#e0e0e0" stroke="#999999" points="368.5,-19 306.5,-19 306.5,0 368.5,0 368.5,-19"/>
<text text-anchor="middle" x="337.5" y="-7" font-family="Helvetica,sans-Serif" font-size="10.00">stdbool.h</text>
</a>
</g>
</g>
<!-- Node7&#45;&gt;Node21 -->
<g id="edge23_Node000007_Node000021" class="edge">
<title>Node7&#45;&gt;Node21</title>
<g id="a_edge23_Node000007_Node000021"><a xlink:title=" ">
<path fill="none" stroke="#63b8ff" d="M725.91,-60.88C662.87,-55.26 513.8,-40.92 378.98,-19.11"/>
<polygon fill="#63b8ff" stroke="#63b8ff" points="379.32,-15.62 368.89,-17.46 378.19,-22.53 379.32,-15.62"/>
</a>
</g>
</g>
<!-- Node24&#45;&gt;Node4 -->
<g id="edge32_Node000024_Node000004" class="edge">
<title>Node24&#45;&gt;Node4</title>
<g id="a_edge32_Node000024_Node000004"><a xlink:title=" ">
<path fill="none" stroke="#63b8ff" d="M924.88,-285.87C943.08,-276.28 972.7,-260.67 993.95,-249.47"/>
<polygon fill="#63b8ff" stroke="#63b8ff" points="995.84,-252.43 1003.05,-244.67 992.58,-246.23 995.84,-252.43"/>
</a>
</g>
</g>
<!-- Node24&#45;&gt;Node7 -->
<g id="edge27_Node000024_Node000007" class="edge">
<title>Node24&#45;&gt;Node7</title>
<g id="a_edge27_Node000024_Node000007"><a xlink:title=" ">
<path fill="none" stroke="#63b8ff" d="M889.66,-285.98C875.08,-278.46 855.41,-266.19 843.5,-250 804.93,-197.57 833.9,-165.87 800.5,-110 793.93,-99.01 784.07,-88.7 775.36,-80.78"/>
<polygon fill="#63b8ff" stroke="#63b8ff" points="777.65,-78.13 767.8,-74.22 773.06,-83.42 777.65,-78.13"/>
</a>
</g>
</g>
<!-- Node24&#45;&gt;Node25 -->
<g id="edge28_Node000024_Node000025" class="edge">
<title>Node24&#45;&gt;Node25</title>
<g id="a_edge28_Node000024_Node000025"><a xlink:title=" ">
<path fill="none" stroke="#63b8ff" d="M913.57,-285.68C918.69,-276.74 926.77,-262.48 933.5,-250 954.94,-210.25 979.04,-163 991.68,-138.02"/>
<polygon fill="#63b8ff" stroke="#63b8ff" points="994.83,-139.54 996.21,-129.04 988.58,-136.39 994.83,-139.54"/>
</a>
</g>
</g>
<!-- Node27 -->
<g id="Node000027" class="node">
<title>Node27</title>
<g id="a_Node000027"><a xlink:title=" ">
<polygon fill="#e0e0e0" stroke="#999999" points="924.5,-244.5 852.5,-244.5 852.5,-225.5 924.5,-225.5 924.5,-244.5"/>
<text text-anchor="middle" x="888.5" y="-232.5" font-family="Helvetica,sans-Serif" font-size="10.00">sys/types.h</text>
</a>
</g>
</g>
<!-- Node24&#45;&gt;Node27 -->
<g id="edge33_Node000024_Node000027" class="edge">
<title>Node24&#45;&gt;Node27</title>
<g id="a_edge33_Node000024_Node000027"><a xlink:title=" ">
<path fill="none" stroke="#63b8ff" d="M905.55,-285.87C902.71,-277.57 898.34,-264.78 894.73,-254.22"/>
<polygon fill="#63b8ff" stroke="#63b8ff" points="898.01,-253 891.46,-244.67 891.39,-255.26 898.01,-253"/>
</a>
</g>
</g>
<!-- Node25&#45;&gt;Node5 -->
<g id="edge30_Node000025_Node000005" class="edge">
<title>Node25&#45;&gt;Node5</title>
<g id="a_edge30_Node000025_Node000005"><a xlink:title=" ">
<path fill="none" stroke="#63b8ff" d="M1023.5,-109.84C1074.43,-90.68 1196.8,-44.63 1255.3,-22.62"/>
<polygon fill="#63b8ff" stroke="#63b8ff" points="1256.66,-25.84 1264.79,-19.05 1254.2,-19.29 1256.66,-25.84"/>
</a>
</g>
</g>
<!-- Node25&#45;&gt;Node7 -->
<g id="edge31_Node000025_Node000007" class="edge">
<title>Node25&#45;&gt;Node7</title>
<g id="a_edge31_Node000025_Node000007"><a xlink:title=" ">
<path fill="none" stroke="#63b8ff" d="M961.3,-109.98C916.21,-100.19 842.56,-84.19 796.95,-74.29"/>
<polygon fill="#63b8ff" stroke="#63b8ff" points="797.62,-70.85 787.11,-72.15 796.14,-77.69 797.62,-70.85"/>
</a>
</g>
</g>
<!-- Node26 -->
<g id="Node000026" class="node">
<title>Node26</title>
<g id="a_Node000026"><a xlink:title=" ">
<polygon fill="#e0e0e0" stroke="#999999" points="1027,-74 974,-74 974,-55 1027,-55 1027,-74"/>
<text text-anchor="middle" x="1000.5" y="-62" font-family="Helvetica,sans-Serif" font-size="10.00">limits.h</text>
</a>
</g>
</g>
<!-- Node25&#45;&gt;Node26 -->
<g id="edge29_Node000025_Node000026" class="edge">
<title>Node25&#45;&gt;Node26</title>
<g id="a_edge29_Node000025_Node000026"><a xlink:title=" ">
<path fill="none" stroke="#63b8ff" d="M1000.5,-109.75C1000.5,-102.8 1000.5,-92.85 1000.5,-84.13"/>
<polygon fill="#63b8ff" stroke="#63b8ff" points="1004,-84.09 1000.5,-74.09 997,-84.09 1004,-84.09"/>
</a>
</g>
</g>
<!-- Node28&#45;&gt;Node7 -->
<g id="edge37_Node000028_Node000007" class="edge">
<title>Node28&#45;&gt;Node7</title>
<g id="a_edge37_Node000028_Node000007"><a xlink:title=" ">
<path fill="none" stroke="#63b8ff" d="M523.78,-164.84C568.39,-145.8 675.21,-100.2 727.15,-78.03"/>
<polygon fill="#63b8ff" stroke="#63b8ff" points="728.66,-81.19 736.48,-74.05 725.91,-74.75 728.66,-81.19"/>
</a>
</g>
</g>
<!-- Node28&#45;&gt;Node14 -->
<g id="edge35_Node000028_Node000014" class="edge">
<title>Node28&#45;&gt;Node14</title>
<g id="a_edge35_Node000028_Node000014"><a xlink:title=" ">
<path fill="none" stroke="#63b8ff" d="M490.57,-164.97C450.48,-138.51 328,-57.68 278.05,-24.72"/>
<polygon fill="#63b8ff" stroke="#63b8ff" points="279.88,-21.73 269.6,-19.15 276.02,-27.58 279.88,-21.73"/>
</a>
</g>
</g>
<!-- Node28&#45;&gt;Node25 -->
<g id="edge38_Node000028_Node000025" class="edge">
<title>Node28&#45;&gt;Node25</title>
<g id="a_edge38_Node000028_Node000025"><a xlink:title=" ">
<path fill="none" stroke="#63b8ff" d="M565.83,-165.98C568.76,-165.65 571.66,-165.32 574.5,-165 700.95,-150.83 848.68,-135.72 932.75,-127.26"/>
<polygon fill="#63b8ff" stroke="#63b8ff" points="933.34,-130.72 942.94,-126.24 932.64,-123.75 933.34,-130.72"/>
</a>
</g>
</g>
<!-- Node29 -->
<g id="Node000029" class="node">
<title>Node29</title>
<g id="a_Node000029"><a xlink:title=" ">
<polygon fill="#e0e0e0" stroke="#999999" points="543.5,-129 463.5,-129 463.5,-110 543.5,-110 543.5,-129"/>
<text text-anchor="middle" x="503.5" y="-117" font-family="Helvetica,sans-Serif" font-size="10.00">semaphore.h</text>
</a>
</g>
</g>
<!-- Node28&#45;&gt;Node29 -->
<g id="edge36_Node000028_Node000029" class="edge">
<title>Node28&#45;&gt;Node29</title>
<g id="a_edge36_Node000028_Node000029"><a xlink:title=" ">
<path fill="none" stroke="#63b8ff" d="M503.5,-164.75C503.5,-157.8 503.5,-147.85 503.5,-139.13"/>
<polygon fill="#63b8ff" stroke="#63b8ff" points="507,-139.09 503.5,-129.09 500,-139.09 507,-139.09"/>
</a>
</g>
</g>
<!-- Node31&#45;&gt;Node7 -->
<g id="edge42_Node000031_Node000007" class="edge">
<title>Node31&#45;&gt;Node7</title>
<g id="a_edge42_Node000031_Node000007"><a xlink:title=" ">
<path fill="none" stroke="#63b8ff" d="M1101.12,-285.59C1096.65,-270.38 1085.68,-239.21 1066.5,-220 988.05,-141.44 861.52,-95.84 797.06,-76.51"/>
<polygon fill="#63b8ff" stroke="#63b8ff" points="797.85,-73.1 787.27,-73.64 795.88,-79.81 797.85,-73.1"/>
</a>
</g>
</g>
<!-- Node31&#45;&gt;Node30 -->
<g id="edge43_Node000031_Node000030" class="edge">
<title>Node31&#45;&gt;Node30</title>
<g id="a_edge43_Node000031_Node000030"><a xlink:title=" ">
<path fill="none" stroke="#63b8ff" d="M1114.12,-285.87C1123.62,-278.15 1137.92,-266.54 1150.32,-256.46"/>
<polygon fill="#63b8ff" stroke="#63b8ff" points="1152.57,-259.14 1158.13,-250.11 1148.16,-253.7 1152.57,-259.14"/>
</a>
</g>
</g>
<!-- Node32&#45;&gt;Node7 -->
<g id="edge46_Node000032_Node000007" class="edge">
<title>Node32&#45;&gt;Node7</title>
<g id="a_edge46_Node000032_Node000007"><a xlink:title=" ">
<path fill="none" stroke="#63b8ff" d="M667.69,-286.68C688.95,-280.38 713.81,-269.27 728.5,-250 766.43,-200.25 763.07,-120.58 759.13,-84.43"/>
<polygon fill="#63b8ff" stroke="#63b8ff" points="762.58,-83.81 757.88,-74.32 755.63,-84.67 762.58,-83.81"/>
</a>
</g>
</g>
<!-- Node33 -->
<g id="Node000033" class="node">
<title>Node33</title>
<g id="a_Node000033"><a xlink:title=" ">
<polygon fill="#e0e0e0" stroke="#999999" points="720,-244.5 665,-244.5 665,-225.5 720,-225.5 720,-244.5"/>
<text text-anchor="middle" x="692.5" y="-232.5" font-family="Helvetica,sans-Serif" font-size="10.00">signal.h</text>
</a>
</g>
</g>
<!-- Node32&#45;&gt;Node33 -->
<g id="edge45_Node000032_Node000033" class="edge">
<title>Node32&#45;&gt;Node33</title>
<g id="a_edge45_Node000032_Node000033"><a xlink:title=" ">
<path fill="none" stroke="#63b8ff" d="M637.94,-285.87C647.77,-276.88 663.39,-262.61 675.39,-251.64"/>
<polygon fill="#63b8ff" stroke="#63b8ff" points="678,-254 683.02,-244.67 673.28,-248.83 678,-254"/>
</a>
</g>
</g>
<!-- Node34 -->
<g id="Node000034" class="node">
<title>Node34</title>
<g id="a_Node000034"><a xlink:href="SensorDataPipe_8h.html" target="_top" xlink:title="Lock&#45;Free Data Pipeline.">
<polygon fill="white" stroke="#666666" points="647,-244.5 480,-244.5 480,-225.5 647,-225.5 647,-244.5"/>
<text text-anchor="middle" x="563.5" y="-232.5" font-family="Helvetica,sans-Serif" font-size="10.00">src/Common/SensorDataPipe.h</text>
</a>
</g>
</g>
<!-- Node32&#45;&gt;Node34 -->
<g id="edge47_Node000032_Node000034" class="edge">
<title>Node32&#45;&gt;Node34</title>
<g id="a_edge47_Node000032_Node000034"><a xlink:title=" ">
<path fill="none" stroke="#63b8ff" d="M618.91,-285.87C608.92,-276.88 593.07,-262.61 580.87,-251.64"/>
<polygon fill="#63b8ff" stroke="#63b8ff" points="582.9,-248.76 573.13,-244.67 578.22,-253.96 582.9,-248.76"/>
</a>
</g>
</g>
<!-- Node36 -->
<g id="Node000036" class="node">
<title>Node36</title>
<g id="a_Node000036"><a xlink:href="ThreadGroup_8h.html" target="_top" xlink:title="Thread Group Management System.">
<polygon fill="white" stroke="#666666" points="424,-244.5 271,-244.5 271,-225.5 424,-225.5 424,-244.5"/>
<text text-anchor="middle" x="347.5" y="-232.5" font-family="Helvetica,sans-Serif" font-size="10.00">src/Common/ThreadGroup.h</text>
</a>
</g>
</g>
<!-- Node32&#45;&gt;Node36 -->
<g id="edge51_Node000032_Node000036" class="edge">
<title>Node32&#45;&gt;Node36</title>
<g id="a_edge51_Node000032_Node000036"><a xlink:title=" ">
<path fill="none" stroke="#63b8ff" d="M589.43,-286.37C539.6,-275.99 453.32,-258.03 398.39,-246.6"/>
<polygon fill="#63b8ff" stroke="#63b8ff" points="399.02,-243.15 388.52,-244.54 397.6,-250 399.02,-243.15"/>
</a>
</g>
</g>
<!-- Node37 -->
<g id="Node000037" class="node">
<title>Node37</title>
<g id="a_Node000037"><a xlink:href="cJSON_8h.html" target="_top" xlink:title=" ">
<polygon fill="white" stroke="#666666" points="253,-244.5 126,-244.5 126,-225.5 253,-225.5 253,-244.5"/>
<text text-anchor="middle" x="189.5" y="-232.5" font-family="Helvetica,sans-Serif" font-size="10.00">src/Libs/cJSON/cJSON.h</text>
</a>
</g>
</g>
<!-- Node32&#45;&gt;Node37 -->
<g id="edge56_Node000032_Node000037" class="edge">
<title>Node32&#45;&gt;Node37</title>
<g id="a_edge56_Node000032_Node000037"><a xlink:title=" ">
<path fill="none" stroke="#63b8ff" d="M589.27,-290.67C521.99,-283.9 380.37,-268.74 261.5,-250 254.74,-248.93 247.64,-247.7 240.65,-246.41"/>
<polygon fill="#63b8ff" stroke="#63b8ff" points="241.01,-242.92 230.53,-244.5 239.71,-249.8 241.01,-242.92"/>
</a>
</g>
</g>
<!-- Node34&#45;&gt;Node7 -->
<g id="edge49_Node000034_Node000007" class="edge">
<title>Node34&#45;&gt;Node7</title>
<g id="a_edge49_Node000034_Node000007"><a xlink:title=" ">
<path fill="none" stroke="#63b8ff" d="M589.12,-225.43C611.2,-217.19 643.13,-203.15 666.5,-184 702.48,-154.51 732.38,-107.86 746.95,-82.8"/>
<polygon fill="#63b8ff" stroke="#63b8ff" points="750.02,-84.47 751.91,-74.05 743.93,-81.01 750.02,-84.47"/>
</a>
</g>
</g>
<!-- Node34&#45;&gt;Node28 -->
<g id="edge50_Node000034_Node000028" class="edge">
<title>Node34&#45;&gt;Node28</title>
<g id="a_edge50_Node000034_Node000028"><a xlink:title=" ">
<path fill="none" stroke="#63b8ff" d="M554.65,-225.37C545.52,-216.47 531.08,-202.39 519.86,-191.45"/>
<polygon fill="#63b8ff" stroke="#63b8ff" points="521.99,-188.64 512.39,-184.17 517.11,-193.65 521.99,-188.64"/>
</a>
</g>
</g>
<!-- Node35 -->
<g id="Node000035" class="node">
<title>Node35</title>
<g id="a_Node000035"><a xlink:title=" ">
<polygon fill="#e0e0e0" stroke="#999999" points="657.5,-184 583.5,-184 583.5,-165 657.5,-165 657.5,-184"/>
<text text-anchor="middle" x="620.5" y="-172" font-family="Helvetica,sans-Serif" font-size="10.00">stdatomic.h</text>
</a>
</g>
</g>
<!-- Node34&#45;&gt;Node35 -->
<g id="edge48_Node000034_Node000035" class="edge">
<title>Node34&#45;&gt;Node35</title>
<g id="a_edge48_Node000034_Node000035"><a xlink:title=" ">
<path fill="none" stroke="#63b8ff" d="M571.91,-225.37C580.58,-216.47 594.3,-202.39 604.96,-191.45"/>
<polygon fill="#63b8ff" stroke="#63b8ff" points="607.58,-193.77 612.05,-184.17 602.57,-188.89 607.58,-193.77"/>
</a>
</g>
</g>
<!-- Node36&#45;&gt;Node7 -->
<g id="edge54_Node000036_Node000007" class="edge">
<title>Node36&#45;&gt;Node7</title>
<g id="a_edge54_Node000036_Node000007"><a xlink:title=" ">
<path fill="none" stroke="#63b8ff" d="M352.09,-225.23C364.79,-201.93 402.92,-138.35 454.5,-110 498.71,-85.7 644.19,-72.93 715.87,-67.98"/>
<polygon fill="#63b8ff" stroke="#63b8ff" points="716.14,-71.47 725.88,-67.31 715.67,-64.49 716.14,-71.47"/>
</a>
</g>
</g>
<!-- Node36&#45;&gt;Node14 -->
<g id="edge52_Node000036_Node000014" class="edge">
<title>Node36&#45;&gt;Node14</title>
<g id="a_edge52_Node000036_Node000014"><a xlink:title=" ">
<path fill="none" stroke="#63b8ff" d="M343.93,-225.24C330.46,-192.14 282.48,-74.32 263.92,-28.71"/>
<polygon fill="#63b8ff" stroke="#63b8ff" points="267.15,-27.39 260.14,-19.44 260.67,-30.03 267.15,-27.39"/>
</a>
</g>
</g>
<!-- Node36&#45;&gt;Node21 -->
<g id="edge53_Node000036_Node000021" class="edge">
<title>Node36&#45;&gt;Node21</title>
<g id="a_edge53_Node000036_Node000021"><a xlink:title=" ">
<path fill="none" stroke="#63b8ff" d="M347.11,-225.24C345.64,-192.35 340.42,-75.8 338.35,-29.59"/>
<polygon fill="#63b8ff" stroke="#63b8ff" points="341.84,-29.28 337.9,-19.44 334.85,-29.59 341.84,-29.28"/>
</a>
</g>
</g>
<!-- Node36&#45;&gt;Node28 -->
<g id="edge55_Node000036_Node000028" class="edge">
<title>Node36&#45;&gt;Node28</title>
<g id="a_edge55_Node000036_Node000028"><a xlink:title=" ">
<path fill="none" stroke="#63b8ff" d="M370.18,-225.49C396.76,-215.53 440.98,-198.95 471.14,-187.63"/>
<polygon fill="#63b8ff" stroke="#63b8ff" points="472.65,-190.81 480.79,-184.02 470.2,-184.25 472.65,-190.81"/>
</a>
</g>
</g>
<!-- Node38 -->
<g id="Node000038" class="node">
<title>Node38</title>
<g id="a_Node000038"><a xlink:title=" ">
<polygon fill="#e0e0e0" stroke="#999999" points="217.5,-184 161.5,-184 161.5,-165 217.5,-165 217.5,-184"/>
<text text-anchor="middle" x="189.5" y="-172" font-family="Helvetica,sans-Serif" font-size="10.00">stddef.h</text>
</a>
</g>
</g>
<!-- Node37&#45;&gt;Node38 -->
<g id="edge57_Node000037_Node000038" class="edge">
<title>Node37&#45;&gt;Node38</title>
<g id="a_edge57_Node000037_Node000038"><a xlink:title=" ">
<path fill="none" stroke="#63b8ff" d="M189.5,-225.37C189.5,-217.25 189.5,-204.81 189.5,-194.39"/>
<polygon fill="#63b8ff" stroke="#63b8ff" points="193,-194.17 189.5,-184.17 186,-194.17 193,-194.17"/>
</a>
</g>
</g>
</g>
</svg>

<g id="navigator" transform="translate(0 0)" fill="#404254">
  <rect fill="#f2f5e9" fill-opacity="0.5" stroke="#606060" stroke-width=".5" x="0" y="0" width="60" height="60"/>
  <use id="zoomplus" xlink:href="#zoomPlus" x="17" y="9" onmousedown="handleZoom(evt,'in')"/>
  <use id="zoomminus" xlink:href="#zoomMin" x="42" y="9" onmousedown="handleZoom(evt,'out')"/>
  <use id="reset" xlink:href="#resetDef" x="30" y="36" onmousedown="handleReset()"/>
   <use id="arrowup" xlink:href="#arrowUp" x="0" y="0" onmousedown="handlePan(0,-1)"/>
  <use id="arrowright" xlink:href="#arrowRight" x="0" y="0" onmousedown="handlePan(1,0)"/>
  <use id="arrowdown" xlink:href="#arrowDown" x="0" y="0" onmousedown="handlePan(0,1)"/>
  <use id="arrowleft" xlink:href="#arrowLeft" x="0" y="0" onmousedown="handlePan(-1,0)"/>
</g>
<svg viewBox="0 0 15 15" width="100%" height="30px" preserveAspectRatio="xMaxYMin meet">
 <g id="arrow_out" transform="scale(0.3 0.3)">
  <a xlink:href="ModbusTestServer_8c__incl_org.svg" target="_base">
   <rect id="button" ry="5" rx="5" y="6" x="6" height="38" width="38"
        fill="#f2f5e9" fill-opacity="0.5" stroke="#606060" stroke-width="1.0"/>
   <path id="arrow"
     d="M 11.500037,31.436501 C 11.940474,20.09759 22.043105,11.32322 32.158766,21.979434 L 37.068811,17.246167 C 37.068811,17.246167 37.088388,32 37.088388,32 L 22.160133,31.978069 C 22.160133,31.978069 26.997745,27.140456 26.997745,27.140456 C 18.528582,18.264221 13.291696,25.230495 11.500037,31.436501 z"
     style="fill:#404040;"/>
  </a>
 </g>
</svg>

<style type='text/css'>
<![CDATA[
[data-mouse-over-selected='false'] { opacity: 0.7; }
[data-mouse-over-selected='true']  { opacity: 1.0; }
]]>
</style>
<script type="application/ecmascript"><![CDATA[
document.addEventListener('DOMContentLoaded', (event) => {
  highlightEdges();
  highlightAdjacentNodes();
});
]]></script>
</svg>
