<?xml version="1.0" encoding="UTF-8" standalone="no"?>
<!DOCTYPE svg PUBLIC "-//W3C//DTD SVG 1.1//EN"
 "http://www.w3.org/Graphics/SVG/1.1/DTD/svg11.dtd">
<!-- Generated by graphviz version 2.43.0 (0)
 -->
<!-- Title: MbPgCreateTg Pages: 1 -->
<svg width="453pt" height="294pt"
 viewBox="0.00 0.00 453.00 294.00" xmlns="http://www.w3.org/2000/svg" xmlns:xlink="http://www.w3.org/1999/xlink">
<g id="graph0" class="graph" transform="scale(1 1) rotate(0) translate(4 290)">
<title>MbPgCreateTg</title>
<polygon fill="white" stroke="transparent" points="-4,4 -4,-290 449,-290 449,4 -4,4"/>
<!-- Node1 -->
<g id="node1" class="node">
<title>Node1</title>
<g id="a_node1"><a xlink:title="Creates thread group from configuration.">
<polygon fill="#bfbfbf" stroke="black" points="0,-171.5 0,-190.5 88,-190.5 88,-171.5 0,-171.5"/>
<text text-anchor="middle" x="44" y="-178.5" font-family="Helvetica,sans-Serif" font-size="10.00">MbPgCreateTg</text>
</a>
</g>
</g>
<!-- Node2 -->
<g id="node2" class="node">
<title>Node2</title>
<g id="a_node2"><a xlink:href="DataHandlers_8c.html#afe9e102250a74bffceba672ba91d9368" target="_top" xlink:title="Extracts memory and scratch sizes from JSON configuration.">
<polygon fill="white" stroke="black" points="124,-266.5 124,-285.5 276,-285.5 276,-266.5 124,-266.5"/>
<text text-anchor="middle" x="200" y="-273.5" font-family="Helvetica,sans-Serif" font-size="10.00">DhsGetMemAndScratchSize</text>
</a>
</g>
</g>
<!-- Node1&#45;&gt;Node2 -->
<g id="edge1" class="edge">
<title>Node1&#45;&gt;Node2</title>
<path fill="none" stroke="midnightblue" d="M53.25,-190.68C66.63,-205.82 94.57,-235.11 124,-252 131.67,-256.4 140.25,-260.11 148.79,-263.19"/>
<polygon fill="midnightblue" stroke="midnightblue" points="147.77,-266.54 158.37,-266.42 150,-259.91 147.77,-266.54"/>
</g>
<!-- Node3 -->
<g id="node3" class="node">
<title>Node3</title>
<g id="a_node3"><a xlink:href="Sdb_8h.html#a3bc1152307e502260c7363261ded3603" target="_top" xlink:title=" ">
<polygon fill="white" stroke="black" points="312,-266.5 312,-285.5 445,-285.5 445,-266.5 312,-266.5"/>
<text text-anchor="middle" x="378.5" y="-273.5" font-family="Helvetica,sans-Serif" font-size="10.00">SdbMemSizeFromString</text>
</a>
</g>
</g>
<!-- Node1&#45;&gt;Node3 -->
<g id="edge7" class="edge">
<title>Node1&#45;&gt;Node3</title>
<path fill="none" stroke="midnightblue" d="M62.09,-190.62C77.77,-199.11 101.86,-211.3 124,-219 159.49,-231.34 256.13,-251.76 319.32,-264.51"/>
<polygon fill="midnightblue" stroke="midnightblue" points="318.66,-267.95 329.16,-266.49 320.04,-261.09 318.66,-267.95"/>
</g>
<!-- Node4 -->
<g id="node4" class="node">
<title>Node4</title>
<g id="a_node4"><a xlink:href="ModbusWithPostgres_8c.html#a6738c27ba468f4aa7e2039ed83906086" target="_top" xlink:title="Cleanup function for Modbus&#45;PostgreSQL context.">
<polygon fill="white" stroke="black" points="158.5,-190.5 158.5,-209.5 241.5,-209.5 241.5,-190.5 158.5,-190.5"/>
<text text-anchor="middle" x="200" y="-197.5" font-family="Helvetica,sans-Serif" font-size="10.00">MbPgCleanup</text>
</a>
</g>
</g>
<!-- Node1&#45;&gt;Node4 -->
<g id="edge3" class="edge">
<title>Node1&#45;&gt;Node4</title>
<path fill="none" stroke="midnightblue" d="M88.31,-186.34C106.93,-188.64 128.84,-191.34 148.22,-193.74"/>
<polygon fill="midnightblue" stroke="midnightblue" points="148.04,-197.24 158.4,-194.99 148.9,-190.29 148.04,-197.24"/>
</g>
<!-- Node7 -->
<g id="node7" class="node">
<title>Node7</title>
<g id="a_node7"><a xlink:href="Thread_8c.html#a6b9ac1c397bc80d499de59fae806cbe1" target="_top" xlink:title="Initialize a thread barrier.">
<polygon fill="white" stroke="black" points="158.5,-152.5 158.5,-171.5 241.5,-171.5 241.5,-152.5 158.5,-152.5"/>
<text text-anchor="middle" x="200" y="-159.5" font-family="Helvetica,sans-Serif" font-size="10.00">SdbBarrierInit</text>
</a>
</g>
</g>
<!-- Node1&#45;&gt;Node7 -->
<g id="edge6" class="edge">
<title>Node1&#45;&gt;Node7</title>
<path fill="none" stroke="midnightblue" d="M88.31,-175.66C106.93,-173.36 128.84,-170.66 148.22,-168.26"/>
<polygon fill="midnightblue" stroke="midnightblue" points="148.9,-171.71 158.4,-167.01 148.04,-164.76 148.9,-171.71"/>
</g>
<!-- Node8 -->
<g id="node8" class="node">
<title>Node8</title>
<g id="a_node8"><a xlink:href="SensorDataPipe_8c.html#aa79e3351208df70a0520943cdade8046" target="_top" xlink:title="Create Sensor Data Pipeline.">
<polygon fill="white" stroke="black" points="166.5,-114.5 166.5,-133.5 233.5,-133.5 233.5,-114.5 166.5,-114.5"/>
<text text-anchor="middle" x="200" y="-121.5" font-family="Helvetica,sans-Serif" font-size="10.00">SdpCreate</text>
</a>
</g>
</g>
<!-- Node1&#45;&gt;Node8 -->
<g id="edge8" class="edge">
<title>Node1&#45;&gt;Node8</title>
<path fill="none" stroke="midnightblue" d="M62.45,-171.35C78.17,-162.97 102.11,-150.95 124,-143 134.33,-139.25 145.73,-135.95 156.44,-133.21"/>
<polygon fill="midnightblue" stroke="midnightblue" points="157.58,-136.53 166.46,-130.74 155.91,-129.73 157.58,-136.53"/>
</g>
<!-- Node13 -->
<g id="node13" class="node">
<title>Node13</title>
<g id="a_node13"><a xlink:href="ThreadGroup_8c.html#af2f3e46faf85d1558bf6170af7e2f408" target="_top" xlink:title="Create a Thread Group.">
<polygon fill="white" stroke="black" points="155,-38.5 155,-57.5 245,-57.5 245,-38.5 155,-38.5"/>
<text text-anchor="middle" x="200" y="-45.5" font-family="Helvetica,sans-Serif" font-size="10.00">TgCreateGroup</text>
</a>
</g>
</g>
<!-- Node1&#45;&gt;Node13 -->
<g id="edge13" class="edge">
<title>Node1&#45;&gt;Node13</title>
<path fill="none" stroke="midnightblue" d="M54.39,-171.27C68.86,-156.43 97.69,-127.52 124,-105 141.24,-90.24 161.83,-74.74 177.07,-63.63"/>
<polygon fill="midnightblue" stroke="midnightblue" points="179.3,-66.33 185.36,-57.64 175.2,-60.66 179.3,-66.33"/>
</g>
<!-- Node2&#45;&gt;Node3 -->
<g id="edge2" class="edge">
<title>Node2&#45;&gt;Node3</title>
<path fill="none" stroke="midnightblue" d="M276.11,-276C284.58,-276 293.22,-276 301.7,-276"/>
<polygon fill="midnightblue" stroke="midnightblue" points="301.94,-279.5 311.94,-276 301.94,-272.5 301.94,-279.5"/>
</g>
<!-- Node5 -->
<g id="node5" class="node">
<title>Node5</title>
<g id="a_node5"><a xlink:href="Thread_8c.html#a9cb4c8bef2fd99915d71913855bbd5c1" target="_top" xlink:title="Deinitialize a thread barrier.">
<polygon fill="white" stroke="black" points="330,-228.5 330,-247.5 427,-247.5 427,-228.5 330,-228.5"/>
<text text-anchor="middle" x="378.5" y="-235.5" font-family="Helvetica,sans-Serif" font-size="10.00">SdbBarrierDeinit</text>
</a>
</g>
</g>
<!-- Node4&#45;&gt;Node5 -->
<g id="edge4" class="edge">
<title>Node4&#45;&gt;Node5</title>
<path fill="none" stroke="midnightblue" d="M241.94,-208.81C266.14,-214.02 297.08,-220.68 323.29,-226.33"/>
<polygon fill="midnightblue" stroke="midnightblue" points="322.56,-229.75 333.08,-228.44 324.04,-222.91 322.56,-229.75"/>
</g>
<!-- Node6 -->
<g id="node6" class="node">
<title>Node6</title>
<g id="a_node6"><a xlink:href="SensorDataPipe_8c.html#a6bcca74f25bea60fddde9dbadf2f46e7" target="_top" xlink:title="Destroy Sensor Data Pipeline.">
<polygon fill="white" stroke="black" points="342,-190.5 342,-209.5 415,-209.5 415,-190.5 342,-190.5"/>
<text text-anchor="middle" x="378.5" y="-197.5" font-family="Helvetica,sans-Serif" font-size="10.00">SdpDestroy</text>
</a>
</g>
</g>
<!-- Node4&#45;&gt;Node6 -->
<g id="edge5" class="edge">
<title>Node4&#45;&gt;Node6</title>
<path fill="none" stroke="midnightblue" d="M241.94,-200C268.76,-200 303.85,-200 331.61,-200"/>
<polygon fill="midnightblue" stroke="midnightblue" points="331.86,-203.5 341.86,-200 331.86,-196.5 331.86,-203.5"/>
</g>
<!-- Node9 -->
<g id="node9" class="node">
<title>Node9</title>
<g id="a_node9"><a xlink:href="Sdb_8h.html#a132f10c44fe9dab28a9fae8839c099ad" target="_top" xlink:title=" ">
<polygon fill="white" stroke="black" points="323.5,-152.5 323.5,-171.5 433.5,-171.5 433.5,-152.5 323.5,-152.5"/>
<text text-anchor="middle" x="378.5" y="-159.5" font-family="Helvetica,sans-Serif" font-size="10.00">SdbArenaBootstrap</text>
</a>
</g>
</g>
<!-- Node8&#45;&gt;Node9 -->
<g id="edge9" class="edge">
<title>Node8&#45;&gt;Node9</title>
<path fill="none" stroke="midnightblue" d="M233.78,-131.06C258.84,-136.45 293.94,-144.01 323.17,-150.3"/>
<polygon fill="midnightblue" stroke="midnightblue" points="322.73,-153.79 333.24,-152.47 324.2,-146.94 322.73,-153.79"/>
</g>
<!-- Node10 -->
<g id="node10" class="node">
<title>Node10</title>
<g id="a_node10"><a xlink:href="Sdb_8h.html#a05ee63d567b60fbc2b9e6732f4154a48" target="_top" xlink:title=" ">
<polygon fill="white" stroke="black" points="329.5,-114.5 329.5,-133.5 427.5,-133.5 427.5,-114.5 329.5,-114.5"/>
<text text-anchor="middle" x="378.5" y="-121.5" font-family="Helvetica,sans-Serif" font-size="10.00">SdbArenaGetPos</text>
</a>
</g>
</g>
<!-- Node8&#45;&gt;Node10 -->
<g id="edge10" class="edge">
<title>Node8&#45;&gt;Node10</title>
<path fill="none" stroke="midnightblue" d="M233.78,-124C257.67,-124 290.67,-124 319.02,-124"/>
<polygon fill="midnightblue" stroke="midnightblue" points="319.23,-127.5 329.23,-124 319.23,-120.5 319.23,-127.5"/>
</g>
<!-- Node11 -->
<g id="node11" class="node">
<title>Node11</title>
<g id="a_node11"><a xlink:href="Sdb_8h.html#ab63e953fd90c628d5c0727287df66fab" target="_top" xlink:title=" ">
<polygon fill="white" stroke="black" points="339,-76.5 339,-95.5 418,-95.5 418,-76.5 339,-76.5"/>
<text text-anchor="middle" x="378.5" y="-83.5" font-family="Helvetica,sans-Serif" font-size="10.00">SdbArenaInit</text>
</a>
</g>
</g>
<!-- Node8&#45;&gt;Node11 -->
<g id="edge11" class="edge">
<title>Node8&#45;&gt;Node11</title>
<path fill="none" stroke="midnightblue" d="M233.78,-116.94C260.48,-111.2 298.55,-103 328.8,-96.48"/>
<polygon fill="midnightblue" stroke="midnightblue" points="329.7,-99.87 338.74,-94.35 328.22,-93.03 329.7,-99.87"/>
</g>
<!-- Node12 -->
<g id="node12" class="node">
<title>Node12</title>
<g id="a_node12"><a xlink:href="Sdb_8h.html#a1bbfbdaa7f48d20cf4009a728cc7d138" target="_top" xlink:title=" ">
<polygon fill="white" stroke="black" points="335,-38.5 335,-57.5 422,-57.5 422,-38.5 335,-38.5"/>
<text text-anchor="middle" x="378.5" y="-45.5" font-family="Helvetica,sans-Serif" font-size="10.00">SdbArenaSeek</text>
</a>
</g>
</g>
<!-- Node8&#45;&gt;Node12 -->
<g id="edge12" class="edge">
<title>Node8&#45;&gt;Node12</title>
<path fill="none" stroke="midnightblue" d="M217.09,-114.49C238.28,-102.25 276.97,-80.92 312,-67 317.85,-64.68 324.09,-62.5 330.32,-60.5"/>
<polygon fill="midnightblue" stroke="midnightblue" points="331.48,-63.81 340.02,-57.53 329.43,-57.11 331.48,-63.81"/>
</g>
<!-- Node14 -->
<g id="node14" class="node">
<title>Node14</title>
<g id="a_node14"><a xlink:href="Sdb_8h.html#ac5c7c1054a5f2110db33fbaf02ee3875" target="_top" xlink:title=" ">
<polygon fill="white" stroke="black" points="340,-0.5 340,-19.5 417,-19.5 417,-0.5 340,-0.5"/>
<text text-anchor="middle" x="378.5" y="-7.5" font-family="Helvetica,sans-Serif" font-size="10.00">SdbMemcpy</text>
</a>
</g>
</g>
<!-- Node13&#45;&gt;Node14 -->
<g id="edge14" class="edge">
<title>Node13&#45;&gt;Node14</title>
<path fill="none" stroke="midnightblue" d="M245.08,-38.51C270.98,-32.93 303.71,-25.89 330.15,-20.19"/>
<polygon fill="midnightblue" stroke="midnightblue" points="330.91,-23.61 339.95,-18.09 329.43,-16.77 330.91,-23.61"/>
</g>
</g>
</svg>
