<?xml version="1.0" encoding="UTF-8" standalone="no"?>
<!DOCTYPE svg PUBLIC "-//W3C//DTD SVG 1.1//EN"
 "http://www.w3.org/Graphics/SVG/1.1/DTD/svg11.dtd">
<!-- Generated by graphviz version 2.43.0 (0)
 -->
<!-- Title: Timings.main Pages: 1 -->
<svg width="996pt" height="350pt"
 viewBox="0.00 0.00 996.00 350.00" xmlns="http://www.w3.org/2000/svg" xmlns:xlink="http://www.w3.org/1999/xlink">
<g id="graph0" class="graph" transform="scale(1 1) rotate(0) translate(4 346)">
<title>Timings.main</title>
<polygon fill="white" stroke="transparent" points="-4,4 -4,-346 992,-346 992,4 -4,4"/>
<!-- Node1 -->
<g id="node1" class="node">
<title>Node1</title>
<g id="a_node1"><a xlink:title=" ">
<polygon fill="#bfbfbf" stroke="black" points="0,-256.5 0,-275.5 83,-275.5 83,-256.5 0,-256.5"/>
<text text-anchor="middle" x="41.5" y="-263.5" font-family="Helvetica,sans-Serif" font-size="10.00">Timings.main</text>
</a>
</g>
</g>
<!-- Node2 -->
<g id="node2" class="node">
<title>Node2</title>
<g id="a_node2"><a xlink:href="namespaceTimings.html#aadf2661fed15eeec1d5ca92e8125726e" target="_top" xlink:title=" ">
<polygon fill="white" stroke="black" points="119,-275.5 119,-294.5 280,-294.5 280,-275.5 119,-275.5"/>
<text text-anchor="middle" x="199.5" y="-282.5" font-family="Helvetica,sans-Serif" font-size="10.00">Timings.analyze_timing_data</text>
</a>
</g>
</g>
<!-- Node1&#45;&gt;Node2 -->
<g id="edge1" class="edge">
<title>Node1&#45;&gt;Node2</title>
<path fill="none" stroke="midnightblue" d="M83.08,-270.94C91.59,-271.98 100.88,-273.11 110.37,-274.27"/>
<polygon fill="midnightblue" stroke="midnightblue" points="109.96,-277.74 120.31,-275.48 110.81,-270.79 109.96,-277.74"/>
</g>
<!-- Node3 -->
<g id="node3" class="node">
<title>Node3</title>
<g id="a_node3"><a xlink:href="cJSON_8c.html#ae71e2aec89bf140e6430cb7d5ca417c5" target="_top" xlink:title=" ">
<polygon fill="white" stroke="black" points="316,-256.5 316,-275.5 355,-275.5 355,-256.5 316,-256.5"/>
<text text-anchor="middle" x="335.5" y="-263.5" font-family="Helvetica,sans-Serif" font-size="10.00">print</text>
</a>
</g>
</g>
<!-- Node1&#45;&gt;Node3 -->
<g id="edge26" class="edge">
<title>Node1&#45;&gt;Node3</title>
<path fill="none" stroke="midnightblue" d="M83.1,-266C142.94,-266 253.35,-266 305.62,-266"/>
<polygon fill="midnightblue" stroke="midnightblue" points="305.85,-269.5 315.85,-266 305.85,-262.5 305.85,-269.5"/>
</g>
<!-- Node2&#45;&gt;Node3 -->
<g id="edge2" class="edge">
<title>Node2&#45;&gt;Node3</title>
<path fill="none" stroke="midnightblue" d="M267.89,-275.44C281.33,-273.54 294.74,-271.64 305.97,-270.05"/>
<polygon fill="midnightblue" stroke="midnightblue" points="306.59,-273.49 316,-268.62 305.61,-266.56 306.59,-273.49"/>
</g>
<!-- Node4 -->
<g id="node4" class="node">
<title>Node4</title>
<g id="a_node4"><a xlink:href="structinternal__hooks.html#a872a0c28217b451331d24b8e0484b293" target="_top" xlink:title=" ">
<polygon fill="white" stroke="black" points="849.5,-237.5 849.5,-256.5 983.5,-256.5 983.5,-237.5 849.5,-237.5"/>
<text text-anchor="middle" x="916.5" y="-244.5" font-family="Helvetica,sans-Serif" font-size="10.00">internal_hooks::allocate</text>
</a>
</g>
</g>
<!-- Node3&#45;&gt;Node4 -->
<g id="edge3" class="edge">
<title>Node3&#45;&gt;Node4</title>
<path fill="none" stroke="midnightblue" d="M350.95,-275.63C383.11,-296.08 463.6,-342 538,-342 538,-342 538,-342 670.5,-342 757.66,-342 851.18,-289.09 893.02,-262.24"/>
<polygon fill="midnightblue" stroke="midnightblue" points="895.15,-265.03 901.6,-256.63 891.32,-259.17 895.15,-265.03"/>
</g>
<!-- Node5 -->
<g id="node5" class="node">
<title>Node5</title>
<g id="a_node5"><a xlink:href="cJSON_8c.html#a5ba141f183b9abb4b49e38a211299c7e" target="_top" xlink:title=" ">
<polygon fill="white" stroke="black" points="391,-218.5 391,-237.5 462,-237.5 462,-218.5 391,-218.5"/>
<text text-anchor="middle" x="426.5" y="-225.5" font-family="Helvetica,sans-Serif" font-size="10.00">print_value</text>
</a>
</g>
</g>
<!-- Node3&#45;&gt;Node5 -->
<g id="edge4" class="edge">
<title>Node3&#45;&gt;Node5</title>
<path fill="none" stroke="midnightblue" d="M355.37,-257.94C366.52,-253.18 380.91,-247.04 393.75,-241.56"/>
<polygon fill="midnightblue" stroke="midnightblue" points="395.37,-244.67 403.19,-237.52 392.62,-238.23 395.37,-244.67"/>
</g>
<!-- Node7 -->
<g id="node7" class="node">
<title>Node7</title>
<g id="a_node7"><a xlink:href="structinternal__hooks.html#a5dd48d5c2f2b1cf4f6eec5df6205e15c" target="_top" xlink:title=" ">
<polygon fill="white" stroke="black" points="845,-123.5 845,-142.5 988,-142.5 988,-123.5 845,-123.5"/>
<text text-anchor="middle" x="916.5" y="-130.5" font-family="Helvetica,sans-Serif" font-size="10.00">internal_hooks::reallocate</text>
</a>
</g>
</g>
<!-- Node3&#45;&gt;Node7 -->
<g id="edge24" class="edge">
<title>Node3&#45;&gt;Node7</title>
<path fill="none" stroke="midnightblue" d="M338.68,-256.22C350.02,-208.23 406.78,0 538,0 538,0 538,0 670.5,0 766.79,0 861.39,-80.33 898.77,-116.13"/>
<polygon fill="midnightblue" stroke="midnightblue" points="896.65,-118.95 906.24,-123.43 901.54,-113.94 896.65,-118.95"/>
</g>
<!-- Node9 -->
<g id="node9" class="node">
<title>Node9</title>
<g id="a_node9"><a xlink:href="cJSON_8c.html#af5fb173126786c1e3f90b6df6e2500c5" target="_top" xlink:title=" ">
<polygon fill="white" stroke="black" points="628,-256.5 628,-275.5 711,-275.5 711,-256.5 628,-256.5"/>
<text text-anchor="middle" x="669.5" y="-263.5" font-family="Helvetica,sans-Serif" font-size="10.00">update_offset</text>
</a>
</g>
</g>
<!-- Node3&#45;&gt;Node9 -->
<g id="edge25" class="edge">
<title>Node3&#45;&gt;Node9</title>
<path fill="none" stroke="midnightblue" d="M355.17,-269.79C396,-277.57 496.3,-293.88 580,-285 593.95,-283.52 608.93,-280.76 622.52,-277.8"/>
<polygon fill="midnightblue" stroke="midnightblue" points="623.63,-281.14 632.61,-275.51 622.08,-274.31 623.63,-281.14"/>
</g>
<!-- Node6 -->
<g id="node6" class="node">
<title>Node6</title>
<g id="a_node6"><a xlink:href="cJSON_8c.html#a3faa1600bc8001eaed05f16060668ce6" target="_top" xlink:title=" ">
<polygon fill="white" stroke="black" points="759,-180.5 759,-199.5 809,-199.5 809,-180.5 759,-180.5"/>
<text text-anchor="middle" x="784" y="-187.5" font-family="Helvetica,sans-Serif" font-size="10.00">ensure</text>
</a>
</g>
</g>
<!-- Node5&#45;&gt;Node6 -->
<g id="edge5" class="edge">
<title>Node5&#45;&gt;Node6</title>
<path fill="none" stroke="midnightblue" d="M430.7,-218.39C438.52,-196.42 460.73,-142.26 498,-114 541.49,-81.02 561.96,-87.63 616,-80 663.09,-73.35 682.11,-55.72 723,-80 756.06,-99.63 772.07,-144.59 778.82,-170.54"/>
<polygon fill="midnightblue" stroke="midnightblue" points="775.44,-171.46 781.16,-180.38 782.24,-169.84 775.44,-171.46"/>
</g>
<!-- Node8 -->
<g id="node8" class="node">
<title>Node8</title>
<g id="a_node8"><a xlink:href="cJSON_8c.html#ae84642817f3965a85c7c617663250c16" target="_top" xlink:title=" ">
<polygon fill="white" stroke="black" points="504,-256.5 504,-275.5 574,-275.5 574,-256.5 504,-256.5"/>
<text text-anchor="middle" x="539" y="-263.5" font-family="Helvetica,sans-Serif" font-size="10.00">print_array</text>
</a>
</g>
</g>
<!-- Node5&#45;&gt;Node8 -->
<g id="edge8" class="edge">
<title>Node5&#45;&gt;Node8</title>
<path fill="none" stroke="midnightblue" d="M462.16,-233.6C479.19,-238.71 499.26,-245.84 514.48,-252.27"/>
<polygon fill="midnightblue" stroke="midnightblue" points="513.14,-255.5 523.7,-256.37 515.98,-249.11 513.14,-255.5"/>
</g>
<!-- Node10 -->
<g id="node10" class="node">
<title>Node10</title>
<g id="a_node10"><a xlink:href="cJSON_8c.html#ad93d84de08872da0eaa6624be0e74a68" target="_top" xlink:title=" ">
<polygon fill="white" stroke="black" points="498,-123.5 498,-142.5 580,-142.5 580,-123.5 498,-123.5"/>
<text text-anchor="middle" x="539" y="-130.5" font-family="Helvetica,sans-Serif" font-size="10.00">print_number</text>
</a>
</g>
</g>
<!-- Node5&#45;&gt;Node10 -->
<g id="edge12" class="edge">
<title>Node5&#45;&gt;Node10</title>
<path fill="none" stroke="midnightblue" d="M438.91,-218.19C457.87,-201.89 496.04,-169.07 519.08,-149.27"/>
<polygon fill="midnightblue" stroke="midnightblue" points="521.52,-151.79 526.82,-142.61 516.95,-146.48 521.52,-151.79"/>
</g>
<!-- Node13 -->
<g id="node13" class="node">
<title>Node13</title>
<g id="a_node13"><a xlink:href="cJSON_8c.html#a3d742f5c68799bca291432a9cd72f8dd" target="_top" xlink:title=" ">
<polygon fill="white" stroke="black" points="502,-218.5 502,-237.5 576,-237.5 576,-218.5 502,-218.5"/>
<text text-anchor="middle" x="539" y="-225.5" font-family="Helvetica,sans-Serif" font-size="10.00">print_object</text>
</a>
</g>
</g>
<!-- Node5&#45;&gt;Node13 -->
<g id="edge16" class="edge">
<title>Node5&#45;&gt;Node13</title>
<path fill="none" stroke="midnightblue" d="M462.16,-221.69C471.55,-221.27 481.88,-221.15 491.8,-221.33"/>
<polygon fill="midnightblue" stroke="midnightblue" points="491.84,-224.83 501.94,-221.63 492.04,-217.84 491.84,-224.83"/>
</g>
<!-- Node15 -->
<g id="node15" class="node">
<title>Node15</title>
<g id="a_node15"><a xlink:href="cJSON_8c.html#ad087dd738e49b4258f0a3d378a121df6" target="_top" xlink:title=" ">
<polygon fill="white" stroke="black" points="503,-180.5 503,-199.5 575,-199.5 575,-180.5 503,-180.5"/>
<text text-anchor="middle" x="539" y="-187.5" font-family="Helvetica,sans-Serif" font-size="10.00">print_string</text>
</a>
</g>
</g>
<!-- Node5&#45;&gt;Node15 -->
<g id="edge22" class="edge">
<title>Node5&#45;&gt;Node15</title>
<path fill="none" stroke="midnightblue" d="M455.38,-218.41C468.99,-213.73 485.57,-208.03 500.29,-202.97"/>
<polygon fill="midnightblue" stroke="midnightblue" points="501.81,-206.15 510.13,-199.59 499.53,-199.53 501.81,-206.15"/>
</g>
<!-- Node6&#45;&gt;Node4 -->
<g id="edge6" class="edge">
<title>Node6&#45;&gt;Node4</title>
<path fill="none" stroke="midnightblue" d="M806.84,-199.54C828.02,-208.79 860.35,-222.91 884.24,-233.35"/>
<polygon fill="midnightblue" stroke="midnightblue" points="883.02,-236.63 893.59,-237.43 885.82,-230.22 883.02,-236.63"/>
</g>
<!-- Node6&#45;&gt;Node7 -->
<g id="edge7" class="edge">
<title>Node6&#45;&gt;Node7</title>
<path fill="none" stroke="midnightblue" d="M806.84,-180.46C828.02,-171.21 860.35,-157.09 884.24,-146.65"/>
<polygon fill="midnightblue" stroke="midnightblue" points="885.82,-149.78 893.59,-142.57 883.02,-143.37 885.82,-149.78"/>
</g>
<!-- Node8&#45;&gt;Node5 -->
<g id="edge10" class="edge">
<title>Node8&#45;&gt;Node5</title>
<path fill="none" stroke="midnightblue" d="M503.56,-260.46C486.55,-255.37 466.46,-248.25 451.2,-241.81"/>
<polygon fill="midnightblue" stroke="midnightblue" points="452.51,-238.56 441.95,-237.7 449.67,-244.96 452.51,-238.56"/>
</g>
<!-- Node8&#45;&gt;Node6 -->
<g id="edge9" class="edge">
<title>Node8&#45;&gt;Node6</title>
<path fill="none" stroke="midnightblue" d="M561.03,-275.56C596.76,-290.28 670.55,-313.91 723,-285 752.2,-268.9 769.16,-231.95 777.2,-209.17"/>
<polygon fill="midnightblue" stroke="midnightblue" points="780.56,-210.14 780.37,-199.55 773.92,-207.95 780.56,-210.14"/>
</g>
<!-- Node8&#45;&gt;Node9 -->
<g id="edge11" class="edge">
<title>Node8&#45;&gt;Node9</title>
<path fill="none" stroke="midnightblue" d="M574.1,-266C587.38,-266 602.89,-266 617.45,-266"/>
<polygon fill="midnightblue" stroke="midnightblue" points="617.84,-269.5 627.84,-266 617.84,-262.5 617.84,-269.5"/>
</g>
<!-- Node10&#45;&gt;Node6 -->
<g id="edge14" class="edge">
<title>Node10&#45;&gt;Node6</title>
<path fill="none" stroke="midnightblue" d="M555.26,-123.26C588.03,-103.68 666.73,-63.99 723,-95 752.2,-111.1 769.16,-148.05 777.2,-170.83"/>
<polygon fill="midnightblue" stroke="midnightblue" points="773.92,-172.05 780.37,-180.45 780.56,-169.86 773.92,-172.05"/>
</g>
<!-- Node11 -->
<g id="node11" class="node">
<title>Node11</title>
<g id="a_node11"><a xlink:href="cJSON_8c.html#aa7a85b63f1830e7e666e1f56872d5d3e" target="_top" xlink:title=" ">
<polygon fill="white" stroke="black" points="620.5,-142.5 620.5,-161.5 718.5,-161.5 718.5,-142.5 620.5,-142.5"/>
<text text-anchor="middle" x="669.5" y="-149.5" font-family="Helvetica,sans-Serif" font-size="10.00">compare_double</text>
</a>
</g>
</g>
<!-- Node10&#45;&gt;Node11 -->
<g id="edge13" class="edge">
<title>Node10&#45;&gt;Node11</title>
<path fill="none" stroke="midnightblue" d="M580.31,-138.96C589.8,-140.36 600.11,-141.89 610.22,-143.38"/>
<polygon fill="midnightblue" stroke="midnightblue" points="609.82,-146.86 620.23,-144.86 610.85,-139.94 609.82,-146.86"/>
</g>
<!-- Node12 -->
<g id="node12" class="node">
<title>Node12</title>
<g id="a_node12"><a xlink:href="cJSON_8c.html#ab25412ae56c8c594831918169bea100d" target="_top" xlink:title=" ">
<polygon fill="white" stroke="black" points="616,-104.5 616,-123.5 723,-123.5 723,-104.5 616,-104.5"/>
<text text-anchor="middle" x="669.5" y="-111.5" font-family="Helvetica,sans-Serif" font-size="10.00">get_decimal_point</text>
</a>
</g>
</g>
<!-- Node10&#45;&gt;Node12 -->
<g id="edge15" class="edge">
<title>Node10&#45;&gt;Node12</title>
<path fill="none" stroke="midnightblue" d="M580.31,-127.04C588.35,-125.85 596.97,-124.58 605.57,-123.31"/>
<polygon fill="midnightblue" stroke="midnightblue" points="606.22,-126.75 615.6,-121.82 605.2,-119.82 606.22,-126.75"/>
</g>
<!-- Node13&#45;&gt;Node5 -->
<g id="edge20" class="edge">
<title>Node13&#45;&gt;Node5</title>
<path fill="none" stroke="midnightblue" d="M501.94,-234.37C492.45,-234.76 482.11,-234.85 472.23,-234.64"/>
<polygon fill="midnightblue" stroke="midnightblue" points="472.27,-231.14 462.16,-234.31 472.04,-238.14 472.27,-231.14"/>
</g>
<!-- Node13&#45;&gt;Node6 -->
<g id="edge17" class="edge">
<title>Node13&#45;&gt;Node6</title>
<path fill="none" stroke="midnightblue" d="M576.1,-226.42C613.25,-224.29 672.65,-219.47 723,-209 731.61,-207.21 740.74,-204.67 749.21,-202.02"/>
<polygon fill="midnightblue" stroke="midnightblue" points="750.35,-205.33 758.78,-198.91 748.18,-198.67 750.35,-205.33"/>
</g>
<!-- Node13&#45;&gt;Node9 -->
<g id="edge21" class="edge">
<title>Node13&#45;&gt;Node9</title>
<path fill="none" stroke="midnightblue" d="M572.43,-237.59C588.71,-242.4 608.64,-248.3 626.12,-253.47"/>
<polygon fill="midnightblue" stroke="midnightblue" points="625.5,-256.93 636.08,-256.41 627.49,-250.22 625.5,-256.93"/>
</g>
<!-- Node14 -->
<g id="node14" class="node">
<title>Node14</title>
<g id="a_node14"><a xlink:href="cJSON_8c.html#af5b4e769356f10d99a7f66697c42c1bb" target="_top" xlink:title=" ">
<polygon fill="white" stroke="black" points="624,-180.5 624,-199.5 715,-199.5 715,-180.5 624,-180.5"/>
<text text-anchor="middle" x="669.5" y="-187.5" font-family="Helvetica,sans-Serif" font-size="10.00">print_string_ptr</text>
</a>
</g>
</g>
<!-- Node13&#45;&gt;Node14 -->
<g id="edge18" class="edge">
<title>Node13&#45;&gt;Node14</title>
<path fill="none" stroke="midnightblue" d="M572.43,-218.41C588.71,-213.6 608.64,-207.7 626.12,-202.53"/>
<polygon fill="midnightblue" stroke="midnightblue" points="627.49,-205.78 636.08,-199.59 625.5,-199.07 627.49,-205.78"/>
</g>
<!-- Node14&#45;&gt;Node6 -->
<g id="edge19" class="edge">
<title>Node14&#45;&gt;Node6</title>
<path fill="none" stroke="midnightblue" d="M715.29,-190C726.41,-190 738.15,-190 748.68,-190"/>
<polygon fill="midnightblue" stroke="midnightblue" points="748.74,-193.5 758.74,-190 748.74,-186.5 748.74,-193.5"/>
</g>
<!-- Node15&#45;&gt;Node14 -->
<g id="edge23" class="edge">
<title>Node15&#45;&gt;Node14</title>
<path fill="none" stroke="midnightblue" d="M575.11,-190C586.96,-190 600.48,-190 613.48,-190"/>
<polygon fill="midnightblue" stroke="midnightblue" points="613.76,-193.5 623.76,-190 613.76,-186.5 613.76,-193.5"/>
</g>
</g>
</svg>
