<?xml version="1.0" encoding="UTF-8" standalone="no"?>
<!DOCTYPE svg PUBLIC "-//W3C//DTD SVG 1.1//EN"
 "http://www.w3.org/Graphics/SVG/1.1/DTD/svg11.dtd">
<!-- Generated by graphviz version 2.43.0 (0)
 -->
<!-- Title: Timings.analyze_timing_data Pages: 1 -->
<svg width="877pt" height="350pt"
 viewBox="0.00 0.00 877.00 350.00" xmlns="http://www.w3.org/2000/svg" xmlns:xlink="http://www.w3.org/1999/xlink">
<g id="graph0" class="graph" transform="scale(1 1) rotate(0) translate(4 346)">
<title>Timings.analyze_timing_data</title>
<polygon fill="white" stroke="transparent" points="-4,4 -4,-346 873,-346 873,4 -4,4"/>
<!-- Node1 -->
<g id="node1" class="node">
<title>Node1</title>
<g id="a_node1"><a xlink:title=" ">
<polygon fill="#bfbfbf" stroke="black" points="0,-256.5 0,-275.5 161,-275.5 161,-256.5 0,-256.5"/>
<text text-anchor="middle" x="80.5" y="-263.5" font-family="Helvetica,sans-Serif" font-size="10.00">Timings.analyze_timing_data</text>
</a>
</g>
</g>
<!-- Node2 -->
<g id="node2" class="node">
<title>Node2</title>
<g id="a_node2"><a xlink:href="cJSON_8c.html#ae71e2aec89bf140e6430cb7d5ca417c5" target="_top" xlink:title=" ">
<polygon fill="white" stroke="black" points="197,-256.5 197,-275.5 236,-275.5 236,-256.5 197,-256.5"/>
<text text-anchor="middle" x="216.5" y="-263.5" font-family="Helvetica,sans-Serif" font-size="10.00">print</text>
</a>
</g>
</g>
<!-- Node1&#45;&gt;Node2 -->
<g id="edge1" class="edge">
<title>Node1&#45;&gt;Node2</title>
<path fill="none" stroke="midnightblue" d="M161.38,-266C170.37,-266 179.04,-266 186.71,-266"/>
<polygon fill="midnightblue" stroke="midnightblue" points="186.81,-269.5 196.81,-266 186.81,-262.5 186.81,-269.5"/>
</g>
<!-- Node3 -->
<g id="node3" class="node">
<title>Node3</title>
<g id="a_node3"><a xlink:href="structinternal__hooks.html#a872a0c28217b451331d24b8e0484b293" target="_top" xlink:title=" ">
<polygon fill="white" stroke="black" points="730.5,-237.5 730.5,-256.5 864.5,-256.5 864.5,-237.5 730.5,-237.5"/>
<text text-anchor="middle" x="797.5" y="-244.5" font-family="Helvetica,sans-Serif" font-size="10.00">internal_hooks::allocate</text>
</a>
</g>
</g>
<!-- Node2&#45;&gt;Node3 -->
<g id="edge2" class="edge">
<title>Node2&#45;&gt;Node3</title>
<path fill="none" stroke="midnightblue" d="M231.95,-275.63C264.11,-296.08 344.6,-342 419,-342 419,-342 419,-342 551.5,-342 638.66,-342 732.18,-289.09 774.02,-262.24"/>
<polygon fill="midnightblue" stroke="midnightblue" points="776.15,-265.03 782.6,-256.63 772.32,-259.17 776.15,-265.03"/>
</g>
<!-- Node4 -->
<g id="node4" class="node">
<title>Node4</title>
<g id="a_node4"><a xlink:href="cJSON_8c.html#a5ba141f183b9abb4b49e38a211299c7e" target="_top" xlink:title=" ">
<polygon fill="white" stroke="black" points="272,-218.5 272,-237.5 343,-237.5 343,-218.5 272,-218.5"/>
<text text-anchor="middle" x="307.5" y="-225.5" font-family="Helvetica,sans-Serif" font-size="10.00">print_value</text>
</a>
</g>
</g>
<!-- Node2&#45;&gt;Node4 -->
<g id="edge3" class="edge">
<title>Node2&#45;&gt;Node4</title>
<path fill="none" stroke="midnightblue" d="M236.37,-257.94C247.52,-253.18 261.91,-247.04 274.75,-241.56"/>
<polygon fill="midnightblue" stroke="midnightblue" points="276.37,-244.67 284.19,-237.52 273.62,-238.23 276.37,-244.67"/>
</g>
<!-- Node6 -->
<g id="node6" class="node">
<title>Node6</title>
<g id="a_node6"><a xlink:href="structinternal__hooks.html#a5dd48d5c2f2b1cf4f6eec5df6205e15c" target="_top" xlink:title=" ">
<polygon fill="white" stroke="black" points="726,-123.5 726,-142.5 869,-142.5 869,-123.5 726,-123.5"/>
<text text-anchor="middle" x="797.5" y="-130.5" font-family="Helvetica,sans-Serif" font-size="10.00">internal_hooks::reallocate</text>
</a>
</g>
</g>
<!-- Node2&#45;&gt;Node6 -->
<g id="edge23" class="edge">
<title>Node2&#45;&gt;Node6</title>
<path fill="none" stroke="midnightblue" d="M219.68,-256.22C231.02,-208.23 287.78,0 419,0 419,0 419,0 551.5,0 647.79,0 742.39,-80.33 779.77,-116.13"/>
<polygon fill="midnightblue" stroke="midnightblue" points="777.65,-118.95 787.24,-123.43 782.54,-113.94 777.65,-118.95"/>
</g>
<!-- Node8 -->
<g id="node8" class="node">
<title>Node8</title>
<g id="a_node8"><a xlink:href="cJSON_8c.html#af5fb173126786c1e3f90b6df6e2500c5" target="_top" xlink:title=" ">
<polygon fill="white" stroke="black" points="509,-256.5 509,-275.5 592,-275.5 592,-256.5 509,-256.5"/>
<text text-anchor="middle" x="550.5" y="-263.5" font-family="Helvetica,sans-Serif" font-size="10.00">update_offset</text>
</a>
</g>
</g>
<!-- Node2&#45;&gt;Node8 -->
<g id="edge24" class="edge">
<title>Node2&#45;&gt;Node8</title>
<path fill="none" stroke="midnightblue" d="M236.17,-269.79C277,-277.57 377.3,-293.88 461,-285 474.95,-283.52 489.93,-280.76 503.52,-277.8"/>
<polygon fill="midnightblue" stroke="midnightblue" points="504.63,-281.14 513.61,-275.51 503.08,-274.31 504.63,-281.14"/>
</g>
<!-- Node5 -->
<g id="node5" class="node">
<title>Node5</title>
<g id="a_node5"><a xlink:href="cJSON_8c.html#a3faa1600bc8001eaed05f16060668ce6" target="_top" xlink:title=" ">
<polygon fill="white" stroke="black" points="640,-180.5 640,-199.5 690,-199.5 690,-180.5 640,-180.5"/>
<text text-anchor="middle" x="665" y="-187.5" font-family="Helvetica,sans-Serif" font-size="10.00">ensure</text>
</a>
</g>
</g>
<!-- Node4&#45;&gt;Node5 -->
<g id="edge4" class="edge">
<title>Node4&#45;&gt;Node5</title>
<path fill="none" stroke="midnightblue" d="M311.72,-218.41C319.57,-196.48 341.84,-142.41 379,-114 422.46,-80.78 442.86,-86.86 497,-79 544.06,-72.17 563.15,-54.65 604,-79 637.26,-98.83 653.19,-144.19 659.87,-170.37"/>
<polygon fill="midnightblue" stroke="midnightblue" points="656.51,-171.35 662.19,-180.29 663.32,-169.76 656.51,-171.35"/>
</g>
<!-- Node7 -->
<g id="node7" class="node">
<title>Node7</title>
<g id="a_node7"><a xlink:href="cJSON_8c.html#ae84642817f3965a85c7c617663250c16" target="_top" xlink:title=" ">
<polygon fill="white" stroke="black" points="385,-256.5 385,-275.5 455,-275.5 455,-256.5 385,-256.5"/>
<text text-anchor="middle" x="420" y="-263.5" font-family="Helvetica,sans-Serif" font-size="10.00">print_array</text>
</a>
</g>
</g>
<!-- Node4&#45;&gt;Node7 -->
<g id="edge7" class="edge">
<title>Node4&#45;&gt;Node7</title>
<path fill="none" stroke="midnightblue" d="M343.16,-233.6C360.19,-238.71 380.26,-245.84 395.48,-252.27"/>
<polygon fill="midnightblue" stroke="midnightblue" points="394.14,-255.5 404.7,-256.37 396.98,-249.11 394.14,-255.5"/>
</g>
<!-- Node9 -->
<g id="node9" class="node">
<title>Node9</title>
<g id="a_node9"><a xlink:href="cJSON_8c.html#ad93d84de08872da0eaa6624be0e74a68" target="_top" xlink:title=" ">
<polygon fill="white" stroke="black" points="379,-123.5 379,-142.5 461,-142.5 461,-123.5 379,-123.5"/>
<text text-anchor="middle" x="420" y="-130.5" font-family="Helvetica,sans-Serif" font-size="10.00">print_number</text>
</a>
</g>
</g>
<!-- Node4&#45;&gt;Node9 -->
<g id="edge11" class="edge">
<title>Node4&#45;&gt;Node9</title>
<path fill="none" stroke="midnightblue" d="M319.91,-218.19C338.87,-201.89 377.04,-169.07 400.08,-149.27"/>
<polygon fill="midnightblue" stroke="midnightblue" points="402.52,-151.79 407.82,-142.61 397.95,-146.48 402.52,-151.79"/>
</g>
<!-- Node12 -->
<g id="node12" class="node">
<title>Node12</title>
<g id="a_node12"><a xlink:href="cJSON_8c.html#a3d742f5c68799bca291432a9cd72f8dd" target="_top" xlink:title=" ">
<polygon fill="white" stroke="black" points="383,-218.5 383,-237.5 457,-237.5 457,-218.5 383,-218.5"/>
<text text-anchor="middle" x="420" y="-225.5" font-family="Helvetica,sans-Serif" font-size="10.00">print_object</text>
</a>
</g>
</g>
<!-- Node4&#45;&gt;Node12 -->
<g id="edge15" class="edge">
<title>Node4&#45;&gt;Node12</title>
<path fill="none" stroke="midnightblue" d="M343.16,-221.69C352.55,-221.27 362.88,-221.15 372.8,-221.33"/>
<polygon fill="midnightblue" stroke="midnightblue" points="372.84,-224.83 382.94,-221.63 373.04,-217.84 372.84,-224.83"/>
</g>
<!-- Node14 -->
<g id="node14" class="node">
<title>Node14</title>
<g id="a_node14"><a xlink:href="cJSON_8c.html#ad087dd738e49b4258f0a3d378a121df6" target="_top" xlink:title=" ">
<polygon fill="white" stroke="black" points="384,-180.5 384,-199.5 456,-199.5 456,-180.5 384,-180.5"/>
<text text-anchor="middle" x="420" y="-187.5" font-family="Helvetica,sans-Serif" font-size="10.00">print_string</text>
</a>
</g>
</g>
<!-- Node4&#45;&gt;Node14 -->
<g id="edge21" class="edge">
<title>Node4&#45;&gt;Node14</title>
<path fill="none" stroke="midnightblue" d="M336.38,-218.41C349.99,-213.73 366.57,-208.03 381.29,-202.97"/>
<polygon fill="midnightblue" stroke="midnightblue" points="382.81,-206.15 391.13,-199.59 380.53,-199.53 382.81,-206.15"/>
</g>
<!-- Node5&#45;&gt;Node3 -->
<g id="edge5" class="edge">
<title>Node5&#45;&gt;Node3</title>
<path fill="none" stroke="midnightblue" d="M687.84,-199.54C709.02,-208.79 741.35,-222.91 765.24,-233.35"/>
<polygon fill="midnightblue" stroke="midnightblue" points="764.02,-236.63 774.59,-237.43 766.82,-230.22 764.02,-236.63"/>
</g>
<!-- Node5&#45;&gt;Node6 -->
<g id="edge6" class="edge">
<title>Node5&#45;&gt;Node6</title>
<path fill="none" stroke="midnightblue" d="M687.84,-180.46C709.02,-171.21 741.35,-157.09 765.24,-146.65"/>
<polygon fill="midnightblue" stroke="midnightblue" points="766.82,-149.78 774.59,-142.57 764.02,-143.37 766.82,-149.78"/>
</g>
<!-- Node7&#45;&gt;Node4 -->
<g id="edge9" class="edge">
<title>Node7&#45;&gt;Node4</title>
<path fill="none" stroke="midnightblue" d="M384.56,-260.46C367.55,-255.37 347.46,-248.25 332.2,-241.81"/>
<polygon fill="midnightblue" stroke="midnightblue" points="333.51,-238.56 322.95,-237.7 330.67,-244.96 333.51,-238.56"/>
</g>
<!-- Node7&#45;&gt;Node5 -->
<g id="edge8" class="edge">
<title>Node7&#45;&gt;Node5</title>
<path fill="none" stroke="midnightblue" d="M442.03,-275.56C477.76,-290.28 551.55,-313.91 604,-285 633.2,-268.9 650.16,-231.95 658.2,-209.17"/>
<polygon fill="midnightblue" stroke="midnightblue" points="661.56,-210.14 661.37,-199.55 654.92,-207.95 661.56,-210.14"/>
</g>
<!-- Node7&#45;&gt;Node8 -->
<g id="edge10" class="edge">
<title>Node7&#45;&gt;Node8</title>
<path fill="none" stroke="midnightblue" d="M455.1,-266C468.38,-266 483.89,-266 498.45,-266"/>
<polygon fill="midnightblue" stroke="midnightblue" points="498.84,-269.5 508.84,-266 498.84,-262.5 498.84,-269.5"/>
</g>
<!-- Node9&#45;&gt;Node5 -->
<g id="edge13" class="edge">
<title>Node9&#45;&gt;Node5</title>
<path fill="none" stroke="midnightblue" d="M436.26,-123.26C469.03,-103.68 547.73,-63.99 604,-95 633.2,-111.1 650.16,-148.05 658.2,-170.83"/>
<polygon fill="midnightblue" stroke="midnightblue" points="654.92,-172.05 661.37,-180.45 661.56,-169.86 654.92,-172.05"/>
</g>
<!-- Node10 -->
<g id="node10" class="node">
<title>Node10</title>
<g id="a_node10"><a xlink:href="cJSON_8c.html#aa7a85b63f1830e7e666e1f56872d5d3e" target="_top" xlink:title=" ">
<polygon fill="white" stroke="black" points="501.5,-142.5 501.5,-161.5 599.5,-161.5 599.5,-142.5 501.5,-142.5"/>
<text text-anchor="middle" x="550.5" y="-149.5" font-family="Helvetica,sans-Serif" font-size="10.00">compare_double</text>
</a>
</g>
</g>
<!-- Node9&#45;&gt;Node10 -->
<g id="edge12" class="edge">
<title>Node9&#45;&gt;Node10</title>
<path fill="none" stroke="midnightblue" d="M461.31,-138.96C470.8,-140.36 481.11,-141.89 491.22,-143.38"/>
<polygon fill="midnightblue" stroke="midnightblue" points="490.82,-146.86 501.23,-144.86 491.85,-139.94 490.82,-146.86"/>
</g>
<!-- Node11 -->
<g id="node11" class="node">
<title>Node11</title>
<g id="a_node11"><a xlink:href="cJSON_8c.html#ab25412ae56c8c594831918169bea100d" target="_top" xlink:title=" ">
<polygon fill="white" stroke="black" points="497,-104.5 497,-123.5 604,-123.5 604,-104.5 497,-104.5"/>
<text text-anchor="middle" x="550.5" y="-111.5" font-family="Helvetica,sans-Serif" font-size="10.00">get_decimal_point</text>
</a>
</g>
</g>
<!-- Node9&#45;&gt;Node11 -->
<g id="edge14" class="edge">
<title>Node9&#45;&gt;Node11</title>
<path fill="none" stroke="midnightblue" d="M461.31,-127.04C469.35,-125.85 477.97,-124.58 486.57,-123.31"/>
<polygon fill="midnightblue" stroke="midnightblue" points="487.22,-126.75 496.6,-121.82 486.2,-119.82 487.22,-126.75"/>
</g>
<!-- Node12&#45;&gt;Node4 -->
<g id="edge19" class="edge">
<title>Node12&#45;&gt;Node4</title>
<path fill="none" stroke="midnightblue" d="M382.94,-234.37C373.45,-234.76 363.11,-234.85 353.23,-234.64"/>
<polygon fill="midnightblue" stroke="midnightblue" points="353.27,-231.14 343.16,-234.31 353.04,-238.14 353.27,-231.14"/>
</g>
<!-- Node12&#45;&gt;Node5 -->
<g id="edge16" class="edge">
<title>Node12&#45;&gt;Node5</title>
<path fill="none" stroke="midnightblue" d="M457.1,-226.42C494.25,-224.29 553.65,-219.47 604,-209 612.61,-207.21 621.74,-204.67 630.21,-202.02"/>
<polygon fill="midnightblue" stroke="midnightblue" points="631.35,-205.33 639.78,-198.91 629.18,-198.67 631.35,-205.33"/>
</g>
<!-- Node12&#45;&gt;Node8 -->
<g id="edge20" class="edge">
<title>Node12&#45;&gt;Node8</title>
<path fill="none" stroke="midnightblue" d="M453.43,-237.59C469.71,-242.4 489.64,-248.3 507.12,-253.47"/>
<polygon fill="midnightblue" stroke="midnightblue" points="506.5,-256.93 517.08,-256.41 508.49,-250.22 506.5,-256.93"/>
</g>
<!-- Node13 -->
<g id="node13" class="node">
<title>Node13</title>
<g id="a_node13"><a xlink:href="cJSON_8c.html#af5b4e769356f10d99a7f66697c42c1bb" target="_top" xlink:title=" ">
<polygon fill="white" stroke="black" points="505,-180.5 505,-199.5 596,-199.5 596,-180.5 505,-180.5"/>
<text text-anchor="middle" x="550.5" y="-187.5" font-family="Helvetica,sans-Serif" font-size="10.00">print_string_ptr</text>
</a>
</g>
</g>
<!-- Node12&#45;&gt;Node13 -->
<g id="edge17" class="edge">
<title>Node12&#45;&gt;Node13</title>
<path fill="none" stroke="midnightblue" d="M453.43,-218.41C469.71,-213.6 489.64,-207.7 507.12,-202.53"/>
<polygon fill="midnightblue" stroke="midnightblue" points="508.49,-205.78 517.08,-199.59 506.5,-199.07 508.49,-205.78"/>
</g>
<!-- Node13&#45;&gt;Node5 -->
<g id="edge18" class="edge">
<title>Node13&#45;&gt;Node5</title>
<path fill="none" stroke="midnightblue" d="M596.29,-190C607.41,-190 619.15,-190 629.68,-190"/>
<polygon fill="midnightblue" stroke="midnightblue" points="629.74,-193.5 639.74,-190 629.74,-186.5 629.74,-193.5"/>
</g>
<!-- Node14&#45;&gt;Node13 -->
<g id="edge22" class="edge">
<title>Node14&#45;&gt;Node13</title>
<path fill="none" stroke="midnightblue" d="M456.11,-190C467.96,-190 481.48,-190 494.48,-190"/>
<polygon fill="midnightblue" stroke="midnightblue" points="494.76,-193.5 504.76,-190 494.76,-186.5 494.76,-193.5"/>
</g>
</g>
</svg>
