<?xml version="1.0" encoding="UTF-8" standalone="no"?>
<!DOCTYPE svg PUBLIC "-//W3C//DTD SVG 1.1//EN"
 "http://www.w3.org/Graphics/SVG/1.1/DTD/svg11.dtd">
<!-- Generated by graphviz version 2.43.0 (0)
 -->
<!-- Title: Timings.main Pages: 1 -->
<svg width="996pt" height="348pt"
 viewBox="0.00 0.00 996.00 348.00" xmlns="http://www.w3.org/2000/svg" xmlns:xlink="http://www.w3.org/1999/xlink">
<g id="graph0" class="graph" transform="scale(1 1) rotate(0) translate(4 344)">
<title>Timings.main</title>
<!-- Node1 -->
<g id="Node000001" class="node">
<title>Node1</title>
<g id="a_Node000001"><a xlink:title=" ">
<polygon fill="#999999" stroke="#666666" points="83,-271.5 0,-271.5 0,-252.5 83,-252.5 83,-271.5"/>
<text text-anchor="middle" x="41.5" y="-259.5" font-family="Helvetica,sans-Serif" font-size="10.00">Timings.main</text>
</a>
</g>
</g>
<!-- Node1&#45;&gt;Node1 -->
<g id="edge26_Node000001_Node000001" class="edge">
<title>Node1&#45;&gt;Node1</title>
<g id="a_edge26_Node000001_Node000001"><a xlink:title=" ">
<path fill="none" stroke="#63b8ff" d="M17.15,-271.58C5.3,-280.23 13.42,-289.5 41.5,-289.5 59.93,-289.5 69.76,-285.51 70.99,-280.32"/>
<polygon fill="#63b8ff" stroke="#63b8ff" points="73.94,-278.43 65.85,-271.58 67.91,-281.98 73.94,-278.43"/>
</a>
</g>
</g>
<!-- Node2 -->
<g id="Node000002" class="node">
<title>Node2</title>
<g id="a_Node000002"><a xlink:href="namespaceTimings.html#aadf2661fed15eeec1d5ca92e8125726e" target="_top" xlink:title=" ">
<polygon fill="white" stroke="#666666" points="280,-290.5 119,-290.5 119,-271.5 280,-271.5 280,-290.5"/>
<text text-anchor="middle" x="199.5" y="-278.5" font-family="Helvetica,sans-Serif" font-size="10.00">Timings.analyze_timing_data</text>
</a>
</g>
</g>
<!-- Node1&#45;&gt;Node2 -->
<g id="edge1_Node000001_Node000002" class="edge">
<title>Node1&#45;&gt;Node2</title>
<g id="a_edge1_Node000001_Node000002"><a xlink:title=" ">
<path fill="none" stroke="#63b8ff" d="M83.08,-266.94C91.59,-267.98 100.88,-269.11 110.37,-270.27"/>
<polygon fill="#63b8ff" stroke="#63b8ff" points="109.96,-273.74 120.31,-271.48 110.81,-266.79 109.96,-273.74"/>
</a>
</g>
</g>
<!-- Node3 -->
<g id="Node000003" class="node">
<title>Node3</title>
<g id="a_Node000003"><a xlink:href="cJSON_8c.html#a36b0c212c0d382a4714afa8b70c1a2ee" target="_top" xlink:title=" ">
<polygon fill="white" stroke="#666666" points="355,-271.5 316,-271.5 316,-252.5 355,-252.5 355,-271.5"/>
<text text-anchor="middle" x="335.5" y="-259.5" font-family="Helvetica,sans-Serif" font-size="10.00">print</text>
</a>
</g>
</g>
<!-- Node1&#45;&gt;Node3 -->
<g id="edge27_Node000001_Node000003" class="edge">
<title>Node1&#45;&gt;Node3</title>
<g id="a_edge27_Node000001_Node000003"><a xlink:title=" ">
<path fill="none" stroke="#63b8ff" d="M83.1,-262C142.94,-262 253.35,-262 305.62,-262"/>
<polygon fill="#63b8ff" stroke="#63b8ff" points="305.85,-265.5 315.85,-262 305.85,-258.5 305.85,-265.5"/>
</a>
</g>
</g>
<!-- Node2&#45;&gt;Node3 -->
<g id="edge2_Node000002_Node000003" class="edge">
<title>Node2&#45;&gt;Node3</title>
<g id="a_edge2_Node000002_Node000003"><a xlink:title=" ">
<path fill="none" stroke="#63b8ff" d="M267.89,-271.44C281.33,-269.54 294.74,-267.64 305.97,-266.05"/>
<polygon fill="#63b8ff" stroke="#63b8ff" points="306.59,-269.49 316,-264.62 305.61,-262.56 306.59,-269.49"/>
</a>
</g>
</g>
<!-- Node4 -->
<g id="Node000004" class="node">
<title>Node4</title>
<g id="a_Node000004"><a xlink:href="structinternal__hooks.html#a8b8f7ff45faa5da18dd3ccd2a2c8e416" target="_top" xlink:title=" ">
<polygon fill="white" stroke="#666666" points="983.5,-253.5 849.5,-253.5 849.5,-234.5 983.5,-234.5 983.5,-253.5"/>
<text text-anchor="middle" x="916.5" y="-241.5" font-family="Helvetica,sans-Serif" font-size="10.00">internal_hooks::allocate</text>
</a>
</g>
</g>
<!-- Node3&#45;&gt;Node4 -->
<g id="edge3_Node000003_Node000004" class="edge">
<title>Node3&#45;&gt;Node4</title>
<g id="a_edge3_Node000003_Node000004"><a xlink:title=" ">
<path fill="none" stroke="#63b8ff" d="M350.44,-271.56C382.19,-292.39 462.98,-340 538,-340 538,-340 538,-340 670.5,-340 757.99,-340 851.69,-286.27 893.35,-259.2"/>
<polygon fill="#63b8ff" stroke="#63b8ff" points="895.48,-261.99 901.88,-253.56 891.61,-256.16 895.48,-261.99"/>
</a>
</g>
</g>
<!-- Node5 -->
<g id="Node000005" class="node">
<title>Node5</title>
<g id="a_Node000005"><a xlink:href="cJSON_8c.html#a5ba141f183b9abb4b49e38a211299c7e" target="_top" xlink:title=" ">
<polygon fill="white" stroke="#666666" points="462,-234.5 391,-234.5 391,-215.5 462,-215.5 462,-234.5"/>
<text text-anchor="middle" x="426.5" y="-222.5" font-family="Helvetica,sans-Serif" font-size="10.00">print_value</text>
</a>
</g>
</g>
<!-- Node3&#45;&gt;Node5 -->
<g id="edge4_Node000003_Node000005" class="edge">
<title>Node3&#45;&gt;Node5</title>
<g id="a_edge4_Node000003_Node000005"><a xlink:title=" ">
<path fill="none" stroke="#63b8ff" d="M355.37,-254.15C366.35,-249.59 380.49,-243.71 393.19,-238.43"/>
<polygon fill="#63b8ff" stroke="#63b8ff" points="394.65,-241.61 402.54,-234.54 391.97,-235.15 394.65,-241.61"/>
</a>
</g>
</g>
<!-- Node7 -->
<g id="Node000007" class="node">
<title>Node7</title>
<g id="a_Node000007"><a xlink:href="structinternal__hooks.html#a7c3921493fab83f33cd509145d8a5393" target="_top" xlink:title=" ">
<polygon fill="white" stroke="#666666" points="988,-141.5 845,-141.5 845,-122.5 988,-122.5 988,-141.5"/>
<text text-anchor="middle" x="916.5" y="-129.5" font-family="Helvetica,sans-Serif" font-size="10.00">internal_hooks::reallocate</text>
</a>
</g>
</g>
<!-- Node3&#45;&gt;Node7 -->
<g id="edge24_Node000003_Node000007" class="edge">
<title>Node3&#45;&gt;Node7</title>
<g id="a_edge24_Node000003_Node000007"><a xlink:title=" ">
<path fill="none" stroke="#63b8ff" d="M338.73,-252.36C350.31,-205.1 408.03,0 538,0 538,0 538,0 670.5,0 766.18,0 860.43,-78.98 898.22,-114.76"/>
<polygon fill="#63b8ff" stroke="#63b8ff" points="896.17,-117.65 905.8,-122.08 901.04,-112.61 896.17,-117.65"/>
</a>
</g>
</g>
<!-- Node9 -->
<g id="Node000009" class="node">
<title>Node9</title>
<g id="a_Node000009"><a xlink:href="cJSON_8c.html#af5fb173126786c1e3f90b6df6e2500c5" target="_top" xlink:title=" ">
<polygon fill="white" stroke="#666666" points="711,-273.5 628,-273.5 628,-254.5 711,-254.5 711,-273.5"/>
<text text-anchor="middle" x="669.5" y="-261.5" font-family="Helvetica,sans-Serif" font-size="10.00">update_offset</text>
</a>
</g>
</g>
<!-- Node3&#45;&gt;Node9 -->
<g id="edge25_Node000003_Node000009" class="edge">
<title>Node3&#45;&gt;Node9</title>
<g id="a_edge25_Node000003_Node000009"><a xlink:title=" ">
<path fill="none" stroke="#63b8ff" d="M355.15,-265.65C395.96,-273.16 496.21,-288.97 580,-281 592.29,-279.83 605.41,-277.77 617.68,-275.47"/>
<polygon fill="#63b8ff" stroke="#63b8ff" points="618.61,-278.86 627.76,-273.5 617.27,-271.99 618.61,-278.86"/>
</a>
</g>
</g>
<!-- Node6 -->
<g id="Node000006" class="node">
<title>Node6</title>
<g id="a_Node000006"><a xlink:href="cJSON_8c.html#ad9f9a9b2ad3154fc8033756f23c023a6" target="_top" xlink:title=" ">
<polygon fill="white" stroke="#666666" points="809,-197.5 759,-197.5 759,-178.5 809,-178.5 809,-197.5"/>
<text text-anchor="middle" x="784" y="-185.5" font-family="Helvetica,sans-Serif" font-size="10.00">ensure</text>
</a>
</g>
</g>
<!-- Node5&#45;&gt;Node6 -->
<g id="edge5_Node000005_Node000006" class="edge">
<title>Node5&#45;&gt;Node6</title>
<g id="a_edge5_Node000005_Node000006"><a xlink:title=" ">
<path fill="none" stroke="#63b8ff" d="M430.86,-215.21C438.86,-193.38 461.17,-140.47 498,-113 541.65,-80.44 562.05,-87.4 616,-80 663.11,-73.54 682.01,-55.88 723,-80 755.51,-99.13 771.67,-142.95 778.6,-168.51"/>
<polygon fill="#63b8ff" stroke="#63b8ff" points="775.21,-169.36 781.03,-178.21 782,-167.66 775.21,-169.36"/>
</a>
</g>
</g>
<!-- Node8 -->
<g id="Node000008" class="node">
<title>Node8</title>
<g id="a_Node000008"><a xlink:href="cJSON_8c.html#ae84642817f3965a85c7c617663250c16" target="_top" xlink:title=" ">
<polygon fill="white" stroke="#666666" points="574,-271.5 504,-271.5 504,-252.5 574,-252.5 574,-271.5"/>
<text text-anchor="middle" x="539" y="-259.5" font-family="Helvetica,sans-Serif" font-size="10.00">print_array</text>
</a>
</g>
</g>
<!-- Node5&#45;&gt;Node8 -->
<g id="edge8_Node000005_Node000008" class="edge">
<title>Node5&#45;&gt;Node8</title>
<g id="a_edge8_Node000005_Node000008"><a xlink:title=" ">
<path fill="none" stroke="#63b8ff" d="M462.16,-230.29C479.19,-235.24 499.26,-242.19 514.48,-248.48"/>
<polygon fill="#63b8ff" stroke="#63b8ff" points="513.13,-251.71 523.7,-252.5 515.93,-245.3 513.13,-251.71"/>
</a>
</g>
</g>
<!-- Node10 -->
<g id="Node000010" class="node">
<title>Node10</title>
<g id="a_Node000010"><a xlink:href="cJSON_8c.html#ad93d84de08872da0eaa6624be0e74a68" target="_top" xlink:title=" ">
<polygon fill="white" stroke="#666666" points="580,-141.5 498,-141.5 498,-122.5 580,-122.5 580,-141.5"/>
<text text-anchor="middle" x="539" y="-129.5" font-family="Helvetica,sans-Serif" font-size="10.00">print_number</text>
</a>
</g>
</g>
<!-- Node5&#45;&gt;Node10 -->
<g id="edge12_Node000005_Node000010" class="edge">
<title>Node5&#45;&gt;Node10</title>
<g id="a_edge12_Node000005_Node000010"><a xlink:title=" ">
<path fill="none" stroke="#63b8ff" d="M438.91,-215.4C457.77,-199.53 495.64,-167.65 518.72,-148.23"/>
<polygon fill="#63b8ff" stroke="#63b8ff" points="521.09,-150.81 526.49,-141.69 516.58,-145.45 521.09,-150.81"/>
</a>
</g>
</g>
<!-- Node13 -->
<g id="Node000013" class="node">
<title>Node13</title>
<g id="a_Node000013"><a xlink:href="cJSON_8c.html#a3d742f5c68799bca291432a9cd72f8dd" target="_top" xlink:title=" ">
<polygon fill="white" stroke="#666666" points="576,-234.5 502,-234.5 502,-215.5 576,-215.5 576,-234.5"/>
<text text-anchor="middle" x="539" y="-222.5" font-family="Helvetica,sans-Serif" font-size="10.00">print_object</text>
</a>
</g>
</g>
<!-- Node5&#45;&gt;Node13 -->
<g id="edge16_Node000005_Node000013" class="edge">
<title>Node5&#45;&gt;Node13</title>
<g id="a_edge16_Node000005_Node000013"><a xlink:title=" ">
<path fill="none" stroke="#63b8ff" d="M462.16,-218.69C471.55,-218.27 481.88,-218.15 491.8,-218.33"/>
<polygon fill="#63b8ff" stroke="#63b8ff" points="491.84,-221.83 501.94,-218.63 492.04,-214.84 491.84,-221.83"/>
</a>
</g>
</g>
<!-- Node15 -->
<g id="Node000015" class="node">
<title>Node15</title>
<g id="a_Node000015"><a xlink:href="cJSON_8c.html#ad087dd738e49b4258f0a3d378a121df6" target="_top" xlink:title=" ">
<polygon fill="white" stroke="#666666" points="575,-197.5 503,-197.5 503,-178.5 575,-178.5 575,-197.5"/>
<text text-anchor="middle" x="539" y="-185.5" font-family="Helvetica,sans-Serif" font-size="10.00">print_string</text>
</a>
</g>
</g>
<!-- Node5&#45;&gt;Node15 -->
<g id="edge22_Node000005_Node000015" class="edge">
<title>Node5&#45;&gt;Node15</title>
<g id="a_edge22_Node000005_Node000015"><a xlink:title=" ">
<path fill="none" stroke="#63b8ff" d="M455.96,-215.47C469.26,-211.02 485.29,-205.65 499.64,-200.84"/>
<polygon fill="#63b8ff" stroke="#63b8ff" points="500.88,-204.12 509.26,-197.62 498.66,-197.48 500.88,-204.12"/>
</a>
</g>
</g>
<!-- Node6&#45;&gt;Node4 -->
<g id="edge6_Node000006_Node000004" class="edge">
<title>Node6&#45;&gt;Node4</title>
<g id="a_edge6_Node000006_Node000004"><a xlink:title=" ">
<path fill="none" stroke="#63b8ff" d="M807.43,-197.63C828.57,-206.7 860.44,-220.37 884.1,-230.52"/>
<polygon fill="#63b8ff" stroke="#63b8ff" points="882.79,-233.77 893.36,-234.5 885.55,-227.34 882.79,-233.77"/>
</a>
</g>
</g>
<!-- Node6&#45;&gt;Node7 -->
<g id="edge7_Node000006_Node000007" class="edge">
<title>Node6&#45;&gt;Node7</title>
<g id="a_edge7_Node000006_Node000007"><a xlink:title=" ">
<path fill="none" stroke="#63b8ff" d="M807.43,-178.37C828.57,-169.3 860.44,-155.63 884.1,-145.48"/>
<polygon fill="#63b8ff" stroke="#63b8ff" points="885.55,-148.66 893.36,-141.5 882.79,-142.23 885.55,-148.66"/>
</a>
</g>
</g>
<!-- Node8&#45;&gt;Node5 -->
<g id="edge10_Node000008_Node000005" class="edge">
<title>Node8&#45;&gt;Node5</title>
<g id="a_edge10_Node000008_Node000005"><a xlink:title=" ">
<path fill="none" stroke="#63b8ff" d="M503.56,-256.77C486.55,-251.84 466.46,-244.9 451.2,-238.59"/>
<polygon fill="#63b8ff" stroke="#63b8ff" points="452.51,-235.35 441.95,-234.57 449.72,-241.77 452.51,-235.35"/>
</a>
</g>
</g>
<!-- Node8&#45;&gt;Node6 -->
<g id="edge9_Node000008_Node000006" class="edge">
<title>Node8&#45;&gt;Node6</title>
<g id="a_edge9_Node000008_Node000006"><a xlink:title=" ">
<path fill="none" stroke="#63b8ff" d="M560.17,-271.56C595.55,-286.83 670.07,-312.18 723,-283 752.2,-266.9 769.16,-229.95 777.2,-207.17"/>
<polygon fill="#63b8ff" stroke="#63b8ff" points="780.56,-208.14 780.37,-197.55 773.92,-205.95 780.56,-208.14"/>
</a>
</g>
</g>
<!-- Node8&#45;&gt;Node9 -->
<g id="edge11_Node000008_Node000009" class="edge">
<title>Node8&#45;&gt;Node9</title>
<g id="a_edge11_Node000008_Node000009"><a xlink:title=" ">
<path fill="none" stroke="#63b8ff" d="M574.1,-262.53C587.38,-262.74 602.89,-262.98 617.45,-263.21"/>
<polygon fill="#63b8ff" stroke="#63b8ff" points="617.78,-266.71 627.84,-263.37 617.89,-259.71 617.78,-266.71"/>
</a>
</g>
</g>
<!-- Node10&#45;&gt;Node6 -->
<g id="edge14_Node000010_Node000006" class="edge">
<title>Node10&#45;&gt;Node6</title>
<g id="a_edge14_Node000010_Node000006"><a xlink:title=" ">
<path fill="none" stroke="#63b8ff" d="M555.25,-122.43C587.99,-103.22 666.64,-64.29 723,-95 751.69,-110.64 768.74,-146.54 776.96,-168.88"/>
<polygon fill="#63b8ff" stroke="#63b8ff" points="773.65,-170.02 780.2,-178.34 780.27,-167.75 773.65,-170.02"/>
</a>
</g>
</g>
<!-- Node11 -->
<g id="Node000011" class="node">
<title>Node11</title>
<g id="a_Node000011"><a xlink:href="cJSON_8c.html#aa7a85b63f1830e7e666e1f56872d5d3e" target="_top" xlink:title=" ">
<polygon fill="white" stroke="#666666" points="718.5,-160.5 620.5,-160.5 620.5,-141.5 718.5,-141.5 718.5,-160.5"/>
<text text-anchor="middle" x="669.5" y="-148.5" font-family="Helvetica,sans-Serif" font-size="10.00">compare_double</text>
</a>
</g>
</g>
<!-- Node10&#45;&gt;Node11 -->
<g id="edge13_Node000010_Node000011" class="edge">
<title>Node10&#45;&gt;Node11</title>
<g id="a_edge13_Node000010_Node000011"><a xlink:title=" ">
<path fill="none" stroke="#63b8ff" d="M580.31,-137.96C589.8,-139.36 600.11,-140.89 610.22,-142.38"/>
<polygon fill="#63b8ff" stroke="#63b8ff" points="609.82,-145.86 620.23,-143.86 610.85,-138.94 609.82,-145.86"/>
</a>
</g>
</g>
<!-- Node12 -->
<g id="Node000012" class="node">
<title>Node12</title>
<g id="a_Node000012"><a xlink:href="cJSON_8c.html#ab25412ae56c8c594831918169bea100d" target="_top" xlink:title=" ">
<polygon fill="white" stroke="#666666" points="723,-123.5 616,-123.5 616,-104.5 723,-104.5 723,-123.5"/>
<text text-anchor="middle" x="669.5" y="-111.5" font-family="Helvetica,sans-Serif" font-size="10.00">get_decimal_point</text>
</a>
</g>
</g>
<!-- Node10&#45;&gt;Node12 -->
<g id="edge15_Node000010_Node000012" class="edge">
<title>Node10&#45;&gt;Node12</title>
<g id="a_edge15_Node000010_Node000012"><a xlink:title=" ">
<path fill="none" stroke="#63b8ff" d="M580.31,-126.35C588.35,-125.23 596.97,-124.02 605.57,-122.82"/>
<polygon fill="#63b8ff" stroke="#63b8ff" points="606.18,-126.26 615.6,-121.41 605.21,-119.33 606.18,-126.26"/>
</a>
</g>
</g>
<!-- Node13&#45;&gt;Node5 -->
<g id="edge20_Node000013_Node000005" class="edge">
<title>Node13&#45;&gt;Node5</title>
<g id="a_edge20_Node000013_Node000005"><a xlink:title=" ">
<path fill="none" stroke="#63b8ff" d="M501.94,-231.37C492.45,-231.76 482.11,-231.85 472.23,-231.64"/>
<polygon fill="#63b8ff" stroke="#63b8ff" points="472.27,-228.14 462.16,-231.31 472.04,-235.14 472.27,-228.14"/>
</a>
</g>
</g>
<!-- Node13&#45;&gt;Node6 -->
<g id="edge17_Node000013_Node000006" class="edge">
<title>Node13&#45;&gt;Node6</title>
<g id="a_edge17_Node000013_Node000006"><a xlink:title=" ">
<path fill="none" stroke="#63b8ff" d="M576.07,-223.26C613.19,-221 672.57,-216.09 723,-206 731.58,-204.28 740.7,-201.87 749.17,-199.36"/>
<polygon fill="#63b8ff" stroke="#63b8ff" points="750.21,-202.7 758.74,-196.41 748.15,-196.01 750.21,-202.7"/>
</a>
</g>
</g>
<!-- Node13&#45;&gt;Node9 -->
<g id="edge21_Node000013_Node000009" class="edge">
<title>Node13&#45;&gt;Node9</title>
<g id="a_edge21_Node000013_Node000009"><a xlink:title=" ">
<path fill="none" stroke="#63b8ff" d="M571.43,-234.54C588.24,-239.64 609.13,-245.98 627.22,-251.47"/>
<polygon fill="#63b8ff" stroke="#63b8ff" points="626.36,-254.87 636.94,-254.42 628.39,-248.17 626.36,-254.87"/>
</a>
</g>
</g>
<!-- Node14 -->
<g id="Node000014" class="node">
<title>Node14</title>
<g id="a_Node000014"><a xlink:href="cJSON_8c.html#af5b4e769356f10d99a7f66697c42c1bb" target="_top" xlink:title=" ">
<polygon fill="white" stroke="#666666" points="715,-197.5 624,-197.5 624,-178.5 715,-178.5 715,-197.5"/>
<text text-anchor="middle" x="669.5" y="-185.5" font-family="Helvetica,sans-Serif" font-size="10.00">print_string_ptr</text>
</a>
</g>
</g>
<!-- Node13&#45;&gt;Node14 -->
<g id="edge18_Node000013_Node000014" class="edge">
<title>Node13&#45;&gt;Node14</title>
<g id="a_edge18_Node000013_Node000014"><a xlink:title=" ">
<path fill="none" stroke="#63b8ff" d="M573.09,-215.47C589.01,-210.89 608.28,-205.34 625.33,-200.43"/>
<polygon fill="#63b8ff" stroke="#63b8ff" points="626.43,-203.76 635.07,-197.62 624.5,-197.03 626.43,-203.76"/>
</a>
</g>
</g>
<!-- Node14&#45;&gt;Node6 -->
<g id="edge19_Node000014_Node000006" class="edge">
<title>Node14&#45;&gt;Node6</title>
<g id="a_edge19_Node000014_Node000006"><a xlink:title=" ">
<path fill="none" stroke="#63b8ff" d="M715.29,-188C726.41,-188 738.15,-188 748.68,-188"/>
<polygon fill="#63b8ff" stroke="#63b8ff" points="748.74,-191.5 758.74,-188 748.74,-184.5 748.74,-191.5"/>
</a>
</g>
</g>
<!-- Node15&#45;&gt;Node14 -->
<g id="edge23_Node000015_Node000014" class="edge">
<title>Node15&#45;&gt;Node14</title>
<g id="a_edge23_Node000015_Node000014"><a xlink:title=" ">
<path fill="none" stroke="#63b8ff" d="M575.11,-188C586.96,-188 600.48,-188 613.48,-188"/>
<polygon fill="#63b8ff" stroke="#63b8ff" points="613.76,-191.5 623.76,-188 613.76,-184.5 613.76,-191.5"/>
</a>
</g>
</g>
</g>
</svg>
