<?xml version="1.0" encoding="UTF-8" standalone="no"?>
<!DOCTYPE svg PUBLIC "-//W3C//DTD SVG 1.1//EN"
 "http://www.w3.org/Graphics/SVG/1.1/DTD/svg11.dtd">
<!-- Generated by graphviz version 2.43.0 (0)
 -->
<!-- Title: Timings.analyze_timing_data Pages: 1 -->
<svg width="877pt" height="348pt"
 viewBox="0.00 0.00 877.00 348.00" xmlns="http://www.w3.org/2000/svg" xmlns:xlink="http://www.w3.org/1999/xlink">
<g id="graph0" class="graph" transform="scale(1 1) rotate(0) translate(4 344)">
<title>Timings.analyze_timing_data</title>
<!-- Node1 -->
<g id="Node000001" class="node">
<title>Node1</title>
<g id="a_Node000001"><a xlink:title=" ">
<polygon fill="#999999" stroke="#666666" points="161,-271.5 0,-271.5 0,-252.5 161,-252.5 161,-271.5"/>
<text text-anchor="middle" x="80.5" y="-259.5" font-family="Helvetica,sans-Serif" font-size="10.00">Timings.analyze_timing_data</text>
</a>
</g>
</g>
<!-- Node2 -->
<g id="Node000002" class="node">
<title>Node2</title>
<g id="a_Node000002"><a xlink:href="cJSON_8c.html#a36b0c212c0d382a4714afa8b70c1a2ee" target="_top" xlink:title=" ">
<polygon fill="white" stroke="#666666" points="236,-271.5 197,-271.5 197,-252.5 236,-252.5 236,-271.5"/>
<text text-anchor="middle" x="216.5" y="-259.5" font-family="Helvetica,sans-Serif" font-size="10.00">print</text>
</a>
</g>
</g>
<!-- Node1&#45;&gt;Node2 -->
<g id="edge1_Node000001_Node000002" class="edge">
<title>Node1&#45;&gt;Node2</title>
<g id="a_edge1_Node000001_Node000002"><a xlink:title=" ">
<path fill="none" stroke="#63b8ff" d="M161.38,-262C170.37,-262 179.04,-262 186.71,-262"/>
<polygon fill="#63b8ff" stroke="#63b8ff" points="186.81,-265.5 196.81,-262 186.81,-258.5 186.81,-265.5"/>
</a>
</g>
</g>
<!-- Node3 -->
<g id="Node000003" class="node">
<title>Node3</title>
<g id="a_Node000003"><a xlink:href="structinternal__hooks.html#a8b8f7ff45faa5da18dd3ccd2a2c8e416" target="_top" xlink:title=" ">
<polygon fill="white" stroke="#666666" points="864.5,-253.5 730.5,-253.5 730.5,-234.5 864.5,-234.5 864.5,-253.5"/>
<text text-anchor="middle" x="797.5" y="-241.5" font-family="Helvetica,sans-Serif" font-size="10.00">internal_hooks::allocate</text>
</a>
</g>
</g>
<!-- Node2&#45;&gt;Node3 -->
<g id="edge2_Node000002_Node000003" class="edge">
<title>Node2&#45;&gt;Node3</title>
<g id="a_edge2_Node000002_Node000003"><a xlink:title=" ">
<path fill="none" stroke="#63b8ff" d="M231.44,-271.56C263.19,-292.39 343.98,-340 419,-340 419,-340 419,-340 551.5,-340 638.99,-340 732.69,-286.27 774.35,-259.2"/>
<polygon fill="#63b8ff" stroke="#63b8ff" points="776.48,-261.99 782.88,-253.56 772.61,-256.16 776.48,-261.99"/>
</a>
</g>
</g>
<!-- Node4 -->
<g id="Node000004" class="node">
<title>Node4</title>
<g id="a_Node000004"><a xlink:href="cJSON_8c.html#a5ba141f183b9abb4b49e38a211299c7e" target="_top" xlink:title=" ">
<polygon fill="white" stroke="#666666" points="343,-234.5 272,-234.5 272,-215.5 343,-215.5 343,-234.5"/>
<text text-anchor="middle" x="307.5" y="-222.5" font-family="Helvetica,sans-Serif" font-size="10.00">print_value</text>
</a>
</g>
</g>
<!-- Node2&#45;&gt;Node4 -->
<g id="edge3_Node000002_Node000004" class="edge">
<title>Node2&#45;&gt;Node4</title>
<g id="a_edge3_Node000002_Node000004"><a xlink:title=" ">
<path fill="none" stroke="#63b8ff" d="M236.37,-254.15C247.35,-249.59 261.49,-243.71 274.19,-238.43"/>
<polygon fill="#63b8ff" stroke="#63b8ff" points="275.65,-241.61 283.54,-234.54 272.97,-235.15 275.65,-241.61"/>
</a>
</g>
</g>
<!-- Node6 -->
<g id="Node000006" class="node">
<title>Node6</title>
<g id="a_Node000006"><a xlink:href="structinternal__hooks.html#a7c3921493fab83f33cd509145d8a5393" target="_top" xlink:title=" ">
<polygon fill="white" stroke="#666666" points="869,-141.5 726,-141.5 726,-122.5 869,-122.5 869,-141.5"/>
<text text-anchor="middle" x="797.5" y="-129.5" font-family="Helvetica,sans-Serif" font-size="10.00">internal_hooks::reallocate</text>
</a>
</g>
</g>
<!-- Node2&#45;&gt;Node6 -->
<g id="edge23_Node000002_Node000006" class="edge">
<title>Node2&#45;&gt;Node6</title>
<g id="a_edge23_Node000002_Node000006"><a xlink:title=" ">
<path fill="none" stroke="#63b8ff" d="M219.73,-252.36C231.31,-205.1 289.03,0 419,0 419,0 419,0 551.5,0 647.18,0 741.43,-78.98 779.22,-114.76"/>
<polygon fill="#63b8ff" stroke="#63b8ff" points="777.17,-117.65 786.8,-122.08 782.04,-112.61 777.17,-117.65"/>
</a>
</g>
</g>
<!-- Node8 -->
<g id="Node000008" class="node">
<title>Node8</title>
<g id="a_Node000008"><a xlink:href="cJSON_8c.html#af5fb173126786c1e3f90b6df6e2500c5" target="_top" xlink:title=" ">
<polygon fill="white" stroke="#666666" points="592,-273.5 509,-273.5 509,-254.5 592,-254.5 592,-273.5"/>
<text text-anchor="middle" x="550.5" y="-261.5" font-family="Helvetica,sans-Serif" font-size="10.00">update_offset</text>
</a>
</g>
</g>
<!-- Node2&#45;&gt;Node8 -->
<g id="edge24_Node000002_Node000008" class="edge">
<title>Node2&#45;&gt;Node8</title>
<g id="a_edge24_Node000002_Node000008"><a xlink:title=" ">
<path fill="none" stroke="#63b8ff" d="M236.15,-265.65C276.96,-273.16 377.21,-288.97 461,-281 473.29,-279.83 486.41,-277.77 498.68,-275.47"/>
<polygon fill="#63b8ff" stroke="#63b8ff" points="499.61,-278.86 508.76,-273.5 498.27,-271.99 499.61,-278.86"/>
</a>
</g>
</g>
<!-- Node5 -->
<g id="Node000005" class="node">
<title>Node5</title>
<g id="a_Node000005"><a xlink:href="cJSON_8c.html#ad9f9a9b2ad3154fc8033756f23c023a6" target="_top" xlink:title=" ">
<polygon fill="white" stroke="#666666" points="690,-197.5 640,-197.5 640,-178.5 690,-178.5 690,-197.5"/>
<text text-anchor="middle" x="665" y="-185.5" font-family="Helvetica,sans-Serif" font-size="10.00">ensure</text>
</a>
</g>
</g>
<!-- Node4&#45;&gt;Node5 -->
<g id="edge4_Node000004_Node000005" class="edge">
<title>Node4&#45;&gt;Node5</title>
<g id="a_edge4_Node000004_Node000005"><a xlink:title=" ">
<path fill="none" stroke="#63b8ff" d="M311.9,-215.32C319.98,-193.72 342.45,-141.37 379,-114 422.69,-81.29 442.96,-87.63 497,-80 544.09,-73.35 563.01,-55.88 604,-80 636.51,-99.13 652.67,-142.95 659.6,-168.51"/>
<polygon fill="#63b8ff" stroke="#63b8ff" points="656.21,-169.36 662.03,-178.21 663,-167.66 656.21,-169.36"/>
</a>
</g>
</g>
<!-- Node7 -->
<g id="Node000007" class="node">
<title>Node7</title>
<g id="a_Node000007"><a xlink:href="cJSON_8c.html#ae84642817f3965a85c7c617663250c16" target="_top" xlink:title=" ">
<polygon fill="white" stroke="#666666" points="455,-271.5 385,-271.5 385,-252.5 455,-252.5 455,-271.5"/>
<text text-anchor="middle" x="420" y="-259.5" font-family="Helvetica,sans-Serif" font-size="10.00">print_array</text>
</a>
</g>
</g>
<!-- Node4&#45;&gt;Node7 -->
<g id="edge7_Node000004_Node000007" class="edge">
<title>Node4&#45;&gt;Node7</title>
<g id="a_edge7_Node000004_Node000007"><a xlink:title=" ">
<path fill="none" stroke="#63b8ff" d="M343.16,-230.29C360.19,-235.24 380.26,-242.19 395.48,-248.48"/>
<polygon fill="#63b8ff" stroke="#63b8ff" points="394.13,-251.71 404.7,-252.5 396.93,-245.3 394.13,-251.71"/>
</a>
</g>
</g>
<!-- Node9 -->
<g id="Node000009" class="node">
<title>Node9</title>
<g id="a_Node000009"><a xlink:href="cJSON_8c.html#ad93d84de08872da0eaa6624be0e74a68" target="_top" xlink:title=" ">
<polygon fill="white" stroke="#666666" points="461,-141.5 379,-141.5 379,-122.5 461,-122.5 461,-141.5"/>
<text text-anchor="middle" x="420" y="-129.5" font-family="Helvetica,sans-Serif" font-size="10.00">print_number</text>
</a>
</g>
</g>
<!-- Node4&#45;&gt;Node9 -->
<g id="edge11_Node000004_Node000009" class="edge">
<title>Node4&#45;&gt;Node9</title>
<g id="a_edge11_Node000004_Node000009"><a xlink:title=" ">
<path fill="none" stroke="#63b8ff" d="M319.91,-215.4C338.77,-199.53 376.64,-167.65 399.72,-148.23"/>
<polygon fill="#63b8ff" stroke="#63b8ff" points="402.09,-150.81 407.49,-141.69 397.58,-145.45 402.09,-150.81"/>
</a>
</g>
</g>
<!-- Node12 -->
<g id="Node000012" class="node">
<title>Node12</title>
<g id="a_Node000012"><a xlink:href="cJSON_8c.html#a3d742f5c68799bca291432a9cd72f8dd" target="_top" xlink:title=" ">
<polygon fill="white" stroke="#666666" points="457,-234.5 383,-234.5 383,-215.5 457,-215.5 457,-234.5"/>
<text text-anchor="middle" x="420" y="-222.5" font-family="Helvetica,sans-Serif" font-size="10.00">print_object</text>
</a>
</g>
</g>
<!-- Node4&#45;&gt;Node12 -->
<g id="edge15_Node000004_Node000012" class="edge">
<title>Node4&#45;&gt;Node12</title>
<g id="a_edge15_Node000004_Node000012"><a xlink:title=" ">
<path fill="none" stroke="#63b8ff" d="M343.16,-218.69C352.55,-218.27 362.88,-218.15 372.8,-218.33"/>
<polygon fill="#63b8ff" stroke="#63b8ff" points="372.84,-221.83 382.94,-218.63 373.04,-214.84 372.84,-221.83"/>
</a>
</g>
</g>
<!-- Node14 -->
<g id="Node000014" class="node">
<title>Node14</title>
<g id="a_Node000014"><a xlink:href="cJSON_8c.html#ad087dd738e49b4258f0a3d378a121df6" target="_top" xlink:title=" ">
<polygon fill="white" stroke="#666666" points="456,-197.5 384,-197.5 384,-178.5 456,-178.5 456,-197.5"/>
<text text-anchor="middle" x="420" y="-185.5" font-family="Helvetica,sans-Serif" font-size="10.00">print_string</text>
</a>
</g>
</g>
<!-- Node4&#45;&gt;Node14 -->
<g id="edge21_Node000004_Node000014" class="edge">
<title>Node4&#45;&gt;Node14</title>
<g id="a_edge21_Node000004_Node000014"><a xlink:title=" ">
<path fill="none" stroke="#63b8ff" d="M336.96,-215.47C350.26,-211.02 366.29,-205.65 380.64,-200.84"/>
<polygon fill="#63b8ff" stroke="#63b8ff" points="381.88,-204.12 390.26,-197.62 379.66,-197.48 381.88,-204.12"/>
</a>
</g>
</g>
<!-- Node5&#45;&gt;Node3 -->
<g id="edge5_Node000005_Node000003" class="edge">
<title>Node5&#45;&gt;Node3</title>
<g id="a_edge5_Node000005_Node000003"><a xlink:title=" ">
<path fill="none" stroke="#63b8ff" d="M688.43,-197.63C709.57,-206.7 741.44,-220.37 765.1,-230.52"/>
<polygon fill="#63b8ff" stroke="#63b8ff" points="763.79,-233.77 774.36,-234.5 766.55,-227.34 763.79,-233.77"/>
</a>
</g>
</g>
<!-- Node5&#45;&gt;Node6 -->
<g id="edge6_Node000005_Node000006" class="edge">
<title>Node5&#45;&gt;Node6</title>
<g id="a_edge6_Node000005_Node000006"><a xlink:title=" ">
<path fill="none" stroke="#63b8ff" d="M688.43,-178.37C709.57,-169.3 741.44,-155.63 765.1,-145.48"/>
<polygon fill="#63b8ff" stroke="#63b8ff" points="766.55,-148.66 774.36,-141.5 763.79,-142.23 766.55,-148.66"/>
</a>
</g>
</g>
<!-- Node7&#45;&gt;Node4 -->
<g id="edge9_Node000007_Node000004" class="edge">
<title>Node7&#45;&gt;Node4</title>
<g id="a_edge9_Node000007_Node000004"><a xlink:title=" ">
<path fill="none" stroke="#63b8ff" d="M384.56,-256.77C367.55,-251.84 347.46,-244.9 332.2,-238.59"/>
<polygon fill="#63b8ff" stroke="#63b8ff" points="333.51,-235.35 322.95,-234.57 330.72,-241.77 333.51,-235.35"/>
</a>
</g>
</g>
<!-- Node7&#45;&gt;Node5 -->
<g id="edge8_Node000007_Node000005" class="edge">
<title>Node7&#45;&gt;Node5</title>
<g id="a_edge8_Node000007_Node000005"><a xlink:title=" ">
<path fill="none" stroke="#63b8ff" d="M441.17,-271.56C476.55,-286.83 551.07,-312.18 604,-283 633.2,-266.9 650.16,-229.95 658.2,-207.17"/>
<polygon fill="#63b8ff" stroke="#63b8ff" points="661.56,-208.14 661.37,-197.55 654.92,-205.95 661.56,-208.14"/>
</a>
</g>
</g>
<!-- Node7&#45;&gt;Node8 -->
<g id="edge10_Node000007_Node000008" class="edge">
<title>Node7&#45;&gt;Node8</title>
<g id="a_edge10_Node000007_Node000008"><a xlink:title=" ">
<path fill="none" stroke="#63b8ff" d="M455.1,-262.53C468.38,-262.74 483.89,-262.98 498.45,-263.21"/>
<polygon fill="#63b8ff" stroke="#63b8ff" points="498.78,-266.71 508.84,-263.37 498.89,-259.71 498.78,-266.71"/>
</a>
</g>
</g>
<!-- Node9&#45;&gt;Node5 -->
<g id="edge13_Node000009_Node000005" class="edge">
<title>Node9&#45;&gt;Node5</title>
<g id="a_edge13_Node000009_Node000005"><a xlink:title=" ">
<path fill="none" stroke="#63b8ff" d="M436.25,-122.43C468.99,-103.22 547.64,-64.29 604,-95 632.69,-110.64 649.74,-146.54 657.96,-168.88"/>
<polygon fill="#63b8ff" stroke="#63b8ff" points="654.65,-170.02 661.2,-178.34 661.27,-167.75 654.65,-170.02"/>
</a>
</g>
</g>
<!-- Node10 -->
<g id="Node000010" class="node">
<title>Node10</title>
<g id="a_Node000010"><a xlink:href="cJSON_8c.html#aa7a85b63f1830e7e666e1f56872d5d3e" target="_top" xlink:title=" ">
<polygon fill="white" stroke="#666666" points="599.5,-160.5 501.5,-160.5 501.5,-141.5 599.5,-141.5 599.5,-160.5"/>
<text text-anchor="middle" x="550.5" y="-148.5" font-family="Helvetica,sans-Serif" font-size="10.00">compare_double</text>
</a>
</g>
</g>
<!-- Node9&#45;&gt;Node10 -->
<g id="edge12_Node000009_Node000010" class="edge">
<title>Node9&#45;&gt;Node10</title>
<g id="a_edge12_Node000009_Node000010"><a xlink:title=" ">
<path fill="none" stroke="#63b8ff" d="M461.31,-137.96C470.8,-139.36 481.11,-140.89 491.22,-142.38"/>
<polygon fill="#63b8ff" stroke="#63b8ff" points="490.82,-145.86 501.23,-143.86 491.85,-138.94 490.82,-145.86"/>
</a>
</g>
</g>
<!-- Node11 -->
<g id="Node000011" class="node">
<title>Node11</title>
<g id="a_Node000011"><a xlink:href="cJSON_8c.html#ab25412ae56c8c594831918169bea100d" target="_top" xlink:title=" ">
<polygon fill="white" stroke="#666666" points="604,-123.5 497,-123.5 497,-104.5 604,-104.5 604,-123.5"/>
<text text-anchor="middle" x="550.5" y="-111.5" font-family="Helvetica,sans-Serif" font-size="10.00">get_decimal_point</text>
</a>
</g>
</g>
<!-- Node9&#45;&gt;Node11 -->
<g id="edge14_Node000009_Node000011" class="edge">
<title>Node9&#45;&gt;Node11</title>
<g id="a_edge14_Node000009_Node000011"><a xlink:title=" ">
<path fill="none" stroke="#63b8ff" d="M461.31,-126.35C469.35,-125.23 477.97,-124.02 486.57,-122.82"/>
<polygon fill="#63b8ff" stroke="#63b8ff" points="487.18,-126.26 496.6,-121.41 486.21,-119.33 487.18,-126.26"/>
</a>
</g>
</g>
<!-- Node12&#45;&gt;Node4 -->
<g id="edge19_Node000012_Node000004" class="edge">
<title>Node12&#45;&gt;Node4</title>
<g id="a_edge19_Node000012_Node000004"><a xlink:title=" ">
<path fill="none" stroke="#63b8ff" d="M382.94,-231.37C373.45,-231.76 363.11,-231.85 353.23,-231.64"/>
<polygon fill="#63b8ff" stroke="#63b8ff" points="353.27,-228.14 343.16,-231.31 353.04,-235.14 353.27,-228.14"/>
</a>
</g>
</g>
<!-- Node12&#45;&gt;Node5 -->
<g id="edge16_Node000012_Node000005" class="edge">
<title>Node12&#45;&gt;Node5</title>
<g id="a_edge16_Node000012_Node000005"><a xlink:title=" ">
<path fill="none" stroke="#63b8ff" d="M457.1,-223.67C494.25,-221.79 553.65,-217.33 604,-207 612.62,-205.23 621.75,-202.7 630.22,-200.05"/>
<polygon fill="#63b8ff" stroke="#63b8ff" points="631.36,-203.36 639.78,-196.94 629.19,-196.71 631.36,-203.36"/>
</a>
</g>
</g>
<!-- Node12&#45;&gt;Node8 -->
<g id="edge20_Node000012_Node000008" class="edge">
<title>Node12&#45;&gt;Node8</title>
<g id="a_edge20_Node000012_Node000008"><a xlink:title=" ">
<path fill="none" stroke="#63b8ff" d="M452.43,-234.54C469.24,-239.64 490.13,-245.98 508.22,-251.47"/>
<polygon fill="#63b8ff" stroke="#63b8ff" points="507.36,-254.87 517.94,-254.42 509.39,-248.17 507.36,-254.87"/>
</a>
</g>
</g>
<!-- Node13 -->
<g id="Node000013" class="node">
<title>Node13</title>
<g id="a_Node000013"><a xlink:href="cJSON_8c.html#af5b4e769356f10d99a7f66697c42c1bb" target="_top" xlink:title=" ">
<polygon fill="white" stroke="#666666" points="596,-197.5 505,-197.5 505,-178.5 596,-178.5 596,-197.5"/>
<text text-anchor="middle" x="550.5" y="-185.5" font-family="Helvetica,sans-Serif" font-size="10.00">print_string_ptr</text>
</a>
</g>
</g>
<!-- Node12&#45;&gt;Node13 -->
<g id="edge17_Node000012_Node000013" class="edge">
<title>Node12&#45;&gt;Node13</title>
<g id="a_edge17_Node000012_Node000013"><a xlink:title=" ">
<path fill="none" stroke="#63b8ff" d="M454.09,-215.47C470.01,-210.89 489.28,-205.34 506.33,-200.43"/>
<polygon fill="#63b8ff" stroke="#63b8ff" points="507.43,-203.76 516.07,-197.62 505.5,-197.03 507.43,-203.76"/>
</a>
</g>
</g>
<!-- Node13&#45;&gt;Node5 -->
<g id="edge18_Node000013_Node000005" class="edge">
<title>Node13&#45;&gt;Node5</title>
<g id="a_edge18_Node000013_Node000005"><a xlink:title=" ">
<path fill="none" stroke="#63b8ff" d="M596.29,-188C607.41,-188 619.15,-188 629.68,-188"/>
<polygon fill="#63b8ff" stroke="#63b8ff" points="629.74,-191.5 639.74,-188 629.74,-184.5 629.74,-191.5"/>
</a>
</g>
</g>
<!-- Node14&#45;&gt;Node13 -->
<g id="edge22_Node000014_Node000013" class="edge">
<title>Node14&#45;&gt;Node13</title>
<g id="a_edge22_Node000014_Node000013"><a xlink:title=" ">
<path fill="none" stroke="#63b8ff" d="M456.11,-188C467.96,-188 481.48,-188 494.48,-188"/>
<polygon fill="#63b8ff" stroke="#63b8ff" points="494.76,-191.5 504.76,-188 494.76,-184.5 494.76,-191.5"/>
</a>
</g>
</g>
</g>
</svg>
