<?xml version="1.0" encoding="UTF-8" standalone="no"?>
<!DOCTYPE svg PUBLIC "-//W3C//DTD SVG 1.1//EN"
 "http://www.w3.org/Graphics/SVG/1.1/DTD/svg11.dtd">
<!-- Generated by graphviz version 2.43.0 (0)
 -->
<!-- Title: SdbMemcpy Pages: 1 -->
<!--zoomable 484 -->
<svg id="main" version="1.1" xmlns="http://www.w3.org/2000/svg" xmlns:xlink="http://www.w3.org/1999/xlink" xml:space="preserve" onload="init(evt)">
<style type="text/css"><![CDATA[
.edge:hover path { stroke: red; }
.edge:hover polygon { stroke: red; fill: red; }
]]></style>
<script type="text/javascript"><![CDATA[
var edges = document.getElementsByTagName('g');
if (edges && edges.length) {
  for (var i=0;i<edges.length;i++) {
    if (edges[i].id.substr(0,4)=='edge') {
      edges[i].setAttribute('class','edge');
    }
  }
}
]]></script>
        <defs>
                <circle id="rim" cx="0" cy="0" r="7"/>
                <circle id="rim2" cx="0" cy="0" r="3.5"/>
                <g id="zoomPlus">
                        <use xlink:href="#rim" fill="#404040">
                                <set attributeName="fill" to="#808080" begin="zoomplus.mouseover" end="zoomplus.mouseout"/>
                        </use>
                        <path d="M-4,0h8M0,-4v8" fill="none" stroke="white" stroke-width="1.5" pointer-events="none"/>
                </g>
                <g id="zoomMin">
                        <use xlink:href="#rim" fill="#404040">
                                <set attributeName="fill" to="#808080" begin="zoomminus.mouseover" end="zoomminus.mouseout"/>
                        </use>
                        <path d="M-4,0h8" fill="none" stroke="white" stroke-width="1.5" pointer-events="none"/>
                </g>
                <g id="dirArrow">
                        <path fill="none" stroke="white" stroke-width="1.5" d="M0,-3.0v7 M-2.5,-0.5L0,-3.0L2.5,-0.5"/>
                </g>
               <g id="resetDef">
                       <use xlink:href="#rim2" fill="#404040">
                               <set attributeName="fill" to="#808080" begin="reset.mouseover" end="reset.mouseout"/>
                       </use>
               </g>
        </defs>

<script type="text/javascript">
var viewWidth = 780;
var viewHeight = 484;
var sectionId = 'dynsection-9';
</script>
<script xlink:href="svgpan.js"/>
<svg id="graph" class="graph">
<g id="viewport">
<title>SdbMemcpy</title>
<polygon fill="white" stroke="transparent" points="-4,4 -4,-480 776,-480 776,4 -4,4"/>
<!-- Node1 -->
<g id="node1" class="node">
<title>Node1</title>
<g id="a_node1"><a xlink:title=" ">
<polygon fill="#bfbfbf" stroke="black" points="695,-228.5 695,-247.5 772,-247.5 772,-228.5 695,-228.5"/>
<text text-anchor="middle" x="733.5" y="-235.5" font-family="Helvetica,sans-Serif" font-size="10.00">SdbMemcpy</text>
</a>
</g>
</g>
<!-- Node2 -->
<g id="node2" class="node">
<title>Node2</title>
<g id="a_node2"><a xlink:href="ModbusTestServer_8c.html#a627a901bdd761202cecf630a1004a68f" target="_top" xlink:title="Constructs a Modbus TCP frame.">
<polygon fill="white" stroke="black" points="513,-456.5 513,-475.5 659,-475.5 659,-456.5 513,-456.5"/>
<text text-anchor="middle" x="586" y="-463.5" font-family="Helvetica,sans-Serif" font-size="10.00">GenerateModbusTcpFrame</text>
</a>
</g>
</g>
<!-- Node1&#45;&gt;Node2 -->
<g id="edge1" class="edge">
<title>Node1&#45;&gt;Node2</title>
<path fill="none" stroke="midnightblue" d="M731.48,-257.72C728.25,-299.12 714.81,-395.5 659,-447 654.82,-450.86 649.95,-453.95 644.75,-456.43"/>
<polygon fill="midnightblue" stroke="midnightblue" points="734.98,-257.79 732.15,-247.59 728,-257.33 734.98,-257.79"/>
</g>
<!-- Node3 -->
<g id="node3" class="node">
<title>Node3</title>
<g id="a_node3"><a xlink:href="TestDataGenerator_8c.html#a840291bc02cba5474a4cb46a9b9566fe" target="_top" xlink:title=" ">
<polygon fill="white" stroke="black" points="565.5,-418.5 565.5,-437.5 606.5,-437.5 606.5,-418.5 565.5,-418.5"/>
<text text-anchor="middle" x="586" y="-425.5" font-family="Helvetica,sans-Serif" font-size="10.00">main</text>
</a>
</g>
</g>
<!-- Node1&#45;&gt;Node3 -->
<g id="edge2" class="edge">
<title>Node1&#45;&gt;Node3</title>
<path fill="none" stroke="midnightblue" d="M729.67,-258.02C723.54,-293.83 705.6,-368.83 659,-409 644.41,-421.58 622.41,-425.95 606.57,-427.41"/>
<polygon fill="midnightblue" stroke="midnightblue" points="733.17,-258.29 731.27,-247.87 726.26,-257.2 733.17,-258.29"/>
</g>
<!-- Node4 -->
<g id="node4" class="node">
<title>Node4</title>
<g id="a_node4"><a xlink:href="TestDataGenerator_8c.html#a412f28499bccd41acfa4e3847d132b94" target="_top" xlink:title=" ">
<polygon fill="white" stroke="black" points="522,-380.5 522,-399.5 650,-399.5 650,-380.5 522,-380.5"/>
<text text-anchor="middle" x="586" y="-387.5" font-family="Helvetica,sans-Serif" font-size="10.00">MakeModbusTcpFrame</text>
</a>
</g>
</g>
<!-- Node1&#45;&gt;Node4 -->
<g id="edge3" class="edge">
<title>Node1&#45;&gt;Node4</title>
<path fill="none" stroke="midnightblue" d="M727.09,-257.62C717.99,-286.85 696.83,-341.52 659,-371 654,-374.89 648.28,-377.99 642.3,-380.46"/>
<polygon fill="midnightblue" stroke="midnightblue" points="730.52,-258.36 729.99,-247.77 723.81,-256.38 730.52,-258.36"/>
</g>
<!-- Node5 -->
<g id="node5" class="node">
<title>Node5</title>
<g id="a_node5"><a xlink:href="DataHandlers_2ModbusWithPostgres_2Modbus_8c.html#a1660e1b6915b7758a7708e89c8445cbf" target="_top" xlink:title="Implements throughput testing for Modbus data pipe.">
<polygon fill="white" stroke="black" points="522,-342.5 522,-361.5 650,-361.5 650,-342.5 522,-342.5"/>
<text text-anchor="middle" x="586" y="-349.5" font-family="Helvetica,sans-Serif" font-size="10.00">MbPipeThroughputTest</text>
</a>
</g>
</g>
<!-- Node1&#45;&gt;Node5 -->
<g id="edge4" class="edge">
<title>Node1&#45;&gt;Node5</title>
<path fill="none" stroke="midnightblue" d="M723,-256.67C711.03,-278.33 688.4,-313.52 659,-333 653.18,-336.86 646.61,-339.93 639.87,-342.38"/>
<polygon fill="midnightblue" stroke="midnightblue" points="726.13,-258.26 727.74,-247.79 719.95,-254.96 726.13,-258.26"/>
</g>
<!-- Node7 -->
<g id="node7" class="node">
<title>Node7</title>
<g id="a_node7"><a xlink:href="DataHandlers_2ModbusWithPostgres_2Modbus_8c.html#ac42f810b60d139ab2f82c4146710d721" target="_top" xlink:title="Implements main Modbus thread loop.">
<polygon fill="white" stroke="black" points="561,-304.5 561,-323.5 611,-323.5 611,-304.5 561,-304.5"/>
<text text-anchor="middle" x="586" y="-311.5" font-family="Helvetica,sans-Serif" font-size="10.00">MbRun</text>
</a>
</g>
</g>
<!-- Node1&#45;&gt;Node7 -->
<g id="edge6" class="edge">
<title>Node1&#45;&gt;Node7</title>
<path fill="none" stroke="midnightblue" d="M713.17,-254.08C698.9,-265.33 678.63,-280.06 659,-290 643.72,-297.74 625.39,-303.81 611.05,-307.9"/>
<polygon fill="midnightblue" stroke="midnightblue" points="715.62,-256.6 721.21,-247.6 711.23,-251.14 715.62,-256.6"/>
</g>
<!-- Node9 -->
<g id="node9" class="node">
<title>Node9</title>
<g id="a_node9"><a xlink:href="DatabaseSystems_2Postgres_8c.html#aa7c5ed35f820c0efcccbb4e2f010a980" target="_top" xlink:title="Inserts data into PostgreSQL table using COPY protocol.">
<polygon fill="white" stroke="black" points="367,-171.5 367,-190.5 447,-190.5 447,-171.5 367,-171.5"/>
<text text-anchor="middle" x="407" y="-178.5" font-family="Helvetica,sans-Serif" font-size="10.00">PgInsertData</text>
</a>
</g>
</g>
<!-- Node1&#45;&gt;Node9 -->
<g id="edge8" class="edge">
<title>Node1&#45;&gt;Node9</title>
<path fill="none" stroke="midnightblue" d="M684.74,-237.44C639.91,-236.08 571.22,-231.82 513,-219 483.09,-212.41 450.1,-199.48 429.23,-190.55"/>
<polygon fill="midnightblue" stroke="midnightblue" points="684.68,-240.94 694.77,-237.71 684.86,-233.94 684.68,-240.94"/>
</g>
<!-- Node12 -->
<g id="node12" class="node">
<title>Node12</title>
<g id="a_node12"><a xlink:href="Time_8c.html#ab96009a36f9428aa5cb1df4c18e7b50a" target="_top" xlink:title="Calculate Time Difference Between Timestamps.">
<polygon fill="white" stroke="black" points="338,-247.5 338,-266.5 476,-266.5 476,-247.5 338,-247.5"/>
<text text-anchor="middle" x="407" y="-254.5" font-family="Helvetica,sans-Serif" font-size="10.00">SdbTimePrintSpecDiffWT</text>
</a>
</g>
</g>
<!-- Node1&#45;&gt;Node12 -->
<g id="edge11" class="edge">
<title>Node1&#45;&gt;Node12</title>
<path fill="none" stroke="midnightblue" d="M684.99,-248.26C676.38,-249.77 667.45,-251.12 659,-252 597.34,-258.44 526.7,-259.27 476.11,-258.73"/>
<polygon fill="midnightblue" stroke="midnightblue" points="685.72,-251.68 694.91,-246.42 684.44,-244.8 685.72,-251.68"/>
</g>
<!-- Node13 -->
<g id="node13" class="node">
<title>Node13</title>
<g id="a_node13"><a xlink:href="ModbusTestServer_8c.html#a562277af51f78c8939feeb4d33925307" target="_top" xlink:title="Sends Modbus data over a socket.">
<polygon fill="white" stroke="black" points="535,-38.5 535,-57.5 637,-57.5 637,-38.5 535,-38.5"/>
<text text-anchor="middle" x="586" y="-45.5" font-family="Helvetica,sans-Serif" font-size="10.00">SendModbusData</text>
</a>
</g>
</g>
<!-- Node1&#45;&gt;Node13 -->
<g id="edge13" class="edge">
<title>Node1&#45;&gt;Node13</title>
<path fill="none" stroke="midnightblue" d="M729.67,-217.98C723.54,-182.17 705.6,-107.17 659,-67 652.73,-61.6 645.1,-57.71 637.17,-54.92"/>
<polygon fill="midnightblue" stroke="midnightblue" points="726.26,-218.8 731.27,-228.13 733.17,-217.71 726.26,-218.8"/>
</g>
<!-- Node16 -->
<g id="node16" class="node">
<title>Node16</title>
<g id="a_node16"><a xlink:href="ThreadGroup_8c.html#af2f3e46faf85d1558bf6170af7e2f408" target="_top" xlink:title="Create a Thread Group.">
<polygon fill="white" stroke="black" points="541,-0.5 541,-19.5 631,-19.5 631,-0.5 541,-0.5"/>
<text text-anchor="middle" x="586" y="-7.5" font-family="Helvetica,sans-Serif" font-size="10.00">TgCreateGroup</text>
</a>
</g>
</g>
<!-- Node1&#45;&gt;Node16 -->
<g id="edge16" class="edge">
<title>Node1&#45;&gt;Node16</title>
<path fill="none" stroke="midnightblue" d="M731.48,-218.28C728.25,-176.88 714.81,-80.5 659,-29 651.3,-21.9 641.27,-17.39 631.15,-14.54"/>
<polygon fill="midnightblue" stroke="midnightblue" points="728,-218.67 732.15,-228.41 734.98,-218.21 728,-218.67"/>
</g>
<!-- Node21 -->
<g id="node21" class="node">
<title>Node21</title>
<g id="a_node21"><a xlink:href="DatabaseSystems_2Postgres_8c.html#a9b90329e0cf4324fbe9fcd6b22233e34" target="_top" xlink:title="Writes a 2&#45;byte value in network byte order.">
<polygon fill="white" stroke="black" points="561.5,-190.5 561.5,-209.5 610.5,-209.5 610.5,-190.5 561.5,-190.5"/>
<text text-anchor="middle" x="586" y="-197.5" font-family="Helvetica,sans-Serif" font-size="10.00">Write2</text>
</a>
</g>
</g>
<!-- Node1&#45;&gt;Node21 -->
<g id="edge21" class="edge">
<title>Node1&#45;&gt;Node21</title>
<path fill="none" stroke="midnightblue" d="M685.78,-225.8C660.83,-219.28 631.19,-211.54 610.92,-206.25"/>
<polygon fill="midnightblue" stroke="midnightblue" points="685.22,-229.27 695.78,-228.41 686.99,-222.5 685.22,-229.27"/>
</g>
<!-- Node22 -->
<g id="node22" class="node">
<title>Node22</title>
<g id="a_node22"><a xlink:href="DatabaseSystems_2Postgres_8c.html#ab8781f83020464aef1cf9779f072a37f" target="_top" xlink:title=" ">
<polygon fill="white" stroke="black" points="561.5,-152.5 561.5,-171.5 610.5,-171.5 610.5,-152.5 561.5,-152.5"/>
<text text-anchor="middle" x="586" y="-159.5" font-family="Helvetica,sans-Serif" font-size="10.00">Write4</text>
</a>
</g>
</g>
<!-- Node1&#45;&gt;Node22 -->
<g id="edge23" class="edge">
<title>Node1&#45;&gt;Node22</title>
<path fill="none" stroke="midnightblue" d="M715.48,-221.55C701.39,-208.78 680.3,-191.52 659,-181 643.7,-173.44 625.04,-168.63 610.54,-165.74"/>
<polygon fill="midnightblue" stroke="midnightblue" points="713.21,-224.22 722.92,-228.47 717.98,-219.09 713.21,-224.22"/>
</g>
<!-- Node23 -->
<g id="node23" class="node">
<title>Node23</title>
<g id="a_node23"><a xlink:href="DatabaseSystems_2Postgres_8c.html#af07f5759e9e25a2b5a8569ab296897e8" target="_top" xlink:title=" ">
<polygon fill="white" stroke="black" points="561.5,-114.5 561.5,-133.5 610.5,-133.5 610.5,-114.5 561.5,-114.5"/>
<text text-anchor="middle" x="586" y="-121.5" font-family="Helvetica,sans-Serif" font-size="10.00">Write8</text>
</a>
</g>
</g>
<!-- Node1&#45;&gt;Node23 -->
<g id="edge25" class="edge">
<title>Node1&#45;&gt;Node23</title>
<path fill="none" stroke="midnightblue" d="M723,-219.33C711.03,-197.67 688.4,-162.48 659,-143 644.56,-133.43 625.51,-128.67 610.63,-126.31"/>
<polygon fill="midnightblue" stroke="midnightblue" points="719.95,-221.04 727.74,-228.21 726.13,-217.74 719.95,-221.04"/>
</g>
<!-- Node24 -->
<g id="node24" class="node">
<title>Node24</title>
<g id="a_node24"><a xlink:href="DatabaseSystems_2Postgres_8c.html#a8be5b0d3a8c5e012cae2737b1ffa7bff" target="_top" xlink:title=" ">
<polygon fill="white" stroke="black" points="537,-76.5 537,-95.5 635,-95.5 635,-76.5 537,-76.5"/>
<text text-anchor="middle" x="586" y="-83.5" font-family="Helvetica,sans-Serif" font-size="10.00">WriteTimestamp</text>
</a>
</g>
</g>
<!-- Node1&#45;&gt;Node24 -->
<g id="edge27" class="edge">
<title>Node1&#45;&gt;Node24</title>
<path fill="none" stroke="midnightblue" d="M727.09,-218.38C717.99,-189.15 696.83,-134.48 659,-105 652.07,-99.6 643.74,-95.72 635.24,-92.95"/>
<polygon fill="midnightblue" stroke="midnightblue" points="723.81,-219.62 729.99,-228.23 730.52,-217.64 723.81,-219.62"/>
</g>
<!-- Node6 -->
<g id="node6" class="node">
<title>Node6</title>
<g id="a_node6"><a xlink:href="ModbusWithPostgres_8c.html#a4908768aa1a5e0d60263a772b69e593b" target="_top" xlink:title="Modbus data pipe throughput test.">
<polygon fill="white" stroke="black" points="337,-342.5 337,-361.5 477,-361.5 477,-342.5 337,-342.5"/>
<text text-anchor="middle" x="407" y="-349.5" font-family="Helvetica,sans-Serif" font-size="10.00">MbPgPipeThroughputTest</text>
</a>
</g>
</g>
<!-- Node5&#45;&gt;Node6 -->
<g id="edge5" class="edge">
<title>Node5&#45;&gt;Node6</title>
<path fill="none" stroke="midnightblue" d="M511.35,-352C500.06,-352 488.44,-352 477.26,-352"/>
<polygon fill="midnightblue" stroke="midnightblue" points="511.6,-355.5 521.6,-352 511.6,-348.5 511.6,-355.5"/>
</g>
<!-- Node8 -->
<g id="node8" class="node">
<title>Node8</title>
<g id="a_node8"><a xlink:href="ModbusWithPostgres_8c.html#a8c3906cc056f92e50b5a2bf468e5e221" target="_top" xlink:title="Modbus thread implementation.">
<polygon fill="white" stroke="black" points="374.5,-304.5 374.5,-323.5 439.5,-323.5 439.5,-304.5 374.5,-304.5"/>
<text text-anchor="middle" x="407" y="-311.5" font-family="Helvetica,sans-Serif" font-size="10.00">MbThread</text>
</a>
</g>
</g>
<!-- Node7&#45;&gt;Node8 -->
<g id="edge7" class="edge">
<title>Node7&#45;&gt;Node8</title>
<path fill="none" stroke="midnightblue" d="M550.5,-314C518.38,-314 470.9,-314 439.71,-314"/>
<polygon fill="midnightblue" stroke="midnightblue" points="550.76,-317.5 560.76,-314 550.76,-310.5 550.76,-317.5"/>
</g>
<!-- Node10 -->
<g id="node10" class="node">
<title>Node10</title>
<g id="a_node10"><a xlink:href="DataHandlers_2ModbusWithPostgres_2Postgres_8c.html#a5f5041cd700c888724519dddcc5413a0" target="_top" xlink:title="Main PostgreSQL operation loop.">
<polygon fill="white" stroke="black" points="230,-228.5 230,-247.5 277,-247.5 277,-228.5 230,-228.5"/>
<text text-anchor="middle" x="253.5" y="-235.5" font-family="Helvetica,sans-Serif" font-size="10.00">PgRun</text>
</a>
</g>
</g>
<!-- Node9&#45;&gt;Node10 -->
<g id="edge9" class="edge">
<title>Node9&#45;&gt;Node10</title>
<path fill="none" stroke="midnightblue" d="M370.98,-194.18C342.21,-205 302.3,-220.02 277.46,-229.36"/>
<polygon fill="midnightblue" stroke="midnightblue" points="372.52,-197.34 380.64,-190.54 370.05,-190.79 372.52,-197.34"/>
</g>
<!-- Node11 -->
<g id="node11" class="node">
<title>Node11</title>
<g id="a_node11"><a xlink:href="ModbusWithPostgres_8c.html#a74049820bc4d231783641b0bfdc3a723" target="_top" xlink:title="PostgreSQL thread implementation.">
<polygon fill="white" stroke="black" points="92.5,-228.5 92.5,-247.5 154.5,-247.5 154.5,-228.5 92.5,-228.5"/>
<text text-anchor="middle" x="123.5" y="-235.5" font-family="Helvetica,sans-Serif" font-size="10.00">PgThread</text>
</a>
</g>
</g>
<!-- Node10&#45;&gt;Node11 -->
<g id="edge10" class="edge">
<title>Node10&#45;&gt;Node11</title>
<path fill="none" stroke="midnightblue" d="M219.68,-238C199.6,-238 174.1,-238 154.55,-238"/>
<polygon fill="midnightblue" stroke="midnightblue" points="219.91,-241.5 229.91,-238 219.91,-234.5 219.91,-241.5"/>
</g>
<!-- Node12&#45;&gt;Node10 -->
<g id="edge12" class="edge">
<title>Node12&#45;&gt;Node10</title>
<path fill="none" stroke="midnightblue" d="M327.77,-247.19C309.19,-244.86 290.81,-242.55 277.11,-240.84"/>
<polygon fill="midnightblue" stroke="midnightblue" points="327.43,-250.67 337.78,-248.44 328.3,-243.73 327.43,-250.67"/>
</g>
<!-- Node14 -->
<g id="node14" class="node">
<title>Node14</title>
<g id="a_node14"><a xlink:href="ModbusTestServer_8c.html#a0b60204e0a9d1577d141cdc21367ac70" target="_top" xlink:title="Main Modbus Test Server routine.">
<polygon fill="white" stroke="black" points="344.5,-38.5 344.5,-57.5 469.5,-57.5 469.5,-38.5 344.5,-38.5"/>
<text text-anchor="middle" x="407" y="-45.5" font-family="Helvetica,sans-Serif" font-size="10.00">RunModbusTestServer</text>
</a>
</g>
</g>
<!-- Node13&#45;&gt;Node14 -->
<g id="edge14" class="edge">
<title>Node13&#45;&gt;Node14</title>
<path fill="none" stroke="midnightblue" d="M524.55,-48C506.85,-48 487.49,-48 469.71,-48"/>
<polygon fill="midnightblue" stroke="midnightblue" points="524.75,-51.5 534.75,-48 524.75,-44.5 524.75,-51.5"/>
</g>
<!-- Node15 -->
<g id="node15" class="node">
<title>Node15</title>
<g id="a_node15"><a xlink:href="ModbusWithPostgres_8c.html#a95ff30564606583a3d26294e2d8dbad1" target="_top" xlink:title="Modbus test server thread.">
<polygon fill="white" stroke="black" points="206,-38.5 206,-57.5 301,-57.5 301,-38.5 206,-38.5"/>
<text text-anchor="middle" x="253.5" y="-45.5" font-family="Helvetica,sans-Serif" font-size="10.00">MbPgTestServer</text>
</a>
</g>
</g>
<!-- Node14&#45;&gt;Node15 -->
<g id="edge15" class="edge">
<title>Node14&#45;&gt;Node15</title>
<path fill="none" stroke="midnightblue" d="M334.15,-48C322.95,-48 311.64,-48 301.19,-48"/>
<polygon fill="midnightblue" stroke="midnightblue" points="334.38,-51.5 344.38,-48 334.38,-44.5 334.38,-51.5"/>
</g>
<!-- Node17 -->
<g id="node17" class="node">
<title>Node17</title>
<g id="a_node17"><a xlink:href="ModbusWithPostgres_8c.html#a09939d6694d5620261fa04ffa2af1d11" target="_top" xlink:title="Creates thread group from configuration.">
<polygon fill="white" stroke="black" points="363,-0.5 363,-19.5 451,-19.5 451,-0.5 363,-0.5"/>
<text text-anchor="middle" x="407" y="-7.5" font-family="Helvetica,sans-Serif" font-size="10.00">MbPgCreateTg</text>
</a>
</g>
</g>
<!-- Node16&#45;&gt;Node17 -->
<g id="edge17" class="edge">
<title>Node16&#45;&gt;Node17</title>
<path fill="none" stroke="midnightblue" d="M530.51,-10C504.97,-10 474.96,-10 451.03,-10"/>
<polygon fill="midnightblue" stroke="midnightblue" points="530.79,-13.5 540.79,-10 530.79,-6.5 530.79,-13.5"/>
</g>
<!-- Node18 -->
<g id="node18" class="node">
<title>Node18</title>
<g id="a_node18"><a xlink:href="DataHandlers_8c.html#a9f7c5ff5d0edf87feed0ab9a70ddfcd4" target="_top" xlink:title="Creates a thread group based on configuration.">
<polygon fill="white" stroke="black" points="213.5,-0.5 213.5,-19.5 293.5,-19.5 293.5,-0.5 213.5,-0.5"/>
<text text-anchor="middle" x="253.5" y="-7.5" font-family="Helvetica,sans-Serif" font-size="10.00">DhsCreateTg</text>
</a>
</g>
</g>
<!-- Node17&#45;&gt;Node18 -->
<g id="edge18" class="edge">
<title>Node17&#45;&gt;Node18</title>
<path fill="none" stroke="midnightblue" d="M352.76,-10C333.33,-10 311.72,-10 293.73,-10"/>
<polygon fill="midnightblue" stroke="midnightblue" points="352.99,-13.5 362.99,-10 352.99,-6.5 352.99,-13.5"/>
</g>
<!-- Node19 -->
<g id="node19" class="node">
<title>Node19</title>
<g id="a_node19"><a xlink:href="Main_8c.html#aeeb5ef67af0eb14822aa17b0dc6f1be7" target="_top" xlink:title="Sets up the thread group manager from a configuration file.">
<polygon fill="white" stroke="black" points="77,-0.5 77,-19.5 170,-19.5 170,-0.5 77,-0.5"/>
<text text-anchor="middle" x="123.5" y="-7.5" font-family="Helvetica,sans-Serif" font-size="10.00">SetUpFromConf</text>
</a>
</g>
</g>
<!-- Node18&#45;&gt;Node19 -->
<g id="edge19" class="edge">
<title>Node18&#45;&gt;Node19</title>
<path fill="none" stroke="midnightblue" d="M203.19,-10C192.31,-10 180.82,-10 170.1,-10"/>
<polygon fill="midnightblue" stroke="midnightblue" points="203.4,-13.5 213.4,-10 203.4,-6.5 203.4,-13.5"/>
</g>
<!-- Node20 -->
<g id="node20" class="node">
<title>Node20</title>
<g id="a_node20"><a xlink:href="Main_8c.html#ae21eb8342793f7f8f0d5fda6b96c0803" target="_top" xlink:title="Main entry point for the Sensor Data Handler System.">
<polygon fill="white" stroke="black" points="0,-0.5 0,-19.5 41,-19.5 41,-0.5 0,-0.5"/>
<text text-anchor="middle" x="20.5" y="-7.5" font-family="Helvetica,sans-Serif" font-size="10.00">main</text>
</a>
</g>
</g>
<!-- Node19&#45;&gt;Node20 -->
<g id="edge20" class="edge">
<title>Node19&#45;&gt;Node20</title>
<path fill="none" stroke="midnightblue" d="M66.72,-10C57.53,-10 48.58,-10 41.09,-10"/>
<polygon fill="midnightblue" stroke="midnightblue" points="66.73,-13.5 76.73,-10 66.73,-6.5 66.73,-13.5"/>
</g>
<!-- Node21&#45;&gt;Node9 -->
<g id="edge22" class="edge">
<title>Node21&#45;&gt;Node9</title>
<path fill="none" stroke="midnightblue" d="M551.22,-196.37C521.56,-193.19 478.39,-188.56 447.21,-185.21"/>
<polygon fill="midnightblue" stroke="midnightblue" points="551.18,-199.89 561.5,-197.48 551.93,-192.93 551.18,-199.89"/>
</g>
<!-- Node22&#45;&gt;Node9 -->
<g id="edge24" class="edge">
<title>Node22&#45;&gt;Node9</title>
<path fill="none" stroke="midnightblue" d="M551.22,-165.63C521.56,-168.81 478.39,-173.44 447.21,-176.79"/>
<polygon fill="midnightblue" stroke="midnightblue" points="551.93,-169.07 561.5,-164.52 551.18,-162.11 551.93,-169.07"/>
</g>
<!-- Node23&#45;&gt;Node9 -->
<g id="edge26" class="edge">
<title>Node23&#45;&gt;Node9</title>
<path fill="none" stroke="midnightblue" d="M551.41,-132.2C539.24,-135.35 525.44,-139.12 513,-143 485.06,-151.72 453.55,-163.38 432.4,-171.47"/>
<polygon fill="midnightblue" stroke="midnightblue" points="552.35,-135.57 561.18,-129.72 550.62,-128.79 552.35,-135.57"/>
</g>
<!-- Node24&#45;&gt;Node9 -->
<g id="edge28" class="edge">
<title>Node24&#45;&gt;Node9</title>
<path fill="none" stroke="midnightblue" d="M528.66,-98.7C523.27,-100.55 517.97,-102.65 513,-105 474.97,-123.01 436.47,-155.26 418.48,-171.34"/>
<polygon fill="midnightblue" stroke="midnightblue" points="529.92,-101.97 538.4,-95.6 527.81,-95.29 529.92,-101.97"/>
</g>
</g>
</svg>
        <g id="navigator" transform="translate(0 0)" fill="#404254">
                <rect fill="#f2f5e9" fill-opacity="0.5" stroke="#606060" stroke-width=".5" x="0" y="0" width="60" height="60"/>
                <use id="zoomplus" xlink:href="#zoomPlus" x="17" y="9" onmousedown="handleZoom(evt,'in')"/>
                <use id="zoomminus" xlink:href="#zoomMin" x="42" y="9" onmousedown="handleZoom(evt,'out')"/>
                <use id="reset" xlink:href="#resetDef" x="30" y="36" onmousedown="handleReset()"/>
                <g id="arrowUp" xlink:href="#dirArrow" transform="translate(30 24)" onmousedown="handlePan(0,-1)">
                  <use xlink:href="#rim" fill="#404040">
                        <set attributeName="fill" to="#808080" begin="arrowUp.mouseover" end="arrowUp.mouseout"/>
                  </use>
                  <path fill="none" stroke="white" stroke-width="1.5" d="M0,-3.0v7 M-2.5,-0.5L0,-3.0L2.5,-0.5"/>
                </g>
                <g id="arrowRight" xlink:href="#dirArrow" transform="rotate(90) translate(36 -43)" onmousedown="handlePan(1,0)">
                  <use xlink:href="#rim" fill="#404040">
                        <set attributeName="fill" to="#808080" begin="arrowRight.mouseover" end="arrowRight.mouseout"/>
                  </use>
                  <path fill="none" stroke="white" stroke-width="1.5" d="M0,-3.0v7 M-2.5,-0.5L0,-3.0L2.5,-0.5"/>
                </g>
                <g id="arrowDown" xlink:href="#dirArrow" transform="rotate(180) translate(-30 -48)" onmousedown="handlePan(0,1)">
                  <use xlink:href="#rim" fill="#404040">
                        <set attributeName="fill" to="#808080" begin="arrowDown.mouseover" end="arrowDown.mouseout"/>
                  </use>
                  <path fill="none" stroke="white" stroke-width="1.5" d="M0,-3.0v7 M-2.5,-0.5L0,-3.0L2.5,-0.5"/>
                </g>
                <g id="arrowLeft" xlink:href="#dirArrow" transform="rotate(270) translate(-36 17)" onmousedown="handlePan(-1,0)">
                  <use xlink:href="#rim" fill="#404040">
                        <set attributeName="fill" to="#808080" begin="arrowLeft.mouseover" end="arrowLeft.mouseout"/>
                  </use>
                  <path fill="none" stroke="white" stroke-width="1.5" d="M0,-3.0v7 M-2.5,-0.5L0,-3.0L2.5,-0.5"/>
                </g>
        </g>
        <svg viewBox="0 0 15 15" width="100%" height="30px" preserveAspectRatio="xMaxYMin meet">
         <g id="arrow_out" transform="scale(0.3 0.3)">
          <a xlink:href="Sdb_8h_ac5c7c1054a5f2110db33fbaf02ee3875_icgraph_org.svg" target="_base">
           <rect id="button" ry="5" rx="5" y="6" x="6" height="38" width="38"
                fill="#f2f5e9" fill-opacity="0.5" stroke="#606060" stroke-width="1.0"/>
           <path id="arrow"
             d="M 11.500037,31.436501 C 11.940474,20.09759 22.043105,11.32322 32.158766,21.979434 L 37.068811,17.246167 C 37.068811,17.246167 37.088388,32 37.088388,32 L 22.160133,31.978069 C 22.160133,31.978069 26.997745,27.140456 26.997745,27.140456 C 18.528582,18.264221 13.291696,25.230495 11.500037,31.436501 z"
             style="fill:#404040;"/>
          </a>
         </g>
        </svg>
</svg>
