<?xml version="1.0" encoding="UTF-8" standalone="no"?>
<!DOCTYPE svg PUBLIC "-//W3C//DTD SVG 1.1//EN"
 "http://www.w3.org/Graphics/SVG/1.1/DTD/svg11.dtd">
<!-- Generated by graphviz version 2.43.0 (0)
 -->
<!-- Title: SdbArenaClear Pages: 1 -->
<svg width="595pt" height="66pt"
 viewBox="0.00 0.00 595.00 66.00" xmlns="http://www.w3.org/2000/svg" xmlns:xlink="http://www.w3.org/1999/xlink">
<g id="graph0" class="graph" transform="scale(1 1) rotate(0) translate(4 62)">
<title>SdbArenaClear</title>
<polygon fill="white" stroke="transparent" points="-4,4 -4,-62 591,-62 591,4 -4,4"/>
<!-- Node1 -->
<g id="node1" class="node">
<title>Node1</title>
<g id="a_node1"><a xlink:title=" ">
<polygon fill="#bfbfbf" stroke="black" points="498,-19.5 498,-38.5 587,-38.5 587,-19.5 498,-19.5"/>
<text text-anchor="middle" x="542.5" y="-26.5" font-family="Helvetica,sans-Serif" font-size="10.00">SdbArenaClear</text>
</a>
</g>
</g>
<!-- Node2 -->
<g id="node2" class="node">
<title>Node2</title>
<g id="a_node2"><a xlink:href="SensorDataPipe_8c.html#ad24e8341d323d221a2cfae80ae7d0508" target="_top" xlink:title="Flush the current write buffer.">
<polygon fill="white" stroke="black" points="363,-38.5 363,-57.5 439,-57.5 439,-38.5 363,-38.5"/>
<text text-anchor="middle" x="401" y="-45.5" font-family="Helvetica,sans-Serif" font-size="10.00">SdPipeFlush</text>
</a>
</g>
</g>
<!-- Node1&#45;&gt;Node2 -->
<g id="edge1" class="edge">
<title>Node1&#45;&gt;Node2</title>
<path fill="none" stroke="midnightblue" d="M487.79,-36.31C471.5,-38.53 453.97,-40.92 439.03,-42.96"/>
<polygon fill="midnightblue" stroke="midnightblue" points="488.31,-39.78 497.74,-34.96 487.36,-32.84 488.31,-39.78"/>
</g>
<!-- Node7 -->
<g id="node7" class="node">
<title>Node7</title>
<g id="a_node7"><a xlink:href="SensorDataPipe_8c.html#a2c82e4869caac3347107efcc1b791db4" target="_top" xlink:title="Acquire Write Buffer Arena.">
<polygon fill="white" stroke="black" points="340,-0.5 340,-19.5 462,-19.5 462,-0.5 340,-0.5"/>
<text text-anchor="middle" x="401" y="-7.5" font-family="Helvetica,sans-Serif" font-size="10.00">SdPipeGetWriteBuffer</text>
</a>
</g>
</g>
<!-- Node1&#45;&gt;Node7 -->
<g id="edge6" class="edge">
<title>Node1&#45;&gt;Node7</title>
<path fill="none" stroke="midnightblue" d="M487.74,-21.68C479.39,-20.54 470.7,-19.36 462.21,-18.2"/>
<polygon fill="midnightblue" stroke="midnightblue" points="487.36,-25.16 497.74,-23.04 488.31,-18.22 487.36,-25.16"/>
</g>
<!-- Node3 -->
<g id="node3" class="node">
<title>Node3</title>
<g id="a_node3"><a xlink:href="DataHandlers_2ModbusWithPostgres_2Modbus_8c.html#a1660e1b6915b7758a7708e89c8445cbf" target="_top" xlink:title="Implements throughput testing for Modbus data pipe.">
<polygon fill="white" stroke="black" points="176,-38.5 176,-57.5 304,-57.5 304,-38.5 176,-38.5"/>
<text text-anchor="middle" x="240" y="-45.5" font-family="Helvetica,sans-Serif" font-size="10.00">MbPipeThroughputTest</text>
</a>
</g>
</g>
<!-- Node2&#45;&gt;Node3 -->
<g id="edge2" class="edge">
<title>Node2&#45;&gt;Node3</title>
<path fill="none" stroke="midnightblue" d="M352.54,-48C337.36,-48 320.3,-48 304.18,-48"/>
<polygon fill="midnightblue" stroke="midnightblue" points="352.72,-51.5 362.72,-48 352.72,-44.5 352.72,-51.5"/>
</g>
<!-- Node5 -->
<g id="node5" class="node">
<title>Node5</title>
<g id="a_node5"><a xlink:href="DataHandlers_2ModbusWithPostgres_2Modbus_8c.html#ac42f810b60d139ab2f82c4146710d721" target="_top" xlink:title="Implements main Modbus thread loop.">
<polygon fill="white" stroke="black" points="215,-0.5 215,-19.5 265,-19.5 265,-0.5 215,-0.5"/>
<text text-anchor="middle" x="240" y="-7.5" font-family="Helvetica,sans-Serif" font-size="10.00">MbRun</text>
</a>
</g>
</g>
<!-- Node2&#45;&gt;Node5 -->
<g id="edge4" class="edge">
<title>Node2&#45;&gt;Node5</title>
<path fill="none" stroke="midnightblue" d="M352.85,-36.73C324.04,-29.85 288.39,-21.33 265.2,-15.78"/>
<polygon fill="midnightblue" stroke="midnightblue" points="352.18,-40.17 362.72,-39.09 353.81,-33.36 352.18,-40.17"/>
</g>
<!-- Node4 -->
<g id="node4" class="node">
<title>Node4</title>
<g id="a_node4"><a xlink:href="ModbusWithPostgres_8c.html#a4908768aa1a5e0d60263a772b69e593b" target="_top" xlink:title="Modbus data pipe throughput test.">
<polygon fill="white" stroke="black" points="0,-38.5 0,-57.5 140,-57.5 140,-38.5 0,-38.5"/>
<text text-anchor="middle" x="70" y="-45.5" font-family="Helvetica,sans-Serif" font-size="10.00">MbPgPipeThroughputTest</text>
</a>
</g>
</g>
<!-- Node3&#45;&gt;Node4 -->
<g id="edge3" class="edge">
<title>Node3&#45;&gt;Node4</title>
<path fill="none" stroke="midnightblue" d="M165.95,-48C157.34,-48 148.57,-48 140.02,-48"/>
<polygon fill="midnightblue" stroke="midnightblue" points="165.97,-51.5 175.97,-48 165.96,-44.5 165.97,-51.5"/>
</g>
<!-- Node6 -->
<g id="node6" class="node">
<title>Node6</title>
<g id="a_node6"><a xlink:href="ModbusWithPostgres_8c.html#a8c3906cc056f92e50b5a2bf468e5e221" target="_top" xlink:title="Modbus thread implementation.">
<polygon fill="white" stroke="black" points="37.5,-0.5 37.5,-19.5 102.5,-19.5 102.5,-0.5 37.5,-0.5"/>
<text text-anchor="middle" x="70" y="-7.5" font-family="Helvetica,sans-Serif" font-size="10.00">MbThread</text>
</a>
</g>
</g>
<!-- Node5&#45;&gt;Node6 -->
<g id="edge5" class="edge">
<title>Node5&#45;&gt;Node6</title>
<path fill="none" stroke="midnightblue" d="M204.57,-10C174.7,-10 131.83,-10 102.77,-10"/>
<polygon fill="midnightblue" stroke="midnightblue" points="204.93,-13.5 214.93,-10 204.93,-6.5 204.93,-13.5"/>
</g>
<!-- Node7&#45;&gt;Node3 -->
<g id="edge7" class="edge">
<title>Node7&#45;&gt;Node3</title>
<path fill="none" stroke="midnightblue" d="M349.92,-21.97C327.64,-27.29 301.77,-33.48 280.83,-38.48"/>
<polygon fill="midnightblue" stroke="midnightblue" points="350.97,-25.32 359.88,-19.59 349.34,-18.51 350.97,-25.32"/>
</g>
<!-- Node7&#45;&gt;Node5 -->
<g id="edge8" class="edge">
<title>Node7&#45;&gt;Node5</title>
<path fill="none" stroke="midnightblue" d="M329.7,-10C306.54,-10 282.32,-10 265.05,-10"/>
<polygon fill="midnightblue" stroke="midnightblue" points="329.89,-13.5 339.89,-10 329.89,-6.5 329.89,-13.5"/>
</g>
</g>
</svg>
