<?xml version="1.0" encoding="UTF-8" standalone="no"?>
<!DOCTYPE svg PUBLIC "-//W3C//DTD SVG 1.1//EN"
 "http://www.w3.org/Graphics/SVG/1.1/DTD/svg11.dtd">
<!-- Generated by graphviz version 2.43.0 (0)
 -->
<!-- Title: SdbMemcpy Pages: 1 -->
<svg width="780pt" height="474pt"
 viewBox="0.00 0.00 780.00 474.00" xmlns="http://www.w3.org/2000/svg" xmlns:xlink="http://www.w3.org/1999/xlink">
<g id="graph0" class="graph" transform="scale(1 1) rotate(0) translate(4 470)">
<title>SdbMemcpy</title>
<!-- Node1 -->
<g id="Node000001" class="node">
<title>Node1</title>
<g id="a_Node000001"><a xlink:title=" ">
<polygon fill="#999999" stroke="#666666" points="772,-242 695,-242 695,-223 772,-223 772,-242"/>
<text text-anchor="middle" x="733.5" y="-230" font-family="Helvetica,sans-Serif" font-size="10.00">SdbMemcpy</text>
</a>
</g>
</g>
<!-- Node2 -->
<g id="Node000002" class="node">
<title>Node2</title>
<g id="a_Node000002"><a xlink:href="ModbusTestServer_8c.html#a627a901bdd761202cecf630a1004a68f" target="_top" xlink:title="Constructs a Modbus TCP frame.">
<polygon fill="white" stroke="#666666" points="659,-466 513,-466 513,-447 659,-447 659,-466"/>
<text text-anchor="middle" x="586" y="-454" font-family="Helvetica,sans-Serif" font-size="10.00">GenerateModbusTcpFrame</text>
</a>
</g>
</g>
<!-- Node1&#45;&gt;Node2 -->
<g id="edge1_Node000001_Node000002" class="edge">
<title>Node1&#45;&gt;Node2</title>
<g id="a_edge1_Node000001_Node000002"><a xlink:title=" ">
<path fill="none" stroke="#63b8ff" d="M731.39,-252.57C728,-293.81 714.28,-388.37 659,-438.5 655.28,-441.88 651.02,-444.64 646.47,-446.9"/>
<polygon fill="#63b8ff" stroke="#63b8ff" points="734.9,-252.66 732.1,-242.44 727.91,-252.17 734.9,-252.66"/>
</a>
</g>
</g>
<!-- Node3 -->
<g id="Node000003" class="node">
<title>Node3</title>
<g id="a_Node000003"><a xlink:href="TestDataGenerator_8c.html#a840291bc02cba5474a4cb46a9b9566fe" target="_top" xlink:title=" ">
<polygon fill="white" stroke="#666666" points="606.5,-429 565.5,-429 565.5,-410 606.5,-410 606.5,-429"/>
<text text-anchor="middle" x="586" y="-417" font-family="Helvetica,sans-Serif" font-size="10.00">main</text>
</a>
</g>
</g>
<!-- Node1&#45;&gt;Node3 -->
<g id="edge2_Node000001_Node000003" class="edge">
<title>Node1&#45;&gt;Node3</title>
<g id="a_edge2_Node000001_Node000003"><a xlink:title=" ">
<path fill="none" stroke="#63b8ff" d="M729.65,-252.35C723.48,-287.84 705.48,-362.13 659,-401.5 644.35,-413.91 622.36,-417.97 606.54,-419.2"/>
<polygon fill="#63b8ff" stroke="#63b8ff" points="733.14,-252.71 731.26,-242.29 726.23,-251.61 733.14,-252.71"/>
</a>
</g>
</g>
<!-- Node4 -->
<g id="Node000004" class="node">
<title>Node4</title>
<g id="a_Node000004"><a xlink:href="TestDataGenerator_8c.html#a412f28499bccd41acfa4e3847d132b94" target="_top" xlink:title=" ">
<polygon fill="white" stroke="#666666" points="650,-392 522,-392 522,-373 650,-373 650,-392"/>
<text text-anchor="middle" x="586" y="-380" font-family="Helvetica,sans-Serif" font-size="10.00">MakeModbusTcpFrame</text>
</a>
</g>
</g>
<!-- Node1&#45;&gt;Node4 -->
<g id="edge3_Node000001_Node000004" class="edge">
<title>Node1&#45;&gt;Node4</title>
<g id="a_edge3_Node000001_Node000004"><a xlink:title=" ">
<path fill="none" stroke="#63b8ff" d="M727.09,-252.04C718,-281.13 696.85,-335.5 659,-364.5 654.6,-367.87 649.65,-370.62 644.46,-372.85"/>
<polygon fill="#63b8ff" stroke="#63b8ff" points="730.51,-252.82 729.99,-242.23 723.8,-250.83 730.51,-252.82"/>
</a>
</g>
</g>
<!-- Node5 -->
<g id="Node000005" class="node">
<title>Node5</title>
<g id="a_Node000005"><a xlink:href="DataHandlers_2ModbusWithPostgres_2Modbus_8c.html#a1660e1b6915b7758a7708e89c8445cbf" target="_top" xlink:title="Implements throughput testing for Modbus data pipe.">
<polygon fill="white" stroke="#666666" points="650,-355 522,-355 522,-336 650,-336 650,-355"/>
<text text-anchor="middle" x="586" y="-343" font-family="Helvetica,sans-Serif" font-size="10.00">MbPipeThroughputTest</text>
</a>
</g>
</g>
<!-- Node1&#45;&gt;Node5 -->
<g id="edge4_Node000001_Node000005" class="edge">
<title>Node1&#45;&gt;Node5</title>
<g id="a_edge4_Node000001_Node000005"><a xlink:title=" ">
<path fill="none" stroke="#63b8ff" d="M723.23,-250.91C711.34,-272.59 688.67,-308.12 659,-327.5 653.71,-330.95 647.81,-333.74 641.73,-336"/>
<polygon fill="#63b8ff" stroke="#63b8ff" points="726.35,-252.5 727.92,-242.03 720.16,-249.24 726.35,-252.5"/>
</a>
</g>
</g>
<!-- Node7 -->
<g id="Node000007" class="node">
<title>Node7</title>
<g id="a_Node000007"><a xlink:href="DataHandlers_2ModbusWithPostgres_2Modbus_8c.html#ac42f810b60d139ab2f82c4146710d721" target="_top" xlink:title="Implements main Modbus thread loop.">
<polygon fill="white" stroke="#666666" points="611,-318 561,-318 561,-299 611,-299 611,-318"/>
<text text-anchor="middle" x="586" y="-306" font-family="Helvetica,sans-Serif" font-size="10.00">MbRun</text>
</a>
</g>
</g>
<!-- Node1&#45;&gt;Node7 -->
<g id="edge6_Node000001_Node000007" class="edge">
<title>Node1&#45;&gt;Node7</title>
<g id="a_edge6_Node000001_Node000007"><a xlink:title=" ">
<path fill="none" stroke="#63b8ff" d="M713.17,-248.58C698.9,-259.83 678.63,-274.56 659,-284.5 643.72,-292.24 625.39,-298.31 611.05,-302.4"/>
<polygon fill="#63b8ff" stroke="#63b8ff" points="715.62,-251.1 721.21,-242.1 711.23,-245.64 715.62,-251.1"/>
</a>
</g>
</g>
<!-- Node9 -->
<g id="Node000009" class="node">
<title>Node9</title>
<g id="a_Node000009"><a xlink:href="DatabaseSystems_2Postgres_8c.html#aa7c5ed35f820c0efcccbb4e2f010a980" target="_top" xlink:title="Inserts data into PostgreSQL table using COPY protocol.">
<polygon fill="white" stroke="#666666" points="447,-181 367,-181 367,-162 447,-162 447,-181"/>
<text text-anchor="middle" x="407" y="-169" font-family="Helvetica,sans-Serif" font-size="10.00">PgInsertData</text>
</a>
</g>
</g>
<!-- Node1&#45;&gt;Node9 -->
<g id="edge8_Node000001_Node000009" class="edge">
<title>Node1&#45;&gt;Node9</title>
<g id="a_edge8_Node000001_Node000009"><a xlink:title=" ">
<path fill="none" stroke="#63b8ff" d="M684.64,-232.38C639.74,-231.33 571,-227.29 513,-213.5 481.87,-206.1 447.81,-191.09 427.18,-181.17"/>
<polygon fill="#63b8ff" stroke="#63b8ff" points="684.62,-235.88 694.68,-232.58 684.75,-228.88 684.62,-235.88"/>
</a>
</g>
</g>
<!-- Node12 -->
<g id="Node000012" class="node">
<title>Node12</title>
<g id="a_Node000012"><a xlink:href="Time_8c.html#ab96009a36f9428aa5cb1df4c18e7b50a" target="_top" xlink:title="Calculate Time Difference Between Timestamps.">
<polygon fill="white" stroke="#666666" points="476,-252 338,-252 338,-233 476,-233 476,-252"/>
<text text-anchor="middle" x="407" y="-240" font-family="Helvetica,sans-Serif" font-size="10.00">SdbTimePrintSpecDiffWT</text>
</a>
</g>
</g>
<!-- Node1&#45;&gt;Node12 -->
<g id="edge11_Node000001_Node000012" class="edge">
<title>Node1&#45;&gt;Node12</title>
<g id="a_edge11_Node000001_Node000012"><a xlink:title=" ">
<path fill="none" stroke="#63b8ff" d="M685.01,-242.9C676.39,-244.4 667.46,-245.7 659,-246.5 597.28,-252.33 526.65,-250.44 476.07,-247.62"/>
<polygon fill="#63b8ff" stroke="#63b8ff" points="685.73,-246.32 694.93,-241.07 684.46,-239.44 685.73,-246.32"/>
</a>
</g>
</g>
<!-- Node13 -->
<g id="Node000013" class="node">
<title>Node13</title>
<g id="a_Node000013"><a xlink:href="ModbusTestServer_8c.html#a562277af51f78c8939feeb4d33925307" target="_top" xlink:title="Sends Modbus data over a socket.">
<polygon fill="white" stroke="#666666" points="637,-56 535,-56 535,-37 637,-37 637,-56"/>
<text text-anchor="middle" x="586" y="-44" font-family="Helvetica,sans-Serif" font-size="10.00">SendModbusData</text>
</a>
</g>
</g>
<!-- Node1&#45;&gt;Node13 -->
<g id="edge13_Node000001_Node000013" class="edge">
<title>Node1&#45;&gt;Node13</title>
<g id="a_edge13_Node000001_Node000013"><a xlink:title=" ">
<path fill="none" stroke="#63b8ff" d="M729.53,-212.94C723.16,-177.95 704.85,-104.68 659,-65.5 652.71,-60.13 645.06,-56.25 637.14,-53.46"/>
<polygon fill="#63b8ff" stroke="#63b8ff" points="726.09,-213.58 731.2,-222.86 732.99,-212.42 726.09,-213.58"/>
</a>
</g>
</g>
<!-- Node16 -->
<g id="Node000016" class="node">
<title>Node16</title>
<g id="a_Node000016"><a xlink:href="ThreadGroup_8c.html#a7b3544a615a6e4b53ca964334bc2a685" target="_top" xlink:title="Create a Thread Group.">
<polygon fill="white" stroke="#666666" points="631,-19 541,-19 541,0 631,0 631,-19"/>
<text text-anchor="middle" x="586" y="-7" font-family="Helvetica,sans-Serif" font-size="10.00">TgCreateGroup</text>
</a>
</g>
</g>
<!-- Node1&#45;&gt;Node16 -->
<g id="edge16_Node000001_Node000016" class="edge">
<title>Node1&#45;&gt;Node16</title>
<g id="a_edge16_Node000001_Node000016"><a xlink:title=" ">
<path fill="none" stroke="#63b8ff" d="M731.36,-212.52C727.91,-171.48 714.08,-77.37 659,-27.5 651.26,-20.5 641.21,-16.12 631.09,-13.41"/>
<polygon fill="#63b8ff" stroke="#63b8ff" points="727.88,-212.88 732.09,-222.61 734.86,-212.38 727.88,-212.88"/>
</a>
</g>
</g>
<!-- Node21 -->
<g id="Node000021" class="node">
<title>Node21</title>
<g id="a_Node000021"><a xlink:href="DatabaseSystems_2Postgres_8c.html#a9b90329e0cf4324fbe9fcd6b22233e34" target="_top" xlink:title="Writes a 2&#45;byte value in network byte order.">
<polygon fill="white" stroke="#666666" points="610.5,-204 561.5,-204 561.5,-185 610.5,-185 610.5,-204"/>
<text text-anchor="middle" x="586" y="-192" font-family="Helvetica,sans-Serif" font-size="10.00">Write2</text>
</a>
</g>
</g>
<!-- Node1&#45;&gt;Node21 -->
<g id="edge21_Node000001_Node000021" class="edge">
<title>Node1&#45;&gt;Node21</title>
<g id="a_edge21_Node000001_Node000021"><a xlink:title=" ">
<path fill="none" stroke="#63b8ff" d="M685.78,-220.3C660.83,-213.78 631.19,-206.04 610.92,-200.75"/>
<polygon fill="#63b8ff" stroke="#63b8ff" points="685.22,-223.77 695.78,-222.91 686.99,-217 685.22,-223.77"/>
</a>
</g>
</g>
<!-- Node22 -->
<g id="Node000022" class="node">
<title>Node22</title>
<g id="a_Node000022"><a xlink:href="DatabaseSystems_2Postgres_8c.html#ab8781f83020464aef1cf9779f072a37f" target="_top" xlink:title=" ">
<polygon fill="white" stroke="#666666" points="610.5,-167 561.5,-167 561.5,-148 610.5,-148 610.5,-167"/>
<text text-anchor="middle" x="586" y="-155" font-family="Helvetica,sans-Serif" font-size="10.00">Write4</text>
</a>
</g>
</g>
<!-- Node1&#45;&gt;Node22 -->
<g id="edge23_Node000001_Node000022" class="edge">
<title>Node1&#45;&gt;Node22</title>
<g id="a_edge23_Node000001_Node000022"><a xlink:title=" ">
<path fill="none" stroke="#63b8ff" d="M714.95,-215.92C700.83,-203.43 679.96,-186.74 659,-176.5 643.67,-169.01 625,-164.19 610.52,-161.28"/>
<polygon fill="#63b8ff" stroke="#63b8ff" points="712.67,-218.58 722.43,-222.72 717.38,-213.4 712.67,-218.58"/>
</a>
</g>
</g>
<!-- Node23 -->
<g id="Node000023" class="node">
<title>Node23</title>
<g id="a_Node000023"><a xlink:href="DatabaseSystems_2Postgres_8c.html#af07f5759e9e25a2b5a8569ab296897e8" target="_top" xlink:title=" ">
<polygon fill="white" stroke="#666666" points="610.5,-130 561.5,-130 561.5,-111 610.5,-111 610.5,-130"/>
<text text-anchor="middle" x="586" y="-118" font-family="Helvetica,sans-Serif" font-size="10.00">Write8</text>
</a>
</g>
</g>
<!-- Node1&#45;&gt;Node23 -->
<g id="edge25_Node000001_Node000023" class="edge">
<title>Node1&#45;&gt;Node23</title>
<g id="a_edge25_Node000001_Node000023"><a xlink:title=" ">
<path fill="none" stroke="#63b8ff" d="M722.74,-213.93C710.63,-192.72 687.98,-158.49 659,-139.5 644.51,-130.01 625.46,-125.25 610.6,-122.86"/>
<polygon fill="#63b8ff" stroke="#63b8ff" points="719.8,-215.85 727.69,-222.92 725.93,-212.47 719.8,-215.85"/>
</a>
</g>
</g>
<!-- Node24 -->
<g id="Node000024" class="node">
<title>Node24</title>
<g id="a_Node000024"><a xlink:href="DatabaseSystems_2Postgres_8c.html#a8be5b0d3a8c5e012cae2737b1ffa7bff" target="_top" xlink:title=" ">
<polygon fill="white" stroke="#666666" points="635,-93 537,-93 537,-74 635,-74 635,-93"/>
<text text-anchor="middle" x="586" y="-81" font-family="Helvetica,sans-Serif" font-size="10.00">WriteTimestamp</text>
</a>
</g>
</g>
<!-- Node1&#45;&gt;Node24 -->
<g id="edge27_Node000001_Node000024" class="edge">
<title>Node1&#45;&gt;Node24</title>
<g id="a_edge27_Node000001_Node000024"><a xlink:title=" ">
<path fill="none" stroke="#63b8ff" d="M726.96,-213.31C717.7,-184.74 696.32,-131.29 659,-102.5 652.04,-97.13 643.7,-93.27 635.2,-90.5"/>
<polygon fill="#63b8ff" stroke="#63b8ff" points="723.63,-214.42 729.92,-222.94 730.32,-212.36 723.63,-214.42"/>
</a>
</g>
</g>
<!-- Node6 -->
<g id="Node000006" class="node">
<title>Node6</title>
<g id="a_Node000006"><a xlink:href="ModbusWithPostgres_8c.html#ab562b331ef04d3d016b626018e9c30b1" target="_top" xlink:title="Modbus data pipe throughput test.">
<polygon fill="white" stroke="#666666" points="477,-355 337,-355 337,-336 477,-336 477,-355"/>
<text text-anchor="middle" x="407" y="-343" font-family="Helvetica,sans-Serif" font-size="10.00">MbPgPipeThroughputTest</text>
</a>
</g>
</g>
<!-- Node5&#45;&gt;Node6 -->
<g id="edge5_Node000005_Node000006" class="edge">
<title>Node5&#45;&gt;Node6</title>
<g id="a_edge5_Node000005_Node000006"><a xlink:title=" ">
<path fill="none" stroke="#63b8ff" d="M511.35,-345.5C500.06,-345.5 488.44,-345.5 477.26,-345.5"/>
<polygon fill="#63b8ff" stroke="#63b8ff" points="511.6,-349 521.6,-345.5 511.6,-342 511.6,-349"/>
</a>
</g>
</g>
<!-- Node8 -->
<g id="Node000008" class="node">
<title>Node8</title>
<g id="a_Node000008"><a xlink:href="ModbusWithPostgres_8c.html#ad6cc1c50bbcd2e6f933e8f2a82990c2e" target="_top" xlink:title="Modbus thread implementation.">
<polygon fill="white" stroke="#666666" points="439.5,-318 374.5,-318 374.5,-299 439.5,-299 439.5,-318"/>
<text text-anchor="middle" x="407" y="-306" font-family="Helvetica,sans-Serif" font-size="10.00">MbThread</text>
</a>
</g>
</g>
<!-- Node7&#45;&gt;Node8 -->
<g id="edge7_Node000007_Node000008" class="edge">
<title>Node7&#45;&gt;Node8</title>
<g id="a_edge7_Node000007_Node000008"><a xlink:title=" ">
<path fill="none" stroke="#63b8ff" d="M550.5,-308.5C518.38,-308.5 470.9,-308.5 439.71,-308.5"/>
<polygon fill="#63b8ff" stroke="#63b8ff" points="550.76,-312 560.76,-308.5 550.76,-305 550.76,-312"/>
</a>
</g>
</g>
<!-- Node10 -->
<g id="Node000010" class="node">
<title>Node10</title>
<g id="a_Node000010"><a xlink:href="DataHandlers_2ModbusWithPostgres_2Postgres_8c.html#a5f5041cd700c888724519dddcc5413a0" target="_top" xlink:title="Main PostgreSQL operation loop.">
<polygon fill="white" stroke="#666666" points="277,-237 230,-237 230,-218 277,-218 277,-237"/>
<text text-anchor="middle" x="253.5" y="-225" font-family="Helvetica,sans-Serif" font-size="10.00">PgRun</text>
</a>
</g>
</g>
<!-- Node9&#45;&gt;Node10 -->
<g id="edge9_Node000009_Node000010" class="edge">
<title>Node9&#45;&gt;Node10</title>
<g id="a_edge9_Node000009_Node000010"><a xlink:title=" ">
<path fill="none" stroke="#63b8ff" d="M370.27,-184.71C341.47,-195.35 301.86,-209.99 277.24,-219.09"/>
<polygon fill="#63b8ff" stroke="#63b8ff" points="371.79,-187.88 379.96,-181.13 369.36,-181.31 371.79,-187.88"/>
</a>
</g>
</g>
<!-- Node11 -->
<g id="Node000011" class="node">
<title>Node11</title>
<g id="a_Node000011"><a xlink:href="ModbusWithPostgres_8c.html#a93270e4da545537675777f30acea6b6b" target="_top" xlink:title="PostgreSQL thread implementation.">
<polygon fill="white" stroke="#666666" points="154.5,-237 92.5,-237 92.5,-218 154.5,-218 154.5,-237"/>
<text text-anchor="middle" x="123.5" y="-225" font-family="Helvetica,sans-Serif" font-size="10.00">PgThread</text>
</a>
</g>
</g>
<!-- Node10&#45;&gt;Node11 -->
<g id="edge10_Node000010_Node000011" class="edge">
<title>Node10&#45;&gt;Node11</title>
<g id="a_edge10_Node000010_Node000011"><a xlink:title=" ">
<path fill="none" stroke="#63b8ff" d="M219.68,-227.5C199.6,-227.5 174.1,-227.5 154.55,-227.5"/>
<polygon fill="#63b8ff" stroke="#63b8ff" points="219.91,-231 229.91,-227.5 219.91,-224 219.91,-231"/>
</a>
</g>
</g>
<!-- Node12&#45;&gt;Node10 -->
<g id="edge12_Node000012_Node000010" class="edge">
<title>Node12&#45;&gt;Node10</title>
<g id="a_edge12_Node000012_Node000010"><a xlink:title=" ">
<path fill="none" stroke="#63b8ff" d="M327.77,-234.75C309.19,-232.92 290.81,-231.1 277.11,-229.74"/>
<polygon fill="#63b8ff" stroke="#63b8ff" points="327.49,-238.24 337.78,-235.75 328.18,-231.28 327.49,-238.24"/>
</a>
</g>
</g>
<!-- Node14 -->
<g id="Node000014" class="node">
<title>Node14</title>
<g id="a_Node000014"><a xlink:href="ModbusTestServer_8c.html#a0b60204e0a9d1577d141cdc21367ac70" target="_top" xlink:title="Main Modbus Test Server routine.">
<polygon fill="white" stroke="#666666" points="469.5,-56 344.5,-56 344.5,-37 469.5,-37 469.5,-56"/>
<text text-anchor="middle" x="407" y="-44" font-family="Helvetica,sans-Serif" font-size="10.00">RunModbusTestServer</text>
</a>
</g>
</g>
<!-- Node13&#45;&gt;Node14 -->
<g id="edge14_Node000013_Node000014" class="edge">
<title>Node13&#45;&gt;Node14</title>
<g id="a_edge14_Node000013_Node000014"><a xlink:title=" ">
<path fill="none" stroke="#63b8ff" d="M524.55,-46.5C506.85,-46.5 487.49,-46.5 469.71,-46.5"/>
<polygon fill="#63b8ff" stroke="#63b8ff" points="524.75,-50 534.75,-46.5 524.75,-43 524.75,-50"/>
</a>
</g>
</g>
<!-- Node15 -->
<g id="Node000015" class="node">
<title>Node15</title>
<g id="a_Node000015"><a xlink:href="ModbusWithPostgres_8c.html#a1ccbc327d2cdd77f97741b4e0f23bc54" target="_top" xlink:title="Modbus test server thread.">
<polygon fill="white" stroke="#666666" points="301,-56 206,-56 206,-37 301,-37 301,-56"/>
<text text-anchor="middle" x="253.5" y="-44" font-family="Helvetica,sans-Serif" font-size="10.00">MbPgTestServer</text>
</a>
</g>
</g>
<!-- Node14&#45;&gt;Node15 -->
<g id="edge15_Node000014_Node000015" class="edge">
<title>Node14&#45;&gt;Node15</title>
<g id="a_edge15_Node000014_Node000015"><a xlink:title=" ">
<path fill="none" stroke="#63b8ff" d="M334.15,-46.5C322.95,-46.5 311.64,-46.5 301.19,-46.5"/>
<polygon fill="#63b8ff" stroke="#63b8ff" points="334.38,-50 344.38,-46.5 334.38,-43 334.38,-50"/>
</a>
</g>
</g>
<!-- Node17 -->
<g id="Node000017" class="node">
<title>Node17</title>
<g id="a_Node000017"><a xlink:href="ModbusWithPostgres_8c.html#ad38832a9ba1f0fa4494d337d4bee578f" target="_top" xlink:title="Creates thread group from configuration.">
<polygon fill="white" stroke="#666666" points="451,-19 363,-19 363,0 451,0 451,-19"/>
<text text-anchor="middle" x="407" y="-7" font-family="Helvetica,sans-Serif" font-size="10.00">MbPgCreateTg</text>
</a>
</g>
</g>
<!-- Node16&#45;&gt;Node17 -->
<g id="edge17_Node000016_Node000017" class="edge">
<title>Node16&#45;&gt;Node17</title>
<g id="a_edge17_Node000016_Node000017"><a xlink:title=" ">
<path fill="none" stroke="#63b8ff" d="M530.51,-9.5C504.97,-9.5 474.96,-9.5 451.03,-9.5"/>
<polygon fill="#63b8ff" stroke="#63b8ff" points="530.79,-13 540.79,-9.5 530.79,-6 530.79,-13"/>
</a>
</g>
</g>
<!-- Node18 -->
<g id="Node000018" class="node">
<title>Node18</title>
<g id="a_Node000018"><a xlink:href="DataHandlers_8c.html#a1045578fac74308a6c876c8b06299b50" target="_top" xlink:title="Creates a thread group based on configuration.">
<polygon fill="white" stroke="#666666" points="293.5,-19 213.5,-19 213.5,0 293.5,0 293.5,-19"/>
<text text-anchor="middle" x="253.5" y="-7" font-family="Helvetica,sans-Serif" font-size="10.00">DhsCreateTg</text>
</a>
</g>
</g>
<!-- Node17&#45;&gt;Node18 -->
<g id="edge18_Node000017_Node000018" class="edge">
<title>Node17&#45;&gt;Node18</title>
<g id="a_edge18_Node000017_Node000018"><a xlink:title=" ">
<path fill="none" stroke="#63b8ff" d="M352.76,-9.5C333.33,-9.5 311.72,-9.5 293.73,-9.5"/>
<polygon fill="#63b8ff" stroke="#63b8ff" points="352.99,-13 362.99,-9.5 352.99,-6 352.99,-13"/>
</a>
</g>
</g>
<!-- Node19 -->
<g id="Node000019" class="node">
<title>Node19</title>
<g id="a_Node000019"><a xlink:href="Main_8c.html#aeeb5ef67af0eb14822aa17b0dc6f1be7" target="_top" xlink:title="Sets up the thread group manager from a configuration file.">
<polygon fill="white" stroke="#666666" points="170,-19 77,-19 77,0 170,0 170,-19"/>
<text text-anchor="middle" x="123.5" y="-7" font-family="Helvetica,sans-Serif" font-size="10.00">SetUpFromConf</text>
</a>
</g>
</g>
<!-- Node18&#45;&gt;Node19 -->
<g id="edge19_Node000018_Node000019" class="edge">
<title>Node18&#45;&gt;Node19</title>
<g id="a_edge19_Node000018_Node000019"><a xlink:title=" ">
<path fill="none" stroke="#63b8ff" d="M203.19,-9.5C192.31,-9.5 180.82,-9.5 170.1,-9.5"/>
<polygon fill="#63b8ff" stroke="#63b8ff" points="203.4,-13 213.4,-9.5 203.4,-6 203.4,-13"/>
</a>
</g>
</g>
<!-- Node20 -->
<g id="Node000020" class="node">
<title>Node20</title>
<g id="a_Node000020"><a xlink:href="Main_8c.html#ae21eb8342793f7f8f0d5fda6b96c0803" target="_top" xlink:title="Main entry point for the Sensor Data Handler System.">
<polygon fill="white" stroke="#666666" points="41,-19 0,-19 0,0 41,0 41,-19"/>
<text text-anchor="middle" x="20.5" y="-7" font-family="Helvetica,sans-Serif" font-size="10.00">main</text>
</a>
</g>
</g>
<!-- Node19&#45;&gt;Node20 -->
<g id="edge20_Node000019_Node000020" class="edge">
<title>Node19&#45;&gt;Node20</title>
<g id="a_edge20_Node000019_Node000020"><a xlink:title=" ">
<path fill="none" stroke="#63b8ff" d="M66.72,-9.5C57.53,-9.5 48.58,-9.5 41.09,-9.5"/>
<polygon fill="#63b8ff" stroke="#63b8ff" points="66.73,-13 76.73,-9.5 66.73,-6 66.73,-13"/>
</a>
</g>
</g>
<!-- Node21&#45;&gt;Node9 -->
<g id="edge22_Node000021_Node000009" class="edge">
<title>Node21&#45;&gt;Node9</title>
<g id="a_edge22_Node000021_Node000009"><a xlink:title=" ">
<path fill="none" stroke="#63b8ff" d="M551.22,-190.11C521.56,-186.26 478.39,-180.65 447.21,-176.6"/>
<polygon fill="#63b8ff" stroke="#63b8ff" points="551.13,-193.63 561.5,-191.45 552.03,-186.69 551.13,-193.63"/>
</a>
</g>
</g>
<!-- Node22&#45;&gt;Node9 -->
<g id="edge24_Node000022_Node000009" class="edge">
<title>Node22&#45;&gt;Node9</title>
<g id="a_edge24_Node000022_Node000009"><a xlink:title=" ">
<path fill="none" stroke="#63b8ff" d="M551.22,-160.17C521.56,-162.52 478.39,-165.93 447.21,-168.4"/>
<polygon fill="#63b8ff" stroke="#63b8ff" points="551.8,-163.64 561.5,-159.36 551.25,-156.66 551.8,-163.64"/>
</a>
</g>
</g>
<!-- Node23&#45;&gt;Node9 -->
<g id="edge26_Node000023_Node000009" class="edge">
<title>Node23&#45;&gt;Node9</title>
<g id="a_edge26_Node000023_Node000009"><a xlink:title=" ">
<path fill="none" stroke="#63b8ff" d="M551.51,-129.06C539.36,-132.24 525.53,-135.94 513,-139.5 487.7,-146.69 459.17,-155.43 438.24,-161.95"/>
<polygon fill="#63b8ff" stroke="#63b8ff" points="552.47,-132.42 561.27,-126.52 550.71,-125.65 552.47,-132.42"/>
</a>
</g>
</g>
<!-- Node24&#45;&gt;Node9 -->
<g id="edge28_Node000024_Node000009" class="edge">
<title>Node24&#45;&gt;Node9</title>
<g id="a_edge28_Node000024_Node000009"><a xlink:title=" ">
<path fill="none" stroke="#63b8ff" d="M529.9,-96.05C524.1,-97.96 518.37,-100.1 513,-102.5 476.55,-118.77 438.56,-147.04 419.85,-161.84"/>
<polygon fill="#63b8ff" stroke="#63b8ff" points="531.13,-99.34 539.68,-93.07 529.09,-92.64 531.13,-99.34"/>
</a>
</g>
</g>
</g>
</svg>
