<?xml version="1.0" encoding="UTF-8" standalone="no"?>
<!DOCTYPE svg PUBLIC "-//W3C//DTD SVG 1.1//EN"
 "http://www.w3.org/Graphics/SVG/1.1/DTD/svg11.dtd">
<!-- Generated by graphviz version 2.43.0 (0)
 -->
<!-- Title: SdbMemSizeFromString Pages: 1 -->
<svg width="775pt" height="104pt"
 viewBox="0.00 0.00 775.00 104.00" xmlns="http://www.w3.org/2000/svg" xmlns:xlink="http://www.w3.org/1999/xlink">
<g id="graph0" class="graph" transform="scale(1 1) rotate(0) translate(4 100)">
<title>SdbMemSizeFromString</title>
<polygon fill="white" stroke="transparent" points="-4,4 -4,-100 771,-100 771,4 -4,4"/>
<!-- Node1 -->
<g id="node1" class="node">
<title>Node1</title>
<g id="a_node1"><a xlink:title=" ">
<polygon fill="#bfbfbf" stroke="black" points="634,-38.5 634,-57.5 767,-57.5 767,-38.5 634,-38.5"/>
<text text-anchor="middle" x="700.5" y="-45.5" font-family="Helvetica,sans-Serif" font-size="10.00">SdbMemSizeFromString</text>
</a>
</g>
</g>
<!-- Node2 -->
<g id="node2" class="node">
<title>Node2</title>
<g id="a_node2"><a xlink:href="DataHandlers_8c.html#afe9e102250a74bffceba672ba91d9368" target="_top" xlink:title="Extracts memory and scratch sizes from JSON configuration.">
<polygon fill="white" stroke="black" points="446,-76.5 446,-95.5 598,-95.5 598,-76.5 446,-76.5"/>
<text text-anchor="middle" x="522" y="-83.5" font-family="Helvetica,sans-Serif" font-size="10.00">DhsGetMemAndScratchSize</text>
</a>
</g>
</g>
<!-- Node1&#45;&gt;Node2 -->
<g id="edge1" class="edge">
<title>Node1&#45;&gt;Node2</title>
<path fill="none" stroke="midnightblue" d="M644.91,-59.75C619.96,-65.13 590.77,-71.41 567.22,-76.48"/>
<polygon fill="midnightblue" stroke="midnightblue" points="645.92,-63.12 654.96,-57.59 644.45,-56.27 645.92,-63.12"/>
</g>
<!-- Node3 -->
<g id="node3" class="node">
<title>Node3</title>
<g id="a_node3"><a xlink:href="ModbusWithPostgres_8c.html#a09939d6694d5620261fa04ffa2af1d11" target="_top" xlink:title="Creates thread group from configuration.">
<polygon fill="white" stroke="black" points="322,-57.5 322,-76.5 410,-76.5 410,-57.5 322,-57.5"/>
<text text-anchor="middle" x="366" y="-64.5" font-family="Helvetica,sans-Serif" font-size="10.00">MbPgCreateTg</text>
</a>
</g>
</g>
<!-- Node1&#45;&gt;Node3 -->
<g id="edge7" class="edge">
<title>Node1&#45;&gt;Node3</title>
<path fill="none" stroke="midnightblue" d="M623.46,-52.34C557.49,-56.11 464.32,-61.44 410.34,-64.52"/>
<polygon fill="midnightblue" stroke="midnightblue" points="624.02,-55.82 633.81,-51.75 623.63,-48.83 624.02,-55.82"/>
</g>
<!-- Node7 -->
<g id="node7" class="node">
<title>Node7</title>
<g id="a_node7"><a xlink:href="ModbusWithPostgres_8c.html#ac55f6ce84ea4397e12d8ccb3cf20d993" target="_top" xlink:title="Parses memory configuration from JSON.">
<polygon fill="white" stroke="black" points="455,-0.5 455,-19.5 589,-19.5 589,-0.5 455,-0.5"/>
<text text-anchor="middle" x="522" y="-7.5" font-family="Helvetica,sans-Serif" font-size="10.00">GetMemAndScratchSize</text>
</a>
</g>
</g>
<!-- Node1&#45;&gt;Node7 -->
<g id="edge6" class="edge">
<title>Node1&#45;&gt;Node7</title>
<path fill="none" stroke="midnightblue" d="M644.91,-36.25C619.96,-30.87 590.77,-24.59 567.22,-19.52"/>
<polygon fill="midnightblue" stroke="midnightblue" points="644.45,-39.73 654.96,-38.41 645.92,-32.88 644.45,-39.73"/>
</g>
<!-- Node2&#45;&gt;Node3 -->
<g id="edge2" class="edge">
<title>Node2&#45;&gt;Node3</title>
<path fill="none" stroke="midnightblue" d="M435.79,-75.49C426.96,-74.4 418.27,-73.33 410.2,-72.33"/>
<polygon fill="midnightblue" stroke="midnightblue" points="435.45,-78.97 445.8,-76.72 436.31,-72.02 435.45,-78.97"/>
</g>
<!-- Node4 -->
<g id="node4" class="node">
<title>Node4</title>
<g id="a_node4"><a xlink:href="DataHandlers_8c.html#a9f7c5ff5d0edf87feed0ab9a70ddfcd4" target="_top" xlink:title="Creates a thread group based on configuration.">
<polygon fill="white" stroke="black" points="206,-57.5 206,-76.5 286,-76.5 286,-57.5 206,-57.5"/>
<text text-anchor="middle" x="246" y="-64.5" font-family="Helvetica,sans-Serif" font-size="10.00">DhsCreateTg</text>
</a>
</g>
</g>
<!-- Node3&#45;&gt;Node4 -->
<g id="edge3" class="edge">
<title>Node3&#45;&gt;Node4</title>
<path fill="none" stroke="midnightblue" d="M311.52,-67C303.05,-67 294.42,-67 286.35,-67"/>
<polygon fill="midnightblue" stroke="midnightblue" points="311.73,-70.5 321.73,-67 311.73,-63.5 311.73,-70.5"/>
</g>
<!-- Node5 -->
<g id="node5" class="node">
<title>Node5</title>
<g id="a_node5"><a xlink:href="Main_8c.html#aeeb5ef67af0eb14822aa17b0dc6f1be7" target="_top" xlink:title="Sets up the thread group manager from a configuration file.">
<polygon fill="white" stroke="black" points="77,-57.5 77,-76.5 170,-76.5 170,-57.5 77,-57.5"/>
<text text-anchor="middle" x="123.5" y="-64.5" font-family="Helvetica,sans-Serif" font-size="10.00">SetUpFromConf</text>
</a>
</g>
</g>
<!-- Node4&#45;&gt;Node5 -->
<g id="edge4" class="edge">
<title>Node4&#45;&gt;Node5</title>
<path fill="none" stroke="midnightblue" d="M195.74,-67C187.27,-67 178.5,-67 170.13,-67"/>
<polygon fill="midnightblue" stroke="midnightblue" points="195.88,-70.5 205.88,-67 195.88,-63.5 195.88,-70.5"/>
</g>
<!-- Node6 -->
<g id="node6" class="node">
<title>Node6</title>
<g id="a_node6"><a xlink:href="Main_8c.html#ae21eb8342793f7f8f0d5fda6b96c0803" target="_top" xlink:title="Main entry point for the Sensor Data Handler System.">
<polygon fill="white" stroke="black" points="0,-57.5 0,-76.5 41,-76.5 41,-57.5 0,-57.5"/>
<text text-anchor="middle" x="20.5" y="-64.5" font-family="Helvetica,sans-Serif" font-size="10.00">main</text>
</a>
</g>
</g>
<!-- Node5&#45;&gt;Node6 -->
<g id="edge5" class="edge">
<title>Node5&#45;&gt;Node6</title>
<path fill="none" stroke="midnightblue" d="M66.72,-67C57.53,-67 48.58,-67 41.09,-67"/>
<polygon fill="midnightblue" stroke="midnightblue" points="66.73,-70.5 76.73,-67 66.73,-63.5 66.73,-70.5"/>
</g>
</g>
</svg>
