<?xml version="1.0" encoding="UTF-8" standalone="no"?>
<!DOCTYPE svg PUBLIC "-//W3C//DTD SVG 1.1//EN"
 "http://www.w3.org/Graphics/SVG/1.1/DTD/svg11.dtd">
<!-- Generated by graphviz version 2.43.0 (0)
 -->
<!-- Title: SdbStrErr Pages: 1 -->
<svg width="246pt" height="104pt"
 viewBox="0.00 0.00 246.00 104.00" xmlns="http://www.w3.org/2000/svg" xmlns:xlink="http://www.w3.org/1999/xlink">
<g id="graph0" class="graph" transform="scale(1 1) rotate(0) translate(4 100)">
<title>SdbStrErr</title>
<polygon fill="white" stroke="transparent" points="-4,4 -4,-100 242,-100 242,4 -4,4"/>
<!-- Node1 -->
<g id="node1" class="node">
<title>Node1</title>
<g id="a_node1"><a xlink:title=" ">
<polygon fill="#bfbfbf" stroke="black" points="176,-38.5 176,-57.5 238,-57.5 238,-38.5 176,-38.5"/>
<text text-anchor="middle" x="207" y="-45.5" font-family="Helvetica,sans-Serif" font-size="10.00">SdbStrErr</text>
</a>
</g>
</g>
<!-- Node2 -->
<g id="node2" class="node">
<title>Node2</title>
<g id="a_node2"><a xlink:href="ModbusWithPostgres_8c.html#a4908768aa1a5e0d60263a772b69e593b" target="_top" xlink:title="Modbus data pipe throughput test.">
<polygon fill="white" stroke="black" points="0,-76.5 0,-95.5 140,-95.5 140,-76.5 0,-76.5"/>
<text text-anchor="middle" x="70" y="-83.5" font-family="Helvetica,sans-Serif" font-size="10.00">MbPgPipeThroughputTest</text>
</a>
</g>
</g>
<!-- Node1&#45;&gt;Node2 -->
<g id="edge1" class="edge">
<title>Node1&#45;&gt;Node2</title>
<path fill="none" stroke="midnightblue" d="M165.99,-59.6C157.42,-62.06 148.41,-64.63 140,-67 129,-70.1 116.99,-73.42 106.12,-76.41"/>
<polygon fill="midnightblue" stroke="midnightblue" points="167.15,-62.91 175.79,-56.78 165.21,-56.18 167.15,-62.91"/>
</g>
<!-- Node3 -->
<g id="node3" class="node">
<title>Node3</title>
<g id="a_node3"><a xlink:href="ModbusWithPostgres_8c.html#a8c3906cc056f92e50b5a2bf468e5e221" target="_top" xlink:title="Modbus thread implementation.">
<polygon fill="white" stroke="black" points="37.5,-38.5 37.5,-57.5 102.5,-57.5 102.5,-38.5 37.5,-38.5"/>
<text text-anchor="middle" x="70" y="-45.5" font-family="Helvetica,sans-Serif" font-size="10.00">MbThread</text>
</a>
</g>
</g>
<!-- Node1&#45;&gt;Node3 -->
<g id="edge2" class="edge">
<title>Node1&#45;&gt;Node3</title>
<path fill="none" stroke="midnightblue" d="M165.56,-48C145.4,-48 121.39,-48 102.6,-48"/>
<polygon fill="midnightblue" stroke="midnightblue" points="165.7,-51.5 175.7,-48 165.7,-44.5 165.7,-51.5"/>
</g>
<!-- Node4 -->
<g id="node4" class="node">
<title>Node4</title>
<g id="a_node4"><a xlink:href="ModbusWithPostgres_8c.html#a74049820bc4d231783641b0bfdc3a723" target="_top" xlink:title="PostgreSQL thread implementation.">
<polygon fill="white" stroke="black" points="39,-0.5 39,-19.5 101,-19.5 101,-0.5 39,-0.5"/>
<text text-anchor="middle" x="70" y="-7.5" font-family="Helvetica,sans-Serif" font-size="10.00">PgThread</text>
</a>
</g>
</g>
<!-- Node1&#45;&gt;Node4 -->
<g id="edge3" class="edge">
<title>Node1&#45;&gt;Node4</title>
<path fill="none" stroke="midnightblue" d="M165.99,-36.4C157.42,-33.94 148.41,-31.37 140,-29 127.32,-25.43 113.31,-21.56 101.25,-18.25"/>
<polygon fill="midnightblue" stroke="midnightblue" points="165.21,-39.82 175.79,-39.22 167.15,-33.09 165.21,-39.82"/>
</g>
</g>
</svg>
