<?xml version="1.0" encoding="UTF-8" standalone="no"?>
<!DOCTYPE svg PUBLIC "-//W3C//DTD SVG 1.1//EN"
 "http://www.w3.org/Graphics/SVG/1.1/DTD/svg11.dtd">
<!-- Generated by graphviz version 2.43.0 (0)
 -->
<!-- Title: SdbLoadFileIntoMemory Pages: 1 -->
<svg width="681pt" height="180pt"
 viewBox="0.00 0.00 681.00 180.00" xmlns="http://www.w3.org/2000/svg" xmlns:xlink="http://www.w3.org/1999/xlink">
<g id="graph0" class="graph" transform="scale(1 1) rotate(0) translate(4 176)">
<title>SdbLoadFileIntoMemory</title>
<polygon fill="white" stroke="transparent" points="-4,4 -4,-176 677,-176 677,4 -4,4"/>
<!-- Node1 -->
<g id="node1" class="node">
<title>Node1</title>
<g id="a_node1"><a xlink:title=" ">
<polygon fill="#bfbfbf" stroke="black" points="539,-76.5 539,-95.5 673,-95.5 673,-76.5 539,-76.5"/>
<text text-anchor="middle" x="606" y="-83.5" font-family="Helvetica,sans-Serif" font-size="10.00">SdbLoadFileIntoMemory</text>
</a>
</g>
</g>
<!-- Node2 -->
<g id="node2" class="node">
<title>Node2</title>
<g id="a_node2"><a xlink:href="DatabaseInitializer_8c.html#ac3e5e24c2c387a0c28dffaab993aebac" target="_top" xlink:title="Loads and parses a database configuration file.">
<polygon fill="white" stroke="black" points="375,-152.5 375,-171.5 503,-171.5 503,-152.5 375,-152.5"/>
<text text-anchor="middle" x="439" y="-159.5" font-family="Helvetica,sans-Serif" font-size="10.00">DbInitGetConfFromFile</text>
</a>
</g>
</g>
<!-- Node1&#45;&gt;Node2 -->
<g id="edge1" class="edge">
<title>Node1&#45;&gt;Node2</title>
<path fill="none" stroke="midnightblue" d="M578.61,-100.44C558.23,-111.35 529.19,-126.37 503,-138 491.34,-143.18 478.19,-148.29 466.93,-152.47"/>
<polygon fill="midnightblue" stroke="midnightblue" points="580.45,-103.43 587.59,-95.6 577.13,-97.27 580.45,-103.43"/>
</g>
<!-- Node3 -->
<g id="node3" class="node">
<title>Node3</title>
<g id="a_node3"><a xlink:href="DatabaseSystems_2Postgres_8c.html#a1bdbf06b579bf30db0f8826026a90474" target="_top" xlink:title="Prepares PostgreSQL context from configuration.">
<polygon fill="white" stroke="black" points="227.5,-114.5 227.5,-133.5 310.5,-133.5 310.5,-114.5 227.5,-114.5"/>
<text text-anchor="middle" x="269" y="-121.5" font-family="Helvetica,sans-Serif" font-size="10.00">PgPrepareCtx</text>
</a>
</g>
</g>
<!-- Node1&#45;&gt;Node3 -->
<g id="edge10" class="edge">
<title>Node1&#45;&gt;Node3</title>
<path fill="none" stroke="midnightblue" d="M549.32,-97.44C534.33,-100.23 518.09,-102.99 503,-105 435.82,-113.97 357.13,-119.32 310.54,-121.96"/>
<polygon fill="midnightblue" stroke="midnightblue" points="550.29,-100.82 559.46,-95.52 548.99,-93.94 550.29,-100.82"/>
</g>
<!-- Node6 -->
<g id="node6" class="node">
<title>Node6</title>
<g id="a_node6"><a xlink:href="DataHandlers_2ModbusWithPostgres_2Modbus_8c.html#a1660e1b6915b7758a7708e89c8445cbf" target="_top" xlink:title="Implements throughput testing for Modbus data pipe.">
<polygon fill="white" stroke="black" points="375,-76.5 375,-95.5 503,-95.5 503,-76.5 375,-76.5"/>
<text text-anchor="middle" x="439" y="-83.5" font-family="Helvetica,sans-Serif" font-size="10.00">MbPipeThroughputTest</text>
</a>
</g>
</g>
<!-- Node1&#45;&gt;Node6 -->
<g id="edge5" class="edge">
<title>Node1&#45;&gt;Node6</title>
<path fill="none" stroke="midnightblue" d="M528.56,-86C520.08,-86 511.52,-86 503.23,-86"/>
<polygon fill="midnightblue" stroke="midnightblue" points="528.84,-89.5 538.84,-86 528.84,-82.5 528.84,-89.5"/>
</g>
<!-- Node8 -->
<g id="node8" class="node">
<title>Node8</title>
<g id="a_node8"><a xlink:href="CommProtocols_2Modbus_8c.html#ad8cd921b4b7d4e15fd1d4e6fef74aabd" target="_top" xlink:title="Prepares Modbus context from configuration file.">
<polygon fill="white" stroke="black" points="396,-38.5 396,-57.5 482,-57.5 482,-38.5 396,-38.5"/>
<text text-anchor="middle" x="439" y="-45.5" font-family="Helvetica,sans-Serif" font-size="10.00">MbPrepareCtx</text>
</a>
</g>
</g>
<!-- Node1&#45;&gt;Node8 -->
<g id="edge7" class="edge">
<title>Node1&#45;&gt;Node8</title>
<path fill="none" stroke="midnightblue" d="M553.35,-74.1C530.15,-68.76 503.16,-62.55 481.34,-57.52"/>
<polygon fill="midnightblue" stroke="midnightblue" points="552.83,-77.58 563.36,-76.41 554.4,-70.76 552.83,-77.58"/>
</g>
<!-- Node11 -->
<g id="node11" class="node">
<title>Node11</title>
<g id="a_node11"><a xlink:href="Main_8c.html#aeeb5ef67af0eb14822aa17b0dc6f1be7" target="_top" xlink:title="Sets up the thread group manager from a configuration file.">
<polygon fill="white" stroke="black" points="392.5,-0.5 392.5,-19.5 485.5,-19.5 485.5,-0.5 392.5,-0.5"/>
<text text-anchor="middle" x="439" y="-7.5" font-family="Helvetica,sans-Serif" font-size="10.00">SetUpFromConf</text>
</a>
</g>
</g>
<!-- Node1&#45;&gt;Node11 -->
<g id="edge11" class="edge">
<title>Node1&#45;&gt;Node11</title>
<path fill="none" stroke="midnightblue" d="M581.79,-71.11C561.57,-58.62 531.18,-40.96 503,-29 494.59,-25.43 485.28,-22.24 476.46,-19.53"/>
<polygon fill="midnightblue" stroke="midnightblue" points="579.98,-74.11 590.31,-76.45 583.69,-68.17 579.98,-74.11"/>
</g>
<!-- Node2&#45;&gt;Node3 -->
<g id="edge2" class="edge">
<title>Node2&#45;&gt;Node3</title>
<path fill="none" stroke="midnightblue" d="M385.53,-150.13C361.37,-144.67 333.15,-138.28 310.64,-133.19"/>
<polygon fill="midnightblue" stroke="midnightblue" points="385.08,-153.62 395.61,-152.41 386.63,-146.79 385.08,-153.62"/>
</g>
<!-- Node4 -->
<g id="node4" class="node">
<title>Node4</title>
<g id="a_node4"><a xlink:href="DataHandlers_2ModbusWithPostgres_2Postgres_8c.html#a5f5041cd700c888724519dddcc5413a0" target="_top" xlink:title="Main PostgreSQL operation loop.">
<polygon fill="white" stroke="black" points="107,-114.5 107,-133.5 154,-133.5 154,-114.5 107,-114.5"/>
<text text-anchor="middle" x="130.5" y="-121.5" font-family="Helvetica,sans-Serif" font-size="10.00">PgRun</text>
</a>
</g>
</g>
<!-- Node3&#45;&gt;Node4 -->
<g id="edge3" class="edge">
<title>Node3&#45;&gt;Node4</title>
<path fill="none" stroke="midnightblue" d="M217.35,-124C195.68,-124 171.47,-124 154.3,-124"/>
<polygon fill="midnightblue" stroke="midnightblue" points="217.42,-127.5 227.42,-124 217.42,-120.5 217.42,-127.5"/>
</g>
<!-- Node5 -->
<g id="node5" class="node">
<title>Node5</title>
<g id="a_node5"><a xlink:href="ModbusWithPostgres_8c.html#a74049820bc4d231783641b0bfdc3a723" target="_top" xlink:title="PostgreSQL thread implementation.">
<polygon fill="white" stroke="black" points="0,-114.5 0,-133.5 62,-133.5 62,-114.5 0,-114.5"/>
<text text-anchor="middle" x="31" y="-121.5" font-family="Helvetica,sans-Serif" font-size="10.00">PgThread</text>
</a>
</g>
</g>
<!-- Node4&#45;&gt;Node5 -->
<g id="edge4" class="edge">
<title>Node4&#45;&gt;Node5</title>
<path fill="none" stroke="midnightblue" d="M96.68,-124C85.55,-124 73.17,-124 62.25,-124"/>
<polygon fill="midnightblue" stroke="midnightblue" points="96.89,-127.5 106.89,-124 96.89,-120.5 96.89,-127.5"/>
</g>
<!-- Node7 -->
<g id="node7" class="node">
<title>Node7</title>
<g id="a_node7"><a xlink:href="ModbusWithPostgres_8c.html#a4908768aa1a5e0d60263a772b69e593b" target="_top" xlink:title="Modbus data pipe throughput test.">
<polygon fill="white" stroke="black" points="199,-76.5 199,-95.5 339,-95.5 339,-76.5 199,-76.5"/>
<text text-anchor="middle" x="269" y="-83.5" font-family="Helvetica,sans-Serif" font-size="10.00">MbPgPipeThroughputTest</text>
</a>
</g>
</g>
<!-- Node6&#45;&gt;Node7 -->
<g id="edge6" class="edge">
<title>Node6&#45;&gt;Node7</title>
<path fill="none" stroke="midnightblue" d="M364.95,-86C356.34,-86 347.57,-86 339.02,-86"/>
<polygon fill="midnightblue" stroke="midnightblue" points="364.97,-89.5 374.97,-86 364.96,-82.5 364.97,-89.5"/>
</g>
<!-- Node9 -->
<g id="node9" class="node">
<title>Node9</title>
<g id="a_node9"><a xlink:href="DataHandlers_2ModbusWithPostgres_2Modbus_8c.html#ac42f810b60d139ab2f82c4146710d721" target="_top" xlink:title="Implements main Modbus thread loop.">
<polygon fill="white" stroke="black" points="244,-38.5 244,-57.5 294,-57.5 294,-38.5 244,-38.5"/>
<text text-anchor="middle" x="269" y="-45.5" font-family="Helvetica,sans-Serif" font-size="10.00">MbRun</text>
</a>
</g>
</g>
<!-- Node8&#45;&gt;Node9 -->
<g id="edge8" class="edge">
<title>Node8&#45;&gt;Node9</title>
<path fill="none" stroke="midnightblue" d="M385.53,-48C354.98,-48 317.94,-48 294.17,-48"/>
<polygon fill="midnightblue" stroke="midnightblue" points="385.61,-51.5 395.61,-48 385.61,-44.5 385.61,-51.5"/>
</g>
<!-- Node10 -->
<g id="node10" class="node">
<title>Node10</title>
<g id="a_node10"><a xlink:href="ModbusWithPostgres_8c.html#a8c3906cc056f92e50b5a2bf468e5e221" target="_top" xlink:title="Modbus thread implementation.">
<polygon fill="white" stroke="black" points="98,-38.5 98,-57.5 163,-57.5 163,-38.5 98,-38.5"/>
<text text-anchor="middle" x="130.5" y="-45.5" font-family="Helvetica,sans-Serif" font-size="10.00">MbThread</text>
</a>
</g>
</g>
<!-- Node9&#45;&gt;Node10 -->
<g id="edge9" class="edge">
<title>Node9&#45;&gt;Node10</title>
<path fill="none" stroke="midnightblue" d="M233.81,-48C212.1,-48 184.22,-48 163.04,-48"/>
<polygon fill="midnightblue" stroke="midnightblue" points="233.91,-51.5 243.91,-48 233.91,-44.5 233.91,-51.5"/>
</g>
<!-- Node12 -->
<g id="node12" class="node">
<title>Node12</title>
<g id="a_node12"><a xlink:href="Main_8c.html#ae21eb8342793f7f8f0d5fda6b96c0803" target="_top" xlink:title="Main entry point for the Sensor Data Handler System.">
<polygon fill="white" stroke="black" points="248.5,-0.5 248.5,-19.5 289.5,-19.5 289.5,-0.5 248.5,-0.5"/>
<text text-anchor="middle" x="269" y="-7.5" font-family="Helvetica,sans-Serif" font-size="10.00">main</text>
</a>
</g>
</g>
<!-- Node11&#45;&gt;Node12 -->
<g id="edge12" class="edge">
<title>Node11&#45;&gt;Node12</title>
<path fill="none" stroke="midnightblue" d="M381.98,-10C350.08,-10 312.1,-10 289.58,-10"/>
<polygon fill="midnightblue" stroke="midnightblue" points="382.09,-13.5 392.09,-10 382.09,-6.5 382.09,-13.5"/>
</g>
</g>
</svg>
