<?xml version="1.0" encoding="UTF-8" standalone="no"?>
<!DOCTYPE svg PUBLIC "-//W3C//DTD SVG 1.1//EN"
 "http://www.w3.org/Graphics/SVG/1.1/DTD/svg11.dtd">
<!-- Generated by graphviz version 2.43.0 (0)
 -->
<!-- Title: SdbScratchBegin Pages: 1 -->
<svg width="570pt" height="28pt"
 viewBox="0.00 0.00 570.00 28.00" xmlns="http://www.w3.org/2000/svg" xmlns:xlink="http://www.w3.org/1999/xlink">
<g id="graph0" class="graph" transform="scale(1 1) rotate(0) translate(4 24)">
<title>SdbScratchBegin</title>
<polygon fill="white" stroke="transparent" points="-4,4 -4,-24 566,-24 566,4 -4,4"/>
<!-- Node1 -->
<g id="node1" class="node">
<title>Node1</title>
<g id="a_node1"><a xlink:title=" ">
<polygon fill="#bfbfbf" stroke="black" points="464,-0.5 464,-19.5 562,-19.5 562,-0.5 464,-0.5"/>
<text text-anchor="middle" x="513" y="-7.5" font-family="Helvetica,sans-Serif" font-size="10.00">SdbScratchBegin</text>
</a>
</g>
</g>
<!-- Node2 -->
<g id="node2" class="node">
<title>Node2</title>
<g id="a_node2"><a xlink:href="DatabaseInitializer_8c.html#ac3e5e24c2c387a0c28dffaab993aebac" target="_top" xlink:title="Loads and parses a database configuration file.">
<polygon fill="white" stroke="black" points="300,-0.5 300,-19.5 428,-19.5 428,-0.5 300,-0.5"/>
<text text-anchor="middle" x="364" y="-7.5" font-family="Helvetica,sans-Serif" font-size="10.00">DbInitGetConfFromFile</text>
</a>
</g>
</g>
<!-- Node1&#45;&gt;Node2 -->
<g id="edge1" class="edge">
<title>Node1&#45;&gt;Node2</title>
<path fill="none" stroke="midnightblue" d="M453.79,-10C445.39,-10 436.71,-10 428.22,-10"/>
<polygon fill="midnightblue" stroke="midnightblue" points="453.87,-13.5 463.87,-10 453.87,-6.5 453.87,-13.5"/>
</g>
<!-- Node3 -->
<g id="node3" class="node">
<title>Node3</title>
<g id="a_node3"><a xlink:href="DatabaseSystems_2Postgres_8c.html#a1bdbf06b579bf30db0f8826026a90474" target="_top" xlink:title="Prepares PostgreSQL context from configuration.">
<polygon fill="white" stroke="black" points="181,-0.5 181,-19.5 264,-19.5 264,-0.5 181,-0.5"/>
<text text-anchor="middle" x="222.5" y="-7.5" font-family="Helvetica,sans-Serif" font-size="10.00">PgPrepareCtx</text>
</a>
</g>
</g>
<!-- Node2&#45;&gt;Node3 -->
<g id="edge2" class="edge">
<title>Node2&#45;&gt;Node3</title>
<path fill="none" stroke="midnightblue" d="M289.53,-10C280.8,-10 272.15,-10 264.13,-10"/>
<polygon fill="midnightblue" stroke="midnightblue" points="289.78,-13.5 299.78,-10 289.78,-6.5 289.78,-13.5"/>
</g>
<!-- Node4 -->
<g id="node4" class="node">
<title>Node4</title>
<g id="a_node4"><a xlink:href="DataHandlers_2ModbusWithPostgres_2Postgres_8c.html#a5f5041cd700c888724519dddcc5413a0" target="_top" xlink:title="Main PostgreSQL operation loop.">
<polygon fill="white" stroke="black" points="98,-0.5 98,-19.5 145,-19.5 145,-0.5 98,-0.5"/>
<text text-anchor="middle" x="121.5" y="-7.5" font-family="Helvetica,sans-Serif" font-size="10.00">PgRun</text>
</a>
</g>
</g>
<!-- Node3&#45;&gt;Node4 -->
<g id="edge3" class="edge">
<title>Node3&#45;&gt;Node4</title>
<path fill="none" stroke="midnightblue" d="M170.86,-10C161.88,-10 152.95,-10 145.26,-10"/>
<polygon fill="midnightblue" stroke="midnightblue" points="170.95,-13.5 180.95,-10 170.95,-6.5 170.95,-13.5"/>
</g>
<!-- Node5 -->
<g id="node5" class="node">
<title>Node5</title>
<g id="a_node5"><a xlink:href="ModbusWithPostgres_8c.html#a74049820bc4d231783641b0bfdc3a723" target="_top" xlink:title="PostgreSQL thread implementation.">
<polygon fill="white" stroke="black" points="0,-0.5 0,-19.5 62,-19.5 62,-0.5 0,-0.5"/>
<text text-anchor="middle" x="31" y="-7.5" font-family="Helvetica,sans-Serif" font-size="10.00">PgThread</text>
</a>
</g>
</g>
<!-- Node4&#45;&gt;Node5 -->
<g id="edge4" class="edge">
<title>Node4&#45;&gt;Node5</title>
<path fill="none" stroke="midnightblue" d="M87.54,-10C79.18,-10 70.26,-10 62.06,-10"/>
<polygon fill="midnightblue" stroke="midnightblue" points="87.71,-13.5 97.71,-10 87.71,-6.5 87.71,-13.5"/>
</g>
</g>
</svg>
