<?xml version="1.0" encoding="UTF-8" standalone="no"?>
<!DOCTYPE svg PUBLIC "-//W3C//DTD SVG 1.1//EN"
 "http://www.w3.org/Graphics/SVG/1.1/DTD/svg11.dtd">
<!-- Generated by graphviz version 2.43.0 (0)
 -->
<!-- Title: SdbMemset Pages: 1 -->
<svg width="561pt" height="64pt"
 viewBox="0.00 0.00 561.00 64.00" xmlns="http://www.w3.org/2000/svg" xmlns:xlink="http://www.w3.org/1999/xlink">
<g id="graph0" class="graph" transform="scale(1 1) rotate(0) translate(4 60)">
<title>SdbMemset</title>
<!-- Node1 -->
<g id="Node000001" class="node">
<title>Node1</title>
<g id="a_Node000001"><a xlink:title=" ">
<polygon fill="#999999" stroke="#666666" points="553,-37 479,-37 479,-18 553,-18 553,-37"/>
<text text-anchor="middle" x="516" y="-25" font-family="Helvetica,sans-Serif" font-size="10.00">SdbMemset</text>
</a>
</g>
</g>
<!-- Node2 -->
<g id="Node000002" class="node">
<title>Node2</title>
<g id="a_Node000002"><a xlink:href="ModbusTestServer_8c.html#a0b60204e0a9d1577d141cdc21367ac70" target="_top" xlink:title="Main Modbus Test Server routine.">
<polygon fill="white" stroke="#666666" points="443,-56 318,-56 318,-37 443,-37 443,-56"/>
<text text-anchor="middle" x="380.5" y="-44" font-family="Helvetica,sans-Serif" font-size="10.00">RunModbusTestServer</text>
</a>
</g>
</g>
<!-- Node1&#45;&gt;Node2 -->
<g id="edge1_Node000001_Node000002" class="edge">
<title>Node1&#45;&gt;Node2</title>
<g id="a_edge1_Node000001_Node000002"><a xlink:title=" ">
<path fill="none" stroke="#63b8ff" d="M468.7,-34.09C460.45,-35.26 451.73,-36.51 443.12,-37.73"/>
<polygon fill="#63b8ff" stroke="#63b8ff" points="469.47,-37.52 478.87,-32.64 468.48,-30.59 469.47,-37.52"/>
</a>
</g>
</g>
<!-- Node4 -->
<g id="Node000004" class="node">
<title>Node4</title>
<g id="a_Node000004"><a xlink:href="Socket_8c.html#afe998f70317da205d71f4d76f90d7a0e" target="_top" xlink:title="Create and Connect TCP Socket.">
<polygon fill="white" stroke="#666666" points="421,-19 340,-19 340,0 421,0 421,-19"/>
<text text-anchor="middle" x="380.5" y="-7" font-family="Helvetica,sans-Serif" font-size="10.00">SocketCreate</text>
</a>
</g>
</g>
<!-- Node1&#45;&gt;Node4 -->
<g id="edge3_Node000001_Node000004" class="edge">
<title>Node1&#45;&gt;Node4</title>
<g id="a_edge3_Node000001_Node000004"><a xlink:title=" ">
<path fill="none" stroke="#63b8ff" d="M468.54,-21.24C453.18,-19.16 436.24,-16.88 421.41,-14.88"/>
<polygon fill="#63b8ff" stroke="#63b8ff" points="468.49,-24.76 478.87,-22.63 469.43,-17.82 468.49,-24.76"/>
</a>
</g>
</g>
<!-- Node3 -->
<g id="Node000003" class="node">
<title>Node3</title>
<g id="a_Node000003"><a xlink:href="ModbusWithPostgres_8c.html#a1ccbc327d2cdd77f97741b4e0f23bc54" target="_top" xlink:title="Modbus test server thread.">
<polygon fill="white" stroke="#666666" points="282,-56 187,-56 187,-37 282,-37 282,-56"/>
<text text-anchor="middle" x="234.5" y="-44" font-family="Helvetica,sans-Serif" font-size="10.00">MbPgTestServer</text>
</a>
</g>
</g>
<!-- Node2&#45;&gt;Node3 -->
<g id="edge2_Node000002_Node000003" class="edge">
<title>Node2&#45;&gt;Node3</title>
<g id="a_edge2_Node000002_Node000003"><a xlink:title=" ">
<path fill="none" stroke="#63b8ff" d="M307.5,-46.5C298.88,-46.5 290.26,-46.5 282.13,-46.5"/>
<polygon fill="#63b8ff" stroke="#63b8ff" points="307.6,-50 317.6,-46.5 307.6,-43 307.6,-50"/>
</a>
</g>
</g>
<!-- Node5 -->
<g id="Node000005" class="node">
<title>Node5</title>
<g id="a_Node000005"><a xlink:href="CommProtocols_2Modbus_8c.html#a6b783d9f5a80832c1744d417adb3b146" target="_top" xlink:title="Prepares Modbus context from configuration file.">
<polygon fill="white" stroke="#666666" points="277.5,-19 191.5,-19 191.5,0 277.5,0 277.5,-19"/>
<text text-anchor="middle" x="234.5" y="-7" font-family="Helvetica,sans-Serif" font-size="10.00">MbPrepareCtx</text>
</a>
</g>
</g>
<!-- Node4&#45;&gt;Node5 -->
<g id="edge4_Node000004_Node000005" class="edge">
<title>Node4&#45;&gt;Node5</title>
<g id="a_edge4_Node000004_Node000005"><a xlink:title=" ">
<path fill="none" stroke="#63b8ff" d="M329.5,-9.5C312.58,-9.5 293.86,-9.5 277.62,-9.5"/>
<polygon fill="#63b8ff" stroke="#63b8ff" points="329.77,-13 339.77,-9.5 329.77,-6 329.77,-13"/>
</a>
</g>
</g>
<!-- Node6 -->
<g id="Node000006" class="node">
<title>Node6</title>
<g id="a_Node000006"><a xlink:href="DataHandlers_2ModbusWithPostgres_2Modbus_8c.html#ac42f810b60d139ab2f82c4146710d721" target="_top" xlink:title="Implements main Modbus thread loop.">
<polygon fill="white" stroke="#666666" points="151,-19 101,-19 101,0 151,0 151,-19"/>
<text text-anchor="middle" x="126" y="-7" font-family="Helvetica,sans-Serif" font-size="10.00">MbRun</text>
</a>
</g>
</g>
<!-- Node5&#45;&gt;Node6 -->
<g id="edge5_Node000005_Node000006" class="edge">
<title>Node5&#45;&gt;Node6</title>
<g id="a_edge5_Node000005_Node000006"><a xlink:title=" ">
<path fill="none" stroke="#63b8ff" d="M181.31,-9.5C170.71,-9.5 160.04,-9.5 151.01,-9.5"/>
<polygon fill="#63b8ff" stroke="#63b8ff" points="181.41,-13 191.41,-9.5 181.41,-6 181.41,-13"/>
</a>
</g>
</g>
<!-- Node7 -->
<g id="Node000007" class="node">
<title>Node7</title>
<g id="a_Node000007"><a xlink:href="ModbusWithPostgres_8c.html#ad6cc1c50bbcd2e6f933e8f2a82990c2e" target="_top" xlink:title="Modbus thread implementation.">
<polygon fill="white" stroke="#666666" points="65,-19 0,-19 0,0 65,0 65,-19"/>
<text text-anchor="middle" x="32.5" y="-7" font-family="Helvetica,sans-Serif" font-size="10.00">MbThread</text>
</a>
</g>
</g>
<!-- Node6&#45;&gt;Node7 -->
<g id="edge6_Node000006_Node000007" class="edge">
<title>Node6&#45;&gt;Node7</title>
<g id="a_edge6_Node000006_Node000007"><a xlink:title=" ">
<path fill="none" stroke="#63b8ff" d="M90.77,-9.5C82.42,-9.5 73.53,-9.5 65.3,-9.5"/>
<polygon fill="#63b8ff" stroke="#63b8ff" points="90.96,-13 100.96,-9.5 90.96,-6 90.96,-13"/>
</a>
</g>
</g>
</g>
</svg>
