<?xml version="1.0" encoding="UTF-8" standalone="no"?>
<!DOCTYPE svg PUBLIC "-//W3C//DTD SVG 1.1//EN"
 "http://www.w3.org/Graphics/SVG/1.1/DTD/svg11.dtd">
<!-- Generated by graphviz version 2.43.0 (0)
 -->
<!-- Title: SdbLoadFileIntoMemory Pages: 1 -->
<!--zoomable 177 -->

<svg id="main" version="1.1" xmlns="http://www.w3.org/2000/svg" xmlns:xlink="http://www.w3.org/1999/xlink" xml:space="preserve" onload="init(evt)">
<style type="text/css"><![CDATA[
.node, .edge {opacity: 0.7;}
.node.selected, .edge.selected {opacity: 1;}
.edge:hover path { stroke: red; }
.edge:hover polygon { stroke: red; fill: red; }
]]></style>

<defs>
  <circle id="rim" cx="0" cy="0" r="7"/>
  <circle id="rim2" cx="0" cy="0" r="3.5"/>
  <g id="zoomPlus">
    <use xlink:href="#rim" fill="#404040"><set attributeName="fill" to="#808080" begin="zoomplus.mouseover" end="zoomplus.mouseout"/></use>
    <path d="M-4,0h8M0,-4v8" fill="none" stroke="white" stroke-width="1.5" pointer-events="none"/>
  </g>
  <g id="zoomMin">
    <use xlink:href="#rim" fill="#404040"><set attributeName="fill" to="#808080" begin="zoomminus.mouseover" end="zoomminus.mouseout"/></use>
    <path d="M-4,0h8" fill="none" stroke="white" stroke-width="1.5" pointer-events="none"/>
  </g>
  <g id="arrowUp" transform="translate(30 24)">
    <use xlink:href="#rim"/>
    <path pointer-events="none" fill="none" stroke="white" stroke-width="1.5" d="M0,-3.0v7 M-2.5,-0.5L0,-3.0L2.5,-0.5"/>
  </g>
  <g id="arrowRight" transform="rotate(90) translate(36 -43)">
    <use xlink:href="#rim"/>
    <path pointer-events="none" fill="none" stroke="white" stroke-width="1.5" d="M0,-3.0v7 M-2.5,-0.5L0,-3.0L2.5,-0.5"/>
  </g>
  <g id="arrowDown" transform="rotate(180) translate(-30 -48)">
    <use xlink:href="#rim"/>
    <path pointer-events="none" fill="none" stroke="white" stroke-width="1.5" d="M0,-3.0v7 M-2.5,-0.5L0,-3.0L2.5,-0.5"/>
  </g>
  <g id="arrowLeft" transform="rotate(270) translate(-36 17)">
    <use xlink:href="#rim"/>
    <path pointer-events="none" fill="none" stroke="white" stroke-width="1.5" d="M0,-3.0v7 M-2.5,-0.5L0,-3.0L2.5,-0.5"/>
  </g>
  <g id="resetDef">
    <use xlink:href="#rim2" fill="#404040"><set attributeName="fill" to="#808080" begin="reset.mouseover" end="reset.mouseout"/></use>
  </g>
</defs>
<script type="application/ecmascript">
var viewWidth = 681;
var viewHeight = 177;
var sectionId = 'dynsection-8';
</script>
<script type="application/ecmascript" xlink:href="svg.min.js"/>
<svg id="graph" class="graph">
<g id="viewport">
<title>SdbLoadFileIntoMemory</title>
<!-- Node1 -->
<g id="Node000001" class="node">
<title>Node1</title>
<g id="a_Node000001"><a xlink:title=" ">
<polygon fill="#999999" stroke="#666666" points="673,-93 539,-93 539,-74 673,-74 673,-93"/>
<text text-anchor="middle" x="606" y="-81" font-family="Helvetica,sans-Serif" font-size="10.00">SdbLoadFileIntoMemory</text>
</a>
</g>
</g>
<!-- Node2 -->
<g id="Node000002" class="node">
<title>Node2</title>
<g id="a_Node000002"><a xlink:href="DatabaseInitializer_8c.html#a892f0ebc1700e0aa69bd02dd611e0094" target="_top" xlink:title="Loads and parses a database configuration file.">
<polygon fill="white" stroke="#666666" points="503,-169 375,-169 375,-150 503,-150 503,-169"/>
<text text-anchor="middle" x="439" y="-157" font-family="Helvetica,sans-Serif" font-size="10.00">DbInitGetConfFromFile</text>
</a>
</g>
</g>
<!-- Node1&#45;&gt;Node2 -->
<g id="edge1_Node000001_Node000002" class="edge">
<title>Node1&#45;&gt;Node2</title>
<g id="a_edge1_Node000001_Node000002"><a xlink:title=" ">
<path fill="none" stroke="#63b8ff" d="M578.61,-97.94C558.23,-108.85 529.19,-123.87 503,-135.5 491.34,-140.68 478.19,-145.79 466.93,-149.97"/>
<polygon fill="#63b8ff" stroke="#63b8ff" points="580.45,-100.93 587.59,-93.1 577.13,-94.77 580.45,-100.93"/>
</a>
</g>
</g>
<!-- Node3 -->
<g id="Node000003" class="node">
<title>Node3</title>
<g id="a_Node000003"><a xlink:href="DatabaseSystems_2Postgres_8c.html#ac1ce839ca0bb2cb91546fd9d00713d8b" target="_top" xlink:title="Prepares PostgreSQL context from configuration.">
<polygon fill="white" stroke="#666666" points="310.5,-150 227.5,-150 227.5,-131 310.5,-131 310.5,-150"/>
<text text-anchor="middle" x="269" y="-138" font-family="Helvetica,sans-Serif" font-size="10.00">PgPrepareCtx</text>
</a>
</g>
</g>
<!-- Node1&#45;&gt;Node3 -->
<g id="edge10_Node000001_Node000003" class="edge">
<title>Node1&#45;&gt;Node3</title>
<g id="a_edge10_Node000001_Node000003"><a xlink:title=" ">
<path fill="none" stroke="#63b8ff" d="M545.31,-94.85C531.43,-97.43 516.71,-100.11 503,-102.5 435.78,-114.24 357.44,-126.78 310.87,-134.12"/>
<polygon fill="#63b8ff" stroke="#63b8ff" points="546.05,-98.27 555.24,-93 544.76,-91.39 546.05,-98.27"/>
</a>
</g>
</g>
<!-- Node6 -->
<g id="Node000006" class="node">
<title>Node6</title>
<g id="a_Node000006"><a xlink:href="DataHandlers_2ModbusWithPostgres_2Modbus_8c.html#a1660e1b6915b7758a7708e89c8445cbf" target="_top" xlink:title="Implements throughput testing for Modbus data pipe.">
<polygon fill="white" stroke="#666666" points="503,-93 375,-93 375,-74 503,-74 503,-93"/>
<text text-anchor="middle" x="439" y="-81" font-family="Helvetica,sans-Serif" font-size="10.00">MbPipeThroughputTest</text>
</a>
</g>
</g>
<!-- Node1&#45;&gt;Node6 -->
<g id="edge5_Node000001_Node000006" class="edge">
<title>Node1&#45;&gt;Node6</title>
<g id="a_edge5_Node000001_Node000006"><a xlink:title=" ">
<path fill="none" stroke="#63b8ff" d="M528.56,-83.5C520.08,-83.5 511.52,-83.5 503.23,-83.5"/>
<polygon fill="#63b8ff" stroke="#63b8ff" points="528.84,-87 538.84,-83.5 528.84,-80 528.84,-87"/>
</a>
</g>
</g>
<!-- Node8 -->
<g id="Node000008" class="node">
<title>Node8</title>
<g id="a_Node000008"><a xlink:href="CommProtocols_2Modbus_8c.html#a6b783d9f5a80832c1744d417adb3b146" target="_top" xlink:title="Prepares Modbus context from configuration file.">
<polygon fill="white" stroke="#666666" points="482,-56 396,-56 396,-37 482,-37 482,-56"/>
<text text-anchor="middle" x="439" y="-44" font-family="Helvetica,sans-Serif" font-size="10.00">MbPrepareCtx</text>
</a>
</g>
</g>
<!-- Node1&#45;&gt;Node8 -->
<g id="edge7_Node000001_Node000008" class="edge">
<title>Node1&#45;&gt;Node8</title>
<g id="a_edge7_Node000001_Node000008"><a xlink:title=" ">
<path fill="none" stroke="#63b8ff" d="M552.66,-71.76C529.88,-66.65 503.54,-60.75 482.06,-55.93"/>
<polygon fill="#63b8ff" stroke="#63b8ff" points="551.98,-75.2 562.51,-73.97 553.52,-68.37 551.98,-75.2"/>
</a>
</g>
</g>
<!-- Node11 -->
<g id="Node000011" class="node">
<title>Node11</title>
<g id="a_Node000011"><a xlink:href="Main_8c.html#aeeb5ef67af0eb14822aa17b0dc6f1be7" target="_top" xlink:title="Sets up the thread group manager from a configuration file.">
<polygon fill="white" stroke="#666666" points="485.5,-19 392.5,-19 392.5,0 485.5,0 485.5,-19"/>
<text text-anchor="middle" x="439" y="-7" font-family="Helvetica,sans-Serif" font-size="10.00">SetUpFromConf</text>
</a>
</g>
</g>
<!-- Node1&#45;&gt;Node11 -->
<g id="edge11_Node000001_Node000011" class="edge">
<title>Node1&#45;&gt;Node11</title>
<g id="a_edge11_Node000001_Node000011"><a xlink:title=" ">
<path fill="none" stroke="#63b8ff" d="M581.44,-68.58C561.24,-56.28 531.03,-39.03 503,-27.5 495.22,-24.3 486.67,-21.44 478.45,-19"/>
<polygon fill="#63b8ff" stroke="#63b8ff" points="579.63,-71.58 589.98,-73.85 583.31,-65.62 579.63,-71.58"/>
</a>
</g>
</g>
<!-- Node2&#45;&gt;Node3 -->
<g id="edge2_Node000002_Node000003" class="edge">
<title>Node2&#45;&gt;Node3</title>
<g id="a_edge2_Node000002_Node000003"><a xlink:title=" ">
<path fill="none" stroke="#63b8ff" d="M365.02,-151.25C346.4,-149.14 327.05,-146.95 310.71,-145.1"/>
<polygon fill="#63b8ff" stroke="#63b8ff" points="364.64,-154.72 374.97,-152.37 365.42,-147.77 364.64,-154.72"/>
</a>
</g>
</g>
<!-- Node4 -->
<g id="Node000004" class="node">
<title>Node4</title>
<g id="a_Node000004"><a xlink:href="DataHandlers_2ModbusWithPostgres_2Postgres_8c.html#a5f5041cd700c888724519dddcc5413a0" target="_top" xlink:title="Main PostgreSQL operation loop.">
<polygon fill="white" stroke="#666666" points="154,-150 107,-150 107,-131 154,-131 154,-150"/>
<text text-anchor="middle" x="130.5" y="-138" font-family="Helvetica,sans-Serif" font-size="10.00">PgRun</text>
</a>
</g>
</g>
<!-- Node3&#45;&gt;Node4 -->
<g id="edge3_Node000003_Node000004" class="edge">
<title>Node3&#45;&gt;Node4</title>
<g id="a_edge3_Node000003_Node000004"><a xlink:title=" ">
<path fill="none" stroke="#63b8ff" d="M217.35,-140.5C195.68,-140.5 171.47,-140.5 154.3,-140.5"/>
<polygon fill="#63b8ff" stroke="#63b8ff" points="217.42,-144 227.42,-140.5 217.42,-137 217.42,-144"/>
</a>
</g>
</g>
<!-- Node5 -->
<g id="Node000005" class="node">
<title>Node5</title>
<g id="a_Node000005"><a xlink:href="ModbusWithPostgres_8c.html#a93270e4da545537675777f30acea6b6b" target="_top" xlink:title="PostgreSQL thread implementation.">
<polygon fill="white" stroke="#666666" points="62,-150 0,-150 0,-131 62,-131 62,-150"/>
<text text-anchor="middle" x="31" y="-138" font-family="Helvetica,sans-Serif" font-size="10.00">PgThread</text>
</a>
</g>
</g>
<!-- Node4&#45;&gt;Node5 -->
<g id="edge4_Node000004_Node000005" class="edge">
<title>Node4&#45;&gt;Node5</title>
<g id="a_edge4_Node000004_Node000005"><a xlink:title=" ">
<path fill="none" stroke="#63b8ff" d="M96.68,-140.5C85.55,-140.5 73.17,-140.5 62.25,-140.5"/>
<polygon fill="#63b8ff" stroke="#63b8ff" points="96.89,-144 106.89,-140.5 96.89,-137 96.89,-144"/>
</a>
</g>
</g>
<!-- Node7 -->
<g id="Node000007" class="node">
<title>Node7</title>
<g id="a_Node000007"><a xlink:href="ModbusWithPostgres_8c.html#ab562b331ef04d3d016b626018e9c30b1" target="_top" xlink:title="Modbus data pipe throughput test.">
<polygon fill="white" stroke="#666666" points="339,-93 199,-93 199,-74 339,-74 339,-93"/>
<text text-anchor="middle" x="269" y="-81" font-family="Helvetica,sans-Serif" font-size="10.00">MbPgPipeThroughputTest</text>
</a>
</g>
</g>
<!-- Node6&#45;&gt;Node7 -->
<g id="edge6_Node000006_Node000007" class="edge">
<title>Node6&#45;&gt;Node7</title>
<g id="a_edge6_Node000006_Node000007"><a xlink:title=" ">
<path fill="none" stroke="#63b8ff" d="M364.95,-83.5C356.34,-83.5 347.57,-83.5 339.02,-83.5"/>
<polygon fill="#63b8ff" stroke="#63b8ff" points="364.97,-87 374.97,-83.5 364.96,-80 364.97,-87"/>
</a>
</g>
</g>
<!-- Node9 -->
<g id="Node000009" class="node">
<title>Node9</title>
<g id="a_Node000009"><a xlink:href="DataHandlers_2ModbusWithPostgres_2Modbus_8c.html#ac42f810b60d139ab2f82c4146710d721" target="_top" xlink:title="Implements main Modbus thread loop.">
<polygon fill="white" stroke="#666666" points="294,-56 244,-56 244,-37 294,-37 294,-56"/>
<text text-anchor="middle" x="269" y="-44" font-family="Helvetica,sans-Serif" font-size="10.00">MbRun</text>
</a>
</g>
</g>
<!-- Node8&#45;&gt;Node9 -->
<g id="edge8_Node000008_Node000009" class="edge">
<title>Node8&#45;&gt;Node9</title>
<g id="a_edge8_Node000008_Node000009"><a xlink:title=" ">
<path fill="none" stroke="#63b8ff" d="M385.53,-46.5C354.98,-46.5 317.94,-46.5 294.17,-46.5"/>
<polygon fill="#63b8ff" stroke="#63b8ff" points="385.61,-50 395.61,-46.5 385.61,-43 385.61,-50"/>
</a>
</g>
</g>
<!-- Node10 -->
<g id="Node000010" class="node">
<title>Node10</title>
<g id="a_Node000010"><a xlink:href="ModbusWithPostgres_8c.html#ad6cc1c50bbcd2e6f933e8f2a82990c2e" target="_top" xlink:title="Modbus thread implementation.">
<polygon fill="white" stroke="#666666" points="163,-56 98,-56 98,-37 163,-37 163,-56"/>
<text text-anchor="middle" x="130.5" y="-44" font-family="Helvetica,sans-Serif" font-size="10.00">MbThread</text>
</a>
</g>
</g>
<!-- Node9&#45;&gt;Node10 -->
<g id="edge9_Node000009_Node000010" class="edge">
<title>Node9&#45;&gt;Node10</title>
<g id="a_edge9_Node000009_Node000010"><a xlink:title=" ">
<path fill="none" stroke="#63b8ff" d="M233.81,-46.5C212.1,-46.5 184.22,-46.5 163.04,-46.5"/>
<polygon fill="#63b8ff" stroke="#63b8ff" points="233.91,-50 243.91,-46.5 233.91,-43 233.91,-50"/>
</a>
</g>
</g>
<!-- Node12 -->
<g id="Node000012" class="node">
<title>Node12</title>
<g id="a_Node000012"><a xlink:href="Main_8c.html#ae21eb8342793f7f8f0d5fda6b96c0803" target="_top" xlink:title="Main entry point for the Sensor Data Handler System.">
<polygon fill="white" stroke="#666666" points="289.5,-19 248.5,-19 248.5,0 289.5,0 289.5,-19"/>
<text text-anchor="middle" x="269" y="-7" font-family="Helvetica,sans-Serif" font-size="10.00">main</text>
</a>
</g>
</g>
<!-- Node11&#45;&gt;Node12 -->
<g id="edge12_Node000011_Node000012" class="edge">
<title>Node11&#45;&gt;Node12</title>
<g id="a_edge12_Node000011_Node000012"><a xlink:title=" ">
<path fill="none" stroke="#63b8ff" d="M381.98,-9.5C350.08,-9.5 312.1,-9.5 289.58,-9.5"/>
<polygon fill="#63b8ff" stroke="#63b8ff" points="382.09,-13 392.09,-9.5 382.09,-6 382.09,-13"/>
</a>
</g>
</g>
</g>
</svg>

<g id="navigator" transform="translate(0 0)" fill="#404254">
  <rect fill="#f2f5e9" fill-opacity="0.5" stroke="#606060" stroke-width=".5" x="0" y="0" width="60" height="60"/>
  <use id="zoomplus" xlink:href="#zoomPlus" x="17" y="9" onmousedown="handleZoom(evt,'in')"/>
  <use id="zoomminus" xlink:href="#zoomMin" x="42" y="9" onmousedown="handleZoom(evt,'out')"/>
  <use id="reset" xlink:href="#resetDef" x="30" y="36" onmousedown="handleReset()"/>
   <use id="arrowup" xlink:href="#arrowUp" x="0" y="0" onmousedown="handlePan(0,-1)"/>
  <use id="arrowright" xlink:href="#arrowRight" x="0" y="0" onmousedown="handlePan(1,0)"/>
  <use id="arrowdown" xlink:href="#arrowDown" x="0" y="0" onmousedown="handlePan(0,1)"/>
  <use id="arrowleft" xlink:href="#arrowLeft" x="0" y="0" onmousedown="handlePan(-1,0)"/>
</g>
<svg viewBox="0 0 15 15" width="100%" height="30px" preserveAspectRatio="xMaxYMin meet">
 <g id="arrow_out" transform="scale(0.3 0.3)">
  <a xlink:href="Sdb_8h_a5ee7553cb2684af20d146fcf1cc6538f_icgraph_org.svg" target="_base">
   <rect id="button" ry="5" rx="5" y="6" x="6" height="38" width="38"
        fill="#f2f5e9" fill-opacity="0.5" stroke="#606060" stroke-width="1.0"/>
   <path id="arrow"
     d="M 11.500037,31.436501 C 11.940474,20.09759 22.043105,11.32322 32.158766,21.979434 L 37.068811,17.246167 C 37.068811,17.246167 37.088388,32 37.088388,32 L 22.160133,31.978069 C 22.160133,31.978069 26.997745,27.140456 26.997745,27.140456 C 18.528582,18.264221 13.291696,25.230495 11.500037,31.436501 z"
     style="fill:#404040;"/>
  </a>
 </g>
</svg>

<style type='text/css'>
<![CDATA[
[data-mouse-over-selected='false'] { opacity: 0.7; }
[data-mouse-over-selected='true']  { opacity: 1.0; }
]]>
</style>
<script type="application/ecmascript"><![CDATA[
document.addEventListener('DOMContentLoaded', (event) => {
  highlightEdges();
  highlightAdjacentNodes();
});
]]></script>
</svg>
