<?xml version="1.0" encoding="UTF-8" standalone="no"?>
<!DOCTYPE svg PUBLIC "-//W3C//DTD SVG 1.1//EN"
 "http://www.w3.org/Graphics/SVG/1.1/DTD/svg11.dtd">
<!-- Generated by graphviz version 2.43.0 (0)
 -->
<!-- Title: SdbMemSizeFromString Pages: 1 -->
<svg width="775pt" height="103pt"
 viewBox="0.00 0.00 775.00 103.00" xmlns="http://www.w3.org/2000/svg" xmlns:xlink="http://www.w3.org/1999/xlink">
<g id="graph0" class="graph" transform="scale(1 1) rotate(0) translate(4 99)">
<title>SdbMemSizeFromString</title>
<!-- Node1 -->
<g id="Node000001" class="node">
<title>Node1</title>
<g id="a_Node000001"><a xlink:title=" ">
<polygon fill="#999999" stroke="#666666" points="767,-57 634,-57 634,-38 767,-38 767,-57"/>
<text text-anchor="middle" x="700.5" y="-45" font-family="Helvetica,sans-Serif" font-size="10.00">SdbMemSizeFromString</text>
</a>
</g>
</g>
<!-- Node2 -->
<g id="Node000002" class="node">
<title>Node2</title>
<g id="a_Node000002"><a xlink:href="DataHandlers_8c.html#afe9e102250a74bffceba672ba91d9368" target="_top" xlink:title="Extracts memory and scratch sizes from JSON configuration.">
<polygon fill="white" stroke="#666666" points="598,-95 446,-95 446,-76 598,-76 598,-95"/>
<text text-anchor="middle" x="522" y="-83" font-family="Helvetica,sans-Serif" font-size="10.00">DhsGetMemAndScratchSize</text>
</a>
</g>
</g>
<!-- Node1&#45;&gt;Node2 -->
<g id="edge1_Node000001_Node000002" class="edge">
<title>Node1&#45;&gt;Node2</title>
<g id="a_edge1_Node000001_Node000002"><a xlink:title=" ">
<path fill="none" stroke="#63b8ff" d="M644.91,-59.25C619.96,-64.63 590.77,-70.91 567.22,-75.98"/>
<polygon fill="#63b8ff" stroke="#63b8ff" points="645.92,-62.62 654.96,-57.09 644.45,-55.77 645.92,-62.62"/>
</a>
</g>
</g>
<!-- Node3 -->
<g id="Node000003" class="node">
<title>Node3</title>
<g id="a_Node000003"><a xlink:href="ModbusWithPostgres_8c.html#ad38832a9ba1f0fa4494d337d4bee578f" target="_top" xlink:title="Creates thread group from configuration.">
<polygon fill="white" stroke="#666666" points="410,-76 322,-76 322,-57 410,-57 410,-76"/>
<text text-anchor="middle" x="366" y="-64" font-family="Helvetica,sans-Serif" font-size="10.00">MbPgCreateTg</text>
</a>
</g>
</g>
<!-- Node1&#45;&gt;Node3 -->
<g id="edge7_Node000001_Node000003" class="edge">
<title>Node1&#45;&gt;Node3</title>
<g id="a_edge7_Node000001_Node000003"><a xlink:title=" ">
<path fill="none" stroke="#63b8ff" d="M623.46,-51.84C557.49,-55.61 464.32,-60.94 410.34,-64.02"/>
<polygon fill="#63b8ff" stroke="#63b8ff" points="624.02,-55.32 633.81,-51.25 623.63,-48.33 624.02,-55.32"/>
</a>
</g>
</g>
<!-- Node7 -->
<g id="Node000007" class="node">
<title>Node7</title>
<g id="a_Node000007"><a xlink:href="ModbusWithPostgres_8c.html#ac55f6ce84ea4397e12d8ccb3cf20d993" target="_top" xlink:title="Parses memory configuration from JSON.">
<polygon fill="white" stroke="#666666" points="589,-19 455,-19 455,0 589,0 589,-19"/>
<text text-anchor="middle" x="522" y="-7" font-family="Helvetica,sans-Serif" font-size="10.00">GetMemAndScratchSize</text>
</a>
</g>
</g>
<!-- Node1&#45;&gt;Node7 -->
<g id="edge6_Node000001_Node000007" class="edge">
<title>Node1&#45;&gt;Node7</title>
<g id="a_edge6_Node000001_Node000007"><a xlink:title=" ">
<path fill="none" stroke="#63b8ff" d="M644.91,-35.75C619.96,-30.37 590.77,-24.09 567.22,-19.02"/>
<polygon fill="#63b8ff" stroke="#63b8ff" points="644.45,-39.23 654.96,-37.91 645.92,-32.38 644.45,-39.23"/>
</a>
</g>
</g>
<!-- Node2&#45;&gt;Node3 -->
<g id="edge2_Node000002_Node000003" class="edge">
<title>Node2&#45;&gt;Node3</title>
<g id="a_edge2_Node000002_Node000003"><a xlink:title=" ">
<path fill="none" stroke="#63b8ff" d="M435.79,-74.99C426.96,-73.9 418.27,-72.83 410.2,-71.83"/>
<polygon fill="#63b8ff" stroke="#63b8ff" points="435.45,-78.47 445.8,-76.22 436.31,-71.52 435.45,-78.47"/>
</a>
</g>
</g>
<!-- Node4 -->
<g id="Node000004" class="node">
<title>Node4</title>
<g id="a_Node000004"><a xlink:href="DataHandlers_8c.html#a1045578fac74308a6c876c8b06299b50" target="_top" xlink:title="Creates a thread group based on configuration.">
<polygon fill="white" stroke="#666666" points="286,-76 206,-76 206,-57 286,-57 286,-76"/>
<text text-anchor="middle" x="246" y="-64" font-family="Helvetica,sans-Serif" font-size="10.00">DhsCreateTg</text>
</a>
</g>
</g>
<!-- Node3&#45;&gt;Node4 -->
<g id="edge3_Node000003_Node000004" class="edge">
<title>Node3&#45;&gt;Node4</title>
<g id="a_edge3_Node000003_Node000004"><a xlink:title=" ">
<path fill="none" stroke="#63b8ff" d="M311.52,-66.5C303.05,-66.5 294.42,-66.5 286.35,-66.5"/>
<polygon fill="#63b8ff" stroke="#63b8ff" points="311.73,-70 321.73,-66.5 311.73,-63 311.73,-70"/>
</a>
</g>
</g>
<!-- Node5 -->
<g id="Node000005" class="node">
<title>Node5</title>
<g id="a_Node000005"><a xlink:href="Main_8c.html#aeeb5ef67af0eb14822aa17b0dc6f1be7" target="_top" xlink:title="Sets up the thread group manager from a configuration file.">
<polygon fill="white" stroke="#666666" points="170,-76 77,-76 77,-57 170,-57 170,-76"/>
<text text-anchor="middle" x="123.5" y="-64" font-family="Helvetica,sans-Serif" font-size="10.00">SetUpFromConf</text>
</a>
</g>
</g>
<!-- Node4&#45;&gt;Node5 -->
<g id="edge4_Node000004_Node000005" class="edge">
<title>Node4&#45;&gt;Node5</title>
<g id="a_edge4_Node000004_Node000005"><a xlink:title=" ">
<path fill="none" stroke="#63b8ff" d="M195.74,-66.5C187.27,-66.5 178.5,-66.5 170.13,-66.5"/>
<polygon fill="#63b8ff" stroke="#63b8ff" points="195.88,-70 205.88,-66.5 195.88,-63 195.88,-70"/>
</a>
</g>
</g>
<!-- Node6 -->
<g id="Node000006" class="node">
<title>Node6</title>
<g id="a_Node000006"><a xlink:href="Main_8c.html#ae21eb8342793f7f8f0d5fda6b96c0803" target="_top" xlink:title="Main entry point for the Sensor Data Handler System.">
<polygon fill="white" stroke="#666666" points="41,-76 0,-76 0,-57 41,-57 41,-76"/>
<text text-anchor="middle" x="20.5" y="-64" font-family="Helvetica,sans-Serif" font-size="10.00">main</text>
</a>
</g>
</g>
<!-- Node5&#45;&gt;Node6 -->
<g id="edge5_Node000005_Node000006" class="edge">
<title>Node5&#45;&gt;Node6</title>
<g id="a_edge5_Node000005_Node000006"><a xlink:title=" ">
<path fill="none" stroke="#63b8ff" d="M66.72,-66.5C57.53,-66.5 48.58,-66.5 41.09,-66.5"/>
<polygon fill="#63b8ff" stroke="#63b8ff" points="66.73,-70 76.73,-66.5 66.73,-63 66.73,-70"/>
</a>
</g>
</g>
</g>
</svg>
