<?xml version="1.0" encoding="UTF-8" standalone="no"?>
<!DOCTYPE svg PUBLIC "-//W3C//DTD SVG 1.1//EN"
 "http://www.w3.org/Graphics/SVG/1.1/DTD/svg11.dtd">
<!-- Generated by graphviz version 2.43.0 (0)
 -->
<!-- Title: SdbStringMake Pages: 1 -->
<svg width="557pt" height="103pt"
 viewBox="0.00 0.00 557.00 103.00" xmlns="http://www.w3.org/2000/svg" xmlns:xlink="http://www.w3.org/1999/xlink">
<g id="graph0" class="graph" transform="scale(1 1) rotate(0) translate(4 99)">
<title>SdbStringMake</title>
<!-- Node1 -->
<g id="Node000001" class="node">
<title>Node1</title>
<g id="a_Node000001"><a xlink:title=" ">
<polygon fill="#999999" stroke="#666666" points="549,-57 460,-57 460,-38 549,-38 549,-57"/>
<text text-anchor="middle" x="504.5" y="-45" font-family="Helvetica,sans-Serif" font-size="10.00">SdbStringMake</text>
</a>
</g>
</g>
<!-- Node2 -->
<g id="Node000002" class="node">
<title>Node2</title>
<g id="a_Node000002"><a xlink:href="DatabaseSystems_2Postgres_8c.html#ac6502b8786d53619f0b41e92ec1022de" target="_top" xlink:title=" ">
<polygon fill="white" stroke="#666666" points="424,-95 318,-95 318,-76 424,-76 424,-95"/>
<text text-anchor="middle" x="371" y="-83" font-family="Helvetica,sans-Serif" font-size="10.00">GetTableMetadata</text>
</a>
</g>
</g>
<!-- Node1&#45;&gt;Node2 -->
<g id="edge1_Node000001_Node000002" class="edge">
<title>Node1&#45;&gt;Node2</title>
<g id="a_edge1_Node000001_Node000002"><a xlink:title=" ">
<path fill="none" stroke="#63b8ff" d="M460.62,-59.89C442.61,-65.09 421.99,-71.05 405.17,-75.91"/>
<polygon fill="#63b8ff" stroke="#63b8ff" points="461.68,-63.23 470.32,-57.09 459.74,-56.5 461.68,-63.23"/>
</a>
</g>
</g>
<!-- Node3 -->
<g id="Node000003" class="node">
<title>Node3</title>
<g id="a_Node000003"><a xlink:href="DatabaseSystems_2Postgres_8c.html#ac1ce839ca0bb2cb91546fd9d00713d8b" target="_top" xlink:title="Prepares PostgreSQL context from configuration.">
<polygon fill="white" stroke="#666666" points="282,-76 199,-76 199,-57 282,-57 282,-76"/>
<text text-anchor="middle" x="240.5" y="-64" font-family="Helvetica,sans-Serif" font-size="10.00">PgPrepareCtx</text>
</a>
</g>
</g>
<!-- Node1&#45;&gt;Node3 -->
<g id="edge8_Node000001_Node000003" class="edge">
<title>Node1&#45;&gt;Node3</title>
<g id="a_edge8_Node000001_Node000003"><a xlink:title=" ">
<path fill="none" stroke="#63b8ff" d="M449.7,-51.4C399.97,-55.01 327.17,-60.29 282.14,-63.55"/>
<polygon fill="#63b8ff" stroke="#63b8ff" points="450.22,-54.87 459.94,-50.66 449.71,-47.89 450.22,-54.87"/>
</a>
</g>
</g>
<!-- Node6 -->
<g id="Node000006" class="node">
<title>Node6</title>
<g id="a_Node000006"><a xlink:href="CommProtocols_2Modbus_8c.html#a6b783d9f5a80832c1744d417adb3b146" target="_top" xlink:title="Prepares Modbus context from configuration file.">
<polygon fill="white" stroke="#666666" points="414,-19 328,-19 328,0 414,0 414,-19"/>
<text text-anchor="middle" x="371" y="-7" font-family="Helvetica,sans-Serif" font-size="10.00">MbPrepareCtx</text>
</a>
</g>
</g>
<!-- Node1&#45;&gt;Node6 -->
<g id="edge5_Node000001_Node000006" class="edge">
<title>Node1&#45;&gt;Node6</title>
<g id="a_edge5_Node000001_Node000006"><a xlink:title=" ">
<path fill="none" stroke="#63b8ff" d="M460.62,-35.11C442.61,-29.91 421.99,-23.95 405.17,-19.09"/>
<polygon fill="#63b8ff" stroke="#63b8ff" points="459.74,-38.5 470.32,-37.91 461.68,-31.77 459.74,-38.5"/>
</a>
</g>
</g>
<!-- Node2&#45;&gt;Node3 -->
<g id="edge2_Node000002_Node000003" class="edge">
<title>Node2&#45;&gt;Node3</title>
<g id="a_edge2_Node000002_Node000003"><a xlink:title=" ">
<path fill="none" stroke="#63b8ff" d="M307.67,-76.28C299.05,-75.01 290.38,-73.73 282.29,-72.53"/>
<polygon fill="#63b8ff" stroke="#63b8ff" points="307.33,-79.77 317.73,-77.77 308.35,-72.85 307.33,-79.77"/>
</a>
</g>
</g>
<!-- Node4 -->
<g id="Node000004" class="node">
<title>Node4</title>
<g id="a_Node000004"><a xlink:href="DataHandlers_2ModbusWithPostgres_2Postgres_8c.html#a5f5041cd700c888724519dddcc5413a0" target="_top" xlink:title="Main PostgreSQL operation loop.">
<polygon fill="white" stroke="#666666" points="154,-76 107,-76 107,-57 154,-57 154,-76"/>
<text text-anchor="middle" x="130.5" y="-64" font-family="Helvetica,sans-Serif" font-size="10.00">PgRun</text>
</a>
</g>
</g>
<!-- Node3&#45;&gt;Node4 -->
<g id="edge3_Node000003_Node000004" class="edge">
<title>Node3&#45;&gt;Node4</title>
<g id="a_edge3_Node000003_Node000004"><a xlink:title=" ">
<path fill="none" stroke="#63b8ff" d="M188.84,-66.5C176.64,-66.5 164.21,-66.5 154.05,-66.5"/>
<polygon fill="#63b8ff" stroke="#63b8ff" points="188.98,-70 198.98,-66.5 188.98,-63 188.98,-70"/>
</a>
</g>
</g>
<!-- Node5 -->
<g id="Node000005" class="node">
<title>Node5</title>
<g id="a_Node000005"><a xlink:href="ModbusWithPostgres_8c.html#a93270e4da545537675777f30acea6b6b" target="_top" xlink:title="PostgreSQL thread implementation.">
<polygon fill="white" stroke="#666666" points="62,-76 0,-76 0,-57 62,-57 62,-76"/>
<text text-anchor="middle" x="31" y="-64" font-family="Helvetica,sans-Serif" font-size="10.00">PgThread</text>
</a>
</g>
</g>
<!-- Node4&#45;&gt;Node5 -->
<g id="edge4_Node000004_Node000005" class="edge">
<title>Node4&#45;&gt;Node5</title>
<g id="a_edge4_Node000004_Node000005"><a xlink:title=" ">
<path fill="none" stroke="#63b8ff" d="M96.68,-66.5C85.55,-66.5 73.17,-66.5 62.25,-66.5"/>
<polygon fill="#63b8ff" stroke="#63b8ff" points="96.89,-70 106.89,-66.5 96.89,-63 96.89,-70"/>
</a>
</g>
</g>
<!-- Node7 -->
<g id="Node000007" class="node">
<title>Node7</title>
<g id="a_Node000007"><a xlink:href="DataHandlers_2ModbusWithPostgres_2Modbus_8c.html#ac42f810b60d139ab2f82c4146710d721" target="_top" xlink:title="Implements main Modbus thread loop.">
<polygon fill="white" stroke="#666666" points="265.5,-19 215.5,-19 215.5,0 265.5,0 265.5,-19"/>
<text text-anchor="middle" x="240.5" y="-7" font-family="Helvetica,sans-Serif" font-size="10.00">MbRun</text>
</a>
</g>
</g>
<!-- Node6&#45;&gt;Node7 -->
<g id="edge6_Node000006_Node000007" class="edge">
<title>Node6&#45;&gt;Node7</title>
<g id="a_edge6_Node000006_Node000007"><a xlink:title=" ">
<path fill="none" stroke="#63b8ff" d="M317.78,-9.5C299.73,-9.5 280.36,-9.5 265.66,-9.5"/>
<polygon fill="#63b8ff" stroke="#63b8ff" points="317.92,-13 327.92,-9.5 317.92,-6 317.92,-13"/>
</a>
</g>
</g>
<!-- Node8 -->
<g id="Node000008" class="node">
<title>Node8</title>
<g id="a_Node000008"><a xlink:href="ModbusWithPostgres_8c.html#ad6cc1c50bbcd2e6f933e8f2a82990c2e" target="_top" xlink:title="Modbus thread implementation.">
<polygon fill="white" stroke="#666666" points="163,-19 98,-19 98,0 163,0 163,-19"/>
<text text-anchor="middle" x="130.5" y="-7" font-family="Helvetica,sans-Serif" font-size="10.00">MbThread</text>
</a>
</g>
</g>
<!-- Node7&#45;&gt;Node8 -->
<g id="edge7_Node000007_Node000008" class="edge">
<title>Node7&#45;&gt;Node8</title>
<g id="a_edge7_Node000007_Node000008"><a xlink:title=" ">
<path fill="none" stroke="#63b8ff" d="M204.95,-9.5C191.5,-9.5 176.19,-9.5 163.04,-9.5"/>
<polygon fill="#63b8ff" stroke="#63b8ff" points="205.26,-13 215.26,-9.5 205.26,-6 205.26,-13"/>
</a>
</g>
</g>
</g>
</svg>
