<?xml version="1.0" encoding="UTF-8" standalone="no"?>
<!DOCTYPE svg PUBLIC "-//W3C//DTD SVG 1.1//EN"
 "http://www.w3.org/Graphics/SVG/1.1/DTD/svg11.dtd">
<!-- Generated by graphviz version 2.43.0 (0)
 -->
<!-- Title: src/Common/SensorDataPipe.c Pages: 1 -->
<!--zoomable 308 -->
<svg id="main" version="1.1" xmlns="http://www.w3.org/2000/svg" xmlns:xlink="http://www.w3.org/1999/xlink" xml:space="preserve" onload="init(evt)">
<style type="text/css"><![CDATA[
.edge:hover path { stroke: red; }
.edge:hover polygon { stroke: red; fill: red; }
]]></style>
<script type="text/javascript"><![CDATA[
var edges = document.getElementsByTagName('g');
if (edges && edges.length) {
  for (var i=0;i<edges.length;i++) {
    if (edges[i].id.substr(0,4)=='edge') {
      edges[i].setAttribute('class','edge');
    }
  }
}
]]></script>
        <defs>
                <circle id="rim" cx="0" cy="0" r="7"/>
                <circle id="rim2" cx="0" cy="0" r="3.5"/>
                <g id="zoomPlus">
                        <use xlink:href="#rim" fill="#404040">
                                <set attributeName="fill" to="#808080" begin="zoomplus.mouseover" end="zoomplus.mouseout"/>
                        </use>
                        <path d="M-4,0h8M0,-4v8" fill="none" stroke="white" stroke-width="1.5" pointer-events="none"/>
                </g>
                <g id="zoomMin">
                        <use xlink:href="#rim" fill="#404040">
                                <set attributeName="fill" to="#808080" begin="zoomminus.mouseover" end="zoomminus.mouseout"/>
                        </use>
                        <path d="M-4,0h8" fill="none" stroke="white" stroke-width="1.5" pointer-events="none"/>
                </g>
                <g id="dirArrow">
                        <path fill="none" stroke="white" stroke-width="1.5" d="M0,-3.0v7 M-2.5,-0.5L0,-3.0L2.5,-0.5"/>
                </g>
               <g id="resetDef">
                       <use xlink:href="#rim2" fill="#404040">
                               <set attributeName="fill" to="#808080" begin="reset.mouseover" end="reset.mouseout"/>
                       </use>
               </g>
        </defs>

<script type="text/javascript">
var viewWidth = 1239;
var viewHeight = 308;
var sectionId = 'dynsection-0';
</script>
<script xlink:href="svgpan.js"/>
<svg id="graph" class="graph">
<g id="viewport">
<title>src/Common/SensorDataPipe.c</title>
<polygon fill="white" stroke="transparent" points="-4,4 -4,-304 1235,-304 1235,4 -4,4"/>
<!-- Node1 -->
<g id="node1" class="node">
<title>Node1</title>
<g id="a_node1"><a xlink:title="Implementation of lock free Data Pipeline.">
<polygon fill="#bfbfbf" stroke="black" points="661.5,-280.5 661.5,-299.5 828.5,-299.5 828.5,-280.5 661.5,-280.5"/>
<text text-anchor="middle" x="745" y="-287.5" font-family="Helvetica,sans-Serif" font-size="10.00">src/Common/SensorDataPipe.c</text>
</a>
</g>
</g>
<!-- Node2 -->
<g id="node2" class="node">
<title>Node2</title>
<g id="a_node2"><a xlink:title=" ">
<polygon fill="white" stroke="#bfbfbf" points="0,-0.5 0,-19.5 50,-19.5 50,-0.5 0,-0.5"/>
<text text-anchor="middle" x="25" y="-7.5" font-family="Helvetica,sans-Serif" font-size="10.00">stdio.h</text>
</a>
</g>
</g>
<!-- Node1&#45;&gt;Node2 -->
<g id="edge1" class="edge">
<title>Node1&#45;&gt;Node2</title>
<path fill="none" stroke="midnightblue" d="M661.3,-285.3C532.39,-277.28 300,-252.61 300,-179 300,-179 300,-179 300,-121 300,-95.46 134.4,-43.32 60.21,-21.24"/>
<polygon fill="midnightblue" stroke="midnightblue" points="60.96,-17.81 50.38,-18.33 58.97,-24.52 60.96,-17.81"/>
</g>
<!-- Node3 -->
<g id="node3" class="node">
<title>Node3</title>
<g id="a_node3"><a xlink:title=" ">
<polygon fill="white" stroke="#bfbfbf" points="918.5,-224.5 918.5,-243.5 1001.5,-243.5 1001.5,-224.5 918.5,-224.5"/>
<text text-anchor="middle" x="960" y="-231.5" font-family="Helvetica,sans-Serif" font-size="10.00">sys/eventfd.h</text>
</a>
</g>
</g>
<!-- Node1&#45;&gt;Node3 -->
<g id="edge2" class="edge">
<title>Node1&#45;&gt;Node3</title>
<path fill="none" stroke="midnightblue" d="M779.07,-280.44C816.18,-271.12 875.66,-256.18 916.21,-246"/>
<polygon fill="midnightblue" stroke="midnightblue" points="917.25,-249.35 926.09,-243.52 915.54,-242.56 917.25,-249.35"/>
</g>
<!-- Node4 -->
<g id="node4" class="node">
<title>Node4</title>
<g id="a_node4"><a xlink:href="Sdb_8h.html" target="_top" xlink:title=" ">
<polygon fill="white" stroke="black" points="587.5,-56.5 587.5,-75.5 648.5,-75.5 648.5,-56.5 587.5,-56.5"/>
<text text-anchor="middle" x="618" y="-63.5" font-family="Helvetica,sans-Serif" font-size="10.00">src/Sdb.h</text>
</a>
</g>
</g>
<!-- Node1&#45;&gt;Node4 -->
<g id="edge3" class="edge">
<title>Node1&#45;&gt;Node4</title>
<path fill="none" stroke="midnightblue" d="M661.21,-282.08C636.96,-275.72 613,-264.28 598,-244 562.5,-196.01 591.91,-119.76 608.52,-85.15"/>
<polygon fill="midnightblue" stroke="midnightblue" points="611.84,-86.33 613.18,-75.82 605.58,-83.2 611.84,-86.33"/>
</g>
<!-- Node21 -->
<g id="node21" class="node">
<title>Node21</title>
<g id="a_node21"><a xlink:href="SensorDataPipe_8h.html" target="_top" xlink:title="Lock&#45;Free Data Pipeline.">
<polygon fill="white" stroke="black" points="606.5,-224.5 606.5,-243.5 773.5,-243.5 773.5,-224.5 606.5,-224.5"/>
<text text-anchor="middle" x="690" y="-231.5" font-family="Helvetica,sans-Serif" font-size="10.00">src/Common/SensorDataPipe.h</text>
</a>
</g>
</g>
<!-- Node1&#45;&gt;Node21 -->
<g id="edge21" class="edge">
<title>Node1&#45;&gt;Node21</title>
<path fill="none" stroke="midnightblue" d="M735.92,-280.08C727.83,-272.14 715.8,-260.34 706.09,-250.8"/>
<polygon fill="midnightblue" stroke="midnightblue" points="708.5,-248.26 698.91,-243.75 703.6,-253.25 708.5,-248.26"/>
</g>
<!-- Node23 -->
<g id="node23" class="node">
<title>Node23</title>
<g id="a_node23"><a xlink:href="Thread_8h.html" target="_top" xlink:title="Lightweight Synchronization Primitives Wrapper.">
<polygon fill="white" stroke="black" points="738,-168.5 738,-187.5 862,-187.5 862,-168.5 738,-168.5"/>
<text text-anchor="middle" x="800" y="-175.5" font-family="Helvetica,sans-Serif" font-size="10.00">src/Common/Thread.h</text>
</a>
</g>
</g>
<!-- Node1&#45;&gt;Node23 -->
<g id="edge32" class="edge">
<title>Node1&#45;&gt;Node23</title>
<path fill="none" stroke="midnightblue" d="M754.5,-280.25C763.15,-271.77 775.65,-258.16 783,-244 790.55,-229.44 794.94,-211.26 797.36,-197.83"/>
<polygon fill="midnightblue" stroke="midnightblue" points="800.83,-198.28 798.95,-187.86 793.92,-197.18 800.83,-198.28"/>
</g>
<!-- Node25 -->
<g id="node25" class="node">
<title>Node25</title>
<g id="a_node25"><a xlink:href="Time_8h.html" target="_top" xlink:title="Lightweight Time Manipulation Utilities.">
<polygon fill="white" stroke="black" points="858.5,-112.5 858.5,-131.5 973.5,-131.5 973.5,-112.5 858.5,-112.5"/>
<text text-anchor="middle" x="916" y="-119.5" font-family="Helvetica,sans-Serif" font-size="10.00">src/Common/Time.h</text>
</a>
</g>
</g>
<!-- Node1&#45;&gt;Node25 -->
<g id="edge33" class="edge">
<title>Node1&#45;&gt;Node25</title>
<path fill="none" stroke="midnightblue" d="M758.18,-280.35C782.32,-264.11 834.49,-227.17 871,-188 884.71,-173.3 897.46,-154.14 905.86,-140.44"/>
<polygon fill="midnightblue" stroke="midnightblue" points="909.04,-141.95 911.16,-131.57 903.03,-138.36 909.04,-141.95"/>
</g>
<!-- Node4&#45;&gt;Node2 -->
<g id="edge13" class="edge">
<title>Node4&#45;&gt;Node2</title>
<path fill="none" stroke="midnightblue" d="M587.47,-64.45C504.24,-62.55 266.44,-54.44 60.25,-19.91"/>
<polygon fill="midnightblue" stroke="midnightblue" points="60.59,-16.42 50.14,-18.19 59.41,-23.32 60.59,-16.42"/>
</g>
<!-- Node5 -->
<g id="node5" class="node">
<title>Node5</title>
<g id="a_node5"><a xlink:title=" ">
<polygon fill="white" stroke="#bfbfbf" points="68,-0.5 68,-19.5 124,-19.5 124,-0.5 68,-0.5"/>
<text text-anchor="middle" x="96" y="-7.5" font-family="Helvetica,sans-Serif" font-size="10.00">assert.h</text>
</a>
</g>
</g>
<!-- Node4&#45;&gt;Node5 -->
<g id="edge4" class="edge">
<title>Node4&#45;&gt;Node5</title>
<path fill="none" stroke="midnightblue" d="M587.44,-63.72C512.04,-60.22 311,-48.9 134.2,-19.97"/>
<polygon fill="midnightblue" stroke="midnightblue" points="134.63,-16.49 124.19,-18.31 133.49,-23.4 134.63,-16.49"/>
</g>
<!-- Node6 -->
<g id="node6" class="node">
<title>Node6</title>
<g id="a_node6"><a xlink:title=" ">
<polygon fill="white" stroke="#bfbfbf" points="142.5,-0.5 142.5,-19.5 195.5,-19.5 195.5,-0.5 142.5,-0.5"/>
<text text-anchor="middle" x="169" y="-7.5" font-family="Helvetica,sans-Serif" font-size="10.00">ctype.h</text>
</a>
</g>
</g>
<!-- Node4&#45;&gt;Node6 -->
<g id="edge5" class="edge">
<title>Node4&#45;&gt;Node6</title>
<path fill="none" stroke="midnightblue" d="M587.4,-63.18C520.04,-58.86 353.78,-46.43 205.83,-20.11"/>
<polygon fill="midnightblue" stroke="midnightblue" points="206.13,-16.61 195.67,-18.28 204.88,-23.5 206.13,-16.61"/>
</g>
<!-- Node7 -->
<g id="node7" class="node">
<title>Node7</title>
<g id="a_node7"><a xlink:title=" ">
<polygon fill="white" stroke="#bfbfbf" points="213.5,-0.5 213.5,-19.5 264.5,-19.5 264.5,-0.5 213.5,-0.5"/>
<text text-anchor="middle" x="239" y="-7.5" font-family="Helvetica,sans-Serif" font-size="10.00">errno.h</text>
</a>
</g>
</g>
<!-- Node4&#45;&gt;Node7 -->
<g id="edge6" class="edge">
<title>Node4&#45;&gt;Node7</title>
<path fill="none" stroke="midnightblue" d="M587.33,-62.34C528.47,-56.95 395.51,-43.39 274.7,-20.12"/>
<polygon fill="midnightblue" stroke="midnightblue" points="275.02,-16.62 264.54,-18.14 273.68,-23.49 275.02,-16.62"/>
</g>
<!-- Node8 -->
<g id="node8" class="node">
<title>Node8</title>
<g id="a_node8"><a xlink:title=" ">
<polygon fill="white" stroke="#bfbfbf" points="282.5,-0.5 282.5,-19.5 329.5,-19.5 329.5,-0.5 282.5,-0.5"/>
<text text-anchor="middle" x="306" y="-7.5" font-family="Helvetica,sans-Serif" font-size="10.00">fcntl.h</text>
</a>
</g>
</g>
<!-- Node4&#45;&gt;Node8 -->
<g id="edge7" class="edge">
<title>Node4&#45;&gt;Node8</title>
<path fill="none" stroke="midnightblue" d="M587.12,-61.22C537.02,-54.83 434.76,-40.73 339.48,-20.13"/>
<polygon fill="midnightblue" stroke="midnightblue" points="340.21,-16.71 329.69,-17.99 338.71,-23.55 340.21,-16.71"/>
</g>
<!-- Node9 -->
<g id="node9" class="node">
<title>Node9</title>
<g id="a_node9"><a xlink:title=" ">
<polygon fill="white" stroke="#bfbfbf" points="347.5,-0.5 347.5,-19.5 394.5,-19.5 394.5,-0.5 347.5,-0.5"/>
<text text-anchor="middle" x="371" y="-7.5" font-family="Helvetica,sans-Serif" font-size="10.00">float.h</text>
</a>
</g>
</g>
<!-- Node4&#45;&gt;Node9 -->
<g id="edge8" class="edge">
<title>Node4&#45;&gt;Node9</title>
<path fill="none" stroke="midnightblue" d="M587.23,-59.24C547.25,-51.61 475.05,-37.33 404.64,-20.29"/>
<polygon fill="midnightblue" stroke="midnightblue" points="405.26,-16.84 394.72,-17.86 403.6,-23.64 405.26,-16.84"/>
</g>
<!-- Node10 -->
<g id="node10" class="node">
<title>Node10</title>
<g id="a_node10"><a xlink:title=" ">
<polygon fill="white" stroke="#bfbfbf" points="412.5,-0.5 412.5,-19.5 463.5,-19.5 463.5,-0.5 412.5,-0.5"/>
<text text-anchor="middle" x="438" y="-7.5" font-family="Helvetica,sans-Serif" font-size="10.00">math.h</text>
</a>
</g>
</g>
<!-- Node4&#45;&gt;Node10 -->
<g id="edge9" class="edge">
<title>Node4&#45;&gt;Node10</title>
<path fill="none" stroke="midnightblue" d="M589.48,-56.44C558.13,-47.04 507.7,-31.91 473.74,-21.72"/>
<polygon fill="midnightblue" stroke="midnightblue" points="474.35,-18.25 463.76,-18.73 472.34,-24.95 474.35,-18.25"/>
</g>
<!-- Node11 -->
<g id="node11" class="node">
<title>Node11</title>
<g id="a_node11"><a xlink:title=" ">
<polygon fill="white" stroke="#bfbfbf" points="1101.5,-0.5 1101.5,-19.5 1164.5,-19.5 1164.5,-0.5 1101.5,-0.5"/>
<text text-anchor="middle" x="1133" y="-7.5" font-family="Helvetica,sans-Serif" font-size="10.00">pthread.h</text>
</a>
</g>
</g>
<!-- Node4&#45;&gt;Node11 -->
<g id="edge10" class="edge">
<title>Node4&#45;&gt;Node11</title>
<path fill="none" stroke="midnightblue" d="M648.54,-62.2C742.97,-53.55 1027.28,-27.38 1090.99,-19.73"/>
<polygon fill="midnightblue" stroke="midnightblue" points="1091.84,-23.15 1101.29,-18.36 1090.91,-16.21 1091.84,-23.15"/>
</g>
<!-- Node12 -->
<g id="node12" class="node">
<title>Node12</title>
<g id="a_node12"><a xlink:title=" ">
<polygon fill="white" stroke="#bfbfbf" points="482,-0.5 482,-19.5 538,-19.5 538,-0.5 482,-0.5"/>
<text text-anchor="middle" x="510" y="-7.5" font-family="Helvetica,sans-Serif" font-size="10.00">stdarg.h</text>
</a>
</g>
</g>
<!-- Node4&#45;&gt;Node12 -->
<g id="edge11" class="edge">
<title>Node4&#45;&gt;Node12</title>
<path fill="none" stroke="midnightblue" d="M600.65,-56.32C583.33,-47.66 556.48,-34.24 536.5,-24.25"/>
<polygon fill="midnightblue" stroke="midnightblue" points="537.82,-21 527.31,-19.65 534.69,-27.26 537.82,-21"/>
</g>
<!-- Node13 -->
<g id="node13" class="node">
<title>Node13</title>
<g id="a_node13"><a xlink:title=" ">
<polygon fill="white" stroke="#bfbfbf" points="556.5,-0.5 556.5,-19.5 609.5,-19.5 609.5,-0.5 556.5,-0.5"/>
<text text-anchor="middle" x="583" y="-7.5" font-family="Helvetica,sans-Serif" font-size="10.00">stdint.h</text>
</a>
</g>
</g>
<!-- Node4&#45;&gt;Node13 -->
<g id="edge12" class="edge">
<title>Node4&#45;&gt;Node13</title>
<path fill="none" stroke="midnightblue" d="M612.22,-56.08C607.33,-48.53 600.17,-37.49 594.17,-28.23"/>
<polygon fill="midnightblue" stroke="midnightblue" points="597.05,-26.24 588.67,-19.75 591.17,-30.05 597.05,-26.24"/>
</g>
<!-- Node14 -->
<g id="node14" class="node">
<title>Node14</title>
<g id="a_node14"><a xlink:title=" ">
<polygon fill="white" stroke="#bfbfbf" points="627.5,-0.5 627.5,-19.5 680.5,-19.5 680.5,-0.5 627.5,-0.5"/>
<text text-anchor="middle" x="654" y="-7.5" font-family="Helvetica,sans-Serif" font-size="10.00">stdlib.h</text>
</a>
</g>
</g>
<!-- Node4&#45;&gt;Node14 -->
<g id="edge14" class="edge">
<title>Node4&#45;&gt;Node14</title>
<path fill="none" stroke="midnightblue" d="M623.94,-56.08C628.98,-48.53 636.34,-37.49 642.51,-28.23"/>
<polygon fill="midnightblue" stroke="midnightblue" points="645.53,-30.01 648.17,-19.75 639.71,-26.13 645.53,-30.01"/>
</g>
<!-- Node15 -->
<g id="node15" class="node">
<title>Node15</title>
<g id="a_node15"><a xlink:title=" ">
<polygon fill="white" stroke="#bfbfbf" points="698.5,-0.5 698.5,-19.5 751.5,-19.5 751.5,-0.5 698.5,-0.5"/>
<text text-anchor="middle" x="725" y="-7.5" font-family="Helvetica,sans-Serif" font-size="10.00">string.h</text>
</a>
</g>
</g>
<!-- Node4&#45;&gt;Node15 -->
<g id="edge15" class="edge">
<title>Node4&#45;&gt;Node15</title>
<path fill="none" stroke="midnightblue" d="M635.19,-56.32C652.35,-47.66 678.95,-34.24 698.75,-24.25"/>
<polygon fill="midnightblue" stroke="midnightblue" points="700.5,-27.28 707.85,-19.65 697.35,-21.04 700.5,-27.28"/>
</g>
<!-- Node16 -->
<g id="node16" class="node">
<title>Node16</title>
<g id="a_node16"><a xlink:title=" ">
<polygon fill="white" stroke="#bfbfbf" points="769.5,-0.5 769.5,-19.5 846.5,-19.5 846.5,-0.5 769.5,-0.5"/>
<text text-anchor="middle" x="808" y="-7.5" font-family="Helvetica,sans-Serif" font-size="10.00">sys/mman.h</text>
</a>
</g>
</g>
<!-- Node4&#45;&gt;Node16 -->
<g id="edge16" class="edge">
<title>Node4&#45;&gt;Node16</title>
<path fill="none" stroke="midnightblue" d="M648.11,-56.44C680.63,-47.2 732.58,-32.44 768.39,-22.26"/>
<polygon fill="midnightblue" stroke="midnightblue" points="769.37,-25.62 778.03,-19.52 767.46,-18.88 769.37,-25.62"/>
</g>
<!-- Node17 -->
<g id="node17" class="node">
<title>Node17</title>
<g id="a_node17"><a xlink:title=" ">
<polygon fill="white" stroke="#bfbfbf" points="865,-0.5 865,-19.5 929,-19.5 929,-0.5 865,-0.5"/>
<text text-anchor="middle" x="897" y="-7.5" font-family="Helvetica,sans-Serif" font-size="10.00">sys/stat.h</text>
</a>
</g>
</g>
<!-- Node4&#45;&gt;Node17 -->
<g id="edge17" class="edge">
<title>Node4&#45;&gt;Node17</title>
<path fill="none" stroke="midnightblue" d="M648.87,-59.46C692.44,-51.58 774.73,-36.45 854.56,-20.25"/>
<polygon fill="midnightblue" stroke="midnightblue" points="855.69,-23.59 864.79,-18.16 854.29,-16.73 855.69,-23.59"/>
</g>
<!-- Node18 -->
<g id="node18" class="node">
<title>Node18</title>
<g id="a_node18"><a xlink:title=" ">
<polygon fill="white" stroke="#bfbfbf" points="1183,-0.5 1183,-19.5 1231,-19.5 1231,-0.5 1183,-0.5"/>
<text text-anchor="middle" x="1207" y="-7.5" font-family="Helvetica,sans-Serif" font-size="10.00">time.h</text>
</a>
</g>
</g>
<!-- Node4&#45;&gt;Node18 -->
<g id="edge18" class="edge">
<title>Node4&#45;&gt;Node18</title>
<path fill="none" stroke="midnightblue" d="M648.69,-64.51C731.77,-62.76 968.05,-54.99 1172.93,-19.86"/>
<polygon fill="midnightblue" stroke="midnightblue" points="1173.71,-23.27 1182.97,-18.11 1172.51,-16.38 1173.71,-23.27"/>
</g>
<!-- Node19 -->
<g id="node19" class="node">
<title>Node19</title>
<g id="a_node19"><a xlink:title=" ">
<polygon fill="white" stroke="#bfbfbf" points="947,-0.5 947,-19.5 1003,-19.5 1003,-0.5 947,-0.5"/>
<text text-anchor="middle" x="975" y="-7.5" font-family="Helvetica,sans-Serif" font-size="10.00">unistd.h</text>
</a>
</g>
</g>
<!-- Node4&#45;&gt;Node19 -->
<g id="edge19" class="edge">
<title>Node4&#45;&gt;Node19</title>
<path fill="none" stroke="midnightblue" d="M648.61,-61.72C704.09,-55.55 825.12,-41.08 936.71,-20.09"/>
<polygon fill="midnightblue" stroke="midnightblue" points="937.61,-23.48 946.78,-18.17 936.3,-16.6 937.61,-23.48"/>
</g>
<!-- Node20 -->
<g id="node20" class="node">
<title>Node20</title>
<g id="a_node20"><a xlink:title=" ">
<polygon fill="white" stroke="#bfbfbf" points="1021,-0.5 1021,-19.5 1083,-19.5 1083,-0.5 1021,-0.5"/>
<text text-anchor="middle" x="1052" y="-7.5" font-family="Helvetica,sans-Serif" font-size="10.00">stdbool.h</text>
</a>
</g>
</g>
<!-- Node4&#45;&gt;Node20 -->
<g id="edge20" class="edge">
<title>Node4&#45;&gt;Node20</title>
<path fill="none" stroke="midnightblue" d="M648.63,-61.93C725.33,-54.19 925.04,-33.59 1010.54,-20.05"/>
<polygon fill="midnightblue" stroke="midnightblue" points="1011.32,-23.47 1020.62,-18.4 1010.19,-16.56 1011.32,-23.47"/>
</g>
<!-- Node21&#45;&gt;Node4 -->
<g id="edge23" class="edge">
<title>Node21&#45;&gt;Node4</title>
<path fill="none" stroke="midnightblue" d="M674.82,-224.37C662.53,-216.53 645.86,-203.79 637,-188 618.77,-155.5 616.59,-110.79 617.04,-85.82"/>
<polygon fill="midnightblue" stroke="midnightblue" points="620.54,-85.69 617.39,-75.57 613.55,-85.44 620.54,-85.69"/>
</g>
<!-- Node22 -->
<g id="node22" class="node">
<title>Node22</title>
<g id="a_node22"><a xlink:title=" ">
<polygon fill="white" stroke="#bfbfbf" points="646,-168.5 646,-187.5 720,-187.5 720,-168.5 646,-168.5"/>
<text text-anchor="middle" x="683" y="-175.5" font-family="Helvetica,sans-Serif" font-size="10.00">stdatomic.h</text>
</a>
</g>
</g>
<!-- Node21&#45;&gt;Node22 -->
<g id="edge22" class="edge">
<title>Node21&#45;&gt;Node22</title>
<path fill="none" stroke="midnightblue" d="M688.84,-224.08C687.92,-216.93 686.58,-206.64 685.42,-197.69"/>
<polygon fill="midnightblue" stroke="midnightblue" points="688.89,-197.22 684.13,-187.75 681.95,-198.12 688.89,-197.22"/>
</g>
<!-- Node21&#45;&gt;Node23 -->
<g id="edge24" class="edge">
<title>Node21&#45;&gt;Node23</title>
<path fill="none" stroke="midnightblue" d="M707.67,-224.32C725.39,-215.62 752.9,-202.12 773.29,-192.11"/>
<polygon fill="midnightblue" stroke="midnightblue" points="774.94,-195.2 782.37,-187.65 771.85,-188.92 774.94,-195.2"/>
</g>
<!-- Node23&#45;&gt;Node4 -->
<g id="edge27" class="edge">
<title>Node23&#45;&gt;Node4</title>
<path fill="none" stroke="midnightblue" d="M783.46,-168.39C766.75,-159.58 740.3,-145.34 718,-132 690.11,-115.31 658.83,-94.65 638.8,-81.17"/>
<polygon fill="midnightblue" stroke="midnightblue" points="640.68,-78.22 630.44,-75.51 636.76,-84.01 640.68,-78.22"/>
</g>
<!-- Node23&#45;&gt;Node11 -->
<g id="edge25" class="edge">
<title>Node23&#45;&gt;Node11</title>
<path fill="none" stroke="midnightblue" d="M785.36,-168.47C766.07,-156.13 736.23,-132.53 751,-112 840.79,12.81 934.55,-50.02 1091.3,-20.02"/>
<polygon fill="midnightblue" stroke="midnightblue" points="1092.12,-23.43 1101.22,-18.01 1090.73,-16.57 1092.12,-23.43"/>
</g>
<!-- Node24 -->
<g id="node24" class="node">
<title>Node24</title>
<g id="a_node24"><a xlink:title=" ">
<polygon fill="white" stroke="#bfbfbf" points="760,-112.5 760,-131.5 840,-131.5 840,-112.5 760,-112.5"/>
<text text-anchor="middle" x="800" y="-119.5" font-family="Helvetica,sans-Serif" font-size="10.00">semaphore.h</text>
</a>
</g>
</g>
<!-- Node23&#45;&gt;Node24 -->
<g id="edge26" class="edge">
<title>Node23&#45;&gt;Node24</title>
<path fill="none" stroke="midnightblue" d="M800,-168.08C800,-161.01 800,-150.86 800,-141.99"/>
<polygon fill="midnightblue" stroke="midnightblue" points="803.5,-141.75 800,-131.75 796.5,-141.75 803.5,-141.75"/>
</g>
<!-- Node23&#45;&gt;Node25 -->
<g id="edge28" class="edge">
<title>Node23&#45;&gt;Node25</title>
<path fill="none" stroke="midnightblue" d="M818.38,-168.44C837.22,-159.68 866.73,-145.94 888.38,-135.86"/>
<polygon fill="midnightblue" stroke="midnightblue" points="890.12,-138.91 897.71,-131.52 887.16,-132.56 890.12,-138.91"/>
</g>
<!-- Node25&#45;&gt;Node4 -->
<g id="edge31" class="edge">
<title>Node25&#45;&gt;Node4</title>
<path fill="none" stroke="midnightblue" d="M868.78,-112.44C810.81,-101.94 713.46,-84.3 658.66,-74.37"/>
<polygon fill="midnightblue" stroke="midnightblue" points="659.08,-70.89 648.62,-72.55 657.84,-77.78 659.08,-70.89"/>
</g>
<!-- Node25&#45;&gt;Node18 -->
<g id="edge30" class="edge">
<title>Node25&#45;&gt;Node18</title>
<path fill="none" stroke="midnightblue" d="M915.94,-112.29C916.34,-98.15 919.36,-70.33 936,-56 974.47,-22.86 1107.19,-30.16 1172.97,-19.74"/>
<polygon fill="midnightblue" stroke="midnightblue" points="1173.73,-23.16 1182.93,-17.91 1172.46,-16.28 1173.73,-23.16"/>
</g>
<!-- Node26 -->
<g id="node26" class="node">
<title>Node26</title>
<g id="a_node26"><a xlink:title=" ">
<polygon fill="white" stroke="#bfbfbf" points="944.5,-56.5 944.5,-75.5 997.5,-75.5 997.5,-56.5 944.5,-56.5"/>
<text text-anchor="middle" x="971" y="-63.5" font-family="Helvetica,sans-Serif" font-size="10.00">limits.h</text>
</a>
</g>
</g>
<!-- Node25&#45;&gt;Node26 -->
<g id="edge29" class="edge">
<title>Node25&#45;&gt;Node26</title>
<path fill="none" stroke="midnightblue" d="M925.08,-112.08C933.17,-104.14 945.2,-92.34 954.91,-82.8"/>
<polygon fill="midnightblue" stroke="midnightblue" points="957.4,-85.25 962.09,-75.75 952.5,-80.26 957.4,-85.25"/>
</g>
</g>
</svg>
        <g id="navigator" transform="translate(0 0)" fill="#404254">
                <rect fill="#f2f5e9" fill-opacity="0.5" stroke="#606060" stroke-width=".5" x="0" y="0" width="60" height="60"/>
                <use id="zoomplus" xlink:href="#zoomPlus" x="17" y="9" onmousedown="handleZoom(evt,'in')"/>
                <use id="zoomminus" xlink:href="#zoomMin" x="42" y="9" onmousedown="handleZoom(evt,'out')"/>
                <use id="reset" xlink:href="#resetDef" x="30" y="36" onmousedown="handleReset()"/>
                <g id="arrowUp" xlink:href="#dirArrow" transform="translate(30 24)" onmousedown="handlePan(0,-1)">
                  <use xlink:href="#rim" fill="#404040">
                        <set attributeName="fill" to="#808080" begin="arrowUp.mouseover" end="arrowUp.mouseout"/>
                  </use>
                  <path fill="none" stroke="white" stroke-width="1.5" d="M0,-3.0v7 M-2.5,-0.5L0,-3.0L2.5,-0.5"/>
                </g>
                <g id="arrowRight" xlink:href="#dirArrow" transform="rotate(90) translate(36 -43)" onmousedown="handlePan(1,0)">
                  <use xlink:href="#rim" fill="#404040">
                        <set attributeName="fill" to="#808080" begin="arrowRight.mouseover" end="arrowRight.mouseout"/>
                  </use>
                  <path fill="none" stroke="white" stroke-width="1.5" d="M0,-3.0v7 M-2.5,-0.5L0,-3.0L2.5,-0.5"/>
                </g>
                <g id="arrowDown" xlink:href="#dirArrow" transform="rotate(180) translate(-30 -48)" onmousedown="handlePan(0,1)">
                  <use xlink:href="#rim" fill="#404040">
                        <set attributeName="fill" to="#808080" begin="arrowDown.mouseover" end="arrowDown.mouseout"/>
                  </use>
                  <path fill="none" stroke="white" stroke-width="1.5" d="M0,-3.0v7 M-2.5,-0.5L0,-3.0L2.5,-0.5"/>
                </g>
                <g id="arrowLeft" xlink:href="#dirArrow" transform="rotate(270) translate(-36 17)" onmousedown="handlePan(-1,0)">
                  <use xlink:href="#rim" fill="#404040">
                        <set attributeName="fill" to="#808080" begin="arrowLeft.mouseover" end="arrowLeft.mouseout"/>
                  </use>
                  <path fill="none" stroke="white" stroke-width="1.5" d="M0,-3.0v7 M-2.5,-0.5L0,-3.0L2.5,-0.5"/>
                </g>
        </g>
        <svg viewBox="0 0 15 15" width="100%" height="30px" preserveAspectRatio="xMaxYMin meet">
         <g id="arrow_out" transform="scale(0.3 0.3)">
          <a xlink:href="SensorDataPipe_8c__incl_org.svg" target="_base">
           <rect id="button" ry="5" rx="5" y="6" x="6" height="38" width="38"
                fill="#f2f5e9" fill-opacity="0.5" stroke="#606060" stroke-width="1.0"/>
           <path id="arrow"
             d="M 11.500037,31.436501 C 11.940474,20.09759 22.043105,11.32322 32.158766,21.979434 L 37.068811,17.246167 C 37.068811,17.246167 37.088388,32 37.088388,32 L 22.160133,31.978069 C 22.160133,31.978069 26.997745,27.140456 26.997745,27.140456 C 18.528582,18.264221 13.291696,25.230495 11.500037,31.436501 z"
             style="fill:#404040;"/>
          </a>
         </g>
        </svg>
</svg>
