<?xml version="1.0" encoding="UTF-8" standalone="no"?>
<!DOCTYPE svg PUBLIC "-//W3C//DTD SVG 1.1//EN"
 "http://www.w3.org/Graphics/SVG/1.1/DTD/svg11.dtd">
<!-- Generated by graphviz version 2.43.0 (0)
 -->
<!-- Title: src/Common/SensorDataPipe.c Pages: 1 -->
<svg width="1239pt" height="302pt"
 viewBox="0.00 0.00 1239.00 302.00" xmlns="http://www.w3.org/2000/svg" xmlns:xlink="http://www.w3.org/1999/xlink">
<g id="graph0" class="graph" transform="scale(1 1) rotate(0) translate(4 298)">
<title>src/Common/SensorDataPipe.c</title>
<!-- Node1 -->
<g id="Node000001" class="node">
<title>Node1</title>
<g id="a_Node000001"><a xlink:title="Implementation of lock free Data Pipeline.">
<polygon fill="#999999" stroke="#666666" points="828.5,-294 661.5,-294 661.5,-275 828.5,-275 828.5,-294"/>
<text text-anchor="middle" x="745" y="-282" font-family="Helvetica,sans-Serif" font-size="10.00">src/Common/SensorDataPipe.c</text>
</a>
</g>
</g>
<!-- Node2 -->
<g id="Node000002" class="node">
<title>Node2</title>
<g id="a_Node000002"><a xlink:title=" ">
<polygon fill="#e0e0e0" stroke="#999999" points="50,-19 0,-19 0,0 50,0 50,-19"/>
<text text-anchor="middle" x="25" y="-7" font-family="Helvetica,sans-Serif" font-size="10.00">stdio.h</text>
</a>
</g>
</g>
<!-- Node1&#45;&gt;Node2 -->
<g id="edge1_Node000001_Node000002" class="edge">
<title>Node1&#45;&gt;Node2</title>
<g id="a_edge1_Node000001_Node000002"><a xlink:title=" ">
<path fill="none" stroke="#63b8ff" d="M661.3,-280.16C532.39,-272.69 300,-249.04 300,-175.5 300,-175.5 300,-175.5 300,-118.5 300,-93.03 134.4,-42.05 60.21,-20.49"/>
<polygon fill="#63b8ff" stroke="#63b8ff" points="60.96,-17.07 50.38,-17.65 59.01,-23.79 60.96,-17.07"/>
</a>
</g>
</g>
<!-- Node3 -->
<g id="Node000003" class="node">
<title>Node3</title>
<g id="a_Node000003"><a xlink:title=" ">
<polygon fill="#e0e0e0" stroke="#999999" points="1001.5,-239 918.5,-239 918.5,-220 1001.5,-220 1001.5,-239"/>
<text text-anchor="middle" x="960" y="-227" font-family="Helvetica,sans-Serif" font-size="10.00">sys/eventfd.h</text>
</a>
</g>
</g>
<!-- Node1&#45;&gt;Node3 -->
<g id="edge2_Node000001_Node000003" class="edge">
<title>Node1&#45;&gt;Node3</title>
<g id="a_edge2_Node000001_Node000003"><a xlink:title=" ">
<path fill="none" stroke="#63b8ff" d="M779.54,-274.98C816.42,-265.89 874.99,-251.46 915.34,-241.51"/>
<polygon fill="#63b8ff" stroke="#63b8ff" points="916.31,-244.87 925.19,-239.08 914.64,-238.08 916.31,-244.87"/>
</a>
</g>
</g>
<!-- Node4 -->
<g id="Node000004" class="node">
<title>Node4</title>
<g id="a_Node000004"><a xlink:href="Sdb_8h.html" target="_top" xlink:title=" ">
<polygon fill="white" stroke="#666666" points="648.5,-74 587.5,-74 587.5,-55 648.5,-55 648.5,-74"/>
<text text-anchor="middle" x="618" y="-62" font-family="Helvetica,sans-Serif" font-size="10.00">src/Sdb.h</text>
</a>
</g>
</g>
<!-- Node1&#45;&gt;Node4 -->
<g id="edge3_Node000001_Node000004" class="edge">
<title>Node1&#45;&gt;Node4</title>
<g id="a_edge3_Node000001_Node000004"><a xlink:title=" ">
<path fill="none" stroke="#63b8ff" d="M661.23,-276.87C636.98,-270.59 613.02,-259.23 598,-239 563.12,-192 592.21,-117.23 608.63,-83.3"/>
<polygon fill="#63b8ff" stroke="#63b8ff" points="611.87,-84.66 613.24,-74.15 605.62,-81.51 611.87,-84.66"/>
</a>
</g>
</g>
<!-- Node21 -->
<g id="Node000021" class="node">
<title>Node21</title>
<g id="a_Node000021"><a xlink:href="SensorDataPipe_8h.html" target="_top" xlink:title="Lock&#45;Free Data Pipeline.">
<polygon fill="white" stroke="#666666" points="773.5,-239 606.5,-239 606.5,-220 773.5,-220 773.5,-239"/>
<text text-anchor="middle" x="690" y="-227" font-family="Helvetica,sans-Serif" font-size="10.00">src/Common/SensorDataPipe.h</text>
</a>
</g>
</g>
<!-- Node1&#45;&gt;Node21 -->
<g id="edge21_Node000001_Node000021" class="edge">
<title>Node1&#45;&gt;Node21</title>
<g id="a_edge21_Node000001_Node000021"><a xlink:title=" ">
<path fill="none" stroke="#63b8ff" d="M735.92,-274.75C727.91,-267.03 716.04,-255.6 706.38,-246.28"/>
<polygon fill="#63b8ff" stroke="#63b8ff" points="708.54,-243.51 698.91,-239.09 703.69,-248.55 708.54,-243.51"/>
</a>
</g>
</g>
<!-- Node23 -->
<g id="Node000023" class="node">
<title>Node23</title>
<g id="a_Node000023"><a xlink:href="Thread_8h.html" target="_top" xlink:title="Lightweight Synchronization Primitives Wrapper.">
<polygon fill="white" stroke="#666666" points="862,-184 738,-184 738,-165 862,-165 862,-184"/>
<text text-anchor="middle" x="800" y="-172" font-family="Helvetica,sans-Serif" font-size="10.00">src/Common/Thread.h</text>
</a>
</g>
</g>
<!-- Node1&#45;&gt;Node23 -->
<g id="edge32_Node000001_Node000023" class="edge">
<title>Node1&#45;&gt;Node23</title>
<g id="a_edge32_Node000001_Node000023"><a xlink:title=" ">
<path fill="none" stroke="#63b8ff" d="M754.49,-274.86C763.13,-266.48 775.62,-253.03 783,-239 790.4,-224.94 794.78,-207.39 797.23,-194.31"/>
<polygon fill="#63b8ff" stroke="#63b8ff" points="800.73,-194.6 798.92,-184.16 793.83,-193.45 800.73,-194.6"/>
</a>
</g>
</g>
<!-- Node25 -->
<g id="Node000025" class="node">
<title>Node25</title>
<g id="a_Node000025"><a xlink:href="Time_8h.html" target="_top" xlink:title="Lightweight Time Manipulation Utilities.">
<polygon fill="white" stroke="#666666" points="973.5,-129 858.5,-129 858.5,-110 973.5,-110 973.5,-129"/>
<text text-anchor="middle" x="916" y="-117" font-family="Helvetica,sans-Serif" font-size="10.00">src/Common/Time.h</text>
</a>
</g>
</g>
<!-- Node1&#45;&gt;Node25 -->
<g id="edge33_Node000001_Node000025" class="edge">
<title>Node1&#45;&gt;Node25</title>
<g id="a_edge33_Node000001_Node000025"><a xlink:title=" ">
<path fill="none" stroke="#63b8ff" d="M758.15,-274.98C782.25,-258.99 834.34,-222.61 871,-184 884.48,-169.81 897.11,-151.35 905.54,-137.99"/>
<polygon fill="#63b8ff" stroke="#63b8ff" points="908.62,-139.65 910.88,-129.3 902.66,-135.98 908.62,-139.65"/>
</a>
</g>
</g>
<!-- Node4&#45;&gt;Node2 -->
<g id="edge13_Node000004_Node000002" class="edge">
<title>Node4&#45;&gt;Node2</title>
<g id="a_edge13_Node000004_Node000002"><a xlink:title=" ">
<path fill="none" stroke="#63b8ff" d="M587.49,-62.84C504.33,-60.68 266.67,-51.99 60.27,-18.93"/>
<polygon fill="#63b8ff" stroke="#63b8ff" points="60.59,-15.43 50.15,-17.28 59.46,-22.34 60.59,-15.43"/>
</a>
</g>
</g>
<!-- Node5 -->
<g id="Node000005" class="node">
<title>Node5</title>
<g id="a_Node000005"><a xlink:title=" ">
<polygon fill="#e0e0e0" stroke="#999999" points="124,-19 68,-19 68,0 124,0 124,-19"/>
<text text-anchor="middle" x="96" y="-7" font-family="Helvetica,sans-Serif" font-size="10.00">assert.h</text>
</a>
</g>
</g>
<!-- Node4&#45;&gt;Node5 -->
<g id="edge4_Node000004_Node000005" class="edge">
<title>Node4&#45;&gt;Node5</title>
<g id="a_edge4_Node000004_Node000005"><a xlink:title=" ">
<path fill="none" stroke="#63b8ff" d="M587.46,-62.12C512.11,-58.43 311.18,-46.73 134.22,-18.98"/>
<polygon fill="#63b8ff" stroke="#63b8ff" points="134.63,-15.5 124.21,-17.39 133.53,-22.42 134.63,-15.5"/>
</a>
</g>
</g>
<!-- Node6 -->
<g id="Node000006" class="node">
<title>Node6</title>
<g id="a_Node000006"><a xlink:title=" ">
<polygon fill="#e0e0e0" stroke="#999999" points="195.5,-19 142.5,-19 142.5,0 195.5,0 195.5,-19"/>
<text text-anchor="middle" x="169" y="-7" font-family="Helvetica,sans-Serif" font-size="10.00">ctype.h</text>
</a>
</g>
</g>
<!-- Node4&#45;&gt;Node6 -->
<g id="edge5_Node000004_Node000006" class="edge">
<title>Node4&#45;&gt;Node6</title>
<g id="a_edge5_Node000004_Node000006"><a xlink:title=" ">
<path fill="none" stroke="#63b8ff" d="M587.42,-61.59C520.11,-57.1 353.94,-44.4 205.85,-19.12"/>
<polygon fill="#63b8ff" stroke="#63b8ff" points="206.13,-15.62 195.68,-17.36 204.93,-22.52 206.13,-15.62"/>
</a>
</g>
</g>
<!-- Node7 -->
<g id="Node000007" class="node">
<title>Node7</title>
<g id="a_Node000007"><a xlink:title=" ">
<polygon fill="#e0e0e0" stroke="#999999" points="264.5,-19 213.5,-19 213.5,0 264.5,0 264.5,-19"/>
<text text-anchor="middle" x="239" y="-7" font-family="Helvetica,sans-Serif" font-size="10.00">errno.h</text>
</a>
</g>
</g>
<!-- Node4&#45;&gt;Node7 -->
<g id="edge6_Node000004_Node000007" class="edge">
<title>Node4&#45;&gt;Node7</title>
<g id="a_edge6_Node000004_Node000007"><a xlink:title=" ">
<path fill="none" stroke="#63b8ff" d="M587.35,-60.76C528.54,-55.24 395.66,-41.52 274.72,-19.14"/>
<polygon fill="#63b8ff" stroke="#63b8ff" points="275.02,-15.63 264.55,-17.23 273.73,-22.51 275.02,-15.63"/>
</a>
</g>
</g>
<!-- Node8 -->
<g id="Node000008" class="node">
<title>Node8</title>
<g id="a_Node000008"><a xlink:title=" ">
<polygon fill="#e0e0e0" stroke="#999999" points="329.5,-19 282.5,-19 282.5,0 329.5,0 329.5,-19"/>
<text text-anchor="middle" x="306" y="-7" font-family="Helvetica,sans-Serif" font-size="10.00">fcntl.h</text>
</a>
</g>
</g>
<!-- Node4&#45;&gt;Node8 -->
<g id="edge7_Node000004_Node000008" class="edge">
<title>Node4&#45;&gt;Node8</title>
<g id="a_edge7_Node000004_Node000008"><a xlink:title=" ">
<path fill="none" stroke="#63b8ff" d="M587.15,-59.65C537.09,-53.16 434.89,-38.99 339.5,-19.15"/>
<polygon fill="#63b8ff" stroke="#63b8ff" points="340.21,-15.72 329.7,-17.08 338.76,-22.57 340.21,-15.72"/>
</a>
</g>
</g>
<!-- Node9 -->
<g id="Node000009" class="node">
<title>Node9</title>
<g id="a_Node000009"><a xlink:title=" ">
<polygon fill="#e0e0e0" stroke="#999999" points="394.5,-19 347.5,-19 347.5,0 394.5,0 394.5,-19"/>
<text text-anchor="middle" x="371" y="-7" font-family="Helvetica,sans-Serif" font-size="10.00">float.h</text>
</a>
</g>
</g>
<!-- Node4&#45;&gt;Node9 -->
<g id="edge8_Node000004_Node000009" class="edge">
<title>Node4&#45;&gt;Node9</title>
<g id="a_edge8_Node000004_Node000009"><a xlink:title=" ">
<path fill="none" stroke="#63b8ff" d="M587.26,-57.7C547.31,-50.03 475.15,-35.77 404.66,-19.3"/>
<polygon fill="#63b8ff" stroke="#63b8ff" points="405.26,-15.85 394.73,-16.96 403.66,-22.66 405.26,-15.85"/>
</a>
</g>
</g>
<!-- Node10 -->
<g id="Node000010" class="node">
<title>Node10</title>
<g id="a_Node000010"><a xlink:title=" ">
<polygon fill="#e0e0e0" stroke="#999999" points="463.5,-19 412.5,-19 412.5,0 463.5,0 463.5,-19"/>
<text text-anchor="middle" x="438" y="-7" font-family="Helvetica,sans-Serif" font-size="10.00">math.h</text>
</a>
</g>
</g>
<!-- Node4&#45;&gt;Node10 -->
<g id="edge9_Node000004_Node000010" class="edge">
<title>Node4&#45;&gt;Node10</title>
<g id="a_edge9_Node000004_Node000010"><a xlink:title=" ">
<path fill="none" stroke="#63b8ff" d="M589.08,-54.98C557.65,-45.73 507.4,-30.93 473.57,-20.97"/>
<polygon fill="#63b8ff" stroke="#63b8ff" points="474.22,-17.52 463.64,-18.05 472.25,-24.23 474.22,-17.52"/>
</a>
</g>
</g>
<!-- Node11 -->
<g id="Node000011" class="node">
<title>Node11</title>
<g id="a_Node000011"><a xlink:title=" ">
<polygon fill="#e0e0e0" stroke="#999999" points="1164.5,-19 1101.5,-19 1101.5,0 1164.5,0 1164.5,-19"/>
<text text-anchor="middle" x="1133" y="-7" font-family="Helvetica,sans-Serif" font-size="10.00">pthread.h</text>
</a>
</g>
</g>
<!-- Node4&#45;&gt;Node11 -->
<g id="edge10_Node000004_Node000011" class="edge">
<title>Node4&#45;&gt;Node11</title>
<g id="a_edge10_Node000004_Node000011"><a xlink:title=" ">
<path fill="none" stroke="#63b8ff" d="M648.56,-60.83C741.45,-52.69 1018.14,-28.23 1091.34,-18.82"/>
<polygon fill="#63b8ff" stroke="#63b8ff" points="1091.85,-22.28 1101.28,-17.44 1090.89,-15.34 1091.85,-22.28"/>
</a>
</g>
</g>
<!-- Node12 -->
<g id="Node000012" class="node">
<title>Node12</title>
<g id="a_Node000012"><a xlink:title=" ">
<polygon fill="#e0e0e0" stroke="#999999" points="538,-19 482,-19 482,0 538,0 538,-19"/>
<text text-anchor="middle" x="510" y="-7" font-family="Helvetica,sans-Serif" font-size="10.00">stdarg.h</text>
</a>
</g>
</g>
<!-- Node4&#45;&gt;Node12 -->
<g id="edge11_Node000004_Node000012" class="edge">
<title>Node4&#45;&gt;Node12</title>
<g id="a_edge11_Node000004_Node000012"><a xlink:title=" ">
<path fill="none" stroke="#63b8ff" d="M600.65,-54.98C583.43,-46.54 556.8,-33.47 536.85,-23.68"/>
<polygon fill="#63b8ff" stroke="#63b8ff" points="538.19,-20.43 527.67,-19.17 535.1,-26.72 538.19,-20.43"/>
</a>
</g>
</g>
<!-- Node13 -->
<g id="Node000013" class="node">
<title>Node13</title>
<g id="a_Node000013"><a xlink:title=" ">
<polygon fill="#e0e0e0" stroke="#999999" points="609.5,-19 556.5,-19 556.5,0 609.5,0 609.5,-19"/>
<text text-anchor="middle" x="583" y="-7" font-family="Helvetica,sans-Serif" font-size="10.00">stdint.h</text>
</a>
</g>
</g>
<!-- Node4&#45;&gt;Node13 -->
<g id="edge12_Node000004_Node000013" class="edge">
<title>Node4&#45;&gt;Node13</title>
<g id="a_edge12_Node000004_Node000013"><a xlink:title=" ">
<path fill="none" stroke="#63b8ff" d="M612.22,-54.75C607.38,-47.42 600.32,-36.73 594.36,-27.7"/>
<polygon fill="#63b8ff" stroke="#63b8ff" points="597.1,-25.5 588.67,-19.09 591.26,-29.36 597.1,-25.5"/>
</a>
</g>
</g>
<!-- Node14 -->
<g id="Node000014" class="node">
<title>Node14</title>
<g id="a_Node000014"><a xlink:title=" ">
<polygon fill="#e0e0e0" stroke="#999999" points="680.5,-19 627.5,-19 627.5,0 680.5,0 680.5,-19"/>
<text text-anchor="middle" x="654" y="-7" font-family="Helvetica,sans-Serif" font-size="10.00">stdlib.h</text>
</a>
</g>
</g>
<!-- Node4&#45;&gt;Node14 -->
<g id="edge14_Node000004_Node000014" class="edge">
<title>Node4&#45;&gt;Node14</title>
<g id="a_edge14_Node000004_Node000014"><a xlink:title=" ">
<path fill="none" stroke="#63b8ff" d="M623.94,-54.75C628.98,-47.34 636.34,-36.5 642.51,-27.41"/>
<polygon fill="#63b8ff" stroke="#63b8ff" points="645.44,-29.33 648.17,-19.09 639.65,-25.39 645.44,-29.33"/>
</a>
</g>
</g>
<!-- Node15 -->
<g id="Node000015" class="node">
<title>Node15</title>
<g id="a_Node000015"><a xlink:title=" ">
<polygon fill="#e0e0e0" stroke="#999999" points="751.5,-19 698.5,-19 698.5,0 751.5,0 751.5,-19"/>
<text text-anchor="middle" x="725" y="-7" font-family="Helvetica,sans-Serif" font-size="10.00">string.h</text>
</a>
</g>
</g>
<!-- Node4&#45;&gt;Node15 -->
<g id="edge15_Node000004_Node000015" class="edge">
<title>Node4&#45;&gt;Node15</title>
<g id="a_edge15_Node000004_Node000015"><a xlink:title=" ">
<path fill="none" stroke="#63b8ff" d="M635.19,-54.98C652.25,-46.54 678.63,-33.47 698.4,-23.68"/>
<polygon fill="#63b8ff" stroke="#63b8ff" points="700.09,-26.75 707.5,-19.17 696.98,-20.47 700.09,-26.75"/>
</a>
</g>
</g>
<!-- Node16 -->
<g id="Node000016" class="node">
<title>Node16</title>
<g id="a_Node000016"><a xlink:title=" ">
<polygon fill="#e0e0e0" stroke="#999999" points="846.5,-19 769.5,-19 769.5,0 846.5,0 846.5,-19"/>
<text text-anchor="middle" x="808" y="-7" font-family="Helvetica,sans-Serif" font-size="10.00">sys/mman.h</text>
</a>
</g>
</g>
<!-- Node4&#45;&gt;Node16 -->
<g id="edge16_Node000004_Node000016" class="edge">
<title>Node4&#45;&gt;Node16</title>
<g id="a_edge16_Node000004_Node000016"><a xlink:title=" ">
<path fill="none" stroke="#63b8ff" d="M648.53,-54.98C680.7,-46.01 731.56,-31.82 767.17,-21.89"/>
<polygon fill="#63b8ff" stroke="#63b8ff" points="768.54,-25.14 777.23,-19.08 766.66,-18.4 768.54,-25.14"/>
</a>
</g>
</g>
<!-- Node17 -->
<g id="Node000017" class="node">
<title>Node17</title>
<g id="a_Node000017"><a xlink:title=" ">
<polygon fill="#e0e0e0" stroke="#999999" points="929,-19 865,-19 865,0 929,0 929,-19"/>
<text text-anchor="middle" x="897" y="-7" font-family="Helvetica,sans-Serif" font-size="10.00">sys/stat.h</text>
</a>
</g>
</g>
<!-- Node4&#45;&gt;Node17 -->
<g id="edge17_Node000004_Node000017" class="edge">
<title>Node4&#45;&gt;Node17</title>
<g id="a_edge17_Node000004_Node000017"><a xlink:title=" ">
<path fill="none" stroke="#63b8ff" d="M648.85,-57.93C692.4,-50.03 774.66,-34.94 854.55,-19.26"/>
<polygon fill="#63b8ff" stroke="#63b8ff" points="855.65,-22.61 864.78,-17.24 854.3,-15.74 855.65,-22.61"/>
</a>
</g>
</g>
<!-- Node18 -->
<g id="Node000018" class="node">
<title>Node18</title>
<g id="a_Node000018"><a xlink:title=" ">
<polygon fill="#e0e0e0" stroke="#999999" points="1231,-19 1183,-19 1183,0 1231,0 1231,-19"/>
<text text-anchor="middle" x="1207" y="-7" font-family="Helvetica,sans-Serif" font-size="10.00">time.h</text>
</a>
</g>
</g>
<!-- Node4&#45;&gt;Node18 -->
<g id="edge18_Node000004_Node000018" class="edge">
<title>Node4&#45;&gt;Node18</title>
<g id="a_edge18_Node000004_Node000018"><a xlink:title=" ">
<path fill="none" stroke="#63b8ff" d="M648.66,-62.9C731.68,-60.87 967.81,-52.51 1172.9,-18.88"/>
<polygon fill="#63b8ff" stroke="#63b8ff" points="1173.66,-22.3 1182.95,-17.2 1172.51,-15.39 1173.66,-22.3"/>
</a>
</g>
</g>
<!-- Node19 -->
<g id="Node000019" class="node">
<title>Node19</title>
<g id="a_Node000019"><a xlink:title=" ">
<polygon fill="#e0e0e0" stroke="#999999" points="1003,-19 947,-19 947,0 1003,0 1003,-19"/>
<text text-anchor="middle" x="975" y="-7" font-family="Helvetica,sans-Serif" font-size="10.00">unistd.h</text>
</a>
</g>
</g>
<!-- Node4&#45;&gt;Node19 -->
<g id="edge19_Node000004_Node000019" class="edge">
<title>Node4&#45;&gt;Node19</title>
<g id="a_edge19_Node000004_Node000019"><a xlink:title=" ">
<path fill="none" stroke="#63b8ff" d="M648.59,-60.15C704.03,-53.89 825,-39.33 936.69,-19.1"/>
<polygon fill="#63b8ff" stroke="#63b8ff" points="937.57,-22.5 946.77,-17.25 936.3,-15.61 937.57,-22.5"/>
</a>
</g>
</g>
<!-- Node20 -->
<g id="Node000020" class="node">
<title>Node20</title>
<g id="a_Node000020"><a xlink:title=" ">
<polygon fill="#e0e0e0" stroke="#999999" points="1083,-19 1021,-19 1021,0 1083,0 1083,-19"/>
<text text-anchor="middle" x="1052" y="-7" font-family="Helvetica,sans-Serif" font-size="10.00">stdbool.h</text>
</a>
</g>
</g>
<!-- Node4&#45;&gt;Node20 -->
<g id="edge20_Node000004_Node000020" class="edge">
<title>Node4&#45;&gt;Node20</title>
<g id="a_edge20_Node000004_Node000020"><a xlink:title=" ">
<path fill="none" stroke="#63b8ff" d="M648.79,-61.05C713.78,-55.65 869.92,-41.52 1010.52,-19.1"/>
<polygon fill="#63b8ff" stroke="#63b8ff" points="1011.3,-22.52 1020.61,-17.47 1010.18,-15.61 1011.3,-22.52"/>
</a>
</g>
</g>
<!-- Node21&#45;&gt;Node4 -->
<g id="edge23_Node000021_Node000004" class="edge">
<title>Node21&#45;&gt;Node4</title>
<g id="a_edge23_Node000021_Node000004"><a xlink:title=" ">
<path fill="none" stroke="#63b8ff" d="M674.84,-219.99C662.56,-212.26 645.89,-199.68 637,-184 619.08,-152.39 616.76,-108.86 617.1,-84.32"/>
<polygon fill="#63b8ff" stroke="#63b8ff" points="620.6,-84.31 617.41,-74.21 613.6,-84.09 620.6,-84.31"/>
</a>
</g>
</g>
<!-- Node22 -->
<g id="Node000022" class="node">
<title>Node22</title>
<g id="a_Node000022"><a xlink:title=" ">
<polygon fill="#e0e0e0" stroke="#999999" points="720,-184 646,-184 646,-165 720,-165 720,-184"/>
<text text-anchor="middle" x="683" y="-172" font-family="Helvetica,sans-Serif" font-size="10.00">stdatomic.h</text>
</a>
</g>
</g>
<!-- Node21&#45;&gt;Node22 -->
<g id="edge22_Node000021_Node000022" class="edge">
<title>Node21&#45;&gt;Node22</title>
<g id="a_edge22_Node000021_Node000022"><a xlink:title=" ">
<path fill="none" stroke="#63b8ff" d="M688.84,-219.75C687.93,-212.8 686.61,-202.85 685.46,-194.13"/>
<polygon fill="#63b8ff" stroke="#63b8ff" points="688.91,-193.54 684.13,-184.09 681.97,-194.46 688.91,-193.54"/>
</a>
</g>
</g>
<!-- Node21&#45;&gt;Node23 -->
<g id="edge24_Node000021_Node000023" class="edge">
<title>Node21&#45;&gt;Node23</title>
<g id="a_edge24_Node000021_Node000023"><a xlink:title=" ">
<path fill="none" stroke="#63b8ff" d="M707.67,-219.98C725.29,-211.5 752.58,-198.35 772.93,-188.54"/>
<polygon fill="#63b8ff" stroke="#63b8ff" points="774.52,-191.66 782.01,-184.17 771.48,-185.36 774.52,-191.66"/>
</a>
</g>
</g>
<!-- Node23&#45;&gt;Node4 -->
<g id="edge27_Node000023_Node000004" class="edge">
<title>Node23&#45;&gt;Node4</title>
<g id="a_edge27_Node000023_Node000004"><a xlink:title=" ">
<path fill="none" stroke="#63b8ff" d="M783.48,-164.96C766.79,-156.23 740.34,-142.13 718,-129 690.33,-112.73 659.22,-92.69 639.16,-79.53"/>
<polygon fill="#63b8ff" stroke="#63b8ff" points="641.05,-76.58 630.77,-74.01 637.2,-82.43 641.05,-76.58"/>
</a>
</g>
</g>
<!-- Node23&#45;&gt;Node11 -->
<g id="edge25_Node000023_Node000011" class="edge">
<title>Node23&#45;&gt;Node11</title>
<g id="a_edge25_Node000023_Node000011"><a xlink:title=" ">
<path fill="none" stroke="#63b8ff" d="M785.07,-165C765.83,-152.93 736.45,-130.07 751,-110 797.11,-46.39 843.09,-75.25 919,-55 921.1,-54.44 1029.9,-31.87 1091.53,-19.09"/>
<polygon fill="#63b8ff" stroke="#63b8ff" points="1092.28,-22.51 1101.36,-17.06 1090.86,-15.66 1092.28,-22.51"/>
</a>
</g>
</g>
<!-- Node24 -->
<g id="Node000024" class="node">
<title>Node24</title>
<g id="a_Node000024"><a xlink:title=" ">
<polygon fill="#e0e0e0" stroke="#999999" points="840,-129 760,-129 760,-110 840,-110 840,-129"/>
<text text-anchor="middle" x="800" y="-117" font-family="Helvetica,sans-Serif" font-size="10.00">semaphore.h</text>
</a>
</g>
</g>
<!-- Node23&#45;&gt;Node24 -->
<g id="edge26_Node000023_Node000024" class="edge">
<title>Node23&#45;&gt;Node24</title>
<g id="a_edge26_Node000023_Node000024"><a xlink:title=" ">
<path fill="none" stroke="#63b8ff" d="M800,-164.75C800,-157.8 800,-147.85 800,-139.13"/>
<polygon fill="#63b8ff" stroke="#63b8ff" points="803.5,-139.09 800,-129.09 796.5,-139.09 803.5,-139.09"/>
</a>
</g>
</g>
<!-- Node23&#45;&gt;Node25 -->
<g id="edge28_Node000023_Node000025" class="edge">
<title>Node23&#45;&gt;Node25</title>
<g id="a_edge28_Node000023_Node000025"><a xlink:title=" ">
<path fill="none" stroke="#63b8ff" d="M818.64,-164.98C837.3,-156.46 866.25,-143.23 887.74,-133.41"/>
<polygon fill="#63b8ff" stroke="#63b8ff" points="889.38,-136.51 897.02,-129.17 886.47,-130.14 889.38,-136.51"/>
</a>
</g>
</g>
<!-- Node25&#45;&gt;Node4 -->
<g id="edge31_Node000025_Node000004" class="edge">
<title>Node25&#45;&gt;Node4</title>
<g id="a_edge31_Node000025_Node000004"><a xlink:title=" ">
<path fill="none" stroke="#63b8ff" d="M868.12,-109.98C810.16,-99.68 713.54,-82.49 658.91,-72.78"/>
<polygon fill="#63b8ff" stroke="#63b8ff" points="659.35,-69.3 648.89,-70.99 658.12,-76.19 659.35,-69.3"/>
</a>
</g>
</g>
<!-- Node25&#45;&gt;Node18 -->
<g id="edge30_Node000025_Node000018" class="edge">
<title>Node25&#45;&gt;Node18</title>
<g id="a_edge30_Node000025_Node000018"><a xlink:title=" ">
<path fill="none" stroke="#63b8ff" d="M916,-109.99C916.51,-96.17 919.67,-68.98 936,-55 974.57,-21.98 1107.14,-28.84 1172.95,-18.77"/>
<polygon fill="#63b8ff" stroke="#63b8ff" points="1173.68,-22.2 1182.92,-17.01 1172.46,-15.31 1173.68,-22.2"/>
</a>
</g>
</g>
<!-- Node26 -->
<g id="Node000026" class="node">
<title>Node26</title>
<g id="a_Node000026"><a xlink:title=" ">
<polygon fill="#e0e0e0" stroke="#999999" points="997.5,-74 944.5,-74 944.5,-55 997.5,-55 997.5,-74"/>
<text text-anchor="middle" x="971" y="-62" font-family="Helvetica,sans-Serif" font-size="10.00">limits.h</text>
</a>
</g>
</g>
<!-- Node25&#45;&gt;Node26 -->
<g id="edge29_Node000025_Node000026" class="edge">
<title>Node25&#45;&gt;Node26</title>
<g id="a_edge29_Node000025_Node000026"><a xlink:title=" ">
<path fill="none" stroke="#63b8ff" d="M925.08,-109.75C933.09,-102.03 944.96,-90.6 954.62,-81.28"/>
<polygon fill="#63b8ff" stroke="#63b8ff" points="957.31,-83.55 962.09,-74.09 952.46,-78.51 957.31,-83.55"/>
</a>
</g>
</g>
</g>
</svg>
