<?xml version="1.0" encoding="UTF-8" standalone="no"?>
<!DOCTYPE svg PUBLIC "-//W3C//DTD SVG 1.1//EN"
 "http://www.w3.org/Graphics/SVG/1.1/DTD/svg11.dtd">
<!-- Generated by graphviz version 2.43.0 (0)
 -->
<!-- Title: SdpCreate Pages: 1 -->
<svg width="221pt" height="138pt"
 viewBox="0.00 0.00 221.00 138.00" xmlns="http://www.w3.org/2000/svg" xmlns:xlink="http://www.w3.org/1999/xlink">
<g id="graph0" class="graph" transform="scale(1 1) rotate(0) translate(4 134)">
<title>SdpCreate</title>
<!-- Node1 -->
<g id="Node000001" class="node">
<title>Node1</title>
<g id="a_Node000001"><a xlink:title="Create a Sensor Data Pipeline.">
<polygon fill="#999999" stroke="#666666" points="67,-74 0,-74 0,-55 67,-55 67,-74"/>
<text text-anchor="middle" x="33.5" y="-62" font-family="Helvetica,sans-Serif" font-size="10.00">SdpCreate</text>
</a>
</g>
</g>
<!-- Node2 -->
<g id="Node000002" class="node">
<title>Node2</title>
<g id="a_Node000002"><a xlink:href="Sdb_8h.html#aaf34881f50372f5c1932078f4439bc5a" target="_top" xlink:title=" ">
<polygon fill="white" stroke="#666666" points="213,-130 103,-130 103,-111 213,-111 213,-130"/>
<text text-anchor="middle" x="158" y="-118" font-family="Helvetica,sans-Serif" font-size="10.00">SdbArenaBootstrap</text>
</a>
</g>
</g>
<!-- Node1&#45;&gt;Node2 -->
<g id="edge1_Node000001_Node000002" class="edge">
<title>Node1&#45;&gt;Node2</title>
<g id="a_edge1_Node000001_Node000002"><a xlink:title=" ">
<path fill="none" stroke="#63b8ff" d="M49.86,-74.1C63.48,-82.35 84.08,-94.18 103,-102.5 107.08,-104.29 111.4,-106.01 115.74,-107.63"/>
<polygon fill="#63b8ff" stroke="#63b8ff" points="114.62,-110.95 125.22,-110.99 116.97,-104.35 114.62,-110.95"/>
</a>
</g>
</g>
<!-- Node3 -->
<g id="Node000003" class="node">
<title>Node3</title>
<g id="a_Node000003"><a xlink:href="Sdb_8h.html#a05ee63d567b60fbc2b9e6732f4154a48" target="_top" xlink:title=" ">
<polygon fill="white" stroke="#666666" points="207,-93 109,-93 109,-74 207,-74 207,-93"/>
<text text-anchor="middle" x="158" y="-81" font-family="Helvetica,sans-Serif" font-size="10.00">SdbArenaGetPos</text>
</a>
</g>
</g>
<!-- Node1&#45;&gt;Node3 -->
<g id="edge2_Node000001_Node000003" class="edge">
<title>Node1&#45;&gt;Node3</title>
<g id="a_edge2_Node000001_Node000003"><a xlink:title=" ">
<path fill="none" stroke="#63b8ff" d="M67.01,-69.54C76.77,-71.06 87.8,-72.77 98.71,-74.46"/>
<polygon fill="#63b8ff" stroke="#63b8ff" points="98.23,-77.93 108.65,-76 99.3,-71.01 98.23,-77.93"/>
</a>
</g>
</g>
<!-- Node4 -->
<g id="Node000004" class="node">
<title>Node4</title>
<g id="a_Node000004"><a xlink:href="Sdb_8h.html#ab63e953fd90c628d5c0727287df66fab" target="_top" xlink:title=" ">
<polygon fill="white" stroke="#666666" points="197.5,-56 118.5,-56 118.5,-37 197.5,-37 197.5,-56"/>
<text text-anchor="middle" x="158" y="-44" font-family="Helvetica,sans-Serif" font-size="10.00">SdbArenaInit</text>
</a>
</g>
</g>
<!-- Node1&#45;&gt;Node4 -->
<g id="edge3_Node000001_Node000004" class="edge">
<title>Node1&#45;&gt;Node4</title>
<g id="a_edge3_Node000001_Node000004"><a xlink:title=" ">
<path fill="none" stroke="#63b8ff" d="M67.01,-59.72C79.67,-57.86 94.45,-55.69 108.33,-53.65"/>
<polygon fill="#63b8ff" stroke="#63b8ff" points="108.85,-57.11 118.24,-52.2 107.83,-50.19 108.85,-57.11"/>
</a>
</g>
</g>
<!-- Node5 -->
<g id="Node000005" class="node">
<title>Node5</title>
<g id="a_Node000005"><a xlink:href="Sdb_8h.html#a9a812984d9d5b96c810aea56d3cb526d" target="_top" xlink:title=" ">
<polygon fill="white" stroke="#666666" points="201.5,-19 114.5,-19 114.5,0 201.5,0 201.5,-19"/>
<text text-anchor="middle" x="158" y="-7" font-family="Helvetica,sans-Serif" font-size="10.00">SdbArenaSeek</text>
</a>
</g>
</g>
<!-- Node1&#45;&gt;Node5 -->
<g id="edge4_Node000001_Node000005" class="edge">
<title>Node1&#45;&gt;Node5</title>
<g id="a_edge4_Node000001_Node000005"><a xlink:title=" ">
<path fill="none" stroke="#63b8ff" d="M51.06,-54.93C64.73,-47.24 84.77,-36.45 103,-28.5 107.72,-26.44 112.74,-24.44 117.74,-22.55"/>
<polygon fill="#63b8ff" stroke="#63b8ff" points="119.07,-25.8 127.27,-19.09 116.68,-19.22 119.07,-25.8"/>
</a>
</g>
</g>
</g>
</svg>
