<?xml version="1.0" encoding="UTF-8" standalone="no"?>
<!DOCTYPE svg PUBLIC "-//W3C//DTD SVG 1.1//EN"
 "http://www.w3.org/Graphics/SVG/1.1/DTD/svg11.dtd">
<!-- Generated by graphviz version 2.43.0 (0)
 -->
<!-- Title: src/Common/SensorDataPipe.h Pages: 1 -->
<svg width="1240pt" height="247pt"
 viewBox="0.00 0.00 1239.50 247.00" xmlns="http://www.w3.org/2000/svg" xmlns:xlink="http://www.w3.org/1999/xlink">
<g id="graph0" class="graph" transform="scale(1 1) rotate(0) translate(4 243)">
<title>src/Common/SensorDataPipe.h</title>
<!-- Node1 -->
<g id="Node000001" class="node">
<title>Node1</title>
<g id="a_Node000001"><a xlink:title="Lock&#45;Free Data Pipeline.">
<polygon fill="#999999" stroke="#666666" points="544,-239 377,-239 377,-220 544,-220 544,-239"/>
<text text-anchor="middle" x="460.5" y="-227" font-family="Helvetica,sans-Serif" font-size="10.00">src/Common/SensorDataPipe.h</text>
</a>
</g>
</g>
<!-- Node2 -->
<g id="Node000002" class="node">
<title>Node2</title>
<g id="a_Node000002"><a xlink:title=" ">
<polygon fill="#e0e0e0" stroke="#999999" points="432.5,-184 358.5,-184 358.5,-165 432.5,-165 432.5,-184"/>
<text text-anchor="middle" x="395.5" y="-172" font-family="Helvetica,sans-Serif" font-size="10.00">stdatomic.h</text>
</a>
</g>
</g>
<!-- Node1&#45;&gt;Node2 -->
<g id="edge1_Node000001_Node000002" class="edge">
<title>Node1&#45;&gt;Node2</title>
<g id="a_edge1_Node000001_Node000002"><a xlink:title=" ">
<path fill="none" stroke="#63b8ff" d="M450.06,-219.98C440.35,-212.07 425.68,-200.11 414,-190.58"/>
<polygon fill="#63b8ff" stroke="#63b8ff" points="416.1,-187.78 406.13,-184.17 411.67,-193.2 416.1,-187.78"/>
</a>
</g>
</g>
<!-- Node3 -->
<g id="Node000003" class="node">
<title>Node3</title>
<g id="a_Node000003"><a xlink:href="Sdb_8h.html" target="_top" xlink:title=" ">
<polygon fill="white" stroke="#666666" points="665,-74 604,-74 604,-55 665,-55 665,-74"/>
<text text-anchor="middle" x="634.5" y="-62" font-family="Helvetica,sans-Serif" font-size="10.00">src/Sdb.h</text>
</a>
</g>
</g>
<!-- Node1&#45;&gt;Node3 -->
<g id="edge2_Node000001_Node000003" class="edge">
<title>Node1&#45;&gt;Node3</title>
<g id="a_edge2_Node000001_Node000003"><a xlink:title=" ">
<path fill="none" stroke="#63b8ff" d="M462.35,-219.72C467.37,-198.05 483.2,-141.5 517.5,-110 538.74,-90.49 569.4,-79.25 594.01,-72.95"/>
<polygon fill="#63b8ff" stroke="#63b8ff" points="594.88,-76.34 603.8,-70.61 593.26,-69.53 594.88,-76.34"/>
</a>
</g>
</g>
<!-- Node21 -->
<g id="Node000021" class="node">
<title>Node21</title>
<g id="a_Node000021"><a xlink:href="Thread_8h.html" target="_top" xlink:title="Lightweight Synchronization Primitives Wrapper.">
<polygon fill="white" stroke="#666666" points="628.5,-184 504.5,-184 504.5,-165 628.5,-165 628.5,-184"/>
<text text-anchor="middle" x="566.5" y="-172" font-family="Helvetica,sans-Serif" font-size="10.00">src/Common/Thread.h</text>
</a>
</g>
</g>
<!-- Node1&#45;&gt;Node21 -->
<g id="edge20_Node000001_Node000021" class="edge">
<title>Node1&#45;&gt;Node21</title>
<g id="a_edge20_Node000001_Node000021"><a xlink:title=" ">
<path fill="none" stroke="#63b8ff" d="M477.53,-219.98C494.43,-211.54 520.56,-198.47 540.14,-188.68"/>
<polygon fill="#63b8ff" stroke="#63b8ff" points="541.78,-191.77 549.16,-184.17 538.65,-185.51 541.78,-191.77"/>
</a>
</g>
</g>
<!-- Node4 -->
<g id="Node000004" class="node">
<title>Node4</title>
<g id="a_Node000004"><a xlink:title=" ">
<polygon fill="#e0e0e0" stroke="#999999" points="894.5,-19 838.5,-19 838.5,0 894.5,0 894.5,-19"/>
<text text-anchor="middle" x="866.5" y="-7" font-family="Helvetica,sans-Serif" font-size="10.00">assert.h</text>
</a>
</g>
</g>
<!-- Node3&#45;&gt;Node4 -->
<g id="edge3_Node000003_Node000004" class="edge">
<title>Node3&#45;&gt;Node4</title>
<g id="a_edge3_Node000003_Node000004"><a xlink:title=" ">
<path fill="none" stroke="#63b8ff" d="M665.24,-56.5C701.79,-48.17 764.9,-33.78 828.43,-19.24"/>
<polygon fill="#63b8ff" stroke="#63b8ff" points="829.25,-22.64 838.22,-17 827.69,-15.82 829.25,-22.64"/>
</a>
</g>
</g>
<!-- Node5 -->
<g id="Node000005" class="node">
<title>Node5</title>
<g id="a_Node000005"><a xlink:title=" ">
<polygon fill="#e0e0e0" stroke="#999999" points="966,-19 913,-19 913,0 966,0 966,-19"/>
<text text-anchor="middle" x="939.5" y="-7" font-family="Helvetica,sans-Serif" font-size="10.00">ctype.h</text>
</a>
</g>
</g>
<!-- Node3&#45;&gt;Node5 -->
<g id="edge4_Node000003_Node000005" class="edge">
<title>Node3&#45;&gt;Node5</title>
<g id="a_edge4_Node000003_Node000005"><a xlink:title=" ">
<path fill="none" stroke="#63b8ff" d="M665.28,-59.1C713.63,-52.05 810.51,-37.3 902.75,-19.03"/>
<polygon fill="#63b8ff" stroke="#63b8ff" points="903.69,-22.41 912.81,-17.02 902.32,-15.54 903.69,-22.41"/>
</a>
</g>
</g>
<!-- Node6 -->
<g id="Node000006" class="node">
<title>Node6</title>
<g id="a_Node000006"><a xlink:title=" ">
<polygon fill="#e0e0e0" stroke="#999999" points="1035,-19 984,-19 984,0 1035,0 1035,-19"/>
<text text-anchor="middle" x="1009.5" y="-7" font-family="Helvetica,sans-Serif" font-size="10.00">errno.h</text>
</a>
</g>
</g>
<!-- Node3&#45;&gt;Node6 -->
<g id="edge5_Node000003_Node000006" class="edge">
<title>Node3&#45;&gt;Node6</title>
<g id="a_edge5_Node000003_Node000006"><a xlink:title=" ">
<path fill="none" stroke="#63b8ff" d="M665.27,-59.69C738.05,-50.65 918.3,-28.1 973.83,-19"/>
<polygon fill="#63b8ff" stroke="#63b8ff" points="974.71,-22.4 983.95,-17.22 973.5,-15.5 974.71,-22.4"/>
</a>
</g>
</g>
<!-- Node7 -->
<g id="Node000007" class="node">
<title>Node7</title>
<g id="a_Node000007"><a xlink:title=" ">
<polygon fill="#e0e0e0" stroke="#999999" points="1100,-19 1053,-19 1053,0 1100,0 1100,-19"/>
<text text-anchor="middle" x="1076.5" y="-7" font-family="Helvetica,sans-Serif" font-size="10.00">fcntl.h</text>
</a>
</g>
</g>
<!-- Node3&#45;&gt;Node7 -->
<g id="edge6_Node000003_Node000007" class="edge">
<title>Node3&#45;&gt;Node7</title>
<g id="a_edge6_Node000003_Node000007"><a xlink:title=" ">
<path fill="none" stroke="#63b8ff" d="M665.32,-59.78C678.07,-58.27 692.99,-56.52 706.5,-55 853.4,-38.51 894.21,-46.13 1042.88,-19.06"/>
<polygon fill="#63b8ff" stroke="#63b8ff" points="1043.63,-22.48 1052.83,-17.22 1042.36,-15.59 1043.63,-22.48"/>
</a>
</g>
</g>
<!-- Node8 -->
<g id="Node000008" class="node">
<title>Node8</title>
<g id="a_Node000008"><a xlink:title=" ">
<polygon fill="#e0e0e0" stroke="#999999" points="1165,-19 1118,-19 1118,0 1165,0 1165,-19"/>
<text text-anchor="middle" x="1141.5" y="-7" font-family="Helvetica,sans-Serif" font-size="10.00">float.h</text>
</a>
</g>
</g>
<!-- Node3&#45;&gt;Node8 -->
<g id="edge7_Node000003_Node000008" class="edge">
<title>Node3&#45;&gt;Node8</title>
<g id="a_edge7_Node000003_Node000008"><a xlink:title=" ">
<path fill="none" stroke="#63b8ff" d="M665.31,-59.67C678.05,-58.13 692.98,-56.4 706.5,-55 882.13,-36.79 930.66,-49.71 1107.92,-19.01"/>
<polygon fill="#63b8ff" stroke="#63b8ff" points="1108.59,-22.44 1117.83,-17.27 1107.38,-15.55 1108.59,-22.44"/>
</a>
</g>
</g>
<!-- Node9 -->
<g id="Node000009" class="node">
<title>Node9</title>
<g id="a_Node000009"><a xlink:title=" ">
<polygon fill="#e0e0e0" stroke="#999999" points="132,-19 81,-19 81,0 132,0 132,-19"/>
<text text-anchor="middle" x="106.5" y="-7" font-family="Helvetica,sans-Serif" font-size="10.00">math.h</text>
</a>
</g>
</g>
<!-- Node3&#45;&gt;Node9 -->
<g id="edge8_Node000003_Node000009" class="edge">
<title>Node3&#45;&gt;Node9</title>
<g id="a_edge8_Node000003_Node000009"><a xlink:title=" ">
<path fill="none" stroke="#63b8ff" d="M603.78,-61.33C513.49,-54.85 249.17,-35.21 142.18,-18.79"/>
<polygon fill="#63b8ff" stroke="#63b8ff" points="142.45,-15.29 132.02,-17.16 141.34,-22.2 142.45,-15.29"/>
</a>
</g>
</g>
<!-- Node10 -->
<g id="Node000010" class="node">
<title>Node10</title>
<g id="a_Node000010"><a xlink:title=" ">
<polygon fill="#e0e0e0" stroke="#999999" points="63,-19 0,-19 0,0 63,0 63,-19"/>
<text text-anchor="middle" x="31.5" y="-7" font-family="Helvetica,sans-Serif" font-size="10.00">pthread.h</text>
</a>
</g>
</g>
<!-- Node3&#45;&gt;Node10 -->
<g id="edge9_Node000003_Node000010" class="edge">
<title>Node3&#45;&gt;Node10</title>
<g id="a_edge9_Node000003_Node000010"><a xlink:title=" ">
<path fill="none" stroke="#63b8ff" d="M603.71,-61.3C498.7,-53.78 156.93,-29.02 73.34,-18.97"/>
<polygon fill="#63b8ff" stroke="#63b8ff" points="73.68,-15.48 63.31,-17.65 72.77,-22.42 73.68,-15.48"/>
</a>
</g>
</g>
<!-- Node11 -->
<g id="Node000011" class="node">
<title>Node11</title>
<g id="a_Node000011"><a xlink:title=" ">
<polygon fill="#e0e0e0" stroke="#999999" points="206.5,-19 150.5,-19 150.5,0 206.5,0 206.5,-19"/>
<text text-anchor="middle" x="178.5" y="-7" font-family="Helvetica,sans-Serif" font-size="10.00">stdarg.h</text>
</a>
</g>
</g>
<!-- Node3&#45;&gt;Node11 -->
<g id="edge10_Node000003_Node000011" class="edge">
<title>Node3&#45;&gt;Node11</title>
<g id="a_edge10_Node000003_Node000011"><a xlink:title=" ">
<path fill="none" stroke="#63b8ff" d="M603.84,-61.51C535.86,-56.83 367.25,-43.73 216.61,-18.99"/>
<polygon fill="#63b8ff" stroke="#63b8ff" points="217.15,-15.54 206.71,-17.35 216,-22.44 217.15,-15.54"/>
</a>
</g>
</g>
<!-- Node12 -->
<g id="Node000012" class="node">
<title>Node12</title>
<g id="a_Node000012"><a xlink:title=" ">
<polygon fill="#e0e0e0" stroke="#999999" points="278,-19 225,-19 225,0 278,0 278,-19"/>
<text text-anchor="middle" x="251.5" y="-7" font-family="Helvetica,sans-Serif" font-size="10.00">stdint.h</text>
</a>
</g>
</g>
<!-- Node3&#45;&gt;Node12 -->
<g id="edge11_Node000003_Node000012" class="edge">
<title>Node3&#45;&gt;Node12</title>
<g id="a_edge11_Node000003_Node000012"><a xlink:title=" ">
<path fill="none" stroke="#63b8ff" d="M603.7,-60.64C544.53,-54.91 410.73,-40.83 288.11,-18.92"/>
<polygon fill="#63b8ff" stroke="#63b8ff" points="288.63,-15.46 278.17,-17.12 287.39,-22.35 288.63,-15.46"/>
</a>
</g>
</g>
<!-- Node13 -->
<g id="Node000013" class="node">
<title>Node13</title>
<g id="a_Node000013"><a xlink:title=" ">
<polygon fill="#e0e0e0" stroke="#999999" points="346.5,-19 296.5,-19 296.5,0 346.5,0 346.5,-19"/>
<text text-anchor="middle" x="321.5" y="-7" font-family="Helvetica,sans-Serif" font-size="10.00">stdio.h</text>
</a>
</g>
</g>
<!-- Node3&#45;&gt;Node13 -->
<g id="edge12_Node000003_Node000013" class="edge">
<title>Node3&#45;&gt;Node13</title>
<g id="a_edge12_Node000003_Node000013"><a xlink:title=" ">
<path fill="none" stroke="#63b8ff" d="M603.79,-59.49C553.95,-52.79 452.18,-38.32 356.53,-19.06"/>
<polygon fill="#63b8ff" stroke="#63b8ff" points="357.19,-15.62 346.7,-17.06 355.8,-22.48 357.19,-15.62"/>
</a>
</g>
</g>
<!-- Node14 -->
<g id="Node000014" class="node">
<title>Node14</title>
<g id="a_Node000014"><a xlink:title=" ">
<polygon fill="#e0e0e0" stroke="#999999" points="418,-19 365,-19 365,0 418,0 418,-19"/>
<text text-anchor="middle" x="391.5" y="-7" font-family="Helvetica,sans-Serif" font-size="10.00">stdlib.h</text>
</a>
</g>
</g>
<!-- Node3&#45;&gt;Node14 -->
<g id="edge13_Node000003_Node000014" class="edge">
<title>Node3&#45;&gt;Node14</title>
<g id="a_edge13_Node000003_Node000014"><a xlink:title=" ">
<path fill="none" stroke="#63b8ff" d="M603.78,-57.2C565.05,-49.2 496.17,-34.78 428.25,-19.36"/>
<polygon fill="#63b8ff" stroke="#63b8ff" points="428.76,-15.88 418.24,-17.07 427.21,-22.71 428.76,-15.88"/>
</a>
</g>
</g>
<!-- Node15 -->
<g id="Node000015" class="node">
<title>Node15</title>
<g id="a_Node000015"><a xlink:title=" ">
<polygon fill="#e0e0e0" stroke="#999999" points="489,-19 436,-19 436,0 489,0 489,-19"/>
<text text-anchor="middle" x="462.5" y="-7" font-family="Helvetica,sans-Serif" font-size="10.00">string.h</text>
</a>
</g>
</g>
<!-- Node3&#45;&gt;Node15 -->
<g id="edge14_Node000003_Node000015" class="edge">
<title>Node3&#45;&gt;Node15</title>
<g id="a_edge14_Node000003_Node000015"><a xlink:title=" ">
<path fill="none" stroke="#63b8ff" d="M606.87,-54.98C577.65,-45.98 531.41,-31.73 499.16,-21.8"/>
<polygon fill="#63b8ff" stroke="#63b8ff" points="499.8,-18.33 489.22,-18.73 497.74,-25.02 499.8,-18.33"/>
</a>
</g>
</g>
<!-- Node16 -->
<g id="Node000016" class="node">
<title>Node16</title>
<g id="a_Node000016"><a xlink:title=" ">
<polygon fill="#e0e0e0" stroke="#999999" points="584,-19 507,-19 507,0 584,0 584,-19"/>
<text text-anchor="middle" x="545.5" y="-7" font-family="Helvetica,sans-Serif" font-size="10.00">sys/mman.h</text>
</a>
</g>
</g>
<!-- Node3&#45;&gt;Node16 -->
<g id="edge15_Node000003_Node000016" class="edge">
<title>Node3&#45;&gt;Node16</title>
<g id="a_edge15_Node000003_Node000016"><a xlink:title=" ">
<path fill="none" stroke="#63b8ff" d="M620.2,-54.98C606.4,-46.77 585.26,-34.18 568.99,-24.49"/>
<polygon fill="#63b8ff" stroke="#63b8ff" points="570.44,-21.28 560.06,-19.17 566.86,-27.29 570.44,-21.28"/>
</a>
</g>
</g>
<!-- Node17 -->
<g id="Node000017" class="node">
<title>Node17</title>
<g id="a_Node000017"><a xlink:title=" ">
<polygon fill="#e0e0e0" stroke="#999999" points="666.5,-19 602.5,-19 602.5,0 666.5,0 666.5,-19"/>
<text text-anchor="middle" x="634.5" y="-7" font-family="Helvetica,sans-Serif" font-size="10.00">sys/stat.h</text>
</a>
</g>
</g>
<!-- Node3&#45;&gt;Node17 -->
<g id="edge16_Node000003_Node000017" class="edge">
<title>Node3&#45;&gt;Node17</title>
<g id="a_edge16_Node000003_Node000017"><a xlink:title=" ">
<path fill="none" stroke="#63b8ff" d="M634.5,-54.75C634.5,-47.8 634.5,-37.85 634.5,-29.13"/>
<polygon fill="#63b8ff" stroke="#63b8ff" points="638,-29.09 634.5,-19.09 631,-29.09 638,-29.09"/>
</a>
</g>
</g>
<!-- Node18 -->
<g id="Node000018" class="node">
<title>Node18</title>
<g id="a_Node000018"><a xlink:title=" ">
<polygon fill="#e0e0e0" stroke="#999999" points="1231.5,-19 1183.5,-19 1183.5,0 1231.5,0 1231.5,-19"/>
<text text-anchor="middle" x="1207.5" y="-7" font-family="Helvetica,sans-Serif" font-size="10.00">time.h</text>
</a>
</g>
</g>
<!-- Node3&#45;&gt;Node18 -->
<g id="edge17_Node000003_Node000018" class="edge">
<title>Node3&#45;&gt;Node18</title>
<g id="a_edge17_Node000003_Node000018"><a xlink:title=" ">
<path fill="none" stroke="#63b8ff" d="M665.3,-59.58C678.04,-58.04 692.97,-56.32 706.5,-55 910.89,-35.08 966.96,-52.58 1173.5,-18.86"/>
<polygon fill="#63b8ff" stroke="#63b8ff" points="1174.16,-22.3 1183.45,-17.21 1173.02,-15.39 1174.16,-22.3"/>
</a>
</g>
</g>
<!-- Node19 -->
<g id="Node000019" class="node">
<title>Node19</title>
<g id="a_Node000019"><a xlink:title=" ">
<polygon fill="#e0e0e0" stroke="#999999" points="740.5,-19 684.5,-19 684.5,0 740.5,0 740.5,-19"/>
<text text-anchor="middle" x="712.5" y="-7" font-family="Helvetica,sans-Serif" font-size="10.00">unistd.h</text>
</a>
</g>
</g>
<!-- Node3&#45;&gt;Node19 -->
<g id="edge18_Node000003_Node000019" class="edge">
<title>Node3&#45;&gt;Node19</title>
<g id="a_edge18_Node000003_Node000019"><a xlink:title=" ">
<path fill="none" stroke="#63b8ff" d="M647.03,-54.98C658.9,-46.92 676.96,-34.65 691.11,-25.03"/>
<polygon fill="#63b8ff" stroke="#63b8ff" points="693.44,-27.69 699.74,-19.17 689.5,-21.9 693.44,-27.69"/>
</a>
</g>
</g>
<!-- Node20 -->
<g id="Node000020" class="node">
<title>Node20</title>
<g id="a_Node000020"><a xlink:title=" ">
<polygon fill="#e0e0e0" stroke="#999999" points="820.5,-19 758.5,-19 758.5,0 820.5,0 820.5,-19"/>
<text text-anchor="middle" x="789.5" y="-7" font-family="Helvetica,sans-Serif" font-size="10.00">stdbool.h</text>
</a>
</g>
</g>
<!-- Node3&#45;&gt;Node20 -->
<g id="edge19_Node000003_Node000020" class="edge">
<title>Node3&#45;&gt;Node20</title>
<g id="a_edge19_Node000003_Node000020"><a xlink:title=" ">
<path fill="none" stroke="#63b8ff" d="M659.4,-54.98C685.2,-46.16 725.72,-32.31 754.68,-22.41"/>
<polygon fill="#63b8ff" stroke="#63b8ff" points="756.07,-25.63 764.4,-19.08 753.81,-19.01 756.07,-25.63"/>
</a>
</g>
</g>
<!-- Node21&#45;&gt;Node3 -->
<g id="edge23_Node000021_Node000003" class="edge">
<title>Node21&#45;&gt;Node3</title>
<g id="a_edge23_Node000021_Node000003"><a xlink:title=" ">
<path fill="none" stroke="#63b8ff" d="M579.58,-164.75C590.66,-156.7 606.19,-143.78 615.5,-129 624.12,-115.31 629.01,-97.5 631.66,-84.22"/>
<polygon fill="#63b8ff" stroke="#63b8ff" points="635.11,-84.79 633.39,-74.33 628.22,-83.58 635.11,-84.79"/>
</a>
</g>
</g>
<!-- Node21&#45;&gt;Node10 -->
<g id="edge21_Node000021_Node000010" class="edge">
<title>Node21&#45;&gt;Node10</title>
<g id="a_edge21_Node000021_Node000010"><a xlink:title=" ">
<path fill="none" stroke="#63b8ff" d="M538.49,-164.97C449.21,-137.77 171.28,-53.09 69.41,-22.05"/>
<polygon fill="#63b8ff" stroke="#63b8ff" points="70.14,-18.61 59.56,-19.05 68.1,-25.31 70.14,-18.61"/>
</a>
</g>
</g>
<!-- Node22 -->
<g id="Node000022" class="node">
<title>Node22</title>
<g id="a_Node000022"><a xlink:title=" ">
<polygon fill="#e0e0e0" stroke="#999999" points="606.5,-129 526.5,-129 526.5,-110 606.5,-110 606.5,-129"/>
<text text-anchor="middle" x="566.5" y="-117" font-family="Helvetica,sans-Serif" font-size="10.00">semaphore.h</text>
</a>
</g>
</g>
<!-- Node21&#45;&gt;Node22 -->
<g id="edge22_Node000021_Node000022" class="edge">
<title>Node21&#45;&gt;Node22</title>
<g id="a_edge22_Node000021_Node000022"><a xlink:title=" ">
<path fill="none" stroke="#63b8ff" d="M566.5,-164.75C566.5,-157.8 566.5,-147.85 566.5,-139.13"/>
<polygon fill="#63b8ff" stroke="#63b8ff" points="570,-139.09 566.5,-129.09 563,-139.09 570,-139.09"/>
</a>
</g>
</g>
<!-- Node23 -->
<g id="Node000023" class="node">
<title>Node23</title>
<g id="a_Node000023"><a xlink:href="Time_8h.html" target="_top" xlink:title="Lightweight Time Manipulation Utilities.">
<polygon fill="white" stroke="#666666" points="778,-129 663,-129 663,-110 778,-110 778,-129"/>
<text text-anchor="middle" x="720.5" y="-117" font-family="Helvetica,sans-Serif" font-size="10.00">src/Common/Time.h</text>
</a>
</g>
</g>
<!-- Node21&#45;&gt;Node23 -->
<g id="edge24_Node000021_Node000023" class="edge">
<title>Node21&#45;&gt;Node23</title>
<g id="a_edge24_Node000021_Node000023"><a xlink:title=" ">
<path fill="none" stroke="#63b8ff" d="M591.24,-164.98C616.87,-156.16 657.13,-142.31 685.91,-132.41"/>
<polygon fill="#63b8ff" stroke="#63b8ff" points="687.25,-135.65 695.56,-129.08 684.97,-129.03 687.25,-135.65"/>
</a>
</g>
</g>
<!-- Node23&#45;&gt;Node3 -->
<g id="edge27_Node000023_Node000003" class="edge">
<title>Node23&#45;&gt;Node3</title>
<g id="a_edge27_Node000023_Node000003"><a xlink:title=" ">
<path fill="none" stroke="#63b8ff" d="M706.68,-109.98C693.35,-101.77 672.92,-89.18 657.19,-79.49"/>
<polygon fill="#63b8ff" stroke="#63b8ff" points="658.92,-76.44 648.57,-74.17 655.25,-82.4 658.92,-76.44"/>
</a>
</g>
</g>
<!-- Node23&#45;&gt;Node18 -->
<g id="edge26_Node000023_Node000018" class="edge">
<title>Node23&#45;&gt;Node18</title>
<g id="a_edge26_Node000023_Node000018"><a xlink:title=" ">
<path fill="none" stroke="#63b8ff" d="M720.26,-109.88C720.38,-95.89 722.88,-68.48 739.5,-55 812.56,4.24 1063.05,-32.75 1173.52,-18.67"/>
<polygon fill="#63b8ff" stroke="#63b8ff" points="1174.07,-22.13 1183.45,-17.2 1173.05,-15.2 1174.07,-22.13"/>
</a>
</g>
</g>
<!-- Node24 -->
<g id="Node000024" class="node">
<title>Node24</title>
<g id="a_Node000024"><a xlink:title=" ">
<polygon fill="#e0e0e0" stroke="#999999" points="802,-74 749,-74 749,-55 802,-55 802,-74"/>
<text text-anchor="middle" x="775.5" y="-62" font-family="Helvetica,sans-Serif" font-size="10.00">limits.h</text>
</a>
</g>
</g>
<!-- Node23&#45;&gt;Node24 -->
<g id="edge25_Node000023_Node000024" class="edge">
<title>Node23&#45;&gt;Node24</title>
<g id="a_edge25_Node000023_Node000024"><a xlink:title=" ">
<path fill="none" stroke="#63b8ff" d="M729.58,-109.75C737.59,-102.03 749.46,-90.6 759.12,-81.28"/>
<polygon fill="#63b8ff" stroke="#63b8ff" points="761.81,-83.55 766.59,-74.09 756.96,-78.51 761.81,-83.55"/>
</a>
</g>
</g>
</g>
</svg>
