<?xml version="1.0" encoding="UTF-8" standalone="no"?>
<!DOCTYPE svg PUBLIC "-//W3C//DTD SVG 1.1//EN"
 "http://www.w3.org/Graphics/SVG/1.1/DTD/svg11.dtd">
<!-- Generated by graphviz version 2.43.0 (0)
 -->
<!-- Title: src/Common/SensorDataPipe.h Pages: 1 -->
<!--zoomable 159 -->

<svg id="main" version="1.1" xmlns="http://www.w3.org/2000/svg" xmlns:xlink="http://www.w3.org/1999/xlink" xml:space="preserve" onload="init(evt)">
<style type="text/css"><![CDATA[
.node, .edge {opacity: 0.7;}
.node.selected, .edge.selected {opacity: 1;}
.edge:hover path { stroke: red; }
.edge:hover polygon { stroke: red; fill: red; }
]]></style>

<defs>
  <circle id="rim" cx="0" cy="0" r="7"/>
  <circle id="rim2" cx="0" cy="0" r="3.5"/>
  <g id="zoomPlus">
    <use xlink:href="#rim" fill="#404040"><set attributeName="fill" to="#808080" begin="zoomplus.mouseover" end="zoomplus.mouseout"/></use>
    <path d="M-4,0h8M0,-4v8" fill="none" stroke="white" stroke-width="1.5" pointer-events="none"/>
  </g>
  <g id="zoomMin">
    <use xlink:href="#rim" fill="#404040"><set attributeName="fill" to="#808080" begin="zoomminus.mouseover" end="zoomminus.mouseout"/></use>
    <path d="M-4,0h8" fill="none" stroke="white" stroke-width="1.5" pointer-events="none"/>
  </g>
  <g id="arrowUp" transform="translate(30 24)">
    <use xlink:href="#rim"/>
    <path pointer-events="none" fill="none" stroke="white" stroke-width="1.5" d="M0,-3.0v7 M-2.5,-0.5L0,-3.0L2.5,-0.5"/>
  </g>
  <g id="arrowRight" transform="rotate(90) translate(36 -43)">
    <use xlink:href="#rim"/>
    <path pointer-events="none" fill="none" stroke="white" stroke-width="1.5" d="M0,-3.0v7 M-2.5,-0.5L0,-3.0L2.5,-0.5"/>
  </g>
  <g id="arrowDown" transform="rotate(180) translate(-30 -48)">
    <use xlink:href="#rim"/>
    <path pointer-events="none" fill="none" stroke="white" stroke-width="1.5" d="M0,-3.0v7 M-2.5,-0.5L0,-3.0L2.5,-0.5"/>
  </g>
  <g id="arrowLeft" transform="rotate(270) translate(-36 17)">
    <use xlink:href="#rim"/>
    <path pointer-events="none" fill="none" stroke="white" stroke-width="1.5" d="M0,-3.0v7 M-2.5,-0.5L0,-3.0L2.5,-0.5"/>
  </g>
  <g id="resetDef">
    <use xlink:href="#rim2" fill="#404040"><set attributeName="fill" to="#808080" begin="reset.mouseover" end="reset.mouseout"/></use>
  </g>
</defs>
<script type="application/ecmascript">
var viewWidth = 1486;
var viewHeight = 159;
var sectionId = 'dynsection-1';
</script>
<script type="application/ecmascript" xlink:href="svg.min.js"/>
<svg id="graph" class="graph">
<g id="viewport">
<title>src/Common/SensorDataPipe.h</title>
<!-- Node1 -->
<g id="Node000001" class="node">
<title>Node1</title>
<g id="a_Node000001"><a xlink:title="Lock&#45;Free Data Pipeline.">
<polygon fill="#999999" stroke="#666666" points="808,-151 641,-151 641,-132 808,-132 808,-151"/>
<text text-anchor="middle" x="724.5" y="-139" font-family="Helvetica,sans-Serif" font-size="10.00">src/Common/SensorDataPipe.h</text>
</a>
</g>
</g>
<!-- Node2 -->
<g id="Node000002" class="node">
<title>Node2</title>
<g id="a_Node000002"><a xlink:href="CommProtocols_2Modbus_8c.html" target="_top" xlink:title="Implementation of Modbus protocol handling.">
<polygon fill="white" stroke="#666666" points="161,-90.5 0,-90.5 0,-71.5 161,-71.5 161,-90.5"/>
<text text-anchor="middle" x="80.5" y="-78.5" font-family="Helvetica,sans-Serif" font-size="10.00">src/CommProtocols/Modbus.c</text>
</a>
</g>
</g>
<!-- Node1&#45;&gt;Node2 -->
<g id="edge1_Node000001_Node000002" class="edge">
<title>Node1&#45;&gt;Node2</title>
<g id="a_edge1_Node000001_Node000002"><a xlink:title=" ">
<path fill="none" stroke="#63b8ff" d="M630.5,-135.15C519.94,-128.35 331,-115.15 169.5,-96 156.76,-94.49 143.05,-92.51 130.3,-90.52"/>
<polygon fill="#63b8ff" stroke="#63b8ff" points="630.43,-138.65 640.62,-135.77 630.85,-131.66 630.43,-138.65"/>
</a>
</g>
</g>
<!-- Node3 -->
<g id="Node000003" class="node">
<title>Node3</title>
<g id="a_Node000003"><a xlink:href="CommProtocols_2Modbus_8h.html" target="_top" xlink:title="Modbus protocol implementation interface.">
<polygon fill="white" stroke="#666666" points="340,-90.5 179,-90.5 179,-71.5 340,-71.5 340,-90.5"/>
<text text-anchor="middle" x="259.5" y="-78.5" font-family="Helvetica,sans-Serif" font-size="10.00">src/CommProtocols/Modbus.h</text>
</a>
</g>
</g>
<!-- Node1&#45;&gt;Node3 -->
<g id="edge2_Node000001_Node000003" class="edge">
<title>Node1&#45;&gt;Node3</title>
<g id="a_edge2_Node000001_Node000003"><a xlink:title=" ">
<path fill="none" stroke="#63b8ff" d="M634.75,-130.85C558.5,-122.42 446.19,-109.46 348.5,-96 336.57,-94.36 323.76,-92.43 311.69,-90.55"/>
<polygon fill="#63b8ff" stroke="#63b8ff" points="634.48,-134.34 644.8,-131.96 635.25,-127.39 634.48,-134.34"/>
</a>
</g>
</g>
<!-- Node4 -->
<g id="Node000004" class="node">
<title>Node4</title>
<g id="a_Node000004"><a xlink:href="SensorDataPipe_8c.html" target="_top" xlink:title="Implementation of lock free Data Pipeline.">
<polygon fill="white" stroke="#666666" points="525,-90.5 358,-90.5 358,-71.5 525,-71.5 525,-90.5"/>
<text text-anchor="middle" x="441.5" y="-78.5" font-family="Helvetica,sans-Serif" font-size="10.00">src/Common/SensorDataPipe.c</text>
</a>
</g>
</g>
<!-- Node1&#45;&gt;Node4 -->
<g id="edge3_Node000001_Node000004" class="edge">
<title>Node1&#45;&gt;Node4</title>
<g id="a_edge3_Node000001_Node000004"><a xlink:title=" ">
<path fill="none" stroke="#63b8ff" d="M673.53,-129.96C618.9,-118.67 533.23,-100.96 482.7,-90.52"/>
<polygon fill="#63b8ff" stroke="#63b8ff" points="672.85,-133.4 683.35,-131.99 674.26,-126.54 672.85,-133.4"/>
</a>
</g>
</g>
<!-- Node5 -->
<g id="Node000005" class="node">
<title>Node5</title>
<g id="a_Node000005"><a xlink:href="DataHandlers_2ModbusWithPostgres_2Modbus_8c.html" target="_top" xlink:title=" ">
<polygon fill="white" stroke="#666666" points="560.5,-30 396.5,-30 396.5,0 560.5,0 560.5,-30"/>
<text text-anchor="start" x="404.5" y="-18" font-family="Helvetica,sans-Serif" font-size="10.00">src/DataHandlers/ModbusWith</text>
<text text-anchor="middle" x="478.5" y="-7" font-family="Helvetica,sans-Serif" font-size="10.00">Postgres/Modbus.c</text>
</a>
</g>
</g>
<!-- Node1&#45;&gt;Node5 -->
<g id="edge4_Node000001_Node000005" class="edge">
<title>Node1&#45;&gt;Node5</title>
<g id="a_edge4_Node000001_Node000005"><a xlink:title=" ">
<path fill="none" stroke="#63b8ff" d="M666.16,-129.71C636.62,-122.74 600.89,-111.93 571.5,-96 562.89,-91.33 518.61,-52.05 494.39,-30.32"/>
<polygon fill="#63b8ff" stroke="#63b8ff" points="665.4,-133.12 675.93,-131.93 666.95,-126.3 665.4,-133.12"/>
</a>
</g>
</g>
<!-- Node6 -->
<g id="Node000006" class="node">
<title>Node6</title>
<g id="a_Node000006"><a xlink:href="ModbusWithPostgres_8c.html" target="_top" xlink:title="Implementation of Modbus&#45;PostgreSQL integration.">
<polygon fill="white" stroke="#666666" points="752,-30 579,-30 579,0 752,0 752,-30"/>
<text text-anchor="start" x="587" y="-18" font-family="Helvetica,sans-Serif" font-size="10.00">src/DataHandlers/ModbusWith</text>
<text text-anchor="middle" x="665.5" y="-7" font-family="Helvetica,sans-Serif" font-size="10.00">Postgres/ModbusWithPostgres.c</text>
</a>
</g>
</g>
<!-- Node1&#45;&gt;Node6 -->
<g id="edge5_Node000001_Node000006" class="edge">
<title>Node1&#45;&gt;Node6</title>
<g id="a_edge5_Node000001_Node000006"><a xlink:title=" ">
<path fill="none" stroke="#63b8ff" d="M742.57,-124.33C757.45,-108.98 774.34,-85.43 762.5,-66 752.2,-49.09 734.14,-37.66 716.38,-30.05"/>
<polygon fill="#63b8ff" stroke="#63b8ff" points="739.87,-122.07 735.13,-131.55 744.74,-127.1 739.87,-122.07"/>
</a>
</g>
</g>
<!-- Node7 -->
<g id="Node000007" class="node">
<title>Node7</title>
<g id="a_Node000007"><a xlink:href="ModbusWithPostgres_8h.html" target="_top" xlink:title="Integration of Modbus and PostgreSQL data handling.">
<polygon fill="white" stroke="#666666" points="754,-96 581,-96 581,-66 754,-66 754,-96"/>
<text text-anchor="start" x="589" y="-84" font-family="Helvetica,sans-Serif" font-size="10.00">src/DataHandlers/ModbusWith</text>
<text text-anchor="middle" x="667.5" y="-73" font-family="Helvetica,sans-Serif" font-size="10.00">Postgres/ModbusWithPostgres.h</text>
</a>
</g>
</g>
<!-- Node1&#45;&gt;Node7 -->
<g id="edge6_Node000001_Node000007" class="edge">
<title>Node1&#45;&gt;Node7</title>
<g id="a_edge6_Node000001_Node000007"><a xlink:title=" ">
<path fill="none" stroke="#63b8ff" d="M709.1,-124.7C700.42,-115.78 689.65,-104.74 681.25,-96.11"/>
<polygon fill="#63b8ff" stroke="#63b8ff" points="706.6,-127.15 716.09,-131.87 711.62,-122.26 706.6,-127.15"/>
</a>
</g>
</g>
<!-- Node10 -->
<g id="Node000010" class="node">
<title>Node10</title>
<g id="a_Node000010"><a xlink:href="DatabaseSystems_2Postgres_8c.html" target="_top" xlink:title="Implementation of PostgreSQL database operations.">
<polygon fill="white" stroke="#666666" points="1068.5,-96 946.5,-96 946.5,-66 1068.5,-66 1068.5,-96"/>
<text text-anchor="start" x="954.5" y="-84" font-family="Helvetica,sans-Serif" font-size="10.00">src/DatabaseSystems</text>
<text text-anchor="middle" x="1007.5" y="-73" font-family="Helvetica,sans-Serif" font-size="10.00">/Postgres.c</text>
</a>
</g>
</g>
<!-- Node1&#45;&gt;Node10 -->
<g id="edge11_Node000001_Node000010" class="edge">
<title>Node1&#45;&gt;Node10</title>
<g id="a_edge11_Node000001_Node000010"><a xlink:title=" ">
<path fill="none" stroke="#63b8ff" d="M775.51,-129.95C823.51,-120.03 895.44,-105.16 946.46,-94.62"/>
<polygon fill="#63b8ff" stroke="#63b8ff" points="774.74,-126.54 765.65,-131.99 776.15,-133.4 774.74,-126.54"/>
</a>
</g>
</g>
<!-- Node11 -->
<g id="Node000011" class="node">
<title>Node11</title>
<g id="a_Node000011"><a xlink:href="DatabaseSystems_2Postgres_8h.html" target="_top" xlink:title="PostgreSQL interface for sensor data storage.">
<polygon fill="white" stroke="#666666" points="1208.5,-96 1086.5,-96 1086.5,-66 1208.5,-66 1208.5,-96"/>
<text text-anchor="start" x="1094.5" y="-84" font-family="Helvetica,sans-Serif" font-size="10.00">src/DatabaseSystems</text>
<text text-anchor="middle" x="1147.5" y="-73" font-family="Helvetica,sans-Serif" font-size="10.00">/Postgres.h</text>
</a>
</g>
</g>
<!-- Node1&#45;&gt;Node11 -->
<g id="edge12_Node000001_Node000011" class="edge">
<title>Node1&#45;&gt;Node11</title>
<g id="a_edge12_Node000001_Node000011"><a xlink:title=" ">
<path fill="none" stroke="#63b8ff" d="M815.67,-130.83C887.1,-122.82 988.88,-110.43 1077.5,-96 1080.44,-95.52 1083.44,-95.01 1086.46,-94.48"/>
<polygon fill="#63b8ff" stroke="#63b8ff" points="814.9,-127.4 805.35,-131.98 815.68,-134.35 814.9,-127.4"/>
</a>
</g>
</g>
<!-- Node12 -->
<g id="Node000012" class="node">
<title>Node12</title>
<g id="a_Node000012"><a xlink:href="Signals_8c.html" target="_top" xlink:title="Signal handling implementation for the Sensor Data Handler System.">
<polygon fill="white" stroke="#666666" points="1478,-24.5 1401,-24.5 1401,-5.5 1478,-5.5 1478,-24.5"/>
<text text-anchor="middle" x="1439.5" y="-12.5" font-family="Helvetica,sans-Serif" font-size="10.00">src/Signals.c</text>
</a>
</g>
</g>
<!-- Node1&#45;&gt;Node12 -->
<g id="edge13_Node000001_Node000012" class="edge">
<title>Node1&#45;&gt;Node12</title>
<g id="a_edge13_Node000001_Node000012"><a xlink:title=" ">
<path fill="none" stroke="#63b8ff" d="M793.09,-129.97C826.38,-123.16 866.26,-112.41 899.5,-96 918.79,-86.47 917.47,-73.86 937.5,-66 1125.94,7.89 1192.41,-66.53 1391.5,-30 1398.84,-28.65 1406.67,-26.63 1413.83,-24.54"/>
<polygon fill="#63b8ff" stroke="#63b8ff" points="792.12,-126.59 782.99,-131.96 793.48,-133.46 792.12,-126.59"/>
</a>
</g>
</g>
<!-- Node13 -->
<g id="Node000013" class="node">
<title>Node13</title>
<g id="a_Node000013"><a xlink:href="Signals_8h.html" target="_top" xlink:title="Signal handling interface for the Sensor Data Handler System.">
<polygon fill="white" stroke="#666666" points="890.5,-90.5 812.5,-90.5 812.5,-71.5 890.5,-71.5 890.5,-90.5"/>
<text text-anchor="middle" x="851.5" y="-78.5" font-family="Helvetica,sans-Serif" font-size="10.00">src/Signals.h</text>
</a>
</g>
</g>
<!-- Node1&#45;&gt;Node13 -->
<g id="edge14_Node000001_Node000013" class="edge">
<title>Node1&#45;&gt;Node13</title>
<g id="a_edge14_Node000001_Node000013"><a xlink:title=" ">
<path fill="none" stroke="#63b8ff" d="M752.11,-127.78C776.62,-116.49 811.74,-100.31 833.01,-90.52"/>
<polygon fill="#63b8ff" stroke="#63b8ff" points="750.59,-124.63 742.97,-131.99 753.51,-130.99 750.59,-124.63"/>
</a>
</g>
</g>
<!-- Node7&#45;&gt;Node5 -->
<g id="edge8_Node000007_Node000005" class="edge">
<title>Node7&#45;&gt;Node5</title>
<g id="a_edge8_Node000007_Node000005"><a xlink:title=" ">
<path fill="none" stroke="#63b8ff" d="M616.48,-62.72C586.2,-52.47 548.29,-39.63 519.88,-30.01"/>
<polygon fill="#63b8ff" stroke="#63b8ff" points="615.43,-66.06 626.02,-65.95 617.67,-59.43 615.43,-66.06"/>
</a>
</g>
</g>
<!-- Node7&#45;&gt;Node6 -->
<g id="edge9_Node000007_Node000006" class="edge">
<title>Node7&#45;&gt;Node6</title>
<g id="a_edge9_Node000007_Node000006"><a xlink:title=" ">
<path fill="none" stroke="#63b8ff" d="M666.74,-55.54C666.47,-46.96 666.18,-37.61 665.94,-30.16"/>
<polygon fill="#63b8ff" stroke="#63b8ff" points="663.25,-55.91 667.06,-65.8 670.24,-55.69 663.25,-55.91"/>
</a>
</g>
</g>
<!-- Node8 -->
<g id="Node000008" class="node">
<title>Node8</title>
<g id="a_Node000008"><a xlink:href="DataHandlers_8c.html" target="_top" xlink:title="Implementation of Data Handler Thread Group Management.">
<polygon fill="white" stroke="#666666" points="378,-24.5 199,-24.5 199,-5.5 378,-5.5 378,-24.5"/>
<text text-anchor="middle" x="288.5" y="-12.5" font-family="Helvetica,sans-Serif" font-size="10.00">src/DataHandlers/DataHandlers.c</text>
</a>
</g>
</g>
<!-- Node7&#45;&gt;Node8 -->
<g id="edge7_Node000007_Node000008" class="edge">
<title>Node7&#45;&gt;Node8</title>
<g id="a_edge7_Node000007_Node000008"><a xlink:title=" ">
<path fill="none" stroke="#63b8ff" d="M574.03,-64.22C499.78,-51.68 398.78,-34.62 338.94,-24.52"/>
<polygon fill="#63b8ff" stroke="#63b8ff" points="573.88,-67.74 584.33,-65.95 575.05,-60.84 573.88,-67.74"/>
</a>
</g>
</g>
<!-- Node9 -->
<g id="Node000009" class="node">
<title>Node9</title>
<g id="a_Node000009"><a xlink:href="DataHandlers_2ModbusWithPostgres_2Postgres_8c.html" target="_top" xlink:title=" ">
<polygon fill="white" stroke="#666666" points="934.5,-30 770.5,-30 770.5,0 934.5,0 934.5,-30"/>
<text text-anchor="start" x="778.5" y="-18" font-family="Helvetica,sans-Serif" font-size="10.00">src/DataHandlers/ModbusWith</text>
<text text-anchor="middle" x="852.5" y="-7" font-family="Helvetica,sans-Serif" font-size="10.00">Postgres/Postgres.c</text>
</a>
</g>
</g>
<!-- Node7&#45;&gt;Node9 -->
<g id="edge10_Node000007_Node000009" class="edge">
<title>Node7&#45;&gt;Node9</title>
<g id="a_edge10_Node000007_Node000009"><a xlink:title=" ">
<path fill="none" stroke="#63b8ff" d="M717.83,-62.59C747.4,-52.36 784.3,-39.59 812,-30.01"/>
<polygon fill="#63b8ff" stroke="#63b8ff" points="716.41,-59.38 708.1,-65.95 718.69,-65.99 716.41,-59.38"/>
</a>
</g>
</g>
<!-- Node13&#45;&gt;Node5 -->
<g id="edge16_Node000013_Node000005" class="edge">
<title>Node13&#45;&gt;Node5</title>
<g id="a_edge16_Node000013_Node000005"><a xlink:title=" ">
<path fill="none" stroke="#63b8ff" d="M802.05,-71.52C740.41,-60.94 634.18,-42.71 560.33,-30.04"/>
<polygon fill="#63b8ff" stroke="#63b8ff" points="801.84,-75.03 812.29,-73.27 803.02,-68.13 801.84,-75.03"/>
</a>
</g>
</g>
<!-- Node13&#45;&gt;Node6 -->
<g id="edge17_Node000013_Node000006" class="edge">
<title>Node13&#45;&gt;Node6</title>
<g id="a_edge17_Node000013_Node000006"><a xlink:title=" ">
<path fill="none" stroke="#63b8ff" d="M816.82,-68.07C785.57,-57.31 739.59,-41.49 706.52,-30.12"/>
<polygon fill="#63b8ff" stroke="#63b8ff" points="815.82,-71.42 826.42,-71.37 818.1,-64.81 815.82,-71.42"/>
</a>
</g>
</g>
<!-- Node13&#45;&gt;Node9 -->
<g id="edge18_Node000013_Node000009" class="edge">
<title>Node13&#45;&gt;Node9</title>
<g id="a_edge18_Node000013_Node000009"><a xlink:title=" ">
<path fill="none" stroke="#63b8ff" d="M851.79,-61.35C851.95,-51.47 852.13,-39.51 852.28,-30.36"/>
<polygon fill="#63b8ff" stroke="#63b8ff" points="848.29,-61.32 851.63,-71.37 855.29,-61.42 848.29,-61.32"/>
</a>
</g>
</g>
<!-- Node13&#45;&gt;Node12 -->
<g id="edge21_Node000013_Node000012" class="edge">
<title>Node13&#45;&gt;Node12</title>
<g id="a_edge21_Node000013_Node000012"><a xlink:title=" ">
<path fill="none" stroke="#63b8ff" d="M889.8,-68.99C894.72,-67.84 899.71,-66.8 904.5,-66 1118.55,-30.13 1177.92,-68.6 1391.5,-30 1398.85,-28.67 1406.67,-26.66 1413.83,-24.57"/>
<polygon fill="#63b8ff" stroke="#63b8ff" points="888.75,-65.65 879.9,-71.47 890.45,-72.44 888.75,-65.65"/>
</a>
</g>
</g>
<!-- Node14 -->
<g id="Node000014" class="node">
<title>Node14</title>
<g id="a_Node000014"><a xlink:href="ThreadGroup_8c.html" target="_top" xlink:title=" ">
<polygon fill="white" stroke="#666666" points="1104.5,-24.5 952.5,-24.5 952.5,-5.5 1104.5,-5.5 1104.5,-24.5"/>
<text text-anchor="middle" x="1028.5" y="-12.5" font-family="Helvetica,sans-Serif" font-size="10.00">src/Common/ThreadGroup.c</text>
</a>
</g>
</g>
<!-- Node13&#45;&gt;Node14 -->
<g id="edge15_Node000013_Node000014" class="edge">
<title>Node13&#45;&gt;Node14</title>
<g id="a_edge15_Node000013_Node000014"><a xlink:title=" ">
<path fill="none" stroke="#63b8ff" d="M885.13,-67.84C920.1,-55.2 973.94,-35.73 1004.73,-24.6"/>
<polygon fill="#63b8ff" stroke="#63b8ff" points="883.58,-64.68 875.37,-71.37 885.97,-71.26 883.58,-64.68"/>
</a>
</g>
</g>
<!-- Node15 -->
<g id="Node000015" class="node">
<title>Node15</title>
<g id="a_Node000015"><a xlink:href="ModbusTestServer_8c.html" target="_top" xlink:title="Implementation of Modbus Test Server.">
<polygon fill="white" stroke="#666666" points="1298.5,-24.5 1122.5,-24.5 1122.5,-5.5 1298.5,-5.5 1298.5,-24.5"/>
<text text-anchor="middle" x="1210.5" y="-12.5" font-family="Helvetica,sans-Serif" font-size="10.00">src/DevUtils/ModbusTestServer.c</text>
</a>
</g>
</g>
<!-- Node13&#45;&gt;Node15 -->
<g id="edge19_Node000013_Node000015" class="edge">
<title>Node13&#45;&gt;Node15</title>
<g id="a_edge19_Node000013_Node000015"><a xlink:title=" ">
<path fill="none" stroke="#63b8ff" d="M891.63,-68.97C895.96,-67.91 900.31,-66.89 904.5,-66 951.09,-56.06 1079.54,-35.97 1154.37,-24.51"/>
<polygon fill="#63b8ff" stroke="#63b8ff" points="890.48,-65.65 881.65,-71.5 892.2,-72.43 890.48,-65.65"/>
</a>
</g>
</g>
<!-- Node16 -->
<g id="Node000016" class="node">
<title>Node16</title>
<g id="a_Node000016"><a xlink:href="Main_8c.html" target="_top" xlink:title="Main implementation file for the Sensor Data Handler System.">
<polygon fill="white" stroke="#666666" points="1382.5,-24.5 1316.5,-24.5 1316.5,-5.5 1382.5,-5.5 1382.5,-24.5"/>
<text text-anchor="middle" x="1349.5" y="-12.5" font-family="Helvetica,sans-Serif" font-size="10.00">src/Main.c</text>
</a>
</g>
</g>
<!-- Node13&#45;&gt;Node16 -->
<g id="edge20_Node000013_Node000016" class="edge">
<title>Node13&#45;&gt;Node16</title>
<g id="a_edge20_Node000013_Node000016"><a xlink:title=" ">
<path fill="none" stroke="#63b8ff" d="M889.98,-69.02C894.84,-67.88 899.77,-66.83 904.5,-66 1081.62,-34.93 1131.46,-66.68 1307.5,-30 1313.97,-28.65 1320.83,-26.63 1327.1,-24.54"/>
<polygon fill="#63b8ff" stroke="#63b8ff" points="889.04,-65.65 880.19,-71.48 890.74,-72.44 889.04,-65.65"/>
</a>
</g>
</g>
</g>
</svg>

<g id="navigator" transform="translate(0 0)" fill="#404254">
  <rect fill="#f2f5e9" fill-opacity="0.5" stroke="#606060" stroke-width=".5" x="0" y="0" width="60" height="60"/>
  <use id="zoomplus" xlink:href="#zoomPlus" x="17" y="9" onmousedown="handleZoom(evt,'in')"/>
  <use id="zoomminus" xlink:href="#zoomMin" x="42" y="9" onmousedown="handleZoom(evt,'out')"/>
  <use id="reset" xlink:href="#resetDef" x="30" y="36" onmousedown="handleReset()"/>
   <use id="arrowup" xlink:href="#arrowUp" x="0" y="0" onmousedown="handlePan(0,-1)"/>
  <use id="arrowright" xlink:href="#arrowRight" x="0" y="0" onmousedown="handlePan(1,0)"/>
  <use id="arrowdown" xlink:href="#arrowDown" x="0" y="0" onmousedown="handlePan(0,1)"/>
  <use id="arrowleft" xlink:href="#arrowLeft" x="0" y="0" onmousedown="handlePan(-1,0)"/>
</g>
<svg viewBox="0 0 15 15" width="100%" height="30px" preserveAspectRatio="xMaxYMin meet">
 <g id="arrow_out" transform="scale(0.3 0.3)">
  <a xlink:href="SensorDataPipe_8h__dep__incl_org.svg" target="_base">
   <rect id="button" ry="5" rx="5" y="6" x="6" height="38" width="38"
        fill="#f2f5e9" fill-opacity="0.5" stroke="#606060" stroke-width="1.0"/>
   <path id="arrow"
     d="M 11.500037,31.436501 C 11.940474,20.09759 22.043105,11.32322 32.158766,21.979434 L 37.068811,17.246167 C 37.068811,17.246167 37.088388,32 37.088388,32 L 22.160133,31.978069 C 22.160133,31.978069 26.997745,27.140456 26.997745,27.140456 C 18.528582,18.264221 13.291696,25.230495 11.500037,31.436501 z"
     style="fill:#404040;"/>
  </a>
 </g>
</svg>

<style type='text/css'>
<![CDATA[
[data-mouse-over-selected='false'] { opacity: 0.7; }
[data-mouse-over-selected='true']  { opacity: 1.0; }
]]>
</style>
<script type="application/ecmascript"><![CDATA[
document.addEventListener('DOMContentLoaded', (event) => {
  highlightEdges();
  highlightAdjacentNodes();
});
]]></script>
</svg>
