<?xml version="1.0" encoding="UTF-8" standalone="no"?>
<!DOCTYPE svg PUBLIC "-//W3C//DTD SVG 1.1//EN"
 "http://www.w3.org/Graphics/SVG/1.1/DTD/svg11.dtd">
<!-- Generated by graphviz version 2.43.0 (0)
 -->
<!-- Title: src/Common/SensorDataPipe.h Pages: 1 -->
<svg width="1805pt" height="162pt"
 viewBox="0.00 0.00 1805.00 162.00" xmlns="http://www.w3.org/2000/svg" xmlns:xlink="http://www.w3.org/1999/xlink">
<g id="graph0" class="graph" transform="scale(1 1) rotate(0) translate(4 158)">
<title>src/Common/SensorDataPipe.h</title>
<polygon fill="white" stroke="transparent" points="-4,4 -4,-158 1801,-158 1801,4 -4,4"/>
<!-- Node1 -->
<g id="node1" class="node">
<title>Node1</title>
<g id="a_node1"><a xlink:title="Lock&#45;Free Data Pipeline.">
<polygon fill="#bfbfbf" stroke="black" points="705,-134.5 705,-153.5 872,-153.5 872,-134.5 705,-134.5"/>
<text text-anchor="middle" x="788.5" y="-141.5" font-family="Helvetica,sans-Serif" font-size="10.00">src/Common/SensorDataPipe.h</text>
</a>
</g>
</g>
<!-- Node2 -->
<g id="node2" class="node">
<title>Node2</title>
<g id="a_node2"><a xlink:href="SensorDataPipe_8c.html" target="_top" xlink:title="Implementation of lock free Data Pipeline.">
<polygon fill="white" stroke="black" points="0,-73 0,-92 167,-92 167,-73 0,-73"/>
<text text-anchor="middle" x="83.5" y="-80" font-family="Helvetica,sans-Serif" font-size="10.00">src/Common/SensorDataPipe.c</text>
</a>
</g>
</g>
<!-- Node1&#45;&gt;Node2 -->
<g id="edge1" class="edge">
<title>Node1&#45;&gt;Node2</title>
<path fill="none" stroke="midnightblue" d="M694.21,-138.51C573.66,-132.22 358.59,-119.11 175.5,-98 161.53,-96.39 146.42,-94.2 132.57,-92.01"/>
<polygon fill="midnightblue" stroke="midnightblue" points="694.34,-142.03 704.51,-139.05 694.7,-135.03 694.34,-142.03"/>
</g>
<!-- Node3 -->
<g id="node3" class="node">
<title>Node3</title>
<g id="a_node3"><a xlink:href="CommProtocols_2Modbus_8c.html" target="_top" xlink:title="Implementation of Modbus protocol handling.">
<polygon fill="white" stroke="black" points="185,-73 185,-92 346,-92 346,-73 185,-73"/>
<text text-anchor="middle" x="265.5" y="-80" font-family="Helvetica,sans-Serif" font-size="10.00">src/CommProtocols/Modbus.c</text>
</a>
</g>
</g>
<!-- Node1&#45;&gt;Node3 -->
<g id="edge2" class="edge">
<title>Node1&#45;&gt;Node3</title>
<path fill="none" stroke="midnightblue" d="M694.76,-134.87C606.74,-126.86 471.45,-113.58 354.5,-98 341.62,-96.28 327.74,-94.16 314.85,-92.07"/>
<polygon fill="midnightblue" stroke="midnightblue" points="694.45,-138.35 704.72,-135.77 695.08,-131.38 694.45,-138.35"/>
</g>
<!-- Node4 -->
<g id="node4" class="node">
<title>Node4</title>
<g id="a_node4"><a xlink:href="CommProtocols_2Modbus_8h.html" target="_top" xlink:title="Modbus protocol implementation interface.">
<polygon fill="white" stroke="black" points="364,-73 364,-92 525,-92 525,-73 364,-73"/>
<text text-anchor="middle" x="444.5" y="-80" font-family="Helvetica,sans-Serif" font-size="10.00">src/CommProtocols/Modbus.h</text>
</a>
</g>
</g>
<!-- Node1&#45;&gt;Node4 -->
<g id="edge3" class="edge">
<title>Node1&#45;&gt;Node4</title>
<path fill="none" stroke="midnightblue" d="M729.29,-132.76C662.73,-121.25 555.85,-102.76 493.7,-92.01"/>
<polygon fill="midnightblue" stroke="midnightblue" points="728.76,-136.22 739.21,-134.48 729.96,-129.32 728.76,-136.22"/>
</g>
<!-- Node5 -->
<g id="node5" class="node">
<title>Node5</title>
<g id="a_node5"><a xlink:href="DatabaseSystems_2Postgres_8c.html" target="_top" xlink:title="Implementation of PostgreSQL database operations.">
<polygon fill="white" stroke="black" points="543.5,-67.5 543.5,-97.5 665.5,-97.5 665.5,-67.5 543.5,-67.5"/>
<text text-anchor="start" x="551.5" y="-85.5" font-family="Helvetica,sans-Serif" font-size="10.00">src/DatabaseSystems</text>
<text text-anchor="middle" x="604.5" y="-74.5" font-family="Helvetica,sans-Serif" font-size="10.00">/Postgres.c</text>
</a>
</g>
</g>
<!-- Node1&#45;&gt;Node5 -->
<g id="edge4" class="edge">
<title>Node1&#45;&gt;Node5</title>
<path fill="none" stroke="midnightblue" d="M752.49,-131.36C722.51,-121.66 679.73,-107.83 647.87,-97.52"/>
<polygon fill="midnightblue" stroke="midnightblue" points="751.55,-134.73 762.14,-134.48 753.7,-128.07 751.55,-134.73"/>
</g>
<!-- Node6 -->
<g id="node6" class="node">
<title>Node6</title>
<g id="a_node6"><a xlink:href="DatabaseSystems_2Postgres_8h.html" target="_top" xlink:title="PostgreSQL interface for sensor data storage.">
<polygon fill="white" stroke="black" points="683.5,-67.5 683.5,-97.5 805.5,-97.5 805.5,-67.5 683.5,-67.5"/>
<text text-anchor="start" x="691.5" y="-85.5" font-family="Helvetica,sans-Serif" font-size="10.00">src/DatabaseSystems</text>
<text text-anchor="middle" x="744.5" y="-74.5" font-family="Helvetica,sans-Serif" font-size="10.00">/Postgres.h</text>
</a>
</g>
</g>
<!-- Node1&#45;&gt;Node6 -->
<g id="edge5" class="edge">
<title>Node1&#45;&gt;Node6</title>
<path fill="none" stroke="midnightblue" d="M776.11,-126.25C769.41,-117.19 761.23,-106.12 754.87,-97.52"/>
<polygon fill="midnightblue" stroke="midnightblue" points="773.44,-128.52 782.2,-134.48 779.06,-124.35 773.44,-128.52"/>
</g>
<!-- Node7 -->
<g id="node7" class="node">
<title>Node7</title>
<g id="a_node7"><a xlink:href="DataHandlers_2ModbusWithPostgres_2Modbus_8c.html" target="_top" xlink:title=" ">
<polygon fill="white" stroke="black" points="715.5,-0.5 715.5,-30.5 879.5,-30.5 879.5,-0.5 715.5,-0.5"/>
<text text-anchor="start" x="723.5" y="-18.5" font-family="Helvetica,sans-Serif" font-size="10.00">src/DataHandlers/ModbusWith</text>
<text text-anchor="middle" x="797.5" y="-7.5" font-family="Helvetica,sans-Serif" font-size="10.00">Postgres/Modbus.c</text>
</a>
</g>
</g>
<!-- Node1&#45;&gt;Node7 -->
<g id="edge6" class="edge">
<title>Node1&#45;&gt;Node7</title>
<path fill="none" stroke="midnightblue" d="M801.23,-125.9C806.43,-117.87 811.85,-107.9 814.5,-98 820.75,-74.69 811.61,-47.11 804.5,-30.75"/>
<polygon fill="midnightblue" stroke="midnightblue" points="798.21,-124.11 795.39,-134.32 803.96,-128.09 798.21,-124.11"/>
</g>
<!-- Node8 -->
<g id="node8" class="node">
<title>Node8</title>
<g id="a_node8"><a xlink:href="ModbusWithPostgres_8c.html" target="_top" xlink:title="Implementation of Modbus&#45;PostgreSQL integration.">
<polygon fill="white" stroke="black" points="898,-0.5 898,-30.5 1071,-30.5 1071,-0.5 898,-0.5"/>
<text text-anchor="start" x="906" y="-18.5" font-family="Helvetica,sans-Serif" font-size="10.00">src/DataHandlers/ModbusWith</text>
<text text-anchor="middle" x="984.5" y="-7.5" font-family="Helvetica,sans-Serif" font-size="10.00">Postgres/ModbusWithPostgres.c</text>
</a>
</g>
</g>
<!-- Node1&#45;&gt;Node8 -->
<g id="edge7" class="edge">
<title>Node1&#45;&gt;Node8</title>
<path fill="none" stroke="midnightblue" d="M882.45,-138.76C946.36,-133.68 1022.93,-122.52 1043.5,-98 1062.47,-75.38 1030.68,-47.11 1006.89,-30.5"/>
<polygon fill="midnightblue" stroke="midnightblue" points="882.02,-135.29 872.31,-139.53 882.54,-142.27 882.02,-135.29"/>
</g>
<!-- Node9 -->
<g id="node9" class="node">
<title>Node9</title>
<g id="a_node9"><a xlink:href="ModbusWithPostgres_8h.html" target="_top" xlink:title="Integration of Modbus and PostgreSQL data handling.">
<polygon fill="white" stroke="black" points="862,-67.5 862,-97.5 1035,-97.5 1035,-67.5 862,-67.5"/>
<text text-anchor="start" x="870" y="-85.5" font-family="Helvetica,sans-Serif" font-size="10.00">src/DataHandlers/ModbusWith</text>
<text text-anchor="middle" x="948.5" y="-74.5" font-family="Helvetica,sans-Serif" font-size="10.00">Postgres/ModbusWithPostgres.h</text>
</a>
</g>
</g>
<!-- Node1&#45;&gt;Node9 -->
<g id="edge8" class="edge">
<title>Node1&#45;&gt;Node9</title>
<path fill="none" stroke="midnightblue" d="M820.83,-130.98C846.85,-121.3 883.45,-107.69 910.79,-97.52"/>
<polygon fill="midnightblue" stroke="midnightblue" points="819.58,-127.71 811.42,-134.48 822.02,-134.27 819.58,-127.71"/>
</g>
<!-- Node12 -->
<g id="node12" class="node">
<title>Node12</title>
<g id="a_node12"><a xlink:href="Signals_8c.html" target="_top" xlink:title="Signal handling implementation for the Sensor Data Handler System.">
<polygon fill="white" stroke="black" points="1720,-6 1720,-25 1797,-25 1797,-6 1720,-6"/>
<text text-anchor="middle" x="1758.5" y="-13" font-family="Helvetica,sans-Serif" font-size="10.00">src/Signals.c</text>
</a>
</g>
</g>
<!-- Node1&#45;&gt;Node12 -->
<g id="edge13" class="edge">
<title>Node1&#45;&gt;Node12</title>
<path fill="none" stroke="midnightblue" d="M882.25,-138.32C1050.21,-128.45 1412.72,-100.43 1710.5,-31 1717.71,-29.32 1725.42,-27.16 1732.51,-25.02"/>
<polygon fill="midnightblue" stroke="midnightblue" points="881.98,-134.83 872.2,-138.9 882.38,-141.82 881.98,-134.83"/>
</g>
<!-- Node13 -->
<g id="node13" class="node">
<title>Node13</title>
<g id="a_node13"><a xlink:href="Signals_8h.html" target="_top" xlink:title="Signal handling interface for the Sensor Data Handler System.">
<polygon fill="white" stroke="black" points="1220.5,-73 1220.5,-92 1298.5,-92 1298.5,-73 1220.5,-73"/>
<text text-anchor="middle" x="1259.5" y="-80" font-family="Helvetica,sans-Serif" font-size="10.00">src/Signals.h</text>
</a>
</g>
</g>
<!-- Node1&#45;&gt;Node13 -->
<g id="edge14" class="edge">
<title>Node1&#45;&gt;Node13</title>
<path fill="none" stroke="midnightblue" d="M866.21,-133.18C968.07,-120.32 1142.86,-98.23 1220.44,-88.43"/>
<polygon fill="midnightblue" stroke="midnightblue" points="865.47,-129.75 855.98,-134.48 866.34,-136.69 865.47,-129.75"/>
</g>
<!-- Node9&#45;&gt;Node7 -->
<g id="edge10" class="edge">
<title>Node9&#45;&gt;Node7</title>
<path fill="none" stroke="midnightblue" d="M906.47,-63.41C882.36,-53.03 852.55,-40.2 830.2,-30.58"/>
<polygon fill="midnightblue" stroke="midnightblue" points="905.17,-66.66 915.74,-67.4 907.93,-60.23 905.17,-66.66"/>
</g>
<!-- Node9&#45;&gt;Node8 -->
<g id="edge11" class="edge">
<title>Node9&#45;&gt;Node8</title>
<path fill="none" stroke="midnightblue" d="M961.2,-58.58C966.37,-49.24 972.18,-38.75 976.7,-30.58"/>
<polygon fill="midnightblue" stroke="midnightblue" points="958.09,-56.95 956.31,-67.4 964.22,-60.34 958.09,-56.95"/>
</g>
<!-- Node10 -->
<g id="node10" class="node">
<title>Node10</title>
<g id="a_node10"><a xlink:href="DataHandlers_8c.html" target="_top" xlink:title="Implementation of Data Handler Thread Group Management.">
<polygon fill="white" stroke="black" points="518,-6 518,-25 697,-25 697,-6 518,-6"/>
<text text-anchor="middle" x="607.5" y="-13" font-family="Helvetica,sans-Serif" font-size="10.00">src/DataHandlers/DataHandlers.c</text>
</a>
</g>
</g>
<!-- Node9&#45;&gt;Node10 -->
<g id="edge9" class="edge">
<title>Node9&#45;&gt;Node10</title>
<path fill="none" stroke="midnightblue" d="M864.79,-65.54C797.68,-52.75 706.11,-35.3 652.24,-25.03"/>
<polygon fill="midnightblue" stroke="midnightblue" points="864.45,-69.04 874.93,-67.48 865.76,-62.17 864.45,-69.04"/>
</g>
<!-- Node11 -->
<g id="node11" class="node">
<title>Node11</title>
<g id="a_node11"><a xlink:href="DataHandlers_2ModbusWithPostgres_2Postgres_8c.html" target="_top" xlink:title=" ">
<polygon fill="white" stroke="black" points="1089.5,-0.5 1089.5,-30.5 1253.5,-30.5 1253.5,-0.5 1089.5,-0.5"/>
<text text-anchor="start" x="1097.5" y="-18.5" font-family="Helvetica,sans-Serif" font-size="10.00">src/DataHandlers/ModbusWith</text>
<text text-anchor="middle" x="1171.5" y="-7.5" font-family="Helvetica,sans-Serif" font-size="10.00">Postgres/Postgres.c</text>
</a>
</g>
</g>
<!-- Node9&#45;&gt;Node11 -->
<g id="edge12" class="edge">
<title>Node9&#45;&gt;Node11</title>
<path fill="none" stroke="midnightblue" d="M1006.55,-64.58C1042.77,-54.02 1088.85,-40.59 1123.09,-30.61"/>
<polygon fill="midnightblue" stroke="midnightblue" points="1005.23,-61.32 996.61,-67.48 1007.19,-68.04 1005.23,-61.32"/>
</g>
<!-- Node13&#45;&gt;Node7 -->
<g id="edge16" class="edge">
<title>Node13&#45;&gt;Node7</title>
<path fill="none" stroke="midnightblue" d="M1210.46,-75.19C1139.41,-65.96 1003.73,-48.02 888.5,-31 885.65,-30.58 882.75,-30.15 879.83,-29.7"/>
<polygon fill="midnightblue" stroke="midnightblue" points="1210.1,-78.67 1220.47,-76.48 1211,-71.73 1210.1,-78.67"/>
</g>
<!-- Node13&#45;&gt;Node8 -->
<g id="edge17" class="edge">
<title>Node13&#45;&gt;Node8</title>
<path fill="none" stroke="midnightblue" d="M1213.45,-70.62C1166.92,-59.62 1094.82,-42.58 1043.98,-30.56"/>
<polygon fill="midnightblue" stroke="midnightblue" points="1212.73,-74.04 1223.27,-72.94 1214.34,-67.23 1212.73,-74.04"/>
</g>
<!-- Node13&#45;&gt;Node11 -->
<g id="edge18" class="edge">
<title>Node13&#45;&gt;Node11</title>
<path fill="none" stroke="midnightblue" d="M1239.25,-66.54C1224.61,-55.73 1204.94,-41.2 1190.57,-30.59"/>
<polygon fill="midnightblue" stroke="midnightblue" points="1237.51,-69.61 1247.63,-72.73 1241.67,-63.98 1237.51,-69.61"/>
</g>
<!-- Node13&#45;&gt;Node12 -->
<g id="edge21" class="edge">
<title>Node13&#45;&gt;Node12</title>
<path fill="none" stroke="midnightblue" d="M1308.99,-78.91C1392.5,-73.88 1566.36,-60.58 1710.5,-31 1718,-29.46 1726.02,-27.27 1733.31,-25.05"/>
<polygon fill="midnightblue" stroke="midnightblue" points="1308.56,-75.43 1298.79,-79.51 1308.97,-82.42 1308.56,-75.43"/>
</g>
<!-- Node14 -->
<g id="node14" class="node">
<title>Node14</title>
<g id="a_node14"><a xlink:href="ThreadGroup_8c.html" target="_top" xlink:title=" ">
<polygon fill="white" stroke="black" points="1271.5,-6 1271.5,-25 1423.5,-25 1423.5,-6 1271.5,-6"/>
<text text-anchor="middle" x="1347.5" y="-13" font-family="Helvetica,sans-Serif" font-size="10.00">src/Common/ThreadGroup.c</text>
</a>
</g>
</g>
<!-- Node13&#45;&gt;Node14 -->
<g id="edge15" class="edge">
<title>Node13&#45;&gt;Node14</title>
<path fill="none" stroke="midnightblue" d="M1279.72,-66.57C1297.09,-53.74 1321.53,-35.69 1335.82,-25.13"/>
<polygon fill="midnightblue" stroke="midnightblue" points="1277.33,-63.98 1271.37,-72.73 1281.49,-69.61 1277.33,-63.98"/>
</g>
<!-- Node15 -->
<g id="node15" class="node">
<title>Node15</title>
<g id="a_node15"><a xlink:href="ModbusTestServer_8c.html" target="_top" xlink:title="Implementation of Modbus Test Server.">
<polygon fill="white" stroke="black" points="1441.5,-6 1441.5,-25 1617.5,-25 1617.5,-6 1441.5,-6"/>
<text text-anchor="middle" x="1529.5" y="-13" font-family="Helvetica,sans-Serif" font-size="10.00">src/DevUtils/ModbusTestServer.c</text>
</a>
</g>
</g>
<!-- Node13&#45;&gt;Node15 -->
<g id="edge19" class="edge">
<title>Node13&#45;&gt;Node15</title>
<path fill="none" stroke="midnightblue" d="M1304.93,-70.56C1358.15,-57.75 1445.24,-36.78 1493.85,-25.08"/>
<polygon fill="midnightblue" stroke="midnightblue" points="1303.98,-67.19 1295.08,-72.94 1305.62,-74 1303.98,-67.19"/>
</g>
<!-- Node16 -->
<g id="node16" class="node">
<title>Node16</title>
<g id="a_node16"><a xlink:href="Main_8c.html" target="_top" xlink:title="Main implementation file for the Sensor Data Handler System.">
<polygon fill="white" stroke="black" points="1635.5,-6 1635.5,-25 1701.5,-25 1701.5,-6 1635.5,-6"/>
<text text-anchor="middle" x="1668.5" y="-13" font-family="Helvetica,sans-Serif" font-size="10.00">src/Main.c</text>
</a>
</g>
</g>
<!-- Node13&#45;&gt;Node16 -->
<g id="edge20" class="edge">
<title>Node13&#45;&gt;Node16</title>
<path fill="none" stroke="midnightblue" d="M1308.52,-77.82C1379.43,-71.82 1514.41,-57.79 1626.5,-31 1632.95,-29.46 1639.81,-27.32 1646.07,-25.15"/>
<polygon fill="midnightblue" stroke="midnightblue" points="1308.21,-74.34 1298.53,-78.65 1308.79,-81.31 1308.21,-74.34"/>
</g>
</g>
</svg>
