<?xml version="1.0" encoding="UTF-8" standalone="no"?>
<!DOCTYPE svg PUBLIC "-//W3C//DTD SVG 1.1//EN"
 "http://www.w3.org/Graphics/SVG/1.1/DTD/svg11.dtd">
<!-- Generated by graphviz version 2.43.0 (0)
 -->
<!-- Title: src/Common/SensorDataPipe.h Pages: 1 -->
<svg width="1240pt" height="252pt"
 viewBox="0.00 0.00 1239.50 252.00" xmlns="http://www.w3.org/2000/svg" xmlns:xlink="http://www.w3.org/1999/xlink">
<g id="graph0" class="graph" transform="scale(1 1) rotate(0) translate(4 248)">
<title>src/Common/SensorDataPipe.h</title>
<polygon fill="white" stroke="transparent" points="-4,4 -4,-248 1235.5,-248 1235.5,4 -4,4"/>
<!-- Node1 -->
<g id="node1" class="node">
<title>Node1</title>
<g id="a_node1"><a xlink:title="Lock&#45;Free Data Pipeline.">
<polygon fill="#bfbfbf" stroke="black" points="377,-224.5 377,-243.5 544,-243.5 544,-224.5 377,-224.5"/>
<text text-anchor="middle" x="460.5" y="-231.5" font-family="Helvetica,sans-Serif" font-size="10.00">src/Common/SensorDataPipe.h</text>
</a>
</g>
</g>
<!-- Node2 -->
<g id="node2" class="node">
<title>Node2</title>
<g id="a_node2"><a xlink:title=" ">
<polygon fill="white" stroke="#bfbfbf" points="358.5,-168.5 358.5,-187.5 432.5,-187.5 432.5,-168.5 358.5,-168.5"/>
<text text-anchor="middle" x="395.5" y="-175.5" font-family="Helvetica,sans-Serif" font-size="10.00">stdatomic.h</text>
</a>
</g>
</g>
<!-- Node1&#45;&gt;Node2 -->
<g id="edge1" class="edge">
<title>Node1&#45;&gt;Node2</title>
<path fill="none" stroke="midnightblue" d="M450.06,-224.32C440.35,-216.26 425.68,-204.08 414,-194.37"/>
<polygon fill="midnightblue" stroke="midnightblue" points="416.06,-191.53 406.13,-187.83 411.59,-196.92 416.06,-191.53"/>
</g>
<!-- Node3 -->
<g id="node3" class="node">
<title>Node3</title>
<g id="a_node3"><a xlink:href="Sdb_8h.html" target="_top" xlink:title=" ">
<polygon fill="white" stroke="black" points="604,-56.5 604,-75.5 665,-75.5 665,-56.5 604,-56.5"/>
<text text-anchor="middle" x="634.5" y="-63.5" font-family="Helvetica,sans-Serif" font-size="10.00">src/Sdb.h</text>
</a>
</g>
</g>
<!-- Node1&#45;&gt;Node3 -->
<g id="edge2" class="edge">
<title>Node1&#45;&gt;Node3</title>
<path fill="none" stroke="midnightblue" d="M462.23,-224.37C467.06,-202.5 482.63,-144.41 517.5,-112 538.66,-92.34 569.32,-80.97 593.95,-74.58"/>
<polygon fill="midnightblue" stroke="midnightblue" points="594.85,-77.96 603.75,-72.21 593.2,-71.16 594.85,-77.96"/>
</g>
<!-- Node21 -->
<g id="node21" class="node">
<title>Node21</title>
<g id="a_node21"><a xlink:href="Thread_8h.html" target="_top" xlink:title="Lightweight Synchronization Primitives Wrapper.">
<polygon fill="white" stroke="black" points="504.5,-168.5 504.5,-187.5 628.5,-187.5 628.5,-168.5 504.5,-168.5"/>
<text text-anchor="middle" x="566.5" y="-175.5" font-family="Helvetica,sans-Serif" font-size="10.00">src/Common/Thread.h</text>
</a>
</g>
</g>
<!-- Node1&#45;&gt;Node21 -->
<g id="edge20" class="edge">
<title>Node1&#45;&gt;Node21</title>
<path fill="none" stroke="midnightblue" d="M477.53,-224.32C494.53,-215.66 520.88,-202.24 540.49,-192.25"/>
<polygon fill="midnightblue" stroke="midnightblue" points="542.19,-195.31 549.51,-187.65 539.01,-189.08 542.19,-195.31"/>
</g>
<!-- Node4 -->
<g id="node4" class="node">
<title>Node4</title>
<g id="a_node4"><a xlink:title=" ">
<polygon fill="white" stroke="#bfbfbf" points="838.5,-0.5 838.5,-19.5 894.5,-19.5 894.5,-0.5 838.5,-0.5"/>
<text text-anchor="middle" x="866.5" y="-7.5" font-family="Helvetica,sans-Serif" font-size="10.00">assert.h</text>
</a>
</g>
</g>
<!-- Node3&#45;&gt;Node4 -->
<g id="edge3" class="edge">
<title>Node3&#45;&gt;Node4</title>
<path fill="none" stroke="midnightblue" d="M665.26,-58.02C701.83,-49.69 764.97,-35.24 828.45,-20.23"/>
<polygon fill="midnightblue" stroke="midnightblue" points="829.3,-23.62 838.23,-17.91 827.69,-16.81 829.3,-23.62"/>
</g>
<!-- Node5 -->
<g id="node5" class="node">
<title>Node5</title>
<g id="a_node5"><a xlink:title=" ">
<polygon fill="white" stroke="#bfbfbf" points="913,-0.5 913,-19.5 966,-19.5 966,-0.5 913,-0.5"/>
<text text-anchor="middle" x="939.5" y="-7.5" font-family="Helvetica,sans-Serif" font-size="10.00">ctype.h</text>
</a>
</g>
</g>
<!-- Node3&#45;&gt;Node5 -->
<g id="edge4" class="edge">
<title>Node3&#45;&gt;Node5</title>
<path fill="none" stroke="midnightblue" d="M665.31,-60.66C713.69,-53.66 810.61,-38.95 902.77,-20.01"/>
<polygon fill="midnightblue" stroke="midnightblue" points="903.74,-23.38 912.82,-17.92 902.32,-16.53 903.74,-23.38"/>
</g>
<!-- Node6 -->
<g id="node6" class="node">
<title>Node6</title>
<g id="a_node6"><a xlink:title=" ">
<polygon fill="white" stroke="#bfbfbf" points="984,-0.5 984,-19.5 1035,-19.5 1035,-0.5 984,-0.5"/>
<text text-anchor="middle" x="1009.5" y="-7.5" font-family="Helvetica,sans-Serif" font-size="10.00">errno.h</text>
</a>
</g>
</g>
<!-- Node3&#45;&gt;Node6 -->
<g id="edge5" class="edge">
<title>Node3&#45;&gt;Node6</title>
<path fill="none" stroke="midnightblue" d="M665.27,-61.17C738.06,-52.07 918.33,-29.36 973.85,-19.97"/>
<polygon fill="midnightblue" stroke="midnightblue" points="974.75,-23.37 983.96,-18.13 973.5,-16.48 974.75,-23.37"/>
</g>
<!-- Node7 -->
<g id="node7" class="node">
<title>Node7</title>
<g id="a_node7"><a xlink:title=" ">
<polygon fill="white" stroke="#bfbfbf" points="1053,-0.5 1053,-19.5 1100,-19.5 1100,-0.5 1053,-0.5"/>
<text text-anchor="middle" x="1076.5" y="-7.5" font-family="Helvetica,sans-Serif" font-size="10.00">fcntl.h</text>
</a>
</g>
</g>
<!-- Node3&#45;&gt;Node7 -->
<g id="edge6" class="edge">
<title>Node3&#45;&gt;Node7</title>
<path fill="none" stroke="midnightblue" d="M665.32,-61.02C678.06,-59.41 692.99,-57.56 706.5,-56 853.35,-39 894.4,-48.14 1042.9,-20.04"/>
<polygon fill="midnightblue" stroke="midnightblue" points="1043.68,-23.45 1052.84,-18.13 1042.36,-16.58 1043.68,-23.45"/>
</g>
<!-- Node8 -->
<g id="node8" class="node">
<title>Node8</title>
<g id="a_node8"><a xlink:title=" ">
<polygon fill="white" stroke="#bfbfbf" points="1118,-0.5 1118,-19.5 1165,-19.5 1165,-0.5 1118,-0.5"/>
<text text-anchor="middle" x="1141.5" y="-7.5" font-family="Helvetica,sans-Serif" font-size="10.00">float.h</text>
</a>
</g>
</g>
<!-- Node3&#45;&gt;Node8 -->
<g id="edge7" class="edge">
<title>Node3&#45;&gt;Node8</title>
<path fill="none" stroke="midnightblue" d="M665.3,-60.91C678.04,-59.28 692.97,-57.45 706.5,-56 882.07,-37.19 930.88,-51.93 1107.94,-19.99"/>
<polygon fill="midnightblue" stroke="midnightblue" points="1108.64,-23.42 1117.85,-18.18 1107.38,-16.53 1108.64,-23.42"/>
</g>
<!-- Node9 -->
<g id="node9" class="node">
<title>Node9</title>
<g id="a_node9"><a xlink:title=" ">
<polygon fill="white" stroke="#bfbfbf" points="81,-0.5 81,-19.5 132,-19.5 132,-0.5 81,-0.5"/>
<text text-anchor="middle" x="106.5" y="-7.5" font-family="Helvetica,sans-Serif" font-size="10.00">math.h</text>
</a>
</g>
</g>
<!-- Node3&#45;&gt;Node9 -->
<g id="edge8" class="edge">
<title>Node3&#45;&gt;Node9</title>
<path fill="none" stroke="midnightblue" d="M603.77,-62.48C508.19,-54.62 218.52,-30.5 142.34,-19.68"/>
<polygon fill="midnightblue" stroke="midnightblue" points="142.43,-16.15 132.01,-18.07 141.35,-23.07 142.43,-16.15"/>
</g>
<!-- Node10 -->
<g id="node10" class="node">
<title>Node10</title>
<g id="a_node10"><a xlink:title=" ">
<polygon fill="white" stroke="#bfbfbf" points="0,-0.5 0,-19.5 63,-19.5 63,-0.5 0,-0.5"/>
<text text-anchor="middle" x="31.5" y="-7.5" font-family="Helvetica,sans-Serif" font-size="10.00">pthread.h</text>
</a>
</g>
</g>
<!-- Node3&#45;&gt;Node10 -->
<g id="edge9" class="edge">
<title>Node3&#45;&gt;Node10</title>
<path fill="none" stroke="midnightblue" d="M603.89,-62.67C497.17,-54.55 144.49,-27.58 73.4,-19.83"/>
<polygon fill="midnightblue" stroke="midnightblue" points="73.65,-16.33 63.3,-18.58 72.79,-23.28 73.65,-16.33"/>
</g>
<!-- Node11 -->
<g id="node11" class="node">
<title>Node11</title>
<g id="a_node11"><a xlink:title=" ">
<polygon fill="white" stroke="#bfbfbf" points="150.5,-0.5 150.5,-19.5 206.5,-19.5 206.5,-0.5 150.5,-0.5"/>
<text text-anchor="middle" x="178.5" y="-7.5" font-family="Helvetica,sans-Serif" font-size="10.00">stdarg.h</text>
</a>
</g>
</g>
<!-- Node3&#45;&gt;Node11 -->
<g id="edge10" class="edge">
<title>Node3&#45;&gt;Node11</title>
<path fill="none" stroke="midnightblue" d="M603.74,-62.23C523.31,-54.9 307.31,-34.66 216.61,-19.94"/>
<polygon fill="midnightblue" stroke="midnightblue" points="217.14,-16.48 206.7,-18.26 215.98,-23.38 217.14,-16.48"/>
</g>
<!-- Node12 -->
<g id="node12" class="node">
<title>Node12</title>
<g id="a_node12"><a xlink:title=" ">
<polygon fill="white" stroke="#bfbfbf" points="225,-0.5 225,-19.5 278,-19.5 278,-0.5 225,-0.5"/>
<text text-anchor="middle" x="251.5" y="-7.5" font-family="Helvetica,sans-Serif" font-size="10.00">stdint.h</text>
</a>
</g>
</g>
<!-- Node3&#45;&gt;Node12 -->
<g id="edge11" class="edge">
<title>Node3&#45;&gt;Node12</title>
<path fill="none" stroke="midnightblue" d="M603.67,-62.21C544.47,-56.61 410.6,-42.67 288.09,-19.9"/>
<polygon fill="midnightblue" stroke="midnightblue" points="288.64,-16.44 278.16,-18.03 287.34,-23.32 288.64,-16.44"/>
</g>
<!-- Node13 -->
<g id="node13" class="node">
<title>Node13</title>
<g id="a_node13"><a xlink:title=" ">
<polygon fill="white" stroke="#bfbfbf" points="296.5,-0.5 296.5,-19.5 346.5,-19.5 346.5,-0.5 296.5,-0.5"/>
<text text-anchor="middle" x="321.5" y="-7.5" font-family="Helvetica,sans-Serif" font-size="10.00">stdio.h</text>
</a>
</g>
</g>
<!-- Node3&#45;&gt;Node13 -->
<g id="edge12" class="edge">
<title>Node3&#45;&gt;Node13</title>
<path fill="none" stroke="midnightblue" d="M603.77,-61.06C553.89,-54.44 452.06,-40.02 356.51,-20.04"/>
<polygon fill="midnightblue" stroke="midnightblue" points="357.19,-16.61 346.68,-17.96 355.74,-23.46 357.19,-16.61"/>
</g>
<!-- Node14 -->
<g id="node14" class="node">
<title>Node14</title>
<g id="a_node14"><a xlink:title=" ">
<polygon fill="white" stroke="#bfbfbf" points="365,-0.5 365,-19.5 418,-19.5 418,-0.5 365,-0.5"/>
<text text-anchor="middle" x="391.5" y="-7.5" font-family="Helvetica,sans-Serif" font-size="10.00">stdlib.h</text>
</a>
</g>
</g>
<!-- Node3&#45;&gt;Node14 -->
<g id="edge13" class="edge">
<title>Node3&#45;&gt;Node14</title>
<path fill="none" stroke="midnightblue" d="M603.76,-58.74C565,-50.75 496.09,-36.29 428.23,-20.35"/>
<polygon fill="midnightblue" stroke="midnightblue" points="428.76,-16.88 418.23,-17.99 427.15,-23.69 428.76,-16.88"/>
</g>
<!-- Node15 -->
<g id="node15" class="node">
<title>Node15</title>
<g id="a_node15"><a xlink:title=" ">
<polygon fill="white" stroke="#bfbfbf" points="436,-0.5 436,-19.5 489,-19.5 489,-0.5 436,-0.5"/>
<text text-anchor="middle" x="462.5" y="-7.5" font-family="Helvetica,sans-Serif" font-size="10.00">string.h</text>
</a>
</g>
</g>
<!-- Node3&#45;&gt;Node15 -->
<g id="edge14" class="edge">
<title>Node3&#45;&gt;Node15</title>
<path fill="none" stroke="midnightblue" d="M607.25,-56.44C577.89,-47.23 531.03,-32.52 498.62,-22.34"/>
<polygon fill="midnightblue" stroke="midnightblue" points="499.65,-19 489.06,-19.34 497.55,-25.67 499.65,-19"/>
</g>
<!-- Node16 -->
<g id="node16" class="node">
<title>Node16</title>
<g id="a_node16"><a xlink:title=" ">
<polygon fill="white" stroke="#bfbfbf" points="507,-0.5 507,-19.5 584,-19.5 584,-0.5 507,-0.5"/>
<text text-anchor="middle" x="545.5" y="-7.5" font-family="Helvetica,sans-Serif" font-size="10.00">sys/mman.h</text>
</a>
</g>
</g>
<!-- Node3&#45;&gt;Node16 -->
<g id="edge15" class="edge">
<title>Node3&#45;&gt;Node16</title>
<path fill="none" stroke="midnightblue" d="M620.2,-56.32C606.32,-47.9 585.01,-34.97 568.7,-25.07"/>
<polygon fill="midnightblue" stroke="midnightblue" points="570.13,-21.85 559.76,-19.65 566.5,-27.83 570.13,-21.85"/>
</g>
<!-- Node17 -->
<g id="node17" class="node">
<title>Node17</title>
<g id="a_node17"><a xlink:title=" ">
<polygon fill="white" stroke="#bfbfbf" points="602.5,-0.5 602.5,-19.5 666.5,-19.5 666.5,-0.5 602.5,-0.5"/>
<text text-anchor="middle" x="634.5" y="-7.5" font-family="Helvetica,sans-Serif" font-size="10.00">sys/stat.h</text>
</a>
</g>
</g>
<!-- Node3&#45;&gt;Node17 -->
<g id="edge16" class="edge">
<title>Node3&#45;&gt;Node17</title>
<path fill="none" stroke="midnightblue" d="M634.5,-56.08C634.5,-49.01 634.5,-38.86 634.5,-29.99"/>
<polygon fill="midnightblue" stroke="midnightblue" points="638,-29.75 634.5,-19.75 631,-29.75 638,-29.75"/>
</g>
<!-- Node18 -->
<g id="node18" class="node">
<title>Node18</title>
<g id="a_node18"><a xlink:title=" ">
<polygon fill="white" stroke="#bfbfbf" points="1183.5,-0.5 1183.5,-19.5 1231.5,-19.5 1231.5,-0.5 1183.5,-0.5"/>
<text text-anchor="middle" x="1207.5" y="-7.5" font-family="Helvetica,sans-Serif" font-size="10.00">time.h</text>
</a>
</g>
</g>
<!-- Node3&#45;&gt;Node18 -->
<g id="edge17" class="edge">
<title>Node3&#45;&gt;Node18</title>
<path fill="none" stroke="midnightblue" d="M665.3,-60.82C678.03,-59.18 692.96,-57.37 706.5,-56 910.82,-35.38 967.19,-54.97 1173.53,-19.83"/>
<polygon fill="midnightblue" stroke="midnightblue" points="1174.21,-23.27 1183.47,-18.12 1173.02,-16.37 1174.21,-23.27"/>
</g>
<!-- Node19 -->
<g id="node19" class="node">
<title>Node19</title>
<g id="a_node19"><a xlink:title=" ">
<polygon fill="white" stroke="#bfbfbf" points="684.5,-0.5 684.5,-19.5 740.5,-19.5 740.5,-0.5 684.5,-0.5"/>
<text text-anchor="middle" x="712.5" y="-7.5" font-family="Helvetica,sans-Serif" font-size="10.00">unistd.h</text>
</a>
</g>
</g>
<!-- Node3&#45;&gt;Node19 -->
<g id="edge18" class="edge">
<title>Node3&#45;&gt;Node19</title>
<path fill="none" stroke="midnightblue" d="M647.03,-56.32C659.09,-47.98 677.53,-35.21 691.77,-25.35"/>
<polygon fill="midnightblue" stroke="midnightblue" points="693.77,-28.22 700,-19.65 689.78,-22.47 693.77,-28.22"/>
</g>
<!-- Node20 -->
<g id="node20" class="node">
<title>Node20</title>
<g id="a_node20"><a xlink:title=" ">
<polygon fill="white" stroke="#bfbfbf" points="758.5,-0.5 758.5,-19.5 820.5,-19.5 820.5,-0.5 758.5,-0.5"/>
<text text-anchor="middle" x="789.5" y="-7.5" font-family="Helvetica,sans-Serif" font-size="10.00">stdbool.h</text>
</a>
</g>
</g>
<!-- Node3&#45;&gt;Node20 -->
<g id="edge19" class="edge">
<title>Node3&#45;&gt;Node20</title>
<path fill="none" stroke="midnightblue" d="M659.06,-56.44C685.02,-47.4 726.17,-33.06 755.3,-22.92"/>
<polygon fill="midnightblue" stroke="midnightblue" points="756.76,-26.11 765.05,-19.52 754.46,-19.5 756.76,-26.11"/>
</g>
<!-- Node21&#45;&gt;Node3 -->
<g id="edge23" class="edge">
<title>Node21&#45;&gt;Node3</title>
<path fill="none" stroke="midnightblue" d="M579.17,-168.46C590.29,-160.32 606.11,-147.11 615.5,-132 624.33,-117.8 629.21,-99.32 631.81,-85.7"/>
<polygon fill="midnightblue" stroke="midnightblue" points="635.3,-86.04 633.49,-75.6 628.39,-84.89 635.3,-86.04"/>
</g>
<!-- Node21&#45;&gt;Node10 -->
<g id="edge21" class="edge">
<title>Node21&#45;&gt;Node10</title>
<path fill="none" stroke="midnightblue" d="M538.86,-168.42C449.81,-140.79 170.27,-54.06 68.78,-22.57"/>
<polygon fill="midnightblue" stroke="midnightblue" points="69.56,-19.14 58.97,-19.52 67.49,-25.83 69.56,-19.14"/>
</g>
<!-- Node22 -->
<g id="node22" class="node">
<title>Node22</title>
<g id="a_node22"><a xlink:title=" ">
<polygon fill="white" stroke="#bfbfbf" points="526.5,-112.5 526.5,-131.5 606.5,-131.5 606.5,-112.5 526.5,-112.5"/>
<text text-anchor="middle" x="566.5" y="-119.5" font-family="Helvetica,sans-Serif" font-size="10.00">semaphore.h</text>
</a>
</g>
</g>
<!-- Node21&#45;&gt;Node22 -->
<g id="edge22" class="edge">
<title>Node21&#45;&gt;Node22</title>
<path fill="none" stroke="midnightblue" d="M566.5,-168.08C566.5,-161.01 566.5,-150.86 566.5,-141.99"/>
<polygon fill="midnightblue" stroke="midnightblue" points="570,-141.75 566.5,-131.75 563,-141.75 570,-141.75"/>
</g>
<!-- Node23 -->
<g id="node23" class="node">
<title>Node23</title>
<g id="a_node23"><a xlink:href="Time_8h.html" target="_top" xlink:title="Lightweight Time Manipulation Utilities.">
<polygon fill="white" stroke="black" points="663,-112.5 663,-131.5 778,-131.5 778,-112.5 663,-112.5"/>
<text text-anchor="middle" x="720.5" y="-119.5" font-family="Helvetica,sans-Serif" font-size="10.00">src/Common/Time.h</text>
</a>
</g>
</g>
<!-- Node21&#45;&gt;Node23 -->
<g id="edge24" class="edge">
<title>Node21&#45;&gt;Node23</title>
<path fill="none" stroke="midnightblue" d="M590.9,-168.44C616.7,-159.4 657.58,-145.06 686.52,-134.92"/>
<polygon fill="midnightblue" stroke="midnightblue" points="687.93,-138.13 696.21,-131.52 685.62,-131.52 687.93,-138.13"/>
</g>
<!-- Node23&#45;&gt;Node3 -->
<g id="edge27" class="edge">
<title>Node23&#45;&gt;Node3</title>
<path fill="none" stroke="midnightblue" d="M706.68,-112.32C693.27,-103.9 672.68,-90.97 656.91,-81.07"/>
<polygon fill="midnightblue" stroke="midnightblue" points="658.61,-78.01 648.28,-75.65 654.89,-83.94 658.61,-78.01"/>
</g>
<!-- Node23&#45;&gt;Node18 -->
<g id="edge26" class="edge">
<title>Node23&#45;&gt;Node18</title>
<path fill="none" stroke="midnightblue" d="M720.18,-112.18C720.2,-97.87 722.56,-69.83 739.5,-56 812.37,3.47 1063.14,-34.37 1173.55,-19.64"/>
<polygon fill="midnightblue" stroke="midnightblue" points="1174.12,-23.09 1183.47,-18.1 1173.05,-16.18 1174.12,-23.09"/>
</g>
<!-- Node24 -->
<g id="node24" class="node">
<title>Node24</title>
<g id="a_node24"><a xlink:title=" ">
<polygon fill="white" stroke="#bfbfbf" points="749,-56.5 749,-75.5 802,-75.5 802,-56.5 749,-56.5"/>
<text text-anchor="middle" x="775.5" y="-63.5" font-family="Helvetica,sans-Serif" font-size="10.00">limits.h</text>
</a>
</g>
</g>
<!-- Node23&#45;&gt;Node24 -->
<g id="edge25" class="edge">
<title>Node23&#45;&gt;Node24</title>
<path fill="none" stroke="midnightblue" d="M729.58,-112.08C737.67,-104.14 749.7,-92.34 759.41,-82.8"/>
<polygon fill="midnightblue" stroke="midnightblue" points="761.9,-85.25 766.59,-75.75 757,-80.26 761.9,-85.25"/>
</g>
</g>
</svg>
