<?xml version="1.0" encoding="UTF-8" standalone="no"?>
<!DOCTYPE svg PUBLIC "-//W3C//DTD SVG 1.1//EN"
 "http://www.w3.org/Graphics/SVG/1.1/DTD/svg11.dtd">
<!-- Generated by graphviz version 2.43.0 (0)
 -->
<!-- Title: SdPipeGetWriteBuffer Pages: 1 -->
<svg width="470pt" height="64pt"
 viewBox="0.00 0.00 470.00 64.00" xmlns="http://www.w3.org/2000/svg" xmlns:xlink="http://www.w3.org/1999/xlink">

<svg id="main" version="1.1" xmlns="http://www.w3.org/2000/svg" xmlns:xlink="http://www.w3.org/1999/xlink" xml:space="preserve" onload="init(evt)">
<style type="text/css"><![CDATA[
.node, .edge {opacity: 0.7;}
.node.selected, .edge.selected {opacity: 1;}
.edge:hover path { stroke: red; }
.edge:hover polygon { stroke: red; fill: red; }
]]></style>
<script type="application/ecmascript" xlink:href="svg.min.js"/>
<svg id="graph" class="graph">
<g id="graph0" class="graph" transform="scale(1 1) rotate(0) translate(4 60)">
<title>SdPipeGetWriteBuffer</title>
<!-- Node1 -->
<g id="Node000001" class="node">
<title>Node1</title>
<g id="a_Node000001"><a xlink:title="Acquire Write Buffer Arena.">
<polygon fill="#999999" stroke="#666666" points="462,-37 340,-37 340,-18 462,-18 462,-37"/>
<text text-anchor="middle" x="401" y="-25" font-family="Helvetica,sans-Serif" font-size="10.00">SdPipeGetWriteBuffer</text>
</a>
</g>
</g>
<!-- Node2 -->
<g id="Node000002" class="node">
<title>Node2</title>
<g id="a_Node000002"><a xlink:href="DataHandlers_2ModbusWithPostgres_2Modbus_8c.html#a1660e1b6915b7758a7708e89c8445cbf" target="_top" xlink:title="Implements throughput testing for Modbus data pipe.">
<polygon fill="white" stroke="#666666" points="304,-56 176,-56 176,-37 304,-37 304,-56"/>
<text text-anchor="middle" x="240" y="-44" font-family="Helvetica,sans-Serif" font-size="10.00">MbPipeThroughputTest</text>
</a>
</g>
</g>
<!-- Node1&#45;&gt;Node2 -->
<g id="edge1_Node000001_Node000002" class="edge">
<title>Node1&#45;&gt;Node2</title>
<g id="a_edge1_Node000001_Node000002"><a xlink:title=" ">
<path fill="none" stroke="#63b8ff" d="M329.9,-35.88C321.32,-36.9 312.58,-37.95 304.11,-38.96"/>
<polygon fill="#63b8ff" stroke="#63b8ff" points="330.37,-39.34 339.89,-34.68 329.54,-32.39 330.37,-39.34"/>
</a>
</g>
</g>
<!-- Node4 -->
<g id="Node000004" class="node">
<title>Node4</title>
<g id="a_Node000004"><a xlink:href="DataHandlers_2ModbusWithPostgres_2Modbus_8c.html#ac42f810b60d139ab2f82c4146710d721" target="_top" xlink:title="Implements main Modbus thread loop.">
<polygon fill="white" stroke="#666666" points="265,-19 215,-19 215,0 265,0 265,-19"/>
<text text-anchor="middle" x="240" y="-7" font-family="Helvetica,sans-Serif" font-size="10.00">MbRun</text>
</a>
</g>
</g>
<!-- Node1&#45;&gt;Node4 -->
<g id="edge3_Node000001_Node000004" class="edge">
<title>Node1&#45;&gt;Node4</title>
<g id="a_edge3_Node000001_Node000004"><a xlink:title=" ">
<path fill="none" stroke="#63b8ff" d="M329.7,-19.54C306.54,-16.92 282.32,-14.18 265.05,-12.22"/>
<polygon fill="#63b8ff" stroke="#63b8ff" points="329.56,-23.05 339.89,-20.69 330.35,-16.09 329.56,-23.05"/>
</a>
</g>
</g>
<!-- Node3 -->
<g id="Node000003" class="node">
<title>Node3</title>
<g id="a_Node000003"><a xlink:href="ModbusWithPostgres_8c.html#ab562b331ef04d3d016b626018e9c30b1" target="_top" xlink:title="Modbus data pipe throughput test.">
<polygon fill="white" stroke="#666666" points="140,-56 0,-56 0,-37 140,-37 140,-56"/>
<text text-anchor="middle" x="70" y="-44" font-family="Helvetica,sans-Serif" font-size="10.00">MbPgPipeThroughputTest</text>
</a>
</g>
</g>
<!-- Node2&#45;&gt;Node3 -->
<g id="edge2_Node000002_Node000003" class="edge">
<title>Node2&#45;&gt;Node3</title>
<g id="a_edge2_Node000002_Node000003"><a xlink:title=" ">
<path fill="none" stroke="#63b8ff" d="M165.95,-46.5C157.34,-46.5 148.57,-46.5 140.02,-46.5"/>
<polygon fill="#63b8ff" stroke="#63b8ff" points="165.97,-50 175.97,-46.5 165.96,-43 165.97,-50"/>
</a>
</g>
</g>
<!-- Node5 -->
<g id="Node000005" class="node">
<title>Node5</title>
<g id="a_Node000005"><a xlink:href="ModbusWithPostgres_8c.html#ad6cc1c50bbcd2e6f933e8f2a82990c2e" target="_top" xlink:title="Modbus thread implementation.">
<polygon fill="white" stroke="#666666" points="102.5,-19 37.5,-19 37.5,0 102.5,0 102.5,-19"/>
<text text-anchor="middle" x="70" y="-7" font-family="Helvetica,sans-Serif" font-size="10.00">MbThread</text>
</a>
</g>
</g>
<!-- Node4&#45;&gt;Node5 -->
<g id="edge4_Node000004_Node000005" class="edge">
<title>Node4&#45;&gt;Node5</title>
<g id="a_edge4_Node000004_Node000005"><a xlink:title=" ">
<path fill="none" stroke="#63b8ff" d="M204.57,-9.5C174.7,-9.5 131.83,-9.5 102.77,-9.5"/>
<polygon fill="#63b8ff" stroke="#63b8ff" points="204.93,-13 214.93,-9.5 204.93,-6 204.93,-13"/>
</a>
</g>
</g>
</g>
</svg>
</svg>

<style type='text/css'>
<![CDATA[
[data-mouse-over-selected='false'] { opacity: 0.7; }
[data-mouse-over-selected='true']  { opacity: 1.0; }
]]>
</style>
<script type="application/ecmascript"><![CDATA[
document.addEventListener('DOMContentLoaded', (event) => {
  highlightEdges();
  highlightAdjacentNodes();
});
]]></script>
</svg>
