<?xml version="1.0" encoding="UTF-8" standalone="no"?>
<!DOCTYPE svg PUBLIC "-//W3C//DTD SVG 1.1//EN"
 "http://www.w3.org/Graphics/SVG/1.1/DTD/svg11.dtd">
<!-- Generated by graphviz version 2.43.0 (0)
 -->
<!-- Title: src/Signals.c Pages: 1 -->
<svg width="1379pt" height="368pt"
 viewBox="0.00 0.00 1378.80 368.00" xmlns="http://www.w3.org/2000/svg" xmlns:xlink="http://www.w3.org/1999/xlink">
<g id="graph0" class="graph" transform="scale(1 1) rotate(0) translate(4 364)">
<title>src/Signals.c</title>
<!-- Node1 -->
<g id="Node000001" class="node">
<title>Node1</title>
<g id="a_Node000001"><a xlink:title="Signal handling implementation for the Sensor Data Handler System.">
<polygon fill="#999999" stroke="#666666" points="870.94,-360 793.94,-360 793.94,-341 870.94,-341 870.94,-360"/>
<text text-anchor="middle" x="832.44" y="-348" font-family="Helvetica,sans-Serif" font-size="10.00">src/Signals.c</text>
</a>
</g>
</g>
<!-- Node2 -->
<g id="Node000002" class="node">
<title>Node2</title>
<g id="a_Node000002"><a xlink:title=" ">
<polygon fill="#e0e0e0" stroke="#999999" points="53.94,-19 2.94,-19 2.94,0 53.94,0 53.94,-19"/>
<text text-anchor="middle" x="28.44" y="-7" font-family="Helvetica,sans-Serif" font-size="10.00">errno.h</text>
</a>
</g>
</g>
<!-- Node1&#45;&gt;Node2 -->
<g id="edge1_Node000001_Node000002" class="edge">
<title>Node1&#45;&gt;Node2</title>
<g id="a_edge1_Node000001_Node000002"><a xlink:title=" ">
<path fill="none" stroke="#63b8ff" d="M793.83,-348.63C636.53,-344.93 50.88,-329.53 20.44,-305 -4.32,-285.04 1.44,-267.81 1.44,-236 1.44,-236 1.44,-236 1.44,-118.5 1.44,-86.09 13.02,-49.81 21.02,-28.63"/>
<polygon fill="#63b8ff" stroke="#63b8ff" points="24.29,-29.86 24.69,-19.27 17.78,-27.3 24.29,-29.86"/>
</a>
</g>
</g>
<!-- Node3 -->
<g id="Node000003" class="node">
<title>Node3</title>
<g id="a_Node000003"><a xlink:title=" ">
<polygon fill="#e0e0e0" stroke="#999999" points="96.94,-305 29.94,-305 29.94,-286 96.94,-286 96.94,-305"/>
<text text-anchor="middle" x="63.44" y="-293" font-family="Helvetica,sans-Serif" font-size="10.00">execinfo.h</text>
</a>
</g>
</g>
<!-- Node1&#45;&gt;Node3 -->
<g id="edge2_Node000001_Node000003" class="edge">
<title>Node1&#45;&gt;Node3</title>
<g id="a_edge2_Node000001_Node000003"><a xlink:title=" ">
<path fill="none" stroke="#63b8ff" d="M793.61,-348.65C685.3,-345.96 370.78,-335.86 111.44,-305 110.14,-304.85 108.82,-304.68 107.49,-304.5"/>
<polygon fill="#63b8ff" stroke="#63b8ff" points="107.6,-300.98 97.2,-302.97 106.58,-307.9 107.6,-300.98"/>
</a>
</g>
</g>
<!-- Node4 -->
<g id="Node000004" class="node">
<title>Node4</title>
<g id="a_Node000004"><a xlink:title=" ">
<polygon fill="#e0e0e0" stroke="#999999" points="217.94,-19 170.94,-19 170.94,0 217.94,0 217.94,-19"/>
<text text-anchor="middle" x="194.44" y="-7" font-family="Helvetica,sans-Serif" font-size="10.00">fcntl.h</text>
</a>
</g>
</g>
<!-- Node1&#45;&gt;Node4 -->
<g id="edge3_Node000001_Node000004" class="edge">
<title>Node1&#45;&gt;Node4</title>
<g id="a_edge3_Node000001_Node000004"><a xlink:title=" ">
<path fill="none" stroke="#63b8ff" d="M793.53,-350.14C664.91,-351.31 257.37,-347.2 182.44,-250 156.03,-215.74 180.41,-79.28 190.52,-29.12"/>
<polygon fill="#63b8ff" stroke="#63b8ff" points="194,-29.56 192.59,-19.06 187.15,-28.15 194,-29.56"/>
</a>
</g>
</g>
<!-- Node5 -->
<g id="Node000005" class="node">
<title>Node5</title>
<g id="a_Node000005"><a xlink:title=" ">
<polygon fill="#e0e0e0" stroke="#999999" points="152.94,-19 89.94,-19 89.94,0 152.94,0 152.94,-19"/>
<text text-anchor="middle" x="121.44" y="-7" font-family="Helvetica,sans-Serif" font-size="10.00">pthread.h</text>
</a>
</g>
</g>
<!-- Node1&#45;&gt;Node5 -->
<g id="edge4_Node000001_Node000005" class="edge">
<title>Node1&#45;&gt;Node5</title>
<g id="a_edge4_Node000001_Node000005"><a xlink:title=" ">
<path fill="none" stroke="#63b8ff" d="M793.93,-349.84C677.9,-350.35 333.48,-348.11 231.44,-305 124.67,-259.89 119.35,-86.95 120.63,-29.32"/>
<polygon fill="#63b8ff" stroke="#63b8ff" points="124.14,-29.23 120.96,-19.13 117.14,-29.01 124.14,-29.23"/>
</a>
</g>
</g>
<!-- Node6 -->
<g id="Node000006" class="node">
<title>Node6</title>
<g id="a_Node000006"><a xlink:title=" ">
<polygon fill="#e0e0e0" stroke="#999999" points="246.94,-244.5 191.94,-244.5 191.94,-225.5 246.94,-225.5 246.94,-244.5"/>
<text text-anchor="middle" x="219.44" y="-232.5" font-family="Helvetica,sans-Serif" font-size="10.00">signal.h</text>
</a>
</g>
</g>
<!-- Node1&#45;&gt;Node6 -->
<g id="edge5_Node000001_Node000006" class="edge">
<title>Node1&#45;&gt;Node6</title>
<g id="a_edge5_Node000001_Node000006"><a xlink:title=" ">
<path fill="none" stroke="#63b8ff" d="M793.86,-346.24C699.96,-337.59 452.75,-310.43 255.44,-250 253.52,-249.41 251.55,-248.77 249.58,-248.09"/>
<polygon fill="#63b8ff" stroke="#63b8ff" points="250.41,-244.67 239.82,-244.53 248.01,-251.24 250.41,-244.67"/>
</a>
</g>
</g>
<!-- Node7 -->
<g id="Node000007" class="node">
<title>Node7</title>
<g id="a_Node000007"><a xlink:href="Signals_8h.html" target="_top" xlink:title="Signal handling interface for the Sensor Data Handler System.">
<polygon fill="white" stroke="#666666" points="584.44,-305 506.44,-305 506.44,-286 584.44,-286 584.44,-305"/>
<text text-anchor="middle" x="545.44" y="-293" font-family="Helvetica,sans-Serif" font-size="10.00">src/Signals.h</text>
</a>
</g>
</g>
<!-- Node1&#45;&gt;Node7 -->
<g id="edge6_Node000001_Node000007" class="edge">
<title>Node1&#45;&gt;Node7</title>
<g id="a_edge6_Node000001_Node000007"><a xlink:title=" ">
<path fill="none" stroke="#63b8ff" d="M793.74,-342.35C742.17,-332.83 650.91,-315.98 594.55,-305.57"/>
<polygon fill="#63b8ff" stroke="#63b8ff" points="594.92,-302.08 584.45,-303.7 593.65,-308.96 594.92,-302.08"/>
</a>
</g>
</g>
<!-- Node8 -->
<g id="Node000008" class="node">
<title>Node8</title>
<g id="a_Node000008"><a xlink:href="Sdb_8h.html" target="_top" xlink:title=" ">
<polygon fill="white" stroke="#666666" points="660.94,-74 599.94,-74 599.94,-55 660.94,-55 660.94,-74"/>
<text text-anchor="middle" x="630.44" y="-62" font-family="Helvetica,sans-Serif" font-size="10.00">src/Sdb.h</text>
</a>
</g>
</g>
<!-- Node1&#45;&gt;Node8 -->
<g id="edge51_Node000001_Node000008" class="edge">
<title>Node1&#45;&gt;Node8</title>
<g id="a_edge51_Node000001_Node000008"><a xlink:title=" ">
<path fill="none" stroke="#63b8ff" d="M829.96,-340.75C824.81,-321.82 813.44,-275.56 813.44,-236 813.44,-236 813.44,-236 813.44,-173.5 813.44,-107.82 724.94,-81.26 671.03,-71.18"/>
<polygon fill="#63b8ff" stroke="#63b8ff" points="671.53,-67.71 661.07,-69.42 670.31,-74.6 671.53,-67.71"/>
</a>
</g>
</g>
<!-- Node15 -->
<g id="Node000015" class="node">
<title>Node15</title>
<g id="a_Node000015"><a xlink:title=" ">
<polygon fill="#e0e0e0" stroke="#999999" points="954.44,-19 904.44,-19 904.44,0 954.44,0 954.44,-19"/>
<text text-anchor="middle" x="929.44" y="-7" font-family="Helvetica,sans-Serif" font-size="10.00">stdio.h</text>
</a>
</g>
</g>
<!-- Node1&#45;&gt;Node15 -->
<g id="edge44_Node000001_Node000015" class="edge">
<title>Node1&#45;&gt;Node15</title>
<g id="a_edge44_Node000001_Node000015"><a xlink:title=" ">
<path fill="none" stroke="#63b8ff" d="M834.93,-340.75C840.08,-321.82 851.44,-275.56 851.44,-236 851.44,-236 851.44,-236 851.44,-118.5 851.44,-78.95 886.24,-44.05 909.35,-25.23"/>
<polygon fill="#63b8ff" stroke="#63b8ff" points="911.54,-27.97 917.25,-19.05 907.22,-22.46 911.54,-27.97"/>
</a>
</g>
</g>
<!-- Node16 -->
<g id="Node000016" class="node">
<title>Node16</title>
<g id="a_Node000016"><a xlink:title=" ">
<polygon fill="#e0e0e0" stroke="#999999" points="1025.94,-19 972.94,-19 972.94,0 1025.94,0 1025.94,-19"/>
<text text-anchor="middle" x="999.44" y="-7" font-family="Helvetica,sans-Serif" font-size="10.00">stdlib.h</text>
</a>
</g>
</g>
<!-- Node1&#45;&gt;Node16 -->
<g id="edge45_Node000001_Node000016" class="edge">
<title>Node1&#45;&gt;Node16</title>
<g id="a_edge45_Node000001_Node000016"><a xlink:title=" ">
<path fill="none" stroke="#63b8ff" d="M871.17,-345.97C925.15,-340.3 1019.24,-327.46 1044.44,-305 1068.57,-283.49 1067.44,-268.33 1067.44,-236 1067.44,-236 1067.44,-236 1067.44,-118.5 1067.44,-80.75 1037.32,-45.41 1017.17,-25.99"/>
<polygon fill="#63b8ff" stroke="#63b8ff" points="1019.48,-23.36 1009.77,-19.13 1014.73,-28.5 1019.48,-23.36"/>
</a>
</g>
</g>
<!-- Node17 -->
<g id="Node000017" class="node">
<title>Node17</title>
<g id="a_Node000017"><a xlink:title=" ">
<polygon fill="#e0e0e0" stroke="#999999" points="1096.94,-19 1043.94,-19 1043.94,0 1096.94,0 1096.94,-19"/>
<text text-anchor="middle" x="1070.44" y="-7" font-family="Helvetica,sans-Serif" font-size="10.00">string.h</text>
</a>
</g>
</g>
<!-- Node1&#45;&gt;Node17 -->
<g id="edge46_Node000001_Node000017" class="edge">
<title>Node1&#45;&gt;Node17</title>
<g id="a_edge46_Node000001_Node000017"><a xlink:title=" ">
<path fill="none" stroke="#63b8ff" d="M870.98,-350.29C946.23,-349.62 1105.44,-336.35 1105.44,-236 1105.44,-236 1105.44,-236 1105.44,-118.5 1105.44,-85.3 1090.29,-49.03 1079.92,-28.11"/>
<polygon fill="#63b8ff" stroke="#63b8ff" points="1083,-26.44 1075.31,-19.15 1076.78,-29.64 1083,-26.44"/>
</a>
</g>
</g>
<!-- Node19 -->
<g id="Node000019" class="node">
<title>Node19</title>
<g id="a_Node000019"><a xlink:title=" ">
<polygon fill="#e0e0e0" stroke="#999999" points="1179.44,-19 1115.44,-19 1115.44,0 1179.44,0 1179.44,-19"/>
<text text-anchor="middle" x="1147.44" y="-7" font-family="Helvetica,sans-Serif" font-size="10.00">sys/stat.h</text>
</a>
</g>
</g>
<!-- Node1&#45;&gt;Node19 -->
<g id="edge47_Node000001_Node000019" class="edge">
<title>Node1&#45;&gt;Node19</title>
<g id="a_edge47_Node000001_Node000019"><a xlink:title=" ">
<path fill="none" stroke="#63b8ff" d="M870.98,-346.44C934.05,-340.85 1055.98,-327.45 1092.44,-305 1124.91,-285.01 1143.44,-274.13 1143.44,-236 1143.44,-236 1143.44,-236 1143.44,-118.5 1143.44,-87.17 1145.14,-50.76 1146.33,-29.23"/>
<polygon fill="#63b8ff" stroke="#63b8ff" points="1149.82,-29.36 1146.9,-19.18 1142.84,-28.96 1149.82,-29.36"/>
</a>
</g>
</g>
<!-- Node21 -->
<g id="Node000021" class="node">
<title>Node21</title>
<g id="a_Node000021"><a xlink:title=" ">
<polygon fill="#e0e0e0" stroke="#999999" points="1325.44,-19 1269.44,-19 1269.44,0 1325.44,0 1325.44,-19"/>
<text text-anchor="middle" x="1297.44" y="-7" font-family="Helvetica,sans-Serif" font-size="10.00">unistd.h</text>
</a>
</g>
</g>
<!-- Node1&#45;&gt;Node21 -->
<g id="edge50_Node000001_Node000021" class="edge">
<title>Node1&#45;&gt;Node21</title>
<g id="a_edge50_Node000001_Node000021"><a xlink:title=" ">
<path fill="none" stroke="#63b8ff" d="M871.03,-348.69C984.9,-345.96 1313.79,-335.49 1350.44,-305 1374.89,-284.66 1369.44,-267.81 1369.44,-236 1369.44,-236 1369.44,-236 1369.44,-118.5 1369.44,-80.1 1337.55,-44.98 1316.21,-25.78"/>
<polygon fill="#63b8ff" stroke="#63b8ff" points="1318.23,-22.89 1308.38,-19 1313.65,-28.19 1318.23,-22.89"/>
</a>
</g>
</g>
<!-- Node23 -->
<g id="Node000023" class="node">
<title>Node23</title>
<g id="a_Node000023"><a xlink:href="SensorDataPipe_8h.html" target="_top" xlink:title="Lock&#45;Free Data Pipeline.">
<polygon fill="white" stroke="#666666" points="785.94,-244.5 618.94,-244.5 618.94,-225.5 785.94,-225.5 785.94,-244.5"/>
<text text-anchor="middle" x="702.44" y="-232.5" font-family="Helvetica,sans-Serif" font-size="10.00">src/Common/SensorDataPipe.h</text>
</a>
</g>
</g>
<!-- Node1&#45;&gt;Node23 -->
<g id="edge52_Node000001_Node000023" class="edge">
<title>Node1&#45;&gt;Node23</title>
<g id="a_edge52_Node000001_Node000023"><a xlink:title=" ">
<path fill="none" stroke="#63b8ff" d="M822.67,-340.97C800.84,-321.91 747.84,-275.63 720.07,-251.39"/>
<polygon fill="#63b8ff" stroke="#63b8ff" points="722.16,-248.57 712.33,-244.63 717.56,-253.84 722.16,-248.57"/>
</a>
</g>
</g>
<!-- Node32 -->
<g id="Node000032" class="node">
<title>Node32</title>
<g id="a_Node000032"><a xlink:title=" ">
<polygon fill="#e0e0e0" stroke="#999999" points="1250.94,-305 1171.94,-305 1171.94,-286 1250.94,-286 1250.94,-305"/>
<text text-anchor="middle" x="1211.44" y="-293" font-family="Helvetica,sans-Serif" font-size="10.00">sys/syscall.h</text>
</a>
</g>
</g>
<!-- Node1&#45;&gt;Node32 -->
<g id="edge48_Node000001_Node000032" class="edge">
<title>Node1&#45;&gt;Node32</title>
<g id="a_edge48_Node000001_Node000032"><a xlink:title=" ">
<path fill="none" stroke="#63b8ff" d="M871,-344.47C931.9,-336.48 1054.05,-320.21 1157.44,-305 1158.91,-304.78 1160.4,-304.56 1161.9,-304.34"/>
<polygon fill="#63b8ff" stroke="#63b8ff" points="1162.58,-307.78 1171.94,-302.81 1161.52,-300.86 1162.58,-307.78"/>
</a>
</g>
</g>
<!-- Node33 -->
<g id="Node000033" class="node">
<title>Node33</title>
<g id="a_Node000033"><a xlink:title=" ">
<polygon fill="#e0e0e0" stroke="#999999" points="1341.44,-305 1269.44,-305 1269.44,-286 1341.44,-286 1341.44,-305"/>
<text text-anchor="middle" x="1305.44" y="-293" font-family="Helvetica,sans-Serif" font-size="10.00">sys/types.h</text>
</a>
</g>
</g>
<!-- Node1&#45;&gt;Node33 -->
<g id="edge49_Node000001_Node000033" class="edge">
<title>Node1&#45;&gt;Node33</title>
<g id="a_edge49_Node000001_Node000033"><a xlink:title=" ">
<path fill="none" stroke="#63b8ff" d="M871.23,-346.55C944.82,-340.73 1109.95,-326.54 1258.9,-305.11"/>
<polygon fill="#63b8ff" stroke="#63b8ff" points="1259.74,-308.53 1269.14,-303.63 1258.74,-301.6 1259.74,-308.53"/>
</a>
</g>
</g>
<!-- Node34 -->
<g id="Node000034" class="node">
<title>Node34</title>
<g id="a_Node000034"><a xlink:href="TestConstants_8h.html" target="_top" xlink:title="Constants for Modbus Test Server.">
<polygon fill="white" stroke="#666666" points="1035.44,-305 879.44,-305 879.44,-286 1035.44,-286 1035.44,-305"/>
<text text-anchor="middle" x="957.44" y="-293" font-family="Helvetica,sans-Serif" font-size="10.00">src/DevUtils/TestConstants.h</text>
</a>
</g>
</g>
<!-- Node1&#45;&gt;Node34 -->
<g id="edge53_Node000001_Node000034" class="edge">
<title>Node1&#45;&gt;Node34</title>
<g id="a_edge53_Node000001_Node000034"><a xlink:title=" ">
<path fill="none" stroke="#63b8ff" d="M852.52,-340.98C872.81,-332.38 904.4,-318.99 927.61,-309.15"/>
<polygon fill="#63b8ff" stroke="#63b8ff" points="929.15,-312.3 936.99,-305.17 926.42,-305.85 929.15,-312.3"/>
</a>
</g>
</g>
<!-- Node7&#45;&gt;Node6 -->
<g id="edge7_Node000007_Node000006" class="edge">
<title>Node7&#45;&gt;Node6</title>
<g id="a_edge7_Node000007_Node000006"><a xlink:title=" ">
<path fill="none" stroke="#63b8ff" d="M506.42,-291.24C450.21,-285.94 343.52,-273.58 255.44,-250 253.28,-249.42 251.08,-248.76 248.87,-248.04"/>
<polygon fill="#63b8ff" stroke="#63b8ff" points="249.96,-244.71 239.36,-244.64 247.6,-251.3 249.96,-244.71"/>
</a>
</g>
</g>
<!-- Node7&#45;&gt;Node8 -->
<g id="edge8_Node000007_Node000008" class="edge">
<title>Node7&#45;&gt;Node8</title>
<g id="a_edge8_Node000007_Node000008"><a xlink:title=" ">
<path fill="none" stroke="#63b8ff" d="M550.76,-285.71C556.12,-276.79 564.55,-262.55 571.44,-250 587.33,-221.08 594.38,-215.09 605.44,-184 617.61,-149.78 624.74,-107.79 628.09,-84.09"/>
<polygon fill="#63b8ff" stroke="#63b8ff" points="631.58,-84.42 629.44,-74.05 624.64,-83.49 631.58,-84.42"/>
</a>
</g>
</g>
<!-- Node7&#45;&gt;Node23 -->
<g id="edge26_Node000007_Node000023" class="edge">
<title>Node7&#45;&gt;Node23</title>
<g id="a_edge26_Node000007_Node000023"><a xlink:title=" ">
<path fill="none" stroke="#63b8ff" d="M568.27,-285.99C595.01,-276.03 639.52,-259.45 669.88,-248.13"/>
<polygon fill="#63b8ff" stroke="#63b8ff" points="671.44,-251.29 679.58,-244.52 668.99,-244.73 671.44,-251.29"/>
</a>
</g>
</g>
<!-- Node29 -->
<g id="Node000029" class="node">
<title>Node29</title>
<g id="a_Node000029"><a xlink:href="ThreadGroup_8h.html" target="_top" xlink:title="Thread Group Management System.">
<polygon fill="white" stroke="#666666" points="417.94,-244.5 264.94,-244.5 264.94,-225.5 417.94,-225.5 417.94,-244.5"/>
<text text-anchor="middle" x="341.44" y="-232.5" font-family="Helvetica,sans-Serif" font-size="10.00">src/Common/ThreadGroup.h</text>
</a>
</g>
</g>
<!-- Node7&#45;&gt;Node29 -->
<g id="edge37_Node000007_Node000029" class="edge">
<title>Node7&#45;&gt;Node29</title>
<g id="a_edge37_Node000007_Node000029"><a xlink:title=" ">
<path fill="none" stroke="#63b8ff" d="M515.78,-285.99C480.2,-275.79 420.42,-258.65 380.96,-247.33"/>
<polygon fill="#63b8ff" stroke="#63b8ff" points="381.72,-243.91 371.14,-244.52 379.79,-250.64 381.72,-243.91"/>
</a>
</g>
</g>
<!-- Node30 -->
<g id="Node000030" class="node">
<title>Node30</title>
<g id="a_Node000030"><a xlink:href="cJSON_8h.html" target="_top" xlink:title=" ">
<polygon fill="white" stroke="#666666" points="562.94,-244.5 435.94,-244.5 435.94,-225.5 562.94,-225.5 562.94,-244.5"/>
<text text-anchor="middle" x="499.44" y="-232.5" font-family="Helvetica,sans-Serif" font-size="10.00">src/Libs/cJSON/cJSON.h</text>
</a>
</g>
</g>
<!-- Node7&#45;&gt;Node30 -->
<g id="edge42_Node000007_Node000030" class="edge">
<title>Node7&#45;&gt;Node30</title>
<g id="a_edge42_Node000007_Node000030"><a xlink:title=" ">
<path fill="none" stroke="#63b8ff" d="M538.65,-285.87C531.79,-277.14 521.01,-263.43 512.49,-252.59"/>
<polygon fill="#63b8ff" stroke="#63b8ff" points="515.19,-250.36 506.26,-244.67 509.69,-254.69 515.19,-250.36"/>
</a>
</g>
</g>
<!-- Node8&#45;&gt;Node2 -->
<g id="edge11_Node000008_Node000002" class="edge">
<title>Node8&#45;&gt;Node2</title>
<g id="a_edge11_Node000008_Node000002"><a xlink:title=" ">
<path fill="none" stroke="#63b8ff" d="M599.64,-61.89C515.97,-57.32 277.52,-43.04 80.44,-19 75.18,-18.36 69.65,-17.57 64.22,-16.74"/>
<polygon fill="#63b8ff" stroke="#63b8ff" points="64.47,-13.23 54.04,-15.11 63.36,-20.15 64.47,-13.23"/>
</a>
</g>
</g>
<!-- Node8&#45;&gt;Node4 -->
<g id="edge12_Node000008_Node000004" class="edge">
<title>Node8&#45;&gt;Node4</title>
<g id="a_edge12_Node000008_Node000004"><a xlink:title=" ">
<path fill="none" stroke="#63b8ff" d="M599.89,-61.62C533.84,-57.22 372.68,-44.8 228.08,-18.85"/>
<polygon fill="#63b8ff" stroke="#63b8ff" points="228.61,-15.38 218.14,-17.04 227.36,-22.27 228.61,-15.38"/>
</a>
</g>
</g>
<!-- Node8&#45;&gt;Node5 -->
<g id="edge15_Node000008_Node000005" class="edge">
<title>Node8&#45;&gt;Node5</title>
<g id="a_edge15_Node000008_Node000005"><a xlink:title=" ">
<path fill="none" stroke="#63b8ff" d="M599.84,-61.82C526.26,-57.51 333.49,-44.68 163.39,-19.15"/>
<polygon fill="#63b8ff" stroke="#63b8ff" points="163.67,-15.65 153.26,-17.61 162.62,-22.57 163.67,-15.65"/>
</a>
</g>
</g>
<!-- Node9 -->
<g id="Node000009" class="node">
<title>Node9</title>
<g id="a_Node000009"><a xlink:title=" ">
<polygon fill="#e0e0e0" stroke="#999999" points="749.44,-19 693.44,-19 693.44,0 749.44,0 749.44,-19"/>
<text text-anchor="middle" x="721.44" y="-7" font-family="Helvetica,sans-Serif" font-size="10.00">assert.h</text>
</a>
</g>
</g>
<!-- Node8&#45;&gt;Node9 -->
<g id="edge9_Node000008_Node000009" class="edge">
<title>Node8&#45;&gt;Node9</title>
<g id="a_edge9_Node000008_Node000009"><a xlink:title=" ">
<path fill="none" stroke="#63b8ff" d="M645.06,-54.98C659.31,-46.69 681.19,-33.94 697.89,-24.22"/>
<polygon fill="#63b8ff" stroke="#63b8ff" points="699.67,-27.23 706.55,-19.17 696.15,-21.18 699.67,-27.23"/>
</a>
</g>
</g>
<!-- Node10 -->
<g id="Node000010" class="node">
<title>Node10</title>
<g id="a_Node000010"><a xlink:title=" ">
<polygon fill="#e0e0e0" stroke="#999999" points="820.94,-19 767.94,-19 767.94,0 820.94,0 820.94,-19"/>
<text text-anchor="middle" x="794.44" y="-7" font-family="Helvetica,sans-Serif" font-size="10.00">ctype.h</text>
</a>
</g>
</g>
<!-- Node8&#45;&gt;Node10 -->
<g id="edge10_Node000008_Node000010" class="edge">
<title>Node8&#45;&gt;Node10</title>
<g id="a_edge10_Node000008_Node000010"><a xlink:title=" ">
<path fill="none" stroke="#63b8ff" d="M656.79,-54.98C684.21,-46.13 727.33,-32.19 758,-22.28"/>
<polygon fill="#63b8ff" stroke="#63b8ff" points="759.45,-25.49 767.89,-19.08 757.29,-18.83 759.45,-25.49"/>
</a>
</g>
</g>
<!-- Node11 -->
<g id="Node000011" class="node">
<title>Node11</title>
<g id="a_Node000011"><a xlink:title=" ">
<polygon fill="#e0e0e0" stroke="#999999" points="885.94,-19 838.94,-19 838.94,0 885.94,0 885.94,-19"/>
<text text-anchor="middle" x="862.44" y="-7" font-family="Helvetica,sans-Serif" font-size="10.00">float.h</text>
</a>
</g>
</g>
<!-- Node8&#45;&gt;Node11 -->
<g id="edge13_Node000008_Node000011" class="edge">
<title>Node8&#45;&gt;Node11</title>
<g id="a_edge13_Node000008_Node000011"><a xlink:title=" ">
<path fill="none" stroke="#63b8ff" d="M661.19,-56.94C698.44,-48.93 763.33,-34.75 828.62,-19.14"/>
<polygon fill="#63b8ff" stroke="#63b8ff" points="829.77,-22.46 838.67,-16.72 828.13,-15.65 829.77,-22.46"/>
</a>
</g>
</g>
<!-- Node12 -->
<g id="Node000012" class="node">
<title>Node12</title>
<g id="a_Node000012"><a xlink:title=" ">
<polygon fill="#e0e0e0" stroke="#999999" points="433.94,-19 382.94,-19 382.94,0 433.94,0 433.94,-19"/>
<text text-anchor="middle" x="408.44" y="-7" font-family="Helvetica,sans-Serif" font-size="10.00">math.h</text>
</a>
</g>
</g>
<!-- Node8&#45;&gt;Node12 -->
<g id="edge14_Node000008_Node000012" class="edge">
<title>Node8&#45;&gt;Node12</title>
<g id="a_edge14_Node000008_Node000012"><a xlink:title=" ">
<path fill="none" stroke="#63b8ff" d="M599.66,-56.22C564.47,-47.89 504.88,-33.75 443.86,-19.09"/>
<polygon fill="#63b8ff" stroke="#63b8ff" points="444.59,-15.67 434.05,-16.73 442.96,-22.47 444.59,-15.67"/>
</a>
</g>
</g>
<!-- Node13 -->
<g id="Node000013" class="node">
<title>Node13</title>
<g id="a_Node000013"><a xlink:title=" ">
<polygon fill="#e0e0e0" stroke="#999999" points="508.44,-19 452.44,-19 452.44,0 508.44,0 508.44,-19"/>
<text text-anchor="middle" x="480.44" y="-7" font-family="Helvetica,sans-Serif" font-size="10.00">stdarg.h</text>
</a>
</g>
</g>
<!-- Node8&#45;&gt;Node13 -->
<g id="edge16_Node000008_Node000013" class="edge">
<title>Node8&#45;&gt;Node13</title>
<g id="a_edge16_Node000008_Node000013"><a xlink:title=" ">
<path fill="none" stroke="#63b8ff" d="M606.34,-54.98C581.56,-46.23 542.74,-32.51 514.75,-22.62"/>
<polygon fill="#63b8ff" stroke="#63b8ff" points="515.57,-19.2 504.98,-19.17 513.24,-25.8 515.57,-19.2"/>
</a>
</g>
</g>
<!-- Node14 -->
<g id="Node000014" class="node">
<title>Node14</title>
<g id="a_Node000014"><a xlink:title=" ">
<polygon fill="#e0e0e0" stroke="#999999" points="579.94,-19 526.94,-19 526.94,0 579.94,0 579.94,-19"/>
<text text-anchor="middle" x="553.44" y="-7" font-family="Helvetica,sans-Serif" font-size="10.00">stdint.h</text>
</a>
</g>
</g>
<!-- Node8&#45;&gt;Node14 -->
<g id="edge17_Node000008_Node000014" class="edge">
<title>Node8&#45;&gt;Node14</title>
<g id="a_edge17_Node000008_Node000014"><a xlink:title=" ">
<path fill="none" stroke="#63b8ff" d="M618.07,-54.98C606.35,-46.92 588.52,-34.65 574.55,-25.03"/>
<polygon fill="#63b8ff" stroke="#63b8ff" points="576.26,-21.96 566.04,-19.17 572.29,-27.72 576.26,-21.96"/>
</a>
</g>
</g>
<!-- Node8&#45;&gt;Node15 -->
<g id="edge18_Node000008_Node000015" class="edge">
<title>Node8&#45;&gt;Node15</title>
<g id="a_edge18_Node000008_Node000015"><a xlink:title=" ">
<path fill="none" stroke="#63b8ff" d="M661.06,-59.06C710.39,-51.75 810.44,-36.26 894.44,-19 894.54,-18.98 894.64,-18.96 894.74,-18.94"/>
<polygon fill="#63b8ff" stroke="#63b8ff" points="895.24,-22.41 904.25,-16.84 893.74,-15.58 895.24,-22.41"/>
</a>
</g>
</g>
<!-- Node8&#45;&gt;Node16 -->
<g id="edge19_Node000008_Node000016" class="edge">
<title>Node8&#45;&gt;Node16</title>
<g id="a_edge19_Node000008_Node000016"><a xlink:title=" ">
<path fill="none" stroke="#63b8ff" d="M661.36,-60.4C718.76,-54.43 845.83,-40.17 962.92,-18.92"/>
<polygon fill="#63b8ff" stroke="#63b8ff" points="963.56,-22.36 972.77,-17.11 962.3,-15.47 963.56,-22.36"/>
</a>
</g>
</g>
<!-- Node8&#45;&gt;Node17 -->
<g id="edge20_Node000008_Node000017" class="edge">
<title>Node8&#45;&gt;Node17</title>
<g id="a_edge20_Node000008_Node000017"><a xlink:title=" ">
<path fill="none" stroke="#63b8ff" d="M661.11,-61.49C727.45,-56.84 889.31,-43.94 1033.83,-19.09"/>
<polygon fill="#63b8ff" stroke="#63b8ff" points="1034.51,-22.52 1043.76,-17.35 1033.31,-15.62 1034.51,-22.52"/>
</a>
</g>
</g>
<!-- Node18 -->
<g id="Node000018" class="node">
<title>Node18</title>
<g id="a_Node000018"><a xlink:title=" ">
<polygon fill="#e0e0e0" stroke="#999999" points="674.94,-19 597.94,-19 597.94,0 674.94,0 674.94,-19"/>
<text text-anchor="middle" x="636.44" y="-7" font-family="Helvetica,sans-Serif" font-size="10.00">sys/mman.h</text>
</a>
</g>
</g>
<!-- Node8&#45;&gt;Node18 -->
<g id="edge21_Node000008_Node000018" class="edge">
<title>Node8&#45;&gt;Node18</title>
<g id="a_edge21_Node000008_Node000018"><a xlink:title=" ">
<path fill="none" stroke="#63b8ff" d="M631.43,-54.75C632.22,-47.8 633.35,-37.85 634.33,-29.13"/>
<polygon fill="#63b8ff" stroke="#63b8ff" points="637.82,-29.42 635.47,-19.09 630.87,-28.63 637.82,-29.42"/>
</a>
</g>
</g>
<!-- Node8&#45;&gt;Node19 -->
<g id="edge22_Node000008_Node000019" class="edge">
<title>Node8&#45;&gt;Node19</title>
<g id="a_edge22_Node000008_Node000019"><a xlink:title=" ">
<path fill="none" stroke="#63b8ff" d="M661.21,-61.81C735.7,-57.48 931.75,-44.55 1105.2,-19.02"/>
<polygon fill="#63b8ff" stroke="#63b8ff" points="1105.9,-22.46 1115.27,-17.52 1104.87,-15.53 1105.9,-22.46"/>
</a>
</g>
</g>
<!-- Node20 -->
<g id="Node000020" class="node">
<title>Node20</title>
<g id="a_Node000020"><a xlink:title=" ">
<polygon fill="#e0e0e0" stroke="#999999" points="364.44,-19 316.44,-19 316.44,0 364.44,0 364.44,-19"/>
<text text-anchor="middle" x="340.44" y="-7" font-family="Helvetica,sans-Serif" font-size="10.00">time.h</text>
</a>
</g>
</g>
<!-- Node8&#45;&gt;Node20 -->
<g id="edge23_Node000008_Node000020" class="edge">
<title>Node8&#45;&gt;Node20</title>
<g id="a_edge23_Node000008_Node000020"><a xlink:title=" ">
<path fill="none" stroke="#63b8ff" d="M599.83,-59.02C553.25,-52.02 461.61,-37.56 374.33,-19.05"/>
<polygon fill="#63b8ff" stroke="#63b8ff" points="375.05,-15.62 364.54,-16.95 373.58,-22.46 375.05,-15.62"/>
</a>
</g>
</g>
<!-- Node8&#45;&gt;Node21 -->
<g id="edge24_Node000008_Node000021" class="edge">
<title>Node8&#45;&gt;Node21</title>
<g id="a_edge24_Node000008_Node000021"><a xlink:title=" ">
<path fill="none" stroke="#63b8ff" d="M661.27,-61.05C770.45,-52.37 1138.58,-23.12 1258.98,-13.56"/>
<polygon fill="#63b8ff" stroke="#63b8ff" points="1259.5,-17.03 1269.19,-12.74 1258.95,-10.05 1259.5,-17.03"/>
</a>
</g>
</g>
<!-- Node22 -->
<g id="Node000022" class="node">
<title>Node22</title>
<g id="a_Node000022"><a xlink:title=" ">
<polygon fill="#e0e0e0" stroke="#999999" points="298.44,-19 236.44,-19 236.44,0 298.44,0 298.44,-19"/>
<text text-anchor="middle" x="267.44" y="-7" font-family="Helvetica,sans-Serif" font-size="10.00">stdbool.h</text>
</a>
</g>
</g>
<!-- Node8&#45;&gt;Node22 -->
<g id="edge25_Node000008_Node000022" class="edge">
<title>Node8&#45;&gt;Node22</title>
<g id="a_edge25_Node000008_Node000022"><a xlink:title=" ">
<path fill="none" stroke="#63b8ff" d="M599.6,-60.01C543.68,-53.51 421.65,-38.58 309.01,-19.17"/>
<polygon fill="#63b8ff" stroke="#63b8ff" points="309.29,-15.66 298.84,-17.4 308.09,-22.56 309.29,-15.66"/>
</a>
</g>
</g>
<!-- Node23&#45;&gt;Node8 -->
<g id="edge28_Node000023_Node000008" class="edge">
<title>Node23&#45;&gt;Node8</title>
<g id="a_edge28_Node000023_Node000008"><a xlink:title=" ">
<path fill="none" stroke="#63b8ff" d="M698.77,-225.41C687.56,-199.17 653.56,-119.61 638.17,-83.58"/>
<polygon fill="#63b8ff" stroke="#63b8ff" points="641.34,-82.09 634.19,-74.27 634.9,-84.84 641.34,-82.09"/>
</a>
</g>
</g>
<!-- Node24 -->
<g id="Node000024" class="node">
<title>Node24</title>
<g id="a_Node000024"><a xlink:title=" ">
<polygon fill="#e0e0e0" stroke="#999999" points="764.44,-184 690.44,-184 690.44,-165 764.44,-165 764.44,-184"/>
<text text-anchor="middle" x="727.44" y="-172" font-family="Helvetica,sans-Serif" font-size="10.00">stdatomic.h</text>
</a>
</g>
</g>
<!-- Node23&#45;&gt;Node24 -->
<g id="edge27_Node000023_Node000024" class="edge">
<title>Node23&#45;&gt;Node24</title>
<g id="a_edge27_Node000023_Node000024"><a xlink:title=" ">
<path fill="none" stroke="#63b8ff" d="M706.13,-225.37C709.71,-216.99 715.26,-204.01 719.79,-193.39"/>
<polygon fill="#63b8ff" stroke="#63b8ff" points="723.03,-194.74 723.74,-184.17 716.59,-191.99 723.03,-194.74"/>
</a>
</g>
</g>
<!-- Node25 -->
<g id="Node000025" class="node">
<title>Node25</title>
<g id="a_Node000025"><a xlink:href="Thread_8h.html" target="_top" xlink:title="Lightweight Synchronization Primitives Wrapper.">
<polygon fill="white" stroke="#666666" points="596.44,-184 472.44,-184 472.44,-165 596.44,-165 596.44,-184"/>
<text text-anchor="middle" x="534.44" y="-172" font-family="Helvetica,sans-Serif" font-size="10.00">src/Common/Thread.h</text>
</a>
</g>
</g>
<!-- Node23&#45;&gt;Node25 -->
<g id="edge29_Node000023_Node000025" class="edge">
<title>Node23&#45;&gt;Node25</title>
<g id="a_edge29_Node000023_Node000025"><a xlink:title=" ">
<path fill="none" stroke="#63b8ff" d="M678.01,-225.49C649.15,-215.44 600.95,-198.66 568.44,-187.34"/>
<polygon fill="#63b8ff" stroke="#63b8ff" points="569.49,-184 558.9,-184.02 567.19,-190.61 569.49,-184"/>
</a>
</g>
</g>
<!-- Node25&#45;&gt;Node5 -->
<g id="edge30_Node000025_Node000005" class="edge">
<title>Node25&#45;&gt;Node5</title>
<g id="a_edge30_Node000025_Node000005"><a xlink:title=" ">
<path fill="none" stroke="#63b8ff" d="M473.91,-164.99C414.59,-156.13 328.67,-141.8 297.44,-129 233.54,-102.8 168.83,-51.41 138.78,-25.79"/>
<polygon fill="#63b8ff" stroke="#63b8ff" points="140.78,-22.89 130.93,-19 136.2,-28.19 140.78,-22.89"/>
</a>
</g>
</g>
<!-- Node25&#45;&gt;Node8 -->
<g id="edge32_Node000025_Node000008" class="edge">
<title>Node25&#45;&gt;Node8</title>
<g id="a_edge32_Node000025_Node000008"><a xlink:title=" ">
<path fill="none" stroke="#63b8ff" d="M542.3,-164.66C558.41,-146.54 595.41,-104.91 615.98,-81.77"/>
<polygon fill="#63b8ff" stroke="#63b8ff" points="618.72,-83.96 622.74,-74.16 613.49,-79.31 618.72,-83.96"/>
</a>
</g>
</g>
<!-- Node26 -->
<g id="Node000026" class="node">
<title>Node26</title>
<g id="a_Node000026"><a xlink:title=" ">
<polygon fill="#e0e0e0" stroke="#999999" points="558.44,-129 478.44,-129 478.44,-110 558.44,-110 558.44,-129"/>
<text text-anchor="middle" x="518.44" y="-117" font-family="Helvetica,sans-Serif" font-size="10.00">semaphore.h</text>
</a>
</g>
</g>
<!-- Node25&#45;&gt;Node26 -->
<g id="edge31_Node000025_Node000026" class="edge">
<title>Node25&#45;&gt;Node26</title>
<g id="a_edge31_Node000025_Node000026"><a xlink:title=" ">
<path fill="none" stroke="#63b8ff" d="M531.8,-164.75C529.68,-157.72 526.63,-147.62 523.98,-138.84"/>
<polygon fill="#63b8ff" stroke="#63b8ff" points="527.27,-137.65 521.03,-129.09 520.57,-139.67 527.27,-137.65"/>
</a>
</g>
</g>
<!-- Node27 -->
<g id="Node000027" class="node">
<title>Node27</title>
<g id="a_Node000027"><a xlink:href="Time_8h.html" target="_top" xlink:title="Lightweight Time Manipulation Utilities.">
<polygon fill="white" stroke="#666666" points="421.94,-129 306.94,-129 306.94,-110 421.94,-110 421.94,-129"/>
<text text-anchor="middle" x="364.44" y="-117" font-family="Helvetica,sans-Serif" font-size="10.00">src/Common/Time.h</text>
</a>
</g>
</g>
<!-- Node25&#45;&gt;Node27 -->
<g id="edge33_Node000025_Node000027" class="edge">
<title>Node25&#45;&gt;Node27</title>
<g id="a_edge33_Node000025_Node000027"><a xlink:title=" ">
<path fill="none" stroke="#63b8ff" d="M507.13,-164.98C478.59,-156.09 433.62,-142.07 401.8,-132.15"/>
<polygon fill="#63b8ff" stroke="#63b8ff" points="402.56,-128.72 391.97,-129.08 400.47,-135.4 402.56,-128.72"/>
</a>
</g>
</g>
<!-- Node27&#45;&gt;Node8 -->
<g id="edge36_Node000027_Node000008" class="edge">
<title>Node27&#45;&gt;Node8</title>
<g id="a_edge36_Node000027_Node000008"><a xlink:title=" ">
<path fill="none" stroke="#63b8ff" d="M407.18,-109.98C457.5,-99.96 540.45,-83.43 589.83,-73.59"/>
<polygon fill="#63b8ff" stroke="#63b8ff" points="590.71,-76.99 599.83,-71.6 589.34,-70.12 590.71,-76.99"/>
</a>
</g>
</g>
<!-- Node27&#45;&gt;Node20 -->
<g id="edge35_Node000027_Node000020" class="edge">
<title>Node27&#45;&gt;Node20</title>
<g id="a_edge35_Node000027_Node000020"><a xlink:title=" ">
<path fill="none" stroke="#63b8ff" d="M364.18,-109.75C363.65,-97.39 362.08,-74.19 357.44,-55 355.28,-46.06 351.78,-36.48 348.53,-28.52"/>
<polygon fill="#63b8ff" stroke="#63b8ff" points="351.67,-26.96 344.51,-19.15 345.24,-29.72 351.67,-26.96"/>
</a>
</g>
</g>
<!-- Node28 -->
<g id="Node000028" class="node">
<title>Node28</title>
<g id="a_Node000028"><a xlink:title=" ">
<polygon fill="#e0e0e0" stroke="#999999" points="348.94,-74 295.94,-74 295.94,-55 348.94,-55 348.94,-74"/>
<text text-anchor="middle" x="322.44" y="-62" font-family="Helvetica,sans-Serif" font-size="10.00">limits.h</text>
</a>
</g>
</g>
<!-- Node27&#45;&gt;Node28 -->
<g id="edge34_Node000027_Node000028" class="edge">
<title>Node27&#45;&gt;Node28</title>
<g id="a_edge34_Node000027_Node000028"><a xlink:title=" ">
<path fill="none" stroke="#63b8ff" d="M357.51,-109.75C351.57,-102.26 342.87,-91.28 335.62,-82.13"/>
<polygon fill="#63b8ff" stroke="#63b8ff" points="338.2,-79.75 329.25,-74.09 332.72,-84.1 338.2,-79.75"/>
</a>
</g>
</g>
<!-- Node29&#45;&gt;Node5 -->
<g id="edge38_Node000029_Node000005" class="edge">
<title>Node29&#45;&gt;Node5</title>
<g id="a_edge38_Node000029_Node000005"><a xlink:title=" ">
<path fill="none" stroke="#63b8ff" d="M331.95,-225.22C306.39,-201.45 234.18,-133.67 177.44,-74 162.65,-58.45 146.51,-39.98 135.38,-26.98"/>
<polygon fill="#63b8ff" stroke="#63b8ff" points="138,-24.65 128.85,-19.31 132.67,-29.19 138,-24.65"/>
</a>
</g>
</g>
<!-- Node29&#45;&gt;Node8 -->
<g id="edge40_Node000029_Node000008" class="edge">
<title>Node29&#45;&gt;Node8</title>
<g id="a_edge40_Node000029_Node000008"><a xlink:title=" ">
<path fill="none" stroke="#63b8ff" d="M346.18,-225.19C353.94,-211.3 370.4,-183.93 389.44,-165 420.04,-134.57 430.33,-128.22 469.44,-110 508.51,-91.8 556.48,-79.73 589.85,-72.81"/>
<polygon fill="#63b8ff" stroke="#63b8ff" points="590.6,-76.23 599.71,-70.83 589.22,-69.37 590.6,-76.23"/>
</a>
</g>
</g>
<!-- Node29&#45;&gt;Node22 -->
<g id="edge39_Node000029_Node000022" class="edge">
<title>Node29&#45;&gt;Node22</title>
<g id="a_edge39_Node000029_Node000022"><a xlink:title=" ">
<path fill="none" stroke="#63b8ff" d="M337.35,-225.46C328.99,-207.77 309.72,-165.74 297.44,-129 285.88,-94.4 276.32,-52.85 271.29,-29.27"/>
<polygon fill="#63b8ff" stroke="#63b8ff" points="274.66,-28.32 269.19,-19.25 267.81,-29.76 274.66,-28.32"/>
</a>
</g>
</g>
<!-- Node29&#45;&gt;Node25 -->
<g id="edge41_Node000029_Node000025" class="edge">
<title>Node29&#45;&gt;Node25</title>
<g id="a_edge41_Node000029_Node000025"><a xlink:title=" ">
<path fill="none" stroke="#63b8ff" d="M369.51,-225.49C402.95,-215.36 459,-198.37 496.34,-187.05"/>
<polygon fill="#63b8ff" stroke="#63b8ff" points="497.79,-190.27 506.34,-184.02 495.76,-183.57 497.79,-190.27"/>
</a>
</g>
</g>
<!-- Node31 -->
<g id="Node000031" class="node">
<title>Node31</title>
<g id="a_Node000031"><a xlink:title=" ">
<polygon fill="#e0e0e0" stroke="#999999" points="454.44,-184 398.44,-184 398.44,-165 454.44,-165 454.44,-184"/>
<text text-anchor="middle" x="426.44" y="-172" font-family="Helvetica,sans-Serif" font-size="10.00">stddef.h</text>
</a>
</g>
</g>
<!-- Node30&#45;&gt;Node31 -->
<g id="edge43_Node000030_Node000031" class="edge">
<title>Node30&#45;&gt;Node31</title>
<g id="a_edge43_Node000030_Node000031"><a xlink:title=" ">
<path fill="none" stroke="#63b8ff" d="M488.67,-225.37C477.24,-216.21 458.96,-201.56 445.17,-190.51"/>
<polygon fill="#63b8ff" stroke="#63b8ff" points="447.25,-187.69 437.26,-184.17 442.87,-193.15 447.25,-187.69"/>
</a>
</g>
</g>
<!-- Node34&#45;&gt;Node8 -->
<g id="edge54_Node000034_Node000008" class="edge">
<title>Node34&#45;&gt;Node8</title>
<g id="a_edge54_Node000034_Node000008"><a xlink:title=" ">
<path fill="none" stroke="#63b8ff" d="M946.01,-285.82C935.43,-277.42 919.7,-263.95 908.44,-250 863.3,-194.06 885.35,-152.6 827.44,-110 781.39,-76.12 714.08,-67.35 671.28,-65.44"/>
<polygon fill="#63b8ff" stroke="#63b8ff" points="671.33,-61.94 661.21,-65.1 671.09,-68.94 671.33,-61.94"/>
</a>
</g>
</g>
<!-- Node35 -->
<g id="Node000035" class="node">
<title>Node35</title>
<g id="a_Node000035"><a xlink:title=" ">
<polygon fill="#e0e0e0" stroke="#999999" points="1039.44,-250 917.44,-250 917.44,-220 1039.44,-220 1039.44,-250"/>
<text text-anchor="start" x="925.44" y="-238" font-family="Helvetica,sans-Serif" font-size="10.00">src/DatabaseSystems</text>
<text text-anchor="middle" x="978.44" y="-227" font-family="Helvetica,sans-Serif" font-size="10.00">/Postgres.h</text>
</a>
</g>
</g>
<!-- Node34&#45;&gt;Node35 -->
<g id="edge55_Node000034_Node000035" class="edge">
<title>Node34&#45;&gt;Node35</title>
<g id="a_edge55_Node000034_Node000035"><a xlink:title=" ">
<path fill="none" stroke="#63b8ff" d="M960.54,-285.87C963.02,-278.96 966.62,-268.93 969.94,-259.67"/>
<polygon fill="#63b8ff" stroke="#63b8ff" points="973.29,-260.71 973.37,-250.11 966.7,-258.34 973.29,-260.71"/>
</a>
</g>
</g>
</g>
</svg>
