<?xml version="1.0" encoding="UTF-8" standalone="no"?>
<!DOCTYPE svg PUBLIC "-//W3C//DTD SVG 1.1//EN"
 "http://www.w3.org/Graphics/SVG/1.1/DTD/svg11.dtd">
<!-- Generated by graphviz version 2.43.0 (0)
 -->
<!-- Title: SdbSetupSignalHandlers Pages: 1 -->
<svg width="618pt" height="138pt"
 viewBox="0.00 0.00 618.00 138.00" xmlns="http://www.w3.org/2000/svg" xmlns:xlink="http://www.w3.org/1999/xlink">
<g id="graph0" class="graph" transform="scale(1 1) rotate(0) translate(4 134)">
<title>SdbSetupSignalHandlers</title>
<!-- Node1 -->
<g id="Node000001" class="node">
<title>Node1</title>
<g id="a_Node000001"><a xlink:title="Sets up signal handlers for the application.">
<polygon fill="#999999" stroke="#666666" points="136,-56 0,-56 0,-37 136,-37 136,-56"/>
<text text-anchor="middle" x="68" y="-44" font-family="Helvetica,sans-Serif" font-size="10.00">SdbSetupSignalHandlers</text>
</a>
</g>
</g>
<!-- Node2 -->
<g id="Node000002" class="node">
<title>Node2</title>
<g id="a_Node000002"><a xlink:href="Signals_8c.html#a6f1cd44547a55d590f525110340d0f1f" target="_top" xlink:title="Internal signal handler to process system signals.">
<polygon fill="white" stroke="#666666" points="257,-56 172,-56 172,-37 257,-37 257,-56"/>
<text text-anchor="middle" x="214.5" y="-44" font-family="Helvetica,sans-Serif" font-size="10.00">SignalHandler</text>
</a>
</g>
</g>
<!-- Node1&#45;&gt;Node2 -->
<g id="edge1_Node000001_Node000002" class="edge">
<title>Node1&#45;&gt;Node2</title>
<g id="a_edge1_Node000001_Node000002"><a xlink:title=" ">
<path fill="none" stroke="#63b8ff" d="M136.17,-46.5C144.67,-46.5 153.27,-46.5 161.48,-46.5"/>
<polygon fill="#63b8ff" stroke="#63b8ff" points="161.64,-50 171.64,-46.5 161.64,-43 161.64,-50"/>
</a>
</g>
</g>
<!-- Node3 -->
<g id="Node000003" class="node">
<title>Node3</title>
<g id="a_Node000003"><a xlink:href="Signals_8c.html#a9934ca93fac5b0dcfa0ae402a83bbaa0" target="_top" xlink:title="Creates a memory dump of the process state.">
<polygon fill="white" stroke="#666666" points="425,-93 301,-93 301,-74 425,-74 425,-93"/>
<text text-anchor="middle" x="363" y="-81" font-family="Helvetica,sans-Serif" font-size="10.00">DumpProcessMemory</text>
</a>
</g>
</g>
<!-- Node2&#45;&gt;Node3 -->
<g id="edge2_Node000002_Node000003" class="edge">
<title>Node2&#45;&gt;Node3</title>
<g id="a_edge2_Node000002_Node000003"><a xlink:title=" ">
<path fill="none" stroke="#63b8ff" d="M253.23,-56.03C271.87,-60.74 294.55,-66.47 314.38,-71.47"/>
<polygon fill="#63b8ff" stroke="#63b8ff" points="313.59,-74.88 324.15,-73.94 315.31,-68.1 313.59,-74.88"/>
</a>
</g>
</g>
<!-- Node6 -->
<g id="Node000006" class="node">
<title>Node6</title>
<g id="a_Node000006"><a xlink:href="Signals_8c.html#a45f6f56c3aac50030832d4b445f1cd61" target="_top" xlink:title="Handles internal pipe dump operations.">
<polygon fill="white" stroke="#666666" points="413.5,-56 312.5,-56 312.5,-37 413.5,-37 413.5,-56"/>
<text text-anchor="middle" x="363" y="-44" font-family="Helvetica,sans-Serif" font-size="10.00">HandlePipeDump</text>
</a>
</g>
</g>
<!-- Node2&#45;&gt;Node6 -->
<g id="edge5_Node000002_Node000006" class="edge">
<title>Node2&#45;&gt;Node6</title>
<g id="a_edge5_Node000002_Node000006"><a xlink:title=" ">
<path fill="none" stroke="#63b8ff" d="M257.09,-46.5C271.04,-46.5 286.89,-46.5 301.97,-46.5"/>
<polygon fill="#63b8ff" stroke="#63b8ff" points="302.25,-50 312.25,-46.5 302.25,-43 302.25,-50"/>
</a>
</g>
</g>
<!-- Node8 -->
<g id="Node000008" class="node">
<title>Node8</title>
<g id="a_Node000008"><a xlink:href="Signals_8c.html#ac59c3ef33c4c32b750598e2d2f6398e1" target="_top" xlink:title="Initiates system shutdown with proper synchronization.">
<polygon fill="white" stroke="#666666" points="433,-19 293,-19 293,0 433,0 433,-19"/>
<text text-anchor="middle" x="363" y="-7" font-family="Helvetica,sans-Serif" font-size="10.00">InitiateGracefulShutdown</text>
</a>
</g>
</g>
<!-- Node2&#45;&gt;Node8 -->
<g id="edge7_Node000002_Node000008" class="edge">
<title>Node2&#45;&gt;Node8</title>
<g id="a_edge7_Node000002_Node000008"><a xlink:title=" ">
<path fill="none" stroke="#63b8ff" d="M253.23,-36.97C271.87,-32.26 294.55,-26.53 314.38,-21.53"/>
<polygon fill="#63b8ff" stroke="#63b8ff" points="315.31,-24.9 324.15,-19.06 313.59,-18.12 315.31,-24.9"/>
</a>
</g>
</g>
<!-- Node4 -->
<g id="Node000004" class="node">
<title>Node4</title>
<g id="a_Node000004"><a xlink:href="Signals_8c.html#a5ef6dcc759fd8166d79fd158ec2f9935" target="_top" xlink:title=" ">
<polygon fill="white" stroke="#666666" points="578,-130 501,-130 501,-111 578,-111 578,-130"/>
<text text-anchor="middle" x="539.5" y="-118" font-family="Helvetica,sans-Serif" font-size="10.00">GetThreadId</text>
</a>
</g>
</g>
<!-- Node3&#45;&gt;Node4 -->
<g id="edge3_Node000003_Node000004" class="edge">
<title>Node3&#45;&gt;Node4</title>
<g id="a_edge3_Node000003_Node000004"><a xlink:title=" ">
<path fill="none" stroke="#63b8ff" d="M408.94,-93.03C434.08,-98.36 465.4,-105 490.95,-110.42"/>
<polygon fill="#63b8ff" stroke="#63b8ff" points="490.29,-113.85 500.79,-112.51 491.74,-107.01 490.29,-113.85"/>
</a>
</g>
</g>
<!-- Node5 -->
<g id="Node000005" class="node">
<title>Node5</title>
<g id="a_Node000005"><a xlink:href="Signals_8c.html#a27d60415a71248a37804f83c33553b0b" target="_top" xlink:title=" ">
<polygon fill="white" stroke="#666666" points="588,-93 491,-93 491,-74 588,-74 588,-93"/>
<text text-anchor="middle" x="539.5" y="-81" font-family="Helvetica,sans-Serif" font-size="10.00">GetThreadName</text>
</a>
</g>
</g>
<!-- Node3&#45;&gt;Node5 -->
<g id="edge4_Node000003_Node000005" class="edge">
<title>Node3&#45;&gt;Node5</title>
<g id="a_edge4_Node000003_Node000005"><a xlink:title=" ">
<path fill="none" stroke="#63b8ff" d="M425.03,-83.5C443.19,-83.5 463.02,-83.5 480.95,-83.5"/>
<polygon fill="#63b8ff" stroke="#63b8ff" points="480.98,-87 490.98,-83.5 480.98,-80 480.98,-87"/>
</a>
</g>
</g>
<!-- Node7 -->
<g id="Node000007" class="node">
<title>Node7</title>
<g id="a_Node000007"><a xlink:href="Signals_8c.html#a544b451adfe66651acf0f329633a8673" target="_top" xlink:title="Dumps sensor data pipe contents to a file.">
<polygon fill="white" stroke="#666666" points="610,-56 469,-56 469,-37 610,-37 610,-56"/>
<text text-anchor="middle" x="539.5" y="-44" font-family="Helvetica,sans-Serif" font-size="10.00">SdbDumpSensorDataPipe</text>
</a>
</g>
</g>
<!-- Node6&#45;&gt;Node7 -->
<g id="edge6_Node000006_Node000007" class="edge">
<title>Node6&#45;&gt;Node7</title>
<g id="a_edge6_Node000006_Node000007"><a xlink:title=" ">
<path fill="none" stroke="#63b8ff" d="M413.54,-46.5C427.67,-46.5 443.44,-46.5 458.89,-46.5"/>
<polygon fill="#63b8ff" stroke="#63b8ff" points="458.97,-50 468.97,-46.5 458.97,-43 458.97,-50"/>
</a>
</g>
</g>
</g>
</svg>
