<?xml version="1.0" encoding="UTF-8" standalone="no"?>
<!DOCTYPE svg PUBLIC "-//W3C//DTD SVG 1.1//EN"
 "http://www.w3.org/Graphics/SVG/1.1/DTD/svg11.dtd">
<!-- Generated by graphviz version 2.43.0 (0)
 -->
<!-- Title: src/Signals.h Pages: 1 -->
<svg width="1090pt" height="95pt"
 viewBox="0.00 0.00 1089.50 95.00" xmlns="http://www.w3.org/2000/svg" xmlns:xlink="http://www.w3.org/1999/xlink">
<g id="graph0" class="graph" transform="scale(1 1) rotate(0) translate(4 91)">
<title>src/Signals.h</title>
<polygon fill="white" stroke="transparent" points="-4,4 -4,-91 1085.5,-91 1085.5,4 -4,4"/>
<!-- Node1 -->
<g id="node1" class="node">
<title>Node1</title>
<g id="a_node1"><a xlink:title="Signal handling interface for the Sensor Data Handler System.">
<polygon fill="#bfbfbf" stroke="black" points="587,-67.5 587,-86.5 665,-86.5 665,-67.5 587,-67.5"/>
<text text-anchor="middle" x="626" y="-74.5" font-family="Helvetica,sans-Serif" font-size="10.00">src/Signals.h</text>
</a>
</g>
</g>
<!-- Node2 -->
<g id="node2" class="node">
<title>Node2</title>
<g id="a_node2"><a xlink:href="ThreadGroup_8c.html" target="_top" xlink:title=" ">
<polygon fill="white" stroke="black" points="0,-6 0,-25 152,-25 152,-6 0,-6"/>
<text text-anchor="middle" x="76" y="-13" font-family="Helvetica,sans-Serif" font-size="10.00">src/Common/ThreadGroup.c</text>
</a>
</g>
</g>
<!-- Node1&#45;&gt;Node2 -->
<g id="edge1" class="edge">
<title>Node1&#45;&gt;Node2</title>
<path fill="none" stroke="midnightblue" d="M576.55,-72.4C491.44,-65.94 311.88,-51.14 161,-31 148.39,-29.32 134.78,-27.15 122.23,-25.01"/>
<polygon fill="midnightblue" stroke="midnightblue" points="576.46,-75.9 586.7,-73.16 576.99,-68.92 576.46,-75.9"/>
</g>
<!-- Node3 -->
<g id="node3" class="node">
<title>Node3</title>
<g id="a_node3"><a xlink:href="DataHandlers_2ModbusWithPostgres_2Modbus_8c.html" target="_top" xlink:title=" ">
<polygon fill="white" stroke="black" points="170,-0.5 170,-30.5 334,-30.5 334,-0.5 170,-0.5"/>
<text text-anchor="start" x="178" y="-18.5" font-family="Helvetica,sans-Serif" font-size="10.00">src/DataHandlers/ModbusWith</text>
<text text-anchor="middle" x="252" y="-7.5" font-family="Helvetica,sans-Serif" font-size="10.00">Postgres/Modbus.c</text>
</a>
</g>
</g>
<!-- Node1&#45;&gt;Node3 -->
<g id="edge2" class="edge">
<title>Node1&#45;&gt;Node3</title>
<path fill="none" stroke="midnightblue" d="M576.54,-68.14C520.06,-59.16 424.87,-44.03 343,-31 340.16,-30.55 337.26,-30.09 334.34,-29.62"/>
<polygon fill="midnightblue" stroke="midnightblue" points="576.2,-71.63 586.63,-69.74 577.3,-64.72 576.2,-71.63"/>
</g>
<!-- Node4 -->
<g id="node4" class="node">
<title>Node4</title>
<g id="a_node4"><a xlink:href="ModbusWithPostgres_8c.html" target="_top" xlink:title="Implementation of Modbus&#45;PostgreSQL integration.">
<polygon fill="white" stroke="black" points="352.5,-0.5 352.5,-30.5 525.5,-30.5 525.5,-0.5 352.5,-0.5"/>
<text text-anchor="start" x="360.5" y="-18.5" font-family="Helvetica,sans-Serif" font-size="10.00">src/DataHandlers/ModbusWith</text>
<text text-anchor="middle" x="439" y="-7.5" font-family="Helvetica,sans-Serif" font-size="10.00">Postgres/ModbusWithPostgres.c</text>
</a>
</g>
</g>
<!-- Node1&#45;&gt;Node4 -->
<g id="edge3" class="edge">
<title>Node1&#45;&gt;Node4</title>
<path fill="none" stroke="midnightblue" d="M589.41,-64.36C558.94,-54.66 515.45,-40.83 483.07,-30.52"/>
<polygon fill="midnightblue" stroke="midnightblue" points="588.62,-67.78 599.21,-67.48 590.74,-61.11 588.62,-67.78"/>
</g>
<!-- Node5 -->
<g id="node5" class="node">
<title>Node5</title>
<g id="a_node5"><a xlink:href="DataHandlers_2ModbusWithPostgres_2Postgres_8c.html" target="_top" xlink:title=" ">
<polygon fill="white" stroke="black" points="544,-0.5 544,-30.5 708,-30.5 708,-0.5 544,-0.5"/>
<text text-anchor="start" x="552" y="-18.5" font-family="Helvetica,sans-Serif" font-size="10.00">src/DataHandlers/ModbusWith</text>
<text text-anchor="middle" x="626" y="-7.5" font-family="Helvetica,sans-Serif" font-size="10.00">Postgres/Postgres.c</text>
</a>
</g>
</g>
<!-- Node1&#45;&gt;Node5 -->
<g id="edge4" class="edge">
<title>Node1&#45;&gt;Node5</title>
<path fill="none" stroke="midnightblue" d="M626,-57.23C626,-48.59 626,-38.5 626,-30.52"/>
<polygon fill="midnightblue" stroke="midnightblue" points="622.5,-57.48 626,-67.48 629.5,-57.48 622.5,-57.48"/>
</g>
<!-- Node6 -->
<g id="node6" class="node">
<title>Node6</title>
<g id="a_node6"><a xlink:href="ModbusTestServer_8c.html" target="_top" xlink:title="Implementation of Modbus Test Server.">
<polygon fill="white" stroke="black" points="726,-6 726,-25 902,-25 902,-6 726,-6"/>
<text text-anchor="middle" x="814" y="-13" font-family="Helvetica,sans-Serif" font-size="10.00">src/DevUtils/ModbusTestServer.c</text>
</a>
</g>
</g>
<!-- Node1&#45;&gt;Node6 -->
<g id="edge5" class="edge">
<title>Node1&#45;&gt;Node6</title>
<path fill="none" stroke="midnightblue" d="M662.71,-64.38C699.26,-52.82 754.47,-35.34 787.11,-25.01"/>
<polygon fill="midnightblue" stroke="midnightblue" points="661.41,-61.12 652.94,-67.48 663.53,-67.79 661.41,-61.12"/>
</g>
<!-- Node7 -->
<g id="node7" class="node">
<title>Node7</title>
<g id="a_node7"><a xlink:href="Main_8c.html" target="_top" xlink:title="Main implementation file for the Sensor Data Handler System.">
<polygon fill="white" stroke="black" points="920,-6 920,-25 986,-25 986,-6 920,-6"/>
<text text-anchor="middle" x="953" y="-13" font-family="Helvetica,sans-Serif" font-size="10.00">src/Main.c</text>
</a>
</g>
</g>
<!-- Node1&#45;&gt;Node7 -->
<g id="edge6" class="edge">
<title>Node1&#45;&gt;Node7</title>
<path fill="none" stroke="midnightblue" d="M675.37,-70.88C732.62,-64.32 829.56,-51.32 911,-31 917.44,-29.39 924.29,-27.23 930.55,-25.07"/>
<polygon fill="midnightblue" stroke="midnightblue" points="674.7,-67.43 665.16,-72.02 675.49,-74.38 674.7,-67.43"/>
</g>
<!-- Node8 -->
<g id="node8" class="node">
<title>Node8</title>
<g id="a_node8"><a xlink:href="Signals_8c.html" target="_top" xlink:title="Signal handling implementation for the Sensor Data Handler System.">
<polygon fill="white" stroke="black" points="1004.5,-6 1004.5,-25 1081.5,-25 1081.5,-6 1004.5,-6"/>
<text text-anchor="middle" x="1043" y="-13" font-family="Helvetica,sans-Serif" font-size="10.00">src/Signals.c</text>
</a>
</g>
</g>
<!-- Node1&#45;&gt;Node8 -->
<g id="edge7" class="edge">
<title>Node1&#45;&gt;Node8</title>
<path fill="none" stroke="midnightblue" d="M675.16,-72.71C746.31,-67.33 881.83,-54.81 995,-31 1002.5,-29.42 1010.51,-27.22 1017.8,-25"/>
<polygon fill="midnightblue" stroke="midnightblue" points="674.86,-69.22 665.14,-73.45 675.37,-76.2 674.86,-69.22"/>
</g>
</g>
</svg>
