<?xml version="1.0" encoding="UTF-8" standalone="no"?>
<!DOCTYPE svg PUBLIC "-//W3C//DTD SVG 1.1//EN"
 "http://www.w3.org/Graphics/SVG/1.1/DTD/svg11.dtd">
<!-- Generated by graphviz version 2.43.0 (0)
 -->
<!-- Title: SdbShouldShutdown Pages: 1 -->
<svg width="431pt" height="175pt"
 viewBox="0.00 0.00 431.00 175.00" xmlns="http://www.w3.org/2000/svg" xmlns:xlink="http://www.w3.org/1999/xlink">

<svg id="main" version="1.1" xmlns="http://www.w3.org/2000/svg" xmlns:xlink="http://www.w3.org/1999/xlink" xml:space="preserve" onload="init(evt)">
<style type="text/css"><![CDATA[
.node, .edge {opacity: 0.7;}
.node.selected, .edge.selected {opacity: 1;}
.edge:hover path { stroke: red; }
.edge:hover polygon { stroke: red; fill: red; }
]]></style>
<script type="application/ecmascript" xlink:href="svg.min.js"/>
<svg id="graph" class="graph">
<g id="graph0" class="graph" transform="scale(1 1) rotate(0) translate(4 171)">
<title>SdbShouldShutdown</title>
<!-- Node1 -->
<g id="Node000001" class="node">
<title>Node1</title>
<g id="a_Node000001"><a xlink:title="Checks if the system should initiate shutdown.">
<polygon fill="#999999" stroke="#666666" points="423,-93 307,-93 307,-74 423,-74 423,-93"/>
<text text-anchor="middle" x="365" y="-81" font-family="Helvetica,sans-Serif" font-size="10.00">SdbShouldShutdown</text>
</a>
</g>
</g>
<!-- Node2 -->
<g id="Node000002" class="node">
<title>Node2</title>
<g id="a_Node000002"><a xlink:href="ModbusWithPostgres_8c.html#ab562b331ef04d3d016b626018e9c30b1" target="_top" xlink:title="Modbus data pipe throughput test.">
<polygon fill="white" stroke="#666666" points="271,-167 131,-167 131,-148 271,-148 271,-167"/>
<text text-anchor="middle" x="201" y="-155" font-family="Helvetica,sans-Serif" font-size="10.00">MbPgPipeThroughputTest</text>
</a>
</g>
</g>
<!-- Node1&#45;&gt;Node2 -->
<g id="edge1_Node000001_Node000002" class="edge">
<title>Node1&#45;&gt;Node2</title>
<g id="a_edge1_Node000001_Node000002"><a xlink:title=" ">
<path fill="none" stroke="#63b8ff" d="M342.35,-99C324.09,-111.45 296.85,-128.61 271,-139.5 263.24,-142.77 254.74,-145.57 246.43,-147.92"/>
<polygon fill="#63b8ff" stroke="#63b8ff" points="344.57,-101.72 350.79,-93.14 340.58,-95.96 344.57,-101.72"/>
</a>
</g>
</g>
<!-- Node3 -->
<g id="Node000003" class="node">
<title>Node3</title>
<g id="a_Node000003"><a xlink:href="DataHandlers_2ModbusWithPostgres_2Modbus_8c.html#ac42f810b60d139ab2f82c4146710d721" target="_top" xlink:title="Implements main Modbus thread loop.">
<polygon fill="white" stroke="#666666" points="226,-130 176,-130 176,-111 226,-111 226,-130"/>
<text text-anchor="middle" x="201" y="-118" font-family="Helvetica,sans-Serif" font-size="10.00">MbRun</text>
</a>
</g>
</g>
<!-- Node1&#45;&gt;Node3 -->
<g id="edge2_Node000001_Node000003" class="edge">
<title>Node1&#45;&gt;Node3</title>
<g id="a_edge2_Node000001_Node000003"><a xlink:title=" ">
<path fill="none" stroke="#63b8ff" d="M312.37,-95.29C283.61,-101.86 249.13,-109.73 226.46,-114.91"/>
<polygon fill="#63b8ff" stroke="#63b8ff" points="313.31,-98.67 322.28,-93.03 311.75,-91.84 313.31,-98.67"/>
</a>
</g>
</g>
<!-- Node5 -->
<g id="Node000005" class="node">
<title>Node5</title>
<g id="a_Node000005"><a xlink:href="DataHandlers_2ModbusWithPostgres_2Postgres_8c.html#a5f5041cd700c888724519dddcc5413a0" target="_top" xlink:title="Main PostgreSQL operation loop.">
<polygon fill="white" stroke="#666666" points="224.5,-93 177.5,-93 177.5,-74 224.5,-74 224.5,-93"/>
<text text-anchor="middle" x="201" y="-81" font-family="Helvetica,sans-Serif" font-size="10.00">PgRun</text>
</a>
</g>
</g>
<!-- Node1&#45;&gt;Node5 -->
<g id="edge4_Node000001_Node000005" class="edge">
<title>Node1&#45;&gt;Node5</title>
<g id="a_edge4_Node000001_Node000005"><a xlink:title=" ">
<path fill="none" stroke="#63b8ff" d="M296.81,-83.5C271.18,-83.5 243.66,-83.5 224.91,-83.5"/>
<polygon fill="#63b8ff" stroke="#63b8ff" points="296.88,-87 306.88,-83.5 296.88,-80 296.88,-87"/>
</a>
</g>
</g>
<!-- Node7 -->
<g id="Node000007" class="node">
<title>Node7</title>
<g id="a_Node000007"><a xlink:href="ModbusTestServer_8c.html#a0b60204e0a9d1577d141cdc21367ac70" target="_top" xlink:title="Main Modbus Test Server routine.">
<polygon fill="white" stroke="#666666" points="263.5,-56 138.5,-56 138.5,-37 263.5,-37 263.5,-56"/>
<text text-anchor="middle" x="201" y="-44" font-family="Helvetica,sans-Serif" font-size="10.00">RunModbusTestServer</text>
</a>
</g>
</g>
<!-- Node1&#45;&gt;Node7 -->
<g id="edge6_Node000001_Node000007" class="edge">
<title>Node1&#45;&gt;Node7</title>
<g id="a_edge6_Node000001_Node000007"><a xlink:title=" ">
<path fill="none" stroke="#63b8ff" d="M312.39,-71.71C290.27,-66.66 264.77,-60.84 243.86,-56.06"/>
<polygon fill="#63b8ff" stroke="#63b8ff" points="311.75,-75.16 322.28,-73.97 313.31,-68.33 311.75,-75.16"/>
</a>
</g>
</g>
<!-- Node9 -->
<g id="Node000009" class="node">
<title>Node9</title>
<g id="a_Node000009"><a xlink:href="ThreadGroup_8c.html#a94f41b6eed9ab8ff08d3921b617a87dd" target="_top" xlink:title="Wait for Completion of All Thread Groups.">
<polygon fill="white" stroke="#666666" points="261.5,-19 140.5,-19 140.5,0 261.5,0 261.5,-19"/>
<text text-anchor="middle" x="201" y="-7" font-family="Helvetica,sans-Serif" font-size="10.00">TgManagerWaitForAll</text>
</a>
</g>
</g>
<!-- Node1&#45;&gt;Node9 -->
<g id="edge8_Node000001_Node000009" class="edge">
<title>Node1&#45;&gt;Node9</title>
<g id="a_edge8_Node000001_Node000009"><a xlink:title=" ">
<path fill="none" stroke="#63b8ff" d="M341.95,-68.18C323.64,-56.03 296.55,-39.35 271,-28.5 262.42,-24.86 252.95,-21.72 243.84,-19.1"/>
<polygon fill="#63b8ff" stroke="#63b8ff" points="340.18,-71.21 350.43,-73.9 344.1,-65.41 340.18,-71.21"/>
</a>
</g>
</g>
<!-- Node4 -->
<g id="Node000004" class="node">
<title>Node4</title>
<g id="a_Node000004"><a xlink:href="ModbusWithPostgres_8c.html#ad6cc1c50bbcd2e6f933e8f2a82990c2e" target="_top" xlink:title="Modbus thread implementation.">
<polygon fill="white" stroke="#666666" points="80,-130 15,-130 15,-111 80,-111 80,-130"/>
<text text-anchor="middle" x="47.5" y="-118" font-family="Helvetica,sans-Serif" font-size="10.00">MbThread</text>
</a>
</g>
</g>
<!-- Node3&#45;&gt;Node4 -->
<g id="edge3_Node000003_Node000004" class="edge">
<title>Node3&#45;&gt;Node4</title>
<g id="a_edge3_Node000003_Node000004"><a xlink:title=" ">
<path fill="none" stroke="#63b8ff" d="M165.94,-120.5C140.19,-120.5 105.12,-120.5 80.02,-120.5"/>
<polygon fill="#63b8ff" stroke="#63b8ff" points="165.99,-124 175.99,-120.5 165.99,-117 165.99,-124"/>
</a>
</g>
</g>
<!-- Node6 -->
<g id="Node000006" class="node">
<title>Node6</title>
<g id="a_Node000006"><a xlink:href="ModbusWithPostgres_8c.html#a93270e4da545537675777f30acea6b6b" target="_top" xlink:title="PostgreSQL thread implementation.">
<polygon fill="white" stroke="#666666" points="78.5,-93 16.5,-93 16.5,-74 78.5,-74 78.5,-93"/>
<text text-anchor="middle" x="47.5" y="-81" font-family="Helvetica,sans-Serif" font-size="10.00">PgThread</text>
</a>
</g>
</g>
<!-- Node5&#45;&gt;Node6 -->
<g id="edge5_Node000005_Node000006" class="edge">
<title>Node5&#45;&gt;Node6</title>
<g id="a_edge5_Node000005_Node000006"><a xlink:title=" ">
<path fill="none" stroke="#63b8ff" d="M167.09,-83.5C140.78,-83.5 104.21,-83.5 78.66,-83.5"/>
<polygon fill="#63b8ff" stroke="#63b8ff" points="167.32,-87 177.32,-83.5 167.32,-80 167.32,-87"/>
</a>
</g>
</g>
<!-- Node8 -->
<g id="Node000008" class="node">
<title>Node8</title>
<g id="a_Node000008"><a xlink:href="ModbusWithPostgres_8c.html#a1ccbc327d2cdd77f97741b4e0f23bc54" target="_top" xlink:title="Modbus test server thread.">
<polygon fill="white" stroke="#666666" points="95,-56 0,-56 0,-37 95,-37 95,-56"/>
<text text-anchor="middle" x="47.5" y="-44" font-family="Helvetica,sans-Serif" font-size="10.00">MbPgTestServer</text>
</a>
</g>
</g>
<!-- Node7&#45;&gt;Node8 -->
<g id="edge7_Node000007_Node000008" class="edge">
<title>Node7&#45;&gt;Node8</title>
<g id="a_edge7_Node000007_Node000008"><a xlink:title=" ">
<path fill="none" stroke="#63b8ff" d="M128.15,-46.5C116.95,-46.5 105.64,-46.5 95.19,-46.5"/>
<polygon fill="#63b8ff" stroke="#63b8ff" points="128.38,-50 138.38,-46.5 128.38,-43 128.38,-50"/>
</a>
</g>
</g>
<!-- Node10 -->
<g id="Node000010" class="node">
<title>Node10</title>
<g id="a_Node000010"><a xlink:href="Main_8c.html#ae21eb8342793f7f8f0d5fda6b96c0803" target="_top" xlink:title="Main entry point for the Sensor Data Handler System.">
<polygon fill="white" stroke="#666666" points="68,-19 27,-19 27,0 68,0 68,-19"/>
<text text-anchor="middle" x="47.5" y="-7" font-family="Helvetica,sans-Serif" font-size="10.00">main</text>
</a>
</g>
</g>
<!-- Node9&#45;&gt;Node10 -->
<g id="edge9_Node000009_Node000010" class="edge">
<title>Node9&#45;&gt;Node10</title>
<g id="a_edge9_Node000009_Node000010"><a xlink:title=" ">
<path fill="none" stroke="#63b8ff" d="M130.11,-9.5C107.38,-9.5 83.95,-9.5 68.06,-9.5"/>
<polygon fill="#63b8ff" stroke="#63b8ff" points="130.12,-13 140.12,-9.5 130.12,-6 130.12,-13"/>
</a>
</g>
</g>
</g>
</svg>
</svg>

<style type='text/css'>
<![CDATA[
[data-mouse-over-selected='false'] { opacity: 0.7; }
[data-mouse-over-selected='true']  { opacity: 1.0; }
]]>
</style>
<script type="application/ecmascript"><![CDATA[
document.addEventListener('DOMContentLoaded', (event) => {
  highlightEdges();
  highlightAdjacentNodes();
});
]]></script>
</svg>
