<?xml version="1.0" encoding="UTF-8" standalone="no"?>
<!DOCTYPE svg PUBLIC "-//W3C//DTD SVG 1.1//EN"
 "http://www.w3.org/Graphics/SVG/1.1/DTD/svg11.dtd">
<!-- Generated by graphviz version 2.43.0 (0)
 -->
<!-- Title: DumpProcessMemory Pages: 1 -->
<svg width="265pt" height="64pt"
 viewBox="0.00 0.00 265.00 64.00" xmlns="http://www.w3.org/2000/svg" xmlns:xlink="http://www.w3.org/1999/xlink">
<g id="graph0" class="graph" transform="scale(1 1) rotate(0) translate(4 60)">
<title>DumpProcessMemory</title>
<!-- Node1 -->
<g id="Node000001" class="node">
<title>Node1</title>
<g id="a_Node000001"><a xlink:title="Creates a memory dump of the process state.">
<polygon fill="#999999" stroke="#666666" points="124,-37 0,-37 0,-18 124,-18 124,-37"/>
<text text-anchor="middle" x="62" y="-25" font-family="Helvetica,sans-Serif" font-size="10.00">DumpProcessMemory</text>
</a>
</g>
</g>
<!-- Node2 -->
<g id="Node000002" class="node">
<title>Node2</title>
<g id="a_Node000002"><a xlink:href="Signals_8c.html#a5ef6dcc759fd8166d79fd158ec2f9935" target="_top" xlink:title=" ">
<polygon fill="white" stroke="#666666" points="247,-56 170,-56 170,-37 247,-37 247,-56"/>
<text text-anchor="middle" x="208.5" y="-44" font-family="Helvetica,sans-Serif" font-size="10.00">GetThreadId</text>
</a>
</g>
</g>
<!-- Node1&#45;&gt;Node2 -->
<g id="edge1_Node000001_Node000002" class="edge">
<title>Node1&#45;&gt;Node2</title>
<g id="a_edge1_Node000001_Node000002"><a xlink:title=" ">
<path fill="none" stroke="#63b8ff" d="M124.28,-35.56C136.06,-37.11 148.24,-38.71 159.52,-40.19"/>
<polygon fill="#63b8ff" stroke="#63b8ff" points="159.22,-43.68 169.59,-41.52 160.13,-36.74 159.22,-43.68"/>
</a>
</g>
</g>
<!-- Node3 -->
<g id="Node000003" class="node">
<title>Node3</title>
<g id="a_Node000003"><a xlink:href="Signals_8c.html#a27d60415a71248a37804f83c33553b0b" target="_top" xlink:title=" ">
<polygon fill="white" stroke="#666666" points="257,-19 160,-19 160,0 257,0 257,-19"/>
<text text-anchor="middle" x="208.5" y="-7" font-family="Helvetica,sans-Serif" font-size="10.00">GetThreadName</text>
</a>
</g>
</g>
<!-- Node1&#45;&gt;Node3 -->
<g id="edge2_Node000001_Node000003" class="edge">
<title>Node1&#45;&gt;Node3</title>
<g id="a_edge2_Node000001_Node000003"><a xlink:title=" ">
<path fill="none" stroke="#63b8ff" d="M124.28,-19.87C132.7,-18.82 141.33,-17.74 149.68,-16.7"/>
<polygon fill="#63b8ff" stroke="#63b8ff" points="150.22,-20.16 159.71,-15.45 149.36,-13.22 150.22,-20.16"/>
</a>
</g>
</g>
</g>
</svg>
