<?xml version="1.0" encoding="UTF-8" standalone="no"?>
<!DOCTYPE svg PUBLIC "-//W3C//DTD SVG 1.1//EN"
 "http://www.w3.org/Graphics/SVG/1.1/DTD/svg11.dtd">
<!-- Generated by graphviz version 2.43.0 (0)
 -->
<!-- Title: SignalHandler Pages: 1 -->
<svg width="342pt" height="28pt"
 viewBox="0.00 0.00 342.00 28.00" xmlns="http://www.w3.org/2000/svg" xmlns:xlink="http://www.w3.org/1999/xlink">
<g id="graph0" class="graph" transform="scale(1 1) rotate(0) translate(4 24)">
<title>SignalHandler</title>
<polygon fill="white" stroke="transparent" points="-4,4 -4,-24 338,-24 338,4 -4,4"/>
<!-- Node1 -->
<g id="node1" class="node">
<title>Node1</title>
<g id="a_node1"><a xlink:title="Internal signal handler to process system signals.">
<polygon fill="#bfbfbf" stroke="black" points="249,-0.5 249,-19.5 334,-19.5 334,-0.5 249,-0.5"/>
<text text-anchor="middle" x="291.5" y="-7.5" font-family="Helvetica,sans-Serif" font-size="10.00">SignalHandler</text>
</a>
</g>
</g>
<!-- Node2 -->
<g id="node2" class="node">
<title>Node2</title>
<g id="a_node2"><a xlink:href="Signals_8c.html#a455fa9d5e249372255aebefb29edf4ee" target="_top" xlink:title="Sets up signal handlers for the application.">
<polygon fill="white" stroke="black" points="77,-0.5 77,-19.5 213,-19.5 213,-0.5 77,-0.5"/>
<text text-anchor="middle" x="145" y="-7.5" font-family="Helvetica,sans-Serif" font-size="10.00">SdbSetupSignalHandlers</text>
</a>
</g>
</g>
<!-- Node1&#45;&gt;Node2 -->
<g id="edge1" class="edge">
<title>Node1&#45;&gt;Node2</title>
<path fill="none" stroke="midnightblue" d="M238.48,-10C230.22,-10 221.57,-10 213.02,-10"/>
<polygon fill="midnightblue" stroke="midnightblue" points="238.7,-13.5 248.7,-10 238.7,-6.5 238.7,-13.5"/>
</g>
<!-- Node3 -->
<g id="node3" class="node">
<title>Node3</title>
<g id="a_node3"><a xlink:href="Main_8c.html#ae21eb8342793f7f8f0d5fda6b96c0803" target="_top" xlink:title="Main entry point for the Sensor Data Handler System.">
<polygon fill="white" stroke="black" points="0,-0.5 0,-19.5 41,-19.5 41,-0.5 0,-0.5"/>
<text text-anchor="middle" x="20.5" y="-7.5" font-family="Helvetica,sans-Serif" font-size="10.00">main</text>
</a>
</g>
</g>
<!-- Node2&#45;&gt;Node3 -->
<g id="edge2" class="edge">
<title>Node2&#45;&gt;Node3</title>
<path fill="none" stroke="midnightblue" d="M66.41,-10C57.13,-10 48.38,-10 41.12,-10"/>
<polygon fill="midnightblue" stroke="midnightblue" points="66.66,-13.5 76.66,-10 66.66,-6.5 66.66,-13.5"/>
</g>
</g>
</svg>
