<?xml version="1.0" encoding="UTF-8" standalone="no"?>
<!DOCTYPE svg PUBLIC "-//W3C//DTD SVG 1.1//EN"
 "http://www.w3.org/Graphics/SVG/1.1/DTD/svg11.dtd">
<!-- Generated by graphviz version 2.43.0 (0)
 -->
<!-- Title: src/Signals.c Pages: 1 -->
<!--zoomable 375 -->
<svg id="main" version="1.1" xmlns="http://www.w3.org/2000/svg" xmlns:xlink="http://www.w3.org/1999/xlink" xml:space="preserve" onload="init(evt)">
<style type="text/css"><![CDATA[
.edge:hover path { stroke: red; }
.edge:hover polygon { stroke: red; fill: red; }
]]></style>
<script type="text/javascript"><![CDATA[
var edges = document.getElementsByTagName('g');
if (edges && edges.length) {
  for (var i=0;i<edges.length;i++) {
    if (edges[i].id.substr(0,4)=='edge') {
      edges[i].setAttribute('class','edge');
    }
  }
}
]]></script>
        <defs>
                <circle id="rim" cx="0" cy="0" r="7"/>
                <circle id="rim2" cx="0" cy="0" r="3.5"/>
                <g id="zoomPlus">
                        <use xlink:href="#rim" fill="#404040">
                                <set attributeName="fill" to="#808080" begin="zoomplus.mouseover" end="zoomplus.mouseout"/>
                        </use>
                        <path d="M-4,0h8M0,-4v8" fill="none" stroke="white" stroke-width="1.5" pointer-events="none"/>
                </g>
                <g id="zoomMin">
                        <use xlink:href="#rim" fill="#404040">
                                <set attributeName="fill" to="#808080" begin="zoomminus.mouseover" end="zoomminus.mouseout"/>
                        </use>
                        <path d="M-4,0h8" fill="none" stroke="white" stroke-width="1.5" pointer-events="none"/>
                </g>
                <g id="dirArrow">
                        <path fill="none" stroke="white" stroke-width="1.5" d="M0,-3.0v7 M-2.5,-0.5L0,-3.0L2.5,-0.5"/>
                </g>
               <g id="resetDef">
                       <use xlink:href="#rim2" fill="#404040">
                               <set attributeName="fill" to="#808080" begin="reset.mouseover" end="reset.mouseout"/>
                       </use>
               </g>
        </defs>

<script type="text/javascript">
var viewWidth = 1379;
var viewHeight = 375;
var sectionId = 'dynsection-0';
</script>
<script xlink:href="svgpan.js"/>
<svg id="graph" class="graph">
<g id="viewport">
<title>src/Signals.c</title>
<polygon fill="white" stroke="transparent" points="-4,4 -4,-371 1375.02,-371 1375.02,4 -4,4"/>
<!-- Node1 -->
<g id="node1" class="node">
<title>Node1</title>
<g id="a_node1"><a xlink:title="Signal handling implementation for the Sensor Data Handler System.">
<polygon fill="#bfbfbf" stroke="black" points="794.05,-347.5 794.05,-366.5 871.05,-366.5 871.05,-347.5 794.05,-347.5"/>
<text text-anchor="middle" x="832.55" y="-354.5" font-family="Helvetica,sans-Serif" font-size="10.00">src/Signals.c</text>
</a>
</g>
</g>
<!-- Node2 -->
<g id="node2" class="node">
<title>Node2</title>
<g id="a_node2"><a xlink:title=" ">
<polygon fill="white" stroke="#bfbfbf" points="3.05,-0.5 3.05,-19.5 54.05,-19.5 54.05,-0.5 3.05,-0.5"/>
<text text-anchor="middle" x="28.55" y="-7.5" font-family="Helvetica,sans-Serif" font-size="10.00">errno.h</text>
</a>
</g>
</g>
<!-- Node1&#45;&gt;Node2 -->
<g id="edge1" class="edge">
<title>Node1&#45;&gt;Node2</title>
<path fill="none" stroke="midnightblue" d="M793.94,-355.11C636.62,-351.33 50.91,-335.62 20.55,-311 -4.65,-290.56 1.55,-272.95 1.55,-240.5 1.55,-240.5 1.55,-240.5 1.55,-121 1.55,-87.86 13.25,-50.68 21.25,-29.14"/>
<polygon fill="midnightblue" stroke="midnightblue" points="24.57,-30.25 24.91,-19.66 18.04,-27.73 24.57,-30.25"/>
</g>
<!-- Node3 -->
<g id="node3" class="node">
<title>Node3</title>
<g id="a_node3"><a xlink:title=" ">
<polygon fill="white" stroke="#bfbfbf" points="30.05,-291.5 30.05,-310.5 97.05,-310.5 97.05,-291.5 30.05,-291.5"/>
<text text-anchor="middle" x="63.55" y="-298.5" font-family="Helvetica,sans-Serif" font-size="10.00">execinfo.h</text>
</a>
</g>
</g>
<!-- Node1&#45;&gt;Node3 -->
<g id="edge2" class="edge">
<title>Node1&#45;&gt;Node3</title>
<path fill="none" stroke="midnightblue" d="M793.71,-355.25C685.36,-352.81 370.73,-343.26 111.55,-311 110.25,-310.84 108.93,-310.66 107.6,-310.48"/>
<polygon fill="midnightblue" stroke="midnightblue" points="107.72,-306.95 97.3,-308.87 106.64,-313.87 107.72,-306.95"/>
</g>
<!-- Node4 -->
<g id="node4" class="node">
<title>Node4</title>
<g id="a_node4"><a xlink:title=" ">
<polygon fill="white" stroke="#bfbfbf" points="171.05,-0.5 171.05,-19.5 218.05,-19.5 218.05,-0.5 171.05,-0.5"/>
<text text-anchor="middle" x="194.55" y="-7.5" font-family="Helvetica,sans-Serif" font-size="10.00">fcntl.h</text>
</a>
</g>
</g>
<!-- Node1&#45;&gt;Node4 -->
<g id="edge3" class="edge">
<title>Node1&#45;&gt;Node4</title>
<path fill="none" stroke="midnightblue" d="M793.62,-356.55C664.96,-357.44 257.29,-352.4 182.55,-255 155.67,-219.96 180.46,-80.46 190.65,-29.64"/>
<polygon fill="midnightblue" stroke="midnightblue" points="194.1,-30.22 192.68,-19.72 187.25,-28.81 194.1,-30.22"/>
</g>
<!-- Node5 -->
<g id="node5" class="node">
<title>Node5</title>
<g id="a_node5"><a xlink:title=" ">
<polygon fill="white" stroke="#bfbfbf" points="90.05,-0.5 90.05,-19.5 153.05,-19.5 153.05,-0.5 90.05,-0.5"/>
<text text-anchor="middle" x="121.55" y="-7.5" font-family="Helvetica,sans-Serif" font-size="10.00">pthread.h</text>
</a>
</g>
</g>
<!-- Node1&#45;&gt;Node5 -->
<g id="edge4" class="edge">
<title>Node1&#45;&gt;Node5</title>
<path fill="none" stroke="midnightblue" d="M794.03,-356.3C678,-356.73 333.56,-354.21 231.55,-311 122.85,-264.95 118.86,-88.15 120.61,-29.8"/>
<polygon fill="midnightblue" stroke="midnightblue" points="124.1,-29.92 121,-19.79 117.11,-29.64 124.1,-29.92"/>
</g>
<!-- Node6 -->
<g id="node6" class="node">
<title>Node6</title>
<g id="a_node6"><a xlink:title=" ">
<polygon fill="white" stroke="#bfbfbf" points="192.05,-230 192.05,-249 247.05,-249 247.05,-230 192.05,-230"/>
<text text-anchor="middle" x="219.55" y="-237" font-family="Helvetica,sans-Serif" font-size="10.00">signal.h</text>
</a>
</g>
</g>
<!-- Node1&#45;&gt;Node6 -->
<g id="edge5" class="edge">
<title>Node1&#45;&gt;Node6</title>
<path fill="none" stroke="midnightblue" d="M793.92,-352.78C699.9,-344.19 452.46,-317.02 255.55,-255 253.27,-254.28 250.94,-253.49 248.6,-252.65"/>
<polygon fill="midnightblue" stroke="midnightblue" points="249.75,-249.34 239.16,-249.04 247.25,-255.88 249.75,-249.34"/>
</g>
<!-- Node7 -->
<g id="node7" class="node">
<title>Node7</title>
<g id="a_node7"><a xlink:href="Signals_8h.html" target="_top" xlink:title="Signal handling interface for the Sensor Data Handler System.">
<polygon fill="white" stroke="black" points="506.55,-291.5 506.55,-310.5 584.55,-310.5 584.55,-291.5 506.55,-291.5"/>
<text text-anchor="middle" x="545.55" y="-298.5" font-family="Helvetica,sans-Serif" font-size="10.00">src/Signals.h</text>
</a>
</g>
</g>
<!-- Node1&#45;&gt;Node7 -->
<g id="edge6" class="edge">
<title>Node1&#45;&gt;Node7</title>
<path fill="none" stroke="midnightblue" d="M793.84,-348.72C742.28,-339.01 651.02,-321.84 594.66,-311.24"/>
<polygon fill="midnightblue" stroke="midnightblue" points="595.04,-307.75 584.56,-309.34 593.74,-314.63 595.04,-307.75"/>
</g>
<!-- Node8 -->
<g id="node8" class="node">
<title>Node8</title>
<g id="a_node8"><a xlink:href="Sdb_8h.html" target="_top" xlink:title=" ">
<polygon fill="white" stroke="black" points="600.05,-56.5 600.05,-75.5 661.05,-75.5 661.05,-56.5 600.05,-56.5"/>
<text text-anchor="middle" x="630.55" y="-63.5" font-family="Helvetica,sans-Serif" font-size="10.00">src/Sdb.h</text>
</a>
</g>
</g>
<!-- Node1&#45;&gt;Node8 -->
<g id="edge51" class="edge">
<title>Node1&#45;&gt;Node8</title>
<path fill="none" stroke="midnightblue" d="M830.14,-347.39C825.03,-328.3 813.55,-280.94 813.55,-240.5 813.55,-240.5 813.55,-240.5 813.55,-177 813.55,-111.01 725.05,-83.6 671.14,-73.03"/>
<polygon fill="midnightblue" stroke="midnightblue" points="671.65,-69.57 661.18,-71.19 670.38,-76.45 671.65,-69.57"/>
</g>
<!-- Node15 -->
<g id="node15" class="node">
<title>Node15</title>
<g id="a_node15"><a xlink:title=" ">
<polygon fill="white" stroke="#bfbfbf" points="904.55,-0.5 904.55,-19.5 954.55,-19.5 954.55,-0.5 904.55,-0.5"/>
<text text-anchor="middle" x="929.55" y="-7.5" font-family="Helvetica,sans-Serif" font-size="10.00">stdio.h</text>
</a>
</g>
</g>
<!-- Node1&#45;&gt;Node15 -->
<g id="edge44" class="edge">
<title>Node1&#45;&gt;Node15</title>
<path fill="none" stroke="midnightblue" d="M834.96,-347.39C840.07,-328.3 851.55,-280.94 851.55,-240.5 851.55,-240.5 851.55,-240.5 851.55,-121 851.55,-80.97 886.35,-45.34 909.46,-26.09"/>
<polygon fill="midnightblue" stroke="midnightblue" points="911.75,-28.74 917.36,-19.76 907.37,-23.28 911.75,-28.74"/>
</g>
<!-- Node16 -->
<g id="node16" class="node">
<title>Node16</title>
<g id="a_node16"><a xlink:title=" ">
<polygon fill="white" stroke="#bfbfbf" points="973.05,-0.5 973.05,-19.5 1026.05,-19.5 1026.05,-0.5 973.05,-0.5"/>
<text text-anchor="middle" x="999.55" y="-7.5" font-family="Helvetica,sans-Serif" font-size="10.00">stdlib.h</text>
</a>
</g>
</g>
<!-- Node1&#45;&gt;Node16 -->
<g id="edge45" class="edge">
<title>Node1&#45;&gt;Node16</title>
<path fill="none" stroke="midnightblue" d="M871.3,-352.39C925.31,-346.62 1019.44,-333.58 1044.55,-311 1069.06,-288.96 1067.55,-273.46 1067.55,-240.5 1067.55,-240.5 1067.55,-240.5 1067.55,-121 1067.55,-82.55 1037.12,-46.31 1016.97,-26.54"/>
<polygon fill="midnightblue" stroke="midnightblue" points="1019.26,-23.89 1009.58,-19.57 1014.45,-28.98 1019.26,-23.89"/>
</g>
<!-- Node17 -->
<g id="node17" class="node">
<title>Node17</title>
<g id="a_node17"><a xlink:title=" ">
<polygon fill="white" stroke="#bfbfbf" points="1044.05,-0.5 1044.05,-19.5 1097.05,-19.5 1097.05,-0.5 1044.05,-0.5"/>
<text text-anchor="middle" x="1070.55" y="-7.5" font-family="Helvetica,sans-Serif" font-size="10.00">string.h</text>
</a>
</g>
</g>
<!-- Node1&#45;&gt;Node17 -->
<g id="edge46" class="edge">
<title>Node1&#45;&gt;Node17</title>
<path fill="none" stroke="midnightblue" d="M871.09,-356.55C946.34,-355.41 1105.55,-341.11 1105.55,-240.5 1105.55,-240.5 1105.55,-240.5 1105.55,-121 1105.55,-87.07 1090.24,-49.91 1079.88,-28.63"/>
<polygon fill="midnightblue" stroke="midnightblue" points="1082.91,-26.88 1075.27,-19.54 1076.67,-30.05 1082.91,-26.88"/>
</g>
<!-- Node19 -->
<g id="node19" class="node">
<title>Node19</title>
<g id="a_node19"><a xlink:title=" ">
<polygon fill="white" stroke="#bfbfbf" points="1115.55,-0.5 1115.55,-19.5 1179.55,-19.5 1179.55,-0.5 1115.55,-0.5"/>
<text text-anchor="middle" x="1147.55" y="-7.5" font-family="Helvetica,sans-Serif" font-size="10.00">sys/stat.h</text>
</a>
</g>
</g>
<!-- Node1&#45;&gt;Node19 -->
<g id="edge47" class="edge">
<title>Node1&#45;&gt;Node19</title>
<path fill="none" stroke="midnightblue" d="M871.11,-352.9C934.23,-347.24 1056.21,-333.68 1092.55,-311 1125.36,-290.52 1143.55,-279.17 1143.55,-240.5 1143.55,-240.5 1143.55,-240.5 1143.55,-121 1143.55,-88.93 1145.27,-51.63 1146.45,-29.74"/>
<polygon fill="midnightblue" stroke="midnightblue" points="1149.96,-29.73 1147.03,-19.55 1142.97,-29.34 1149.96,-29.73"/>
</g>
<!-- Node21 -->
<g id="node21" class="node">
<title>Node21</title>
<g id="a_node21"><a xlink:title=" ">
<polygon fill="white" stroke="#bfbfbf" points="1269.55,-0.5 1269.55,-19.5 1325.55,-19.5 1325.55,-0.5 1269.55,-0.5"/>
<text text-anchor="middle" x="1297.55" y="-7.5" font-family="Helvetica,sans-Serif" font-size="10.00">unistd.h</text>
</a>
</g>
</g>
<!-- Node1&#45;&gt;Node21 -->
<g id="edge50" class="edge">
<title>Node1&#45;&gt;Node21</title>
<path fill="none" stroke="midnightblue" d="M871.15,-355.16C985.04,-352.34 1314,-341.61 1350.55,-311 1375.43,-290.17 1369.55,-272.95 1369.55,-240.5 1369.55,-240.5 1369.55,-240.5 1369.55,-121 1369.55,-81.94 1337.37,-45.94 1316.04,-26.37"/>
<polygon fill="midnightblue" stroke="midnightblue" points="1318.3,-23.7 1308.49,-19.7 1313.67,-28.94 1318.3,-23.7"/>
</g>
<!-- Node23 -->
<g id="node23" class="node">
<title>Node23</title>
<g id="a_node23"><a xlink:href="SensorDataPipe_8h.html" target="_top" xlink:title="Lock&#45;Free Data Pipeline.">
<polygon fill="white" stroke="black" points="619.05,-230 619.05,-249 786.05,-249 786.05,-230 619.05,-230"/>
<text text-anchor="middle" x="702.55" y="-237" font-family="Helvetica,sans-Serif" font-size="10.00">src/Common/SensorDataPipe.h</text>
</a>
</g>
</g>
<!-- Node1&#45;&gt;Node23 -->
<g id="edge52" class="edge">
<title>Node1&#45;&gt;Node23</title>
<path fill="none" stroke="midnightblue" d="M822.78,-347.32C800.95,-327.92 747.95,-280.83 720.18,-256.16"/>
<polygon fill="midnightblue" stroke="midnightblue" points="722.24,-253.31 712.44,-249.28 717.59,-258.54 722.24,-253.31"/>
</g>
<!-- Node32 -->
<g id="node32" class="node">
<title>Node32</title>
<g id="a_node32"><a xlink:title=" ">
<polygon fill="white" stroke="#bfbfbf" points="1172.05,-291.5 1172.05,-310.5 1251.05,-310.5 1251.05,-291.5 1172.05,-291.5"/>
<text text-anchor="middle" x="1211.55" y="-298.5" font-family="Helvetica,sans-Serif" font-size="10.00">sys/syscall.h</text>
</a>
</g>
</g>
<!-- Node1&#45;&gt;Node32 -->
<g id="edge48" class="edge">
<title>Node1&#45;&gt;Node32</title>
<path fill="none" stroke="midnightblue" d="M871.12,-351.01C932.04,-343.05 1054.22,-326.76 1157.55,-311 1158.85,-310.8 1160.16,-310.6 1161.48,-310.39"/>
<polygon fill="midnightblue" stroke="midnightblue" points="1162.43,-313.79 1171.76,-308.76 1161.33,-306.87 1162.43,-313.79"/>
</g>
<!-- Node33 -->
<g id="node33" class="node">
<title>Node33</title>
<g id="a_node33"><a xlink:title=" ">
<polygon fill="white" stroke="#bfbfbf" points="1269.55,-291.5 1269.55,-310.5 1341.55,-310.5 1341.55,-291.5 1269.55,-291.5"/>
<text text-anchor="middle" x="1305.55" y="-298.5" font-family="Helvetica,sans-Serif" font-size="10.00">sys/types.h</text>
</a>
</g>
</g>
<!-- Node1&#45;&gt;Node33 -->
<g id="edge49" class="edge">
<title>Node1&#45;&gt;Node33</title>
<path fill="none" stroke="midnightblue" d="M871.07,-353.15C944.55,-347.46 1109.97,-333.41 1259.01,-311.11"/>
<polygon fill="midnightblue" stroke="midnightblue" points="1259.89,-314.52 1269.25,-309.56 1258.84,-307.6 1259.89,-314.52"/>
</g>
<!-- Node34 -->
<g id="node34" class="node">
<title>Node34</title>
<g id="a_node34"><a xlink:href="TestConstants_8h.html" target="_top" xlink:title="Constants for Modbus Test Server.">
<polygon fill="white" stroke="black" points="879.55,-291.5 879.55,-310.5 1035.55,-310.5 1035.55,-291.5 879.55,-291.5"/>
<text text-anchor="middle" x="957.55" y="-298.5" font-family="Helvetica,sans-Serif" font-size="10.00">src/DevUtils/TestConstants.h</text>
</a>
</g>
</g>
<!-- Node1&#45;&gt;Node34 -->
<g id="edge53" class="edge">
<title>Node1&#45;&gt;Node34</title>
<path fill="none" stroke="midnightblue" d="M852.36,-347.44C872.84,-338.6 905.03,-324.69 928.42,-314.59"/>
<polygon fill="midnightblue" stroke="midnightblue" points="930.04,-317.7 937.84,-310.52 927.27,-311.27 930.04,-317.7"/>
</g>
<!-- Node7&#45;&gt;Node6 -->
<g id="edge7" class="edge">
<title>Node7&#45;&gt;Node6</title>
<path fill="none" stroke="midnightblue" d="M506.49,-296.8C450.23,-291.55 343.49,-279.19 255.55,-255 253.05,-254.31 250.49,-253.5 247.94,-252.62"/>
<polygon fill="midnightblue" stroke="midnightblue" points="248.92,-249.26 238.33,-249.01 246.45,-255.81 248.92,-249.26"/>
</g>
<!-- Node7&#45;&gt;Node8 -->
<g id="edge8" class="edge">
<title>Node7&#45;&gt;Node8</title>
<path fill="none" stroke="midnightblue" d="M550.68,-291.45C556.02,-282.46 564.58,-267.85 571.55,-255 587.47,-225.64 594.52,-219.52 605.55,-188 617.85,-152.87 624.96,-109.77 628.27,-85.65"/>
<polygon fill="midnightblue" stroke="midnightblue" points="631.74,-86.09 629.56,-75.72 624.8,-85.19 631.74,-86.09"/>
</g>
<!-- Node7&#45;&gt;Node23 -->
<g id="edge26" class="edge">
<title>Node7&#45;&gt;Node23</title>
<path fill="none" stroke="midnightblue" d="M568.05,-291.48C594.86,-281.31 639.87,-264.26 670.36,-252.7"/>
<polygon fill="midnightblue" stroke="midnightblue" points="671.99,-255.83 680.1,-249.01 669.51,-249.28 671.99,-255.83"/>
</g>
<!-- Node29 -->
<g id="node29" class="node">
<title>Node29</title>
<g id="a_node29"><a xlink:href="ThreadGroup_8h.html" target="_top" xlink:title="Thread Group Management System.">
<polygon fill="white" stroke="black" points="265.05,-230 265.05,-249 418.05,-249 418.05,-230 265.05,-230"/>
<text text-anchor="middle" x="341.55" y="-237" font-family="Helvetica,sans-Serif" font-size="10.00">src/Common/ThreadGroup.h</text>
</a>
</g>
</g>
<!-- Node7&#45;&gt;Node29 -->
<g id="edge37" class="edge">
<title>Node7&#45;&gt;Node29</title>
<path fill="none" stroke="midnightblue" d="M516.32,-291.48C480.65,-281.07 420.19,-263.44 380.57,-251.88"/>
<polygon fill="midnightblue" stroke="midnightblue" points="381.3,-248.45 370.72,-249.01 379.34,-255.17 381.3,-248.45"/>
</g>
<!-- Node30 -->
<g id="node30" class="node">
<title>Node30</title>
<g id="a_node30"><a xlink:href="cJSON_8h.html" target="_top" xlink:title=" ">
<polygon fill="white" stroke="black" points="436.05,-230 436.05,-249 563.05,-249 563.05,-230 436.05,-230"/>
<text text-anchor="middle" x="499.55" y="-237" font-family="Helvetica,sans-Serif" font-size="10.00">src/Libs/cJSON/cJSON.h</text>
</a>
</g>
</g>
<!-- Node7&#45;&gt;Node30 -->
<g id="edge42" class="edge">
<title>Node7&#45;&gt;Node30</title>
<path fill="none" stroke="midnightblue" d="M538.96,-291.48C532.06,-282.55 521.05,-268.31 512.42,-257.14"/>
<polygon fill="midnightblue" stroke="midnightblue" points="515.01,-254.78 506.13,-249.01 509.48,-259.06 515.01,-254.78"/>
</g>
<!-- Node8&#45;&gt;Node2 -->
<g id="edge11" class="edge">
<title>Node8&#45;&gt;Node2</title>
<path fill="none" stroke="midnightblue" d="M600.04,-63.47C516.62,-59.07 277.76,-45.08 80.55,-20 75.29,-19.33 69.75,-18.5 64.32,-17.63"/>
<polygon fill="midnightblue" stroke="midnightblue" points="64.58,-14.12 54.14,-15.9 63.41,-21.02 64.58,-14.12"/>
</g>
<!-- Node8&#45;&gt;Node4 -->
<g id="edge12" class="edge">
<title>Node8&#45;&gt;Node4</title>
<path fill="none" stroke="midnightblue" d="M599.98,-63.21C533.87,-58.99 372.62,-46.85 228.17,-19.82"/>
<polygon fill="midnightblue" stroke="midnightblue" points="228.72,-16.36 218.24,-17.93 227.41,-23.24 228.72,-16.36"/>
</g>
<!-- Node8&#45;&gt;Node5 -->
<g id="edge15" class="edge">
<title>Node8&#45;&gt;Node5</title>
<path fill="none" stroke="midnightblue" d="M599.93,-63.4C526.31,-59.26 333.45,-46.74 163.49,-20.14"/>
<polygon fill="midnightblue" stroke="midnightblue" points="163.78,-16.64 153.36,-18.54 162.69,-23.56 163.78,-16.64"/>
</g>
<!-- Node9 -->
<g id="node9" class="node">
<title>Node9</title>
<g id="a_node9"><a xlink:title=" ">
<polygon fill="white" stroke="#bfbfbf" points="693.55,-0.5 693.55,-19.5 749.55,-19.5 749.55,-0.5 693.55,-0.5"/>
<text text-anchor="middle" x="721.55" y="-7.5" font-family="Helvetica,sans-Serif" font-size="10.00">assert.h</text>
</a>
</g>
</g>
<!-- Node8&#45;&gt;Node9 -->
<g id="edge9" class="edge">
<title>Node8&#45;&gt;Node9</title>
<path fill="none" stroke="midnightblue" d="M645.17,-56.32C659.5,-47.82 681.56,-34.73 698.3,-24.8"/>
<polygon fill="midnightblue" stroke="midnightblue" points="700.15,-27.77 706.97,-19.65 696.58,-21.75 700.15,-27.77"/>
</g>
<!-- Node10 -->
<g id="node10" class="node">
<title>Node10</title>
<g id="a_node10"><a xlink:title=" ">
<polygon fill="white" stroke="#bfbfbf" points="768.05,-0.5 768.05,-19.5 821.05,-19.5 821.05,-0.5 768.05,-0.5"/>
<text text-anchor="middle" x="794.55" y="-7.5" font-family="Helvetica,sans-Serif" font-size="10.00">ctype.h</text>
</a>
</g>
</g>
<!-- Node8&#45;&gt;Node10 -->
<g id="edge10" class="edge">
<title>Node8&#45;&gt;Node10</title>
<path fill="none" stroke="midnightblue" d="M656.54,-56.44C684.25,-47.32 728.3,-32.81 759.17,-22.65"/>
<polygon fill="midnightblue" stroke="midnightblue" points="760.28,-25.97 768.69,-19.52 758.09,-19.32 760.28,-25.97"/>
</g>
<!-- Node11 -->
<g id="node11" class="node">
<title>Node11</title>
<g id="a_node11"><a xlink:title=" ">
<polygon fill="white" stroke="#bfbfbf" points="839.05,-0.5 839.05,-19.5 886.05,-19.5 886.05,-0.5 839.05,-0.5"/>
<text text-anchor="middle" x="862.55" y="-7.5" font-family="Helvetica,sans-Serif" font-size="10.00">float.h</text>
</a>
</g>
</g>
<!-- Node8&#45;&gt;Node11 -->
<g id="edge13" class="edge">
<title>Node8&#45;&gt;Node11</title>
<path fill="none" stroke="midnightblue" d="M661.33,-58.48C698.61,-50.48 763.53,-36.26 828.75,-20.11"/>
<polygon fill="midnightblue" stroke="midnightblue" points="829.93,-23.43 838.79,-17.61 828.24,-16.63 829.93,-23.43"/>
</g>
<!-- Node12 -->
<g id="node12" class="node">
<title>Node12</title>
<g id="a_node12"><a xlink:title=" ">
<polygon fill="white" stroke="#bfbfbf" points="383.05,-0.5 383.05,-19.5 434.05,-19.5 434.05,-0.5 383.05,-0.5"/>
<text text-anchor="middle" x="408.55" y="-7.5" font-family="Helvetica,sans-Serif" font-size="10.00">math.h</text>
</a>
</g>
</g>
<!-- Node8&#45;&gt;Node12 -->
<g id="edge14" class="edge">
<title>Node8&#45;&gt;Node12</title>
<path fill="none" stroke="midnightblue" d="M599.74,-57.74C564.53,-49.41 504.92,-35.21 443.95,-20.07"/>
<polygon fill="midnightblue" stroke="midnightblue" points="444.7,-16.65 434.15,-17.63 443.01,-23.44 444.7,-16.65"/>
</g>
<!-- Node13 -->
<g id="node13" class="node">
<title>Node13</title>
<g id="a_node13"><a xlink:title=" ">
<polygon fill="white" stroke="#bfbfbf" points="452.55,-0.5 452.55,-19.5 508.55,-19.5 508.55,-0.5 452.55,-0.5"/>
<text text-anchor="middle" x="480.55" y="-7.5" font-family="Helvetica,sans-Serif" font-size="10.00">stdarg.h</text>
</a>
</g>
</g>
<!-- Node8&#45;&gt;Node13 -->
<g id="edge16" class="edge">
<title>Node8&#45;&gt;Node13</title>
<path fill="none" stroke="midnightblue" d="M606.78,-56.44C581.66,-47.4 541.84,-33.06 513.65,-22.92"/>
<polygon fill="midnightblue" stroke="midnightblue" points="514.8,-19.61 504.21,-19.52 512.43,-26.2 514.8,-19.61"/>
</g>
<!-- Node14 -->
<g id="node14" class="node">
<title>Node14</title>
<g id="a_node14"><a xlink:title=" ">
<polygon fill="white" stroke="#bfbfbf" points="527.05,-0.5 527.05,-19.5 580.05,-19.5 580.05,-0.5 527.05,-0.5"/>
<text text-anchor="middle" x="553.55" y="-7.5" font-family="Helvetica,sans-Serif" font-size="10.00">stdint.h</text>
</a>
</g>
</g>
<!-- Node8&#45;&gt;Node14 -->
<g id="edge17" class="edge">
<title>Node8&#45;&gt;Node14</title>
<path fill="none" stroke="midnightblue" d="M618.18,-56.32C606.39,-48.06 588.42,-35.45 574.42,-25.63"/>
<polygon fill="midnightblue" stroke="midnightblue" points="576.09,-22.53 565.89,-19.65 572.07,-28.26 576.09,-22.53"/>
</g>
<!-- Node8&#45;&gt;Node15 -->
<g id="edge18" class="edge">
<title>Node8&#45;&gt;Node15</title>
<path fill="none" stroke="midnightblue" d="M661.2,-60.62C710.56,-53.37 810.66,-37.9 894.55,-20 894.65,-19.98 894.75,-19.96 894.85,-19.94"/>
<polygon fill="midnightblue" stroke="midnightblue" points="895.42,-23.4 904.37,-17.74 893.84,-16.58 895.42,-23.4"/>
</g>
<!-- Node8&#45;&gt;Node16 -->
<g id="edge19" class="edge">
<title>Node8&#45;&gt;Node16</title>
<path fill="none" stroke="midnightblue" d="M661.5,-61.98C718.93,-56.11 846.06,-41.97 963.05,-19.9"/>
<polygon fill="midnightblue" stroke="midnightblue" points="963.72,-23.33 972.89,-18.01 962.41,-16.45 963.72,-23.33"/>
</g>
<!-- Node8&#45;&gt;Node17 -->
<g id="edge20" class="edge">
<title>Node8&#45;&gt;Node17</title>
<path fill="none" stroke="midnightblue" d="M661.25,-63.07C727.63,-58.59 889.58,-45.95 1033.96,-20.08"/>
<polygon fill="midnightblue" stroke="midnightblue" points="1034.67,-23.5 1043.88,-18.27 1033.42,-16.62 1034.67,-23.5"/>
</g>
<!-- Node18 -->
<g id="node18" class="node">
<title>Node18</title>
<g id="a_node18"><a xlink:title=" ">
<polygon fill="white" stroke="#bfbfbf" points="598.05,-0.5 598.05,-19.5 675.05,-19.5 675.05,-0.5 598.05,-0.5"/>
<text text-anchor="middle" x="636.55" y="-7.5" font-family="Helvetica,sans-Serif" font-size="10.00">sys/mman.h</text>
</a>
</g>
</g>
<!-- Node8&#45;&gt;Node18 -->
<g id="edge21" class="edge">
<title>Node8&#45;&gt;Node18</title>
<path fill="none" stroke="midnightblue" d="M631.54,-56.08C632.34,-48.93 633.48,-38.64 634.47,-29.69"/>
<polygon fill="midnightblue" stroke="midnightblue" points="637.95,-30.08 635.58,-19.75 631,-29.3 637.95,-30.08"/>
</g>
<!-- Node8&#45;&gt;Node19 -->
<g id="edge22" class="edge">
<title>Node8&#45;&gt;Node19</title>
<path fill="none" stroke="midnightblue" d="M661.06,-63.41C735.38,-59.26 931.78,-46.63 1105.31,-20.01"/>
<polygon fill="midnightblue" stroke="midnightblue" points="1106.05,-23.44 1115.39,-18.45 1104.97,-16.52 1106.05,-23.44"/>
</g>
<!-- Node20 -->
<g id="node20" class="node">
<title>Node20</title>
<g id="a_node20"><a xlink:title=" ">
<polygon fill="white" stroke="#bfbfbf" points="316.55,-0.5 316.55,-19.5 364.55,-19.5 364.55,-0.5 316.55,-0.5"/>
<text text-anchor="middle" x="340.55" y="-7.5" font-family="Helvetica,sans-Serif" font-size="10.00">time.h</text>
</a>
</g>
</g>
<!-- Node8&#45;&gt;Node20 -->
<g id="edge23" class="edge">
<title>Node8&#45;&gt;Node20</title>
<path fill="none" stroke="midnightblue" d="M599.91,-60.58C553.29,-53.65 461.61,-39.22 374.42,-20.02"/>
<polygon fill="midnightblue" stroke="midnightblue" points="375.16,-16.6 364.64,-17.85 373.64,-23.44 375.16,-16.6"/>
</g>
<!-- Node8&#45;&gt;Node21 -->
<g id="edge24" class="edge">
<title>Node8&#45;&gt;Node21</title>
<path fill="none" stroke="midnightblue" d="M661.1,-62.56C745.21,-55.83 987.31,-36.42 1188.55,-20 1212.03,-18.08 1238.34,-15.91 1259.24,-14.18"/>
<polygon fill="midnightblue" stroke="midnightblue" points="1259.64,-17.66 1269.32,-13.35 1259.07,-10.68 1259.64,-17.66"/>
</g>
<!-- Node22 -->
<g id="node22" class="node">
<title>Node22</title>
<g id="a_node22"><a xlink:title=" ">
<polygon fill="white" stroke="#bfbfbf" points="236.55,-0.5 236.55,-19.5 298.55,-19.5 298.55,-0.5 236.55,-0.5"/>
<text text-anchor="middle" x="267.55" y="-7.5" font-family="Helvetica,sans-Serif" font-size="10.00">stdbool.h</text>
</a>
</g>
</g>
<!-- Node8&#45;&gt;Node22 -->
<g id="edge25" class="edge">
<title>Node8&#45;&gt;Node22</title>
<path fill="none" stroke="midnightblue" d="M599.69,-61.56C543.74,-55.15 421.65,-40.3 309.11,-20.16"/>
<polygon fill="midnightblue" stroke="midnightblue" points="309.41,-16.66 298.94,-18.32 308.16,-23.55 309.41,-16.66"/>
</g>
<!-- Node23&#45;&gt;Node8 -->
<g id="edge28" class="edge">
<title>Node23&#45;&gt;Node8</title>
<path fill="none" stroke="midnightblue" d="M698.88,-229.76C687.61,-202.92 653.35,-121.32 638.06,-84.89"/>
<polygon fill="midnightblue" stroke="midnightblue" points="641.23,-83.38 634.13,-75.52 634.77,-86.09 641.23,-83.38"/>
</g>
<!-- Node24 -->
<g id="node24" class="node">
<title>Node24</title>
<g id="a_node24"><a xlink:title=" ">
<polygon fill="white" stroke="#bfbfbf" points="690.55,-168.5 690.55,-187.5 764.55,-187.5 764.55,-168.5 690.55,-168.5"/>
<text text-anchor="middle" x="727.55" y="-175.5" font-family="Helvetica,sans-Serif" font-size="10.00">stdatomic.h</text>
</a>
</g>
</g>
<!-- Node23&#45;&gt;Node24 -->
<g id="edge27" class="edge">
<title>Node23&#45;&gt;Node24</title>
<path fill="none" stroke="midnightblue" d="M706.13,-229.98C709.73,-221.4 715.4,-207.93 720,-196.98"/>
<polygon fill="midnightblue" stroke="midnightblue" points="723.33,-198.08 723.98,-187.51 716.88,-195.37 723.33,-198.08"/>
</g>
<!-- Node25 -->
<g id="node25" class="node">
<title>Node25</title>
<g id="a_node25"><a xlink:href="Thread_8h.html" target="_top" xlink:title="Lightweight Synchronization Primitives Wrapper.">
<polygon fill="white" stroke="black" points="472.55,-168.5 472.55,-187.5 596.55,-187.5 596.55,-168.5 472.55,-168.5"/>
<text text-anchor="middle" x="534.55" y="-175.5" font-family="Helvetica,sans-Serif" font-size="10.00">src/Common/Thread.h</text>
</a>
</g>
</g>
<!-- Node23&#45;&gt;Node25 -->
<g id="edge29" class="edge">
<title>Node23&#45;&gt;Node25</title>
<path fill="none" stroke="midnightblue" d="M678.48,-229.98C649.54,-219.72 600.79,-202.46 568.15,-190.9"/>
<polygon fill="midnightblue" stroke="midnightblue" points="569.17,-187.55 558.58,-187.51 566.83,-194.15 569.17,-187.55"/>
</g>
<!-- Node25&#45;&gt;Node5 -->
<g id="edge30" class="edge">
<title>Node25&#45;&gt;Node5</title>
<path fill="none" stroke="midnightblue" d="M474.55,-168.49C415.19,-159.56 328.81,-145.03 297.55,-132 233.38,-105.25 168.8,-52.78 138.83,-26.61"/>
<polygon fill="midnightblue" stroke="midnightblue" points="140.81,-23.69 131,-19.68 136.17,-28.93 140.81,-23.69"/>
</g>
<!-- Node25&#45;&gt;Node8 -->
<g id="edge32" class="edge">
<title>Node25&#45;&gt;Node8</title>
<path fill="none" stroke="midnightblue" d="M542.08,-168.37C558.07,-150.05 595.6,-107.05 616.27,-83.36"/>
<polygon fill="midnightblue" stroke="midnightblue" points="619.11,-85.43 623.05,-75.59 613.84,-80.82 619.11,-85.43"/>
</g>
<!-- Node26 -->
<g id="node26" class="node">
<title>Node26</title>
<g id="a_node26"><a xlink:title=" ">
<polygon fill="white" stroke="#bfbfbf" points="478.55,-112.5 478.55,-131.5 558.55,-131.5 558.55,-112.5 478.55,-112.5"/>
<text text-anchor="middle" x="518.55" y="-119.5" font-family="Helvetica,sans-Serif" font-size="10.00">semaphore.h</text>
</a>
</g>
</g>
<!-- Node25&#45;&gt;Node26 -->
<g id="edge31" class="edge">
<title>Node25&#45;&gt;Node26</title>
<path fill="none" stroke="midnightblue" d="M531.91,-168.08C529.77,-160.85 526.67,-150.41 524,-141.4"/>
<polygon fill="midnightblue" stroke="midnightblue" points="527.34,-140.34 521.14,-131.75 520.63,-142.33 527.34,-140.34"/>
</g>
<!-- Node27 -->
<g id="node27" class="node">
<title>Node27</title>
<g id="a_node27"><a xlink:href="Time_8h.html" target="_top" xlink:title="Lightweight Time Manipulation Utilities.">
<polygon fill="white" stroke="black" points="307.05,-112.5 307.05,-131.5 422.05,-131.5 422.05,-112.5 307.05,-112.5"/>
<text text-anchor="middle" x="364.55" y="-119.5" font-family="Helvetica,sans-Serif" font-size="10.00">src/Common/Time.h</text>
</a>
</g>
</g>
<!-- Node25&#45;&gt;Node27 -->
<g id="edge33" class="edge">
<title>Node25&#45;&gt;Node27</title>
<path fill="none" stroke="midnightblue" d="M507.61,-168.44C478.89,-159.32 433.22,-144.81 401.23,-134.65"/>
<polygon fill="midnightblue" stroke="midnightblue" points="401.95,-131.21 391.36,-131.52 399.83,-137.88 401.95,-131.21"/>
</g>
<!-- Node27&#45;&gt;Node8 -->
<g id="edge36" class="edge">
<title>Node27&#45;&gt;Node8</title>
<path fill="none" stroke="midnightblue" d="M406.7,-112.44C456.89,-102.25 540.15,-85.35 589.75,-75.28"/>
<polygon fill="midnightblue" stroke="midnightblue" points="590.69,-78.66 599.79,-73.24 589.3,-71.8 590.69,-78.66"/>
</g>
<!-- Node27&#45;&gt;Node20 -->
<g id="edge35" class="edge">
<title>Node27&#45;&gt;Node20</title>
<path fill="none" stroke="midnightblue" d="M364.32,-112.47C363.83,-99.93 362.29,-75.87 357.55,-56 355.39,-46.96 351.9,-37.28 348.64,-29.22"/>
<polygon fill="midnightblue" stroke="midnightblue" points="351.75,-27.59 344.62,-19.76 345.31,-30.33 351.75,-27.59"/>
</g>
<!-- Node28 -->
<g id="node28" class="node">
<title>Node28</title>
<g id="a_node28"><a xlink:title=" ">
<polygon fill="white" stroke="#bfbfbf" points="296.05,-56.5 296.05,-75.5 349.05,-75.5 349.05,-56.5 296.05,-56.5"/>
<text text-anchor="middle" x="322.55" y="-63.5" font-family="Helvetica,sans-Serif" font-size="10.00">limits.h</text>
</a>
</g>
</g>
<!-- Node27&#45;&gt;Node28 -->
<g id="edge34" class="edge">
<title>Node27&#45;&gt;Node28</title>
<path fill="none" stroke="midnightblue" d="M357.62,-112.08C351.62,-104.38 342.8,-93.03 335.5,-83.65"/>
<polygon fill="midnightblue" stroke="midnightblue" points="338.26,-81.5 329.36,-75.75 332.73,-85.79 338.26,-81.5"/>
</g>
<!-- Node29&#45;&gt;Node5 -->
<g id="edge38" class="edge">
<title>Node29&#45;&gt;Node5</title>
<path fill="none" stroke="midnightblue" d="M332.41,-229.93C307.14,-206.14 234.41,-136.97 177.55,-76 162.55,-59.92 146.22,-40.76 135.09,-27.43"/>
<polygon fill="midnightblue" stroke="midnightblue" points="137.67,-25.06 128.59,-19.6 132.29,-29.53 137.67,-25.06"/>
</g>
<!-- Node29&#45;&gt;Node8 -->
<g id="edge40" class="edge">
<title>Node29&#45;&gt;Node8</title>
<path fill="none" stroke="midnightblue" d="M346.01,-229.97C353.63,-215.94 370.2,-187.6 389.55,-168 420.04,-137.11 430.31,-130.55 469.55,-112 508.55,-93.56 556.53,-81.37 589.92,-74.38"/>
<polygon fill="midnightblue" stroke="midnightblue" points="590.68,-77.79 599.79,-72.38 589.29,-70.93 590.68,-77.79"/>
</g>
<!-- Node29&#45;&gt;Node22 -->
<g id="edge39" class="edge">
<title>Node29&#45;&gt;Node22</title>
<path fill="none" stroke="midnightblue" d="M337.45,-229.83C329.08,-211.89 309.79,-169.25 297.55,-132 285.83,-96.32 276.22,-53.42 271.24,-29.48"/>
<polygon fill="midnightblue" stroke="midnightblue" points="274.66,-28.73 269.23,-19.63 267.8,-30.13 274.66,-28.73"/>
</g>
<!-- Node29&#45;&gt;Node25 -->
<g id="edge41" class="edge">
<title>Node29&#45;&gt;Node25</title>
<path fill="none" stroke="midnightblue" d="M369.2,-229.98C402.74,-219.64 459.42,-202.16 496.92,-190.6"/>
<polygon fill="midnightblue" stroke="midnightblue" points="498.42,-193.8 506.95,-187.51 496.36,-187.11 498.42,-193.8"/>
</g>
<!-- Node31 -->
<g id="node31" class="node">
<title>Node31</title>
<g id="a_node31"><a xlink:title=" ">
<polygon fill="white" stroke="#bfbfbf" points="398.55,-168.5 398.55,-187.5 454.55,-187.5 454.55,-168.5 398.55,-168.5"/>
<text text-anchor="middle" x="426.55" y="-175.5" font-family="Helvetica,sans-Serif" font-size="10.00">stddef.h</text>
</a>
</g>
</g>
<!-- Node30&#45;&gt;Node31 -->
<g id="edge43" class="edge">
<title>Node30&#45;&gt;Node31</title>
<path fill="none" stroke="midnightblue" d="M489.09,-229.98C477.6,-220.61 458.92,-205.38 444.96,-194.01"/>
<polygon fill="midnightblue" stroke="midnightblue" points="446.95,-191.11 436.99,-187.51 442.53,-196.54 446.95,-191.11"/>
</g>
<!-- Node34&#45;&gt;Node8 -->
<g id="edge54" class="edge">
<title>Node34&#45;&gt;Node8</title>
<path fill="none" stroke="midnightblue" d="M946.09,-291.22C935.51,-282.73 919.76,-269.1 908.55,-255 863.1,-197.82 886.14,-155.62 827.55,-112 781.67,-77.84 714.31,-68.94 671.45,-66.98"/>
<polygon fill="midnightblue" stroke="midnightblue" points="671.49,-63.48 661.38,-66.63 671.25,-70.47 671.49,-63.48"/>
</g>
<!-- Node35 -->
<g id="node35" class="node">
<title>Node35</title>
<g id="a_node35"><a xlink:title=" ">
<polygon fill="white" stroke="#bfbfbf" points="917.55,-224.5 917.55,-254.5 1039.55,-254.5 1039.55,-224.5 917.55,-224.5"/>
<text text-anchor="start" x="925.55" y="-242.5" font-family="Helvetica,sans-Serif" font-size="10.00">src/DatabaseSystems</text>
<text text-anchor="middle" x="978.55" y="-231.5" font-family="Helvetica,sans-Serif" font-size="10.00">/Postgres.h</text>
</a>
</g>
</g>
<!-- Node34&#45;&gt;Node35 -->
<g id="edge55" class="edge">
<title>Node34&#45;&gt;Node35</title>
<path fill="none" stroke="midnightblue" d="M960.56,-291.48C963.08,-284.32 966.82,-273.75 970.23,-264.08"/>
<polygon fill="midnightblue" stroke="midnightblue" points="973.57,-265.12 973.6,-254.52 966.97,-262.79 973.57,-265.12"/>
</g>
</g>
</svg>
        <g id="navigator" transform="translate(0 0)" fill="#404254">
                <rect fill="#f2f5e9" fill-opacity="0.5" stroke="#606060" stroke-width=".5" x="0" y="0" width="60" height="60"/>
                <use id="zoomplus" xlink:href="#zoomPlus" x="17" y="9" onmousedown="handleZoom(evt,'in')"/>
                <use id="zoomminus" xlink:href="#zoomMin" x="42" y="9" onmousedown="handleZoom(evt,'out')"/>
                <use id="reset" xlink:href="#resetDef" x="30" y="36" onmousedown="handleReset()"/>
                <g id="arrowUp" xlink:href="#dirArrow" transform="translate(30 24)" onmousedown="handlePan(0,-1)">
                  <use xlink:href="#rim" fill="#404040">
                        <set attributeName="fill" to="#808080" begin="arrowUp.mouseover" end="arrowUp.mouseout"/>
                  </use>
                  <path fill="none" stroke="white" stroke-width="1.5" d="M0,-3.0v7 M-2.5,-0.5L0,-3.0L2.5,-0.5"/>
                </g>
                <g id="arrowRight" xlink:href="#dirArrow" transform="rotate(90) translate(36 -43)" onmousedown="handlePan(1,0)">
                  <use xlink:href="#rim" fill="#404040">
                        <set attributeName="fill" to="#808080" begin="arrowRight.mouseover" end="arrowRight.mouseout"/>
                  </use>
                  <path fill="none" stroke="white" stroke-width="1.5" d="M0,-3.0v7 M-2.5,-0.5L0,-3.0L2.5,-0.5"/>
                </g>
                <g id="arrowDown" xlink:href="#dirArrow" transform="rotate(180) translate(-30 -48)" onmousedown="handlePan(0,1)">
                  <use xlink:href="#rim" fill="#404040">
                        <set attributeName="fill" to="#808080" begin="arrowDown.mouseover" end="arrowDown.mouseout"/>
                  </use>
                  <path fill="none" stroke="white" stroke-width="1.5" d="M0,-3.0v7 M-2.5,-0.5L0,-3.0L2.5,-0.5"/>
                </g>
                <g id="arrowLeft" xlink:href="#dirArrow" transform="rotate(270) translate(-36 17)" onmousedown="handlePan(-1,0)">
                  <use xlink:href="#rim" fill="#404040">
                        <set attributeName="fill" to="#808080" begin="arrowLeft.mouseover" end="arrowLeft.mouseout"/>
                  </use>
                  <path fill="none" stroke="white" stroke-width="1.5" d="M0,-3.0v7 M-2.5,-0.5L0,-3.0L2.5,-0.5"/>
                </g>
        </g>
        <svg viewBox="0 0 15 15" width="100%" height="30px" preserveAspectRatio="xMaxYMin meet">
         <g id="arrow_out" transform="scale(0.3 0.3)">
          <a xlink:href="Signals_8c__incl_org.svg" target="_base">
           <rect id="button" ry="5" rx="5" y="6" x="6" height="38" width="38"
                fill="#f2f5e9" fill-opacity="0.5" stroke="#606060" stroke-width="1.0"/>
           <path id="arrow"
             d="M 11.500037,31.436501 C 11.940474,20.09759 22.043105,11.32322 32.158766,21.979434 L 37.068811,17.246167 C 37.068811,17.246167 37.088388,32 37.088388,32 L 22.160133,31.978069 C 22.160133,31.978069 26.997745,27.140456 26.997745,27.140456 C 18.528582,18.264221 13.291696,25.230495 11.500037,31.436501 z"
             style="fill:#404040;"/>
          </a>
         </g>
        </svg>
</svg>
