<?xml version="1.0" encoding="UTF-8" standalone="no"?>
<!DOCTYPE svg PUBLIC "-//W3C//DTD SVG 1.1//EN"
 "http://www.w3.org/Graphics/SVG/1.1/DTD/svg11.dtd">
<!-- Generated by graphviz version 2.43.0 (0)
 -->
<!-- Title: SignalHandler Pages: 1 -->
<svg width="446pt" height="138pt"
 viewBox="0.00 0.00 446.00 138.00" xmlns="http://www.w3.org/2000/svg" xmlns:xlink="http://www.w3.org/1999/xlink">

<svg id="main" version="1.1" xmlns="http://www.w3.org/2000/svg" xmlns:xlink="http://www.w3.org/1999/xlink" xml:space="preserve" onload="init(evt)">
<style type="text/css"><![CDATA[
.node, .edge {opacity: 0.7;}
.node.selected, .edge.selected {opacity: 1;}
.edge:hover path { stroke: red; }
.edge:hover polygon { stroke: red; fill: red; }
]]></style>
<script type="application/ecmascript" xlink:href="svg.min.js"/>
<svg id="graph" class="graph">
<g id="graph0" class="graph" transform="scale(1 1) rotate(0) translate(4 134)">
<title>SignalHandler</title>
<!-- Node1 -->
<g id="Node000001" class="node">
<title>Node1</title>
<g id="a_Node000001"><a xlink:title="Internal signal handler to process system signals.">
<polygon fill="#999999" stroke="#666666" points="85,-56 0,-56 0,-37 85,-37 85,-56"/>
<text text-anchor="middle" x="42.5" y="-44" font-family="Helvetica,sans-Serif" font-size="10.00">SignalHandler</text>
</a>
</g>
</g>
<!-- Node2 -->
<g id="Node000002" class="node">
<title>Node2</title>
<g id="a_Node000002"><a xlink:href="Signals_8c.html#a9934ca93fac5b0dcfa0ae402a83bbaa0" target="_top" xlink:title="Creates a memory dump of the process state.">
<polygon fill="white" stroke="#666666" points="253,-93 129,-93 129,-74 253,-74 253,-93"/>
<text text-anchor="middle" x="191" y="-81" font-family="Helvetica,sans-Serif" font-size="10.00">DumpProcessMemory</text>
</a>
</g>
</g>
<!-- Node1&#45;&gt;Node2 -->
<g id="edge1_Node000001_Node000002" class="edge">
<title>Node1&#45;&gt;Node2</title>
<g id="a_edge1_Node000001_Node000002"><a xlink:title=" ">
<path fill="none" stroke="#63b8ff" d="M81.23,-56.03C99.87,-60.74 122.55,-66.47 142.38,-71.47"/>
<polygon fill="#63b8ff" stroke="#63b8ff" points="141.59,-74.88 152.15,-73.94 143.31,-68.1 141.59,-74.88"/>
</a>
</g>
</g>
<!-- Node5 -->
<g id="Node000005" class="node">
<title>Node5</title>
<g id="a_Node000005"><a xlink:href="Signals_8c.html#a45f6f56c3aac50030832d4b445f1cd61" target="_top" xlink:title="Handles internal pipe dump operations.">
<polygon fill="white" stroke="#666666" points="241.5,-56 140.5,-56 140.5,-37 241.5,-37 241.5,-56"/>
<text text-anchor="middle" x="191" y="-44" font-family="Helvetica,sans-Serif" font-size="10.00">HandlePipeDump</text>
</a>
</g>
</g>
<!-- Node1&#45;&gt;Node5 -->
<g id="edge4_Node000001_Node000005" class="edge">
<title>Node1&#45;&gt;Node5</title>
<g id="a_edge4_Node000001_Node000005"><a xlink:title=" ">
<path fill="none" stroke="#63b8ff" d="M85.09,-46.5C99.04,-46.5 114.89,-46.5 129.97,-46.5"/>
<polygon fill="#63b8ff" stroke="#63b8ff" points="130.25,-50 140.25,-46.5 130.25,-43 130.25,-50"/>
</a>
</g>
</g>
<!-- Node7 -->
<g id="Node000007" class="node">
<title>Node7</title>
<g id="a_Node000007"><a xlink:href="Signals_8c.html#ac59c3ef33c4c32b750598e2d2f6398e1" target="_top" xlink:title="Initiates system shutdown with proper synchronization.">
<polygon fill="white" stroke="#666666" points="261,-19 121,-19 121,0 261,0 261,-19"/>
<text text-anchor="middle" x="191" y="-7" font-family="Helvetica,sans-Serif" font-size="10.00">InitiateGracefulShutdown</text>
</a>
</g>
</g>
<!-- Node1&#45;&gt;Node7 -->
<g id="edge6_Node000001_Node000007" class="edge">
<title>Node1&#45;&gt;Node7</title>
<g id="a_edge6_Node000001_Node000007"><a xlink:title=" ">
<path fill="none" stroke="#63b8ff" d="M81.23,-36.97C99.87,-32.26 122.55,-26.53 142.38,-21.53"/>
<polygon fill="#63b8ff" stroke="#63b8ff" points="143.31,-24.9 152.15,-19.06 141.59,-18.12 143.31,-24.9"/>
</a>
</g>
</g>
<!-- Node3 -->
<g id="Node000003" class="node">
<title>Node3</title>
<g id="a_Node000003"><a xlink:href="Signals_8c.html#a5ef6dcc759fd8166d79fd158ec2f9935" target="_top" xlink:title=" ">
<polygon fill="white" stroke="#666666" points="406,-130 329,-130 329,-111 406,-111 406,-130"/>
<text text-anchor="middle" x="367.5" y="-118" font-family="Helvetica,sans-Serif" font-size="10.00">GetThreadId</text>
</a>
</g>
</g>
<!-- Node2&#45;&gt;Node3 -->
<g id="edge2_Node000002_Node000003" class="edge">
<title>Node2&#45;&gt;Node3</title>
<g id="a_edge2_Node000002_Node000003"><a xlink:title=" ">
<path fill="none" stroke="#63b8ff" d="M236.94,-93.03C262.08,-98.36 293.4,-105 318.95,-110.42"/>
<polygon fill="#63b8ff" stroke="#63b8ff" points="318.29,-113.85 328.79,-112.51 319.74,-107.01 318.29,-113.85"/>
</a>
</g>
</g>
<!-- Node4 -->
<g id="Node000004" class="node">
<title>Node4</title>
<g id="a_Node000004"><a xlink:href="Signals_8c.html#a27d60415a71248a37804f83c33553b0b" target="_top" xlink:title=" ">
<polygon fill="white" stroke="#666666" points="416,-93 319,-93 319,-74 416,-74 416,-93"/>
<text text-anchor="middle" x="367.5" y="-81" font-family="Helvetica,sans-Serif" font-size="10.00">GetThreadName</text>
</a>
</g>
</g>
<!-- Node2&#45;&gt;Node4 -->
<g id="edge3_Node000002_Node000004" class="edge">
<title>Node2&#45;&gt;Node4</title>
<g id="a_edge3_Node000002_Node000004"><a xlink:title=" ">
<path fill="none" stroke="#63b8ff" d="M253.03,-83.5C271.19,-83.5 291.02,-83.5 308.95,-83.5"/>
<polygon fill="#63b8ff" stroke="#63b8ff" points="308.98,-87 318.98,-83.5 308.98,-80 308.98,-87"/>
</a>
</g>
</g>
<!-- Node6 -->
<g id="Node000006" class="node">
<title>Node6</title>
<g id="a_Node000006"><a xlink:href="Signals_8c.html#a544b451adfe66651acf0f329633a8673" target="_top" xlink:title="Dumps sensor data pipe contents to a file.">
<polygon fill="white" stroke="#666666" points="438,-56 297,-56 297,-37 438,-37 438,-56"/>
<text text-anchor="middle" x="367.5" y="-44" font-family="Helvetica,sans-Serif" font-size="10.00">SdbDumpSensorDataPipe</text>
</a>
</g>
</g>
<!-- Node5&#45;&gt;Node6 -->
<g id="edge5_Node000005_Node000006" class="edge">
<title>Node5&#45;&gt;Node6</title>
<g id="a_edge5_Node000005_Node000006"><a xlink:title=" ">
<path fill="none" stroke="#63b8ff" d="M241.54,-46.5C255.67,-46.5 271.44,-46.5 286.89,-46.5"/>
<polygon fill="#63b8ff" stroke="#63b8ff" points="286.97,-50 296.97,-46.5 286.97,-43 286.97,-50"/>
</a>
</g>
</g>
</g>
</svg>
</svg>

<style type='text/css'>
<![CDATA[
[data-mouse-over-selected='false'] { opacity: 0.7; }
[data-mouse-over-selected='true']  { opacity: 1.0; }
]]>
</style>
<script type="application/ecmascript"><![CDATA[
document.addEventListener('DOMContentLoaded', (event) => {
  highlightEdges();
  highlightAdjacentNodes();
});
]]></script>
</svg>
