<?xml version="1.0" encoding="UTF-8" standalone="no"?>
<!DOCTYPE svg PUBLIC "-//W3C//DTD SVG 1.1//EN"
 "http://www.w3.org/Graphics/SVG/1.1/DTD/svg11.dtd">
<!-- Generated by graphviz version 2.43.0 (0)
 -->
<!-- Title: DumpProcessMemory Pages: 1 -->
<svg width="502pt" height="27pt"
 viewBox="0.00 0.00 502.00 27.00" xmlns="http://www.w3.org/2000/svg" xmlns:xlink="http://www.w3.org/1999/xlink">
<g id="graph0" class="graph" transform="scale(1 1) rotate(0) translate(4 23)">
<title>DumpProcessMemory</title>
<!-- Node1 -->
<g id="Node000001" class="node">
<title>Node1</title>
<g id="a_Node000001"><a xlink:title="Creates a memory dump of the process state.">
<polygon fill="#999999" stroke="#666666" points="494,-19 370,-19 370,0 494,0 494,-19"/>
<text text-anchor="middle" x="432" y="-7" font-family="Helvetica,sans-Serif" font-size="10.00">DumpProcessMemory</text>
</a>
</g>
</g>
<!-- Node2 -->
<g id="Node000002" class="node">
<title>Node2</title>
<g id="a_Node000002"><a xlink:href="Signals_8c.html#a6f1cd44547a55d590f525110340d0f1f" target="_top" xlink:title="Internal signal handler to process system signals.">
<polygon fill="white" stroke="#666666" points="334,-19 249,-19 249,0 334,0 334,-19"/>
<text text-anchor="middle" x="291.5" y="-7" font-family="Helvetica,sans-Serif" font-size="10.00">SignalHandler</text>
</a>
</g>
</g>
<!-- Node1&#45;&gt;Node2 -->
<g id="edge1_Node000001_Node000002" class="edge">
<title>Node1&#45;&gt;Node2</title>
<g id="a_edge1_Node000001_Node000002"><a xlink:title=" ">
<path fill="none" stroke="#63b8ff" d="M359.65,-9.5C350.96,-9.5 342.31,-9.5 334.25,-9.5"/>
<polygon fill="#63b8ff" stroke="#63b8ff" points="359.85,-13 369.85,-9.5 359.85,-6 359.85,-13"/>
</a>
</g>
</g>
<!-- Node3 -->
<g id="Node000003" class="node">
<title>Node3</title>
<g id="a_Node000003"><a xlink:href="Signals_8c.html#a455fa9d5e249372255aebefb29edf4ee" target="_top" xlink:title="Sets up signal handlers for the application.">
<polygon fill="white" stroke="#666666" points="213,-19 77,-19 77,0 213,0 213,-19"/>
<text text-anchor="middle" x="145" y="-7" font-family="Helvetica,sans-Serif" font-size="10.00">SdbSetupSignalHandlers</text>
</a>
</g>
</g>
<!-- Node2&#45;&gt;Node3 -->
<g id="edge2_Node000002_Node000003" class="edge">
<title>Node2&#45;&gt;Node3</title>
<g id="a_edge2_Node000002_Node000003"><a xlink:title=" ">
<path fill="none" stroke="#63b8ff" d="M238.48,-9.5C230.22,-9.5 221.57,-9.5 213.02,-9.5"/>
<polygon fill="#63b8ff" stroke="#63b8ff" points="238.7,-13 248.7,-9.5 238.7,-6 238.7,-13"/>
</a>
</g>
</g>
<!-- Node4 -->
<g id="Node000004" class="node">
<title>Node4</title>
<g id="a_Node000004"><a xlink:href="Main_8c.html#ae21eb8342793f7f8f0d5fda6b96c0803" target="_top" xlink:title="Main entry point for the Sensor Data Handler System.">
<polygon fill="white" stroke="#666666" points="41,-19 0,-19 0,0 41,0 41,-19"/>
<text text-anchor="middle" x="20.5" y="-7" font-family="Helvetica,sans-Serif" font-size="10.00">main</text>
</a>
</g>
</g>
<!-- Node3&#45;&gt;Node4 -->
<g id="edge3_Node000003_Node000004" class="edge">
<title>Node3&#45;&gt;Node4</title>
<g id="a_edge3_Node000003_Node000004"><a xlink:title=" ">
<path fill="none" stroke="#63b8ff" d="M66.41,-9.5C57.13,-9.5 48.38,-9.5 41.12,-9.5"/>
<polygon fill="#63b8ff" stroke="#63b8ff" points="66.66,-13 76.66,-9.5 66.66,-6 66.66,-13"/>
</a>
</g>
</g>
</g>
</svg>
