<?xml version="1.0" encoding="UTF-8" standalone="no"?>
<!DOCTYPE svg PUBLIC "-//W3C//DTD SVG 1.1//EN"
 "http://www.w3.org/Graphics/SVG/1.1/DTD/svg11.dtd">
<!-- Generated by graphviz version 2.43.0 (0)
 -->
<!-- Title: GetThreadName Pages: 1 -->
<svg width="635pt" height="28pt"
 viewBox="0.00 0.00 635.00 28.00" xmlns="http://www.w3.org/2000/svg" xmlns:xlink="http://www.w3.org/1999/xlink">
<g id="graph0" class="graph" transform="scale(1 1) rotate(0) translate(4 24)">
<title>GetThreadName</title>
<polygon fill="white" stroke="transparent" points="-4,4 -4,-24 631,-24 631,4 -4,4"/>
<!-- Node1 -->
<g id="node1" class="node">
<title>Node1</title>
<g id="a_node1"><a xlink:title=" ">
<polygon fill="#bfbfbf" stroke="black" points="530,-0.5 530,-19.5 627,-19.5 627,-0.5 530,-0.5"/>
<text text-anchor="middle" x="578.5" y="-7.5" font-family="Helvetica,sans-Serif" font-size="10.00">GetThreadName</text>
</a>
</g>
</g>
<!-- Node2 -->
<g id="node2" class="node">
<title>Node2</title>
<g id="a_node2"><a xlink:href="Signals_8c.html#a9934ca93fac5b0dcfa0ae402a83bbaa0" target="_top" xlink:title="Creates a memory dump of the process state.">
<polygon fill="white" stroke="black" points="370,-0.5 370,-19.5 494,-19.5 494,-0.5 370,-0.5"/>
<text text-anchor="middle" x="432" y="-7.5" font-family="Helvetica,sans-Serif" font-size="10.00">DumpProcessMemory</text>
</a>
</g>
</g>
<!-- Node1&#45;&gt;Node2 -->
<g id="edge1" class="edge">
<title>Node1&#45;&gt;Node2</title>
<path fill="none" stroke="midnightblue" d="M519.68,-10C511.25,-10 502.55,-10 494.06,-10"/>
<polygon fill="midnightblue" stroke="midnightblue" points="519.78,-13.5 529.78,-10 519.78,-6.5 519.78,-13.5"/>
</g>
<!-- Node3 -->
<g id="node3" class="node">
<title>Node3</title>
<g id="a_node3"><a xlink:href="Signals_8c.html#a6f1cd44547a55d590f525110340d0f1f" target="_top" xlink:title="Internal signal handler to process system signals.">
<polygon fill="white" stroke="black" points="249,-0.5 249,-19.5 334,-19.5 334,-0.5 249,-0.5"/>
<text text-anchor="middle" x="291.5" y="-7.5" font-family="Helvetica,sans-Serif" font-size="10.00">SignalHandler</text>
</a>
</g>
</g>
<!-- Node2&#45;&gt;Node3 -->
<g id="edge2" class="edge">
<title>Node2&#45;&gt;Node3</title>
<path fill="none" stroke="midnightblue" d="M359.65,-10C350.96,-10 342.31,-10 334.25,-10"/>
<polygon fill="midnightblue" stroke="midnightblue" points="359.85,-13.5 369.85,-10 359.85,-6.5 359.85,-13.5"/>
</g>
<!-- Node4 -->
<g id="node4" class="node">
<title>Node4</title>
<g id="a_node4"><a xlink:href="Signals_8c.html#a455fa9d5e249372255aebefb29edf4ee" target="_top" xlink:title="Sets up signal handlers for the application.">
<polygon fill="white" stroke="black" points="77,-0.5 77,-19.5 213,-19.5 213,-0.5 77,-0.5"/>
<text text-anchor="middle" x="145" y="-7.5" font-family="Helvetica,sans-Serif" font-size="10.00">SdbSetupSignalHandlers</text>
</a>
</g>
</g>
<!-- Node3&#45;&gt;Node4 -->
<g id="edge3" class="edge">
<title>Node3&#45;&gt;Node4</title>
<path fill="none" stroke="midnightblue" d="M238.48,-10C230.22,-10 221.57,-10 213.02,-10"/>
<polygon fill="midnightblue" stroke="midnightblue" points="238.7,-13.5 248.7,-10 238.7,-6.5 238.7,-13.5"/>
</g>
<!-- Node5 -->
<g id="node5" class="node">
<title>Node5</title>
<g id="a_node5"><a xlink:href="Main_8c.html#ae21eb8342793f7f8f0d5fda6b96c0803" target="_top" xlink:title="Main entry point for the Sensor Data Handler System.">
<polygon fill="white" stroke="black" points="0,-0.5 0,-19.5 41,-19.5 41,-0.5 0,-0.5"/>
<text text-anchor="middle" x="20.5" y="-7.5" font-family="Helvetica,sans-Serif" font-size="10.00">main</text>
</a>
</g>
</g>
<!-- Node4&#45;&gt;Node5 -->
<g id="edge4" class="edge">
<title>Node4&#45;&gt;Node5</title>
<path fill="none" stroke="midnightblue" d="M66.41,-10C57.13,-10 48.38,-10 41.12,-10"/>
<polygon fill="midnightblue" stroke="midnightblue" points="66.66,-13.5 76.66,-10 66.66,-6.5 66.66,-13.5"/>
</g>
</g>
</svg>
