<?xml version="1.0" encoding="UTF-8" standalone="no"?>
<!DOCTYPE svg PUBLIC "-//W3C//DTD SVG 1.1//EN"
 "http://www.w3.org/Graphics/SVG/1.1/DTD/svg11.dtd">
<!-- Generated by graphviz version 2.43.0 (0)
 -->
<!-- Title: src/Common/Socket.h Pages: 1 -->
<svg width="1239pt" height="196pt"
 viewBox="0.00 0.00 1239.00 196.00" xmlns="http://www.w3.org/2000/svg" xmlns:xlink="http://www.w3.org/1999/xlink">
<g id="graph0" class="graph" transform="scale(1 1) rotate(0) translate(4 192)">
<title>src/Common/Socket.h</title>
<polygon fill="white" stroke="transparent" points="-4,4 -4,-192 1235,-192 1235,4 -4,4"/>
<!-- Node1 -->
<g id="node1" class="node">
<title>Node1</title>
<g id="a_node1"><a xlink:title="Simplified Socket Communication Utilities.">
<polygon fill="#bfbfbf" stroke="black" points="713,-168.5 713,-187.5 835,-187.5 835,-168.5 713,-168.5"/>
<text text-anchor="middle" x="774" y="-175.5" font-family="Helvetica,sans-Serif" font-size="10.00">src/Common/Socket.h</text>
</a>
</g>
</g>
<!-- Node2 -->
<g id="node2" class="node">
<title>Node2</title>
<g id="a_node2"><a xlink:href="Sdb_8h.html" target="_top" xlink:title=" ">
<polygon fill="white" stroke="black" points="600.5,-56.5 600.5,-75.5 661.5,-75.5 661.5,-56.5 600.5,-56.5"/>
<text text-anchor="middle" x="631" y="-63.5" font-family="Helvetica,sans-Serif" font-size="10.00">src/Sdb.h</text>
</a>
</g>
</g>
<!-- Node1&#45;&gt;Node2 -->
<g id="edge1" class="edge">
<title>Node1&#45;&gt;Node2</title>
<path fill="none" stroke="midnightblue" d="M719.86,-168.43C695.88,-162.07 669.08,-151.05 651,-132 639.2,-119.57 634.35,-100.33 632.36,-86"/>
<polygon fill="midnightblue" stroke="midnightblue" points="635.82,-85.38 631.31,-75.79 628.86,-86.1 635.82,-85.38"/>
</g>
<!-- Node20 -->
<g id="node20" class="node">
<title>Node20</title>
<g id="a_node20"><a xlink:href="Time_8h.html" target="_top" xlink:title="Lightweight Time Manipulation Utilities.">
<polygon fill="white" stroke="black" points="659.5,-112.5 659.5,-131.5 774.5,-131.5 774.5,-112.5 659.5,-112.5"/>
<text text-anchor="middle" x="717" y="-119.5" font-family="Helvetica,sans-Serif" font-size="10.00">src/Common/Time.h</text>
</a>
</g>
</g>
<!-- Node1&#45;&gt;Node20 -->
<g id="edge19" class="edge">
<title>Node1&#45;&gt;Node20</title>
<path fill="none" stroke="midnightblue" d="M764.84,-168.32C756.5,-160.42 743.97,-148.55 733.82,-138.94"/>
<polygon fill="midnightblue" stroke="midnightblue" points="735.99,-136.17 726.32,-131.83 731.18,-141.25 735.99,-136.17"/>
</g>
<!-- Node22 -->
<g id="node22" class="node">
<title>Node22</title>
<g id="a_node22"><a xlink:title=" ">
<polygon fill="white" stroke="#bfbfbf" points="792.5,-112.5 792.5,-131.5 869.5,-131.5 869.5,-112.5 792.5,-112.5"/>
<text text-anchor="middle" x="831" y="-119.5" font-family="Helvetica,sans-Serif" font-size="10.00">sys/socket.h</text>
</a>
</g>
</g>
<!-- Node1&#45;&gt;Node22 -->
<g id="edge23" class="edge">
<title>Node1&#45;&gt;Node22</title>
<path fill="none" stroke="midnightblue" d="M783.16,-168.32C791.5,-160.42 804.03,-148.55 814.18,-138.94"/>
<polygon fill="midnightblue" stroke="midnightblue" points="816.82,-141.25 821.68,-131.83 812.01,-136.17 816.82,-141.25"/>
</g>
<!-- Node23 -->
<g id="node23" class="node">
<title>Node23</title>
<g id="a_node23"><a xlink:title=" ">
<polygon fill="white" stroke="#bfbfbf" points="888,-112.5 888,-131.5 960,-131.5 960,-112.5 888,-112.5"/>
<text text-anchor="middle" x="924" y="-119.5" font-family="Helvetica,sans-Serif" font-size="10.00">sys/types.h</text>
</a>
</g>
</g>
<!-- Node1&#45;&gt;Node23 -->
<g id="edge24" class="edge">
<title>Node1&#45;&gt;Node23</title>
<path fill="none" stroke="midnightblue" d="M797.77,-168.44C822.89,-159.4 862.71,-145.06 890.9,-134.92"/>
<polygon fill="midnightblue" stroke="midnightblue" points="892.12,-138.2 900.34,-131.52 889.75,-131.61 892.12,-138.2"/>
</g>
<!-- Node3 -->
<g id="node3" class="node">
<title>Node3</title>
<g id="a_node3"><a xlink:title=" ">
<polygon fill="white" stroke="#bfbfbf" points="0,-0.5 0,-19.5 56,-19.5 56,-0.5 0,-0.5"/>
<text text-anchor="middle" x="28" y="-7.5" font-family="Helvetica,sans-Serif" font-size="10.00">assert.h</text>
</a>
</g>
</g>
<!-- Node2&#45;&gt;Node3 -->
<g id="edge2" class="edge">
<title>Node2&#45;&gt;Node3</title>
<path fill="none" stroke="midnightblue" d="M600.43,-64.28C516.49,-61.94 275.39,-52.79 66.13,-19.93"/>
<polygon fill="midnightblue" stroke="midnightblue" points="66.61,-16.46 56.19,-18.35 65.51,-23.38 66.61,-16.46"/>
</g>
<!-- Node4 -->
<g id="node4" class="node">
<title>Node4</title>
<g id="a_node4"><a xlink:title=" ">
<polygon fill="white" stroke="#bfbfbf" points="74.5,-0.5 74.5,-19.5 127.5,-19.5 127.5,-0.5 74.5,-0.5"/>
<text text-anchor="middle" x="101" y="-7.5" font-family="Helvetica,sans-Serif" font-size="10.00">ctype.h</text>
</a>
</g>
</g>
<!-- Node2&#45;&gt;Node4 -->
<g id="edge3" class="edge">
<title>Node2&#45;&gt;Node4</title>
<path fill="none" stroke="midnightblue" d="M600.36,-63.93C523.76,-60.89 317.73,-50.48 137.57,-20.03"/>
<polygon fill="midnightblue" stroke="midnightblue" points="138.1,-16.57 127.66,-18.33 136.92,-23.47 138.1,-16.57"/>
</g>
<!-- Node5 -->
<g id="node5" class="node">
<title>Node5</title>
<g id="a_node5"><a xlink:title=" ">
<polygon fill="white" stroke="#bfbfbf" points="145.5,-0.5 145.5,-19.5 196.5,-19.5 196.5,-0.5 145.5,-0.5"/>
<text text-anchor="middle" x="171" y="-7.5" font-family="Helvetica,sans-Serif" font-size="10.00">errno.h</text>
</a>
</g>
</g>
<!-- Node2&#45;&gt;Node5 -->
<g id="edge4" class="edge">
<title>Node2&#45;&gt;Node5</title>
<path fill="none" stroke="midnightblue" d="M600.29,-63.38C531.41,-59.39 359.26,-47.52 206.55,-20.04"/>
<polygon fill="midnightblue" stroke="midnightblue" points="206.99,-16.56 196.52,-18.21 205.73,-23.45 206.99,-16.56"/>
</g>
<!-- Node6 -->
<g id="node6" class="node">
<title>Node6</title>
<g id="a_node6"><a xlink:title=" ">
<polygon fill="white" stroke="#bfbfbf" points="214.5,-0.5 214.5,-19.5 261.5,-19.5 261.5,-0.5 214.5,-0.5"/>
<text text-anchor="middle" x="238" y="-7.5" font-family="Helvetica,sans-Serif" font-size="10.00">fcntl.h</text>
</a>
</g>
</g>
<!-- Node2&#45;&gt;Node6 -->
<g id="edge5" class="edge">
<title>Node2&#45;&gt;Node6</title>
<path fill="none" stroke="midnightblue" d="M600.32,-62.74C539.33,-57.91 398.43,-45.09 271.56,-20.07"/>
<polygon fill="midnightblue" stroke="midnightblue" points="272.16,-16.62 261.67,-18.08 270.79,-23.48 272.16,-16.62"/>
</g>
<!-- Node7 -->
<g id="node7" class="node">
<title>Node7</title>
<g id="a_node7"><a xlink:title=" ">
<polygon fill="white" stroke="#bfbfbf" points="279.5,-0.5 279.5,-19.5 326.5,-19.5 326.5,-0.5 279.5,-0.5"/>
<text text-anchor="middle" x="303" y="-7.5" font-family="Helvetica,sans-Serif" font-size="10.00">float.h</text>
</a>
</g>
</g>
<!-- Node2&#45;&gt;Node7 -->
<g id="edge6" class="edge">
<title>Node2&#45;&gt;Node7</title>
<path fill="none" stroke="midnightblue" d="M600.09,-61.57C547.68,-55.49 437.92,-41.57 336.47,-20.11"/>
<polygon fill="midnightblue" stroke="midnightblue" points="337.2,-16.69 326.68,-18.01 335.73,-23.53 337.2,-16.69"/>
</g>
<!-- Node8 -->
<g id="node8" class="node">
<title>Node8</title>
<g id="a_node8"><a xlink:title=" ">
<polygon fill="white" stroke="#bfbfbf" points="344.5,-0.5 344.5,-19.5 395.5,-19.5 395.5,-0.5 344.5,-0.5"/>
<text text-anchor="middle" x="370" y="-7.5" font-family="Helvetica,sans-Serif" font-size="10.00">math.h</text>
</a>
</g>
</g>
<!-- Node2&#45;&gt;Node8 -->
<g id="edge7" class="edge">
<title>Node2&#45;&gt;Node8</title>
<path fill="none" stroke="midnightblue" d="M600.39,-59.57C558.55,-52 480.91,-37.47 405.69,-20.29"/>
<polygon fill="midnightblue" stroke="midnightblue" points="406.11,-16.79 395.58,-17.96 404.54,-23.61 406.11,-16.79"/>
</g>
<!-- Node9 -->
<g id="node9" class="node">
<title>Node9</title>
<g id="a_node9"><a xlink:title=" ">
<polygon fill="white" stroke="#bfbfbf" points="413.5,-0.5 413.5,-19.5 476.5,-19.5 476.5,-0.5 413.5,-0.5"/>
<text text-anchor="middle" x="445" y="-7.5" font-family="Helvetica,sans-Serif" font-size="10.00">pthread.h</text>
</a>
</g>
</g>
<!-- Node2&#45;&gt;Node9 -->
<g id="edge8" class="edge">
<title>Node2&#45;&gt;Node9</title>
<path fill="none" stroke="midnightblue" d="M601.53,-56.44C569.83,-47.24 519.27,-32.56 484.23,-22.39"/>
<polygon fill="midnightblue" stroke="midnightblue" points="484.91,-18.94 474.33,-19.52 482.96,-25.67 484.91,-18.94"/>
</g>
<!-- Node10 -->
<g id="node10" class="node">
<title>Node10</title>
<g id="a_node10"><a xlink:title=" ">
<polygon fill="white" stroke="#bfbfbf" points="495,-0.5 495,-19.5 551,-19.5 551,-0.5 495,-0.5"/>
<text text-anchor="middle" x="523" y="-7.5" font-family="Helvetica,sans-Serif" font-size="10.00">stdarg.h</text>
</a>
</g>
</g>
<!-- Node2&#45;&gt;Node10 -->
<g id="edge9" class="edge">
<title>Node2&#45;&gt;Node10</title>
<path fill="none" stroke="midnightblue" d="M613.65,-56.32C596.33,-47.66 569.48,-34.24 549.5,-24.25"/>
<polygon fill="midnightblue" stroke="midnightblue" points="550.82,-21 540.31,-19.65 547.69,-27.26 550.82,-21"/>
</g>
<!-- Node11 -->
<g id="node11" class="node">
<title>Node11</title>
<g id="a_node11"><a xlink:title=" ">
<polygon fill="white" stroke="#bfbfbf" points="569.5,-0.5 569.5,-19.5 622.5,-19.5 622.5,-0.5 569.5,-0.5"/>
<text text-anchor="middle" x="596" y="-7.5" font-family="Helvetica,sans-Serif" font-size="10.00">stdint.h</text>
</a>
</g>
</g>
<!-- Node2&#45;&gt;Node11 -->
<g id="edge10" class="edge">
<title>Node2&#45;&gt;Node11</title>
<path fill="none" stroke="midnightblue" d="M625.22,-56.08C620.33,-48.53 613.17,-37.49 607.17,-28.23"/>
<polygon fill="midnightblue" stroke="midnightblue" points="610.05,-26.24 601.67,-19.75 604.17,-30.05 610.05,-26.24"/>
</g>
<!-- Node12 -->
<g id="node12" class="node">
<title>Node12</title>
<g id="a_node12"><a xlink:title=" ">
<polygon fill="white" stroke="#bfbfbf" points="641,-0.5 641,-19.5 691,-19.5 691,-0.5 641,-0.5"/>
<text text-anchor="middle" x="666" y="-7.5" font-family="Helvetica,sans-Serif" font-size="10.00">stdio.h</text>
</a>
</g>
</g>
<!-- Node2&#45;&gt;Node12 -->
<g id="edge11" class="edge">
<title>Node2&#45;&gt;Node12</title>
<path fill="none" stroke="midnightblue" d="M636.78,-56.08C641.67,-48.53 648.83,-37.49 654.83,-28.23"/>
<polygon fill="midnightblue" stroke="midnightblue" points="657.83,-30.05 660.33,-19.75 651.95,-26.24 657.83,-30.05"/>
</g>
<!-- Node13 -->
<g id="node13" class="node">
<title>Node13</title>
<g id="a_node13"><a xlink:title=" ">
<polygon fill="white" stroke="#bfbfbf" points="709.5,-0.5 709.5,-19.5 762.5,-19.5 762.5,-0.5 709.5,-0.5"/>
<text text-anchor="middle" x="736" y="-7.5" font-family="Helvetica,sans-Serif" font-size="10.00">stdlib.h</text>
</a>
</g>
</g>
<!-- Node2&#45;&gt;Node13 -->
<g id="edge12" class="edge">
<title>Node2&#45;&gt;Node13</title>
<path fill="none" stroke="midnightblue" d="M647.87,-56.32C664.71,-47.66 690.81,-34.24 710.24,-24.25"/>
<polygon fill="midnightblue" stroke="midnightblue" points="711.88,-27.34 719.17,-19.65 708.68,-21.12 711.88,-27.34"/>
</g>
<!-- Node14 -->
<g id="node14" class="node">
<title>Node14</title>
<g id="a_node14"><a xlink:title=" ">
<polygon fill="white" stroke="#bfbfbf" points="780.5,-0.5 780.5,-19.5 833.5,-19.5 833.5,-0.5 780.5,-0.5"/>
<text text-anchor="middle" x="807" y="-7.5" font-family="Helvetica,sans-Serif" font-size="10.00">string.h</text>
</a>
</g>
</g>
<!-- Node2&#45;&gt;Node14 -->
<g id="edge13" class="edge">
<title>Node2&#45;&gt;Node14</title>
<path fill="none" stroke="midnightblue" d="M658.89,-56.44C689.11,-47.17 737.44,-32.34 770.62,-22.16"/>
<polygon fill="midnightblue" stroke="midnightblue" points="771.86,-25.44 780.39,-19.16 769.81,-18.75 771.86,-25.44"/>
</g>
<!-- Node15 -->
<g id="node15" class="node">
<title>Node15</title>
<g id="a_node15"><a xlink:title=" ">
<polygon fill="white" stroke="#bfbfbf" points="851.5,-0.5 851.5,-19.5 928.5,-19.5 928.5,-0.5 851.5,-0.5"/>
<text text-anchor="middle" x="890" y="-7.5" font-family="Helvetica,sans-Serif" font-size="10.00">sys/mman.h</text>
</a>
</g>
</g>
<!-- Node2&#45;&gt;Node15 -->
<g id="edge14" class="edge">
<title>Node2&#45;&gt;Node15</title>
<path fill="none" stroke="midnightblue" d="M661.73,-58.59C706.16,-49.33 788.8,-32.1 841.51,-21.11"/>
<polygon fill="midnightblue" stroke="midnightblue" points="842.24,-24.53 851.31,-19.07 840.81,-17.68 842.24,-24.53"/>
</g>
<!-- Node16 -->
<g id="node16" class="node">
<title>Node16</title>
<g id="a_node16"><a xlink:title=" ">
<polygon fill="white" stroke="#bfbfbf" points="947,-0.5 947,-19.5 1011,-19.5 1011,-0.5 947,-0.5"/>
<text text-anchor="middle" x="979" y="-7.5" font-family="Helvetica,sans-Serif" font-size="10.00">sys/stat.h</text>
</a>
</g>
</g>
<!-- Node2&#45;&gt;Node16 -->
<g id="edge15" class="edge">
<title>Node2&#45;&gt;Node16</title>
<path fill="none" stroke="midnightblue" d="M661.62,-61.24C715.3,-54.49 830.09,-39.36 936.84,-20.11"/>
<polygon fill="midnightblue" stroke="midnightblue" points="937.6,-23.52 946.81,-18.29 936.35,-16.64 937.6,-23.52"/>
</g>
<!-- Node17 -->
<g id="node17" class="node">
<title>Node17</title>
<g id="a_node17"><a xlink:title=" ">
<polygon fill="white" stroke="#bfbfbf" points="1183,-0.5 1183,-19.5 1231,-19.5 1231,-0.5 1183,-0.5"/>
<text text-anchor="middle" x="1207" y="-7.5" font-family="Helvetica,sans-Serif" font-size="10.00">time.h</text>
</a>
</g>
</g>
<!-- Node2&#45;&gt;Node17 -->
<g id="edge16" class="edge">
<title>Node2&#45;&gt;Node17</title>
<path fill="none" stroke="midnightblue" d="M661.8,-60.82C674.53,-59.18 689.46,-57.36 703,-56 908.62,-35.3 965.36,-55.14 1172.97,-19.84"/>
<polygon fill="midnightblue" stroke="midnightblue" points="1173.71,-23.27 1182.97,-18.12 1172.52,-16.37 1173.71,-23.27"/>
</g>
<!-- Node18 -->
<g id="node18" class="node">
<title>Node18</title>
<g id="a_node18"><a xlink:title=" ">
<polygon fill="white" stroke="#bfbfbf" points="1029,-0.5 1029,-19.5 1085,-19.5 1085,-0.5 1029,-0.5"/>
<text text-anchor="middle" x="1057" y="-7.5" font-family="Helvetica,sans-Serif" font-size="10.00">unistd.h</text>
</a>
</g>
</g>
<!-- Node2&#45;&gt;Node18 -->
<g id="edge17" class="edge">
<title>Node2&#45;&gt;Node18</title>
<path fill="none" stroke="midnightblue" d="M661.82,-61.07C674.57,-59.46 689.49,-57.61 703,-56 840.5,-39.6 878.62,-44.56 1018.54,-20.06"/>
<polygon fill="midnightblue" stroke="midnightblue" points="1019.56,-23.44 1028.8,-18.25 1018.34,-16.54 1019.56,-23.44"/>
</g>
<!-- Node19 -->
<g id="node19" class="node">
<title>Node19</title>
<g id="a_node19"><a xlink:title=" ">
<polygon fill="white" stroke="#bfbfbf" points="1103,-0.5 1103,-19.5 1165,-19.5 1165,-0.5 1103,-0.5"/>
<text text-anchor="middle" x="1134" y="-7.5" font-family="Helvetica,sans-Serif" font-size="10.00">stdbool.h</text>
</a>
</g>
</g>
<!-- Node2&#45;&gt;Node19 -->
<g id="edge18" class="edge">
<title>Node2&#45;&gt;Node19</title>
<path fill="none" stroke="midnightblue" d="M661.81,-60.93C674.55,-59.3 689.47,-57.47 703,-56 873.28,-37.52 919.9,-46.85 1092.69,-20.02"/>
<polygon fill="midnightblue" stroke="midnightblue" points="1093.3,-23.47 1102.63,-18.46 1092.21,-16.56 1093.3,-23.47"/>
</g>
<!-- Node20&#45;&gt;Node2 -->
<g id="edge22" class="edge">
<title>Node20&#45;&gt;Node2</title>
<path fill="none" stroke="midnightblue" d="M703.18,-112.32C689.77,-103.9 669.18,-90.97 653.41,-81.07"/>
<polygon fill="midnightblue" stroke="midnightblue" points="655.11,-78.01 644.78,-75.65 651.39,-83.94 655.11,-78.01"/>
</g>
<!-- Node20&#45;&gt;Node17 -->
<g id="edge21" class="edge">
<title>Node20&#45;&gt;Node17</title>
<path fill="none" stroke="midnightblue" d="M716.83,-112.16C717.08,-97.84 719.89,-69.76 737,-56 810.64,3.21 1062.16,-34.44 1173,-19.65"/>
<polygon fill="midnightblue" stroke="midnightblue" points="1173.62,-23.09 1182.97,-18.1 1172.55,-16.18 1173.62,-23.09"/>
</g>
<!-- Node21 -->
<g id="node21" class="node">
<title>Node21</title>
<g id="a_node21"><a xlink:title=" ">
<polygon fill="white" stroke="#bfbfbf" points="745.5,-56.5 745.5,-75.5 798.5,-75.5 798.5,-56.5 745.5,-56.5"/>
<text text-anchor="middle" x="772" y="-63.5" font-family="Helvetica,sans-Serif" font-size="10.00">limits.h</text>
</a>
</g>
</g>
<!-- Node20&#45;&gt;Node21 -->
<g id="edge20" class="edge">
<title>Node20&#45;&gt;Node21</title>
<path fill="none" stroke="midnightblue" d="M726.08,-112.08C734.17,-104.14 746.2,-92.34 755.91,-82.8"/>
<polygon fill="midnightblue" stroke="midnightblue" points="758.4,-85.25 763.09,-75.75 753.5,-80.26 758.4,-85.25"/>
</g>
</g>
</svg>
