<?xml version="1.0" encoding="UTF-8" standalone="no"?>
<!DOCTYPE svg PUBLIC "-//W3C//DTD SVG 1.1//EN"
 "http://www.w3.org/Graphics/SVG/1.1/DTD/svg11.dtd">
<!-- Generated by graphviz version 2.43.0 (0)
 -->
<!-- Title: src/Common/Socket.h Pages: 1 -->
<svg width="882pt" height="93pt"
 viewBox="0.00 0.00 881.50 93.00" xmlns="http://www.w3.org/2000/svg" xmlns:xlink="http://www.w3.org/1999/xlink">
<g id="graph0" class="graph" transform="scale(1 1) rotate(0) translate(4 89)">
<title>src/Common/Socket.h</title>
<!-- Node1 -->
<g id="Node000001" class="node">
<title>Node1</title>
<g id="a_Node000001"><a xlink:title="Simplified Socket Communication Utilities.">
<polygon fill="#999999" stroke="#666666" points="462.5,-85 340.5,-85 340.5,-66 462.5,-66 462.5,-85"/>
<text text-anchor="middle" x="401.5" y="-73" font-family="Helvetica,sans-Serif" font-size="10.00">src/Common/Socket.h</text>
</a>
</g>
</g>
<!-- Node2 -->
<g id="Node000002" class="node">
<title>Node2</title>
<g id="a_Node000002"><a xlink:href="CommProtocols_2Modbus_8c.html" target="_top" xlink:title="Implementation of Modbus protocol handling.">
<polygon fill="white" stroke="#666666" points="161,-24.5 0,-24.5 0,-5.5 161,-5.5 161,-24.5"/>
<text text-anchor="middle" x="80.5" y="-12.5" font-family="Helvetica,sans-Serif" font-size="10.00">src/CommProtocols/Modbus.c</text>
</a>
</g>
</g>
<!-- Node1&#45;&gt;Node2 -->
<g id="edge1_Node000001_Node000002" class="edge">
<title>Node1&#45;&gt;Node2</title>
<g id="a_edge1_Node000001_Node000002"><a xlink:title=" ">
<path fill="none" stroke="#63b8ff" d="M344.83,-64.17C282.93,-52.89 184.91,-35.03 127.23,-24.52"/>
<polygon fill="#63b8ff" stroke="#63b8ff" points="344.36,-67.64 354.82,-65.99 345.61,-60.76 344.36,-67.64"/>
</a>
</g>
</g>
<!-- Node3 -->
<g id="Node000003" class="node">
<title>Node3</title>
<g id="a_Node000003"><a xlink:href="Socket_8c.html" target="_top" xlink:title="Implementation of Socket Communication Utilities.">
<polygon fill="white" stroke="#666666" points="301.5,-24.5 179.5,-24.5 179.5,-5.5 301.5,-5.5 301.5,-24.5"/>
<text text-anchor="middle" x="240.5" y="-12.5" font-family="Helvetica,sans-Serif" font-size="10.00">src/Common/Socket.c</text>
</a>
</g>
</g>
<!-- Node1&#45;&gt;Node3 -->
<g id="edge2_Node000001_Node000003" class="edge">
<title>Node1&#45;&gt;Node3</title>
<g id="a_edge2_Node000001_Node000003"><a xlink:title=" ">
<path fill="none" stroke="#63b8ff" d="M368.54,-62.52C337.41,-51.21 291.5,-34.53 263.94,-24.52"/>
<polygon fill="#63b8ff" stroke="#63b8ff" points="367.5,-65.87 378.09,-65.99 369.89,-59.29 367.5,-65.87"/>
</a>
</g>
</g>
<!-- Node4 -->
<g id="Node000004" class="node">
<title>Node4</title>
<g id="a_Node000004"><a xlink:href="DataHandlers_2ModbusWithPostgres_2Modbus_8c.html" target="_top" xlink:title=" ">
<polygon fill="white" stroke="#666666" points="483.5,-30 319.5,-30 319.5,0 483.5,0 483.5,-30"/>
<text text-anchor="start" x="327.5" y="-18" font-family="Helvetica,sans-Serif" font-size="10.00">src/DataHandlers/ModbusWith</text>
<text text-anchor="middle" x="401.5" y="-7" font-family="Helvetica,sans-Serif" font-size="10.00">Postgres/Modbus.c</text>
</a>
</g>
</g>
<!-- Node1&#45;&gt;Node4 -->
<g id="edge3_Node000001_Node000004" class="edge">
<title>Node1&#45;&gt;Node4</title>
<g id="a_edge3_Node000001_Node000004"><a xlink:title=" ">
<path fill="none" stroke="#63b8ff" d="M401.5,-55.65C401.5,-47.36 401.5,-37.78 401.5,-30.11"/>
<polygon fill="#63b8ff" stroke="#63b8ff" points="398,-55.87 401.5,-65.87 405,-55.87 398,-55.87"/>
</a>
</g>
</g>
<!-- Node5 -->
<g id="Node000005" class="node">
<title>Node5</title>
<g id="a_Node000005"><a xlink:href="ModbusTestServer_8c.html" target="_top" xlink:title="Implementation of Modbus Test Server.">
<polygon fill="white" stroke="#666666" points="677.5,-24.5 501.5,-24.5 501.5,-5.5 677.5,-5.5 677.5,-24.5"/>
<text text-anchor="middle" x="589.5" y="-12.5" font-family="Helvetica,sans-Serif" font-size="10.00">src/DevUtils/ModbusTestServer.c</text>
</a>
</g>
</g>
<!-- Node1&#45;&gt;Node5 -->
<g id="edge4_Node000001_Node000005" class="edge">
<title>Node1&#45;&gt;Node5</title>
<g id="a_edge4_Node000001_Node000005"><a xlink:title=" ">
<path fill="none" stroke="#63b8ff" d="M438.58,-62.96C474.94,-51.65 529.53,-34.66 562.13,-24.52"/>
<polygon fill="#63b8ff" stroke="#63b8ff" points="437.35,-59.68 428.84,-65.99 439.43,-66.36 437.35,-59.68"/>
</a>
</g>
</g>
<!-- Node6 -->
<g id="Node000006" class="node">
<title>Node6</title>
<g id="a_Node000006"><a xlink:href="TestDataGenerator_8c.html" target="_top" xlink:title=" ">
<polygon fill="white" stroke="#666666" points="873.5,-24.5 695.5,-24.5 695.5,-5.5 873.5,-5.5 873.5,-24.5"/>
<text text-anchor="middle" x="784.5" y="-12.5" font-family="Helvetica,sans-Serif" font-size="10.00">src/DevUtils/TestDataGenerator.c</text>
</a>
</g>
</g>
<!-- Node1&#45;&gt;Node6 -->
<g id="edge5_Node000001_Node000006" class="edge">
<title>Node1&#45;&gt;Node6</title>
<g id="a_edge5_Node000001_Node000006"><a xlink:title=" ">
<path fill="none" stroke="#63b8ff" d="M467.29,-64.45C541.04,-53.19 659.36,-35.11 728.74,-24.52"/>
<polygon fill="#63b8ff" stroke="#63b8ff" points="466.55,-61.02 457.19,-65.99 467.61,-67.94 466.55,-61.02"/>
</a>
</g>
</g>
</g>
</svg>
