<?xml version="1.0" encoding="UTF-8" standalone="no"?>
<!DOCTYPE svg PUBLIC "-//W3C//DTD SVG 1.1//EN"
 "http://www.w3.org/Graphics/SVG/1.1/DTD/svg11.dtd">
<!-- Generated by graphviz version 2.43.0 (0)
 -->
<!-- Title: src/Common/Socket.h Pages: 1 -->
<svg width="882pt" height="95pt"
 viewBox="0.00 0.00 882.00 95.00" xmlns="http://www.w3.org/2000/svg" xmlns:xlink="http://www.w3.org/1999/xlink">
<g id="graph0" class="graph" transform="scale(1 1) rotate(0) translate(4 91)">
<title>src/Common/Socket.h</title>
<polygon fill="white" stroke="transparent" points="-4,4 -4,-91 878,-91 878,4 -4,4"/>
<!-- Node1 -->
<g id="node1" class="node">
<title>Node1</title>
<g id="a_node1"><a xlink:title="Simplified Socket Communication Utilities.">
<polygon fill="#bfbfbf" stroke="black" points="341,-67.5 341,-86.5 463,-86.5 463,-67.5 341,-67.5"/>
<text text-anchor="middle" x="402" y="-74.5" font-family="Helvetica,sans-Serif" font-size="10.00">src/Common/Socket.h</text>
</a>
</g>
</g>
<!-- Node2 -->
<g id="node2" class="node">
<title>Node2</title>
<g id="a_node2"><a xlink:href="Socket_8c.html" target="_top" xlink:title="Implementation of Socket Communication Utilities.">
<polygon fill="white" stroke="black" points="0,-6 0,-25 122,-25 122,-6 0,-6"/>
<text text-anchor="middle" x="61" y="-13" font-family="Helvetica,sans-Serif" font-size="10.00">src/Common/Socket.c</text>
</a>
</g>
</g>
<!-- Node1&#45;&gt;Node2 -->
<g id="edge1" class="edge">
<title>Node1&#45;&gt;Node2</title>
<path fill="none" stroke="midnightblue" d="M336.65,-65.89C281.68,-57.22 201.07,-44.07 131,-31 121.24,-29.18 110.74,-27.08 100.92,-25.06"/>
<polygon fill="midnightblue" stroke="midnightblue" points="336.19,-69.36 346.61,-67.46 337.28,-62.45 336.19,-69.36"/>
</g>
<!-- Node3 -->
<g id="node3" class="node">
<title>Node3</title>
<g id="a_node3"><a xlink:href="CommProtocols_2Modbus_8c.html" target="_top" xlink:title="Implementation of Modbus protocol handling.">
<polygon fill="white" stroke="black" points="140.5,-6 140.5,-25 301.5,-25 301.5,-6 140.5,-6"/>
<text text-anchor="middle" x="221" y="-13" font-family="Helvetica,sans-Serif" font-size="10.00">src/CommProtocols/Modbus.c</text>
</a>
</g>
</g>
<!-- Node1&#45;&gt;Node3 -->
<g id="edge2" class="edge">
<title>Node1&#45;&gt;Node3</title>
<path fill="none" stroke="midnightblue" d="M366.2,-64.23C331.02,-52.67 278.18,-35.3 246.88,-25.01"/>
<polygon fill="midnightblue" stroke="midnightblue" points="365.47,-67.68 376.07,-67.48 367.66,-61.03 365.47,-67.68"/>
</g>
<!-- Node4 -->
<g id="node4" class="node">
<title>Node4</title>
<g id="a_node4"><a xlink:href="DataHandlers_2ModbusWithPostgres_2Modbus_8c.html" target="_top" xlink:title=" ">
<polygon fill="white" stroke="black" points="320,-0.5 320,-30.5 484,-30.5 484,-0.5 320,-0.5"/>
<text text-anchor="start" x="328" y="-18.5" font-family="Helvetica,sans-Serif" font-size="10.00">src/DataHandlers/ModbusWith</text>
<text text-anchor="middle" x="402" y="-7.5" font-family="Helvetica,sans-Serif" font-size="10.00">Postgres/Modbus.c</text>
</a>
</g>
</g>
<!-- Node1&#45;&gt;Node4 -->
<g id="edge3" class="edge">
<title>Node1&#45;&gt;Node4</title>
<path fill="none" stroke="midnightblue" d="M402,-57.23C402,-48.59 402,-38.5 402,-30.52"/>
<polygon fill="midnightblue" stroke="midnightblue" points="398.5,-57.48 402,-67.48 405.5,-57.48 398.5,-57.48"/>
</g>
<!-- Node5 -->
<g id="node5" class="node">
<title>Node5</title>
<g id="a_node5"><a xlink:href="ModbusTestServer_8c.html" target="_top" xlink:title="Implementation of Modbus Test Server.">
<polygon fill="white" stroke="black" points="502,-6 502,-25 678,-25 678,-6 502,-6"/>
<text text-anchor="middle" x="590" y="-13" font-family="Helvetica,sans-Serif" font-size="10.00">src/DevUtils/ModbusTestServer.c</text>
</a>
</g>
</g>
<!-- Node1&#45;&gt;Node5 -->
<g id="edge4" class="edge">
<title>Node1&#45;&gt;Node5</title>
<path fill="none" stroke="midnightblue" d="M438.71,-64.38C475.26,-52.82 530.47,-35.34 563.11,-25.01"/>
<polygon fill="midnightblue" stroke="midnightblue" points="437.41,-61.12 428.94,-67.48 439.53,-67.79 437.41,-61.12"/>
</g>
<!-- Node6 -->
<g id="node6" class="node">
<title>Node6</title>
<g id="a_node6"><a xlink:href="TestDataGenerator_8c.html" target="_top" xlink:title=" ">
<polygon fill="white" stroke="black" points="696,-6 696,-25 874,-25 874,-6 696,-6"/>
<text text-anchor="middle" x="785" y="-13" font-family="Helvetica,sans-Serif" font-size="10.00">src/DevUtils/TestDataGenerator.c</text>
</a>
</g>
</g>
<!-- Node1&#45;&gt;Node6 -->
<g id="edge5" class="edge">
<title>Node1&#45;&gt;Node6</title>
<path fill="none" stroke="midnightblue" d="M467.01,-65.9C541.05,-54.4 660.74,-35.8 730.23,-25.01"/>
<polygon fill="midnightblue" stroke="midnightblue" points="466.22,-62.48 456.87,-67.48 467.29,-69.4 466.22,-62.48"/>
</g>
</g>
</svg>
