<?xml version="1.0" encoding="UTF-8" standalone="no"?>
<!DOCTYPE svg PUBLIC "-//W3C//DTD SVG 1.1//EN"
 "http://www.w3.org/Graphics/SVG/1.1/DTD/svg11.dtd">
<!-- Generated by graphviz version 2.43.0 (0)
 -->
<!-- Title: tg_manager Pages: 1 -->
<svg width="98pt" height="95pt"
 viewBox="0.00 0.00 97.85 95.00" xmlns="http://www.w3.org/2000/svg" xmlns:xlink="http://www.w3.org/1999/xlink">
<g id="graph0" class="graph" transform="scale(1 1) rotate(0) translate(4 91)">
<title>tg_manager</title>
<polygon fill="white" stroke="transparent" points="-4,4 -4,-91 93.85,-91 93.85,4 -4,4"/>
<!-- Node1 -->
<g id="node1" class="node">
<title>Node1</title>
<g id="a_node1"><a xlink:title="Thread Group Manager Structure.">
<polygon fill="#bfbfbf" stroke="black" points="1.35,-67.5 1.35,-86.5 76.35,-86.5 76.35,-67.5 1.35,-67.5"/>
<text text-anchor="middle" x="38.85" y="-74.5" font-family="Helvetica,sans-Serif" font-size="10.00">tg_manager</text>
</a>
</g>
</g>
<!-- Node2 -->
<g id="node2" class="node">
<title>Node2</title>
<g id="a_node2"><a xlink:href="structtg__group.html" target="_top" xlink:title="Thread Group Structure.">
<polygon fill="white" stroke="black" points="9.35,-0.5 9.35,-19.5 68.35,-19.5 68.35,-0.5 9.35,-0.5"/>
<text text-anchor="middle" x="38.85" y="-7.5" font-family="Helvetica,sans-Serif" font-size="10.00">tg_group</text>
</a>
</g>
</g>
<!-- Node1&#45;&gt;Node2 -->
<g id="edge2" class="edge">
<title>Node1&#45;&gt;Node2</title>
<path fill="none" stroke="#9a32cd" stroke-dasharray="5,2" d="M12.08,-61.35C7.96,-57.87 4.27,-53.75 1.85,-49 -4.19,-37.1 8.48,-26.49 20.61,-19.52"/>
<polygon fill="#9a32cd" stroke="#9a32cd" points="10.18,-64.29 20.34,-67.28 14.26,-58.61 10.18,-64.29"/>
<text text-anchor="middle" x="24.85" y="-41" font-family="Helvetica,sans-Serif" font-size="10.00"> Manager</text>
</g>
<!-- Node2&#45;&gt;Node1 -->
<g id="edge1" class="edge">
<title>Node2&#45;&gt;Node1</title>
<path fill="none" stroke="#9a32cd" stroke-dasharray="5,2" d="M49.2,-28.61C51.77,-34.95 53.4,-42.22 51.85,-49 50.37,-55.49 47.12,-62.24 44.24,-67.37"/>
<polygon fill="#9a32cd" stroke="#9a32cd" points="52.31,-26.99 44.72,-19.6 46.04,-30.11 52.31,-26.99"/>
<text text-anchor="middle" x="70.85" y="-41" font-family="Helvetica,sans-Serif" font-size="10.00"> Groups</text>
</g>
</g>
</svg>
