<?xml version="1.0" encoding="UTF-8" standalone="no"?>
<!DOCTYPE svg PUBLIC "-//W3C//DTD SVG 1.1//EN"
 "http://www.w3.org/Graphics/SVG/1.1/DTD/svg11.dtd">
<!-- Generated by graphviz version 2.43.0 (0)
 -->
<!-- Title: internal_hooks::reallocate Pages: 1 -->
<svg width="1103pt" height="222pt"
 viewBox="0.00 0.00 1103.00 222.33" xmlns="http://www.w3.org/2000/svg" xmlns:xlink="http://www.w3.org/1999/xlink">
<g id="graph0" class="graph" transform="scale(1 1) rotate(0) translate(4 218.33)">
<title>internal_hooks::reallocate</title>
<!-- Node1 -->
<g id="Node000001" class="node">
<title>Node1</title>
<g id="a_Node000001"><a xlink:title=" ">
<polygon fill="#999999" stroke="#666666" points="1095,-104.5 952,-104.5 952,-85.5 1095,-85.5 1095,-104.5"/>
<text text-anchor="middle" x="1023.5" y="-92.5" font-family="Helvetica,sans-Serif" font-size="10.00">internal_hooks::reallocate</text>
</a>
</g>
</g>
<!-- Node2 -->
<g id="Node000002" class="node">
<title>Node2</title>
<g id="a_Node000002"><a xlink:href="cJSON_8c.html#a9e943a63b19411e07fe82f46a56e35e5" target="_top" xlink:title=" ">
<polygon fill="white" stroke="#666666" points="916,-141.5 828,-141.5 828,-122.5 916,-122.5 916,-141.5"/>
<text text-anchor="middle" x="872" y="-129.5" font-family="Helvetica,sans-Serif" font-size="10.00">CJSON_PUBLIC</text>
</a>
</g>
</g>
<!-- Node1&#45;&gt;Node2 -->
<g id="edge1_Node000001_Node000002" class="edge">
<title>Node1&#45;&gt;Node2</title>
<g id="a_edge1_Node000001_Node000002"><a xlink:title=" ">
<path fill="none" stroke="#63b8ff" d="M974.04,-106.99C953.82,-112 930.67,-117.73 911.63,-122.44"/>
<polygon fill="#63b8ff" stroke="#63b8ff" points="975.13,-110.33 984,-104.53 973.45,-103.53 975.13,-110.33"/>
</a>
</g>
</g>
<!-- Node3 -->
<g id="Node000003" class="node">
<title>Node3</title>
<g id="a_Node000003"><a xlink:href="cJSON_8c.html#ad9f9a9b2ad3154fc8033756f23c023a6" target="_top" xlink:title=" ">
<polygon fill="white" stroke="#666666" points="897,-104.5 847,-104.5 847,-85.5 897,-85.5 897,-104.5"/>
<text text-anchor="middle" x="872" y="-92.5" font-family="Helvetica,sans-Serif" font-size="10.00">ensure</text>
</a>
</g>
</g>
<!-- Node1&#45;&gt;Node3 -->
<g id="edge2_Node000001_Node000003" class="edge">
<title>Node1&#45;&gt;Node3</title>
<g id="a_edge2_Node000001_Node000003"><a xlink:title=" ">
<path fill="none" stroke="#63b8ff" d="M941.57,-95C925.35,-95 909.52,-95 897.16,-95"/>
<polygon fill="#63b8ff" stroke="#63b8ff" points="941.69,-98.5 951.69,-95 941.69,-91.5 941.69,-98.5"/>
</a>
</g>
</g>
<!-- Node7 -->
<g id="Node000007" class="node">
<title>Node7</title>
<g id="a_Node000007"><a xlink:href="cJSON_8c.html#a36b0c212c0d382a4714afa8b70c1a2ee" target="_top" xlink:title=" ">
<polygon fill="white" stroke="#666666" points="402.5,-48.5 363.5,-48.5 363.5,-29.5 402.5,-29.5 402.5,-48.5"/>
<text text-anchor="middle" x="383" y="-36.5" font-family="Helvetica,sans-Serif" font-size="10.00">print</text>
</a>
</g>
</g>
<!-- Node1&#45;&gt;Node7 -->
<g id="edge22_Node000001_Node000007" class="edge">
<title>Node1&#45;&gt;Node7</title>
<g id="a_edge22_Node000001_Node000007"><a xlink:title=" ">
<path fill="none" stroke="#63b8ff" d="M997.9,-80.26C950.96,-53.58 844.61,0 747.5,0 747.5,0 747.5,0 628,0 542.85,0 443.05,-23.45 402.51,-33.98"/>
<polygon fill="#63b8ff" stroke="#63b8ff" points="996.33,-83.39 1006.74,-85.37 999.83,-77.33 996.33,-83.39"/>
</a>
</g>
</g>
<!-- Node4 -->
<g id="Node000004" class="node">
<title>Node4</title>
<g id="a_Node000004"><a xlink:href="cJSON_8c.html#ae84642817f3965a85c7c617663250c16" target="_top" xlink:title=" ">
<polygon fill="white" stroke="#666666" points="664,-47.5 594,-47.5 594,-28.5 664,-28.5 664,-47.5"/>
<text text-anchor="middle" x="629" y="-35.5" font-family="Helvetica,sans-Serif" font-size="10.00">print_array</text>
</a>
</g>
</g>
<!-- Node3&#45;&gt;Node4 -->
<g id="edge3_Node000003_Node000004" class="edge">
<title>Node3&#45;&gt;Node4</title>
<g id="a_edge3_Node000003_Node000004"><a xlink:title=" ">
<path fill="none" stroke="#63b8ff" d="M845.46,-80.52C830.37,-72.61 810.62,-63.36 792,-58 748.97,-45.61 697.35,-40.89 664.13,-39.1"/>
<polygon fill="#63b8ff" stroke="#63b8ff" points="844.18,-83.81 854.65,-85.47 847.5,-77.64 844.18,-83.81"/>
</a>
</g>
</g>
<!-- Node5 -->
<g id="Node000005" class="node">
<title>Node5</title>
<g id="a_Node000005"><a xlink:href="cJSON_8c.html#a5ba141f183b9abb4b49e38a211299c7e" target="_top" xlink:title=" ">
<polygon fill="white" stroke="#666666" points="557,-104.5 486,-104.5 486,-85.5 557,-85.5 557,-104.5"/>
<text text-anchor="middle" x="521.5" y="-92.5" font-family="Helvetica,sans-Serif" font-size="10.00">print_value</text>
</a>
</g>
</g>
<!-- Node3&#45;&gt;Node5 -->
<g id="edge21_Node000003_Node000005" class="edge">
<title>Node3&#45;&gt;Node5</title>
<g id="a_edge21_Node000003_Node000005"><a xlink:title=" ">
<path fill="none" stroke="#63b8ff" d="M836.72,-96.79C784.23,-99.27 680.78,-103.11 593,-100 581.35,-99.59 568.64,-98.79 557.26,-97.96"/>
<polygon fill="#63b8ff" stroke="#63b8ff" points="837,-100.28 846.82,-96.3 836.66,-93.29 837,-100.28"/>
</a>
</g>
</g>
<!-- Node10 -->
<g id="Node000010" class="node">
<title>Node10</title>
<g id="a_Node000010"><a xlink:href="cJSON_8c.html#a3d742f5c68799bca291432a9cd72f8dd" target="_top" xlink:title=" ">
<polygon fill="white" stroke="#666666" points="420,-179.5 346,-179.5 346,-160.5 420,-160.5 420,-179.5"/>
<text text-anchor="middle" x="383" y="-167.5" font-family="Helvetica,sans-Serif" font-size="10.00">print_object</text>
</a>
</g>
</g>
<!-- Node3&#45;&gt;Node10 -->
<g id="edge16_Node000003_Node000010" class="edge">
<title>Node3&#45;&gt;Node10</title>
<g id="a_edge16_Node000003_Node000010"><a xlink:title=" ">
<path fill="none" stroke="#63b8ff" d="M837.57,-107.34C834.16,-109.29 830.89,-111.51 828,-114 805.31,-133.57 817.28,-154.92 792,-171 669.77,-248.73 482.46,-201.64 412.05,-179.54"/>
<polygon fill="#63b8ff" stroke="#63b8ff" points="839.39,-110.34 846.78,-102.75 836.26,-104.07 839.39,-110.34"/>
</a>
</g>
</g>
<!-- Node11 -->
<g id="Node000011" class="node">
<title>Node11</title>
<g id="a_Node000011"><a xlink:href="cJSON_8c.html#ad93d84de08872da0eaa6624be0e74a68" target="_top" xlink:title=" ">
<polygon fill="white" stroke="#666666" points="787.5,-85.5 705.5,-85.5 705.5,-66.5 787.5,-66.5 787.5,-85.5"/>
<text text-anchor="middle" x="746.5" y="-73.5" font-family="Helvetica,sans-Serif" font-size="10.00">print_number</text>
</a>
</g>
</g>
<!-- Node3&#45;&gt;Node11 -->
<g id="edge14_Node000003_Node000011" class="edge">
<title>Node3&#45;&gt;Node11</title>
<g id="a_edge14_Node000003_Node000011"><a xlink:title=" ">
<path fill="none" stroke="#63b8ff" d="M836.84,-89.74C821.58,-87.4 803.49,-84.61 787.59,-82.17"/>
<polygon fill="#63b8ff" stroke="#63b8ff" points="836.48,-93.23 846.89,-91.29 837.54,-86.31 836.48,-93.23"/>
</a>
</g>
</g>
<!-- Node12 -->
<g id="Node000012" class="node">
<title>Node12</title>
<g id="a_Node000012"><a xlink:href="cJSON_8c.html#af5b4e769356f10d99a7f66697c42c1bb" target="_top" xlink:title=" ">
<polygon fill="white" stroke="#666666" points="792,-161.5 701,-161.5 701,-142.5 792,-142.5 792,-161.5"/>
<text text-anchor="middle" x="746.5" y="-149.5" font-family="Helvetica,sans-Serif" font-size="10.00">print_string_ptr</text>
</a>
</g>
</g>
<!-- Node3&#45;&gt;Node12 -->
<g id="edge17_Node000003_Node000012" class="edge">
<title>Node3&#45;&gt;Node12</title>
<g id="a_edge17_Node000003_Node000012"><a xlink:title=" ">
<path fill="none" stroke="#63b8ff" d="M839.9,-108.63C835.89,-110.42 831.84,-112.24 828,-114 807.2,-123.5 783.54,-134.72 767.29,-142.49"/>
<polygon fill="#63b8ff" stroke="#63b8ff" points="841.36,-111.81 849.08,-104.56 838.52,-105.42 841.36,-111.81"/>
</a>
</g>
</g>
<!-- Node4&#45;&gt;Node5 -->
<g id="edge4_Node000004_Node000005" class="edge">
<title>Node4&#45;&gt;Node5</title>
<g id="a_edge4_Node000004_Node000005"><a xlink:title=" ">
<path fill="none" stroke="#63b8ff" d="M589.78,-52.13C569.34,-62.5 545.76,-76.02 532.64,-85.34"/>
<polygon fill="#63b8ff" stroke="#63b8ff" points="591.48,-55.19 598.89,-47.62 588.38,-48.92 591.48,-55.19"/>
</a>
</g>
</g>
<!-- Node5&#45;&gt;Node4 -->
<g id="edge11_Node000005_Node000004" class="edge">
<title>Node5&#45;&gt;Node4</title>
<g id="a_edge11_Node000005_Node000004"><a xlink:title=" ">
<path fill="none" stroke="#63b8ff" d="M560.54,-80.96C581.03,-70.57 604.74,-56.98 617.88,-47.64"/>
<polygon fill="#63b8ff" stroke="#63b8ff" points="558.82,-77.91 551.4,-85.48 561.92,-84.18 558.82,-77.91"/>
</a>
</g>
</g>
<!-- Node6 -->
<g id="Node000006" class="node">
<title>Node6</title>
<g id="a_Node000006"><a xlink:href="cJSON_8c.html#a5ae150f0e5009534979d4532a411d077" target="_top" xlink:title=" ">
<polygon fill="white" stroke="#666666" points="450,-104.5 316,-104.5 316,-85.5 450,-85.5 450,-104.5"/>
<text text-anchor="middle" x="383" y="-92.5" font-family="Helvetica,sans-Serif" font-size="10.00">cJSON_PrintPreallocated</text>
</a>
</g>
</g>
<!-- Node5&#45;&gt;Node6 -->
<g id="edge5_Node000005_Node000006" class="edge">
<title>Node5&#45;&gt;Node6</title>
<g id="a_edge5_Node000005_Node000006"><a xlink:title=" ">
<path fill="none" stroke="#63b8ff" d="M475.64,-95C467.44,-95 458.73,-95 450.07,-95"/>
<polygon fill="#63b8ff" stroke="#63b8ff" points="475.7,-98.5 485.7,-95 475.7,-91.5 475.7,-98.5"/>
</a>
</g>
</g>
<!-- Node5&#45;&gt;Node7 -->
<g id="edge6_Node000005_Node000007" class="edge">
<title>Node5&#45;&gt;Node7</title>
<g id="a_edge6_Node000005_Node000007"><a xlink:title=" ">
<path fill="none" stroke="#63b8ff" d="M487.74,-81.56C461.17,-70.66 424.65,-55.67 402.77,-46.7"/>
<polygon fill="#63b8ff" stroke="#63b8ff" points="486.45,-84.82 497.03,-85.37 489.11,-78.34 486.45,-84.82"/>
</a>
</g>
</g>
<!-- Node5&#45;&gt;Node10 -->
<g id="edge12_Node000005_Node000010" class="edge">
<title>Node5&#45;&gt;Node10</title>
<g id="a_edge12_Node000005_Node000010"><a xlink:title=" ">
<path fill="none" stroke="#63b8ff" d="M483.53,-109.24C453.52,-124.34 413.19,-147.25 394.42,-160.47"/>
<polygon fill="#63b8ff" stroke="#63b8ff" points="485.46,-112.19 492.88,-104.63 482.36,-105.91 485.46,-112.19"/>
</a>
</g>
</g>
<!-- Node8 -->
<g id="Node000008" class="node">
<title>Node8</title>
<g id="a_Node000008"><a xlink:href="namespaceTimings.html#aadf2661fed15eeec1d5ca92e8125726e" target="_top" xlink:title=" ">
<polygon fill="white" stroke="#666666" points="280,-67.5 119,-67.5 119,-48.5 280,-48.5 280,-67.5"/>
<text text-anchor="middle" x="199.5" y="-55.5" font-family="Helvetica,sans-Serif" font-size="10.00">Timings.analyze_timing_data</text>
</a>
</g>
</g>
<!-- Node7&#45;&gt;Node8 -->
<g id="edge7_Node000007_Node000008" class="edge">
<title>Node7&#45;&gt;Node8</title>
<g id="a_edge7_Node000007_Node000008"><a xlink:title=" ">
<path fill="none" stroke="#63b8ff" d="M353.13,-42.02C333.42,-44.09 306.27,-46.93 280.34,-49.64"/>
<polygon fill="#63b8ff" stroke="#63b8ff" points="353.68,-45.48 363.26,-40.96 352.95,-38.52 353.68,-45.48"/>
</a>
</g>
</g>
<!-- Node9 -->
<g id="Node000009" class="node">
<title>Node9</title>
<g id="a_Node000009"><a xlink:href="namespaceTimings.html#ae796959351e16850ac73fbc1380617c9" target="_top" xlink:title=" ">
<polygon fill="white" stroke="#666666" points="83,-48.5 0,-48.5 0,-29.5 83,-29.5 83,-48.5"/>
<text text-anchor="middle" x="41.5" y="-36.5" font-family="Helvetica,sans-Serif" font-size="10.00">Timings.main</text>
</a>
</g>
</g>
<!-- Node7&#45;&gt;Node9 -->
<g id="edge10_Node000007_Node000009" class="edge">
<title>Node7&#45;&gt;Node9</title>
<g id="a_edge10_Node000007_Node000009"><a xlink:title=" ">
<path fill="none" stroke="#63b8ff" d="M352.91,-39C292.36,-39 152.62,-39 83.19,-39"/>
<polygon fill="#63b8ff" stroke="#63b8ff" points="353.26,-42.5 363.26,-39 353.26,-35.5 353.26,-42.5"/>
</a>
</g>
</g>
<!-- Node8&#45;&gt;Node9 -->
<g id="edge8_Node000008_Node000009" class="edge">
<title>Node8&#45;&gt;Node9</title>
<g id="a_edge8_Node000008_Node000009"><a xlink:title=" ">
<path fill="none" stroke="#63b8ff" d="M109.91,-47.21C100.63,-46.08 91.55,-44.97 83.21,-43.96"/>
<polygon fill="#63b8ff" stroke="#63b8ff" points="109.69,-50.71 120.04,-48.44 110.54,-43.76 109.69,-50.71"/>
</a>
</g>
</g>
<!-- Node9&#45;&gt;Node9 -->
<g id="edge9_Node000009_Node000009" class="edge">
<title>Node9&#45;&gt;Node9</title>
<g id="a_edge9_Node000009_Node000009"><a xlink:title=" ">
<path fill="none" stroke="#63b8ff" d="M70.99,-57.32C69.76,-62.51 59.93,-66.5 41.5,-66.5 13.42,-66.5 5.3,-57.23 17.15,-48.58"/>
<polygon fill="#63b8ff" stroke="#63b8ff" points="73.94,-55.43 65.85,-48.58 67.91,-58.98 73.94,-55.43"/>
</a>
</g>
</g>
<!-- Node10&#45;&gt;Node5 -->
<g id="edge13_Node000010_Node000005" class="edge">
<title>Node10&#45;&gt;Node5</title>
<g id="a_edge13_Node000010_Node000005"><a xlink:title=" ">
<path fill="none" stroke="#63b8ff" d="M420.73,-155.88C450.62,-140.86 490.85,-118.01 509.79,-104.73"/>
<polygon fill="#63b8ff" stroke="#63b8ff" points="418.85,-152.91 411.43,-160.47 421.95,-159.19 418.85,-152.91"/>
</a>
</g>
</g>
<!-- Node11&#45;&gt;Node5 -->
<g id="edge15_Node000011_Node000005" class="edge">
<title>Node11&#45;&gt;Node5</title>
<g id="a_edge15_Node000011_Node000005"><a xlink:title=" ">
<path fill="none" stroke="#63b8ff" d="M695.33,-80.27C653.23,-83.86 594.21,-88.89 557.18,-92.05"/>
<polygon fill="#63b8ff" stroke="#63b8ff" points="695.71,-83.76 705.37,-79.42 695.11,-76.78 695.71,-83.76"/>
</a>
</g>
</g>
<!-- Node12&#45;&gt;Node10 -->
<g id="edge18_Node000012_Node000010" class="edge">
<title>Node12&#45;&gt;Node10</title>
<g id="a_edge18_Node000012_Node000010"><a xlink:title=" ">
<path fill="none" stroke="#63b8ff" d="M703.01,-163.97C690.83,-166.87 677.48,-169.55 665,-171 577.53,-181.18 473.71,-176.51 420.08,-172.87"/>
<polygon fill="#63b8ff" stroke="#63b8ff" points="704.05,-167.32 712.91,-161.51 702.36,-160.52 704.05,-167.32"/>
</a>
</g>
</g>
<!-- Node13 -->
<g id="Node000013" class="node">
<title>Node13</title>
<g id="a_Node000013"><a xlink:href="cJSON_8c.html#ad087dd738e49b4258f0a3d378a121df6" target="_top" xlink:title=" ">
<polygon fill="white" stroke="#666666" points="665,-161.5 593,-161.5 593,-142.5 665,-142.5 665,-161.5"/>
<text text-anchor="middle" x="629" y="-149.5" font-family="Helvetica,sans-Serif" font-size="10.00">print_string</text>
</a>
</g>
</g>
<!-- Node12&#45;&gt;Node13 -->
<g id="edge19_Node000012_Node000013" class="edge">
<title>Node12&#45;&gt;Node13</title>
<g id="a_edge19_Node000012_Node000013"><a xlink:title=" ">
<path fill="none" stroke="#63b8ff" d="M690.75,-152C682.07,-152 673.3,-152 665.23,-152"/>
<polygon fill="#63b8ff" stroke="#63b8ff" points="690.84,-155.5 700.84,-152 690.84,-148.5 690.84,-155.5"/>
</a>
</g>
</g>
<!-- Node13&#45;&gt;Node5 -->
<g id="edge20_Node000013_Node000005" class="edge">
<title>Node13&#45;&gt;Node5</title>
<g id="a_edge20_Node000013_Node000005"><a xlink:title=" ">
<path fill="none" stroke="#63b8ff" d="M601.25,-137.55C582.09,-127.19 556.82,-113.54 540.13,-104.53"/>
<polygon fill="#63b8ff" stroke="#63b8ff" points="599.64,-140.66 610.1,-142.33 602.97,-134.5 599.64,-140.66"/>
</a>
</g>
</g>
</g>
</svg>
