<?xml version="1.0" encoding="UTF-8" standalone="no"?>
<!DOCTYPE svg PUBLIC "-//W3C//DTD SVG 1.1//EN"
 "http://www.w3.org/Graphics/SVG/1.1/DTD/svg11.dtd">
<!-- Generated by graphviz version 2.43.0 (0)
 -->
<!-- Title: tg_manager Pages: 1 -->
<svg width="98pt" height="93pt"
 viewBox="0.00 0.00 97.85 93.00" xmlns="http://www.w3.org/2000/svg" xmlns:xlink="http://www.w3.org/1999/xlink">
<g id="graph0" class="graph" transform="scale(1 1) rotate(0) translate(4 89)">
<title>tg_manager</title>
<!-- Node1 -->
<g id="Node000001" class="node">
<title>Node1</title>
<g id="a_Node000001"><a xlink:title="Thread Group Manager Structure.">
<polygon fill="#999999" stroke="#666666" points="76.35,-85 1.35,-85 1.35,-66 76.35,-66 76.35,-85"/>
<text text-anchor="middle" x="38.85" y="-73" font-family="Helvetica,sans-Serif" font-size="10.00">tg_manager</text>
</a>
</g>
</g>
<!-- Node2 -->
<g id="Node000002" class="node">
<title>Node2</title>
<g id="a_Node000002"><a xlink:href="structtg__group.html" target="_top" xlink:title="Thread Group Structure.">
<polygon fill="white" stroke="#666666" points="68.35,-19 9.35,-19 9.35,0 68.35,0 68.35,-19"/>
<text text-anchor="middle" x="38.85" y="-7" font-family="Helvetica,sans-Serif" font-size="10.00">tg_group</text>
</a>
</g>
</g>
<!-- Node1&#45;&gt;Node2 -->
<g id="edge2_Node000002_Node000001" class="edge">
<title>Node1&#45;&gt;Node2</title>
<g id="a_edge2_Node000002_Node000001"><a xlink:title=" ">
<path fill="none" stroke="#9a32cd" stroke-dasharray="5,2" d="M11.56,-59.75C7.65,-56.42 4.17,-52.51 1.85,-48 -4.16,-36.29 8.3,-25.88 20.35,-19.03"/>
<polygon fill="#9a32cd" stroke="#9a32cd" points="9.8,-62.8 19.96,-65.78 13.88,-57.11 9.8,-62.8"/>
</a>
</g>
<text text-anchor="middle" x="24.85" y="-40" font-family="Helvetica,sans-Serif" font-size="10.00" fill="grey"> Manager</text>
</g>
<!-- Node2&#45;&gt;Node1 -->
<g id="edge1_Node000001_Node000002" class="edge">
<title>Node2&#45;&gt;Node1</title>
<g id="a_edge1_Node000001_Node000002"><a xlink:title=" ">
<path fill="none" stroke="#9a32cd" stroke-dasharray="5,2" d="M49.49,-28.57C51.89,-34.66 53.35,-41.55 51.85,-48 50.42,-54.19 47.32,-60.6 44.51,-65.57"/>
<polygon fill="#9a32cd" stroke="#9a32cd" points="52.47,-26.7 44.9,-19.29 46.19,-29.8 52.47,-26.7"/>
</a>
</g>
<text text-anchor="middle" x="70.85" y="-40" font-family="Helvetica,sans-Serif" font-size="10.00" fill="grey"> Groups</text>
</g>
</g>
</svg>
