<?xml version="1.0" encoding="UTF-8" standalone="no"?>
<!DOCTYPE svg PUBLIC "-//W3C//DTD SVG 1.1//EN"
 "http://www.w3.org/Graphics/SVG/1.1/DTD/svg11.dtd">
<!-- Generated by graphviz version 2.43.0 (0)
 -->
<!-- Title: postgres_ctx Pages: 1 -->
<svg width="125pt" height="162pt"
 viewBox="0.00 0.00 124.50 162.00" xmlns="http://www.w3.org/2000/svg" xmlns:xlink="http://www.w3.org/1999/xlink">
<g id="graph0" class="graph" transform="scale(1 1) rotate(0) translate(4 158)">
<title>postgres_ctx</title>
<polygon fill="white" stroke="transparent" points="-4,4 -4,-158 120.5,-158 120.5,4 -4,4"/>
<!-- Node1 -->
<g id="node1" class="node">
<title>Node1</title>
<g id="a_node1"><a xlink:title="PostgreSQL context for database operations.">
<polygon fill="#bfbfbf" stroke="black" points="11,-0.5 11,-19.5 90,-19.5 90,-0.5 11,-0.5"/>
<text text-anchor="middle" x="50.5" y="-7.5" font-family="Helvetica,sans-Serif" font-size="10.00">postgres_ctx</text>
</a>
</g>
</g>
<!-- Node2 -->
<g id="node2" class="node">
<title>Node2</title>
<g id="a_node2"><a xlink:href="structpg__table__info.html" target="_top" xlink:title="Table information for PostgreSQL operations.">
<polygon fill="white" stroke="black" points="9,-67.5 9,-86.5 92,-86.5 92,-67.5 9,-67.5"/>
<text text-anchor="middle" x="50.5" y="-74.5" font-family="Helvetica,sans-Serif" font-size="10.00">pg_table_info</text>
</a>
</g>
</g>
<!-- Node2&#45;&gt;Node1 -->
<g id="edge1" class="edge">
<title>Node2&#45;&gt;Node1</title>
<path fill="none" stroke="#9a32cd" stroke-dasharray="5,2" d="M50.5,-57.04C50.5,-44.67 50.5,-29.12 50.5,-19.63"/>
<polygon fill="#9a32cd" stroke="#9a32cd" points="47,-57.23 50.5,-67.23 54,-57.23 47,-57.23"/>
<text text-anchor="middle" x="77" y="-41" font-family="Helvetica,sans-Serif" font-size="10.00"> TablesInfo</text>
</g>
<!-- Node3 -->
<g id="node3" class="node">
<title>Node3</title>
<g id="a_node3"><a xlink:href="structpg__col__metadata.html" target="_top" xlink:title="PostgreSQL column metadata.">
<polygon fill="white" stroke="black" points="0,-134.5 0,-153.5 101,-153.5 101,-134.5 0,-134.5"/>
<text text-anchor="middle" x="50.5" y="-141.5" font-family="Helvetica,sans-Serif" font-size="10.00">pg_col_metadata</text>
</a>
</g>
</g>
<!-- Node3&#45;&gt;Node2 -->
<g id="edge2" class="edge">
<title>Node3&#45;&gt;Node2</title>
<path fill="none" stroke="#9a32cd" stroke-dasharray="5,2" d="M50.5,-124.04C50.5,-111.67 50.5,-96.12 50.5,-86.63"/>
<polygon fill="#9a32cd" stroke="#9a32cd" points="47,-124.23 50.5,-134.23 54,-124.23 47,-124.23"/>
<text text-anchor="middle" x="83.5" y="-108" font-family="Helvetica,sans-Serif" font-size="10.00"> ColMetadata</text>
</g>
</g>
</svg>
