<?xml version="1.0" encoding="UTF-8" standalone="no"?>
<!DOCTYPE svg PUBLIC "-//W3C//DTD SVG 1.1//EN"
 "http://www.w3.org/Graphics/SVG/1.1/DTD/svg11.dtd">
<!-- Generated by graphviz version 2.43.0 (0)
 -->
<!-- Title: tg_group Pages: 1 -->
<svg width="101pt" height="95pt"
 viewBox="0.00 0.00 100.50 95.00" xmlns="http://www.w3.org/2000/svg" xmlns:xlink="http://www.w3.org/1999/xlink">
<g id="graph0" class="graph" transform="scale(1 1) rotate(0) translate(4 91)">
<title>tg_group</title>
<polygon fill="white" stroke="transparent" points="-4,4 -4,-91 96.5,-91 96.5,4 -4,4"/>
<!-- Node1 -->
<g id="node1" class="node">
<title>Node1</title>
<g id="a_node1"><a xlink:title="Thread Group Structure.">
<polygon fill="#bfbfbf" stroke="black" points="8,-67.5 8,-86.5 67,-86.5 67,-67.5 8,-67.5"/>
<text text-anchor="middle" x="37.5" y="-74.5" font-family="Helvetica,sans-Serif" font-size="10.00">tg_group</text>
</a>
</g>
</g>
<!-- Node2 -->
<g id="node2" class="node">
<title>Node2</title>
<g id="a_node2"><a xlink:href="structtg__manager.html" target="_top" xlink:title="Thread Group Manager Structure.">
<polygon fill="white" stroke="black" points="0,-0.5 0,-19.5 75,-19.5 75,-0.5 0,-0.5"/>
<text text-anchor="middle" x="37.5" y="-7.5" font-family="Helvetica,sans-Serif" font-size="10.00">tg_manager</text>
</a>
</g>
</g>
<!-- Node1&#45;&gt;Node2 -->
<g id="edge2" class="edge">
<title>Node1&#45;&gt;Node2</title>
<path fill="none" stroke="#9a32cd" stroke-dasharray="5,2" d="M13.68,-61.01C9.96,-57.55 6.65,-53.53 4.5,-49 -0.96,-37.47 10.54,-26.73 21.43,-19.63"/>
<polygon fill="#9a32cd" stroke="#9a32cd" points="11.63,-63.85 21.64,-67.33 15.99,-58.37 11.63,-63.85"/>
<text text-anchor="middle" x="23.5" y="-41" font-family="Helvetica,sans-Serif" font-size="10.00"> Groups</text>
</g>
<!-- Node2&#45;&gt;Node1 -->
<g id="edge1" class="edge">
<title>Node2&#45;&gt;Node1</title>
<path fill="none" stroke="#9a32cd" stroke-dasharray="5,2" d="M44.5,-29.39C45.33,-32.24 46.04,-35.17 46.5,-38 48.15,-48.17 44.67,-59.66 41.57,-67.32"/>
<polygon fill="#9a32cd" stroke="#9a32cd" points="47.78,-28.16 41.24,-19.82 41.15,-30.41 47.78,-28.16"/>
<text text-anchor="middle" x="69.5" y="-41" font-family="Helvetica,sans-Serif" font-size="10.00"> Manager</text>
</g>
</g>
</svg>
