<?xml version="1.0" encoding="UTF-8" standalone="no"?>
<!DOCTYPE svg PUBLIC "-//W3C//DTD SVG 1.1//EN"
 "http://www.w3.org/Graphics/SVG/1.1/DTD/svg11.dtd">
<!-- Generated by graphviz version 2.43.0 (0)
 -->
<!-- Title: postgres_ctx Pages: 1 -->
<svg width="125pt" height="159pt"
 viewBox="0.00 0.00 124.50 159.00" xmlns="http://www.w3.org/2000/svg" xmlns:xlink="http://www.w3.org/1999/xlink">
<g id="graph0" class="graph" transform="scale(1 1) rotate(0) translate(4 155)">
<title>postgres_ctx</title>
<!-- Node1 -->
<g id="Node000001" class="node">
<title>Node1</title>
<g id="a_Node000001"><a xlink:title="PostgreSQL context for database operations.">
<polygon fill="#999999" stroke="#666666" points="90,-19 11,-19 11,0 90,0 90,-19"/>
<text text-anchor="middle" x="50.5" y="-7" font-family="Helvetica,sans-Serif" font-size="10.00">postgres_ctx</text>
</a>
</g>
</g>
<!-- Node2 -->
<g id="Node000002" class="node">
<title>Node2</title>
<g id="a_Node000002"><a xlink:href="structpg__table__info.html" target="_top" xlink:title="Table information for PostgreSQL operations.">
<polygon fill="white" stroke="#666666" points="92,-85 9,-85 9,-66 92,-66 92,-85"/>
<text text-anchor="middle" x="50.5" y="-73" font-family="Helvetica,sans-Serif" font-size="10.00">pg_table_info</text>
</a>
</g>
</g>
<!-- Node2&#45;&gt;Node1 -->
<g id="edge1_Node000001_Node000002" class="edge">
<title>Node2&#45;&gt;Node1</title>
<g id="a_edge1_Node000001_Node000002"><a xlink:title=" ">
<path fill="none" stroke="#9a32cd" stroke-dasharray="5,2" d="M50.5,-55.58C50.5,-43.63 50.5,-28.72 50.5,-19.41"/>
<polygon fill="#9a32cd" stroke="#9a32cd" points="47,-55.87 50.5,-65.87 54,-55.87 47,-55.87"/>
</a>
</g>
<text text-anchor="middle" x="77" y="-40" font-family="Helvetica,sans-Serif" font-size="10.00" fill="grey"> TablesInfo</text>
</g>
<!-- Node3 -->
<g id="Node000003" class="node">
<title>Node3</title>
<g id="a_Node000003"><a xlink:href="structpg__col__metadata.html" target="_top" xlink:title="PostgreSQL column metadata.">
<polygon fill="white" stroke="#666666" points="101,-151 0,-151 0,-132 101,-132 101,-151"/>
<text text-anchor="middle" x="50.5" y="-139" font-family="Helvetica,sans-Serif" font-size="10.00">pg_col_metadata</text>
</a>
</g>
</g>
<!-- Node3&#45;&gt;Node2 -->
<g id="edge2_Node000002_Node000003" class="edge">
<title>Node3&#45;&gt;Node2</title>
<g id="a_edge2_Node000002_Node000003"><a xlink:title=" ">
<path fill="none" stroke="#9a32cd" stroke-dasharray="5,2" d="M50.5,-121.58C50.5,-109.63 50.5,-94.72 50.5,-85.41"/>
<polygon fill="#9a32cd" stroke="#9a32cd" points="47,-121.87 50.5,-131.87 54,-121.87 47,-121.87"/>
</a>
</g>
<text text-anchor="middle" x="83.5" y="-106" font-family="Helvetica,sans-Serif" font-size="10.00" fill="grey"> ColMetadata</text>
</g>
</g>
</svg>
