<?xml version="1.0" encoding="UTF-8" standalone="no"?>
<!DOCTYPE svg PUBLIC "-//W3C//DTD SVG 1.1//EN"
 "http://www.w3.org/Graphics/SVG/1.1/DTD/svg11.dtd">
<!-- Generated by graphviz version 2.43.0 (0)
 -->
<!-- Title: internal_hooks::allocate Pages: 1 -->
<svg width="1311pt" height="720pt"
 viewBox="0.00 0.00 1311.00 720.00" xmlns="http://www.w3.org/2000/svg" xmlns:xlink="http://www.w3.org/1999/xlink">
<g id="graph0" class="graph" transform="scale(1 1) rotate(0) translate(4 716)">
<title>internal_hooks::allocate</title>
<polygon fill="white" stroke="transparent" points="-4,4 -4,-716 1307,-716 1307,4 -4,4"/>
<!-- Node1 -->
<g id="node1" class="node">
<title>Node1</title>
<g id="a_node1"><a xlink:title=" ">
<polygon fill="#bfbfbf" stroke="black" points="1169,-256.5 1169,-275.5 1303,-275.5 1303,-256.5 1169,-256.5"/>
<text text-anchor="middle" x="1236" y="-263.5" font-family="Helvetica,sans-Serif" font-size="10.00">internal_hooks::allocate</text>
</a>
</g>
</g>
<!-- Node2 -->
<g id="node2" class="node">
<title>Node2</title>
<g id="a_node2"><a xlink:href="cJSON_8c.html#a8f447c625af025c35d0ec59032ad6473" target="_top" xlink:title=" ">
<polygon fill="white" stroke="black" points="1032,-370.5 1032,-389.5 1133,-389.5 1133,-370.5 1032,-370.5"/>
<text text-anchor="middle" x="1082.5" y="-377.5" font-family="Helvetica,sans-Serif" font-size="10.00">cJSON_New_Item</text>
</a>
</g>
</g>
<!-- Node1&#45;&gt;Node2 -->
<g id="edge1" class="edge">
<title>Node1&#45;&gt;Node2</title>
<path fill="none" stroke="midnightblue" d="M1214.17,-281.68C1182.38,-305.6 1122.69,-350.51 1096.44,-370.26"/>
<polygon fill="midnightblue" stroke="midnightblue" points="1216.46,-284.33 1222.34,-275.52 1212.25,-278.74 1216.46,-284.33"/>
</g>
<!-- Node12 -->
<g id="node12" class="node">
<title>Node12</title>
<g id="a_node12"><a xlink:href="cJSON_8c.html#a9e943a63b19411e07fe82f46a56e35e5" target="_top" xlink:title=" ">
<polygon fill="white" stroke="black" points="1038.5,-237.5 1038.5,-256.5 1126.5,-256.5 1126.5,-237.5 1038.5,-237.5"/>
<text text-anchor="middle" x="1082.5" y="-244.5" font-family="Helvetica,sans-Serif" font-size="10.00">CJSON_PUBLIC</text>
</a>
</g>
</g>
<!-- Node1&#45;&gt;Node12 -->
<g id="edge15" class="edge">
<title>Node1&#45;&gt;Node12</title>
<path fill="none" stroke="midnightblue" d="M1158.85,-256.45C1147.78,-255.06 1136.72,-253.67 1126.62,-252.41"/>
<polygon fill="midnightblue" stroke="midnightblue" points="1158.63,-259.95 1168.99,-257.72 1159.5,-253 1158.63,-259.95"/>
</g>
<!-- Node13 -->
<g id="node13" class="node">
<title>Node13</title>
<g id="a_node13"><a xlink:href="cJSON_8c.html#a5da7bd9b4622e97e7e19c36017410252" target="_top" xlink:title=" ">
<polygon fill="white" stroke="black" points="1041.5,-484.5 1041.5,-503.5 1123.5,-503.5 1123.5,-484.5 1041.5,-484.5"/>
<text text-anchor="middle" x="1082.5" y="-491.5" font-family="Helvetica,sans-Serif" font-size="10.00">cJSON_strdup</text>
</a>
</g>
</g>
<!-- Node1&#45;&gt;Node13 -->
<g id="edge16" class="edge">
<title>Node1&#45;&gt;Node13</title>
<path fill="none" stroke="midnightblue" d="M1223.14,-283.84C1192.77,-329.55 1112.94,-449.69 1089.84,-484.45"/>
<polygon fill="midnightblue" stroke="midnightblue" points="1226.06,-285.77 1228.68,-275.51 1220.23,-281.9 1226.06,-285.77"/>
</g>
<!-- Node22 -->
<g id="node22" class="node">
<title>Node22</title>
<g id="a_node22"><a xlink:href="cJSON_8c.html#a3faa1600bc8001eaed05f16060668ce6" target="_top" xlink:title=" ">
<polygon fill="white" stroke="black" points="1057.5,-180.5 1057.5,-199.5 1107.5,-199.5 1107.5,-180.5 1057.5,-180.5"/>
<text text-anchor="middle" x="1082.5" y="-187.5" font-family="Helvetica,sans-Serif" font-size="10.00">ensure</text>
</a>
</g>
</g>
<!-- Node1&#45;&gt;Node22 -->
<g id="edge27" class="edge">
<title>Node1&#45;&gt;Node22</title>
<path fill="none" stroke="midnightblue" d="M1206.58,-251.74C1176.16,-236.48 1128.74,-212.7 1102.53,-199.55"/>
<polygon fill="midnightblue" stroke="midnightblue" points="1205.3,-255.02 1215.81,-256.37 1208.44,-248.76 1205.3,-255.02"/>
</g>
<!-- Node26 -->
<g id="node26" class="node">
<title>Node26</title>
<g id="a_node26"><a xlink:href="cJSON_8c.html#ae71e2aec89bf140e6430cb7d5ca417c5" target="_top" xlink:title=" ">
<polygon fill="white" stroke="black" points="363.5,-19.5 363.5,-38.5 402.5,-38.5 402.5,-19.5 363.5,-19.5"/>
<text text-anchor="middle" x="383" y="-26.5" font-family="Helvetica,sans-Serif" font-size="10.00">print</text>
</a>
</g>
</g>
<!-- Node1&#45;&gt;Node26 -->
<g id="edge49" class="edge">
<title>Node1&#45;&gt;Node26</title>
<path fill="none" stroke="midnightblue" d="M1224.54,-247.57C1190.5,-190.26 1076.67,-19 932,-19 932,-19 932,-19 752.5,-19 618.42,-19 457,-25.7 402.79,-28.13"/>
<polygon fill="midnightblue" stroke="midnightblue" points="1221.58,-249.44 1229.64,-256.32 1227.63,-245.92 1221.58,-249.44"/>
</g>
<!-- Node33 -->
<g id="node33" class="node">
<title>Node33</title>
<g id="a_node33"><a xlink:href="cJSON_8c.html#adf47b520af96d1bbefa2390016fbdb51" target="_top" xlink:title=" ">
<polygon fill="white" stroke="black" points="892.5,-275.5 892.5,-294.5 969.5,-294.5 969.5,-275.5 892.5,-275.5"/>
<text text-anchor="middle" x="931" y="-282.5" font-family="Helvetica,sans-Serif" font-size="10.00">parse_string</text>
</a>
</g>
</g>
<!-- Node1&#45;&gt;Node33 -->
<g id="edge46" class="edge">
<title>Node1&#45;&gt;Node33</title>
<path fill="none" stroke="midnightblue" d="M1158.65,-270.79C1098.39,-274.57 1016.9,-279.68 969.83,-282.63"/>
<polygon fill="midnightblue" stroke="midnightblue" points="1159.12,-274.27 1168.88,-270.15 1158.68,-267.28 1159.12,-274.27"/>
</g>
<!-- Node3 -->
<g id="node3" class="node">
<title>Node3</title>
<g id="a_node3"><a xlink:href="cJSON_8c.html#a7916f8c63594d49f98777b2f2153e245" target="_top" xlink:title=" ">
<polygon fill="white" stroke="black" points="872,-465.5 872,-484.5 990,-484.5 990,-465.5 872,-465.5"/>
<text text-anchor="middle" x="931" y="-472.5" font-family="Helvetica,sans-Serif" font-size="10.00">cJSON_Duplicate_rec</text>
</a>
</g>
</g>
<!-- Node2&#45;&gt;Node3 -->
<g id="edge2" class="edge">
<title>Node2&#45;&gt;Node3</title>
<path fill="none" stroke="midnightblue" d="M1066.37,-397.3C1050.46,-414.5 1023.89,-440.49 996,-456 989.21,-459.77 981.6,-462.88 974.05,-465.4"/>
<polygon fill="midnightblue" stroke="midnightblue" points="1069.18,-399.42 1073.29,-389.65 1063.99,-394.72 1069.18,-399.42"/>
</g>
<!-- Node4 -->
<g id="node4" class="node">
<title>Node4</title>
<g id="a_node4"><a xlink:href="cJSON_8c.html#a3a24e49a04490273160cdc1f30f10d22" target="_top" xlink:title=" ">
<polygon fill="white" stroke="black" points="486,-370.5 486,-389.5 641,-389.5 641,-370.5 486,-370.5"/>
<text text-anchor="middle" x="563.5" y="-377.5" font-family="Helvetica,sans-Serif" font-size="10.00">cJSON_ParseWithLengthOpts</text>
</a>
</g>
</g>
<!-- Node2&#45;&gt;Node4 -->
<g id="edge3" class="edge">
<title>Node2&#45;&gt;Node4</title>
<path fill="none" stroke="midnightblue" d="M1021.73,-380C927.65,-380 745.08,-380 641.37,-380"/>
<polygon fill="midnightblue" stroke="midnightblue" points="1021.93,-383.5 1031.93,-380 1021.93,-376.5 1021.93,-383.5"/>
</g>
<!-- Node7 -->
<g id="node7" class="node">
<title>Node7</title>
<g id="a_node7"><a xlink:href="cJSON_8c.html#ac06bbc307a6f39fe58aafbcb82fbf4b3" target="_top" xlink:title=" ">
<polygon fill="white" stroke="black" points="881.5,-427.5 881.5,-446.5 980.5,-446.5 980.5,-427.5 881.5,-427.5"/>
<text text-anchor="middle" x="931" y="-434.5" font-family="Helvetica,sans-Serif" font-size="10.00">create_reference</text>
</a>
</g>
</g>
<!-- Node2&#45;&gt;Node7 -->
<g id="edge6" class="edge">
<title>Node2&#45;&gt;Node7</title>
<path fill="none" stroke="midnightblue" d="M1047.08,-393.37C1031.5,-399.4 1012.83,-406.59 996,-413 983.36,-417.81 969.28,-423.1 957.56,-427.48"/>
<polygon fill="midnightblue" stroke="midnightblue" points="1048.77,-396.47 1056.83,-389.59 1046.24,-389.94 1048.77,-396.47"/>
</g>
<!-- Node9 -->
<g id="node9" class="node">
<title>Node9</title>
<g id="a_node9"><a xlink:href="cJSON_8c.html#a367cc7ac5a592211d9f18dc02dd23069" target="_top" xlink:title=" ">
<polygon fill="white" stroke="black" points="894,-351.5 894,-370.5 968,-370.5 968,-351.5 894,-351.5"/>
<text text-anchor="middle" x="931" y="-358.5" font-family="Helvetica,sans-Serif" font-size="10.00">parse_array</text>
</a>
</g>
</g>
<!-- Node2&#45;&gt;Node9 -->
<g id="edge8" class="edge">
<title>Node2&#45;&gt;Node9</title>
<path fill="none" stroke="midnightblue" d="M1021.57,-372.38C1003.54,-370.09 984.32,-367.65 968.33,-365.62"/>
<polygon fill="midnightblue" stroke="midnightblue" points="1021.36,-375.88 1031.72,-373.67 1022.24,-368.94 1021.36,-375.88"/>
</g>
<!-- Node11 -->
<g id="node11" class="node">
<title>Node11</title>
<g id="a_node11"><a xlink:href="cJSON_8c.html#a1472ac5d1becd7d9a5e558b4c053b06a" target="_top" xlink:title=" ">
<polygon fill="white" stroke="black" points="524,-332.5 524,-351.5 603,-351.5 603,-332.5 524,-332.5"/>
<text text-anchor="middle" x="563.5" y="-339.5" font-family="Helvetica,sans-Serif" font-size="10.00">parse_object</text>
</a>
</g>
</g>
<!-- Node2&#45;&gt;Node11 -->
<g id="edge14" class="edge">
<title>Node2&#45;&gt;Node11</title>
<path fill="none" stroke="midnightblue" d="M1056.48,-365.53C1039.92,-356.81 1017.39,-346.54 996,-342 853.83,-311.83 679.34,-327.39 603.15,-336.69"/>
<polygon fill="midnightblue" stroke="midnightblue" points="1055.03,-368.72 1065.48,-370.43 1058.37,-362.57 1055.03,-368.72"/>
</g>
<!-- Node5 -->
<g id="node5" class="node">
<title>Node5</title>
<g id="a_node5"><a xlink:href="cJSON_8c.html#adfabd5d09c2cf0a2f051c47650db6e80" target="_top" xlink:title=" ">
<polygon fill="white" stroke="black" points="322,-370.5 322,-389.5 444,-389.5 444,-370.5 322,-370.5"/>
<text text-anchor="middle" x="383" y="-377.5" font-family="Helvetica,sans-Serif" font-size="10.00">cJSON_ParseWithOpts</text>
</a>
</g>
</g>
<!-- Node4&#45;&gt;Node5 -->
<g id="edge4" class="edge">
<title>Node4&#45;&gt;Node5</title>
<path fill="none" stroke="midnightblue" d="M475.62,-380C465,-380 454.34,-380 444.24,-380"/>
<polygon fill="midnightblue" stroke="midnightblue" points="475.76,-383.5 485.76,-380 475.76,-376.5 475.76,-383.5"/>
</g>
<!-- Node6 -->
<g id="node6" class="node">
<title>Node6</title>
<g id="a_node6"><a xlink:href="cJSON_8c.html#aa2ca313f61c789be20f8a69b651043c3" target="_top" xlink:title=" ">
<polygon fill="white" stroke="black" points="155.5,-370.5 155.5,-389.5 243.5,-389.5 243.5,-370.5 155.5,-370.5"/>
<text text-anchor="middle" x="199.5" y="-377.5" font-family="Helvetica,sans-Serif" font-size="10.00">CJSON_PUBLIC</text>
</a>
</g>
</g>
<!-- Node5&#45;&gt;Node6 -->
<g id="edge5" class="edge">
<title>Node5&#45;&gt;Node6</title>
<path fill="none" stroke="midnightblue" d="M311.76,-380C288.78,-380 263.95,-380 243.59,-380"/>
<polygon fill="midnightblue" stroke="midnightblue" points="311.82,-383.5 321.82,-380 311.82,-376.5 311.82,-383.5"/>
</g>
<!-- Node8 -->
<g id="node8" class="node">
<title>Node8</title>
<g id="a_node8"><a xlink:href="cJSON_8c.html#ae40faf8fce455884d99bbb2f60cd5860" target="_top" xlink:title=" ">
<polygon fill="white" stroke="black" points="677.5,-529 677.5,-559 829.5,-559 829.5,-529 677.5,-529"/>
<text text-anchor="start" x="685.5" y="-547" font-family="Helvetica,sans-Serif" font-size="10.00">cJSON_AddItemReferenceTo</text>
<text text-anchor="middle" x="753.5" y="-536" font-family="Helvetica,sans-Serif" font-size="10.00">Object</text>
</a>
</g>
</g>
<!-- Node7&#45;&gt;Node8 -->
<g id="edge7" class="edge">
<title>Node7&#45;&gt;Node8</title>
<path fill="none" stroke="midnightblue" d="M873.35,-451.04C870.77,-452.53 868.3,-454.18 866,-456 840.72,-476.03 854.96,-498.58 830,-519 825.3,-522.85 819.98,-526.11 814.4,-528.88"/>
<polygon fill="midnightblue" stroke="midnightblue" points="875.06,-454.1 882.5,-446.56 871.98,-447.81 875.06,-454.1"/>
</g>
<!-- Node10 -->
<g id="node10" class="node">
<title>Node10</title>
<g id="a_node10"><a xlink:href="cJSON_8c.html#afd5c0b7089e4de2fc9b2af599d4b596f" target="_top" xlink:title=" ">
<polygon fill="white" stroke="black" points="715.5,-351.5 715.5,-370.5 791.5,-370.5 791.5,-351.5 715.5,-351.5"/>
<text text-anchor="middle" x="753.5" y="-358.5" font-family="Helvetica,sans-Serif" font-size="10.00">parse_value</text>
</a>
</g>
</g>
<!-- Node9&#45;&gt;Node10 -->
<g id="edge9" class="edge">
<title>Node9&#45;&gt;Node10</title>
<path fill="none" stroke="midnightblue" d="M883.44,-354.96C854.76,-353.89 818.49,-354.03 791.72,-355.36"/>
<polygon fill="midnightblue" stroke="midnightblue" points="883.49,-358.47 893.64,-355.41 883.8,-351.47 883.49,-358.47"/>
</g>
<!-- Node10&#45;&gt;Node4 -->
<g id="edge10" class="edge">
<title>Node10&#45;&gt;Node4</title>
<path fill="none" stroke="midnightblue" d="M705.27,-365.77C685.87,-367.73 662.91,-370.05 641.22,-372.25"/>
<polygon fill="midnightblue" stroke="midnightblue" points="705.76,-369.24 715.36,-364.75 705.06,-362.28 705.76,-369.24"/>
</g>
<!-- Node10&#45;&gt;Node9 -->
<g id="edge11" class="edge">
<title>Node10&#45;&gt;Node9</title>
<path fill="none" stroke="midnightblue" d="M801.98,-367.07C830.83,-368.11 867.08,-367.95 893.64,-366.59"/>
<polygon fill="midnightblue" stroke="midnightblue" points="801.86,-363.57 791.72,-366.64 801.57,-370.56 801.86,-363.57"/>
</g>
<!-- Node10&#45;&gt;Node11 -->
<g id="edge12" class="edge">
<title>Node10&#45;&gt;Node11</title>
<path fill="none" stroke="midnightblue" d="M705.06,-350.25C673.56,-345.89 632.71,-341.89 603.18,-340.33"/>
<polygon fill="midnightblue" stroke="midnightblue" points="704.96,-353.77 715.36,-351.74 705.96,-346.85 704.96,-353.77"/>
</g>
<!-- Node11&#45;&gt;Node10 -->
<g id="edge13" class="edge">
<title>Node11&#45;&gt;Node10</title>
<path fill="none" stroke="midnightblue" d="M613.19,-352.92C645.07,-357.29 686.1,-361.27 715.36,-362.75"/>
<polygon fill="midnightblue" stroke="midnightblue" points="613.58,-349.44 603.18,-351.49 612.59,-356.37 613.58,-349.44"/>
</g>
<!-- Node13&#45;&gt;Node3 -->
<g id="edge23" class="edge">
<title>Node13&#45;&gt;Node3</title>
<path fill="none" stroke="midnightblue" d="M1031.16,-487.6C1018,-485.93 1003.7,-484.11 990.17,-482.39"/>
<polygon fill="midnightblue" stroke="midnightblue" points="1031.08,-491.12 1041.44,-488.91 1031.96,-484.18 1031.08,-491.12"/>
</g>
<!-- Node14 -->
<g id="node14" class="node">
<title>Node14</title>
<g id="a_node14"><a xlink:href="cJSON_8c.html#acc48bef0e1b495898d9489e577b91d5c" target="_top" xlink:title=" ">
<polygon fill="white" stroke="black" points="874.5,-597.5 874.5,-616.5 987.5,-616.5 987.5,-597.5 874.5,-597.5"/>
<text text-anchor="middle" x="931" y="-604.5" font-family="Helvetica,sans-Serif" font-size="10.00">add_item_to_object</text>
</a>
</g>
</g>
<!-- Node13&#45;&gt;Node14 -->
<g id="edge17" class="edge">
<title>Node13&#45;&gt;Node14</title>
<path fill="none" stroke="midnightblue" d="M1060.65,-509.76C1029.18,-533.54 970.5,-577.9 944.71,-597.39"/>
<polygon fill="midnightblue" stroke="midnightblue" points="1062.89,-512.46 1068.75,-503.63 1058.67,-506.87 1062.89,-512.46"/>
</g>
<!-- Node19 -->
<g id="node19" class="node">
<title>Node19</title>
<g id="a_node19"><a xlink:href="cJSON_8c.html#afdae75197cf2c440ef858a2e93b104f2" target="_top" xlink:title=" ">
<polygon fill="white" stroke="black" points="866,-503.5 866,-522.5 996,-522.5 996,-503.5 866,-503.5"/>
<text text-anchor="middle" x="931" y="-510.5" font-family="Helvetica,sans-Serif" font-size="10.00">replace_item_in_object</text>
</a>
</g>
</g>
<!-- Node13&#45;&gt;Node19 -->
<g id="edge24" class="edge">
<title>Node13&#45;&gt;Node19</title>
<path fill="none" stroke="midnightblue" d="M1031.34,-500.37C1020.05,-501.81 1007.92,-503.35 996.15,-504.85"/>
<polygon fill="midnightblue" stroke="midnightblue" points="1031.96,-503.82 1041.44,-499.09 1031.08,-496.88 1031.96,-503.82"/>
</g>
<!-- Node14&#45;&gt;Node8 -->
<g id="edge19" class="edge">
<title>Node14&#45;&gt;Node8</title>
<path fill="none" stroke="midnightblue" d="M896.29,-593.77C876.96,-586.29 852.2,-576.89 830,-569 820.63,-565.67 810.56,-562.24 800.93,-559.02"/>
<polygon fill="midnightblue" stroke="midnightblue" points="895.27,-597.13 905.86,-597.49 897.81,-590.61 895.27,-597.13"/>
</g>
<!-- Node15 -->
<g id="node15" class="node">
<title>Node15</title>
<g id="a_node15"><a xlink:href="cJSON_8c.html#ac44e19cf2c9b85d693021327cd13c380" target="_top" xlink:title=" ">
<polygon fill="white" stroke="black" points="686.5,-692.5 686.5,-711.5 820.5,-711.5 820.5,-692.5 686.5,-692.5"/>
<text text-anchor="middle" x="753.5" y="-699.5" font-family="Helvetica,sans-Serif" font-size="10.00">cJSON_AddBoolToObject</text>
</a>
</g>
</g>
<!-- Node14&#45;&gt;Node15 -->
<g id="edge18" class="edge">
<title>Node14&#45;&gt;Node15</title>
<path fill="none" stroke="midnightblue" d="M912.64,-623.74C893.77,-641.03 862.01,-667.61 830,-683 822.08,-686.81 813.32,-689.91 804.65,-692.41"/>
<polygon fill="midnightblue" stroke="midnightblue" points="915.22,-626.12 920.13,-616.74 910.44,-621.01 915.22,-626.12"/>
</g>
<!-- Node16 -->
<g id="node16" class="node">
<title>Node16</title>
<g id="a_node16"><a xlink:href="cJSON_8c.html#aa53dc5895c82cc121dec73b81930ee42" target="_top" xlink:title=" ">
<polygon fill="white" stroke="black" points="678,-654.5 678,-673.5 829,-673.5 829,-654.5 678,-654.5"/>
<text text-anchor="middle" x="753.5" y="-661.5" font-family="Helvetica,sans-Serif" font-size="10.00">cJSON_AddNumberToObject</text>
</a>
</g>
</g>
<!-- Node14&#45;&gt;Node16 -->
<g id="edge20" class="edge">
<title>Node14&#45;&gt;Node16</title>
<path fill="none" stroke="midnightblue" d="M897.92,-620.28C878.47,-628.06 853.04,-637.75 830,-645 819.17,-648.41 807.32,-651.62 796.28,-654.41"/>
<polygon fill="midnightblue" stroke="midnightblue" points="899.27,-623.51 907.23,-616.52 896.65,-617.02 899.27,-623.51"/>
</g>
<!-- Node17 -->
<g id="node17" class="node">
<title>Node17</title>
<g id="a_node17"><a xlink:href="cJSON_8c.html#a60358335b6645747178c8050d5e51653" target="_top" xlink:title=" ">
<polygon fill="white" stroke="black" points="687,-616.5 687,-635.5 820,-635.5 820,-616.5 687,-616.5"/>
<text text-anchor="middle" x="753.5" y="-623.5" font-family="Helvetica,sans-Serif" font-size="10.00">cJSON_AddRawToObject</text>
</a>
</g>
</g>
<!-- Node14&#45;&gt;Node17 -->
<g id="edge21" class="edge">
<title>Node14&#45;&gt;Node17</title>
<path fill="none" stroke="midnightblue" d="M864.15,-614.13C849.75,-615.69 834.5,-617.34 820.1,-618.9"/>
<polygon fill="midnightblue" stroke="midnightblue" points="864.91,-617.57 874.47,-613.01 864.15,-610.61 864.91,-617.57"/>
</g>
<!-- Node18 -->
<g id="node18" class="node">
<title>Node18</title>
<g id="a_node18"><a xlink:href="cJSON_8c.html#a49e0e6b028e5a814c642307254816208" target="_top" xlink:title=" ">
<polygon fill="white" stroke="black" points="683.5,-578.5 683.5,-597.5 823.5,-597.5 823.5,-578.5 683.5,-578.5"/>
<text text-anchor="middle" x="753.5" y="-585.5" font-family="Helvetica,sans-Serif" font-size="10.00">cJSON_AddStringToObject</text>
</a>
</g>
</g>
<!-- Node14&#45;&gt;Node18 -->
<g id="edge22" class="edge">
<title>Node14&#45;&gt;Node18</title>
<path fill="none" stroke="midnightblue" d="M864.43,-599.9C851.09,-598.46 837.01,-596.93 823.55,-595.48"/>
<polygon fill="midnightblue" stroke="midnightblue" points="864.15,-603.39 874.47,-600.99 864.91,-596.43 864.15,-603.39"/>
</g>
<!-- Node20 -->
<g id="node20" class="node">
<title>Node20</title>
<g id="a_node20"><a xlink:href="cJSON_8c.html#ae8335f21a2f78d63c854c002f09f96dc" target="_top" xlink:title=" ">
<polygon fill="white" stroke="black" points="677,-490.5 677,-509.5 830,-509.5 830,-490.5 677,-490.5"/>
<text text-anchor="middle" x="753.5" y="-497.5" font-family="Helvetica,sans-Serif" font-size="10.00">cJSON_ReplaceItemInObject</text>
</a>
</g>
</g>
<!-- Node19&#45;&gt;Node20 -->
<g id="edge25" class="edge">
<title>Node19&#45;&gt;Node20</title>
<path fill="none" stroke="midnightblue" d="M855.51,-507.48C847.12,-506.86 838.56,-506.23 830.15,-505.6"/>
<polygon fill="midnightblue" stroke="midnightblue" points="855.42,-510.98 865.65,-508.23 855.93,-504 855.42,-510.98"/>
</g>
<!-- Node21 -->
<g id="node21" class="node">
<title>Node21</title>
<g id="a_node21"><a xlink:href="cJSON_8c.html#acbcada89e12f21f1d0f2e296d93130dc" target="_top" xlink:title=" ">
<polygon fill="white" stroke="black" points="677,-441 677,-471 830,-471 830,-441 677,-441"/>
<text text-anchor="start" x="685" y="-459" font-family="Helvetica,sans-Serif" font-size="10.00">cJSON_ReplaceItemInObject</text>
<text text-anchor="middle" x="753.5" y="-448" font-family="Helvetica,sans-Serif" font-size="10.00">CaseSensitive</text>
</a>
</g>
</g>
<!-- Node19&#45;&gt;Node21 -->
<g id="edge26" class="edge">
<title>Node19&#45;&gt;Node21</title>
<path fill="none" stroke="midnightblue" d="M886.45,-500.44C879.58,-498.35 872.58,-496.16 866,-494 849.84,-488.69 846.08,-486.56 830,-481 820.47,-477.7 810.24,-474.25 800.48,-471.01"/>
<polygon fill="midnightblue" stroke="midnightblue" points="885.75,-503.89 896.34,-503.4 887.76,-497.18 885.75,-503.89"/>
</g>
<!-- Node23 -->
<g id="node23" class="node">
<title>Node23</title>
<g id="a_node23"><a xlink:href="cJSON_8c.html#ae84642817f3965a85c7c617663250c16" target="_top" xlink:title=" ">
<polygon fill="white" stroke="black" points="718.5,-199.5 718.5,-218.5 788.5,-218.5 788.5,-199.5 718.5,-199.5"/>
<text text-anchor="middle" x="753.5" y="-206.5" font-family="Helvetica,sans-Serif" font-size="10.00">print_array</text>
</a>
</g>
</g>
<!-- Node22&#45;&gt;Node23 -->
<g id="edge28" class="edge">
<title>Node22&#45;&gt;Node23</title>
<path fill="none" stroke="midnightblue" d="M1047.28,-191.99C984.45,-195.64 851.38,-203.37 788.62,-207.02"/>
<polygon fill="midnightblue" stroke="midnightblue" points="1047.67,-195.47 1057.45,-191.4 1047.27,-188.48 1047.67,-195.47"/>
</g>
<!-- Node24 -->
<g id="node24" class="node">
<title>Node24</title>
<g id="a_node24"><a xlink:href="cJSON_8c.html#a5ba141f183b9abb4b49e38a211299c7e" target="_top" xlink:title=" ">
<polygon fill="white" stroke="black" points="528,-152.5 528,-171.5 599,-171.5 599,-152.5 528,-152.5"/>
<text text-anchor="middle" x="563.5" y="-159.5" font-family="Helvetica,sans-Serif" font-size="10.00">print_value</text>
</a>
</g>
</g>
<!-- Node22&#45;&gt;Node24 -->
<g id="edge45" class="edge">
<title>Node22&#45;&gt;Node24</title>
<path fill="none" stroke="midnightblue" d="M1047.61,-201.14C977.23,-222.57 810.65,-264.31 677,-228 636.35,-216.96 595.38,-187.12 576.02,-171.63"/>
<polygon fill="midnightblue" stroke="midnightblue" points="1048.77,-204.45 1057.28,-198.14 1046.69,-197.76 1048.77,-204.45"/>
</g>
<!-- Node29 -->
<g id="node29" class="node">
<title>Node29</title>
<g id="a_node29"><a xlink:href="cJSON_8c.html#a3d742f5c68799bca291432a9cd72f8dd" target="_top" xlink:title=" ">
<polygon fill="white" stroke="black" points="346,-95.5 346,-114.5 420,-114.5 420,-95.5 346,-95.5"/>
<text text-anchor="middle" x="383" y="-102.5" font-family="Helvetica,sans-Serif" font-size="10.00">print_object</text>
</a>
</g>
</g>
<!-- Node22&#45;&gt;Node29 -->
<g id="edge40" class="edge">
<title>Node22&#45;&gt;Node29</title>
<path fill="none" stroke="midnightblue" d="M1067.72,-172.31C1052.4,-154.12 1025.84,-126.7 996,-114 793.36,-27.75 517.72,-75.25 420.08,-96.47"/>
<polygon fill="midnightblue" stroke="midnightblue" points="1065.28,-174.85 1074.3,-180.4 1070.7,-170.43 1065.28,-174.85"/>
</g>
<!-- Node30 -->
<g id="node30" class="node">
<title>Node30</title>
<g id="a_node30"><a xlink:href="cJSON_8c.html#ad93d84de08872da0eaa6624be0e74a68" target="_top" xlink:title=" ">
<polygon fill="white" stroke="black" points="890,-161.5 890,-180.5 972,-180.5 972,-161.5 890,-161.5"/>
<text text-anchor="middle" x="931" y="-168.5" font-family="Helvetica,sans-Serif" font-size="10.00">print_number</text>
</a>
</g>
</g>
<!-- Node22&#45;&gt;Node30 -->
<g id="edge38" class="edge">
<title>Node22&#45;&gt;Node30</title>
<path fill="none" stroke="midnightblue" d="M1047.4,-185.67C1024.98,-182.82 995.53,-179.07 972,-176.08"/>
<polygon fill="midnightblue" stroke="midnightblue" points="1047.12,-189.16 1057.48,-186.95 1048,-182.21 1047.12,-189.16"/>
</g>
<!-- Node31 -->
<g id="node31" class="node">
<title>Node31</title>
<g id="a_node31"><a xlink:href="cJSON_8c.html#af5b4e769356f10d99a7f66697c42c1bb" target="_top" xlink:title=" ">
<polygon fill="white" stroke="black" points="885.5,-123.5 885.5,-142.5 976.5,-142.5 976.5,-123.5 885.5,-123.5"/>
<text text-anchor="middle" x="931" y="-130.5" font-family="Helvetica,sans-Serif" font-size="10.00">print_string_ptr</text>
</a>
</g>
</g>
<!-- Node22&#45;&gt;Node31 -->
<g id="edge41" class="edge">
<title>Node22&#45;&gt;Node31</title>
<path fill="none" stroke="midnightblue" d="M1052.69,-176.08C1036.29,-168.43 1015.24,-159.1 996,-152 986.76,-148.59 976.6,-145.35 967.15,-142.54"/>
<polygon fill="midnightblue" stroke="midnightblue" points="1051.22,-179.25 1061.76,-180.35 1054.21,-172.92 1051.22,-179.25"/>
</g>
<!-- Node23&#45;&gt;Node24 -->
<g id="edge29" class="edge">
<title>Node23&#45;&gt;Node24</title>
<path fill="none" stroke="midnightblue" d="M722.31,-196.34C688.74,-185.86 634.61,-172.24 599.29,-165.32"/>
<polygon fill="midnightblue" stroke="midnightblue" points="721.43,-199.73 732.02,-199.48 723.58,-193.07 721.43,-199.73"/>
</g>
<!-- Node24&#45;&gt;Node23 -->
<g id="edge35" class="edge">
<title>Node24&#45;&gt;Node23</title>
<path fill="none" stroke="midnightblue" d="M594.72,-174.67C628.53,-185.22 683.17,-198.96 718.45,-205.83"/>
<polygon fill="midnightblue" stroke="midnightblue" points="595.54,-171.26 584.94,-171.51 593.38,-177.92 595.54,-171.26"/>
</g>
<!-- Node25 -->
<g id="node25" class="node">
<title>Node25</title>
<g id="a_node25"><a xlink:href="cJSON_8c.html#a5ae150f0e5009534979d4532a411d077" target="_top" xlink:title=" ">
<polygon fill="white" stroke="black" points="316,-152.5 316,-171.5 450,-171.5 450,-152.5 316,-152.5"/>
<text text-anchor="middle" x="383" y="-159.5" font-family="Helvetica,sans-Serif" font-size="10.00">cJSON_PrintPreallocated</text>
</a>
</g>
</g>
<!-- Node24&#45;&gt;Node25 -->
<g id="edge30" class="edge">
<title>Node24&#45;&gt;Node25</title>
<path fill="none" stroke="midnightblue" d="M517.42,-162C497.05,-162 472.58,-162 450.19,-162"/>
<polygon fill="midnightblue" stroke="midnightblue" points="517.66,-165.5 527.66,-162 517.66,-158.5 517.66,-165.5"/>
</g>
<!-- Node24&#45;&gt;Node26 -->
<g id="edge31" class="edge">
<title>Node24&#45;&gt;Node26</title>
<path fill="none" stroke="midnightblue" d="M541.52,-146.37C504.34,-118.66 427.91,-61.72 397.2,-38.84"/>
<polygon fill="midnightblue" stroke="midnightblue" points="539.55,-149.27 549.66,-152.43 543.74,-143.65 539.55,-149.27"/>
</g>
<!-- Node24&#45;&gt;Node29 -->
<g id="edge36" class="edge">
<title>Node24&#45;&gt;Node29</title>
<path fill="none" stroke="midnightblue" d="M536.13,-148.62C505.46,-136.66 454.64,-120.23 420.26,-111.02"/>
<polygon fill="midnightblue" stroke="midnightblue" points="535.12,-151.99 545.71,-152.49 537.75,-145.5 535.12,-151.99"/>
</g>
<!-- Node27 -->
<g id="node27" class="node">
<title>Node27</title>
<g id="a_node27"><a xlink:href="namespaceTimings.html#aadf2661fed15eeec1d5ca92e8125726e" target="_top" xlink:title=" ">
<polygon fill="white" stroke="black" points="119,-0.5 119,-19.5 280,-19.5 280,-0.5 119,-0.5"/>
<text text-anchor="middle" x="199.5" y="-7.5" font-family="Helvetica,sans-Serif" font-size="10.00">Timings.analyze_timing_data</text>
</a>
</g>
</g>
<!-- Node26&#45;&gt;Node27 -->
<g id="edge32" class="edge">
<title>Node26&#45;&gt;Node27</title>
<path fill="none" stroke="midnightblue" d="M353.13,-25.98C333.42,-23.91 306.27,-21.07 280.34,-18.36"/>
<polygon fill="midnightblue" stroke="midnightblue" points="352.95,-29.48 363.26,-27.04 353.68,-22.52 352.95,-29.48"/>
</g>
<!-- Node28 -->
<g id="node28" class="node">
<title>Node28</title>
<g id="a_node28"><a xlink:href="namespaceTimings.html#a4dc59d29cbbbc539305dfa472f2e0f52" target="_top" xlink:title=" ">
<polygon fill="white" stroke="black" points="0,-19.5 0,-38.5 83,-38.5 83,-19.5 0,-19.5"/>
<text text-anchor="middle" x="41.5" y="-26.5" font-family="Helvetica,sans-Serif" font-size="10.00">Timings.main</text>
</a>
</g>
</g>
<!-- Node26&#45;&gt;Node28 -->
<g id="edge34" class="edge">
<title>Node26&#45;&gt;Node28</title>
<path fill="none" stroke="midnightblue" d="M352.91,-29C292.36,-29 152.62,-29 83.19,-29"/>
<polygon fill="midnightblue" stroke="midnightblue" points="353.26,-32.5 363.26,-29 353.26,-25.5 353.26,-32.5"/>
</g>
<!-- Node27&#45;&gt;Node28 -->
<g id="edge33" class="edge">
<title>Node27&#45;&gt;Node28</title>
<path fill="none" stroke="midnightblue" d="M109.91,-20.79C100.63,-21.92 91.55,-23.03 83.21,-24.04"/>
<polygon fill="midnightblue" stroke="midnightblue" points="110.54,-24.24 120.04,-19.56 109.69,-17.29 110.54,-24.24"/>
</g>
<!-- Node29&#45;&gt;Node24 -->
<g id="edge37" class="edge">
<title>Node29&#45;&gt;Node24</title>
<path fill="none" stroke="midnightblue" d="M410.26,-118.34C441.35,-130.47 493.24,-147.22 527.66,-156.36"/>
<polygon fill="midnightblue" stroke="midnightblue" points="411.53,-115.07 400.95,-114.57 408.91,-121.56 411.53,-115.07"/>
</g>
<!-- Node30&#45;&gt;Node24 -->
<g id="edge39" class="edge">
<title>Node30&#45;&gt;Node24</title>
<path fill="none" stroke="midnightblue" d="M879.65,-169.76C804.24,-167.9 663.94,-164.45 599.06,-162.85"/>
<polygon fill="midnightblue" stroke="midnightblue" points="879.76,-173.26 889.84,-170.01 879.93,-166.27 879.76,-173.26"/>
</g>
<!-- Node31&#45;&gt;Node29 -->
<g id="edge42" class="edge">
<title>Node31&#45;&gt;Node29</title>
<path fill="none" stroke="midnightblue" d="M878.46,-121.5C862.96,-118.5 845.86,-115.65 830,-114 678.45,-98.19 496.41,-101.36 420.26,-103.68"/>
<polygon fill="midnightblue" stroke="midnightblue" points="877.9,-124.96 888.39,-123.48 879.27,-118.09 877.9,-124.96"/>
</g>
<!-- Node32 -->
<g id="node32" class="node">
<title>Node32</title>
<g id="a_node32"><a xlink:href="cJSON_8c.html#ad087dd738e49b4258f0a3d378a121df6" target="_top" xlink:title=" ">
<polygon fill="white" stroke="black" points="717.5,-123.5 717.5,-142.5 789.5,-142.5 789.5,-123.5 717.5,-123.5"/>
<text text-anchor="middle" x="753.5" y="-130.5" font-family="Helvetica,sans-Serif" font-size="10.00">print_string</text>
</a>
</g>
</g>
<!-- Node31&#45;&gt;Node32 -->
<g id="edge43" class="edge">
<title>Node31&#45;&gt;Node32</title>
<path fill="none" stroke="midnightblue" d="M875.24,-133C847.34,-133 814.24,-133 789.75,-133"/>
<polygon fill="midnightblue" stroke="midnightblue" points="875.26,-136.5 885.26,-133 875.26,-129.5 875.26,-136.5"/>
</g>
<!-- Node32&#45;&gt;Node24 -->
<g id="edge44" class="edge">
<title>Node32&#45;&gt;Node24</title>
<path fill="none" stroke="midnightblue" d="M707.21,-139.99C673.96,-145.12 629.48,-151.98 599.07,-156.67"/>
<polygon fill="midnightblue" stroke="midnightblue" points="707.79,-143.44 717.14,-138.45 706.72,-136.52 707.79,-143.44"/>
</g>
<!-- Node33&#45;&gt;Node10 -->
<g id="edge48" class="edge">
<title>Node33&#45;&gt;Node10</title>
<path fill="none" stroke="midnightblue" d="M898.44,-298.67C863.27,-313.9 807.31,-338.13 776.55,-351.45"/>
<polygon fill="midnightblue" stroke="midnightblue" points="899.99,-301.81 907.77,-294.63 897.21,-295.39 899.99,-301.81"/>
</g>
<!-- Node33&#45;&gt;Node11 -->
<g id="edge47" class="edge">
<title>Node33&#45;&gt;Node11</title>
<path fill="none" stroke="midnightblue" d="M882.29,-286.81C831.14,-289.39 747.73,-295.4 677,-309 647.42,-314.69 614.44,-324.83 591.88,-332.37"/>
<polygon fill="midnightblue" stroke="midnightblue" points="882.57,-290.3 892.39,-286.33 882.23,-283.31 882.57,-290.3"/>
</g>
</g>
</svg>
