<?xml version="1.0" encoding="UTF-8" standalone="no"?>
<!DOCTYPE svg PUBLIC "-//W3C//DTD SVG 1.1//EN"
 "http://www.w3.org/Graphics/SVG/1.1/DTD/svg11.dtd">
<!-- Generated by graphviz version 2.43.0 (0)
 -->
<!-- Title: internal_hooks::reallocate Pages: 1 -->
<svg width="1103pt" height="220pt"
 viewBox="0.00 0.00 1103.00 220.24" xmlns="http://www.w3.org/2000/svg" xmlns:xlink="http://www.w3.org/1999/xlink">
<g id="graph0" class="graph" transform="scale(1 1) rotate(0) translate(4 216.24)">
<title>internal_hooks::reallocate</title>
<polygon fill="white" stroke="transparent" points="-4,4 -4,-216.24 1099,-216.24 1099,4 -4,4"/>
<!-- Node1 -->
<g id="node1" class="node">
<title>Node1</title>
<g id="a_node1"><a xlink:title=" ">
<polygon fill="#bfbfbf" stroke="black" points="952,-85.5 952,-104.5 1095,-104.5 1095,-85.5 952,-85.5"/>
<text text-anchor="middle" x="1023.5" y="-92.5" font-family="Helvetica,sans-Serif" font-size="10.00">internal_hooks::reallocate</text>
</a>
</g>
</g>
<!-- Node2 -->
<g id="node2" class="node">
<title>Node2</title>
<g id="a_node2"><a xlink:href="cJSON_8c.html#a9e943a63b19411e07fe82f46a56e35e5" target="_top" xlink:title=" ">
<polygon fill="white" stroke="black" points="828,-123.5 828,-142.5 916,-142.5 916,-123.5 828,-123.5"/>
<text text-anchor="middle" x="872" y="-130.5" font-family="Helvetica,sans-Serif" font-size="10.00">CJSON_PUBLIC</text>
</a>
</g>
</g>
<!-- Node1&#45;&gt;Node2 -->
<g id="edge1" class="edge">
<title>Node1&#45;&gt;Node2</title>
<path fill="none" stroke="midnightblue" d="M974.85,-107.11C954.03,-112.4 929.96,-118.52 910.45,-123.48"/>
<polygon fill="midnightblue" stroke="midnightblue" points="975.95,-110.44 984.77,-104.59 974.22,-103.66 975.95,-110.44"/>
</g>
<!-- Node3 -->
<g id="node3" class="node">
<title>Node3</title>
<g id="a_node3"><a xlink:href="cJSON_8c.html#a3faa1600bc8001eaed05f16060668ce6" target="_top" xlink:title=" ">
<polygon fill="white" stroke="black" points="847,-85.5 847,-104.5 897,-104.5 897,-85.5 847,-85.5"/>
<text text-anchor="middle" x="872" y="-92.5" font-family="Helvetica,sans-Serif" font-size="10.00">ensure</text>
</a>
</g>
</g>
<!-- Node1&#45;&gt;Node3 -->
<g id="edge2" class="edge">
<title>Node1&#45;&gt;Node3</title>
<path fill="none" stroke="midnightblue" d="M941.57,-95C925.35,-95 909.52,-95 897.16,-95"/>
<polygon fill="midnightblue" stroke="midnightblue" points="941.69,-98.5 951.69,-95 941.69,-91.5 941.69,-98.5"/>
</g>
<!-- Node7 -->
<g id="node7" class="node">
<title>Node7</title>
<g id="a_node7"><a xlink:href="cJSON_8c.html#ae71e2aec89bf140e6430cb7d5ca417c5" target="_top" xlink:title=" ">
<polygon fill="white" stroke="black" points="363.5,-9.5 363.5,-28.5 402.5,-28.5 402.5,-9.5 363.5,-9.5"/>
<text text-anchor="middle" x="383" y="-16.5" font-family="Helvetica,sans-Serif" font-size="10.00">print</text>
</a>
</g>
</g>
<!-- Node1&#45;&gt;Node7 -->
<g id="edge21" class="edge">
<title>Node1&#45;&gt;Node7</title>
<path fill="none" stroke="midnightblue" d="M997.9,-80.26C950.96,-53.58 844.61,0 747.5,0 747.5,0 747.5,0 628,0 543.66,0 443.41,-11.42 402.63,-16.55"/>
<polygon fill="midnightblue" stroke="midnightblue" points="996.33,-83.39 1006.74,-85.37 999.83,-77.33 996.33,-83.39"/>
</g>
<!-- Node4 -->
<g id="node4" class="node">
<title>Node4</title>
<g id="a_node4"><a xlink:href="cJSON_8c.html#ae84642817f3965a85c7c617663250c16" target="_top" xlink:title=" ">
<polygon fill="white" stroke="black" points="594,-28.5 594,-47.5 664,-47.5 664,-28.5 594,-28.5"/>
<text text-anchor="middle" x="629" y="-35.5" font-family="Helvetica,sans-Serif" font-size="10.00">print_array</text>
</a>
</g>
</g>
<!-- Node3&#45;&gt;Node4 -->
<g id="edge3" class="edge">
<title>Node3&#45;&gt;Node4</title>
<path fill="none" stroke="midnightblue" d="M846.24,-80.46C831.08,-72.23 811,-62.52 792,-57 749.03,-44.53 697.39,-40.21 664.15,-38.74"/>
<polygon fill="midnightblue" stroke="midnightblue" points="844.55,-83.52 854.99,-85.34 847.96,-77.41 844.55,-83.52"/>
</g>
<!-- Node5 -->
<g id="node5" class="node">
<title>Node5</title>
<g id="a_node5"><a xlink:href="cJSON_8c.html#a5ba141f183b9abb4b49e38a211299c7e" target="_top" xlink:title=" ">
<polygon fill="white" stroke="black" points="486,-85.5 486,-104.5 557,-104.5 557,-85.5 486,-85.5"/>
<text text-anchor="middle" x="521.5" y="-92.5" font-family="Helvetica,sans-Serif" font-size="10.00">print_value</text>
</a>
</g>
</g>
<!-- Node3&#45;&gt;Node5 -->
<g id="edge20" class="edge">
<title>Node3&#45;&gt;Node5</title>
<path fill="none" stroke="midnightblue" d="M836.72,-96.79C784.23,-99.27 680.78,-103.11 593,-100 581.35,-99.59 568.64,-98.79 557.26,-97.96"/>
<polygon fill="midnightblue" stroke="midnightblue" points="837,-100.28 846.82,-96.3 836.66,-93.29 837,-100.28"/>
</g>
<!-- Node10 -->
<g id="node10" class="node">
<title>Node10</title>
<g id="a_node10"><a xlink:href="cJSON_8c.html#a3d742f5c68799bca291432a9cd72f8dd" target="_top" xlink:title=" ">
<polygon fill="white" stroke="black" points="346,-152.5 346,-171.5 420,-171.5 420,-152.5 346,-152.5"/>
<text text-anchor="middle" x="383" y="-159.5" font-family="Helvetica,sans-Serif" font-size="10.00">print_object</text>
</a>
</g>
</g>
<!-- Node3&#45;&gt;Node10 -->
<g id="edge15" class="edge">
<title>Node3&#45;&gt;Node10</title>
<path fill="none" stroke="midnightblue" d="M837.57,-107.34C834.16,-109.29 830.89,-111.51 828,-114 805.31,-133.57 817.28,-154.92 792,-171 668.24,-249.7 477.86,-195.24 409.52,-171.51"/>
<polygon fill="midnightblue" stroke="midnightblue" points="839.39,-110.34 846.78,-102.75 836.26,-104.07 839.39,-110.34"/>
</g>
<!-- Node11 -->
<g id="node11" class="node">
<title>Node11</title>
<g id="a_node11"><a xlink:href="cJSON_8c.html#ad93d84de08872da0eaa6624be0e74a68" target="_top" xlink:title=" ">
<polygon fill="white" stroke="black" points="705.5,-66.5 705.5,-85.5 787.5,-85.5 787.5,-66.5 705.5,-66.5"/>
<text text-anchor="middle" x="746.5" y="-73.5" font-family="Helvetica,sans-Serif" font-size="10.00">print_number</text>
</a>
</g>
</g>
<!-- Node3&#45;&gt;Node11 -->
<g id="edge13" class="edge">
<title>Node3&#45;&gt;Node11</title>
<path fill="none" stroke="midnightblue" d="M836.84,-89.74C821.58,-87.4 803.49,-84.61 787.59,-82.17"/>
<polygon fill="midnightblue" stroke="midnightblue" points="836.48,-93.23 846.89,-91.29 837.54,-86.31 836.48,-93.23"/>
</g>
<!-- Node12 -->
<g id="node12" class="node">
<title>Node12</title>
<g id="a_node12"><a xlink:href="cJSON_8c.html#af5b4e769356f10d99a7f66697c42c1bb" target="_top" xlink:title=" ">
<polygon fill="white" stroke="black" points="701,-142.5 701,-161.5 792,-161.5 792,-142.5 701,-142.5"/>
<text text-anchor="middle" x="746.5" y="-149.5" font-family="Helvetica,sans-Serif" font-size="10.00">print_string_ptr</text>
</a>
</g>
</g>
<!-- Node3&#45;&gt;Node12 -->
<g id="edge16" class="edge">
<title>Node3&#45;&gt;Node12</title>
<path fill="none" stroke="midnightblue" d="M839.9,-108.63C835.89,-110.42 831.84,-112.24 828,-114 807.2,-123.5 783.54,-134.72 767.29,-142.49"/>
<polygon fill="midnightblue" stroke="midnightblue" points="841.36,-111.81 849.08,-104.56 838.52,-105.42 841.36,-111.81"/>
</g>
<!-- Node4&#45;&gt;Node5 -->
<g id="edge4" class="edge">
<title>Node4&#45;&gt;Node5</title>
<path fill="none" stroke="midnightblue" d="M589.78,-52.13C569.34,-62.5 545.76,-76.02 532.64,-85.34"/>
<polygon fill="midnightblue" stroke="midnightblue" points="591.48,-55.19 598.89,-47.62 588.38,-48.92 591.48,-55.19"/>
</g>
<!-- Node5&#45;&gt;Node4 -->
<g id="edge10" class="edge">
<title>Node5&#45;&gt;Node4</title>
<path fill="none" stroke="midnightblue" d="M560.54,-80.96C581.03,-70.57 604.74,-56.98 617.88,-47.64"/>
<polygon fill="midnightblue" stroke="midnightblue" points="558.82,-77.91 551.4,-85.48 561.92,-84.18 558.82,-77.91"/>
</g>
<!-- Node6 -->
<g id="node6" class="node">
<title>Node6</title>
<g id="a_node6"><a xlink:href="cJSON_8c.html#a5ae150f0e5009534979d4532a411d077" target="_top" xlink:title=" ">
<polygon fill="white" stroke="black" points="316,-85.5 316,-104.5 450,-104.5 450,-85.5 316,-85.5"/>
<text text-anchor="middle" x="383" y="-92.5" font-family="Helvetica,sans-Serif" font-size="10.00">cJSON_PrintPreallocated</text>
</a>
</g>
</g>
<!-- Node5&#45;&gt;Node6 -->
<g id="edge5" class="edge">
<title>Node5&#45;&gt;Node6</title>
<path fill="none" stroke="midnightblue" d="M475.64,-95C467.44,-95 458.73,-95 450.07,-95"/>
<polygon fill="midnightblue" stroke="midnightblue" points="475.7,-98.5 485.7,-95 475.7,-91.5 475.7,-98.5"/>
</g>
<!-- Node5&#45;&gt;Node7 -->
<g id="edge6" class="edge">
<title>Node5&#45;&gt;Node7</title>
<path fill="none" stroke="midnightblue" d="M494.18,-80.35C466.75,-65.07 424.56,-41.58 401.15,-28.55"/>
<polygon fill="midnightblue" stroke="midnightblue" points="492.77,-83.57 503.21,-85.37 496.18,-77.45 492.77,-83.57"/>
</g>
<!-- Node5&#45;&gt;Node10 -->
<g id="edge11" class="edge">
<title>Node5&#45;&gt;Node10</title>
<path fill="none" stroke="midnightblue" d="M479.69,-108.79C450.69,-121.89 413.75,-140.79 395.4,-152.46"/>
<polygon fill="midnightblue" stroke="midnightblue" points="481.46,-111.84 489.18,-104.59 478.62,-105.44 481.46,-111.84"/>
</g>
<!-- Node8 -->
<g id="node8" class="node">
<title>Node8</title>
<g id="a_node8"><a xlink:href="namespaceTimings.html#aadf2661fed15eeec1d5ca92e8125726e" target="_top" xlink:title=" ">
<polygon fill="white" stroke="black" points="119,-28.5 119,-47.5 280,-47.5 280,-28.5 119,-28.5"/>
<text text-anchor="middle" x="199.5" y="-35.5" font-family="Helvetica,sans-Serif" font-size="10.00">Timings.analyze_timing_data</text>
</a>
</g>
</g>
<!-- Node7&#45;&gt;Node8 -->
<g id="edge7" class="edge">
<title>Node7&#45;&gt;Node8</title>
<path fill="none" stroke="midnightblue" d="M353.13,-22.02C333.42,-24.09 306.27,-26.93 280.34,-29.64"/>
<polygon fill="midnightblue" stroke="midnightblue" points="353.68,-25.48 363.26,-20.96 352.95,-18.52 353.68,-25.48"/>
</g>
<!-- Node9 -->
<g id="node9" class="node">
<title>Node9</title>
<g id="a_node9"><a xlink:href="namespaceTimings.html#a4dc59d29cbbbc539305dfa472f2e0f52" target="_top" xlink:title=" ">
<polygon fill="white" stroke="black" points="0,-9.5 0,-28.5 83,-28.5 83,-9.5 0,-9.5"/>
<text text-anchor="middle" x="41.5" y="-16.5" font-family="Helvetica,sans-Serif" font-size="10.00">Timings.main</text>
</a>
</g>
</g>
<!-- Node7&#45;&gt;Node9 -->
<g id="edge9" class="edge">
<title>Node7&#45;&gt;Node9</title>
<path fill="none" stroke="midnightblue" d="M352.91,-19C292.36,-19 152.62,-19 83.19,-19"/>
<polygon fill="midnightblue" stroke="midnightblue" points="353.26,-22.5 363.26,-19 353.26,-15.5 353.26,-22.5"/>
</g>
<!-- Node8&#45;&gt;Node9 -->
<g id="edge8" class="edge">
<title>Node8&#45;&gt;Node9</title>
<path fill="none" stroke="midnightblue" d="M109.91,-27.21C100.63,-26.08 91.55,-24.97 83.21,-23.96"/>
<polygon fill="midnightblue" stroke="midnightblue" points="109.69,-30.71 120.04,-28.44 110.54,-23.76 109.69,-30.71"/>
</g>
<!-- Node10&#45;&gt;Node5 -->
<g id="edge12" class="edge">
<title>Node10&#45;&gt;Node5</title>
<path fill="none" stroke="midnightblue" d="M424.82,-148.2C453.7,-135.16 490.44,-116.37 508.86,-104.69"/>
<polygon fill="midnightblue" stroke="midnightblue" points="423.09,-145.14 415.36,-152.39 425.92,-151.54 423.09,-145.14"/>
</g>
<!-- Node11&#45;&gt;Node5 -->
<g id="edge14" class="edge">
<title>Node11&#45;&gt;Node5</title>
<path fill="none" stroke="midnightblue" d="M695.33,-80.27C653.23,-83.86 594.21,-88.89 557.18,-92.05"/>
<polygon fill="midnightblue" stroke="midnightblue" points="695.71,-83.76 705.37,-79.42 695.11,-76.78 695.71,-83.76"/>
</g>
<!-- Node12&#45;&gt;Node10 -->
<g id="edge17" class="edge">
<title>Node12&#45;&gt;Node10</title>
<path fill="none" stroke="midnightblue" d="M703.01,-163.97C690.83,-166.87 677.48,-169.55 665,-171 577.49,-181.19 473.69,-172.53 420.07,-166.54"/>
<polygon fill="midnightblue" stroke="midnightblue" points="704.05,-167.32 712.91,-161.51 702.36,-160.52 704.05,-167.32"/>
</g>
<!-- Node13 -->
<g id="node13" class="node">
<title>Node13</title>
<g id="a_node13"><a xlink:href="cJSON_8c.html#ad087dd738e49b4258f0a3d378a121df6" target="_top" xlink:title=" ">
<polygon fill="white" stroke="black" points="593,-142.5 593,-161.5 665,-161.5 665,-142.5 593,-142.5"/>
<text text-anchor="middle" x="629" y="-149.5" font-family="Helvetica,sans-Serif" font-size="10.00">print_string</text>
</a>
</g>
</g>
<!-- Node12&#45;&gt;Node13 -->
<g id="edge18" class="edge">
<title>Node12&#45;&gt;Node13</title>
<path fill="none" stroke="midnightblue" d="M690.75,-152C682.07,-152 673.3,-152 665.23,-152"/>
<polygon fill="midnightblue" stroke="midnightblue" points="690.84,-155.5 700.84,-152 690.84,-148.5 690.84,-155.5"/>
</g>
<!-- Node13&#45;&gt;Node5 -->
<g id="edge19" class="edge">
<title>Node13&#45;&gt;Node5</title>
<path fill="none" stroke="midnightblue" d="M601.25,-137.55C582.09,-127.19 556.82,-113.54 540.13,-104.53"/>
<polygon fill="midnightblue" stroke="midnightblue" points="599.64,-140.66 610.1,-142.33 602.97,-134.5 599.64,-140.66"/>
</g>
</g>
</svg>
