<?xml version="1.0" encoding="UTF-8" standalone="no"?>
<!DOCTYPE svg PUBLIC "-//W3C//DTD SVG 1.1//EN"
 "http://www.w3.org/Graphics/SVG/1.1/DTD/svg11.dtd">
<!-- Generated by graphviz version 2.43.0 (0)
 -->
<!-- Title: internal_hooks::allocate Pages: 1 -->
<svg width="1311pt" height="703pt"
 viewBox="0.00 0.00 1311.00 702.50" xmlns="http://www.w3.org/2000/svg" xmlns:xlink="http://www.w3.org/1999/xlink">
<g id="graph0" class="graph" transform="scale(1 1) rotate(0) translate(4 698.5)">
<title>internal_hooks::allocate</title>
<!-- Node1 -->
<g id="Node000001" class="node">
<title>Node1</title>
<g id="a_Node000001"><a xlink:title=" ">
<polygon fill="#999999" stroke="#666666" points="1303,-237.5 1169,-237.5 1169,-218.5 1303,-218.5 1303,-237.5"/>
<text text-anchor="middle" x="1236" y="-225.5" font-family="Helvetica,sans-Serif" font-size="10.00">internal_hooks::allocate</text>
</a>
</g>
</g>
<!-- Node2 -->
<g id="Node000002" class="node">
<title>Node2</title>
<g id="a_Node000002"><a xlink:href="cJSON_8c.html#aa05c1f56de8779ae1584c525cc81aeb5" target="_top" xlink:title=" ">
<polygon fill="white" stroke="#666666" points="1133,-370.5 1032,-370.5 1032,-351.5 1133,-351.5 1133,-370.5"/>
<text text-anchor="middle" x="1082.5" y="-358.5" font-family="Helvetica,sans-Serif" font-size="10.00">cJSON_New_Item</text>
</a>
</g>
</g>
<!-- Node1&#45;&gt;Node2 -->
<g id="edge1_Node000001_Node000002" class="edge">
<title>Node1&#45;&gt;Node2</title>
<g id="a_edge1_Node000001_Node000002"><a xlink:title=" ">
<path fill="none" stroke="#63b8ff" d="M1216.39,-244.34C1184.55,-272.29 1120.55,-328.48 1094.71,-351.16"/>
<polygon fill="#63b8ff" stroke="#63b8ff" points="1218.9,-246.79 1224.1,-237.57 1214.28,-241.53 1218.9,-246.79"/>
</a>
</g>
</g>
<!-- Node12 -->
<g id="Node000012" class="node">
<title>Node12</title>
<g id="a_Node000012"><a xlink:href="cJSON_8c.html#a0b3a6bc5d2c01a027675cf52246b9424" target="_top" xlink:title=" ">
<polygon fill="white" stroke="#666666" points="1126.5,-237.5 1038.5,-237.5 1038.5,-218.5 1126.5,-218.5 1126.5,-237.5"/>
<text text-anchor="middle" x="1082.5" y="-225.5" font-family="Helvetica,sans-Serif" font-size="10.00">CJSON_PUBLIC</text>
</a>
</g>
</g>
<!-- Node1&#45;&gt;Node12 -->
<g id="edge16_Node000001_Node000012" class="edge">
<title>Node1&#45;&gt;Node12</title>
<g id="a_edge16_Node000001_Node000012"><a xlink:title=" ">
<path fill="none" stroke="#63b8ff" d="M1158.85,-228C1147.78,-228 1136.72,-228 1126.62,-228"/>
<polygon fill="#63b8ff" stroke="#63b8ff" points="1158.99,-231.5 1168.99,-228 1158.99,-224.5 1158.99,-231.5"/>
</a>
</g>
</g>
<!-- Node13 -->
<g id="Node000013" class="node">
<title>Node13</title>
<g id="a_Node000013"><a xlink:href="cJSON_8c.html#a9e943a63b19411e07fe82f46a56e35e5" target="_top" xlink:title=" ">
<polygon fill="white" stroke="#666666" points="1126.5,-200.5 1038.5,-200.5 1038.5,-181.5 1126.5,-181.5 1126.5,-200.5"/>
<text text-anchor="middle" x="1082.5" y="-188.5" font-family="Helvetica,sans-Serif" font-size="10.00">CJSON_PUBLIC</text>
</a>
</g>
</g>
<!-- Node1&#45;&gt;Node13 -->
<g id="edge17_Node000001_Node000013" class="edge">
<title>Node1&#45;&gt;Node13</title>
<g id="a_edge17_Node000001_Node000013"><a xlink:title=" ">
<path fill="none" stroke="#63b8ff" d="M1186.17,-216.07C1165.62,-211.06 1142.03,-205.29 1122.65,-200.56"/>
<polygon fill="#63b8ff" stroke="#63b8ff" points="1185.44,-219.5 1195.98,-218.47 1187.1,-212.7 1185.44,-219.5"/>
</a>
</g>
</g>
<!-- Node14 -->
<g id="Node000014" class="node">
<title>Node14</title>
<g id="a_Node000014"><a xlink:href="cJSON_8c.html#a15067642a12599c13a0e6c0da9009be7" target="_top" xlink:title=" ">
<polygon fill="white" stroke="#666666" points="1123.5,-491.5 1041.5,-491.5 1041.5,-472.5 1123.5,-472.5 1123.5,-491.5"/>
<text text-anchor="middle" x="1082.5" y="-479.5" font-family="Helvetica,sans-Serif" font-size="10.00">cJSON_strdup</text>
</a>
</g>
</g>
<!-- Node1&#45;&gt;Node14 -->
<g id="edge18_Node000001_Node000014" class="edge">
<title>Node1&#45;&gt;Node14</title>
<g id="a_edge18_Node000001_Node000014"><a xlink:title=" ">
<path fill="none" stroke="#63b8ff" d="M1223.98,-246.47C1194.02,-296.71 1111.77,-434.61 1089.26,-472.34"/>
<polygon fill="#63b8ff" stroke="#63b8ff" points="1227.13,-248.03 1229.25,-237.65 1221.12,-244.44 1227.13,-248.03"/>
</a>
</g>
</g>
<!-- Node23 -->
<g id="Node000023" class="node">
<title>Node23</title>
<g id="a_Node000023"><a xlink:href="cJSON_8c.html#ad9f9a9b2ad3154fc8033756f23c023a6" target="_top" xlink:title=" ">
<polygon fill="white" stroke="#666666" points="1107.5,-162.5 1057.5,-162.5 1057.5,-143.5 1107.5,-143.5 1107.5,-162.5"/>
<text text-anchor="middle" x="1082.5" y="-150.5" font-family="Helvetica,sans-Serif" font-size="10.00">ensure</text>
</a>
</g>
</g>
<!-- Node1&#45;&gt;Node23 -->
<g id="edge29_Node000001_Node000023" class="edge">
<title>Node1&#45;&gt;Node23</title>
<g id="a_edge29_Node000001_Node000023"><a xlink:title=" ">
<path fill="none" stroke="#63b8ff" d="M1209.73,-213.36C1189.33,-201.79 1159.72,-185.56 1133,-173 1124.86,-169.18 1115.79,-165.38 1107.65,-162.14"/>
<polygon fill="#63b8ff" stroke="#63b8ff" points="1208.26,-216.55 1218.68,-218.47 1211.73,-210.48 1208.26,-216.55"/>
</a>
</g>
</g>
<!-- Node27 -->
<g id="Node000027" class="node">
<title>Node27</title>
<g id="a_Node000027"><a xlink:href="cJSON_8c.html#a36b0c212c0d382a4714afa8b70c1a2ee" target="_top" xlink:title=" ">
<polygon fill="white" stroke="#666666" points="402.5,-48.5 363.5,-48.5 363.5,-29.5 402.5,-29.5 402.5,-48.5"/>
<text text-anchor="middle" x="383" y="-36.5" font-family="Helvetica,sans-Serif" font-size="10.00">print</text>
</a>
</g>
</g>
<!-- Node1&#45;&gt;Node27 -->
<g id="edge52_Node000001_Node000027" class="edge">
<title>Node1&#45;&gt;Node27</title>
<g id="a_edge52_Node000001_Node000027"><a xlink:title=" ">
<path fill="none" stroke="#63b8ff" d="M1223.48,-209.94C1187.53,-156.04 1071.42,0 932,0 932,0 932,0 752.5,0 617.72,0 456.75,-26.12 402.72,-35.61"/>
<polygon fill="#63b8ff" stroke="#63b8ff" points="1220.67,-212.04 1229.08,-218.49 1226.53,-208.21 1220.67,-212.04"/>
</a>
</g>
</g>
<!-- Node34 -->
<g id="Node000034" class="node">
<title>Node34</title>
<g id="a_Node000034"><a xlink:href="cJSON_8c.html#adf47b520af96d1bbefa2390016fbdb51" target="_top" xlink:title=" ">
<polygon fill="white" stroke="#666666" points="969.5,-275.5 892.5,-275.5 892.5,-256.5 969.5,-256.5 969.5,-275.5"/>
<text text-anchor="middle" x="931" y="-263.5" font-family="Helvetica,sans-Serif" font-size="10.00">parse_string</text>
</a>
</g>
</g>
<!-- Node1&#45;&gt;Node34 -->
<g id="edge49_Node000001_Node000034" class="edge">
<title>Node1&#45;&gt;Node34</title>
<g id="a_edge49_Node000001_Node000034"><a xlink:title=" ">
<path fill="none" stroke="#63b8ff" d="M1178.65,-239.43C1163.84,-242.18 1147.86,-244.92 1133,-247 1076.25,-254.95 1010,-260.5 969.53,-263.47"/>
<polygon fill="#63b8ff" stroke="#63b8ff" points="1179.51,-242.83 1188.68,-237.54 1178.21,-235.95 1179.51,-242.83"/>
</a>
</g>
</g>
<!-- Node3 -->
<g id="Node000003" class="node">
<title>Node3</title>
<g id="a_Node000003"><a xlink:href="cJSON_8c.html#a7916f8c63594d49f98777b2f2153e245" target="_top" xlink:title=" ">
<polygon fill="white" stroke="#666666" points="990,-464.5 872,-464.5 872,-445.5 990,-445.5 990,-464.5"/>
<text text-anchor="middle" x="931" y="-452.5" font-family="Helvetica,sans-Serif" font-size="10.00">cJSON_Duplicate_rec</text>
</a>
</g>
</g>
<!-- Node2&#45;&gt;Node3 -->
<g id="edge2_Node000002_Node000003" class="edge">
<title>Node2&#45;&gt;Node3</title>
<g id="a_edge2_Node000002_Node000003"><a xlink:title=" ">
<path fill="none" stroke="#63b8ff" d="M1066.42,-378.39C1050.54,-395.65 1024,-421.69 996,-437 989.82,-440.38 982.96,-443.17 976.08,-445.46"/>
<polygon fill="#63b8ff" stroke="#63b8ff" points="1069.24,-380.48 1073.32,-370.7 1064.03,-375.81 1069.24,-380.48"/>
</a>
</g>
</g>
<!-- Node4 -->
<g id="Node000004" class="node">
<title>Node4</title>
<g id="a_Node000004"><a xlink:href="cJSON_8c.html#a3a24e49a04490273160cdc1f30f10d22" target="_top" xlink:title=" ">
<polygon fill="white" stroke="#666666" points="641,-369.5 486,-369.5 486,-350.5 641,-350.5 641,-369.5"/>
<text text-anchor="middle" x="563.5" y="-357.5" font-family="Helvetica,sans-Serif" font-size="10.00">cJSON_ParseWithLengthOpts</text>
</a>
</g>
</g>
<!-- Node2&#45;&gt;Node4 -->
<g id="edge4_Node000002_Node000004" class="edge">
<title>Node2&#45;&gt;Node4</title>
<g id="a_edge4_Node000002_Node000004"><a xlink:title=" ">
<path fill="none" stroke="#63b8ff" d="M1021.76,-361.17C942.84,-361.35 799.49,-361.54 677,-361 665.38,-360.95 653.08,-360.87 641.05,-360.77"/>
<polygon fill="#63b8ff" stroke="#63b8ff" points="1022,-364.67 1032,-361.14 1021.99,-357.67 1022,-364.67"/>
</a>
</g>
</g>
<!-- Node7 -->
<g id="Node000007" class="node">
<title>Node7</title>
<g id="a_Node000007"><a xlink:href="cJSON_8c.html#a34155b75b0e70b292b338f6f41d090d6" target="_top" xlink:title=" ">
<polygon fill="white" stroke="#666666" points="980.5,-427.5 881.5,-427.5 881.5,-408.5 980.5,-408.5 980.5,-427.5"/>
<text text-anchor="middle" x="931" y="-415.5" font-family="Helvetica,sans-Serif" font-size="10.00">create_reference</text>
</a>
</g>
</g>
<!-- Node2&#45;&gt;Node7 -->
<g id="edge7_Node000002_Node000007" class="edge">
<title>Node2&#45;&gt;Node7</title>
<g id="a_edge7_Node000002_Node000007"><a xlink:title=" ">
<path fill="none" stroke="#63b8ff" d="M1047.08,-374.37C1031.5,-380.4 1012.83,-387.59 996,-394 983.36,-398.81 969.28,-404.1 957.56,-408.48"/>
<polygon fill="#63b8ff" stroke="#63b8ff" points="1048.77,-377.47 1056.83,-370.59 1046.24,-370.94 1048.77,-377.47"/>
</a>
</g>
</g>
<!-- Node9 -->
<g id="Node000009" class="node">
<title>Node9</title>
<g id="a_Node000009"><a xlink:href="cJSON_8c.html#a367cc7ac5a592211d9f18dc02dd23069" target="_top" xlink:title=" ">
<polygon fill="white" stroke="#666666" points="968,-351.5 894,-351.5 894,-332.5 968,-332.5 968,-351.5"/>
<text text-anchor="middle" x="931" y="-339.5" font-family="Helvetica,sans-Serif" font-size="10.00">parse_array</text>
</a>
</g>
</g>
<!-- Node2&#45;&gt;Node9 -->
<g id="edge9_Node000002_Node000009" class="edge">
<title>Node2&#45;&gt;Node9</title>
<g id="a_edge9_Node000002_Node000009"><a xlink:title=" ">
<path fill="none" stroke="#63b8ff" d="M1021.57,-353.38C1003.54,-351.09 984.32,-348.65 968.33,-346.62"/>
<polygon fill="#63b8ff" stroke="#63b8ff" points="1021.36,-356.88 1031.72,-354.67 1022.24,-349.94 1021.36,-356.88"/>
</a>
</g>
</g>
<!-- Node11 -->
<g id="Node000011" class="node">
<title>Node11</title>
<g id="a_Node000011"><a xlink:href="cJSON_8c.html#a1472ac5d1becd7d9a5e558b4c053b06a" target="_top" xlink:title=" ">
<polygon fill="white" stroke="#666666" points="603,-332.5 524,-332.5 524,-313.5 603,-313.5 603,-332.5"/>
<text text-anchor="middle" x="563.5" y="-320.5" font-family="Helvetica,sans-Serif" font-size="10.00">parse_object</text>
</a>
</g>
</g>
<!-- Node2&#45;&gt;Node11 -->
<g id="edge15_Node000002_Node000011" class="edge">
<title>Node2&#45;&gt;Node11</title>
<g id="a_edge15_Node000002_Node000011"><a xlink:title=" ">
<path fill="none" stroke="#63b8ff" d="M1055.81,-346.61C1039.29,-338.19 1017.05,-328.38 996,-324 853.72,-294.36 679.28,-309.07 603.13,-317.93"/>
<polygon fill="#63b8ff" stroke="#63b8ff" points="1054.34,-349.79 1064.82,-351.35 1057.6,-343.59 1054.34,-349.79"/>
</a>
</g>
</g>
<!-- Node3&#45;&gt;Node3 -->
<g id="edge3_Node000003_Node000003" class="edge">
<title>Node3&#45;&gt;Node3</title>
<g id="a_edge3_Node000003_Node000003"><a xlink:title=" ">
<path fill="none" stroke="#63b8ff" d="M959,-473.32C957.83,-478.51 948.5,-482.5 931,-482.5 904.34,-482.5 896.63,-473.23 907.88,-464.58"/>
<polygon fill="#63b8ff" stroke="#63b8ff" points="962.05,-471.61 954.12,-464.58 955.94,-475.02 962.05,-471.61"/>
</a>
</g>
</g>
<!-- Node5 -->
<g id="Node000005" class="node">
<title>Node5</title>
<g id="a_Node000005"><a xlink:href="cJSON_8c.html#adfabd5d09c2cf0a2f051c47650db6e80" target="_top" xlink:title=" ">
<polygon fill="white" stroke="#666666" points="444,-369.5 322,-369.5 322,-350.5 444,-350.5 444,-369.5"/>
<text text-anchor="middle" x="383" y="-357.5" font-family="Helvetica,sans-Serif" font-size="10.00">cJSON_ParseWithOpts</text>
</a>
</g>
</g>
<!-- Node4&#45;&gt;Node5 -->
<g id="edge5_Node000004_Node000005" class="edge">
<title>Node4&#45;&gt;Node5</title>
<g id="a_edge5_Node000004_Node000005"><a xlink:title=" ">
<path fill="none" stroke="#63b8ff" d="M475.62,-360C465,-360 454.34,-360 444.24,-360"/>
<polygon fill="#63b8ff" stroke="#63b8ff" points="475.76,-363.5 485.76,-360 475.76,-356.5 475.76,-363.5"/>
</a>
</g>
</g>
<!-- Node6 -->
<g id="Node000006" class="node">
<title>Node6</title>
<g id="a_Node000006"><a xlink:href="cJSON_8c.html#aa2ca313f61c789be20f8a69b651043c3" target="_top" xlink:title=" ">
<polygon fill="white" stroke="#666666" points="243.5,-369.5 155.5,-369.5 155.5,-350.5 243.5,-350.5 243.5,-369.5"/>
<text text-anchor="middle" x="199.5" y="-357.5" font-family="Helvetica,sans-Serif" font-size="10.00">CJSON_PUBLIC</text>
</a>
</g>
</g>
<!-- Node5&#45;&gt;Node6 -->
<g id="edge6_Node000005_Node000006" class="edge">
<title>Node5&#45;&gt;Node6</title>
<g id="a_edge6_Node000005_Node000006"><a xlink:title=" ">
<path fill="none" stroke="#63b8ff" d="M311.76,-360C288.78,-360 263.95,-360 243.59,-360"/>
<polygon fill="#63b8ff" stroke="#63b8ff" points="311.82,-363.5 321.82,-360 311.82,-356.5 311.82,-363.5"/>
</a>
</g>
</g>
<!-- Node8 -->
<g id="Node000008" class="node">
<title>Node8</title>
<g id="a_Node000008"><a xlink:href="cJSON_8c.html#ae40faf8fce455884d99bbb2f60cd5860" target="_top" xlink:title=" ">
<polygon fill="white" stroke="#666666" points="829.5,-546 677.5,-546 677.5,-516 829.5,-516 829.5,-546"/>
<text text-anchor="start" x="685.5" y="-534" font-family="Helvetica,sans-Serif" font-size="10.00">cJSON_AddItemReferenceTo</text>
<text text-anchor="middle" x="753.5" y="-523" font-family="Helvetica,sans-Serif" font-size="10.00">Object</text>
</a>
</g>
</g>
<!-- Node7&#45;&gt;Node8 -->
<g id="edge8_Node000007_Node000008" class="edge">
<title>Node7&#45;&gt;Node8</title>
<g id="a_edge8_Node000007_Node000008"><a xlink:title=" ">
<path fill="none" stroke="#63b8ff" d="M872.48,-432.39C870.2,-433.78 868.03,-435.32 866,-437 839.07,-459.33 856.72,-484.41 830,-507 825.9,-510.46 821.3,-513.43 816.45,-515.97"/>
<polygon fill="#63b8ff" stroke="#63b8ff" points="874.4,-435.33 881.69,-427.64 871.2,-429.11 874.4,-435.33"/>
</a>
</g>
</g>
<!-- Node10 -->
<g id="Node000010" class="node">
<title>Node10</title>
<g id="a_Node000010"><a xlink:href="cJSON_8c.html#afd5c0b7089e4de2fc9b2af599d4b596f" target="_top" xlink:title=" ">
<polygon fill="white" stroke="#666666" points="791.5,-351.5 715.5,-351.5 715.5,-332.5 791.5,-332.5 791.5,-351.5"/>
<text text-anchor="middle" x="753.5" y="-339.5" font-family="Helvetica,sans-Serif" font-size="10.00">parse_value</text>
</a>
</g>
</g>
<!-- Node9&#45;&gt;Node10 -->
<g id="edge10_Node000009_Node000010" class="edge">
<title>Node9&#45;&gt;Node10</title>
<g id="a_edge10_Node000009_Node000010"><a xlink:title=" ">
<path fill="none" stroke="#63b8ff" d="M883.44,-335.96C854.76,-334.89 818.49,-335.03 791.72,-336.36"/>
<polygon fill="#63b8ff" stroke="#63b8ff" points="883.49,-339.47 893.64,-336.41 883.8,-332.47 883.49,-339.47"/>
</a>
</g>
</g>
<!-- Node10&#45;&gt;Node4 -->
<g id="edge11_Node000010_Node000004" class="edge">
<title>Node10&#45;&gt;Node4</title>
<g id="a_edge11_Node000010_Node000004"><a xlink:title=" ">
<path fill="none" stroke="#63b8ff" d="M705.27,-346.52C685.87,-348.38 662.91,-350.58 641.22,-352.65"/>
<polygon fill="#63b8ff" stroke="#63b8ff" points="705.74,-349.99 715.36,-345.56 705.07,-343.03 705.74,-349.99"/>
</a>
</g>
</g>
<!-- Node10&#45;&gt;Node9 -->
<g id="edge12_Node000010_Node000009" class="edge">
<title>Node10&#45;&gt;Node9</title>
<g id="a_edge12_Node000010_Node000009"><a xlink:title=" ">
<path fill="none" stroke="#63b8ff" d="M801.98,-348.07C830.83,-349.11 867.08,-348.95 893.64,-347.59"/>
<polygon fill="#63b8ff" stroke="#63b8ff" points="801.86,-344.57 791.72,-347.64 801.57,-351.56 801.86,-344.57"/>
</a>
</g>
</g>
<!-- Node10&#45;&gt;Node11 -->
<g id="edge13_Node000010_Node000011" class="edge">
<title>Node10&#45;&gt;Node11</title>
<g id="a_edge13_Node000010_Node000011"><a xlink:title=" ">
<path fill="none" stroke="#63b8ff" d="M705.06,-331.25C673.56,-326.89 632.71,-322.89 603.18,-321.33"/>
<polygon fill="#63b8ff" stroke="#63b8ff" points="704.96,-334.77 715.36,-332.74 705.96,-327.85 704.96,-334.77"/>
</a>
</g>
</g>
<!-- Node11&#45;&gt;Node10 -->
<g id="edge14_Node000011_Node000010" class="edge">
<title>Node11&#45;&gt;Node10</title>
<g id="a_edge14_Node000011_Node000010"><a xlink:title=" ">
<path fill="none" stroke="#63b8ff" d="M613.19,-333.92C645.07,-338.29 686.1,-342.27 715.36,-343.75"/>
<polygon fill="#63b8ff" stroke="#63b8ff" points="613.58,-330.44 603.18,-332.49 612.59,-337.37 613.58,-330.44"/>
</a>
</g>
</g>
<!-- Node14&#45;&gt;Node3 -->
<g id="edge25_Node000014_Node000003" class="edge">
<title>Node14&#45;&gt;Node3</title>
<g id="a_edge25_Node000014_Node000003"><a xlink:title=" ">
<path fill="none" stroke="#63b8ff" d="M1031.35,-472.94C1016.4,-470.24 999.96,-467.27 984.84,-464.54"/>
<polygon fill="#63b8ff" stroke="#63b8ff" points="1030.97,-476.43 1041.44,-474.76 1032.22,-469.54 1030.97,-476.43"/>
</a>
</g>
</g>
<!-- Node15 -->
<g id="Node000015" class="node">
<title>Node15</title>
<g id="a_Node000015"><a xlink:href="cJSON_8c.html#acc48bef0e1b495898d9489e577b91d5c" target="_top" xlink:title=" ">
<polygon fill="white" stroke="#666666" points="987.5,-601.5 874.5,-601.5 874.5,-582.5 987.5,-582.5 987.5,-601.5"/>
<text text-anchor="middle" x="931" y="-589.5" font-family="Helvetica,sans-Serif" font-size="10.00">add_item_to_object</text>
</a>
</g>
</g>
<!-- Node14&#45;&gt;Node15 -->
<g id="edge19_Node000014_Node000015" class="edge">
<title>Node14&#45;&gt;Node15</title>
<g id="a_edge19_Node000014_Node000015"><a xlink:title=" ">
<path fill="none" stroke="#63b8ff" d="M1060.4,-497.52C1029.02,-520.61 970.99,-563.31 945.08,-582.37"/>
<polygon fill="#63b8ff" stroke="#63b8ff" points="1062.51,-500.31 1068.49,-491.57 1058.37,-494.68 1062.51,-500.31"/>
</a>
</g>
</g>
<!-- Node20 -->
<g id="Node000020" class="node">
<title>Node20</title>
<g id="a_Node000020"><a xlink:href="cJSON_8c.html#afdae75197cf2c440ef858a2e93b104f2" target="_top" xlink:title=" ">
<polygon fill="white" stroke="#666666" points="996,-519.5 866,-519.5 866,-500.5 996,-500.5 996,-519.5"/>
<text text-anchor="middle" x="931" y="-507.5" font-family="Helvetica,sans-Serif" font-size="10.00">replace_item_in_object</text>
</a>
</g>
</g>
<!-- Node14&#45;&gt;Node20 -->
<g id="edge26_Node000014_Node000020" class="edge">
<title>Node14&#45;&gt;Node20</title>
<g id="a_edge26_Node000014_Node000020"><a xlink:title=" ">
<path fill="none" stroke="#63b8ff" d="M1031.44,-491.38C1015.82,-494.3 998.58,-497.53 982.9,-500.47"/>
<polygon fill="#63b8ff" stroke="#63b8ff" points="1032.25,-494.78 1041.44,-489.5 1030.96,-487.9 1032.25,-494.78"/>
</a>
</g>
</g>
<!-- Node15&#45;&gt;Node8 -->
<g id="edge21_Node000015_Node000008" class="edge">
<title>Node15&#45;&gt;Node8</title>
<g id="a_edge21_Node000015_Node000008"><a xlink:title=" ">
<path fill="none" stroke="#63b8ff" d="M894.66,-579.03C875.56,-572.08 851.53,-563.44 830,-556 820.47,-552.71 810.24,-549.26 800.48,-546.01"/>
<polygon fill="#63b8ff" stroke="#63b8ff" points="893.57,-582.35 904.17,-582.49 895.97,-575.78 893.57,-582.35"/>
</a>
</g>
</g>
<!-- Node16 -->
<g id="Node000016" class="node">
<title>Node16</title>
<g id="a_Node000016"><a xlink:href="cJSON_8c.html#ac44e19cf2c9b85d693021327cd13c380" target="_top" xlink:title=" ">
<polygon fill="white" stroke="#666666" points="820.5,-694.5 686.5,-694.5 686.5,-675.5 820.5,-675.5 820.5,-694.5"/>
<text text-anchor="middle" x="753.5" y="-682.5" font-family="Helvetica,sans-Serif" font-size="10.00">cJSON_AddBoolToObject</text>
</a>
</g>
</g>
<!-- Node15&#45;&gt;Node16 -->
<g id="edge20_Node000015_Node000016" class="edge">
<title>Node15&#45;&gt;Node16</title>
<g id="a_edge20_Node000015_Node000016"><a xlink:title=" ">
<path fill="none" stroke="#63b8ff" d="M912.64,-608.59C893.77,-625.71 862,-651.98 830,-667 822.8,-670.38 814.91,-673.15 807.03,-675.43"/>
<polygon fill="#63b8ff" stroke="#63b8ff" points="915.17,-611.01 920.13,-601.65 910.41,-605.88 915.17,-611.01"/>
</a>
</g>
</g>
<!-- Node17 -->
<g id="Node000017" class="node">
<title>Node17</title>
<g id="a_Node000017"><a xlink:href="cJSON_8c.html#aa53dc5895c82cc121dec73b81930ee42" target="_top" xlink:title=" ">
<polygon fill="white" stroke="#666666" points="829,-657.5 678,-657.5 678,-638.5 829,-638.5 829,-657.5"/>
<text text-anchor="middle" x="753.5" y="-645.5" font-family="Helvetica,sans-Serif" font-size="10.00">cJSON_AddNumberToObject</text>
</a>
</g>
</g>
<!-- Node15&#45;&gt;Node17 -->
<g id="edge22_Node000015_Node000017" class="edge">
<title>Node15&#45;&gt;Node17</title>
<g id="a_edge22_Node000015_Node000017"><a xlink:title=" ">
<path fill="none" stroke="#63b8ff" d="M897.96,-605.39C878.51,-613.2 853.08,-622.9 830,-630 819.95,-633.09 809.02,-635.97 798.67,-638.48"/>
<polygon fill="#63b8ff" stroke="#63b8ff" points="899.31,-608.61 907.26,-601.61 896.67,-602.13 899.31,-608.61"/>
</a>
</g>
</g>
<!-- Node18 -->
<g id="Node000018" class="node">
<title>Node18</title>
<g id="a_Node000018"><a xlink:href="cJSON_8c.html#a60358335b6645747178c8050d5e51653" target="_top" xlink:title=" ">
<polygon fill="white" stroke="#666666" points="820,-620.5 687,-620.5 687,-601.5 820,-601.5 820,-620.5"/>
<text text-anchor="middle" x="753.5" y="-608.5" font-family="Helvetica,sans-Serif" font-size="10.00">cJSON_AddRawToObject</text>
</a>
</g>
</g>
<!-- Node15&#45;&gt;Node18 -->
<g id="edge23_Node000015_Node000018" class="edge">
<title>Node15&#45;&gt;Node18</title>
<g id="a_edge23_Node000015_Node000018"><a xlink:title=" ">
<path fill="none" stroke="#63b8ff" d="M864.15,-599.13C849.75,-600.69 834.5,-602.34 820.1,-603.9"/>
<polygon fill="#63b8ff" stroke="#63b8ff" points="864.91,-602.57 874.47,-598.01 864.15,-595.61 864.91,-602.57"/>
</a>
</g>
</g>
<!-- Node19 -->
<g id="Node000019" class="node">
<title>Node19</title>
<g id="a_Node000019"><a xlink:href="cJSON_8c.html#a49e0e6b028e5a814c642307254816208" target="_top" xlink:title=" ">
<polygon fill="white" stroke="#666666" points="823.5,-583.5 683.5,-583.5 683.5,-564.5 823.5,-564.5 823.5,-583.5"/>
<text text-anchor="middle" x="753.5" y="-571.5" font-family="Helvetica,sans-Serif" font-size="10.00">cJSON_AddStringToObject</text>
</a>
</g>
</g>
<!-- Node15&#45;&gt;Node19 -->
<g id="edge24_Node000015_Node000019" class="edge">
<title>Node15&#45;&gt;Node19</title>
<g id="a_edge24_Node000015_Node000019"><a xlink:title=" ">
<path fill="none" stroke="#63b8ff" d="M864.43,-585.27C851.09,-583.91 837.01,-582.46 823.55,-581.08"/>
<polygon fill="#63b8ff" stroke="#63b8ff" points="864.17,-588.77 874.47,-586.3 864.88,-581.8 864.17,-588.77"/>
</a>
</g>
</g>
<!-- Node21 -->
<g id="Node000021" class="node">
<title>Node21</title>
<g id="a_Node000021"><a xlink:href="cJSON_8c.html#ae8335f21a2f78d63c854c002f09f96dc" target="_top" xlink:title=" ">
<polygon fill="white" stroke="#666666" points="830,-497.5 677,-497.5 677,-478.5 830,-478.5 830,-497.5"/>
<text text-anchor="middle" x="753.5" y="-485.5" font-family="Helvetica,sans-Serif" font-size="10.00">cJSON_ReplaceItemInObject</text>
</a>
</g>
</g>
<!-- Node20&#45;&gt;Node21 -->
<g id="edge27_Node000020_Node000021" class="edge">
<title>Node20&#45;&gt;Node21</title>
<g id="a_edge27_Node000020_Node000021"><a xlink:title=" ">
<path fill="none" stroke="#63b8ff" d="M855.51,-500.66C847.12,-499.61 838.56,-498.54 830.15,-497.48"/>
<polygon fill="#63b8ff" stroke="#63b8ff" points="855.29,-504.16 865.65,-501.93 856.16,-497.22 855.29,-504.16"/>
</a>
</g>
</g>
<!-- Node22 -->
<g id="Node000022" class="node">
<title>Node22</title>
<g id="a_Node000022"><a xlink:href="cJSON_8c.html#acbcada89e12f21f1d0f2e296d93130dc" target="_top" xlink:title=" ">
<polygon fill="white" stroke="#666666" points="830,-460 677,-460 677,-430 830,-430 830,-460"/>
<text text-anchor="start" x="685" y="-448" font-family="Helvetica,sans-Serif" font-size="10.00">cJSON_ReplaceItemInObject</text>
<text text-anchor="middle" x="753.5" y="-437" font-family="Helvetica,sans-Serif" font-size="10.00">CaseSensitive</text>
</a>
</g>
</g>
<!-- Node20&#45;&gt;Node22 -->
<g id="edge28_Node000020_Node000022" class="edge">
<title>Node20&#45;&gt;Node22</title>
<g id="a_edge28_Node000020_Node000022"><a xlink:title=" ">
<path fill="none" stroke="#63b8ff" d="M879.77,-497.31C875.05,-495.69 870.4,-493.92 866,-492 848.81,-484.5 847.01,-477.89 830,-470 822.23,-466.4 813.8,-463.08 805.48,-460.11"/>
<polygon fill="#63b8ff" stroke="#63b8ff" points="878.88,-500.7 889.47,-500.42 881.01,-494.03 878.88,-500.7"/>
</a>
</g>
</g>
<!-- Node24 -->
<g id="Node000024" class="node">
<title>Node24</title>
<g id="a_Node000024"><a xlink:href="cJSON_8c.html#ae84642817f3965a85c7c617663250c16" target="_top" xlink:title=" ">
<polygon fill="white" stroke="#666666" points="788.5,-199.5 718.5,-199.5 718.5,-180.5 788.5,-180.5 788.5,-199.5"/>
<text text-anchor="middle" x="753.5" y="-187.5" font-family="Helvetica,sans-Serif" font-size="10.00">print_array</text>
</a>
</g>
</g>
<!-- Node23&#45;&gt;Node24 -->
<g id="edge30_Node000023_Node000024" class="edge">
<title>Node23&#45;&gt;Node24</title>
<g id="a_edge30_Node000023_Node000024"><a xlink:title=" ">
<path fill="none" stroke="#63b8ff" d="M1047.57,-161.19C1031.95,-164.69 1013.12,-168.53 996,-171 922.53,-181.58 835.57,-186.6 788.65,-188.7"/>
<polygon fill="#63b8ff" stroke="#63b8ff" points="1048.36,-164.6 1057.32,-158.96 1046.8,-157.78 1048.36,-164.6"/>
</a>
</g>
</g>
<!-- Node25 -->
<g id="Node000025" class="node">
<title>Node25</title>
<g id="a_Node000025"><a xlink:href="cJSON_8c.html#a5ba141f183b9abb4b49e38a211299c7e" target="_top" xlink:title=" ">
<polygon fill="white" stroke="#666666" points="599,-142.5 528,-142.5 528,-123.5 599,-123.5 599,-142.5"/>
<text text-anchor="middle" x="563.5" y="-130.5" font-family="Helvetica,sans-Serif" font-size="10.00">print_value</text>
</a>
</g>
</g>
<!-- Node23&#45;&gt;Node25 -->
<g id="edge48_Node000023_Node000025" class="edge">
<title>Node23&#45;&gt;Node25</title>
<g id="a_edge48_Node000023_Node000025"><a xlink:title=" ">
<path fill="none" stroke="#63b8ff" d="M1047.96,-166.13C1042.59,-168.35 1037.12,-170.69 1032,-173 1015.69,-180.36 1013.16,-185.96 996,-191 859.76,-231.04 812.78,-250.57 677,-209 633.95,-195.82 592.52,-160 574.25,-142.66"/>
<polygon fill="#63b8ff" stroke="#63b8ff" points="1049.47,-169.29 1057.42,-162.28 1046.84,-162.81 1049.47,-169.29"/>
</a>
</g>
</g>
<!-- Node30 -->
<g id="Node000030" class="node">
<title>Node30</title>
<g id="a_Node000030"><a xlink:href="cJSON_8c.html#a3d742f5c68799bca291432a9cd72f8dd" target="_top" xlink:title=" ">
<polygon fill="white" stroke="#666666" points="420,-105.5 346,-105.5 346,-86.5 420,-86.5 420,-105.5"/>
<text text-anchor="middle" x="383" y="-93.5" font-family="Helvetica,sans-Serif" font-size="10.00">print_object</text>
</a>
</g>
</g>
<!-- Node23&#45;&gt;Node30 -->
<g id="edge43_Node000023_Node000030" class="edge">
<title>Node23&#45;&gt;Node30</title>
<g id="a_edge43_Node000023_Node000030"><a xlink:title=" ">
<path fill="none" stroke="#63b8ff" d="M1063.81,-136.8C1047.52,-122.97 1022,-103.94 996,-95 788.26,-23.59 516.89,-68.17 420.17,-87.97"/>
<polygon fill="#63b8ff" stroke="#63b8ff" points="1061.61,-139.52 1071.44,-143.47 1066.22,-134.26 1061.61,-139.52"/>
</a>
</g>
</g>
<!-- Node31 -->
<g id="Node000031" class="node">
<title>Node31</title>
<g id="a_Node000031"><a xlink:href="cJSON_8c.html#ad93d84de08872da0eaa6624be0e74a68" target="_top" xlink:title=" ">
<polygon fill="white" stroke="#666666" points="972,-161.5 890,-161.5 890,-142.5 972,-142.5 972,-161.5"/>
<text text-anchor="middle" x="931" y="-149.5" font-family="Helvetica,sans-Serif" font-size="10.00">print_number</text>
</a>
</g>
</g>
<!-- Node23&#45;&gt;Node31 -->
<g id="edge41_Node000023_Node000031" class="edge">
<title>Node23&#45;&gt;Node31</title>
<g id="a_edge41_Node000023_Node000031"><a xlink:title=" ">
<path fill="none" stroke="#63b8ff" d="M1047.4,-152.77C1024.98,-152.62 995.53,-152.42 972,-152.27"/>
<polygon fill="#63b8ff" stroke="#63b8ff" points="1047.46,-156.27 1057.48,-152.84 1047.5,-149.27 1047.46,-156.27"/>
</a>
</g>
</g>
<!-- Node32 -->
<g id="Node000032" class="node">
<title>Node32</title>
<g id="a_Node000032"><a xlink:href="cJSON_8c.html#af5b4e769356f10d99a7f66697c42c1bb" target="_top" xlink:title=" ">
<polygon fill="white" stroke="#666666" points="976.5,-123.5 885.5,-123.5 885.5,-104.5 976.5,-104.5 976.5,-123.5"/>
<text text-anchor="middle" x="931" y="-111.5" font-family="Helvetica,sans-Serif" font-size="10.00">print_string_ptr</text>
</a>
</g>
</g>
<!-- Node23&#45;&gt;Node32 -->
<g id="edge44_Node000023_Node000032" class="edge">
<title>Node23&#45;&gt;Node32</title>
<g id="a_edge44_Node000023_Node000032"><a xlink:title=" ">
<path fill="none" stroke="#63b8ff" d="M1047.58,-144.15C1024.02,-138 992.64,-129.82 968.53,-123.53"/>
<polygon fill="#63b8ff" stroke="#63b8ff" points="1046.92,-147.6 1057.48,-146.73 1048.69,-140.82 1046.92,-147.6"/>
</a>
</g>
</g>
<!-- Node24&#45;&gt;Node25 -->
<g id="edge31_Node000024_Node000025" class="edge">
<title>Node24&#45;&gt;Node25</title>
<g id="a_edge31_Node000024_Node000025"><a xlink:title=" ">
<path fill="none" stroke="#63b8ff" d="M725.26,-176.82C691.93,-164.43 635.45,-147.16 599.08,-138.12"/>
<polygon fill="#63b8ff" stroke="#63b8ff" points="724.22,-180.17 734.81,-180.49 726.73,-173.64 724.22,-180.17"/>
</a>
</g>
</g>
<!-- Node25&#45;&gt;Node24 -->
<g id="edge38_Node000025_Node000024" class="edge">
<title>Node25&#45;&gt;Node24</title>
<g id="a_edge38_Node000025_Node000024"><a xlink:title=" ">
<path fill="none" stroke="#63b8ff" d="M592.01,-146.28C625.55,-158.72 682.21,-176.03 718.45,-185.02"/>
<polygon fill="#63b8ff" stroke="#63b8ff" points="592.99,-142.91 582.4,-142.59 590.48,-149.44 592.99,-142.91"/>
</a>
</g>
</g>
<!-- Node26 -->
<g id="Node000026" class="node">
<title>Node26</title>
<g id="a_Node000026"><a xlink:href="cJSON_8c.html#a5ae150f0e5009534979d4532a411d077" target="_top" xlink:title=" ">
<polygon fill="white" stroke="#666666" points="450,-142.5 316,-142.5 316,-123.5 450,-123.5 450,-142.5"/>
<text text-anchor="middle" x="383" y="-130.5" font-family="Helvetica,sans-Serif" font-size="10.00">cJSON_PrintPreallocated</text>
</a>
</g>
</g>
<!-- Node25&#45;&gt;Node26 -->
<g id="edge32_Node000025_Node000026" class="edge">
<title>Node25&#45;&gt;Node26</title>
<g id="a_edge32_Node000025_Node000026"><a xlink:title=" ">
<path fill="none" stroke="#63b8ff" d="M517.42,-133C497.05,-133 472.58,-133 450.19,-133"/>
<polygon fill="#63b8ff" stroke="#63b8ff" points="517.66,-136.5 527.66,-133 517.66,-129.5 517.66,-136.5"/>
</a>
</g>
</g>
<!-- Node25&#45;&gt;Node27 -->
<g id="edge33_Node000025_Node000027" class="edge">
<title>Node25&#45;&gt;Node27</title>
<g id="a_edge33_Node000025_Node000027"><a xlink:title=" ">
<path fill="none" stroke="#63b8ff" d="M535.23,-118.64C498.35,-99.22 433.59,-65.11 402.15,-48.56"/>
<polygon fill="#63b8ff" stroke="#63b8ff" points="533.92,-121.91 544.4,-123.47 537.18,-115.71 533.92,-121.91"/>
</a>
</g>
</g>
<!-- Node25&#45;&gt;Node30 -->
<g id="edge39_Node000025_Node000030" class="edge">
<title>Node25&#45;&gt;Node30</title>
<g id="a_edge39_Node000025_Node000030"><a xlink:title=" ">
<path fill="none" stroke="#63b8ff" d="M529.25,-120.72C498.19,-112.52 451.93,-102.88 420,-97.92"/>
<polygon fill="#63b8ff" stroke="#63b8ff" points="528.59,-124.16 539.16,-123.43 530.44,-117.41 528.59,-124.16"/>
</a>
</g>
</g>
<!-- Node28 -->
<g id="Node000028" class="node">
<title>Node28</title>
<g id="a_Node000028"><a xlink:href="namespaceTimings.html#aadf2661fed15eeec1d5ca92e8125726e" target="_top" xlink:title=" ">
<polygon fill="white" stroke="#666666" points="280,-29.5 119,-29.5 119,-10.5 280,-10.5 280,-29.5"/>
<text text-anchor="middle" x="199.5" y="-17.5" font-family="Helvetica,sans-Serif" font-size="10.00">Timings.analyze_timing_data</text>
</a>
</g>
</g>
<!-- Node27&#45;&gt;Node28 -->
<g id="edge34_Node000027_Node000028" class="edge">
<title>Node27&#45;&gt;Node28</title>
<g id="a_edge34_Node000027_Node000028"><a xlink:title=" ">
<path fill="none" stroke="#63b8ff" d="M353.13,-35.98C333.42,-33.91 306.27,-31.07 280.34,-28.36"/>
<polygon fill="#63b8ff" stroke="#63b8ff" points="352.95,-39.48 363.26,-37.04 353.68,-32.52 352.95,-39.48"/>
</a>
</g>
</g>
<!-- Node29 -->
<g id="Node000029" class="node">
<title>Node29</title>
<g id="a_Node000029"><a xlink:href="namespaceTimings.html#ae796959351e16850ac73fbc1380617c9" target="_top" xlink:title=" ">
<polygon fill="white" stroke="#666666" points="83,-48.5 0,-48.5 0,-29.5 83,-29.5 83,-48.5"/>
<text text-anchor="middle" x="41.5" y="-36.5" font-family="Helvetica,sans-Serif" font-size="10.00">Timings.main</text>
</a>
</g>
</g>
<!-- Node27&#45;&gt;Node29 -->
<g id="edge37_Node000027_Node000029" class="edge">
<title>Node27&#45;&gt;Node29</title>
<g id="a_edge37_Node000027_Node000029"><a xlink:title=" ">
<path fill="none" stroke="#63b8ff" d="M352.91,-39C292.36,-39 152.62,-39 83.19,-39"/>
<polygon fill="#63b8ff" stroke="#63b8ff" points="353.26,-42.5 363.26,-39 353.26,-35.5 353.26,-42.5"/>
</a>
</g>
</g>
<!-- Node28&#45;&gt;Node29 -->
<g id="edge35_Node000028_Node000029" class="edge">
<title>Node28&#45;&gt;Node29</title>
<g id="a_edge35_Node000028_Node000029"><a xlink:title=" ">
<path fill="none" stroke="#63b8ff" d="M109.91,-30.79C100.63,-31.92 91.55,-33.03 83.21,-34.04"/>
<polygon fill="#63b8ff" stroke="#63b8ff" points="110.54,-34.24 120.04,-29.56 109.69,-27.29 110.54,-34.24"/>
</a>
</g>
</g>
<!-- Node29&#45;&gt;Node29 -->
<g id="edge36_Node000029_Node000029" class="edge">
<title>Node29&#45;&gt;Node29</title>
<g id="a_edge36_Node000029_Node000029"><a xlink:title=" ">
<path fill="none" stroke="#63b8ff" d="M70.99,-57.32C69.76,-62.51 59.93,-66.5 41.5,-66.5 13.42,-66.5 5.3,-57.23 17.15,-48.58"/>
<polygon fill="#63b8ff" stroke="#63b8ff" points="73.94,-55.43 65.85,-48.58 67.91,-58.98 73.94,-55.43"/>
</a>
</g>
</g>
<!-- Node30&#45;&gt;Node25 -->
<g id="edge40_Node000030_Node000025" class="edge">
<title>Node30&#45;&gt;Node25</title>
<g id="a_edge40_Node000030_Node000025"><a xlink:title=" ">
<path fill="none" stroke="#63b8ff" d="M417.14,-108.26C448.58,-116.56 495.66,-126.35 527.66,-131.26"/>
<polygon fill="#63b8ff" stroke="#63b8ff" points="417.69,-104.78 407.12,-105.51 415.83,-111.53 417.69,-104.78"/>
</a>
</g>
</g>
<!-- Node31&#45;&gt;Node25 -->
<g id="edge42_Node000031_Node000025" class="edge">
<title>Node31&#45;&gt;Node25</title>
<g id="a_edge42_Node000031_Node000025"><a xlink:title=" ">
<path fill="none" stroke="#63b8ff" d="M879.65,-149.38C804.24,-145.46 663.94,-138.17 599.06,-134.8"/>
<polygon fill="#63b8ff" stroke="#63b8ff" points="879.67,-152.89 889.84,-149.91 880.03,-145.9 879.67,-152.89"/>
</a>
</g>
</g>
<!-- Node32&#45;&gt;Node30 -->
<g id="edge45_Node000032_Node000030" class="edge">
<title>Node32&#45;&gt;Node30</title>
<g id="a_edge45_Node000032_Node000030"><a xlink:title=" ">
<path fill="none" stroke="#63b8ff" d="M879.33,-102.46C863.61,-99.4 846.16,-96.52 830,-95 678.33,-80.72 496.35,-88.98 420.24,-93.57"/>
<polygon fill="#63b8ff" stroke="#63b8ff" points="878.88,-105.94 889.38,-104.49 880.27,-99.08 878.88,-105.94"/>
</a>
</g>
</g>
<!-- Node33 -->
<g id="Node000033" class="node">
<title>Node33</title>
<g id="a_Node000033"><a xlink:href="cJSON_8c.html#ad087dd738e49b4258f0a3d378a121df6" target="_top" xlink:title=" ">
<polygon fill="white" stroke="#666666" points="789.5,-123.5 717.5,-123.5 717.5,-104.5 789.5,-104.5 789.5,-123.5"/>
<text text-anchor="middle" x="753.5" y="-111.5" font-family="Helvetica,sans-Serif" font-size="10.00">print_string</text>
</a>
</g>
</g>
<!-- Node32&#45;&gt;Node33 -->
<g id="edge46_Node000032_Node000033" class="edge">
<title>Node32&#45;&gt;Node33</title>
<g id="a_edge46_Node000032_Node000033"><a xlink:title=" ">
<path fill="none" stroke="#63b8ff" d="M875.24,-114C847.34,-114 814.24,-114 789.75,-114"/>
<polygon fill="#63b8ff" stroke="#63b8ff" points="875.26,-117.5 885.26,-114 875.26,-110.5 875.26,-117.5"/>
</a>
</g>
</g>
<!-- Node33&#45;&gt;Node25 -->
<g id="edge47_Node000033_Node000025" class="edge">
<title>Node33&#45;&gt;Node25</title>
<g id="a_edge47_Node000033_Node000025"><a xlink:title=" ">
<path fill="none" stroke="#63b8ff" d="M706.78,-118.62C673.58,-121.98 629.35,-126.45 599.07,-129.51"/>
<polygon fill="#63b8ff" stroke="#63b8ff" points="707.54,-122.06 717.14,-117.57 706.84,-115.1 707.54,-122.06"/>
</a>
</g>
</g>
<!-- Node34&#45;&gt;Node10 -->
<g id="edge51_Node000034_Node000010" class="edge">
<title>Node34&#45;&gt;Node10</title>
<g id="a_edge51_Node000034_Node000010"><a xlink:title=" ">
<path fill="none" stroke="#63b8ff" d="M898.44,-279.67C863.27,-294.9 807.31,-319.13 776.55,-332.45"/>
<polygon fill="#63b8ff" stroke="#63b8ff" points="899.99,-282.81 907.77,-275.63 897.21,-276.39 899.99,-282.81"/>
</a>
</g>
</g>
<!-- Node34&#45;&gt;Node11 -->
<g id="edge50_Node000034_Node000011" class="edge">
<title>Node34&#45;&gt;Node11</title>
<g id="a_edge50_Node000034_Node000011"><a xlink:title=" ">
<path fill="none" stroke="#63b8ff" d="M882.29,-267.81C831.14,-270.39 747.73,-276.4 677,-290 647.42,-295.69 614.44,-305.83 591.88,-313.37"/>
<polygon fill="#63b8ff" stroke="#63b8ff" points="882.57,-271.3 892.39,-267.33 882.23,-264.31 882.57,-271.3"/>
</a>
</g>
</g>
</g>
</svg>
