<?xml version="1.0" encoding="UTF-8" standalone="no"?>
<!DOCTYPE svg PUBLIC "-//W3C//DTD SVG 1.1//EN"
 "http://www.w3.org/Graphics/SVG/1.1/DTD/svg11.dtd">
<!-- Generated by graphviz version 2.43.0 (0)
 -->
<!-- Title: signal_handler_context Pages: 1 -->
<svg width="257pt" height="159pt"
 viewBox="0.00 0.00 257.44 159.00" xmlns="http://www.w3.org/2000/svg" xmlns:xlink="http://www.w3.org/1999/xlink">

<svg id="main" version="1.1" xmlns="http://www.w3.org/2000/svg" xmlns:xlink="http://www.w3.org/1999/xlink" xml:space="preserve" onload="init(evt)">
<style type="text/css"><![CDATA[
.node, .edge {opacity: 0.7;}
.node.selected, .edge.selected {opacity: 1;}
.edge:hover path { stroke: red; }
.edge:hover polygon { stroke: red; fill: red; }
]]></style>
<script type="application/ecmascript" xlink:href="svg.min.js"/>
<svg id="graph" class="graph">
<g id="graph0" class="graph" transform="scale(1 1) rotate(0) translate(4 155)">
<title>signal_handler_context</title>
<!-- Node1 -->
<g id="Node000001" class="node">
<title>Node1</title>
<g id="a_Node000001"><a xlink:title="Context structure maintaining signal handler state.">
<polygon fill="#999999" stroke="#666666" points="224.44,-19 94.44,-19 94.44,0 224.44,0 224.44,-19"/>
<text text-anchor="middle" x="159.44" y="-7" font-family="Helvetica,sans-Serif" font-size="10.00">signal_handler_context</text>
</a>
</g>
</g>
<!-- Node2 -->
<g id="Node000002" class="node">
<title>Node2</title>
<g id="a_Node000002"><a xlink:href="structtg__manager.html" target="_top" xlink:title="Thread Group Manager Structure.">
<polygon fill="white" stroke="#666666" points="105.94,-85 30.94,-85 30.94,-66 105.94,-66 105.94,-85"/>
<text text-anchor="middle" x="68.44" y="-73" font-family="Helvetica,sans-Serif" font-size="10.00">tg_manager</text>
</a>
</g>
</g>
<!-- Node2&#45;&gt;Node1 -->
<g id="edge1_Node000001_Node000002" class="edge">
<title>Node2&#45;&gt;Node1</title>
<g id="a_edge1_Node000001_Node000002"><a xlink:title=" ">
<path fill="none" stroke="#9a32cd" stroke-dasharray="5,2" d="M89.29,-59.83C107.14,-47.28 132.24,-29.63 147.07,-19.2"/>
<polygon fill="#9a32cd" stroke="#9a32cd" points="86.88,-57.25 80.71,-65.87 90.91,-62.98 86.88,-57.25"/>
</a>
</g>
<text text-anchor="middle" x="142.44" y="-40" font-family="Helvetica,sans-Serif" font-size="10.00" fill="grey"> Manager</text>
</g>
<!-- Node3 -->
<g id="Node000003" class="node">
<title>Node3</title>
<g id="a_Node000003"><a xlink:href="structtg__group.html" target="_top" xlink:title="Thread Group Structure.">
<polygon fill="white" stroke="#666666" points="67.94,-19 8.94,-19 8.94,0 67.94,0 67.94,-19"/>
<text text-anchor="middle" x="38.44" y="-7" font-family="Helvetica,sans-Serif" font-size="10.00">tg_group</text>
</a>
</g>
</g>
<!-- Node2&#45;&gt;Node3 -->
<g id="edge3_Node000003_Node000002" class="edge">
<title>Node2&#45;&gt;Node3</title>
<g id="a_edge3_Node000003_Node000002"><a xlink:title=" ">
<path fill="none" stroke="#9a32cd" stroke-dasharray="5,2" d="M21.15,-63.67C13.76,-59.9 7.06,-54.83 2.44,-48 -4.99,-37.01 7.98,-26.28 20.38,-19.13"/>
<polygon fill="#9a32cd" stroke="#9a32cd" points="20.19,-67.06 30.76,-67.77 22.93,-60.63 20.19,-67.06"/>
</a>
</g>
<text text-anchor="middle" x="25.44" y="-40" font-family="Helvetica,sans-Serif" font-size="10.00" fill="grey"> Manager</text>
</g>
<!-- Node3&#45;&gt;Node2 -->
<g id="edge2_Node000002_Node000003" class="edge">
<title>Node3&#45;&gt;Node2</title>
<g id="a_edge2_Node000002_Node000003"><a xlink:title=" ">
<path fill="none" stroke="#9a32cd" stroke-dasharray="5,2" d="M46.95,-28.66C52.67,-40.86 59.95,-56.38 64.39,-65.87"/>
<polygon fill="#9a32cd" stroke="#9a32cd" points="50.03,-26.97 42.61,-19.41 43.69,-29.95 50.03,-26.97"/>
</a>
</g>
<text text-anchor="middle" x="74.44" y="-40" font-family="Helvetica,sans-Serif" font-size="10.00" fill="grey"> Groups</text>
</g>
<!-- Node4 -->
<g id="Node000004" class="node">
<title>Node4</title>
<g id="a_Node000004"><a xlink:href="structsensor__data__pipe.html" target="_top" xlink:title="Sensor Data Pipeline Structure.">
<polygon fill="white" stroke="#666666" points="249.44,-85 147.44,-85 147.44,-66 249.44,-66 249.44,-85"/>
<text text-anchor="middle" x="198.44" y="-73" font-family="Helvetica,sans-Serif" font-size="10.00">sensor_data_pipe</text>
</a>
</g>
</g>
<!-- Node4&#45;&gt;Node1 -->
<g id="edge4_Node000001_Node000004" class="edge">
<title>Node4&#45;&gt;Node1</title>
<g id="a_edge4_Node000001_Node000004"><a xlink:title=" ">
<path fill="none" stroke="#9a32cd" stroke-dasharray="5,2" d="M188.26,-56.82C184.59,-50.53 180.38,-43.42 176.44,-37 172.78,-31.04 168.53,-24.41 165.2,-19.28"/>
<polygon fill="#9a32cd" stroke="#9a32cd" points="185.43,-58.91 193.47,-65.8 191.48,-55.4 185.43,-58.91"/>
</a>
</g>
<text text-anchor="middle" x="195.94" y="-40" font-family="Helvetica,sans-Serif" font-size="10.00" fill="grey"> Pipe</text>
</g>
<!-- Node5 -->
<g id="Node000005" class="node">
<title>Node5</title>
<g id="a_Node000005"><a xlink:href="structsdb__arena.html" target="_top" xlink:title=" ">
<polygon fill="white" stroke="#666666" points="231.94,-151 164.94,-151 164.94,-132 231.94,-132 231.94,-151"/>
<text text-anchor="middle" x="198.44" y="-139" font-family="Helvetica,sans-Serif" font-size="10.00">sdb_arena</text>
</a>
</g>
</g>
<!-- Node5&#45;&gt;Node4 -->
<g id="edge5_Node000004_Node000005" class="edge">
<title>Node5&#45;&gt;Node4</title>
<g id="a_edge5_Node000004_Node000005"><a xlink:title=" ">
<path fill="none" stroke="#9a32cd" stroke-dasharray="5,2" d="M198.44,-121.58C198.44,-109.63 198.44,-94.72 198.44,-85.41"/>
<polygon fill="#9a32cd" stroke="#9a32cd" points="194.94,-121.87 198.44,-131.87 201.94,-121.87 194.94,-121.87"/>
</a>
</g>
<text text-anchor="middle" x="217.44" y="-106" font-family="Helvetica,sans-Serif" font-size="10.00" fill="grey"> Buffers</text>
</g>
</g>
</svg>
</svg>

<style type='text/css'>
<![CDATA[
[data-mouse-over-selected='false'] { opacity: 0.7; }
[data-mouse-over-selected='true']  { opacity: 1.0; }
]]>
</style>
<script type="application/ecmascript"><![CDATA[
document.addEventListener('DOMContentLoaded', (event) => {
  highlightEdges();
  highlightAdjacentNodes();
});
]]></script>
</svg>
