<?xml version="1.0" encoding="UTF-8" standalone="no"?>
<!DOCTYPE svg PUBLIC "-//W3C//DTD SVG 1.1//EN"
 "http://www.w3.org/Graphics/SVG/1.1/DTD/svg11.dtd">
<!-- Generated by graphviz version 2.43.0 (0)
 -->
<!-- Title: signal_handler_context Pages: 1 -->
<svg width="257pt" height="162pt"
 viewBox="0.00 0.00 257.45 162.00" xmlns="http://www.w3.org/2000/svg" xmlns:xlink="http://www.w3.org/1999/xlink">
<g id="graph0" class="graph" transform="scale(1 1) rotate(0) translate(4 158)">
<title>signal_handler_context</title>
<polygon fill="white" stroke="transparent" points="-4,4 -4,-158 253.45,-158 253.45,4 -4,4"/>
<!-- Node1 -->
<g id="node1" class="node">
<title>Node1</title>
<g id="a_node1"><a xlink:title="Context structure maintaining signal handler state.">
<polygon fill="#bfbfbf" stroke="black" points="94.45,-0.5 94.45,-19.5 224.45,-19.5 224.45,-0.5 94.45,-0.5"/>
<text text-anchor="middle" x="159.45" y="-7.5" font-family="Helvetica,sans-Serif" font-size="10.00">signal_handler_context</text>
</a>
</g>
</g>
<!-- Node2 -->
<g id="node2" class="node">
<title>Node2</title>
<g id="a_node2"><a xlink:href="structtg__manager.html" target="_top" xlink:title="Thread Group Manager Structure.">
<polygon fill="white" stroke="black" points="30.95,-67.5 30.95,-86.5 105.95,-86.5 105.95,-67.5 30.95,-67.5"/>
<text text-anchor="middle" x="68.45" y="-74.5" font-family="Helvetica,sans-Serif" font-size="10.00">tg_manager</text>
</a>
</g>
</g>
<!-- Node2&#45;&gt;Node1 -->
<g id="edge1" class="edge">
<title>Node2&#45;&gt;Node1</title>
<path fill="none" stroke="#9a32cd" stroke-dasharray="5,2" d="M88.87,-61.42C106.86,-48.57 132.46,-30.28 147.38,-19.63"/>
<polygon fill="#9a32cd" stroke="#9a32cd" points="86.83,-58.57 80.73,-67.23 90.9,-64.27 86.83,-58.57"/>
<text text-anchor="middle" x="142.45" y="-41" font-family="Helvetica,sans-Serif" font-size="10.00"> Manager</text>
</g>
<!-- Node3 -->
<g id="node3" class="node">
<title>Node3</title>
<g id="a_node3"><a xlink:href="structtg__group.html" target="_top" xlink:title="Thread Group Structure.">
<polygon fill="white" stroke="black" points="8.95,-0.5 8.95,-19.5 67.95,-19.5 67.95,-0.5 8.95,-0.5"/>
<text text-anchor="middle" x="38.45" y="-7.5" font-family="Helvetica,sans-Serif" font-size="10.00">tg_group</text>
</a>
</g>
</g>
<!-- Node2&#45;&gt;Node3 -->
<g id="edge3" class="edge">
<title>Node2&#45;&gt;Node3</title>
<path fill="none" stroke="#9a32cd" stroke-dasharray="5,2" d="M21.14,-64.81C13.76,-60.99 7.06,-55.87 2.45,-49 -5.04,-37.83 8.16,-26.88 20.64,-19.62"/>
<polygon fill="#9a32cd" stroke="#9a32cd" points="20.19,-68.21 30.75,-68.98 22.98,-61.79 20.19,-68.21"/>
<text text-anchor="middle" x="25.45" y="-41" font-family="Helvetica,sans-Serif" font-size="10.00"> Manager</text>
</g>
<!-- Node3&#45;&gt;Node2 -->
<g id="edge2" class="edge">
<title>Node3&#45;&gt;Node2</title>
<path fill="none" stroke="#9a32cd" stroke-dasharray="5,2" d="M46.78,-29.03C52.52,-41.48 59.91,-57.49 64.41,-67.23"/>
<polygon fill="#9a32cd" stroke="#9a32cd" points="49.8,-27.24 42.44,-19.63 43.45,-30.17 49.8,-27.24"/>
<text text-anchor="middle" x="74.45" y="-41" font-family="Helvetica,sans-Serif" font-size="10.00"> Groups</text>
</g>
<!-- Node4 -->
<g id="node4" class="node">
<title>Node4</title>
<g id="a_node4"><a xlink:href="structsensor__data__pipe.html" target="_top" xlink:title="Sensor Data Pipeline Structure.">
<polygon fill="white" stroke="black" points="147.45,-67.5 147.45,-86.5 249.45,-86.5 249.45,-67.5 147.45,-67.5"/>
<text text-anchor="middle" x="198.45" y="-74.5" font-family="Helvetica,sans-Serif" font-size="10.00">sensor_data_pipe</text>
</a>
</g>
</g>
<!-- Node4&#45;&gt;Node1 -->
<g id="edge4" class="edge">
<title>Node4&#45;&gt;Node1</title>
<path fill="none" stroke="#9a32cd" stroke-dasharray="5,2" d="M188.67,-58.8C184.91,-52.25 180.53,-44.75 176.45,-38 172.79,-31.93 168.54,-25.18 165.21,-19.95"/>
<polygon fill="#9a32cd" stroke="#9a32cd" points="185.65,-60.55 193.65,-67.5 191.72,-57.08 185.65,-60.55"/>
<text text-anchor="middle" x="195.95" y="-41" font-family="Helvetica,sans-Serif" font-size="10.00"> Pipe</text>
</g>
<!-- Node5 -->
<g id="node5" class="node">
<title>Node5</title>
<g id="a_node5"><a xlink:href="structsdb__arena.html" target="_top" xlink:title=" ">
<polygon fill="white" stroke="black" points="164.95,-134.5 164.95,-153.5 231.95,-153.5 231.95,-134.5 164.95,-134.5"/>
<text text-anchor="middle" x="198.45" y="-141.5" font-family="Helvetica,sans-Serif" font-size="10.00">sdb_arena</text>
</a>
</g>
</g>
<!-- Node5&#45;&gt;Node4 -->
<g id="edge5" class="edge">
<title>Node5&#45;&gt;Node4</title>
<path fill="none" stroke="#9a32cd" stroke-dasharray="5,2" d="M198.45,-124.04C198.45,-111.67 198.45,-96.12 198.45,-86.63"/>
<polygon fill="#9a32cd" stroke="#9a32cd" points="194.95,-124.23 198.45,-134.23 201.95,-124.23 194.95,-124.23"/>
<text text-anchor="middle" x="217.45" y="-108" font-family="Helvetica,sans-Serif" font-size="10.00"> Buffers</text>
</g>
</g>
</svg>
