<?xml version="1.0" encoding="UTF-8" standalone="no"?>
<!DOCTYPE svg PUBLIC "-//W3C//DTD SVG 1.1//EN"
 "http://www.w3.org/Graphics/SVG/1.1/DTD/svg11.dtd">
<!-- Generated by graphviz version 2.43.0 (0)
 -->
<!-- Title: tg_group Pages: 1 -->
<svg width="101pt" height="93pt"
 viewBox="0.00 0.00 100.50 93.00" xmlns="http://www.w3.org/2000/svg" xmlns:xlink="http://www.w3.org/1999/xlink">

<svg id="main" version="1.1" xmlns="http://www.w3.org/2000/svg" xmlns:xlink="http://www.w3.org/1999/xlink" xml:space="preserve" onload="init(evt)">
<style type="text/css"><![CDATA[
.node, .edge {opacity: 0.7;}
.node.selected, .edge.selected {opacity: 1;}
.edge:hover path { stroke: red; }
.edge:hover polygon { stroke: red; fill: red; }
]]></style>
<script type="application/ecmascript" xlink:href="svg.min.js"/>
<svg id="graph" class="graph">
<g id="graph0" class="graph" transform="scale(1 1) rotate(0) translate(4 89)">
<title>tg_group</title>
<!-- Node1 -->
<g id="Node000001" class="node">
<title>Node1</title>
<g id="a_Node000001"><a xlink:title="Thread Group Structure.">
<polygon fill="#999999" stroke="#666666" points="67,-85 8,-85 8,-66 67,-66 67,-85"/>
<text text-anchor="middle" x="37.5" y="-73" font-family="Helvetica,sans-Serif" font-size="10.00">tg_group</text>
</a>
</g>
</g>
<!-- Node2 -->
<g id="Node000002" class="node">
<title>Node2</title>
<g id="a_Node000002"><a xlink:href="structtg__manager.html" target="_top" xlink:title="Thread Group Manager Structure.">
<polygon fill="white" stroke="#666666" points="75,-19 0,-19 0,0 75,0 75,-19"/>
<text text-anchor="middle" x="37.5" y="-7" font-family="Helvetica,sans-Serif" font-size="10.00">tg_manager</text>
</a>
</g>
</g>
<!-- Node1&#45;&gt;Node2 -->
<g id="edge2_Node000002_Node000001" class="edge">
<title>Node1&#45;&gt;Node2</title>
<g id="a_edge2_Node000002_Node000001"><a xlink:title=" ">
<path fill="none" stroke="#9a32cd" stroke-dasharray="5,2" d="M13.21,-59.41C9.68,-56.11 6.56,-52.29 4.5,-48 -0.9,-36.74 10.22,-26.28 20.98,-19.29"/>
<polygon fill="#9a32cd" stroke="#9a32cd" points="11.29,-62.35 21.3,-65.82 15.64,-56.87 11.29,-62.35"/>
</a>
</g>
<text text-anchor="middle" x="23.5" y="-40" font-family="Helvetica,sans-Serif" font-size="10.00" fill="grey"> Groups</text>
</g>
<!-- Node2&#45;&gt;Node1 -->
<g id="edge1_Node000001_Node000002" class="edge">
<title>Node2&#45;&gt;Node1</title>
<g id="a_edge1_Node000001_Node000002"><a xlink:title=" ">
<path fill="none" stroke="#9a32cd" stroke-dasharray="5,2" d="M44.58,-28.84C45.38,-31.54 46.06,-34.32 46.5,-37 48.16,-47.04 44.67,-58.38 41.57,-65.93"/>
<polygon fill="#9a32cd" stroke="#9a32cd" points="47.81,-27.46 41.24,-19.15 41.2,-29.74 47.81,-27.46"/>
</a>
</g>
<text text-anchor="middle" x="69.5" y="-40" font-family="Helvetica,sans-Serif" font-size="10.00" fill="grey"> Manager</text>
</g>
</g>
</svg>
</svg>

<style type='text/css'>
<![CDATA[
[data-mouse-over-selected='false'] { opacity: 0.7; }
[data-mouse-over-selected='true']  { opacity: 1.0; }
]]>
</style>
<script type="application/ecmascript"><![CDATA[
document.addEventListener('DOMContentLoaded', (event) => {
  highlightEdges();
  highlightAdjacentNodes();
});
]]></script>
</svg>
