<?xml version="1.0" encoding="UTF-8" standalone="no"?>
<!DOCTYPE svg PUBLIC "-//W3C//DTD SVG 1.1//EN"
 "http://www.w3.org/Graphics/SVG/1.1/DTD/svg11.dtd">
<!-- Generated by graphviz version 2.43.0 (0)
 -->
<!-- Title: src/DevUtils/TestDataGenerator.c Pages: 1 -->
<!--zoomable 258 -->

<svg id="main" version="1.1" xmlns="http://www.w3.org/2000/svg" xmlns:xlink="http://www.w3.org/1999/xlink" xml:space="preserve" onload="init(evt)">
<style type="text/css"><![CDATA[
.node, .edge {opacity: 0.7;}
.node.selected, .edge.selected {opacity: 1;}
.edge:hover path { stroke: red; }
.edge:hover polygon { stroke: red; fill: red; }
]]></style>

<defs>
  <circle id="rim" cx="0" cy="0" r="7"/>
  <circle id="rim2" cx="0" cy="0" r="3.5"/>
  <g id="zoomPlus">
    <use xlink:href="#rim" fill="#404040"><set attributeName="fill" to="#808080" begin="zoomplus.mouseover" end="zoomplus.mouseout"/></use>
    <path d="M-4,0h8M0,-4v8" fill="none" stroke="white" stroke-width="1.5" pointer-events="none"/>
  </g>
  <g id="zoomMin">
    <use xlink:href="#rim" fill="#404040"><set attributeName="fill" to="#808080" begin="zoomminus.mouseover" end="zoomminus.mouseout"/></use>
    <path d="M-4,0h8" fill="none" stroke="white" stroke-width="1.5" pointer-events="none"/>
  </g>
  <g id="arrowUp" transform="translate(30 24)">
    <use xlink:href="#rim"/>
    <path pointer-events="none" fill="none" stroke="white" stroke-width="1.5" d="M0,-3.0v7 M-2.5,-0.5L0,-3.0L2.5,-0.5"/>
  </g>
  <g id="arrowRight" transform="rotate(90) translate(36 -43)">
    <use xlink:href="#rim"/>
    <path pointer-events="none" fill="none" stroke="white" stroke-width="1.5" d="M0,-3.0v7 M-2.5,-0.5L0,-3.0L2.5,-0.5"/>
  </g>
  <g id="arrowDown" transform="rotate(180) translate(-30 -48)">
    <use xlink:href="#rim"/>
    <path pointer-events="none" fill="none" stroke="white" stroke-width="1.5" d="M0,-3.0v7 M-2.5,-0.5L0,-3.0L2.5,-0.5"/>
  </g>
  <g id="arrowLeft" transform="rotate(270) translate(-36 17)">
    <use xlink:href="#rim"/>
    <path pointer-events="none" fill="none" stroke="white" stroke-width="1.5" d="M0,-3.0v7 M-2.5,-0.5L0,-3.0L2.5,-0.5"/>
  </g>
  <g id="resetDef">
    <use xlink:href="#rim2" fill="#404040"><set attributeName="fill" to="#808080" begin="reset.mouseover" end="reset.mouseout"/></use>
  </g>
</defs>
<script type="application/ecmascript">
var viewWidth = 1260;
var viewHeight = 258;
var sectionId = 'dynsection-0';
</script>
<script type="application/ecmascript" xlink:href="svg.min.js"/>
<svg id="graph" class="graph">
<g id="viewport">
<title>src/DevUtils/TestDataGenerator.c</title>
<!-- Node1 -->
<g id="Node000001" class="node">
<title>Node1</title>
<g id="a_Node000001"><a xlink:title=" ">
<polygon fill="#999999" stroke="#666666" points="923.5,-250 745.5,-250 745.5,-231 923.5,-231 923.5,-250"/>
<text text-anchor="middle" x="834.5" y="-238" font-family="Helvetica,sans-Serif" font-size="10.00">src/DevUtils/TestDataGenerator.c</text>
</a>
</g>
</g>
<!-- Node2 -->
<g id="Node000002" class="node">
<title>Node2</title>
<g id="a_Node000002"><a xlink:title=" ">
<polygon fill="#e0e0e0" stroke="#999999" points="51,-19 0,-19 0,0 51,0 51,-19"/>
<text text-anchor="middle" x="25.5" y="-7" font-family="Helvetica,sans-Serif" font-size="10.00">errno.h</text>
</a>
</g>
</g>
<!-- Node1&#45;&gt;Node2 -->
<g id="edge1_Node000001_Node000002" class="edge">
<title>Node1&#45;&gt;Node2</title>
<g id="a_edge1_Node000001_Node000002"><a xlink:title=" ">
<path fill="none" stroke="#63b8ff" d="M745.35,-239.61C585.73,-238.83 257.77,-232.53 150.5,-195 110.12,-180.87 97.46,-174.01 71.5,-140 45.53,-105.98 33.37,-56.06 28.42,-29.22"/>
<polygon fill="#63b8ff" stroke="#63b8ff" points="31.85,-28.51 26.72,-19.24 24.95,-29.69 31.85,-28.51"/>
</a>
</g>
</g>
<!-- Node3 -->
<g id="Node000003" class="node">
<title>Node3</title>
<g id="a_Node000003"><a xlink:title=" ">
<polygon fill="#e0e0e0" stroke="#999999" points="771,-19 724,-19 724,0 771,0 771,-19"/>
<text text-anchor="middle" x="747.5" y="-7" font-family="Helvetica,sans-Serif" font-size="10.00">fcntl.h</text>
</a>
</g>
</g>
<!-- Node1&#45;&gt;Node3 -->
<g id="edge2_Node000001_Node000003" class="edge">
<title>Node1&#45;&gt;Node3</title>
<g id="a_edge2_Node000001_Node000003"><a xlink:title=" ">
<path fill="none" stroke="#63b8ff" d="M833.91,-230.71C832.25,-209.35 826.48,-153.27 809.5,-110 797.18,-78.6 774.82,-46.15 760.59,-27.17"/>
<polygon fill="#63b8ff" stroke="#63b8ff" points="763.37,-25.04 754.51,-19.23 757.81,-29.3 763.37,-25.04"/>
</a>
</g>
</g>
<!-- Node4 -->
<g id="Node000004" class="node">
<title>Node4</title>
<g id="a_Node000004"><a xlink:title=" ">
<polygon fill="#e0e0e0" stroke="#999999" points="839.5,-19 789.5,-19 789.5,0 839.5,0 839.5,-19"/>
<text text-anchor="middle" x="814.5" y="-7" font-family="Helvetica,sans-Serif" font-size="10.00">stdio.h</text>
</a>
</g>
</g>
<!-- Node1&#45;&gt;Node4 -->
<g id="edge3_Node000001_Node000004" class="edge">
<title>Node1&#45;&gt;Node4</title>
<g id="a_edge3_Node000001_Node000004"><a xlink:title=" ">
<path fill="none" stroke="#63b8ff" d="M838.1,-230.82C841.56,-221.99 846.53,-207.81 848.5,-195 857.95,-133.5 868.44,-113.94 848.5,-55 844.94,-44.47 837.78,-34.48 830.95,-26.63"/>
<polygon fill="#63b8ff" stroke="#63b8ff" points="833.49,-24.23 824.11,-19.31 828.37,-29.01 833.49,-24.23"/>
</a>
</g>
</g>
<!-- Node5 -->
<g id="Node000005" class="node">
<title>Node5</title>
<g id="a_Node000005"><a xlink:title=" ">
<polygon fill="#e0e0e0" stroke="#999999" points="911,-19 858,-19 858,0 911,0 911,-19"/>
<text text-anchor="middle" x="884.5" y="-7" font-family="Helvetica,sans-Serif" font-size="10.00">stdlib.h</text>
</a>
</g>
</g>
<!-- Node1&#45;&gt;Node5 -->
<g id="edge4_Node000001_Node000005" class="edge">
<title>Node1&#45;&gt;Node5</title>
<g id="a_edge4_Node000001_Node000005"><a xlink:title=" ">
<path fill="none" stroke="#63b8ff" d="M841.68,-230.9C848.42,-222.35 858.23,-208.58 863.5,-195 885.7,-137.75 886.49,-63.56 885.44,-29.33"/>
<polygon fill="#63b8ff" stroke="#63b8ff" points="888.94,-29.18 885.04,-19.33 881.94,-29.46 888.94,-29.18"/>
</a>
</g>
</g>
<!-- Node6 -->
<g id="Node000006" class="node">
<title>Node6</title>
<g id="a_Node000006"><a xlink:title=" ">
<polygon fill="#e0e0e0" stroke="#999999" points="982,-19 929,-19 929,0 982,0 982,-19"/>
<text text-anchor="middle" x="955.5" y="-7" font-family="Helvetica,sans-Serif" font-size="10.00">string.h</text>
</a>
</g>
</g>
<!-- Node1&#45;&gt;Node6 -->
<g id="edge5_Node000001_Node000006" class="edge">
<title>Node1&#45;&gt;Node6</title>
<g id="a_edge5_Node000001_Node000006"><a xlink:title=" ">
<path fill="none" stroke="#63b8ff" d="M846.03,-230.69C856.22,-222.4 870.92,-209.18 880.5,-195 917.7,-139.93 941.32,-63.55 950.78,-28.91"/>
<polygon fill="#63b8ff" stroke="#63b8ff" points="954.17,-29.76 953.35,-19.2 947.4,-27.97 954.17,-29.76"/>
</a>
</g>
</g>
<!-- Node7 -->
<g id="Node000007" class="node">
<title>Node7</title>
<g id="a_Node000007"><a xlink:title=" ">
<polygon fill="#e0e0e0" stroke="#999999" points="1077,-19 1000,-19 1000,0 1077,0 1077,-19"/>
<text text-anchor="middle" x="1038.5" y="-7" font-family="Helvetica,sans-Serif" font-size="10.00">sys/mman.h</text>
</a>
</g>
</g>
<!-- Node1&#45;&gt;Node7 -->
<g id="edge6_Node000001_Node000007" class="edge">
<title>Node1&#45;&gt;Node7</title>
<g id="a_edge6_Node000001_Node000007"><a xlink:title=" ">
<path fill="none" stroke="#63b8ff" d="M849.98,-230.87C863.84,-222.7 884.27,-209.55 899.5,-195 928.89,-166.91 998.91,-67.59 1026.77,-27.48"/>
<polygon fill="#63b8ff" stroke="#63b8ff" points="1029.8,-29.26 1032.62,-19.05 1024.05,-25.27 1029.8,-29.26"/>
</a>
</g>
</g>
<!-- Node8 -->
<g id="Node000008" class="node">
<title>Node8</title>
<g id="a_Node000008"><a xlink:title=" ">
<polygon fill="#e0e0e0" stroke="#999999" points="1159.5,-19 1095.5,-19 1095.5,0 1159.5,0 1159.5,-19"/>
<text text-anchor="middle" x="1127.5" y="-7" font-family="Helvetica,sans-Serif" font-size="10.00">sys/stat.h</text>
</a>
</g>
</g>
<!-- Node1&#45;&gt;Node8 -->
<g id="edge7_Node000001_Node000008" class="edge">
<title>Node1&#45;&gt;Node8</title>
<g id="a_edge7_Node000001_Node000008"><a xlink:title=" ">
<path fill="none" stroke="#63b8ff" d="M856.5,-230.89C874.9,-223.09 901.29,-210.47 921.5,-195 988.2,-143.93 982.84,-107.4 1048.5,-55 1064.09,-42.56 1083.6,-31.53 1099.33,-23.57"/>
<polygon fill="#63b8ff" stroke="#63b8ff" points="1101.14,-26.58 1108.57,-19.02 1098.05,-20.3 1101.14,-26.58"/>
</a>
</g>
</g>
<!-- Node9 -->
<g id="Node000009" class="node">
<title>Node9</title>
<g id="a_Node000009"><a xlink:title=" ">
<polygon fill="#e0e0e0" stroke="#999999" points="1233.5,-19 1177.5,-19 1177.5,0 1233.5,0 1233.5,-19"/>
<text text-anchor="middle" x="1205.5" y="-7" font-family="Helvetica,sans-Serif" font-size="10.00">unistd.h</text>
</a>
</g>
</g>
<!-- Node1&#45;&gt;Node9 -->
<g id="edge8_Node000001_Node000009" class="edge">
<title>Node1&#45;&gt;Node9</title>
<g id="a_edge8_Node000001_Node000009"><a xlink:title=" ">
<path fill="none" stroke="#63b8ff" d="M860.86,-230.91C883.86,-222.96 917.79,-210.11 945.5,-195 1042.59,-142.06 1146.49,-59.38 1187.44,-25.62"/>
<polygon fill="#63b8ff" stroke="#63b8ff" points="1189.73,-28.27 1195.2,-19.19 1185.27,-22.88 1189.73,-28.27"/>
</a>
</g>
</g>
<!-- Node10 -->
<g id="Node000010" class="node">
<title>Node10</title>
<g id="a_Node000010"><a xlink:href="Sdb_8h.html" target="_top" xlink:title=" ">
<polygon fill="white" stroke="#666666" points="606,-74 545,-74 545,-55 606,-55 606,-74"/>
<text text-anchor="middle" x="575.5" y="-62" font-family="Helvetica,sans-Serif" font-size="10.00">src/Sdb.h</text>
</a>
</g>
</g>
<!-- Node1&#45;&gt;Node10 -->
<g id="edge9_Node000001_Node000010" class="edge">
<title>Node1&#45;&gt;Node10</title>
<g id="a_edge9_Node000001_Node000010"><a xlink:title=" ">
<path fill="none" stroke="#63b8ff" d="M745.35,-232.41C689.2,-226.09 623.65,-214.7 603.5,-195 573.58,-165.75 572.04,-112.67 573.66,-84.4"/>
<polygon fill="#63b8ff" stroke="#63b8ff" points="577.16,-84.5 574.44,-74.26 570.18,-83.96 577.16,-84.5"/>
</a>
</g>
</g>
<!-- Node20 -->
<g id="Node000020" class="node">
<title>Node20</title>
<g id="a_Node000020"><a xlink:title=" ">
<polygon fill="#e0e0e0" stroke="#999999" points="1252,-195 1091,-195 1091,-176 1252,-176 1252,-195"/>
<text text-anchor="middle" x="1171.5" y="-183" font-family="Helvetica,sans-Serif" font-size="10.00">src/CommProtocols/Modbus.h</text>
</a>
</g>
</g>
<!-- Node1&#45;&gt;Node20 -->
<g id="edge27_Node000001_Node000020" class="edge">
<title>Node1&#45;&gt;Node20</title>
<g id="a_edge27_Node000001_Node000020"><a xlink:title=" ">
<path fill="none" stroke="#63b8ff" d="M888.64,-230.98C948.13,-221.63 1043.61,-206.61 1106.94,-196.65"/>
<polygon fill="#63b8ff" stroke="#63b8ff" points="1107.88,-200.05 1117.21,-195.04 1106.79,-193.13 1107.88,-200.05"/>
</a>
</g>
</g>
<!-- Node21 -->
<g id="Node000021" class="node">
<title>Node21</title>
<g id="a_Node000021"><a xlink:href="Socket_8h.html" target="_top" xlink:title="Simplified Socket Communication Utilities.">
<polygon fill="white" stroke="#666666" points="281.5,-195 159.5,-195 159.5,-176 281.5,-176 281.5,-195"/>
<text text-anchor="middle" x="220.5" y="-183" font-family="Helvetica,sans-Serif" font-size="10.00">src/Common/Socket.h</text>
</a>
</g>
</g>
<!-- Node1&#45;&gt;Node21 -->
<g id="edge28_Node000001_Node000021" class="edge">
<title>Node1&#45;&gt;Node21</title>
<g id="a_edge28_Node000001_Node000021"><a xlink:title=" ">
<path fill="none" stroke="#63b8ff" d="M745.22,-231.79C622.5,-221.2 404.14,-202.35 291.73,-192.65"/>
<polygon fill="#63b8ff" stroke="#63b8ff" points="291.78,-189.14 281.51,-191.77 291.18,-196.11 291.78,-189.14"/>
</a>
</g>
</g>
<!-- Node22 -->
<g id="Node000022" class="node">
<title>Node22</title>
<g id="a_Node000022"><a xlink:href="Time_8h.html" target="_top" xlink:title="Lightweight Time Manipulation Utilities.">
<polygon fill="white" stroke="#666666" points="392,-134.5 277,-134.5 277,-115.5 392,-115.5 392,-134.5"/>
<text text-anchor="middle" x="334.5" y="-122.5" font-family="Helvetica,sans-Serif" font-size="10.00">src/Common/Time.h</text>
</a>
</g>
</g>
<!-- Node1&#45;&gt;Node22 -->
<g id="edge41_Node000001_Node000022" class="edge">
<title>Node1&#45;&gt;Node22</title>
<g id="a_edge41_Node000001_Node000022"><a xlink:title=" ">
<path fill="none" stroke="#63b8ff" d="M745.16,-236.01C640.66,-230.88 474.67,-219.17 417.5,-195 389.57,-183.2 363.79,-158.75 348.6,-142.36"/>
<polygon fill="#63b8ff" stroke="#63b8ff" points="350.95,-139.74 341.67,-134.63 345.74,-144.41 350.95,-139.74"/>
</a>
</g>
</g>
<!-- Node26 -->
<g id="Node000026" class="node">
<title>Node26</title>
<g id="a_Node000026"><a xlink:href="Thread_8h.html" target="_top" xlink:title="Lightweight Synchronization Primitives Wrapper.">
<polygon fill="white" stroke="#666666" points="550.5,-195 426.5,-195 426.5,-176 550.5,-176 550.5,-195"/>
<text text-anchor="middle" x="488.5" y="-183" font-family="Helvetica,sans-Serif" font-size="10.00">src/Common/Thread.h</text>
</a>
</g>
</g>
<!-- Node1&#45;&gt;Node26 -->
<g id="edge36_Node000001_Node000026" class="edge">
<title>Node1&#45;&gt;Node26</title>
<g id="a_edge36_Node000001_Node000026"><a xlink:title=" ">
<path fill="none" stroke="#63b8ff" d="M778.91,-230.98C717.71,-221.61 619.4,-206.55 554.38,-196.59"/>
<polygon fill="#63b8ff" stroke="#63b8ff" points="554.65,-193.09 544.24,-195.04 553.59,-200.01 554.65,-193.09"/>
</a>
</g>
</g>
<!-- Node28 -->
<g id="Node000028" class="node">
<title>Node28</title>
<g id="a_Node000028"><a xlink:title=" ">
<polygon fill="#e0e0e0" stroke="#999999" points="800.5,-140 678.5,-140 678.5,-110 800.5,-110 800.5,-140"/>
<text text-anchor="start" x="686.5" y="-128" font-family="Helvetica,sans-Serif" font-size="10.00">src/DatabaseSystems</text>
<text text-anchor="middle" x="739.5" y="-117" font-family="Helvetica,sans-Serif" font-size="10.00">/Postgres.h</text>
</a>
</g>
</g>
<!-- Node1&#45;&gt;Node28 -->
<g id="edge42_Node000001_Node000028" class="edge">
<title>Node1&#45;&gt;Node28</title>
<g id="a_edge42_Node000001_Node000028"><a xlink:title=" ">
<path fill="none" stroke="#63b8ff" d="M827.36,-230.97C812.78,-213.55 779.19,-173.42 758.03,-148.13"/>
<polygon fill="#63b8ff" stroke="#63b8ff" points="760.47,-145.6 751.37,-140.18 755.1,-150.1 760.47,-145.6"/>
</a>
</g>
</g>
<!-- Node29 -->
<g id="Node000029" class="node">
<title>Node29</title>
<g id="a_Node000029"><a xlink:href="TestConstants_8h.html" target="_top" xlink:title="Constants for Modbus Test Server.">
<polygon fill="white" stroke="#666666" points="768.5,-195 612.5,-195 612.5,-176 768.5,-176 768.5,-195"/>
<text text-anchor="middle" x="690.5" y="-183" font-family="Helvetica,sans-Serif" font-size="10.00">src/DevUtils/TestConstants.h</text>
</a>
</g>
</g>
<!-- Node1&#45;&gt;Node29 -->
<g id="edge43_Node000001_Node000029" class="edge">
<title>Node1&#45;&gt;Node29</title>
<g id="a_edge43_Node000001_Node000029"><a xlink:title=" ">
<path fill="none" stroke="#63b8ff" d="M811.36,-230.98C787.68,-222.27 750.63,-208.63 723.79,-198.75"/>
<polygon fill="#63b8ff" stroke="#63b8ff" points="724.65,-195.34 714.06,-195.17 722.23,-201.91 724.65,-195.34"/>
</a>
</g>
</g>
<!-- Node10&#45;&gt;Node2 -->
<g id="edge12_Node000010_Node000002" class="edge">
<title>Node10&#45;&gt;Node2</title>
<g id="a_edge12_Node000010_Node000002"><a xlink:title=" ">
<path fill="none" stroke="#63b8ff" d="M544.82,-62.48C466.11,-59.51 250.48,-49.19 61.16,-18.82"/>
<polygon fill="#63b8ff" stroke="#63b8ff" points="61.45,-15.32 51.02,-17.17 60.33,-22.23 61.45,-15.32"/>
</a>
</g>
</g>
<!-- Node10&#45;&gt;Node3 -->
<g id="edge13_Node000010_Node000003" class="edge">
<title>Node10&#45;&gt;Node3</title>
<g id="a_edge13_Node000010_Node000003"><a xlink:title=" ">
<path fill="none" stroke="#63b8ff" d="M603.13,-54.98C633.3,-45.69 681.59,-30.81 713.92,-20.85"/>
<polygon fill="#63b8ff" stroke="#63b8ff" points="715.28,-24.09 723.81,-17.8 713.22,-17.4 715.28,-24.09"/>
</a>
</g>
</g>
<!-- Node10&#45;&gt;Node4 -->
<g id="edge19_Node000010_Node000004" class="edge">
<title>Node10&#45;&gt;Node4</title>
<g id="a_edge19_Node000010_Node000004"><a xlink:title=" ">
<path fill="none" stroke="#63b8ff" d="M606.13,-57.16C644.38,-49.18 712.06,-34.83 779.35,-19.21"/>
<polygon fill="#63b8ff" stroke="#63b8ff" points="780.33,-22.58 789.27,-16.9 778.74,-15.76 780.33,-22.58"/>
</a>
</g>
</g>
<!-- Node10&#45;&gt;Node5 -->
<g id="edge20_Node000010_Node000005" class="edge">
<title>Node10&#45;&gt;Node5</title>
<g id="a_edge20_Node000010_Node000005"><a xlink:title=" ">
<path fill="none" stroke="#63b8ff" d="M606.33,-59.2C655.31,-52.2 754.08,-37.46 847.87,-19"/>
<polygon fill="#63b8ff" stroke="#63b8ff" points="848.68,-22.4 857.81,-17.02 847.32,-15.54 848.68,-22.4"/>
</a>
</g>
</g>
<!-- Node10&#45;&gt;Node6 -->
<g id="edge21_Node000010_Node000006" class="edge">
<title>Node10&#45;&gt;Node6</title>
<g id="a_edge21_Node000010_Node000006"><a xlink:title=" ">
<path fill="none" stroke="#63b8ff" d="M606.14,-60.69C664.92,-55.06 797.77,-41.14 918.65,-19.17"/>
<polygon fill="#63b8ff" stroke="#63b8ff" points="919.61,-22.55 928.81,-17.3 918.34,-15.67 919.61,-22.55"/>
</a>
</g>
</g>
<!-- Node10&#45;&gt;Node7 -->
<g id="edge22_Node000010_Node000007" class="edge">
<title>Node10&#45;&gt;Node7</title>
<g id="a_edge22_Node000010_Node000007"><a xlink:title=" ">
<path fill="none" stroke="#63b8ff" d="M606.13,-60.99C673.57,-55.29 840.18,-40.33 989.54,-19.19"/>
<polygon fill="#63b8ff" stroke="#63b8ff" points="990.4,-22.61 999.81,-17.73 989.41,-15.68 990.4,-22.61"/>
</a>
</g>
</g>
<!-- Node10&#45;&gt;Node8 -->
<g id="edge23_Node000010_Node000008" class="edge">
<title>Node10&#45;&gt;Node8</title>
<g id="a_edge23_Node000010_Node000008"><a xlink:title=" ">
<path fill="none" stroke="#63b8ff" d="M606.17,-62.09C684.39,-58.22 897.76,-46 1085.29,-19"/>
<polygon fill="#63b8ff" stroke="#63b8ff" points="1085.94,-22.45 1095.33,-17.54 1084.93,-15.52 1085.94,-22.45"/>
</a>
</g>
</g>
<!-- Node10&#45;&gt;Node9 -->
<g id="edge25_Node000010_Node000009" class="edge">
<title>Node10&#45;&gt;Node9</title>
<g id="a_edge25_Node000010_Node000009"><a xlink:title=" ">
<path fill="none" stroke="#63b8ff" d="M606.24,-62.83C692.96,-60.58 947.06,-51.64 1167.18,-18.96"/>
<polygon fill="#63b8ff" stroke="#63b8ff" points="1167.93,-22.39 1177.3,-17.44 1166.89,-15.47 1167.93,-22.39"/>
</a>
</g>
</g>
<!-- Node11 -->
<g id="Node000011" class="node">
<title>Node11</title>
<g id="a_Node000011"><a xlink:title=" ">
<polygon fill="#e0e0e0" stroke="#999999" points="273.5,-19 217.5,-19 217.5,0 273.5,0 273.5,-19"/>
<text text-anchor="middle" x="245.5" y="-7" font-family="Helvetica,sans-Serif" font-size="10.00">assert.h</text>
</a>
</g>
</g>
<!-- Node10&#45;&gt;Node11 -->
<g id="edge10_Node000010_Node000011" class="edge">
<title>Node10&#45;&gt;Node11</title>
<g id="a_edge10_Node000010_Node000011"><a xlink:title=" ">
<path fill="none" stroke="#63b8ff" d="M544.58,-59.58C492.72,-52.84 384.77,-38.09 283.8,-19.13"/>
<polygon fill="#63b8ff" stroke="#63b8ff" points="284.21,-15.64 273.74,-17.22 282.91,-22.52 284.21,-15.64"/>
</a>
</g>
</g>
<!-- Node12 -->
<g id="Node000012" class="node">
<title>Node12</title>
<g id="a_Node000012"><a xlink:title=" ">
<polygon fill="#e0e0e0" stroke="#999999" points="345,-19 292,-19 292,0 345,0 345,-19"/>
<text text-anchor="middle" x="318.5" y="-7" font-family="Helvetica,sans-Serif" font-size="10.00">ctype.h</text>
</a>
</g>
</g>
<!-- Node10&#45;&gt;Node12 -->
<g id="edge11_Node000010_Node000012" class="edge">
<title>Node10&#45;&gt;Node12</title>
<g id="a_edge11_Node000010_Node000012"><a xlink:title=" ">
<path fill="none" stroke="#63b8ff" d="M544.89,-57.77C503.85,-50 428.46,-35.42 355.09,-19.29"/>
<polygon fill="#63b8ff" stroke="#63b8ff" points="355.75,-15.85 345.23,-17.11 354.24,-22.68 355.75,-15.85"/>
</a>
</g>
</g>
<!-- Node13 -->
<g id="Node000013" class="node">
<title>Node13</title>
<g id="a_Node000013"><a xlink:title=" ">
<polygon fill="#e0e0e0" stroke="#999999" points="410,-19 363,-19 363,0 410,0 410,-19"/>
<text text-anchor="middle" x="386.5" y="-7" font-family="Helvetica,sans-Serif" font-size="10.00">float.h</text>
</a>
</g>
</g>
<!-- Node10&#45;&gt;Node13 -->
<g id="edge14_Node000010_Node000013" class="edge">
<title>Node10&#45;&gt;Node13</title>
<g id="a_edge14_Node000010_Node000013"><a xlink:title=" ">
<path fill="none" stroke="#63b8ff" d="M545.13,-54.98C510.94,-45.4 455.55,-29.86 420.09,-19.92"/>
<polygon fill="#63b8ff" stroke="#63b8ff" points="420.78,-16.48 410.21,-17.15 418.89,-23.22 420.78,-16.48"/>
</a>
</g>
</g>
<!-- Node14 -->
<g id="Node000014" class="node">
<title>Node14</title>
<g id="a_Node000014"><a xlink:title=" ">
<polygon fill="#e0e0e0" stroke="#999999" points="479,-19 428,-19 428,0 479,0 479,-19"/>
<text text-anchor="middle" x="453.5" y="-7" font-family="Helvetica,sans-Serif" font-size="10.00">math.h</text>
</a>
</g>
</g>
<!-- Node10&#45;&gt;Node14 -->
<g id="edge15_Node000010_Node000014" class="edge">
<title>Node10&#45;&gt;Node14</title>
<g id="a_edge15_Node000010_Node000014"><a xlink:title=" ">
<path fill="none" stroke="#63b8ff" d="M555.9,-54.98C536.18,-46.42 505.55,-33.11 482.92,-23.28"/>
<polygon fill="#63b8ff" stroke="#63b8ff" points="484.02,-19.94 473.46,-19.17 481.24,-26.37 484.02,-19.94"/>
</a>
</g>
</g>
<!-- Node15 -->
<g id="Node000015" class="node">
<title>Node15</title>
<g id="a_Node000015"><a xlink:title=" ">
<polygon fill="#e0e0e0" stroke="#999999" points="199,-19 136,-19 136,0 199,0 199,-19"/>
<text text-anchor="middle" x="167.5" y="-7" font-family="Helvetica,sans-Serif" font-size="10.00">pthread.h</text>
</a>
</g>
</g>
<!-- Node10&#45;&gt;Node15 -->
<g id="edge16_Node000010_Node000015" class="edge">
<title>Node10&#45;&gt;Node15</title>
<g id="a_edge16_Node000010_Node000015"><a xlink:title=" ">
<path fill="none" stroke="#63b8ff" d="M544.93,-60.67C483.42,-54.78 340.16,-40.13 209.43,-19.02"/>
<polygon fill="#63b8ff" stroke="#63b8ff" points="209.67,-15.51 199.24,-17.35 208.54,-22.42 209.67,-15.51"/>
</a>
</g>
</g>
<!-- Node16 -->
<g id="Node000016" class="node">
<title>Node16</title>
<g id="a_Node000016"><a xlink:title=" ">
<polygon fill="#e0e0e0" stroke="#999999" points="553.5,-19 497.5,-19 497.5,0 553.5,0 553.5,-19"/>
<text text-anchor="middle" x="525.5" y="-7" font-family="Helvetica,sans-Serif" font-size="10.00">stdarg.h</text>
</a>
</g>
</g>
<!-- Node10&#45;&gt;Node16 -->
<g id="edge17_Node000010_Node000016" class="edge">
<title>Node10&#45;&gt;Node16</title>
<g id="a_edge17_Node000010_Node000016"><a xlink:title=" ">
<path fill="none" stroke="#63b8ff" d="M567.24,-54.75C560.04,-47.11 549.39,-35.82 540.65,-26.56"/>
<polygon fill="#63b8ff" stroke="#63b8ff" points="543.01,-23.96 533.6,-19.09 537.92,-28.76 543.01,-23.96"/>
</a>
</g>
</g>
<!-- Node17 -->
<g id="Node000017" class="node">
<title>Node17</title>
<g id="a_Node000017"><a xlink:title=" ">
<polygon fill="#e0e0e0" stroke="#999999" points="625,-19 572,-19 572,0 625,0 625,-19"/>
<text text-anchor="middle" x="598.5" y="-7" font-family="Helvetica,sans-Serif" font-size="10.00">stdint.h</text>
</a>
</g>
</g>
<!-- Node10&#45;&gt;Node17 -->
<g id="edge18_Node000010_Node000017" class="edge">
<title>Node10&#45;&gt;Node17</title>
<g id="a_edge18_Node000010_Node000017"><a xlink:title=" ">
<path fill="none" stroke="#63b8ff" d="M579.3,-54.75C582.41,-47.57 586.92,-37.18 590.79,-28.27"/>
<polygon fill="#63b8ff" stroke="#63b8ff" points="594,-29.66 594.77,-19.09 587.58,-26.87 594,-29.66"/>
</a>
</g>
</g>
<!-- Node18 -->
<g id="Node000018" class="node">
<title>Node18</title>
<g id="a_Node000018"><a xlink:title=" ">
<polygon fill="#e0e0e0" stroke="#999999" points="117.5,-19 69.5,-19 69.5,0 117.5,0 117.5,-19"/>
<text text-anchor="middle" x="93.5" y="-7" font-family="Helvetica,sans-Serif" font-size="10.00">time.h</text>
</a>
</g>
</g>
<!-- Node10&#45;&gt;Node18 -->
<g id="edge24_Node000010_Node000018" class="edge">
<title>Node10&#45;&gt;Node18</title>
<g id="a_edge24_Node000010_Node000018"><a xlink:title=" ">
<path fill="none" stroke="#63b8ff" d="M544.79,-62.08C473.28,-58.43 290.03,-47.1 127.72,-18.94"/>
<polygon fill="#63b8ff" stroke="#63b8ff" points="128.01,-15.44 117.56,-17.15 126.8,-22.33 128.01,-15.44"/>
</a>
</g>
</g>
<!-- Node19 -->
<g id="Node000019" class="node">
<title>Node19</title>
<g id="a_Node000019"><a xlink:title=" ">
<polygon fill="#e0e0e0" stroke="#999999" points="705.5,-19 643.5,-19 643.5,0 705.5,0 705.5,-19"/>
<text text-anchor="middle" x="674.5" y="-7" font-family="Helvetica,sans-Serif" font-size="10.00">stdbool.h</text>
</a>
</g>
</g>
<!-- Node10&#45;&gt;Node19 -->
<g id="edge26_Node000010_Node000019" class="edge">
<title>Node10&#45;&gt;Node19</title>
<g id="a_edge26_Node000010_Node000019"><a xlink:title=" ">
<path fill="none" stroke="#63b8ff" d="M591.41,-54.98C607.05,-46.61 631.16,-33.7 649.38,-23.95"/>
<polygon fill="#63b8ff" stroke="#63b8ff" points="651.14,-26.98 658.3,-19.17 647.84,-20.8 651.14,-26.98"/>
</a>
</g>
</g>
<!-- Node21&#45;&gt;Node10 -->
<g id="edge29_Node000021_Node000010" class="edge">
<title>Node21&#45;&gt;Node10</title>
<g id="a_edge29_Node000021_Node000010"><a xlink:title=" ">
<path fill="none" stroke="#63b8ff" d="M170.94,-175.92C119.9,-165.04 51.83,-143.57 82.5,-110 97.7,-93.37 418.81,-74.13 534.45,-67.71"/>
<polygon fill="#63b8ff" stroke="#63b8ff" points="534.87,-71.19 544.67,-67.15 534.49,-64.2 534.87,-71.19"/>
</a>
</g>
</g>
<!-- Node21&#45;&gt;Node22 -->
<g id="edge30_Node000021_Node000022" class="edge">
<title>Node21&#45;&gt;Node22</title>
<g id="a_edge30_Node000021_Node000022"><a xlink:title=" ">
<path fill="none" stroke="#63b8ff" d="M237.32,-175.87C256.1,-166.23 286.7,-150.53 308.55,-139.31"/>
<polygon fill="#63b8ff" stroke="#63b8ff" points="310.31,-142.35 317.61,-134.67 307.11,-136.12 310.31,-142.35"/>
</a>
</g>
</g>
<!-- Node24 -->
<g id="Node000024" class="node">
<title>Node24</title>
<g id="a_Node000024"><a xlink:title=" ">
<polygon fill="#e0e0e0" stroke="#999999" points="259,-134.5 182,-134.5 182,-115.5 259,-115.5 259,-134.5"/>
<text text-anchor="middle" x="220.5" y="-122.5" font-family="Helvetica,sans-Serif" font-size="10.00">sys/socket.h</text>
</a>
</g>
</g>
<!-- Node21&#45;&gt;Node24 -->
<g id="edge34_Node000021_Node000024" class="edge">
<title>Node21&#45;&gt;Node24</title>
<g id="a_edge34_Node000021_Node000024"><a xlink:title=" ">
<path fill="none" stroke="#63b8ff" d="M220.5,-175.87C220.5,-167.75 220.5,-155.31 220.5,-144.89"/>
<polygon fill="#63b8ff" stroke="#63b8ff" points="224,-144.67 220.5,-134.67 217,-144.67 224,-144.67"/>
</a>
</g>
</g>
<!-- Node25 -->
<g id="Node000025" class="node">
<title>Node25</title>
<g id="a_Node000025"><a xlink:title=" ">
<polygon fill="#e0e0e0" stroke="#999999" points="163.5,-134.5 91.5,-134.5 91.5,-115.5 163.5,-115.5 163.5,-134.5"/>
<text text-anchor="middle" x="127.5" y="-122.5" font-family="Helvetica,sans-Serif" font-size="10.00">sys/types.h</text>
</a>
</g>
</g>
<!-- Node21&#45;&gt;Node25 -->
<g id="edge35_Node000021_Node000025" class="edge">
<title>Node21&#45;&gt;Node25</title>
<g id="a_edge35_Node000021_Node000025"><a xlink:title=" ">
<path fill="none" stroke="#63b8ff" d="M206.78,-175.87C191.8,-166.45 167.61,-151.23 149.88,-140.08"/>
<polygon fill="#63b8ff" stroke="#63b8ff" points="151.61,-137.03 141.28,-134.67 147.88,-142.95 151.61,-137.03"/>
</a>
</g>
</g>
<!-- Node22&#45;&gt;Node10 -->
<g id="edge33_Node000022_Node000010" class="edge">
<title>Node22&#45;&gt;Node10</title>
<g id="a_edge33_Node000022_Node000010"><a xlink:title=" ">
<path fill="none" stroke="#63b8ff" d="M369.54,-115.49C413.48,-104.83 488.64,-86.58 535,-75.33"/>
<polygon fill="#63b8ff" stroke="#63b8ff" points="536.1,-78.67 544.99,-72.9 534.45,-71.86 536.1,-78.67"/>
</a>
</g>
</g>
<!-- Node22&#45;&gt;Node18 -->
<g id="edge32_Node000022_Node000018" class="edge">
<title>Node22&#45;&gt;Node18</title>
<g id="a_edge32_Node000022_Node000018"><a xlink:title=" ">
<path fill="none" stroke="#63b8ff" d="M316.39,-115.47C274.51,-95.75 170.81,-46.91 121.03,-23.46"/>
<polygon fill="#63b8ff" stroke="#63b8ff" points="122.36,-20.22 111.82,-19.13 119.38,-26.56 122.36,-20.22"/>
</a>
</g>
</g>
<!-- Node23 -->
<g id="Node000023" class="node">
<title>Node23</title>
<g id="a_Node000023"><a xlink:title=" ">
<polygon fill="#e0e0e0" stroke="#999999" points="361,-74 308,-74 308,-55 361,-55 361,-74"/>
<text text-anchor="middle" x="334.5" y="-62" font-family="Helvetica,sans-Serif" font-size="10.00">limits.h</text>
</a>
</g>
</g>
<!-- Node22&#45;&gt;Node23 -->
<g id="edge31_Node000022_Node000023" class="edge">
<title>Node22&#45;&gt;Node23</title>
<g id="a_edge31_Node000022_Node000023"><a xlink:title=" ">
<path fill="none" stroke="#63b8ff" d="M334.5,-115.37C334.5,-107.25 334.5,-94.81 334.5,-84.39"/>
<polygon fill="#63b8ff" stroke="#63b8ff" points="338,-84.17 334.5,-74.17 331,-84.17 338,-84.17"/>
</a>
</g>
</g>
<!-- Node26&#45;&gt;Node10 -->
<g id="edge39_Node000026_Node000010" class="edge">
<title>Node26&#45;&gt;Node10</title>
<g id="a_edge39_Node000026_Node000010"><a xlink:title=" ">
<path fill="none" stroke="#63b8ff" d="M500.11,-175.95C510.8,-167.65 526.61,-154.24 537.5,-140 550.82,-122.57 561.66,-99.75 568.3,-83.99"/>
<polygon fill="#63b8ff" stroke="#63b8ff" points="571.69,-84.93 572.21,-74.35 565.21,-82.3 571.69,-84.93"/>
</a>
</g>
</g>
<!-- Node26&#45;&gt;Node15 -->
<g id="edge37_Node000026_Node000015" class="edge">
<title>Node26&#45;&gt;Node15</title>
<g id="a_edge37_Node000026_Node000015"><a xlink:title=" ">
<path fill="none" stroke="#63b8ff" d="M477.96,-175.71C467.75,-167.02 452.02,-153.15 439.5,-140 405.74,-104.57 411.24,-80.55 369.5,-55 366.05,-52.89 267.39,-31.7 209.25,-19.34"/>
<polygon fill="#63b8ff" stroke="#63b8ff" points="209.76,-15.87 199.25,-17.22 208.3,-22.72 209.76,-15.87"/>
</a>
</g>
</g>
<!-- Node26&#45;&gt;Node22 -->
<g id="edge40_Node000026_Node000022" class="edge">
<title>Node26&#45;&gt;Node22</title>
<g id="a_edge40_Node000026_Node000022"><a xlink:title=" ">
<path fill="none" stroke="#63b8ff" d="M466.11,-175.99C439.88,-166.03 396.22,-149.45 366.44,-138.13"/>
<polygon fill="#63b8ff" stroke="#63b8ff" points="367.51,-134.8 356.92,-134.52 365.03,-141.34 367.51,-134.8"/>
</a>
</g>
</g>
<!-- Node27 -->
<g id="Node000027" class="node">
<title>Node27</title>
<g id="a_Node000027"><a xlink:title=" ">
<polygon fill="#e0e0e0" stroke="#999999" points="528.5,-134.5 448.5,-134.5 448.5,-115.5 528.5,-115.5 528.5,-134.5"/>
<text text-anchor="middle" x="488.5" y="-122.5" font-family="Helvetica,sans-Serif" font-size="10.00">semaphore.h</text>
</a>
</g>
</g>
<!-- Node26&#45;&gt;Node27 -->
<g id="edge38_Node000026_Node000027" class="edge">
<title>Node26&#45;&gt;Node27</title>
<g id="a_edge38_Node000026_Node000027"><a xlink:title=" ">
<path fill="none" stroke="#63b8ff" d="M488.5,-175.87C488.5,-167.75 488.5,-155.31 488.5,-144.89"/>
<polygon fill="#63b8ff" stroke="#63b8ff" points="492,-144.67 488.5,-134.67 485,-144.67 492,-144.67"/>
</a>
</g>
</g>
<!-- Node29&#45;&gt;Node10 -->
<g id="edge44_Node000029_Node000010" class="edge">
<title>Node29&#45;&gt;Node10</title>
<g id="a_edge44_Node000029_Node000010"><a xlink:title=" ">
<path fill="none" stroke="#63b8ff" d="M682.23,-175.94C663.18,-156.23 615.93,-107.34 591.19,-81.73"/>
<polygon fill="#63b8ff" stroke="#63b8ff" points="593.47,-79.06 584.01,-74.3 588.44,-83.92 593.47,-79.06"/>
</a>
</g>
</g>
<!-- Node29&#45;&gt;Node28 -->
<g id="edge45_Node000029_Node000028" class="edge">
<title>Node29&#45;&gt;Node28</title>
<g id="a_edge45_Node000029_Node000028"><a xlink:title=" ">
<path fill="none" stroke="#63b8ff" d="M697.73,-175.87C703.89,-168.52 713,-157.63 721.15,-147.91"/>
<polygon fill="#63b8ff" stroke="#63b8ff" points="723.94,-150.03 727.68,-140.11 718.57,-145.53 723.94,-150.03"/>
</a>
</g>
</g>
</g>
</svg>

<g id="navigator" transform="translate(0 0)" fill="#404254">
  <rect fill="#f2f5e9" fill-opacity="0.5" stroke="#606060" stroke-width=".5" x="0" y="0" width="60" height="60"/>
  <use id="zoomplus" xlink:href="#zoomPlus" x="17" y="9" onmousedown="handleZoom(evt,'in')"/>
  <use id="zoomminus" xlink:href="#zoomMin" x="42" y="9" onmousedown="handleZoom(evt,'out')"/>
  <use id="reset" xlink:href="#resetDef" x="30" y="36" onmousedown="handleReset()"/>
   <use id="arrowup" xlink:href="#arrowUp" x="0" y="0" onmousedown="handlePan(0,-1)"/>
  <use id="arrowright" xlink:href="#arrowRight" x="0" y="0" onmousedown="handlePan(1,0)"/>
  <use id="arrowdown" xlink:href="#arrowDown" x="0" y="0" onmousedown="handlePan(0,1)"/>
  <use id="arrowleft" xlink:href="#arrowLeft" x="0" y="0" onmousedown="handlePan(-1,0)"/>
</g>
<svg viewBox="0 0 15 15" width="100%" height="30px" preserveAspectRatio="xMaxYMin meet">
 <g id="arrow_out" transform="scale(0.3 0.3)">
  <a xlink:href="TestDataGenerator_8c__incl_org.svg" target="_base">
   <rect id="button" ry="5" rx="5" y="6" x="6" height="38" width="38"
        fill="#f2f5e9" fill-opacity="0.5" stroke="#606060" stroke-width="1.0"/>
   <path id="arrow"
     d="M 11.500037,31.436501 C 11.940474,20.09759 22.043105,11.32322 32.158766,21.979434 L 37.068811,17.246167 C 37.068811,17.246167 37.088388,32 37.088388,32 L 22.160133,31.978069 C 22.160133,31.978069 26.997745,27.140456 26.997745,27.140456 C 18.528582,18.264221 13.291696,25.230495 11.500037,31.436501 z"
     style="fill:#404040;"/>
  </a>
 </g>
</svg>

<style type='text/css'>
<![CDATA[
[data-mouse-over-selected='false'] { opacity: 0.7; }
[data-mouse-over-selected='true']  { opacity: 1.0; }
]]>
</style>
<script type="application/ecmascript"><![CDATA[
document.addEventListener('DOMContentLoaded', (event) => {
  highlightEdges();
  highlightAdjacentNodes();
});
]]></script>
</svg>
