<?xml version="1.0" encoding="UTF-8" standalone="no"?>
<!DOCTYPE svg PUBLIC "-//W3C//DTD SVG 1.1//EN"
 "http://www.w3.org/Graphics/SVG/1.1/DTD/svg11.dtd">
<!-- Generated by graphviz version 2.43.0 (0)
 -->
<!-- Title: src/DevUtils/TestDataGenerator.c Pages: 1 -->
<svg width="1260pt" height="263pt"
 viewBox="0.00 0.00 1260.00 263.00" xmlns="http://www.w3.org/2000/svg" xmlns:xlink="http://www.w3.org/1999/xlink">
<g id="graph0" class="graph" transform="scale(1 1) rotate(0) translate(4 259)">
<title>src/DevUtils/TestDataGenerator.c</title>
<polygon fill="white" stroke="transparent" points="-4,4 -4,-259 1256,-259 1256,4 -4,4"/>
<!-- Node1 -->
<g id="node1" class="node">
<title>Node1</title>
<g id="a_node1"><a xlink:title=" ">
<polygon fill="#bfbfbf" stroke="black" points="745.5,-235.5 745.5,-254.5 923.5,-254.5 923.5,-235.5 745.5,-235.5"/>
<text text-anchor="middle" x="834.5" y="-242.5" font-family="Helvetica,sans-Serif" font-size="10.00">src/DevUtils/TestDataGenerator.c</text>
</a>
</g>
</g>
<!-- Node2 -->
<g id="node2" class="node">
<title>Node2</title>
<g id="a_node2"><a xlink:title=" ">
<polygon fill="white" stroke="#bfbfbf" points="0,-0.5 0,-19.5 51,-19.5 51,-0.5 0,-0.5"/>
<text text-anchor="middle" x="25.5" y="-7.5" font-family="Helvetica,sans-Serif" font-size="10.00">errno.h</text>
</a>
</g>
</g>
<!-- Node1&#45;&gt;Node2 -->
<g id="edge1" class="edge">
<title>Node1&#45;&gt;Node2</title>
<path fill="none" stroke="midnightblue" d="M745.32,-244.12C585.64,-243.36 257.6,-237.03 150.5,-199 109.94,-184.6 97.37,-177.4 71.5,-143 45.21,-108.04 33.14,-56.87 28.29,-29.65"/>
<polygon fill="midnightblue" stroke="midnightblue" points="31.71,-28.87 26.64,-19.57 24.8,-30 31.71,-28.87"/>
</g>
<!-- Node3 -->
<g id="node3" class="node">
<title>Node3</title>
<g id="a_node3"><a xlink:title=" ">
<polygon fill="white" stroke="#bfbfbf" points="724,-0.5 724,-19.5 771,-19.5 771,-0.5 724,-0.5"/>
<text text-anchor="middle" x="747.5" y="-7.5" font-family="Helvetica,sans-Serif" font-size="10.00">fcntl.h</text>
</a>
</g>
</g>
<!-- Node1&#45;&gt;Node3 -->
<g id="edge2" class="edge">
<title>Node1&#45;&gt;Node3</title>
<path fill="none" stroke="midnightblue" d="M833.95,-235.37C832.34,-213.85 826.66,-156.38 809.5,-112 797.14,-80.03 774.61,-46.89 760.38,-27.65"/>
<polygon fill="midnightblue" stroke="midnightblue" points="763.13,-25.49 754.32,-19.61 757.54,-29.7 763.13,-25.49"/>
</g>
<!-- Node4 -->
<g id="node4" class="node">
<title>Node4</title>
<g id="a_node4"><a xlink:title=" ">
<polygon fill="white" stroke="#bfbfbf" points="789.5,-0.5 789.5,-19.5 839.5,-19.5 839.5,-0.5 789.5,-0.5"/>
<text text-anchor="middle" x="814.5" y="-7.5" font-family="Helvetica,sans-Serif" font-size="10.00">stdio.h</text>
</a>
</g>
</g>
<!-- Node1&#45;&gt;Node4 -->
<g id="edge3" class="edge">
<title>Node1&#45;&gt;Node4</title>
<path fill="none" stroke="midnightblue" d="M838.1,-235.22C841.56,-226.28 846.53,-211.94 848.5,-199 858.05,-136.17 868.7,-116.26 848.5,-56 844.9,-45.25 837.6,-35.02 830.68,-27.04"/>
<polygon fill="midnightblue" stroke="midnightblue" points="833.15,-24.56 823.79,-19.61 828.02,-29.32 833.15,-24.56"/>
</g>
<!-- Node5 -->
<g id="node5" class="node">
<title>Node5</title>
<g id="a_node5"><a xlink:title=" ">
<polygon fill="white" stroke="#bfbfbf" points="858,-0.5 858,-19.5 911,-19.5 911,-0.5 858,-0.5"/>
<text text-anchor="middle" x="884.5" y="-7.5" font-family="Helvetica,sans-Serif" font-size="10.00">stdlib.h</text>
</a>
</g>
</g>
<!-- Node1&#45;&gt;Node5 -->
<g id="edge4" class="edge">
<title>Node1&#45;&gt;Node5</title>
<path fill="none" stroke="midnightblue" d="M841.69,-235.29C848.43,-226.64 858.25,-212.71 863.5,-199 885.99,-140.31 886.59,-64.31 885.46,-29.68"/>
<polygon fill="midnightblue" stroke="midnightblue" points="888.95,-29.45 885.04,-19.6 881.96,-29.74 888.95,-29.45"/>
</g>
<!-- Node6 -->
<g id="node6" class="node">
<title>Node6</title>
<g id="a_node6"><a xlink:title=" ">
<polygon fill="white" stroke="#bfbfbf" points="929,-0.5 929,-19.5 982,-19.5 982,-0.5 929,-0.5"/>
<text text-anchor="middle" x="955.5" y="-7.5" font-family="Helvetica,sans-Serif" font-size="10.00">string.h</text>
</a>
</g>
</g>
<!-- Node1&#45;&gt;Node6 -->
<g id="edge5" class="edge">
<title>Node1&#45;&gt;Node6</title>
<path fill="none" stroke="midnightblue" d="M845.65,-235.4C855.87,-227.04 870.83,-213.5 880.5,-199 917.96,-142.8 941.45,-65.02 950.83,-29.74"/>
<polygon fill="midnightblue" stroke="midnightblue" points="954.27,-30.42 953.38,-19.86 947.49,-28.67 954.27,-30.42"/>
</g>
<!-- Node7 -->
<g id="node7" class="node">
<title>Node7</title>
<g id="a_node7"><a xlink:title=" ">
<polygon fill="white" stroke="#bfbfbf" points="1000,-0.5 1000,-19.5 1077,-19.5 1077,-0.5 1000,-0.5"/>
<text text-anchor="middle" x="1038.5" y="-7.5" font-family="Helvetica,sans-Serif" font-size="10.00">sys/mman.h</text>
</a>
</g>
</g>
<!-- Node1&#45;&gt;Node7 -->
<g id="edge6" class="edge">
<title>Node1&#45;&gt;Node7</title>
<path fill="none" stroke="midnightblue" d="M849.74,-235.43C863.62,-227.18 884.22,-213.81 899.5,-199 929.11,-170.3 999.27,-68.74 1026.97,-28.05"/>
<polygon fill="midnightblue" stroke="midnightblue" points="1029.91,-29.95 1032.63,-19.71 1024.12,-26.02 1029.91,-29.95"/>
</g>
<!-- Node8 -->
<g id="node8" class="node">
<title>Node8</title>
<g id="a_node8"><a xlink:title=" ">
<polygon fill="white" stroke="#bfbfbf" points="1095.5,-0.5 1095.5,-19.5 1159.5,-19.5 1159.5,-0.5 1095.5,-0.5"/>
<text text-anchor="middle" x="1127.5" y="-7.5" font-family="Helvetica,sans-Serif" font-size="10.00">sys/stat.h</text>
</a>
</g>
</g>
<!-- Node1&#45;&gt;Node8 -->
<g id="edge7" class="edge">
<title>Node1&#45;&gt;Node8</title>
<path fill="none" stroke="midnightblue" d="M856.17,-235.45C874.6,-227.59 901.23,-214.76 921.5,-199 988.6,-146.82 982.47,-109.53 1048.5,-56 1064.04,-43.41 1083.55,-32.26 1099.29,-24.2"/>
<polygon fill="midnightblue" stroke="midnightblue" points="1101.14,-27.19 1108.54,-19.61 1098.02,-20.92 1101.14,-27.19"/>
</g>
<!-- Node9 -->
<g id="node9" class="node">
<title>Node9</title>
<g id="a_node9"><a xlink:title=" ">
<polygon fill="white" stroke="#bfbfbf" points="1177.5,-0.5 1177.5,-19.5 1233.5,-19.5 1233.5,-0.5 1177.5,-0.5"/>
<text text-anchor="middle" x="1205.5" y="-7.5" font-family="Helvetica,sans-Serif" font-size="10.00">unistd.h</text>
</a>
</g>
</g>
<!-- Node1&#45;&gt;Node9 -->
<g id="edge8" class="edge">
<title>Node1&#45;&gt;Node9</title>
<path fill="none" stroke="midnightblue" d="M860.43,-235.49C883.45,-227.47 917.67,-214.41 945.5,-199 1042.86,-145.1 1146.61,-60.83 1187.48,-26.42"/>
<polygon fill="midnightblue" stroke="midnightblue" points="1189.85,-28.99 1195.22,-19.86 1185.33,-23.65 1189.85,-28.99"/>
</g>
<!-- Node10 -->
<g id="node10" class="node">
<title>Node10</title>
<g id="a_node10"><a xlink:href="Sdb_8h.html" target="_top" xlink:title=" ">
<polygon fill="white" stroke="black" points="545,-56.5 545,-75.5 606,-75.5 606,-56.5 545,-56.5"/>
<text text-anchor="middle" x="575.5" y="-63.5" font-family="Helvetica,sans-Serif" font-size="10.00">src/Sdb.h</text>
</a>
</g>
</g>
<!-- Node1&#45;&gt;Node10 -->
<g id="edge9" class="edge">
<title>Node1&#45;&gt;Node10</title>
<path fill="none" stroke="midnightblue" d="M745.32,-236.73C689.16,-230.3 623.6,-218.77 603.5,-199 572.97,-168.97 571.76,-114.52 573.57,-85.83"/>
<polygon fill="midnightblue" stroke="midnightblue" points="577.08,-85.83 574.42,-75.58 570.11,-85.25 577.08,-85.83"/>
</g>
<!-- Node20 -->
<g id="node20" class="node">
<title>Node20</title>
<g id="a_node20"><a xlink:title=" ">
<polygon fill="white" stroke="#bfbfbf" points="1091,-179.5 1091,-198.5 1252,-198.5 1252,-179.5 1091,-179.5"/>
<text text-anchor="middle" x="1171.5" y="-186.5" font-family="Helvetica,sans-Serif" font-size="10.00">src/CommProtocols/Modbus.h</text>
</a>
</g>
</g>
<!-- Node1&#45;&gt;Node20 -->
<g id="edge27" class="edge">
<title>Node1&#45;&gt;Node20</title>
<path fill="none" stroke="midnightblue" d="M887.9,-235.44C947.8,-225.85 1044.87,-210.29 1108.45,-200.1"/>
<polygon fill="midnightblue" stroke="midnightblue" points="1109.03,-203.55 1118.35,-198.52 1107.92,-196.64 1109.03,-203.55"/>
</g>
<!-- Node21 -->
<g id="node21" class="node">
<title>Node21</title>
<g id="a_node21"><a xlink:href="Socket_8h.html" target="_top" xlink:title="Simplified Socket Communication Utilities.">
<polygon fill="white" stroke="black" points="159.5,-179.5 159.5,-198.5 281.5,-198.5 281.5,-179.5 159.5,-179.5"/>
<text text-anchor="middle" x="220.5" y="-186.5" font-family="Helvetica,sans-Serif" font-size="10.00">src/Common/Socket.h</text>
</a>
</g>
</g>
<!-- Node1&#45;&gt;Node21 -->
<g id="edge28" class="edge">
<title>Node1&#45;&gt;Node21</title>
<path fill="none" stroke="midnightblue" d="M745.22,-236.15C622.5,-225.35 404.14,-206.15 291.73,-196.26"/>
<polygon fill="midnightblue" stroke="midnightblue" points="291.78,-192.76 281.51,-195.37 291.17,-199.73 291.78,-192.76"/>
</g>
<!-- Node22 -->
<g id="node22" class="node">
<title>Node22</title>
<g id="a_node22"><a xlink:href="Time_8h.html" target="_top" xlink:title="Lightweight Time Manipulation Utilities.">
<polygon fill="white" stroke="black" points="277,-118 277,-137 392,-137 392,-118 277,-118"/>
<text text-anchor="middle" x="334.5" y="-125" font-family="Helvetica,sans-Serif" font-size="10.00">src/Common/Time.h</text>
</a>
</g>
</g>
<!-- Node1&#45;&gt;Node22 -->
<g id="edge41" class="edge">
<title>Node1&#45;&gt;Node22</title>
<path fill="none" stroke="midnightblue" d="M745.11,-240.49C640.57,-235.33 474.53,-223.51 417.5,-199 389.39,-186.92 363.66,-161.95 348.53,-145.21"/>
<polygon fill="midnightblue" stroke="midnightblue" points="350.84,-142.54 341.62,-137.31 345.57,-147.15 350.84,-142.54"/>
</g>
<!-- Node26 -->
<g id="node26" class="node">
<title>Node26</title>
<g id="a_node26"><a xlink:href="Thread_8h.html" target="_top" xlink:title="Lightweight Synchronization Primitives Wrapper.">
<polygon fill="white" stroke="black" points="426.5,-179.5 426.5,-198.5 550.5,-198.5 550.5,-179.5 426.5,-179.5"/>
<text text-anchor="middle" x="488.5" y="-186.5" font-family="Helvetica,sans-Serif" font-size="10.00">src/Common/Thread.h</text>
</a>
</g>
</g>
<!-- Node1&#45;&gt;Node26 -->
<g id="edge36" class="edge">
<title>Node1&#45;&gt;Node26</title>
<path fill="none" stroke="midnightblue" d="M779.68,-235.44C718.18,-225.85 618.52,-210.29 553.24,-200.1"/>
<polygon fill="midnightblue" stroke="midnightblue" points="553.49,-196.6 543.07,-198.52 552.41,-203.52 553.49,-196.6"/>
</g>
<!-- Node28 -->
<g id="node28" class="node">
<title>Node28</title>
<g id="a_node28"><a xlink:title=" ">
<polygon fill="white" stroke="#bfbfbf" points="678.5,-112.5 678.5,-142.5 800.5,-142.5 800.5,-112.5 678.5,-112.5"/>
<text text-anchor="start" x="686.5" y="-130.5" font-family="Helvetica,sans-Serif" font-size="10.00">src/DatabaseSystems</text>
<text text-anchor="middle" x="739.5" y="-119.5" font-family="Helvetica,sans-Serif" font-size="10.00">/Postgres.h</text>
</a>
</g>
</g>
<!-- Node1&#45;&gt;Node28 -->
<g id="edge42" class="edge">
<title>Node1&#45;&gt;Node28</title>
<path fill="none" stroke="midnightblue" d="M827.36,-235.32C812.64,-217.42 778.54,-175.97 757.41,-150.28"/>
<polygon fill="midnightblue" stroke="midnightblue" points="760.11,-148.05 751.05,-142.55 754.7,-152.49 760.11,-148.05"/>
</g>
<!-- Node29 -->
<g id="node29" class="node">
<title>Node29</title>
<g id="a_node29"><a xlink:href="TestConstants_8h.html" target="_top" xlink:title="Constants for Modbus Test Server.">
<polygon fill="white" stroke="black" points="612.5,-179.5 612.5,-198.5 768.5,-198.5 768.5,-179.5 612.5,-179.5"/>
<text text-anchor="middle" x="690.5" y="-186.5" font-family="Helvetica,sans-Serif" font-size="10.00">src/DevUtils/TestConstants.h</text>
</a>
</g>
</g>
<!-- Node1&#45;&gt;Node29 -->
<g id="edge43" class="edge">
<title>Node1&#45;&gt;Node29</title>
<path fill="none" stroke="midnightblue" d="M811.68,-235.44C787.67,-226.44 749.67,-212.19 722.63,-202.05"/>
<polygon fill="midnightblue" stroke="midnightblue" points="723.8,-198.75 713.21,-198.52 721.34,-205.3 723.8,-198.75"/>
</g>
<!-- Node10&#45;&gt;Node2 -->
<g id="edge12" class="edge">
<title>Node10&#45;&gt;Node2</title>
<path fill="none" stroke="midnightblue" d="M544.8,-64.08C466.03,-61.34 250.28,-51.49 61.14,-19.8"/>
<polygon fill="midnightblue" stroke="midnightblue" points="61.45,-16.3 51.01,-18.08 60.28,-23.2 61.45,-16.3"/>
</g>
<!-- Node10&#45;&gt;Node3 -->
<g id="edge13" class="edge">
<title>Node10&#45;&gt;Node3</title>
<path fill="none" stroke="midnightblue" d="M602.75,-56.44C632.93,-46.97 681.58,-31.7 714.04,-21.5"/>
<polygon fill="midnightblue" stroke="midnightblue" points="715.47,-24.72 723.97,-18.39 713.38,-18.04 715.47,-24.72"/>
</g>
<!-- Node10&#45;&gt;Node4 -->
<g id="edge19" class="edge">
<title>Node10&#45;&gt;Node4</title>
<path fill="none" stroke="midnightblue" d="M606.16,-58.7C644.44,-50.73 712.15,-36.34 779.37,-20.2"/>
<polygon fill="midnightblue" stroke="midnightblue" points="780.38,-23.55 789.28,-17.8 778.74,-16.75 780.38,-23.55"/>
</g>
<!-- Node10&#45;&gt;Node5 -->
<g id="edge20" class="edge">
<title>Node10&#45;&gt;Node5</title>
<path fill="none" stroke="midnightblue" d="M606.36,-60.75C655.37,-53.82 754.19,-39.12 847.89,-19.98"/>
<polygon fill="midnightblue" stroke="midnightblue" points="848.73,-23.38 857.82,-17.93 847.32,-16.52 848.73,-23.38"/>
</g>
<!-- Node10&#45;&gt;Node6 -->
<g id="edge21" class="edge">
<title>Node10&#45;&gt;Node6</title>
<path fill="none" stroke="midnightblue" d="M606.16,-62.27C664.99,-56.76 797.91,-42.99 918.67,-20.16"/>
<polygon fill="midnightblue" stroke="midnightblue" points="919.66,-23.54 928.82,-18.22 918.34,-16.66 919.66,-23.54"/>
</g>
<!-- Node10&#45;&gt;Node7 -->
<g id="edge22" class="edge">
<title>Node10&#45;&gt;Node7</title>
<path fill="none" stroke="midnightblue" d="M606.14,-62.55C673.61,-56.96 840.28,-42.15 989.55,-20.19"/>
<polygon fill="midnightblue" stroke="midnightblue" points="990.44,-23.6 999.81,-18.67 989.41,-16.67 990.44,-23.6"/>
</g>
<!-- Node10&#45;&gt;Node8 -->
<g id="edge23" class="edge">
<title>Node10&#45;&gt;Node8</title>
<path fill="none" stroke="midnightblue" d="M606.19,-63.67C684.45,-59.99 897.91,-48.13 1085.31,-19.99"/>
<polygon fill="midnightblue" stroke="midnightblue" points="1085.98,-23.43 1095.34,-18.47 1084.93,-16.51 1085.98,-23.43"/>
</g>
<!-- Node10&#45;&gt;Node9 -->
<g id="edge25" class="edge">
<title>Node10&#45;&gt;Node9</title>
<path fill="none" stroke="midnightblue" d="M606.26,-64.43C693.04,-62.45 947.26,-54.08 1167.2,-19.95"/>
<polygon fill="midnightblue" stroke="midnightblue" points="1167.98,-23.37 1177.31,-18.36 1166.89,-16.45 1167.98,-23.37"/>
</g>
<!-- Node11 -->
<g id="node11" class="node">
<title>Node11</title>
<g id="a_node11"><a xlink:title=" ">
<polygon fill="white" stroke="#bfbfbf" points="217.5,-0.5 217.5,-19.5 273.5,-19.5 273.5,-0.5 217.5,-0.5"/>
<text text-anchor="middle" x="245.5" y="-7.5" font-family="Helvetica,sans-Serif" font-size="10.00">assert.h</text>
</a>
</g>
</g>
<!-- Node10&#45;&gt;Node11 -->
<g id="edge10" class="edge">
<title>Node10&#45;&gt;Node11</title>
<path fill="none" stroke="midnightblue" d="M544.98,-61.19C493.26,-54.56 384.94,-39.83 283.8,-20.12"/>
<polygon fill="midnightblue" stroke="midnightblue" points="284.21,-16.63 273.73,-18.13 282.86,-23.5 284.21,-16.63"/>
</g>
<!-- Node12 -->
<g id="node12" class="node">
<title>Node12</title>
<g id="a_node12"><a xlink:title=" ">
<polygon fill="white" stroke="#bfbfbf" points="292,-0.5 292,-19.5 345,-19.5 345,-0.5 292,-0.5"/>
<text text-anchor="middle" x="318.5" y="-7.5" font-family="Helvetica,sans-Serif" font-size="10.00">ctype.h</text>
</a>
</g>
</g>
<!-- Node10&#45;&gt;Node12 -->
<g id="edge11" class="edge">
<title>Node10&#45;&gt;Node12</title>
<path fill="none" stroke="midnightblue" d="M544.87,-59.31C503.79,-51.57 428.37,-36.96 355.07,-20.28"/>
<polygon fill="midnightblue" stroke="midnightblue" points="355.75,-16.84 345.22,-18.02 354.18,-23.67 355.75,-16.84"/>
</g>
<!-- Node13 -->
<g id="node13" class="node">
<title>Node13</title>
<g id="a_node13"><a xlink:title=" ">
<polygon fill="white" stroke="#bfbfbf" points="363,-0.5 363,-19.5 410,-19.5 410,-0.5 363,-0.5"/>
<text text-anchor="middle" x="386.5" y="-7.5" font-family="Helvetica,sans-Serif" font-size="10.00">float.h</text>
</a>
</g>
</g>
<!-- Node10&#45;&gt;Node13 -->
<g id="edge14" class="edge">
<title>Node10&#45;&gt;Node13</title>
<path fill="none" stroke="midnightblue" d="M545.55,-56.44C511.35,-46.67 455.55,-30.73 419.95,-20.56"/>
<polygon fill="midnightblue" stroke="midnightblue" points="420.61,-17.11 410.04,-17.73 418.69,-23.84 420.61,-17.11"/>
</g>
<!-- Node14 -->
<g id="node14" class="node">
<title>Node14</title>
<g id="a_node14"><a xlink:title=" ">
<polygon fill="white" stroke="#bfbfbf" points="428,-0.5 428,-19.5 479,-19.5 479,-0.5 428,-0.5"/>
<text text-anchor="middle" x="453.5" y="-7.5" font-family="Helvetica,sans-Serif" font-size="10.00">math.h</text>
</a>
</g>
</g>
<!-- Node10&#45;&gt;Node14 -->
<g id="edge15" class="edge">
<title>Node10&#45;&gt;Node14</title>
<path fill="none" stroke="midnightblue" d="M556.17,-56.44C536.18,-47.6 504.76,-33.69 481.94,-23.59"/>
<polygon fill="midnightblue" stroke="midnightblue" points="483.3,-20.36 472.74,-19.52 480.47,-26.76 483.3,-20.36"/>
</g>
<!-- Node15 -->
<g id="node15" class="node">
<title>Node15</title>
<g id="a_node15"><a xlink:title=" ">
<polygon fill="white" stroke="#bfbfbf" points="136,-0.5 136,-19.5 199,-19.5 199,-0.5 136,-0.5"/>
<text text-anchor="middle" x="167.5" y="-7.5" font-family="Helvetica,sans-Serif" font-size="10.00">pthread.h</text>
</a>
</g>
</g>
<!-- Node10&#45;&gt;Node15 -->
<g id="edge16" class="edge">
<title>Node10&#45;&gt;Node15</title>
<path fill="none" stroke="midnightblue" d="M544.91,-62.23C483.37,-56.45 340.05,-41.93 209.41,-20"/>
<polygon fill="midnightblue" stroke="midnightblue" points="209.67,-16.5 199.23,-18.27 208.5,-23.4 209.67,-16.5"/>
</g>
<!-- Node16 -->
<g id="node16" class="node">
<title>Node16</title>
<g id="a_node16"><a xlink:title=" ">
<polygon fill="white" stroke="#bfbfbf" points="497.5,-0.5 497.5,-19.5 553.5,-19.5 553.5,-0.5 497.5,-0.5"/>
<text text-anchor="middle" x="525.5" y="-7.5" font-family="Helvetica,sans-Serif" font-size="10.00">stdarg.h</text>
</a>
</g>
</g>
<!-- Node10&#45;&gt;Node16 -->
<g id="edge17" class="edge">
<title>Node10&#45;&gt;Node16</title>
<path fill="none" stroke="midnightblue" d="M567.24,-56.08C560.04,-48.3 549.39,-36.8 540.65,-27.37"/>
<polygon fill="midnightblue" stroke="midnightblue" points="542.97,-24.71 533.6,-19.75 537.83,-29.47 542.97,-24.71"/>
</g>
<!-- Node17 -->
<g id="node17" class="node">
<title>Node17</title>
<g id="a_node17"><a xlink:title=" ">
<polygon fill="white" stroke="#bfbfbf" points="572,-0.5 572,-19.5 625,-19.5 625,-0.5 572,-0.5"/>
<text text-anchor="middle" x="598.5" y="-7.5" font-family="Helvetica,sans-Serif" font-size="10.00">stdint.h</text>
</a>
</g>
</g>
<!-- Node10&#45;&gt;Node17 -->
<g id="edge18" class="edge">
<title>Node10&#45;&gt;Node17</title>
<path fill="none" stroke="midnightblue" d="M579.3,-56.08C582.41,-48.77 586.92,-38.18 590.79,-29.1"/>
<polygon fill="midnightblue" stroke="midnightblue" points="594.07,-30.32 594.77,-19.75 587.63,-27.58 594.07,-30.32"/>
</g>
<!-- Node18 -->
<g id="node18" class="node">
<title>Node18</title>
<g id="a_node18"><a xlink:title=" ">
<polygon fill="white" stroke="#bfbfbf" points="69.5,-0.5 69.5,-19.5 117.5,-19.5 117.5,-0.5 69.5,-0.5"/>
<text text-anchor="middle" x="93.5" y="-7.5" font-family="Helvetica,sans-Serif" font-size="10.00">time.h</text>
</a>
</g>
</g>
<!-- Node10&#45;&gt;Node18 -->
<g id="edge24" class="edge">
<title>Node10&#45;&gt;Node18</title>
<path fill="none" stroke="midnightblue" d="M544.76,-63.68C473.2,-60.24 289.83,-49.27 127.7,-19.92"/>
<polygon fill="midnightblue" stroke="midnightblue" points="128.01,-16.42 117.54,-18.05 126.75,-23.31 128.01,-16.42"/>
</g>
<!-- Node19 -->
<g id="node19" class="node">
<title>Node19</title>
<g id="a_node19"><a xlink:title=" ">
<polygon fill="white" stroke="#bfbfbf" points="643.5,-0.5 643.5,-19.5 705.5,-19.5 705.5,-0.5 643.5,-0.5"/>
<text text-anchor="middle" x="674.5" y="-7.5" font-family="Helvetica,sans-Serif" font-size="10.00">stdbool.h</text>
</a>
</g>
</g>
<!-- Node10&#45;&gt;Node19 -->
<g id="edge26" class="edge">
<title>Node10&#45;&gt;Node19</title>
<path fill="none" stroke="midnightblue" d="M591.41,-56.32C607.14,-47.74 631.44,-34.49 649.71,-24.52"/>
<polygon fill="midnightblue" stroke="midnightblue" points="651.53,-27.52 658.63,-19.65 648.18,-21.37 651.53,-27.52"/>
</g>
<!-- Node21&#45;&gt;Node10 -->
<g id="edge29" class="edge">
<title>Node21&#45;&gt;Node10</title>
<path fill="none" stroke="midnightblue" d="M172.72,-179.46C121.46,-168.32 51.34,-146.14 82.5,-112 97.69,-95.36 418.8,-75.79 534.45,-69.25"/>
<polygon fill="midnightblue" stroke="midnightblue" points="534.88,-72.73 544.67,-68.68 534.49,-65.74 534.88,-72.73"/>
</g>
<!-- Node21&#45;&gt;Node22 -->
<g id="edge30" class="edge">
<title>Node21&#45;&gt;Node22</title>
<path fill="none" stroke="midnightblue" d="M236.83,-179.48C255.71,-169.62 287.01,-153.29 309.08,-141.77"/>
<polygon fill="midnightblue" stroke="midnightblue" points="310.95,-144.74 318.2,-137.01 307.71,-138.53 310.95,-144.74"/>
</g>
<!-- Node24 -->
<g id="node24" class="node">
<title>Node24</title>
<g id="a_node24"><a xlink:title=" ">
<polygon fill="white" stroke="#bfbfbf" points="182,-118 182,-137 259,-137 259,-118 182,-118"/>
<text text-anchor="middle" x="220.5" y="-125" font-family="Helvetica,sans-Serif" font-size="10.00">sys/socket.h</text>
</a>
</g>
</g>
<!-- Node21&#45;&gt;Node24 -->
<g id="edge34" class="edge">
<title>Node21&#45;&gt;Node24</title>
<path fill="none" stroke="midnightblue" d="M220.5,-179.48C220.5,-171.08 220.5,-157.98 220.5,-147.16"/>
<polygon fill="midnightblue" stroke="midnightblue" points="224,-147.01 220.5,-137.01 217,-147.01 224,-147.01"/>
</g>
<!-- Node25 -->
<g id="node25" class="node">
<title>Node25</title>
<g id="a_node25"><a xlink:title=" ">
<polygon fill="white" stroke="#bfbfbf" points="91.5,-118 91.5,-137 163.5,-137 163.5,-118 91.5,-118"/>
<text text-anchor="middle" x="127.5" y="-125" font-family="Helvetica,sans-Serif" font-size="10.00">sys/types.h</text>
</a>
</g>
</g>
<!-- Node21&#45;&gt;Node25 -->
<g id="edge35" class="edge">
<title>Node21&#45;&gt;Node25</title>
<path fill="none" stroke="midnightblue" d="M207.18,-179.48C192.12,-169.84 167.38,-154.02 149.46,-142.55"/>
<polygon fill="midnightblue" stroke="midnightblue" points="151.11,-139.45 140.8,-137.01 147.34,-145.35 151.11,-139.45"/>
</g>
<!-- Node22&#45;&gt;Node10 -->
<g id="edge33" class="edge">
<title>Node22&#45;&gt;Node10</title>
<path fill="none" stroke="midnightblue" d="M369.03,-117.98C412.92,-107.14 488.58,-88.46 535.1,-76.97"/>
<polygon fill="midnightblue" stroke="midnightblue" points="535.98,-80.36 544.85,-74.57 534.3,-73.57 535.98,-80.36"/>
</g>
<!-- Node22&#45;&gt;Node18 -->
<g id="edge32" class="edge">
<title>Node22&#45;&gt;Node18</title>
<path fill="none" stroke="midnightblue" d="M316.39,-117.82C274.41,-97.7 170.3,-47.81 120.66,-24.02"/>
<polygon fill="midnightblue" stroke="midnightblue" points="122.03,-20.79 111.5,-19.62 119,-27.1 122.03,-20.79"/>
</g>
<!-- Node23 -->
<g id="node23" class="node">
<title>Node23</title>
<g id="a_node23"><a xlink:title=" ">
<polygon fill="white" stroke="#bfbfbf" points="308,-56.5 308,-75.5 361,-75.5 361,-56.5 308,-56.5"/>
<text text-anchor="middle" x="334.5" y="-63.5" font-family="Helvetica,sans-Serif" font-size="10.00">limits.h</text>
</a>
</g>
</g>
<!-- Node22&#45;&gt;Node23 -->
<g id="edge31" class="edge">
<title>Node22&#45;&gt;Node23</title>
<path fill="none" stroke="midnightblue" d="M334.5,-117.98C334.5,-109.58 334.5,-96.48 334.5,-85.66"/>
<polygon fill="midnightblue" stroke="midnightblue" points="338,-85.51 334.5,-75.51 331,-85.51 338,-85.51"/>
</g>
<!-- Node26&#45;&gt;Node10 -->
<g id="edge39" class="edge">
<title>Node26&#45;&gt;Node10</title>
<path fill="none" stroke="midnightblue" d="M500.13,-179.35C510.83,-170.95 526.66,-157.39 537.5,-143 551.19,-124.83 562.18,-100.97 568.75,-84.87"/>
<polygon fill="midnightblue" stroke="midnightblue" points="572.01,-86.14 572.41,-75.55 565.5,-83.58 572.01,-86.14"/>
</g>
<!-- Node26&#45;&gt;Node15 -->
<g id="edge37" class="edge">
<title>Node26&#45;&gt;Node15</title>
<path fill="none" stroke="midnightblue" d="M478.33,-179.45C468.12,-170.69 452.13,-156.49 439.5,-143 405.57,-106.78 411.65,-82.2 369.5,-56 368.64,-55.46 267.99,-33.18 209.11,-20.18"/>
<polygon fill="midnightblue" stroke="midnightblue" points="209.85,-16.76 199.33,-18.02 208.34,-23.6 209.85,-16.76"/>
</g>
<!-- Node26&#45;&gt;Node22 -->
<g id="edge40" class="edge">
<title>Node26&#45;&gt;Node22</title>
<path fill="none" stroke="midnightblue" d="M466.44,-179.48C440.13,-169.31 395.99,-152.26 366.08,-140.7"/>
<polygon fill="midnightblue" stroke="midnightblue" points="367.11,-137.35 356.52,-137.01 364.59,-143.88 367.11,-137.35"/>
</g>
<!-- Node27 -->
<g id="node27" class="node">
<title>Node27</title>
<g id="a_node27"><a xlink:title=" ">
<polygon fill="white" stroke="#bfbfbf" points="448.5,-118 448.5,-137 528.5,-137 528.5,-118 448.5,-118"/>
<text text-anchor="middle" x="488.5" y="-125" font-family="Helvetica,sans-Serif" font-size="10.00">semaphore.h</text>
</a>
</g>
</g>
<!-- Node26&#45;&gt;Node27 -->
<g id="edge38" class="edge">
<title>Node26&#45;&gt;Node27</title>
<path fill="none" stroke="midnightblue" d="M488.5,-179.48C488.5,-171.08 488.5,-157.98 488.5,-147.16"/>
<polygon fill="midnightblue" stroke="midnightblue" points="492,-147.01 488.5,-137.01 485,-147.01 492,-147.01"/>
</g>
<!-- Node29&#45;&gt;Node10 -->
<g id="edge44" class="edge">
<title>Node29&#45;&gt;Node10</title>
<path fill="none" stroke="midnightblue" d="M682.23,-179.3C663.08,-159.15 615.47,-109.06 590.83,-83.12"/>
<polygon fill="midnightblue" stroke="midnightblue" points="593.12,-80.46 583.7,-75.62 588.05,-85.28 593.12,-80.46"/>
</g>
<!-- Node29&#45;&gt;Node28 -->
<g id="edge45" class="edge">
<title>Node29&#45;&gt;Node28</title>
<path fill="none" stroke="midnightblue" d="M697.52,-179.48C703.78,-171.87 713.23,-160.4 721.58,-150.26"/>
<polygon fill="midnightblue" stroke="midnightblue" points="724.3,-152.47 727.95,-142.52 718.89,-148.02 724.3,-152.47"/>
</g>
</g>
</svg>
