<?xml version="1.0" encoding="UTF-8" standalone="no"?>
<!DOCTYPE svg PUBLIC "-//W3C//DTD SVG 1.1//EN"
 "http://www.w3.org/Graphics/SVG/1.1/DTD/svg11.dtd">
<!-- Generated by graphviz version 2.43.0 (0)
 -->
<!-- Title: src/DevUtils/TestConstants.h Pages: 1 -->
<svg width="1239pt" height="148pt"
 viewBox="0.00 0.00 1239.00 148.00" xmlns="http://www.w3.org/2000/svg" xmlns:xlink="http://www.w3.org/1999/xlink">
<g id="graph0" class="graph" transform="scale(1 1) rotate(0) translate(4 144)">
<title>src/DevUtils/TestConstants.h</title>
<!-- Node1 -->
<g id="Node000001" class="node">
<title>Node1</title>
<g id="a_Node000001"><a xlink:title="Constants for Modbus Test Server.">
<polygon fill="#999999" stroke="#666666" points="729,-140 573,-140 573,-121 729,-121 729,-140"/>
<text text-anchor="middle" x="651" y="-128" font-family="Helvetica,sans-Serif" font-size="10.00">src/DevUtils/TestConstants.h</text>
</a>
</g>
</g>
<!-- Node2 -->
<g id="Node000002" class="node">
<title>Node2</title>
<g id="a_Node000002"><a xlink:href="Sdb_8h.html" target="_top" xlink:title=" ">
<polygon fill="white" stroke="#666666" points="626.5,-79.5 565.5,-79.5 565.5,-60.5 626.5,-60.5 626.5,-79.5"/>
<text text-anchor="middle" x="596" y="-67.5" font-family="Helvetica,sans-Serif" font-size="10.00">src/Sdb.h</text>
</a>
</g>
</g>
<!-- Node1&#45;&gt;Node2 -->
<g id="edge1_Node000001_Node000002" class="edge">
<title>Node1&#45;&gt;Node2</title>
<g id="a_edge1_Node000001_Node000002"><a xlink:title=" ">
<path fill="none" stroke="#63b8ff" d="M642.88,-120.87C634.6,-112.05 621.53,-98.16 611.3,-87.27"/>
<polygon fill="#63b8ff" stroke="#63b8ff" points="613.55,-84.56 604.15,-79.67 608.45,-89.35 613.55,-84.56"/>
</a>
</g>
</g>
<!-- Node20 -->
<g id="Node000020" class="node">
<title>Node20</title>
<g id="a_Node000020"><a xlink:title=" ">
<polygon fill="#e0e0e0" stroke="#999999" points="767,-85 645,-85 645,-55 767,-55 767,-85"/>
<text text-anchor="start" x="653" y="-73" font-family="Helvetica,sans-Serif" font-size="10.00">src/DatabaseSystems</text>
<text text-anchor="middle" x="706" y="-62" font-family="Helvetica,sans-Serif" font-size="10.00">/Postgres.h</text>
</a>
</g>
</g>
<!-- Node1&#45;&gt;Node20 -->
<g id="edge19_Node000001_Node000020" class="edge">
<title>Node1&#45;&gt;Node20</title>
<g id="a_edge19_Node000001_Node000020"><a xlink:title=" ">
<path fill="none" stroke="#63b8ff" d="M659.12,-120.87C666.09,-113.44 676.46,-102.42 685.68,-92.62"/>
<polygon fill="#63b8ff" stroke="#63b8ff" points="688.43,-94.8 692.73,-85.11 683.33,-90 688.43,-94.8"/>
</a>
</g>
</g>
<!-- Node3 -->
<g id="Node000003" class="node">
<title>Node3</title>
<g id="a_Node000003"><a xlink:title=" ">
<polygon fill="#e0e0e0" stroke="#999999" points="56,-19 0,-19 0,0 56,0 56,-19"/>
<text text-anchor="middle" x="28" y="-7" font-family="Helvetica,sans-Serif" font-size="10.00">assert.h</text>
</a>
</g>
</g>
<!-- Node2&#45;&gt;Node3 -->
<g id="edge2_Node000002_Node000003" class="edge">
<title>Node2&#45;&gt;Node3</title>
<g id="a_edge2_Node000002_Node000003"><a xlink:title=" ">
<path fill="none" stroke="#63b8ff" d="M565.29,-67.53C484.9,-63.38 261.58,-49.91 66.36,-19.01"/>
<polygon fill="#63b8ff" stroke="#63b8ff" points="66.63,-15.51 56.21,-17.38 65.53,-22.42 66.63,-15.51"/>
</a>
</g>
</g>
<!-- Node4 -->
<g id="Node000004" class="node">
<title>Node4</title>
<g id="a_Node000004"><a xlink:title=" ">
<polygon fill="#e0e0e0" stroke="#999999" points="127.5,-19 74.5,-19 74.5,0 127.5,0 127.5,-19"/>
<text text-anchor="middle" x="101" y="-7" font-family="Helvetica,sans-Serif" font-size="10.00">ctype.h</text>
</a>
</g>
</g>
<!-- Node2&#45;&gt;Node4 -->
<g id="edge3_Node000002_Node000004" class="edge">
<title>Node2&#45;&gt;Node4</title>
<g id="a_edge3_Node000002_Node000004"><a xlink:title=" ">
<path fill="none" stroke="#63b8ff" d="M565.4,-67.05C492.73,-62.14 304,-47.66 137.59,-19.08"/>
<polygon fill="#63b8ff" stroke="#63b8ff" points="138.13,-15.62 127.68,-17.36 136.93,-22.52 138.13,-15.62"/>
</a>
</g>
</g>
<!-- Node5 -->
<g id="Node000005" class="node">
<title>Node5</title>
<g id="a_Node000005"><a xlink:title=" ">
<polygon fill="#e0e0e0" stroke="#999999" points="196.5,-19 145.5,-19 145.5,0 196.5,0 196.5,-19"/>
<text text-anchor="middle" x="171" y="-7" font-family="Helvetica,sans-Serif" font-size="10.00">errno.h</text>
</a>
</g>
</g>
<!-- Node2&#45;&gt;Node5 -->
<g id="edge4_Node000002_Node000005" class="edge">
<title>Node2&#45;&gt;Node5</title>
<g id="a_edge4_Node000002_Node000005"><a xlink:title=" ">
<path fill="none" stroke="#63b8ff" d="M565.39,-66.32C500.79,-60.41 345.66,-44.82 206.54,-19.1"/>
<polygon fill="#63b8ff" stroke="#63b8ff" points="207.02,-15.63 196.55,-17.23 205.73,-22.51 207.02,-15.63"/>
</a>
</g>
</g>
<!-- Node6 -->
<g id="Node000006" class="node">
<title>Node6</title>
<g id="a_Node000006"><a xlink:title=" ">
<polygon fill="#e0e0e0" stroke="#999999" points="261.5,-19 214.5,-19 214.5,0 261.5,0 261.5,-19"/>
<text text-anchor="middle" x="238" y="-7" font-family="Helvetica,sans-Serif" font-size="10.00">fcntl.h</text>
</a>
</g>
</g>
<!-- Node2&#45;&gt;Node6 -->
<g id="edge5_Node000002_Node000006" class="edge">
<title>Node2&#45;&gt;Node6</title>
<g id="a_edge5_Node000002_Node000006"><a xlink:title=" ">
<path fill="none" stroke="#63b8ff" d="M565.24,-65.4C508.83,-58.56 384.9,-42.43 271.58,-19.15"/>
<polygon fill="#63b8ff" stroke="#63b8ff" points="272.2,-15.71 261.7,-17.1 270.78,-22.56 272.2,-15.71"/>
</a>
</g>
</g>
<!-- Node7 -->
<g id="Node000007" class="node">
<title>Node7</title>
<g id="a_Node000007"><a xlink:title=" ">
<polygon fill="#e0e0e0" stroke="#999999" points="326.5,-19 279.5,-19 279.5,0 326.5,0 326.5,-19"/>
<text text-anchor="middle" x="303" y="-7" font-family="Helvetica,sans-Serif" font-size="10.00">float.h</text>
</a>
</g>
</g>
<!-- Node2&#45;&gt;Node7 -->
<g id="edge6_Node000002_Node000007" class="edge">
<title>Node2&#45;&gt;Node7</title>
<g id="a_edge6_Node000002_Node000007"><a xlink:title=" ">
<path fill="none" stroke="#63b8ff" d="M565.32,-63.84C518.15,-55.76 424.82,-39.15 336.62,-19.25"/>
<polygon fill="#63b8ff" stroke="#63b8ff" points="337.25,-15.81 326.72,-17 335.69,-22.63 337.25,-15.81"/>
</a>
</g>
</g>
<!-- Node8 -->
<g id="Node000008" class="node">
<title>Node8</title>
<g id="a_Node000008"><a xlink:title=" ">
<polygon fill="#e0e0e0" stroke="#999999" points="395.5,-19 344.5,-19 344.5,0 395.5,0 395.5,-19"/>
<text text-anchor="middle" x="370" y="-7" font-family="Helvetica,sans-Serif" font-size="10.00">math.h</text>
</a>
</g>
</g>
<!-- Node2&#45;&gt;Node8 -->
<g id="edge7_Node000002_Node000008" class="edge">
<title>Node2&#45;&gt;Node8</title>
<g id="a_edge7_Node000002_Node000008"><a xlink:title=" ">
<path fill="none" stroke="#63b8ff" d="M565.05,-60.99C523.42,-50.21 449.54,-31.09 405.64,-19.72"/>
<polygon fill="#63b8ff" stroke="#63b8ff" points="406.25,-16.27 395.69,-17.15 404.49,-23.04 406.25,-16.27"/>
</a>
</g>
</g>
<!-- Node9 -->
<g id="Node000009" class="node">
<title>Node9</title>
<g id="a_Node000009"><a xlink:title=" ">
<polygon fill="#e0e0e0" stroke="#999999" points="476.5,-19 413.5,-19 413.5,0 476.5,0 476.5,-19"/>
<text text-anchor="middle" x="445" y="-7" font-family="Helvetica,sans-Serif" font-size="10.00">pthread.h</text>
</a>
</g>
</g>
<!-- Node2&#45;&gt;Node9 -->
<g id="edge8_Node000002_Node000009" class="edge">
<title>Node2&#45;&gt;Node9</title>
<g id="a_edge8_Node000002_Node000009"><a xlink:title=" ">
<path fill="none" stroke="#63b8ff" d="M574.04,-60.49C548.32,-50.53 505.52,-33.95 476.32,-22.63"/>
<polygon fill="#63b8ff" stroke="#63b8ff" points="477.57,-19.37 466.98,-19.02 475.04,-25.89 477.57,-19.37"/>
</a>
</g>
</g>
<!-- Node10 -->
<g id="Node000010" class="node">
<title>Node10</title>
<g id="a_Node000010"><a xlink:title=" ">
<polygon fill="#e0e0e0" stroke="#999999" points="551,-19 495,-19 495,0 551,0 551,-19"/>
<text text-anchor="middle" x="523" y="-7" font-family="Helvetica,sans-Serif" font-size="10.00">stdarg.h</text>
</a>
</g>
</g>
<!-- Node2&#45;&gt;Node10 -->
<g id="edge9_Node000002_Node000010" class="edge">
<title>Node2&#45;&gt;Node10</title>
<g id="a_edge9_Node000002_Node000010"><a xlink:title=" ">
<path fill="none" stroke="#63b8ff" d="M585.23,-60.37C573.8,-51.21 555.52,-36.56 541.72,-25.51"/>
<polygon fill="#63b8ff" stroke="#63b8ff" points="543.81,-22.69 533.82,-19.17 539.43,-28.15 543.81,-22.69"/>
</a>
</g>
</g>
<!-- Node11 -->
<g id="Node000011" class="node">
<title>Node11</title>
<g id="a_Node000011"><a xlink:title=" ">
<polygon fill="#e0e0e0" stroke="#999999" points="622.5,-19 569.5,-19 569.5,0 622.5,0 622.5,-19"/>
<text text-anchor="middle" x="596" y="-7" font-family="Helvetica,sans-Serif" font-size="10.00">stdint.h</text>
</a>
</g>
</g>
<!-- Node2&#45;&gt;Node11 -->
<g id="edge10_Node000002_Node000011" class="edge">
<title>Node2&#45;&gt;Node11</title>
<g id="a_edge10_Node000002_Node000011"><a xlink:title=" ">
<path fill="none" stroke="#63b8ff" d="M596,-60.37C596,-52.25 596,-39.81 596,-29.39"/>
<polygon fill="#63b8ff" stroke="#63b8ff" points="599.5,-29.17 596,-19.17 592.5,-29.17 599.5,-29.17"/>
</a>
</g>
</g>
<!-- Node12 -->
<g id="Node000012" class="node">
<title>Node12</title>
<g id="a_Node000012"><a xlink:title=" ">
<polygon fill="#e0e0e0" stroke="#999999" points="691,-19 641,-19 641,0 691,0 691,-19"/>
<text text-anchor="middle" x="666" y="-7" font-family="Helvetica,sans-Serif" font-size="10.00">stdio.h</text>
</a>
</g>
</g>
<!-- Node2&#45;&gt;Node12 -->
<g id="edge11_Node000002_Node000012" class="edge">
<title>Node2&#45;&gt;Node12</title>
<g id="a_edge11_Node000002_Node000012"><a xlink:title=" ">
<path fill="none" stroke="#63b8ff" d="M606.33,-60.37C617.19,-51.3 634.49,-36.84 647.67,-25.82"/>
<polygon fill="#63b8ff" stroke="#63b8ff" points="650.2,-28.27 655.63,-19.17 645.71,-22.89 650.2,-28.27"/>
</a>
</g>
</g>
<!-- Node13 -->
<g id="Node000013" class="node">
<title>Node13</title>
<g id="a_Node000013"><a xlink:title=" ">
<polygon fill="#e0e0e0" stroke="#999999" points="762.5,-19 709.5,-19 709.5,0 762.5,0 762.5,-19"/>
<text text-anchor="middle" x="736" y="-7" font-family="Helvetica,sans-Serif" font-size="10.00">stdlib.h</text>
</a>
</g>
</g>
<!-- Node2&#45;&gt;Node13 -->
<g id="edge12_Node000002_Node000013" class="edge">
<title>Node2&#45;&gt;Node13</title>
<g id="a_edge12_Node000002_Node000013"><a xlink:title=" ">
<path fill="none" stroke="#63b8ff" d="M616.36,-60.49C640,-50.62 679.2,-34.23 706.25,-22.93"/>
<polygon fill="#63b8ff" stroke="#63b8ff" points="707.74,-26.1 715.62,-19.02 705.04,-19.64 707.74,-26.1"/>
</a>
</g>
</g>
<!-- Node14 -->
<g id="Node000014" class="node">
<title>Node14</title>
<g id="a_Node000014"><a xlink:title=" ">
<polygon fill="#e0e0e0" stroke="#999999" points="833.5,-19 780.5,-19 780.5,0 833.5,0 833.5,-19"/>
<text text-anchor="middle" x="807" y="-7" font-family="Helvetica,sans-Serif" font-size="10.00">string.h</text>
</a>
</g>
</g>
<!-- Node2&#45;&gt;Node14 -->
<g id="edge13_Node000002_Node000014" class="edge">
<title>Node2&#45;&gt;Node14</title>
<g id="a_edge13_Node000002_Node000014"><a xlink:title=" ">
<path fill="none" stroke="#63b8ff" d="M619.58,-60.39C624.95,-58.52 630.65,-56.63 636,-55 660.94,-47.4 728.15,-30.28 770.51,-19.62"/>
<polygon fill="#63b8ff" stroke="#63b8ff" points="771.59,-22.96 780.44,-17.13 769.88,-16.17 771.59,-22.96"/>
</a>
</g>
</g>
<!-- Node15 -->
<g id="Node000015" class="node">
<title>Node15</title>
<g id="a_Node000015"><a xlink:title=" ">
<polygon fill="#e0e0e0" stroke="#999999" points="928.5,-19 851.5,-19 851.5,0 928.5,0 928.5,-19"/>
<text text-anchor="middle" x="890" y="-7" font-family="Helvetica,sans-Serif" font-size="10.00">sys/mman.h</text>
</a>
</g>
</g>
<!-- Node2&#45;&gt;Node15 -->
<g id="edge14_Node000002_Node000015" class="edge">
<title>Node2&#45;&gt;Node15</title>
<g id="a_edge14_Node000002_Node000015"><a xlink:title=" ">
<path fill="none" stroke="#63b8ff" d="M618.22,-60.49C623.96,-58.5 630.16,-56.52 636,-55 723.29,-32.3 749.29,-35.08 841.26,-19.27"/>
<polygon fill="#63b8ff" stroke="#63b8ff" points="842.03,-22.69 851.28,-17.52 840.82,-15.8 842.03,-22.69"/>
</a>
</g>
</g>
<!-- Node16 -->
<g id="Node000016" class="node">
<title>Node16</title>
<g id="a_Node000016"><a xlink:title=" ">
<polygon fill="#e0e0e0" stroke="#999999" points="1011,-19 947,-19 947,0 1011,0 1011,-19"/>
<text text-anchor="middle" x="979" y="-7" font-family="Helvetica,sans-Serif" font-size="10.00">sys/stat.h</text>
</a>
</g>
</g>
<!-- Node2&#45;&gt;Node16 -->
<g id="edge15_Node000002_Node000016" class="edge">
<title>Node2&#45;&gt;Node16</title>
<g id="a_edge15_Node000002_Node000016"><a xlink:title=" ">
<path fill="none" stroke="#63b8ff" d="M617.75,-60.42C623.6,-58.38 629.98,-56.39 636,-55 764.47,-25.24 802.73,-39.97 936.59,-19.08"/>
<polygon fill="#63b8ff" stroke="#63b8ff" points="937.5,-22.48 946.82,-17.44 936.39,-15.57 937.5,-22.48"/>
</a>
</g>
</g>
<!-- Node17 -->
<g id="Node000017" class="node">
<title>Node17</title>
<g id="a_Node000017"><a xlink:title=" ">
<polygon fill="#e0e0e0" stroke="#999999" points="1077,-19 1029,-19 1029,0 1077,0 1077,-19"/>
<text text-anchor="middle" x="1053" y="-7" font-family="Helvetica,sans-Serif" font-size="10.00">time.h</text>
</a>
</g>
</g>
<!-- Node2&#45;&gt;Node17 -->
<g id="edge16_Node000002_Node000017" class="edge">
<title>Node2&#45;&gt;Node17</title>
<g id="a_edge16_Node000002_Node000017"><a xlink:title=" ">
<path fill="none" stroke="#63b8ff" d="M617.31,-60.46C623.28,-58.37 629.82,-56.35 636,-55 800.28,-19.11 849.28,-47.35 1018.93,-18.89"/>
<polygon fill="#63b8ff" stroke="#63b8ff" points="1019.68,-22.31 1028.95,-17.17 1018.5,-15.41 1019.68,-22.31"/>
</a>
</g>
</g>
<!-- Node18 -->
<g id="Node000018" class="node">
<title>Node18</title>
<g id="a_Node000018"><a xlink:title=" ">
<polygon fill="#e0e0e0" stroke="#999999" points="1151,-19 1095,-19 1095,0 1151,0 1151,-19"/>
<text text-anchor="middle" x="1123" y="-7" font-family="Helvetica,sans-Serif" font-size="10.00">unistd.h</text>
</a>
</g>
</g>
<!-- Node2&#45;&gt;Node18 -->
<g id="edge17_Node000002_Node000018" class="edge">
<title>Node2&#45;&gt;Node18</title>
<g id="a_edge17_Node000002_Node000018"><a xlink:title=" ">
<path fill="none" stroke="#63b8ff" d="M617.3,-60.41C623.26,-58.32 629.81,-56.31 636,-55 829.14,-14.19 885.88,-48.4 1084.91,-18.92"/>
<polygon fill="#63b8ff" stroke="#63b8ff" points="1085.44,-22.38 1094.8,-17.42 1084.39,-15.46 1085.44,-22.38"/>
</a>
</g>
</g>
<!-- Node19 -->
<g id="Node000019" class="node">
<title>Node19</title>
<g id="a_Node000019"><a xlink:title=" ">
<polygon fill="#e0e0e0" stroke="#999999" points="1231,-19 1169,-19 1169,0 1231,0 1231,-19"/>
<text text-anchor="middle" x="1200" y="-7" font-family="Helvetica,sans-Serif" font-size="10.00">stdbool.h</text>
</a>
</g>
</g>
<!-- Node2&#45;&gt;Node19 -->
<g id="edge18_Node000002_Node000019" class="edge">
<title>Node2&#45;&gt;Node19</title>
<g id="a_edge18_Node000002_Node000019"><a xlink:title=" ">
<path fill="none" stroke="#63b8ff" d="M617.29,-60.36C623.25,-58.27 629.8,-56.27 636,-55 861.42,-8.69 926.96,-50.13 1158.55,-18.99"/>
<polygon fill="#63b8ff" stroke="#63b8ff" points="1159.2,-22.43 1168.63,-17.6 1158.25,-15.5 1159.2,-22.43"/>
</a>
</g>
</g>
</g>
</svg>
