<?xml version="1.0" encoding="UTF-8" standalone="no"?>
<!DOCTYPE svg PUBLIC "-//W3C//DTD SVG 1.1//EN"
 "http://www.w3.org/Graphics/SVG/1.1/DTD/svg11.dtd">
<!-- Generated by graphviz version 2.43.0 (0)
 -->
<!-- Title: main Pages: 1 -->
<svg width="204pt" height="142pt"
 viewBox="0.00 0.00 204.00 142.00" xmlns="http://www.w3.org/2000/svg" xmlns:xlink="http://www.w3.org/1999/xlink">
<g id="graph0" class="graph" transform="scale(1 1) rotate(0) translate(4 138)">
<title>main</title>
<polygon fill="white" stroke="transparent" points="-4,4 -4,-138 200,-138 200,4 -4,4"/>
<!-- Node1 -->
<g id="node1" class="node">
<title>Node1</title>
<g id="a_node1"><a xlink:title=" ">
<polygon fill="#bfbfbf" stroke="black" points="0,-57.5 0,-76.5 41,-76.5 41,-57.5 0,-57.5"/>
<text text-anchor="middle" x="20.5" y="-64.5" font-family="Helvetica,sans-Serif" font-size="10.00">main</text>
</a>
</g>
</g>
<!-- Node2 -->
<g id="node2" class="node">
<title>Node2</title>
<g id="a_node2"><a xlink:href="TestDataGenerator_8c.html#a2711c79ec96ee380fc2a44adc5c0e866" target="_top" xlink:title=" ">
<polygon fill="white" stroke="black" points="82,-114.5 82,-133.5 191,-133.5 191,-114.5 82,-114.5"/>
<text text-anchor="middle" x="136.5" y="-121.5" font-family="Helvetica,sans-Serif" font-size="10.00">FillShaftPowerData</text>
</a>
</g>
</g>
<!-- Node1&#45;&gt;Node2 -->
<g id="edge1" class="edge">
<title>Node1&#45;&gt;Node2</title>
<path fill="none" stroke="midnightblue" d="M33.23,-76.51C44.06,-84.92 60.86,-97.06 77,-105 81.38,-107.16 86.06,-109.15 90.8,-110.96"/>
<polygon fill="midnightblue" stroke="midnightblue" points="89.92,-114.37 100.51,-114.45 92.28,-107.78 89.92,-114.37"/>
</g>
<!-- Node3 -->
<g id="node3" class="node">
<title>Node3</title>
<g id="a_node3"><a xlink:href="TestDataGenerator_8c.html#a4365fae10c6cdb2f6e132a95e29a85d9" target="_top" xlink:title=" ">
<polygon fill="white" stroke="black" points="77,-76.5 77,-95.5 196,-95.5 196,-76.5 77,-76.5"/>
<text text-anchor="middle" x="136.5" y="-83.5" font-family="Helvetica,sans-Serif" font-size="10.00">PrintTestDataSample</text>
</a>
</g>
</g>
<!-- Node1&#45;&gt;Node3 -->
<g id="edge2" class="edge">
<title>Node1&#45;&gt;Node3</title>
<path fill="none" stroke="midnightblue" d="M41.1,-70.27C48.93,-71.57 58.44,-73.16 68.38,-74.81"/>
<polygon fill="midnightblue" stroke="midnightblue" points="67.98,-78.29 78.42,-76.49 69.13,-71.39 67.98,-78.29"/>
</g>
<!-- Node4 -->
<g id="node4" class="node">
<title>Node4</title>
<g id="a_node4"><a xlink:href="Sdb_8h.html#ac5c7c1054a5f2110db33fbaf02ee3875" target="_top" xlink:title=" ">
<polygon fill="white" stroke="black" points="98,-38.5 98,-57.5 175,-57.5 175,-38.5 98,-38.5"/>
<text text-anchor="middle" x="136.5" y="-45.5" font-family="Helvetica,sans-Serif" font-size="10.00">SdbMemcpy</text>
</a>
</g>
</g>
<!-- Node1&#45;&gt;Node4 -->
<g id="edge3" class="edge">
<title>Node1&#45;&gt;Node4</title>
<path fill="none" stroke="midnightblue" d="M41.1,-63.73C53.96,-61.59 71.37,-58.69 87.74,-55.96"/>
<polygon fill="midnightblue" stroke="midnightblue" points="88.46,-59.39 97.75,-54.29 87.31,-52.48 88.46,-59.39"/>
</g>
<!-- Node5 -->
<g id="node5" class="node">
<title>Node5</title>
<g id="a_node5"><a xlink:href="Sdb_8h.html#a90d4c5571618a22851988f1df50ba874" target="_top" xlink:title=" ">
<polygon fill="white" stroke="black" points="89,-0.5 89,-19.5 184,-19.5 184,-0.5 89,-0.5"/>
<text text-anchor="middle" x="136.5" y="-7.5" font-family="Helvetica,sans-Serif" font-size="10.00">SdbMemUnmap</text>
</a>
</g>
</g>
<!-- Node1&#45;&gt;Node5 -->
<g id="edge4" class="edge">
<title>Node1&#45;&gt;Node5</title>
<path fill="none" stroke="midnightblue" d="M33.23,-57.49C44.06,-49.08 60.86,-36.94 77,-29 81.38,-26.84 86.06,-24.85 90.8,-23.04"/>
<polygon fill="midnightblue" stroke="midnightblue" points="92.28,-26.22 100.51,-19.55 89.92,-19.63 92.28,-26.22"/>
</g>
</g>
</svg>
