<?xml version="1.0" encoding="UTF-8" standalone="no"?>
<!DOCTYPE svg PUBLIC "-//W3C//DTD SVG 1.1//EN"
 "http://www.w3.org/Graphics/SVG/1.1/DTD/svg11.dtd">
<!-- Generated by graphviz version 2.43.0 (0)
 -->
<!-- Title: TgMonitor Pages: 1 -->
<svg width="612pt" height="104pt"
 viewBox="0.00 0.00 612.00 104.00" xmlns="http://www.w3.org/2000/svg" xmlns:xlink="http://www.w3.org/1999/xlink">
<g id="graph0" class="graph" transform="scale(1 1) rotate(0) translate(4 100)">
<title>TgMonitor</title>
<polygon fill="white" stroke="transparent" points="-4,4 -4,-100 608,-100 608,4 -4,4"/>
<!-- Node1 -->
<g id="node1" class="node">
<title>Node1</title>
<g id="a_node1"><a xlink:title=" ">
<polygon fill="#bfbfbf" stroke="black" points="0,-38.5 0,-57.5 66,-57.5 66,-38.5 0,-38.5"/>
<text text-anchor="middle" x="33" y="-45.5" font-family="Helvetica,sans-Serif" font-size="10.00">TgMonitor</text>
</a>
</g>
</g>
<!-- Node2 -->
<g id="node2" class="node">
<title>Node2</title>
<g id="a_node2"><a xlink:href="Thread_8c.html#a6e1a34c43565fd0fe32ce19bd63680c8" target="_top" xlink:title="Signal a condition variable.">
<polygon fill="white" stroke="black" points="107,-76.5 107,-95.5 196,-95.5 196,-76.5 107,-76.5"/>
<text text-anchor="middle" x="151.5" y="-83.5" font-family="Helvetica,sans-Serif" font-size="10.00">SdbCondSignal</text>
</a>
</g>
</g>
<!-- Node1&#45;&gt;Node2 -->
<g id="edge1" class="edge">
<title>Node1&#45;&gt;Node2</title>
<path fill="none" stroke="midnightblue" d="M63.4,-57.59C77.89,-62.31 95.56,-68.08 111.19,-73.18"/>
<polygon fill="midnightblue" stroke="midnightblue" points="110.52,-76.64 121.11,-76.41 112.69,-69.99 110.52,-76.64"/>
</g>
<!-- Node3 -->
<g id="node3" class="node">
<title>Node3</title>
<g id="a_node3"><a xlink:href="Thread_8c.html#a5fbfdcfc990630f27e5161ec4ea18aaa" target="_top" xlink:title="Lock a mutex with timeout.">
<polygon fill="white" stroke="black" points="107.5,-38.5 107.5,-57.5 195.5,-57.5 195.5,-38.5 107.5,-38.5"/>
<text text-anchor="middle" x="151.5" y="-45.5" font-family="Helvetica,sans-Serif" font-size="10.00">SdbMutexLock</text>
</a>
</g>
</g>
<!-- Node1&#45;&gt;Node3 -->
<g id="edge2" class="edge">
<title>Node1&#45;&gt;Node3</title>
<path fill="none" stroke="midnightblue" d="M66.14,-48C75.74,-48 86.52,-48 97.1,-48"/>
<polygon fill="midnightblue" stroke="midnightblue" points="97.12,-51.5 107.12,-48 97.12,-44.5 97.12,-51.5"/>
</g>
<!-- Node8 -->
<g id="node8" class="node">
<title>Node8</title>
<g id="a_node8"><a xlink:href="Thread_8c.html#a385a70a16dc0b1872fdf925d2121880c" target="_top" xlink:title="Unlock a mutex.">
<polygon fill="white" stroke="black" points="102,-0.5 102,-19.5 201,-19.5 201,-0.5 102,-0.5"/>
<text text-anchor="middle" x="151.5" y="-7.5" font-family="Helvetica,sans-Serif" font-size="10.00">SdbMutexUnlock</text>
</a>
</g>
</g>
<!-- Node1&#45;&gt;Node8 -->
<g id="edge7" class="edge">
<title>Node1&#45;&gt;Node8</title>
<path fill="none" stroke="midnightblue" d="M63.4,-38.41C77.89,-33.69 95.56,-27.92 111.19,-22.82"/>
<polygon fill="midnightblue" stroke="midnightblue" points="112.69,-26.01 121.11,-19.59 110.52,-19.36 112.69,-26.01"/>
</g>
<!-- Node4 -->
<g id="node4" class="node">
<title>Node4</title>
<g id="a_node4"><a xlink:href="Thread_8c.html#aa16f3f5cb899e1128f1a80c021780e5f" target="_top" xlink:title=" ">
<polygon fill="white" stroke="black" points="237,-38.5 237,-57.5 326,-57.5 326,-38.5 237,-38.5"/>
<text text-anchor="middle" x="281.5" y="-45.5" font-family="Helvetica,sans-Serif" font-size="10.00">CreateTimeout</text>
</a>
</g>
</g>
<!-- Node3&#45;&gt;Node4 -->
<g id="edge3" class="edge">
<title>Node3&#45;&gt;Node4</title>
<path fill="none" stroke="midnightblue" d="M195.83,-48C205.73,-48 216.37,-48 226.65,-48"/>
<polygon fill="midnightblue" stroke="midnightblue" points="226.77,-51.5 236.77,-48 226.77,-44.5 226.77,-51.5"/>
</g>
<!-- Node5 -->
<g id="node5" class="node">
<title>Node5</title>
<g id="a_node5"><a xlink:href="Time_8c.html#afad180732be23f8e46bdfc2bb349ff44" target="_top" xlink:title="Create Absolute Timeout Timestamp.">
<polygon fill="white" stroke="black" points="362,-38.5 362,-57.5 487,-57.5 487,-38.5 362,-38.5"/>
<text text-anchor="middle" x="424.5" y="-45.5" font-family="Helvetica,sans-Serif" font-size="10.00">SdbTimespecAbsolute</text>
</a>
</g>
</g>
<!-- Node4&#45;&gt;Node5 -->
<g id="edge4" class="edge">
<title>Node4&#45;&gt;Node5</title>
<path fill="none" stroke="midnightblue" d="M326.34,-48C334.42,-48 343.04,-48 351.69,-48"/>
<polygon fill="midnightblue" stroke="midnightblue" points="351.83,-51.5 361.83,-48 351.83,-44.5 351.83,-51.5"/>
</g>
<!-- Node6 -->
<g id="node6" class="node">
<title>Node6</title>
<g id="a_node6"><a xlink:href="Time_8c.html#af8be68d54def6b644cac5efb8fe2e605" target="_top" xlink:title="Add Time Difference to Timestamp.">
<polygon fill="white" stroke="black" points="524.5,-57.5 524.5,-76.5 602.5,-76.5 602.5,-57.5 524.5,-57.5"/>
<text text-anchor="middle" x="563.5" y="-64.5" font-family="Helvetica,sans-Serif" font-size="10.00">SdbTimeAdd</text>
</a>
</g>
</g>
<!-- Node5&#45;&gt;Node6 -->
<g id="edge5" class="edge">
<title>Node5&#45;&gt;Node6</title>
<path fill="none" stroke="midnightblue" d="M487.19,-56.56C496.27,-57.82 505.52,-59.1 514.28,-60.31"/>
<polygon fill="midnightblue" stroke="midnightblue" points="513.92,-63.8 524.31,-61.7 514.88,-56.86 513.92,-63.8"/>
</g>
<!-- Node7 -->
<g id="node7" class="node">
<title>Node7</title>
<g id="a_node7"><a xlink:href="Time_8c.html#a83d0c194706101b50506d2618e27167c" target="_top" xlink:title="Get Current Real&#45;Time Timestamp.">
<polygon fill="white" stroke="black" points="523,-19.5 523,-38.5 604,-38.5 604,-19.5 523,-19.5"/>
<text text-anchor="middle" x="563.5" y="-26.5" font-family="Helvetica,sans-Serif" font-size="10.00">SdbTimeNow</text>
</a>
</g>
</g>
<!-- Node5&#45;&gt;Node7 -->
<g id="edge6" class="edge">
<title>Node5&#45;&gt;Node7</title>
<path fill="none" stroke="midnightblue" d="M487.19,-39.44C495.77,-38.25 504.5,-37.04 512.82,-35.89"/>
<polygon fill="midnightblue" stroke="midnightblue" points="513.32,-39.35 522.74,-34.51 512.36,-32.42 513.32,-39.35"/>
</g>
</g>
</svg>
