<?xml version="1.0" encoding="UTF-8" standalone="no"?>
<!DOCTYPE svg PUBLIC "-//W3C//DTD SVG 1.1//EN"
 "http://www.w3.org/Graphics/SVG/1.1/DTD/svg11.dtd">
<!-- Generated by graphviz version 2.43.0 (0)
 -->
<!-- Title: SdbMutexDeinit Pages: 1 -->
<svg width="222pt" height="66pt"
 viewBox="0.00 0.00 222.00 66.00" xmlns="http://www.w3.org/2000/svg" xmlns:xlink="http://www.w3.org/1999/xlink">
<g id="graph0" class="graph" transform="scale(1 1) rotate(0) translate(4 62)">
<title>SdbMutexDeinit</title>
<polygon fill="white" stroke="transparent" points="-4,4 -4,-62 218,-62 218,4 -4,4"/>
<!-- Node1 -->
<g id="node1" class="node">
<title>Node1</title>
<g id="a_node1"><a xlink:title="Deinitialize a mutex.">
<polygon fill="#bfbfbf" stroke="black" points="119,-19.5 119,-38.5 214,-38.5 214,-19.5 119,-19.5"/>
<text text-anchor="middle" x="166.5" y="-26.5" font-family="Helvetica,sans-Serif" font-size="10.00">SdbMutexDeinit</text>
</a>
</g>
</g>
<!-- Node2 -->
<g id="node2" class="node">
<title>Node2</title>
<g id="a_node2"><a xlink:href="Thread_8c.html#afb40c52b497f6da6896f7aba77faf256" target="_top" xlink:title=" ">
<polygon fill="white" stroke="black" points="0,-38.5 0,-57.5 83,-57.5 83,-38.5 0,-38.5"/>
<text text-anchor="middle" x="41.5" y="-45.5" font-family="Helvetica,sans-Serif" font-size="10.00">SdbTCtlDeinit</text>
</a>
</g>
</g>
<!-- Node1&#45;&gt;Node2 -->
<g id="edge1" class="edge">
<title>Node1&#45;&gt;Node2</title>
<path fill="none" stroke="midnightblue" d="M108.87,-37.75C100.15,-39.1 91.3,-40.46 83.02,-41.74"/>
<polygon fill="midnightblue" stroke="midnightblue" points="109.65,-41.17 119,-36.18 108.58,-34.25 109.65,-41.17"/>
</g>
<!-- Node3 -->
<g id="node3" class="node">
<title>Node3</title>
<g id="a_node3"><a xlink:href="Thread_8c.html#abe363f59f277cd7fc52826b51e238cc9" target="_top" xlink:title=" ">
<polygon fill="white" stroke="black" points="7,-0.5 7,-19.5 76,-19.5 76,-0.5 7,-0.5"/>
<text text-anchor="middle" x="41.5" y="-7.5" font-family="Helvetica,sans-Serif" font-size="10.00">SdbTCtlInit</text>
</a>
</g>
</g>
<!-- Node1&#45;&gt;Node3 -->
<g id="edge2" class="edge">
<title>Node1&#45;&gt;Node3</title>
<path fill="none" stroke="midnightblue" d="M108.81,-20.24C97.6,-18.51 86.17,-16.75 76.04,-15.18"/>
<polygon fill="midnightblue" stroke="midnightblue" points="108.58,-23.75 119,-21.82 109.65,-16.83 108.58,-23.75"/>
</g>
</g>
</svg>
