<?xml version="1.0" encoding="UTF-8" standalone="no"?>
<!DOCTYPE svg PUBLIC "-//W3C//DTD SVG 1.1//EN"
 "http://www.w3.org/Graphics/SVG/1.1/DTD/svg11.dtd">
<!-- Generated by graphviz version 2.43.0 (0)
 -->
<!-- Title: TgDestroyManager Pages: 1 -->
<svg width="324pt" height="47pt"
 viewBox="0.00 0.00 324.00 47.00" xmlns="http://www.w3.org/2000/svg" xmlns:xlink="http://www.w3.org/1999/xlink">
<g id="graph0" class="graph" transform="scale(1 1) rotate(0) translate(4 43)">
<title>TgDestroyManager</title>
<polygon fill="white" stroke="transparent" points="-4,4 -4,-43 320,-43 320,4 -4,4"/>
<!-- Node1 -->
<g id="node1" class="node">
<title>Node1</title>
<g id="a_node1"><a xlink:title="Destroy Thread Group Manager.">
<polygon fill="#bfbfbf" stroke="black" points="206,-19.5 206,-38.5 316,-38.5 316,-19.5 206,-19.5"/>
<text text-anchor="middle" x="261" y="-26.5" font-family="Helvetica,sans-Serif" font-size="10.00">TgDestroyManager</text>
</a>
</g>
</g>
<!-- Node2 -->
<g id="node2" class="node">
<title>Node2</title>
<g id="a_node2"><a xlink:href="Main_8c.html#ae21eb8342793f7f8f0d5fda6b96c0803" target="_top" xlink:title="Main entry point for the Sensor Data Handler System.">
<polygon fill="white" stroke="black" points="0,-19.5 0,-38.5 41,-38.5 41,-19.5 0,-19.5"/>
<text text-anchor="middle" x="20.5" y="-26.5" font-family="Helvetica,sans-Serif" font-size="10.00">main</text>
</a>
</g>
</g>
<!-- Node1&#45;&gt;Node2 -->
<g id="edge1" class="edge">
<title>Node1&#45;&gt;Node2</title>
<path fill="none" stroke="midnightblue" d="M195.8,-29C144.11,-29 74.75,-29 41.25,-29"/>
<polygon fill="midnightblue" stroke="midnightblue" points="195.88,-32.5 205.88,-29 195.88,-25.5 195.88,-32.5"/>
</g>
<!-- Node3 -->
<g id="node3" class="node">
<title>Node3</title>
<g id="a_node3"><a xlink:href="Main_8c.html#aeeb5ef67af0eb14822aa17b0dc6f1be7" target="_top" xlink:title="Sets up the thread group manager from a configuration file.">
<polygon fill="white" stroke="black" points="77,-0.5 77,-19.5 170,-19.5 170,-0.5 77,-0.5"/>
<text text-anchor="middle" x="123.5" y="-7.5" font-family="Helvetica,sans-Serif" font-size="10.00">SetUpFromConf</text>
</a>
</g>
</g>
<!-- Node1&#45;&gt;Node3 -->
<g id="edge2" class="edge">
<title>Node1&#45;&gt;Node3</title>
<path fill="none" stroke="midnightblue" d="M195.63,-19.97C187.02,-18.77 178.34,-17.55 170.14,-16.4"/>
<polygon fill="midnightblue" stroke="midnightblue" points="195.28,-23.46 205.67,-21.38 196.25,-16.53 195.28,-23.46"/>
</g>
<!-- Node3&#45;&gt;Node2 -->
<g id="edge3" class="edge">
<title>Node3&#45;&gt;Node2</title>
<path fill="none" stroke="midnightblue" d="M66.72,-20.49C57.53,-22.22 48.58,-23.91 41.09,-25.31"/>
<polygon fill="midnightblue" stroke="midnightblue" points="67.55,-23.9 76.73,-18.61 66.25,-17.02 67.55,-23.9"/>
</g>
</g>
</svg>
