<?xml version="1.0" encoding="UTF-8" standalone="no"?>
<!DOCTYPE svg PUBLIC "-//W3C//DTD SVG 1.1//EN"
 "http://www.w3.org/Graphics/SVG/1.1/DTD/svg11.dtd">
<!-- Generated by graphviz version 2.43.0 (0)
 -->
<!-- Title: src/Common/ThreadGroup.c Pages: 1 -->
<svg width="1240pt" height="357pt"
 viewBox="0.00 0.00 1240.00 357.00" xmlns="http://www.w3.org/2000/svg" xmlns:xlink="http://www.w3.org/1999/xlink">
<g id="graph0" class="graph" transform="scale(1 1) rotate(0) translate(4 353)">
<title>src/Common/ThreadGroup.c</title>
<!-- Node1 -->
<g id="Node000001" class="node">
<title>Node1</title>
<g id="a_Node000001"><a xlink:title=" ">
<polygon fill="#999999" stroke="#666666" points="309.5,-349 157.5,-349 157.5,-330 309.5,-330 309.5,-349"/>
<text text-anchor="middle" x="233.5" y="-337" font-family="Helvetica,sans-Serif" font-size="10.00">src/Common/ThreadGroup.c</text>
</a>
</g>
</g>
<!-- Node2 -->
<g id="Node000002" class="node">
<title>Node2</title>
<g id="a_Node000002"><a xlink:title=" ">
<polygon fill="#e0e0e0" stroke="#999999" points="215,-19 152,-19 152,0 215,0 215,-19"/>
<text text-anchor="middle" x="183.5" y="-7" font-family="Helvetica,sans-Serif" font-size="10.00">pthread.h</text>
</a>
</g>
</g>
<!-- Node1&#45;&gt;Node2 -->
<g id="edge1_Node000001_Node000002" class="edge">
<title>Node1&#45;&gt;Node2</title>
<g id="a_edge1_Node000001_Node000002"><a xlink:title=" ">
<path fill="none" stroke="#63b8ff" d="M207.6,-329.91C170.2,-315.68 105.5,-283.42 105.5,-230.5 105.5,-230.5 105.5,-230.5 105.5,-118.5 105.5,-78.95 140.3,-44.05 163.41,-25.23"/>
<polygon fill="#63b8ff" stroke="#63b8ff" points="165.6,-27.97 171.31,-19.05 161.28,-22.46 165.6,-27.97"/>
</a>
</g>
</g>
<!-- Node3 -->
<g id="Node000003" class="node">
<title>Node3</title>
<g id="a_Node000003"><a xlink:title=" ">
<polygon fill="#e0e0e0" stroke="#999999" points="133.5,-19 71.5,-19 71.5,0 133.5,0 133.5,-19"/>
<text text-anchor="middle" x="102.5" y="-7" font-family="Helvetica,sans-Serif" font-size="10.00">stdbool.h</text>
</a>
</g>
</g>
<!-- Node1&#45;&gt;Node3 -->
<g id="edge2_Node000001_Node000003" class="edge">
<title>Node1&#45;&gt;Node3</title>
<g id="a_edge2_Node000001_Node000003"><a xlink:title=" ">
<path fill="none" stroke="#63b8ff" d="M189.89,-329.91C140.7,-317.4 67.5,-288.95 67.5,-230.5 67.5,-230.5 67.5,-230.5 67.5,-118.5 67.5,-85.3 82.65,-49.03 93.02,-28.11"/>
<polygon fill="#63b8ff" stroke="#63b8ff" points="96.16,-29.64 97.63,-19.15 89.94,-26.44 96.16,-29.64"/>
</a>
</g>
</g>
<!-- Node4 -->
<g id="Node000004" class="node">
<title>Node4</title>
<g id="a_Node000004"><a xlink:title=" ">
<polygon fill="#e0e0e0" stroke="#999999" points="53,-19 0,-19 0,0 53,0 53,-19"/>
<text text-anchor="middle" x="26.5" y="-7" font-family="Helvetica,sans-Serif" font-size="10.00">stdlib.h</text>
</a>
</g>
</g>
<!-- Node1&#45;&gt;Node4 -->
<g id="edge3_Node000001_Node000004" class="edge">
<title>Node1&#45;&gt;Node4</title>
<g id="a_edge3_Node000001_Node000004"><a xlink:title=" ">
<path fill="none" stroke="#63b8ff" d="M159.42,-329.96C100.36,-318.53 27.5,-291.98 27.5,-230.5 27.5,-230.5 27.5,-230.5 27.5,-118.5 27.5,-87.19 27.07,-50.77 26.78,-29.23"/>
<polygon fill="#63b8ff" stroke="#63b8ff" points="30.28,-29.13 26.63,-19.18 23.28,-29.23 30.28,-29.13"/>
</a>
</g>
</g>
<!-- Node5 -->
<g id="Node000005" class="node">
<title>Node5</title>
<g id="a_Node000005"><a xlink:href="Sdb_8h.html" target="_top" xlink:title=" ">
<polygon fill="white" stroke="#666666" points="597,-74 536,-74 536,-55 597,-55 597,-74"/>
<text text-anchor="middle" x="566.5" y="-62" font-family="Helvetica,sans-Serif" font-size="10.00">src/Sdb.h</text>
</a>
</g>
</g>
<!-- Node1&#45;&gt;Node5 -->
<g id="edge4_Node000001_Node000005" class="edge">
<title>Node1&#45;&gt;Node5</title>
<g id="a_edge4_Node000001_Node000005"><a xlink:title=" ">
<path fill="none" stroke="#63b8ff" d="M309.7,-333.45C478.78,-321.21 870.5,-286.79 870.5,-230.5 870.5,-230.5 870.5,-230.5 870.5,-173.5 870.5,-118.24 689.91,-84.01 607.11,-71.21"/>
<polygon fill="#63b8ff" stroke="#63b8ff" points="607.45,-67.73 597.04,-69.69 606.4,-74.65 607.45,-67.73"/>
</a>
</g>
</g>
<!-- Node20 -->
<g id="Node000020" class="node">
<title>Node20</title>
<g id="a_Node000020"><a xlink:href="Thread_8h.html" target="_top" xlink:title="Lightweight Synchronization Primitives Wrapper.">
<polygon fill="white" stroke="#666666" points="530.5,-184 406.5,-184 406.5,-165 530.5,-165 530.5,-184"/>
<text text-anchor="middle" x="468.5" y="-172" font-family="Helvetica,sans-Serif" font-size="10.00">src/Common/Thread.h</text>
</a>
</g>
</g>
<!-- Node1&#45;&gt;Node20 -->
<g id="edge22_Node000001_Node000020" class="edge">
<title>Node1&#45;&gt;Node20</title>
<g id="a_edge22_Node000001_Node000020"><a xlink:title=" ">
<path fill="none" stroke="#63b8ff" d="M245.8,-329.97C283.87,-303.57 399.99,-223.02 447.7,-189.93"/>
<polygon fill="#63b8ff" stroke="#63b8ff" points="449.81,-192.72 456.03,-184.15 445.82,-186.97 449.81,-192.72"/>
</a>
</g>
</g>
<!-- Node22 -->
<g id="Node000022" class="node">
<title>Node22</title>
<g id="a_Node000022"><a xlink:href="Time_8h.html" target="_top" xlink:title="Lightweight Time Manipulation Utilities.">
<polygon fill="white" stroke="#666666" points="364,-129 249,-129 249,-110 364,-110 364,-129"/>
<text text-anchor="middle" x="306.5" y="-117" font-family="Helvetica,sans-Serif" font-size="10.00">src/Common/Time.h</text>
</a>
</g>
</g>
<!-- Node1&#45;&gt;Node22 -->
<g id="edge35_Node000001_Node000022" class="edge">
<title>Node1&#45;&gt;Node22</title>
<g id="a_edge35_Node000001_Node000022"><a xlink:title=" ">
<path fill="none" stroke="#63b8ff" d="M227.22,-329.9C213.52,-309.98 183.45,-259.39 200.5,-220 217.11,-181.63 256.61,-151.25 282.42,-134.59"/>
<polygon fill="#63b8ff" stroke="#63b8ff" points="284.61,-137.35 291.24,-129.09 280.9,-131.41 284.61,-137.35"/>
</a>
</g>
</g>
<!-- Node24 -->
<g id="Node000024" class="node">
<title>Node24</title>
<g id="a_Node000024"><a xlink:href="ThreadGroup_8h.html" target="_top" xlink:title="Thread Group Management System.">
<polygon fill="white" stroke="#666666" points="363,-239 210,-239 210,-220 363,-220 363,-239"/>
<text text-anchor="middle" x="286.5" y="-227" font-family="Helvetica,sans-Serif" font-size="10.00">src/Common/ThreadGroup.h</text>
</a>
</g>
</g>
<!-- Node1&#45;&gt;Node24 -->
<g id="edge30_Node000001_Node000024" class="edge">
<title>Node1&#45;&gt;Node24</title>
<g id="a_edge30_Node000001_Node000024"><a xlink:title=" ">
<path fill="none" stroke="#63b8ff" d="M237.84,-329.66C246.54,-311.93 266.27,-271.73 277.76,-248.32"/>
<polygon fill="#63b8ff" stroke="#63b8ff" points="280.99,-249.68 282.25,-239.16 274.7,-246.59 280.99,-249.68"/>
</a>
</g>
</g>
<!-- Node25 -->
<g id="Node000025" class="node">
<title>Node25</title>
<g id="a_Node000025"><a xlink:href="Signals_8h.html" target="_top" xlink:title="Signal handling interface for the Sensor Data Handler System.">
<polygon fill="white" stroke="#666666" points="624.5,-294 546.5,-294 546.5,-275 624.5,-275 624.5,-294"/>
<text text-anchor="middle" x="585.5" y="-282" font-family="Helvetica,sans-Serif" font-size="10.00">src/Signals.h</text>
</a>
</g>
</g>
<!-- Node1&#45;&gt;Node25 -->
<g id="edge36_Node000001_Node000025" class="edge">
<title>Node1&#45;&gt;Node25</title>
<g id="a_edge36_Node000001_Node000025"><a xlink:title=" ">
<path fill="none" stroke="#63b8ff" d="M290.05,-329.98C358.22,-319.72 471.64,-302.64 536.32,-292.9"/>
<polygon fill="#63b8ff" stroke="#63b8ff" points="536.9,-296.36 546.27,-291.41 535.86,-289.43 536.9,-296.36"/>
</a>
</g>
</g>
<!-- Node5&#45;&gt;Node2 -->
<g id="edge11_Node000005_Node000002" class="edge">
<title>Node5&#45;&gt;Node2</title>
<g id="a_edge11_Node000005_Node000002"><a xlink:title=" ">
<path fill="none" stroke="#63b8ff" d="M535.73,-60.28C477.32,-54 346.18,-39.09 225.4,-19.03"/>
<polygon fill="#63b8ff" stroke="#63b8ff" points="225.68,-15.53 215.24,-17.33 224.52,-22.43 225.68,-15.53"/>
</a>
</g>
</g>
<!-- Node5&#45;&gt;Node3 -->
<g id="edge21_Node000005_Node000003" class="edge">
<title>Node5&#45;&gt;Node3</title>
<g id="a_edge21_Node000005_Node000003"><a xlink:title=" ">
<path fill="none" stroke="#63b8ff" d="M535.76,-61.38C467.2,-56.43 296.44,-42.77 143.9,-19.07"/>
<polygon fill="#63b8ff" stroke="#63b8ff" points="144.31,-15.59 133.88,-17.49 143.22,-22.51 144.31,-15.59"/>
</a>
</g>
</g>
<!-- Node5&#45;&gt;Node4 -->
<g id="edge15_Node000005_Node000004" class="edge">
<title>Node5&#45;&gt;Node4</title>
<g id="a_edge15_Node000005_Node000004"><a xlink:title=" ">
<path fill="none" stroke="#63b8ff" d="M535.92,-62.33C458.44,-59.05 248.06,-48.11 63.06,-18.83"/>
<polygon fill="#63b8ff" stroke="#63b8ff" points="63.58,-15.37 53.15,-17.24 62.47,-22.28 63.58,-15.37"/>
</a>
</g>
</g>
<!-- Node6 -->
<g id="Node000006" class="node">
<title>Node6</title>
<g id="a_Node000006"><a xlink:title=" ">
<polygon fill="#e0e0e0" stroke="#999999" points="746.5,-19 690.5,-19 690.5,0 746.5,0 746.5,-19"/>
<text text-anchor="middle" x="718.5" y="-7" font-family="Helvetica,sans-Serif" font-size="10.00">assert.h</text>
</a>
</g>
</g>
<!-- Node5&#45;&gt;Node6 -->
<g id="edge5_Node000005_Node000006" class="edge">
<title>Node5&#45;&gt;Node6</title>
<g id="a_edge5_Node000005_Node000006"><a xlink:title=" ">
<path fill="none" stroke="#63b8ff" d="M590.92,-54.98C616.22,-46.16 655.95,-32.31 684.36,-22.41"/>
<polygon fill="#63b8ff" stroke="#63b8ff" points="685.6,-25.68 693.89,-19.08 683.29,-19.07 685.6,-25.68"/>
</a>
</g>
</g>
<!-- Node7 -->
<g id="Node000007" class="node">
<title>Node7</title>
<g id="a_Node000007"><a xlink:title=" ">
<polygon fill="#e0e0e0" stroke="#999999" points="818,-19 765,-19 765,0 818,0 818,-19"/>
<text text-anchor="middle" x="791.5" y="-7" font-family="Helvetica,sans-Serif" font-size="10.00">ctype.h</text>
</a>
</g>
</g>
<!-- Node5&#45;&gt;Node7 -->
<g id="edge6_Node000005_Node000007" class="edge">
<title>Node5&#45;&gt;Node7</title>
<g id="a_edge6_Node000005_Node000007"><a xlink:title=" ">
<path fill="none" stroke="#63b8ff" d="M597.27,-56.26C632.78,-47.91 693.19,-33.69 754.86,-19.15"/>
<polygon fill="#63b8ff" stroke="#63b8ff" points="755.83,-22.52 764.76,-16.81 754.23,-15.7 755.83,-22.52"/>
</a>
</g>
</g>
<!-- Node8 -->
<g id="Node000008" class="node">
<title>Node8</title>
<g id="a_Node000008"><a xlink:title=" ">
<polygon fill="#e0e0e0" stroke="#999999" points="887,-19 836,-19 836,0 887,0 887,-19"/>
<text text-anchor="middle" x="861.5" y="-7" font-family="Helvetica,sans-Serif" font-size="10.00">errno.h</text>
</a>
</g>
</g>
<!-- Node5&#45;&gt;Node8 -->
<g id="edge7_Node000005_Node000008" class="edge">
<title>Node5&#45;&gt;Node8</title>
<g id="a_edge7_Node000005_Node000008"><a xlink:title=" ">
<path fill="none" stroke="#63b8ff" d="M597.05,-58.97C644.01,-51.85 736.95,-37.17 825.94,-18.98"/>
<polygon fill="#63b8ff" stroke="#63b8ff" points="826.84,-22.37 835.93,-16.92 825.43,-15.52 826.84,-22.37"/>
</a>
</g>
</g>
<!-- Node9 -->
<g id="Node000009" class="node">
<title>Node9</title>
<g id="a_Node000009"><a xlink:title=" ">
<polygon fill="#e0e0e0" stroke="#999999" points="952,-19 905,-19 905,0 952,0 952,-19"/>
<text text-anchor="middle" x="928.5" y="-7" font-family="Helvetica,sans-Serif" font-size="10.00">fcntl.h</text>
</a>
</g>
</g>
<!-- Node5&#45;&gt;Node9 -->
<g id="edge8_Node000005_Node000009" class="edge">
<title>Node5&#45;&gt;Node9</title>
<g id="a_edge8_Node000005_Node000009"><a xlink:title=" ">
<path fill="none" stroke="#63b8ff" d="M597.09,-60.58C653.8,-54.9 779.24,-41.12 894.71,-18.93"/>
<polygon fill="#63b8ff" stroke="#63b8ff" points="895.64,-22.31 904.78,-16.96 894.3,-15.44 895.64,-22.31"/>
</a>
</g>
</g>
<!-- Node10 -->
<g id="Node000010" class="node">
<title>Node10</title>
<g id="a_Node000010"><a xlink:title=" ">
<polygon fill="#e0e0e0" stroke="#999999" points="1017,-19 970,-19 970,0 1017,0 1017,-19"/>
<text text-anchor="middle" x="993.5" y="-7" font-family="Helvetica,sans-Serif" font-size="10.00">float.h</text>
</a>
</g>
</g>
<!-- Node5&#45;&gt;Node10 -->
<g id="edge9_Node000005_Node000010" class="edge">
<title>Node5&#45;&gt;Node10</title>
<g id="a_edge9_Node000005_Node000010"><a xlink:title=" ">
<path fill="none" stroke="#63b8ff" d="M597.37,-61.49C662.51,-56.93 818.9,-44.32 959.69,-18.88"/>
<polygon fill="#63b8ff" stroke="#63b8ff" points="960.59,-22.27 969.8,-17.03 959.33,-15.39 960.59,-22.27"/>
</a>
</g>
</g>
<!-- Node11 -->
<g id="Node000011" class="node">
<title>Node11</title>
<g id="a_Node000011"><a xlink:title=" ">
<polygon fill="#e0e0e0" stroke="#999999" points="1086,-19 1035,-19 1035,0 1086,0 1086,-19"/>
<text text-anchor="middle" x="1060.5" y="-7" font-family="Helvetica,sans-Serif" font-size="10.00">math.h</text>
</a>
</g>
</g>
<!-- Node5&#45;&gt;Node11 -->
<g id="edge10_Node000005_Node000011" class="edge">
<title>Node5&#45;&gt;Node11</title>
<g id="a_edge10_Node000005_Node000011"><a xlink:title=" ">
<path fill="none" stroke="#63b8ff" d="M597.04,-62.04C669.56,-58.24 857.9,-46.52 1025.01,-18.82"/>
<polygon fill="#63b8ff" stroke="#63b8ff" points="1025.69,-22.25 1034.97,-17.14 1024.53,-15.35 1025.69,-22.25"/>
</a>
</g>
</g>
<!-- Node12 -->
<g id="Node000012" class="node">
<title>Node12</title>
<g id="a_Node000012"><a xlink:title=" ">
<polygon fill="#e0e0e0" stroke="#999999" points="1160.5,-19 1104.5,-19 1104.5,0 1160.5,0 1160.5,-19"/>
<text text-anchor="middle" x="1132.5" y="-7" font-family="Helvetica,sans-Serif" font-size="10.00">stdarg.h</text>
</a>
</g>
</g>
<!-- Node5&#45;&gt;Node12 -->
<g id="edge12_Node000005_Node000012" class="edge">
<title>Node5&#45;&gt;Node12</title>
<g id="a_edge12_Node000005_Node000012"><a xlink:title=" ">
<path fill="none" stroke="#63b8ff" d="M597.03,-62.38C678.33,-59.08 906.73,-47.78 1094.5,-19 1094.6,-18.98 1094.7,-18.97 1094.8,-18.95"/>
<polygon fill="#63b8ff" stroke="#63b8ff" points="1095.13,-22.45 1104.36,-17.24 1093.9,-15.56 1095.13,-22.45"/>
</a>
</g>
</g>
<!-- Node13 -->
<g id="Node000013" class="node">
<title>Node13</title>
<g id="a_Node000013"><a xlink:title=" ">
<polygon fill="#e0e0e0" stroke="#999999" points="1232,-19 1179,-19 1179,0 1232,0 1232,-19"/>
<text text-anchor="middle" x="1205.5" y="-7" font-family="Helvetica,sans-Serif" font-size="10.00">stdint.h</text>
</a>
</g>
</g>
<!-- Node5&#45;&gt;Node13 -->
<g id="edge13_Node000005_Node000013" class="edge">
<title>Node5&#45;&gt;Node13</title>
<g id="a_edge13_Node000005_Node000013"><a xlink:title=" ">
<path fill="none" stroke="#63b8ff" d="M597.12,-62.95C684.77,-61.01 944.14,-52.75 1168.86,-18.82"/>
<polygon fill="#63b8ff" stroke="#63b8ff" points="1169.5,-22.26 1178.86,-17.29 1168.44,-15.34 1169.5,-22.26"/>
</a>
</g>
</g>
<!-- Node14 -->
<g id="Node000014" class="node">
<title>Node14</title>
<g id="a_Node000014"><a xlink:title=" ">
<polygon fill="#e0e0e0" stroke="#999999" points="349.5,-19 299.5,-19 299.5,0 349.5,0 349.5,-19"/>
<text text-anchor="middle" x="324.5" y="-7" font-family="Helvetica,sans-Serif" font-size="10.00">stdio.h</text>
</a>
</g>
</g>
<!-- Node5&#45;&gt;Node14 -->
<g id="edge14_Node000005_Node000014" class="edge">
<title>Node5&#45;&gt;Node14</title>
<g id="a_edge14_Node000005_Node000014"><a xlink:title=" ">
<path fill="none" stroke="#63b8ff" d="M535.77,-57.27C497.02,-49.34 428.12,-34.98 359.8,-19.24"/>
<polygon fill="#63b8ff" stroke="#63b8ff" points="360.26,-15.75 349.73,-16.91 358.68,-22.57 360.26,-15.75"/>
</a>
</g>
</g>
<!-- Node15 -->
<g id="Node000015" class="node">
<title>Node15</title>
<g id="a_Node000015"><a xlink:title=" ">
<polygon fill="#e0e0e0" stroke="#999999" points="421,-19 368,-19 368,0 421,0 421,-19"/>
<text text-anchor="middle" x="394.5" y="-7" font-family="Helvetica,sans-Serif" font-size="10.00">string.h</text>
</a>
</g>
</g>
<!-- Node5&#45;&gt;Node15 -->
<g id="edge16_Node000005_Node000015" class="edge">
<title>Node5&#45;&gt;Node15</title>
<g id="a_edge16_Node000005_Node000015"><a xlink:title=" ">
<path fill="none" stroke="#63b8ff" d="M538.87,-54.98C509.65,-45.98 463.41,-31.73 431.16,-21.8"/>
<polygon fill="#63b8ff" stroke="#63b8ff" points="431.8,-18.33 421.22,-18.73 429.74,-25.02 431.8,-18.33"/>
</a>
</g>
</g>
<!-- Node16 -->
<g id="Node000016" class="node">
<title>Node16</title>
<g id="a_Node000016"><a xlink:title=" ">
<polygon fill="#e0e0e0" stroke="#999999" points="516,-19 439,-19 439,0 516,0 516,-19"/>
<text text-anchor="middle" x="477.5" y="-7" font-family="Helvetica,sans-Serif" font-size="10.00">sys/mman.h</text>
</a>
</g>
</g>
<!-- Node5&#45;&gt;Node16 -->
<g id="edge17_Node000005_Node000016" class="edge">
<title>Node5&#45;&gt;Node16</title>
<g id="a_edge17_Node000005_Node000016"><a xlink:title=" ">
<path fill="none" stroke="#63b8ff" d="M552.2,-54.98C538.4,-46.77 517.26,-34.18 500.99,-24.49"/>
<polygon fill="#63b8ff" stroke="#63b8ff" points="502.44,-21.28 492.06,-19.17 498.86,-27.29 502.44,-21.28"/>
</a>
</g>
</g>
<!-- Node17 -->
<g id="Node000017" class="node">
<title>Node17</title>
<g id="a_Node000017"><a xlink:title=" ">
<polygon fill="#e0e0e0" stroke="#999999" points="598.5,-19 534.5,-19 534.5,0 598.5,0 598.5,-19"/>
<text text-anchor="middle" x="566.5" y="-7" font-family="Helvetica,sans-Serif" font-size="10.00">sys/stat.h</text>
</a>
</g>
</g>
<!-- Node5&#45;&gt;Node17 -->
<g id="edge18_Node000005_Node000017" class="edge">
<title>Node5&#45;&gt;Node17</title>
<g id="a_edge18_Node000005_Node000017"><a xlink:title=" ">
<path fill="none" stroke="#63b8ff" d="M566.5,-54.75C566.5,-47.8 566.5,-37.85 566.5,-29.13"/>
<polygon fill="#63b8ff" stroke="#63b8ff" points="570,-29.09 566.5,-19.09 563,-29.09 570,-29.09"/>
</a>
</g>
</g>
<!-- Node18 -->
<g id="Node000018" class="node">
<title>Node18</title>
<g id="a_Node000018"><a xlink:title=" ">
<polygon fill="#e0e0e0" stroke="#999999" points="281.5,-19 233.5,-19 233.5,0 281.5,0 281.5,-19"/>
<text text-anchor="middle" x="257.5" y="-7" font-family="Helvetica,sans-Serif" font-size="10.00">time.h</text>
</a>
</g>
</g>
<!-- Node5&#45;&gt;Node18 -->
<g id="edge19_Node000005_Node000018" class="edge">
<title>Node5&#45;&gt;Node18</title>
<g id="a_edge19_Node000005_Node000018"><a xlink:title=" ">
<path fill="none" stroke="#63b8ff" d="M535.7,-59.48C486.27,-52.82 386.03,-38.49 291.59,-19.06"/>
<polygon fill="#63b8ff" stroke="#63b8ff" points="292.09,-15.59 281.59,-16.98 290.67,-22.44 292.09,-15.59"/>
</a>
</g>
</g>
<!-- Node19 -->
<g id="Node000019" class="node">
<title>Node19</title>
<g id="a_Node000019"><a xlink:title=" ">
<polygon fill="#e0e0e0" stroke="#999999" points="672.5,-19 616.5,-19 616.5,0 672.5,0 672.5,-19"/>
<text text-anchor="middle" x="644.5" y="-7" font-family="Helvetica,sans-Serif" font-size="10.00">unistd.h</text>
</a>
</g>
</g>
<!-- Node5&#45;&gt;Node19 -->
<g id="edge20_Node000005_Node000019" class="edge">
<title>Node5&#45;&gt;Node19</title>
<g id="a_edge20_Node000005_Node000019"><a xlink:title=" ">
<path fill="none" stroke="#63b8ff" d="M579.03,-54.98C590.9,-46.92 608.96,-34.65 623.11,-25.03"/>
<polygon fill="#63b8ff" stroke="#63b8ff" points="625.44,-27.69 631.74,-19.17 621.5,-21.9 625.44,-27.69"/>
</a>
</g>
</g>
<!-- Node20&#45;&gt;Node2 -->
<g id="edge23_Node000020_Node000002" class="edge">
<title>Node20&#45;&gt;Node2</title>
<g id="a_edge23_Node000020_Node000002"><a xlink:title=" ">
<path fill="none" stroke="#63b8ff" d="M406.29,-167.75C347.62,-161.22 265,-148.82 239.5,-129 222.7,-115.94 200.56,-58.71 189.85,-28.83"/>
<polygon fill="#63b8ff" stroke="#63b8ff" points="193.07,-27.45 186.45,-19.18 186.47,-29.78 193.07,-27.45"/>
</a>
</g>
</g>
<!-- Node20&#45;&gt;Node5 -->
<g id="edge25_Node000020_Node000005" class="edge">
<title>Node20&#45;&gt;Node5</title>
<g id="a_edge25_Node000020_Node000005"><a xlink:title=" ">
<path fill="none" stroke="#63b8ff" d="M476.39,-165C484.67,-156.07 498.05,-141.59 509.5,-129 524.05,-113 540.55,-94.59 552.04,-81.73"/>
<polygon fill="#63b8ff" stroke="#63b8ff" points="554.74,-83.95 558.79,-74.16 549.52,-79.29 554.74,-83.95"/>
</a>
</g>
</g>
<!-- Node21 -->
<g id="Node000021" class="node">
<title>Node21</title>
<g id="a_Node000021"><a xlink:title=" ">
<polygon fill="#e0e0e0" stroke="#999999" points="500.5,-129 420.5,-129 420.5,-110 500.5,-110 500.5,-129"/>
<text text-anchor="middle" x="460.5" y="-117" font-family="Helvetica,sans-Serif" font-size="10.00">semaphore.h</text>
</a>
</g>
</g>
<!-- Node20&#45;&gt;Node21 -->
<g id="edge24_Node000020_Node000021" class="edge">
<title>Node20&#45;&gt;Node21</title>
<g id="a_edge24_Node000020_Node000021"><a xlink:title=" ">
<path fill="none" stroke="#63b8ff" d="M467.18,-164.75C466.13,-157.8 464.63,-147.85 463.31,-139.13"/>
<polygon fill="#63b8ff" stroke="#63b8ff" points="466.75,-138.45 461.8,-129.09 459.83,-139.5 466.75,-138.45"/>
</a>
</g>
</g>
<!-- Node20&#45;&gt;Node22 -->
<g id="edge26_Node000020_Node000022" class="edge">
<title>Node20&#45;&gt;Node22</title>
<g id="a_edge26_Node000020_Node000022"><a xlink:title=" ">
<path fill="none" stroke="#63b8ff" d="M442.47,-164.98C415.39,-156.13 372.79,-142.19 342.49,-132.28"/>
<polygon fill="#63b8ff" stroke="#63b8ff" points="343.32,-128.87 332.73,-129.08 341.15,-135.52 343.32,-128.87"/>
</a>
</g>
</g>
<!-- Node22&#45;&gt;Node5 -->
<g id="edge29_Node000022_Node000005" class="edge">
<title>Node22&#45;&gt;Node5</title>
<g id="a_edge29_Node000022_Node000005"><a xlink:title=" ">
<path fill="none" stroke="#63b8ff" d="M348.27,-109.98C397.19,-100.01 477.66,-83.61 526.01,-73.75"/>
<polygon fill="#63b8ff" stroke="#63b8ff" points="526.72,-77.18 535.82,-71.75 525.32,-70.32 526.72,-77.18"/>
</a>
</g>
</g>
<!-- Node22&#45;&gt;Node18 -->
<g id="edge28_Node000022_Node000018" class="edge">
<title>Node22&#45;&gt;Node18</title>
<g id="a_edge28_Node000022_Node000018"><a xlink:title=" ">
<path fill="none" stroke="#63b8ff" d="M309.57,-109.8C313.51,-97.09 318.9,-73.02 310.5,-55 304.67,-42.49 293.41,-32.25 282.75,-24.76"/>
<polygon fill="#63b8ff" stroke="#63b8ff" points="284.38,-21.64 274.08,-19.13 280.56,-27.51 284.38,-21.64"/>
</a>
</g>
</g>
<!-- Node23 -->
<g id="Node000023" class="node">
<title>Node23</title>
<g id="a_Node000023"><a xlink:title=" ">
<polygon fill="#e0e0e0" stroke="#999999" points="302,-74 249,-74 249,-55 302,-55 302,-74"/>
<text text-anchor="middle" x="275.5" y="-62" font-family="Helvetica,sans-Serif" font-size="10.00">limits.h</text>
</a>
</g>
</g>
<!-- Node22&#45;&gt;Node23 -->
<g id="edge27_Node000022_Node000023" class="edge">
<title>Node22&#45;&gt;Node23</title>
<g id="a_edge27_Node000022_Node000023"><a xlink:title=" ">
<path fill="none" stroke="#63b8ff" d="M301.38,-109.75C297.14,-102.49 290.97,-91.95 285.72,-82.98"/>
<polygon fill="#63b8ff" stroke="#63b8ff" points="288.59,-80.95 280.52,-74.09 282.55,-84.49 288.59,-80.95"/>
</a>
</g>
</g>
<!-- Node24&#45;&gt;Node2 -->
<g id="edge31_Node000024_Node000002" class="edge">
<title>Node24&#45;&gt;Node2</title>
<g id="a_edge31_Node000024_Node000002"><a xlink:title=" ">
<path fill="none" stroke="#63b8ff" d="M279.6,-219.74C262.23,-197.13 216.62,-134.37 196.5,-74 191.6,-59.3 188.21,-42.05 186.12,-29.24"/>
<polygon fill="#63b8ff" stroke="#63b8ff" points="189.58,-28.66 184.62,-19.3 182.66,-29.71 189.58,-28.66"/>
</a>
</g>
</g>
<!-- Node24&#45;&gt;Node3 -->
<g id="edge32_Node000024_Node000003" class="edge">
<title>Node24&#45;&gt;Node3</title>
<g id="a_edge32_Node000024_Node000003"><a xlink:title=" ">
<path fill="none" stroke="#63b8ff" d="M276.13,-219.74C266.09,-211.06 250.66,-197.21 238.5,-184 188.72,-129.92 137.09,-59.34 114.4,-27.45"/>
<polygon fill="#63b8ff" stroke="#63b8ff" points="117.19,-25.33 108.56,-19.19 111.48,-29.38 117.19,-25.33"/>
</a>
</g>
</g>
<!-- Node24&#45;&gt;Node5 -->
<g id="edge33_Node000024_Node000005" class="edge">
<title>Node24&#45;&gt;Node5</title>
<g id="a_edge33_Node000024_Node000005"><a xlink:title=" ">
<path fill="none" stroke="#63b8ff" d="M293.07,-219.89C310.14,-198.11 358.28,-140.41 411.5,-110 447.36,-89.51 493.37,-77.86 525.92,-71.66"/>
<polygon fill="#63b8ff" stroke="#63b8ff" points="526.77,-75.06 535.98,-69.84 525.52,-68.18 526.77,-75.06"/>
</a>
</g>
</g>
<!-- Node24&#45;&gt;Node20 -->
<g id="edge34_Node000024_Node000020" class="edge">
<title>Node24&#45;&gt;Node20</title>
<g id="a_edge34_Node000024_Node000020"><a xlink:title=" ">
<path fill="none" stroke="#63b8ff" d="M315.74,-219.98C346.56,-211.01 395.28,-196.82 429.39,-186.89"/>
<polygon fill="#63b8ff" stroke="#63b8ff" points="430.41,-190.24 439.03,-184.08 428.45,-183.52 430.41,-190.24"/>
</a>
</g>
</g>
<!-- Node25&#45;&gt;Node5 -->
<g id="edge38_Node000025_Node000005" class="edge">
<title>Node25&#45;&gt;Node5</title>
<g id="a_edge38_Node000025_Node000005"><a xlink:title=" ">
<path fill="none" stroke="#63b8ff" d="M624.65,-281.63C683.19,-277.92 789.15,-267.37 812.5,-239 878.72,-158.54 692.55,-98.16 606.98,-75.4"/>
<polygon fill="#63b8ff" stroke="#63b8ff" points="607.62,-71.95 597.06,-72.81 605.85,-78.72 607.62,-71.95"/>
</a>
</g>
</g>
<!-- Node25&#45;&gt;Node24 -->
<g id="edge43_Node000025_Node000024" class="edge">
<title>Node25&#45;&gt;Node24</title>
<g id="a_edge43_Node000025_Node000024"><a xlink:title=" ">
<path fill="none" stroke="#63b8ff" d="M546.41,-276.57C494.94,-267.45 404,-251.33 344.5,-240.78"/>
<polygon fill="#63b8ff" stroke="#63b8ff" points="344.96,-237.31 334.5,-239.01 343.73,-244.2 344.96,-237.31"/>
</a>
</g>
</g>
<!-- Node26 -->
<g id="Node000026" class="node">
<title>Node26</title>
<g id="a_Node000026"><a xlink:title=" ">
<polygon fill="#e0e0e0" stroke="#999999" points="804,-239 749,-239 749,-220 804,-220 804,-239"/>
<text text-anchor="middle" x="776.5" y="-227" font-family="Helvetica,sans-Serif" font-size="10.00">signal.h</text>
</a>
</g>
</g>
<!-- Node25&#45;&gt;Node26 -->
<g id="edge37_Node000025_Node000026" class="edge">
<title>Node25&#45;&gt;Node26</title>
<g id="a_edge37_Node000025_Node000026"><a xlink:title=" ">
<path fill="none" stroke="#63b8ff" d="M616.19,-274.98C649.59,-265.72 703.01,-250.89 738.91,-240.93"/>
<polygon fill="#63b8ff" stroke="#63b8ff" points="740.29,-244.18 748.99,-238.13 738.42,-237.44 740.29,-244.18"/>
</a>
</g>
</g>
<!-- Node27 -->
<g id="Node000027" class="node">
<title>Node27</title>
<g id="a_Node000027"><a xlink:href="SensorDataPipe_8h.html" target="_top" xlink:title="Lock&#45;Free Data Pipeline.">
<polygon fill="white" stroke="#666666" points="586,-239 419,-239 419,-220 586,-220 586,-239"/>
<text text-anchor="middle" x="502.5" y="-227" font-family="Helvetica,sans-Serif" font-size="10.00">src/Common/SensorDataPipe.h</text>
</a>
</g>
</g>
<!-- Node25&#45;&gt;Node27 -->
<g id="edge39_Node000025_Node000027" class="edge">
<title>Node25&#45;&gt;Node27</title>
<g id="a_edge39_Node000025_Node000027"><a xlink:title=" ">
<path fill="none" stroke="#63b8ff" d="M572.16,-274.98C559.41,-266.84 539.95,-254.41 524.83,-244.76"/>
<polygon fill="#63b8ff" stroke="#63b8ff" points="526.39,-241.6 516.08,-239.17 522.62,-247.5 526.39,-241.6"/>
</a>
</g>
</g>
<!-- Node29 -->
<g id="Node000029" class="node">
<title>Node29</title>
<g id="a_Node000029"><a xlink:href="cJSON_8h.html" target="_top" xlink:title=" ">
<polygon fill="white" stroke="#666666" points="731,-239 604,-239 604,-220 731,-220 731,-239"/>
<text text-anchor="middle" x="667.5" y="-227" font-family="Helvetica,sans-Serif" font-size="10.00">src/Libs/cJSON/cJSON.h</text>
</a>
</g>
</g>
<!-- Node25&#45;&gt;Node29 -->
<g id="edge44_Node000025_Node000029" class="edge">
<title>Node25&#45;&gt;Node29</title>
<g id="a_edge44_Node000025_Node000029"><a xlink:title=" ">
<path fill="none" stroke="#63b8ff" d="M598.67,-274.98C611.27,-266.84 630.5,-254.41 645.44,-244.76"/>
<polygon fill="#63b8ff" stroke="#63b8ff" points="647.59,-247.54 654.09,-239.17 643.79,-241.66 647.59,-247.54"/>
</a>
</g>
</g>
<!-- Node27&#45;&gt;Node5 -->
<g id="edge41_Node000027_Node000005" class="edge">
<title>Node27&#45;&gt;Node5</title>
<g id="a_edge41_Node000027_Node000005"><a xlink:title=" ">
<path fill="none" stroke="#63b8ff" d="M511.85,-219.87C520.34,-211.5 532.56,-198.05 539.5,-184 555.72,-151.17 562.35,-108.41 564.95,-84.25"/>
<polygon fill="#63b8ff" stroke="#63b8ff" points="568.43,-84.58 565.9,-74.29 561.46,-83.92 568.43,-84.58"/>
</a>
</g>
</g>
<!-- Node27&#45;&gt;Node20 -->
<g id="edge42_Node000027_Node000020" class="edge">
<title>Node27&#45;&gt;Node20</title>
<g id="a_edge42_Node000027_Node000020"><a xlink:title=" ">
<path fill="none" stroke="#63b8ff" d="M496.89,-219.75C492.18,-212.42 485.33,-201.73 479.53,-192.7"/>
<polygon fill="#63b8ff" stroke="#63b8ff" points="482.36,-190.62 474.01,-184.09 476.46,-194.4 482.36,-190.62"/>
</a>
</g>
</g>
<!-- Node28 -->
<g id="Node000028" class="node">
<title>Node28</title>
<g id="a_Node000028"><a xlink:title=" ">
<polygon fill="#e0e0e0" stroke="#999999" points="668.5,-184 594.5,-184 594.5,-165 668.5,-165 668.5,-184"/>
<text text-anchor="middle" x="631.5" y="-172" font-family="Helvetica,sans-Serif" font-size="10.00">stdatomic.h</text>
</a>
</g>
</g>
<!-- Node27&#45;&gt;Node28 -->
<g id="edge40_Node000027_Node000028" class="edge">
<title>Node27&#45;&gt;Node28</title>
<g id="a_edge40_Node000027_Node000028"><a xlink:title=" ">
<path fill="none" stroke="#63b8ff" d="M523.23,-219.98C544.26,-211.34 577.05,-197.87 601.04,-188.02"/>
<polygon fill="#63b8ff" stroke="#63b8ff" points="602.48,-191.21 610.4,-184.17 599.82,-184.73 602.48,-191.21"/>
</a>
</g>
</g>
<!-- Node30 -->
<g id="Node000030" class="node">
<title>Node30</title>
<g id="a_Node000030"><a xlink:title=" ">
<polygon fill="#e0e0e0" stroke="#999999" points="742.5,-184 686.5,-184 686.5,-165 742.5,-165 742.5,-184"/>
<text text-anchor="middle" x="714.5" y="-172" font-family="Helvetica,sans-Serif" font-size="10.00">stddef.h</text>
</a>
</g>
</g>
<!-- Node29&#45;&gt;Node30 -->
<g id="edge45_Node000029_Node000030" class="edge">
<title>Node29&#45;&gt;Node30</title>
<g id="a_edge45_Node000029_Node000030"><a xlink:title=" ">
<path fill="none" stroke="#63b8ff" d="M675.26,-219.75C681.97,-212.18 691.84,-201.05 700.01,-191.84"/>
<polygon fill="#63b8ff" stroke="#63b8ff" points="702.87,-193.89 706.88,-184.09 697.63,-189.25 702.87,-193.89"/>
</a>
</g>
</g>
</g>
</svg>
