<?xml version="1.0" encoding="UTF-8" standalone="no"?>
<!DOCTYPE svg PUBLIC "-//W3C//DTD SVG 1.1//EN"
 "http://www.w3.org/Graphics/SVG/1.1/DTD/svg11.dtd">
<!-- Generated by graphviz version 2.43.0 (0)
 -->
<!-- Title: SdbBarrierWait Pages: 1 -->
<svg width="437pt" height="142pt"
 viewBox="0.00 0.00 437.00 142.00" xmlns="http://www.w3.org/2000/svg" xmlns:xlink="http://www.w3.org/1999/xlink">
<g id="graph0" class="graph" transform="scale(1 1) rotate(0) translate(4 138)">
<title>SdbBarrierWait</title>
<polygon fill="white" stroke="transparent" points="-4,4 -4,-138 433,-138 433,4 -4,4"/>
<!-- Node1 -->
<g id="node1" class="node">
<title>Node1</title>
<g id="a_node1"><a xlink:title="Wait on a thread barrier.">
<polygon fill="#bfbfbf" stroke="black" points="340,-57.5 340,-76.5 429,-76.5 429,-57.5 340,-57.5"/>
<text text-anchor="middle" x="384.5" y="-64.5" font-family="Helvetica,sans-Serif" font-size="10.00">SdbBarrierWait</text>
</a>
</g>
</g>
<!-- Node2 -->
<g id="node2" class="node">
<title>Node2</title>
<g id="a_node2"><a xlink:href="DataHandlers_2ModbusWithPostgres_2Modbus_8c.html#a1660e1b6915b7758a7708e89c8445cbf" target="_top" xlink:title="Implements throughput testing for Modbus data pipe.">
<polygon fill="white" stroke="black" points="176,-114.5 176,-133.5 304,-133.5 304,-114.5 176,-114.5"/>
<text text-anchor="middle" x="240" y="-121.5" font-family="Helvetica,sans-Serif" font-size="10.00">MbPipeThroughputTest</text>
</a>
</g>
</g>
<!-- Node1&#45;&gt;Node2 -->
<g id="edge1" class="edge">
<title>Node1&#45;&gt;Node2</title>
<path fill="none" stroke="midnightblue" d="M356.25,-81.3C341.11,-88.92 321.79,-98.11 304,-105 295.05,-108.46 285.19,-111.7 275.98,-114.49"/>
<polygon fill="midnightblue" stroke="midnightblue" points="358.22,-84.23 365.53,-76.56 355.04,-77.99 358.22,-84.23"/>
</g>
<!-- Node4 -->
<g id="node4" class="node">
<title>Node4</title>
<g id="a_node4"><a xlink:href="DataHandlers_2ModbusWithPostgres_2Modbus_8c.html#ac42f810b60d139ab2f82c4146710d721" target="_top" xlink:title="Implements main Modbus thread loop.">
<polygon fill="white" stroke="black" points="215,-76.5 215,-95.5 265,-95.5 265,-76.5 215,-76.5"/>
<text text-anchor="middle" x="240" y="-83.5" font-family="Helvetica,sans-Serif" font-size="10.00">MbRun</text>
</a>
</g>
</g>
<!-- Node1&#45;&gt;Node4 -->
<g id="edge3" class="edge">
<title>Node1&#45;&gt;Node4</title>
<path fill="none" stroke="midnightblue" d="M329.95,-74.14C307.68,-77.11 282.94,-80.41 265.22,-82.77"/>
<polygon fill="midnightblue" stroke="midnightblue" points="330.52,-77.59 339.97,-72.8 329.6,-70.66 330.52,-77.59"/>
</g>
<!-- Node6 -->
<g id="node6" class="node">
<title>Node6</title>
<g id="a_node6"><a xlink:href="DataHandlers_2ModbusWithPostgres_2Postgres_8c.html#a5f5041cd700c888724519dddcc5413a0" target="_top" xlink:title="Main PostgreSQL operation loop.">
<polygon fill="white" stroke="black" points="216.5,-38.5 216.5,-57.5 263.5,-57.5 263.5,-38.5 216.5,-38.5"/>
<text text-anchor="middle" x="240" y="-45.5" font-family="Helvetica,sans-Serif" font-size="10.00">PgRun</text>
</a>
</g>
</g>
<!-- Node1&#45;&gt;Node6 -->
<g id="edge5" class="edge">
<title>Node1&#45;&gt;Node6</title>
<path fill="none" stroke="midnightblue" d="M329.98,-59.86C307.02,-56.8 281.43,-53.39 263.61,-51.01"/>
<polygon fill="midnightblue" stroke="midnightblue" points="329.6,-63.34 339.97,-61.2 330.52,-56.41 329.6,-63.34"/>
</g>
<!-- Node8 -->
<g id="node8" class="node">
<title>Node8</title>
<g id="a_node8"><a xlink:href="ModbusTestServer_8c.html#a0b60204e0a9d1577d141cdc21367ac70" target="_top" xlink:title="Main Modbus Test Server routine.">
<polygon fill="white" stroke="black" points="177.5,-0.5 177.5,-19.5 302.5,-19.5 302.5,-0.5 177.5,-0.5"/>
<text text-anchor="middle" x="240" y="-7.5" font-family="Helvetica,sans-Serif" font-size="10.00">RunModbusTestServer</text>
</a>
</g>
</g>
<!-- Node1&#45;&gt;Node8 -->
<g id="edge7" class="edge">
<title>Node1&#45;&gt;Node8</title>
<path fill="none" stroke="midnightblue" d="M356.25,-52.7C341.11,-45.08 321.79,-35.89 304,-29 295.05,-25.54 285.19,-22.3 275.98,-19.51"/>
<polygon fill="midnightblue" stroke="midnightblue" points="355.04,-56.01 365.53,-57.44 358.22,-49.77 355.04,-56.01"/>
</g>
<!-- Node3 -->
<g id="node3" class="node">
<title>Node3</title>
<g id="a_node3"><a xlink:href="ModbusWithPostgres_8c.html#a4908768aa1a5e0d60263a772b69e593b" target="_top" xlink:title="Modbus data pipe throughput test.">
<polygon fill="white" stroke="black" points="0,-114.5 0,-133.5 140,-133.5 140,-114.5 0,-114.5"/>
<text text-anchor="middle" x="70" y="-121.5" font-family="Helvetica,sans-Serif" font-size="10.00">MbPgPipeThroughputTest</text>
</a>
</g>
</g>
<!-- Node2&#45;&gt;Node3 -->
<g id="edge2" class="edge">
<title>Node2&#45;&gt;Node3</title>
<path fill="none" stroke="midnightblue" d="M165.95,-124C157.34,-124 148.57,-124 140.02,-124"/>
<polygon fill="midnightblue" stroke="midnightblue" points="165.97,-127.5 175.97,-124 165.96,-120.5 165.97,-127.5"/>
</g>
<!-- Node5 -->
<g id="node5" class="node">
<title>Node5</title>
<g id="a_node5"><a xlink:href="ModbusWithPostgres_8c.html#a8c3906cc056f92e50b5a2bf468e5e221" target="_top" xlink:title="Modbus thread implementation.">
<polygon fill="white" stroke="black" points="37.5,-76.5 37.5,-95.5 102.5,-95.5 102.5,-76.5 37.5,-76.5"/>
<text text-anchor="middle" x="70" y="-83.5" font-family="Helvetica,sans-Serif" font-size="10.00">MbThread</text>
</a>
</g>
</g>
<!-- Node4&#45;&gt;Node5 -->
<g id="edge4" class="edge">
<title>Node4&#45;&gt;Node5</title>
<path fill="none" stroke="midnightblue" d="M204.57,-86C174.7,-86 131.83,-86 102.77,-86"/>
<polygon fill="midnightblue" stroke="midnightblue" points="204.93,-89.5 214.93,-86 204.93,-82.5 204.93,-89.5"/>
</g>
<!-- Node7 -->
<g id="node7" class="node">
<title>Node7</title>
<g id="a_node7"><a xlink:href="ModbusWithPostgres_8c.html#a74049820bc4d231783641b0bfdc3a723" target="_top" xlink:title="PostgreSQL thread implementation.">
<polygon fill="white" stroke="black" points="39,-38.5 39,-57.5 101,-57.5 101,-38.5 39,-38.5"/>
<text text-anchor="middle" x="70" y="-45.5" font-family="Helvetica,sans-Serif" font-size="10.00">PgThread</text>
</a>
</g>
</g>
<!-- Node6&#45;&gt;Node7 -->
<g id="edge6" class="edge">
<title>Node6&#45;&gt;Node7</title>
<path fill="none" stroke="midnightblue" d="M206.23,-48C175.79,-48 130.83,-48 101.24,-48"/>
<polygon fill="midnightblue" stroke="midnightblue" points="206.34,-51.5 216.34,-48 206.34,-44.5 206.34,-51.5"/>
</g>
<!-- Node9 -->
<g id="node9" class="node">
<title>Node9</title>
<g id="a_node9"><a xlink:href="ModbusWithPostgres_8c.html#a95ff30564606583a3d26294e2d8dbad1" target="_top" xlink:title="Modbus test server thread.">
<polygon fill="white" stroke="black" points="22.5,-0.5 22.5,-19.5 117.5,-19.5 117.5,-0.5 22.5,-0.5"/>
<text text-anchor="middle" x="70" y="-7.5" font-family="Helvetica,sans-Serif" font-size="10.00">MbPgTestServer</text>
</a>
</g>
</g>
<!-- Node8&#45;&gt;Node9 -->
<g id="edge8" class="edge">
<title>Node8&#45;&gt;Node9</title>
<path fill="none" stroke="midnightblue" d="M167.07,-10C150.32,-10 132.91,-10 117.59,-10"/>
<polygon fill="midnightblue" stroke="midnightblue" points="167.4,-13.5 177.4,-10 167.4,-6.5 167.4,-13.5"/>
</g>
</g>
</svg>
