<?xml version="1.0" encoding="UTF-8" standalone="no"?>
<!DOCTYPE svg PUBLIC "-//W3C//DTD SVG 1.1//EN"
 "http://www.w3.org/Graphics/SVG/1.1/DTD/svg11.dtd">
<!-- Generated by graphviz version 2.43.0 (0)
 -->
<!-- Title: src/Common/Thread.c Pages: 1 -->
<svg width="1240pt" height="252pt"
 viewBox="0.00 0.00 1239.50 252.00" xmlns="http://www.w3.org/2000/svg" xmlns:xlink="http://www.w3.org/1999/xlink">
<g id="graph0" class="graph" transform="scale(1 1) rotate(0) translate(4 248)">
<title>src/Common/Thread.c</title>
<polygon fill="white" stroke="transparent" points="-4,4 -4,-248 1235.5,-248 1235.5,4 -4,4"/>
<!-- Node1 -->
<g id="node1" class="node">
<title>Node1</title>
<g id="a_node1"><a xlink:title="Implementation of POSIX Thread Synchronization Primitives.">
<polygon fill="#bfbfbf" stroke="black" points="623,-224.5 623,-243.5 746,-243.5 746,-224.5 623,-224.5"/>
<text text-anchor="middle" x="684.5" y="-231.5" font-family="Helvetica,sans-Serif" font-size="10.00">src/Common/Thread.c</text>
</a>
</g>
</g>
<!-- Node2 -->
<g id="node2" class="node">
<title>Node2</title>
<g id="a_node2"><a xlink:title=" ">
<polygon fill="white" stroke="#bfbfbf" points="0,-0.5 0,-19.5 63,-19.5 63,-0.5 0,-0.5"/>
<text text-anchor="middle" x="31.5" y="-7.5" font-family="Helvetica,sans-Serif" font-size="10.00">pthread.h</text>
</a>
</g>
</g>
<!-- Node1&#45;&gt;Node2 -->
<g id="edge1" class="edge">
<title>Node1&#45;&gt;Node2</title>
<path fill="none" stroke="midnightblue" d="M647.41,-224.48C612.18,-216.11 557.84,-202.53 511.5,-188 338.74,-133.82 136.76,-53.7 61.64,-23.3"/>
<polygon fill="midnightblue" stroke="midnightblue" points="62.88,-20.03 52.3,-19.51 60.25,-26.51 62.88,-20.03"/>
</g>
<!-- Node3 -->
<g id="node3" class="node">
<title>Node3</title>
<g id="a_node3"><a xlink:title=" ">
<polygon fill="white" stroke="#bfbfbf" points="597.5,-112.5 597.5,-131.5 677.5,-131.5 677.5,-112.5 597.5,-112.5"/>
<text text-anchor="middle" x="637.5" y="-119.5" font-family="Helvetica,sans-Serif" font-size="10.00">semaphore.h</text>
</a>
</g>
</g>
<!-- Node1&#45;&gt;Node3 -->
<g id="edge2" class="edge">
<title>Node1&#45;&gt;Node3</title>
<path fill="none" stroke="midnightblue" d="M682.75,-224.32C680.02,-211.61 674.14,-187.32 665.5,-168 661.13,-158.24 654.96,-148.06 649.52,-139.86"/>
<polygon fill="midnightblue" stroke="midnightblue" points="652.37,-137.83 643.82,-131.57 646.6,-141.79 652.37,-137.83"/>
</g>
<!-- Node4 -->
<g id="node4" class="node">
<title>Node4</title>
<g id="a_node4"><a xlink:title=" ">
<polygon fill="white" stroke="#bfbfbf" points="870.5,-168.5 870.5,-187.5 944.5,-187.5 944.5,-168.5 870.5,-168.5"/>
<text text-anchor="middle" x="907.5" y="-175.5" font-family="Helvetica,sans-Serif" font-size="10.00">stdatomic.h</text>
</a>
</g>
</g>
<!-- Node1&#45;&gt;Node4 -->
<g id="edge3" class="edge">
<title>Node1&#45;&gt;Node4</title>
<path fill="none" stroke="midnightblue" d="M719.84,-224.44C758.41,-215.1 820.28,-200.12 862.35,-189.93"/>
<polygon fill="midnightblue" stroke="midnightblue" points="863.43,-193.27 872.33,-187.52 861.79,-186.47 863.43,-193.27"/>
</g>
<!-- Node5 -->
<g id="node5" class="node">
<title>Node5</title>
<g id="a_node5"><a xlink:title=" ">
<polygon fill="white" stroke="#bfbfbf" points="1183.5,-0.5 1183.5,-19.5 1231.5,-19.5 1231.5,-0.5 1183.5,-0.5"/>
<text text-anchor="middle" x="1207.5" y="-7.5" font-family="Helvetica,sans-Serif" font-size="10.00">time.h</text>
</a>
</g>
</g>
<!-- Node1&#45;&gt;Node5 -->
<g id="edge4" class="edge">
<title>Node1&#45;&gt;Node5</title>
<path fill="none" stroke="midnightblue" d="M704.68,-224.43C785.09,-190.3 1082.88,-63.9 1178.05,-23.5"/>
<polygon fill="midnightblue" stroke="midnightblue" points="1179.54,-26.67 1187.38,-19.54 1176.81,-20.23 1179.54,-26.67"/>
</g>
<!-- Node6 -->
<g id="node6" class="node">
<title>Node6</title>
<g id="a_node6"><a xlink:href="Sdb_8h.html" target="_top" xlink:title=" ">
<polygon fill="white" stroke="black" points="560,-56.5 560,-75.5 621,-75.5 621,-56.5 560,-56.5"/>
<text text-anchor="middle" x="590.5" y="-63.5" font-family="Helvetica,sans-Serif" font-size="10.00">src/Sdb.h</text>
</a>
</g>
</g>
<!-- Node1&#45;&gt;Node6 -->
<g id="edge5" class="edge">
<title>Node1&#45;&gt;Node6</title>
<path fill="none" stroke="midnightblue" d="M627.54,-224.49C586.53,-217.06 536.26,-204.82 523.5,-188 496.93,-152.98 542.62,-106.17 570.81,-82.34"/>
<polygon fill="midnightblue" stroke="midnightblue" points="573.38,-84.76 578.9,-75.72 568.94,-79.35 573.38,-84.76"/>
</g>
<!-- Node22 -->
<g id="node22" class="node">
<title>Node22</title>
<g id="a_node22"><a xlink:href="Thread_8h.html" target="_top" xlink:title="Lightweight Synchronization Primitives Wrapper.">
<polygon fill="white" stroke="black" points="532.5,-168.5 532.5,-187.5 656.5,-187.5 656.5,-168.5 532.5,-168.5"/>
<text text-anchor="middle" x="594.5" y="-175.5" font-family="Helvetica,sans-Serif" font-size="10.00">src/Common/Thread.h</text>
</a>
</g>
</g>
<!-- Node1&#45;&gt;Node22 -->
<g id="edge23" class="edge">
<title>Node1&#45;&gt;Node22</title>
<path fill="none" stroke="midnightblue" d="M670.04,-224.32C656,-215.9 634.45,-202.97 617.96,-193.07"/>
<polygon fill="midnightblue" stroke="midnightblue" points="619.3,-189.8 608.92,-187.65 615.7,-195.8 619.3,-189.8"/>
</g>
<!-- Node23 -->
<g id="node23" class="node">
<title>Node23</title>
<g id="a_node23"><a xlink:href="Time_8h.html" target="_top" xlink:title="Lightweight Time Manipulation Utilities.">
<polygon fill="white" stroke="black" points="696,-112.5 696,-131.5 811,-131.5 811,-112.5 696,-112.5"/>
<text text-anchor="middle" x="753.5" y="-119.5" font-family="Helvetica,sans-Serif" font-size="10.00">src/Common/Time.h</text>
</a>
</g>
</g>
<!-- Node1&#45;&gt;Node23 -->
<g id="edge31" class="edge">
<title>Node1&#45;&gt;Node23</title>
<path fill="none" stroke="midnightblue" d="M689.91,-224.37C701.25,-206.3 727.67,-164.18 742.64,-140.31"/>
<polygon fill="midnightblue" stroke="midnightblue" points="745.76,-141.92 748.11,-131.59 739.83,-138.2 745.76,-141.92"/>
</g>
<!-- Node6&#45;&gt;Node2 -->
<g id="edge12" class="edge">
<title>Node6&#45;&gt;Node2</title>
<path fill="none" stroke="midnightblue" d="M559.6,-58.31C554.89,-57.44 550.08,-56.63 545.5,-56 339.47,-27.68 282.23,-50.53 73.36,-20.08"/>
<polygon fill="midnightblue" stroke="midnightblue" points="73.7,-16.6 63.3,-18.59 72.68,-23.52 73.7,-16.6"/>
</g>
<!-- Node6&#45;&gt;Node5 -->
<g id="edge20" class="edge">
<title>Node6&#45;&gt;Node5</title>
<path fill="none" stroke="midnightblue" d="M621.08,-62.72C731.24,-54.51 1104.53,-26.59 1173.44,-19.36"/>
<polygon fill="midnightblue" stroke="midnightblue" points="1173.97,-22.82 1183.47,-18.12 1173.11,-15.87 1173.97,-22.82"/>
</g>
<!-- Node7 -->
<g id="node7" class="node">
<title>Node7</title>
<g id="a_node7"><a xlink:title=" ">
<polygon fill="white" stroke="#bfbfbf" points="1037.5,-0.5 1037.5,-19.5 1093.5,-19.5 1093.5,-0.5 1037.5,-0.5"/>
<text text-anchor="middle" x="1065.5" y="-7.5" font-family="Helvetica,sans-Serif" font-size="10.00">assert.h</text>
</a>
</g>
</g>
<!-- Node6&#45;&gt;Node7 -->
<g id="edge6" class="edge">
<title>Node6&#45;&gt;Node7</title>
<path fill="none" stroke="midnightblue" d="M621.1,-62.4C703.97,-55.29 932.35,-35.1 1027.21,-19.96"/>
<polygon fill="midnightblue" stroke="midnightblue" points="1028.01,-23.37 1037.3,-18.28 1026.86,-16.47 1028.01,-23.37"/>
</g>
<!-- Node8 -->
<g id="node8" class="node">
<title>Node8</title>
<g id="a_node8"><a xlink:title=" ">
<polygon fill="white" stroke="#bfbfbf" points="1112,-0.5 1112,-19.5 1165,-19.5 1165,-0.5 1112,-0.5"/>
<text text-anchor="middle" x="1138.5" y="-7.5" font-family="Helvetica,sans-Serif" font-size="10.00">ctype.h</text>
</a>
</g>
</g>
<!-- Node6&#45;&gt;Node8 -->
<g id="edge7" class="edge">
<title>Node6&#45;&gt;Node8</title>
<path fill="none" stroke="midnightblue" d="M621.33,-62.58C719.64,-54.81 1023.37,-30.5 1101.65,-19.71"/>
<polygon fill="midnightblue" stroke="midnightblue" points="1102.5,-23.12 1111.86,-18.16 1101.45,-16.2 1102.5,-23.12"/>
</g>
<!-- Node9 -->
<g id="node9" class="node">
<title>Node9</title>
<g id="a_node9"><a xlink:title=" ">
<polygon fill="white" stroke="#bfbfbf" points="81,-0.5 81,-19.5 132,-19.5 132,-0.5 81,-0.5"/>
<text text-anchor="middle" x="106.5" y="-7.5" font-family="Helvetica,sans-Serif" font-size="10.00">errno.h</text>
</a>
</g>
</g>
<!-- Node6&#45;&gt;Node9 -->
<g id="edge8" class="edge">
<title>Node6&#45;&gt;Node9</title>
<path fill="none" stroke="midnightblue" d="M559.59,-58.36C554.88,-57.48 550.07,-56.66 545.5,-56 369.87,-30.71 320.27,-50.49 141.99,-19.99"/>
<polygon fill="midnightblue" stroke="midnightblue" points="142.47,-16.52 132.02,-18.25 141.27,-23.42 142.47,-16.52"/>
</g>
<!-- Node10 -->
<g id="node10" class="node">
<title>Node10</title>
<g id="a_node10"><a xlink:title=" ">
<polygon fill="white" stroke="#bfbfbf" points="150,-0.5 150,-19.5 197,-19.5 197,-0.5 150,-0.5"/>
<text text-anchor="middle" x="173.5" y="-7.5" font-family="Helvetica,sans-Serif" font-size="10.00">fcntl.h</text>
</a>
</g>
</g>
<!-- Node6&#45;&gt;Node10 -->
<g id="edge9" class="edge">
<title>Node6&#45;&gt;Node10</title>
<path fill="none" stroke="midnightblue" d="M559.58,-58.43C554.88,-57.54 550.07,-56.7 545.5,-56 398.51,-33.57 356.52,-48.02 207.16,-20.04"/>
<polygon fill="midnightblue" stroke="midnightblue" points="207.64,-16.57 197.16,-18.13 206.33,-23.44 207.64,-16.57"/>
</g>
<!-- Node11 -->
<g id="node11" class="node">
<title>Node11</title>
<g id="a_node11"><a xlink:title=" ">
<polygon fill="white" stroke="#bfbfbf" points="215,-0.5 215,-19.5 262,-19.5 262,-0.5 215,-0.5"/>
<text text-anchor="middle" x="238.5" y="-7.5" font-family="Helvetica,sans-Serif" font-size="10.00">float.h</text>
</a>
</g>
</g>
<!-- Node6&#45;&gt;Node11 -->
<g id="edge10" class="edge">
<title>Node6&#45;&gt;Node11</title>
<path fill="none" stroke="midnightblue" d="M559.56,-58.53C554.86,-57.63 550.06,-56.75 545.5,-56 427.09,-36.43 393.04,-44.3 272.19,-20.11"/>
<polygon fill="midnightblue" stroke="midnightblue" points="272.67,-16.63 262.17,-18.07 271.27,-23.49 272.67,-16.63"/>
</g>
<!-- Node12 -->
<g id="node12" class="node">
<title>Node12</title>
<g id="a_node12"><a xlink:title=" ">
<polygon fill="white" stroke="#bfbfbf" points="280,-0.5 280,-19.5 331,-19.5 331,-0.5 280,-0.5"/>
<text text-anchor="middle" x="305.5" y="-7.5" font-family="Helvetica,sans-Serif" font-size="10.00">math.h</text>
</a>
</g>
</g>
<!-- Node6&#45;&gt;Node12 -->
<g id="edge11" class="edge">
<title>Node6&#45;&gt;Node12</title>
<path fill="none" stroke="midnightblue" d="M559.53,-58.71C554.84,-57.78 550.04,-56.85 545.5,-56 457.69,-39.51 432.62,-39.51 341.04,-19.97"/>
<polygon fill="midnightblue" stroke="midnightblue" points="341.57,-16.5 331.06,-17.82 340.1,-23.35 341.57,-16.5"/>
</g>
<!-- Node13 -->
<g id="node13" class="node">
<title>Node13</title>
<g id="a_node13"><a xlink:title=" ">
<polygon fill="white" stroke="#bfbfbf" points="349.5,-0.5 349.5,-19.5 405.5,-19.5 405.5,-0.5 349.5,-0.5"/>
<text text-anchor="middle" x="377.5" y="-7.5" font-family="Helvetica,sans-Serif" font-size="10.00">stdarg.h</text>
</a>
</g>
</g>
<!-- Node6&#45;&gt;Node13 -->
<g id="edge13" class="edge">
<title>Node6&#45;&gt;Node13</title>
<path fill="none" stroke="midnightblue" d="M559.98,-57.26C521.91,-47.61 456.81,-31.11 415.53,-20.64"/>
<polygon fill="midnightblue" stroke="midnightblue" points="416.14,-17.18 405.58,-18.12 414.42,-23.97 416.14,-17.18"/>
</g>
<!-- Node14 -->
<g id="node14" class="node">
<title>Node14</title>
<g id="a_node14"><a xlink:title=" ">
<polygon fill="white" stroke="#bfbfbf" points="424,-0.5 424,-19.5 477,-19.5 477,-0.5 424,-0.5"/>
<text text-anchor="middle" x="450.5" y="-7.5" font-family="Helvetica,sans-Serif" font-size="10.00">stdint.h</text>
</a>
</g>
</g>
<!-- Node6&#45;&gt;Node14 -->
<g id="edge14" class="edge">
<title>Node6&#45;&gt;Node14</title>
<path fill="none" stroke="midnightblue" d="M568.32,-56.44C545.07,-47.48 508.35,-33.31 482.08,-23.18"/>
<polygon fill="midnightblue" stroke="midnightblue" points="483.17,-19.85 472.58,-19.52 480.65,-26.38 483.17,-19.85"/>
</g>
<!-- Node15 -->
<g id="node15" class="node">
<title>Node15</title>
<g id="a_node15"><a xlink:title=" ">
<polygon fill="white" stroke="#bfbfbf" points="495.5,-0.5 495.5,-19.5 545.5,-19.5 545.5,-0.5 495.5,-0.5"/>
<text text-anchor="middle" x="520.5" y="-7.5" font-family="Helvetica,sans-Serif" font-size="10.00">stdio.h</text>
</a>
</g>
</g>
<!-- Node6&#45;&gt;Node15 -->
<g id="edge15" class="edge">
<title>Node6&#45;&gt;Node15</title>
<path fill="none" stroke="midnightblue" d="M579.25,-56.32C568.7,-48.18 552.7,-35.84 540.06,-26.09"/>
<polygon fill="midnightblue" stroke="midnightblue" points="542.01,-23.17 531.95,-19.83 537.73,-28.71 542.01,-23.17"/>
</g>
<!-- Node16 -->
<g id="node16" class="node">
<title>Node16</title>
<g id="a_node16"><a xlink:title=" ">
<polygon fill="white" stroke="#bfbfbf" points="564,-0.5 564,-19.5 617,-19.5 617,-0.5 564,-0.5"/>
<text text-anchor="middle" x="590.5" y="-7.5" font-family="Helvetica,sans-Serif" font-size="10.00">stdlib.h</text>
</a>
</g>
</g>
<!-- Node6&#45;&gt;Node16 -->
<g id="edge16" class="edge">
<title>Node6&#45;&gt;Node16</title>
<path fill="none" stroke="midnightblue" d="M590.5,-56.08C590.5,-49.01 590.5,-38.86 590.5,-29.99"/>
<polygon fill="midnightblue" stroke="midnightblue" points="594,-29.75 590.5,-19.75 587,-29.75 594,-29.75"/>
</g>
<!-- Node17 -->
<g id="node17" class="node">
<title>Node17</title>
<g id="a_node17"><a xlink:title=" ">
<polygon fill="white" stroke="#bfbfbf" points="635,-0.5 635,-19.5 688,-19.5 688,-0.5 635,-0.5"/>
<text text-anchor="middle" x="661.5" y="-7.5" font-family="Helvetica,sans-Serif" font-size="10.00">string.h</text>
</a>
</g>
</g>
<!-- Node6&#45;&gt;Node17 -->
<g id="edge17" class="edge">
<title>Node6&#45;&gt;Node17</title>
<path fill="none" stroke="midnightblue" d="M601.91,-56.32C612.61,-48.18 628.84,-35.84 641.66,-26.09"/>
<polygon fill="midnightblue" stroke="midnightblue" points="644.04,-28.67 649.89,-19.83 639.81,-23.1 644.04,-28.67"/>
</g>
<!-- Node18 -->
<g id="node18" class="node">
<title>Node18</title>
<g id="a_node18"><a xlink:title=" ">
<polygon fill="white" stroke="#bfbfbf" points="706,-0.5 706,-19.5 783,-19.5 783,-0.5 706,-0.5"/>
<text text-anchor="middle" x="744.5" y="-7.5" font-family="Helvetica,sans-Serif" font-size="10.00">sys/mman.h</text>
</a>
</g>
</g>
<!-- Node6&#45;&gt;Node18 -->
<g id="edge18" class="edge">
<title>Node6&#45;&gt;Node18</title>
<path fill="none" stroke="midnightblue" d="M614.9,-56.44C640.7,-47.4 681.58,-33.06 710.52,-22.92"/>
<polygon fill="midnightblue" stroke="midnightblue" points="711.93,-26.13 720.21,-19.52 709.62,-19.52 711.93,-26.13"/>
</g>
<!-- Node19 -->
<g id="node19" class="node">
<title>Node19</title>
<g id="a_node19"><a xlink:title=" ">
<polygon fill="white" stroke="#bfbfbf" points="801.5,-0.5 801.5,-19.5 865.5,-19.5 865.5,-0.5 801.5,-0.5"/>
<text text-anchor="middle" x="833.5" y="-7.5" font-family="Helvetica,sans-Serif" font-size="10.00">sys/stat.h</text>
</a>
</g>
</g>
<!-- Node6&#45;&gt;Node19 -->
<g id="edge19" class="edge">
<title>Node6&#45;&gt;Node19</title>
<path fill="none" stroke="midnightblue" d="M621.28,-58.16C664.44,-48.57 743.09,-31.09 791.57,-20.32"/>
<polygon fill="midnightblue" stroke="midnightblue" points="792.43,-23.71 801.43,-18.13 790.91,-16.88 792.43,-23.71"/>
</g>
<!-- Node20 -->
<g id="node20" class="node">
<title>Node20</title>
<g id="a_node20"><a xlink:title=" ">
<polygon fill="white" stroke="#bfbfbf" points="883.5,-0.5 883.5,-19.5 939.5,-19.5 939.5,-0.5 883.5,-0.5"/>
<text text-anchor="middle" x="911.5" y="-7.5" font-family="Helvetica,sans-Serif" font-size="10.00">unistd.h</text>
</a>
</g>
</g>
<!-- Node6&#45;&gt;Node20 -->
<g id="edge21" class="edge">
<title>Node6&#45;&gt;Node20</title>
<path fill="none" stroke="midnightblue" d="M621.33,-60.95C671.89,-54.14 775.77,-39.38 873.25,-20.12"/>
<polygon fill="midnightblue" stroke="midnightblue" points="874.15,-23.51 883.27,-18.12 872.78,-16.64 874.15,-23.51"/>
</g>
<!-- Node21 -->
<g id="node21" class="node">
<title>Node21</title>
<g id="a_node21"><a xlink:title=" ">
<polygon fill="white" stroke="#bfbfbf" points="957.5,-0.5 957.5,-19.5 1019.5,-19.5 1019.5,-0.5 957.5,-0.5"/>
<text text-anchor="middle" x="988.5" y="-7.5" font-family="Helvetica,sans-Serif" font-size="10.00">stdbool.h</text>
</a>
</g>
</g>
<!-- Node6&#45;&gt;Node21 -->
<g id="edge22" class="edge">
<title>Node6&#45;&gt;Node21</title>
<path fill="none" stroke="midnightblue" d="M621.3,-62.14C681.8,-56.3 820.6,-41.84 946.88,-20.14"/>
<polygon fill="midnightblue" stroke="midnightblue" points="947.86,-23.52 957.11,-18.36 946.66,-16.63 947.86,-23.52"/>
</g>
<!-- Node22&#45;&gt;Node2 -->
<g id="edge24" class="edge">
<title>Node22&#45;&gt;Node2</title>
<path fill="none" stroke="midnightblue" d="M573.96,-168.37C521.87,-146.75 380.09,-89.66 257.5,-56 179.32,-34.53 155.66,-37.02 73.16,-20.28"/>
<polygon fill="midnightblue" stroke="midnightblue" points="73.86,-16.85 63.36,-18.26 72.44,-23.71 73.86,-16.85"/>
</g>
<!-- Node22&#45;&gt;Node3 -->
<g id="edge25" class="edge">
<title>Node22&#45;&gt;Node3</title>
<path fill="none" stroke="midnightblue" d="M601.6,-168.08C607.74,-160.38 616.77,-149.03 624.24,-139.65"/>
<polygon fill="midnightblue" stroke="midnightblue" points="627.04,-141.75 630.53,-131.75 621.56,-137.39 627.04,-141.75"/>
</g>
<!-- Node22&#45;&gt;Node6 -->
<g id="edge26" class="edge">
<title>Node22&#45;&gt;Node6</title>
<path fill="none" stroke="midnightblue" d="M593.01,-168.41C591.52,-159.38 589.35,-144.74 588.5,-132 587.47,-116.49 588.13,-98.86 588.95,-85.88"/>
<polygon fill="midnightblue" stroke="midnightblue" points="592.45,-86.07 589.69,-75.84 585.47,-85.56 592.45,-86.07"/>
</g>
<!-- Node22&#45;&gt;Node23 -->
<g id="edge27" class="edge">
<title>Node22&#45;&gt;Node23</title>
<path fill="none" stroke="midnightblue" d="M619.69,-168.44C646.44,-159.36 688.9,-144.94 718.81,-134.78"/>
<polygon fill="midnightblue" stroke="midnightblue" points="720.08,-138.05 728.42,-131.52 717.83,-131.42 720.08,-138.05"/>
</g>
<!-- Node23&#45;&gt;Node5 -->
<g id="edge29" class="edge">
<title>Node23&#45;&gt;Node5</title>
<path fill="none" stroke="midnightblue" d="M760.27,-112.4C772.26,-97.9 798.78,-68.88 828.5,-56 967.32,4.15 1020.25,-46.17 1173.23,-19.89"/>
<polygon fill="midnightblue" stroke="midnightblue" points="1174.23,-23.26 1183.45,-18.04 1172.99,-16.37 1174.23,-23.26"/>
</g>
<!-- Node23&#45;&gt;Node6 -->
<g id="edge30" class="edge">
<title>Node23&#45;&gt;Node6</title>
<path fill="none" stroke="midnightblue" d="M727.67,-112.44C700.25,-103.36 656.72,-88.94 626.07,-78.78"/>
<polygon fill="midnightblue" stroke="midnightblue" points="626.8,-75.34 616.21,-75.52 624.6,-81.98 626.8,-75.34"/>
</g>
<!-- Node24 -->
<g id="node24" class="node">
<title>Node24</title>
<g id="a_node24"><a xlink:title=" ">
<polygon fill="white" stroke="#bfbfbf" points="723,-56.5 723,-75.5 776,-75.5 776,-56.5 723,-56.5"/>
<text text-anchor="middle" x="749.5" y="-63.5" font-family="Helvetica,sans-Serif" font-size="10.00">limits.h</text>
</a>
</g>
</g>
<!-- Node23&#45;&gt;Node24 -->
<g id="edge28" class="edge">
<title>Node23&#45;&gt;Node24</title>
<path fill="none" stroke="midnightblue" d="M752.84,-112.08C752.32,-105.01 751.56,-94.86 750.91,-85.99"/>
<polygon fill="midnightblue" stroke="midnightblue" points="754.38,-85.47 750.15,-75.75 747.4,-85.98 754.38,-85.47"/>
</g>
</g>
</svg>
