<?xml version="1.0" encoding="UTF-8" standalone="no"?>
<!DOCTYPE svg PUBLIC "-//W3C//DTD SVG 1.1//EN"
 "http://www.w3.org/Graphics/SVG/1.1/DTD/svg11.dtd">
<!-- Generated by graphviz version 2.43.0 (0)
 -->
<!-- Title: TgManagerWaitForAll Pages: 1 -->
<svg width="684pt" height="142pt"
 viewBox="0.00 0.00 684.00 142.00" xmlns="http://www.w3.org/2000/svg" xmlns:xlink="http://www.w3.org/1999/xlink">
<g id="graph0" class="graph" transform="scale(1 1) rotate(0) translate(4 138)">
<title>TgManagerWaitForAll</title>
<polygon fill="white" stroke="transparent" points="-4,4 -4,-138 680,-138 680,4 -4,4"/>
<!-- Node1 -->
<g id="node1" class="node">
<title>Node1</title>
<g id="a_node1"><a xlink:title="Wait for Completion of All Thread Groups.">
<polygon fill="#bfbfbf" stroke="black" points="0,-57.5 0,-76.5 121,-76.5 121,-57.5 0,-57.5"/>
<text text-anchor="middle" x="60.5" y="-64.5" font-family="Helvetica,sans-Serif" font-size="10.00">TgManagerWaitForAll</text>
</a>
</g>
</g>
<!-- Node2 -->
<g id="node2" class="node">
<title>Node2</title>
<g id="a_node2"><a xlink:href="Thread_8c.html#a3aa5be8c3ae6f155db4058a8b658ab91" target="_top" xlink:title="Wait on a condition variable with timeout.">
<polygon fill="white" stroke="black" points="174.5,-114.5 174.5,-133.5 255.5,-133.5 255.5,-114.5 174.5,-114.5"/>
<text text-anchor="middle" x="215" y="-121.5" font-family="Helvetica,sans-Serif" font-size="10.00">SdbCondWait</text>
</a>
</g>
</g>
<!-- Node1&#45;&gt;Node2 -->
<g id="edge1" class="edge">
<title>Node1&#45;&gt;Node2</title>
<path fill="none" stroke="midnightblue" d="M84.52,-76.59C103.77,-84.5 132.03,-95.88 157,-105 162.65,-107.06 168.64,-109.16 174.54,-111.17"/>
<polygon fill="midnightblue" stroke="midnightblue" points="173.71,-114.59 184.3,-114.46 175.94,-107.95 173.71,-114.59"/>
</g>
<!-- Node7 -->
<g id="node7" class="node">
<title>Node7</title>
<g id="a_node7"><a xlink:href="Thread_8c.html#a5fbfdcfc990630f27e5161ec4ea18aaa" target="_top" xlink:title="Lock a mutex with timeout.">
<polygon fill="white" stroke="black" points="171,-76.5 171,-95.5 259,-95.5 259,-76.5 171,-76.5"/>
<text text-anchor="middle" x="215" y="-83.5" font-family="Helvetica,sans-Serif" font-size="10.00">SdbMutexLock</text>
</a>
</g>
</g>
<!-- Node1&#45;&gt;Node7 -->
<g id="edge6" class="edge">
<title>Node1&#45;&gt;Node7</title>
<path fill="none" stroke="midnightblue" d="M121.33,-74.45C134.37,-76.08 148.08,-77.79 160.84,-79.38"/>
<polygon fill="midnightblue" stroke="midnightblue" points="160.48,-82.86 170.83,-80.62 161.34,-75.91 160.48,-82.86"/>
</g>
<!-- Node8 -->
<g id="node8" class="node">
<title>Node8</title>
<g id="a_node8"><a xlink:href="Thread_8c.html#a385a70a16dc0b1872fdf925d2121880c" target="_top" xlink:title="Unlock a mutex.">
<polygon fill="white" stroke="black" points="165.5,-38.5 165.5,-57.5 264.5,-57.5 264.5,-38.5 165.5,-38.5"/>
<text text-anchor="middle" x="215" y="-45.5" font-family="Helvetica,sans-Serif" font-size="10.00">SdbMutexUnlock</text>
</a>
</g>
</g>
<!-- Node1&#45;&gt;Node8 -->
<g id="edge8" class="edge">
<title>Node1&#45;&gt;Node8</title>
<path fill="none" stroke="midnightblue" d="M121.33,-59.55C132.45,-58.16 144.06,-56.71 155.14,-55.33"/>
<polygon fill="midnightblue" stroke="midnightblue" points="155.66,-58.8 165.15,-54.09 154.79,-51.85 155.66,-58.8"/>
</g>
<!-- Node9 -->
<g id="node9" class="node">
<title>Node9</title>
<g id="a_node9"><a xlink:href="Signals_8c.html#aca8d19968aa974641e340443ba21e58e" target="_top" xlink:title="Checks if the system should initiate shutdown.">
<polygon fill="white" stroke="black" points="157,-0.5 157,-19.5 273,-19.5 273,-0.5 157,-0.5"/>
<text text-anchor="middle" x="215" y="-7.5" font-family="Helvetica,sans-Serif" font-size="10.00">SdbShouldShutdown</text>
</a>
</g>
</g>
<!-- Node1&#45;&gt;Node9 -->
<g id="edge9" class="edge">
<title>Node1&#45;&gt;Node9</title>
<path fill="none" stroke="midnightblue" d="M84.52,-57.41C103.77,-49.5 132.03,-38.12 157,-29 162.65,-26.94 168.64,-24.84 174.54,-22.83"/>
<polygon fill="midnightblue" stroke="midnightblue" points="175.94,-26.05 184.3,-19.54 173.71,-19.41 175.94,-26.05"/>
</g>
<!-- Node3 -->
<g id="node3" class="node">
<title>Node3</title>
<g id="a_node3"><a xlink:href="Thread_8c.html#aa16f3f5cb899e1128f1a80c021780e5f" target="_top" xlink:title=" ">
<polygon fill="white" stroke="black" points="309,-95.5 309,-114.5 398,-114.5 398,-95.5 309,-95.5"/>
<text text-anchor="middle" x="353.5" y="-102.5" font-family="Helvetica,sans-Serif" font-size="10.00">CreateTimeout</text>
</a>
</g>
</g>
<!-- Node2&#45;&gt;Node3 -->
<g id="edge2" class="edge">
<title>Node2&#45;&gt;Node3</title>
<path fill="none" stroke="midnightblue" d="M255.85,-118.45C269.15,-116.6 284.19,-114.51 298.39,-112.53"/>
<polygon fill="midnightblue" stroke="midnightblue" points="299.12,-115.96 308.54,-111.12 298.15,-109.03 299.12,-115.96"/>
</g>
<!-- Node4 -->
<g id="node4" class="node">
<title>Node4</title>
<g id="a_node4"><a xlink:href="Time_8c.html#afad180732be23f8e46bdfc2bb349ff44" target="_top" xlink:title="Create Absolute Timeout Timestamp.">
<polygon fill="white" stroke="black" points="434,-95.5 434,-114.5 559,-114.5 559,-95.5 434,-95.5"/>
<text text-anchor="middle" x="496.5" y="-102.5" font-family="Helvetica,sans-Serif" font-size="10.00">SdbTimespecAbsolute</text>
</a>
</g>
</g>
<!-- Node3&#45;&gt;Node4 -->
<g id="edge3" class="edge">
<title>Node3&#45;&gt;Node4</title>
<path fill="none" stroke="midnightblue" d="M398.34,-105C406.42,-105 415.04,-105 423.69,-105"/>
<polygon fill="midnightblue" stroke="midnightblue" points="423.83,-108.5 433.83,-105 423.83,-101.5 423.83,-108.5"/>
</g>
<!-- Node5 -->
<g id="node5" class="node">
<title>Node5</title>
<g id="a_node5"><a xlink:href="Time_8c.html#af8be68d54def6b644cac5efb8fe2e605" target="_top" xlink:title="Add Time Difference to Timestamp.">
<polygon fill="white" stroke="black" points="596.5,-114.5 596.5,-133.5 674.5,-133.5 674.5,-114.5 596.5,-114.5"/>
<text text-anchor="middle" x="635.5" y="-121.5" font-family="Helvetica,sans-Serif" font-size="10.00">SdbTimeAdd</text>
</a>
</g>
</g>
<!-- Node4&#45;&gt;Node5 -->
<g id="edge4" class="edge">
<title>Node4&#45;&gt;Node5</title>
<path fill="none" stroke="midnightblue" d="M559.19,-113.56C568.27,-114.82 577.52,-116.1 586.28,-117.31"/>
<polygon fill="midnightblue" stroke="midnightblue" points="585.92,-120.8 596.31,-118.7 586.88,-113.86 585.92,-120.8"/>
</g>
<!-- Node6 -->
<g id="node6" class="node">
<title>Node6</title>
<g id="a_node6"><a xlink:href="Time_8c.html#a83d0c194706101b50506d2618e27167c" target="_top" xlink:title="Get Current Real&#45;Time Timestamp.">
<polygon fill="white" stroke="black" points="595,-76.5 595,-95.5 676,-95.5 676,-76.5 595,-76.5"/>
<text text-anchor="middle" x="635.5" y="-83.5" font-family="Helvetica,sans-Serif" font-size="10.00">SdbTimeNow</text>
</a>
</g>
</g>
<!-- Node4&#45;&gt;Node6 -->
<g id="edge5" class="edge">
<title>Node4&#45;&gt;Node6</title>
<path fill="none" stroke="midnightblue" d="M559.19,-96.44C567.77,-95.25 576.5,-94.04 584.82,-92.89"/>
<polygon fill="midnightblue" stroke="midnightblue" points="585.32,-96.35 594.74,-91.51 584.36,-89.42 585.32,-96.35"/>
</g>
<!-- Node7&#45;&gt;Node3 -->
<g id="edge7" class="edge">
<title>Node7&#45;&gt;Node3</title>
<path fill="none" stroke="midnightblue" d="M259.19,-92.01C271.64,-93.74 285.38,-95.66 298.4,-97.47"/>
<polygon fill="midnightblue" stroke="midnightblue" points="298.27,-100.98 308.65,-98.9 299.23,-94.05 298.27,-100.98"/>
</g>
</g>
</svg>
