<?xml version="1.0" encoding="UTF-8" standalone="no"?>
<!DOCTYPE svg PUBLIC "-//W3C//DTD SVG 1.1//EN"
 "http://www.w3.org/Graphics/SVG/1.1/DTD/svg11.dtd">
<!-- Generated by graphviz version 2.43.0 (0)
 -->
<!-- Title: src/Common/ThreadGroup.c Pages: 1 -->
<!--zoomable 364 -->
<svg id="main" version="1.1" xmlns="http://www.w3.org/2000/svg" xmlns:xlink="http://www.w3.org/1999/xlink" xml:space="preserve" onload="init(evt)">
<style type="text/css"><![CDATA[
.edge:hover path { stroke: red; }
.edge:hover polygon { stroke: red; fill: red; }
]]></style>
<script type="text/javascript"><![CDATA[
var edges = document.getElementsByTagName('g');
if (edges && edges.length) {
  for (var i=0;i<edges.length;i++) {
    if (edges[i].id.substr(0,4)=='edge') {
      edges[i].setAttribute('class','edge');
    }
  }
}
]]></script>
        <defs>
                <circle id="rim" cx="0" cy="0" r="7"/>
                <circle id="rim2" cx="0" cy="0" r="3.5"/>
                <g id="zoomPlus">
                        <use xlink:href="#rim" fill="#404040">
                                <set attributeName="fill" to="#808080" begin="zoomplus.mouseover" end="zoomplus.mouseout"/>
                        </use>
                        <path d="M-4,0h8M0,-4v8" fill="none" stroke="white" stroke-width="1.5" pointer-events="none"/>
                </g>
                <g id="zoomMin">
                        <use xlink:href="#rim" fill="#404040">
                                <set attributeName="fill" to="#808080" begin="zoomminus.mouseover" end="zoomminus.mouseout"/>
                        </use>
                        <path d="M-4,0h8" fill="none" stroke="white" stroke-width="1.5" pointer-events="none"/>
                </g>
                <g id="dirArrow">
                        <path fill="none" stroke="white" stroke-width="1.5" d="M0,-3.0v7 M-2.5,-0.5L0,-3.0L2.5,-0.5"/>
                </g>
               <g id="resetDef">
                       <use xlink:href="#rim2" fill="#404040">
                               <set attributeName="fill" to="#808080" begin="reset.mouseover" end="reset.mouseout"/>
                       </use>
               </g>
        </defs>

<script type="text/javascript">
var viewWidth = 1240;
var viewHeight = 364;
var sectionId = 'dynsection-0';
</script>
<script xlink:href="svgpan.js"/>
<svg id="graph" class="graph">
<g id="viewport">
<title>src/Common/ThreadGroup.c</title>
<polygon fill="white" stroke="transparent" points="-4,4 -4,-360 1236,-360 1236,4 -4,4"/>
<!-- Node1 -->
<g id="node1" class="node">
<title>Node1</title>
<g id="a_node1"><a xlink:title=" ">
<polygon fill="#bfbfbf" stroke="black" points="157.5,-336.5 157.5,-355.5 309.5,-355.5 309.5,-336.5 157.5,-336.5"/>
<text text-anchor="middle" x="233.5" y="-343.5" font-family="Helvetica,sans-Serif" font-size="10.00">src/Common/ThreadGroup.c</text>
</a>
</g>
</g>
<!-- Node2 -->
<g id="node2" class="node">
<title>Node2</title>
<g id="a_node2"><a xlink:title=" ">
<polygon fill="white" stroke="#bfbfbf" points="152,-0.5 152,-19.5 215,-19.5 215,-0.5 152,-0.5"/>
<text text-anchor="middle" x="183.5" y="-7.5" font-family="Helvetica,sans-Serif" font-size="10.00">pthread.h</text>
</a>
</g>
</g>
<!-- Node1&#45;&gt;Node2 -->
<g id="edge1" class="edge">
<title>Node1&#45;&gt;Node2</title>
<path fill="none" stroke="midnightblue" d="M208.52,-336.47C171.27,-321.97 105.5,-288.77 105.5,-235 105.5,-235 105.5,-235 105.5,-121 105.5,-80.97 140.3,-45.34 163.41,-26.09"/>
<polygon fill="midnightblue" stroke="midnightblue" points="165.7,-28.74 171.31,-19.76 161.32,-23.28 165.7,-28.74"/>
</g>
<!-- Node3 -->
<g id="node3" class="node">
<title>Node3</title>
<g id="a_node3"><a xlink:title=" ">
<polygon fill="white" stroke="#bfbfbf" points="71.5,-0.5 71.5,-19.5 133.5,-19.5 133.5,-0.5 71.5,-0.5"/>
<text text-anchor="middle" x="102.5" y="-7.5" font-family="Helvetica,sans-Serif" font-size="10.00">stdbool.h</text>
</a>
</g>
</g>
<!-- Node1&#45;&gt;Node3 -->
<g id="edge2" class="edge">
<title>Node1&#45;&gt;Node3</title>
<path fill="none" stroke="midnightblue" d="M191.61,-336.45C142.44,-323.68 67.5,-294.46 67.5,-235 67.5,-235 67.5,-235 67.5,-121 67.5,-87.07 82.81,-49.91 93.18,-28.63"/>
<polygon fill="midnightblue" stroke="midnightblue" points="96.38,-30.05 97.78,-19.54 90.14,-26.88 96.38,-30.05"/>
</g>
<!-- Node4 -->
<g id="node4" class="node">
<title>Node4</title>
<g id="a_node4"><a xlink:title=" ">
<polygon fill="white" stroke="#bfbfbf" points="0,-0.5 0,-19.5 53,-19.5 53,-0.5 0,-0.5"/>
<text text-anchor="middle" x="26.5" y="-7.5" font-family="Helvetica,sans-Serif" font-size="10.00">stdlib.h</text>
</a>
</g>
</g>
<!-- Node1&#45;&gt;Node4 -->
<g id="edge3" class="edge">
<title>Node1&#45;&gt;Node4</title>
<path fill="none" stroke="midnightblue" d="M162.61,-336.49C103.02,-324.91 27.5,-297.84 27.5,-235 27.5,-235 27.5,-235 27.5,-121 27.5,-88.95 27.07,-51.64 26.77,-29.75"/>
<polygon fill="midnightblue" stroke="midnightblue" points="30.27,-29.51 26.63,-19.56 23.27,-29.61 30.27,-29.51"/>
</g>
<!-- Node5 -->
<g id="node5" class="node">
<title>Node5</title>
<g id="a_node5"><a xlink:href="Sdb_8h.html" target="_top" xlink:title=" ">
<polygon fill="white" stroke="black" points="536,-56.5 536,-75.5 597,-75.5 597,-56.5 536,-56.5"/>
<text text-anchor="middle" x="566.5" y="-63.5" font-family="Helvetica,sans-Serif" font-size="10.00">src/Sdb.h</text>
</a>
</g>
</g>
<!-- Node1&#45;&gt;Node5 -->
<g id="edge4" class="edge">
<title>Node1&#45;&gt;Node5</title>
<path fill="none" stroke="midnightblue" d="M309.7,-339.71C478.78,-326.95 870.5,-291.32 870.5,-235 870.5,-235 870.5,-235 870.5,-177 870.5,-121.63 689.91,-86.27 607.11,-72.96"/>
<polygon fill="midnightblue" stroke="midnightblue" points="607.46,-69.48 597.04,-71.38 606.37,-76.39 607.46,-69.48"/>
</g>
<!-- Node20 -->
<g id="node20" class="node">
<title>Node20</title>
<g id="a_node20"><a xlink:href="Thread_8h.html" target="_top" xlink:title="Lightweight Synchronization Primitives Wrapper.">
<polygon fill="white" stroke="black" points="406.5,-168.5 406.5,-187.5 530.5,-187.5 530.5,-168.5 406.5,-168.5"/>
<text text-anchor="middle" x="468.5" y="-175.5" font-family="Helvetica,sans-Serif" font-size="10.00">src/Common/Thread.h</text>
</a>
</g>
</g>
<!-- Node1&#45;&gt;Node20 -->
<g id="edge22" class="edge">
<title>Node1&#45;&gt;Node20</title>
<path fill="none" stroke="midnightblue" d="M245.8,-336.31C283.95,-309.36 400.53,-227.01 448.03,-193.46"/>
<polygon fill="midnightblue" stroke="midnightblue" points="450.17,-196.23 456.32,-187.61 446.13,-190.52 450.17,-196.23"/>
</g>
<!-- Node22 -->
<g id="node22" class="node">
<title>Node22</title>
<g id="a_node22"><a xlink:href="Time_8h.html" target="_top" xlink:title="Lightweight Time Manipulation Utilities.">
<polygon fill="white" stroke="black" points="249,-112.5 249,-131.5 364,-131.5 364,-112.5 249,-112.5"/>
<text text-anchor="middle" x="306.5" y="-119.5" font-family="Helvetica,sans-Serif" font-size="10.00">src/Common/Time.h</text>
</a>
</g>
</g>
<!-- Node1&#45;&gt;Node22 -->
<g id="edge35" class="edge">
<title>Node1&#45;&gt;Node22</title>
<path fill="none" stroke="midnightblue" d="M227.2,-336.22C213.44,-315.88 183.26,-264.23 200.5,-224 217.24,-184.92 257.37,-153.79 283.16,-136.9"/>
<polygon fill="midnightblue" stroke="midnightblue" points="285.06,-139.84 291.63,-131.53 281.31,-133.93 285.06,-139.84"/>
</g>
<!-- Node24 -->
<g id="node24" class="node">
<title>Node24</title>
<g id="a_node24"><a xlink:href="ThreadGroup_8h.html" target="_top" xlink:title="Thread Group Management System.">
<polygon fill="white" stroke="black" points="210,-224.5 210,-243.5 363,-243.5 363,-224.5 210,-224.5"/>
<text text-anchor="middle" x="286.5" y="-231.5" font-family="Helvetica,sans-Serif" font-size="10.00">src/Common/ThreadGroup.h</text>
</a>
</g>
</g>
<!-- Node1&#45;&gt;Node24 -->
<g id="edge30" class="edge">
<title>Node1&#45;&gt;Node24</title>
<path fill="none" stroke="midnightblue" d="M237.66,-336.37C246.33,-318.38 266.48,-276.55 278.01,-252.63"/>
<polygon fill="midnightblue" stroke="midnightblue" points="281.17,-254.12 282.36,-243.59 274.87,-251.08 281.17,-254.12"/>
</g>
<!-- Node25 -->
<g id="node25" class="node">
<title>Node25</title>
<g id="a_node25"><a xlink:href="Signals_8h.html" target="_top" xlink:title="Signal handling interface for the Sensor Data Handler System.">
<polygon fill="white" stroke="black" points="546.5,-280.5 546.5,-299.5 624.5,-299.5 624.5,-280.5 546.5,-280.5"/>
<text text-anchor="middle" x="585.5" y="-287.5" font-family="Helvetica,sans-Serif" font-size="10.00">src/Signals.h</text>
</a>
</g>
</g>
<!-- Node1&#45;&gt;Node25 -->
<g id="edge36" class="edge">
<title>Node1&#45;&gt;Node25</title>
<path fill="none" stroke="midnightblue" d="M289.28,-336.44C357.36,-326 471.42,-308.5 536.35,-298.54"/>
<polygon fill="midnightblue" stroke="midnightblue" points="536.98,-301.98 546.33,-297.01 535.92,-295.07 536.98,-301.98"/>
</g>
<!-- Node5&#45;&gt;Node2 -->
<g id="edge11" class="edge">
<title>Node5&#45;&gt;Node2</title>
<path fill="none" stroke="midnightblue" d="M535.71,-61.84C477.27,-55.65 346.08,-40.84 225.38,-20.02"/>
<polygon fill="midnightblue" stroke="midnightblue" points="225.68,-16.52 215.23,-18.25 224.48,-23.41 225.68,-16.52"/>
</g>
<!-- Node5&#45;&gt;Node3 -->
<g id="edge21" class="edge">
<title>Node5&#45;&gt;Node3</title>
<path fill="none" stroke="midnightblue" d="M535.74,-62.96C467.14,-58.15 296.31,-44.73 143.89,-20.06"/>
<polygon fill="midnightblue" stroke="midnightblue" points="144.31,-16.58 133.88,-18.42 143.18,-23.49 144.31,-16.58"/>
</g>
<!-- Node5&#45;&gt;Node4 -->
<g id="edge15" class="edge">
<title>Node5&#45;&gt;Node4</title>
<path fill="none" stroke="midnightblue" d="M535.89,-63.93C458.36,-60.87 247.87,-50.35 63.03,-19.81"/>
<polygon fill="midnightblue" stroke="midnightblue" points="63.58,-16.35 53.14,-18.15 62.42,-23.26 63.58,-16.35"/>
</g>
<!-- Node6 -->
<g id="node6" class="node">
<title>Node6</title>
<g id="a_node6"><a xlink:title=" ">
<polygon fill="white" stroke="#bfbfbf" points="690.5,-0.5 690.5,-19.5 746.5,-19.5 746.5,-0.5 690.5,-0.5"/>
<text text-anchor="middle" x="718.5" y="-7.5" font-family="Helvetica,sans-Serif" font-size="10.00">assert.h</text>
</a>
</g>
</g>
<!-- Node5&#45;&gt;Node6 -->
<g id="edge5" class="edge">
<title>Node5&#45;&gt;Node6</title>
<path fill="none" stroke="midnightblue" d="M590.58,-56.44C616.04,-47.4 656.39,-33.06 684.96,-22.92"/>
<polygon fill="midnightblue" stroke="midnightblue" points="686.28,-26.16 694.53,-19.52 683.93,-19.57 686.28,-26.16"/>
</g>
<!-- Node7 -->
<g id="node7" class="node">
<title>Node7</title>
<g id="a_node7"><a xlink:title=" ">
<polygon fill="white" stroke="#bfbfbf" points="765,-0.5 765,-19.5 818,-19.5 818,-0.5 765,-0.5"/>
<text text-anchor="middle" x="791.5" y="-7.5" font-family="Helvetica,sans-Serif" font-size="10.00">ctype.h</text>
</a>
</g>
</g>
<!-- Node5&#45;&gt;Node7 -->
<g id="edge6" class="edge">
<title>Node5&#45;&gt;Node7</title>
<path fill="none" stroke="midnightblue" d="M597.3,-57.78C632.83,-49.42 693.26,-35.14 754.88,-20.13"/>
<polygon fill="midnightblue" stroke="midnightblue" points="755.89,-23.49 764.77,-17.72 754.23,-16.69 755.89,-23.49"/>
</g>
<!-- Node8 -->
<g id="node8" class="node">
<title>Node8</title>
<g id="a_node8"><a xlink:title=" ">
<polygon fill="white" stroke="#bfbfbf" points="836,-0.5 836,-19.5 887,-19.5 887,-0.5 836,-0.5"/>
<text text-anchor="middle" x="861.5" y="-7.5" font-family="Helvetica,sans-Serif" font-size="10.00">errno.h</text>
</a>
</g>
</g>
<!-- Node5&#45;&gt;Node8 -->
<g id="edge7" class="edge">
<title>Node5&#45;&gt;Node8</title>
<path fill="none" stroke="midnightblue" d="M597.07,-60.52C644.07,-53.47 737.05,-38.81 825.96,-19.96"/>
<polygon fill="midnightblue" stroke="midnightblue" points="826.9,-23.34 835.94,-17.82 825.43,-16.5 826.9,-23.34"/>
</g>
<!-- Node9 -->
<g id="node9" class="node">
<title>Node9</title>
<g id="a_node9"><a xlink:title=" ">
<polygon fill="white" stroke="#bfbfbf" points="905,-0.5 905,-19.5 952,-19.5 952,-0.5 905,-0.5"/>
<text text-anchor="middle" x="928.5" y="-7.5" font-family="Helvetica,sans-Serif" font-size="10.00">fcntl.h</text>
</a>
</g>
</g>
<!-- Node5&#45;&gt;Node9 -->
<g id="edge8" class="edge">
<title>Node5&#45;&gt;Node9</title>
<path fill="none" stroke="midnightblue" d="M597.11,-62.16C653.87,-56.6 779.39,-42.97 894.74,-19.9"/>
<polygon fill="midnightblue" stroke="midnightblue" points="895.69,-23.28 904.8,-17.86 894.3,-16.42 895.69,-23.28"/>
</g>
<!-- Node10 -->
<g id="node10" class="node">
<title>Node10</title>
<g id="a_node10"><a xlink:title=" ">
<polygon fill="white" stroke="#bfbfbf" points="970,-0.5 970,-19.5 1017,-19.5 1017,-0.5 970,-0.5"/>
<text text-anchor="middle" x="993.5" y="-7.5" font-family="Helvetica,sans-Serif" font-size="10.00">float.h</text>
</a>
</g>
</g>
<!-- Node5&#45;&gt;Node10 -->
<g id="edge9" class="edge">
<title>Node5&#45;&gt;Node10</title>
<path fill="none" stroke="midnightblue" d="M597.14,-63.1C662.18,-58.72 818.89,-46.37 959.7,-19.86"/>
<polygon fill="midnightblue" stroke="midnightblue" points="960.64,-23.24 969.81,-17.93 959.33,-16.37 960.64,-23.24"/>
</g>
<!-- Node11 -->
<g id="node11" class="node">
<title>Node11</title>
<g id="a_node11"><a xlink:title=" ">
<polygon fill="white" stroke="#bfbfbf" points="1035,-0.5 1035,-19.5 1086,-19.5 1086,-0.5 1035,-0.5"/>
<text text-anchor="middle" x="1060.5" y="-7.5" font-family="Helvetica,sans-Serif" font-size="10.00">math.h</text>
</a>
</g>
</g>
<!-- Node5&#45;&gt;Node11 -->
<g id="edge10" class="edge">
<title>Node5&#45;&gt;Node11</title>
<path fill="none" stroke="midnightblue" d="M597.07,-63.63C669.64,-60.04 858.08,-48.67 1025.03,-19.79"/>
<polygon fill="midnightblue" stroke="midnightblue" points="1025.74,-23.22 1034.99,-18.04 1024.53,-16.33 1025.74,-23.22"/>
</g>
<!-- Node12 -->
<g id="node12" class="node">
<title>Node12</title>
<g id="a_node12"><a xlink:title=" ">
<polygon fill="white" stroke="#bfbfbf" points="1104.5,-0.5 1104.5,-19.5 1160.5,-19.5 1160.5,-0.5 1104.5,-0.5"/>
<text text-anchor="middle" x="1132.5" y="-7.5" font-family="Helvetica,sans-Serif" font-size="10.00">stdarg.h</text>
</a>
</g>
</g>
<!-- Node5&#45;&gt;Node12 -->
<g id="edge12" class="edge">
<title>Node5&#45;&gt;Node12</title>
<path fill="none" stroke="midnightblue" d="M597.05,-63.97C678.4,-60.9 906.91,-50.04 1094.5,-20 1094.6,-19.98 1094.7,-19.97 1094.8,-19.95"/>
<polygon fill="midnightblue" stroke="midnightblue" points="1095.19,-23.44 1104.37,-18.15 1093.9,-16.56 1095.19,-23.44"/>
</g>
<!-- Node13 -->
<g id="node13" class="node">
<title>Node13</title>
<g id="a_node13"><a xlink:title=" ">
<polygon fill="white" stroke="#bfbfbf" points="1179,-0.5 1179,-19.5 1232,-19.5 1232,-0.5 1179,-0.5"/>
<text text-anchor="middle" x="1205.5" y="-7.5" font-family="Helvetica,sans-Serif" font-size="10.00">stdint.h</text>
</a>
</g>
</g>
<!-- Node5&#45;&gt;Node13 -->
<g id="edge13" class="edge">
<title>Node5&#45;&gt;Node13</title>
<path fill="none" stroke="midnightblue" d="M597.15,-64.55C684.85,-62.89 944.36,-55.25 1168.88,-19.8"/>
<polygon fill="midnightblue" stroke="midnightblue" points="1169.55,-23.23 1178.87,-18.2 1168.44,-16.32 1169.55,-23.23"/>
</g>
<!-- Node14 -->
<g id="node14" class="node">
<title>Node14</title>
<g id="a_node14"><a xlink:title=" ">
<polygon fill="white" stroke="#bfbfbf" points="299.5,-0.5 299.5,-19.5 349.5,-19.5 349.5,-0.5 299.5,-0.5"/>
<text text-anchor="middle" x="324.5" y="-7.5" font-family="Helvetica,sans-Serif" font-size="10.00">stdio.h</text>
</a>
</g>
</g>
<!-- Node5&#45;&gt;Node14 -->
<g id="edge14" class="edge">
<title>Node5&#45;&gt;Node14</title>
<path fill="none" stroke="midnightblue" d="M535.74,-58.8C496.96,-50.89 428.04,-36.5 359.78,-20.23"/>
<polygon fill="midnightblue" stroke="midnightblue" points="360.26,-16.74 349.72,-17.81 358.63,-23.55 360.26,-16.74"/>
</g>
<!-- Node15 -->
<g id="node15" class="node">
<title>Node15</title>
<g id="a_node15"><a xlink:title=" ">
<polygon fill="white" stroke="#bfbfbf" points="368,-0.5 368,-19.5 421,-19.5 421,-0.5 368,-0.5"/>
<text text-anchor="middle" x="394.5" y="-7.5" font-family="Helvetica,sans-Serif" font-size="10.00">string.h</text>
</a>
</g>
</g>
<!-- Node5&#45;&gt;Node15 -->
<g id="edge16" class="edge">
<title>Node5&#45;&gt;Node15</title>
<path fill="none" stroke="midnightblue" d="M539.25,-56.44C509.89,-47.23 463.03,-32.52 430.62,-22.34"/>
<polygon fill="midnightblue" stroke="midnightblue" points="431.65,-19 421.06,-19.34 429.55,-25.67 431.65,-19"/>
</g>
<!-- Node16 -->
<g id="node16" class="node">
<title>Node16</title>
<g id="a_node16"><a xlink:title=" ">
<polygon fill="white" stroke="#bfbfbf" points="439,-0.5 439,-19.5 516,-19.5 516,-0.5 439,-0.5"/>
<text text-anchor="middle" x="477.5" y="-7.5" font-family="Helvetica,sans-Serif" font-size="10.00">sys/mman.h</text>
</a>
</g>
</g>
<!-- Node5&#45;&gt;Node16 -->
<g id="edge17" class="edge">
<title>Node5&#45;&gt;Node16</title>
<path fill="none" stroke="midnightblue" d="M552.2,-56.32C538.32,-47.9 517.01,-34.97 500.7,-25.07"/>
<polygon fill="midnightblue" stroke="midnightblue" points="502.13,-21.85 491.76,-19.65 498.5,-27.83 502.13,-21.85"/>
</g>
<!-- Node17 -->
<g id="node17" class="node">
<title>Node17</title>
<g id="a_node17"><a xlink:title=" ">
<polygon fill="white" stroke="#bfbfbf" points="534.5,-0.5 534.5,-19.5 598.5,-19.5 598.5,-0.5 534.5,-0.5"/>
<text text-anchor="middle" x="566.5" y="-7.5" font-family="Helvetica,sans-Serif" font-size="10.00">sys/stat.h</text>
</a>
</g>
</g>
<!-- Node5&#45;&gt;Node17 -->
<g id="edge18" class="edge">
<title>Node5&#45;&gt;Node17</title>
<path fill="none" stroke="midnightblue" d="M566.5,-56.08C566.5,-49.01 566.5,-38.86 566.5,-29.99"/>
<polygon fill="midnightblue" stroke="midnightblue" points="570,-29.75 566.5,-19.75 563,-29.75 570,-29.75"/>
</g>
<!-- Node18 -->
<g id="node18" class="node">
<title>Node18</title>
<g id="a_node18"><a xlink:title=" ">
<polygon fill="white" stroke="#bfbfbf" points="233.5,-0.5 233.5,-19.5 281.5,-19.5 281.5,-0.5 233.5,-0.5"/>
<text text-anchor="middle" x="257.5" y="-7.5" font-family="Helvetica,sans-Serif" font-size="10.00">time.h</text>
</a>
</g>
</g>
<!-- Node5&#45;&gt;Node18 -->
<g id="edge19" class="edge">
<title>Node5&#45;&gt;Node18</title>
<path fill="none" stroke="midnightblue" d="M535.67,-61.05C486.21,-54.47 385.91,-40.19 291.57,-20.04"/>
<polygon fill="midnightblue" stroke="midnightblue" points="292.09,-16.57 281.58,-17.88 290.61,-23.42 292.09,-16.57"/>
</g>
<!-- Node19 -->
<g id="node19" class="node">
<title>Node19</title>
<g id="a_node19"><a xlink:title=" ">
<polygon fill="white" stroke="#bfbfbf" points="616.5,-0.5 616.5,-19.5 672.5,-19.5 672.5,-0.5 616.5,-0.5"/>
<text text-anchor="middle" x="644.5" y="-7.5" font-family="Helvetica,sans-Serif" font-size="10.00">unistd.h</text>
</a>
</g>
</g>
<!-- Node5&#45;&gt;Node19 -->
<g id="edge20" class="edge">
<title>Node5&#45;&gt;Node19</title>
<path fill="none" stroke="midnightblue" d="M579.03,-56.32C591.09,-47.98 609.53,-35.21 623.77,-25.35"/>
<polygon fill="midnightblue" stroke="midnightblue" points="625.77,-28.22 632,-19.65 621.78,-22.47 625.77,-28.22"/>
</g>
<!-- Node20&#45;&gt;Node2 -->
<g id="edge23" class="edge">
<title>Node20&#45;&gt;Node2</title>
<path fill="none" stroke="midnightblue" d="M406.25,-171.14C347.55,-164.51 264.91,-151.96 239.5,-132 222.39,-118.57 200.23,-59.65 189.65,-29.27"/>
<polygon fill="midnightblue" stroke="midnightblue" points="192.85,-27.83 186.3,-19.5 186.23,-30.1 192.85,-27.83"/>
</g>
<!-- Node20&#45;&gt;Node5 -->
<g id="edge25" class="edge">
<title>Node20&#45;&gt;Node5</title>
<path fill="none" stroke="midnightblue" d="M476.41,-168.42C484.7,-159.39 498.09,-144.77 509.5,-132 524.11,-115.66 540.59,-96.81 552.06,-83.64"/>
<polygon fill="midnightblue" stroke="midnightblue" points="554.89,-85.72 558.81,-75.88 549.61,-81.13 554.89,-85.72"/>
</g>
<!-- Node21 -->
<g id="node21" class="node">
<title>Node21</title>
<g id="a_node21"><a xlink:title=" ">
<polygon fill="white" stroke="#bfbfbf" points="420.5,-112.5 420.5,-131.5 500.5,-131.5 500.5,-112.5 420.5,-112.5"/>
<text text-anchor="middle" x="460.5" y="-119.5" font-family="Helvetica,sans-Serif" font-size="10.00">semaphore.h</text>
</a>
</g>
</g>
<!-- Node20&#45;&gt;Node21 -->
<g id="edge24" class="edge">
<title>Node20&#45;&gt;Node21</title>
<path fill="none" stroke="midnightblue" d="M467.18,-168.08C466.12,-160.93 464.59,-150.64 463.27,-141.69"/>
<polygon fill="midnightblue" stroke="midnightblue" points="466.72,-141.13 461.8,-131.75 459.8,-142.16 466.72,-141.13"/>
</g>
<!-- Node20&#45;&gt;Node22 -->
<g id="edge26" class="edge">
<title>Node20&#45;&gt;Node22</title>
<path fill="none" stroke="midnightblue" d="M442.83,-168.44C415.58,-159.36 372.32,-144.94 341.85,-134.78"/>
<polygon fill="midnightblue" stroke="midnightblue" points="342.64,-131.36 332.05,-131.52 340.43,-138 342.64,-131.36"/>
</g>
<!-- Node22&#45;&gt;Node5 -->
<g id="edge29" class="edge">
<title>Node22&#45;&gt;Node5</title>
<path fill="none" stroke="midnightblue" d="M347.7,-112.44C396.49,-102.31 477.26,-85.54 525.82,-75.45"/>
<polygon fill="midnightblue" stroke="midnightblue" points="526.59,-78.86 535.67,-73.4 525.17,-72.01 526.59,-78.86"/>
</g>
<!-- Node22&#45;&gt;Node18 -->
<g id="edge28" class="edge">
<title>Node22&#45;&gt;Node18</title>
<path fill="none" stroke="midnightblue" d="M309.61,-112.1C313.6,-99.1 319.05,-74.47 310.5,-56 304.58,-43.21 293.03,-32.72 282.22,-25.1"/>
<polygon fill="midnightblue" stroke="midnightblue" points="284.12,-22.16 273.83,-19.61 280.29,-28.02 284.12,-22.16"/>
</g>
<!-- Node23 -->
<g id="node23" class="node">
<title>Node23</title>
<g id="a_node23"><a xlink:title=" ">
<polygon fill="white" stroke="#bfbfbf" points="249,-56.5 249,-75.5 302,-75.5 302,-56.5 249,-56.5"/>
<text text-anchor="middle" x="275.5" y="-63.5" font-family="Helvetica,sans-Serif" font-size="10.00">limits.h</text>
</a>
</g>
</g>
<!-- Node22&#45;&gt;Node23 -->
<g id="edge27" class="edge">
<title>Node22&#45;&gt;Node23</title>
<path fill="none" stroke="midnightblue" d="M301.38,-112.08C297.09,-104.61 290.84,-93.72 285.56,-84.52"/>
<polygon fill="midnightblue" stroke="midnightblue" points="288.54,-82.68 280.52,-75.75 282.47,-86.17 288.54,-82.68"/>
</g>
<!-- Node24&#45;&gt;Node2 -->
<g id="edge31" class="edge">
<title>Node24&#45;&gt;Node2</title>
<path fill="none" stroke="midnightblue" d="M279.79,-224.43C262.46,-201.75 216.16,-137.66 196.5,-76 191.63,-60.74 188.22,-42.85 186.11,-29.71"/>
<polygon fill="midnightblue" stroke="midnightblue" points="189.53,-28.94 184.59,-19.57 182.61,-29.97 189.53,-28.94"/>
</g>
<!-- Node24&#45;&gt;Node3 -->
<g id="edge32" class="edge">
<title>Node24&#45;&gt;Node3</title>
<path fill="none" stroke="midnightblue" d="M275.86,-224.19C265.58,-215.46 249.8,-201.48 237.5,-188 187.23,-132.92 136.05,-60.32 113.88,-27.9"/>
<polygon fill="midnightblue" stroke="midnightblue" points="116.71,-25.83 108.2,-19.53 110.92,-29.76 116.71,-25.83"/>
</g>
<!-- Node24&#45;&gt;Node5 -->
<g id="edge33" class="edge">
<title>Node24&#45;&gt;Node5</title>
<path fill="none" stroke="midnightblue" d="M293.03,-224.21C310.01,-201.97 357.95,-143.08 411.5,-112 447.25,-91.25 493.28,-79.47 525.86,-73.21"/>
<polygon fill="midnightblue" stroke="midnightblue" points="526.73,-76.61 535.93,-71.37 525.47,-69.73 526.73,-76.61"/>
</g>
<!-- Node24&#45;&gt;Node20 -->
<g id="edge34" class="edge">
<title>Node24&#45;&gt;Node20</title>
<path fill="none" stroke="midnightblue" d="M315.34,-224.44C346.36,-215.24 395.83,-200.56 430.12,-190.39"/>
<polygon fill="midnightblue" stroke="midnightblue" points="431.21,-193.72 439.8,-187.52 429.21,-187.01 431.21,-193.72"/>
</g>
<!-- Node25&#45;&gt;Node5 -->
<g id="edge38" class="edge">
<title>Node25&#45;&gt;Node5</title>
<path fill="none" stroke="midnightblue" d="M624.66,-287.04C683.2,-283.2 789.17,-272.41 812.5,-244 879.15,-162.84 692.33,-100.64 606.77,-77.17"/>
<polygon fill="midnightblue" stroke="midnightblue" points="607.67,-73.79 597.1,-74.57 605.85,-80.55 607.67,-73.79"/>
</g>
<!-- Node25&#45;&gt;Node24 -->
<g id="edge43" class="edge">
<title>Node25&#45;&gt;Node24</title>
<path fill="none" stroke="midnightblue" d="M546.41,-281.94C494.71,-272.6 403.21,-256.08 343.72,-245.33"/>
<polygon fill="midnightblue" stroke="midnightblue" points="344.19,-241.86 333.73,-243.53 342.95,-248.75 344.19,-241.86"/>
</g>
<!-- Node26 -->
<g id="node26" class="node">
<title>Node26</title>
<g id="a_node26"><a xlink:title=" ">
<polygon fill="white" stroke="#bfbfbf" points="749,-224.5 749,-243.5 804,-243.5 804,-224.5 749,-224.5"/>
<text text-anchor="middle" x="776.5" y="-231.5" font-family="Helvetica,sans-Serif" font-size="10.00">signal.h</text>
</a>
</g>
</g>
<!-- Node25&#45;&gt;Node26 -->
<g id="edge37" class="edge">
<title>Node25&#45;&gt;Node26</title>
<path fill="none" stroke="midnightblue" d="M615.76,-280.44C649.22,-270.98 703.15,-255.74 739.2,-245.55"/>
<polygon fill="midnightblue" stroke="midnightblue" points="740.19,-248.9 748.86,-242.82 738.28,-242.17 740.19,-248.9"/>
</g>
<!-- Node27 -->
<g id="node27" class="node">
<title>Node27</title>
<g id="a_node27"><a xlink:href="SensorDataPipe_8h.html" target="_top" xlink:title="Lock&#45;Free Data Pipeline.">
<polygon fill="white" stroke="black" points="419,-224.5 419,-243.5 586,-243.5 586,-224.5 419,-224.5"/>
<text text-anchor="middle" x="502.5" y="-231.5" font-family="Helvetica,sans-Serif" font-size="10.00">src/Common/SensorDataPipe.h</text>
</a>
</g>
</g>
<!-- Node25&#45;&gt;Node27 -->
<g id="edge39" class="edge">
<title>Node25&#45;&gt;Node27</title>
<path fill="none" stroke="midnightblue" d="M572.16,-280.32C559.34,-271.98 539.72,-259.21 524.56,-249.35"/>
<polygon fill="midnightblue" stroke="midnightblue" points="526.09,-246.17 515.8,-243.65 522.28,-252.04 526.09,-246.17"/>
</g>
<!-- Node29 -->
<g id="node29" class="node">
<title>Node29</title>
<g id="a_node29"><a xlink:href="cJSON_8h.html" target="_top" xlink:title=" ">
<polygon fill="white" stroke="black" points="604,-224.5 604,-243.5 731,-243.5 731,-224.5 604,-224.5"/>
<text text-anchor="middle" x="667.5" y="-231.5" font-family="Helvetica,sans-Serif" font-size="10.00">src/Libs/cJSON/cJSON.h</text>
</a>
</g>
</g>
<!-- Node25&#45;&gt;Node29 -->
<g id="edge44" class="edge">
<title>Node25&#45;&gt;Node29</title>
<path fill="none" stroke="midnightblue" d="M598.67,-280.32C611.35,-271.98 630.73,-259.21 645.71,-249.35"/>
<polygon fill="midnightblue" stroke="midnightblue" points="647.93,-252.08 654.36,-243.65 644.08,-246.23 647.93,-252.08"/>
</g>
<!-- Node27&#45;&gt;Node5 -->
<g id="edge41" class="edge">
<title>Node27&#45;&gt;Node5</title>
<path fill="none" stroke="midnightblue" d="M511.86,-224.26C520.36,-215.79 532.58,-202.18 539.5,-188 555.96,-154.27 562.52,-110.34 565.03,-85.77"/>
<polygon fill="midnightblue" stroke="midnightblue" points="568.53,-85.94 565.95,-75.66 561.56,-85.31 568.53,-85.94"/>
</g>
<!-- Node27&#45;&gt;Node20 -->
<g id="edge42" class="edge">
<title>Node27&#45;&gt;Node20</title>
<path fill="none" stroke="midnightblue" d="M496.89,-224.08C492.13,-216.53 485.18,-205.49 479.35,-196.23"/>
<polygon fill="midnightblue" stroke="midnightblue" points="482.3,-194.35 474.01,-187.75 476.38,-198.08 482.3,-194.35"/>
</g>
<!-- Node28 -->
<g id="node28" class="node">
<title>Node28</title>
<g id="a_node28"><a xlink:title=" ">
<polygon fill="white" stroke="#bfbfbf" points="594.5,-168.5 594.5,-187.5 668.5,-187.5 668.5,-168.5 594.5,-168.5"/>
<text text-anchor="middle" x="631.5" y="-175.5" font-family="Helvetica,sans-Serif" font-size="10.00">stdatomic.h</text>
</a>
</g>
</g>
<!-- Node27&#45;&gt;Node28 -->
<g id="edge40" class="edge">
<title>Node27&#45;&gt;Node28</title>
<path fill="none" stroke="midnightblue" d="M522.94,-224.44C544.17,-215.56 577.6,-201.56 601.75,-191.45"/>
<polygon fill="midnightblue" stroke="midnightblue" points="603.28,-194.61 611.16,-187.52 600.58,-188.15 603.28,-194.61"/>
</g>
<!-- Node30 -->
<g id="node30" class="node">
<title>Node30</title>
<g id="a_node30"><a xlink:title=" ">
<polygon fill="white" stroke="#bfbfbf" points="686.5,-168.5 686.5,-187.5 742.5,-187.5 742.5,-168.5 686.5,-168.5"/>
<text text-anchor="middle" x="714.5" y="-175.5" font-family="Helvetica,sans-Serif" font-size="10.00">stddef.h</text>
</a>
</g>
</g>
<!-- Node29&#45;&gt;Node30 -->
<g id="edge45" class="edge">
<title>Node29&#45;&gt;Node30</title>
<path fill="none" stroke="midnightblue" d="M675.26,-224.08C682.04,-216.3 692.04,-204.8 700.26,-195.37"/>
<polygon fill="midnightblue" stroke="midnightblue" points="702.96,-197.59 706.88,-187.75 697.68,-193 702.96,-197.59"/>
</g>
</g>
</svg>
        <g id="navigator" transform="translate(0 0)" fill="#404254">
                <rect fill="#f2f5e9" fill-opacity="0.5" stroke="#606060" stroke-width=".5" x="0" y="0" width="60" height="60"/>
                <use id="zoomplus" xlink:href="#zoomPlus" x="17" y="9" onmousedown="handleZoom(evt,'in')"/>
                <use id="zoomminus" xlink:href="#zoomMin" x="42" y="9" onmousedown="handleZoom(evt,'out')"/>
                <use id="reset" xlink:href="#resetDef" x="30" y="36" onmousedown="handleReset()"/>
                <g id="arrowUp" xlink:href="#dirArrow" transform="translate(30 24)" onmousedown="handlePan(0,-1)">
                  <use xlink:href="#rim" fill="#404040">
                        <set attributeName="fill" to="#808080" begin="arrowUp.mouseover" end="arrowUp.mouseout"/>
                  </use>
                  <path fill="none" stroke="white" stroke-width="1.5" d="M0,-3.0v7 M-2.5,-0.5L0,-3.0L2.5,-0.5"/>
                </g>
                <g id="arrowRight" xlink:href="#dirArrow" transform="rotate(90) translate(36 -43)" onmousedown="handlePan(1,0)">
                  <use xlink:href="#rim" fill="#404040">
                        <set attributeName="fill" to="#808080" begin="arrowRight.mouseover" end="arrowRight.mouseout"/>
                  </use>
                  <path fill="none" stroke="white" stroke-width="1.5" d="M0,-3.0v7 M-2.5,-0.5L0,-3.0L2.5,-0.5"/>
                </g>
                <g id="arrowDown" xlink:href="#dirArrow" transform="rotate(180) translate(-30 -48)" onmousedown="handlePan(0,1)">
                  <use xlink:href="#rim" fill="#404040">
                        <set attributeName="fill" to="#808080" begin="arrowDown.mouseover" end="arrowDown.mouseout"/>
                  </use>
                  <path fill="none" stroke="white" stroke-width="1.5" d="M0,-3.0v7 M-2.5,-0.5L0,-3.0L2.5,-0.5"/>
                </g>
                <g id="arrowLeft" xlink:href="#dirArrow" transform="rotate(270) translate(-36 17)" onmousedown="handlePan(-1,0)">
                  <use xlink:href="#rim" fill="#404040">
                        <set attributeName="fill" to="#808080" begin="arrowLeft.mouseover" end="arrowLeft.mouseout"/>
                  </use>
                  <path fill="none" stroke="white" stroke-width="1.5" d="M0,-3.0v7 M-2.5,-0.5L0,-3.0L2.5,-0.5"/>
                </g>
        </g>
        <svg viewBox="0 0 15 15" width="100%" height="30px" preserveAspectRatio="xMaxYMin meet">
         <g id="arrow_out" transform="scale(0.3 0.3)">
          <a xlink:href="ThreadGroup_8c__incl_org.svg" target="_base">
           <rect id="button" ry="5" rx="5" y="6" x="6" height="38" width="38"
                fill="#f2f5e9" fill-opacity="0.5" stroke="#606060" stroke-width="1.0"/>
           <path id="arrow"
             d="M 11.500037,31.436501 C 11.940474,20.09759 22.043105,11.32322 32.158766,21.979434 L 37.068811,17.246167 C 37.068811,17.246167 37.088388,32 37.088388,32 L 22.160133,31.978069 C 22.160133,31.978069 26.997745,27.140456 26.997745,27.140456 C 18.528582,18.264221 13.291696,25.230495 11.500037,31.436501 z"
             style="fill:#404040;"/>
          </a>
         </g>
        </svg>
</svg>
