<?xml version="1.0" encoding="UTF-8" standalone="no"?>
<!DOCTYPE svg PUBLIC "-//W3C//DTD SVG 1.1//EN"
 "http://www.w3.org/Graphics/SVG/1.1/DTD/svg11.dtd">
<!-- Generated by graphviz version 2.43.0 (0)
 -->
<!-- Title: SdbTCtlMarkStopped Pages: 1 -->
<svg width="673pt" height="101pt"
 viewBox="0.00 0.00 673.00 101.00" xmlns="http://www.w3.org/2000/svg" xmlns:xlink="http://www.w3.org/1999/xlink">
<g id="graph0" class="graph" transform="scale(1 1) rotate(0) translate(4 97)">
<title>SdbTCtlMarkStopped</title>
<!-- Node1 -->
<g id="Node000001" class="node">
<title>Node1</title>
<g id="a_Node000001"><a xlink:title=" ">
<polygon fill="#999999" stroke="#666666" points="118,-56 0,-56 0,-37 118,-37 118,-56"/>
<text text-anchor="middle" x="59" y="-44" font-family="Helvetica,sans-Serif" font-size="10.00">SdbTCtlMarkStopped</text>
</a>
</g>
</g>
<!-- Node2 -->
<g id="Node000002" class="node">
<title>Node2</title>
<g id="a_Node000002"><a xlink:href="Thread_8c.html#a4afa62c84f73964b958ab68703ff32cc" target="_top" xlink:title="Broadcast on a condition variable.">
<polygon fill="white" stroke="#666666" points="262,-93 154,-93 154,-74 262,-74 262,-93"/>
<text text-anchor="middle" x="208" y="-81" font-family="Helvetica,sans-Serif" font-size="10.00">SdbCondBroadcast</text>
</a>
</g>
</g>
<!-- Node1&#45;&gt;Node2 -->
<g id="edge1_Node000001_Node000002" class="edge">
<title>Node1&#45;&gt;Node2</title>
<g id="a_edge1_Node000001_Node000002"><a xlink:title=" ">
<path fill="none" stroke="#63b8ff" d="M97.86,-56.03C116.56,-60.74 139.32,-66.47 159.22,-71.47"/>
<polygon fill="#63b8ff" stroke="#63b8ff" points="158.47,-74.89 169.02,-73.94 160.17,-68.1 158.47,-74.89"/>
</a>
</g>
</g>
<!-- Node3 -->
<g id="Node000003" class="node">
<title>Node3</title>
<g id="a_Node000003"><a xlink:href="Thread_8c.html#a5fbfdcfc990630f27e5161ec4ea18aaa" target="_top" xlink:title="Lock a mutex with timeout.">
<polygon fill="white" stroke="#666666" points="252,-56 164,-56 164,-37 252,-37 252,-56"/>
<text text-anchor="middle" x="208" y="-44" font-family="Helvetica,sans-Serif" font-size="10.00">SdbMutexLock</text>
</a>
</g>
</g>
<!-- Node1&#45;&gt;Node3 -->
<g id="edge2_Node000001_Node000003" class="edge">
<title>Node1&#45;&gt;Node3</title>
<g id="a_edge2_Node000001_Node000003"><a xlink:title=" ">
<path fill="none" stroke="#63b8ff" d="M118.1,-46.5C129.77,-46.5 141.99,-46.5 153.5,-46.5"/>
<polygon fill="#63b8ff" stroke="#63b8ff" points="153.83,-50 163.83,-46.5 153.83,-43 153.83,-50"/>
</a>
</g>
</g>
<!-- Node8 -->
<g id="Node000008" class="node">
<title>Node8</title>
<g id="a_Node000008"><a xlink:href="Thread_8c.html#a385a70a16dc0b1872fdf925d2121880c" target="_top" xlink:title="Unlock a mutex.">
<polygon fill="white" stroke="#666666" points="257.5,-19 158.5,-19 158.5,0 257.5,0 257.5,-19"/>
<text text-anchor="middle" x="208" y="-7" font-family="Helvetica,sans-Serif" font-size="10.00">SdbMutexUnlock</text>
</a>
</g>
</g>
<!-- Node1&#45;&gt;Node8 -->
<g id="edge7_Node000001_Node000008" class="edge">
<title>Node1&#45;&gt;Node8</title>
<g id="a_edge7_Node000001_Node000008"><a xlink:title=" ">
<path fill="none" stroke="#63b8ff" d="M97.86,-36.97C116.56,-32.26 139.32,-26.53 159.22,-21.53"/>
<polygon fill="#63b8ff" stroke="#63b8ff" points="160.17,-24.9 169.02,-19.06 158.47,-18.11 160.17,-24.9"/>
</a>
</g>
</g>
<!-- Node4 -->
<g id="Node000004" class="node">
<title>Node4</title>
<g id="a_Node000004"><a xlink:href="Thread_8c.html#aa16f3f5cb899e1128f1a80c021780e5f" target="_top" xlink:title=" ">
<polygon fill="white" stroke="#666666" points="387,-56 298,-56 298,-37 387,-37 387,-56"/>
<text text-anchor="middle" x="342.5" y="-44" font-family="Helvetica,sans-Serif" font-size="10.00">CreateTimeout</text>
</a>
</g>
</g>
<!-- Node3&#45;&gt;Node4 -->
<g id="edge3_Node000003_Node000004" class="edge">
<title>Node3&#45;&gt;Node4</title>
<g id="a_edge3_Node000003_Node000004"><a xlink:title=" ">
<path fill="none" stroke="#63b8ff" d="M252.02,-46.5C263.36,-46.5 275.73,-46.5 287.57,-46.5"/>
<polygon fill="#63b8ff" stroke="#63b8ff" points="287.79,-50 297.79,-46.5 287.79,-43 287.79,-50"/>
</a>
</g>
</g>
<!-- Node5 -->
<g id="Node000005" class="node">
<title>Node5</title>
<g id="a_Node000005"><a xlink:href="Time_8c.html#afad180732be23f8e46bdfc2bb349ff44" target="_top" xlink:title="Create Absolute Timeout Timestamp.">
<polygon fill="white" stroke="#666666" points="548,-56 423,-56 423,-37 548,-37 548,-56"/>
<text text-anchor="middle" x="485.5" y="-44" font-family="Helvetica,sans-Serif" font-size="10.00">SdbTimespecAbsolute</text>
</a>
</g>
</g>
<!-- Node4&#45;&gt;Node5 -->
<g id="edge4_Node000004_Node000005" class="edge">
<title>Node4&#45;&gt;Node5</title>
<g id="a_edge4_Node000004_Node000005"><a xlink:title=" ">
<path fill="none" stroke="#63b8ff" d="M387.34,-46.5C395.42,-46.5 404.04,-46.5 412.69,-46.5"/>
<polygon fill="#63b8ff" stroke="#63b8ff" points="412.83,-50 422.83,-46.5 412.83,-43 412.83,-50"/>
</a>
</g>
</g>
<!-- Node6 -->
<g id="Node000006" class="node">
<title>Node6</title>
<g id="a_Node000006"><a xlink:href="Time_8c.html#af8be68d54def6b644cac5efb8fe2e605" target="_top" xlink:title="Add Time Difference to Timestamp.">
<polygon fill="white" stroke="#666666" points="663.5,-75 585.5,-75 585.5,-56 663.5,-56 663.5,-75"/>
<text text-anchor="middle" x="624.5" y="-63" font-family="Helvetica,sans-Serif" font-size="10.00">SdbTimeAdd</text>
</a>
</g>
</g>
<!-- Node5&#45;&gt;Node6 -->
<g id="edge5_Node000005_Node000006" class="edge">
<title>Node5&#45;&gt;Node6</title>
<g id="a_edge5_Node000005_Node000006"><a xlink:title=" ">
<path fill="none" stroke="#63b8ff" d="M548.19,-55.06C557.27,-56.32 566.52,-57.6 575.28,-58.81"/>
<polygon fill="#63b8ff" stroke="#63b8ff" points="574.92,-62.3 585.31,-60.2 575.88,-55.36 574.92,-62.3"/>
</a>
</g>
</g>
<!-- Node7 -->
<g id="Node000007" class="node">
<title>Node7</title>
<g id="a_Node000007"><a xlink:href="Time_8c.html#a83d0c194706101b50506d2618e27167c" target="_top" xlink:title="Get Current Real&#45;Time Timestamp.">
<polygon fill="white" stroke="#666666" points="665,-38 584,-38 584,-19 665,-19 665,-38"/>
<text text-anchor="middle" x="624.5" y="-26" font-family="Helvetica,sans-Serif" font-size="10.00">SdbTimeNow</text>
</a>
</g>
</g>
<!-- Node5&#45;&gt;Node7 -->
<g id="edge6_Node000005_Node000007" class="edge">
<title>Node5&#45;&gt;Node7</title>
<g id="a_edge6_Node000005_Node000007"><a xlink:title=" ">
<path fill="none" stroke="#63b8ff" d="M548.19,-38.4C556.77,-37.27 565.5,-36.12 573.82,-35.03"/>
<polygon fill="#63b8ff" stroke="#63b8ff" points="574.28,-38.5 583.74,-33.72 573.37,-31.56 574.28,-38.5"/>
</a>
</g>
</g>
</g>
</svg>
