<?xml version="1.0" encoding="UTF-8" standalone="no"?>
<!DOCTYPE svg PUBLIC "-//W3C//DTD SVG 1.1//EN"
 "http://www.w3.org/Graphics/SVG/1.1/DTD/svg11.dtd">
<!-- Generated by graphviz version 2.43.0 (0)
 -->
<!-- Title: SdbMutexLock Pages: 1 -->
<svg width="629pt" height="288pt"
 viewBox="0.00 0.00 629.00 288.00" xmlns="http://www.w3.org/2000/svg" xmlns:xlink="http://www.w3.org/1999/xlink">
<g id="graph0" class="graph" transform="scale(1 1) rotate(0) translate(4 284)">
<title>SdbMutexLock</title>
<!-- Node1 -->
<g id="Node000001" class="node">
<title>Node1</title>
<g id="a_Node000001"><a xlink:title="Lock a mutex with timeout.">
<polygon fill="#999999" stroke="#666666" points="621,-150 533,-150 533,-131 621,-131 621,-150"/>
<text text-anchor="middle" x="577" y="-138" font-family="Helvetica,sans-Serif" font-size="10.00">SdbMutexLock</text>
</a>
</g>
</g>
<!-- Node2 -->
<g id="Node000002" class="node">
<title>Node2</title>
<g id="a_Node000002"><a xlink:href="Thread_8c.html#ab71f0de8f1f57ba18443a8947d10cbe9" target="_top" xlink:title=" ">
<polygon fill="white" stroke="#666666" points="496,-280 378,-280 378,-261 496,-261 496,-280"/>
<text text-anchor="middle" x="437" y="-268" font-family="Helvetica,sans-Serif" font-size="10.00">SdbTCtlMarkStopped</text>
</a>
</g>
</g>
<!-- Node1&#45;&gt;Node2 -->
<g id="edge1_Node000001_Node000002" class="edge">
<title>Node1&#45;&gt;Node2</title>
<g id="a_edge1_Node000001_Node000002"><a xlink:title=" ">
<path fill="none" stroke="#63b8ff" d="M567.57,-159.38C555.49,-184.33 530.89,-227.98 497,-252.5 492.31,-255.89 486.98,-258.65 481.48,-260.9"/>
<polygon fill="#63b8ff" stroke="#63b8ff" points="570.79,-160.77 571.85,-150.23 564.44,-157.81 570.79,-160.77"/>
</a>
</g>
</g>
<!-- Node3 -->
<g id="Node000003" class="node">
<title>Node3</title>
<g id="a_Node000003"><a xlink:href="Thread_8c.html#a8652a70b8480decb154cff225ebd8041" target="_top" xlink:title=" ">
<polygon fill="white" stroke="#666666" points="491,-243 383,-243 383,-224 491,-224 491,-243"/>
<text text-anchor="middle" x="437" y="-231" font-family="Helvetica,sans-Serif" font-size="10.00">SdbTCtlShouldStop</text>
</a>
</g>
</g>
<!-- Node1&#45;&gt;Node3 -->
<g id="edge2_Node000001_Node000003" class="edge">
<title>Node1&#45;&gt;Node3</title>
<g id="a_edge2_Node000001_Node000003"><a xlink:title=" ">
<path fill="none" stroke="#63b8ff" d="M561.82,-158.04C547.23,-175.02 523.02,-200.33 497,-215.5 491.26,-218.84 484.85,-221.62 478.41,-223.92"/>
<polygon fill="#63b8ff" stroke="#63b8ff" points="564.8,-159.94 568.54,-150.03 559.43,-155.45 564.8,-159.94"/>
</a>
</g>
</g>
<!-- Node4 -->
<g id="Node000004" class="node">
<title>Node4</title>
<g id="a_Node000004"><a xlink:href="Thread_8c.html#aeef5b8eae38ea9383d6466621c42342a" target="_top" xlink:title=" ">
<polygon fill="white" stroke="#666666" points="489.5,-206 384.5,-206 384.5,-187 489.5,-187 489.5,-206"/>
<text text-anchor="middle" x="437" y="-194" font-family="Helvetica,sans-Serif" font-size="10.00">SdbTCtlSignalStop</text>
</a>
</g>
</g>
<!-- Node1&#45;&gt;Node4 -->
<g id="edge3_Node000001_Node000004" class="edge">
<title>Node1&#45;&gt;Node4</title>
<g id="a_edge3_Node000001_Node000004"><a xlink:title=" ">
<path fill="none" stroke="#63b8ff" d="M548.92,-154.79C533.88,-162.41 514.68,-171.6 497,-178.5 489.12,-181.58 480.48,-184.47 472.31,-187"/>
<polygon fill="#63b8ff" stroke="#63b8ff" points="550.85,-157.73 558.15,-150.05 547.65,-151.51 550.85,-157.73"/>
</a>
</g>
</g>
<!-- Node5 -->
<g id="Node000005" class="node">
<title>Node5</title>
<g id="a_Node000005"><a xlink:href="Thread_8c.html#ac8a5ec29ca01a647dbc806ee148840bc" target="_top" xlink:title=" ">
<polygon fill="white" stroke="#666666" points="497,-169 377,-169 377,-150 497,-150 497,-169"/>
<text text-anchor="middle" x="437" y="-157" font-family="Helvetica,sans-Serif" font-size="10.00">SdbTCtlWaitForSignal</text>
</a>
</g>
</g>
<!-- Node1&#45;&gt;Node5 -->
<g id="edge4_Node000001_Node000005" class="edge">
<title>Node1&#45;&gt;Node5</title>
<g id="a_edge4_Node000001_Node000005"><a xlink:title=" ">
<path fill="none" stroke="#63b8ff" d="M522.68,-147.84C514.29,-149 505.57,-150.2 497.06,-151.37"/>
<polygon fill="#63b8ff" stroke="#63b8ff" points="523.29,-151.29 532.71,-146.46 522.33,-144.36 523.29,-151.29"/>
</a>
</g>
</g>
<!-- Node6 -->
<g id="Node000006" class="node">
<title>Node6</title>
<g id="a_Node000006"><a xlink:href="Thread_8c.html#a25bd8de99cb5460de9f423913059621b" target="_top" xlink:title=" ">
<polygon fill="white" stroke="#666666" points="493,-132 381,-132 381,-113 493,-113 493,-132"/>
<text text-anchor="middle" x="437" y="-120" font-family="Helvetica,sans-Serif" font-size="10.00">SdbTCtlWaitForStop</text>
</a>
</g>
</g>
<!-- Node1&#45;&gt;Node6 -->
<g id="edge5_Node000001_Node000006" class="edge">
<title>Node1&#45;&gt;Node6</title>
<g id="a_edge5_Node000001_Node000006"><a xlink:title=" ">
<path fill="none" stroke="#63b8ff" d="M522.52,-133.52C512.94,-132.28 502.94,-130.97 493.31,-129.71"/>
<polygon fill="#63b8ff" stroke="#63b8ff" points="522.35,-137.03 532.71,-134.85 523.25,-130.09 522.35,-137.03"/>
</a>
</g>
</g>
<!-- Node7 -->
<g id="Node000007" class="node">
<title>Node7</title>
<g id="a_Node000007"><a xlink:href="ThreadGroup_8c.html#a99b84055dd294fe099f1bb31fcdaceb4" target="_top" xlink:title="Start All Thread Groups in Manager.">
<polygon fill="white" stroke="#666666" points="184,-57 77,-57 77,-38 184,-38 184,-57"/>
<text text-anchor="middle" x="130.5" y="-45" font-family="Helvetica,sans-Serif" font-size="10.00">TgManagerStartAll</text>
</a>
</g>
</g>
<!-- Node1&#45;&gt;Node7 -->
<g id="edge6_Node000001_Node000007" class="edge">
<title>Node1&#45;&gt;Node7</title>
<g id="a_edge6_Node000001_Node000007"><a xlink:title=" ">
<path fill="none" stroke="#63b8ff" d="M562.86,-122.63C548.78,-105.05 524.68,-79.21 497,-67.5 393.12,-23.54 257.58,-30.93 184.22,-39.59"/>
<polygon fill="#63b8ff" stroke="#63b8ff" points="560.4,-125.16 569.28,-130.94 565.94,-120.89 560.4,-125.16"/>
</a>
</g>
</g>
<!-- Node9 -->
<g id="Node000009" class="node">
<title>Node9</title>
<g id="a_Node000009"><a xlink:href="ThreadGroup_8c.html#a94f41b6eed9ab8ff08d3921b617a87dd" target="_top" xlink:title="Wait for Completion of All Thread Groups.">
<polygon fill="white" stroke="#666666" points="341,-19 220,-19 220,0 341,0 341,-19"/>
<text text-anchor="middle" x="280.5" y="-7" font-family="Helvetica,sans-Serif" font-size="10.00">TgManagerWaitForAll</text>
</a>
</g>
</g>
<!-- Node1&#45;&gt;Node9 -->
<g id="edge8_Node000001_Node000009" class="edge">
<title>Node1&#45;&gt;Node9</title>
<g id="a_edge8_Node000001_Node000009"><a xlink:title=" ">
<path fill="none" stroke="#63b8ff" d="M567.95,-121.54C556.29,-96.65 532.17,-53.77 497,-33.5 449.71,-6.24 386.85,-2.16 341.24,-3.75"/>
<polygon fill="#63b8ff" stroke="#63b8ff" points="564.77,-123 572.06,-130.69 571.16,-120.13 564.77,-123"/>
</a>
</g>
</g>
<!-- Node10 -->
<g id="Node000010" class="node">
<title>Node10</title>
<g id="a_Node000010"><a xlink:href="ThreadGroup_8c.html#aab12be916ed17f20adc66a71e0a715c3" target="_top" xlink:title=" ">
<polygon fill="white" stroke="#666666" points="470,-95 404,-95 404,-76 470,-76 470,-95"/>
<text text-anchor="middle" x="437" y="-83" font-family="Helvetica,sans-Serif" font-size="10.00">TgMonitor</text>
</a>
</g>
</g>
<!-- Node1&#45;&gt;Node10 -->
<g id="edge10_Node000001_Node000010" class="edge">
<title>Node1&#45;&gt;Node10</title>
<g id="a_edge10_Node000001_Node000010"><a xlink:title=" ">
<path fill="none" stroke="#63b8ff" d="M547.6,-126.59C532.71,-119.55 514.06,-111.11 497,-104.5 488.37,-101.16 478.88,-97.92 470.08,-95.09"/>
<polygon fill="#63b8ff" stroke="#63b8ff" points="546.26,-129.83 556.79,-130.99 549.28,-123.51 546.26,-129.83"/>
</a>
</g>
</g>
<!-- Node8 -->
<g id="Node000008" class="node">
<title>Node8</title>
<g id="a_Node000008"><a xlink:href="Main_8c.html#ae21eb8342793f7f8f0d5fda6b96c0803" target="_top" xlink:title="Main entry point for the Sensor Data Handler System.">
<polygon fill="white" stroke="#666666" points="41,-38 0,-38 0,-19 41,-19 41,-38"/>
<text text-anchor="middle" x="20.5" y="-26" font-family="Helvetica,sans-Serif" font-size="10.00">main</text>
</a>
</g>
</g>
<!-- Node7&#45;&gt;Node8 -->
<g id="edge7_Node000007_Node000008" class="edge">
<title>Node7&#45;&gt;Node8</title>
<g id="a_edge7_Node000007_Node000008"><a xlink:title=" ">
<path fill="none" stroke="#63b8ff" d="M66.64,-36.44C57.4,-34.81 48.5,-33.25 41.09,-31.95"/>
<polygon fill="#63b8ff" stroke="#63b8ff" points="66.31,-39.94 76.77,-38.22 67.52,-33.04 66.31,-39.94"/>
</a>
</g>
</g>
<!-- Node9&#45;&gt;Node8 -->
<g id="edge9_Node000009_Node000008" class="edge">
<title>Node9&#45;&gt;Node8</title>
<g id="a_edge9_Node000009_Node000008"><a xlink:title=" ">
<path fill="none" stroke="#63b8ff" d="M209.99,-14.62C153.21,-18.8 76.76,-24.43 41.21,-27.05"/>
<polygon fill="#63b8ff" stroke="#63b8ff" points="210.27,-18.11 219.99,-13.88 209.76,-11.13 210.27,-18.11"/>
</a>
</g>
</g>
<!-- Node11 -->
<g id="Node000011" class="node">
<title>Node11</title>
<g id="a_Node000011"><a xlink:href="ThreadGroup_8c.html#aaf638572d1f947f2ab3b6637d11029fd" target="_top" xlink:title="Start All Threads in a Thread Group.">
<polygon fill="white" stroke="#666666" points="321,-95 240,-95 240,-76 321,-76 321,-95"/>
<text text-anchor="middle" x="280.5" y="-83" font-family="Helvetica,sans-Serif" font-size="10.00">TgStartGroup</text>
</a>
</g>
</g>
<!-- Node10&#45;&gt;Node11 -->
<g id="edge11_Node000010_Node000011" class="edge">
<title>Node10&#45;&gt;Node11</title>
<g id="a_edge11_Node000010_Node000011"><a xlink:title=" ">
<path fill="none" stroke="#63b8ff" d="M393.97,-85.5C371.29,-85.5 343.46,-85.5 321.16,-85.5"/>
<polygon fill="#63b8ff" stroke="#63b8ff" points="393.99,-89 403.99,-85.5 393.99,-82 393.99,-89"/>
</a>
</g>
</g>
<!-- Node11&#45;&gt;Node7 -->
<g id="edge12_Node000011_Node000007" class="edge">
<title>Node11&#45;&gt;Node7</title>
<g id="a_edge12_Node000011_Node000007"><a xlink:title=" ">
<path fill="none" stroke="#63b8ff" d="M232.33,-73.39C211.71,-68.1 187.89,-61.98 168.58,-57.02"/>
<polygon fill="#63b8ff" stroke="#63b8ff" points="231.6,-76.81 242.15,-75.91 233.34,-70.03 231.6,-76.81"/>
</a>
</g>
</g>
</g>
</svg>
