<?xml version="1.0" encoding="UTF-8" standalone="no"?>
<!DOCTYPE svg PUBLIC "-//W3C//DTD SVG 1.1//EN"
 "http://www.w3.org/Graphics/SVG/1.1/DTD/svg11.dtd">
<!-- Generated by graphviz version 2.43.0 (0)
 -->
<!-- Title: src/Common/Thread.h Pages: 1 -->
<svg width="1240pt" height="196pt"
 viewBox="0.00 0.00 1239.50 196.00" xmlns="http://www.w3.org/2000/svg" xmlns:xlink="http://www.w3.org/1999/xlink">
<g id="graph0" class="graph" transform="scale(1 1) rotate(0) translate(4 192)">
<title>src/Common/Thread.h</title>
<polygon fill="white" stroke="transparent" points="-4,4 -4,-192 1235.5,-192 1235.5,4 -4,4"/>
<!-- Node1 -->
<g id="node1" class="node">
<title>Node1</title>
<g id="a_node1"><a xlink:title="Lightweight Synchronization Primitives Wrapper.">
<polygon fill="#bfbfbf" stroke="black" points="486.5,-168.5 486.5,-187.5 610.5,-187.5 610.5,-168.5 486.5,-168.5"/>
<text text-anchor="middle" x="548.5" y="-175.5" font-family="Helvetica,sans-Serif" font-size="10.00">src/Common/Thread.h</text>
</a>
</g>
</g>
<!-- Node2 -->
<g id="node2" class="node">
<title>Node2</title>
<g id="a_node2"><a xlink:title=" ">
<polygon fill="white" stroke="#bfbfbf" points="0,-0.5 0,-19.5 63,-19.5 63,-0.5 0,-0.5"/>
<text text-anchor="middle" x="31.5" y="-7.5" font-family="Helvetica,sans-Serif" font-size="10.00">pthread.h</text>
</a>
</g>
</g>
<!-- Node1&#45;&gt;Node2 -->
<g id="edge1" class="edge">
<title>Node1&#45;&gt;Node2</title>
<path fill="none" stroke="midnightblue" d="M521.79,-168.42C435.82,-140.82 166.14,-54.23 67.83,-22.66"/>
<polygon fill="midnightblue" stroke="midnightblue" points="68.64,-19.25 58.05,-19.52 66.5,-25.91 68.64,-19.25"/>
</g>
<!-- Node3 -->
<g id="node3" class="node">
<title>Node3</title>
<g id="a_node3"><a xlink:title=" ">
<polygon fill="white" stroke="#bfbfbf" points="474.5,-112.5 474.5,-131.5 554.5,-131.5 554.5,-112.5 474.5,-112.5"/>
<text text-anchor="middle" x="514.5" y="-119.5" font-family="Helvetica,sans-Serif" font-size="10.00">semaphore.h</text>
</a>
</g>
</g>
<!-- Node1&#45;&gt;Node3 -->
<g id="edge2" class="edge">
<title>Node1&#45;&gt;Node3</title>
<path fill="none" stroke="midnightblue" d="M542.89,-168.08C538.13,-160.53 531.18,-149.49 525.35,-140.23"/>
<polygon fill="midnightblue" stroke="midnightblue" points="528.3,-138.35 520.01,-131.75 522.38,-142.08 528.3,-138.35"/>
</g>
<!-- Node4 -->
<g id="node4" class="node">
<title>Node4</title>
<g id="a_node4"><a xlink:href="Sdb_8h.html" target="_top" xlink:title=" ">
<polygon fill="white" stroke="black" points="566,-56.5 566,-75.5 627,-75.5 627,-56.5 566,-56.5"/>
<text text-anchor="middle" x="596.5" y="-63.5" font-family="Helvetica,sans-Serif" font-size="10.00">src/Sdb.h</text>
</a>
</g>
</g>
<!-- Node1&#45;&gt;Node4 -->
<g id="edge3" class="edge">
<title>Node1&#45;&gt;Node4</title>
<path fill="none" stroke="midnightblue" d="M552.27,-168.37C560.08,-150.46 578.21,-108.92 588.67,-84.95"/>
<polygon fill="midnightblue" stroke="midnightblue" points="591.96,-86.16 592.75,-75.59 585.54,-83.36 591.96,-86.16"/>
</g>
<!-- Node21 -->
<g id="node21" class="node">
<title>Node21</title>
<g id="a_node21"><a xlink:href="Time_8h.html" target="_top" xlink:title="Lightweight Time Manipulation Utilities.">
<polygon fill="white" stroke="black" points="611,-112.5 611,-131.5 726,-131.5 726,-112.5 611,-112.5"/>
<text text-anchor="middle" x="668.5" y="-119.5" font-family="Helvetica,sans-Serif" font-size="10.00">src/Common/Time.h</text>
</a>
</g>
</g>
<!-- Node1&#45;&gt;Node21 -->
<g id="edge21" class="edge">
<title>Node1&#45;&gt;Node21</title>
<path fill="none" stroke="midnightblue" d="M567.51,-168.44C587.09,-159.64 617.81,-145.81 640.23,-135.72"/>
<polygon fill="midnightblue" stroke="midnightblue" points="641.89,-138.81 649.57,-131.52 639.02,-132.43 641.89,-138.81"/>
</g>
<!-- Node4&#45;&gt;Node2 -->
<g id="edge10" class="edge">
<title>Node4&#45;&gt;Node2</title>
<path fill="none" stroke="midnightblue" d="M565.92,-63.77C486.37,-60.27 266.37,-48.71 73.26,-19.91"/>
<polygon fill="midnightblue" stroke="midnightblue" points="73.62,-16.42 63.21,-18.39 72.57,-23.34 73.62,-16.42"/>
</g>
<!-- Node5 -->
<g id="node5" class="node">
<title>Node5</title>
<g id="a_node5"><a xlink:title=" ">
<polygon fill="white" stroke="#bfbfbf" points="81.5,-0.5 81.5,-19.5 137.5,-19.5 137.5,-0.5 81.5,-0.5"/>
<text text-anchor="middle" x="109.5" y="-7.5" font-family="Helvetica,sans-Serif" font-size="10.00">assert.h</text>
</a>
</g>
</g>
<!-- Node4&#45;&gt;Node5 -->
<g id="edge4" class="edge">
<title>Node4&#45;&gt;Node5</title>
<path fill="none" stroke="midnightblue" d="M565.75,-63.4C494.13,-59.37 310.57,-47.21 147.89,-20.01"/>
<polygon fill="midnightblue" stroke="midnightblue" points="148.14,-16.51 137.7,-18.29 146.97,-23.41 148.14,-16.51"/>
</g>
<!-- Node6 -->
<g id="node6" class="node">
<title>Node6</title>
<g id="a_node6"><a xlink:title=" ">
<polygon fill="white" stroke="#bfbfbf" points="156,-0.5 156,-19.5 209,-19.5 209,-0.5 156,-0.5"/>
<text text-anchor="middle" x="182.5" y="-7.5" font-family="Helvetica,sans-Serif" font-size="10.00">ctype.h</text>
</a>
</g>
</g>
<!-- Node4&#45;&gt;Node6 -->
<g id="edge5" class="edge">
<title>Node4&#45;&gt;Node6</title>
<path fill="none" stroke="midnightblue" d="M565.83,-62.76C502.66,-57.84 353.34,-44.67 219.21,-20.11"/>
<polygon fill="midnightblue" stroke="midnightblue" points="219.64,-16.63 209.17,-18.25 218.36,-23.52 219.64,-16.63"/>
</g>
<!-- Node7 -->
<g id="node7" class="node">
<title>Node7</title>
<g id="a_node7"><a xlink:title=" ">
<polygon fill="white" stroke="#bfbfbf" points="227,-0.5 227,-19.5 278,-19.5 278,-0.5 227,-0.5"/>
<text text-anchor="middle" x="252.5" y="-7.5" font-family="Helvetica,sans-Serif" font-size="10.00">errno.h</text>
</a>
</g>
</g>
<!-- Node4&#45;&gt;Node7 -->
<g id="edge6" class="edge">
<title>Node4&#45;&gt;Node7</title>
<path fill="none" stroke="midnightblue" d="M565.94,-61.74C511.79,-55.71 395.34,-41.62 288.06,-20.13"/>
<polygon fill="midnightblue" stroke="midnightblue" points="288.54,-16.66 278.05,-18.1 287.15,-23.52 288.54,-16.66"/>
</g>
<!-- Node8 -->
<g id="node8" class="node">
<title>Node8</title>
<g id="a_node8"><a xlink:title=" ">
<polygon fill="white" stroke="#bfbfbf" points="296,-0.5 296,-19.5 343,-19.5 343,-0.5 296,-0.5"/>
<text text-anchor="middle" x="319.5" y="-7.5" font-family="Helvetica,sans-Serif" font-size="10.00">fcntl.h</text>
</a>
</g>
</g>
<!-- Node4&#45;&gt;Node8 -->
<g id="edge7" class="edge">
<title>Node4&#45;&gt;Node8</title>
<path fill="none" stroke="midnightblue" d="M565.76,-60.29C520.98,-53.23 435.02,-38.91 353.16,-20.23"/>
<polygon fill="midnightblue" stroke="midnightblue" points="353.73,-16.77 343.2,-17.93 352.16,-23.59 353.73,-16.77"/>
</g>
<!-- Node9 -->
<g id="node9" class="node">
<title>Node9</title>
<g id="a_node9"><a xlink:title=" ">
<polygon fill="white" stroke="#bfbfbf" points="361,-0.5 361,-19.5 408,-19.5 408,-0.5 361,-0.5"/>
<text text-anchor="middle" x="384.5" y="-7.5" font-family="Helvetica,sans-Serif" font-size="10.00">float.h</text>
</a>
</g>
</g>
<!-- Node4&#45;&gt;Node9 -->
<g id="edge8" class="edge">
<title>Node4&#45;&gt;Node9</title>
<path fill="none" stroke="midnightblue" d="M565.86,-57.63C531.94,-49.4 475.42,-35.52 418.18,-20.4"/>
<polygon fill="midnightblue" stroke="midnightblue" points="418.81,-16.94 408.24,-17.76 417.01,-23.71 418.81,-16.94"/>
</g>
<!-- Node10 -->
<g id="node10" class="node">
<title>Node10</title>
<g id="a_node10"><a xlink:title=" ">
<polygon fill="white" stroke="#bfbfbf" points="426,-0.5 426,-19.5 477,-19.5 477,-0.5 426,-0.5"/>
<text text-anchor="middle" x="451.5" y="-7.5" font-family="Helvetica,sans-Serif" font-size="10.00">math.h</text>
</a>
</g>
</g>
<!-- Node4&#45;&gt;Node10 -->
<g id="edge9" class="edge">
<title>Node4&#45;&gt;Node10</title>
<path fill="none" stroke="midnightblue" d="M573.52,-56.44C549.34,-47.44 511.08,-33.19 483.85,-23.05"/>
<polygon fill="midnightblue" stroke="midnightblue" points="484.96,-19.73 474.37,-19.52 482.52,-26.29 484.96,-19.73"/>
</g>
<!-- Node11 -->
<g id="node11" class="node">
<title>Node11</title>
<g id="a_node11"><a xlink:title=" ">
<polygon fill="white" stroke="#bfbfbf" points="495.5,-0.5 495.5,-19.5 551.5,-19.5 551.5,-0.5 495.5,-0.5"/>
<text text-anchor="middle" x="523.5" y="-7.5" font-family="Helvetica,sans-Serif" font-size="10.00">stdarg.h</text>
</a>
</g>
</g>
<!-- Node4&#45;&gt;Node11 -->
<g id="edge11" class="edge">
<title>Node4&#45;&gt;Node11</title>
<path fill="none" stroke="midnightblue" d="M584.77,-56.32C573.66,-48.11 556.76,-35.6 543.52,-25.81"/>
<polygon fill="midnightblue" stroke="midnightblue" points="545.56,-22.97 535.44,-19.83 541.4,-28.59 545.56,-22.97"/>
</g>
<!-- Node12 -->
<g id="node12" class="node">
<title>Node12</title>
<g id="a_node12"><a xlink:title=" ">
<polygon fill="white" stroke="#bfbfbf" points="570,-0.5 570,-19.5 623,-19.5 623,-0.5 570,-0.5"/>
<text text-anchor="middle" x="596.5" y="-7.5" font-family="Helvetica,sans-Serif" font-size="10.00">stdint.h</text>
</a>
</g>
</g>
<!-- Node4&#45;&gt;Node12 -->
<g id="edge12" class="edge">
<title>Node4&#45;&gt;Node12</title>
<path fill="none" stroke="midnightblue" d="M596.5,-56.08C596.5,-49.01 596.5,-38.86 596.5,-29.99"/>
<polygon fill="midnightblue" stroke="midnightblue" points="600,-29.75 596.5,-19.75 593,-29.75 600,-29.75"/>
</g>
<!-- Node13 -->
<g id="node13" class="node">
<title>Node13</title>
<g id="a_node13"><a xlink:title=" ">
<polygon fill="white" stroke="#bfbfbf" points="641.5,-0.5 641.5,-19.5 691.5,-19.5 691.5,-0.5 641.5,-0.5"/>
<text text-anchor="middle" x="666.5" y="-7.5" font-family="Helvetica,sans-Serif" font-size="10.00">stdio.h</text>
</a>
</g>
</g>
<!-- Node4&#45;&gt;Node13 -->
<g id="edge13" class="edge">
<title>Node4&#45;&gt;Node13</title>
<path fill="none" stroke="midnightblue" d="M607.75,-56.32C618.3,-48.18 634.3,-35.84 646.94,-26.09"/>
<polygon fill="midnightblue" stroke="midnightblue" points="649.27,-28.71 655.05,-19.83 644.99,-23.17 649.27,-28.71"/>
</g>
<!-- Node14 -->
<g id="node14" class="node">
<title>Node14</title>
<g id="a_node14"><a xlink:title=" ">
<polygon fill="white" stroke="#bfbfbf" points="710,-0.5 710,-19.5 763,-19.5 763,-0.5 710,-0.5"/>
<text text-anchor="middle" x="736.5" y="-7.5" font-family="Helvetica,sans-Serif" font-size="10.00">stdlib.h</text>
</a>
</g>
</g>
<!-- Node4&#45;&gt;Node14 -->
<g id="edge14" class="edge">
<title>Node4&#45;&gt;Node14</title>
<path fill="none" stroke="midnightblue" d="M618.68,-56.44C641.93,-47.48 678.65,-33.31 704.92,-23.18"/>
<polygon fill="midnightblue" stroke="midnightblue" points="706.35,-26.38 714.42,-19.52 703.83,-19.85 706.35,-26.38"/>
</g>
<!-- Node15 -->
<g id="node15" class="node">
<title>Node15</title>
<g id="a_node15"><a xlink:title=" ">
<polygon fill="white" stroke="#bfbfbf" points="781,-0.5 781,-19.5 834,-19.5 834,-0.5 781,-0.5"/>
<text text-anchor="middle" x="807.5" y="-7.5" font-family="Helvetica,sans-Serif" font-size="10.00">string.h</text>
</a>
</g>
</g>
<!-- Node4&#45;&gt;Node15 -->
<g id="edge15" class="edge">
<title>Node4&#45;&gt;Node15</title>
<path fill="none" stroke="midnightblue" d="M627.03,-57.21C660.21,-48.74 715.06,-34.72 771.03,-20.38"/>
<polygon fill="midnightblue" stroke="midnightblue" points="771.93,-23.76 780.75,-17.88 770.19,-16.98 771.93,-23.76"/>
</g>
<!-- Node16 -->
<g id="node16" class="node">
<title>Node16</title>
<g id="a_node16"><a xlink:title=" ">
<polygon fill="white" stroke="#bfbfbf" points="852,-0.5 852,-19.5 929,-19.5 929,-0.5 852,-0.5"/>
<text text-anchor="middle" x="890.5" y="-7.5" font-family="Helvetica,sans-Serif" font-size="10.00">sys/mman.h</text>
</a>
</g>
</g>
<!-- Node4&#45;&gt;Node16 -->
<g id="edge16" class="edge">
<title>Node4&#45;&gt;Node16</title>
<path fill="none" stroke="midnightblue" d="M627.32,-59.48C672.3,-51.4 758.82,-35.78 841.92,-20.28"/>
<polygon fill="midnightblue" stroke="midnightblue" points="842.59,-23.72 851.78,-18.44 841.3,-16.84 842.59,-23.72"/>
</g>
<!-- Node17 -->
<g id="node17" class="node">
<title>Node17</title>
<g id="a_node17"><a xlink:title=" ">
<polygon fill="white" stroke="#bfbfbf" points="947.5,-0.5 947.5,-19.5 1011.5,-19.5 1011.5,-0.5 947.5,-0.5"/>
<text text-anchor="middle" x="979.5" y="-7.5" font-family="Helvetica,sans-Serif" font-size="10.00">sys/stat.h</text>
</a>
</g>
</g>
<!-- Node4&#45;&gt;Node17 -->
<g id="edge17" class="edge">
<title>Node4&#45;&gt;Node17</title>
<path fill="none" stroke="midnightblue" d="M627.18,-60.08C635.99,-58.71 645.62,-57.25 654.5,-56 777.29,-38.69 811.41,-41.5 937.3,-20.07"/>
<polygon fill="midnightblue" stroke="midnightblue" points="938.06,-23.49 947.32,-18.35 936.88,-16.6 938.06,-23.49"/>
</g>
<!-- Node18 -->
<g id="node18" class="node">
<title>Node18</title>
<g id="a_node18"><a xlink:title=" ">
<polygon fill="white" stroke="#bfbfbf" points="1183.5,-0.5 1183.5,-19.5 1231.5,-19.5 1231.5,-0.5 1183.5,-0.5"/>
<text text-anchor="middle" x="1207.5" y="-7.5" font-family="Helvetica,sans-Serif" font-size="10.00">time.h</text>
</a>
</g>
</g>
<!-- Node4&#45;&gt;Node18 -->
<g id="edge18" class="edge">
<title>Node4&#45;&gt;Node18</title>
<path fill="none" stroke="midnightblue" d="M627.14,-59.75C635.95,-58.37 645.59,-57 654.5,-56 881.46,-30.58 944.31,-57.87 1173.49,-19.82"/>
<polygon fill="midnightblue" stroke="midnightblue" points="1174.19,-23.25 1183.47,-18.14 1173.03,-16.35 1174.19,-23.25"/>
</g>
<!-- Node19 -->
<g id="node19" class="node">
<title>Node19</title>
<g id="a_node19"><a xlink:title=" ">
<polygon fill="white" stroke="#bfbfbf" points="1029.5,-0.5 1029.5,-19.5 1085.5,-19.5 1085.5,-0.5 1029.5,-0.5"/>
<text text-anchor="middle" x="1057.5" y="-7.5" font-family="Helvetica,sans-Serif" font-size="10.00">unistd.h</text>
</a>
</g>
</g>
<!-- Node4&#45;&gt;Node19 -->
<g id="edge19" class="edge">
<title>Node4&#45;&gt;Node19</title>
<path fill="none" stroke="midnightblue" d="M627.16,-59.92C635.97,-58.54 645.6,-57.13 654.5,-56 813.33,-35.88 857.56,-46.91 1019.01,-20.03"/>
<polygon fill="midnightblue" stroke="midnightblue" points="1020.03,-23.41 1029.3,-18.29 1018.86,-16.51 1020.03,-23.41"/>
</g>
<!-- Node20 -->
<g id="node20" class="node">
<title>Node20</title>
<g id="a_node20"><a xlink:title=" ">
<polygon fill="white" stroke="#bfbfbf" points="1103.5,-0.5 1103.5,-19.5 1165.5,-19.5 1165.5,-0.5 1103.5,-0.5"/>
<text text-anchor="middle" x="1134.5" y="-7.5" font-family="Helvetica,sans-Serif" font-size="10.00">stdbool.h</text>
</a>
</g>
</g>
<!-- Node4&#45;&gt;Node20 -->
<g id="edge20" class="edge">
<title>Node4&#45;&gt;Node20</title>
<path fill="none" stroke="midnightblue" d="M627.15,-59.82C635.96,-58.45 645.59,-57.05 654.5,-56 846.11,-33.32 898.8,-49.06 1093.17,-20"/>
<polygon fill="midnightblue" stroke="midnightblue" points="1093.77,-23.45 1103.14,-18.49 1092.72,-16.53 1093.77,-23.45"/>
</g>
<!-- Node21&#45;&gt;Node4 -->
<g id="edge24" class="edge">
<title>Node21&#45;&gt;Node4</title>
<path fill="none" stroke="midnightblue" d="M656.93,-112.32C646.08,-104.18 629.62,-91.84 616.62,-82.09"/>
<polygon fill="midnightblue" stroke="midnightblue" points="618.38,-79.03 608.28,-75.83 614.18,-84.63 618.38,-79.03"/>
</g>
<!-- Node21&#45;&gt;Node18 -->
<g id="edge23" class="edge">
<title>Node21&#45;&gt;Node18</title>
<path fill="none" stroke="midnightblue" d="M668.32,-112.15C668.55,-97.8 671.33,-69.69 688.5,-56 728.98,-23.73 1087.5,-28.64 1173.41,-19.48"/>
<polygon fill="midnightblue" stroke="midnightblue" points="1174.03,-22.93 1183.47,-18.13 1173.09,-16 1174.03,-22.93"/>
</g>
<!-- Node22 -->
<g id="node22" class="node">
<title>Node22</title>
<g id="a_node22"><a xlink:title=" ">
<polygon fill="white" stroke="#bfbfbf" points="697,-56.5 697,-75.5 750,-75.5 750,-56.5 697,-56.5"/>
<text text-anchor="middle" x="723.5" y="-63.5" font-family="Helvetica,sans-Serif" font-size="10.00">limits.h</text>
</a>
</g>
</g>
<!-- Node21&#45;&gt;Node22 -->
<g id="edge22" class="edge">
<title>Node21&#45;&gt;Node22</title>
<path fill="none" stroke="midnightblue" d="M677.58,-112.08C685.67,-104.14 697.7,-92.34 707.41,-82.8"/>
<polygon fill="midnightblue" stroke="midnightblue" points="709.9,-85.25 714.59,-75.75 705,-80.26 709.9,-85.25"/>
</g>
</g>
</svg>
