<?xml version="1.0" encoding="UTF-8" standalone="no"?>
<!DOCTYPE svg PUBLIC "-//W3C//DTD SVG 1.1//EN"
 "http://www.w3.org/Graphics/SVG/1.1/DTD/svg11.dtd">
<!-- Generated by graphviz version 2.43.0 (0)
 -->
<!-- Title: src/Common/ThreadGroup.h Pages: 1 -->
<svg width="1240pt" height="252pt"
 viewBox="0.00 0.00 1239.50 252.00" xmlns="http://www.w3.org/2000/svg" xmlns:xlink="http://www.w3.org/1999/xlink">
<g id="graph0" class="graph" transform="scale(1 1) rotate(0) translate(4 248)">
<title>src/Common/ThreadGroup.h</title>
<polygon fill="white" stroke="transparent" points="-4,4 -4,-248 1235.5,-248 1235.5,4 -4,4"/>
<!-- Node1 -->
<g id="node1" class="node">
<title>Node1</title>
<g id="a_node1"><a xlink:title="Thread Group Management System.">
<polygon fill="#bfbfbf" stroke="black" points="701.5,-224.5 701.5,-243.5 854.5,-243.5 854.5,-224.5 701.5,-224.5"/>
<text text-anchor="middle" x="778" y="-231.5" font-family="Helvetica,sans-Serif" font-size="10.00">src/Common/ThreadGroup.h</text>
</a>
</g>
</g>
<!-- Node2 -->
<g id="node2" class="node">
<title>Node2</title>
<g id="a_node2"><a xlink:title=" ">
<polygon fill="white" stroke="#bfbfbf" points="1168.5,-0.5 1168.5,-19.5 1231.5,-19.5 1231.5,-0.5 1168.5,-0.5"/>
<text text-anchor="middle" x="1200" y="-7.5" font-family="Helvetica,sans-Serif" font-size="10.00">pthread.h</text>
</a>
</g>
</g>
<!-- Node1&#45;&gt;Node2 -->
<g id="edge1" class="edge">
<title>Node1&#45;&gt;Node2</title>
<path fill="none" stroke="midnightblue" d="M811.46,-224.5C878.74,-206.16 1032.98,-157.82 1138,-76 1156.54,-61.55 1174.74,-41.59 1186.57,-27.61"/>
<polygon fill="midnightblue" stroke="midnightblue" points="1189.38,-29.71 1193.07,-19.78 1183.99,-25.24 1189.38,-29.71"/>
</g>
<!-- Node3 -->
<g id="node3" class="node">
<title>Node3</title>
<g id="a_node3"><a xlink:title=" ">
<polygon fill="white" stroke="#bfbfbf" points="0,-0.5 0,-19.5 62,-19.5 62,-0.5 0,-0.5"/>
<text text-anchor="middle" x="31" y="-7.5" font-family="Helvetica,sans-Serif" font-size="10.00">stdbool.h</text>
</a>
</g>
</g>
<!-- Node1&#45;&gt;Node3 -->
<g id="edge2" class="edge">
<title>Node1&#45;&gt;Node3</title>
<path fill="none" stroke="midnightblue" d="M749.17,-224.43C633.28,-189.99 201.22,-61.59 69.42,-22.42"/>
<polygon fill="midnightblue" stroke="midnightblue" points="70.32,-19.03 59.74,-19.54 68.33,-25.74 70.32,-19.03"/>
</g>
<!-- Node4 -->
<g id="node4" class="node">
<title>Node4</title>
<g id="a_node4"><a xlink:href="Sdb_8h.html" target="_top" xlink:title=" ">
<polygon fill="white" stroke="black" points="685.5,-56.5 685.5,-75.5 746.5,-75.5 746.5,-56.5 685.5,-56.5"/>
<text text-anchor="middle" x="716" y="-63.5" font-family="Helvetica,sans-Serif" font-size="10.00">src/Sdb.h</text>
</a>
</g>
</g>
<!-- Node1&#45;&gt;Node4 -->
<g id="edge3" class="edge">
<title>Node1&#45;&gt;Node4</title>
<path fill="none" stroke="midnightblue" d="M774.67,-224.08C764.87,-197.83 736,-120.55 722.77,-85.12"/>
<polygon fill="midnightblue" stroke="midnightblue" points="725.98,-83.71 719.2,-75.57 719.42,-86.16 725.98,-83.71"/>
</g>
<!-- Node20 -->
<g id="node20" class="node">
<title>Node20</title>
<g id="a_node20"><a xlink:href="Thread_8h.html" target="_top" xlink:title="Lightweight Synchronization Primitives Wrapper.">
<polygon fill="white" stroke="black" points="778,-168.5 778,-187.5 902,-187.5 902,-168.5 778,-168.5"/>
<text text-anchor="middle" x="840" y="-175.5" font-family="Helvetica,sans-Serif" font-size="10.00">src/Common/Thread.h</text>
</a>
</g>
</g>
<!-- Node1&#45;&gt;Node20 -->
<g id="edge21" class="edge">
<title>Node1&#45;&gt;Node20</title>
<path fill="none" stroke="midnightblue" d="M787.96,-224.32C797.13,-216.34 810.94,-204.31 822.03,-194.65"/>
<polygon fill="midnightblue" stroke="midnightblue" points="824.62,-197.04 829.86,-187.83 820.02,-191.76 824.62,-197.04"/>
</g>
<!-- Node4&#45;&gt;Node2 -->
<g id="edge10" class="edge">
<title>Node4&#45;&gt;Node2</title>
<path fill="none" stroke="midnightblue" d="M746.5,-63.11C817.11,-58.49 997.4,-45.2 1158.21,-19.94"/>
<polygon fill="midnightblue" stroke="midnightblue" points="1158.96,-23.37 1168.28,-18.34 1157.86,-16.45 1158.96,-23.37"/>
</g>
<!-- Node4&#45;&gt;Node3 -->
<g id="edge20" class="edge">
<title>Node4&#45;&gt;Node3</title>
<path fill="none" stroke="midnightblue" d="M685.27,-64.51C593.51,-62.69 313.43,-54.6 72.36,-19.98"/>
<polygon fill="midnightblue" stroke="midnightblue" points="72.76,-16.5 62.36,-18.53 71.75,-23.43 72.76,-16.5"/>
</g>
<!-- Node5 -->
<g id="node5" class="node">
<title>Node5</title>
<g id="a_node5"><a xlink:title=" ">
<polygon fill="white" stroke="#bfbfbf" points="688,-0.5 688,-19.5 744,-19.5 744,-0.5 688,-0.5"/>
<text text-anchor="middle" x="716" y="-7.5" font-family="Helvetica,sans-Serif" font-size="10.00">assert.h</text>
</a>
</g>
</g>
<!-- Node4&#45;&gt;Node5 -->
<g id="edge4" class="edge">
<title>Node4&#45;&gt;Node5</title>
<path fill="none" stroke="midnightblue" d="M716,-56.08C716,-49.01 716,-38.86 716,-29.99"/>
<polygon fill="midnightblue" stroke="midnightblue" points="719.5,-29.75 716,-19.75 712.5,-29.75 719.5,-29.75"/>
</g>
<!-- Node6 -->
<g id="node6" class="node">
<title>Node6</title>
<g id="a_node6"><a xlink:title=" ">
<polygon fill="white" stroke="#bfbfbf" points="762.5,-0.5 762.5,-19.5 815.5,-19.5 815.5,-0.5 762.5,-0.5"/>
<text text-anchor="middle" x="789" y="-7.5" font-family="Helvetica,sans-Serif" font-size="10.00">ctype.h</text>
</a>
</g>
</g>
<!-- Node4&#45;&gt;Node6 -->
<g id="edge5" class="edge">
<title>Node4&#45;&gt;Node6</title>
<path fill="none" stroke="midnightblue" d="M727.73,-56.32C738.84,-48.11 755.74,-35.6 768.98,-25.81"/>
<polygon fill="midnightblue" stroke="midnightblue" points="771.1,-28.59 777.06,-19.83 766.94,-22.97 771.1,-28.59"/>
</g>
<!-- Node7 -->
<g id="node7" class="node">
<title>Node7</title>
<g id="a_node7"><a xlink:title=" ">
<polygon fill="white" stroke="#bfbfbf" points="833.5,-0.5 833.5,-19.5 884.5,-19.5 884.5,-0.5 833.5,-0.5"/>
<text text-anchor="middle" x="859" y="-7.5" font-family="Helvetica,sans-Serif" font-size="10.00">errno.h</text>
</a>
</g>
</g>
<!-- Node4&#45;&gt;Node7 -->
<g id="edge6" class="edge">
<title>Node4&#45;&gt;Node7</title>
<path fill="none" stroke="midnightblue" d="M738.66,-56.44C762.4,-47.48 799.91,-33.31 826.74,-23.18"/>
<polygon fill="midnightblue" stroke="midnightblue" points="828.33,-26.32 836.45,-19.52 825.86,-19.77 828.33,-26.32"/>
</g>
<!-- Node8 -->
<g id="node8" class="node">
<title>Node8</title>
<g id="a_node8"><a xlink:title=" ">
<polygon fill="white" stroke="#bfbfbf" points="902.5,-0.5 902.5,-19.5 949.5,-19.5 949.5,-0.5 902.5,-0.5"/>
<text text-anchor="middle" x="926" y="-7.5" font-family="Helvetica,sans-Serif" font-size="10.00">fcntl.h</text>
</a>
</g>
</g>
<!-- Node4&#45;&gt;Node8 -->
<g id="edge7" class="edge">
<title>Node4&#45;&gt;Node8</title>
<path fill="none" stroke="midnightblue" d="M746.62,-57.52C780.19,-49.26 835.9,-35.4 892.44,-20.37"/>
<polygon fill="midnightblue" stroke="midnightblue" points="893.49,-23.71 902.25,-17.75 891.69,-16.95 893.49,-23.71"/>
</g>
<!-- Node9 -->
<g id="node9" class="node">
<title>Node9</title>
<g id="a_node9"><a xlink:title=" ">
<polygon fill="white" stroke="#bfbfbf" points="967.5,-0.5 967.5,-19.5 1014.5,-19.5 1014.5,-0.5 967.5,-0.5"/>
<text text-anchor="middle" x="991" y="-7.5" font-family="Helvetica,sans-Serif" font-size="10.00">float.h</text>
</a>
</g>
</g>
<!-- Node4&#45;&gt;Node9 -->
<g id="edge8" class="edge">
<title>Node4&#45;&gt;Node9</title>
<path fill="none" stroke="midnightblue" d="M746.87,-60.21C791.4,-53.1 876.39,-38.78 957.44,-20.21"/>
<polygon fill="midnightblue" stroke="midnightblue" points="958.34,-23.59 967.3,-17.93 956.76,-16.77 958.34,-23.59"/>
</g>
<!-- Node10 -->
<g id="node10" class="node">
<title>Node10</title>
<g id="a_node10"><a xlink:title=" ">
<polygon fill="white" stroke="#bfbfbf" points="1032.5,-0.5 1032.5,-19.5 1083.5,-19.5 1083.5,-0.5 1032.5,-0.5"/>
<text text-anchor="middle" x="1058" y="-7.5" font-family="Helvetica,sans-Serif" font-size="10.00">math.h</text>
</a>
</g>
</g>
<!-- Node4&#45;&gt;Node10 -->
<g id="edge9" class="edge">
<title>Node4&#45;&gt;Node10</title>
<path fill="none" stroke="midnightblue" d="M746.8,-61.68C800.79,-55.6 916.15,-41.48 1022.52,-20.12"/>
<polygon fill="midnightblue" stroke="midnightblue" points="1023.35,-23.52 1032.45,-18.1 1021.96,-16.66 1023.35,-23.52"/>
</g>
<!-- Node11 -->
<g id="node11" class="node">
<title>Node11</title>
<g id="a_node11"><a xlink:title=" ">
<polygon fill="white" stroke="#bfbfbf" points="80,-0.5 80,-19.5 136,-19.5 136,-0.5 80,-0.5"/>
<text text-anchor="middle" x="108" y="-7.5" font-family="Helvetica,sans-Serif" font-size="10.00">stdarg.h</text>
</a>
</g>
</g>
<!-- Node4&#45;&gt;Node11 -->
<g id="edge11" class="edge">
<title>Node4&#45;&gt;Node11</title>
<path fill="none" stroke="midnightblue" d="M685.47,-64.31C601.08,-62.04 357.5,-53.04 146.22,-19.94"/>
<polygon fill="midnightblue" stroke="midnightblue" points="146.61,-16.46 136.19,-18.35 145.51,-23.37 146.61,-16.46"/>
</g>
<!-- Node12 -->
<g id="node12" class="node">
<title>Node12</title>
<g id="a_node12"><a xlink:title=" ">
<polygon fill="white" stroke="#bfbfbf" points="154.5,-0.5 154.5,-19.5 207.5,-19.5 207.5,-0.5 154.5,-0.5"/>
<text text-anchor="middle" x="181" y="-7.5" font-family="Helvetica,sans-Serif" font-size="10.00">stdint.h</text>
</a>
</g>
</g>
<!-- Node4&#45;&gt;Node12 -->
<g id="edge12" class="edge">
<title>Node4&#45;&gt;Node12</title>
<path fill="none" stroke="midnightblue" d="M685.41,-63.89C608.45,-60.76 400.52,-50.12 217.7,-19.84"/>
<polygon fill="midnightblue" stroke="midnightblue" points="218.08,-16.35 207.64,-18.15 216.92,-23.26 218.08,-16.35"/>
</g>
<!-- Node13 -->
<g id="node13" class="node">
<title>Node13</title>
<g id="a_node13"><a xlink:title=" ">
<polygon fill="white" stroke="#bfbfbf" points="226,-0.5 226,-19.5 276,-19.5 276,-0.5 226,-0.5"/>
<text text-anchor="middle" x="251" y="-7.5" font-family="Helvetica,sans-Serif" font-size="10.00">stdio.h</text>
</a>
</g>
</g>
<!-- Node4&#45;&gt;Node13 -->
<g id="edge13" class="edge">
<title>Node4&#45;&gt;Node13</title>
<path fill="none" stroke="midnightblue" d="M685.46,-63.44C616.13,-59.55 441.46,-47.8 286.34,-19.98"/>
<polygon fill="midnightblue" stroke="midnightblue" points="286.62,-16.47 276.15,-18.12 285.36,-23.36 286.62,-16.47"/>
</g>
<!-- Node14 -->
<g id="node14" class="node">
<title>Node14</title>
<g id="a_node14"><a xlink:title=" ">
<polygon fill="white" stroke="#bfbfbf" points="294.5,-0.5 294.5,-19.5 347.5,-19.5 347.5,-0.5 294.5,-0.5"/>
<text text-anchor="middle" x="321" y="-7.5" font-family="Helvetica,sans-Serif" font-size="10.00">stdlib.h</text>
</a>
</g>
</g>
<!-- Node4&#45;&gt;Node14 -->
<g id="edge14" class="edge">
<title>Node4&#45;&gt;Node14</title>
<path fill="none" stroke="midnightblue" d="M685.45,-62.5C624.71,-57.26 484.34,-43.73 357.55,-20.1"/>
<polygon fill="midnightblue" stroke="midnightblue" points="358.15,-16.65 347.67,-18.23 356.85,-23.53 358.15,-16.65"/>
</g>
<!-- Node15 -->
<g id="node15" class="node">
<title>Node15</title>
<g id="a_node15"><a xlink:title=" ">
<polygon fill="white" stroke="#bfbfbf" points="365.5,-0.5 365.5,-19.5 418.5,-19.5 418.5,-0.5 365.5,-0.5"/>
<text text-anchor="middle" x="392" y="-7.5" font-family="Helvetica,sans-Serif" font-size="10.00">string.h</text>
</a>
</g>
</g>
<!-- Node4&#45;&gt;Node15 -->
<g id="edge15" class="edge">
<title>Node4&#45;&gt;Node15</title>
<path fill="none" stroke="midnightblue" d="M685.45,-61.24C634.24,-54.71 527.66,-40.23 428.56,-20.17"/>
<polygon fill="midnightblue" stroke="midnightblue" points="429.19,-16.73 418.69,-18.15 427.79,-23.58 429.19,-16.73"/>
</g>
<!-- Node16 -->
<g id="node16" class="node">
<title>Node16</title>
<g id="a_node16"><a xlink:title=" ">
<polygon fill="white" stroke="#bfbfbf" points="436.5,-0.5 436.5,-19.5 513.5,-19.5 513.5,-0.5 436.5,-0.5"/>
<text text-anchor="middle" x="475" y="-7.5" font-family="Helvetica,sans-Serif" font-size="10.00">sys/mman.h</text>
</a>
</g>
</g>
<!-- Node4&#45;&gt;Node16 -->
<g id="edge16" class="edge">
<title>Node4&#45;&gt;Node16</title>
<path fill="none" stroke="midnightblue" d="M685.48,-58.16C644.56,-48.99 571.5,-32.62 523.13,-21.78"/>
<polygon fill="midnightblue" stroke="midnightblue" points="523.73,-18.33 513.21,-19.56 522.2,-25.16 523.73,-18.33"/>
</g>
<!-- Node17 -->
<g id="node17" class="node">
<title>Node17</title>
<g id="a_node17"><a xlink:title=" ">
<polygon fill="white" stroke="#bfbfbf" points="532,-0.5 532,-19.5 596,-19.5 596,-0.5 532,-0.5"/>
<text text-anchor="middle" x="564" y="-7.5" font-family="Helvetica,sans-Serif" font-size="10.00">sys/stat.h</text>
</a>
</g>
</g>
<!-- Node4&#45;&gt;Node17 -->
<g id="edge17" class="edge">
<title>Node4&#45;&gt;Node17</title>
<path fill="none" stroke="midnightblue" d="M691.92,-56.44C666.46,-47.4 626.11,-33.06 597.54,-22.92"/>
<polygon fill="midnightblue" stroke="midnightblue" points="598.57,-19.57 587.97,-19.52 596.22,-26.16 598.57,-19.57"/>
</g>
<!-- Node18 -->
<g id="node18" class="node">
<title>Node18</title>
<g id="a_node18"><a xlink:title=" ">
<polygon fill="white" stroke="#bfbfbf" points="1102,-0.5 1102,-19.5 1150,-19.5 1150,-0.5 1102,-0.5"/>
<text text-anchor="middle" x="1126" y="-7.5" font-family="Helvetica,sans-Serif" font-size="10.00">time.h</text>
</a>
</g>
</g>
<!-- Node4&#45;&gt;Node18 -->
<g id="edge18" class="edge">
<title>Node4&#45;&gt;Node18</title>
<path fill="none" stroke="midnightblue" d="M746.75,-61.92C821.15,-54.38 1010.22,-34.65 1092.05,-19.87"/>
<polygon fill="midnightblue" stroke="midnightblue" points="1092.77,-23.3 1101.95,-18 1091.47,-16.42 1092.77,-23.3"/>
</g>
<!-- Node19 -->
<g id="node19" class="node">
<title>Node19</title>
<g id="a_node19"><a xlink:title=" ">
<polygon fill="white" stroke="#bfbfbf" points="614,-0.5 614,-19.5 670,-19.5 670,-0.5 614,-0.5"/>
<text text-anchor="middle" x="642" y="-7.5" font-family="Helvetica,sans-Serif" font-size="10.00">unistd.h</text>
</a>
</g>
</g>
<!-- Node4&#45;&gt;Node19 -->
<g id="edge19" class="edge">
<title>Node4&#45;&gt;Node19</title>
<path fill="none" stroke="midnightblue" d="M704.11,-56.32C692.85,-48.11 675.71,-35.6 662.29,-25.81"/>
<polygon fill="midnightblue" stroke="midnightblue" points="664.25,-22.9 654.11,-19.83 660.12,-28.56 664.25,-22.9"/>
</g>
<!-- Node20&#45;&gt;Node2 -->
<g id="edge22" class="edge">
<title>Node20&#45;&gt;Node2</title>
<path fill="none" stroke="midnightblue" d="M884.96,-168.43C918.82,-161.09 965.94,-149.02 1005,-132 1073.74,-102.06 1146.79,-50.75 1180.67,-25.67"/>
<polygon fill="midnightblue" stroke="midnightblue" points="1182.87,-28.4 1188.78,-19.61 1178.68,-22.79 1182.87,-28.4"/>
</g>
<!-- Node20&#45;&gt;Node4 -->
<g id="edge24" class="edge">
<title>Node20&#45;&gt;Node4</title>
<path fill="none" stroke="midnightblue" d="M825.36,-168.46C811.48,-160.03 790.36,-146.36 774,-132 757.03,-117.11 740.13,-97.48 728.98,-83.7"/>
<polygon fill="midnightblue" stroke="midnightblue" points="731.51,-81.26 722.55,-75.6 726.03,-85.61 731.51,-81.26"/>
</g>
<!-- Node21 -->
<g id="node21" class="node">
<title>Node21</title>
<g id="a_node21"><a xlink:title=" ">
<polygon fill="white" stroke="#bfbfbf" points="916,-112.5 916,-131.5 996,-131.5 996,-112.5 916,-112.5"/>
<text text-anchor="middle" x="956" y="-119.5" font-family="Helvetica,sans-Serif" font-size="10.00">semaphore.h</text>
</a>
</g>
</g>
<!-- Node20&#45;&gt;Node21 -->
<g id="edge23" class="edge">
<title>Node20&#45;&gt;Node21</title>
<path fill="none" stroke="midnightblue" d="M858.38,-168.44C877.22,-159.68 906.73,-145.94 928.38,-135.86"/>
<polygon fill="midnightblue" stroke="midnightblue" points="930.12,-138.91 937.71,-131.52 927.16,-132.56 930.12,-138.91"/>
</g>
<!-- Node22 -->
<g id="node22" class="node">
<title>Node22</title>
<g id="a_node22"><a xlink:href="Time_8h.html" target="_top" xlink:title="Lightweight Time Manipulation Utilities.">
<polygon fill="white" stroke="black" points="782.5,-112.5 782.5,-131.5 897.5,-131.5 897.5,-112.5 782.5,-112.5"/>
<text text-anchor="middle" x="840" y="-119.5" font-family="Helvetica,sans-Serif" font-size="10.00">src/Common/Time.h</text>
</a>
</g>
</g>
<!-- Node20&#45;&gt;Node22 -->
<g id="edge25" class="edge">
<title>Node20&#45;&gt;Node22</title>
<path fill="none" stroke="midnightblue" d="M840,-168.08C840,-161.01 840,-150.86 840,-141.99"/>
<polygon fill="midnightblue" stroke="midnightblue" points="843.5,-141.75 840,-131.75 836.5,-141.75 843.5,-141.75"/>
</g>
<!-- Node22&#45;&gt;Node4 -->
<g id="edge28" class="edge">
<title>Node22&#45;&gt;Node4</title>
<path fill="none" stroke="midnightblue" d="M820.35,-112.44C800.04,-103.6 768.1,-89.69 744.9,-79.59"/>
<polygon fill="midnightblue" stroke="midnightblue" points="746.12,-76.3 735.56,-75.52 743.33,-82.72 746.12,-76.3"/>
</g>
<!-- Node22&#45;&gt;Node18 -->
<g id="edge27" class="edge">
<title>Node22&#45;&gt;Node18</title>
<path fill="none" stroke="midnightblue" d="M839.94,-112.3C840.36,-98.17 843.39,-70.36 860,-56 897.55,-23.54 1027.05,-30.06 1091.75,-19.79"/>
<polygon fill="midnightblue" stroke="midnightblue" points="1092.73,-23.16 1101.93,-17.9 1091.46,-16.28 1092.73,-23.16"/>
</g>
<!-- Node23 -->
<g id="node23" class="node">
<title>Node23</title>
<g id="a_node23"><a xlink:title=" ">
<polygon fill="white" stroke="#bfbfbf" points="868.5,-56.5 868.5,-75.5 921.5,-75.5 921.5,-56.5 868.5,-56.5"/>
<text text-anchor="middle" x="895" y="-63.5" font-family="Helvetica,sans-Serif" font-size="10.00">limits.h</text>
</a>
</g>
</g>
<!-- Node22&#45;&gt;Node23 -->
<g id="edge26" class="edge">
<title>Node22&#45;&gt;Node23</title>
<path fill="none" stroke="midnightblue" d="M849.08,-112.08C857.17,-104.14 869.2,-92.34 878.91,-82.8"/>
<polygon fill="midnightblue" stroke="midnightblue" points="881.4,-85.25 886.09,-75.75 876.5,-80.26 881.4,-85.25"/>
</g>
</g>
</svg>
