<?xml version="1.0" encoding="UTF-8" standalone="no"?>
<!DOCTYPE svg PUBLIC "-//W3C//DTD SVG 1.1//EN"
 "http://www.w3.org/Graphics/SVG/1.1/DTD/svg11.dtd">
<!-- Generated by graphviz version 2.43.0 (0)
 -->
<!-- Title: SdbTCtlWaitForStop Pages: 1 -->
<!--zoomable 138 -->

<svg id="main" version="1.1" xmlns="http://www.w3.org/2000/svg" xmlns:xlink="http://www.w3.org/1999/xlink" xml:space="preserve" onload="init(evt)">
<style type="text/css"><![CDATA[
.node, .edge {opacity: 0.7;}
.node.selected, .edge.selected {opacity: 1;}
.edge:hover path { stroke: red; }
.edge:hover polygon { stroke: red; fill: red; }
]]></style>

<defs>
  <circle id="rim" cx="0" cy="0" r="7"/>
  <circle id="rim2" cx="0" cy="0" r="3.5"/>
  <g id="zoomPlus">
    <use xlink:href="#rim" fill="#404040"><set attributeName="fill" to="#808080" begin="zoomplus.mouseover" end="zoomplus.mouseout"/></use>
    <path d="M-4,0h8M0,-4v8" fill="none" stroke="white" stroke-width="1.5" pointer-events="none"/>
  </g>
  <g id="zoomMin">
    <use xlink:href="#rim" fill="#404040"><set attributeName="fill" to="#808080" begin="zoomminus.mouseover" end="zoomminus.mouseout"/></use>
    <path d="M-4,0h8" fill="none" stroke="white" stroke-width="1.5" pointer-events="none"/>
  </g>
  <g id="arrowUp" transform="translate(30 24)">
    <use xlink:href="#rim"/>
    <path pointer-events="none" fill="none" stroke="white" stroke-width="1.5" d="M0,-3.0v7 M-2.5,-0.5L0,-3.0L2.5,-0.5"/>
  </g>
  <g id="arrowRight" transform="rotate(90) translate(36 -43)">
    <use xlink:href="#rim"/>
    <path pointer-events="none" fill="none" stroke="white" stroke-width="1.5" d="M0,-3.0v7 M-2.5,-0.5L0,-3.0L2.5,-0.5"/>
  </g>
  <g id="arrowDown" transform="rotate(180) translate(-30 -48)">
    <use xlink:href="#rim"/>
    <path pointer-events="none" fill="none" stroke="white" stroke-width="1.5" d="M0,-3.0v7 M-2.5,-0.5L0,-3.0L2.5,-0.5"/>
  </g>
  <g id="arrowLeft" transform="rotate(270) translate(-36 17)">
    <use xlink:href="#rim"/>
    <path pointer-events="none" fill="none" stroke="white" stroke-width="1.5" d="M0,-3.0v7 M-2.5,-0.5L0,-3.0L2.5,-0.5"/>
  </g>
  <g id="resetDef">
    <use xlink:href="#rim2" fill="#404040"><set attributeName="fill" to="#808080" begin="reset.mouseover" end="reset.mouseout"/></use>
  </g>
</defs>
<script type="application/ecmascript">
var viewWidth = 705;
var viewHeight = 138;
var sectionId = 'dynsection-26';
</script>
<script type="application/ecmascript" xlink:href="svg.min.js"/>
<svg id="graph" class="graph">
<g id="viewport">
<title>SdbTCtlWaitForStop</title>
<!-- Node1 -->
<g id="Node000001" class="node">
<title>Node1</title>
<g id="a_Node000001"><a xlink:title=" ">
<polygon fill="#999999" stroke="#666666" points="112,-74 0,-74 0,-55 112,-55 112,-74"/>
<text text-anchor="middle" x="56" y="-62" font-family="Helvetica,sans-Serif" font-size="10.00">SdbTCtlWaitForStop</text>
</a>
</g>
</g>
<!-- Node2 -->
<g id="Node000002" class="node">
<title>Node2</title>
<g id="a_Node000002"><a xlink:href="Thread_8c.html#a3aa5be8c3ae6f155db4058a8b658ab91" target="_top" xlink:title="Wait on a condition variable with timeout.">
<polygon fill="white" stroke="#666666" points="261.5,-130 180.5,-130 180.5,-111 261.5,-111 261.5,-130"/>
<text text-anchor="middle" x="221" y="-118" font-family="Helvetica,sans-Serif" font-size="10.00">SdbCondWait</text>
</a>
</g>
</g>
<!-- Node1&#45;&gt;Node2 -->
<g id="edge1_Node000001_Node000002" class="edge">
<title>Node1&#45;&gt;Node2</title>
<g id="a_edge1_Node000001_Node000002"><a xlink:title=" ">
<path fill="none" stroke="#63b8ff" d="M77.62,-74.16C95.85,-82.45 123.3,-94.31 148,-102.5 155.23,-104.9 162.96,-107.15 170.57,-109.19"/>
<polygon fill="#63b8ff" stroke="#63b8ff" points="169.9,-112.63 180.46,-111.75 171.65,-105.86 169.9,-112.63"/>
</a>
</g>
</g>
<!-- Node7 -->
<g id="Node000007" class="node">
<title>Node7</title>
<g id="a_Node000007"><a xlink:href="Thread_8c.html#a5fbfdcfc990630f27e5161ec4ea18aaa" target="_top" xlink:title="Lock a mutex with timeout.">
<polygon fill="white" stroke="#666666" points="265,-93 177,-93 177,-74 265,-74 265,-93"/>
<text text-anchor="middle" x="221" y="-81" font-family="Helvetica,sans-Serif" font-size="10.00">SdbMutexLock</text>
</a>
</g>
</g>
<!-- Node1&#45;&gt;Node7 -->
<g id="edge6_Node000001_Node000007" class="edge">
<title>Node1&#45;&gt;Node7</title>
<g id="a_edge6_Node000001_Node000007"><a xlink:title=" ">
<path fill="none" stroke="#63b8ff" d="M112.18,-70.93C129.86,-72.99 149.4,-75.27 166.92,-77.31"/>
<polygon fill="#63b8ff" stroke="#63b8ff" points="166.64,-80.8 176.98,-78.49 167.45,-73.85 166.64,-80.8"/>
</a>
</g>
</g>
<!-- Node8 -->
<g id="Node000008" class="node">
<title>Node8</title>
<g id="a_Node000008"><a xlink:href="Thread_8c.html#a385a70a16dc0b1872fdf925d2121880c" target="_top" xlink:title="Unlock a mutex.">
<polygon fill="white" stroke="#666666" points="270.5,-56 171.5,-56 171.5,-37 270.5,-37 270.5,-56"/>
<text text-anchor="middle" x="221" y="-44" font-family="Helvetica,sans-Serif" font-size="10.00">SdbMutexUnlock</text>
</a>
</g>
</g>
<!-- Node1&#45;&gt;Node8 -->
<g id="edge8_Node000001_Node000008" class="edge">
<title>Node1&#45;&gt;Node8</title>
<g id="a_edge8_Node000001_Node000008"><a xlink:title=" ">
<path fill="none" stroke="#63b8ff" d="M112.18,-58.41C127.94,-56.67 145.17,-54.76 161.14,-53"/>
<polygon fill="#63b8ff" stroke="#63b8ff" points="161.87,-56.44 171.43,-51.86 161.1,-49.48 161.87,-56.44"/>
</a>
</g>
</g>
<!-- Node9 -->
<g id="Node000009" class="node">
<title>Node9</title>
<g id="a_Node000009"><a xlink:href="Thread_8c.html#ac4aaabcc8caff893f2b513415b1994b3" target="_top" xlink:title=" ">
<polygon fill="white" stroke="#666666" points="294,-19 148,-19 148,0 294,0 294,-19"/>
<text text-anchor="middle" x="221" y="-7" font-family="Helvetica,sans-Serif" font-size="10.00">SdbTCtlHasStoppedLocked</text>
</a>
</g>
</g>
<!-- Node1&#45;&gt;Node9 -->
<g id="edge9_Node000001_Node000009" class="edge">
<title>Node1&#45;&gt;Node9</title>
<g id="a_edge9_Node000001_Node000009"><a xlink:title=" ">
<path fill="none" stroke="#63b8ff" d="M79.17,-54.87C97.43,-47.15 124.11,-36.35 148,-28.5 155.26,-26.12 163,-23.82 170.62,-21.7"/>
<polygon fill="#63b8ff" stroke="#63b8ff" points="171.78,-25.01 180.52,-19.02 169.95,-18.25 171.78,-25.01"/>
</a>
</g>
</g>
<!-- Node3 -->
<g id="Node000003" class="node">
<title>Node3</title>
<g id="a_Node000003"><a xlink:href="Thread_8c.html#aa16f3f5cb899e1128f1a80c021780e5f" target="_top" xlink:title=" ">
<polygon fill="white" stroke="#666666" points="419,-111 330,-111 330,-92 419,-92 419,-111"/>
<text text-anchor="middle" x="374.5" y="-99" font-family="Helvetica,sans-Serif" font-size="10.00">CreateTimeout</text>
</a>
</g>
</g>
<!-- Node2&#45;&gt;Node3 -->
<g id="edge2_Node000002_Node000003" class="edge">
<title>Node2&#45;&gt;Node3</title>
<g id="a_edge2_Node000002_Node000003"><a xlink:title=" ">
<path fill="none" stroke="#63b8ff" d="M261.8,-115.51C279.57,-113.28 300.76,-110.62 319.89,-108.22"/>
<polygon fill="#63b8ff" stroke="#63b8ff" points="320.48,-111.68 329.97,-106.96 319.61,-104.73 320.48,-111.68"/>
</a>
</g>
</g>
<!-- Node4 -->
<g id="Node000004" class="node">
<title>Node4</title>
<g id="a_Node000004"><a xlink:href="Time_8c.html#afad180732be23f8e46bdfc2bb349ff44" target="_top" xlink:title="Create Absolute Timeout Timestamp.">
<polygon fill="white" stroke="#666666" points="580,-111 455,-111 455,-92 580,-92 580,-111"/>
<text text-anchor="middle" x="517.5" y="-99" font-family="Helvetica,sans-Serif" font-size="10.00">SdbTimespecAbsolute</text>
</a>
</g>
</g>
<!-- Node3&#45;&gt;Node4 -->
<g id="edge3_Node000003_Node000004" class="edge">
<title>Node3&#45;&gt;Node4</title>
<g id="a_edge3_Node000003_Node000004"><a xlink:title=" ">
<path fill="none" stroke="#63b8ff" d="M419.34,-101.5C427.42,-101.5 436.04,-101.5 444.69,-101.5"/>
<polygon fill="#63b8ff" stroke="#63b8ff" points="444.83,-105 454.83,-101.5 444.83,-98 444.83,-105"/>
</a>
</g>
</g>
<!-- Node5 -->
<g id="Node000005" class="node">
<title>Node5</title>
<g id="a_Node000005"><a xlink:href="Time_8c.html#af8be68d54def6b644cac5efb8fe2e605" target="_top" xlink:title="Add Time Difference to Timestamp.">
<polygon fill="white" stroke="#666666" points="695.5,-130 617.5,-130 617.5,-111 695.5,-111 695.5,-130"/>
<text text-anchor="middle" x="656.5" y="-118" font-family="Helvetica,sans-Serif" font-size="10.00">SdbTimeAdd</text>
</a>
</g>
</g>
<!-- Node4&#45;&gt;Node5 -->
<g id="edge4_Node000004_Node000005" class="edge">
<title>Node4&#45;&gt;Node5</title>
<g id="a_edge4_Node000004_Node000005"><a xlink:title=" ">
<path fill="none" stroke="#63b8ff" d="M580.19,-110.06C589.27,-111.32 598.52,-112.6 607.28,-113.81"/>
<polygon fill="#63b8ff" stroke="#63b8ff" points="606.92,-117.3 617.31,-115.2 607.88,-110.36 606.92,-117.3"/>
</a>
</g>
</g>
<!-- Node6 -->
<g id="Node000006" class="node">
<title>Node6</title>
<g id="a_Node000006"><a xlink:href="Time_8c.html#a83d0c194706101b50506d2618e27167c" target="_top" xlink:title="Get Current Real&#45;Time Timestamp.">
<polygon fill="white" stroke="#666666" points="697,-93 616,-93 616,-74 697,-74 697,-93"/>
<text text-anchor="middle" x="656.5" y="-81" font-family="Helvetica,sans-Serif" font-size="10.00">SdbTimeNow</text>
</a>
</g>
</g>
<!-- Node4&#45;&gt;Node6 -->
<g id="edge5_Node000004_Node000006" class="edge">
<title>Node4&#45;&gt;Node6</title>
<g id="a_edge5_Node000004_Node000006"><a xlink:title=" ">
<path fill="none" stroke="#63b8ff" d="M580.19,-93.4C588.77,-92.27 597.5,-91.12 605.82,-90.03"/>
<polygon fill="#63b8ff" stroke="#63b8ff" points="606.28,-93.5 615.74,-88.72 605.37,-86.56 606.28,-93.5"/>
</a>
</g>
</g>
<!-- Node7&#45;&gt;Node3 -->
<g id="edge7_Node000007_Node000003" class="edge">
<title>Node7&#45;&gt;Node3</title>
<g id="a_edge7_Node000007_Node000003"><a xlink:title=" ">
<path fill="none" stroke="#63b8ff" d="M265.01,-88.61C282.05,-90.64 301.84,-92.99 319.81,-95.12"/>
<polygon fill="#63b8ff" stroke="#63b8ff" points="319.51,-98.61 329.86,-96.31 320.34,-91.66 319.51,-98.61"/>
</a>
</g>
</g>
</g>
</svg>

<g id="navigator" transform="translate(0 0)" fill="#404254">
  <rect fill="#f2f5e9" fill-opacity="0.5" stroke="#606060" stroke-width=".5" x="0" y="0" width="60" height="60"/>
  <use id="zoomplus" xlink:href="#zoomPlus" x="17" y="9" onmousedown="handleZoom(evt,'in')"/>
  <use id="zoomminus" xlink:href="#zoomMin" x="42" y="9" onmousedown="handleZoom(evt,'out')"/>
  <use id="reset" xlink:href="#resetDef" x="30" y="36" onmousedown="handleReset()"/>
   <use id="arrowup" xlink:href="#arrowUp" x="0" y="0" onmousedown="handlePan(0,-1)"/>
  <use id="arrowright" xlink:href="#arrowRight" x="0" y="0" onmousedown="handlePan(1,0)"/>
  <use id="arrowdown" xlink:href="#arrowDown" x="0" y="0" onmousedown="handlePan(0,1)"/>
  <use id="arrowleft" xlink:href="#arrowLeft" x="0" y="0" onmousedown="handlePan(-1,0)"/>
</g>
<svg viewBox="0 0 15 15" width="100%" height="30px" preserveAspectRatio="xMaxYMin meet">
 <g id="arrow_out" transform="scale(0.3 0.3)">
  <a xlink:href="Thread_8c_a25bd8de99cb5460de9f423913059621b_cgraph_org.svg" target="_base">
   <rect id="button" ry="5" rx="5" y="6" x="6" height="38" width="38"
        fill="#f2f5e9" fill-opacity="0.5" stroke="#606060" stroke-width="1.0"/>
   <path id="arrow"
     d="M 11.500037,31.436501 C 11.940474,20.09759 22.043105,11.32322 32.158766,21.979434 L 37.068811,17.246167 C 37.068811,17.246167 37.088388,32 37.088388,32 L 22.160133,31.978069 C 22.160133,31.978069 26.997745,27.140456 26.997745,27.140456 C 18.528582,18.264221 13.291696,25.230495 11.500037,31.436501 z"
     style="fill:#404040;"/>
  </a>
 </g>
</svg>

<style type='text/css'>
<![CDATA[
[data-mouse-over-selected='false'] { opacity: 0.7; }
[data-mouse-over-selected='true']  { opacity: 1.0; }
]]>
</style>
<script type="application/ecmascript"><![CDATA[
document.addEventListener('DOMContentLoaded', (event) => {
  highlightEdges();
  highlightAdjacentNodes();
});
]]></script>
</svg>
