<?xml version="1.0" encoding="UTF-8" standalone="no"?>
<!DOCTYPE svg PUBLIC "-//W3C//DTD SVG 1.1//EN"
 "http://www.w3.org/Graphics/SVG/1.1/DTD/svg11.dtd">
<!-- Generated by graphviz version 2.43.0 (0)
 -->
<!-- Title: SdbTCtlWaitForSignal Pages: 1 -->
<svg width="709pt" height="138pt"
 viewBox="0.00 0.00 709.00 138.00" xmlns="http://www.w3.org/2000/svg" xmlns:xlink="http://www.w3.org/1999/xlink">
<g id="graph0" class="graph" transform="scale(1 1) rotate(0) translate(4 134)">
<title>SdbTCtlWaitForSignal</title>
<!-- Node1 -->
<g id="Node000001" class="node">
<title>Node1</title>
<g id="a_Node000001"><a xlink:title=" ">
<polygon fill="#999999" stroke="#666666" points="120,-74 0,-74 0,-55 120,-55 120,-74"/>
<text text-anchor="middle" x="60" y="-62" font-family="Helvetica,sans-Serif" font-size="10.00">SdbTCtlWaitForSignal</text>
</a>
</g>
</g>
<!-- Node2 -->
<g id="Node000002" class="node">
<title>Node2</title>
<g id="a_Node000002"><a xlink:href="Thread_8c.html#a3aa5be8c3ae6f155db4058a8b658ab91" target="_top" xlink:title="Wait on a condition variable with timeout.">
<polygon fill="white" stroke="#666666" points="267.5,-130 186.5,-130 186.5,-111 267.5,-111 267.5,-130"/>
<text text-anchor="middle" x="227" y="-118" font-family="Helvetica,sans-Serif" font-size="10.00">SdbCondWait</text>
</a>
</g>
</g>
<!-- Node1&#45;&gt;Node2 -->
<g id="edge1_Node000001_Node000002" class="edge">
<title>Node1&#45;&gt;Node2</title>
<g id="a_edge1_Node000001_Node000002"><a xlink:title=" ">
<path fill="none" stroke="#63b8ff" d="M82.59,-74.06C101.66,-82.28 130.34,-94.11 156,-102.5 162.57,-104.65 169.56,-106.71 176.47,-108.61"/>
<polygon fill="#63b8ff" stroke="#63b8ff" points="175.93,-112.09 186.5,-111.29 177.74,-105.33 175.93,-112.09"/>
</a>
</g>
</g>
<!-- Node7 -->
<g id="Node000007" class="node">
<title>Node7</title>
<g id="a_Node000007"><a xlink:href="Thread_8c.html#a5fbfdcfc990630f27e5161ec4ea18aaa" target="_top" xlink:title="Lock a mutex with timeout.">
<polygon fill="white" stroke="#666666" points="271,-93 183,-93 183,-74 271,-74 271,-93"/>
<text text-anchor="middle" x="227" y="-81" font-family="Helvetica,sans-Serif" font-size="10.00">SdbMutexLock</text>
</a>
</g>
</g>
<!-- Node1&#45;&gt;Node7 -->
<g id="edge6_Node000001_Node000007" class="edge">
<title>Node1&#45;&gt;Node7</title>
<g id="a_edge6_Node000001_Node000007"><a xlink:title=" ">
<path fill="none" stroke="#63b8ff" d="M120.1,-71.31C137.26,-73.28 155.88,-75.43 172.66,-77.36"/>
<polygon fill="#63b8ff" stroke="#63b8ff" points="172.5,-80.86 182.84,-78.53 173.3,-73.91 172.5,-80.86"/>
</a>
</g>
</g>
<!-- Node8 -->
<g id="Node000008" class="node">
<title>Node8</title>
<g id="a_Node000008"><a xlink:href="Thread_8c.html#a385a70a16dc0b1872fdf925d2121880c" target="_top" xlink:title="Unlock a mutex.">
<polygon fill="white" stroke="#666666" points="276.5,-56 177.5,-56 177.5,-37 276.5,-37 276.5,-56"/>
<text text-anchor="middle" x="227" y="-44" font-family="Helvetica,sans-Serif" font-size="10.00">SdbMutexUnlock</text>
</a>
</g>
</g>
<!-- Node1&#45;&gt;Node8 -->
<g id="edge8_Node000001_Node000008" class="edge">
<title>Node1&#45;&gt;Node8</title>
<g id="a_edge8_Node000001_Node000008"><a xlink:title=" ">
<path fill="none" stroke="#63b8ff" d="M120.1,-58.05C135.35,-56.39 151.77,-54.6 167.02,-52.93"/>
<polygon fill="#63b8ff" stroke="#63b8ff" points="167.79,-56.37 177.35,-51.81 167.03,-49.41 167.79,-56.37"/>
</a>
</g>
</g>
<!-- Node9 -->
<g id="Node000009" class="node">
<title>Node9</title>
<g id="a_Node000009"><a xlink:href="Thread_8c.html#a1144e09449cdc3354b3f0f7fdb703fd4" target="_top" xlink:title=" ">
<polygon fill="white" stroke="#666666" points="298,-19 156,-19 156,0 298,0 298,-19"/>
<text text-anchor="middle" x="227" y="-7" font-family="Helvetica,sans-Serif" font-size="10.00">SdbTCtlShouldStopLocked</text>
</a>
</g>
</g>
<!-- Node1&#45;&gt;Node9 -->
<g id="edge9_Node000001_Node000009" class="edge">
<title>Node1&#45;&gt;Node9</title>
<g id="a_edge9_Node000001_Node000009"><a xlink:title=" ">
<path fill="none" stroke="#63b8ff" d="M84.2,-54.98C103.3,-47.33 131.17,-36.55 156,-28.5 163.16,-26.18 170.8,-23.9 178.3,-21.78"/>
<polygon fill="#63b8ff" stroke="#63b8ff" points="179.32,-25.13 188.02,-19.09 177.45,-18.38 179.32,-25.13"/>
</a>
</g>
</g>
<!-- Node3 -->
<g id="Node000003" class="node">
<title>Node3</title>
<g id="a_Node000003"><a xlink:href="Thread_8c.html#aa16f3f5cb899e1128f1a80c021780e5f" target="_top" xlink:title=" ">
<polygon fill="white" stroke="#666666" points="423,-111 334,-111 334,-92 423,-92 423,-111"/>
<text text-anchor="middle" x="378.5" y="-99" font-family="Helvetica,sans-Serif" font-size="10.00">CreateTimeout</text>
</a>
</g>
</g>
<!-- Node2&#45;&gt;Node3 -->
<g id="edge2_Node000002_Node000003" class="edge">
<title>Node2&#45;&gt;Node3</title>
<g id="a_edge2_Node000002_Node000003"><a xlink:title=" ">
<path fill="none" stroke="#63b8ff" d="M267.67,-115.46C284.9,-113.27 305.34,-110.67 323.88,-108.31"/>
<polygon fill="#63b8ff" stroke="#63b8ff" points="324.48,-111.77 333.96,-107.03 323.6,-104.82 324.48,-111.77"/>
</a>
</g>
</g>
<!-- Node4 -->
<g id="Node000004" class="node">
<title>Node4</title>
<g id="a_Node000004"><a xlink:href="Time_8c.html#afad180732be23f8e46bdfc2bb349ff44" target="_top" xlink:title="Create Absolute Timeout Timestamp.">
<polygon fill="white" stroke="#666666" points="584,-111 459,-111 459,-92 584,-92 584,-111"/>
<text text-anchor="middle" x="521.5" y="-99" font-family="Helvetica,sans-Serif" font-size="10.00">SdbTimespecAbsolute</text>
</a>
</g>
</g>
<!-- Node3&#45;&gt;Node4 -->
<g id="edge3_Node000003_Node000004" class="edge">
<title>Node3&#45;&gt;Node4</title>
<g id="a_edge3_Node000003_Node000004"><a xlink:title=" ">
<path fill="none" stroke="#63b8ff" d="M423.34,-101.5C431.42,-101.5 440.04,-101.5 448.69,-101.5"/>
<polygon fill="#63b8ff" stroke="#63b8ff" points="448.83,-105 458.83,-101.5 448.83,-98 448.83,-105"/>
</a>
</g>
</g>
<!-- Node5 -->
<g id="Node000005" class="node">
<title>Node5</title>
<g id="a_Node000005"><a xlink:href="Time_8c.html#af8be68d54def6b644cac5efb8fe2e605" target="_top" xlink:title="Add Time Difference to Timestamp.">
<polygon fill="white" stroke="#666666" points="699.5,-130 621.5,-130 621.5,-111 699.5,-111 699.5,-130"/>
<text text-anchor="middle" x="660.5" y="-118" font-family="Helvetica,sans-Serif" font-size="10.00">SdbTimeAdd</text>
</a>
</g>
</g>
<!-- Node4&#45;&gt;Node5 -->
<g id="edge4_Node000004_Node000005" class="edge">
<title>Node4&#45;&gt;Node5</title>
<g id="a_edge4_Node000004_Node000005"><a xlink:title=" ">
<path fill="none" stroke="#63b8ff" d="M584.19,-110.06C593.27,-111.32 602.52,-112.6 611.28,-113.81"/>
<polygon fill="#63b8ff" stroke="#63b8ff" points="610.92,-117.3 621.31,-115.2 611.88,-110.36 610.92,-117.3"/>
</a>
</g>
</g>
<!-- Node6 -->
<g id="Node000006" class="node">
<title>Node6</title>
<g id="a_Node000006"><a xlink:href="Time_8c.html#a83d0c194706101b50506d2618e27167c" target="_top" xlink:title="Get Current Real&#45;Time Timestamp.">
<polygon fill="white" stroke="#666666" points="701,-93 620,-93 620,-74 701,-74 701,-93"/>
<text text-anchor="middle" x="660.5" y="-81" font-family="Helvetica,sans-Serif" font-size="10.00">SdbTimeNow</text>
</a>
</g>
</g>
<!-- Node4&#45;&gt;Node6 -->
<g id="edge5_Node000004_Node000006" class="edge">
<title>Node4&#45;&gt;Node6</title>
<g id="a_edge5_Node000004_Node000006"><a xlink:title=" ">
<path fill="none" stroke="#63b8ff" d="M584.19,-93.4C592.77,-92.27 601.5,-91.12 609.82,-90.03"/>
<polygon fill="#63b8ff" stroke="#63b8ff" points="610.28,-93.5 619.74,-88.72 609.37,-86.56 610.28,-93.5"/>
</a>
</g>
</g>
<!-- Node7&#45;&gt;Node3 -->
<g id="edge7_Node000007_Node000003" class="edge">
<title>Node7&#45;&gt;Node3</title>
<g id="a_edge7_Node000007_Node000003"><a xlink:title=" ">
<path fill="none" stroke="#63b8ff" d="M271.24,-88.71C287.68,-90.69 306.6,-92.96 323.88,-95.04"/>
<polygon fill="#63b8ff" stroke="#63b8ff" points="323.49,-98.52 333.84,-96.24 324.33,-91.57 323.49,-98.52"/>
</a>
</g>
</g>
</g>
</svg>
