<?xml version="1.0" encoding="UTF-8" standalone="no"?>
<!DOCTYPE svg PUBLIC "-//W3C//DTD SVG 1.1//EN"
 "http://www.w3.org/Graphics/SVG/1.1/DTD/svg11.dtd">
<!-- Generated by graphviz version 2.43.0 (0)
 -->
<!-- Title: src/Common/Thread.h Pages: 1 -->
<!--zoomable 218 -->
<svg id="main" version="1.1" xmlns="http://www.w3.org/2000/svg" xmlns:xlink="http://www.w3.org/1999/xlink" xml:space="preserve" onload="init(evt)">
<style type="text/css"><![CDATA[
.edge:hover path { stroke: red; }
.edge:hover polygon { stroke: red; fill: red; }
]]></style>
<script type="text/javascript"><![CDATA[
var edges = document.getElementsByTagName('g');
if (edges && edges.length) {
  for (var i=0;i<edges.length;i++) {
    if (edges[i].id.substr(0,4)=='edge') {
      edges[i].setAttribute('class','edge');
    }
  }
}
]]></script>
        <defs>
                <circle id="rim" cx="0" cy="0" r="7"/>
                <circle id="rim2" cx="0" cy="0" r="3.5"/>
                <g id="zoomPlus">
                        <use xlink:href="#rim" fill="#404040">
                                <set attributeName="fill" to="#808080" begin="zoomplus.mouseover" end="zoomplus.mouseout"/>
                        </use>
                        <path d="M-4,0h8M0,-4v8" fill="none" stroke="white" stroke-width="1.5" pointer-events="none"/>
                </g>
                <g id="zoomMin">
                        <use xlink:href="#rim" fill="#404040">
                                <set attributeName="fill" to="#808080" begin="zoomminus.mouseover" end="zoomminus.mouseout"/>
                        </use>
                        <path d="M-4,0h8" fill="none" stroke="white" stroke-width="1.5" pointer-events="none"/>
                </g>
                <g id="dirArrow">
                        <path fill="none" stroke="white" stroke-width="1.5" d="M0,-3.0v7 M-2.5,-0.5L0,-3.0L2.5,-0.5"/>
                </g>
               <g id="resetDef">
                       <use xlink:href="#rim2" fill="#404040">
                               <set attributeName="fill" to="#808080" begin="reset.mouseover" end="reset.mouseout"/>
                       </use>
               </g>
        </defs>

<script type="text/javascript">
var viewWidth = 2094;
var viewHeight = 218;
var sectionId = 'dynsection-1';
</script>
<script xlink:href="svgpan.js"/>
<svg id="graph" class="graph">
<g id="viewport">
<title>src/Common/Thread.h</title>
<polygon fill="white" stroke="transparent" points="-4,4 -4,-214 2089.5,-214 2089.5,4 -4,4"/>
<!-- Node1 -->
<g id="node1" class="node">
<title>Node1</title>
<g id="a_node1"><a xlink:title="Lightweight Synchronization Primitives Wrapper.">
<polygon fill="#bfbfbf" stroke="black" points="1031.5,-190.5 1031.5,-209.5 1155.5,-209.5 1155.5,-190.5 1031.5,-190.5"/>
<text text-anchor="middle" x="1093.5" y="-197.5" font-family="Helvetica,sans-Serif" font-size="10.00">src/Common/Thread.h</text>
</a>
</g>
</g>
<!-- Node2 -->
<g id="node2" class="node">
<title>Node2</title>
<g id="a_node2"><a xlink:href="SensorDataPipe_8c.html" target="_top" xlink:title="Implementation of lock free Data Pipeline.">
<polygon fill="white" stroke="black" points="0,-73 0,-92 167,-92 167,-73 0,-73"/>
<text text-anchor="middle" x="83.5" y="-80" font-family="Helvetica,sans-Serif" font-size="10.00">src/Common/SensorDataPipe.c</text>
</a>
</g>
</g>
<!-- Node1&#45;&gt;Node2 -->
<g id="edge1" class="edge">
<title>Node1&#45;&gt;Node2</title>
<path fill="none" stroke="midnightblue" d="M1021.32,-196.12C906.33,-191 674.58,-178.45 479.5,-154 348.37,-137.57 194.7,-106.9 123.48,-92.03"/>
<polygon fill="midnightblue" stroke="midnightblue" points="1021.27,-199.62 1031.41,-196.57 1021.58,-192.63 1021.27,-199.62"/>
</g>
<!-- Node3 -->
<g id="node3" class="node">
<title>Node3</title>
<g id="a_node3"><a xlink:href="SensorDataPipe_8h.html" target="_top" xlink:title="Lock&#45;Free Data Pipeline.">
<polygon fill="white" stroke="black" points="732,-134.5 732,-153.5 899,-153.5 899,-134.5 732,-134.5"/>
<text text-anchor="middle" x="815.5" y="-141.5" font-family="Helvetica,sans-Serif" font-size="10.00">src/Common/SensorDataPipe.h</text>
</a>
</g>
</g>
<!-- Node1&#45;&gt;Node3 -->
<g id="edge2" class="edge">
<title>Node1&#45;&gt;Node3</title>
<path fill="none" stroke="midnightblue" d="M1039.31,-188.47C986.77,-178.27 908.06,-162.98 859.34,-153.52"/>
<polygon fill="midnightblue" stroke="midnightblue" points="1038.97,-191.97 1049.45,-190.44 1040.3,-185.1 1038.97,-191.97"/>
</g>
<!-- Node4 -->
<g id="node4" class="node">
<title>Node4</title>
<g id="a_node4"><a xlink:href="CommProtocols_2Modbus_8c.html" target="_top" xlink:title="Implementation of Modbus protocol handling.">
<polygon fill="white" stroke="black" points="185,-73 185,-92 346,-92 346,-73 185,-73"/>
<text text-anchor="middle" x="265.5" y="-80" font-family="Helvetica,sans-Serif" font-size="10.00">src/CommProtocols/Modbus.c</text>
</a>
</g>
</g>
<!-- Node1&#45;&gt;Node4 -->
<g id="edge36" class="edge">
<title>Node1&#45;&gt;Node4</title>
<path fill="none" stroke="midnightblue" d="M1021.3,-195.34C923.48,-189.74 743.56,-177.17 591.5,-154 483.31,-137.52 357.18,-106.95 298.57,-92.07"/>
<polygon fill="midnightblue" stroke="midnightblue" points="1021.2,-198.84 1031.38,-195.91 1021.59,-191.85 1021.2,-198.84"/>
</g>
<!-- Node5 -->
<g id="node5" class="node">
<title>Node5</title>
<g id="a_node5"><a xlink:href="CommProtocols_2Modbus_8h.html" target="_top" xlink:title="Modbus protocol implementation interface.">
<polygon fill="white" stroke="black" points="364,-73 364,-92 525,-92 525,-73 364,-73"/>
<text text-anchor="middle" x="444.5" y="-80" font-family="Helvetica,sans-Serif" font-size="10.00">src/CommProtocols/Modbus.h</text>
</a>
</g>
</g>
<!-- Node1&#45;&gt;Node5 -->
<g id="edge37" class="edge">
<title>Node1&#45;&gt;Node5</title>
<path fill="none" stroke="midnightblue" d="M1021.23,-195.64C936.48,-190.7 792.11,-179.18 670.5,-154 594.23,-138.21 507.04,-107.16 466.89,-92.1"/>
<polygon fill="midnightblue" stroke="midnightblue" points="1021.08,-199.13 1031.26,-196.21 1021.48,-192.14 1021.08,-199.13"/>
</g>
<!-- Node6 -->
<g id="node6" class="node">
<title>Node6</title>
<g id="a_node6"><a xlink:href="DatabaseSystems_2Postgres_8c.html" target="_top" xlink:title="Implementation of PostgreSQL database operations.">
<polygon fill="white" stroke="black" points="543.5,-67.5 543.5,-97.5 665.5,-97.5 665.5,-67.5 543.5,-67.5"/>
<text text-anchor="start" x="551.5" y="-85.5" font-family="Helvetica,sans-Serif" font-size="10.00">src/DatabaseSystems</text>
<text text-anchor="middle" x="604.5" y="-74.5" font-family="Helvetica,sans-Serif" font-size="10.00">/Postgres.c</text>
</a>
</g>
</g>
<!-- Node1&#45;&gt;Node6 -->
<g id="edge38" class="edge">
<title>Node1&#45;&gt;Node6</title>
<path fill="none" stroke="midnightblue" d="M1021.41,-194.43C927.17,-187.77 767.63,-173.99 712.5,-154 676.72,-141.02 640.83,-114.19 620.76,-97.63"/>
<polygon fill="midnightblue" stroke="midnightblue" points="1021.22,-197.92 1031.44,-195.13 1021.71,-190.94 1021.22,-197.92"/>
</g>
<!-- Node7 -->
<g id="node7" class="node">
<title>Node7</title>
<g id="a_node7"><a xlink:href="DatabaseSystems_2Postgres_8h.html" target="_top" xlink:title="PostgreSQL interface for sensor data storage.">
<polygon fill="white" stroke="black" points="683.5,-67.5 683.5,-97.5 805.5,-97.5 805.5,-67.5 683.5,-67.5"/>
<text text-anchor="start" x="691.5" y="-85.5" font-family="Helvetica,sans-Serif" font-size="10.00">src/DatabaseSystems</text>
<text text-anchor="middle" x="744.5" y="-74.5" font-family="Helvetica,sans-Serif" font-size="10.00">/Postgres.h</text>
</a>
</g>
</g>
<!-- Node1&#45;&gt;Node7 -->
<g id="edge39" class="edge">
<title>Node1&#45;&gt;Node7</title>
<path fill="none" stroke="midnightblue" d="M1020.88,-195.29C918.49,-189.3 741.92,-175.92 722.5,-154 708.39,-138.07 721.83,-113.16 733.02,-97.61"/>
<polygon fill="midnightblue" stroke="midnightblue" points="1020.97,-198.8 1031.15,-195.88 1021.37,-191.81 1020.97,-198.8"/>
</g>
<!-- Node8 -->
<g id="node8" class="node">
<title>Node8</title>
<g id="a_node8"><a xlink:href="DataHandlers_2ModbusWithPostgres_2Modbus_8c.html" target="_top" xlink:title=" ">
<polygon fill="white" stroke="black" points="760.5,-0.5 760.5,-30.5 924.5,-30.5 924.5,-0.5 760.5,-0.5"/>
<text text-anchor="start" x="768.5" y="-18.5" font-family="Helvetica,sans-Serif" font-size="10.00">src/DataHandlers/ModbusWith</text>
<text text-anchor="middle" x="842.5" y="-7.5" font-family="Helvetica,sans-Serif" font-size="10.00">Postgres/Modbus.c</text>
</a>
</g>
</g>
<!-- Node1&#45;&gt;Node8 -->
<g id="edge40" class="edge">
<title>Node1&#45;&gt;Node8</title>
<path fill="none" stroke="midnightblue" d="M1067.74,-185.44C1034.33,-167.37 974.84,-133.52 928.5,-98 900.74,-76.73 871.93,-47.77 855.7,-30.71"/>
<polygon fill="midnightblue" stroke="midnightblue" points="1066.37,-188.68 1076.84,-190.32 1069.68,-182.51 1066.37,-188.68"/>
</g>
<!-- Node15 -->
<g id="node15" class="node">
<title>Node15</title>
<g id="a_node15"><a xlink:href="ThreadGroup_8c.html" target="_top" xlink:title=" ">
<polygon fill="white" stroke="black" points="1792.5,-6 1792.5,-25 1944.5,-25 1944.5,-6 1792.5,-6"/>
<text text-anchor="middle" x="1868.5" y="-13" font-family="Helvetica,sans-Serif" font-size="10.00">src/Common/ThreadGroup.c</text>
</a>
</g>
</g>
<!-- Node1&#45;&gt;Node15 -->
<g id="edge25" class="edge">
<title>Node1&#45;&gt;Node15</title>
<path fill="none" stroke="midnightblue" d="M1165.77,-196.34C1288.15,-191.23 1530.83,-178.34 1612.5,-154 1714.03,-123.74 1821.25,-50.6 1856.51,-25.29"/>
<polygon fill="midnightblue" stroke="midnightblue" points="1165.59,-192.84 1155.74,-196.75 1165.88,-199.84 1165.59,-192.84"/>
</g>
<!-- Node16 -->
<g id="node16" class="node">
<title>Node16</title>
<g id="a_node16"><a xlink:href="ModbusTestServer_8c.html" target="_top" xlink:title="Implementation of Modbus Test Server.">
<polygon fill="white" stroke="black" points="1598.5,-6 1598.5,-25 1774.5,-25 1774.5,-6 1598.5,-6"/>
<text text-anchor="middle" x="1686.5" y="-13" font-family="Helvetica,sans-Serif" font-size="10.00">src/DevUtils/ModbusTestServer.c</text>
</a>
</g>
</g>
<!-- Node1&#45;&gt;Node16 -->
<g id="edge41" class="edge">
<title>Node1&#45;&gt;Node16</title>
<path fill="none" stroke="midnightblue" d="M1165.98,-199.5C1284.78,-199.15 1514.71,-193.22 1584.5,-154 1638.91,-123.42 1672.69,-50.49 1683.07,-25.26"/>
<polygon fill="midnightblue" stroke="midnightblue" points="1165.88,-196 1155.88,-199.52 1165.89,-203 1165.88,-196"/>
</g>
<!-- Node17 -->
<g id="node17" class="node">
<title>Node17</title>
<g id="a_node17"><a xlink:href="Main_8c.html" target="_top" xlink:title="Main implementation file for the Sensor Data Handler System.">
<polygon fill="white" stroke="black" points="1514.5,-6 1514.5,-25 1580.5,-25 1580.5,-6 1514.5,-6"/>
<text text-anchor="middle" x="1547.5" y="-13" font-family="Helvetica,sans-Serif" font-size="10.00">src/Main.c</text>
</a>
</g>
</g>
<!-- Node1&#45;&gt;Node17 -->
<g id="edge45" class="edge">
<title>Node1&#45;&gt;Node17</title>
<path fill="none" stroke="midnightblue" d="M1166.22,-197.32C1291.75,-193.66 1538.27,-182.86 1564.5,-154 1598.15,-116.98 1565.9,-49.35 1552.62,-25.28"/>
<polygon fill="midnightblue" stroke="midnightblue" points="1165.82,-193.83 1155.93,-197.61 1166.02,-200.83 1165.82,-193.83"/>
</g>
<!-- Node18 -->
<g id="node18" class="node">
<title>Node18</title>
<g id="a_node18"><a xlink:href="Thread_8c.html" target="_top" xlink:title="Implementation of POSIX Thread Synchronization Primitives.">
<polygon fill="white" stroke="black" points="1766,-134.5 1766,-153.5 1889,-153.5 1889,-134.5 1766,-134.5"/>
<text text-anchor="middle" x="1827.5" y="-141.5" font-family="Helvetica,sans-Serif" font-size="10.00">src/Common/Thread.c</text>
</a>
</g>
</g>
<!-- Node1&#45;&gt;Node18 -->
<g id="edge24" class="edge">
<title>Node1&#45;&gt;Node18</title>
<path fill="none" stroke="midnightblue" d="M1166,-195.22C1287.32,-188.63 1539.08,-173.83 1751.5,-154 1756.13,-153.57 1760.91,-153.09 1765.73,-152.57"/>
<polygon fill="midnightblue" stroke="midnightblue" points="1165.52,-191.74 1155.73,-195.78 1165.9,-198.73 1165.52,-191.74"/>
</g>
<!-- Node19 -->
<g id="node19" class="node">
<title>Node19</title>
<g id="a_node19"><a xlink:href="ThreadGroup_8h.html" target="_top" xlink:title="Thread Group Management System.">
<polygon fill="white" stroke="black" points="1188,-134.5 1188,-153.5 1341,-153.5 1341,-134.5 1188,-134.5"/>
<text text-anchor="middle" x="1264.5" y="-141.5" font-family="Helvetica,sans-Serif" font-size="10.00">src/Common/ThreadGroup.h</text>
</a>
</g>
</g>
<!-- Node1&#45;&gt;Node19 -->
<g id="edge26" class="edge">
<title>Node1&#45;&gt;Node19</title>
<path fill="none" stroke="midnightblue" d="M1130.54,-187.3C1162.76,-177.13 1208.69,-162.62 1237.53,-153.52"/>
<polygon fill="midnightblue" stroke="midnightblue" points="1129.08,-184.09 1120.6,-190.44 1131.19,-190.77 1129.08,-184.09"/>
</g>
<!-- Node21 -->
<g id="node21" class="node">
<title>Node21</title>
<g id="a_node21"><a xlink:href="ModbusTestServer_8h.html" target="_top" xlink:title="Header for Modbus Test Server Implementation.">
<polygon fill="white" stroke="black" points="1379.5,-134.5 1379.5,-153.5 1555.5,-153.5 1555.5,-134.5 1379.5,-134.5"/>
<text text-anchor="middle" x="1467.5" y="-141.5" font-family="Helvetica,sans-Serif" font-size="10.00">src/DevUtils/ModbusTestServer.h</text>
</a>
</g>
</g>
<!-- Node1&#45;&gt;Node21 -->
<g id="edge42" class="edge">
<title>Node1&#45;&gt;Node21</title>
<path fill="none" stroke="midnightblue" d="M1162.9,-188.98C1233.55,-178.78 1341.88,-163.14 1408.52,-153.52"/>
<polygon fill="midnightblue" stroke="midnightblue" points="1162.16,-185.55 1152.76,-190.44 1163.16,-192.48 1162.16,-185.55"/>
</g>
<!-- Node22 -->
<g id="node22" class="node">
<title>Node22</title>
<g id="a_node22"><a xlink:href="TestDataGenerator_8c.html" target="_top" xlink:title=" ">
<polygon fill="white" stroke="black" points="1907.5,-134.5 1907.5,-153.5 2085.5,-153.5 2085.5,-134.5 1907.5,-134.5"/>
<text text-anchor="middle" x="1996.5" y="-141.5" font-family="Helvetica,sans-Serif" font-size="10.00">src/DevUtils/TestDataGenerator.c</text>
</a>
</g>
</g>
<!-- Node1&#45;&gt;Node22 -->
<g id="edge44" class="edge">
<title>Node1&#45;&gt;Node22</title>
<path fill="none" stroke="midnightblue" d="M1165.82,-195.8C1306.72,-189.37 1627.84,-173.8 1897.5,-154 1900.77,-153.76 1904.1,-153.51 1907.46,-153.24"/>
<polygon fill="midnightblue" stroke="midnightblue" points="1165.42,-192.31 1155.59,-196.26 1165.73,-199.3 1165.42,-192.31"/>
</g>
<!-- Node3&#45;&gt;Node2 -->
<g id="edge3" class="edge">
<title>Node3&#45;&gt;Node2</title>
<path fill="none" stroke="midnightblue" d="M721.64,-138.94C596.7,-132.94 368.99,-120.01 175.5,-98 161.52,-96.41 146.42,-94.23 132.57,-92.04"/>
<polygon fill="midnightblue" stroke="midnightblue" points="721.78,-142.45 731.93,-139.42 722.11,-135.45 721.78,-142.45"/>
</g>
<!-- Node3&#45;&gt;Node4 -->
<g id="edge4" class="edge">
<title>Node3&#45;&gt;Node4</title>
<path fill="none" stroke="midnightblue" d="M721.64,-135.61C628.34,-127.86 481.26,-114.5 354.5,-98 341.46,-96.3 327.39,-94.16 314.38,-92.04"/>
<polygon fill="midnightblue" stroke="midnightblue" points="721.36,-139.1 731.62,-136.44 721.94,-132.13 721.36,-139.1"/>
</g>
<!-- Node3&#45;&gt;Node5 -->
<g id="edge5" class="edge">
<title>Node3&#45;&gt;Node5</title>
<path fill="none" stroke="midnightblue" d="M752.21,-132.88C695.26,-123.77 609.28,-110.01 534.5,-98 522.47,-96.07 509.53,-93.99 497.32,-92.02"/>
<polygon fill="midnightblue" stroke="midnightblue" points="751.72,-136.35 762.15,-134.47 752.83,-129.44 751.72,-136.35"/>
</g>
<!-- Node3&#45;&gt;Node6 -->
<g id="edge6" class="edge">
<title>Node3&#45;&gt;Node6</title>
<path fill="none" stroke="midnightblue" d="M775.55,-131.73C741.11,-122.02 691.24,-107.96 654.23,-97.52"/>
<polygon fill="midnightblue" stroke="midnightblue" points="774.69,-135.13 785.27,-134.48 776.59,-128.39 774.69,-135.13"/>
</g>
<!-- Node3&#45;&gt;Node7 -->
<g id="edge7" class="edge">
<title>Node3&#45;&gt;Node7</title>
<path fill="none" stroke="midnightblue" d="M797.51,-127.92C786.36,-118.58 772.14,-106.66 761.23,-97.52"/>
<polygon fill="midnightblue" stroke="midnightblue" points="795.41,-130.73 805.33,-134.48 799.91,-125.37 795.41,-130.73"/>
</g>
<!-- Node3&#45;&gt;Node8 -->
<g id="edge8" class="edge">
<title>Node3&#45;&gt;Node8</title>
<path fill="none" stroke="midnightblue" d="M830.95,-126.55C837.4,-118.57 844.16,-108.46 847.5,-98 854.74,-75.31 850.33,-47.3 846.43,-30.73"/>
<polygon fill="midnightblue" stroke="midnightblue" points="828.15,-124.44 824.25,-134.29 833.44,-129.02 828.15,-124.44"/>
</g>
<!-- Node9 -->
<g id="node9" class="node">
<title>Node9</title>
<g id="a_node9"><a xlink:href="ModbusWithPostgres_8c.html" target="_top" xlink:title="Implementation of Modbus&#45;PostgreSQL integration.">
<polygon fill="white" stroke="black" points="1323,-0.5 1323,-30.5 1496,-30.5 1496,-0.5 1323,-0.5"/>
<text text-anchor="start" x="1331" y="-18.5" font-family="Helvetica,sans-Serif" font-size="10.00">src/DataHandlers/ModbusWith</text>
<text text-anchor="middle" x="1409.5" y="-7.5" font-family="Helvetica,sans-Serif" font-size="10.00">Postgres/ModbusWithPostgres.c</text>
</a>
</g>
</g>
<!-- Node3&#45;&gt;Node9 -->
<g id="edge9" class="edge">
<title>Node3&#45;&gt;Node9</title>
<path fill="none" stroke="midnightblue" d="M909.11,-134.91C969.83,-128.25 1050.24,-116.79 1119.5,-98 1155.11,-88.34 1161.34,-78.18 1196.5,-67 1243.04,-52.21 1296.53,-39.54 1338.26,-30.59"/>
<polygon fill="midnightblue" stroke="midnightblue" points="908.73,-131.43 899.16,-135.97 909.48,-138.39 908.73,-131.43"/>
</g>
<!-- Node10 -->
<g id="node10" class="node">
<title>Node10</title>
<g id="a_node10"><a xlink:href="ModbusWithPostgres_8h.html" target="_top" xlink:title="Integration of Modbus and PostgreSQL data handling.">
<polygon fill="white" stroke="black" points="938,-67.5 938,-97.5 1111,-97.5 1111,-67.5 938,-67.5"/>
<text text-anchor="start" x="946" y="-85.5" font-family="Helvetica,sans-Serif" font-size="10.00">src/DataHandlers/ModbusWith</text>
<text text-anchor="middle" x="1024.5" y="-74.5" font-family="Helvetica,sans-Serif" font-size="10.00">Postgres/ModbusWithPostgres.h</text>
</a>
</g>
</g>
<!-- Node3&#45;&gt;Node10 -->
<g id="edge10" class="edge">
<title>Node3&#45;&gt;Node10</title>
<path fill="none" stroke="midnightblue" d="M855.07,-131.73C889.18,-122.02 938.58,-107.96 975.24,-97.52"/>
<polygon fill="midnightblue" stroke="midnightblue" points="854.1,-128.37 845.44,-134.48 856.02,-135.1 854.1,-128.37"/>
</g>
<!-- Node13 -->
<g id="node13" class="node">
<title>Node13</title>
<g id="a_node13"><a xlink:href="Signals_8c.html" target="_top" xlink:title="Signal handling implementation for the Sensor Data Handler System.">
<polygon fill="white" stroke="black" points="665,-6 665,-25 742,-25 742,-6 665,-6"/>
<text text-anchor="middle" x="703.5" y="-13" font-family="Helvetica,sans-Serif" font-size="10.00">src/Signals.c</text>
</a>
</g>
</g>
<!-- Node3&#45;&gt;Node13 -->
<g id="edge15" class="edge">
<title>Node3&#45;&gt;Node13</title>
<path fill="none" stroke="midnightblue" d="M820.52,-124.12C823.75,-107.67 825.52,-83.88 814.5,-67 804.78,-52.11 760.01,-35.01 730.38,-25.02"/>
<polygon fill="midnightblue" stroke="midnightblue" points="817.04,-123.63 818.2,-134.16 823.86,-125.21 817.04,-123.63"/>
</g>
<!-- Node14 -->
<g id="node14" class="node">
<title>Node14</title>
<g id="a_node14"><a xlink:href="Signals_8h.html" target="_top" xlink:title="Signal handling interface for the Sensor Data Handler System.">
<polygon fill="white" stroke="black" points="1205.5,-73 1205.5,-92 1283.5,-92 1283.5,-73 1205.5,-73"/>
<text text-anchor="middle" x="1244.5" y="-80" font-family="Helvetica,sans-Serif" font-size="10.00">src/Signals.h</text>
</a>
</g>
</g>
<!-- Node3&#45;&gt;Node14 -->
<g id="edge16" class="edge">
<title>Node3&#45;&gt;Node14</title>
<path fill="none" stroke="midnightblue" d="M893.83,-133.15C962.39,-124.39 1064.63,-110.99 1153.5,-98 1170.44,-95.52 1189.11,-92.58 1205.12,-90"/>
<polygon fill="midnightblue" stroke="midnightblue" points="893.02,-129.72 883.55,-134.46 893.91,-136.67 893.02,-129.72"/>
</g>
<!-- Node10&#45;&gt;Node8 -->
<g id="edge12" class="edge">
<title>Node10&#45;&gt;Node8</title>
<path fill="none" stroke="midnightblue" d="M975.37,-63.96C946.06,-53.48 909.32,-40.37 881.91,-30.58"/>
<polygon fill="midnightblue" stroke="midnightblue" points="974.41,-67.33 985.01,-67.4 976.77,-60.74 974.41,-67.33"/>
</g>
<!-- Node10&#45;&gt;Node9 -->
<g id="edge13" class="edge">
<title>Node10&#45;&gt;Node9</title>
<path fill="none" stroke="midnightblue" d="M1117.6,-65.78C1181.23,-55.04 1264.83,-40.92 1326.25,-30.55"/>
<polygon fill="midnightblue" stroke="midnightblue" points="1116.84,-62.36 1107.57,-67.48 1118.01,-69.26 1116.84,-62.36"/>
</g>
<!-- Node11 -->
<g id="node11" class="node">
<title>Node11</title>
<g id="a_node11"><a xlink:href="DataHandlers_8c.html" target="_top" xlink:title="Implementation of Data Handler Thread Group Management.">
<polygon fill="white" stroke="black" points="943,-6 943,-25 1122,-25 1122,-6 943,-6"/>
<text text-anchor="middle" x="1032.5" y="-13" font-family="Helvetica,sans-Serif" font-size="10.00">src/DataHandlers/DataHandlers.c</text>
</a>
</g>
</g>
<!-- Node10&#45;&gt;Node11 -->
<g id="edge11" class="edge">
<title>Node10&#45;&gt;Node11</title>
<path fill="none" stroke="midnightblue" d="M1027.48,-57.25C1028.87,-46.02 1030.42,-33.38 1031.43,-25.19"/>
<polygon fill="midnightblue" stroke="midnightblue" points="1023.98,-57.04 1026.24,-67.4 1030.93,-57.9 1023.98,-57.04"/>
</g>
<!-- Node12 -->
<g id="node12" class="node">
<title>Node12</title>
<g id="a_node12"><a xlink:href="DataHandlers_2ModbusWithPostgres_2Postgres_8c.html" target="_top" xlink:title=" ">
<polygon fill="white" stroke="black" points="1140.5,-0.5 1140.5,-30.5 1304.5,-30.5 1304.5,-0.5 1140.5,-0.5"/>
<text text-anchor="start" x="1148.5" y="-18.5" font-family="Helvetica,sans-Serif" font-size="10.00">src/DataHandlers/ModbusWith</text>
<text text-anchor="middle" x="1222.5" y="-7.5" font-family="Helvetica,sans-Serif" font-size="10.00">Postgres/Postgres.c</text>
</a>
</g>
</g>
<!-- Node10&#45;&gt;Node12 -->
<g id="edge14" class="edge">
<title>Node10&#45;&gt;Node12</title>
<path fill="none" stroke="midnightblue" d="M1077.11,-64.23C1109.14,-53.71 1149.54,-40.45 1179.62,-30.58"/>
<polygon fill="midnightblue" stroke="midnightblue" points="1075.87,-60.95 1067.46,-67.4 1078.06,-67.6 1075.87,-60.95"/>
</g>
<!-- Node14&#45;&gt;Node8 -->
<g id="edge18" class="edge">
<title>Node14&#45;&gt;Node8</title>
<path fill="none" stroke="midnightblue" d="M1195.29,-73.54C1127.9,-62.65 1006.01,-42.94 924.65,-29.78"/>
<polygon fill="midnightblue" stroke="midnightblue" points="1194.79,-77.01 1205.22,-75.15 1195.91,-70.1 1194.79,-77.01"/>
</g>
<!-- Node14&#45;&gt;Node9 -->
<g id="edge19" class="edge">
<title>Node14&#45;&gt;Node9</title>
<path fill="none" stroke="midnightblue" d="M1275.72,-69.2C1303.68,-58.19 1344.66,-42.04 1373.89,-30.53"/>
<polygon fill="midnightblue" stroke="midnightblue" points="1274.43,-65.95 1266.41,-72.87 1277,-72.46 1274.43,-65.95"/>
</g>
<!-- Node14&#45;&gt;Node12 -->
<g id="edge20" class="edge">
<title>Node14&#45;&gt;Node12</title>
<path fill="none" stroke="midnightblue" d="M1238.26,-63.06C1234.77,-52.75 1230.49,-40.1 1227.27,-30.59"/>
<polygon fill="midnightblue" stroke="midnightblue" points="1235.01,-64.38 1241.53,-72.73 1241.64,-62.14 1235.01,-64.38"/>
</g>
<!-- Node14&#45;&gt;Node13 -->
<g id="edge23" class="edge">
<title>Node14&#45;&gt;Node13</title>
<path fill="none" stroke="midnightblue" d="M1195.19,-75.57C1172.2,-72.86 1144.46,-69.67 1119.5,-67 956.09,-49.53 912.71,-62.91 751.5,-31 743.99,-29.51 735.96,-27.33 728.67,-25.12"/>
<polygon fill="midnightblue" stroke="midnightblue" points="1195.05,-79.08 1205.39,-76.78 1195.87,-72.13 1195.05,-79.08"/>
</g>
<!-- Node14&#45;&gt;Node15 -->
<g id="edge17" class="edge">
<title>Node14&#45;&gt;Node15</title>
<path fill="none" stroke="midnightblue" d="M1293.65,-72.45C1305.67,-70.45 1318.53,-68.48 1330.5,-67 1530.94,-42.19 1583.09,-56.01 1783.5,-31 1796.42,-29.39 1810.38,-27.2 1823.18,-25.01"/>
<polygon fill="midnightblue" stroke="midnightblue" points="1293.05,-69 1283.78,-74.13 1294.23,-75.9 1293.05,-69"/>
</g>
<!-- Node14&#45;&gt;Node16 -->
<g id="edge21" class="edge">
<title>Node14&#45;&gt;Node16</title>
<path fill="none" stroke="midnightblue" d="M1293.72,-72.95C1305.74,-70.93 1318.57,-68.83 1330.5,-67 1445.37,-49.34 1474.47,-47.59 1589.5,-31 1602.65,-29.1 1616.79,-27.02 1630.09,-25.03"/>
<polygon fill="midnightblue" stroke="midnightblue" points="1293.13,-69.5 1283.85,-74.62 1294.29,-76.4 1293.13,-69.5"/>
</g>
<!-- Node14&#45;&gt;Node17 -->
<g id="edge22" class="edge">
<title>Node14&#45;&gt;Node17</title>
<path fill="none" stroke="midnightblue" d="M1293.51,-72.79C1357.35,-61.3 1465.42,-41.34 1504.5,-31 1510.9,-29.31 1517.73,-27.17 1524.01,-25.05"/>
<polygon fill="midnightblue" stroke="midnightblue" points="1292.89,-69.34 1283.66,-74.56 1294.13,-76.23 1292.89,-69.34"/>
</g>
<!-- Node19&#45;&gt;Node9 -->
<g id="edge32" class="edge">
<title>Node19&#45;&gt;Node9</title>
<path fill="none" stroke="midnightblue" d="M1276.78,-126.24C1289.2,-109.96 1309.52,-85.12 1330.5,-67 1346.76,-52.96 1367.26,-39.97 1383.3,-30.68"/>
<polygon fill="midnightblue" stroke="midnightblue" points="1273.93,-124.2 1270.73,-134.31 1279.53,-128.4 1273.93,-124.2"/>
</g>
<!-- Node19&#45;&gt;Node10 -->
<g id="edge33" class="edge">
<title>Node19&#45;&gt;Node10</title>
<path fill="none" stroke="midnightblue" d="M1220.31,-132.05C1181.11,-122.33 1123.62,-108.07 1081.06,-97.52"/>
<polygon fill="midnightblue" stroke="midnightblue" points="1219.57,-135.47 1230.11,-134.48 1221.25,-128.67 1219.57,-135.47"/>
</g>
<!-- Node19&#45;&gt;Node11 -->
<g id="edge28" class="edge">
<title>Node19&#45;&gt;Node11</title>
<path fill="none" stroke="midnightblue" d="M1239.77,-129.51C1191.91,-103.42 1087.87,-46.69 1048.25,-25.09"/>
<polygon fill="midnightblue" stroke="midnightblue" points="1238.1,-132.59 1248.55,-134.31 1241.45,-126.45 1238.1,-132.59"/>
</g>
<!-- Node19&#45;&gt;Node14 -->
<g id="edge35" class="edge">
<title>Node19&#45;&gt;Node14</title>
<path fill="none" stroke="midnightblue" d="M1258.33,-124.66C1254.68,-113.77 1250.21,-100.49 1247.36,-92.01"/>
<polygon fill="midnightblue" stroke="midnightblue" points="1255.13,-126.11 1261.63,-134.48 1261.77,-123.88 1255.13,-126.11"/>
</g>
<!-- Node19&#45;&gt;Node15 -->
<g id="edge27" class="edge">
<title>Node19&#45;&gt;Node15</title>
<path fill="none" stroke="midnightblue" d="M1340.29,-133.07C1398.14,-125.01 1479.68,-112.61 1550.5,-98 1657.67,-75.89 1782.96,-41.1 1838.91,-25.09"/>
<polygon fill="midnightblue" stroke="midnightblue" points="1339.56,-129.64 1330.13,-134.48 1340.52,-136.57 1339.56,-129.64"/>
</g>
<!-- Node19&#45;&gt;Node17 -->
<g id="edge34" class="edge">
<title>Node19&#45;&gt;Node17</title>
<path fill="none" stroke="midnightblue" d="M1348.93,-133.22C1420.77,-124.14 1514.37,-110.23 1527.5,-98 1548.18,-78.74 1549,-41.87 1548.19,-25.14"/>
<polygon fill="midnightblue" stroke="midnightblue" points="1348.44,-129.75 1338.95,-134.47 1349.3,-136.7 1348.44,-129.75"/>
</g>
<!-- Node20 -->
<g id="node20" class="node">
<title>Node20</title>
<g id="a_node20"><a xlink:href="DataHandlers_8h.html" target="_top" xlink:title="Data Handler Management for Thread Group Creation.">
<polygon fill="white" stroke="black" points="1340,-73 1340,-92 1519,-92 1519,-73 1340,-73"/>
<text text-anchor="middle" x="1429.5" y="-80" font-family="Helvetica,sans-Serif" font-size="10.00">src/DataHandlers/DataHandlers.h</text>
</a>
</g>
</g>
<!-- Node19&#45;&gt;Node20 -->
<g id="edge29" class="edge">
<title>Node19&#45;&gt;Node20</title>
<path fill="none" stroke="midnightblue" d="M1297.55,-131.08C1329.62,-119.52 1377.5,-102.25 1405.9,-92.01"/>
<polygon fill="midnightblue" stroke="midnightblue" points="1296.36,-127.79 1288.14,-134.48 1298.73,-134.38 1296.36,-127.79"/>
</g>
<!-- Node20&#45;&gt;Node9 -->
<g id="edge30" class="edge">
<title>Node20&#45;&gt;Node9</title>
<path fill="none" stroke="midnightblue" d="M1423.83,-63.06C1420.65,-52.75 1416.76,-40.1 1413.84,-30.59"/>
<polygon fill="midnightblue" stroke="midnightblue" points="1420.52,-64.21 1426.8,-72.73 1427.21,-62.15 1420.52,-64.21"/>
</g>
<!-- Node20&#45;&gt;Node17 -->
<g id="edge31" class="edge">
<title>Node20&#45;&gt;Node17</title>
<path fill="none" stroke="midnightblue" d="M1454.39,-67.79C1477.78,-54.9 1512.06,-36.02 1531.84,-25.13"/>
<polygon fill="midnightblue" stroke="midnightblue" points="1452.48,-64.84 1445.41,-72.73 1455.86,-70.97 1452.48,-64.84"/>
</g>
<!-- Node21&#45;&gt;Node9 -->
<g id="edge43" class="edge">
<title>Node21&#45;&gt;Node9</title>
<path fill="none" stroke="midnightblue" d="M1495.79,-129.38C1507.89,-121.93 1520.77,-111.46 1527.5,-98 1533.66,-85.68 1535.09,-78.5 1527.5,-67 1515.96,-49.52 1496.99,-38.06 1477.6,-30.57"/>
<polygon fill="midnightblue" stroke="midnightblue" points="1493.77,-126.5 1486.8,-134.48 1497.22,-132.59 1493.77,-126.5"/>
</g>
</g>
</svg>
        <g id="navigator" transform="translate(0 0)" fill="#404254">
                <rect fill="#f2f5e9" fill-opacity="0.5" stroke="#606060" stroke-width=".5" x="0" y="0" width="60" height="60"/>
                <use id="zoomplus" xlink:href="#zoomPlus" x="17" y="9" onmousedown="handleZoom(evt,'in')"/>
                <use id="zoomminus" xlink:href="#zoomMin" x="42" y="9" onmousedown="handleZoom(evt,'out')"/>
                <use id="reset" xlink:href="#resetDef" x="30" y="36" onmousedown="handleReset()"/>
                <g id="arrowUp" xlink:href="#dirArrow" transform="translate(30 24)" onmousedown="handlePan(0,-1)">
                  <use xlink:href="#rim" fill="#404040">
                        <set attributeName="fill" to="#808080" begin="arrowUp.mouseover" end="arrowUp.mouseout"/>
                  </use>
                  <path fill="none" stroke="white" stroke-width="1.5" d="M0,-3.0v7 M-2.5,-0.5L0,-3.0L2.5,-0.5"/>
                </g>
                <g id="arrowRight" xlink:href="#dirArrow" transform="rotate(90) translate(36 -43)" onmousedown="handlePan(1,0)">
                  <use xlink:href="#rim" fill="#404040">
                        <set attributeName="fill" to="#808080" begin="arrowRight.mouseover" end="arrowRight.mouseout"/>
                  </use>
                  <path fill="none" stroke="white" stroke-width="1.5" d="M0,-3.0v7 M-2.5,-0.5L0,-3.0L2.5,-0.5"/>
                </g>
                <g id="arrowDown" xlink:href="#dirArrow" transform="rotate(180) translate(-30 -48)" onmousedown="handlePan(0,1)">
                  <use xlink:href="#rim" fill="#404040">
                        <set attributeName="fill" to="#808080" begin="arrowDown.mouseover" end="arrowDown.mouseout"/>
                  </use>
                  <path fill="none" stroke="white" stroke-width="1.5" d="M0,-3.0v7 M-2.5,-0.5L0,-3.0L2.5,-0.5"/>
                </g>
                <g id="arrowLeft" xlink:href="#dirArrow" transform="rotate(270) translate(-36 17)" onmousedown="handlePan(-1,0)">
                  <use xlink:href="#rim" fill="#404040">
                        <set attributeName="fill" to="#808080" begin="arrowLeft.mouseover" end="arrowLeft.mouseout"/>
                  </use>
                  <path fill="none" stroke="white" stroke-width="1.5" d="M0,-3.0v7 M-2.5,-0.5L0,-3.0L2.5,-0.5"/>
                </g>
        </g>
        <svg viewBox="0 0 15 15" width="100%" height="30px" preserveAspectRatio="xMaxYMin meet">
         <g id="arrow_out" transform="scale(0.3 0.3)">
          <a xlink:href="Thread_8h__dep__incl_org.svg" target="_base">
           <rect id="button" ry="5" rx="5" y="6" x="6" height="38" width="38"
                fill="#f2f5e9" fill-opacity="0.5" stroke="#606060" stroke-width="1.0"/>
           <path id="arrow"
             d="M 11.500037,31.436501 C 11.940474,20.09759 22.043105,11.32322 32.158766,21.979434 L 37.068811,17.246167 C 37.068811,17.246167 37.088388,32 37.088388,32 L 22.160133,31.978069 C 22.160133,31.978069 26.997745,27.140456 26.997745,27.140456 C 18.528582,18.264221 13.291696,25.230495 11.500037,31.436501 z"
             style="fill:#404040;"/>
          </a>
         </g>
        </svg>
</svg>
