<?xml version="1.0" encoding="UTF-8" standalone="no"?>
<!DOCTYPE svg PUBLIC "-//W3C//DTD SVG 1.1//EN"
 "http://www.w3.org/Graphics/SVG/1.1/DTD/svg11.dtd">
<!-- Generated by graphviz version 2.43.0 (0)
 -->
<!-- Title: TgManagerStartAll Pages: 1 -->
<svg width="872pt" height="123pt"
 viewBox="0.00 0.00 872.00 123.00" xmlns="http://www.w3.org/2000/svg" xmlns:xlink="http://www.w3.org/1999/xlink">
<g id="graph0" class="graph" transform="scale(1 1) rotate(0) translate(4 119)">
<title>TgManagerStartAll</title>
<polygon fill="white" stroke="transparent" points="-4,4 -4,-119 868,-119 868,4 -4,4"/>
<!-- Node1 -->
<g id="node1" class="node">
<title>Node1</title>
<g id="a_node1"><a xlink:title="Start All Thread Groups in Manager.">
<polygon fill="#bfbfbf" stroke="black" points="0,-38.5 0,-57.5 107,-57.5 107,-38.5 0,-38.5"/>
<text text-anchor="middle" x="53.5" y="-45.5" font-family="Helvetica,sans-Serif" font-size="10.00">TgManagerStartAll</text>
</a>
</g>
</g>
<!-- Node2 -->
<g id="node2" class="node">
<title>Node2</title>
<g id="a_node2"><a xlink:href="Thread_8c.html#a5fbfdcfc990630f27e5161ec4ea18aaa" target="_top" xlink:title="Lock a mutex with timeout.">
<polygon fill="white" stroke="black" points="367.5,-76.5 367.5,-95.5 455.5,-95.5 455.5,-76.5 367.5,-76.5"/>
<text text-anchor="middle" x="411.5" y="-83.5" font-family="Helvetica,sans-Serif" font-size="10.00">SdbMutexLock</text>
</a>
</g>
</g>
<!-- Node1&#45;&gt;Node2 -->
<g id="edge1" class="edge">
<title>Node1&#45;&gt;Node2</title>
<path fill="none" stroke="midnightblue" d="M93.06,-57.51C108.5,-61 126.51,-64.66 143,-67 216.83,-77.49 303,-82.29 357.15,-84.42"/>
<polygon fill="midnightblue" stroke="midnightblue" points="357.09,-87.92 367.22,-84.8 357.35,-80.92 357.09,-87.92"/>
</g>
<!-- Node7 -->
<g id="node7" class="node">
<title>Node7</title>
<g id="a_node7"><a xlink:href="Thread_8c.html#a385a70a16dc0b1872fdf925d2121880c" target="_top" xlink:title="Unlock a mutex.">
<polygon fill="white" stroke="black" points="362,-0.5 362,-19.5 461,-19.5 461,-0.5 362,-0.5"/>
<text text-anchor="middle" x="411.5" y="-7.5" font-family="Helvetica,sans-Serif" font-size="10.00">SdbMutexUnlock</text>
</a>
</g>
</g>
<!-- Node1&#45;&gt;Node7 -->
<g id="edge6" class="edge">
<title>Node1&#45;&gt;Node7</title>
<path fill="none" stroke="midnightblue" d="M93.06,-38.49C108.5,-35 126.51,-31.34 143,-29 214.45,-18.84 297.45,-14.02 351.82,-11.8"/>
<polygon fill="midnightblue" stroke="midnightblue" points="352.1,-15.29 361.96,-11.4 351.83,-8.29 352.1,-15.29"/>
</g>
<!-- Node8 -->
<g id="node8" class="node">
<title>Node8</title>
<g id="a_node8"><a xlink:href="ThreadGroup_8c.html#aaf638572d1f947f2ab3b6637d11029fd" target="_top" xlink:title="Start All Threads in a Thread Group.">
<polygon fill="white" stroke="black" points="143,-38.5 143,-57.5 224,-57.5 224,-38.5 143,-38.5"/>
<text text-anchor="middle" x="183.5" y="-45.5" font-family="Helvetica,sans-Serif" font-size="10.00">TgStartGroup</text>
</a>
</g>
</g>
<!-- Node1&#45;&gt;Node8 -->
<g id="edge7" class="edge">
<title>Node1&#45;&gt;Node8</title>
<path fill="none" stroke="midnightblue" d="M107.3,-48C115.63,-48 124.22,-48 132.48,-48"/>
<polygon fill="midnightblue" stroke="midnightblue" points="132.73,-51.5 142.73,-48 132.73,-44.5 132.73,-51.5"/>
</g>
<!-- Node3 -->
<g id="node3" class="node">
<title>Node3</title>
<g id="a_node3"><a xlink:href="Thread_8c.html#aa16f3f5cb899e1128f1a80c021780e5f" target="_top" xlink:title=" ">
<polygon fill="white" stroke="black" points="497,-76.5 497,-95.5 586,-95.5 586,-76.5 497,-76.5"/>
<text text-anchor="middle" x="541.5" y="-83.5" font-family="Helvetica,sans-Serif" font-size="10.00">CreateTimeout</text>
</a>
</g>
</g>
<!-- Node2&#45;&gt;Node3 -->
<g id="edge2" class="edge">
<title>Node2&#45;&gt;Node3</title>
<path fill="none" stroke="midnightblue" d="M455.83,-86C465.73,-86 476.37,-86 486.65,-86"/>
<polygon fill="midnightblue" stroke="midnightblue" points="486.77,-89.5 496.77,-86 486.77,-82.5 486.77,-89.5"/>
</g>
<!-- Node4 -->
<g id="node4" class="node">
<title>Node4</title>
<g id="a_node4"><a xlink:href="Time_8c.html#afad180732be23f8e46bdfc2bb349ff44" target="_top" xlink:title="Create Absolute Timeout Timestamp.">
<polygon fill="white" stroke="black" points="622,-76.5 622,-95.5 747,-95.5 747,-76.5 622,-76.5"/>
<text text-anchor="middle" x="684.5" y="-83.5" font-family="Helvetica,sans-Serif" font-size="10.00">SdbTimespecAbsolute</text>
</a>
</g>
</g>
<!-- Node3&#45;&gt;Node4 -->
<g id="edge3" class="edge">
<title>Node3&#45;&gt;Node4</title>
<path fill="none" stroke="midnightblue" d="M586.34,-86C594.42,-86 603.04,-86 611.69,-86"/>
<polygon fill="midnightblue" stroke="midnightblue" points="611.83,-89.5 621.83,-86 611.83,-82.5 611.83,-89.5"/>
</g>
<!-- Node5 -->
<g id="node5" class="node">
<title>Node5</title>
<g id="a_node5"><a xlink:href="Time_8c.html#af8be68d54def6b644cac5efb8fe2e605" target="_top" xlink:title="Add Time Difference to Timestamp.">
<polygon fill="white" stroke="black" points="784.5,-95.5 784.5,-114.5 862.5,-114.5 862.5,-95.5 784.5,-95.5"/>
<text text-anchor="middle" x="823.5" y="-102.5" font-family="Helvetica,sans-Serif" font-size="10.00">SdbTimeAdd</text>
</a>
</g>
</g>
<!-- Node4&#45;&gt;Node5 -->
<g id="edge4" class="edge">
<title>Node4&#45;&gt;Node5</title>
<path fill="none" stroke="midnightblue" d="M747.19,-94.56C756.27,-95.82 765.52,-97.1 774.28,-98.31"/>
<polygon fill="midnightblue" stroke="midnightblue" points="773.92,-101.8 784.31,-99.7 774.88,-94.86 773.92,-101.8"/>
</g>
<!-- Node6 -->
<g id="node6" class="node">
<title>Node6</title>
<g id="a_node6"><a xlink:href="Time_8c.html#a83d0c194706101b50506d2618e27167c" target="_top" xlink:title="Get Current Real&#45;Time Timestamp.">
<polygon fill="white" stroke="black" points="783,-57.5 783,-76.5 864,-76.5 864,-57.5 783,-57.5"/>
<text text-anchor="middle" x="823.5" y="-64.5" font-family="Helvetica,sans-Serif" font-size="10.00">SdbTimeNow</text>
</a>
</g>
</g>
<!-- Node4&#45;&gt;Node6 -->
<g id="edge5" class="edge">
<title>Node4&#45;&gt;Node6</title>
<path fill="none" stroke="midnightblue" d="M747.19,-77.44C755.77,-76.25 764.5,-75.04 772.82,-73.89"/>
<polygon fill="midnightblue" stroke="midnightblue" points="773.32,-77.35 782.74,-72.51 772.36,-70.42 773.32,-77.35"/>
</g>
<!-- Node9 -->
<g id="node9" class="node">
<title>Node9</title>
<g id="a_node9"><a xlink:href="ThreadGroup_8c.html#abd4b3faea4ee7a0e94f28b6ce36aab7c" target="_top" xlink:title=" ">
<polygon fill="white" stroke="black" points="260,-38.5 260,-57.5 326,-57.5 326,-38.5 260,-38.5"/>
<text text-anchor="middle" x="293" y="-45.5" font-family="Helvetica,sans-Serif" font-size="10.00">TgMonitor</text>
</a>
</g>
</g>
<!-- Node8&#45;&gt;Node9 -->
<g id="edge8" class="edge">
<title>Node8&#45;&gt;Node9</title>
<path fill="none" stroke="midnightblue" d="M224.22,-48C232.56,-48 241.38,-48 249.8,-48"/>
<polygon fill="midnightblue" stroke="midnightblue" points="249.81,-51.5 259.81,-48 249.81,-44.5 249.81,-51.5"/>
</g>
<!-- Node9&#45;&gt;Node2 -->
<g id="edge10" class="edge">
<title>Node9&#45;&gt;Node2</title>
<path fill="none" stroke="midnightblue" d="M323.4,-57.59C337.89,-62.31 355.56,-68.08 371.19,-73.18"/>
<polygon fill="midnightblue" stroke="midnightblue" points="370.52,-76.64 381.11,-76.41 372.69,-69.99 370.52,-76.64"/>
</g>
<!-- Node9&#45;&gt;Node7 -->
<g id="edge11" class="edge">
<title>Node9&#45;&gt;Node7</title>
<path fill="none" stroke="midnightblue" d="M323.4,-38.41C337.89,-33.69 355.56,-27.92 371.19,-22.82"/>
<polygon fill="midnightblue" stroke="midnightblue" points="372.69,-26.01 381.11,-19.59 370.52,-19.36 372.69,-26.01"/>
</g>
<!-- Node10 -->
<g id="node10" class="node">
<title>Node10</title>
<g id="a_node10"><a xlink:href="Thread_8c.html#a6e1a34c43565fd0fe32ce19bd63680c8" target="_top" xlink:title="Signal a condition variable.">
<polygon fill="white" stroke="black" points="367,-38.5 367,-57.5 456,-57.5 456,-38.5 367,-38.5"/>
<text text-anchor="middle" x="411.5" y="-45.5" font-family="Helvetica,sans-Serif" font-size="10.00">SdbCondSignal</text>
</a>
</g>
</g>
<!-- Node9&#45;&gt;Node10 -->
<g id="edge9" class="edge">
<title>Node9&#45;&gt;Node10</title>
<path fill="none" stroke="midnightblue" d="M326.14,-48C335.54,-48 346.08,-48 356.44,-48"/>
<polygon fill="midnightblue" stroke="midnightblue" points="356.69,-51.5 366.69,-48 356.69,-44.5 356.69,-51.5"/>
</g>
</g>
</svg>
