<?xml version="1.0" encoding="UTF-8" standalone="no"?>
<!DOCTYPE svg PUBLIC "-//W3C//DTD SVG 1.1//EN"
 "http://www.w3.org/Graphics/SVG/1.1/DTD/svg11.dtd">
<!-- Generated by graphviz version 2.43.0 (0)
 -->
<!-- Title: SdbSemWait Pages: 1 -->
<svg width="489pt" height="64pt"
 viewBox="0.00 0.00 489.00 64.00" xmlns="http://www.w3.org/2000/svg" xmlns:xlink="http://www.w3.org/1999/xlink">
<g id="graph0" class="graph" transform="scale(1 1) rotate(0) translate(4 60)">
<title>SdbSemWait</title>
<!-- Node1 -->
<g id="Node000001" class="node">
<title>Node1</title>
<g id="a_Node000001"><a xlink:title="Wait on a semaphore with timeout.">
<polygon fill="#999999" stroke="#666666" points="78,-37 0,-37 0,-18 78,-18 78,-37"/>
<text text-anchor="middle" x="39" y="-25" font-family="Helvetica,sans-Serif" font-size="10.00">SdbSemWait</text>
</a>
</g>
</g>
<!-- Node2 -->
<g id="Node000002" class="node">
<title>Node2</title>
<g id="a_Node000002"><a xlink:href="Thread_8c.html#aa16f3f5cb899e1128f1a80c021780e5f" target="_top" xlink:title=" ">
<polygon fill="white" stroke="#666666" points="203,-37 114,-37 114,-18 203,-18 203,-37"/>
<text text-anchor="middle" x="158.5" y="-25" font-family="Helvetica,sans-Serif" font-size="10.00">CreateTimeout</text>
</a>
</g>
</g>
<!-- Node1&#45;&gt;Node2 -->
<g id="edge1_Node000001_Node000002" class="edge">
<title>Node1&#45;&gt;Node2</title>
<g id="a_edge1_Node000001_Node000002"><a xlink:title=" ">
<path fill="none" stroke="#63b8ff" d="M78.15,-27.5C86.34,-27.5 95.14,-27.5 103.79,-27.5"/>
<polygon fill="#63b8ff" stroke="#63b8ff" points="103.83,-31 113.83,-27.5 103.83,-24 103.83,-31"/>
</a>
</g>
</g>
<!-- Node3 -->
<g id="Node000003" class="node">
<title>Node3</title>
<g id="a_Node000003"><a xlink:href="Time_8c.html#afad180732be23f8e46bdfc2bb349ff44" target="_top" xlink:title="Create Absolute Timeout Timestamp.">
<polygon fill="white" stroke="#666666" points="364,-37 239,-37 239,-18 364,-18 364,-37"/>
<text text-anchor="middle" x="301.5" y="-25" font-family="Helvetica,sans-Serif" font-size="10.00">SdbTimespecAbsolute</text>
</a>
</g>
</g>
<!-- Node2&#45;&gt;Node3 -->
<g id="edge2_Node000002_Node000003" class="edge">
<title>Node2&#45;&gt;Node3</title>
<g id="a_edge2_Node000002_Node000003"><a xlink:title=" ">
<path fill="none" stroke="#63b8ff" d="M203.34,-27.5C211.42,-27.5 220.04,-27.5 228.69,-27.5"/>
<polygon fill="#63b8ff" stroke="#63b8ff" points="228.83,-31 238.83,-27.5 228.83,-24 228.83,-31"/>
</a>
</g>
</g>
<!-- Node4 -->
<g id="Node000004" class="node">
<title>Node4</title>
<g id="a_Node000004"><a xlink:href="Time_8c.html#af8be68d54def6b644cac5efb8fe2e605" target="_top" xlink:title="Add Time Difference to Timestamp.">
<polygon fill="white" stroke="#666666" points="479.5,-56 401.5,-56 401.5,-37 479.5,-37 479.5,-56"/>
<text text-anchor="middle" x="440.5" y="-44" font-family="Helvetica,sans-Serif" font-size="10.00">SdbTimeAdd</text>
</a>
</g>
</g>
<!-- Node3&#45;&gt;Node4 -->
<g id="edge3_Node000003_Node000004" class="edge">
<title>Node3&#45;&gt;Node4</title>
<g id="a_edge3_Node000003_Node000004"><a xlink:title=" ">
<path fill="none" stroke="#63b8ff" d="M364.19,-36.06C373.27,-37.32 382.52,-38.6 391.28,-39.81"/>
<polygon fill="#63b8ff" stroke="#63b8ff" points="390.92,-43.3 401.31,-41.2 391.88,-36.36 390.92,-43.3"/>
</a>
</g>
</g>
<!-- Node5 -->
<g id="Node000005" class="node">
<title>Node5</title>
<g id="a_Node000005"><a xlink:href="Time_8c.html#a83d0c194706101b50506d2618e27167c" target="_top" xlink:title="Get Current Real&#45;Time Timestamp.">
<polygon fill="white" stroke="#666666" points="481,-19 400,-19 400,0 481,0 481,-19"/>
<text text-anchor="middle" x="440.5" y="-7" font-family="Helvetica,sans-Serif" font-size="10.00">SdbTimeNow</text>
</a>
</g>
</g>
<!-- Node3&#45;&gt;Node5 -->
<g id="edge4_Node000003_Node000005" class="edge">
<title>Node3&#45;&gt;Node5</title>
<g id="a_edge4_Node000003_Node000005"><a xlink:title=" ">
<path fill="none" stroke="#63b8ff" d="M364.19,-19.4C372.77,-18.27 381.5,-17.12 389.82,-16.03"/>
<polygon fill="#63b8ff" stroke="#63b8ff" points="390.28,-19.5 399.74,-14.72 389.37,-12.56 390.28,-19.5"/>
</a>
</g>
</g>
</g>
</svg>
