<?xml version="1.0" encoding="UTF-8" standalone="no"?>
<!DOCTYPE svg PUBLIC "-//W3C//DTD SVG 1.1//EN"
 "http://www.w3.org/Graphics/SVG/1.1/DTD/svg11.dtd">
<!-- Generated by graphviz version 2.43.0 (0)
 -->
<!-- Title: src/Common/ThreadGroup.h Pages: 1 -->
<!--zoomable 162 -->
<svg id="main" version="1.1" xmlns="http://www.w3.org/2000/svg" xmlns:xlink="http://www.w3.org/1999/xlink" xml:space="preserve" onload="init(evt)">
<style type="text/css"><![CDATA[
.edge:hover path { stroke: red; }
.edge:hover polygon { stroke: red; fill: red; }
]]></style>
<script type="text/javascript"><![CDATA[
var edges = document.getElementsByTagName('g');
if (edges && edges.length) {
  for (var i=0;i<edges.length;i++) {
    if (edges[i].id.substr(0,4)=='edge') {
      edges[i].setAttribute('class','edge');
    }
  }
}
]]></script>
        <defs>
                <circle id="rim" cx="0" cy="0" r="7"/>
                <circle id="rim2" cx="0" cy="0" r="3.5"/>
                <g id="zoomPlus">
                        <use xlink:href="#rim" fill="#404040">
                                <set attributeName="fill" to="#808080" begin="zoomplus.mouseover" end="zoomplus.mouseout"/>
                        </use>
                        <path d="M-4,0h8M0,-4v8" fill="none" stroke="white" stroke-width="1.5" pointer-events="none"/>
                </g>
                <g id="zoomMin">
                        <use xlink:href="#rim" fill="#404040">
                                <set attributeName="fill" to="#808080" begin="zoomminus.mouseover" end="zoomminus.mouseout"/>
                        </use>
                        <path d="M-4,0h8" fill="none" stroke="white" stroke-width="1.5" pointer-events="none"/>
                </g>
                <g id="dirArrow">
                        <path fill="none" stroke="white" stroke-width="1.5" d="M0,-3.0v7 M-2.5,-0.5L0,-3.0L2.5,-0.5"/>
                </g>
               <g id="resetDef">
                       <use xlink:href="#rim2" fill="#404040">
                               <set attributeName="fill" to="#808080" begin="reset.mouseover" end="reset.mouseout"/>
                       </use>
               </g>
        </defs>

<script type="text/javascript">
var viewWidth = 1287;
var viewHeight = 162;
var sectionId = 'dynsection-1';
</script>
<script xlink:href="svgpan.js"/>
<svg id="graph" class="graph">
<g id="viewport">
<title>src/Common/ThreadGroup.h</title>
<polygon fill="white" stroke="transparent" points="-4,4 -4,-158 1283,-158 1283,4 -4,4"/>
<!-- Node1 -->
<g id="node1" class="node">
<title>Node1</title>
<g id="a_node1"><a xlink:title="Thread Group Management System.">
<polygon fill="#bfbfbf" stroke="black" points="278.5,-134.5 278.5,-153.5 431.5,-153.5 431.5,-134.5 278.5,-134.5"/>
<text text-anchor="middle" x="355" y="-141.5" font-family="Helvetica,sans-Serif" font-size="10.00">src/Common/ThreadGroup.h</text>
</a>
</g>
</g>
<!-- Node2 -->
<g id="node2" class="node">
<title>Node2</title>
<g id="a_node2"><a xlink:href="ThreadGroup_8c.html" target="_top" xlink:title=" ">
<polygon fill="white" stroke="black" points="1127,-6 1127,-25 1279,-25 1279,-6 1127,-6"/>
<text text-anchor="middle" x="1203" y="-13" font-family="Helvetica,sans-Serif" font-size="10.00">src/Common/ThreadGroup.c</text>
</a>
</g>
</g>
<!-- Node1&#45;&gt;Node2 -->
<g id="edge1" class="edge">
<title>Node1&#45;&gt;Node2</title>
<path fill="none" stroke="midnightblue" d="M441.9,-133.52C516.57,-125.11 627.04,-112 723,-98 899.2,-72.3 942.46,-60.86 1118,-31 1129.36,-29.07 1141.58,-26.98 1153.11,-25.02"/>
<polygon fill="midnightblue" stroke="midnightblue" points="441.16,-130.08 431.61,-134.68 441.94,-137.04 441.16,-130.08"/>
</g>
<!-- Node3 -->
<g id="node3" class="node">
<title>Node3</title>
<g id="a_node3"><a xlink:href="DataHandlers_8c.html" target="_top" xlink:title="Implementation of Data Handler Thread Group Management.">
<polygon fill="white" stroke="black" points="275.5,-6 275.5,-25 454.5,-25 454.5,-6 275.5,-6"/>
<text text-anchor="middle" x="365" y="-13" font-family="Helvetica,sans-Serif" font-size="10.00">src/DataHandlers/DataHandlers.c</text>
</a>
</g>
</g>
<!-- Node1&#45;&gt;Node3 -->
<g id="edge2" class="edge">
<title>Node1&#45;&gt;Node3</title>
<path fill="none" stroke="midnightblue" d="M356.48,-124.31C358.67,-96.58 362.7,-45.63 364.31,-25.26"/>
<polygon fill="midnightblue" stroke="midnightblue" points="352.99,-124.06 355.69,-134.31 359.96,-124.61 352.99,-124.06"/>
</g>
<!-- Node4 -->
<g id="node4" class="node">
<title>Node4</title>
<g id="a_node4"><a xlink:href="DataHandlers_8h.html" target="_top" xlink:title="Data Handler Management for Thread Group Creation.">
<polygon fill="white" stroke="black" points="81.5,-73 81.5,-92 260.5,-92 260.5,-73 81.5,-73"/>
<text text-anchor="middle" x="171" y="-80" font-family="Helvetica,sans-Serif" font-size="10.00">src/DataHandlers/DataHandlers.h</text>
</a>
</g>
</g>
<!-- Node1&#45;&gt;Node4 -->
<g id="edge3" class="edge">
<title>Node1&#45;&gt;Node4</title>
<path fill="none" stroke="midnightblue" d="M319.07,-131.38C283.3,-119.82 229.26,-102.34 197.31,-92.01"/>
<polygon fill="midnightblue" stroke="midnightblue" points="318.05,-134.73 328.64,-134.48 320.2,-128.07 318.05,-134.73"/>
</g>
<!-- Node5 -->
<g id="node5" class="node">
<title>Node5</title>
<g id="a_node5"><a xlink:href="ModbusWithPostgres_8c.html" target="_top" xlink:title="Implementation of Modbus&#45;PostgreSQL integration.">
<polygon fill="white" stroke="black" points="84.5,-0.5 84.5,-30.5 257.5,-30.5 257.5,-0.5 84.5,-0.5"/>
<text text-anchor="start" x="92.5" y="-18.5" font-family="Helvetica,sans-Serif" font-size="10.00">src/DataHandlers/ModbusWith</text>
<text text-anchor="middle" x="171" y="-7.5" font-family="Helvetica,sans-Serif" font-size="10.00">Postgres/ModbusWithPostgres.c</text>
</a>
</g>
</g>
<!-- Node1&#45;&gt;Node5 -->
<g id="edge6" class="edge">
<title>Node1&#45;&gt;Node5</title>
<path fill="none" stroke="midnightblue" d="M339.37,-127.02C322.86,-110.68 295.57,-85.17 269,-67 248.14,-52.74 222.74,-39.76 203.02,-30.53"/>
<polygon fill="midnightblue" stroke="midnightblue" points="337.03,-129.63 346.57,-134.24 341.98,-124.68 337.03,-129.63"/>
</g>
<!-- Node6 -->
<g id="node6" class="node">
<title>Node6</title>
<g id="a_node6"><a xlink:href="Main_8c.html" target="_top" xlink:title="Main implementation file for the Sensor Data Handler System.">
<polygon fill="white" stroke="black" points="0,-6 0,-25 66,-25 66,-6 0,-6"/>
<text text-anchor="middle" x="33" y="-13" font-family="Helvetica,sans-Serif" font-size="10.00">src/Main.c</text>
</a>
</g>
</g>
<!-- Node1&#45;&gt;Node6 -->
<g id="edge12" class="edge">
<title>Node1&#45;&gt;Node6</title>
<path fill="none" stroke="midnightblue" d="M267.87,-137.95C196.42,-132.24 102.31,-120.62 72,-98 47.49,-79.71 37.69,-41.99 34.41,-25.06"/>
<polygon fill="midnightblue" stroke="midnightblue" points="267.99,-141.47 278.23,-138.75 268.53,-134.49 267.99,-141.47"/>
</g>
<!-- Node7 -->
<g id="node7" class="node">
<title>Node7</title>
<g id="a_node7"><a xlink:href="ModbusWithPostgres_8h.html" target="_top" xlink:title="Integration of Modbus and PostgreSQL data handling.">
<polygon fill="white" stroke="black" points="383.5,-67.5 383.5,-97.5 556.5,-97.5 556.5,-67.5 383.5,-67.5"/>
<text text-anchor="start" x="391.5" y="-85.5" font-family="Helvetica,sans-Serif" font-size="10.00">src/DataHandlers/ModbusWith</text>
<text text-anchor="middle" x="470" y="-74.5" font-family="Helvetica,sans-Serif" font-size="10.00">Postgres/ModbusWithPostgres.h</text>
</a>
</g>
</g>
<!-- Node1&#45;&gt;Node7 -->
<g id="edge7" class="edge">
<title>Node1&#45;&gt;Node7</title>
<path fill="none" stroke="midnightblue" d="M380.5,-129.81C399.01,-120.23 424.02,-107.29 442.9,-97.52"/>
<polygon fill="midnightblue" stroke="midnightblue" points="378.75,-126.77 371.48,-134.48 381.97,-132.99 378.75,-126.77"/>
</g>
<!-- Node10 -->
<g id="node10" class="node">
<title>Node10</title>
<g id="a_node10"><a xlink:href="Signals_8h.html" target="_top" xlink:title="Signal handling interface for the Sensor Data Handler System.">
<polygon fill="white" stroke="black" points="636,-73 636,-92 714,-92 714,-73 636,-73"/>
<text text-anchor="middle" x="675" y="-80" font-family="Helvetica,sans-Serif" font-size="10.00">src/Signals.h</text>
</a>
</g>
</g>
<!-- Node1&#45;&gt;Node10 -->
<g id="edge13" class="edge">
<title>Node1&#45;&gt;Node10</title>
<path fill="none" stroke="midnightblue" d="M410.83,-132.62C475.21,-120.65 579.41,-101.27 635.78,-90.79"/>
<polygon fill="midnightblue" stroke="midnightblue" points="410.04,-129.21 400.85,-134.48 411.32,-136.09 410.04,-129.21"/>
</g>
<!-- Node4&#45;&gt;Node5 -->
<g id="edge4" class="edge">
<title>Node4&#45;&gt;Node5</title>
<path fill="none" stroke="midnightblue" d="M171,-62.41C171,-52.22 171,-39.9 171,-30.59"/>
<polygon fill="midnightblue" stroke="midnightblue" points="167.5,-62.73 171,-72.73 174.5,-62.73 167.5,-62.73"/>
</g>
<!-- Node4&#45;&gt;Node6 -->
<g id="edge5" class="edge">
<title>Node4&#45;&gt;Node6</title>
<path fill="none" stroke="midnightblue" d="M143.28,-68.44C115.95,-55.57 74.95,-36.26 51.4,-25.17"/>
<polygon fill="midnightblue" stroke="midnightblue" points="142.14,-71.77 152.67,-72.87 145.12,-65.44 142.14,-71.77"/>
</g>
<!-- Node7&#45;&gt;Node3 -->
<g id="edge8" class="edge">
<title>Node7&#45;&gt;Node3</title>
<path fill="none" stroke="midnightblue" d="M438.46,-61.97C418.55,-49.65 393.83,-34.35 378.74,-25.01"/>
<polygon fill="midnightblue" stroke="midnightblue" points="436.87,-65.11 447.22,-67.4 440.56,-59.16 436.87,-65.11"/>
</g>
<!-- Node7&#45;&gt;Node5 -->
<g id="edge10" class="edge">
<title>Node7&#45;&gt;Node5</title>
<path fill="none" stroke="midnightblue" d="M395.55,-65.32C346.41,-54.63 282.66,-40.77 235.65,-30.55"/>
<polygon fill="midnightblue" stroke="midnightblue" points="394.97,-68.77 405.49,-67.48 396.46,-61.93 394.97,-68.77"/>
</g>
<!-- Node8 -->
<g id="node8" class="node">
<title>Node8</title>
<g id="a_node8"><a xlink:href="DataHandlers_2ModbusWithPostgres_2Modbus_8c.html" target="_top" xlink:title=" ">
<polygon fill="white" stroke="black" points="473,-0.5 473,-30.5 637,-30.5 637,-0.5 473,-0.5"/>
<text text-anchor="start" x="481" y="-18.5" font-family="Helvetica,sans-Serif" font-size="10.00">src/DataHandlers/ModbusWith</text>
<text text-anchor="middle" x="555" y="-7.5" font-family="Helvetica,sans-Serif" font-size="10.00">Postgres/Modbus.c</text>
</a>
</g>
</g>
<!-- Node7&#45;&gt;Node8 -->
<g id="edge9" class="edge">
<title>Node7&#45;&gt;Node8</title>
<path fill="none" stroke="midnightblue" d="M496.59,-61.17C509.59,-51.23 524.9,-39.51 536.59,-30.58"/>
<polygon fill="midnightblue" stroke="midnightblue" points="494.26,-58.54 488.44,-67.4 498.51,-64.1 494.26,-58.54"/>
</g>
<!-- Node9 -->
<g id="node9" class="node">
<title>Node9</title>
<g id="a_node9"><a xlink:href="DataHandlers_2ModbusWithPostgres_2Postgres_8c.html" target="_top" xlink:title=" ">
<polygon fill="white" stroke="black" points="655,-0.5 655,-30.5 819,-30.5 819,-0.5 655,-0.5"/>
<text text-anchor="start" x="663" y="-18.5" font-family="Helvetica,sans-Serif" font-size="10.00">src/DataHandlers/ModbusWith</text>
<text text-anchor="middle" x="737" y="-7.5" font-family="Helvetica,sans-Serif" font-size="10.00">Postgres/Postgres.c</text>
</a>
</g>
</g>
<!-- Node7&#45;&gt;Node9 -->
<g id="edge11" class="edge">
<title>Node7&#45;&gt;Node9</title>
<path fill="none" stroke="midnightblue" d="M537.57,-65.05C581.22,-54.43 637.42,-40.74 679.04,-30.61"/>
<polygon fill="midnightblue" stroke="midnightblue" points="536.49,-61.71 527.61,-67.48 538.15,-68.51 536.49,-61.71"/>
</g>
<!-- Node10&#45;&gt;Node2 -->
<g id="edge14" class="edge">
<title>Node10&#45;&gt;Node2</title>
<path fill="none" stroke="midnightblue" d="M724.22,-76.79C806.11,-68.75 975.42,-51.27 1118,-31 1130.3,-29.25 1143.56,-27.11 1155.86,-25.02"/>
<polygon fill="midnightblue" stroke="midnightblue" points="723.82,-73.31 714.2,-77.77 724.5,-80.28 723.82,-73.31"/>
</g>
<!-- Node10&#45;&gt;Node5 -->
<g id="edge16" class="edge">
<title>Node10&#45;&gt;Node5</title>
<path fill="none" stroke="midnightblue" d="M625.84,-74.82C607.11,-72.32 585.58,-69.48 566,-67 432.77,-50.15 399.06,-49.13 266,-31 263.27,-30.63 260.5,-30.24 257.7,-29.85"/>
<polygon fill="midnightblue" stroke="midnightblue" points="625.54,-78.32 635.92,-76.18 626.47,-71.38 625.54,-78.32"/>
</g>
<!-- Node10&#45;&gt;Node6 -->
<g id="edge19" class="edge">
<title>Node10&#45;&gt;Node6</title>
<path fill="none" stroke="midnightblue" d="M625.89,-74.34C607.17,-71.78 585.63,-69.02 566,-67 348.35,-44.56 289.32,-75.07 75,-31 68.2,-29.6 60.99,-27.39 54.5,-25.12"/>
<polygon fill="midnightblue" stroke="midnightblue" points="625.58,-77.83 635.97,-75.74 626.54,-70.9 625.58,-77.83"/>
</g>
<!-- Node10&#45;&gt;Node8 -->
<g id="edge15" class="edge">
<title>Node10&#45;&gt;Node8</title>
<path fill="none" stroke="midnightblue" d="M649.9,-67.9C629.71,-56.97 601.44,-41.65 581.01,-30.59"/>
<polygon fill="midnightblue" stroke="midnightblue" points="648.36,-71.05 658.82,-72.73 651.69,-64.89 648.36,-71.05"/>
</g>
<!-- Node10&#45;&gt;Node9 -->
<g id="edge17" class="edge">
<title>Node10&#45;&gt;Node9</title>
<path fill="none" stroke="midnightblue" d="M690.45,-65.3C700.63,-54.63 713.82,-40.8 723.56,-30.59"/>
<polygon fill="midnightblue" stroke="midnightblue" points="687.73,-63.08 683.36,-72.73 692.8,-67.91 687.73,-63.08"/>
</g>
<!-- Node11 -->
<g id="node11" class="node">
<title>Node11</title>
<g id="a_node11"><a xlink:href="ModbusTestServer_8c.html" target="_top" xlink:title="Implementation of Modbus Test Server.">
<polygon fill="white" stroke="black" points="837,-6 837,-25 1013,-25 1013,-6 837,-6"/>
<text text-anchor="middle" x="925" y="-13" font-family="Helvetica,sans-Serif" font-size="10.00">src/DevUtils/ModbusTestServer.c</text>
</a>
</g>
</g>
<!-- Node10&#45;&gt;Node11 -->
<g id="edge18" class="edge">
<title>Node10&#45;&gt;Node11</title>
<path fill="none" stroke="midnightblue" d="M717.68,-70.4C767.02,-57.58 847.17,-36.74 891.99,-25.08"/>
<polygon fill="midnightblue" stroke="midnightblue" points="716.74,-67.03 707.94,-72.94 718.5,-73.81 716.74,-67.03"/>
</g>
<!-- Node12 -->
<g id="node12" class="node">
<title>Node12</title>
<g id="a_node12"><a xlink:href="Signals_8c.html" target="_top" xlink:title="Signal handling implementation for the Sensor Data Handler System.">
<polygon fill="white" stroke="black" points="1031.5,-6 1031.5,-25 1108.5,-25 1108.5,-6 1031.5,-6"/>
<text text-anchor="middle" x="1070" y="-13" font-family="Helvetica,sans-Serif" font-size="10.00">src/Signals.c</text>
</a>
</g>
</g>
<!-- Node10&#45;&gt;Node12 -->
<g id="edge20" class="edge">
<title>Node10&#45;&gt;Node12</title>
<path fill="none" stroke="midnightblue" d="M724.47,-76.64C792.17,-69.47 917.22,-54.31 1022,-31 1029.31,-29.37 1037.12,-27.2 1044.28,-25.04"/>
<polygon fill="midnightblue" stroke="midnightblue" points="723.7,-73.21 714.11,-77.73 724.42,-80.17 723.7,-73.21"/>
</g>
</g>
</svg>
        <g id="navigator" transform="translate(0 0)" fill="#404254">
                <rect fill="#f2f5e9" fill-opacity="0.5" stroke="#606060" stroke-width=".5" x="0" y="0" width="60" height="60"/>
                <use id="zoomplus" xlink:href="#zoomPlus" x="17" y="9" onmousedown="handleZoom(evt,'in')"/>
                <use id="zoomminus" xlink:href="#zoomMin" x="42" y="9" onmousedown="handleZoom(evt,'out')"/>
                <use id="reset" xlink:href="#resetDef" x="30" y="36" onmousedown="handleReset()"/>
                <g id="arrowUp" xlink:href="#dirArrow" transform="translate(30 24)" onmousedown="handlePan(0,-1)">
                  <use xlink:href="#rim" fill="#404040">
                        <set attributeName="fill" to="#808080" begin="arrowUp.mouseover" end="arrowUp.mouseout"/>
                  </use>
                  <path fill="none" stroke="white" stroke-width="1.5" d="M0,-3.0v7 M-2.5,-0.5L0,-3.0L2.5,-0.5"/>
                </g>
                <g id="arrowRight" xlink:href="#dirArrow" transform="rotate(90) translate(36 -43)" onmousedown="handlePan(1,0)">
                  <use xlink:href="#rim" fill="#404040">
                        <set attributeName="fill" to="#808080" begin="arrowRight.mouseover" end="arrowRight.mouseout"/>
                  </use>
                  <path fill="none" stroke="white" stroke-width="1.5" d="M0,-3.0v7 M-2.5,-0.5L0,-3.0L2.5,-0.5"/>
                </g>
                <g id="arrowDown" xlink:href="#dirArrow" transform="rotate(180) translate(-30 -48)" onmousedown="handlePan(0,1)">
                  <use xlink:href="#rim" fill="#404040">
                        <set attributeName="fill" to="#808080" begin="arrowDown.mouseover" end="arrowDown.mouseout"/>
                  </use>
                  <path fill="none" stroke="white" stroke-width="1.5" d="M0,-3.0v7 M-2.5,-0.5L0,-3.0L2.5,-0.5"/>
                </g>
                <g id="arrowLeft" xlink:href="#dirArrow" transform="rotate(270) translate(-36 17)" onmousedown="handlePan(-1,0)">
                  <use xlink:href="#rim" fill="#404040">
                        <set attributeName="fill" to="#808080" begin="arrowLeft.mouseover" end="arrowLeft.mouseout"/>
                  </use>
                  <path fill="none" stroke="white" stroke-width="1.5" d="M0,-3.0v7 M-2.5,-0.5L0,-3.0L2.5,-0.5"/>
                </g>
        </g>
        <svg viewBox="0 0 15 15" width="100%" height="30px" preserveAspectRatio="xMaxYMin meet">
         <g id="arrow_out" transform="scale(0.3 0.3)">
          <a xlink:href="ThreadGroup_8h__dep__incl_org.svg" target="_base">
           <rect id="button" ry="5" rx="5" y="6" x="6" height="38" width="38"
                fill="#f2f5e9" fill-opacity="0.5" stroke="#606060" stroke-width="1.0"/>
           <path id="arrow"
             d="M 11.500037,31.436501 C 11.940474,20.09759 22.043105,11.32322 32.158766,21.979434 L 37.068811,17.246167 C 37.068811,17.246167 37.088388,32 37.088388,32 L 22.160133,31.978069 C 22.160133,31.978069 26.997745,27.140456 26.997745,27.140456 C 18.528582,18.264221 13.291696,25.230495 11.500037,31.436501 z"
             style="fill:#404040;"/>
          </a>
         </g>
        </svg>
</svg>
