<?xml version="1.0" encoding="UTF-8" standalone="no"?>
<!DOCTYPE svg PUBLIC "-//W3C//DTD SVG 1.1//EN"
 "http://www.w3.org/Graphics/SVG/1.1/DTD/svg11.dtd">
<!-- Generated by graphviz version 2.43.0 (0)
 -->
<!-- Title: TgManagerWaitForAll Pages: 1 -->
<!--zoomable 138 -->

<svg id="main" version="1.1" xmlns="http://www.w3.org/2000/svg" xmlns:xlink="http://www.w3.org/1999/xlink" xml:space="preserve" onload="init(evt)">
<style type="text/css"><![CDATA[
.node, .edge {opacity: 0.7;}
.node.selected, .edge.selected {opacity: 1;}
.edge:hover path { stroke: red; }
.edge:hover polygon { stroke: red; fill: red; }
]]></style>

<defs>
  <circle id="rim" cx="0" cy="0" r="7"/>
  <circle id="rim2" cx="0" cy="0" r="3.5"/>
  <g id="zoomPlus">
    <use xlink:href="#rim" fill="#404040"><set attributeName="fill" to="#808080" begin="zoomplus.mouseover" end="zoomplus.mouseout"/></use>
    <path d="M-4,0h8M0,-4v8" fill="none" stroke="white" stroke-width="1.5" pointer-events="none"/>
  </g>
  <g id="zoomMin">
    <use xlink:href="#rim" fill="#404040"><set attributeName="fill" to="#808080" begin="zoomminus.mouseover" end="zoomminus.mouseout"/></use>
    <path d="M-4,0h8" fill="none" stroke="white" stroke-width="1.5" pointer-events="none"/>
  </g>
  <g id="arrowUp" transform="translate(30 24)">
    <use xlink:href="#rim"/>
    <path pointer-events="none" fill="none" stroke="white" stroke-width="1.5" d="M0,-3.0v7 M-2.5,-0.5L0,-3.0L2.5,-0.5"/>
  </g>
  <g id="arrowRight" transform="rotate(90) translate(36 -43)">
    <use xlink:href="#rim"/>
    <path pointer-events="none" fill="none" stroke="white" stroke-width="1.5" d="M0,-3.0v7 M-2.5,-0.5L0,-3.0L2.5,-0.5"/>
  </g>
  <g id="arrowDown" transform="rotate(180) translate(-30 -48)">
    <use xlink:href="#rim"/>
    <path pointer-events="none" fill="none" stroke="white" stroke-width="1.5" d="M0,-3.0v7 M-2.5,-0.5L0,-3.0L2.5,-0.5"/>
  </g>
  <g id="arrowLeft" transform="rotate(270) translate(-36 17)">
    <use xlink:href="#rim"/>
    <path pointer-events="none" fill="none" stroke="white" stroke-width="1.5" d="M0,-3.0v7 M-2.5,-0.5L0,-3.0L2.5,-0.5"/>
  </g>
  <g id="resetDef">
    <use xlink:href="#rim2" fill="#404040"><set attributeName="fill" to="#808080" begin="reset.mouseover" end="reset.mouseout"/></use>
  </g>
</defs>
<script type="application/ecmascript">
var viewWidth = 684;
var viewHeight = 138;
var sectionId = 'dynsection-9';
</script>
<script type="application/ecmascript" xlink:href="svg.min.js"/>
<svg id="graph" class="graph">
<g id="viewport">
<title>TgManagerWaitForAll</title>
<!-- Node1 -->
<g id="Node000001" class="node">
<title>Node1</title>
<g id="a_Node000001"><a xlink:title="Wait for Completion of All Thread Groups.">
<polygon fill="#999999" stroke="#666666" points="121,-74 0,-74 0,-55 121,-55 121,-74"/>
<text text-anchor="middle" x="60.5" y="-62" font-family="Helvetica,sans-Serif" font-size="10.00">TgManagerWaitForAll</text>
</a>
</g>
</g>
<!-- Node2 -->
<g id="Node000002" class="node">
<title>Node2</title>
<g id="a_Node000002"><a xlink:href="Thread_8c.html#a3aa5be8c3ae6f155db4058a8b658ab91" target="_top" xlink:title="Wait on a condition variable with timeout.">
<polygon fill="white" stroke="#666666" points="255.5,-130 174.5,-130 174.5,-111 255.5,-111 255.5,-130"/>
<text text-anchor="middle" x="215" y="-118" font-family="Helvetica,sans-Serif" font-size="10.00">SdbCondWait</text>
</a>
</g>
</g>
<!-- Node1&#45;&gt;Node2 -->
<g id="edge1_Node000001_Node000002" class="edge">
<title>Node1&#45;&gt;Node2</title>
<g id="a_edge1_Node000001_Node000002"><a xlink:title=" ">
<path fill="none" stroke="#63b8ff" d="M84.09,-74.03C103.33,-82.01 131.79,-93.52 157,-102.5 161.94,-104.26 167.16,-106.03 172.35,-107.73"/>
<polygon fill="#63b8ff" stroke="#63b8ff" points="171.61,-111.17 182.21,-110.91 173.76,-104.51 171.61,-111.17"/>
</a>
</g>
</g>
<!-- Node7 -->
<g id="Node000007" class="node">
<title>Node7</title>
<g id="a_Node000007"><a xlink:href="Thread_8c.html#a5fbfdcfc990630f27e5161ec4ea18aaa" target="_top" xlink:title="Lock a mutex with timeout.">
<polygon fill="white" stroke="#666666" points="259,-93 171,-93 171,-74 259,-74 259,-93"/>
<text text-anchor="middle" x="215" y="-81" font-family="Helvetica,sans-Serif" font-size="10.00">SdbMutexLock</text>
</a>
</g>
</g>
<!-- Node1&#45;&gt;Node7 -->
<g id="edge6_Node000001_Node000007" class="edge">
<title>Node1&#45;&gt;Node7</title>
<g id="a_edge6_Node000001_Node000007"><a xlink:title=" ">
<path fill="none" stroke="#63b8ff" d="M121.33,-71.95C134.37,-73.58 148.08,-75.29 160.84,-76.88"/>
<polygon fill="#63b8ff" stroke="#63b8ff" points="160.48,-80.36 170.83,-78.12 161.34,-73.41 160.48,-80.36"/>
</a>
</g>
</g>
<!-- Node8 -->
<g id="Node000008" class="node">
<title>Node8</title>
<g id="a_Node000008"><a xlink:href="Thread_8c.html#a385a70a16dc0b1872fdf925d2121880c" target="_top" xlink:title="Unlock a mutex.">
<polygon fill="white" stroke="#666666" points="264.5,-56 165.5,-56 165.5,-37 264.5,-37 264.5,-56"/>
<text text-anchor="middle" x="215" y="-44" font-family="Helvetica,sans-Serif" font-size="10.00">SdbMutexUnlock</text>
</a>
</g>
</g>
<!-- Node1&#45;&gt;Node8 -->
<g id="edge8_Node000001_Node000008" class="edge">
<title>Node1&#45;&gt;Node8</title>
<g id="a_edge8_Node000001_Node000008"><a xlink:title=" ">
<path fill="none" stroke="#63b8ff" d="M121.33,-57.44C132.45,-56.13 144.06,-54.76 155.14,-53.45"/>
<polygon fill="#63b8ff" stroke="#63b8ff" points="155.63,-56.91 165.15,-52.27 154.81,-49.96 155.63,-56.91"/>
</a>
</g>
</g>
<!-- Node9 -->
<g id="Node000009" class="node">
<title>Node9</title>
<g id="a_Node000009"><a xlink:href="Signals_8c.html#aca8d19968aa974641e340443ba21e58e" target="_top" xlink:title="Checks if the system should initiate shutdown.">
<polygon fill="white" stroke="#666666" points="273,-19 157,-19 157,0 273,0 273,-19"/>
<text text-anchor="middle" x="215" y="-7" font-family="Helvetica,sans-Serif" font-size="10.00">SdbShouldShutdown</text>
</a>
</g>
</g>
<!-- Node1&#45;&gt;Node9 -->
<g id="edge9_Node000001_Node000009" class="edge">
<title>Node1&#45;&gt;Node9</title>
<g id="a_edge9_Node000001_Node000009"><a xlink:title=" ">
<path fill="none" stroke="#63b8ff" d="M86.14,-54.91C105.37,-47.5 132.79,-37.1 157,-28.5 162.73,-26.47 168.81,-24.37 174.77,-22.35"/>
<polygon fill="#63b8ff" stroke="#63b8ff" points="176.27,-25.54 184.64,-19.05 174.04,-18.91 176.27,-25.54"/>
</a>
</g>
</g>
<!-- Node3 -->
<g id="Node000003" class="node">
<title>Node3</title>
<g id="a_Node000003"><a xlink:href="Thread_8c.html#aa16f3f5cb899e1128f1a80c021780e5f" target="_top" xlink:title=" ">
<polygon fill="white" stroke="#666666" points="398,-111 309,-111 309,-92 398,-92 398,-111"/>
<text text-anchor="middle" x="353.5" y="-99" font-family="Helvetica,sans-Serif" font-size="10.00">CreateTimeout</text>
</a>
</g>
</g>
<!-- Node2&#45;&gt;Node3 -->
<g id="edge2_Node000002_Node000003" class="edge">
<title>Node2&#45;&gt;Node3</title>
<g id="a_edge2_Node000002_Node000003"><a xlink:title=" ">
<path fill="none" stroke="#63b8ff" d="M255.85,-114.95C269.15,-113.1 284.19,-111.01 298.39,-109.03"/>
<polygon fill="#63b8ff" stroke="#63b8ff" points="299.12,-112.46 308.54,-107.62 298.15,-105.53 299.12,-112.46"/>
</a>
</g>
</g>
<!-- Node4 -->
<g id="Node000004" class="node">
<title>Node4</title>
<g id="a_Node000004"><a xlink:href="Time_8c.html#afad180732be23f8e46bdfc2bb349ff44" target="_top" xlink:title="Create Absolute Timeout Timestamp.">
<polygon fill="white" stroke="#666666" points="559,-111 434,-111 434,-92 559,-92 559,-111"/>
<text text-anchor="middle" x="496.5" y="-99" font-family="Helvetica,sans-Serif" font-size="10.00">SdbTimespecAbsolute</text>
</a>
</g>
</g>
<!-- Node3&#45;&gt;Node4 -->
<g id="edge3_Node000003_Node000004" class="edge">
<title>Node3&#45;&gt;Node4</title>
<g id="a_edge3_Node000003_Node000004"><a xlink:title=" ">
<path fill="none" stroke="#63b8ff" d="M398.34,-101.5C406.42,-101.5 415.04,-101.5 423.69,-101.5"/>
<polygon fill="#63b8ff" stroke="#63b8ff" points="423.83,-105 433.83,-101.5 423.83,-98 423.83,-105"/>
</a>
</g>
</g>
<!-- Node5 -->
<g id="Node000005" class="node">
<title>Node5</title>
<g id="a_Node000005"><a xlink:href="Time_8c.html#af8be68d54def6b644cac5efb8fe2e605" target="_top" xlink:title="Add Time Difference to Timestamp.">
<polygon fill="white" stroke="#666666" points="674.5,-130 596.5,-130 596.5,-111 674.5,-111 674.5,-130"/>
<text text-anchor="middle" x="635.5" y="-118" font-family="Helvetica,sans-Serif" font-size="10.00">SdbTimeAdd</text>
</a>
</g>
</g>
<!-- Node4&#45;&gt;Node5 -->
<g id="edge4_Node000004_Node000005" class="edge">
<title>Node4&#45;&gt;Node5</title>
<g id="a_edge4_Node000004_Node000005"><a xlink:title=" ">
<path fill="none" stroke="#63b8ff" d="M559.19,-110.06C568.27,-111.32 577.52,-112.6 586.28,-113.81"/>
<polygon fill="#63b8ff" stroke="#63b8ff" points="585.92,-117.3 596.31,-115.2 586.88,-110.36 585.92,-117.3"/>
</a>
</g>
</g>
<!-- Node6 -->
<g id="Node000006" class="node">
<title>Node6</title>
<g id="a_Node000006"><a xlink:href="Time_8c.html#a83d0c194706101b50506d2618e27167c" target="_top" xlink:title="Get Current Real&#45;Time Timestamp.">
<polygon fill="white" stroke="#666666" points="676,-93 595,-93 595,-74 676,-74 676,-93"/>
<text text-anchor="middle" x="635.5" y="-81" font-family="Helvetica,sans-Serif" font-size="10.00">SdbTimeNow</text>
</a>
</g>
</g>
<!-- Node4&#45;&gt;Node6 -->
<g id="edge5_Node000004_Node000006" class="edge">
<title>Node4&#45;&gt;Node6</title>
<g id="a_edge5_Node000004_Node000006"><a xlink:title=" ">
<path fill="none" stroke="#63b8ff" d="M559.19,-93.4C567.77,-92.27 576.5,-91.12 584.82,-90.03"/>
<polygon fill="#63b8ff" stroke="#63b8ff" points="585.28,-93.5 594.74,-88.72 584.37,-86.56 585.28,-93.5"/>
</a>
</g>
</g>
<!-- Node7&#45;&gt;Node3 -->
<g id="edge7_Node000007_Node000003" class="edge">
<title>Node7&#45;&gt;Node3</title>
<g id="a_edge7_Node000007_Node000003"><a xlink:title=" ">
<path fill="none" stroke="#63b8ff" d="M259.19,-89.2C271.64,-90.84 285.38,-92.65 298.4,-94.37"/>
<polygon fill="#63b8ff" stroke="#63b8ff" points="298.28,-97.88 308.65,-95.72 299.2,-90.94 298.28,-97.88"/>
</a>
</g>
</g>
</g>
</svg>

<g id="navigator" transform="translate(0 0)" fill="#404254">
  <rect fill="#f2f5e9" fill-opacity="0.5" stroke="#606060" stroke-width=".5" x="0" y="0" width="60" height="60"/>
  <use id="zoomplus" xlink:href="#zoomPlus" x="17" y="9" onmousedown="handleZoom(evt,'in')"/>
  <use id="zoomminus" xlink:href="#zoomMin" x="42" y="9" onmousedown="handleZoom(evt,'out')"/>
  <use id="reset" xlink:href="#resetDef" x="30" y="36" onmousedown="handleReset()"/>
   <use id="arrowup" xlink:href="#arrowUp" x="0" y="0" onmousedown="handlePan(0,-1)"/>
  <use id="arrowright" xlink:href="#arrowRight" x="0" y="0" onmousedown="handlePan(1,0)"/>
  <use id="arrowdown" xlink:href="#arrowDown" x="0" y="0" onmousedown="handlePan(0,1)"/>
  <use id="arrowleft" xlink:href="#arrowLeft" x="0" y="0" onmousedown="handlePan(-1,0)"/>
</g>
<svg viewBox="0 0 15 15" width="100%" height="30px" preserveAspectRatio="xMaxYMin meet">
 <g id="arrow_out" transform="scale(0.3 0.3)">
  <a xlink:href="ThreadGroup_8h_a94f41b6eed9ab8ff08d3921b617a87dd_cgraph_org.svg" target="_base">
   <rect id="button" ry="5" rx="5" y="6" x="6" height="38" width="38"
        fill="#f2f5e9" fill-opacity="0.5" stroke="#606060" stroke-width="1.0"/>
   <path id="arrow"
     d="M 11.500037,31.436501 C 11.940474,20.09759 22.043105,11.32322 32.158766,21.979434 L 37.068811,17.246167 C 37.068811,17.246167 37.088388,32 37.088388,32 L 22.160133,31.978069 C 22.160133,31.978069 26.997745,27.140456 26.997745,27.140456 C 18.528582,18.264221 13.291696,25.230495 11.500037,31.436501 z"
     style="fill:#404040;"/>
  </a>
 </g>
</svg>

<style type='text/css'>
<![CDATA[
[data-mouse-over-selected='false'] { opacity: 0.7; }
[data-mouse-over-selected='true']  { opacity: 1.0; }
]]>
</style>
<script type="application/ecmascript"><![CDATA[
document.addEventListener('DOMContentLoaded', (event) => {
  highlightEdges();
  highlightAdjacentNodes();
});
]]></script>
</svg>
