<?xml version="1.0" encoding="UTF-8" standalone="no"?>
<!DOCTYPE svg PUBLIC "-//W3C//DTD SVG 1.1//EN"
 "http://www.w3.org/Graphics/SVG/1.1/DTD/svg11.dtd">
<!-- Generated by graphviz version 2.43.0 (0)
 -->
<!-- Title: TgCreateGroup Pages: 1 -->
<svg width="544pt" height="28pt"
 viewBox="0.00 0.00 544.00 28.00" xmlns="http://www.w3.org/2000/svg" xmlns:xlink="http://www.w3.org/1999/xlink">
<g id="graph0" class="graph" transform="scale(1 1) rotate(0) translate(4 24)">
<title>TgCreateGroup</title>
<polygon fill="white" stroke="transparent" points="-4,4 -4,-24 540,-24 540,4 -4,4"/>
<!-- Node1 -->
<g id="node1" class="node">
<title>Node1</title>
<g id="a_node1"><a xlink:title="Create a Thread Group.">
<polygon fill="#bfbfbf" stroke="black" points="446,-0.5 446,-19.5 536,-19.5 536,-0.5 446,-0.5"/>
<text text-anchor="middle" x="491" y="-7.5" font-family="Helvetica,sans-Serif" font-size="10.00">TgCreateGroup</text>
</a>
</g>
</g>
<!-- Node2 -->
<g id="node2" class="node">
<title>Node2</title>
<g id="a_node2"><a xlink:href="ModbusWithPostgres_8c.html#a09939d6694d5620261fa04ffa2af1d11" target="_top" xlink:title="Creates thread group from configuration.">
<polygon fill="white" stroke="black" points="322,-0.5 322,-19.5 410,-19.5 410,-0.5 322,-0.5"/>
<text text-anchor="middle" x="366" y="-7.5" font-family="Helvetica,sans-Serif" font-size="10.00">MbPgCreateTg</text>
</a>
</g>
</g>
<!-- Node1&#45;&gt;Node2 -->
<g id="edge1" class="edge">
<title>Node1&#45;&gt;Node2</title>
<path fill="none" stroke="midnightblue" d="M435.72,-10C427.22,-10 418.54,-10 410.34,-10"/>
<polygon fill="midnightblue" stroke="midnightblue" points="435.94,-13.5 445.94,-10 435.94,-6.5 435.94,-13.5"/>
</g>
<!-- Node3 -->
<g id="node3" class="node">
<title>Node3</title>
<g id="a_node3"><a xlink:href="DataHandlers_8c.html#a9f7c5ff5d0edf87feed0ab9a70ddfcd4" target="_top" xlink:title="Creates a thread group based on configuration.">
<polygon fill="white" stroke="black" points="206,-0.5 206,-19.5 286,-19.5 286,-0.5 206,-0.5"/>
<text text-anchor="middle" x="246" y="-7.5" font-family="Helvetica,sans-Serif" font-size="10.00">DhsCreateTg</text>
</a>
</g>
</g>
<!-- Node2&#45;&gt;Node3 -->
<g id="edge2" class="edge">
<title>Node2&#45;&gt;Node3</title>
<path fill="none" stroke="midnightblue" d="M311.52,-10C303.05,-10 294.42,-10 286.35,-10"/>
<polygon fill="midnightblue" stroke="midnightblue" points="311.73,-13.5 321.73,-10 311.73,-6.5 311.73,-13.5"/>
</g>
<!-- Node4 -->
<g id="node4" class="node">
<title>Node4</title>
<g id="a_node4"><a xlink:href="Main_8c.html#aeeb5ef67af0eb14822aa17b0dc6f1be7" target="_top" xlink:title="Sets up the thread group manager from a configuration file.">
<polygon fill="white" stroke="black" points="77,-0.5 77,-19.5 170,-19.5 170,-0.5 77,-0.5"/>
<text text-anchor="middle" x="123.5" y="-7.5" font-family="Helvetica,sans-Serif" font-size="10.00">SetUpFromConf</text>
</a>
</g>
</g>
<!-- Node3&#45;&gt;Node4 -->
<g id="edge3" class="edge">
<title>Node3&#45;&gt;Node4</title>
<path fill="none" stroke="midnightblue" d="M195.74,-10C187.27,-10 178.5,-10 170.13,-10"/>
<polygon fill="midnightblue" stroke="midnightblue" points="195.88,-13.5 205.88,-10 195.88,-6.5 195.88,-13.5"/>
</g>
<!-- Node5 -->
<g id="node5" class="node">
<title>Node5</title>
<g id="a_node5"><a xlink:href="Main_8c.html#ae21eb8342793f7f8f0d5fda6b96c0803" target="_top" xlink:title="Main entry point for the Sensor Data Handler System.">
<polygon fill="white" stroke="black" points="0,-0.5 0,-19.5 41,-19.5 41,-0.5 0,-0.5"/>
<text text-anchor="middle" x="20.5" y="-7.5" font-family="Helvetica,sans-Serif" font-size="10.00">main</text>
</a>
</g>
</g>
<!-- Node4&#45;&gt;Node5 -->
<g id="edge4" class="edge">
<title>Node4&#45;&gt;Node5</title>
<path fill="none" stroke="midnightblue" d="M66.72,-10C57.53,-10 48.58,-10 41.09,-10"/>
<polygon fill="midnightblue" stroke="midnightblue" points="66.73,-13.5 76.73,-10 66.73,-6.5 66.73,-13.5"/>
</g>
</g>
</svg>
