<?xml version="1.0" encoding="UTF-8" standalone="no"?>
<!DOCTYPE svg PUBLIC "-//W3C//DTD SVG 1.1//EN"
 "http://www.w3.org/Graphics/SVG/1.1/DTD/svg11.dtd">
<!-- Generated by graphviz version 2.43.0 (0)
 -->
<!-- Title: TgManagerStartAll Pages: 1 -->
<svg width="872pt" height="120pt"
 viewBox="0.00 0.00 872.00 120.00" xmlns="http://www.w3.org/2000/svg" xmlns:xlink="http://www.w3.org/1999/xlink">
<g id="graph0" class="graph" transform="scale(1 1) rotate(0) translate(4 116)">
<title>TgManagerStartAll</title>
<!-- Node1 -->
<g id="Node000001" class="node">
<title>Node1</title>
<g id="a_Node000001"><a xlink:title="Start All Thread Groups in Manager.">
<polygon fill="#999999" stroke="#666666" points="107,-56 0,-56 0,-37 107,-37 107,-56"/>
<text text-anchor="middle" x="53.5" y="-44" font-family="Helvetica,sans-Serif" font-size="10.00">TgManagerStartAll</text>
</a>
</g>
</g>
<!-- Node2 -->
<g id="Node000002" class="node">
<title>Node2</title>
<g id="a_Node000002"><a xlink:href="Thread_8c.html#a5fbfdcfc990630f27e5161ec4ea18aaa" target="_top" xlink:title="Lock a mutex with timeout.">
<polygon fill="white" stroke="#666666" points="455.5,-93 367.5,-93 367.5,-74 455.5,-74 455.5,-93"/>
<text text-anchor="middle" x="411.5" y="-81" font-family="Helvetica,sans-Serif" font-size="10.00">SdbMutexLock</text>
</a>
</g>
</g>
<!-- Node1&#45;&gt;Node2 -->
<g id="edge1_Node000001_Node000002" class="edge">
<title>Node1&#45;&gt;Node2</title>
<g id="a_edge1_Node000001_Node000002"><a xlink:title=" ">
<path fill="none" stroke="#63b8ff" d="M93.06,-56.04C108.5,-59.53 126.5,-63.19 143,-65.5 216.83,-75.85 303,-80.3 357.15,-82.17"/>
<polygon fill="#63b8ff" stroke="#63b8ff" points="357.11,-85.67 367.22,-82.51 357.34,-78.68 357.11,-85.67"/>
</a>
</g>
</g>
<!-- Node7 -->
<g id="Node000007" class="node">
<title>Node7</title>
<g id="a_Node000007"><a xlink:href="Thread_8c.html#a385a70a16dc0b1872fdf925d2121880c" target="_top" xlink:title="Unlock a mutex.">
<polygon fill="white" stroke="#666666" points="461,-19 362,-19 362,0 461,0 461,-19"/>
<text text-anchor="middle" x="411.5" y="-7" font-family="Helvetica,sans-Serif" font-size="10.00">SdbMutexUnlock</text>
</a>
</g>
</g>
<!-- Node1&#45;&gt;Node7 -->
<g id="edge6_Node000001_Node000007" class="edge">
<title>Node1&#45;&gt;Node7</title>
<g id="a_edge6_Node000001_Node000007"><a xlink:title=" ">
<path fill="none" stroke="#63b8ff" d="M95.73,-36.96C110.56,-33.83 127.47,-30.62 143,-28.5 214.51,-18.73 297.49,-13.83 351.84,-11.48"/>
<polygon fill="#63b8ff" stroke="#63b8ff" points="352.14,-14.97 361.98,-11.05 351.84,-7.97 352.14,-14.97"/>
</a>
</g>
</g>
<!-- Node8 -->
<g id="Node000008" class="node">
<title>Node8</title>
<g id="a_Node000008"><a xlink:href="ThreadGroup_8c.html#aaf638572d1f947f2ab3b6637d11029fd" target="_top" xlink:title="Start All Threads in a Thread Group.">
<polygon fill="white" stroke="#666666" points="224,-56 143,-56 143,-37 224,-37 224,-56"/>
<text text-anchor="middle" x="183.5" y="-44" font-family="Helvetica,sans-Serif" font-size="10.00">TgStartGroup</text>
</a>
</g>
</g>
<!-- Node1&#45;&gt;Node8 -->
<g id="edge7_Node000001_Node000008" class="edge">
<title>Node1&#45;&gt;Node8</title>
<g id="a_edge7_Node000001_Node000008"><a xlink:title=" ">
<path fill="none" stroke="#63b8ff" d="M107.3,-46.5C115.63,-46.5 124.22,-46.5 132.48,-46.5"/>
<polygon fill="#63b8ff" stroke="#63b8ff" points="132.73,-50 142.73,-46.5 132.73,-43 132.73,-50"/>
</a>
</g>
</g>
<!-- Node3 -->
<g id="Node000003" class="node">
<title>Node3</title>
<g id="a_Node000003"><a xlink:href="Thread_8c.html#aa16f3f5cb899e1128f1a80c021780e5f" target="_top" xlink:title=" ">
<polygon fill="white" stroke="#666666" points="586,-93 497,-93 497,-74 586,-74 586,-93"/>
<text text-anchor="middle" x="541.5" y="-81" font-family="Helvetica,sans-Serif" font-size="10.00">CreateTimeout</text>
</a>
</g>
</g>
<!-- Node2&#45;&gt;Node3 -->
<g id="edge2_Node000002_Node000003" class="edge">
<title>Node2&#45;&gt;Node3</title>
<g id="a_edge2_Node000002_Node000003"><a xlink:title=" ">
<path fill="none" stroke="#63b8ff" d="M455.83,-83.5C465.73,-83.5 476.37,-83.5 486.65,-83.5"/>
<polygon fill="#63b8ff" stroke="#63b8ff" points="486.77,-87 496.77,-83.5 486.77,-80 486.77,-87"/>
</a>
</g>
</g>
<!-- Node4 -->
<g id="Node000004" class="node">
<title>Node4</title>
<g id="a_Node000004"><a xlink:href="Time_8c.html#afad180732be23f8e46bdfc2bb349ff44" target="_top" xlink:title="Create Absolute Timeout Timestamp.">
<polygon fill="white" stroke="#666666" points="747,-93 622,-93 622,-74 747,-74 747,-93"/>
<text text-anchor="middle" x="684.5" y="-81" font-family="Helvetica,sans-Serif" font-size="10.00">SdbTimespecAbsolute</text>
</a>
</g>
</g>
<!-- Node3&#45;&gt;Node4 -->
<g id="edge3_Node000003_Node000004" class="edge">
<title>Node3&#45;&gt;Node4</title>
<g id="a_edge3_Node000003_Node000004"><a xlink:title=" ">
<path fill="none" stroke="#63b8ff" d="M586.34,-83.5C594.42,-83.5 603.04,-83.5 611.69,-83.5"/>
<polygon fill="#63b8ff" stroke="#63b8ff" points="611.83,-87 621.83,-83.5 611.83,-80 611.83,-87"/>
</a>
</g>
</g>
<!-- Node5 -->
<g id="Node000005" class="node">
<title>Node5</title>
<g id="a_Node000005"><a xlink:href="Time_8c.html#af8be68d54def6b644cac5efb8fe2e605" target="_top" xlink:title="Add Time Difference to Timestamp.">
<polygon fill="white" stroke="#666666" points="862.5,-112 784.5,-112 784.5,-93 862.5,-93 862.5,-112"/>
<text text-anchor="middle" x="823.5" y="-100" font-family="Helvetica,sans-Serif" font-size="10.00">SdbTimeAdd</text>
</a>
</g>
</g>
<!-- Node4&#45;&gt;Node5 -->
<g id="edge4_Node000004_Node000005" class="edge">
<title>Node4&#45;&gt;Node5</title>
<g id="a_edge4_Node000004_Node000005"><a xlink:title=" ">
<path fill="none" stroke="#63b8ff" d="M747.19,-92.06C756.27,-93.32 765.52,-94.6 774.28,-95.81"/>
<polygon fill="#63b8ff" stroke="#63b8ff" points="773.92,-99.3 784.31,-97.2 774.88,-92.36 773.92,-99.3"/>
</a>
</g>
</g>
<!-- Node6 -->
<g id="Node000006" class="node">
<title>Node6</title>
<g id="a_Node000006"><a xlink:href="Time_8c.html#a83d0c194706101b50506d2618e27167c" target="_top" xlink:title="Get Current Real&#45;Time Timestamp.">
<polygon fill="white" stroke="#666666" points="864,-75 783,-75 783,-56 864,-56 864,-75"/>
<text text-anchor="middle" x="823.5" y="-63" font-family="Helvetica,sans-Serif" font-size="10.00">SdbTimeNow</text>
</a>
</g>
</g>
<!-- Node4&#45;&gt;Node6 -->
<g id="edge5_Node000004_Node000006" class="edge">
<title>Node4&#45;&gt;Node6</title>
<g id="a_edge5_Node000004_Node000006"><a xlink:title=" ">
<path fill="none" stroke="#63b8ff" d="M747.19,-75.4C755.77,-74.27 764.5,-73.12 772.82,-72.03"/>
<polygon fill="#63b8ff" stroke="#63b8ff" points="773.28,-75.5 782.74,-70.72 772.37,-68.56 773.28,-75.5"/>
</a>
</g>
</g>
<!-- Node9 -->
<g id="Node000009" class="node">
<title>Node9</title>
<g id="a_Node000009"><a xlink:href="ThreadGroup_8c.html#aab12be916ed17f20adc66a71e0a715c3" target="_top" xlink:title=" ">
<polygon fill="white" stroke="#666666" points="326,-56 260,-56 260,-37 326,-37 326,-56"/>
<text text-anchor="middle" x="293" y="-44" font-family="Helvetica,sans-Serif" font-size="10.00">TgMonitor</text>
</a>
</g>
</g>
<!-- Node8&#45;&gt;Node9 -->
<g id="edge8_Node000008_Node000009" class="edge">
<title>Node8&#45;&gt;Node9</title>
<g id="a_edge8_Node000008_Node000009"><a xlink:title=" ">
<path fill="none" stroke="#63b8ff" d="M224.22,-46.5C232.56,-46.5 241.38,-46.5 249.8,-46.5"/>
<polygon fill="#63b8ff" stroke="#63b8ff" points="249.81,-50 259.81,-46.5 249.81,-43 249.81,-50"/>
</a>
</g>
</g>
<!-- Node9&#45;&gt;Node2 -->
<g id="edge10_Node000009_Node000002" class="edge">
<title>Node9&#45;&gt;Node2</title>
<g id="a_edge10_Node000009_Node000002"><a xlink:title=" ">
<path fill="none" stroke="#63b8ff" d="M324,-56.03C338.16,-60.52 355.25,-65.95 370.5,-70.8"/>
<polygon fill="#63b8ff" stroke="#63b8ff" points="369.6,-74.18 380.2,-73.88 371.72,-67.51 369.6,-74.18"/>
</a>
</g>
</g>
<!-- Node9&#45;&gt;Node7 -->
<g id="edge11_Node000009_Node000007" class="edge">
<title>Node9&#45;&gt;Node7</title>
<g id="a_edge11_Node000009_Node000007"><a xlink:title=" ">
<path fill="none" stroke="#63b8ff" d="M324,-36.97C338.16,-32.48 355.25,-27.05 370.5,-22.2"/>
<polygon fill="#63b8ff" stroke="#63b8ff" points="371.72,-25.49 380.2,-19.12 369.6,-18.82 371.72,-25.49"/>
</a>
</g>
</g>
<!-- Node10 -->
<g id="Node000010" class="node">
<title>Node10</title>
<g id="a_Node000010"><a xlink:href="Thread_8c.html#a6e1a34c43565fd0fe32ce19bd63680c8" target="_top" xlink:title="Signal a condition variable.">
<polygon fill="white" stroke="#666666" points="456,-56 367,-56 367,-37 456,-37 456,-56"/>
<text text-anchor="middle" x="411.5" y="-44" font-family="Helvetica,sans-Serif" font-size="10.00">SdbCondSignal</text>
</a>
</g>
</g>
<!-- Node9&#45;&gt;Node10 -->
<g id="edge9_Node000009_Node000010" class="edge">
<title>Node9&#45;&gt;Node10</title>
<g id="a_edge9_Node000009_Node000010"><a xlink:title=" ">
<path fill="none" stroke="#63b8ff" d="M326.14,-46.5C335.54,-46.5 346.08,-46.5 356.44,-46.5"/>
<polygon fill="#63b8ff" stroke="#63b8ff" points="356.69,-50 366.69,-46.5 356.69,-43 356.69,-50"/>
</a>
</g>
</g>
</g>
</svg>
