<?xml version="1.0" encoding="UTF-8" standalone="no"?>
<!DOCTYPE svg PUBLIC "-//W3C//DTD SVG 1.1//EN"
 "http://www.w3.org/Graphics/SVG/1.1/DTD/svg11.dtd">
<!-- Generated by graphviz version 2.43.0 (0)
 -->
<!-- Title: SdbTCtlDeinit Pages: 1 -->
<svg width="222pt" height="66pt"
 viewBox="0.00 0.00 222.00 66.00" xmlns="http://www.w3.org/2000/svg" xmlns:xlink="http://www.w3.org/1999/xlink">
<g id="graph0" class="graph" transform="scale(1 1) rotate(0) translate(4 62)">
<title>SdbTCtlDeinit</title>
<polygon fill="white" stroke="transparent" points="-4,4 -4,-62 218,-62 218,4 -4,4"/>
<!-- Node1 -->
<g id="node1" class="node">
<title>Node1</title>
<g id="a_node1"><a xlink:title=" ">
<polygon fill="#bfbfbf" stroke="black" points="0,-19.5 0,-38.5 83,-38.5 83,-19.5 0,-19.5"/>
<text text-anchor="middle" x="41.5" y="-26.5" font-family="Helvetica,sans-Serif" font-size="10.00">SdbTCtlDeinit</text>
</a>
</g>
</g>
<!-- Node2 -->
<g id="node2" class="node">
<title>Node2</title>
<g id="a_node2"><a xlink:href="Thread_8c.html#a71e7bd19552cd07be6b35acfe1440951" target="_top" xlink:title="Deinitialize a condition variable.">
<polygon fill="white" stroke="black" points="122,-38.5 122,-57.5 211,-57.5 211,-38.5 122,-38.5"/>
<text text-anchor="middle" x="166.5" y="-45.5" font-family="Helvetica,sans-Serif" font-size="10.00">SdbCondDeinit</text>
</a>
</g>
</g>
<!-- Node1&#45;&gt;Node2 -->
<g id="edge1" class="edge">
<title>Node1&#45;&gt;Node2</title>
<path fill="none" stroke="midnightblue" d="M83.12,-35.27C92.36,-36.7 102.32,-38.24 112.01,-39.74"/>
<polygon fill="midnightblue" stroke="midnightblue" points="111.55,-43.21 121.97,-41.28 112.62,-36.29 111.55,-43.21"/>
</g>
<!-- Node3 -->
<g id="node3" class="node">
<title>Node3</title>
<g id="a_node3"><a xlink:href="Thread_8c.html#ad3843b7e6d392c9fbae73a55927ac248" target="_top" xlink:title="Deinitialize a mutex.">
<polygon fill="white" stroke="black" points="119,-0.5 119,-19.5 214,-19.5 214,-0.5 119,-0.5"/>
<text text-anchor="middle" x="166.5" y="-7.5" font-family="Helvetica,sans-Serif" font-size="10.00">SdbMutexDeinit</text>
</a>
</g>
</g>
<!-- Node1&#45;&gt;Node3 -->
<g id="edge2" class="edge">
<title>Node1&#45;&gt;Node3</title>
<path fill="none" stroke="midnightblue" d="M83.12,-22.73C91.36,-21.45 100.18,-20.09 108.87,-18.75"/>
<polygon fill="midnightblue" stroke="midnightblue" points="109.61,-22.17 118.96,-17.19 108.55,-15.26 109.61,-22.17"/>
</g>
</g>
</svg>
