<?xml version="1.0" encoding="UTF-8" standalone="no"?>
<!DOCTYPE svg PUBLIC "-//W3C//DTD SVG 1.1//EN"
 "http://www.w3.org/Graphics/SVG/1.1/DTD/svg11.dtd">
<!-- Generated by graphviz version 2.43.0 (0)
 -->
<!-- Title: SdbTCtlShouldStop Pages: 1 -->
<svg width="654pt" height="83pt"
 viewBox="0.00 0.00 654.00 83.00" xmlns="http://www.w3.org/2000/svg" xmlns:xlink="http://www.w3.org/1999/xlink">
<g id="graph0" class="graph" transform="scale(1 1) rotate(0) translate(4 79)">
<title>SdbTCtlShouldStop</title>
<!-- Node1 -->
<g id="Node000001" class="node">
<title>Node1</title>
<g id="a_Node000001"><a xlink:title=" ">
<polygon fill="#999999" stroke="#666666" points="108,-37 0,-37 0,-18 108,-18 108,-37"/>
<text text-anchor="middle" x="54" y="-25" font-family="Helvetica,sans-Serif" font-size="10.00">SdbTCtlShouldStop</text>
</a>
</g>
</g>
<!-- Node2 -->
<g id="Node000002" class="node">
<title>Node2</title>
<g id="a_Node000002"><a xlink:href="Thread_8c.html#a5fbfdcfc990630f27e5161ec4ea18aaa" target="_top" xlink:title="Lock a mutex with timeout.">
<polygon fill="white" stroke="#666666" points="237.5,-56 149.5,-56 149.5,-37 237.5,-37 237.5,-56"/>
<text text-anchor="middle" x="193.5" y="-44" font-family="Helvetica,sans-Serif" font-size="10.00">SdbMutexLock</text>
</a>
</g>
</g>
<!-- Node1&#45;&gt;Node2 -->
<g id="edge1_Node000001_Node000002" class="edge">
<title>Node1&#45;&gt;Node2</title>
<g id="a_edge1_Node000001_Node000002"><a xlink:title=" ">
<path fill="none" stroke="#63b8ff" d="M108.16,-34.85C118.36,-36.26 129.05,-37.73 139.25,-39.14"/>
<polygon fill="#63b8ff" stroke="#63b8ff" points="138.88,-42.62 149.26,-40.53 139.84,-35.69 138.88,-42.62"/>
</a>
</g>
</g>
<!-- Node7 -->
<g id="Node000007" class="node">
<title>Node7</title>
<g id="a_Node000007"><a xlink:href="Thread_8c.html#a385a70a16dc0b1872fdf925d2121880c" target="_top" xlink:title="Unlock a mutex.">
<polygon fill="white" stroke="#666666" points="243,-19 144,-19 144,0 243,0 243,-19"/>
<text text-anchor="middle" x="193.5" y="-7" font-family="Helvetica,sans-Serif" font-size="10.00">SdbMutexUnlock</text>
</a>
</g>
</g>
<!-- Node1&#45;&gt;Node7 -->
<g id="edge6_Node000001_Node000007" class="edge">
<title>Node1&#45;&gt;Node7</title>
<g id="a_edge6_Node000001_Node000007"><a xlink:title=" ">
<path fill="none" stroke="#63b8ff" d="M108.16,-20.54C116.63,-19.43 125.44,-18.28 134.03,-17.15"/>
<polygon fill="#63b8ff" stroke="#63b8ff" points="134.52,-20.62 143.98,-15.85 133.61,-13.68 134.52,-20.62"/>
</a>
</g>
</g>
<!-- Node3 -->
<g id="Node000003" class="node">
<title>Node3</title>
<g id="a_Node000003"><a xlink:href="Thread_8c.html#aa16f3f5cb899e1128f1a80c021780e5f" target="_top" xlink:title=" ">
<polygon fill="white" stroke="#666666" points="368,-56 279,-56 279,-37 368,-37 368,-56"/>
<text text-anchor="middle" x="323.5" y="-44" font-family="Helvetica,sans-Serif" font-size="10.00">CreateTimeout</text>
</a>
</g>
</g>
<!-- Node2&#45;&gt;Node3 -->
<g id="edge2_Node000002_Node000003" class="edge">
<title>Node2&#45;&gt;Node3</title>
<g id="a_edge2_Node000002_Node000003"><a xlink:title=" ">
<path fill="none" stroke="#63b8ff" d="M237.83,-46.5C247.73,-46.5 258.37,-46.5 268.65,-46.5"/>
<polygon fill="#63b8ff" stroke="#63b8ff" points="268.77,-50 278.77,-46.5 268.77,-43 268.77,-50"/>
</a>
</g>
</g>
<!-- Node4 -->
<g id="Node000004" class="node">
<title>Node4</title>
<g id="a_Node000004"><a xlink:href="Time_8c.html#afad180732be23f8e46bdfc2bb349ff44" target="_top" xlink:title="Create Absolute Timeout Timestamp.">
<polygon fill="white" stroke="#666666" points="529,-56 404,-56 404,-37 529,-37 529,-56"/>
<text text-anchor="middle" x="466.5" y="-44" font-family="Helvetica,sans-Serif" font-size="10.00">SdbTimespecAbsolute</text>
</a>
</g>
</g>
<!-- Node3&#45;&gt;Node4 -->
<g id="edge3_Node000003_Node000004" class="edge">
<title>Node3&#45;&gt;Node4</title>
<g id="a_edge3_Node000003_Node000004"><a xlink:title=" ">
<path fill="none" stroke="#63b8ff" d="M368.34,-46.5C376.42,-46.5 385.04,-46.5 393.69,-46.5"/>
<polygon fill="#63b8ff" stroke="#63b8ff" points="393.83,-50 403.83,-46.5 393.83,-43 393.83,-50"/>
</a>
</g>
</g>
<!-- Node5 -->
<g id="Node000005" class="node">
<title>Node5</title>
<g id="a_Node000005"><a xlink:href="Time_8c.html#af8be68d54def6b644cac5efb8fe2e605" target="_top" xlink:title="Add Time Difference to Timestamp.">
<polygon fill="white" stroke="#666666" points="644.5,-75 566.5,-75 566.5,-56 644.5,-56 644.5,-75"/>
<text text-anchor="middle" x="605.5" y="-63" font-family="Helvetica,sans-Serif" font-size="10.00">SdbTimeAdd</text>
</a>
</g>
</g>
<!-- Node4&#45;&gt;Node5 -->
<g id="edge4_Node000004_Node000005" class="edge">
<title>Node4&#45;&gt;Node5</title>
<g id="a_edge4_Node000004_Node000005"><a xlink:title=" ">
<path fill="none" stroke="#63b8ff" d="M529.19,-55.06C538.27,-56.32 547.52,-57.6 556.28,-58.81"/>
<polygon fill="#63b8ff" stroke="#63b8ff" points="555.92,-62.3 566.31,-60.2 556.88,-55.36 555.92,-62.3"/>
</a>
</g>
</g>
<!-- Node6 -->
<g id="Node000006" class="node">
<title>Node6</title>
<g id="a_Node000006"><a xlink:href="Time_8c.html#a83d0c194706101b50506d2618e27167c" target="_top" xlink:title="Get Current Real&#45;Time Timestamp.">
<polygon fill="white" stroke="#666666" points="646,-38 565,-38 565,-19 646,-19 646,-38"/>
<text text-anchor="middle" x="605.5" y="-26" font-family="Helvetica,sans-Serif" font-size="10.00">SdbTimeNow</text>
</a>
</g>
</g>
<!-- Node4&#45;&gt;Node6 -->
<g id="edge5_Node000004_Node000006" class="edge">
<title>Node4&#45;&gt;Node6</title>
<g id="a_edge5_Node000004_Node000006"><a xlink:title=" ">
<path fill="none" stroke="#63b8ff" d="M529.19,-38.4C537.77,-37.27 546.5,-36.12 554.82,-35.03"/>
<polygon fill="#63b8ff" stroke="#63b8ff" points="555.28,-38.5 564.74,-33.72 554.37,-31.56 555.28,-38.5"/>
</a>
</g>
</g>
</g>
</svg>
