<?xml version="1.0" encoding="UTF-8" standalone="no"?>
<!DOCTYPE svg PUBLIC "-//W3C//DTD SVG 1.1//EN"
 "http://www.w3.org/Graphics/SVG/1.1/DTD/svg11.dtd">
<!-- Generated by graphviz version 2.43.0 (0)
 -->
<!-- Title: SdbTCtlWaitForStop Pages: 1 -->
<svg width="705pt" height="142pt"
 viewBox="0.00 0.00 705.00 142.00" xmlns="http://www.w3.org/2000/svg" xmlns:xlink="http://www.w3.org/1999/xlink">
<g id="graph0" class="graph" transform="scale(1 1) rotate(0) translate(4 138)">
<title>SdbTCtlWaitForStop</title>
<polygon fill="white" stroke="transparent" points="-4,4 -4,-138 701,-138 701,4 -4,4"/>
<!-- Node1 -->
<g id="node1" class="node">
<title>Node1</title>
<g id="a_node1"><a xlink:title=" ">
<polygon fill="#bfbfbf" stroke="black" points="0,-57.5 0,-76.5 112,-76.5 112,-57.5 0,-57.5"/>
<text text-anchor="middle" x="56" y="-64.5" font-family="Helvetica,sans-Serif" font-size="10.00">SdbTCtlWaitForStop</text>
</a>
</g>
</g>
<!-- Node2 -->
<g id="node2" class="node">
<title>Node2</title>
<g id="a_node2"><a xlink:href="Thread_8c.html#a3aa5be8c3ae6f155db4058a8b658ab91" target="_top" xlink:title="Wait on a condition variable with timeout.">
<polygon fill="white" stroke="black" points="180.5,-114.5 180.5,-133.5 261.5,-133.5 261.5,-114.5 180.5,-114.5"/>
<text text-anchor="middle" x="221" y="-121.5" font-family="Helvetica,sans-Serif" font-size="10.00">SdbCondWait</text>
</a>
</g>
</g>
<!-- Node1&#45;&gt;Node2 -->
<g id="edge1" class="edge">
<title>Node1&#45;&gt;Node2</title>
<path fill="none" stroke="midnightblue" d="M77.65,-76.58C95.89,-84.82 123.35,-96.65 148,-105 155.24,-107.45 162.97,-109.79 170.58,-111.92"/>
<polygon fill="midnightblue" stroke="midnightblue" points="169.9,-115.37 180.47,-114.61 171.74,-108.61 169.9,-115.37"/>
</g>
<!-- Node7 -->
<g id="node7" class="node">
<title>Node7</title>
<g id="a_node7"><a xlink:href="Thread_8c.html#a5fbfdcfc990630f27e5161ec4ea18aaa" target="_top" xlink:title="Lock a mutex with timeout.">
<polygon fill="white" stroke="black" points="177,-76.5 177,-95.5 265,-95.5 265,-76.5 177,-76.5"/>
<text text-anchor="middle" x="221" y="-83.5" font-family="Helvetica,sans-Serif" font-size="10.00">SdbMutexLock</text>
</a>
</g>
</g>
<!-- Node1&#45;&gt;Node7 -->
<g id="edge6" class="edge">
<title>Node1&#45;&gt;Node7</title>
<path fill="none" stroke="midnightblue" d="M112.18,-73.43C129.86,-75.49 149.4,-77.77 166.92,-79.81"/>
<polygon fill="midnightblue" stroke="midnightblue" points="166.64,-83.3 176.98,-80.99 167.45,-76.35 166.64,-83.3"/>
</g>
<!-- Node8 -->
<g id="node8" class="node">
<title>Node8</title>
<g id="a_node8"><a xlink:href="Thread_8c.html#a385a70a16dc0b1872fdf925d2121880c" target="_top" xlink:title="Unlock a mutex.">
<polygon fill="white" stroke="black" points="171.5,-38.5 171.5,-57.5 270.5,-57.5 270.5,-38.5 171.5,-38.5"/>
<text text-anchor="middle" x="221" y="-45.5" font-family="Helvetica,sans-Serif" font-size="10.00">SdbMutexUnlock</text>
</a>
</g>
</g>
<!-- Node1&#45;&gt;Node8 -->
<g id="edge8" class="edge">
<title>Node1&#45;&gt;Node8</title>
<path fill="none" stroke="midnightblue" d="M112.18,-60.57C127.94,-58.73 145.17,-56.72 161.14,-54.86"/>
<polygon fill="midnightblue" stroke="midnightblue" points="161.9,-58.3 171.43,-53.66 161.09,-51.34 161.9,-58.3"/>
</g>
<!-- Node9 -->
<g id="node9" class="node">
<title>Node9</title>
<g id="a_node9"><a xlink:href="Thread_8c.html#ac4aaabcc8caff893f2b513415b1994b3" target="_top" xlink:title=" ">
<polygon fill="white" stroke="black" points="148,-0.5 148,-19.5 294,-19.5 294,-0.5 148,-0.5"/>
<text text-anchor="middle" x="221" y="-7.5" font-family="Helvetica,sans-Serif" font-size="10.00">SdbTCtlHasStoppedLocked</text>
</a>
</g>
</g>
<!-- Node1&#45;&gt;Node9 -->
<g id="edge9" class="edge">
<title>Node1&#45;&gt;Node9</title>
<path fill="none" stroke="midnightblue" d="M77.65,-57.42C95.89,-49.18 123.35,-37.35 148,-29 155.07,-26.61 162.61,-24.32 170.05,-22.23"/>
<polygon fill="midnightblue" stroke="midnightblue" points="171,-25.6 179.72,-19.58 169.15,-18.84 171,-25.6"/>
</g>
<!-- Node3 -->
<g id="node3" class="node">
<title>Node3</title>
<g id="a_node3"><a xlink:href="Thread_8c.html#aa16f3f5cb899e1128f1a80c021780e5f" target="_top" xlink:title=" ">
<polygon fill="white" stroke="black" points="330,-95.5 330,-114.5 419,-114.5 419,-95.5 330,-95.5"/>
<text text-anchor="middle" x="374.5" y="-102.5" font-family="Helvetica,sans-Serif" font-size="10.00">CreateTimeout</text>
</a>
</g>
</g>
<!-- Node2&#45;&gt;Node3 -->
<g id="edge2" class="edge">
<title>Node2&#45;&gt;Node3</title>
<path fill="none" stroke="midnightblue" d="M261.8,-119.01C279.57,-116.78 300.76,-114.12 319.89,-111.72"/>
<polygon fill="midnightblue" stroke="midnightblue" points="320.48,-115.18 329.97,-110.46 319.61,-108.23 320.48,-115.18"/>
</g>
<!-- Node4 -->
<g id="node4" class="node">
<title>Node4</title>
<g id="a_node4"><a xlink:href="Time_8c.html#afad180732be23f8e46bdfc2bb349ff44" target="_top" xlink:title="Create Absolute Timeout Timestamp.">
<polygon fill="white" stroke="black" points="455,-95.5 455,-114.5 580,-114.5 580,-95.5 455,-95.5"/>
<text text-anchor="middle" x="517.5" y="-102.5" font-family="Helvetica,sans-Serif" font-size="10.00">SdbTimespecAbsolute</text>
</a>
</g>
</g>
<!-- Node3&#45;&gt;Node4 -->
<g id="edge3" class="edge">
<title>Node3&#45;&gt;Node4</title>
<path fill="none" stroke="midnightblue" d="M419.34,-105C427.42,-105 436.04,-105 444.69,-105"/>
<polygon fill="midnightblue" stroke="midnightblue" points="444.83,-108.5 454.83,-105 444.83,-101.5 444.83,-108.5"/>
</g>
<!-- Node5 -->
<g id="node5" class="node">
<title>Node5</title>
<g id="a_node5"><a xlink:href="Time_8c.html#af8be68d54def6b644cac5efb8fe2e605" target="_top" xlink:title="Add Time Difference to Timestamp.">
<polygon fill="white" stroke="black" points="617.5,-114.5 617.5,-133.5 695.5,-133.5 695.5,-114.5 617.5,-114.5"/>
<text text-anchor="middle" x="656.5" y="-121.5" font-family="Helvetica,sans-Serif" font-size="10.00">SdbTimeAdd</text>
</a>
</g>
</g>
<!-- Node4&#45;&gt;Node5 -->
<g id="edge4" class="edge">
<title>Node4&#45;&gt;Node5</title>
<path fill="none" stroke="midnightblue" d="M580.19,-113.56C589.27,-114.82 598.52,-116.1 607.28,-117.31"/>
<polygon fill="midnightblue" stroke="midnightblue" points="606.92,-120.8 617.31,-118.7 607.88,-113.86 606.92,-120.8"/>
</g>
<!-- Node6 -->
<g id="node6" class="node">
<title>Node6</title>
<g id="a_node6"><a xlink:href="Time_8c.html#a83d0c194706101b50506d2618e27167c" target="_top" xlink:title="Get Current Real&#45;Time Timestamp.">
<polygon fill="white" stroke="black" points="616,-76.5 616,-95.5 697,-95.5 697,-76.5 616,-76.5"/>
<text text-anchor="middle" x="656.5" y="-83.5" font-family="Helvetica,sans-Serif" font-size="10.00">SdbTimeNow</text>
</a>
</g>
</g>
<!-- Node4&#45;&gt;Node6 -->
<g id="edge5" class="edge">
<title>Node4&#45;&gt;Node6</title>
<path fill="none" stroke="midnightblue" d="M580.19,-96.44C588.77,-95.25 597.5,-94.04 605.82,-92.89"/>
<polygon fill="midnightblue" stroke="midnightblue" points="606.32,-96.35 615.74,-91.51 605.36,-89.42 606.32,-96.35"/>
</g>
<!-- Node7&#45;&gt;Node3 -->
<g id="edge7" class="edge">
<title>Node7&#45;&gt;Node3</title>
<path fill="none" stroke="midnightblue" d="M265.01,-91.39C282.05,-93.53 301.84,-96.01 319.81,-98.27"/>
<polygon fill="midnightblue" stroke="midnightblue" points="319.5,-101.76 329.86,-99.53 320.37,-94.81 319.5,-101.76"/>
</g>
</g>
</svg>
