<?xml version="1.0" encoding="UTF-8" standalone="no"?>
<!DOCTYPE svg PUBLIC "-//W3C//DTD SVG 1.1//EN"
 "http://www.w3.org/Graphics/SVG/1.1/DTD/svg11.dtd">
<!-- Generated by graphviz version 2.43.0 (0)
 -->
<!-- Title: SdbMutexUnlock Pages: 1 -->
<svg width="640pt" height="288pt"
 viewBox="0.00 0.00 640.00 288.00" xmlns="http://www.w3.org/2000/svg" xmlns:xlink="http://www.w3.org/1999/xlink">
<g id="graph0" class="graph" transform="scale(1 1) rotate(0) translate(4 284)">
<title>SdbMutexUnlock</title>
<!-- Node1 -->
<g id="Node000001" class="node">
<title>Node1</title>
<g id="a_Node000001"><a xlink:title="Unlock a mutex.">
<polygon fill="#999999" stroke="#666666" points="632,-150 533,-150 533,-131 632,-131 632,-150"/>
<text text-anchor="middle" x="582.5" y="-138" font-family="Helvetica,sans-Serif" font-size="10.00">SdbMutexUnlock</text>
</a>
</g>
</g>
<!-- Node2 -->
<g id="Node000002" class="node">
<title>Node2</title>
<g id="a_Node000002"><a xlink:href="Thread_8c.html#ab71f0de8f1f57ba18443a8947d10cbe9" target="_top" xlink:title=" ">
<polygon fill="white" stroke="#666666" points="496,-280 378,-280 378,-261 496,-261 496,-280"/>
<text text-anchor="middle" x="437" y="-268" font-family="Helvetica,sans-Serif" font-size="10.00">SdbTCtlMarkStopped</text>
</a>
</g>
</g>
<!-- Node1&#45;&gt;Node2 -->
<g id="edge1_Node000001_Node000002" class="edge">
<title>Node1&#45;&gt;Node2</title>
<g id="a_edge1_Node000001_Node000002"><a xlink:title=" ">
<path fill="none" stroke="#63b8ff" d="M572.14,-159.37C558.83,-184.32 532.09,-227.96 497,-252.5 492.17,-255.88 486.7,-258.63 481.07,-260.88"/>
<polygon fill="#63b8ff" stroke="#63b8ff" points="575.39,-160.72 576.87,-150.23 569.17,-157.5 575.39,-160.72"/>
</a>
</g>
</g>
<!-- Node3 -->
<g id="Node000003" class="node">
<title>Node3</title>
<g id="a_Node000003"><a xlink:href="Thread_8c.html#a8652a70b8480decb154cff225ebd8041" target="_top" xlink:title=" ">
<polygon fill="white" stroke="#666666" points="491,-243 383,-243 383,-224 491,-224 491,-243"/>
<text text-anchor="middle" x="437" y="-231" font-family="Helvetica,sans-Serif" font-size="10.00">SdbTCtlShouldStop</text>
</a>
</g>
</g>
<!-- Node1&#45;&gt;Node3 -->
<g id="edge2_Node000001_Node000003" class="edge">
<title>Node1&#45;&gt;Node3</title>
<g id="a_edge2_Node000001_Node000003"><a xlink:title=" ">
<path fill="none" stroke="#63b8ff" d="M566.27,-157.8C550.49,-174.74 524.35,-200.17 497,-215.5 491.02,-218.85 484.35,-221.65 477.69,-223.97"/>
<polygon fill="#63b8ff" stroke="#63b8ff" points="569,-160.01 573.14,-150.25 563.82,-155.29 569,-160.01"/>
</a>
</g>
</g>
<!-- Node4 -->
<g id="Node000004" class="node">
<title>Node4</title>
<g id="a_Node000004"><a xlink:href="Thread_8c.html#aeef5b8eae38ea9383d6466621c42342a" target="_top" xlink:title=" ">
<polygon fill="white" stroke="#666666" points="489.5,-206 384.5,-206 384.5,-187 489.5,-187 489.5,-206"/>
<text text-anchor="middle" x="437" y="-194" font-family="Helvetica,sans-Serif" font-size="10.00">SdbTCtlSignalStop</text>
</a>
</g>
</g>
<!-- Node1&#45;&gt;Node4 -->
<g id="edge3_Node000001_Node000004" class="edge">
<title>Node1&#45;&gt;Node4</title>
<g id="a_edge3_Node000001_Node000004"><a xlink:title=" ">
<path fill="none" stroke="#63b8ff" d="M552.57,-154.6C536.43,-162.2 515.83,-171.43 497,-178.5 488.98,-181.51 480.21,-184.4 471.94,-186.95"/>
<polygon fill="#63b8ff" stroke="#63b8ff" points="554.46,-157.58 561.99,-150.12 551.46,-151.26 554.46,-157.58"/>
</a>
</g>
</g>
<!-- Node5 -->
<g id="Node000005" class="node">
<title>Node5</title>
<g id="a_Node000005"><a xlink:href="Thread_8c.html#ac8a5ec29ca01a647dbc806ee148840bc" target="_top" xlink:title=" ">
<polygon fill="white" stroke="#666666" points="497,-169 377,-169 377,-150 497,-150 497,-169"/>
<text text-anchor="middle" x="437" y="-157" font-family="Helvetica,sans-Serif" font-size="10.00">SdbTCtlWaitForSignal</text>
</a>
</g>
</g>
<!-- Node1&#45;&gt;Node5 -->
<g id="edge4_Node000001_Node000005" class="edge">
<title>Node1&#45;&gt;Node5</title>
<g id="a_edge4_Node000001_Node000005"><a xlink:title=" ">
<path fill="none" stroke="#63b8ff" d="M522.79,-148.27C514.35,-149.39 505.67,-150.54 497.23,-151.66"/>
<polygon fill="#63b8ff" stroke="#63b8ff" points="523.46,-151.71 532.92,-146.93 522.54,-144.78 523.46,-151.71"/>
</a>
</g>
</g>
<!-- Node6 -->
<g id="Node000006" class="node">
<title>Node6</title>
<g id="a_Node000006"><a xlink:href="Thread_8c.html#a25bd8de99cb5460de9f423913059621b" target="_top" xlink:title=" ">
<polygon fill="white" stroke="#666666" points="493,-132 381,-132 381,-113 493,-113 493,-132"/>
<text text-anchor="middle" x="437" y="-120" font-family="Helvetica,sans-Serif" font-size="10.00">SdbTCtlWaitForStop</text>
</a>
</g>
</g>
<!-- Node1&#45;&gt;Node6 -->
<g id="edge5_Node000001_Node000006" class="edge">
<title>Node1&#45;&gt;Node6</title>
<g id="a_edge5_Node000001_Node000006"><a xlink:title=" ">
<path fill="none" stroke="#63b8ff" d="M522.86,-133.14C513.06,-131.91 502.92,-130.64 493.21,-129.42"/>
<polygon fill="#63b8ff" stroke="#63b8ff" points="522.56,-136.63 532.92,-134.41 523.43,-129.69 522.56,-136.63"/>
</a>
</g>
</g>
<!-- Node7 -->
<g id="Node000007" class="node">
<title>Node7</title>
<g id="a_Node000007"><a xlink:href="ThreadGroup_8c.html#a99b84055dd294fe099f1bb31fcdaceb4" target="_top" xlink:title="Start All Thread Groups in Manager.">
<polygon fill="white" stroke="#666666" points="184,-57 77,-57 77,-38 184,-38 184,-57"/>
<text text-anchor="middle" x="130.5" y="-45" font-family="Helvetica,sans-Serif" font-size="10.00">TgManagerStartAll</text>
</a>
</g>
</g>
<!-- Node1&#45;&gt;Node7 -->
<g id="edge6_Node000001_Node000007" class="edge">
<title>Node1&#45;&gt;Node7</title>
<g id="a_edge6_Node000001_Node000007"><a xlink:title=" ">
<path fill="none" stroke="#63b8ff" d="M567.59,-123.09C552.36,-105.5 526.2,-79.28 497,-67.5 392.4,-25.28 257.14,-31.99 184.02,-40.08"/>
<polygon fill="#63b8ff" stroke="#63b8ff" points="565.05,-125.51 574.15,-130.93 570.42,-121.02 565.05,-125.51"/>
</a>
</g>
</g>
<!-- Node9 -->
<g id="Node000009" class="node">
<title>Node9</title>
<g id="a_Node000009"><a xlink:href="ThreadGroup_8c.html#a94f41b6eed9ab8ff08d3921b617a87dd" target="_top" xlink:title="Wait for Completion of All Thread Groups.">
<polygon fill="white" stroke="#666666" points="341,-19 220,-19 220,0 341,0 341,-19"/>
<text text-anchor="middle" x="280.5" y="-7" font-family="Helvetica,sans-Serif" font-size="10.00">TgManagerWaitForAll</text>
</a>
</g>
</g>
<!-- Node1&#45;&gt;Node9 -->
<g id="edge8_Node000001_Node000009" class="edge">
<title>Node1&#45;&gt;Node9</title>
<g id="a_edge8_Node000001_Node000009"><a xlink:title=" ">
<path fill="none" stroke="#63b8ff" d="M572.53,-121.51C559.64,-96.6 533.38,-53.69 497,-33.5 449.44,-7.1 386.91,-2.86 341.46,-4.17"/>
<polygon fill="#63b8ff" stroke="#63b8ff" points="569.5,-123.28 577.08,-130.68 575.76,-120.16 569.5,-123.28"/>
</a>
</g>
</g>
<!-- Node10 -->
<g id="Node000010" class="node">
<title>Node10</title>
<g id="a_Node000010"><a xlink:href="ThreadGroup_8c.html#aab12be916ed17f20adc66a71e0a715c3" target="_top" xlink:title=" ">
<polygon fill="white" stroke="#666666" points="470,-95 404,-95 404,-76 470,-76 470,-95"/>
<text text-anchor="middle" x="437" y="-83" font-family="Helvetica,sans-Serif" font-size="10.00">TgMonitor</text>
</a>
</g>
</g>
<!-- Node1&#45;&gt;Node10 -->
<g id="edge10_Node000001_Node000010" class="edge">
<title>Node1&#45;&gt;Node10</title>
<g id="a_edge10_Node000001_Node000010"><a xlink:title=" ">
<path fill="none" stroke="#63b8ff" d="M551.16,-126.78C535.18,-119.76 515.19,-111.29 497,-104.5 488.13,-101.19 478.38,-97.91 469.42,-95.03"/>
<polygon fill="#63b8ff" stroke="#63b8ff" points="549.97,-130.08 560.53,-130.94 552.81,-123.68 549.97,-130.08"/>
</a>
</g>
</g>
<!-- Node8 -->
<g id="Node000008" class="node">
<title>Node8</title>
<g id="a_Node000008"><a xlink:href="Main_8c.html#ae21eb8342793f7f8f0d5fda6b96c0803" target="_top" xlink:title="Main entry point for the Sensor Data Handler System.">
<polygon fill="white" stroke="#666666" points="41,-38 0,-38 0,-19 41,-19 41,-38"/>
<text text-anchor="middle" x="20.5" y="-26" font-family="Helvetica,sans-Serif" font-size="10.00">main</text>
</a>
</g>
</g>
<!-- Node7&#45;&gt;Node8 -->
<g id="edge7_Node000007_Node000008" class="edge">
<title>Node7&#45;&gt;Node8</title>
<g id="a_edge7_Node000007_Node000008"><a xlink:title=" ">
<path fill="none" stroke="#63b8ff" d="M66.64,-36.44C57.4,-34.81 48.5,-33.25 41.09,-31.95"/>
<polygon fill="#63b8ff" stroke="#63b8ff" points="66.31,-39.94 76.77,-38.22 67.52,-33.04 66.31,-39.94"/>
</a>
</g>
</g>
<!-- Node9&#45;&gt;Node8 -->
<g id="edge9_Node000009_Node000008" class="edge">
<title>Node9&#45;&gt;Node8</title>
<g id="a_edge9_Node000009_Node000008"><a xlink:title=" ">
<path fill="none" stroke="#63b8ff" d="M209.99,-14.62C153.21,-18.8 76.76,-24.43 41.21,-27.05"/>
<polygon fill="#63b8ff" stroke="#63b8ff" points="210.27,-18.11 219.99,-13.88 209.76,-11.13 210.27,-18.11"/>
</a>
</g>
</g>
<!-- Node11 -->
<g id="Node000011" class="node">
<title>Node11</title>
<g id="a_Node000011"><a xlink:href="ThreadGroup_8c.html#aaf638572d1f947f2ab3b6637d11029fd" target="_top" xlink:title="Start All Threads in a Thread Group.">
<polygon fill="white" stroke="#666666" points="321,-95 240,-95 240,-76 321,-76 321,-95"/>
<text text-anchor="middle" x="280.5" y="-83" font-family="Helvetica,sans-Serif" font-size="10.00">TgStartGroup</text>
</a>
</g>
</g>
<!-- Node10&#45;&gt;Node11 -->
<g id="edge11_Node000010_Node000011" class="edge">
<title>Node10&#45;&gt;Node11</title>
<g id="a_edge11_Node000010_Node000011"><a xlink:title=" ">
<path fill="none" stroke="#63b8ff" d="M393.97,-85.5C371.29,-85.5 343.46,-85.5 321.16,-85.5"/>
<polygon fill="#63b8ff" stroke="#63b8ff" points="393.99,-89 403.99,-85.5 393.99,-82 393.99,-89"/>
</a>
</g>
</g>
<!-- Node11&#45;&gt;Node7 -->
<g id="edge12_Node000011_Node000007" class="edge">
<title>Node11&#45;&gt;Node7</title>
<g id="a_edge12_Node000011_Node000007"><a xlink:title=" ">
<path fill="none" stroke="#63b8ff" d="M232.33,-73.39C211.71,-68.1 187.89,-61.98 168.58,-57.02"/>
<polygon fill="#63b8ff" stroke="#63b8ff" points="231.6,-76.81 242.15,-75.91 233.34,-70.03 231.6,-76.81"/>
</a>
</g>
</g>
</g>
</svg>
