<?xml version="1.0" encoding="UTF-8" standalone="no"?>
<!DOCTYPE svg PUBLIC "-//W3C//DTD SVG 1.1//EN"
 "http://www.w3.org/Graphics/SVG/1.1/DTD/svg11.dtd">
<!-- Generated by graphviz version 2.43.0 (0)
 -->
<!-- Title: SdbTCtlInit Pages: 1 -->
<svg width="208pt" height="104pt"
 viewBox="0.00 0.00 208.00 104.00" xmlns="http://www.w3.org/2000/svg" xmlns:xlink="http://www.w3.org/1999/xlink">
<g id="graph0" class="graph" transform="scale(1 1) rotate(0) translate(4 100)">
<title>SdbTCtlInit</title>
<polygon fill="white" stroke="transparent" points="-4,4 -4,-100 204,-100 204,4 -4,4"/>
<!-- Node1 -->
<g id="node1" class="node">
<title>Node1</title>
<g id="a_node1"><a xlink:title=" ">
<polygon fill="#bfbfbf" stroke="black" points="0,-38.5 0,-57.5 69,-57.5 69,-38.5 0,-38.5"/>
<text text-anchor="middle" x="34.5" y="-45.5" font-family="Helvetica,sans-Serif" font-size="10.00">SdbTCtlInit</text>
</a>
</g>
</g>
<!-- Node2 -->
<g id="node2" class="node">
<title>Node2</title>
<g id="a_node2"><a xlink:href="Thread_8c.html#a96f5f3ba983e0047d225045c00697ffb" target="_top" xlink:title="Initialize a condition variable.">
<polygon fill="white" stroke="black" points="115,-76.5 115,-95.5 190,-95.5 190,-76.5 115,-76.5"/>
<text text-anchor="middle" x="152.5" y="-83.5" font-family="Helvetica,sans-Serif" font-size="10.00">SdbCondInit</text>
</a>
</g>
</g>
<!-- Node1&#45;&gt;Node2 -->
<g id="edge1" class="edge">
<title>Node1&#45;&gt;Node2</title>
<path fill="none" stroke="midnightblue" d="M64.77,-57.59C79.2,-62.31 96.79,-68.08 112.36,-73.18"/>
<polygon fill="midnightblue" stroke="midnightblue" points="111.64,-76.63 122.24,-76.41 113.82,-69.97 111.64,-76.63"/>
</g>
<!-- Node3 -->
<g id="node3" class="node">
<title>Node3</title>
<g id="a_node3"><a xlink:href="Thread_8c.html#ad3843b7e6d392c9fbae73a55927ac248" target="_top" xlink:title="Deinitialize a mutex.">
<polygon fill="white" stroke="black" points="105,-38.5 105,-57.5 200,-57.5 200,-38.5 105,-38.5"/>
<text text-anchor="middle" x="152.5" y="-45.5" font-family="Helvetica,sans-Serif" font-size="10.00">SdbMutexDeinit</text>
</a>
</g>
</g>
<!-- Node1&#45;&gt;Node3 -->
<g id="edge2" class="edge">
<title>Node1&#45;&gt;Node3</title>
<path fill="none" stroke="midnightblue" d="M69.05,-48C77.04,-48 85.78,-48 94.49,-48"/>
<polygon fill="midnightblue" stroke="midnightblue" points="94.65,-51.5 104.65,-48 94.65,-44.5 94.65,-51.5"/>
</g>
<!-- Node4 -->
<g id="node4" class="node">
<title>Node4</title>
<g id="a_node4"><a xlink:href="Thread_8c.html#ab44b8ad4cd3641c5261510ebe9803db4" target="_top" xlink:title="Initialize a mutex.">
<polygon fill="white" stroke="black" points="112,-0.5 112,-19.5 193,-19.5 193,-0.5 112,-0.5"/>
<text text-anchor="middle" x="152.5" y="-7.5" font-family="Helvetica,sans-Serif" font-size="10.00">SdbMutexInit</text>
</a>
</g>
</g>
<!-- Node1&#45;&gt;Node4 -->
<g id="edge3" class="edge">
<title>Node1&#45;&gt;Node4</title>
<path fill="none" stroke="midnightblue" d="M64.77,-38.41C79.2,-33.69 96.79,-27.92 112.36,-22.82"/>
<polygon fill="midnightblue" stroke="midnightblue" points="113.82,-26.03 122.24,-19.59 111.64,-19.37 113.82,-26.03"/>
</g>
</g>
</svg>
