<?xml version="1.0" encoding="UTF-8" standalone="no"?>
<!DOCTYPE svg PUBLIC "-//W3C//DTD SVG 1.1//EN"
 "http://www.w3.org/Graphics/SVG/1.1/DTD/svg11.dtd">
<!-- Generated by graphviz version 2.43.0 (0)
 -->
<!-- Title: SdbMutexLock Pages: 1 -->
<svg width="629pt" height="294pt"
 viewBox="0.00 0.00 629.00 294.00" xmlns="http://www.w3.org/2000/svg" xmlns:xlink="http://www.w3.org/1999/xlink">
<g id="graph0" class="graph" transform="scale(1 1) rotate(0) translate(4 290)">
<title>SdbMutexLock</title>
<polygon fill="white" stroke="transparent" points="-4,4 -4,-290 625,-290 625,4 -4,4"/>
<!-- Node1 -->
<g id="node1" class="node">
<title>Node1</title>
<g id="a_node1"><a xlink:title="Lock a mutex with timeout.">
<polygon fill="#bfbfbf" stroke="black" points="533,-133.5 533,-152.5 621,-152.5 621,-133.5 533,-133.5"/>
<text text-anchor="middle" x="577" y="-140.5" font-family="Helvetica,sans-Serif" font-size="10.00">SdbMutexLock</text>
</a>
</g>
</g>
<!-- Node2 -->
<g id="node2" class="node">
<title>Node2</title>
<g id="a_node2"><a xlink:href="Thread_8c.html#ab71f0de8f1f57ba18443a8947d10cbe9" target="_top" xlink:title=" ">
<polygon fill="white" stroke="black" points="378,-266.5 378,-285.5 496,-285.5 496,-266.5 378,-266.5"/>
<text text-anchor="middle" x="437" y="-273.5" font-family="Helvetica,sans-Serif" font-size="10.00">SdbTCtlMarkStopped</text>
</a>
</g>
</g>
<!-- Node1&#45;&gt;Node2 -->
<g id="edge1" class="edge">
<title>Node1&#45;&gt;Node2</title>
<path fill="none" stroke="midnightblue" d="M567.78,-161.76C555.8,-187 531.17,-231.66 497,-257 491.81,-260.85 485.82,-263.93 479.68,-266.41"/>
<polygon fill="midnightblue" stroke="midnightblue" points="571.03,-163.08 572.01,-152.53 564.66,-160.17 571.03,-163.08"/>
</g>
<!-- Node3 -->
<g id="node3" class="node">
<title>Node3</title>
<g id="a_node3"><a xlink:href="Thread_8c.html#a8652a70b8480decb154cff225ebd8041" target="_top" xlink:title=" ">
<polygon fill="white" stroke="black" points="383,-228.5 383,-247.5 491,-247.5 491,-228.5 383,-228.5"/>
<text text-anchor="middle" x="437" y="-235.5" font-family="Helvetica,sans-Serif" font-size="10.00">SdbTCtlShouldStop</text>
</a>
</g>
</g>
<!-- Node1&#45;&gt;Node3 -->
<g id="edge2" class="edge">
<title>Node1&#45;&gt;Node3</title>
<path fill="none" stroke="midnightblue" d="M561.82,-160.7C547.23,-177.84 523.01,-203.45 497,-219 490.63,-222.81 483.4,-225.95 476.25,-228.5"/>
<polygon fill="midnightblue" stroke="midnightblue" points="564.84,-162.54 568.53,-152.61 559.46,-158.07 564.84,-162.54"/>
</g>
<!-- Node4 -->
<g id="node4" class="node">
<title>Node4</title>
<g id="a_node4"><a xlink:href="Thread_8c.html#aeef5b8eae38ea9383d6466621c42342a" target="_top" xlink:title=" ">
<polygon fill="white" stroke="black" points="384.5,-190.5 384.5,-209.5 489.5,-209.5 489.5,-190.5 384.5,-190.5"/>
<text text-anchor="middle" x="437" y="-197.5" font-family="Helvetica,sans-Serif" font-size="10.00">SdbTCtlSignalStop</text>
</a>
</g>
</g>
<!-- Node1&#45;&gt;Node4 -->
<g id="edge3" class="edge">
<title>Node1&#45;&gt;Node4</title>
<path fill="none" stroke="midnightblue" d="M548.58,-157.33C533.57,-164.89 514.51,-174.01 497,-181 488.51,-184.39 479.15,-187.63 470.44,-190.43"/>
<polygon fill="midnightblue" stroke="midnightblue" points="550.48,-160.29 557.8,-152.63 547.3,-154.05 550.48,-160.29"/>
</g>
<!-- Node5 -->
<g id="node5" class="node">
<title>Node5</title>
<g id="a_node5"><a xlink:href="Thread_8c.html#ac8a5ec29ca01a647dbc806ee148840bc" target="_top" xlink:title=" ">
<polygon fill="white" stroke="black" points="377,-152.5 377,-171.5 497,-171.5 497,-152.5 377,-152.5"/>
<text text-anchor="middle" x="437" y="-159.5" font-family="Helvetica,sans-Serif" font-size="10.00">SdbTCtlWaitForSignal</text>
</a>
</g>
</g>
<!-- Node1&#45;&gt;Node5 -->
<g id="edge4" class="edge">
<title>Node1&#45;&gt;Node5</title>
<path fill="none" stroke="midnightblue" d="M522.68,-150.34C514.29,-151.5 505.57,-152.7 497.06,-153.87"/>
<polygon fill="midnightblue" stroke="midnightblue" points="523.29,-153.79 532.71,-148.96 522.33,-146.86 523.29,-153.79"/>
</g>
<!-- Node6 -->
<g id="node6" class="node">
<title>Node6</title>
<g id="a_node6"><a xlink:href="Thread_8c.html#a25bd8de99cb5460de9f423913059621b" target="_top" xlink:title=" ">
<polygon fill="white" stroke="black" points="381,-114.5 381,-133.5 493,-133.5 493,-114.5 381,-114.5"/>
<text text-anchor="middle" x="437" y="-121.5" font-family="Helvetica,sans-Serif" font-size="10.00">SdbTCtlWaitForStop</text>
</a>
</g>
</g>
<!-- Node1&#45;&gt;Node6 -->
<g id="edge5" class="edge">
<title>Node1&#45;&gt;Node6</title>
<path fill="none" stroke="midnightblue" d="M522.52,-135.64C512.94,-134.32 502.94,-132.94 493.31,-131.62"/>
<polygon fill="midnightblue" stroke="midnightblue" points="522.33,-139.14 532.71,-137.04 523.29,-132.21 522.33,-139.14"/>
</g>
<!-- Node7 -->
<g id="node7" class="node">
<title>Node7</title>
<g id="a_node7"><a xlink:href="ThreadGroup_8c.html#a99b84055dd294fe099f1bb31fcdaceb4" target="_top" xlink:title="Start All Thread Groups in Manager.">
<polygon fill="white" stroke="black" points="77,-38.5 77,-57.5 184,-57.5 184,-38.5 77,-38.5"/>
<text text-anchor="middle" x="130.5" y="-45.5" font-family="Helvetica,sans-Serif" font-size="10.00">TgManagerStartAll</text>
</a>
</g>
</g>
<!-- Node1&#45;&gt;Node7 -->
<g id="edge6" class="edge">
<title>Node1&#45;&gt;Node7</title>
<path fill="none" stroke="midnightblue" d="M563.64,-125.18C549.79,-106.87 525.51,-79.36 497,-67 393.37,-22.08 257.44,-30.38 184.02,-39.65"/>
<polygon fill="midnightblue" stroke="midnightblue" points="560.85,-127.3 569.57,-133.32 566.51,-123.17 560.85,-127.3"/>
</g>
<!-- Node9 -->
<g id="node9" class="node">
<title>Node9</title>
<g id="a_node9"><a xlink:href="ThreadGroup_8c.html#a94f41b6eed9ab8ff08d3921b617a87dd" target="_top" xlink:title="Wait for Completion of All Thread Groups.">
<polygon fill="white" stroke="black" points="220,-0.5 220,-19.5 341,-19.5 341,-0.5 220,-0.5"/>
<text text-anchor="middle" x="280.5" y="-7.5" font-family="Helvetica,sans-Serif" font-size="10.00">TgManagerWaitForAll</text>
</a>
</g>
</g>
<!-- Node1&#45;&gt;Node9 -->
<g id="edge8" class="edge">
<title>Node1&#45;&gt;Node9</title>
<path fill="none" stroke="midnightblue" d="M568.22,-124.07C556.74,-98.78 532.68,-54.78 497,-34 449.83,-6.53 386.96,-2.48 341.31,-4.13"/>
<polygon fill="midnightblue" stroke="midnightblue" points="565.05,-125.56 572.25,-133.34 571.48,-122.77 565.05,-125.56"/>
</g>
<!-- Node10 -->
<g id="node10" class="node">
<title>Node10</title>
<g id="a_node10"><a xlink:href="ThreadGroup_8c.html#abd4b3faea4ee7a0e94f28b6ce36aab7c" target="_top" xlink:title=" ">
<polygon fill="white" stroke="black" points="404,-76.5 404,-95.5 470,-95.5 470,-76.5 404,-76.5"/>
<text text-anchor="middle" x="437" y="-83.5" font-family="Helvetica,sans-Serif" font-size="10.00">TgMonitor</text>
</a>
</g>
</g>
<!-- Node1&#45;&gt;Node10 -->
<g id="edge10" class="edge">
<title>Node1&#45;&gt;Node10</title>
<path fill="none" stroke="midnightblue" d="M548.58,-128.67C533.57,-121.11 514.51,-111.99 497,-105 488.41,-101.57 478.93,-98.3 470.13,-95.47"/>
<polygon fill="midnightblue" stroke="midnightblue" points="547.3,-131.95 557.8,-133.37 550.48,-125.71 547.3,-131.95"/>
</g>
<!-- Node8 -->
<g id="node8" class="node">
<title>Node8</title>
<g id="a_node8"><a xlink:href="Main_8c.html#ae21eb8342793f7f8f0d5fda6b96c0803" target="_top" xlink:title="Main entry point for the Sensor Data Handler System.">
<polygon fill="white" stroke="black" points="0,-19.5 0,-38.5 41,-38.5 41,-19.5 0,-19.5"/>
<text text-anchor="middle" x="20.5" y="-26.5" font-family="Helvetica,sans-Serif" font-size="10.00">main</text>
</a>
</g>
</g>
<!-- Node7&#45;&gt;Node8 -->
<g id="edge7" class="edge">
<title>Node7&#45;&gt;Node8</title>
<path fill="none" stroke="midnightblue" d="M66.64,-36.94C57.4,-35.31 48.5,-33.75 41.09,-32.45"/>
<polygon fill="midnightblue" stroke="midnightblue" points="66.31,-40.44 76.77,-38.72 67.52,-33.54 66.31,-40.44"/>
</g>
<!-- Node9&#45;&gt;Node8 -->
<g id="edge9" class="edge">
<title>Node9&#45;&gt;Node8</title>
<path fill="none" stroke="midnightblue" d="M209.99,-15.12C153.21,-19.3 76.76,-24.93 41.21,-27.55"/>
<polygon fill="midnightblue" stroke="midnightblue" points="210.27,-18.61 219.99,-14.38 209.76,-11.63 210.27,-18.61"/>
</g>
<!-- Node11 -->
<g id="node11" class="node">
<title>Node11</title>
<g id="a_node11"><a xlink:href="ThreadGroup_8c.html#aaf638572d1f947f2ab3b6637d11029fd" target="_top" xlink:title="Start All Threads in a Thread Group.">
<polygon fill="white" stroke="black" points="240,-76.5 240,-95.5 321,-95.5 321,-76.5 240,-76.5"/>
<text text-anchor="middle" x="280.5" y="-83.5" font-family="Helvetica,sans-Serif" font-size="10.00">TgStartGroup</text>
</a>
</g>
</g>
<!-- Node10&#45;&gt;Node11 -->
<g id="edge11" class="edge">
<title>Node10&#45;&gt;Node11</title>
<path fill="none" stroke="midnightblue" d="M393.97,-86C371.29,-86 343.46,-86 321.16,-86"/>
<polygon fill="midnightblue" stroke="midnightblue" points="393.99,-89.5 403.99,-86 393.99,-82.5 393.99,-89.5"/>
</g>
<!-- Node11&#45;&gt;Node7 -->
<g id="edge12" class="edge">
<title>Node11&#45;&gt;Node7</title>
<path fill="none" stroke="midnightblue" d="M232.33,-73.89C211.71,-68.6 187.89,-62.48 168.58,-57.52"/>
<polygon fill="midnightblue" stroke="midnightblue" points="231.6,-77.31 242.15,-76.41 233.34,-70.53 231.6,-77.31"/>
</g>
</g>
</svg>
