<?xml version="1.0" encoding="UTF-8" standalone="no"?>
<!DOCTYPE svg PUBLIC "-//W3C//DTD SVG 1.1//EN"
 "http://www.w3.org/Graphics/SVG/1.1/DTD/svg11.dtd">
<!-- Generated by graphviz version 2.43.0 (0)
 -->
<!-- Title: SdbTCtlMarkStopped Pages: 1 -->
<svg width="673pt" height="104pt"
 viewBox="0.00 0.00 673.00 104.00" xmlns="http://www.w3.org/2000/svg" xmlns:xlink="http://www.w3.org/1999/xlink">
<g id="graph0" class="graph" transform="scale(1 1) rotate(0) translate(4 100)">
<title>SdbTCtlMarkStopped</title>
<polygon fill="white" stroke="transparent" points="-4,4 -4,-100 669,-100 669,4 -4,4"/>
<!-- Node1 -->
<g id="node1" class="node">
<title>Node1</title>
<g id="a_node1"><a xlink:title=" ">
<polygon fill="#bfbfbf" stroke="black" points="0,-38.5 0,-57.5 118,-57.5 118,-38.5 0,-38.5"/>
<text text-anchor="middle" x="59" y="-45.5" font-family="Helvetica,sans-Serif" font-size="10.00">SdbTCtlMarkStopped</text>
</a>
</g>
</g>
<!-- Node2 -->
<g id="node2" class="node">
<title>Node2</title>
<g id="a_node2"><a xlink:href="Thread_8c.html#a4afa62c84f73964b958ab68703ff32cc" target="_top" xlink:title="Broadcast on a condition variable.">
<polygon fill="white" stroke="black" points="154,-76.5 154,-95.5 262,-95.5 262,-76.5 154,-76.5"/>
<text text-anchor="middle" x="208" y="-83.5" font-family="Helvetica,sans-Serif" font-size="10.00">SdbCondBroadcast</text>
</a>
</g>
</g>
<!-- Node1&#45;&gt;Node2 -->
<g id="edge1" class="edge">
<title>Node1&#45;&gt;Node2</title>
<path fill="none" stroke="midnightblue" d="M97.09,-57.59C116.32,-62.56 139.99,-68.68 160.43,-73.96"/>
<polygon fill="midnightblue" stroke="midnightblue" points="159.61,-77.37 170.17,-76.48 161.37,-70.59 159.61,-77.37"/>
</g>
<!-- Node3 -->
<g id="node3" class="node">
<title>Node3</title>
<g id="a_node3"><a xlink:href="Thread_8c.html#a5fbfdcfc990630f27e5161ec4ea18aaa" target="_top" xlink:title="Lock a mutex with timeout.">
<polygon fill="white" stroke="black" points="164,-38.5 164,-57.5 252,-57.5 252,-38.5 164,-38.5"/>
<text text-anchor="middle" x="208" y="-45.5" font-family="Helvetica,sans-Serif" font-size="10.00">SdbMutexLock</text>
</a>
</g>
</g>
<!-- Node1&#45;&gt;Node3 -->
<g id="edge2" class="edge">
<title>Node1&#45;&gt;Node3</title>
<path fill="none" stroke="midnightblue" d="M118.1,-48C129.77,-48 141.99,-48 153.5,-48"/>
<polygon fill="midnightblue" stroke="midnightblue" points="153.83,-51.5 163.83,-48 153.83,-44.5 153.83,-51.5"/>
</g>
<!-- Node8 -->
<g id="node8" class="node">
<title>Node8</title>
<g id="a_node8"><a xlink:href="Thread_8c.html#a385a70a16dc0b1872fdf925d2121880c" target="_top" xlink:title="Unlock a mutex.">
<polygon fill="white" stroke="black" points="158.5,-0.5 158.5,-19.5 257.5,-19.5 257.5,-0.5 158.5,-0.5"/>
<text text-anchor="middle" x="208" y="-7.5" font-family="Helvetica,sans-Serif" font-size="10.00">SdbMutexUnlock</text>
</a>
</g>
</g>
<!-- Node1&#45;&gt;Node8 -->
<g id="edge7" class="edge">
<title>Node1&#45;&gt;Node8</title>
<path fill="none" stroke="midnightblue" d="M97.09,-38.41C116.32,-33.44 139.99,-27.32 160.43,-22.04"/>
<polygon fill="midnightblue" stroke="midnightblue" points="161.37,-25.41 170.17,-19.52 159.61,-18.63 161.37,-25.41"/>
</g>
<!-- Node4 -->
<g id="node4" class="node">
<title>Node4</title>
<g id="a_node4"><a xlink:href="Thread_8c.html#aa16f3f5cb899e1128f1a80c021780e5f" target="_top" xlink:title=" ">
<polygon fill="white" stroke="black" points="298,-38.5 298,-57.5 387,-57.5 387,-38.5 298,-38.5"/>
<text text-anchor="middle" x="342.5" y="-45.5" font-family="Helvetica,sans-Serif" font-size="10.00">CreateTimeout</text>
</a>
</g>
</g>
<!-- Node3&#45;&gt;Node4 -->
<g id="edge3" class="edge">
<title>Node3&#45;&gt;Node4</title>
<path fill="none" stroke="midnightblue" d="M252.02,-48C263.36,-48 275.73,-48 287.57,-48"/>
<polygon fill="midnightblue" stroke="midnightblue" points="287.79,-51.5 297.79,-48 287.79,-44.5 287.79,-51.5"/>
</g>
<!-- Node5 -->
<g id="node5" class="node">
<title>Node5</title>
<g id="a_node5"><a xlink:href="Time_8c.html#afad180732be23f8e46bdfc2bb349ff44" target="_top" xlink:title="Create Absolute Timeout Timestamp.">
<polygon fill="white" stroke="black" points="423,-38.5 423,-57.5 548,-57.5 548,-38.5 423,-38.5"/>
<text text-anchor="middle" x="485.5" y="-45.5" font-family="Helvetica,sans-Serif" font-size="10.00">SdbTimespecAbsolute</text>
</a>
</g>
</g>
<!-- Node4&#45;&gt;Node5 -->
<g id="edge4" class="edge">
<title>Node4&#45;&gt;Node5</title>
<path fill="none" stroke="midnightblue" d="M387.34,-48C395.42,-48 404.04,-48 412.69,-48"/>
<polygon fill="midnightblue" stroke="midnightblue" points="412.83,-51.5 422.83,-48 412.83,-44.5 412.83,-51.5"/>
</g>
<!-- Node6 -->
<g id="node6" class="node">
<title>Node6</title>
<g id="a_node6"><a xlink:href="Time_8c.html#af8be68d54def6b644cac5efb8fe2e605" target="_top" xlink:title="Add Time Difference to Timestamp.">
<polygon fill="white" stroke="black" points="585.5,-57.5 585.5,-76.5 663.5,-76.5 663.5,-57.5 585.5,-57.5"/>
<text text-anchor="middle" x="624.5" y="-64.5" font-family="Helvetica,sans-Serif" font-size="10.00">SdbTimeAdd</text>
</a>
</g>
</g>
<!-- Node5&#45;&gt;Node6 -->
<g id="edge5" class="edge">
<title>Node5&#45;&gt;Node6</title>
<path fill="none" stroke="midnightblue" d="M548.19,-56.56C557.27,-57.82 566.52,-59.1 575.28,-60.31"/>
<polygon fill="midnightblue" stroke="midnightblue" points="574.92,-63.8 585.31,-61.7 575.88,-56.86 574.92,-63.8"/>
</g>
<!-- Node7 -->
<g id="node7" class="node">
<title>Node7</title>
<g id="a_node7"><a xlink:href="Time_8c.html#a83d0c194706101b50506d2618e27167c" target="_top" xlink:title="Get Current Real&#45;Time Timestamp.">
<polygon fill="white" stroke="black" points="584,-19.5 584,-38.5 665,-38.5 665,-19.5 584,-19.5"/>
<text text-anchor="middle" x="624.5" y="-26.5" font-family="Helvetica,sans-Serif" font-size="10.00">SdbTimeNow</text>
</a>
</g>
</g>
<!-- Node5&#45;&gt;Node7 -->
<g id="edge6" class="edge">
<title>Node5&#45;&gt;Node7</title>
<path fill="none" stroke="midnightblue" d="M548.19,-39.44C556.77,-38.25 565.5,-37.04 573.82,-35.89"/>
<polygon fill="midnightblue" stroke="midnightblue" points="574.32,-39.35 583.74,-34.51 573.36,-32.42 574.32,-39.35"/>
</g>
</g>
</svg>
