<?xml version="1.0" encoding="UTF-8" standalone="no"?>
<!DOCTYPE svg PUBLIC "-//W3C//DTD SVG 1.1//EN"
 "http://www.w3.org/Graphics/SVG/1.1/DTD/svg11.dtd">
<!-- Generated by graphviz version 2.43.0 (0)
 -->
<!-- Title: SdbMutexDeinit Pages: 1 -->
<svg width="222pt" height="64pt"
 viewBox="0.00 0.00 222.00 64.00" xmlns="http://www.w3.org/2000/svg" xmlns:xlink="http://www.w3.org/1999/xlink">
<g id="graph0" class="graph" transform="scale(1 1) rotate(0) translate(4 60)">
<title>SdbMutexDeinit</title>
<!-- Node1 -->
<g id="Node000001" class="node">
<title>Node1</title>
<g id="a_Node000001"><a xlink:title="Deinitialize a mutex.">
<polygon fill="#999999" stroke="#666666" points="214,-37 119,-37 119,-18 214,-18 214,-37"/>
<text text-anchor="middle" x="166.5" y="-25" font-family="Helvetica,sans-Serif" font-size="10.00">SdbMutexDeinit</text>
</a>
</g>
</g>
<!-- Node2 -->
<g id="Node000002" class="node">
<title>Node2</title>
<g id="a_Node000002"><a xlink:href="Thread_8c.html#afb40c52b497f6da6896f7aba77faf256" target="_top" xlink:title=" ">
<polygon fill="white" stroke="#666666" points="83,-56 0,-56 0,-37 83,-37 83,-56"/>
<text text-anchor="middle" x="41.5" y="-44" font-family="Helvetica,sans-Serif" font-size="10.00">SdbTCtlDeinit</text>
</a>
</g>
</g>
<!-- Node1&#45;&gt;Node2 -->
<g id="edge1_Node000001_Node000002" class="edge">
<title>Node1&#45;&gt;Node2</title>
<g id="a_edge1_Node000001_Node000002"><a xlink:title=" ">
<path fill="none" stroke="#63b8ff" d="M108.87,-36.25C100.15,-37.6 91.3,-38.96 83.02,-40.24"/>
<polygon fill="#63b8ff" stroke="#63b8ff" points="109.65,-39.67 119,-34.68 108.58,-32.75 109.65,-39.67"/>
</a>
</g>
</g>
<!-- Node3 -->
<g id="Node000003" class="node">
<title>Node3</title>
<g id="a_Node000003"><a xlink:href="Thread_8c.html#abe363f59f277cd7fc52826b51e238cc9" target="_top" xlink:title=" ">
<polygon fill="white" stroke="#666666" points="76,-19 7,-19 7,0 76,0 76,-19"/>
<text text-anchor="middle" x="41.5" y="-7" font-family="Helvetica,sans-Serif" font-size="10.00">SdbTCtlInit</text>
</a>
</g>
</g>
<!-- Node1&#45;&gt;Node3 -->
<g id="edge2_Node000001_Node000003" class="edge">
<title>Node1&#45;&gt;Node3</title>
<g id="a_edge2_Node000001_Node000003"><a xlink:title=" ">
<path fill="none" stroke="#63b8ff" d="M108.81,-19.2C97.6,-17.56 86.17,-15.89 76.04,-14.41"/>
<polygon fill="#63b8ff" stroke="#63b8ff" points="108.6,-22.71 119,-20.69 109.61,-15.78 108.6,-22.71"/>
</a>
</g>
</g>
</g>
</svg>
