<?xml version="1.0" encoding="UTF-8" standalone="no"?>
<!DOCTYPE svg PUBLIC "-//W3C//DTD SVG 1.1//EN"
 "http://www.w3.org/Graphics/SVG/1.1/DTD/svg11.dtd">
<!-- Generated by graphviz version 2.43.0 (0)
 -->
<!-- Title: SdbTCtlInit Pages: 1 -->
<svg width="208pt" height="101pt"
 viewBox="0.00 0.00 208.00 101.00" xmlns="http://www.w3.org/2000/svg" xmlns:xlink="http://www.w3.org/1999/xlink">
<g id="graph0" class="graph" transform="scale(1 1) rotate(0) translate(4 97)">
<title>SdbTCtlInit</title>
<!-- Node1 -->
<g id="Node000001" class="node">
<title>Node1</title>
<g id="a_Node000001"><a xlink:title=" ">
<polygon fill="#999999" stroke="#666666" points="69,-56 0,-56 0,-37 69,-37 69,-56"/>
<text text-anchor="middle" x="34.5" y="-44" font-family="Helvetica,sans-Serif" font-size="10.00">SdbTCtlInit</text>
</a>
</g>
</g>
<!-- Node2 -->
<g id="Node000002" class="node">
<title>Node2</title>
<g id="a_Node000002"><a xlink:href="Thread_8c.html#a96f5f3ba983e0047d225045c00697ffb" target="_top" xlink:title="Initialize a condition variable.">
<polygon fill="white" stroke="#666666" points="190,-93 115,-93 115,-74 190,-74 190,-93"/>
<text text-anchor="middle" x="152.5" y="-81" font-family="Helvetica,sans-Serif" font-size="10.00">SdbCondInit</text>
</a>
</g>
</g>
<!-- Node1&#45;&gt;Node2 -->
<g id="edge1_Node000001_Node000002" class="edge">
<title>Node1&#45;&gt;Node2</title>
<g id="a_edge1_Node000001_Node000002"><a xlink:title=" ">
<path fill="none" stroke="#63b8ff" d="M65.37,-56.03C79.47,-60.52 96.49,-65.95 111.67,-70.8"/>
<polygon fill="#63b8ff" stroke="#63b8ff" points="110.73,-74.17 121.33,-73.88 112.86,-67.5 110.73,-74.17"/>
</a>
</g>
</g>
<!-- Node3 -->
<g id="Node000003" class="node">
<title>Node3</title>
<g id="a_Node000003"><a xlink:href="Thread_8c.html#ad3843b7e6d392c9fbae73a55927ac248" target="_top" xlink:title="Deinitialize a mutex.">
<polygon fill="white" stroke="#666666" points="200,-56 105,-56 105,-37 200,-37 200,-56"/>
<text text-anchor="middle" x="152.5" y="-44" font-family="Helvetica,sans-Serif" font-size="10.00">SdbMutexDeinit</text>
</a>
</g>
</g>
<!-- Node1&#45;&gt;Node3 -->
<g id="edge2_Node000001_Node000003" class="edge">
<title>Node1&#45;&gt;Node3</title>
<g id="a_edge2_Node000001_Node000003"><a xlink:title=" ">
<path fill="none" stroke="#63b8ff" d="M69.05,-46.5C77.04,-46.5 85.78,-46.5 94.49,-46.5"/>
<polygon fill="#63b8ff" stroke="#63b8ff" points="94.65,-50 104.65,-46.5 94.65,-43 94.65,-50"/>
</a>
</g>
</g>
<!-- Node4 -->
<g id="Node000004" class="node">
<title>Node4</title>
<g id="a_Node000004"><a xlink:href="Thread_8c.html#ab44b8ad4cd3641c5261510ebe9803db4" target="_top" xlink:title="Initialize a mutex.">
<polygon fill="white" stroke="#666666" points="193,-19 112,-19 112,0 193,0 193,-19"/>
<text text-anchor="middle" x="152.5" y="-7" font-family="Helvetica,sans-Serif" font-size="10.00">SdbMutexInit</text>
</a>
</g>
</g>
<!-- Node1&#45;&gt;Node4 -->
<g id="edge3_Node000001_Node000004" class="edge">
<title>Node1&#45;&gt;Node4</title>
<g id="a_edge3_Node000001_Node000004"><a xlink:title=" ">
<path fill="none" stroke="#63b8ff" d="M65.37,-36.97C79.47,-32.48 96.49,-27.05 111.67,-22.2"/>
<polygon fill="#63b8ff" stroke="#63b8ff" points="112.86,-25.5 121.33,-19.12 110.73,-18.83 112.86,-25.5"/>
</a>
</g>
</g>
</g>
</svg>
