<?xml version="1.0" encoding="UTF-8" standalone="no"?>
<!DOCTYPE svg PUBLIC "-//W3C//DTD SVG 1.1//EN"
 "http://www.w3.org/Graphics/SVG/1.1/DTD/svg11.dtd">
<!-- Generated by graphviz version 2.43.0 (0)
 -->
<!-- Title: src/Common/Thread.h Pages: 1 -->
<svg width="2071pt" height="214pt"
 viewBox="0.00 0.00 2070.63 214.00" xmlns="http://www.w3.org/2000/svg" xmlns:xlink="http://www.w3.org/1999/xlink">
<g id="graph0" class="graph" transform="scale(1 1) rotate(0) translate(4 210)">
<title>src/Common/Thread.h</title>
<!-- Node1 -->
<g id="Node000001" class="node">
<title>Node1</title>
<g id="a_Node000001"><a xlink:title="Lightweight Synchronization Primitives Wrapper.">
<polygon fill="#999999" stroke="#666666" points="1230.63,-206 1106.63,-206 1106.63,-187 1230.63,-187 1230.63,-206"/>
<text text-anchor="middle" x="1168.63" y="-194" font-family="Helvetica,sans-Serif" font-size="10.00">src/Common/Thread.h</text>
</a>
</g>
</g>
<!-- Node2 -->
<g id="Node000002" class="node">
<title>Node2</title>
<g id="a_Node000002"><a xlink:href="CommProtocols_2Modbus_8c.html" target="_top" xlink:title="Implementation of Modbus protocol handling.">
<polygon fill="white" stroke="#666666" points="177.13,-90.5 16.13,-90.5 16.13,-71.5 177.13,-71.5 177.13,-90.5"/>
<text text-anchor="middle" x="96.63" y="-78.5" font-family="Helvetica,sans-Serif" font-size="10.00">src/CommProtocols/Modbus.c</text>
</a>
</g>
</g>
<!-- Node1&#45;&gt;Node2 -->
<g id="edge1_Node000001_Node000002" class="edge">
<title>Node1&#45;&gt;Node2</title>
<g id="a_edge1_Node000001_Node000002"><a xlink:title=" ">
<path fill="none" stroke="#63b8ff" d="M1096.38,-193.8C968.82,-190.16 695.53,-179.49 466.63,-151 343.92,-135.73 200.43,-105.33 133.95,-90.51"/>
<polygon fill="#63b8ff" stroke="#63b8ff" points="1096.33,-197.3 1106.42,-194.08 1096.52,-190.31 1096.33,-197.3"/>
</a>
</g>
</g>
<!-- Node3 -->
<g id="Node000003" class="node">
<title>Node3</title>
<g id="a_Node000003"><a xlink:href="CommProtocols_2Modbus_8h.html" target="_top" xlink:title="Modbus protocol implementation interface.">
<polygon fill="white" stroke="#666666" points="356.13,-90.5 195.13,-90.5 195.13,-71.5 356.13,-71.5 356.13,-90.5"/>
<text text-anchor="middle" x="275.63" y="-78.5" font-family="Helvetica,sans-Serif" font-size="10.00">src/CommProtocols/Modbus.h</text>
</a>
</g>
</g>
<!-- Node1&#45;&gt;Node3 -->
<g id="edge2_Node000001_Node000003" class="edge">
<title>Node1&#45;&gt;Node3</title>
<g id="a_edge2_Node000001_Node000003"><a xlink:title=" ">
<path fill="none" stroke="#63b8ff" d="M1096.12,-193.83C982.76,-190.38 756.9,-180.18 567.63,-151 470.08,-135.96 356.95,-105.38 304.76,-90.5"/>
<polygon fill="#63b8ff" stroke="#63b8ff" points="1096.31,-197.33 1106.41,-194.13 1096.52,-190.34 1096.31,-197.33"/>
</a>
</g>
</g>
<!-- Node4 -->
<g id="Node000004" class="node">
<title>Node4</title>
<g id="a_Node000004"><a xlink:href="SensorDataPipe_8c.html" target="_top" xlink:title="Implementation of lock free Data Pipeline.">
<polygon fill="white" stroke="#666666" points="541.13,-90.5 374.13,-90.5 374.13,-71.5 541.13,-71.5 541.13,-90.5"/>
<text text-anchor="middle" x="457.63" y="-78.5" font-family="Helvetica,sans-Serif" font-size="10.00">src/Common/SensorDataPipe.c</text>
</a>
</g>
</g>
<!-- Node1&#45;&gt;Node4 -->
<g id="edge3_Node000001_Node000004" class="edge">
<title>Node1&#45;&gt;Node4</title>
<g id="a_edge3_Node000001_Node000004"><a xlink:title=" ">
<path fill="none" stroke="#63b8ff" d="M1096.42,-196.39C991.82,-196.15 792.73,-189.92 628.63,-151 569.45,-136.96 503.92,-105.75 474.07,-90.59"/>
<polygon fill="#63b8ff" stroke="#63b8ff" points="1096.55,-199.89 1106.55,-196.4 1096.55,-192.89 1096.55,-199.89"/>
</a>
</g>
</g>
<!-- Node5 -->
<g id="Node000005" class="node">
<title>Node5</title>
<g id="a_Node000005"><a xlink:href="SensorDataPipe_8h.html" target="_top" xlink:title="Lock&#45;Free Data Pipeline.">
<polygon fill="white" stroke="#666666" points="805.13,-151 638.13,-151 638.13,-132 805.13,-132 805.13,-151"/>
<text text-anchor="middle" x="721.63" y="-139" font-family="Helvetica,sans-Serif" font-size="10.00">src/Common/SensorDataPipe.h</text>
</a>
</g>
</g>
<!-- Node1&#45;&gt;Node5 -->
<g id="edge4_Node000001_Node000005" class="edge">
<title>Node1&#45;&gt;Node5</title>
<g id="a_edge4_Node000001_Node000005"><a xlink:title=" ">
<path fill="none" stroke="#63b8ff" d="M1096.34,-186.93C1012.99,-177.05 876.82,-160.9 793.61,-151.03"/>
<polygon fill="#63b8ff" stroke="#63b8ff" points="1096.14,-190.43 1106.48,-188.13 1096.96,-183.48 1096.14,-190.43"/>
</a>
</g>
</g>
<!-- Node6 -->
<g id="Node000006" class="node">
<title>Node6</title>
<g id="a_Node000006"><a xlink:href="DataHandlers_2ModbusWithPostgres_2Modbus_8c.html" target="_top" xlink:title=" ">
<polygon fill="white" stroke="#666666" points="652.63,-30 488.63,-30 488.63,0 652.63,0 652.63,-30"/>
<text text-anchor="start" x="496.63" y="-18" font-family="Helvetica,sans-Serif" font-size="10.00">src/DataHandlers/ModbusWith</text>
<text text-anchor="middle" x="570.63" y="-7" font-family="Helvetica,sans-Serif" font-size="10.00">Postgres/Modbus.c</text>
</a>
</g>
</g>
<!-- Node1&#45;&gt;Node6 -->
<g id="edge38_Node000001_Node000006" class="edge">
<title>Node1&#45;&gt;Node6</title>
<g id="a_edge38_Node000001_Node000006"><a xlink:title=" ">
<path fill="none" stroke="#63b8ff" d="M1096.4,-195.07C853.49,-192.84 77.27,-179.22 6.63,-96 -1.99,-85.83 -2.37,-75.84 6.63,-66 38.49,-31.19 339.81,-20.47 488.48,-17.29"/>
<polygon fill="#63b8ff" stroke="#63b8ff" points="1096.51,-198.57 1106.54,-195.16 1096.57,-191.57 1096.51,-198.57"/>
</a>
</g>
</g>
<!-- Node11 -->
<g id="Node000011" class="node">
<title>Node11</title>
<g id="a_Node000011"><a xlink:href="DatabaseSystems_2Postgres_8c.html" target="_top" xlink:title="Implementation of PostgreSQL database operations.">
<polygon fill="white" stroke="#666666" points="986.63,-96 864.63,-96 864.63,-66 986.63,-66 986.63,-96"/>
<text text-anchor="start" x="872.63" y="-84" font-family="Helvetica,sans-Serif" font-size="10.00">src/DatabaseSystems</text>
<text text-anchor="middle" x="925.63" y="-73" font-family="Helvetica,sans-Serif" font-size="10.00">/Postgres.c</text>
</a>
</g>
</g>
<!-- Node1&#45;&gt;Node11 -->
<g id="edge39_Node000001_Node000011" class="edge">
<title>Node1&#45;&gt;Node11</title>
<g id="a_edge39_Node000001_Node000011"><a xlink:title=" ">
<path fill="none" stroke="#63b8ff" d="M1141.05,-182.62C1095.19,-161.2 1003.63,-118.43 956,-96.18"/>
<polygon fill="#63b8ff" stroke="#63b8ff" points="1139.83,-185.91 1150.37,-186.97 1142.79,-179.57 1139.83,-185.91"/>
</a>
</g>
</g>
<!-- Node12 -->
<g id="Node000012" class="node">
<title>Node12</title>
<g id="a_Node000012"><a xlink:href="DatabaseSystems_2Postgres_8h.html" target="_top" xlink:title="PostgreSQL interface for sensor data storage.">
<polygon fill="white" stroke="#666666" points="1126.63,-96 1004.63,-96 1004.63,-66 1126.63,-66 1126.63,-96"/>
<text text-anchor="start" x="1012.63" y="-84" font-family="Helvetica,sans-Serif" font-size="10.00">src/DatabaseSystems</text>
<text text-anchor="middle" x="1065.63" y="-73" font-family="Helvetica,sans-Serif" font-size="10.00">/Postgres.h</text>
</a>
</g>
</g>
<!-- Node1&#45;&gt;Node12 -->
<g id="edge40_Node000001_Node000012" class="edge">
<title>Node1&#45;&gt;Node12</title>
<g id="a_edge40_Node000001_Node000012"><a xlink:title=" ">
<path fill="none" stroke="#63b8ff" d="M1154,-179.37C1133.81,-157.12 1097.72,-117.36 1078.5,-96.18"/>
<polygon fill="#63b8ff" stroke="#63b8ff" points="1151.58,-181.92 1160.89,-186.97 1156.76,-177.21 1151.58,-181.92"/>
</a>
</g>
</g>
<!-- Node15 -->
<g id="Node000015" class="node">
<title>Node15</title>
<g id="a_Node000015"><a xlink:href="ThreadGroup_8c.html" target="_top" xlink:title=" ">
<polygon fill="white" stroke="#666666" points="1609.63,-24.5 1457.63,-24.5 1457.63,-5.5 1609.63,-5.5 1609.63,-24.5"/>
<text text-anchor="middle" x="1533.63" y="-12.5" font-family="Helvetica,sans-Serif" font-size="10.00">src/Common/ThreadGroup.c</text>
</a>
</g>
</g>
<!-- Node1&#45;&gt;Node15 -->
<g id="edge27_Node000001_Node000015" class="edge">
<title>Node1&#45;&gt;Node15</title>
<g id="a_edge27_Node000001_Node000015"><a xlink:title=" ">
<path fill="none" stroke="#63b8ff" d="M1241.07,-192.38C1348.27,-187.02 1538.84,-174.3 1559.63,-151 1592.7,-113.96 1554.87,-47.99 1539.52,-24.55"/>
<polygon fill="#63b8ff" stroke="#63b8ff" points="1240.78,-188.89 1230.96,-192.88 1241.12,-195.88 1240.78,-188.89"/>
</a>
</g>
</g>
<!-- Node16 -->
<g id="Node000016" class="node">
<title>Node16</title>
<g id="a_Node000016"><a xlink:href="ModbusTestServer_8c.html" target="_top" xlink:title="Implementation of Modbus Test Server.">
<polygon fill="white" stroke="#666666" points="1803.63,-24.5 1627.63,-24.5 1627.63,-5.5 1803.63,-5.5 1803.63,-24.5"/>
<text text-anchor="middle" x="1715.63" y="-12.5" font-family="Helvetica,sans-Serif" font-size="10.00">src/DevUtils/ModbusTestServer.c</text>
</a>
</g>
</g>
<!-- Node1&#45;&gt;Node16 -->
<g id="edge41_Node000001_Node000016" class="edge">
<title>Node1&#45;&gt;Node16</title>
<g id="a_edge41_Node000001_Node000016"><a xlink:title=" ">
<path fill="none" stroke="#63b8ff" d="M1240.9,-193.34C1342.2,-189.35 1520.55,-178.56 1578.63,-151 1641.99,-120.94 1693.59,-49.35 1710.09,-24.6"/>
<polygon fill="#63b8ff" stroke="#63b8ff" points="1240.6,-189.85 1230.74,-193.73 1240.87,-196.84 1240.6,-189.85"/>
</a>
</g>
</g>
<!-- Node17 -->
<g id="Node000017" class="node">
<title>Node17</title>
<g id="a_Node000017"><a xlink:href="Main_8c.html" target="_top" xlink:title="Main implementation file for the Sensor Data Handler System.">
<polygon fill="white" stroke="#666666" points="1439.63,-24.5 1373.63,-24.5 1373.63,-5.5 1439.63,-5.5 1439.63,-24.5"/>
<text text-anchor="middle" x="1406.63" y="-12.5" font-family="Helvetica,sans-Serif" font-size="10.00">src/Main.c</text>
</a>
</g>
</g>
<!-- Node1&#45;&gt;Node17 -->
<g id="edge45_Node000001_Node000017" class="edge">
<title>Node1&#45;&gt;Node17</title>
<g id="a_edge45_Node000001_Node000017"><a xlink:title=" ">
<path fill="none" stroke="#63b8ff" d="M1240.92,-191.96C1343.75,-186.17 1522.05,-173.07 1541.63,-151 1558.42,-132.1 1555.63,-103.46 1522.63,-66 1516.09,-58.57 1461.11,-36.76 1429.25,-24.54"/>
<polygon fill="#63b8ff" stroke="#63b8ff" points="1240.7,-188.47 1230.91,-192.51 1241.09,-195.46 1240.7,-188.47"/>
</a>
</g>
</g>
<!-- Node18 -->
<g id="Node000018" class="node">
<title>Node18</title>
<g id="a_Node000018"><a xlink:href="Thread_8c.html" target="_top" xlink:title="Implementation of POSIX Thread Synchronization Primitives.">
<polygon fill="white" stroke="#666666" points="1866.13,-151 1743.13,-151 1743.13,-132 1866.13,-132 1866.13,-151"/>
<text text-anchor="middle" x="1804.63" y="-139" font-family="Helvetica,sans-Serif" font-size="10.00">src/Common/Thread.c</text>
</a>
</g>
</g>
<!-- Node1&#45;&gt;Node18 -->
<g id="edge26_Node000001_Node000018" class="edge">
<title>Node1&#45;&gt;Node18</title>
<g id="a_edge26_Node000001_Node000018"><a xlink:title=" ">
<path fill="none" stroke="#63b8ff" d="M1240.86,-190.5C1347.59,-182.95 1553.7,-167.73 1728.63,-151 1733.26,-150.56 1738.04,-150.08 1742.85,-149.58"/>
<polygon fill="#63b8ff" stroke="#63b8ff" points="1240.57,-187.02 1230.84,-191.21 1241.06,-194 1240.57,-187.02"/>
</a>
</g>
</g>
<!-- Node19 -->
<g id="Node000019" class="node">
<title>Node19</title>
<g id="a_Node000019"><a xlink:href="ThreadGroup_8h.html" target="_top" xlink:title="Thread Group Management System.">
<polygon fill="white" stroke="#666666" points="1318.13,-151 1165.13,-151 1165.13,-132 1318.13,-132 1318.13,-151"/>
<text text-anchor="middle" x="1241.63" y="-139" font-family="Helvetica,sans-Serif" font-size="10.00">src/Common/ThreadGroup.h</text>
</a>
</g>
</g>
<!-- Node1&#45;&gt;Node19 -->
<g id="edge28_Node000001_Node000019" class="edge">
<title>Node1&#45;&gt;Node19</title>
<g id="a_edge28_Node000001_Node000019"><a xlink:title=" ">
<path fill="none" stroke="#63b8ff" d="M1188.78,-180.88C1201.91,-171.34 1218.62,-159.21 1229.69,-151.17"/>
<polygon fill="#63b8ff" stroke="#63b8ff" points="1186.4,-178.28 1180.36,-186.98 1190.51,-183.94 1186.4,-178.28"/>
</a>
</g>
</g>
<!-- Node21 -->
<g id="Node000021" class="node">
<title>Node21</title>
<g id="a_Node000021"><a xlink:href="ModbusTestServer_8h.html" target="_top" xlink:title="Header for Modbus Test Server Implementation.">
<polygon fill="white" stroke="#666666" points="1532.63,-151 1356.63,-151 1356.63,-132 1532.63,-132 1532.63,-151"/>
<text text-anchor="middle" x="1444.63" y="-139" font-family="Helvetica,sans-Serif" font-size="10.00">src/DevUtils/ModbusTestServer.h</text>
</a>
</g>
</g>
<!-- Node1&#45;&gt;Node21 -->
<g id="edge42_Node000001_Node000021" class="edge">
<title>Node1&#45;&gt;Node21</title>
<g id="a_edge42_Node000001_Node000021"><a xlink:title=" ">
<path fill="none" stroke="#63b8ff" d="M1222.98,-185.07C1274.72,-175.13 1351.66,-160.35 1399.94,-151.08"/>
<polygon fill="#63b8ff" stroke="#63b8ff" points="1222.14,-181.66 1212.98,-186.98 1223.46,-188.54 1222.14,-181.66"/>
</a>
</g>
</g>
<!-- Node22 -->
<g id="Node000022" class="node">
<title>Node22</title>
<g id="a_Node000022"><a xlink:href="TestDataGenerator_8c.html" target="_top" xlink:title=" ">
<polygon fill="white" stroke="#666666" points="2062.63,-151 1884.63,-151 1884.63,-132 2062.63,-132 2062.63,-151"/>
<text text-anchor="middle" x="1973.63" y="-139" font-family="Helvetica,sans-Serif" font-size="10.00">src/DevUtils/TestDataGenerator.c</text>
</a>
</g>
</g>
<!-- Node1&#45;&gt;Node22 -->
<g id="edge44_Node000001_Node000022" class="edge">
<title>Node1&#45;&gt;Node22</title>
<g id="a_edge44_Node000001_Node000022"><a xlink:title=" ">
<path fill="none" stroke="#63b8ff" d="M1241.17,-191.5C1369.28,-184.31 1643.98,-168.33 1875.63,-151 1878.53,-150.78 1881.47,-150.56 1884.44,-150.33"/>
<polygon fill="#63b8ff" stroke="#63b8ff" points="1240.88,-188.01 1231.09,-192.07 1241.27,-195 1240.88,-188.01"/>
</a>
</g>
</g>
<!-- Node5&#45;&gt;Node2 -->
<g id="edge5_Node000005_Node000002" class="edge">
<title>Node5&#45;&gt;Node2</title>
<g id="a_edge5_Node000005_Node000002"><a xlink:title=" ">
<path fill="none" stroke="#63b8ff" d="M627.75,-134.79C520.57,-127.8 340.11,-114.54 185.63,-96 173.06,-94.49 159.53,-92.53 146.91,-90.57"/>
<polygon fill="#63b8ff" stroke="#63b8ff" points="627.68,-138.3 637.89,-135.45 628.13,-131.31 627.68,-138.3"/>
</a>
</g>
</g>
<!-- Node5&#45;&gt;Node3 -->
<g id="edge6_Node000005_Node000003" class="edge">
<title>Node5&#45;&gt;Node3</title>
<g id="a_edge6_Node000005_Node000003"><a xlink:title=" ">
<path fill="none" stroke="#63b8ff" d="M637.72,-130.81C565.31,-122.26 457.96,-109.15 364.63,-96 352.86,-94.34 340.24,-92.43 328.3,-90.57"/>
<polygon fill="#63b8ff" stroke="#63b8ff" points="637.36,-134.29 647.7,-131.98 638.18,-127.34 637.36,-134.29"/>
</a>
</g>
</g>
<!-- Node5&#45;&gt;Node4 -->
<g id="edge7_Node000005_Node000004" class="edge">
<title>Node5&#45;&gt;Node4</title>
<g id="a_edge7_Node000005_Node000004"><a xlink:title=" ">
<path fill="none" stroke="#63b8ff" d="M673.45,-129.82C622.46,-118.52 543.01,-100.92 496.07,-90.52"/>
<polygon fill="#63b8ff" stroke="#63b8ff" points="672.73,-133.25 683.25,-131.99 674.24,-126.41 672.73,-133.25"/>
</a>
</g>
</g>
<!-- Node5&#45;&gt;Node6 -->
<g id="edge8_Node000005_Node000006" class="edge">
<title>Node5&#45;&gt;Node6</title>
<g id="a_edge8_Node000005_Node000006"><a xlink:title=" ">
<path fill="none" stroke="#63b8ff" d="M650.7,-129.21C629.55,-122.67 607.96,-112.33 592.63,-96 575.58,-77.83 571.53,-47.68 570.7,-30.04"/>
<polygon fill="#63b8ff" stroke="#63b8ff" points="649.78,-132.59 660.36,-131.96 651.69,-125.86 649.78,-132.59"/>
</a>
</g>
</g>
<!-- Node7 -->
<g id="Node000007" class="node">
<title>Node7</title>
<g id="a_Node000007"><a xlink:href="ModbusWithPostgres_8c.html" target="_top" xlink:title="Implementation of Modbus&#45;PostgreSQL integration.">
<polygon fill="white" stroke="#666666" points="1354.13,-30 1181.13,-30 1181.13,0 1354.13,0 1354.13,-30"/>
<text text-anchor="start" x="1189.13" y="-18" font-family="Helvetica,sans-Serif" font-size="10.00">src/DataHandlers/ModbusWith</text>
<text text-anchor="middle" x="1267.63" y="-7" font-family="Helvetica,sans-Serif" font-size="10.00">Postgres/ModbusWithPostgres.c</text>
</a>
</g>
</g>
<!-- Node5&#45;&gt;Node7 -->
<g id="edge9_Node000005_Node000007" class="edge">
<title>Node5&#45;&gt;Node7</title>
<g id="a_edge9_Node000005_Node000007"><a xlink:title=" ">
<path fill="none" stroke="#63b8ff" d="M752.83,-127.93C771.8,-119.79 796.23,-108.42 816.63,-96 835.31,-84.63 835.37,-74.21 855.63,-66 985.83,-13.26 1030.31,-47.93 1169.63,-30 1173.38,-29.52 1177.21,-29.01 1181.08,-28.5"/>
<polygon fill="#63b8ff" stroke="#63b8ff" points="751.31,-124.77 743.45,-131.88 754.03,-131.23 751.31,-124.77"/>
</a>
</g>
</g>
<!-- Node8 -->
<g id="Node000008" class="node">
<title>Node8</title>
<g id="a_Node000008"><a xlink:href="ModbusWithPostgres_8h.html" target="_top" xlink:title="Integration of Modbus and PostgreSQL data handling.">
<polygon fill="white" stroke="#666666" points="808.13,-96 635.13,-96 635.13,-66 808.13,-66 808.13,-96"/>
<text text-anchor="start" x="643.13" y="-84" font-family="Helvetica,sans-Serif" font-size="10.00">src/DataHandlers/ModbusWith</text>
<text text-anchor="middle" x="721.63" y="-73" font-family="Helvetica,sans-Serif" font-size="10.00">Postgres/ModbusWithPostgres.h</text>
</a>
</g>
</g>
<!-- Node5&#45;&gt;Node8 -->
<g id="edge10_Node000005_Node000008" class="edge">
<title>Node5&#45;&gt;Node8</title>
<g id="a_edge10_Node000005_Node000008"><a xlink:title=" ">
<path fill="none" stroke="#63b8ff" d="M721.63,-121.65C721.63,-113.36 721.63,-103.78 721.63,-96.11"/>
<polygon fill="#63b8ff" stroke="#63b8ff" points="718.13,-121.87 721.63,-131.87 725.13,-121.87 718.13,-121.87"/>
</a>
</g>
</g>
<!-- Node5&#45;&gt;Node11 -->
<g id="edge15_Node000005_Node000011" class="edge">
<title>Node5&#45;&gt;Node11</title>
<g id="a_edge15_Node000005_Node000011"><a xlink:title=" ">
<path fill="none" stroke="#63b8ff" d="M761.04,-129.2C794.01,-119.75 841.19,-106.22 876.59,-96.06"/>
<polygon fill="#63b8ff" stroke="#63b8ff" points="759.95,-125.87 751.3,-131.99 761.88,-132.6 759.95,-125.87"/>
</a>
</g>
</g>
<!-- Node5&#45;&gt;Node12 -->
<g id="edge16_Node000005_Node000012" class="edge">
<title>Node5&#45;&gt;Node12</title>
<g id="a_edge16_Node000005_Node000012"><a xlink:title=" ">
<path fill="none" stroke="#63b8ff" d="M787.95,-130.42C843.52,-121.81 924.88,-108.82 995.63,-96 998.56,-95.47 1001.55,-94.92 1004.58,-94.35"/>
<polygon fill="#63b8ff" stroke="#63b8ff" points="787.24,-126.99 777.89,-131.98 788.3,-133.91 787.24,-126.99"/>
</a>
</g>
</g>
<!-- Node13 -->
<g id="Node000013" class="node">
<title>Node13</title>
<g id="a_Node000013"><a xlink:href="Signals_8c.html" target="_top" xlink:title="Signal handling implementation for the Sensor Data Handler System.">
<polygon fill="white" stroke="#666666" points="973.13,-24.5 896.13,-24.5 896.13,-5.5 973.13,-5.5 973.13,-24.5"/>
<text text-anchor="middle" x="934.63" y="-12.5" font-family="Helvetica,sans-Serif" font-size="10.00">src/Signals.c</text>
</a>
</g>
</g>
<!-- Node5&#45;&gt;Node13 -->
<g id="edge17_Node000005_Node000013" class="edge">
<title>Node5&#45;&gt;Node13</title>
<g id="a_edge17_Node000005_Node000013"><a xlink:title=" ">
<path fill="none" stroke="#63b8ff" d="M669.31,-128.38C652.44,-121.72 635.55,-111.53 625.63,-96 618.46,-84.76 616.9,-76.07 625.63,-66 662.7,-23.27 822.1,-40.76 877.63,-30 885.64,-28.45 894.21,-26.5 902.2,-24.55"/>
<polygon fill="#63b8ff" stroke="#63b8ff" points="668.59,-131.84 679.19,-131.9 670.94,-125.24 668.59,-131.84"/>
</a>
</g>
</g>
<!-- Node14 -->
<g id="Node000014" class="node">
<title>Node14</title>
<g id="a_Node000014"><a xlink:href="Signals_8h.html" target="_top" xlink:title="Signal handling interface for the Sensor Data Handler System.">
<polygon fill="white" stroke="#666666" points="1260.63,-90.5 1182.63,-90.5 1182.63,-71.5 1260.63,-71.5 1260.63,-90.5"/>
<text text-anchor="middle" x="1221.63" y="-78.5" font-family="Helvetica,sans-Serif" font-size="10.00">src/Signals.h</text>
</a>
</g>
</g>
<!-- Node5&#45;&gt;Node14 -->
<g id="edge18_Node000005_Node000014" class="edge">
<title>Node5&#45;&gt;Node14</title>
<g id="a_edge18_Node000005_Node000014"><a xlink:title=" ">
<path fill="none" stroke="#63b8ff" d="M815.48,-131.88C899.51,-123.81 1026.01,-110.8 1135.63,-96 1150.93,-93.94 1167.68,-91.29 1182.31,-88.86"/>
<polygon fill="#63b8ff" stroke="#63b8ff" points="815.07,-128.4 805.45,-132.84 815.74,-135.37 815.07,-128.4"/>
</a>
</g>
</g>
<!-- Node8&#45;&gt;Node6 -->
<g id="edge12_Node000008_Node000006" class="edge">
<title>Node8&#45;&gt;Node6</title>
<g id="a_edge12_Node000008_Node000006"><a xlink:title=" ">
<path fill="none" stroke="#63b8ff" d="M678.98,-61.92C655.11,-51.8 625.81,-39.38 603.7,-30.01"/>
<polygon fill="#63b8ff" stroke="#63b8ff" points="677.92,-65.28 688.5,-65.95 680.66,-58.83 677.92,-65.28"/>
</a>
</g>
</g>
<!-- Node8&#45;&gt;Node7 -->
<g id="edge13_Node000008_Node000007" class="edge">
<title>Node8&#45;&gt;Node7</title>
<g id="a_edge13_Node000008_Node000007"><a xlink:title=" ">
<path fill="none" stroke="#63b8ff" d="M818.68,-66.48C820.01,-66.32 821.32,-66.16 822.63,-66 976.56,-47.35 1015.75,-48.97 1169.63,-30 1173.39,-29.54 1177.22,-29.05 1181.09,-28.55"/>
<polygon fill="#63b8ff" stroke="#63b8ff" points="817.87,-63.06 808.38,-67.78 818.74,-70 817.87,-63.06"/>
</a>
</g>
</g>
<!-- Node9 -->
<g id="Node000009" class="node">
<title>Node9</title>
<g id="a_Node000009"><a xlink:href="DataHandlers_8c.html" target="_top" xlink:title="Implementation of Data Handler Thread Group Management.">
<polygon fill="white" stroke="#666666" points="869.13,-24.5 690.13,-24.5 690.13,-5.5 869.13,-5.5 869.13,-24.5"/>
<text text-anchor="middle" x="779.63" y="-12.5" font-family="Helvetica,sans-Serif" font-size="10.00">src/DataHandlers/DataHandlers.c</text>
</a>
</g>
</g>
<!-- Node8&#45;&gt;Node9 -->
<g id="edge11_Node000008_Node000009" class="edge">
<title>Node8&#45;&gt;Node9</title>
<g id="a_edge11_Node000008_Node000009"><a xlink:title=" ">
<path fill="none" stroke="#63b8ff" d="M741.32,-58.27C751.69,-46.84 763.83,-33.44 771.62,-24.84"/>
<polygon fill="#63b8ff" stroke="#63b8ff" points="738.63,-56.04 734.51,-65.8 743.82,-60.74 738.63,-56.04"/>
</a>
</g>
</g>
<!-- Node10 -->
<g id="Node000010" class="node">
<title>Node10</title>
<g id="a_Node000010"><a xlink:href="DataHandlers_2ModbusWithPostgres_2Postgres_8c.html" target="_top" xlink:title=" ">
<polygon fill="white" stroke="#666666" points="1160.63,-30 996.63,-30 996.63,0 1160.63,0 1160.63,-30"/>
<text text-anchor="start" x="1004.63" y="-18" font-family="Helvetica,sans-Serif" font-size="10.00">src/DataHandlers/ModbusWith</text>
<text text-anchor="middle" x="1078.63" y="-7" font-family="Helvetica,sans-Serif" font-size="10.00">Postgres/Postgres.c</text>
</a>
</g>
</g>
<!-- Node8&#45;&gt;Node10 -->
<g id="edge14_Node000008_Node000010" class="edge">
<title>Node8&#45;&gt;Node10</title>
<g id="a_edge14_Node000008_Node000010"><a xlink:title=" ">
<path fill="none" stroke="#63b8ff" d="M809.94,-64.17C868.35,-53.7 944.25,-40.09 1000.47,-30.01"/>
<polygon fill="#63b8ff" stroke="#63b8ff" points="809.21,-60.75 799.98,-65.95 810.44,-67.64 809.21,-60.75"/>
</a>
</g>
</g>
<!-- Node14&#45;&gt;Node6 -->
<g id="edge20_Node000014_Node000006" class="edge">
<title>Node14&#45;&gt;Node6</title>
<g id="a_edge20_Node000014_Node000006"><a xlink:title=" ">
<path fill="none" stroke="#63b8ff" d="M1172.48,-71.28C1160.45,-69.35 1147.6,-67.45 1135.63,-66 934.24,-41.68 882.42,-50.81 680.63,-30 671.63,-29.07 662.23,-28.01 652.88,-26.9"/>
<polygon fill="#63b8ff" stroke="#63b8ff" points="1171.91,-74.73 1182.34,-72.9 1173.04,-67.83 1171.91,-74.73"/>
</a>
</g>
</g>
<!-- Node14&#45;&gt;Node7 -->
<g id="edge21_Node000014_Node000007" class="edge">
<title>Node14&#45;&gt;Node7</title>
<g id="a_edge21_Node000014_Node000007"><a xlink:title=" ">
<path fill="none" stroke="#63b8ff" d="M1233.68,-63.24C1241.03,-53.02 1250.31,-40.1 1257.31,-30.36"/>
<polygon fill="#63b8ff" stroke="#63b8ff" points="1230.83,-61.21 1227.84,-71.37 1236.52,-65.29 1230.83,-61.21"/>
</a>
</g>
</g>
<!-- Node14&#45;&gt;Node10 -->
<g id="edge22_Node000014_Node000010" class="edge">
<title>Node14&#45;&gt;Node10</title>
<g id="a_edge22_Node000014_Node000010"><a xlink:title=" ">
<path fill="none" stroke="#63b8ff" d="M1193.08,-67.22C1169.12,-56.5 1134.94,-41.2 1110.17,-30.12"/>
<polygon fill="#63b8ff" stroke="#63b8ff" points="1191.79,-70.48 1202.35,-71.37 1194.65,-64.09 1191.79,-70.48"/>
</a>
</g>
</g>
<!-- Node14&#45;&gt;Node13 -->
<g id="edge25_Node000014_Node000013" class="edge">
<title>Node14&#45;&gt;Node13</title>
<g id="a_edge25_Node000014_Node000013"><a xlink:title=" ">
<path fill="none" stroke="#63b8ff" d="M1180.64,-68.9C1176.59,-67.89 1172.54,-66.9 1168.63,-66 1088.72,-47.52 1067.55,-48.48 987.63,-30 980.5,-28.35 972.86,-26.42 965.66,-24.54"/>
<polygon fill="#63b8ff" stroke="#63b8ff" points="1180.05,-72.36 1190.61,-71.46 1181.79,-65.58 1180.05,-72.36"/>
</a>
</g>
</g>
<!-- Node14&#45;&gt;Node15 -->
<g id="edge19_Node000014_Node000015" class="edge">
<title>Node14&#45;&gt;Node15</title>
<g id="a_edge19_Node000014_Node000015"><a xlink:title=" ">
<path fill="none" stroke="#63b8ff" d="M1270.99,-69.87C1332.05,-57.35 1434.92,-36.25 1492.12,-24.52"/>
<polygon fill="#63b8ff" stroke="#63b8ff" points="1269.93,-66.52 1260.83,-71.96 1271.33,-73.38 1269.93,-66.52"/>
</a>
</g>
</g>
<!-- Node14&#45;&gt;Node16 -->
<g id="edge23_Node000014_Node000016" class="edge">
<title>Node14&#45;&gt;Node16</title>
<g id="a_edge23_Node000014_Node000016"><a xlink:title=" ">
<path fill="none" stroke="#63b8ff" d="M1271.05,-71.66C1283.32,-69.7 1296.44,-67.69 1308.63,-66 1446.03,-46.98 1481.09,-47.91 1618.63,-30 1631.54,-28.32 1645.4,-26.39 1658.48,-24.52"/>
<polygon fill="#63b8ff" stroke="#63b8ff" points="1270.3,-68.24 1260.99,-73.29 1271.42,-75.15 1270.3,-68.24"/>
</a>
</g>
</g>
<!-- Node14&#45;&gt;Node17 -->
<g id="edge24_Node000014_Node000017" class="edge">
<title>Node14&#45;&gt;Node17</title>
<g id="a_edge24_Node000014_Node000017"><a xlink:title=" ">
<path fill="none" stroke="#63b8ff" d="M1256.32,-68C1292.85,-55.36 1349.47,-35.78 1381.79,-24.6"/>
<polygon fill="#63b8ff" stroke="#63b8ff" points="1254.89,-64.79 1246.58,-71.37 1257.18,-71.41 1254.89,-64.79"/>
</a>
</g>
</g>
<!-- Node19&#45;&gt;Node7 -->
<g id="edge34_Node000019_Node000007" class="edge">
<title>Node19&#45;&gt;Node7</title>
<g id="a_edge34_Node000019_Node000007"><a xlink:title=" ">
<path fill="none" stroke="#63b8ff" d="M1255.36,-123.71C1260.95,-115.8 1266.77,-105.94 1269.63,-96 1276.06,-73.71 1273.25,-46.46 1270.52,-30.2"/>
<polygon fill="#63b8ff" stroke="#63b8ff" points="1252.55,-121.61 1249.31,-131.7 1258.13,-125.84 1252.55,-121.61"/>
</a>
</g>
</g>
<!-- Node19&#45;&gt;Node8 -->
<g id="edge35_Node000019_Node000008" class="edge">
<title>Node19&#45;&gt;Node8</title>
<g id="a_edge35_Node000019_Node000008"><a xlink:title=" ">
<path fill="none" stroke="#63b8ff" d="M1156.04,-130.87C1059.9,-120.05 904.71,-102.6 808.18,-91.74"/>
<polygon fill="#63b8ff" stroke="#63b8ff" points="1155.69,-134.35 1166.02,-131.99 1156.48,-127.4 1155.69,-134.35"/>
</a>
</g>
</g>
<!-- Node19&#45;&gt;Node9 -->
<g id="edge30_Node000019_Node000009" class="edge">
<title>Node19&#45;&gt;Node9</title>
<g id="a_edge30_Node000019_Node000009"><a xlink:title=" ">
<path fill="none" stroke="#63b8ff" d="M1219.25,-126.56C1205.82,-118.02 1188.52,-106.71 1173.63,-96 1156.17,-83.43 1155.42,-74.46 1135.63,-66 1128.96,-63.15 944.06,-38.05 843.43,-24.53"/>
<polygon fill="#63b8ff" stroke="#63b8ff" points="1217.52,-129.61 1227.85,-131.98 1221.26,-123.69 1217.52,-129.61"/>
</a>
</g>
</g>
<!-- Node19&#45;&gt;Node14 -->
<g id="edge37_Node000019_Node000014" class="edge">
<title>Node19&#45;&gt;Node14</title>
<g id="a_edge37_Node000019_Node000014"><a xlink:title=" ">
<path fill="none" stroke="#63b8ff" d="M1235.42,-122.32C1231.81,-111.78 1227.44,-98.98 1224.6,-90.67"/>
<polygon fill="#63b8ff" stroke="#63b8ff" points="1232.14,-123.54 1238.68,-131.87 1238.76,-121.27 1232.14,-123.54"/>
</a>
</g>
</g>
<!-- Node19&#45;&gt;Node15 -->
<g id="edge29_Node000019_Node000015" class="edge">
<title>Node19&#45;&gt;Node15</title>
<g id="a_edge29_Node000019_Node000015"><a xlink:title=" ">
<path fill="none" stroke="#63b8ff" d="M1328.48,-131.96C1405.89,-123.52 1509.03,-109.89 1522.63,-96 1541.47,-76.77 1538.24,-41.39 1535.45,-24.89"/>
<polygon fill="#63b8ff" stroke="#63b8ff" points="1327.79,-128.52 1318.22,-133.07 1328.54,-135.48 1327.79,-128.52"/>
</a>
</g>
</g>
<!-- Node19&#45;&gt;Node17 -->
<g id="edge36_Node000019_Node000017" class="edge">
<title>Node19&#45;&gt;Node17</title>
<g id="a_edge36_Node000019_Node000017"><a xlink:title=" ">
<path fill="none" stroke="#63b8ff" d="M1328.46,-131.45C1400.88,-122.99 1494.08,-109.67 1505.63,-96 1531.53,-65.37 1470.94,-37.96 1433.49,-24.6"/>
<polygon fill="#63b8ff" stroke="#63b8ff" points="1327.92,-127.98 1318.39,-132.6 1328.72,-134.94 1327.92,-127.98"/>
</a>
</g>
</g>
<!-- Node20 -->
<g id="Node000020" class="node">
<title>Node20</title>
<g id="a_Node000020"><a xlink:href="DataHandlers_8h.html" target="_top" xlink:title="Data Handler Management for Thread Group Creation.">
<polygon fill="white" stroke="#666666" points="1496.13,-90.5 1317.13,-90.5 1317.13,-71.5 1496.13,-71.5 1496.13,-90.5"/>
<text text-anchor="middle" x="1406.63" y="-78.5" font-family="Helvetica,sans-Serif" font-size="10.00">src/DataHandlers/DataHandlers.h</text>
</a>
</g>
</g>
<!-- Node19&#45;&gt;Node20 -->
<g id="edge31_Node000019_Node000020" class="edge">
<title>Node19&#45;&gt;Node20</title>
<g id="a_edge31_Node000019_Node000020"><a xlink:title=" ">
<path fill="none" stroke="#63b8ff" d="M1275.41,-128.52C1307.32,-117.21 1354.37,-100.53 1382.61,-90.52"/>
<polygon fill="#63b8ff" stroke="#63b8ff" points="1273.88,-125.35 1265.63,-131.99 1276.22,-131.95 1273.88,-125.35"/>
</a>
</g>
</g>
<!-- Node20&#45;&gt;Node7 -->
<g id="edge32_Node000020_Node000007" class="edge">
<title>Node20&#45;&gt;Node7</title>
<g id="a_edge32_Node000020_Node000007"><a xlink:title=" ">
<path fill="none" stroke="#63b8ff" d="M1378.57,-67.08C1355.29,-56.36 1322.25,-41.15 1298.29,-30.12"/>
<polygon fill="#63b8ff" stroke="#63b8ff" points="1377.34,-70.37 1387.89,-71.37 1380.27,-64.01 1377.34,-70.37"/>
</a>
</g>
</g>
<!-- Node20&#45;&gt;Node17 -->
<g id="edge33_Node000020_Node000017" class="edge">
<title>Node20&#45;&gt;Node17</title>
<g id="a_edge33_Node000020_Node000017"><a xlink:title=" ">
<path fill="none" stroke="#63b8ff" d="M1406.63,-61.08C1406.63,-49.13 1406.63,-34.22 1406.63,-24.91"/>
<polygon fill="#63b8ff" stroke="#63b8ff" points="1403.13,-61.37 1406.63,-71.37 1410.13,-61.37 1403.13,-61.37"/>
</a>
</g>
</g>
<!-- Node21&#45;&gt;Node7 -->
<g id="edge43_Node000021_Node000007" class="edge">
<title>Node21&#45;&gt;Node7</title>
<g id="a_edge43_Node000021_Node000007"><a xlink:title=" ">
<path fill="none" stroke="#63b8ff" d="M1473.88,-126.9C1486.04,-119.59 1498.87,-109.32 1505.63,-96 1511.68,-84.11 1514.04,-76.35 1505.63,-66 1495.82,-53.91 1418.31,-39.15 1354.36,-28.82"/>
<polygon fill="#63b8ff" stroke="#63b8ff" points="1471.89,-124.01 1464.83,-131.91 1475.28,-130.13 1471.89,-124.01"/>
</a>
</g>
</g>
</g>
</svg>
