<?xml version="1.0" encoding="UTF-8" standalone="no"?>
<!DOCTYPE svg PUBLIC "-//W3C//DTD SVG 1.1//EN"
 "http://www.w3.org/Graphics/SVG/1.1/DTD/svg11.dtd">
<!-- Generated by graphviz version 2.43.0 (0)
 -->
<!-- Title: SdbTCtlSignalStop Pages: 1 -->
<svg width="660pt" height="101pt"
 viewBox="0.00 0.00 660.00 101.00" xmlns="http://www.w3.org/2000/svg" xmlns:xlink="http://www.w3.org/1999/xlink">
<g id="graph0" class="graph" transform="scale(1 1) rotate(0) translate(4 97)">
<title>SdbTCtlSignalStop</title>
<!-- Node1 -->
<g id="Node000001" class="node">
<title>Node1</title>
<g id="a_Node000001"><a xlink:title=" ">
<polygon fill="#999999" stroke="#666666" points="105,-56 0,-56 0,-37 105,-37 105,-56"/>
<text text-anchor="middle" x="52.5" y="-44" font-family="Helvetica,sans-Serif" font-size="10.00">SdbTCtlSignalStop</text>
</a>
</g>
</g>
<!-- Node2 -->
<g id="Node000002" class="node">
<title>Node2</title>
<g id="a_Node000002"><a xlink:href="Thread_8c.html#a4afa62c84f73964b958ab68703ff32cc" target="_top" xlink:title="Broadcast on a condition variable.">
<polygon fill="white" stroke="#666666" points="249,-93 141,-93 141,-74 249,-74 249,-93"/>
<text text-anchor="middle" x="195" y="-81" font-family="Helvetica,sans-Serif" font-size="10.00">SdbCondBroadcast</text>
</a>
</g>
</g>
<!-- Node1&#45;&gt;Node2 -->
<g id="edge1_Node000001_Node000002" class="edge">
<title>Node1&#45;&gt;Node2</title>
<g id="a_edge1_Node000001_Node000002"><a xlink:title=" ">
<path fill="none" stroke="#63b8ff" d="M89.68,-56.03C107.33,-60.67 128.75,-66.32 147.59,-71.28"/>
<polygon fill="#63b8ff" stroke="#63b8ff" points="146.89,-74.71 157.45,-73.88 148.67,-67.94 146.89,-74.71"/>
</a>
</g>
</g>
<!-- Node3 -->
<g id="Node000003" class="node">
<title>Node3</title>
<g id="a_Node000003"><a xlink:href="Thread_8c.html#a5fbfdcfc990630f27e5161ec4ea18aaa" target="_top" xlink:title="Lock a mutex with timeout.">
<polygon fill="white" stroke="#666666" points="239,-56 151,-56 151,-37 239,-37 239,-56"/>
<text text-anchor="middle" x="195" y="-44" font-family="Helvetica,sans-Serif" font-size="10.00">SdbMutexLock</text>
</a>
</g>
</g>
<!-- Node1&#45;&gt;Node3 -->
<g id="edge2_Node000001_Node000003" class="edge">
<title>Node1&#45;&gt;Node3</title>
<g id="a_edge2_Node000001_Node000003"><a xlink:title=" ">
<path fill="none" stroke="#63b8ff" d="M105.02,-46.5C116.65,-46.5 129.02,-46.5 140.72,-46.5"/>
<polygon fill="#63b8ff" stroke="#63b8ff" points="140.79,-50 150.79,-46.5 140.79,-43 140.79,-50"/>
</a>
</g>
</g>
<!-- Node8 -->
<g id="Node000008" class="node">
<title>Node8</title>
<g id="a_Node000008"><a xlink:href="Thread_8c.html#a385a70a16dc0b1872fdf925d2121880c" target="_top" xlink:title="Unlock a mutex.">
<polygon fill="white" stroke="#666666" points="244.5,-19 145.5,-19 145.5,0 244.5,0 244.5,-19"/>
<text text-anchor="middle" x="195" y="-7" font-family="Helvetica,sans-Serif" font-size="10.00">SdbMutexUnlock</text>
</a>
</g>
</g>
<!-- Node1&#45;&gt;Node8 -->
<g id="edge7_Node000001_Node000008" class="edge">
<title>Node1&#45;&gt;Node8</title>
<g id="a_edge7_Node000001_Node000008"><a xlink:title=" ">
<path fill="none" stroke="#63b8ff" d="M89.68,-36.97C107.33,-32.33 128.75,-26.68 147.59,-21.72"/>
<polygon fill="#63b8ff" stroke="#63b8ff" points="148.67,-25.06 157.45,-19.12 146.89,-18.29 148.67,-25.06"/>
</a>
</g>
</g>
<!-- Node4 -->
<g id="Node000004" class="node">
<title>Node4</title>
<g id="a_Node000004"><a xlink:href="Thread_8c.html#aa16f3f5cb899e1128f1a80c021780e5f" target="_top" xlink:title=" ">
<polygon fill="white" stroke="#666666" points="374,-56 285,-56 285,-37 374,-37 374,-56"/>
<text text-anchor="middle" x="329.5" y="-44" font-family="Helvetica,sans-Serif" font-size="10.00">CreateTimeout</text>
</a>
</g>
</g>
<!-- Node3&#45;&gt;Node4 -->
<g id="edge3_Node000003_Node000004" class="edge">
<title>Node3&#45;&gt;Node4</title>
<g id="a_edge3_Node000003_Node000004"><a xlink:title=" ">
<path fill="none" stroke="#63b8ff" d="M239.02,-46.5C250.36,-46.5 262.73,-46.5 274.57,-46.5"/>
<polygon fill="#63b8ff" stroke="#63b8ff" points="274.79,-50 284.79,-46.5 274.79,-43 274.79,-50"/>
</a>
</g>
</g>
<!-- Node5 -->
<g id="Node000005" class="node">
<title>Node5</title>
<g id="a_Node000005"><a xlink:href="Time_8c.html#afad180732be23f8e46bdfc2bb349ff44" target="_top" xlink:title="Create Absolute Timeout Timestamp.">
<polygon fill="white" stroke="#666666" points="535,-56 410,-56 410,-37 535,-37 535,-56"/>
<text text-anchor="middle" x="472.5" y="-44" font-family="Helvetica,sans-Serif" font-size="10.00">SdbTimespecAbsolute</text>
</a>
</g>
</g>
<!-- Node4&#45;&gt;Node5 -->
<g id="edge4_Node000004_Node000005" class="edge">
<title>Node4&#45;&gt;Node5</title>
<g id="a_edge4_Node000004_Node000005"><a xlink:title=" ">
<path fill="none" stroke="#63b8ff" d="M374.34,-46.5C382.42,-46.5 391.04,-46.5 399.69,-46.5"/>
<polygon fill="#63b8ff" stroke="#63b8ff" points="399.83,-50 409.83,-46.5 399.83,-43 399.83,-50"/>
</a>
</g>
</g>
<!-- Node6 -->
<g id="Node000006" class="node">
<title>Node6</title>
<g id="a_Node000006"><a xlink:href="Time_8c.html#af8be68d54def6b644cac5efb8fe2e605" target="_top" xlink:title="Add Time Difference to Timestamp.">
<polygon fill="white" stroke="#666666" points="650.5,-75 572.5,-75 572.5,-56 650.5,-56 650.5,-75"/>
<text text-anchor="middle" x="611.5" y="-63" font-family="Helvetica,sans-Serif" font-size="10.00">SdbTimeAdd</text>
</a>
</g>
</g>
<!-- Node5&#45;&gt;Node6 -->
<g id="edge5_Node000005_Node000006" class="edge">
<title>Node5&#45;&gt;Node6</title>
<g id="a_edge5_Node000005_Node000006"><a xlink:title=" ">
<path fill="none" stroke="#63b8ff" d="M535.19,-55.06C544.27,-56.32 553.52,-57.6 562.28,-58.81"/>
<polygon fill="#63b8ff" stroke="#63b8ff" points="561.92,-62.3 572.31,-60.2 562.88,-55.36 561.92,-62.3"/>
</a>
</g>
</g>
<!-- Node7 -->
<g id="Node000007" class="node">
<title>Node7</title>
<g id="a_Node000007"><a xlink:href="Time_8c.html#a83d0c194706101b50506d2618e27167c" target="_top" xlink:title="Get Current Real&#45;Time Timestamp.">
<polygon fill="white" stroke="#666666" points="652,-38 571,-38 571,-19 652,-19 652,-38"/>
<text text-anchor="middle" x="611.5" y="-26" font-family="Helvetica,sans-Serif" font-size="10.00">SdbTimeNow</text>
</a>
</g>
</g>
<!-- Node5&#45;&gt;Node7 -->
<g id="edge6_Node000005_Node000007" class="edge">
<title>Node5&#45;&gt;Node7</title>
<g id="a_edge6_Node000005_Node000007"><a xlink:title=" ">
<path fill="none" stroke="#63b8ff" d="M535.19,-38.4C543.77,-37.27 552.5,-36.12 560.82,-35.03"/>
<polygon fill="#63b8ff" stroke="#63b8ff" points="561.28,-38.5 570.74,-33.72 560.37,-31.56 561.28,-38.5"/>
</a>
</g>
</g>
</g>
</svg>
