<?xml version="1.0" encoding="UTF-8" standalone="no"?>
<!DOCTYPE svg PUBLIC "-//W3C//DTD SVG 1.1//EN"
 "http://www.w3.org/Graphics/SVG/1.1/DTD/svg11.dtd">
<!-- Generated by graphviz version 2.43.0 (0)
 -->
<!-- Title: SdbCondWait Pages: 1 -->
<svg width="323pt" height="104pt"
 viewBox="0.00 0.00 323.00 104.00" xmlns="http://www.w3.org/2000/svg" xmlns:xlink="http://www.w3.org/1999/xlink">
<g id="graph0" class="graph" transform="scale(1 1) rotate(0) translate(4 100)">
<title>SdbCondWait</title>
<polygon fill="white" stroke="transparent" points="-4,4 -4,-100 319,-100 319,4 -4,4"/>
<!-- Node1 -->
<g id="node1" class="node">
<title>Node1</title>
<g id="a_node1"><a xlink:title="Wait on a condition variable with timeout.">
<polygon fill="#bfbfbf" stroke="black" points="234,-38.5 234,-57.5 315,-57.5 315,-38.5 234,-38.5"/>
<text text-anchor="middle" x="274.5" y="-45.5" font-family="Helvetica,sans-Serif" font-size="10.00">SdbCondWait</text>
</a>
</g>
</g>
<!-- Node2 -->
<g id="node2" class="node">
<title>Node2</title>
<g id="a_node2"><a xlink:href="Thread_8c.html#ac8a5ec29ca01a647dbc806ee148840bc" target="_top" xlink:title=" ">
<polygon fill="white" stroke="black" points="77.5,-76.5 77.5,-95.5 197.5,-95.5 197.5,-76.5 77.5,-76.5"/>
<text text-anchor="middle" x="137.5" y="-83.5" font-family="Helvetica,sans-Serif" font-size="10.00">SdbTCtlWaitForSignal</text>
</a>
</g>
</g>
<!-- Node1&#45;&gt;Node2 -->
<g id="edge1" class="edge">
<title>Node1&#45;&gt;Node2</title>
<path fill="none" stroke="midnightblue" d="M229.74,-60.32C211.19,-65.54 189.9,-71.53 172.56,-76.41"/>
<polygon fill="midnightblue" stroke="midnightblue" points="230.76,-63.67 239.43,-57.59 228.86,-56.93 230.76,-63.67"/>
</g>
<!-- Node3 -->
<g id="node3" class="node">
<title>Node3</title>
<g id="a_node3"><a xlink:href="Thread_8c.html#a25bd8de99cb5460de9f423913059621b" target="_top" xlink:title=" ">
<polygon fill="white" stroke="black" points="81.5,-38.5 81.5,-57.5 193.5,-57.5 193.5,-38.5 81.5,-38.5"/>
<text text-anchor="middle" x="137.5" y="-45.5" font-family="Helvetica,sans-Serif" font-size="10.00">SdbTCtlWaitForStop</text>
</a>
</g>
</g>
<!-- Node1&#45;&gt;Node3 -->
<g id="edge2" class="edge">
<title>Node1&#45;&gt;Node3</title>
<path fill="none" stroke="midnightblue" d="M223.53,-48C213.91,-48 203.78,-48 193.99,-48"/>
<polygon fill="midnightblue" stroke="midnightblue" points="223.73,-51.5 233.73,-48 223.73,-44.5 223.73,-51.5"/>
</g>
<!-- Node4 -->
<g id="node4" class="node">
<title>Node4</title>
<g id="a_node4"><a xlink:href="ThreadGroup_8c.html#a94f41b6eed9ab8ff08d3921b617a87dd" target="_top" xlink:title="Wait for Completion of All Thread Groups.">
<polygon fill="white" stroke="black" points="77,-0.5 77,-19.5 198,-19.5 198,-0.5 77,-0.5"/>
<text text-anchor="middle" x="137.5" y="-7.5" font-family="Helvetica,sans-Serif" font-size="10.00">TgManagerWaitForAll</text>
</a>
</g>
</g>
<!-- Node1&#45;&gt;Node4 -->
<g id="edge3" class="edge">
<title>Node1&#45;&gt;Node4</title>
<path fill="none" stroke="midnightblue" d="M229.74,-35.68C211.19,-30.46 189.9,-24.47 172.56,-19.59"/>
<polygon fill="midnightblue" stroke="midnightblue" points="228.86,-39.07 239.43,-38.41 230.76,-32.33 228.86,-39.07"/>
</g>
<!-- Node5 -->
<g id="node5" class="node">
<title>Node5</title>
<g id="a_node5"><a xlink:href="Main_8c.html#ae21eb8342793f7f8f0d5fda6b96c0803" target="_top" xlink:title="Main entry point for the Sensor Data Handler System.">
<polygon fill="white" stroke="black" points="0,-0.5 0,-19.5 41,-19.5 41,-0.5 0,-0.5"/>
<text text-anchor="middle" x="20.5" y="-7.5" font-family="Helvetica,sans-Serif" font-size="10.00">main</text>
</a>
</g>
</g>
<!-- Node4&#45;&gt;Node5 -->
<g id="edge4" class="edge">
<title>Node4&#45;&gt;Node5</title>
<path fill="none" stroke="midnightblue" d="M66.75,-10C57.44,-10 48.58,-10 41.21,-10"/>
<polygon fill="midnightblue" stroke="midnightblue" points="66.98,-13.5 76.98,-10 66.98,-6.5 66.98,-13.5"/>
</g>
</g>
</svg>
