<?xml version="1.0" encoding="UTF-8" standalone="no"?>
<!DOCTYPE svg PUBLIC "-//W3C//DTD SVG 1.1//EN"
 "http://www.w3.org/Graphics/SVG/1.1/DTD/svg11.dtd">
<!-- Generated by graphviz version 2.43.0 (0)
 -->
<!-- Title: SdbTimeAdd Pages: 1 -->
<svg width="990pt" height="288pt"
 viewBox="0.00 0.00 990.00 288.00" xmlns="http://www.w3.org/2000/svg" xmlns:xlink="http://www.w3.org/1999/xlink">
<g id="graph0" class="graph" transform="scale(1 1) rotate(0) translate(4 284)">
<title>SdbTimeAdd</title>
<!-- Node1 -->
<g id="Node000001" class="node">
<title>Node1</title>
<g id="a_Node000001"><a xlink:title="Add Time Difference to Timestamp.">
<polygon fill="#999999" stroke="#666666" points="982,-168 904,-168 904,-149 982,-149 982,-168"/>
<text text-anchor="middle" x="943" y="-156" font-family="Helvetica,sans-Serif" font-size="10.00">SdbTimeAdd</text>
</a>
</g>
</g>
<!-- Node2 -->
<g id="Node000002" class="node">
<title>Node2</title>
<g id="a_Node000002"><a xlink:href="Time_8c.html#afad180732be23f8e46bdfc2bb349ff44" target="_top" xlink:title="Create Absolute Timeout Timestamp.">
<polygon fill="white" stroke="#666666" points="868,-168 743,-168 743,-149 868,-149 868,-168"/>
<text text-anchor="middle" x="805.5" y="-156" font-family="Helvetica,sans-Serif" font-size="10.00">SdbTimespecAbsolute</text>
</a>
</g>
</g>
<!-- Node1&#45;&gt;Node2 -->
<g id="edge1_Node000001_Node000002" class="edge">
<title>Node1&#45;&gt;Node2</title>
<g id="a_edge1_Node000001_Node000002"><a xlink:title=" ">
<path fill="none" stroke="#63b8ff" d="M893.69,-158.5C885.42,-158.5 876.72,-158.5 868.16,-158.5"/>
<polygon fill="#63b8ff" stroke="#63b8ff" points="893.9,-162 903.9,-158.5 893.9,-155 893.9,-162"/>
</a>
</g>
</g>
<!-- Node3 -->
<g id="Node000003" class="node">
<title>Node3</title>
<g id="a_Node000003"><a xlink:href="Thread_8c.html#aa16f3f5cb899e1128f1a80c021780e5f" target="_top" xlink:title=" ">
<polygon fill="white" stroke="#666666" points="707,-168 618,-168 618,-149 707,-149 707,-168"/>
<text text-anchor="middle" x="662.5" y="-156" font-family="Helvetica,sans-Serif" font-size="10.00">CreateTimeout</text>
</a>
</g>
</g>
<!-- Node2&#45;&gt;Node3 -->
<g id="edge2_Node000002_Node000003" class="edge">
<title>Node2&#45;&gt;Node3</title>
<g id="a_edge2_Node000002_Node000003"><a xlink:title=" ">
<path fill="none" stroke="#63b8ff" d="M732.49,-158.5C723.82,-158.5 715.18,-158.5 707.09,-158.5"/>
<polygon fill="#63b8ff" stroke="#63b8ff" points="732.66,-162 742.66,-158.5 732.66,-155 732.66,-162"/>
</a>
</g>
</g>
<!-- Node4 -->
<g id="Node000004" class="node">
<title>Node4</title>
<g id="a_Node000004"><a xlink:href="Thread_8c.html#a3aa5be8c3ae6f155db4058a8b658ab91" target="_top" xlink:title="Wait on a condition variable with timeout.">
<polygon fill="white" stroke="#666666" points="578.5,-224 497.5,-224 497.5,-205 578.5,-205 578.5,-224"/>
<text text-anchor="middle" x="538" y="-212" font-family="Helvetica,sans-Serif" font-size="10.00">SdbCondWait</text>
</a>
</g>
</g>
<!-- Node3&#45;&gt;Node4 -->
<g id="edge3_Node000003_Node000004" class="edge">
<title>Node3&#45;&gt;Node4</title>
<g id="a_edge3_Node000003_Node000004"><a xlink:title=" ">
<path fill="none" stroke="#63b8ff" d="M631.12,-172.39C608.9,-182.54 579.36,-196.05 559.78,-205"/>
<polygon fill="#63b8ff" stroke="#63b8ff" points="632.8,-175.47 640.44,-168.13 629.89,-169.1 632.8,-175.47"/>
</a>
</g>
</g>
<!-- Node9 -->
<g id="Node000009" class="node">
<title>Node9</title>
<g id="a_Node000009"><a xlink:href="Thread_8c.html#a5fbfdcfc990630f27e5161ec4ea18aaa" target="_top" xlink:title="Lock a mutex with timeout.">
<polygon fill="white" stroke="#666666" points="582,-168 494,-168 494,-149 582,-149 582,-168"/>
<text text-anchor="middle" x="538" y="-156" font-family="Helvetica,sans-Serif" font-size="10.00">SdbMutexLock</text>
</a>
</g>
</g>
<!-- Node3&#45;&gt;Node9 -->
<g id="edge8_Node000003_Node000009" class="edge">
<title>Node3&#45;&gt;Node9</title>
<g id="a_edge8_Node000003_Node000009"><a xlink:title=" ">
<path fill="none" stroke="#63b8ff" d="M607.76,-158.5C599.28,-158.5 590.6,-158.5 582.39,-158.5"/>
<polygon fill="#63b8ff" stroke="#63b8ff" points="607.97,-162 617.97,-158.5 607.97,-155 607.97,-162"/>
</a>
</g>
</g>
<!-- Node16 -->
<g id="Node000016" class="node">
<title>Node16</title>
<g id="a_Node000016"><a xlink:href="Thread_8c.html#a4e936d88806cd469a2214d3973ea15b7" target="_top" xlink:title="Wait on a semaphore with timeout.">
<polygon fill="white" stroke="#666666" points="577,-131 499,-131 499,-112 577,-112 577,-131"/>
<text text-anchor="middle" x="538" y="-119" font-family="Helvetica,sans-Serif" font-size="10.00">SdbSemWait</text>
</a>
</g>
</g>
<!-- Node3&#45;&gt;Node16 -->
<g id="edge20_Node000003_Node000016" class="edge">
<title>Node3&#45;&gt;Node16</title>
<g id="a_edge20_Node000003_Node000016"><a xlink:title=" ">
<path fill="none" stroke="#63b8ff" d="M620.24,-146.04C604.12,-141.17 585.94,-135.68 570.87,-131.12"/>
<polygon fill="#63b8ff" stroke="#63b8ff" points="619.37,-149.43 629.95,-148.97 621.39,-142.73 619.37,-149.43"/>
</a>
</g>
</g>
<!-- Node5 -->
<g id="Node000005" class="node">
<title>Node5</title>
<g id="a_Node000005"><a xlink:href="Thread_8c.html#ac8a5ec29ca01a647dbc806ee148840bc" target="_top" xlink:title=" ">
<polygon fill="white" stroke="#666666" points="457.5,-280 337.5,-280 337.5,-261 457.5,-261 457.5,-280"/>
<text text-anchor="middle" x="397.5" y="-268" font-family="Helvetica,sans-Serif" font-size="10.00">SdbTCtlWaitForSignal</text>
</a>
</g>
</g>
<!-- Node4&#45;&gt;Node5 -->
<g id="edge4_Node000004_Node000005" class="edge">
<title>Node4&#45;&gt;Node5</title>
<g id="a_edge4_Node000004_Node000005"><a xlink:title=" ">
<path fill="none" stroke="#63b8ff" d="M509.93,-228.81C494.88,-236.43 475.69,-245.62 458,-252.5 450.15,-255.55 441.57,-258.42 433.42,-260.92"/>
<polygon fill="#63b8ff" stroke="#63b8ff" points="511.86,-231.75 519.15,-224.07 508.66,-225.52 511.86,-231.75"/>
</a>
</g>
</g>
<!-- Node6 -->
<g id="Node000006" class="node">
<title>Node6</title>
<g id="a_Node000006"><a xlink:href="Thread_8c.html#a25bd8de99cb5460de9f423913059621b" target="_top" xlink:title=" ">
<polygon fill="white" stroke="#666666" points="453.5,-243 341.5,-243 341.5,-224 453.5,-224 453.5,-243"/>
<text text-anchor="middle" x="397.5" y="-231" font-family="Helvetica,sans-Serif" font-size="10.00">SdbTCtlWaitForStop</text>
</a>
</g>
</g>
<!-- Node4&#45;&gt;Node6 -->
<g id="edge5_Node000004_Node000006" class="edge">
<title>Node4&#45;&gt;Node6</title>
<g id="a_edge5_Node000004_Node000006"><a xlink:title=" ">
<path fill="none" stroke="#63b8ff" d="M487.15,-221.34C476.29,-222.83 464.73,-224.41 453.68,-225.93"/>
<polygon fill="#63b8ff" stroke="#63b8ff" points="487.88,-224.77 497.31,-219.94 486.93,-217.84 487.88,-224.77"/>
</a>
</g>
</g>
<!-- Node7 -->
<g id="Node000007" class="node">
<title>Node7</title>
<g id="a_Node000007"><a xlink:href="ThreadGroup_8c.html#a94f41b6eed9ab8ff08d3921b617a87dd" target="_top" xlink:title="Wait for Completion of All Thread Groups.">
<polygon fill="white" stroke="#666666" points="458,-206 337,-206 337,-187 458,-187 458,-206"/>
<text text-anchor="middle" x="397.5" y="-194" font-family="Helvetica,sans-Serif" font-size="10.00">TgManagerWaitForAll</text>
</a>
</g>
</g>
<!-- Node4&#45;&gt;Node7 -->
<g id="edge6_Node000004_Node000007" class="edge">
<title>Node4&#45;&gt;Node7</title>
<g id="a_edge6_Node000004_Node000007"><a xlink:title=" ">
<path fill="none" stroke="#63b8ff" d="M487.28,-208.04C477.81,-206.81 467.81,-205.51 458.08,-204.24"/>
<polygon fill="#63b8ff" stroke="#63b8ff" points="486.94,-211.52 497.31,-209.34 487.85,-204.58 486.94,-211.52"/>
</a>
</g>
</g>
<!-- Node8 -->
<g id="Node000008" class="node">
<title>Node8</title>
<g id="a_Node000008"><a xlink:href="Main_8c.html#ae21eb8342793f7f8f0d5fda6b96c0803" target="_top" xlink:title="Main entry point for the Sensor Data Handler System.">
<polygon fill="white" stroke="#666666" points="41,-187 0,-187 0,-168 41,-168 41,-187"/>
<text text-anchor="middle" x="20.5" y="-175" font-family="Helvetica,sans-Serif" font-size="10.00">main</text>
</a>
</g>
</g>
<!-- Node7&#45;&gt;Node8 -->
<g id="edge7_Node000007_Node000008" class="edge">
<title>Node7&#45;&gt;Node8</title>
<g id="a_edge7_Node000007_Node000008"><a xlink:title=" ">
<path fill="none" stroke="#63b8ff" d="M326.52,-192.95C238.79,-188.51 93.53,-181.15 41.12,-178.49"/>
<polygon fill="#63b8ff" stroke="#63b8ff" points="326.5,-196.46 336.67,-193.47 326.86,-189.47 326.5,-196.46"/>
</a>
</g>
</g>
<!-- Node9&#45;&gt;Node5 -->
<g id="edge12_Node000009_Node000005" class="edge">
<title>Node9&#45;&gt;Node5</title>
<g id="a_edge12_Node000009_Node000005"><a xlink:title=" ">
<path fill="none" stroke="#63b8ff" d="M516.72,-174.41C509.15,-180.85 500.77,-188.62 494,-196.5 474.73,-218.95 481.62,-234.67 458,-252.5 453.43,-255.95 448.21,-258.74 442.79,-261"/>
<polygon fill="#63b8ff" stroke="#63b8ff" points="519,-177.07 524.49,-168.01 514.55,-171.67 519,-177.07"/>
</a>
</g>
</g>
<!-- Node9&#45;&gt;Node6 -->
<g id="edge13_Node000009_Node000006" class="edge">
<title>Node9&#45;&gt;Node6</title>
<g id="a_edge13_Node000009_Node000006"><a xlink:title=" ">
<path fill="none" stroke="#63b8ff" d="M518.55,-174.54C503.23,-187.16 480.38,-204.43 458,-215.5 451.42,-218.75 444.14,-221.55 436.99,-223.9"/>
<polygon fill="#63b8ff" stroke="#63b8ff" points="520.85,-177.18 526.25,-168.07 516.34,-171.83 520.85,-177.18"/>
</a>
</g>
</g>
<!-- Node9&#45;&gt;Node7 -->
<g id="edge16_Node000009_Node000007" class="edge">
<title>Node9&#45;&gt;Node7</title>
<g id="a_edge16_Node000009_Node000007"><a xlink:title=" ">
<path fill="none" stroke="#63b8ff" d="M492.37,-170.75C473.28,-175.98 451.32,-182.01 433.44,-186.91"/>
<polygon fill="#63b8ff" stroke="#63b8ff" points="493.33,-174.11 502.05,-168.09 491.48,-167.36 493.33,-174.11"/>
</a>
</g>
</g>
<!-- Node10 -->
<g id="Node000010" class="node">
<title>Node10</title>
<g id="a_Node000010"><a xlink:href="Thread_8c.html#ab71f0de8f1f57ba18443a8947d10cbe9" target="_top" xlink:title=" ">
<polygon fill="white" stroke="#666666" points="456.5,-130 338.5,-130 338.5,-111 456.5,-111 456.5,-130"/>
<text text-anchor="middle" x="397.5" y="-118" font-family="Helvetica,sans-Serif" font-size="10.00">SdbTCtlMarkStopped</text>
</a>
</g>
</g>
<!-- Node9&#45;&gt;Node10 -->
<g id="edge9_Node000009_Node000010" class="edge">
<title>Node9&#45;&gt;Node10</title>
<g id="a_edge9_Node000009_Node000010"><a xlink:title=" ">
<path fill="none" stroke="#63b8ff" d="M492.37,-146.25C473.28,-141.02 451.32,-134.99 433.44,-130.09"/>
<polygon fill="#63b8ff" stroke="#63b8ff" points="491.48,-149.64 502.05,-148.91 493.33,-142.89 491.48,-149.64"/>
</a>
</g>
</g>
<!-- Node11 -->
<g id="Node000011" class="node">
<title>Node11</title>
<g id="a_Node000011"><a xlink:href="Thread_8c.html#a8652a70b8480decb154cff225ebd8041" target="_top" xlink:title=" ">
<polygon fill="white" stroke="#666666" points="451.5,-93 343.5,-93 343.5,-74 451.5,-74 451.5,-93"/>
<text text-anchor="middle" x="397.5" y="-81" font-family="Helvetica,sans-Serif" font-size="10.00">SdbTCtlShouldStop</text>
</a>
</g>
</g>
<!-- Node9&#45;&gt;Node11 -->
<g id="edge10_Node000009_Node000011" class="edge">
<title>Node9&#45;&gt;Node11</title>
<g id="a_edge10_Node000009_Node000011"><a xlink:title=" ">
<path fill="none" stroke="#63b8ff" d="M499.96,-144.22C497.9,-143.05 495.89,-141.81 494,-140.5 474.86,-127.28 477.7,-114.87 458,-102.5 451.94,-98.69 445.05,-95.59 438.16,-93.07"/>
<polygon fill="#63b8ff" stroke="#63b8ff" points="498.76,-147.53 509.27,-148.9 501.91,-141.28 498.76,-147.53"/>
</a>
</g>
</g>
<!-- Node12 -->
<g id="Node000012" class="node">
<title>Node12</title>
<g id="a_Node000012"><a xlink:href="Thread_8c.html#aeef5b8eae38ea9383d6466621c42342a" target="_top" xlink:title=" ">
<polygon fill="white" stroke="#666666" points="450,-56 345,-56 345,-37 450,-37 450,-56"/>
<text text-anchor="middle" x="397.5" y="-44" font-family="Helvetica,sans-Serif" font-size="10.00">SdbTCtlSignalStop</text>
</a>
</g>
</g>
<!-- Node9&#45;&gt;Node12 -->
<g id="edge11_Node000009_Node000012" class="edge">
<title>Node9&#45;&gt;Node12</title>
<g id="a_edge11_Node000009_Node000012"><a xlink:title=" ">
<path fill="none" stroke="#63b8ff" d="M497.49,-143.47C496.27,-142.53 495.1,-141.55 494,-140.5 467.2,-115.03 485.89,-89.77 458,-65.5 453.5,-61.58 448.19,-58.47 442.62,-56"/>
<polygon fill="#63b8ff" stroke="#63b8ff" points="495.83,-146.56 506.17,-148.88 499.54,-140.62 495.83,-146.56"/>
</a>
</g>
</g>
<!-- Node13 -->
<g id="Node000013" class="node">
<title>Node13</title>
<g id="a_Node000013"><a xlink:href="ThreadGroup_8c.html#a99b84055dd294fe099f1bb31fcdaceb4" target="_top" xlink:title="Start All Thread Groups in Manager.">
<polygon fill="white" stroke="#666666" points="184,-168 77,-168 77,-149 184,-149 184,-168"/>
<text text-anchor="middle" x="130.5" y="-156" font-family="Helvetica,sans-Serif" font-size="10.00">TgManagerStartAll</text>
</a>
</g>
</g>
<!-- Node9&#45;&gt;Node13 -->
<g id="edge14_Node000009_Node000013" class="edge">
<title>Node9&#45;&gt;Node13</title>
<g id="a_edge14_Node000009_Node000013"><a xlink:title=" ">
<path fill="none" stroke="#63b8ff" d="M483.92,-158.5C406.1,-158.5 261.89,-158.5 184.25,-158.5"/>
<polygon fill="#63b8ff" stroke="#63b8ff" points="483.99,-162 493.99,-158.5 483.99,-155 483.99,-162"/>
</a>
</g>
</g>
<!-- Node14 -->
<g id="Node000014" class="node">
<title>Node14</title>
<g id="a_Node000014"><a xlink:href="ThreadGroup_8c.html#aab12be916ed17f20adc66a71e0a715c3" target="_top" xlink:title=" ">
<polygon fill="white" stroke="#666666" points="430.5,-19 364.5,-19 364.5,0 430.5,0 430.5,-19"/>
<text text-anchor="middle" x="397.5" y="-7" font-family="Helvetica,sans-Serif" font-size="10.00">TgMonitor</text>
</a>
</g>
</g>
<!-- Node9&#45;&gt;Node14 -->
<g id="edge17_Node000009_Node000014" class="edge">
<title>Node9&#45;&gt;Node14</title>
<g id="a_edge17_Node000009_Node000014"><a xlink:title=" ">
<path fill="none" stroke="#63b8ff" d="M496.42,-142.9C495.58,-142.13 494.77,-141.34 494,-140.5 458.4,-101.63 495.54,-64.5 458,-27.5 450.62,-20.23 440.41,-15.88 430.53,-13.28"/>
<polygon fill="#63b8ff" stroke="#63b8ff" points="494.68,-145.95 504.88,-148.83 498.7,-140.22 494.68,-145.95"/>
</a>
</g>
</g>
<!-- Node13&#45;&gt;Node8 -->
<g id="edge15_Node000013_Node000008" class="edge">
<title>Node13&#45;&gt;Node8</title>
<g id="a_edge15_Node000013_Node000008"><a xlink:title=" ">
<path fill="none" stroke="#63b8ff" d="M66.64,-169.56C57.4,-171.19 48.5,-172.75 41.09,-174.05"/>
<polygon fill="#63b8ff" stroke="#63b8ff" points="67.52,-172.96 76.77,-167.78 66.31,-166.06 67.52,-172.96"/>
</a>
</g>
</g>
<!-- Node15 -->
<g id="Node000015" class="node">
<title>Node15</title>
<g id="a_Node000015"><a xlink:href="ThreadGroup_8c.html#aaf638572d1f947f2ab3b6637d11029fd" target="_top" xlink:title="Start All Threads in a Thread Group.">
<polygon fill="white" stroke="#666666" points="301,-75 220,-75 220,-56 301,-56 301,-75"/>
<text text-anchor="middle" x="260.5" y="-63" font-family="Helvetica,sans-Serif" font-size="10.00">TgStartGroup</text>
</a>
</g>
</g>
<!-- Node14&#45;&gt;Node15 -->
<g id="edge18_Node000014_Node000015" class="edge">
<title>Node14&#45;&gt;Node15</title>
<g id="a_edge18_Node000014_Node000015"><a xlink:title=" ">
<path fill="none" stroke="#63b8ff" d="M354.49,-21.22C348.56,-23.16 342.59,-25.27 337,-27.5 316.29,-35.77 293.55,-47.62 278.5,-55.88"/>
<polygon fill="#63b8ff" stroke="#63b8ff" points="355.85,-24.46 364.34,-18.12 353.76,-17.78 355.85,-24.46"/>
</a>
</g>
</g>
<!-- Node15&#45;&gt;Node13 -->
<g id="edge19_Node000015_Node000013" class="edge">
<title>Node15&#45;&gt;Node13</title>
<g id="a_edge19_Node000015_Node000013"><a xlink:title=" ">
<path fill="none" stroke="#63b8ff" d="M238.01,-81.11C211.42,-100.43 166.95,-132.74 144.84,-148.81"/>
<polygon fill="#63b8ff" stroke="#63b8ff" points="240.25,-83.81 246.28,-75.1 236.14,-78.15 240.25,-83.81"/>
</a>
</g>
</g>
</g>
</svg>
