<?xml version="1.0" encoding="UTF-8" standalone="no"?>
<!DOCTYPE svg PUBLIC "-//W3C//DTD SVG 1.1//EN"
 "http://www.w3.org/Graphics/SVG/1.1/DTD/svg11.dtd">
<!-- Generated by graphviz version 2.43.0 (0)
 -->
<!-- Title: src/Common/Time.h Pages: 1 -->
<!--zoomable 269 -->

<svg id="main" version="1.1" xmlns="http://www.w3.org/2000/svg" xmlns:xlink="http://www.w3.org/1999/xlink" xml:space="preserve" onload="init(evt)">
<style type="text/css"><![CDATA[
.node, .edge {opacity: 0.7;}
.node.selected, .edge.selected {opacity: 1;}
.edge:hover path { stroke: red; }
.edge:hover polygon { stroke: red; fill: red; }
]]></style>

<defs>
  <circle id="rim" cx="0" cy="0" r="7"/>
  <circle id="rim2" cx="0" cy="0" r="3.5"/>
  <g id="zoomPlus">
    <use xlink:href="#rim" fill="#404040"><set attributeName="fill" to="#808080" begin="zoomplus.mouseover" end="zoomplus.mouseout"/></use>
    <path d="M-4,0h8M0,-4v8" fill="none" stroke="white" stroke-width="1.5" pointer-events="none"/>
  </g>
  <g id="zoomMin">
    <use xlink:href="#rim" fill="#404040"><set attributeName="fill" to="#808080" begin="zoomminus.mouseover" end="zoomminus.mouseout"/></use>
    <path d="M-4,0h8" fill="none" stroke="white" stroke-width="1.5" pointer-events="none"/>
  </g>
  <g id="arrowUp" transform="translate(30 24)">
    <use xlink:href="#rim"/>
    <path pointer-events="none" fill="none" stroke="white" stroke-width="1.5" d="M0,-3.0v7 M-2.5,-0.5L0,-3.0L2.5,-0.5"/>
  </g>
  <g id="arrowRight" transform="rotate(90) translate(36 -43)">
    <use xlink:href="#rim"/>
    <path pointer-events="none" fill="none" stroke="white" stroke-width="1.5" d="M0,-3.0v7 M-2.5,-0.5L0,-3.0L2.5,-0.5"/>
  </g>
  <g id="arrowDown" transform="rotate(180) translate(-30 -48)">
    <use xlink:href="#rim"/>
    <path pointer-events="none" fill="none" stroke="white" stroke-width="1.5" d="M0,-3.0v7 M-2.5,-0.5L0,-3.0L2.5,-0.5"/>
  </g>
  <g id="arrowLeft" transform="rotate(270) translate(-36 17)">
    <use xlink:href="#rim"/>
    <path pointer-events="none" fill="none" stroke="white" stroke-width="1.5" d="M0,-3.0v7 M-2.5,-0.5L0,-3.0L2.5,-0.5"/>
  </g>
  <g id="resetDef">
    <use xlink:href="#rim2" fill="#404040"><set attributeName="fill" to="#808080" begin="reset.mouseover" end="reset.mouseout"/></use>
  </g>
</defs>
<script type="application/ecmascript">
var viewWidth = 2100;
var viewHeight = 269;
var sectionId = 'dynsection-1';
</script>
<script type="application/ecmascript" xlink:href="svg.min.js"/>
<svg id="graph" class="graph">
<g id="viewport">
<title>src/Common/Time.h</title>
<!-- Node1 -->
<g id="Node000001" class="node">
<title>Node1</title>
<g id="a_Node000001"><a xlink:title="Lightweight Time Manipulation Utilities.">
<polygon fill="#999999" stroke="#666666" points="932.5,-261 817.5,-261 817.5,-242 932.5,-242 932.5,-261"/>
<text text-anchor="middle" x="875" y="-249" font-family="Helvetica,sans-Serif" font-size="10.00">src/Common/Time.h</text>
</a>
</g>
</g>
<!-- Node2 -->
<g id="Node000002" class="node">
<title>Node2</title>
<g id="a_Node000002"><a xlink:href="SensorDataPipe_8c.html" target="_top" xlink:title="Implementation of lock free Data Pipeline.">
<polygon fill="white" stroke="#666666" points="557.5,-90.5 390.5,-90.5 390.5,-71.5 557.5,-71.5 557.5,-90.5"/>
<text text-anchor="middle" x="474" y="-78.5" font-family="Helvetica,sans-Serif" font-size="10.00">src/Common/SensorDataPipe.c</text>
</a>
</g>
</g>
<!-- Node1&#45;&gt;Node2 -->
<g id="edge1_Node000001_Node000002" class="edge">
<title>Node1&#45;&gt;Node2</title>
<g id="a_edge1_Node000001_Node000002"><a xlink:title=" ">
<path fill="none" stroke="#63b8ff" d="M845.34,-238.04C767.77,-205.44 560.3,-118.26 494.4,-90.57"/>
<polygon fill="#63b8ff" stroke="#63b8ff" points="843.99,-241.27 854.56,-241.91 846.7,-234.81 843.99,-241.27"/>
</a>
</g>
</g>
<!-- Node3 -->
<g id="Node000003" class="node">
<title>Node3</title>
<g id="a_Node000003"><a xlink:href="Socket_8h.html" target="_top" xlink:title="Simplified Socket Communication Utilities.">
<polygon fill="white" stroke="#666666" points="302,-206 180,-206 180,-187 302,-187 302,-206"/>
<text text-anchor="middle" x="241" y="-194" font-family="Helvetica,sans-Serif" font-size="10.00">src/Common/Socket.h</text>
</a>
</g>
</g>
<!-- Node1&#45;&gt;Node3 -->
<g id="edge2_Node000001_Node000003" class="edge">
<title>Node1&#45;&gt;Node3</title>
<g id="a_edge2_Node000001_Node000003"><a xlink:title=" ">
<path fill="none" stroke="#63b8ff" d="M807.21,-244.83C683.16,-234.46 421.46,-212.59 302.35,-202.63"/>
<polygon fill="#63b8ff" stroke="#63b8ff" points="807.08,-248.33 817.34,-245.68 807.66,-241.36 807.08,-248.33"/>
</a>
</g>
</g>
<!-- Node7 -->
<g id="Node000007" class="node">
<title>Node7</title>
<g id="a_Node000007"><a xlink:href="ModbusTestServer_8c.html" target="_top" xlink:title="Implementation of Modbus Test Server.">
<polygon fill="white" stroke="#666666" points="176,-24.5 0,-24.5 0,-5.5 176,-5.5 176,-24.5"/>
<text text-anchor="middle" x="88" y="-12.5" font-family="Helvetica,sans-Serif" font-size="10.00">src/DevUtils/ModbusTestServer.c</text>
</a>
</g>
</g>
<!-- Node1&#45;&gt;Node7 -->
<g id="edge58_Node000001_Node000007" class="edge">
<title>Node1&#45;&gt;Node7</title>
<g id="a_edge58_Node000001_Node000007"><a xlink:title=" ">
<path fill="none" stroke="#63b8ff" d="M807.21,-250.27C654.63,-249.1 288.41,-242.44 171,-206 125.5,-191.88 105.08,-190.87 79,-151 52.51,-110.51 74.48,-47.77 84.07,-24.8"/>
<polygon fill="#63b8ff" stroke="#63b8ff" points="807.36,-253.77 817.39,-250.34 807.41,-246.77 807.36,-253.77"/>
</a>
</g>
</g>
<!-- Node8 -->
<g id="Node000008" class="node">
<title>Node8</title>
<g id="a_Node000008"><a xlink:href="TestDataGenerator_8c.html" target="_top" xlink:title=" ">
<polygon fill="white" stroke="#666666" points="491,-151 313,-151 313,-132 491,-132 491,-151"/>
<text text-anchor="middle" x="402" y="-139" font-family="Helvetica,sans-Serif" font-size="10.00">src/DevUtils/TestDataGenerator.c</text>
</a>
</g>
</g>
<!-- Node1&#45;&gt;Node8 -->
<g id="edge59_Node000001_Node000008" class="edge">
<title>Node1&#45;&gt;Node8</title>
<g id="a_edge59_Node000001_Node000008"><a xlink:title=" ">
<path fill="none" stroke="#63b8ff" d="M807.14,-247.16C739.2,-242.49 632.22,-231.48 543,-206 494.98,-192.29 442.31,-164.98 417.09,-151.07"/>
<polygon fill="#63b8ff" stroke="#63b8ff" points="807.07,-250.66 817.28,-247.83 807.53,-243.68 807.07,-250.66"/>
</a>
</g>
</g>
<!-- Node9 -->
<g id="Node000009" class="node">
<title>Node9</title>
<g id="a_Node000009"><a xlink:href="Thread_8c.html" target="_top" xlink:title="Implementation of POSIX Thread Synchronization Primitives.">
<polygon fill="white" stroke="#666666" points="1780.5,-151 1657.5,-151 1657.5,-132 1780.5,-132 1780.5,-151"/>
<text text-anchor="middle" x="1719" y="-139" font-family="Helvetica,sans-Serif" font-size="10.00">src/Common/Thread.c</text>
</a>
</g>
</g>
<!-- Node1&#45;&gt;Node9 -->
<g id="edge8_Node000001_Node000009" class="edge">
<title>Node1&#45;&gt;Node9</title>
<g id="a_edge8_Node000001_Node000009"><a xlink:title=" ">
<path fill="none" stroke="#63b8ff" d="M942.89,-241.81C1103.25,-221.29 1503.53,-170.07 1657.4,-150.38"/>
<polygon fill="#63b8ff" stroke="#63b8ff" points="942.15,-238.38 932.68,-243.12 943.04,-245.32 942.15,-238.38"/>
</a>
</g>
</g>
<!-- Node10 -->
<g id="Node000010" class="node">
<title>Node10</title>
<g id="a_Node000010"><a xlink:href="Thread_8h.html" target="_top" xlink:title="Lightweight Synchronization Primitives Wrapper.">
<polygon fill="white" stroke="#666666" points="937,-206 813,-206 813,-187 937,-187 937,-206"/>
<text text-anchor="middle" x="875" y="-194" font-family="Helvetica,sans-Serif" font-size="10.00">src/Common/Thread.h</text>
</a>
</g>
</g>
<!-- Node1&#45;&gt;Node10 -->
<g id="edge9_Node000001_Node000010" class="edge">
<title>Node1&#45;&gt;Node10</title>
<g id="a_edge9_Node000001_Node000010"><a xlink:title=" ">
<path fill="none" stroke="#63b8ff" d="M875,-231.66C875,-222.93 875,-212.99 875,-206.09"/>
<polygon fill="#63b8ff" stroke="#63b8ff" points="871.5,-231.75 875,-241.75 878.5,-231.75 871.5,-231.75"/>
</a>
</g>
</g>
<!-- Node16 -->
<g id="Node000016" class="node">
<title>Node16</title>
<g id="a_Node000016"><a xlink:href="DataHandlers_2ModbusWithPostgres_2Postgres_8c.html" target="_top" xlink:title=" ">
<polygon fill="white" stroke="#666666" points="1453,-30 1289,-30 1289,0 1453,0 1453,-30"/>
<text text-anchor="start" x="1297" y="-18" font-family="Helvetica,sans-Serif" font-size="10.00">src/DataHandlers/ModbusWith</text>
<text text-anchor="middle" x="1371" y="-7" font-family="Helvetica,sans-Serif" font-size="10.00">Postgres/Postgres.c</text>
</a>
</g>
</g>
<!-- Node1&#45;&gt;Node16 -->
<g id="edge57_Node000001_Node000016" class="edge">
<title>Node1&#45;&gt;Node16</title>
<g id="a_edge57_Node000001_Node000016"><a xlink:title=" ">
<path fill="none" stroke="#63b8ff" d="M943.03,-248.25C1145.51,-240.86 1733.75,-214.08 1790,-151 1818.98,-118.5 1796.02,-98.27 1741,-66 1633.53,-2.97 1586.37,-47.37 1463,-30 1459.8,-29.55 1456.54,-29.08 1453.25,-28.61"/>
<polygon fill="#63b8ff" stroke="#63b8ff" points="942.69,-244.76 932.82,-248.62 942.94,-251.75 942.69,-244.76"/>
</a>
</g>
</g>
<!-- Node21 -->
<g id="Node000021" class="node">
<title>Node21</title>
<g id="a_Node000021"><a xlink:href="ThreadGroup_8c.html" target="_top" xlink:title=" ">
<polygon fill="white" stroke="#666666" points="1967,-24.5 1815,-24.5 1815,-5.5 1967,-5.5 1967,-24.5"/>
<text text-anchor="middle" x="1891" y="-12.5" font-family="Helvetica,sans-Serif" font-size="10.00">src/Common/ThreadGroup.c</text>
</a>
</g>
</g>
<!-- Node1&#45;&gt;Node21 -->
<g id="edge55_Node000001_Node000021" class="edge">
<title>Node1&#45;&gt;Node21</title>
<g id="a_edge55_Node000001_Node000021"><a xlink:title=" ">
<path fill="none" stroke="#63b8ff" d="M943.01,-248.8C1104.65,-244.39 1508.21,-231.15 1641,-206 1718.19,-191.38 1747.45,-199.83 1809,-151 1853.68,-115.55 1879.89,-48.59 1888.15,-24.72"/>
<polygon fill="#63b8ff" stroke="#63b8ff" points="942.62,-245.31 932.72,-249.08 942.81,-252.3 942.62,-245.31"/>
</a>
</g>
</g>
<!-- Node26 -->
<g id="Node000026" class="node">
<title>Node26</title>
<g id="a_Node000026"><a xlink:href="Time_8c.html" target="_top" xlink:title="Implementation of Time Manipulation Utilities.">
<polygon fill="white" stroke="#666666" points="2092,-206 1978,-206 1978,-187 2092,-187 2092,-206"/>
<text text-anchor="middle" x="2035" y="-194" font-family="Helvetica,sans-Serif" font-size="10.00">src/Common/Time.c</text>
</a>
</g>
</g>
<!-- Node1&#45;&gt;Node26 -->
<g id="edge56_Node000001_Node000026" class="edge">
<title>Node1&#45;&gt;Node26</title>
<g id="a_edge56_Node000001_Node000026"><a xlink:title=" ">
<path fill="none" stroke="#63b8ff" d="M942.78,-249.57C1114.12,-246.83 1578.38,-236.91 1964,-206 1968.45,-205.64 1973.06,-205.22 1977.69,-204.75"/>
<polygon fill="#63b8ff" stroke="#63b8ff" points="942.6,-246.08 932.65,-249.73 942.71,-253.08 942.6,-246.08"/>
</a>
</g>
</g>
<!-- Node4 -->
<g id="Node000004" class="node">
<title>Node4</title>
<g id="a_Node000004"><a xlink:href="CommProtocols_2Modbus_8c.html" target="_top" xlink:title="Implementation of Modbus protocol handling.">
<polygon fill="white" stroke="#666666" points="372.5,-90.5 211.5,-90.5 211.5,-71.5 372.5,-71.5 372.5,-90.5"/>
<text text-anchor="middle" x="292" y="-78.5" font-family="Helvetica,sans-Serif" font-size="10.00">src/CommProtocols/Modbus.c</text>
</a>
</g>
</g>
<!-- Node3&#45;&gt;Node4 -->
<g id="edge3_Node000003_Node000004" class="edge">
<title>Node3&#45;&gt;Node4</title>
<g id="a_edge3_Node000003_Node000004"><a xlink:title=" ">
<path fill="none" stroke="#63b8ff" d="M251.63,-178.01C256.33,-169.94 261.74,-160.14 266,-151 275.84,-129.88 284.83,-103.92 289.21,-90.67"/>
<polygon fill="#63b8ff" stroke="#63b8ff" points="248.49,-176.46 246.38,-186.84 254.5,-180.04 248.49,-176.46"/>
</a>
</g>
</g>
<!-- Node5 -->
<g id="Node000005" class="node">
<title>Node5</title>
<g id="a_Node000005"><a xlink:href="Socket_8c.html" target="_top" xlink:title="Implementation of Socket Communication Utilities.">
<polygon fill="white" stroke="#666666" points="257,-151 135,-151 135,-132 257,-132 257,-151"/>
<text text-anchor="middle" x="196" y="-139" font-family="Helvetica,sans-Serif" font-size="10.00">src/Common/Socket.c</text>
</a>
</g>
</g>
<!-- Node3&#45;&gt;Node5 -->
<g id="edge4_Node000003_Node000005" class="edge">
<title>Node3&#45;&gt;Node5</title>
<g id="a_edge4_Node000003_Node000005"><a xlink:title=" ">
<path fill="none" stroke="#63b8ff" d="M226.95,-178.96C219.11,-169.72 209.67,-158.6 203.29,-151.09"/>
<polygon fill="#63b8ff" stroke="#63b8ff" points="224.43,-181.39 233.57,-186.75 229.76,-176.86 224.43,-181.39"/>
</a>
</g>
</g>
<!-- Node6 -->
<g id="Node000006" class="node">
<title>Node6</title>
<g id="a_Node000006"><a xlink:href="DataHandlers_2ModbusWithPostgres_2Modbus_8c.html" target="_top" xlink:title=" ">
<polygon fill="white" stroke="#666666" points="808,-30 644,-30 644,0 808,0 808,-30"/>
<text text-anchor="start" x="652" y="-18" font-family="Helvetica,sans-Serif" font-size="10.00">src/DataHandlers/ModbusWith</text>
<text text-anchor="middle" x="726" y="-7" font-family="Helvetica,sans-Serif" font-size="10.00">Postgres/Modbus.c</text>
</a>
</g>
</g>
<!-- Node3&#45;&gt;Node6 -->
<g id="edge5_Node000003_Node000006" class="edge">
<title>Node3&#45;&gt;Node6</title>
<g id="a_edge5_Node000003_Node000006"><a xlink:title=" ">
<path fill="none" stroke="#63b8ff" d="M172.8,-183.83C154.61,-177.27 136.98,-167.02 126,-151 96.62,-108.13 141.65,-89.67 192,-66 270,-29.34 514.44,-19.55 643.81,-16.94"/>
<polygon fill="#63b8ff" stroke="#63b8ff" points="171.74,-187.17 182.34,-186.94 173.91,-180.51 171.74,-187.17"/>
</a>
</g>
</g>
<!-- Node3&#45;&gt;Node7 -->
<g id="edge6_Node000003_Node000007" class="edge">
<title>Node3&#45;&gt;Node7</title>
<g id="a_edge6_Node000003_Node000007"><a xlink:title=" ">
<path fill="none" stroke="#63b8ff" d="M169.81,-191.51C141.41,-186.05 111.2,-174.55 93,-151 63.32,-112.58 78.37,-48.03 85.22,-24.72"/>
<polygon fill="#63b8ff" stroke="#63b8ff" points="169.31,-194.98 179.76,-193.21 170.49,-188.08 169.31,-194.98"/>
</a>
</g>
</g>
<!-- Node3&#45;&gt;Node8 -->
<g id="edge7_Node000003_Node000008" class="edge">
<title>Node3&#45;&gt;Node8</title>
<g id="a_edge7_Node000003_Node000008"><a xlink:title=" ">
<path fill="none" stroke="#63b8ff" d="M276.55,-183.8C306.59,-173.91 348.94,-159.97 375.93,-151.08"/>
<polygon fill="#63b8ff" stroke="#63b8ff" points="275.27,-180.53 266.87,-186.98 277.46,-187.18 275.27,-180.53"/>
</a>
</g>
</g>
<!-- Node10&#45;&gt;Node2 -->
<g id="edge12_Node000010_Node000002" class="edge">
<title>Node10&#45;&gt;Node2</title>
<g id="a_edge12_Node000010_Node000002"><a xlink:title=" ">
<path fill="none" stroke="#63b8ff" d="M822.91,-184.77C786.44,-176.75 736.78,-164.83 694,-151 672.56,-144.07 668.3,-139.36 647,-132 599.13,-115.46 542.57,-99.83 507.48,-90.58"/>
<polygon fill="#63b8ff" stroke="#63b8ff" points="822.31,-188.22 832.83,-186.92 823.8,-181.38 822.31,-188.22"/>
</a>
</g>
</g>
<!-- Node10&#45;&gt;Node4 -->
<g id="edge10_Node000010_Node000004" class="edge">
<title>Node10&#45;&gt;Node4</title>
<g id="a_edge10_Node000010_Node000004"><a xlink:title=" ">
<path fill="none" stroke="#63b8ff" d="M802.79,-186.52C757.28,-179.62 697.76,-168.28 647,-151 629.13,-144.91 626.98,-137.76 609,-132 608.22,-131.75 436.72,-104.76 346.33,-90.54"/>
<polygon fill="#63b8ff" stroke="#63b8ff" points="802.45,-190.01 812.86,-188.01 803.48,-183.08 802.45,-190.01"/>
</a>
</g>
</g>
<!-- Node10&#45;&gt;Node6 -->
<g id="edge47_Node000010_Node000006" class="edge">
<title>Node10&#45;&gt;Node6</title>
<g id="a_edge47_Node000010_Node000006"><a xlink:title=" ">
<path fill="none" stroke="#63b8ff" d="M805.73,-185.45C751.88,-177.27 675.42,-164.84 609,-151 574.91,-143.9 567.28,-138.12 533,-132 460.16,-119 251.41,-151.07 202,-96 193.1,-86.08 193.03,-75.87 202,-66 231.1,-33.99 503.89,-21.98 643.91,-17.89"/>
<polygon fill="#63b8ff" stroke="#63b8ff" points="805.44,-188.95 815.85,-186.98 806.48,-182.02 805.44,-188.95"/>
</a>
</g>
</g>
<!-- Node10&#45;&gt;Node7 -->
<g id="edge50_Node000010_Node000007" class="edge">
<title>Node10&#45;&gt;Node7</title>
<g id="a_edge50_Node000010_Node000007"><a xlink:title=" ">
<path fill="none" stroke="#63b8ff" d="M802.71,-194.26C732.2,-191.17 622.75,-181.33 533,-151 516.97,-145.58 516.07,-137.31 500,-132 369.15,-88.73 319.68,-147.89 192,-96 150.85,-79.28 112.05,-41.61 95.89,-24.61"/>
<polygon fill="#63b8ff" stroke="#63b8ff" points="802.69,-197.76 812.83,-194.67 802.97,-190.77 802.69,-197.76"/>
</a>
</g>
</g>
<!-- Node10&#45;&gt;Node8 -->
<g id="edge53_Node000010_Node000008" class="edge">
<title>Node10&#45;&gt;Node8</title>
<g id="a_edge53_Node000010_Node000008"><a xlink:title=" ">
<path fill="none" stroke="#63b8ff" d="M802.54,-187.38C714.76,-177.55 567.57,-161.05 478.16,-151.03"/>
<polygon fill="#63b8ff" stroke="#63b8ff" points="802.35,-190.88 812.68,-188.52 803.13,-183.92 802.35,-190.88"/>
</a>
</g>
</g>
<!-- Node10&#45;&gt;Node9 -->
<g id="edge35_Node000010_Node000009" class="edge">
<title>Node10&#45;&gt;Node9</title>
<g id="a_edge35_Node000010_Node000009"><a xlink:title=" ">
<path fill="none" stroke="#63b8ff" d="M947.61,-192.59C1084.02,-186.83 1387.82,-172.65 1643,-151 1647.63,-150.61 1652.41,-150.16 1657.23,-149.69"/>
<polygon fill="#63b8ff" stroke="#63b8ff" points="947.14,-189.11 937.3,-193.02 947.44,-196.1 947.14,-189.11"/>
</a>
</g>
</g>
<!-- Node11 -->
<g id="Node000011" class="node">
<title>Node11</title>
<g id="a_Node000011"><a xlink:href="CommProtocols_2Modbus_8h.html" target="_top" xlink:title="Modbus protocol implementation interface.">
<polygon fill="white" stroke="#666666" points="1131.5,-90.5 970.5,-90.5 970.5,-71.5 1131.5,-71.5 1131.5,-90.5"/>
<text text-anchor="middle" x="1051" y="-78.5" font-family="Helvetica,sans-Serif" font-size="10.00">src/CommProtocols/Modbus.h</text>
</a>
</g>
</g>
<!-- Node10&#45;&gt;Node11 -->
<g id="edge11_Node000010_Node000011" class="edge">
<title>Node10&#45;&gt;Node11</title>
<g id="a_edge11_Node000010_Node000011"><a xlink:title=" ">
<path fill="none" stroke="#63b8ff" d="M896.77,-181.46C933.66,-157.67 1007.4,-110.12 1037.62,-90.63"/>
<polygon fill="#63b8ff" stroke="#63b8ff" points="894.74,-178.61 888.23,-186.97 898.53,-184.49 894.74,-178.61"/>
</a>
</g>
</g>
<!-- Node12 -->
<g id="Node000012" class="node">
<title>Node12</title>
<g id="a_Node000012"><a xlink:href="SensorDataPipe_8h.html" target="_top" xlink:title="Lock&#45;Free Data Pipeline.">
<polygon fill="white" stroke="#666666" points="903.5,-151 736.5,-151 736.5,-132 903.5,-132 903.5,-151"/>
<text text-anchor="middle" x="820" y="-139" font-family="Helvetica,sans-Serif" font-size="10.00">src/Common/SensorDataPipe.h</text>
</a>
</g>
</g>
<!-- Node10&#45;&gt;Node12 -->
<g id="edge13_Node000010_Node000012" class="edge">
<title>Node10&#45;&gt;Node12</title>
<g id="a_edge13_Node000010_Node000012"><a xlink:title=" ">
<path fill="none" stroke="#63b8ff" d="M858.71,-179.8C848.96,-170.41 836.95,-158.83 828.91,-151.09"/>
<polygon fill="#63b8ff" stroke="#63b8ff" points="856.29,-182.33 865.92,-186.75 861.15,-177.29 856.29,-182.33"/>
</a>
</g>
</g>
<!-- Node17 -->
<g id="Node000017" class="node">
<title>Node17</title>
<g id="a_Node000017"><a xlink:href="DatabaseSystems_2Postgres_8c.html" target="_top" xlink:title="Implementation of PostgreSQL database operations.">
<polygon fill="white" stroke="#666666" points="698,-96 576,-96 576,-66 698,-66 698,-96"/>
<text text-anchor="start" x="584" y="-84" font-family="Helvetica,sans-Serif" font-size="10.00">src/DatabaseSystems</text>
<text text-anchor="middle" x="637" y="-73" font-family="Helvetica,sans-Serif" font-size="10.00">/Postgres.c</text>
</a>
</g>
</g>
<!-- Node10&#45;&gt;Node17 -->
<g id="edge48_Node000010_Node000017" class="edge">
<title>Node10&#45;&gt;Node17</title>
<g id="a_edge48_Node000010_Node000017"><a xlink:title=" ">
<path fill="none" stroke="#63b8ff" d="M822.33,-184.59C793.23,-177.37 757.02,-166.36 727,-151 697.91,-136.11 668.7,-111.52 651.76,-96.07"/>
<polygon fill="#63b8ff" stroke="#63b8ff" points="821.76,-188.05 832.3,-186.99 823.39,-181.25 821.76,-188.05"/>
</a>
</g>
</g>
<!-- Node18 -->
<g id="Node000018" class="node">
<title>Node18</title>
<g id="a_Node000018"><a xlink:href="DatabaseSystems_2Postgres_8h.html" target="_top" xlink:title="PostgreSQL interface for sensor data storage.">
<polygon fill="white" stroke="#666666" points="952,-96 830,-96 830,-66 952,-66 952,-96"/>
<text text-anchor="start" x="838" y="-84" font-family="Helvetica,sans-Serif" font-size="10.00">src/DatabaseSystems</text>
<text text-anchor="middle" x="891" y="-73" font-family="Helvetica,sans-Serif" font-size="10.00">/Postgres.h</text>
</a>
</g>
</g>
<!-- Node10&#45;&gt;Node18 -->
<g id="edge49_Node000010_Node000018" class="edge">
<title>Node10&#45;&gt;Node18</title>
<g id="a_edge49_Node000010_Node000018"><a xlink:title=" ">
<path fill="none" stroke="#63b8ff" d="M892.64,-179.86C900.14,-172.04 908.06,-161.91 912,-151 918.77,-132.28 909.03,-110.19 900.67,-96.15"/>
<polygon fill="#63b8ff" stroke="#63b8ff" points="890.16,-177.39 885.44,-186.87 895.05,-182.4 890.16,-177.39"/>
</a>
</g>
</g>
<!-- Node10&#45;&gt;Node21 -->
<g id="edge36_Node000010_Node000021" class="edge">
<title>Node10&#45;&gt;Node21</title>
<g id="a_edge36_Node000010_Node000021"><a xlink:title=" ">
<path fill="none" stroke="#63b8ff" d="M947.35,-194.43C1106.68,-191.54 1483.5,-181.59 1607,-151 1626.89,-146.07 1629.59,-138.57 1649,-132 1715.99,-109.32 1741.46,-129.03 1804,-96 1839.2,-77.41 1871.01,-41.05 1884.36,-24.53"/>
<polygon fill="#63b8ff" stroke="#63b8ff" points="947.11,-190.93 937.17,-194.61 947.23,-197.93 947.11,-190.93"/>
</a>
</g>
</g>
<!-- Node22 -->
<g id="Node000022" class="node">
<title>Node22</title>
<g id="a_Node000022"><a xlink:href="Main_8c.html" target="_top" xlink:title="Main implementation file for the Sensor Data Handler System.">
<polygon fill="white" stroke="#666666" points="1775,-24.5 1709,-24.5 1709,-5.5 1775,-5.5 1775,-24.5"/>
<text text-anchor="middle" x="1742" y="-12.5" font-family="Helvetica,sans-Serif" font-size="10.00">src/Main.c</text>
</a>
</g>
</g>
<!-- Node10&#45;&gt;Node22 -->
<g id="edge54_Node000010_Node000022" class="edge">
<title>Node10&#45;&gt;Node22</title>
<g id="a_edge54_Node000010_Node000022"><a xlink:title=" ">
<path fill="none" stroke="#63b8ff" d="M947.42,-194.09C1101.08,-190.58 1455.21,-179.57 1572,-151 1592.3,-146.04 1595.23,-138.76 1615,-132 1677.82,-110.5 1719.09,-148.3 1760,-96 1776.75,-74.58 1758.49,-40.59 1748.13,-24.71"/>
<polygon fill="#63b8ff" stroke="#63b8ff" points="947.07,-190.6 937.15,-194.32 947.23,-197.6 947.07,-190.6"/>
</a>
</g>
</g>
<!-- Node23 -->
<g id="Node000023" class="node">
<title>Node23</title>
<g id="a_Node000023"><a xlink:href="ThreadGroup_8h.html" target="_top" xlink:title="Thread Group Management System.">
<polygon fill="white" stroke="#666666" points="1562.5,-151 1409.5,-151 1409.5,-132 1562.5,-132 1562.5,-151"/>
<text text-anchor="middle" x="1486" y="-139" font-family="Helvetica,sans-Serif" font-size="10.00">src/Common/ThreadGroup.h</text>
</a>
</g>
</g>
<!-- Node10&#45;&gt;Node23 -->
<g id="edge37_Node000010_Node000023" class="edge">
<title>Node10&#45;&gt;Node23</title>
<g id="a_edge37_Node000010_Node000023"><a xlink:title=" ">
<path fill="none" stroke="#63b8ff" d="M947.44,-189.22C1063.57,-179.14 1290.39,-159.47 1409.21,-149.16"/>
<polygon fill="#63b8ff" stroke="#63b8ff" points="946.89,-185.75 937.23,-190.1 947.5,-192.72 946.89,-185.75"/>
</a>
</g>
</g>
<!-- Node25 -->
<g id="Node000025" class="node">
<title>Node25</title>
<g id="a_Node000025"><a xlink:href="ModbusTestServer_8h.html" target="_top" xlink:title="Header for Modbus Test Server Implementation.">
<polygon fill="white" stroke="#666666" points="1211,-151 1035,-151 1035,-132 1211,-132 1211,-151"/>
<text text-anchor="middle" x="1123" y="-139" font-family="Helvetica,sans-Serif" font-size="10.00">src/DevUtils/ModbusTestServer.h</text>
</a>
</g>
</g>
<!-- Node10&#45;&gt;Node25 -->
<g id="edge51_Node000010_Node000025" class="edge">
<title>Node10&#45;&gt;Node25</title>
<g id="a_edge51_Node000010_Node000025"><a xlink:title=" ">
<path fill="none" stroke="#63b8ff" d="M924.7,-184.88C971.18,-174.94 1039.73,-160.3 1082.84,-151.08"/>
<polygon fill="#63b8ff" stroke="#63b8ff" points="923.89,-181.47 914.85,-186.98 925.36,-188.32 923.89,-181.47"/>
</a>
</g>
</g>
<!-- Node12&#45;&gt;Node2 -->
<g id="edge16_Node000012_Node000002" class="edge">
<title>Node12&#45;&gt;Node2</title>
<g id="a_edge16_Node000012_Node000002"><a xlink:title=" ">
<path fill="none" stroke="#63b8ff" d="M759.74,-130.31C693.06,-119.04 586.8,-101.07 524.37,-90.52"/>
<polygon fill="#63b8ff" stroke="#63b8ff" points="759.25,-133.78 769.69,-131.99 760.41,-126.88 759.25,-133.78"/>
</a>
</g>
</g>
<!-- Node12&#45;&gt;Node4 -->
<g id="edge14_Node000012_Node000004" class="edge">
<title>Node12&#45;&gt;Node4</title>
<g id="a_edge14_Node000012_Node000004"><a xlink:title=" ">
<path fill="none" stroke="#63b8ff" d="M726.02,-132.48C637.01,-124.53 499.69,-111.34 381,-96 368.75,-94.42 355.58,-92.48 343.23,-90.55"/>
<polygon fill="#63b8ff" stroke="#63b8ff" points="725.82,-135.98 736.09,-133.38 726.44,-129 725.82,-135.98"/>
</a>
</g>
</g>
<!-- Node12&#45;&gt;Node6 -->
<g id="edge17_Node000012_Node000006" class="edge">
<title>Node12&#45;&gt;Node6</title>
<g id="a_edge17_Node000012_Node000006"><a xlink:title=" ">
<path fill="none" stroke="#63b8ff" d="M789.49,-127.27C775.67,-119.88 760.17,-109.43 750,-96 735.03,-76.23 729.35,-47.18 727.23,-30.06"/>
<polygon fill="#63b8ff" stroke="#63b8ff" points="788.21,-130.54 798.72,-131.89 791.35,-124.28 788.21,-130.54"/>
</a>
</g>
</g>
<!-- Node12&#45;&gt;Node11 -->
<g id="edge15_Node000012_Node000011" class="edge">
<title>Node12&#45;&gt;Node11</title>
<g id="a_edge15_Node000012_Node000011"><a xlink:title=" ">
<path fill="none" stroke="#63b8ff" d="M863.29,-129.54C907.94,-118.23 976.63,-100.83 1017.37,-90.52"/>
<polygon fill="#63b8ff" stroke="#63b8ff" points="862.42,-126.15 853.59,-131.99 864.14,-132.93 862.42,-126.15"/>
</a>
</g>
</g>
<!-- Node13 -->
<g id="Node000013" class="node">
<title>Node13</title>
<g id="a_Node000013"><a xlink:href="ModbusWithPostgres_8c.html" target="_top" xlink:title="Implementation of Modbus&#45;PostgreSQL integration.">
<polygon fill="white" stroke="#666666" points="1270.5,-30 1097.5,-30 1097.5,0 1270.5,0 1270.5,-30"/>
<text text-anchor="start" x="1105.5" y="-18" font-family="Helvetica,sans-Serif" font-size="10.00">src/DataHandlers/ModbusWith</text>
<text text-anchor="middle" x="1184" y="-7" font-family="Helvetica,sans-Serif" font-size="10.00">Postgres/ModbusWithPostgres.c</text>
</a>
</g>
</g>
<!-- Node12&#45;&gt;Node13 -->
<g id="edge18_Node000012_Node000013" class="edge">
<title>Node12&#45;&gt;Node13</title>
<g id="a_edge18_Node000012_Node000013"><a xlink:title=" ">
<path fill="none" stroke="#63b8ff" d="M814.21,-122.15C810.19,-105.43 807.65,-81.11 821,-66 839.06,-45.56 995.84,-30.07 1097.36,-22.07"/>
<polygon fill="#63b8ff" stroke="#63b8ff" points="810.86,-123.18 816.92,-131.87 817.61,-121.3 810.86,-123.18"/>
</a>
</g>
</g>
<!-- Node14 -->
<g id="Node000014" class="node">
<title>Node14</title>
<g id="a_Node000014"><a xlink:href="ModbusWithPostgres_8h.html" target="_top" xlink:title="Integration of Modbus and PostgreSQL data handling.">
<polygon fill="white" stroke="#666666" points="1457.5,-96 1284.5,-96 1284.5,-66 1457.5,-66 1457.5,-96"/>
<text text-anchor="start" x="1292.5" y="-84" font-family="Helvetica,sans-Serif" font-size="10.00">src/DataHandlers/ModbusWith</text>
<text text-anchor="middle" x="1371" y="-73" font-family="Helvetica,sans-Serif" font-size="10.00">Postgres/ModbusWithPostgres.h</text>
</a>
</g>
</g>
<!-- Node12&#45;&gt;Node14 -->
<g id="edge19_Node000012_Node000014" class="edge">
<title>Node12&#45;&gt;Node14</title>
<g id="a_edge19_Node000012_Node000014"><a xlink:title=" ">
<path fill="none" stroke="#63b8ff" d="M913.71,-132.64C1005.8,-124.61 1150.27,-111.19 1275,-96 1278.09,-95.62 1281.24,-95.23 1284.42,-94.82"/>
<polygon fill="#63b8ff" stroke="#63b8ff" points="913.23,-129.17 903.57,-133.52 913.84,-136.14 913.23,-129.17"/>
</a>
</g>
</g>
<!-- Node12&#45;&gt;Node17 -->
<g id="edge24_Node000012_Node000017" class="edge">
<title>Node12&#45;&gt;Node17</title>
<g id="a_edge24_Node000012_Node000017"><a xlink:title=" ">
<path fill="none" stroke="#63b8ff" d="M783.5,-128.83C753.99,-119.4 712.34,-106.09 681,-96.06"/>
<polygon fill="#63b8ff" stroke="#63b8ff" points="782.8,-132.28 793.39,-131.99 784.93,-125.61 782.8,-132.28"/>
</a>
</g>
</g>
<!-- Node12&#45;&gt;Node18 -->
<g id="edge25_Node000012_Node000018" class="edge">
<title>Node12&#45;&gt;Node18</title>
<g id="a_edge25_Node000012_Node000018"><a xlink:title=" ">
<path fill="none" stroke="#63b8ff" d="M838.2,-125.5C849.18,-116.45 863.09,-105 873.87,-96.11"/>
<polygon fill="#63b8ff" stroke="#63b8ff" points="835.97,-122.81 830.48,-131.87 840.42,-128.21 835.97,-122.81"/>
</a>
</g>
</g>
<!-- Node19 -->
<g id="Node000019" class="node">
<title>Node19</title>
<g id="a_Node000019"><a xlink:href="Signals_8c.html" target="_top" xlink:title="Signal handling implementation for the Sensor Data Handler System.">
<polygon fill="white" stroke="#666666" points="991.5,-24.5 914.5,-24.5 914.5,-5.5 991.5,-5.5 991.5,-24.5"/>
<text text-anchor="middle" x="953" y="-12.5" font-family="Helvetica,sans-Serif" font-size="10.00">src/Signals.c</text>
</a>
</g>
</g>
<!-- Node12&#45;&gt;Node19 -->
<g id="edge26_Node000012_Node000019" class="edge">
<title>Node12&#45;&gt;Node19</title>
<g id="a_edge26_Node000012_Node000019"><a xlink:title=" ">
<path fill="none" stroke="#63b8ff" d="M803.8,-124.08C790.12,-108.17 774.72,-83.91 788,-66 816.89,-27.06 875.29,-17.38 914.28,-15.52"/>
<polygon fill="#63b8ff" stroke="#63b8ff" points="801.3,-126.53 810.63,-131.55 806.47,-121.81 801.3,-126.53"/>
</a>
</g>
</g>
<!-- Node20 -->
<g id="Node000020" class="node">
<title>Node20</title>
<g id="a_Node000020"><a xlink:href="Signals_8h.html" target="_top" xlink:title="Signal handling interface for the Sensor Data Handler System.">
<polygon fill="white" stroke="#666666" points="1266,-90.5 1188,-90.5 1188,-71.5 1266,-71.5 1266,-90.5"/>
<text text-anchor="middle" x="1227" y="-78.5" font-family="Helvetica,sans-Serif" font-size="10.00">src/Signals.h</text>
</a>
</g>
</g>
<!-- Node12&#45;&gt;Node20 -->
<g id="edge27_Node000012_Node000020" class="edge">
<title>Node12&#45;&gt;Node20</title>
<g id="a_edge27_Node000012_Node000020"><a xlink:title=" ">
<path fill="none" stroke="#63b8ff" d="M894.79,-130.64C959.89,-121.94 1056.77,-108.69 1141,-96 1156.26,-93.7 1173.01,-91.01 1187.64,-88.61"/>
<polygon fill="#63b8ff" stroke="#63b8ff" points="894.07,-127.21 884.62,-132 895,-134.14 894.07,-127.21"/>
</a>
</g>
</g>
<!-- Node14&#45;&gt;Node6 -->
<g id="edge21_Node000014_Node000006" class="edge">
<title>Node14&#45;&gt;Node6</title>
<g id="a_edge21_Node000014_Node000006"><a xlink:title=" ">
<path fill="none" stroke="#63b8ff" d="M1274.22,-65.97C1170.54,-54.15 934.2,-33.66 808.18,-22.94"/>
<polygon fill="#63b8ff" stroke="#63b8ff" points="1274.08,-69.48 1284.42,-67.15 1274.89,-62.52 1274.08,-69.48"/>
</a>
</g>
</g>
<!-- Node14&#45;&gt;Node13 -->
<g id="edge22_Node000014_Node000013" class="edge">
<title>Node14&#45;&gt;Node13</title>
<g id="a_edge22_Node000014_Node000013"><a xlink:title=" ">
<path fill="none" stroke="#63b8ff" d="M1320.13,-62.59C1290.23,-52.36 1252.93,-39.59 1224.94,-30.01"/>
<polygon fill="#63b8ff" stroke="#63b8ff" points="1319.37,-66.03 1329.96,-65.95 1321.63,-59.41 1319.37,-66.03"/>
</a>
</g>
</g>
<!-- Node15 -->
<g id="Node000015" class="node">
<title>Node15</title>
<g id="a_Node000015"><a xlink:href="DataHandlers_8c.html" target="_top" xlink:title="Implementation of Data Handler Thread Group Management.">
<polygon fill="white" stroke="#666666" points="1650.5,-24.5 1471.5,-24.5 1471.5,-5.5 1650.5,-5.5 1650.5,-24.5"/>
<text text-anchor="middle" x="1561" y="-12.5" font-family="Helvetica,sans-Serif" font-size="10.00">src/DataHandlers/DataHandlers.c</text>
</a>
</g>
</g>
<!-- Node14&#45;&gt;Node15 -->
<g id="edge20_Node000014_Node000015" class="edge">
<title>Node14&#45;&gt;Node15</title>
<g id="a_edge20_Node000014_Node000015"><a xlink:title=" ">
<path fill="none" stroke="#63b8ff" d="M1422.25,-62.74C1458.99,-50.36 1506.88,-34.23 1535.71,-24.52"/>
<polygon fill="#63b8ff" stroke="#63b8ff" points="1421.06,-59.45 1412.7,-65.95 1423.29,-66.08 1421.06,-59.45"/>
</a>
</g>
</g>
<!-- Node14&#45;&gt;Node16 -->
<g id="edge23_Node000014_Node000016" class="edge">
<title>Node14&#45;&gt;Node16</title>
<g id="a_edge23_Node000014_Node000016"><a xlink:title=" ">
<path fill="none" stroke="#63b8ff" d="M1371,-55.54C1371,-46.96 1371,-37.61 1371,-30.16"/>
<polygon fill="#63b8ff" stroke="#63b8ff" points="1367.5,-55.8 1371,-65.8 1374.5,-55.8 1367.5,-55.8"/>
</a>
</g>
</g>
<!-- Node20&#45;&gt;Node6 -->
<g id="edge29_Node000020_Node000006" class="edge">
<title>Node20&#45;&gt;Node6</title>
<g id="a_edge29_Node000020_Node000006"><a xlink:title=" ">
<path fill="none" stroke="#63b8ff" d="M1177.8,-71.63C1165.77,-69.68 1152.94,-67.69 1141,-66 1025.68,-49.67 891.83,-34.17 808.02,-24.87"/>
<polygon fill="#63b8ff" stroke="#63b8ff" points="1177.23,-75.08 1187.66,-73.24 1178.36,-68.18 1177.23,-75.08"/>
</a>
</g>
</g>
<!-- Node20&#45;&gt;Node7 -->
<g id="edge32_Node000020_Node000007" class="edge">
<title>Node20&#45;&gt;Node7</title>
<g id="a_edge32_Node000020_Node000007"><a xlink:title=" ">
<path fill="none" stroke="#63b8ff" d="M1177.87,-71.01C1165.85,-69.09 1152.99,-67.26 1141,-66 784.69,-28.66 357.61,-19.19 176.32,-16.8"/>
<polygon fill="#63b8ff" stroke="#63b8ff" points="1177.3,-74.47 1187.74,-72.64 1178.44,-67.56 1177.3,-74.47"/>
</a>
</g>
</g>
<!-- Node20&#45;&gt;Node13 -->
<g id="edge30_Node000020_Node000013" class="edge">
<title>Node20&#45;&gt;Node13</title>
<g id="a_edge30_Node000020_Node000013"><a xlink:title=" ">
<path fill="none" stroke="#63b8ff" d="M1215.53,-62.92C1208.7,-52.76 1200.13,-40.01 1193.65,-30.36"/>
<polygon fill="#63b8ff" stroke="#63b8ff" points="1212.72,-65.02 1221.2,-71.37 1218.53,-61.12 1212.72,-65.02"/>
</a>
</g>
</g>
<!-- Node20&#45;&gt;Node16 -->
<g id="edge31_Node000020_Node000016" class="edge">
<title>Node20&#45;&gt;Node16</title>
<g id="a_edge31_Node000020_Node000016"><a xlink:title=" ">
<path fill="none" stroke="#63b8ff" d="M1255.76,-67.22C1279.88,-56.5 1314.3,-41.2 1339.24,-30.12"/>
<polygon fill="#63b8ff" stroke="#63b8ff" points="1254.14,-64.11 1246.42,-71.37 1256.98,-70.51 1254.14,-64.11"/>
</a>
</g>
</g>
<!-- Node20&#45;&gt;Node19 -->
<g id="edge34_Node000020_Node000019" class="edge">
<title>Node20&#45;&gt;Node19</title>
<g id="a_edge34_Node000020_Node000019"><a xlink:title=" ">
<path fill="none" stroke="#63b8ff" d="M1180.34,-69.1C1126.37,-56.49 1038.66,-36.01 989.45,-24.51"/>
<polygon fill="#63b8ff" stroke="#63b8ff" points="1179.8,-72.57 1190.33,-71.44 1181.39,-65.75 1179.8,-72.57"/>
</a>
</g>
</g>
<!-- Node20&#45;&gt;Node21 -->
<g id="edge28_Node000020_Node000021" class="edge">
<title>Node20&#45;&gt;Node21</title>
<g id="a_edge28_Node000020_Node000021"><a xlink:title=" ">
<path fill="none" stroke="#63b8ff" d="M1262.94,-68.81C1267.31,-67.73 1271.74,-66.75 1276,-66 1498.91,-26.7 1558.8,-52.69 1784,-30 1799.19,-28.47 1815.56,-26.49 1830.81,-24.51"/>
<polygon fill="#63b8ff" stroke="#63b8ff" points="1261.71,-65.52 1252.96,-71.5 1263.52,-72.28 1261.71,-65.52"/>
</a>
</g>
</g>
<!-- Node20&#45;&gt;Node22 -->
<g id="edge33_Node000020_Node000022" class="edge">
<title>Node20&#45;&gt;Node22</title>
<g id="a_edge33_Node000020_Node000022"><a xlink:title=" ">
<path fill="none" stroke="#63b8ff" d="M1263.26,-68.83C1267.53,-67.76 1271.84,-66.78 1276,-66 1444.46,-34.32 1490.06,-52.44 1660,-30 1676.18,-27.86 1694.05,-24.89 1708.97,-22.22"/>
<polygon fill="#63b8ff" stroke="#63b8ff" points="1262.23,-65.49 1253.49,-71.47 1264.05,-72.25 1262.23,-65.49"/>
</a>
</g>
</g>
<!-- Node23&#45;&gt;Node13 -->
<g id="edge43_Node000023_Node000013" class="edge">
<title>Node23&#45;&gt;Node13</title>
<g id="a_edge43_Node000023_Node000013"><a xlink:title=" ">
<path fill="none" stroke="#63b8ff" d="M1486.55,-121.49C1485.94,-104.47 1482.19,-80.09 1467,-66 1459.7,-59.22 1351.31,-41.43 1270.83,-29.02"/>
<polygon fill="#63b8ff" stroke="#63b8ff" points="1483.05,-121.89 1486.56,-131.88 1490.05,-121.88 1483.05,-121.89"/>
</a>
</g>
</g>
<!-- Node23&#45;&gt;Node14 -->
<g id="edge44_Node000023_Node000014" class="edge">
<title>Node23&#45;&gt;Node14</title>
<g id="a_edge44_Node000023_Node000014"><a xlink:title=" ">
<path fill="none" stroke="#63b8ff" d="M1460.11,-127.33C1441.84,-118.04 1417.41,-105.61 1398.75,-96.11"/>
<polygon fill="#63b8ff" stroke="#63b8ff" points="1458.53,-130.45 1469.03,-131.87 1461.71,-124.21 1458.53,-130.45"/>
</a>
</g>
</g>
<!-- Node23&#45;&gt;Node15 -->
<g id="edge39_Node000023_Node000015" class="edge">
<title>Node23&#45;&gt;Node15</title>
<g id="a_edge39_Node000023_Node000015"><a xlink:title=" ">
<path fill="none" stroke="#63b8ff" d="M1496.43,-123.18C1512.72,-96.15 1543.57,-44.93 1555.81,-24.62"/>
<polygon fill="#63b8ff" stroke="#63b8ff" points="1493.32,-121.57 1491.16,-131.94 1499.31,-125.18 1493.32,-121.57"/>
</a>
</g>
</g>
<!-- Node23&#45;&gt;Node20 -->
<g id="edge46_Node000023_Node000020" class="edge">
<title>Node23&#45;&gt;Node20</title>
<g id="a_edge46_Node000023_Node000020"><a xlink:title=" ">
<path fill="none" stroke="#63b8ff" d="M1431.27,-129.99C1388.75,-121.56 1328.4,-109.02 1276,-96 1269.39,-94.36 1262.32,-92.44 1255.67,-90.55"/>
<polygon fill="#63b8ff" stroke="#63b8ff" points="1430.65,-133.43 1441.14,-131.93 1432.01,-126.56 1430.65,-133.43"/>
</a>
</g>
</g>
<!-- Node23&#45;&gt;Node21 -->
<g id="edge38_Node000023_Node000021" class="edge">
<title>Node23&#45;&gt;Node21</title>
<g id="a_edge38_Node000023_Node000021"><a xlink:title=" ">
<path fill="none" stroke="#63b8ff" d="M1572.8,-135.02C1627.81,-129.47 1699.69,-118.33 1760,-96 1808.48,-78.05 1858.71,-41.36 1880.2,-24.65"/>
<polygon fill="#63b8ff" stroke="#63b8ff" points="1572.35,-131.55 1562.73,-136 1573.02,-138.52 1572.35,-131.55"/>
</a>
</g>
</g>
<!-- Node23&#45;&gt;Node22 -->
<g id="edge45_Node000023_Node000022" class="edge">
<title>Node23&#45;&gt;Node22</title>
<g id="a_edge45_Node000023_Node000022"><a xlink:title=" ">
<path fill="none" stroke="#63b8ff" d="M1572.87,-130.84C1642.36,-122.22 1729.95,-108.98 1741,-96 1758.29,-75.69 1750.21,-40.85 1745.09,-24.69"/>
<polygon fill="#63b8ff" stroke="#63b8ff" points="1572.27,-127.38 1562.77,-132.07 1573.12,-134.33 1572.27,-127.38"/>
</a>
</g>
</g>
<!-- Node24 -->
<g id="Node000024" class="node">
<title>Node24</title>
<g id="a_Node000024"><a xlink:href="DataHandlers_8h.html" target="_top" xlink:title="Data Handler Management for Thread Group Creation.">
<polygon fill="white" stroke="#666666" points="1731.5,-90.5 1552.5,-90.5 1552.5,-71.5 1731.5,-71.5 1731.5,-90.5"/>
<text text-anchor="middle" x="1642" y="-78.5" font-family="Helvetica,sans-Serif" font-size="10.00">src/DataHandlers/DataHandlers.h</text>
</a>
</g>
</g>
<!-- Node23&#45;&gt;Node24 -->
<g id="edge40_Node000023_Node000024" class="edge">
<title>Node23&#45;&gt;Node24</title>
<g id="a_edge40_Node000023_Node000024"><a xlink:title=" ">
<path fill="none" stroke="#63b8ff" d="M1518.33,-128.38C1548.48,-117.07 1592.7,-100.49 1619.29,-90.52"/>
<polygon fill="#63b8ff" stroke="#63b8ff" points="1516.82,-125.21 1508.68,-131.99 1519.28,-131.76 1516.82,-125.21"/>
</a>
</g>
</g>
<!-- Node24&#45;&gt;Node13 -->
<g id="edge41_Node000024_Node000013" class="edge">
<title>Node24&#45;&gt;Node13</title>
<g id="a_edge41_Node000024_Node000013"><a xlink:title=" ">
<path fill="none" stroke="#63b8ff" d="M1569.17,-70.11C1496.05,-60.13 1380.19,-44.22 1280,-30 1276.91,-29.56 1273.77,-29.11 1270.6,-28.66"/>
<polygon fill="#63b8ff" stroke="#63b8ff" points="1568.82,-73.59 1579.2,-71.47 1569.76,-66.65 1568.82,-73.59"/>
</a>
</g>
</g>
<!-- Node24&#45;&gt;Node22 -->
<g id="edge42_Node000024_Node000022" class="edge">
<title>Node24&#45;&gt;Node22</title>
<g id="a_edge42_Node000024_Node000022"><a xlink:title=" ">
<path fill="none" stroke="#63b8ff" d="M1664.11,-65.85C1683.77,-53.27 1711.88,-35.28 1728.41,-24.7"/>
<polygon fill="#63b8ff" stroke="#63b8ff" points="1662.02,-63.03 1655.49,-71.37 1665.8,-68.93 1662.02,-63.03"/>
</a>
</g>
</g>
<!-- Node25&#45;&gt;Node13 -->
<g id="edge52_Node000025_Node000013" class="edge">
<title>Node25&#45;&gt;Node13</title>
<g id="a_edge52_Node000025_Node000013"><a xlink:title=" ">
<path fill="none" stroke="#63b8ff" d="M1131.62,-122.91C1143.81,-98.03 1165.86,-53.03 1177.06,-30.16"/>
<polygon fill="#63b8ff" stroke="#63b8ff" points="1128.45,-121.42 1127.19,-131.94 1134.74,-124.5 1128.45,-121.42"/>
</a>
</g>
</g>
</g>
</svg>

<g id="navigator" transform="translate(0 0)" fill="#404254">
  <rect fill="#f2f5e9" fill-opacity="0.5" stroke="#606060" stroke-width=".5" x="0" y="0" width="60" height="60"/>
  <use id="zoomplus" xlink:href="#zoomPlus" x="17" y="9" onmousedown="handleZoom(evt,'in')"/>
  <use id="zoomminus" xlink:href="#zoomMin" x="42" y="9" onmousedown="handleZoom(evt,'out')"/>
  <use id="reset" xlink:href="#resetDef" x="30" y="36" onmousedown="handleReset()"/>
   <use id="arrowup" xlink:href="#arrowUp" x="0" y="0" onmousedown="handlePan(0,-1)"/>
  <use id="arrowright" xlink:href="#arrowRight" x="0" y="0" onmousedown="handlePan(1,0)"/>
  <use id="arrowdown" xlink:href="#arrowDown" x="0" y="0" onmousedown="handlePan(0,1)"/>
  <use id="arrowleft" xlink:href="#arrowLeft" x="0" y="0" onmousedown="handlePan(-1,0)"/>
</g>
<svg viewBox="0 0 15 15" width="100%" height="30px" preserveAspectRatio="xMaxYMin meet">
 <g id="arrow_out" transform="scale(0.3 0.3)">
  <a xlink:href="Time_8h__dep__incl_org.svg" target="_base">
   <rect id="button" ry="5" rx="5" y="6" x="6" height="38" width="38"
        fill="#f2f5e9" fill-opacity="0.5" stroke="#606060" stroke-width="1.0"/>
   <path id="arrow"
     d="M 11.500037,31.436501 C 11.940474,20.09759 22.043105,11.32322 32.158766,21.979434 L 37.068811,17.246167 C 37.068811,17.246167 37.088388,32 37.088388,32 L 22.160133,31.978069 C 22.160133,31.978069 26.997745,27.140456 26.997745,27.140456 C 18.528582,18.264221 13.291696,25.230495 11.500037,31.436501 z"
     style="fill:#404040;"/>
  </a>
 </g>
</svg>

<style type='text/css'>
<![CDATA[
[data-mouse-over-selected='false'] { opacity: 0.7; }
[data-mouse-over-selected='true']  { opacity: 1.0; }
]]>
</style>
<script type="application/ecmascript"><![CDATA[
document.addEventListener('DOMContentLoaded', (event) => {
  highlightEdges();
  highlightAdjacentNodes();
});
]]></script>
</svg>
