<?xml version="1.0" encoding="UTF-8" standalone="no"?>
<!DOCTYPE svg PUBLIC "-//W3C//DTD SVG 1.1//EN"
 "http://www.w3.org/Graphics/SVG/1.1/DTD/svg11.dtd">
<!-- Generated by graphviz version 2.43.0 (0)
 -->
<!-- Title: src/Common/Time.h Pages: 1 -->
<svg width="2164pt" height="274pt"
 viewBox="0.00 0.00 2163.86 274.00" xmlns="http://www.w3.org/2000/svg" xmlns:xlink="http://www.w3.org/1999/xlink">
<g id="graph0" class="graph" transform="scale(1 1) rotate(0) translate(4 270)">
<title>src/Common/Time.h</title>
<polygon fill="white" stroke="transparent" points="-4,4 -4,-270 2159.86,-270 2159.86,4 -4,4"/>
<!-- Node1 -->
<g id="node1" class="node">
<title>Node1</title>
<g id="a_node1"><a xlink:title="Lightweight Time Manipulation Utilities.">
<polygon fill="#bfbfbf" stroke="black" points="872.36,-246.5 872.36,-265.5 987.36,-265.5 987.36,-246.5 872.36,-246.5"/>
<text text-anchor="middle" x="929.86" y="-253.5" font-family="Helvetica,sans-Serif" font-size="10.00">src/Common/Time.h</text>
</a>
</g>
</g>
<!-- Node2 -->
<g id="node2" class="node">
<title>Node2</title>
<g id="a_node2"><a xlink:href="SensorDataPipe_8c.html" target="_top" xlink:title="Implementation of lock free Data Pipeline.">
<polygon fill="white" stroke="black" points="417.36,-73 417.36,-92 584.36,-92 584.36,-73 417.36,-73"/>
<text text-anchor="middle" x="500.86" y="-80" font-family="Helvetica,sans-Serif" font-size="10.00">src/Common/SensorDataPipe.c</text>
</a>
</g>
</g>
<!-- Node1&#45;&gt;Node2 -->
<g id="edge1" class="edge">
<title>Node1&#45;&gt;Node2</title>
<path fill="none" stroke="midnightblue" d="M862.08,-248.8C783.88,-239 654,-214.37 559.86,-154 534.6,-137.8 514.62,-107.37 505.79,-92.35"/>
<polygon fill="midnightblue" stroke="midnightblue" points="861.94,-252.31 872.29,-250.03 862.78,-245.36 861.94,-252.31"/>
</g>
<!-- Node3 -->
<g id="node3" class="node">
<title>Node3</title>
<g id="a_node3"><a xlink:href="Socket_8h.html" target="_top" xlink:title="Simplified Socket Communication Utilities.">
<polygon fill="white" stroke="black" points="137.86,-190.5 137.86,-209.5 259.86,-209.5 259.86,-190.5 137.86,-190.5"/>
<text text-anchor="middle" x="198.86" y="-197.5" font-family="Helvetica,sans-Serif" font-size="10.00">src/Common/Socket.h</text>
</a>
</g>
</g>
<!-- Node1&#45;&gt;Node3 -->
<g id="edge2" class="edge">
<title>Node1&#45;&gt;Node3</title>
<path fill="none" stroke="midnightblue" d="M861.91,-249.98C720.29,-239.52 395.48,-215.52 259.98,-205.51"/>
<polygon fill="midnightblue" stroke="midnightblue" points="861.96,-253.49 872.19,-250.74 862.48,-246.51 861.96,-253.49"/>
</g>
<!-- Node7 -->
<g id="node7" class="node">
<title>Node7</title>
<g id="a_node7"><a xlink:href="ModbusTestServer_8c.html" target="_top" xlink:title="Implementation of Modbus Test Server.">
<polygon fill="white" stroke="black" points="17.86,-6 17.86,-25 193.86,-25 193.86,-6 17.86,-6"/>
<text text-anchor="middle" x="105.86" y="-13" font-family="Helvetica,sans-Serif" font-size="10.00">src/DevUtils/ModbusTestServer.c</text>
</a>
</g>
</g>
<!-- Node1&#45;&gt;Node7 -->
<g id="edge58" class="edge">
<title>Node1&#45;&gt;Node7</title>
<path fill="none" stroke="midnightblue" d="M862.04,-254.48C694.92,-252.68 266.87,-244.71 128.86,-210 71.78,-195.65 40.47,-203.64 8.86,-154 -2.09,-136.81 -5.96,-102.45 17.86,-67 31.91,-46.09 57.72,-32.79 77.77,-25.11"/>
<polygon fill="midnightblue" stroke="midnightblue" points="862.16,-257.98 872.19,-254.59 862.23,-250.98 862.16,-257.98"/>
</g>
<!-- Node8 -->
<g id="node8" class="node">
<title>Node8</title>
<g id="a_node8"><a xlink:href="TestDataGenerator_8c.html" target="_top" xlink:title=" ">
<polygon fill="white" stroke="black" points="245.86,-134.5 245.86,-153.5 423.86,-153.5 423.86,-134.5 245.86,-134.5"/>
<text text-anchor="middle" x="334.86" y="-141.5" font-family="Helvetica,sans-Serif" font-size="10.00">src/DevUtils/TestDataGenerator.c</text>
</a>
</g>
</g>
<!-- Node1&#45;&gt;Node8 -->
<g id="edge59" class="edge">
<title>Node1&#45;&gt;Node8</title>
<path fill="none" stroke="midnightblue" d="M862.01,-254.65C773.58,-252.74 614.76,-244.26 483.86,-210 432.8,-196.64 376.83,-168.11 350.37,-153.71"/>
<polygon fill="midnightblue" stroke="midnightblue" points="862.11,-258.16 872.18,-254.85 862.25,-251.16 862.11,-258.16"/>
</g>
<!-- Node9 -->
<g id="node9" class="node">
<title>Node9</title>
<g id="a_node9"><a xlink:href="Thread_8c.html" target="_top" xlink:title="Implementation of POSIX Thread Synchronization Primitives.">
<polygon fill="white" stroke="black" points="1824.36,-134.5 1824.36,-153.5 1947.36,-153.5 1947.36,-134.5 1824.36,-134.5"/>
<text text-anchor="middle" x="1885.86" y="-141.5" font-family="Helvetica,sans-Serif" font-size="10.00">src/Common/Thread.c</text>
</a>
</g>
</g>
<!-- Node1&#45;&gt;Node9 -->
<g id="edge8" class="edge">
<title>Node1&#45;&gt;Node9</title>
<path fill="none" stroke="midnightblue" d="M997.79,-247.29C1145.51,-230.5 1507.05,-189.31 1809.86,-154 1814.48,-153.46 1819.25,-152.9 1824.06,-152.34"/>
<polygon fill="midnightblue" stroke="midnightblue" points="997.07,-243.85 987.52,-248.45 997.86,-250.8 997.07,-243.85"/>
</g>
<!-- Node10 -->
<g id="node10" class="node">
<title>Node10</title>
<g id="a_node10"><a xlink:href="Thread_8h.html" target="_top" xlink:title="Lightweight Synchronization Primitives Wrapper.">
<polygon fill="white" stroke="black" points="867.86,-190.5 867.86,-209.5 991.86,-209.5 991.86,-190.5 867.86,-190.5"/>
<text text-anchor="middle" x="929.86" y="-197.5" font-family="Helvetica,sans-Serif" font-size="10.00">src/Common/Thread.h</text>
</a>
</g>
</g>
<!-- Node1&#45;&gt;Node10 -->
<g id="edge9" class="edge">
<title>Node1&#45;&gt;Node10</title>
<path fill="none" stroke="midnightblue" d="M929.86,-235.8C929.86,-226.91 929.86,-216.78 929.86,-209.75"/>
<polygon fill="midnightblue" stroke="midnightblue" points="926.36,-236.08 929.86,-246.08 933.36,-236.08 926.36,-236.08"/>
</g>
<!-- Node18 -->
<g id="node18" class="node">
<title>Node18</title>
<g id="a_node18"><a xlink:href="DataHandlers_2ModbusWithPostgres_2Postgres_8c.html" target="_top" xlink:title=" ">
<polygon fill="white" stroke="black" points="1343.86,-0.5 1343.86,-30.5 1507.86,-30.5 1507.86,-0.5 1343.86,-0.5"/>
<text text-anchor="start" x="1351.86" y="-18.5" font-family="Helvetica,sans-Serif" font-size="10.00">src/DataHandlers/ModbusWith</text>
<text text-anchor="middle" x="1425.86" y="-7.5" font-family="Helvetica,sans-Serif" font-size="10.00">Postgres/Postgres.c</text>
</a>
</g>
</g>
<!-- Node1&#45;&gt;Node18 -->
<g id="edge57" class="edge">
<title>Node1&#45;&gt;Node18</title>
<path fill="none" stroke="midnightblue" d="M997.47,-253.52C1215.97,-248.03 1892.64,-225.36 1956.86,-154 2047.84,-52.9 1588.07,-41.61 1517.86,-31 1514.66,-30.52 1511.4,-30.02 1508.11,-29.52"/>
<polygon fill="midnightblue" stroke="midnightblue" points="997.33,-250.02 987.42,-253.76 997.5,-257.02 997.33,-250.02"/>
</g>
<!-- Node21 -->
<g id="node21" class="node">
<title>Node21</title>
<g id="a_node21"><a xlink:href="ThreadGroup_8c.html" target="_top" xlink:title=" ">
<polygon fill="white" stroke="black" points="1861.86,-6 1861.86,-25 2013.86,-25 2013.86,-6 1861.86,-6"/>
<text text-anchor="middle" x="1937.86" y="-13" font-family="Helvetica,sans-Serif" font-size="10.00">src/Common/ThreadGroup.c</text>
</a>
</g>
</g>
<!-- Node1&#45;&gt;Node21 -->
<g id="edge55" class="edge">
<title>Node1&#45;&gt;Node21</title>
<path fill="none" stroke="midnightblue" d="M997.43,-254C1175.9,-250.96 1656.89,-240.15 1812.86,-210 1888.07,-195.46 1931.35,-216.35 1975.86,-154 2005.64,-112.27 1962.41,-48.13 1944.78,-25.1"/>
<polygon fill="midnightblue" stroke="midnightblue" points="997.32,-250.5 987.38,-254.17 997.44,-257.5 997.32,-250.5"/>
</g>
<!-- Node26 -->
<g id="node26" class="node">
<title>Node26</title>
<g id="a_node26"><a xlink:href="Time_8c.html" target="_top" xlink:title="Implementation of Time Manipulation Utilities.">
<polygon fill="white" stroke="black" points="2041.86,-190.5 2041.86,-209.5 2155.86,-209.5 2155.86,-190.5 2041.86,-190.5"/>
<text text-anchor="middle" x="2098.86" y="-197.5" font-family="Helvetica,sans-Serif" font-size="10.00">src/Common/Time.c</text>
</a>
</g>
</g>
<!-- Node1&#45;&gt;Node26 -->
<g id="edge56" class="edge">
<title>Node1&#45;&gt;Node26</title>
<path fill="none" stroke="midnightblue" d="M997.59,-254.23C1169.88,-251.83 1638.7,-242.58 2027.86,-210 2032.32,-209.63 2036.92,-209.18 2041.55,-208.69"/>
<polygon fill="midnightblue" stroke="midnightblue" points="997.36,-250.73 987.41,-254.37 997.46,-257.73 997.36,-250.73"/>
</g>
<!-- Node4 -->
<g id="node4" class="node">
<title>Node4</title>
<g id="a_node4"><a xlink:href="Socket_8c.html" target="_top" xlink:title="Implementation of Socket Communication Utilities.">
<polygon fill="white" stroke="black" points="29.86,-134.5 29.86,-153.5 151.86,-153.5 151.86,-134.5 29.86,-134.5"/>
<text text-anchor="middle" x="90.86" y="-141.5" font-family="Helvetica,sans-Serif" font-size="10.00">src/Common/Socket.c</text>
</a>
</g>
</g>
<!-- Node3&#45;&gt;Node4 -->
<g id="edge3" class="edge">
<title>Node3&#45;&gt;Node4</title>
<path fill="none" stroke="midnightblue" d="M172.31,-185.73C152.31,-175.73 125.47,-162.31 108.17,-153.65"/>
<polygon fill="midnightblue" stroke="midnightblue" points="171,-188.98 181.51,-190.32 174.13,-182.72 171,-188.98"/>
</g>
<!-- Node5 -->
<g id="node5" class="node">
<title>Node5</title>
<g id="a_node5"><a xlink:href="CommProtocols_2Modbus_8c.html" target="_top" xlink:title="Implementation of Modbus protocol handling.">
<polygon fill="white" stroke="black" points="238.36,-73 238.36,-92 399.36,-92 399.36,-73 238.36,-73"/>
<text text-anchor="middle" x="318.86" y="-80" font-family="Helvetica,sans-Serif" font-size="10.00">src/CommProtocols/Modbus.c</text>
</a>
</g>
</g>
<!-- Node3&#45;&gt;Node5 -->
<g id="edge4" class="edge">
<title>Node3&#45;&gt;Node5</title>
<path fill="none" stroke="midnightblue" d="M206.62,-180.59C213.17,-166.62 223.61,-147.56 236.86,-134 255.09,-115.35 281.55,-100.67 299.44,-92.06"/>
<polygon fill="midnightblue" stroke="midnightblue" points="203.25,-179.55 202.38,-190.11 209.64,-182.4 203.25,-179.55"/>
</g>
<!-- Node6 -->
<g id="node6" class="node">
<title>Node6</title>
<g id="a_node6"><a xlink:href="DataHandlers_2ModbusWithPostgres_2Modbus_8c.html" target="_top" xlink:title=" ">
<polygon fill="white" stroke="black" points="868.86,-0.5 868.86,-30.5 1032.86,-30.5 1032.86,-0.5 868.86,-0.5"/>
<text text-anchor="start" x="876.86" y="-18.5" font-family="Helvetica,sans-Serif" font-size="10.00">src/DataHandlers/ModbusWith</text>
<text text-anchor="middle" x="950.86" y="-7.5" font-family="Helvetica,sans-Serif" font-size="10.00">Postgres/Modbus.c</text>
</a>
</g>
</g>
<!-- Node3&#45;&gt;Node6 -->
<g id="edge5" class="edge">
<title>Node3&#45;&gt;Node6</title>
<path fill="none" stroke="midnightblue" d="M196.84,-180.05C194.9,-150.79 196.09,-95.08 228.86,-67 276.53,-26.14 689.89,-18.3 868.84,-16.83"/>
<polygon fill="midnightblue" stroke="midnightblue" points="193.37,-180.51 197.71,-190.17 200.34,-179.91 193.37,-180.51"/>
</g>
<!-- Node3&#45;&gt;Node7 -->
<g id="edge6" class="edge">
<title>Node3&#45;&gt;Node7</title>
<path fill="none" stroke="midnightblue" d="M127.77,-190.01C84.19,-182.88 34.26,-171.21 20.86,-154 -14.49,-108.61 61.28,-47.74 92.87,-25.29"/>
<polygon fill="midnightblue" stroke="midnightblue" points="127.4,-193.5 137.82,-191.6 128.49,-186.58 127.4,-193.5"/>
</g>
<!-- Node3&#45;&gt;Node8 -->
<g id="edge7" class="edge">
<title>Node3&#45;&gt;Node8</title>
<path fill="none" stroke="midnightblue" d="M229.99,-186.64C255.51,-176.5 290.97,-162.43 313.41,-153.52"/>
<polygon fill="midnightblue" stroke="midnightblue" points="228.41,-183.5 220.41,-190.44 230.99,-190.01 228.41,-183.5"/>
</g>
<!-- Node10&#45;&gt;Node2 -->
<g id="edge10" class="edge">
<title>Node10&#45;&gt;Node2</title>
<path fill="none" stroke="midnightblue" d="M857.26,-199.27C788.2,-197.22 682.58,-188 597.86,-154 561.15,-139.27 525.5,-107.57 509.56,-92.2"/>
<polygon fill="midnightblue" stroke="midnightblue" points="857.51,-202.78 867.59,-199.53 857.69,-195.78 857.51,-202.78"/>
</g>
<!-- Node10&#45;&gt;Node5 -->
<g id="edge45" class="edge">
<title>Node10&#45;&gt;Node5</title>
<path fill="none" stroke="midnightblue" d="M857.54,-193.73C782.55,-187.44 662.16,-175.04 559.86,-154 479.15,-137.4 386.26,-106.89 343.16,-92.05"/>
<polygon fill="midnightblue" stroke="midnightblue" points="857.57,-197.24 867.82,-194.57 858.14,-190.26 857.57,-197.24"/>
</g>
<!-- Node10&#45;&gt;Node6 -->
<g id="edge49" class="edge">
<title>Node10&#45;&gt;Node6</title>
<path fill="none" stroke="midnightblue" d="M857.84,-192.58C749.13,-180.19 562.67,-146.79 630.86,-67 660.87,-31.89 784.1,-21.04 868.57,-17.78"/>
<polygon fill="midnightblue" stroke="midnightblue" points="857.46,-196.06 867.78,-193.68 858.23,-189.1 857.46,-196.06"/>
</g>
<!-- Node10&#45;&gt;Node7 -->
<g id="edge50" class="edge">
<title>Node10&#45;&gt;Node7</title>
<path fill="none" stroke="midnightblue" d="M857.54,-199.25C766.8,-197.9 607.17,-189.93 475.86,-154 455.53,-148.44 452.96,-140.33 432.86,-134 345.04,-106.35 314.36,-132.14 228.86,-98 182.47,-79.48 135.38,-41.88 115.58,-25.02"/>
<polygon fill="midnightblue" stroke="midnightblue" points="857.68,-202.76 867.72,-199.38 857.76,-195.76 857.68,-202.76"/>
</g>
<!-- Node10&#45;&gt;Node8 -->
<g id="edge53" class="edge">
<title>Node10&#45;&gt;Node8</title>
<path fill="none" stroke="midnightblue" d="M857.34,-192.42C748.26,-182.52 542.18,-163.82 424.06,-153.1"/>
<polygon fill="midnightblue" stroke="midnightblue" points="857.31,-195.93 867.59,-193.35 857.94,-188.96 857.31,-195.93"/>
</g>
<!-- Node10&#45;&gt;Node9 -->
<g id="edge33" class="edge">
<title>Node10&#45;&gt;Node9</title>
<path fill="none" stroke="midnightblue" d="M1002.15,-196.94C1152.65,-192.29 1510.54,-179.35 1809.86,-154 1814.49,-153.61 1819.28,-153.15 1824.09,-152.66"/>
<polygon fill="midnightblue" stroke="midnightblue" points="1001.99,-193.44 992.1,-197.25 1002.21,-200.44 1001.99,-193.44"/>
</g>
<!-- Node11 -->
<g id="node11" class="node">
<title>Node11</title>
<g id="a_node11"><a xlink:href="SensorDataPipe_8h.html" target="_top" xlink:title="Lock&#45;Free Data Pipeline.">
<polygon fill="white" stroke="black" points="902.36,-134.5 902.36,-153.5 1069.36,-153.5 1069.36,-134.5 902.36,-134.5"/>
<text text-anchor="middle" x="985.86" y="-141.5" font-family="Helvetica,sans-Serif" font-size="10.00">src/Common/SensorDataPipe.h</text>
</a>
</g>
</g>
<!-- Node10&#45;&gt;Node11 -->
<g id="edge11" class="edge">
<title>Node10&#45;&gt;Node11</title>
<path fill="none" stroke="midnightblue" d="M946.19,-183.25C956.12,-173.67 968.45,-161.79 976.7,-153.83"/>
<polygon fill="midnightblue" stroke="midnightblue" points="943.62,-180.86 938.86,-190.32 948.48,-185.9 943.62,-180.86"/>
</g>
<!-- Node12 -->
<g id="node12" class="node">
<title>Node12</title>
<g id="a_node12"><a xlink:href="CommProtocols_2Modbus_8h.html" target="_top" xlink:title="Modbus protocol implementation interface.">
<polygon fill="white" stroke="black" points="640.36,-73 640.36,-92 801.36,-92 801.36,-73 640.36,-73"/>
<text text-anchor="middle" x="720.86" y="-80" font-family="Helvetica,sans-Serif" font-size="10.00">src/CommProtocols/Modbus.h</text>
</a>
</g>
</g>
<!-- Node10&#45;&gt;Node12 -->
<g id="edge46" class="edge">
<title>Node10&#45;&gt;Node12</title>
<path fill="none" stroke="midnightblue" d="M905.37,-185.46C861.92,-161.45 772.54,-112.06 736.46,-92.12"/>
<polygon fill="midnightblue" stroke="midnightblue" points="903.7,-188.55 914.15,-190.32 907.09,-182.42 903.7,-188.55"/>
</g>
<!-- Node13 -->
<g id="node13" class="node">
<title>Node13</title>
<g id="a_node13"><a xlink:href="DatabaseSystems_2Postgres_8c.html" target="_top" xlink:title="Implementation of PostgreSQL database operations.">
<polygon fill="white" stroke="black" points="819.86,-67.5 819.86,-97.5 941.86,-97.5 941.86,-67.5 819.86,-67.5"/>
<text text-anchor="start" x="827.86" y="-85.5" font-family="Helvetica,sans-Serif" font-size="10.00">src/DatabaseSystems</text>
<text text-anchor="middle" x="880.86" y="-74.5" font-family="Helvetica,sans-Serif" font-size="10.00">/Postgres.c</text>
</a>
</g>
</g>
<!-- Node10&#45;&gt;Node13 -->
<g id="edge47" class="edge">
<title>Node10&#45;&gt;Node13</title>
<path fill="none" stroke="midnightblue" d="M913.33,-183.13C905.92,-175.09 897.77,-164.76 892.86,-154 884.5,-135.7 881.92,-112.33 881.14,-97.64"/>
<polygon fill="midnightblue" stroke="midnightblue" points="910.85,-185.6 920.33,-190.34 915.87,-180.72 910.85,-185.6"/>
</g>
<!-- Node14 -->
<g id="node14" class="node">
<title>Node14</title>
<g id="a_node14"><a xlink:href="DatabaseSystems_2Postgres_8h.html" target="_top" xlink:title="PostgreSQL interface for sensor data storage.">
<polygon fill="white" stroke="black" points="1035.86,-67.5 1035.86,-97.5 1157.86,-97.5 1157.86,-67.5 1035.86,-67.5"/>
<text text-anchor="start" x="1043.86" y="-85.5" font-family="Helvetica,sans-Serif" font-size="10.00">src/DatabaseSystems</text>
<text text-anchor="middle" x="1096.86" y="-74.5" font-family="Helvetica,sans-Serif" font-size="10.00">/Postgres.h</text>
</a>
</g>
</g>
<!-- Node10&#45;&gt;Node14 -->
<g id="edge48" class="edge">
<title>Node10&#45;&gt;Node14</title>
<path fill="none" stroke="midnightblue" d="M1002.02,-191.89C1029.04,-185.77 1057.97,-174.53 1077.86,-154 1092.59,-138.79 1096.18,-113.43 1096.91,-97.62"/>
<polygon fill="midnightblue" stroke="midnightblue" points="1001.26,-188.47 992.17,-193.92 1002.68,-195.33 1001.26,-188.47"/>
</g>
<!-- Node10&#45;&gt;Node21 -->
<g id="edge34" class="edge">
<title>Node10&#45;&gt;Node21</title>
<path fill="none" stroke="midnightblue" d="M1002.29,-197.66C1192.69,-193.78 1697.46,-181.05 1767.86,-154 1842.62,-125.27 1909.63,-50.49 1930.88,-25.09"/>
<polygon fill="midnightblue" stroke="midnightblue" points="1002.04,-194.17 992.11,-197.87 1002.18,-201.16 1002.04,-194.17"/>
</g>
<!-- Node22 -->
<g id="node22" class="node">
<title>Node22</title>
<g id="a_node22"><a xlink:href="Main_8c.html" target="_top" xlink:title="Main implementation file for the Sensor Data Handler System.">
<polygon fill="white" stroke="black" points="1776.86,-6 1776.86,-25 1842.86,-25 1842.86,-6 1776.86,-6"/>
<text text-anchor="middle" x="1809.86" y="-13" font-family="Helvetica,sans-Serif" font-size="10.00">src/Main.c</text>
</a>
</g>
</g>
<!-- Node10&#45;&gt;Node22 -->
<g id="edge54" class="edge">
<title>Node10&#45;&gt;Node22</title>
<path fill="none" stroke="midnightblue" d="M1002.24,-197.98C1188.22,-194.95 1672.92,-184.2 1738.86,-154 1770.29,-139.6 1776.69,-128.56 1792.86,-98 1805.7,-73.72 1808.84,-40.59 1809.61,-25.12"/>
<polygon fill="midnightblue" stroke="midnightblue" points="1001.95,-194.49 992.01,-198.15 1002.07,-201.49 1001.95,-194.49"/>
</g>
<!-- Node23 -->
<g id="node23" class="node">
<title>Node23</title>
<g id="a_node23"><a xlink:href="ThreadGroup_8h.html" target="_top" xlink:title="Thread Group Management System.">
<polygon fill="white" stroke="black" points="1382.36,-134.5 1382.36,-153.5 1535.36,-153.5 1535.36,-134.5 1382.36,-134.5"/>
<text text-anchor="middle" x="1458.86" y="-141.5" font-family="Helvetica,sans-Serif" font-size="10.00">src/Common/ThreadGroup.h</text>
</a>
</g>
</g>
<!-- Node10&#45;&gt;Node23 -->
<g id="edge35" class="edge">
<title>Node10&#45;&gt;Node23</title>
<path fill="none" stroke="midnightblue" d="M1002.07,-191.63C1101.7,-181.46 1280.5,-163.21 1382.35,-152.81"/>
<polygon fill="midnightblue" stroke="midnightblue" points="1001.69,-188.15 992.1,-192.65 1002.4,-195.11 1001.69,-188.15"/>
</g>
<!-- Node25 -->
<g id="node25" class="node">
<title>Node25</title>
<g id="a_node25"><a xlink:href="ModbusTestServer_8h.html" target="_top" xlink:title="Header for Modbus Test Server Implementation.">
<polygon fill="white" stroke="black" points="1553.86,-134.5 1553.86,-153.5 1729.86,-153.5 1729.86,-134.5 1553.86,-134.5"/>
<text text-anchor="middle" x="1641.86" y="-141.5" font-family="Helvetica,sans-Serif" font-size="10.00">src/DevUtils/ModbusTestServer.h</text>
</a>
</g>
</g>
<!-- Node10&#45;&gt;Node25 -->
<g id="edge51" class="edge">
<title>Node10&#45;&gt;Node25</title>
<path fill="none" stroke="midnightblue" d="M1001.95,-194.18C1116.85,-186.4 1348.6,-170.28 1544.86,-154 1547.81,-153.76 1550.81,-153.5 1553.84,-153.24"/>
<polygon fill="midnightblue" stroke="midnightblue" points="1001.61,-190.7 991.87,-194.86 1002.08,-197.68 1001.61,-190.7"/>
</g>
<!-- Node11&#45;&gt;Node2 -->
<g id="edge12" class="edge">
<title>Node11&#45;&gt;Node2</title>
<path fill="none" stroke="midnightblue" d="M906.39,-133.25C812.88,-121.78 659.11,-102.91 570.22,-92.01"/>
<polygon fill="midnightblue" stroke="midnightblue" points="906.02,-136.73 916.37,-134.48 906.87,-129.78 906.02,-136.73"/>
</g>
<!-- Node11&#45;&gt;Node5 -->
<g id="edge13" class="edge">
<title>Node11&#45;&gt;Node5</title>
<path fill="none" stroke="midnightblue" d="M891.75,-138.1C777.16,-131.58 577.86,-118.43 407.86,-98 394.49,-96.39 380.06,-94.23 366.79,-92.07"/>
<polygon fill="midnightblue" stroke="midnightblue" points="891.7,-141.61 901.89,-138.67 892.1,-134.62 891.7,-141.61"/>
</g>
<!-- Node11&#45;&gt;Node6 -->
<g id="edge17" class="edge">
<title>Node11&#45;&gt;Node6</title>
<path fill="none" stroke="midnightblue" d="M980.73,-124.45C973.69,-99.03 961.21,-53.91 954.84,-30.89"/>
<polygon fill="midnightblue" stroke="midnightblue" points="977.41,-125.6 983.45,-134.31 984.16,-123.73 977.41,-125.6"/>
</g>
<!-- Node11&#45;&gt;Node12 -->
<g id="edge14" class="edge">
<title>Node11&#45;&gt;Node12</title>
<path fill="none" stroke="midnightblue" d="M938.02,-132.26C886.61,-120.72 805.95,-102.61 758.76,-92.01"/>
<polygon fill="midnightblue" stroke="midnightblue" points="937.37,-135.7 947.89,-134.48 938.9,-128.87 937.37,-135.7"/>
</g>
<!-- Node11&#45;&gt;Node13 -->
<g id="edge15" class="edge">
<title>Node11&#45;&gt;Node13</title>
<path fill="none" stroke="midnightblue" d="M962.11,-129.54C945.25,-119.99 922.68,-107.2 905.6,-97.52"/>
<polygon fill="midnightblue" stroke="midnightblue" points="960.39,-132.59 970.81,-134.48 963.84,-126.5 960.39,-132.59"/>
</g>
<!-- Node11&#45;&gt;Node14 -->
<g id="edge16" class="edge">
<title>Node11&#45;&gt;Node14</title>
<path fill="none" stroke="midnightblue" d="M1010.96,-129.54C1028.78,-119.99 1052.65,-107.2 1070.7,-97.52"/>
<polygon fill="midnightblue" stroke="midnightblue" points="1008.92,-126.67 1001.76,-134.48 1012.23,-132.84 1008.92,-126.67"/>
</g>
<!-- Node15 -->
<g id="node15" class="node">
<title>Node15</title>
<g id="a_node15"><a xlink:href="ModbusWithPostgres_8c.html" target="_top" xlink:title="Implementation of Modbus&#45;PostgreSQL integration.">
<polygon fill="white" stroke="black" points="1526.36,-0.5 1526.36,-30.5 1699.36,-30.5 1699.36,-0.5 1526.36,-0.5"/>
<text text-anchor="start" x="1534.36" y="-18.5" font-family="Helvetica,sans-Serif" font-size="10.00">src/DataHandlers/ModbusWith</text>
<text text-anchor="middle" x="1612.86" y="-7.5" font-family="Helvetica,sans-Serif" font-size="10.00">Postgres/ModbusWithPostgres.c</text>
</a>
</g>
</g>
<!-- Node11&#45;&gt;Node15 -->
<g id="edge18" class="edge">
<title>Node11&#45;&gt;Node15</title>
<path fill="none" stroke="midnightblue" d="M1079.84,-138.2C1196.06,-131.53 1386.87,-117.99 1454.86,-98 1468.63,-93.95 1545.8,-52.76 1586.97,-30.54"/>
<polygon fill="midnightblue" stroke="midnightblue" points="1079.31,-134.73 1069.52,-138.79 1079.71,-141.71 1079.31,-134.73"/>
</g>
<!-- Node16 -->
<g id="node16" class="node">
<title>Node16</title>
<g id="a_node16"><a xlink:href="ModbusWithPostgres_8h.html" target="_top" xlink:title="Integration of Modbus and PostgreSQL data handling.">
<polygon fill="white" stroke="black" points="1176.36,-67.5 1176.36,-97.5 1349.36,-97.5 1349.36,-67.5 1176.36,-67.5"/>
<text text-anchor="start" x="1184.36" y="-85.5" font-family="Helvetica,sans-Serif" font-size="10.00">src/DataHandlers/ModbusWith</text>
<text text-anchor="middle" x="1262.86" y="-74.5" font-family="Helvetica,sans-Serif" font-size="10.00">Postgres/ModbusWithPostgres.h</text>
</a>
</g>
</g>
<!-- Node11&#45;&gt;Node16 -->
<g id="edge19" class="edge">
<title>Node11&#45;&gt;Node16</title>
<path fill="none" stroke="midnightblue" d="M1035.42,-132.35C1080.7,-122.63 1147.94,-108.18 1197.57,-97.52"/>
<polygon fill="midnightblue" stroke="midnightblue" points="1034.59,-128.95 1025.55,-134.48 1036.06,-135.8 1034.59,-128.95"/>
</g>
<!-- Node19 -->
<g id="node19" class="node">
<title>Node19</title>
<g id="a_node19"><a xlink:href="Signals_8c.html" target="_top" xlink:title="Signal handling implementation for the Sensor Data Handler System.">
<polygon fill="white" stroke="black" points="1051.36,-6 1051.36,-25 1128.36,-25 1128.36,-6 1051.36,-6"/>
<text text-anchor="middle" x="1089.86" y="-13" font-family="Helvetica,sans-Serif" font-size="10.00">src/Signals.c</text>
</a>
</g>
</g>
<!-- Node11&#45;&gt;Node19 -->
<g id="edge24" class="edge">
<title>Node11&#45;&gt;Node19</title>
<path fill="none" stroke="midnightblue" d="M993.13,-124.93C1000.21,-108.7 1012.05,-84.76 1026.86,-67 1041.31,-49.66 1062.5,-34.16 1076.24,-25.04"/>
<polygon fill="midnightblue" stroke="midnightblue" points="989.82,-123.77 989.18,-134.34 996.28,-126.48 989.82,-123.77"/>
</g>
<!-- Node20 -->
<g id="node20" class="node">
<title>Node20</title>
<g id="a_node20"><a xlink:href="Signals_8h.html" target="_top" xlink:title="Signal handling interface for the Sensor Data Handler System.">
<polygon fill="white" stroke="black" points="1367.86,-73 1367.86,-92 1445.86,-92 1445.86,-73 1367.86,-73"/>
<text text-anchor="middle" x="1406.86" y="-80" font-family="Helvetica,sans-Serif" font-size="10.00">src/Signals.h</text>
</a>
</g>
</g>
<!-- Node11&#45;&gt;Node20 -->
<g id="edge25" class="edge">
<title>Node11&#45;&gt;Node20</title>
<path fill="none" stroke="midnightblue" d="M1079.51,-136.23C1155.39,-129.66 1264.77,-117.73 1358.86,-98 1366.36,-96.43 1374.37,-94.22 1381.66,-92.01"/>
<polygon fill="midnightblue" stroke="midnightblue" points="1079.16,-132.74 1069.49,-137.08 1079.76,-139.72 1079.16,-132.74"/>
</g>
<!-- Node16&#45;&gt;Node6 -->
<g id="edge21" class="edge">
<title>Node16&#45;&gt;Node6</title>
<path fill="none" stroke="midnightblue" d="M1185.49,-65.38C1134.17,-54.69 1067.48,-40.8 1018.32,-30.55"/>
<polygon fill="midnightblue" stroke="midnightblue" points="1185.04,-68.86 1195.54,-67.48 1186.47,-62.01 1185.04,-68.86"/>
</g>
<!-- Node16&#45;&gt;Node15 -->
<g id="edge22" class="edge">
<title>Node16&#45;&gt;Node15</title>
<path fill="none" stroke="midnightblue" d="M1348.21,-65.65C1405.97,-54.92 1481.57,-40.88 1537.18,-30.55"/>
<polygon fill="midnightblue" stroke="midnightblue" points="1347.56,-62.21 1338.37,-67.48 1348.84,-69.09 1347.56,-62.21"/>
</g>
<!-- Node17 -->
<g id="node17" class="node">
<title>Node17</title>
<g id="a_node17"><a xlink:href="DataHandlers_8c.html" target="_top" xlink:title="Implementation of Data Handler Thread Group Management.">
<polygon fill="white" stroke="black" points="1146.36,-6 1146.36,-25 1325.36,-25 1325.36,-6 1146.36,-6"/>
<text text-anchor="middle" x="1235.86" y="-13" font-family="Helvetica,sans-Serif" font-size="10.00">src/DataHandlers/DataHandlers.c</text>
</a>
</g>
</g>
<!-- Node16&#45;&gt;Node17 -->
<g id="edge20" class="edge">
<title>Node16&#45;&gt;Node17</title>
<path fill="none" stroke="midnightblue" d="M1253.07,-57.94C1248.34,-46.54 1242.94,-33.55 1239.47,-25.19"/>
<polygon fill="midnightblue" stroke="midnightblue" points="1249.93,-59.5 1257,-67.4 1256.4,-56.82 1249.93,-59.5"/>
</g>
<!-- Node16&#45;&gt;Node18 -->
<g id="edge23" class="edge">
<title>Node16&#45;&gt;Node18</title>
<path fill="none" stroke="midnightblue" d="M1307.54,-63.68C1333.68,-53.26 1366.22,-40.28 1390.56,-30.58"/>
<polygon fill="midnightblue" stroke="midnightblue" points="1306.22,-60.44 1298.23,-67.4 1308.81,-66.94 1306.22,-60.44"/>
</g>
<!-- Node20&#45;&gt;Node6 -->
<g id="edge27" class="edge">
<title>Node20&#45;&gt;Node6</title>
<path fill="none" stroke="midnightblue" d="M1371.79,-70.11C1367.46,-68.95 1363.08,-67.87 1358.86,-67 1219.98,-38.38 1182.35,-50.16 1041.86,-31 1039,-30.61 1036.1,-30.2 1033.17,-29.79"/>
<polygon fill="midnightblue" stroke="midnightblue" points="1371.09,-73.56 1381.67,-72.96 1373.03,-66.83 1371.09,-73.56"/>
</g>
<!-- Node20&#45;&gt;Node7 -->
<g id="edge30" class="edge">
<title>Node20&#45;&gt;Node7</title>
<path fill="none" stroke="midnightblue" d="M1372.81,-70.07C1368.16,-68.84 1363.42,-67.77 1358.86,-67 1134.37,-29.2 440.5,-19.46 193.92,-17.16"/>
<polygon fill="midnightblue" stroke="midnightblue" points="1372.15,-73.52 1382.72,-72.91 1374.08,-66.79 1372.15,-73.52"/>
</g>
<!-- Node20&#45;&gt;Node15 -->
<g id="edge28" class="edge">
<title>Node20&#45;&gt;Node15</title>
<path fill="none" stroke="midnightblue" d="M1444.02,-69.77C1478.95,-58.75 1531.27,-42.24 1568.4,-30.53"/>
<polygon fill="midnightblue" stroke="midnightblue" points="1442.7,-66.52 1434.21,-72.87 1444.8,-73.2 1442.7,-66.52"/>
</g>
<!-- Node20&#45;&gt;Node18 -->
<g id="edge29" class="edge">
<title>Node20&#45;&gt;Node18</title>
<path fill="none" stroke="midnightblue" d="M1412.25,-63.06C1415.26,-52.75 1418.96,-40.1 1421.74,-30.59"/>
<polygon fill="midnightblue" stroke="midnightblue" points="1408.87,-62.15 1409.42,-72.73 1415.59,-64.12 1408.87,-62.15"/>
</g>
<!-- Node20&#45;&gt;Node19 -->
<g id="edge32" class="edge">
<title>Node20&#45;&gt;Node19</title>
<path fill="none" stroke="midnightblue" d="M1370.95,-70.09C1366.89,-68.97 1362.8,-67.91 1358.86,-67 1261.47,-44.5 1234.18,-53.79 1136.86,-31 1129.87,-29.36 1122.41,-27.24 1115.54,-25.13"/>
<polygon fill="midnightblue" stroke="midnightblue" points="1370.29,-73.54 1380.87,-72.96 1372.24,-66.82 1370.29,-73.54"/>
</g>
<!-- Node20&#45;&gt;Node21 -->
<g id="edge26" class="edge">
<title>Node20&#45;&gt;Node21</title>
<path fill="none" stroke="midnightblue" d="M1455.98,-76.8C1538.11,-68.75 1708.44,-51.21 1851.86,-31 1864.3,-29.25 1877.72,-27.11 1890.17,-25.01"/>
<polygon fill="midnightblue" stroke="midnightblue" points="1455.55,-73.33 1445.94,-77.78 1456.23,-80.29 1455.55,-73.33"/>
</g>
<!-- Node20&#45;&gt;Node22 -->
<g id="edge31" class="edge">
<title>Node20&#45;&gt;Node22</title>
<path fill="none" stroke="midnightblue" d="M1455.83,-73.6C1539.07,-60.18 1706,-33.25 1776.85,-21.82"/>
<polygon fill="midnightblue" stroke="midnightblue" points="1455.18,-70.16 1445.87,-75.21 1456.3,-77.07 1455.18,-70.16"/>
</g>
<!-- Node23&#45;&gt;Node15 -->
<g id="edge41" class="edge">
<title>Node23&#45;&gt;Node15</title>
<path fill="none" stroke="midnightblue" d="M1481.46,-129.11C1494.76,-120.63 1511.69,-109.27 1525.86,-98 1553.23,-76.22 1582.38,-47.68 1599.03,-30.79"/>
<polygon fill="midnightblue" stroke="midnightblue" points="1479.52,-126.2 1472.92,-134.49 1483.24,-132.12 1479.52,-126.2"/>
</g>
<!-- Node23&#45;&gt;Node16 -->
<g id="edge42" class="edge">
<title>Node23&#45;&gt;Node16</title>
<path fill="none" stroke="midnightblue" d="M1420.92,-131.48C1388.96,-121.78 1343.14,-107.87 1309.05,-97.52"/>
<polygon fill="midnightblue" stroke="midnightblue" points="1420.19,-134.92 1430.78,-134.48 1422.22,-128.22 1420.19,-134.92"/>
</g>
<!-- Node23&#45;&gt;Node17 -->
<g id="edge37" class="edge">
<title>Node23&#45;&gt;Node17</title>
<path fill="none" stroke="midnightblue" d="M1463.58,-124.45C1466.7,-107.51 1468.1,-82.77 1454.86,-67 1444.05,-54.13 1348.64,-35.72 1287.37,-25.05"/>
<polygon fill="midnightblue" stroke="midnightblue" points="1460.15,-123.77 1461.42,-134.28 1466.98,-125.27 1460.15,-123.77"/>
</g>
<!-- Node23&#45;&gt;Node20 -->
<g id="edge44" class="edge">
<title>Node23&#45;&gt;Node20</title>
<path fill="none" stroke="midnightblue" d="M1444.59,-126.67C1434.78,-115.45 1422.17,-101.02 1414.29,-92.01"/>
<polygon fill="midnightblue" stroke="midnightblue" points="1442.19,-129.25 1451.41,-134.48 1447.46,-124.64 1442.19,-129.25"/>
</g>
<!-- Node23&#45;&gt;Node21 -->
<g id="edge36" class="edge">
<title>Node23&#45;&gt;Node21</title>
<path fill="none" stroke="midnightblue" d="M1543.51,-133.27C1634.63,-122.54 1769.69,-105.75 1792.86,-98 1846.26,-80.13 1902.44,-42.19 1926.18,-25.13"/>
<polygon fill="midnightblue" stroke="midnightblue" points="1542.98,-129.81 1533.46,-134.46 1543.8,-136.76 1542.98,-129.81"/>
</g>
<!-- Node23&#45;&gt;Node22 -->
<g id="edge43" class="edge">
<title>Node23&#45;&gt;Node22</title>
<path fill="none" stroke="midnightblue" d="M1538.19,-133.22C1626.31,-122.09 1757.54,-104.59 1766.86,-98 1792.33,-80 1803.95,-42.13 1808.04,-25.11"/>
<polygon fill="midnightblue" stroke="midnightblue" points="1537.68,-129.76 1528.2,-134.48 1538.56,-136.7 1537.68,-129.76"/>
</g>
<!-- Node24 -->
<g id="node24" class="node">
<title>Node24</title>
<g id="a_node24"><a xlink:href="DataHandlers_8h.html" target="_top" xlink:title="Data Handler Management for Thread Group Creation.">
<polygon fill="white" stroke="black" points="1578.36,-73 1578.36,-92 1757.36,-92 1757.36,-73 1578.36,-73"/>
<text text-anchor="middle" x="1667.86" y="-80" font-family="Helvetica,sans-Serif" font-size="10.00">src/DataHandlers/DataHandlers.h</text>
</a>
</g>
</g>
<!-- Node23&#45;&gt;Node24 -->
<g id="edge38" class="edge">
<title>Node23&#45;&gt;Node24</title>
<path fill="none" stroke="midnightblue" d="M1498.64,-131.68C1539.25,-120.11 1601.37,-102.43 1637.97,-92.01"/>
<polygon fill="midnightblue" stroke="midnightblue" points="1497.46,-128.37 1488.8,-134.48 1499.38,-135.1 1497.46,-128.37"/>
</g>
<!-- Node24&#45;&gt;Node15 -->
<g id="edge39" class="edge">
<title>Node24&#45;&gt;Node15</title>
<path fill="none" stroke="midnightblue" d="M1653.89,-64.99C1644.9,-54.36 1633.34,-40.7 1624.78,-30.59"/>
<polygon fill="midnightblue" stroke="midnightblue" points="1651.31,-67.36 1660.44,-72.73 1656.65,-62.84 1651.31,-67.36"/>
</g>
<!-- Node24&#45;&gt;Node22 -->
<g id="edge40" class="edge">
<title>Node24&#45;&gt;Node22</title>
<path fill="none" stroke="midnightblue" d="M1696.01,-68.61C1724.14,-55.74 1766.59,-36.31 1790.92,-25.17"/>
<polygon fill="midnightblue" stroke="midnightblue" points="1694.35,-65.52 1686.71,-72.87 1697.26,-71.89 1694.35,-65.52"/>
</g>
<!-- Node25&#45;&gt;Node15 -->
<g id="edge52" class="edge">
<title>Node25&#45;&gt;Node15</title>
<path fill="none" stroke="midnightblue" d="M1718.66,-131.39C1737.44,-124.73 1755.4,-114.3 1766.86,-98 1774.78,-86.73 1774.94,-78.16 1766.86,-67 1751.01,-45.13 1725.39,-32.56 1699.56,-25.39"/>
<polygon fill="midnightblue" stroke="midnightblue" points="1717.56,-128.06 1709.11,-134.45 1719.7,-134.73 1717.56,-128.06"/>
</g>
</g>
</svg>
