<?xml version="1.0" encoding="UTF-8" standalone="no"?>
<!DOCTYPE svg PUBLIC "-//W3C//DTD SVG 1.1//EN"
 "http://www.w3.org/Graphics/SVG/1.1/DTD/svg11.dtd">
<!-- Generated by graphviz version 2.43.0 (0)
 -->
<!-- Title: src/Common/Time.c Pages: 1 -->
<svg width="1239pt" height="196pt"
 viewBox="0.00 0.00 1239.00 196.00" xmlns="http://www.w3.org/2000/svg" xmlns:xlink="http://www.w3.org/1999/xlink">
<g id="graph0" class="graph" transform="scale(1 1) rotate(0) translate(4 192)">
<title>src/Common/Time.c</title>
<polygon fill="white" stroke="transparent" points="-4,4 -4,-192 1235,-192 1235,4 -4,4"/>
<!-- Node1 -->
<g id="node1" class="node">
<title>Node1</title>
<g id="a_node1"><a xlink:title="Implementation of Time Manipulation Utilities.">
<polygon fill="#bfbfbf" stroke="black" points="195,-168.5 195,-187.5 309,-187.5 309,-168.5 195,-168.5"/>
<text text-anchor="middle" x="252" y="-175.5" font-family="Helvetica,sans-Serif" font-size="10.00">src/Common/Time.c</text>
</a>
</g>
</g>
<!-- Node2 -->
<g id="node2" class="node">
<title>Node2</title>
<g id="a_node2"><a xlink:title=" ">
<polygon fill="white" stroke="#bfbfbf" points="0,-0.5 0,-19.5 48,-19.5 48,-0.5 0,-0.5"/>
<text text-anchor="middle" x="24" y="-7.5" font-family="Helvetica,sans-Serif" font-size="10.00">time.h</text>
</a>
</g>
</g>
<!-- Node1&#45;&gt;Node2 -->
<g id="edge1" class="edge">
<title>Node1&#45;&gt;Node2</title>
<path fill="none" stroke="midnightblue" d="M238.74,-168.2C225.33,-159.25 204.06,-144.89 186,-132 133.73,-94.69 73.44,-48.91 43.28,-25.82"/>
<polygon fill="midnightblue" stroke="midnightblue" points="45.33,-22.99 35.27,-19.68 41.07,-28.54 45.33,-22.99"/>
</g>
<!-- Node3 -->
<g id="node3" class="node">
<title>Node3</title>
<g id="a_node3"><a xlink:href="Sdb_8h.html" target="_top" xlink:title=" ">
<polygon fill="white" stroke="black" points="480.5,-56.5 480.5,-75.5 541.5,-75.5 541.5,-56.5 480.5,-56.5"/>
<text text-anchor="middle" x="511" y="-63.5" font-family="Helvetica,sans-Serif" font-size="10.00">src/Sdb.h</text>
</a>
</g>
</g>
<!-- Node1&#45;&gt;Node3 -->
<g id="edge2" class="edge">
<title>Node1&#45;&gt;Node3</title>
<path fill="none" stroke="midnightblue" d="M272.32,-168.37C317.9,-149.01 428.44,-102.06 481.55,-79.51"/>
<polygon fill="midnightblue" stroke="midnightblue" points="482.94,-82.72 490.77,-75.59 480.2,-76.28 482.94,-82.72"/>
</g>
<!-- Node20 -->
<g id="node20" class="node">
<title>Node20</title>
<g id="a_node20"><a xlink:href="Time_8h.html" target="_top" xlink:title="Lightweight Time Manipulation Utilities.">
<polygon fill="white" stroke="black" points="194.5,-112.5 194.5,-131.5 309.5,-131.5 309.5,-112.5 194.5,-112.5"/>
<text text-anchor="middle" x="252" y="-119.5" font-family="Helvetica,sans-Serif" font-size="10.00">src/Common/Time.h</text>
</a>
</g>
</g>
<!-- Node1&#45;&gt;Node20 -->
<g id="edge20" class="edge">
<title>Node1&#45;&gt;Node20</title>
<path fill="none" stroke="midnightblue" d="M252,-168.08C252,-161.01 252,-150.86 252,-141.99"/>
<polygon fill="midnightblue" stroke="midnightblue" points="255.5,-141.75 252,-131.75 248.5,-141.75 255.5,-141.75"/>
</g>
<!-- Node3&#45;&gt;Node2 -->
<g id="edge17" class="edge">
<title>Node3&#45;&gt;Node2</title>
<path fill="none" stroke="midnightblue" d="M480.47,-63.74C408.5,-60.4 222.56,-49.57 58.33,-19.94"/>
<polygon fill="midnightblue" stroke="midnightblue" points="58.51,-16.42 48.04,-18.06 57.25,-23.3 58.51,-16.42"/>
</g>
<!-- Node4 -->
<g id="node4" class="node">
<title>Node4</title>
<g id="a_node4"><a xlink:title=" ">
<polygon fill="white" stroke="#bfbfbf" points="66,-0.5 66,-19.5 122,-19.5 122,-0.5 66,-0.5"/>
<text text-anchor="middle" x="94" y="-7.5" font-family="Helvetica,sans-Serif" font-size="10.00">assert.h</text>
</a>
</g>
</g>
<!-- Node3&#45;&gt;Node4 -->
<g id="edge3" class="edge">
<title>Node3&#45;&gt;Node4</title>
<path fill="none" stroke="midnightblue" d="M480.37,-62.56C415.68,-57.15 260.53,-42.77 132,-20 131.9,-19.98 131.8,-19.96 131.7,-19.95"/>
<polygon fill="midnightblue" stroke="midnightblue" points="132.64,-16.56 122.15,-18.04 131.27,-23.43 132.64,-16.56"/>
</g>
<!-- Node5 -->
<g id="node5" class="node">
<title>Node5</title>
<g id="a_node5"><a xlink:title=" ">
<polygon fill="white" stroke="#bfbfbf" points="140.5,-0.5 140.5,-19.5 193.5,-19.5 193.5,-0.5 140.5,-0.5"/>
<text text-anchor="middle" x="167" y="-7.5" font-family="Helvetica,sans-Serif" font-size="10.00">ctype.h</text>
</a>
</g>
</g>
<!-- Node3&#45;&gt;Node5 -->
<g id="edge4" class="edge">
<title>Node3&#45;&gt;Node5</title>
<path fill="none" stroke="midnightblue" d="M480.23,-61.54C426.28,-55.24 310.99,-40.81 203.69,-19.95"/>
<polygon fill="midnightblue" stroke="midnightblue" points="204.16,-16.48 193.67,-17.98 202.81,-23.35 204.16,-16.48"/>
</g>
<!-- Node6 -->
<g id="node6" class="node">
<title>Node6</title>
<g id="a_node6"><a xlink:title=" ">
<polygon fill="white" stroke="#bfbfbf" points="211.5,-0.5 211.5,-19.5 262.5,-19.5 262.5,-0.5 211.5,-0.5"/>
<text text-anchor="middle" x="237" y="-7.5" font-family="Helvetica,sans-Serif" font-size="10.00">errno.h</text>
</a>
</g>
</g>
<!-- Node3&#45;&gt;Node6 -->
<g id="edge5" class="edge">
<title>Node3&#45;&gt;Node6</title>
<path fill="none" stroke="midnightblue" d="M480.31,-59.88C436.48,-52.44 353.23,-37.75 272.41,-19.97"/>
<polygon fill="midnightblue" stroke="midnightblue" points="273.09,-16.53 262.57,-17.78 271.57,-23.36 273.09,-16.53"/>
</g>
<!-- Node7 -->
<g id="node7" class="node">
<title>Node7</title>
<g id="a_node7"><a xlink:title=" ">
<polygon fill="white" stroke="#bfbfbf" points="280.5,-0.5 280.5,-19.5 327.5,-19.5 327.5,-0.5 280.5,-0.5"/>
<text text-anchor="middle" x="304" y="-7.5" font-family="Helvetica,sans-Serif" font-size="10.00">fcntl.h</text>
</a>
</g>
</g>
<!-- Node3&#45;&gt;Node7 -->
<g id="edge6" class="edge">
<title>Node3&#45;&gt;Node7</title>
<path fill="none" stroke="midnightblue" d="M480.48,-57.24C447.61,-48.85 393.54,-34.96 337.52,-20.11"/>
<polygon fill="midnightblue" stroke="midnightblue" points="338.35,-16.71 327.78,-17.53 336.55,-23.48 338.35,-16.71"/>
</g>
<!-- Node8 -->
<g id="node8" class="node">
<title>Node8</title>
<g id="a_node8"><a xlink:title=" ">
<polygon fill="white" stroke="#bfbfbf" points="345.5,-0.5 345.5,-19.5 392.5,-19.5 392.5,-0.5 345.5,-0.5"/>
<text text-anchor="middle" x="369" y="-7.5" font-family="Helvetica,sans-Serif" font-size="10.00">float.h</text>
</a>
</g>
</g>
<!-- Node3&#45;&gt;Node8 -->
<g id="edge7" class="edge">
<title>Node3&#45;&gt;Node8</title>
<path fill="none" stroke="midnightblue" d="M488.5,-56.44C464.92,-47.48 427.68,-33.31 401.04,-23.18"/>
<polygon fill="midnightblue" stroke="midnightblue" points="401.99,-19.8 391.4,-19.52 399.5,-26.34 401.99,-19.8"/>
</g>
<!-- Node9 -->
<g id="node9" class="node">
<title>Node9</title>
<g id="a_node9"><a xlink:title=" ">
<polygon fill="white" stroke="#bfbfbf" points="410.5,-0.5 410.5,-19.5 461.5,-19.5 461.5,-0.5 410.5,-0.5"/>
<text text-anchor="middle" x="436" y="-7.5" font-family="Helvetica,sans-Serif" font-size="10.00">math.h</text>
</a>
</g>
</g>
<!-- Node3&#45;&gt;Node9 -->
<g id="edge8" class="edge">
<title>Node3&#45;&gt;Node9</title>
<path fill="none" stroke="midnightblue" d="M498.95,-56.32C487.54,-48.11 470.17,-35.6 456.57,-25.81"/>
<polygon fill="midnightblue" stroke="midnightblue" points="458.43,-22.84 448.27,-19.83 454.34,-28.52 458.43,-22.84"/>
</g>
<!-- Node10 -->
<g id="node10" class="node">
<title>Node10</title>
<g id="a_node10"><a xlink:title=" ">
<polygon fill="white" stroke="#bfbfbf" points="479.5,-0.5 479.5,-19.5 542.5,-19.5 542.5,-0.5 479.5,-0.5"/>
<text text-anchor="middle" x="511" y="-7.5" font-family="Helvetica,sans-Serif" font-size="10.00">pthread.h</text>
</a>
</g>
</g>
<!-- Node3&#45;&gt;Node10 -->
<g id="edge9" class="edge">
<title>Node3&#45;&gt;Node10</title>
<path fill="none" stroke="midnightblue" d="M511,-56.08C511,-49.01 511,-38.86 511,-29.99"/>
<polygon fill="midnightblue" stroke="midnightblue" points="514.5,-29.75 511,-19.75 507.5,-29.75 514.5,-29.75"/>
</g>
<!-- Node11 -->
<g id="node11" class="node">
<title>Node11</title>
<g id="a_node11"><a xlink:title=" ">
<polygon fill="white" stroke="#bfbfbf" points="561,-0.5 561,-19.5 617,-19.5 617,-0.5 561,-0.5"/>
<text text-anchor="middle" x="589" y="-7.5" font-family="Helvetica,sans-Serif" font-size="10.00">stdarg.h</text>
</a>
</g>
</g>
<!-- Node3&#45;&gt;Node11 -->
<g id="edge10" class="edge">
<title>Node3&#45;&gt;Node11</title>
<path fill="none" stroke="midnightblue" d="M523.53,-56.32C535.59,-47.98 554.03,-35.21 568.27,-25.35"/>
<polygon fill="midnightblue" stroke="midnightblue" points="570.27,-28.22 576.5,-19.65 566.28,-22.47 570.27,-28.22"/>
</g>
<!-- Node12 -->
<g id="node12" class="node">
<title>Node12</title>
<g id="a_node12"><a xlink:title=" ">
<polygon fill="white" stroke="#bfbfbf" points="635.5,-0.5 635.5,-19.5 688.5,-19.5 688.5,-0.5 635.5,-0.5"/>
<text text-anchor="middle" x="662" y="-7.5" font-family="Helvetica,sans-Serif" font-size="10.00">stdint.h</text>
</a>
</g>
</g>
<!-- Node3&#45;&gt;Node12 -->
<g id="edge11" class="edge">
<title>Node3&#45;&gt;Node12</title>
<path fill="none" stroke="midnightblue" d="M534.93,-56.44C560.22,-47.4 600.3,-33.06 628.68,-22.92"/>
<polygon fill="midnightblue" stroke="midnightblue" points="629.95,-26.18 638.19,-19.52 627.59,-19.59 629.95,-26.18"/>
</g>
<!-- Node13 -->
<g id="node13" class="node">
<title>Node13</title>
<g id="a_node13"><a xlink:title=" ">
<polygon fill="white" stroke="#bfbfbf" points="707,-0.5 707,-19.5 757,-19.5 757,-0.5 707,-0.5"/>
<text text-anchor="middle" x="732" y="-7.5" font-family="Helvetica,sans-Serif" font-size="10.00">stdio.h</text>
</a>
</g>
</g>
<!-- Node3&#45;&gt;Node13 -->
<g id="edge12" class="edge">
<title>Node3&#45;&gt;Node13</title>
<path fill="none" stroke="midnightblue" d="M541.83,-57.81C577.05,-49.54 636.68,-35.39 697.07,-20.2"/>
<polygon fill="midnightblue" stroke="midnightblue" points="697.93,-23.59 706.77,-17.75 696.21,-16.8 697.93,-23.59"/>
</g>
<!-- Node14 -->
<g id="node14" class="node">
<title>Node14</title>
<g id="a_node14"><a xlink:title=" ">
<polygon fill="white" stroke="#bfbfbf" points="775.5,-0.5 775.5,-19.5 828.5,-19.5 828.5,-0.5 775.5,-0.5"/>
<text text-anchor="middle" x="802" y="-7.5" font-family="Helvetica,sans-Serif" font-size="10.00">stdlib.h</text>
</a>
</g>
</g>
<!-- Node3&#45;&gt;Node14 -->
<g id="edge13" class="edge">
<title>Node3&#45;&gt;Node14</title>
<path fill="none" stroke="midnightblue" d="M541.75,-60.29C588.02,-53.05 678.5,-38.28 765.3,-20.02"/>
<polygon fill="midnightblue" stroke="midnightblue" points="766.26,-23.39 775.31,-17.89 764.8,-16.55 766.26,-23.39"/>
</g>
<!-- Node15 -->
<g id="node15" class="node">
<title>Node15</title>
<g id="a_node15"><a xlink:title=" ">
<polygon fill="white" stroke="#bfbfbf" points="846.5,-0.5 846.5,-19.5 899.5,-19.5 899.5,-0.5 846.5,-0.5"/>
<text text-anchor="middle" x="873" y="-7.5" font-family="Helvetica,sans-Serif" font-size="10.00">string.h</text>
</a>
</g>
</g>
<!-- Node3&#45;&gt;Node15 -->
<g id="edge14" class="edge">
<title>Node3&#45;&gt;Node15</title>
<path fill="none" stroke="midnightblue" d="M541.85,-61.95C598.43,-56.1 722.74,-42.06 836.41,-20.13"/>
<polygon fill="midnightblue" stroke="midnightblue" points="837.18,-23.55 846.32,-18.2 835.83,-16.68 837.18,-23.55"/>
</g>
<!-- Node16 -->
<g id="node16" class="node">
<title>Node16</title>
<g id="a_node16"><a xlink:title=" ">
<polygon fill="white" stroke="#bfbfbf" points="917.5,-0.5 917.5,-19.5 994.5,-19.5 994.5,-0.5 917.5,-0.5"/>
<text text-anchor="middle" x="956" y="-7.5" font-family="Helvetica,sans-Serif" font-size="10.00">sys/mman.h</text>
</a>
</g>
</g>
<!-- Node3&#45;&gt;Node16 -->
<g id="edge15" class="edge">
<title>Node3&#45;&gt;Node16</title>
<path fill="none" stroke="midnightblue" d="M541.56,-62.35C606.84,-56.52 764.9,-41.48 907.1,-20.19"/>
<polygon fill="midnightblue" stroke="midnightblue" points="907.95,-23.61 917.31,-18.65 906.9,-16.69 907.95,-23.61"/>
</g>
<!-- Node17 -->
<g id="node17" class="node">
<title>Node17</title>
<g id="a_node17"><a xlink:title=" ">
<polygon fill="white" stroke="#bfbfbf" points="1013,-0.5 1013,-19.5 1077,-19.5 1077,-0.5 1013,-0.5"/>
<text text-anchor="middle" x="1045" y="-7.5" font-family="Helvetica,sans-Serif" font-size="10.00">sys/stat.h</text>
</a>
</g>
</g>
<!-- Node3&#45;&gt;Node17 -->
<g id="edge16" class="edge">
<title>Node3&#45;&gt;Node17</title>
<path fill="none" stroke="midnightblue" d="M541.74,-63.53C618.11,-59.6 822.74,-47.34 1002.92,-19.98"/>
<polygon fill="midnightblue" stroke="midnightblue" points="1003.49,-23.44 1012.84,-18.46 1002.43,-16.52 1003.49,-23.44"/>
</g>
<!-- Node18 -->
<g id="node18" class="node">
<title>Node18</title>
<g id="a_node18"><a xlink:title=" ">
<polygon fill="white" stroke="#bfbfbf" points="1095,-0.5 1095,-19.5 1151,-19.5 1151,-0.5 1095,-0.5"/>
<text text-anchor="middle" x="1123" y="-7.5" font-family="Helvetica,sans-Serif" font-size="10.00">unistd.h</text>
</a>
</g>
</g>
<!-- Node3&#45;&gt;Node18 -->
<g id="edge18" class="edge">
<title>Node3&#45;&gt;Node18</title>
<path fill="none" stroke="midnightblue" d="M541.75,-64.33C626.73,-62.1 872.01,-53.21 1084.71,-19.95"/>
<polygon fill="midnightblue" stroke="midnightblue" points="1085.48,-23.37 1094.81,-18.35 1084.39,-16.46 1085.48,-23.37"/>
</g>
<!-- Node19 -->
<g id="node19" class="node">
<title>Node19</title>
<g id="a_node19"><a xlink:title=" ">
<polygon fill="white" stroke="#bfbfbf" points="1169,-0.5 1169,-19.5 1231,-19.5 1231,-0.5 1169,-0.5"/>
<text text-anchor="middle" x="1200" y="-7.5" font-family="Helvetica,sans-Serif" font-size="10.00">stdbool.h</text>
</a>
</g>
</g>
<!-- Node3&#45;&gt;Node19 -->
<g id="edge19" class="edge">
<title>Node3&#45;&gt;Node19</title>
<path fill="none" stroke="midnightblue" d="M541.59,-64.53C633.57,-62.76 915.78,-54.8 1158.57,-19.99"/>
<polygon fill="midnightblue" stroke="midnightblue" points="1159.25,-23.43 1168.64,-18.53 1158.24,-16.5 1159.25,-23.43"/>
</g>
<!-- Node20&#45;&gt;Node2 -->
<g id="edge22" class="edge">
<title>Node20&#45;&gt;Node2</title>
<path fill="none" stroke="midnightblue" d="M234.11,-112.37C194.32,-93.17 98.29,-46.84 51.1,-24.07"/>
<polygon fill="midnightblue" stroke="midnightblue" points="52.34,-20.78 41.81,-19.59 49.29,-27.09 52.34,-20.78"/>
</g>
<!-- Node20&#45;&gt;Node3 -->
<g id="edge23" class="edge">
<title>Node20&#45;&gt;Node3</title>
<path fill="none" stroke="midnightblue" d="M293.04,-112.44C341.65,-102.31 422.1,-85.54 470.48,-75.45"/>
<polygon fill="midnightblue" stroke="midnightblue" points="471.22,-78.87 480.29,-73.4 469.79,-72.02 471.22,-78.87"/>
</g>
<!-- Node21 -->
<g id="node21" class="node">
<title>Node21</title>
<g id="a_node21"><a xlink:title=" ">
<polygon fill="white" stroke="#bfbfbf" points="225.5,-56.5 225.5,-75.5 278.5,-75.5 278.5,-56.5 225.5,-56.5"/>
<text text-anchor="middle" x="252" y="-63.5" font-family="Helvetica,sans-Serif" font-size="10.00">limits.h</text>
</a>
</g>
</g>
<!-- Node20&#45;&gt;Node21 -->
<g id="edge21" class="edge">
<title>Node20&#45;&gt;Node21</title>
<path fill="none" stroke="midnightblue" d="M252,-112.08C252,-105.01 252,-94.86 252,-85.99"/>
<polygon fill="midnightblue" stroke="midnightblue" points="255.5,-85.75 252,-75.75 248.5,-85.75 255.5,-85.75"/>
</g>
</g>
</svg>
