<?xml version="1.0" encoding="UTF-8" standalone="no"?>
<!DOCTYPE svg PUBLIC "-//W3C//DTD SVG 1.1//EN"
 "http://www.w3.org/Graphics/SVG/1.1/DTD/svg11.dtd">
<!-- Generated by graphviz version 2.43.0 (0)
 -->
<!-- Title: SdbTimespecAbsolute Pages: 1 -->
<svg width="876pt" height="294pt"
 viewBox="0.00 0.00 876.00 294.00" xmlns="http://www.w3.org/2000/svg" xmlns:xlink="http://www.w3.org/1999/xlink">
<g id="graph0" class="graph" transform="scale(1 1) rotate(0) translate(4 290)">
<title>SdbTimespecAbsolute</title>
<polygon fill="white" stroke="transparent" points="-4,4 -4,-290 872,-290 872,4 -4,4"/>
<!-- Node1 -->
<g id="node1" class="node">
<title>Node1</title>
<g id="a_node1"><a xlink:title="Create Absolute Timeout Timestamp.">
<polygon fill="#bfbfbf" stroke="black" points="743,-152.5 743,-171.5 868,-171.5 868,-152.5 743,-152.5"/>
<text text-anchor="middle" x="805.5" y="-159.5" font-family="Helvetica,sans-Serif" font-size="10.00">SdbTimespecAbsolute</text>
</a>
</g>
</g>
<!-- Node2 -->
<g id="node2" class="node">
<title>Node2</title>
<g id="a_node2"><a xlink:href="Thread_8c.html#aa16f3f5cb899e1128f1a80c021780e5f" target="_top" xlink:title=" ">
<polygon fill="white" stroke="black" points="618,-152.5 618,-171.5 707,-171.5 707,-152.5 618,-152.5"/>
<text text-anchor="middle" x="662.5" y="-159.5" font-family="Helvetica,sans-Serif" font-size="10.00">CreateTimeout</text>
</a>
</g>
</g>
<!-- Node1&#45;&gt;Node2 -->
<g id="edge1" class="edge">
<title>Node1&#45;&gt;Node2</title>
<path fill="none" stroke="midnightblue" d="M732.49,-162C723.82,-162 715.18,-162 707.09,-162"/>
<polygon fill="midnightblue" stroke="midnightblue" points="732.66,-165.5 742.66,-162 732.66,-158.5 732.66,-165.5"/>
</g>
<!-- Node3 -->
<g id="node3" class="node">
<title>Node3</title>
<g id="a_node3"><a xlink:href="Thread_8c.html#a3aa5be8c3ae6f155db4058a8b658ab91" target="_top" xlink:title="Wait on a condition variable with timeout.">
<polygon fill="white" stroke="black" points="497.5,-209.5 497.5,-228.5 578.5,-228.5 578.5,-209.5 497.5,-209.5"/>
<text text-anchor="middle" x="538" y="-216.5" font-family="Helvetica,sans-Serif" font-size="10.00">SdbCondWait</text>
</a>
</g>
</g>
<!-- Node2&#45;&gt;Node3 -->
<g id="edge2" class="edge">
<title>Node2&#45;&gt;Node3</title>
<path fill="none" stroke="midnightblue" d="M631.63,-175.9C609.28,-186.3 579.29,-200.25 559.57,-209.43"/>
<polygon fill="midnightblue" stroke="midnightblue" points="633.41,-178.93 641,-171.54 630.45,-172.59 633.41,-178.93"/>
</g>
<!-- Node8 -->
<g id="node8" class="node">
<title>Node8</title>
<g id="a_node8"><a xlink:href="Thread_8c.html#a5fbfdcfc990630f27e5161ec4ea18aaa" target="_top" xlink:title="Lock a mutex with timeout.">
<polygon fill="white" stroke="black" points="494,-152.5 494,-171.5 582,-171.5 582,-152.5 494,-152.5"/>
<text text-anchor="middle" x="538" y="-159.5" font-family="Helvetica,sans-Serif" font-size="10.00">SdbMutexLock</text>
</a>
</g>
</g>
<!-- Node2&#45;&gt;Node8 -->
<g id="edge7" class="edge">
<title>Node2&#45;&gt;Node8</title>
<path fill="none" stroke="midnightblue" d="M607.76,-162C599.28,-162 590.6,-162 582.39,-162"/>
<polygon fill="midnightblue" stroke="midnightblue" points="607.97,-165.5 617.97,-162 607.97,-158.5 607.97,-165.5"/>
</g>
<!-- Node15 -->
<g id="node15" class="node">
<title>Node15</title>
<g id="a_node15"><a xlink:href="Thread_8c.html#a4e936d88806cd469a2214d3973ea15b7" target="_top" xlink:title="Wait on a semaphore with timeout.">
<polygon fill="white" stroke="black" points="499,-114.5 499,-133.5 577,-133.5 577,-114.5 499,-114.5"/>
<text text-anchor="middle" x="538" y="-121.5" font-family="Helvetica,sans-Serif" font-size="10.00">SdbSemWait</text>
</a>
</g>
</g>
<!-- Node2&#45;&gt;Node15 -->
<g id="edge19" class="edge">
<title>Node2&#45;&gt;Node15</title>
<path fill="none" stroke="midnightblue" d="M620.62,-149.32C604.07,-144.19 585.28,-138.36 569.9,-133.59"/>
<polygon fill="midnightblue" stroke="midnightblue" points="620,-152.79 630.59,-152.41 622.07,-146.11 620,-152.79"/>
</g>
<!-- Node4 -->
<g id="node4" class="node">
<title>Node4</title>
<g id="a_node4"><a xlink:href="Thread_8c.html#ac8a5ec29ca01a647dbc806ee148840bc" target="_top" xlink:title=" ">
<polygon fill="white" stroke="black" points="337.5,-266.5 337.5,-285.5 457.5,-285.5 457.5,-266.5 337.5,-266.5"/>
<text text-anchor="middle" x="397.5" y="-273.5" font-family="Helvetica,sans-Serif" font-size="10.00">SdbTCtlWaitForSignal</text>
</a>
</g>
</g>
<!-- Node3&#45;&gt;Node4 -->
<g id="edge3" class="edge">
<title>Node3&#45;&gt;Node4</title>
<path fill="none" stroke="midnightblue" d="M509.59,-233.35C494.58,-240.91 475.52,-250.03 458,-257 449.44,-260.41 440,-263.65 431.21,-266.45"/>
<polygon fill="midnightblue" stroke="midnightblue" points="511.49,-236.31 518.81,-228.65 508.31,-230.07 511.49,-236.31"/>
</g>
<!-- Node5 -->
<g id="node5" class="node">
<title>Node5</title>
<g id="a_node5"><a xlink:href="Thread_8c.html#a25bd8de99cb5460de9f423913059621b" target="_top" xlink:title=" ">
<polygon fill="white" stroke="black" points="341.5,-228.5 341.5,-247.5 453.5,-247.5 453.5,-228.5 341.5,-228.5"/>
<text text-anchor="middle" x="397.5" y="-235.5" font-family="Helvetica,sans-Serif" font-size="10.00">SdbTCtlWaitForStop</text>
</a>
</g>
</g>
<!-- Node3&#45;&gt;Node5 -->
<g id="edge4" class="edge">
<title>Node3&#45;&gt;Node5</title>
<path fill="none" stroke="midnightblue" d="M487.15,-225.84C476.29,-227.33 464.73,-228.91 453.68,-230.43"/>
<polygon fill="midnightblue" stroke="midnightblue" points="487.88,-229.27 497.31,-224.44 486.93,-222.34 487.88,-229.27"/>
</g>
<!-- Node6 -->
<g id="node6" class="node">
<title>Node6</title>
<g id="a_node6"><a xlink:href="ThreadGroup_8c.html#a94f41b6eed9ab8ff08d3921b617a87dd" target="_top" xlink:title="Wait for Completion of All Thread Groups.">
<polygon fill="white" stroke="black" points="337,-190.5 337,-209.5 458,-209.5 458,-190.5 337,-190.5"/>
<text text-anchor="middle" x="397.5" y="-197.5" font-family="Helvetica,sans-Serif" font-size="10.00">TgManagerWaitForAll</text>
</a>
</g>
</g>
<!-- Node3&#45;&gt;Node6 -->
<g id="edge5" class="edge">
<title>Node3&#45;&gt;Node6</title>
<path fill="none" stroke="midnightblue" d="M487.28,-212.18C477.81,-210.88 467.81,-209.51 458.08,-208.17"/>
<polygon fill="midnightblue" stroke="midnightblue" points="486.93,-215.66 497.31,-213.56 487.88,-208.73 486.93,-215.66"/>
</g>
<!-- Node7 -->
<g id="node7" class="node">
<title>Node7</title>
<g id="a_node7"><a xlink:href="Main_8c.html#ae21eb8342793f7f8f0d5fda6b96c0803" target="_top" xlink:title="Main entry point for the Sensor Data Handler System.">
<polygon fill="white" stroke="black" points="0,-171.5 0,-190.5 41,-190.5 41,-171.5 0,-171.5"/>
<text text-anchor="middle" x="20.5" y="-178.5" font-family="Helvetica,sans-Serif" font-size="10.00">main</text>
</a>
</g>
</g>
<!-- Node6&#45;&gt;Node7 -->
<g id="edge6" class="edge">
<title>Node6&#45;&gt;Node7</title>
<path fill="none" stroke="midnightblue" d="M326.52,-196.45C238.79,-192.01 93.53,-184.65 41.12,-181.99"/>
<polygon fill="midnightblue" stroke="midnightblue" points="326.5,-199.96 336.67,-196.97 326.86,-192.97 326.5,-199.96"/>
</g>
<!-- Node8&#45;&gt;Node4 -->
<g id="edge11" class="edge">
<title>Node8&#45;&gt;Node4</title>
<path fill="none" stroke="midnightblue" d="M516.37,-178.16C508.88,-184.54 500.64,-192.2 494,-200 474.58,-222.82 481.7,-238.67 458,-257 453.02,-260.85 447.25,-263.93 441.29,-266.39"/>
<polygon fill="midnightblue" stroke="midnightblue" points="518.6,-180.86 524.08,-171.79 514.14,-175.46 518.6,-180.86"/>
</g>
<!-- Node8&#45;&gt;Node5 -->
<g id="edge12" class="edge">
<title>Node8&#45;&gt;Node5</title>
<path fill="none" stroke="midnightblue" d="M518.51,-177.94C503.16,-190.52 480.3,-207.76 458,-219 450.74,-222.66 442.62,-225.81 434.78,-228.43"/>
<polygon fill="midnightblue" stroke="midnightblue" points="520.79,-180.6 526.22,-171.51 516.3,-175.23 520.79,-180.6"/>
</g>
<!-- Node8&#45;&gt;Node6 -->
<g id="edge15" class="edge">
<title>Node8&#45;&gt;Node6</title>
<path fill="none" stroke="midnightblue" d="M492.37,-174.25C473.28,-179.48 451.32,-185.51 433.44,-190.41"/>
<polygon fill="midnightblue" stroke="midnightblue" points="493.33,-177.61 502.05,-171.59 491.48,-170.86 493.33,-177.61"/>
</g>
<!-- Node9 -->
<g id="node9" class="node">
<title>Node9</title>
<g id="a_node9"><a xlink:href="Thread_8c.html#ab71f0de8f1f57ba18443a8947d10cbe9" target="_top" xlink:title=" ">
<polygon fill="white" stroke="black" points="338.5,-114.5 338.5,-133.5 456.5,-133.5 456.5,-114.5 338.5,-114.5"/>
<text text-anchor="middle" x="397.5" y="-121.5" font-family="Helvetica,sans-Serif" font-size="10.00">SdbTCtlMarkStopped</text>
</a>
</g>
</g>
<!-- Node8&#45;&gt;Node9 -->
<g id="edge8" class="edge">
<title>Node8&#45;&gt;Node9</title>
<path fill="none" stroke="midnightblue" d="M492.37,-149.75C473.28,-144.52 451.32,-138.49 433.44,-133.59"/>
<polygon fill="midnightblue" stroke="midnightblue" points="491.48,-153.14 502.05,-152.41 493.33,-146.39 491.48,-153.14"/>
</g>
<!-- Node10 -->
<g id="node10" class="node">
<title>Node10</title>
<g id="a_node10"><a xlink:href="Thread_8c.html#a8652a70b8480decb154cff225ebd8041" target="_top" xlink:title=" ">
<polygon fill="white" stroke="black" points="343.5,-76.5 343.5,-95.5 451.5,-95.5 451.5,-76.5 343.5,-76.5"/>
<text text-anchor="middle" x="397.5" y="-83.5" font-family="Helvetica,sans-Serif" font-size="10.00">SdbTCtlShouldStop</text>
</a>
</g>
</g>
<!-- Node8&#45;&gt;Node10 -->
<g id="edge9" class="edge">
<title>Node8&#45;&gt;Node10</title>
<path fill="none" stroke="midnightblue" d="M501.55,-147.73C498.92,-146.25 496.38,-144.68 494,-143 474.99,-129.59 477.7,-117.37 458,-105 451.94,-101.19 445.05,-98.09 438.16,-95.57"/>
<polygon fill="midnightblue" stroke="midnightblue" points="500.14,-150.93 510.64,-152.33 503.3,-144.69 500.14,-150.93"/>
</g>
<!-- Node11 -->
<g id="node11" class="node">
<title>Node11</title>
<g id="a_node11"><a xlink:href="Thread_8c.html#aeef5b8eae38ea9383d6466621c42342a" target="_top" xlink:title=" ">
<polygon fill="white" stroke="black" points="345,-38.5 345,-57.5 450,-57.5 450,-38.5 345,-38.5"/>
<text text-anchor="middle" x="397.5" y="-45.5" font-family="Helvetica,sans-Serif" font-size="10.00">SdbTCtlSignalStop</text>
</a>
</g>
</g>
<!-- Node8&#45;&gt;Node11 -->
<g id="edge10" class="edge">
<title>Node8&#45;&gt;Node11</title>
<path fill="none" stroke="midnightblue" d="M498.67,-146.95C497.02,-145.72 495.45,-144.41 494,-143 467.23,-116.92 486.13,-91.61 458,-67 453.59,-63.14 448.4,-60.07 442.94,-57.62"/>
<polygon fill="midnightblue" stroke="midnightblue" points="497.12,-150.11 507.48,-152.35 500.78,-144.14 497.12,-150.11"/>
</g>
<!-- Node12 -->
<g id="node12" class="node">
<title>Node12</title>
<g id="a_node12"><a xlink:href="ThreadGroup_8c.html#a99b84055dd294fe099f1bb31fcdaceb4" target="_top" xlink:title="Start All Thread Groups in Manager.">
<polygon fill="white" stroke="black" points="77,-152.5 77,-171.5 184,-171.5 184,-152.5 77,-152.5"/>
<text text-anchor="middle" x="130.5" y="-159.5" font-family="Helvetica,sans-Serif" font-size="10.00">TgManagerStartAll</text>
</a>
</g>
</g>
<!-- Node8&#45;&gt;Node12 -->
<g id="edge13" class="edge">
<title>Node8&#45;&gt;Node12</title>
<path fill="none" stroke="midnightblue" d="M483.92,-162C406.1,-162 261.89,-162 184.25,-162"/>
<polygon fill="midnightblue" stroke="midnightblue" points="483.99,-165.5 493.99,-162 483.99,-158.5 483.99,-165.5"/>
</g>
<!-- Node13 -->
<g id="node13" class="node">
<title>Node13</title>
<g id="a_node13"><a xlink:href="ThreadGroup_8c.html#abd4b3faea4ee7a0e94f28b6ce36aab7c" target="_top" xlink:title=" ">
<polygon fill="white" stroke="black" points="364.5,-0.5 364.5,-19.5 430.5,-19.5 430.5,-0.5 364.5,-0.5"/>
<text text-anchor="middle" x="397.5" y="-7.5" font-family="Helvetica,sans-Serif" font-size="10.00">TgMonitor</text>
</a>
</g>
</g>
<!-- Node8&#45;&gt;Node13 -->
<g id="edge16" class="edge">
<title>Node8&#45;&gt;Node13</title>
<path fill="none" stroke="midnightblue" d="M497.77,-146.64C496.43,-145.51 495.16,-144.3 494,-143 458.56,-103.42 495.51,-66.63 458,-29 450.65,-21.63 440.45,-17.11 430.56,-14.35"/>
<polygon fill="midnightblue" stroke="midnightblue" points="495.91,-149.61 506.16,-152.3 499.83,-143.81 495.91,-149.61"/>
</g>
<!-- Node12&#45;&gt;Node7 -->
<g id="edge14" class="edge">
<title>Node12&#45;&gt;Node7</title>
<path fill="none" stroke="midnightblue" d="M66.64,-173.06C57.4,-174.69 48.5,-176.25 41.09,-177.55"/>
<polygon fill="midnightblue" stroke="midnightblue" points="67.52,-176.46 76.77,-171.28 66.31,-169.56 67.52,-176.46"/>
</g>
<!-- Node14 -->
<g id="node14" class="node">
<title>Node14</title>
<g id="a_node14"><a xlink:href="ThreadGroup_8c.html#aaf638572d1f947f2ab3b6637d11029fd" target="_top" xlink:title="Start All Threads in a Thread Group.">
<polygon fill="white" stroke="black" points="220,-57.5 220,-76.5 301,-76.5 301,-57.5 220,-57.5"/>
<text text-anchor="middle" x="260.5" y="-64.5" font-family="Helvetica,sans-Serif" font-size="10.00">TgStartGroup</text>
</a>
</g>
</g>
<!-- Node13&#45;&gt;Node14 -->
<g id="edge17" class="edge">
<title>Node13&#45;&gt;Node14</title>
<path fill="none" stroke="midnightblue" d="M354.5,-22.5C348.57,-24.52 342.6,-26.72 337,-29 316.35,-37.43 293.61,-49.25 278.53,-57.46"/>
<polygon fill="midnightblue" stroke="midnightblue" points="355.96,-25.7 364.36,-19.25 353.77,-19.05 355.96,-25.7"/>
</g>
<!-- Node14&#45;&gt;Node12 -->
<g id="edge18" class="edge">
<title>Node14&#45;&gt;Node12</title>
<path fill="none" stroke="midnightblue" d="M237.96,-82.99C211.21,-102.84 166.42,-136.08 144.45,-152.39"/>
<polygon fill="midnightblue" stroke="midnightblue" points="240.34,-85.58 246.28,-76.81 236.17,-79.96 240.34,-85.58"/>
</g>
</g>
</svg>
