<?xml version="1.0" encoding="UTF-8" standalone="no"?>
<!DOCTYPE svg PUBLIC "-//W3C//DTD SVG 1.1//EN"
 "http://www.w3.org/Graphics/SVG/1.1/DTD/svg11.dtd">
<!-- Generated by graphviz version 2.43.0 (0)
 -->
<!-- Title: src/Common/Time.h Pages: 1 -->
<svg width="1239pt" height="140pt"
 viewBox="0.00 0.00 1239.00 140.00" xmlns="http://www.w3.org/2000/svg" xmlns:xlink="http://www.w3.org/1999/xlink">
<g id="graph0" class="graph" transform="scale(1 1) rotate(0) translate(4 136)">
<title>src/Common/Time.h</title>
<polygon fill="white" stroke="transparent" points="-4,4 -4,-136 1235,-136 1235,4 -4,4"/>
<!-- Node1 -->
<g id="node1" class="node">
<title>Node1</title>
<g id="a_node1"><a xlink:title="Lightweight Time Manipulation Utilities.">
<polygon fill="#bfbfbf" stroke="black" points="180.5,-112.5 180.5,-131.5 295.5,-131.5 295.5,-112.5 180.5,-112.5"/>
<text text-anchor="middle" x="238" y="-119.5" font-family="Helvetica,sans-Serif" font-size="10.00">src/Common/Time.h</text>
</a>
</g>
</g>
<!-- Node2 -->
<g id="node2" class="node">
<title>Node2</title>
<g id="a_node2"><a xlink:title=" ">
<polygon fill="white" stroke="#bfbfbf" points="156.5,-56.5 156.5,-75.5 209.5,-75.5 209.5,-56.5 156.5,-56.5"/>
<text text-anchor="middle" x="183" y="-63.5" font-family="Helvetica,sans-Serif" font-size="10.00">limits.h</text>
</a>
</g>
</g>
<!-- Node1&#45;&gt;Node2 -->
<g id="edge1" class="edge">
<title>Node1&#45;&gt;Node2</title>
<path fill="none" stroke="midnightblue" d="M228.92,-112.08C220.83,-104.14 208.8,-92.34 199.09,-82.8"/>
<polygon fill="midnightblue" stroke="midnightblue" points="201.5,-80.26 191.91,-75.75 196.6,-85.25 201.5,-80.26"/>
</g>
<!-- Node3 -->
<g id="node3" class="node">
<title>Node3</title>
<g id="a_node3"><a xlink:title=" ">
<polygon fill="white" stroke="#bfbfbf" points="0,-0.5 0,-19.5 48,-19.5 48,-0.5 0,-0.5"/>
<text text-anchor="middle" x="24" y="-7.5" font-family="Helvetica,sans-Serif" font-size="10.00">time.h</text>
</a>
</g>
</g>
<!-- Node1&#45;&gt;Node3 -->
<g id="edge2" class="edge">
<title>Node1&#45;&gt;Node3</title>
<path fill="none" stroke="midnightblue" d="M237.95,-112.42C237.38,-98.47 234.13,-70.91 218,-56 166.47,-8.37 131.29,-35.1 58.2,-20.01"/>
<polygon fill="midnightblue" stroke="midnightblue" points="58.64,-16.52 48.12,-17.72 57.09,-23.35 58.64,-16.52"/>
</g>
<!-- Node4 -->
<g id="node4" class="node">
<title>Node4</title>
<g id="a_node4"><a xlink:href="Sdb_8h.html" target="_top" xlink:title=" ">
<polygon fill="white" stroke="black" points="519.5,-56.5 519.5,-75.5 580.5,-75.5 580.5,-56.5 519.5,-56.5"/>
<text text-anchor="middle" x="550" y="-63.5" font-family="Helvetica,sans-Serif" font-size="10.00">src/Sdb.h</text>
</a>
</g>
</g>
<!-- Node1&#45;&gt;Node4 -->
<g id="edge3" class="edge">
<title>Node1&#45;&gt;Node4</title>
<path fill="none" stroke="midnightblue" d="M287.44,-112.44C348.74,-101.83 452.11,-83.94 509.15,-74.07"/>
<polygon fill="midnightblue" stroke="midnightblue" points="509.98,-77.48 519.24,-72.32 508.79,-70.58 509.98,-77.48"/>
</g>
<!-- Node4&#45;&gt;Node3 -->
<g id="edge18" class="edge">
<title>Node4&#45;&gt;Node3</title>
<path fill="none" stroke="midnightblue" d="M519.46,-64.07C443.11,-61.36 237.77,-51.63 57.94,-19.86"/>
<polygon fill="midnightblue" stroke="midnightblue" points="58.5,-16.4 48.04,-18.08 57.26,-23.29 58.5,-16.4"/>
</g>
<!-- Node5 -->
<g id="node5" class="node">
<title>Node5</title>
<g id="a_node5"><a xlink:title=" ">
<polygon fill="white" stroke="#bfbfbf" points="66,-0.5 66,-19.5 122,-19.5 122,-0.5 66,-0.5"/>
<text text-anchor="middle" x="94" y="-7.5" font-family="Helvetica,sans-Serif" font-size="10.00">assert.h</text>
</a>
</g>
</g>
<!-- Node4&#45;&gt;Node5 -->
<g id="edge4" class="edge">
<title>Node4&#45;&gt;Node5</title>
<path fill="none" stroke="midnightblue" d="M519.31,-63.09C451.29,-58.57 282.6,-45.73 132.09,-19.98"/>
<polygon fill="midnightblue" stroke="midnightblue" points="132.65,-16.53 122.2,-18.26 131.46,-23.42 132.65,-16.53"/>
</g>
<!-- Node6 -->
<g id="node6" class="node">
<title>Node6</title>
<g id="a_node6"><a xlink:title=" ">
<polygon fill="white" stroke="#bfbfbf" points="140.5,-0.5 140.5,-19.5 193.5,-19.5 193.5,-0.5 140.5,-0.5"/>
<text text-anchor="middle" x="167" y="-7.5" font-family="Helvetica,sans-Serif" font-size="10.00">ctype.h</text>
</a>
</g>
</g>
<!-- Node4&#45;&gt;Node6 -->
<g id="edge5" class="edge">
<title>Node4&#45;&gt;Node6</title>
<path fill="none" stroke="midnightblue" d="M519.07,-62.29C459.67,-56.81 325.38,-43.09 203.55,-20.11"/>
<polygon fill="midnightblue" stroke="midnightblue" points="204.16,-16.66 193.68,-18.22 202.84,-23.54 204.16,-16.66"/>
</g>
<!-- Node7 -->
<g id="node7" class="node">
<title>Node7</title>
<g id="a_node7"><a xlink:title=" ">
<polygon fill="white" stroke="#bfbfbf" points="211.5,-0.5 211.5,-19.5 262.5,-19.5 262.5,-0.5 211.5,-0.5"/>
<text text-anchor="middle" x="237" y="-7.5" font-family="Helvetica,sans-Serif" font-size="10.00">errno.h</text>
</a>
</g>
</g>
<!-- Node4&#45;&gt;Node7 -->
<g id="edge6" class="edge">
<title>Node4&#45;&gt;Node7</title>
<path fill="none" stroke="midnightblue" d="M519.27,-61.06C469.39,-54.44 367.56,-40.02 272.34,-20.12"/>
<polygon fill="midnightblue" stroke="midnightblue" points="273.06,-16.7 262.55,-18.05 271.61,-23.55 273.06,-16.7"/>
</g>
<!-- Node8 -->
<g id="node8" class="node">
<title>Node8</title>
<g id="a_node8"><a xlink:title=" ">
<polygon fill="white" stroke="#bfbfbf" points="280.5,-0.5 280.5,-19.5 327.5,-19.5 327.5,-0.5 280.5,-0.5"/>
<text text-anchor="middle" x="304" y="-7.5" font-family="Helvetica,sans-Serif" font-size="10.00">fcntl.h</text>
</a>
</g>
</g>
<!-- Node4&#45;&gt;Node8 -->
<g id="edge7" class="edge">
<title>Node4&#45;&gt;Node8</title>
<path fill="none" stroke="midnightblue" d="M519.38,-59.23C479.58,-51.58 407.72,-37.29 337.6,-20.28"/>
<polygon fill="midnightblue" stroke="midnightblue" points="338.26,-16.84 327.72,-17.86 336.6,-23.64 338.26,-16.84"/>
</g>
<!-- Node9 -->
<g id="node9" class="node">
<title>Node9</title>
<g id="a_node9"><a xlink:title=" ">
<polygon fill="white" stroke="#bfbfbf" points="345.5,-0.5 345.5,-19.5 392.5,-19.5 392.5,-0.5 345.5,-0.5"/>
<text text-anchor="middle" x="369" y="-7.5" font-family="Helvetica,sans-Serif" font-size="10.00">float.h</text>
</a>
</g>
</g>
<!-- Node4&#45;&gt;Node9 -->
<g id="edge8" class="edge">
<title>Node4&#45;&gt;Node9</title>
<path fill="none" stroke="midnightblue" d="M521.32,-56.44C489.07,-46.82 436.76,-31.21 402.61,-21.03"/>
<polygon fill="midnightblue" stroke="midnightblue" points="403.23,-17.56 392.64,-18.05 401.22,-24.27 403.23,-17.56"/>
</g>
<!-- Node10 -->
<g id="node10" class="node">
<title>Node10</title>
<g id="a_node10"><a xlink:title=" ">
<polygon fill="white" stroke="#bfbfbf" points="410.5,-0.5 410.5,-19.5 461.5,-19.5 461.5,-0.5 410.5,-0.5"/>
<text text-anchor="middle" x="436" y="-7.5" font-family="Helvetica,sans-Serif" font-size="10.00">math.h</text>
</a>
</g>
</g>
<!-- Node4&#45;&gt;Node10 -->
<g id="edge9" class="edge">
<title>Node4&#45;&gt;Node10</title>
<path fill="none" stroke="midnightblue" d="M531.94,-56.44C513.43,-47.68 484.42,-33.94 463.14,-23.86"/>
<polygon fill="midnightblue" stroke="midnightblue" points="464.51,-20.63 453.98,-19.52 461.52,-26.96 464.51,-20.63"/>
</g>
<!-- Node11 -->
<g id="node11" class="node">
<title>Node11</title>
<g id="a_node11"><a xlink:title=" ">
<polygon fill="white" stroke="#bfbfbf" points="479.5,-0.5 479.5,-19.5 542.5,-19.5 542.5,-0.5 479.5,-0.5"/>
<text text-anchor="middle" x="511" y="-7.5" font-family="Helvetica,sans-Serif" font-size="10.00">pthread.h</text>
</a>
</g>
</g>
<!-- Node4&#45;&gt;Node11 -->
<g id="edge10" class="edge">
<title>Node4&#45;&gt;Node11</title>
<path fill="none" stroke="midnightblue" d="M543.56,-56.08C538.05,-48.46 529.97,-37.26 523.24,-27.94"/>
<polygon fill="midnightblue" stroke="midnightblue" points="526.01,-25.81 517.32,-19.75 520.34,-29.91 526.01,-25.81"/>
</g>
<!-- Node12 -->
<g id="node12" class="node">
<title>Node12</title>
<g id="a_node12"><a xlink:title=" ">
<polygon fill="white" stroke="#bfbfbf" points="561,-0.5 561,-19.5 617,-19.5 617,-0.5 561,-0.5"/>
<text text-anchor="middle" x="589" y="-7.5" font-family="Helvetica,sans-Serif" font-size="10.00">stdarg.h</text>
</a>
</g>
</g>
<!-- Node4&#45;&gt;Node12 -->
<g id="edge11" class="edge">
<title>Node4&#45;&gt;Node12</title>
<path fill="none" stroke="midnightblue" d="M556.44,-56.08C561.95,-48.46 570.03,-37.26 576.76,-27.94"/>
<polygon fill="midnightblue" stroke="midnightblue" points="579.66,-29.91 582.68,-19.75 573.99,-25.81 579.66,-29.91"/>
</g>
<!-- Node13 -->
<g id="node13" class="node">
<title>Node13</title>
<g id="a_node13"><a xlink:title=" ">
<polygon fill="white" stroke="#bfbfbf" points="635.5,-0.5 635.5,-19.5 688.5,-19.5 688.5,-0.5 635.5,-0.5"/>
<text text-anchor="middle" x="662" y="-7.5" font-family="Helvetica,sans-Serif" font-size="10.00">stdint.h</text>
</a>
</g>
</g>
<!-- Node4&#45;&gt;Node13 -->
<g id="edge12" class="edge">
<title>Node4&#45;&gt;Node13</title>
<path fill="none" stroke="midnightblue" d="M567.99,-56.32C586.04,-47.62 614.05,-34.12 634.8,-24.11"/>
<polygon fill="midnightblue" stroke="midnightblue" points="636.56,-27.15 644.05,-19.65 633.52,-20.84 636.56,-27.15"/>
</g>
<!-- Node14 -->
<g id="node14" class="node">
<title>Node14</title>
<g id="a_node14"><a xlink:title=" ">
<polygon fill="white" stroke="#bfbfbf" points="707,-0.5 707,-19.5 757,-19.5 757,-0.5 707,-0.5"/>
<text text-anchor="middle" x="732" y="-7.5" font-family="Helvetica,sans-Serif" font-size="10.00">stdio.h</text>
</a>
</g>
</g>
<!-- Node4&#45;&gt;Node14 -->
<g id="edge13" class="edge">
<title>Node4&#45;&gt;Node14</title>
<path fill="none" stroke="midnightblue" d="M578.84,-56.44C610.95,-46.92 662.84,-31.52 697.19,-21.33"/>
<polygon fill="midnightblue" stroke="midnightblue" points="698.22,-24.67 706.81,-18.47 696.23,-17.96 698.22,-24.67"/>
</g>
<!-- Node15 -->
<g id="node15" class="node">
<title>Node15</title>
<g id="a_node15"><a xlink:title=" ">
<polygon fill="white" stroke="#bfbfbf" points="775.5,-0.5 775.5,-19.5 828.5,-19.5 828.5,-0.5 775.5,-0.5"/>
<text text-anchor="middle" x="802" y="-7.5" font-family="Helvetica,sans-Serif" font-size="10.00">stdlib.h</text>
</a>
</g>
</g>
<!-- Node4&#45;&gt;Node15 -->
<g id="edge14" class="edge">
<title>Node4&#45;&gt;Node15</title>
<path fill="none" stroke="midnightblue" d="M580.85,-58.97C620.95,-51.05 693.4,-36.44 765.17,-20.12"/>
<polygon fill="midnightblue" stroke="midnightblue" points="766.32,-23.44 775.29,-17.8 764.76,-16.62 766.32,-23.44"/>
</g>
<!-- Node16 -->
<g id="node16" class="node">
<title>Node16</title>
<g id="a_node16"><a xlink:title=" ">
<polygon fill="white" stroke="#bfbfbf" points="846.5,-0.5 846.5,-19.5 899.5,-19.5 899.5,-0.5 846.5,-0.5"/>
<text text-anchor="middle" x="873" y="-7.5" font-family="Helvetica,sans-Serif" font-size="10.00">string.h</text>
</a>
</g>
</g>
<!-- Node4&#45;&gt;Node16 -->
<g id="edge15" class="edge">
<title>Node4&#45;&gt;Node16</title>
<path fill="none" stroke="midnightblue" d="M580.86,-61.17C632.07,-54.61 737.95,-40.14 836.49,-20.16"/>
<polygon fill="midnightblue" stroke="midnightblue" points="837.22,-23.58 846.31,-18.15 835.81,-16.73 837.22,-23.58"/>
</g>
<!-- Node17 -->
<g id="node17" class="node">
<title>Node17</title>
<g id="a_node17"><a xlink:title=" ">
<polygon fill="white" stroke="#bfbfbf" points="917.5,-0.5 917.5,-19.5 994.5,-19.5 994.5,-0.5 917.5,-0.5"/>
<text text-anchor="middle" x="956" y="-7.5" font-family="Helvetica,sans-Serif" font-size="10.00">sys/mman.h</text>
</a>
</g>
</g>
<!-- Node4&#45;&gt;Node17 -->
<g id="edge16" class="edge">
<title>Node4&#45;&gt;Node17</title>
<path fill="none" stroke="midnightblue" d="M580.83,-61.81C641.41,-55.41 780.43,-39.99 907.05,-20.23"/>
<polygon fill="midnightblue" stroke="midnightblue" points="907.97,-23.63 917.31,-18.61 906.88,-16.71 907.97,-23.63"/>
</g>
<!-- Node18 -->
<g id="node18" class="node">
<title>Node18</title>
<g id="a_node18"><a xlink:title=" ">
<polygon fill="white" stroke="#bfbfbf" points="1013,-0.5 1013,-19.5 1077,-19.5 1077,-0.5 1013,-0.5"/>
<text text-anchor="middle" x="1045" y="-7.5" font-family="Helvetica,sans-Serif" font-size="10.00">sys/stat.h</text>
</a>
</g>
</g>
<!-- Node4&#45;&gt;Node18 -->
<g id="edge17" class="edge">
<title>Node4&#45;&gt;Node18</title>
<path fill="none" stroke="midnightblue" d="M580.71,-63.2C652.69,-58.73 837.98,-45.67 1002.53,-20.06"/>
<polygon fill="midnightblue" stroke="midnightblue" points="1003.51,-23.45 1012.84,-18.43 1002.42,-16.53 1003.51,-23.45"/>
</g>
<!-- Node19 -->
<g id="node19" class="node">
<title>Node19</title>
<g id="a_node19"><a xlink:title=" ">
<polygon fill="white" stroke="#bfbfbf" points="1095,-0.5 1095,-19.5 1151,-19.5 1151,-0.5 1095,-0.5"/>
<text text-anchor="middle" x="1123" y="-7.5" font-family="Helvetica,sans-Serif" font-size="10.00">unistd.h</text>
</a>
</g>
</g>
<!-- Node4&#45;&gt;Node19 -->
<g id="edge19" class="edge">
<title>Node4&#45;&gt;Node19</title>
<path fill="none" stroke="midnightblue" d="M580.72,-64.08C661.71,-61.32 887.76,-51.32 1084.85,-19.94"/>
<polygon fill="midnightblue" stroke="midnightblue" points="1085.5,-23.38 1094.81,-18.33 1084.38,-16.47 1085.5,-23.38"/>
</g>
<!-- Node20 -->
<g id="node20" class="node">
<title>Node20</title>
<g id="a_node20"><a xlink:title=" ">
<polygon fill="white" stroke="#bfbfbf" points="1169,-0.5 1169,-19.5 1231,-19.5 1231,-0.5 1169,-0.5"/>
<text text-anchor="middle" x="1200" y="-7.5" font-family="Helvetica,sans-Serif" font-size="10.00">stdbool.h</text>
</a>
</g>
</g>
<!-- Node4&#45;&gt;Node20 -->
<g id="edge20" class="edge">
<title>Node4&#45;&gt;Node20</title>
<path fill="none" stroke="midnightblue" d="M580.64,-64.34C668.94,-62.09 931.57,-53.04 1158.54,-20.01"/>
<polygon fill="midnightblue" stroke="midnightblue" points="1159.26,-23.44 1168.64,-18.52 1158.24,-16.51 1159.26,-23.44"/>
</g>
</g>
</svg>
